%TF.GenerationSoftware,KiCad,Pcbnew,7.0.1-0*%
%TF.CreationDate,2023-05-16T20:35:45+09:00*%
%TF.ProjectId,Sandy_Plate_Bottom,53616e64-795f-4506-9c61-74655f426f74,v.1 (042)*%
%TF.SameCoordinates,Original*%
%TF.FileFunction,Legend,Bot*%
%TF.FilePolarity,Positive*%
%FSLAX46Y46*%
G04 Gerber Fmt 4.6, Leading zero omitted, Abs format (unit mm)*
G04 Created by KiCad (PCBNEW 7.0.1-0) date 2023-05-16 20:35:45*
%MOMM*%
%LPD*%
G01*
G04 APERTURE LIST*
%ADD10C,0.150000*%
%ADD11C,0.200000*%
%ADD12C,0.120000*%
G04 APERTURE END LIST*
D10*
X157925000Y-115981330D02*
X157925000Y-114331330D01*
X157925000Y-113731330D02*
X157925000Y-112081330D01*
X157925000Y-111481330D02*
X157925000Y-109831330D01*
X157925000Y-109231330D02*
X157925000Y-107581330D01*
X157925000Y-106981330D02*
X157925000Y-105331330D01*
X157925000Y-104731330D02*
X157925000Y-103081330D01*
X157925000Y-102481330D02*
X157925000Y-100831330D01*
X157925000Y-100231330D02*
X157925000Y-98581330D01*
X157925000Y-97981330D02*
X157925000Y-96331330D01*
X157925000Y-95731330D02*
X157925000Y-94081330D01*
X157925000Y-93481330D02*
X157925000Y-91831330D01*
X157925000Y-91231330D02*
X157925000Y-90593790D01*
D11*
X134137500Y-35225000D02*
X134137500Y-35225000D01*
X134937500Y-35225000D02*
X134937500Y-35225000D01*
X135737500Y-35225000D02*
X135737500Y-35225000D01*
X136537500Y-35225000D02*
X136537500Y-35225000D01*
X137337500Y-35225000D02*
X137337500Y-35225000D01*
X138137500Y-35225000D02*
X138137500Y-35225000D01*
X138937500Y-35225000D02*
X138937500Y-35225000D01*
X139737500Y-35225000D02*
X139737500Y-35225000D01*
X140537500Y-35225000D02*
X140537500Y-35225000D01*
X141337500Y-35225000D02*
X141337500Y-35225000D01*
X142137500Y-35225000D02*
X142137500Y-35225000D01*
X142937500Y-35225000D02*
X142937500Y-35225000D01*
X143737500Y-35225000D02*
X143737500Y-35225000D01*
X144537500Y-35225000D02*
X144537500Y-35225000D01*
X145337500Y-35225000D02*
X145337500Y-35225000D01*
X146137500Y-35225000D02*
X146137500Y-35225000D01*
X146937500Y-35225000D02*
X146937500Y-35225000D01*
X147737500Y-35225000D02*
X147737500Y-35225000D01*
X148537500Y-35225000D02*
X148537500Y-35225000D01*
X149337500Y-35225000D02*
X149337500Y-35225000D01*
X150137500Y-35225000D02*
X150137500Y-35225000D01*
X150937500Y-35225000D02*
X150937500Y-35225000D01*
X151737500Y-35225000D02*
X151737500Y-35225000D01*
X152537500Y-35225000D02*
X152537500Y-35225000D01*
X153337500Y-35225000D02*
X153337500Y-35225000D01*
X154137500Y-35225000D02*
X154137500Y-35225000D01*
X154937500Y-35225000D02*
X154937500Y-35225000D01*
X155737500Y-35225000D02*
X155737500Y-35225000D01*
X156537500Y-35225000D02*
X156537500Y-35225000D01*
X157337500Y-35225000D02*
X157337500Y-35225000D01*
X158137500Y-35225000D02*
X158137500Y-35225000D01*
X158937500Y-35225000D02*
X158937500Y-35225000D01*
X159737500Y-35225000D02*
X159737500Y-35225000D01*
X160537500Y-35225000D02*
X160537500Y-35225000D01*
X161337500Y-35225000D02*
X161337500Y-35225000D01*
X162137500Y-35225000D02*
X162137500Y-35225000D01*
X162937500Y-35225000D02*
X162937500Y-35225000D01*
X163737500Y-35225000D02*
X163737500Y-35225000D01*
X164537500Y-35225000D02*
X164537500Y-35225000D01*
X165337500Y-35225000D02*
X165337500Y-35225000D01*
X166137500Y-35225000D02*
X166137500Y-35225000D01*
X166937500Y-35225000D02*
X166937500Y-35225000D01*
X167737500Y-35225000D02*
X167737500Y-35225000D01*
X168537500Y-35225000D02*
X168537500Y-35225000D01*
X169337500Y-35225000D02*
X169337500Y-35225000D01*
X170137500Y-35225000D02*
X170137500Y-35225000D01*
X170937500Y-35225000D02*
X170937500Y-35225000D01*
X171737500Y-35225000D02*
X171737500Y-35225000D01*
X172537500Y-35225000D02*
X172537500Y-35225000D01*
X173337500Y-35225000D02*
X173337500Y-35225000D01*
X174137500Y-35225000D02*
X174137500Y-35225000D01*
X174937500Y-35225000D02*
X174937500Y-35225000D01*
X175737500Y-35225000D02*
X175737500Y-35225000D01*
X176537500Y-35225000D02*
X176537500Y-35225000D01*
X177337500Y-35225000D02*
X177337500Y-35225000D01*
X178137500Y-35225000D02*
X178137500Y-35225000D01*
X178937500Y-35225000D02*
X178937500Y-35225000D01*
X179737500Y-35225000D02*
X179737500Y-35225000D01*
X180537500Y-35225000D02*
X180537500Y-35225000D01*
X181337500Y-35225000D02*
X181337500Y-35225000D01*
X182137500Y-35225000D02*
X182137500Y-35225000D01*
X182937500Y-35225000D02*
X182937500Y-35225000D01*
X183737500Y-35225000D02*
X183737500Y-35225000D01*
X184537500Y-35225000D02*
X184537500Y-35225000D01*
X185337500Y-35225000D02*
X185337500Y-35225000D01*
X186137500Y-35225000D02*
X186137500Y-35225000D01*
X186937500Y-35225000D02*
X186937500Y-35225000D01*
X187737500Y-35225000D02*
X187737500Y-35225000D01*
X188537500Y-35225000D02*
X188537500Y-35225000D01*
X189337500Y-35225000D02*
X189337500Y-35225000D01*
X190137500Y-35225000D02*
X190137500Y-35225000D01*
X190937500Y-35225000D02*
X190937500Y-35225000D01*
X191737500Y-35225000D02*
X191737500Y-35225000D01*
X192537500Y-35225000D02*
X192537500Y-35225000D01*
X193337500Y-35225000D02*
X193337500Y-35225000D01*
X194137500Y-35225000D02*
X194137500Y-35225000D01*
X194937500Y-35225000D02*
X194937500Y-35225000D01*
X195737500Y-35225000D02*
X195737500Y-35225000D01*
X196537500Y-35225000D02*
X196537500Y-35225000D01*
X197337500Y-35225000D02*
X197337500Y-35225000D01*
X198137500Y-35225000D02*
X198137500Y-35225000D01*
X198937500Y-35225000D02*
X198937500Y-35225000D01*
X199737500Y-35225000D02*
X199737500Y-35225000D01*
X200537500Y-35225000D02*
X200537500Y-35225000D01*
X201337500Y-35225000D02*
X201337500Y-35225000D01*
X202137500Y-35225000D02*
X202137500Y-35225000D01*
X202937500Y-35225000D02*
X202937500Y-35225000D01*
X203737500Y-35225000D02*
X203737500Y-35225000D01*
X204537500Y-35225000D02*
X204537500Y-35225000D01*
X205337500Y-35225000D02*
X205337500Y-35225000D01*
X206137500Y-35225000D02*
X206137500Y-35225000D01*
X206937500Y-35225000D02*
X206937500Y-35225000D01*
X207737500Y-35225000D02*
X207737500Y-35225000D01*
X208537500Y-35225000D02*
X208537500Y-35225000D01*
X209337500Y-35225000D02*
X209337500Y-35225000D01*
X210137500Y-35225000D02*
X210137500Y-35225000D01*
X210937500Y-35225000D02*
X210937500Y-35225000D01*
X211737500Y-35225000D02*
X211737500Y-35225000D01*
X212537500Y-35225000D02*
X212537500Y-35225000D01*
X213337500Y-35225000D02*
X213337500Y-35225000D01*
X214137500Y-35225000D02*
X214137500Y-35225000D01*
X214937500Y-35225000D02*
X214937500Y-35225000D01*
X215737500Y-35225000D02*
X215737500Y-35225000D01*
X216537500Y-35225000D02*
X216537500Y-35225000D01*
X217337500Y-35225000D02*
X217337500Y-35225000D01*
X218137500Y-35225000D02*
X218137500Y-35225000D01*
X218937500Y-35225000D02*
X218937500Y-35225000D01*
X219737500Y-35225000D02*
X219737500Y-35225000D01*
X220537500Y-35225000D02*
X220537500Y-35225000D01*
X221337500Y-35225000D02*
X221337500Y-35225000D01*
X222137500Y-35225000D02*
X222137500Y-35225000D01*
X222937500Y-35225000D02*
X222937500Y-35225000D01*
X223737500Y-35225000D02*
X223737500Y-35225000D01*
X224537500Y-35225000D02*
X224537500Y-35225000D01*
X225337500Y-35225000D02*
X225337500Y-35225000D01*
X226137500Y-35225000D02*
X226137500Y-35225000D01*
X226937500Y-35225000D02*
X226937500Y-35225000D01*
X227737500Y-35225000D02*
X227737500Y-35225000D01*
X228537500Y-35225000D02*
X228537500Y-35225000D01*
X229337500Y-35225000D02*
X229337500Y-35225000D01*
X230137500Y-35225000D02*
X230137500Y-35225000D01*
X230937500Y-35225000D02*
X230937500Y-35225000D01*
X231737500Y-35225000D02*
X231737500Y-35225000D01*
X232537500Y-35225000D02*
X232537500Y-35225000D01*
X233337500Y-35225000D02*
X233337500Y-35225000D01*
X234137500Y-35225000D02*
X234137500Y-35225000D01*
X234937500Y-35225000D02*
X234937500Y-35225000D01*
X235737500Y-35225000D02*
X235737500Y-35225000D01*
X236537500Y-35225000D02*
X236537500Y-35225000D01*
X237337500Y-35225000D02*
X237337500Y-35225000D01*
X238137500Y-35225000D02*
X238137500Y-35225000D01*
X238937500Y-35225000D02*
X238937500Y-35225000D01*
X239737500Y-35225000D02*
X239737500Y-35225000D01*
X240537500Y-35225000D02*
X240537500Y-35225000D01*
X241337500Y-35225000D02*
X241337500Y-35225000D01*
X242137500Y-35225000D02*
X242137500Y-35225000D01*
X242937500Y-35225000D02*
X242937500Y-35225000D01*
X243737500Y-35225000D02*
X243737500Y-35225000D01*
X244537500Y-35225000D02*
X244537500Y-35225000D01*
X245337500Y-35225000D02*
X245337500Y-35225000D01*
X246137500Y-35225000D02*
X246137500Y-35225000D01*
X246937500Y-35225000D02*
X246937500Y-35225000D01*
X247737500Y-35225000D02*
X247737500Y-35225000D01*
X248537500Y-35225000D02*
X248537500Y-35225000D01*
X249337500Y-35225000D02*
X249337500Y-35225000D01*
X250137500Y-35225000D02*
X250137500Y-35225000D01*
X250937500Y-35225000D02*
X250937500Y-35225000D01*
X251737500Y-35225000D02*
X251737500Y-35225000D01*
X252537500Y-35225000D02*
X252537500Y-35225000D01*
X253337500Y-35225000D02*
X253337500Y-35225000D01*
X254137500Y-35225000D02*
X254137500Y-35225000D01*
X254937500Y-35225000D02*
X254937500Y-35225000D01*
X255737500Y-35225000D02*
X255737500Y-35225000D01*
X256537500Y-35225000D02*
X256537500Y-35225000D01*
X257337500Y-35225000D02*
X257337500Y-35225000D01*
X258137500Y-35225000D02*
X258137500Y-35225000D01*
X258937500Y-35225000D02*
X258937500Y-35225000D01*
X259737500Y-35225000D02*
X259737500Y-35225000D01*
X260537500Y-35225000D02*
X260537500Y-35225000D01*
X261337500Y-35225000D02*
X261337500Y-35225000D01*
X262137500Y-35225000D02*
X262137500Y-35225000D01*
X262937500Y-35225000D02*
X262937500Y-35225000D01*
X263737500Y-35225000D02*
X263737500Y-35225000D01*
X264537500Y-35225000D02*
X264537500Y-35225000D01*
X265337500Y-35225000D02*
X265337500Y-35225000D01*
X266137500Y-35225000D02*
X266137500Y-35225000D01*
X266937500Y-35225000D02*
X266937500Y-35225000D01*
X267737500Y-35225000D02*
X267737500Y-35225000D01*
X268537500Y-35225000D02*
X268537500Y-35225000D01*
X269337500Y-35225000D02*
X269337500Y-35225000D01*
X270137500Y-35225000D02*
X270137500Y-35225000D01*
X270937500Y-35225000D02*
X270937500Y-35225000D01*
X271737500Y-35225000D02*
X271737500Y-35225000D01*
X272537500Y-35225000D02*
X272537500Y-35225000D01*
X273337500Y-35225000D02*
X273337500Y-35225000D01*
X274137500Y-35225000D02*
X274137500Y-35225000D01*
X274937500Y-35225000D02*
X274937500Y-35225000D01*
X275737500Y-35225000D02*
X275737500Y-35225000D01*
X276537500Y-35225000D02*
X276537500Y-35225000D01*
X277337500Y-35225000D02*
X277337500Y-35225000D01*
X278137500Y-35225000D02*
X278137500Y-35225000D01*
X278937500Y-35225000D02*
X278937500Y-35225000D01*
X279737500Y-35225000D02*
X279737500Y-35225000D01*
X280537500Y-35225000D02*
X280537500Y-35225000D01*
X281337500Y-35225000D02*
X281337500Y-35225000D01*
X282137500Y-35225000D02*
X282137500Y-35225000D01*
X282937500Y-35225000D02*
X282937500Y-35225000D01*
X283737500Y-35225000D02*
X283737500Y-35225000D01*
X284537500Y-35225000D02*
X284537500Y-35225000D01*
X285337500Y-35225000D02*
X285337500Y-35225000D01*
X286137500Y-35225000D02*
X286137500Y-35225000D01*
X286937500Y-35225000D02*
X286937500Y-35225000D01*
X287737500Y-35225000D02*
X287737500Y-35225000D01*
X288537500Y-35225000D02*
X288537500Y-35225000D01*
X289337500Y-35225000D02*
X289337500Y-35225000D01*
X290137500Y-35225000D02*
X290137500Y-35225000D01*
X290937500Y-35225000D02*
X290937500Y-35225000D01*
X291737500Y-35225000D02*
X291737500Y-35225000D01*
X292537500Y-35225000D02*
X292537500Y-35225000D01*
X293337500Y-35225000D02*
X293337500Y-35225000D01*
X294137500Y-35225000D02*
X294137500Y-35225000D01*
X294937500Y-35225000D02*
X294937500Y-35225000D01*
X295737500Y-35225000D02*
X295737500Y-35225000D01*
X296537500Y-35225000D02*
X296537500Y-35225000D01*
X297337500Y-35225000D02*
X297337500Y-35225000D01*
X298137500Y-35225000D02*
X298137500Y-35225000D01*
X298937500Y-35225000D02*
X298937500Y-35225000D01*
X299737500Y-35225000D02*
X299737500Y-35225000D01*
X300537500Y-35225000D02*
X300537500Y-35225000D01*
X301337500Y-35225000D02*
X301337500Y-35225000D01*
X302137500Y-35225000D02*
X302137500Y-35225000D01*
X302937500Y-35225000D02*
X302937500Y-35225000D01*
X303737500Y-35225000D02*
X303737500Y-35225000D01*
X304537500Y-35225000D02*
X304537500Y-35225000D01*
X35200000Y-101425040D02*
X35200000Y-101425040D01*
X35166335Y-102224094D02*
X35166335Y-102224094D01*
X35065581Y-103017486D02*
X35065581Y-103017486D01*
X34898451Y-103799592D02*
X34898451Y-103799592D01*
X34666129Y-104564868D02*
X34666129Y-104564868D01*
X34370262Y-105307893D02*
X34370262Y-105307893D01*
X34012947Y-106023398D02*
X34012947Y-106023398D01*
X33596717Y-106706314D02*
X33596717Y-106706314D01*
X33124520Y-107351800D02*
X33124520Y-107351800D01*
X32599705Y-107955282D02*
X32599705Y-107955282D01*
X32025989Y-108512483D02*
X32025989Y-108512483D01*
X31407440Y-109019453D02*
X31407440Y-109019453D01*
X30748441Y-109472600D02*
X30748441Y-109472600D01*
X30053663Y-109868712D02*
X30053663Y-109868712D01*
X29328029Y-110204983D02*
X29328029Y-110204983D01*
X28576683Y-110479027D02*
X28576683Y-110479027D01*
X27804949Y-110688904D02*
X27804949Y-110688904D01*
X27018297Y-110833126D02*
X27018297Y-110833126D01*
X26222301Y-110910671D02*
X26222301Y-110910671D01*
X25422604Y-110920989D02*
X25422604Y-110920989D01*
X24624873Y-110864007D02*
X24624873Y-110864007D01*
X23834761Y-110740129D02*
X23834761Y-110740129D01*
X23057869Y-110550233D02*
X23057869Y-110550233D01*
X22299703Y-110295664D02*
X22299703Y-110295664D01*
X21565635Y-109978228D02*
X21565635Y-109978228D01*
X20860868Y-109600173D02*
X20860868Y-109600173D01*
X20190397Y-109164179D02*
X20190397Y-109164179D01*
X19558974Y-108673336D02*
X19558974Y-108673336D01*
X18971073Y-108131123D02*
X18971073Y-108131123D01*
X18430862Y-107541382D02*
X18430862Y-107541382D01*
X17942170Y-106908294D02*
X17942170Y-106908294D01*
X17508458Y-106236344D02*
X17508458Y-106236344D01*
X17132802Y-105530296D02*
X17132802Y-105530296D01*
X16817863Y-104795152D02*
X16817863Y-104795152D01*
X16565875Y-104036124D02*
X16565875Y-104036124D01*
X16378621Y-103258591D02*
X16378621Y-103258591D01*
X16257431Y-102468063D02*
X16257431Y-102468063D01*
X16203162Y-101670143D02*
X16203162Y-101670143D01*
X16216199Y-100870485D02*
X16216199Y-100870485D01*
X16296450Y-100074758D02*
X16296450Y-100074758D01*
X16443346Y-99288601D02*
X16443346Y-99288601D01*
X16655846Y-98517585D02*
X16655846Y-98517585D01*
X16932444Y-97767175D02*
X16932444Y-97767175D01*
X17271180Y-97042688D02*
X17271180Y-97042688D01*
X17669652Y-96349261D02*
X17669652Y-96349261D01*
X18125038Y-95691807D02*
X18125038Y-95691807D01*
X18634109Y-95074985D02*
X18634109Y-95074985D01*
X19193257Y-94503168D02*
X19193257Y-94503168D01*
X19798520Y-93980408D02*
X19798520Y-93980408D01*
X20445608Y-93510409D02*
X20445608Y-93510409D01*
X21129936Y-93096503D02*
X21129936Y-93096503D01*
X21846652Y-92741624D02*
X21846652Y-92741624D01*
X22590678Y-92448285D02*
X22590678Y-92448285D01*
X23356740Y-92218567D02*
X23356740Y-92218567D01*
X24139410Y-92054097D02*
X24139410Y-92054097D01*
X24933139Y-91956041D02*
X24933139Y-91956041D01*
X25732304Y-91925094D02*
X25732304Y-91925094D01*
X26531240Y-91961476D02*
X26531240Y-91961476D01*
X27324284Y-92064927D02*
X27324284Y-92064927D01*
X28105817Y-92234716D02*
X28105817Y-92234716D01*
X28870300Y-92469639D02*
X28870300Y-92469639D01*
X29612313Y-92768031D02*
X29612313Y-92768031D01*
X30326599Y-93127777D02*
X30326599Y-93127777D01*
X31008096Y-93546327D02*
X31008096Y-93546327D01*
X31651973Y-94020715D02*
X31651973Y-94020715D01*
X32253667Y-94547580D02*
X32253667Y-94547580D01*
X32808913Y-95123187D02*
X32808913Y-95123187D01*
X33313777Y-95743456D02*
X33313777Y-95743456D01*
X33764681Y-96403992D02*
X33764681Y-96403992D01*
X34158428Y-97100114D02*
X34158428Y-97100114D01*
X34492229Y-97826887D02*
X34492229Y-97826887D01*
X34763717Y-98579161D02*
X34763717Y-98579161D01*
X34970968Y-99351604D02*
X34970968Y-99351604D01*
X35112515Y-100138742D02*
X35112515Y-100138742D01*
X35187352Y-100934997D02*
X35187352Y-100934997D01*
X11925000Y-101425040D02*
X11925000Y-101425040D01*
X12725000Y-101425040D02*
X12725000Y-101425040D01*
X13525000Y-101425040D02*
X13525000Y-101425040D01*
X14325000Y-101425040D02*
X14325000Y-101425040D01*
X15125000Y-101425040D02*
X15125000Y-101425040D01*
X15925000Y-101425040D02*
X15925000Y-101425040D01*
X16725000Y-101425040D02*
X16725000Y-101425040D01*
X17525000Y-101425040D02*
X17525000Y-101425040D01*
X18325000Y-101425040D02*
X18325000Y-101425040D01*
X19125000Y-101425040D02*
X19125000Y-101425040D01*
X19925000Y-101425040D02*
X19925000Y-101425040D01*
X20725000Y-101425040D02*
X20725000Y-101425040D01*
X21525000Y-101425040D02*
X21525000Y-101425040D01*
X22325000Y-101425040D02*
X22325000Y-101425040D01*
X23125000Y-101425040D02*
X23125000Y-101425040D01*
X23925000Y-101425040D02*
X23925000Y-101425040D01*
X24725000Y-101425040D02*
X24725000Y-101425040D01*
X25525000Y-101425040D02*
X25525000Y-101425040D01*
X26325000Y-101425040D02*
X26325000Y-101425040D01*
X27125000Y-101425040D02*
X27125000Y-101425040D01*
X27925000Y-101425040D02*
X27925000Y-101425040D01*
X28725000Y-101425040D02*
X28725000Y-101425040D01*
X29525000Y-101425040D02*
X29525000Y-101425040D01*
X30325000Y-101425040D02*
X30325000Y-101425040D01*
X31125000Y-101425040D02*
X31125000Y-101425040D01*
X31925000Y-101425040D02*
X31925000Y-101425040D01*
X32725000Y-101425040D02*
X32725000Y-101425040D01*
X33525000Y-101425040D02*
X33525000Y-101425040D01*
X34325000Y-101425040D02*
X34325000Y-101425040D01*
X35125000Y-101425040D02*
X35125000Y-101425040D01*
X35925000Y-101425040D02*
X35925000Y-101425040D01*
X36725000Y-101425040D02*
X36725000Y-101425040D01*
X37525000Y-101425040D02*
X37525000Y-101425040D01*
X38325000Y-101425040D02*
X38325000Y-101425040D01*
X39125000Y-101425040D02*
X39125000Y-101425040D01*
X39925000Y-101425040D02*
X39925000Y-101425040D01*
X40725000Y-101425040D02*
X40725000Y-101425040D01*
X41525000Y-101425040D02*
X41525000Y-101425040D01*
X42325000Y-101425040D02*
X42325000Y-101425040D01*
X43125000Y-101425040D02*
X43125000Y-101425040D01*
X43925000Y-101425040D02*
X43925000Y-101425040D01*
X44725000Y-101425040D02*
X44725000Y-101425040D01*
X45525000Y-101425040D02*
X45525000Y-101425040D01*
X46325000Y-101425040D02*
X46325000Y-101425040D01*
X47125000Y-101425040D02*
X47125000Y-101425040D01*
X47925000Y-101425040D02*
X47925000Y-101425040D01*
X48725000Y-101425040D02*
X48725000Y-101425040D01*
X49525000Y-101425040D02*
X49525000Y-101425040D01*
X50325000Y-101425040D02*
X50325000Y-101425040D01*
X51125000Y-101425040D02*
X51125000Y-101425040D01*
X51925000Y-101425040D02*
X51925000Y-101425040D01*
X52725000Y-101425040D02*
X52725000Y-101425040D01*
X53525000Y-101425040D02*
X53525000Y-101425040D01*
X54325000Y-101425040D02*
X54325000Y-101425040D01*
X55125000Y-101425040D02*
X55125000Y-101425040D01*
X55925000Y-101425040D02*
X55925000Y-101425040D01*
X56725000Y-101425040D02*
X56725000Y-101425040D01*
X57525000Y-101425040D02*
X57525000Y-101425040D01*
X58325000Y-101425040D02*
X58325000Y-101425040D01*
X59125000Y-101425040D02*
X59125000Y-101425040D01*
X59925000Y-101425040D02*
X59925000Y-101425040D01*
X60725000Y-101425040D02*
X60725000Y-101425040D01*
X61525000Y-101425040D02*
X61525000Y-101425040D01*
X62325000Y-101425040D02*
X62325000Y-101425040D01*
X63125000Y-101425040D02*
X63125000Y-101425040D01*
X63925000Y-101425040D02*
X63925000Y-101425040D01*
X64725000Y-101425040D02*
X64725000Y-101425040D01*
X65525000Y-101425040D02*
X65525000Y-101425040D01*
X66325000Y-101425040D02*
X66325000Y-101425040D01*
X67125000Y-101425040D02*
X67125000Y-101425040D01*
X67925000Y-101425040D02*
X67925000Y-101425040D01*
X68725000Y-101425040D02*
X68725000Y-101425040D01*
X69525000Y-101425040D02*
X69525000Y-101425040D01*
X70325000Y-101425040D02*
X70325000Y-101425040D01*
X71125000Y-101425040D02*
X71125000Y-101425040D01*
X71925000Y-101425040D02*
X71925000Y-101425040D01*
X72725000Y-101425040D02*
X72725000Y-101425040D01*
X73525000Y-101425040D02*
X73525000Y-101425040D01*
X74325000Y-101425040D02*
X74325000Y-101425040D01*
X75125000Y-101425040D02*
X75125000Y-101425040D01*
X75925000Y-101425040D02*
X75925000Y-101425040D01*
X76725000Y-101425040D02*
X76725000Y-101425040D01*
X77525000Y-101425040D02*
X77525000Y-101425040D01*
X78325000Y-101425040D02*
X78325000Y-101425040D01*
X79125000Y-101425040D02*
X79125000Y-101425040D01*
X79925000Y-101425040D02*
X79925000Y-101425040D01*
X80725000Y-101425040D02*
X80725000Y-101425040D01*
X81525000Y-101425040D02*
X81525000Y-101425040D01*
X82325000Y-101425040D02*
X82325000Y-101425040D01*
X83125000Y-101425040D02*
X83125000Y-101425040D01*
X83925000Y-101425040D02*
X83925000Y-101425040D01*
X84725000Y-101425040D02*
X84725000Y-101425040D01*
X85525000Y-101425040D02*
X85525000Y-101425040D01*
X86325000Y-101425040D02*
X86325000Y-101425040D01*
X87125000Y-101425040D02*
X87125000Y-101425040D01*
X87925000Y-101425040D02*
X87925000Y-101425040D01*
X88725000Y-101425040D02*
X88725000Y-101425040D01*
X89525000Y-101425040D02*
X89525000Y-101425040D01*
X90325000Y-101425040D02*
X90325000Y-101425040D01*
X91125000Y-101425040D02*
X91125000Y-101425040D01*
X91925000Y-101425040D02*
X91925000Y-101425040D01*
X92725000Y-101425040D02*
X92725000Y-101425040D01*
X93525000Y-101425040D02*
X93525000Y-101425040D01*
X94325000Y-101425040D02*
X94325000Y-101425040D01*
X95125000Y-101425040D02*
X95125000Y-101425040D01*
X95925000Y-101425040D02*
X95925000Y-101425040D01*
X96725000Y-101425040D02*
X96725000Y-101425040D01*
X97525000Y-101425040D02*
X97525000Y-101425040D01*
X98325000Y-101425040D02*
X98325000Y-101425040D01*
X99125000Y-101425040D02*
X99125000Y-101425040D01*
X99925000Y-101425040D02*
X99925000Y-101425040D01*
X100725000Y-101425040D02*
X100725000Y-101425040D01*
X101525000Y-101425040D02*
X101525000Y-101425040D01*
X102325000Y-101425040D02*
X102325000Y-101425040D01*
X103125000Y-101425040D02*
X103125000Y-101425040D01*
X103925000Y-101425040D02*
X103925000Y-101425040D01*
X104725000Y-101425040D02*
X104725000Y-101425040D01*
X105525000Y-101425040D02*
X105525000Y-101425040D01*
X106325000Y-101425040D02*
X106325000Y-101425040D01*
X107125000Y-101425040D02*
X107125000Y-101425040D01*
X107925000Y-101425040D02*
X107925000Y-101425040D01*
X108725000Y-101425040D02*
X108725000Y-101425040D01*
X109525000Y-101425040D02*
X109525000Y-101425040D01*
X110325000Y-101425040D02*
X110325000Y-101425040D01*
X111125000Y-101425040D02*
X111125000Y-101425040D01*
X111925000Y-101425040D02*
X111925000Y-101425040D01*
X112725000Y-101425040D02*
X112725000Y-101425040D01*
X113525000Y-101425040D02*
X113525000Y-101425040D01*
X114325000Y-101425040D02*
X114325000Y-101425040D01*
X115125000Y-101425040D02*
X115125000Y-101425040D01*
X115925000Y-101425040D02*
X115925000Y-101425040D01*
X116725000Y-101425040D02*
X116725000Y-101425040D01*
X117525000Y-101425040D02*
X117525000Y-101425040D01*
X118325000Y-101425040D02*
X118325000Y-101425040D01*
X119125000Y-101425040D02*
X119125000Y-101425040D01*
X119925000Y-101425040D02*
X119925000Y-101425040D01*
X120725000Y-101425040D02*
X120725000Y-101425040D01*
X121525000Y-101425040D02*
X121525000Y-101425040D01*
X122325000Y-101425040D02*
X122325000Y-101425040D01*
X123125000Y-101425040D02*
X123125000Y-101425040D01*
X123925000Y-101425040D02*
X123925000Y-101425040D01*
X124725000Y-101425040D02*
X124725000Y-101425040D01*
X125525000Y-101425040D02*
X125525000Y-101425040D01*
X126325000Y-101425040D02*
X126325000Y-101425040D01*
X127125000Y-101425040D02*
X127125000Y-101425040D01*
X127925000Y-101425040D02*
X127925000Y-101425040D01*
X128725000Y-101425040D02*
X128725000Y-101425040D01*
X129525000Y-101425040D02*
X129525000Y-101425040D01*
X130325000Y-101425040D02*
X130325000Y-101425040D01*
X131125000Y-101425040D02*
X131125000Y-101425040D01*
X131925000Y-101425040D02*
X131925000Y-101425040D01*
X132725000Y-101425040D02*
X132725000Y-101425040D01*
X133525000Y-101425040D02*
X133525000Y-101425040D01*
X134325000Y-101425040D02*
X134325000Y-101425040D01*
X135125000Y-101425040D02*
X135125000Y-101425040D01*
X135925000Y-101425040D02*
X135925000Y-101425040D01*
X136725000Y-101425040D02*
X136725000Y-101425040D01*
X137525000Y-101425040D02*
X137525000Y-101425040D01*
X138325000Y-101425040D02*
X138325000Y-101425040D01*
X139125000Y-101425040D02*
X139125000Y-101425040D01*
X139925000Y-101425040D02*
X139925000Y-101425040D01*
X140725000Y-101425040D02*
X140725000Y-101425040D01*
X141525000Y-101425040D02*
X141525000Y-101425040D01*
X142325000Y-101425040D02*
X142325000Y-101425040D01*
X143125000Y-101425040D02*
X143125000Y-101425040D01*
X143925000Y-101425040D02*
X143925000Y-101425040D01*
X144725000Y-101425040D02*
X144725000Y-101425040D01*
X145525000Y-101425040D02*
X145525000Y-101425040D01*
X146325000Y-101425040D02*
X146325000Y-101425040D01*
X147125000Y-101425040D02*
X147125000Y-101425040D01*
X147925000Y-101425040D02*
X147925000Y-101425040D01*
X148725000Y-101425040D02*
X148725000Y-101425040D01*
X149525000Y-101425040D02*
X149525000Y-101425040D01*
X150325000Y-101425040D02*
X150325000Y-101425040D01*
X151125000Y-101425040D02*
X151125000Y-101425040D01*
X151925000Y-101425040D02*
X151925000Y-101425040D01*
X152725000Y-101425040D02*
X152725000Y-101425040D01*
X153525000Y-101425040D02*
X153525000Y-101425040D01*
X154325000Y-101425040D02*
X154325000Y-101425040D01*
X155125000Y-101425040D02*
X155125000Y-101425040D01*
X155925000Y-101425040D02*
X155925000Y-101425040D01*
X156725000Y-101425040D02*
X156725000Y-101425040D01*
X157525000Y-101425040D02*
X157525000Y-101425040D01*
X158325000Y-101425040D02*
X158325000Y-101425040D01*
X159125000Y-101425040D02*
X159125000Y-101425040D01*
X159925000Y-101425040D02*
X159925000Y-101425040D01*
X160725000Y-101425040D02*
X160725000Y-101425040D01*
X161525000Y-101425040D02*
X161525000Y-101425040D01*
X162325000Y-101425040D02*
X162325000Y-101425040D01*
X163125000Y-101425040D02*
X163125000Y-101425040D01*
X163925000Y-101425040D02*
X163925000Y-101425040D01*
X164725000Y-101425040D02*
X164725000Y-101425040D01*
X165525000Y-101425040D02*
X165525000Y-101425040D01*
X166325000Y-101425040D02*
X166325000Y-101425040D01*
X167125000Y-101425040D02*
X167125000Y-101425040D01*
X167925000Y-101425040D02*
X167925000Y-101425040D01*
X168725000Y-101425040D02*
X168725000Y-101425040D01*
X169525000Y-101425040D02*
X169525000Y-101425040D01*
X170325000Y-101425040D02*
X170325000Y-101425040D01*
X171125000Y-101425040D02*
X171125000Y-101425040D01*
X171925000Y-101425040D02*
X171925000Y-101425040D01*
X172725000Y-101425040D02*
X172725000Y-101425040D01*
X173525000Y-101425040D02*
X173525000Y-101425040D01*
X174325000Y-101425040D02*
X174325000Y-101425040D01*
X175125000Y-101425040D02*
X175125000Y-101425040D01*
X175925000Y-101425040D02*
X175925000Y-101425040D01*
X176725000Y-101425040D02*
X176725000Y-101425040D01*
X177525000Y-101425040D02*
X177525000Y-101425040D01*
X178325000Y-101425040D02*
X178325000Y-101425040D01*
X179125000Y-101425040D02*
X179125000Y-101425040D01*
X179925000Y-101425040D02*
X179925000Y-101425040D01*
X180725000Y-101425040D02*
X180725000Y-101425040D01*
X181525000Y-101425040D02*
X181525000Y-101425040D01*
X182325000Y-101425040D02*
X182325000Y-101425040D01*
X183125000Y-101425040D02*
X183125000Y-101425040D01*
X183925000Y-101425040D02*
X183925000Y-101425040D01*
X184725000Y-101425040D02*
X184725000Y-101425040D01*
X185525000Y-101425040D02*
X185525000Y-101425040D01*
X186325000Y-101425040D02*
X186325000Y-101425040D01*
X187125000Y-101425040D02*
X187125000Y-101425040D01*
X187925000Y-101425040D02*
X187925000Y-101425040D01*
X188725000Y-101425040D02*
X188725000Y-101425040D01*
X189525000Y-101425040D02*
X189525000Y-101425040D01*
X190325000Y-101425040D02*
X190325000Y-101425040D01*
X191125000Y-101425040D02*
X191125000Y-101425040D01*
X191925000Y-101425040D02*
X191925000Y-101425040D01*
X192725000Y-101425040D02*
X192725000Y-101425040D01*
X193525000Y-101425040D02*
X193525000Y-101425040D01*
X194325000Y-101425040D02*
X194325000Y-101425040D01*
X195125000Y-101425040D02*
X195125000Y-101425040D01*
X195925000Y-101425040D02*
X195925000Y-101425040D01*
X196725000Y-101425040D02*
X196725000Y-101425040D01*
X197525000Y-101425040D02*
X197525000Y-101425040D01*
X198325000Y-101425040D02*
X198325000Y-101425040D01*
X199125000Y-101425040D02*
X199125000Y-101425040D01*
X199925000Y-101425040D02*
X199925000Y-101425040D01*
X200725000Y-101425040D02*
X200725000Y-101425040D01*
X201525000Y-101425040D02*
X201525000Y-101425040D01*
X202325000Y-101425040D02*
X202325000Y-101425040D01*
X203125000Y-101425040D02*
X203125000Y-101425040D01*
X203925000Y-101425040D02*
X203925000Y-101425040D01*
X204725000Y-101425040D02*
X204725000Y-101425040D01*
X205525000Y-101425040D02*
X205525000Y-101425040D01*
X206325000Y-101425040D02*
X206325000Y-101425040D01*
X207125000Y-101425040D02*
X207125000Y-101425040D01*
X207925000Y-101425040D02*
X207925000Y-101425040D01*
X208725000Y-101425040D02*
X208725000Y-101425040D01*
X209525000Y-101425040D02*
X209525000Y-101425040D01*
X210325000Y-101425040D02*
X210325000Y-101425040D01*
X211125000Y-101425040D02*
X211125000Y-101425040D01*
X211925000Y-101425040D02*
X211925000Y-101425040D01*
X212725000Y-101425040D02*
X212725000Y-101425040D01*
X213525000Y-101425040D02*
X213525000Y-101425040D01*
X214325000Y-101425040D02*
X214325000Y-101425040D01*
X215125000Y-101425040D02*
X215125000Y-101425040D01*
X215925000Y-101425040D02*
X215925000Y-101425040D01*
X216725000Y-101425040D02*
X216725000Y-101425040D01*
X217525000Y-101425040D02*
X217525000Y-101425040D01*
X218325000Y-101425040D02*
X218325000Y-101425040D01*
X219125000Y-101425040D02*
X219125000Y-101425040D01*
X219925000Y-101425040D02*
X219925000Y-101425040D01*
X220725000Y-101425040D02*
X220725000Y-101425040D01*
X221525000Y-101425040D02*
X221525000Y-101425040D01*
X222325000Y-101425040D02*
X222325000Y-101425040D01*
X223125000Y-101425040D02*
X223125000Y-101425040D01*
X223925000Y-101425040D02*
X223925000Y-101425040D01*
X224725000Y-101425040D02*
X224725000Y-101425040D01*
X225525000Y-101425040D02*
X225525000Y-101425040D01*
X226325000Y-101425040D02*
X226325000Y-101425040D01*
X227125000Y-101425040D02*
X227125000Y-101425040D01*
X227925000Y-101425040D02*
X227925000Y-101425040D01*
X228725000Y-101425040D02*
X228725000Y-101425040D01*
X229525000Y-101425040D02*
X229525000Y-101425040D01*
X230325000Y-101425040D02*
X230325000Y-101425040D01*
X231125000Y-101425040D02*
X231125000Y-101425040D01*
X231925000Y-101425040D02*
X231925000Y-101425040D01*
X232725000Y-101425040D02*
X232725000Y-101425040D01*
X233525000Y-101425040D02*
X233525000Y-101425040D01*
X234325000Y-101425040D02*
X234325000Y-101425040D01*
X235125000Y-101425040D02*
X235125000Y-101425040D01*
X235925000Y-101425040D02*
X235925000Y-101425040D01*
X236725000Y-101425040D02*
X236725000Y-101425040D01*
X237525000Y-101425040D02*
X237525000Y-101425040D01*
X238325000Y-101425040D02*
X238325000Y-101425040D01*
X239125000Y-101425040D02*
X239125000Y-101425040D01*
X239925000Y-101425040D02*
X239925000Y-101425040D01*
X240725000Y-101425040D02*
X240725000Y-101425040D01*
X241525000Y-101425040D02*
X241525000Y-101425040D01*
X242325000Y-101425040D02*
X242325000Y-101425040D01*
X243125000Y-101425040D02*
X243125000Y-101425040D01*
X243925000Y-101425040D02*
X243925000Y-101425040D01*
X244725000Y-101425040D02*
X244725000Y-101425040D01*
X245525000Y-101425040D02*
X245525000Y-101425040D01*
X246325000Y-101425040D02*
X246325000Y-101425040D01*
X247125000Y-101425040D02*
X247125000Y-101425040D01*
X247925000Y-101425040D02*
X247925000Y-101425040D01*
X248725000Y-101425040D02*
X248725000Y-101425040D01*
X249525000Y-101425040D02*
X249525000Y-101425040D01*
X250325000Y-101425040D02*
X250325000Y-101425040D01*
X251125000Y-101425040D02*
X251125000Y-101425040D01*
X251925000Y-101425040D02*
X251925000Y-101425040D01*
X252725000Y-101425040D02*
X252725000Y-101425040D01*
X253525000Y-101425040D02*
X253525000Y-101425040D01*
X254325000Y-101425040D02*
X254325000Y-101425040D01*
X255125000Y-101425040D02*
X255125000Y-101425040D01*
X255925000Y-101425040D02*
X255925000Y-101425040D01*
X256725000Y-101425040D02*
X256725000Y-101425040D01*
X257525000Y-101425040D02*
X257525000Y-101425040D01*
X258325000Y-101425040D02*
X258325000Y-101425040D01*
X259125000Y-101425040D02*
X259125000Y-101425040D01*
X259925000Y-101425040D02*
X259925000Y-101425040D01*
X260725000Y-101425040D02*
X260725000Y-101425040D01*
X261525000Y-101425040D02*
X261525000Y-101425040D01*
X262325000Y-101425040D02*
X262325000Y-101425040D01*
X263125000Y-101425040D02*
X263125000Y-101425040D01*
X263925000Y-101425040D02*
X263925000Y-101425040D01*
X264725000Y-101425040D02*
X264725000Y-101425040D01*
X265525000Y-101425040D02*
X265525000Y-101425040D01*
X266325000Y-101425040D02*
X266325000Y-101425040D01*
X267125000Y-101425040D02*
X267125000Y-101425040D01*
X267925000Y-101425040D02*
X267925000Y-101425040D01*
X268725000Y-101425040D02*
X268725000Y-101425040D01*
X269525000Y-101425040D02*
X269525000Y-101425040D01*
X270325000Y-101425040D02*
X270325000Y-101425040D01*
X271125000Y-101425040D02*
X271125000Y-101425040D01*
X271925000Y-101425040D02*
X271925000Y-101425040D01*
X272725000Y-101425040D02*
X272725000Y-101425040D01*
X273525000Y-101425040D02*
X273525000Y-101425040D01*
X274325000Y-101425040D02*
X274325000Y-101425040D01*
X275125000Y-101425040D02*
X275125000Y-101425040D01*
X275925000Y-101425040D02*
X275925000Y-101425040D01*
X276725000Y-101425040D02*
X276725000Y-101425040D01*
X277525000Y-101425040D02*
X277525000Y-101425040D01*
X278325000Y-101425040D02*
X278325000Y-101425040D01*
X279125000Y-101425040D02*
X279125000Y-101425040D01*
X279925000Y-101425040D02*
X279925000Y-101425040D01*
X280725000Y-101425040D02*
X280725000Y-101425040D01*
X281525000Y-101425040D02*
X281525000Y-101425040D01*
X282325000Y-101425040D02*
X282325000Y-101425040D01*
X283125000Y-101425040D02*
X283125000Y-101425040D01*
X283925000Y-101425040D02*
X283925000Y-101425040D01*
X284725000Y-101425040D02*
X284725000Y-101425040D01*
X285525000Y-101425040D02*
X285525000Y-101425040D01*
X286325000Y-101425040D02*
X286325000Y-101425040D01*
X287125000Y-101425040D02*
X287125000Y-101425040D01*
X287925000Y-101425040D02*
X287925000Y-101425040D01*
X288725000Y-101425040D02*
X288725000Y-101425040D01*
X289525000Y-101425040D02*
X289525000Y-101425040D01*
X290325000Y-101425040D02*
X290325000Y-101425040D01*
X291125000Y-101425040D02*
X291125000Y-101425040D01*
X291925000Y-101425040D02*
X291925000Y-101425040D01*
X292725000Y-101425040D02*
X292725000Y-101425040D01*
X293525000Y-101425040D02*
X293525000Y-101425040D01*
X294325000Y-101425040D02*
X294325000Y-101425040D01*
X295125000Y-101425040D02*
X295125000Y-101425040D01*
X295925000Y-101425040D02*
X295925000Y-101425040D01*
X296725000Y-101425040D02*
X296725000Y-101425040D01*
X297525000Y-101425040D02*
X297525000Y-101425040D01*
X298325000Y-101425040D02*
X298325000Y-101425040D01*
X299125000Y-101425040D02*
X299125000Y-101425040D01*
X299925000Y-101425040D02*
X299925000Y-101425040D01*
X300725000Y-101425040D02*
X300725000Y-101425040D01*
X301525000Y-101425040D02*
X301525000Y-101425040D01*
X302325000Y-101425040D02*
X302325000Y-101425040D01*
X303125000Y-101425040D02*
X303125000Y-101425040D01*
X303925000Y-101425040D02*
X303925000Y-101425040D01*
X299625000Y-101425040D02*
X299625000Y-101425040D01*
X299591335Y-102224094D02*
X299591335Y-102224094D01*
X299490581Y-103017486D02*
X299490581Y-103017486D01*
X299323451Y-103799592D02*
X299323451Y-103799592D01*
X299091129Y-104564868D02*
X299091129Y-104564868D01*
X298795262Y-105307893D02*
X298795262Y-105307893D01*
X298437947Y-106023398D02*
X298437947Y-106023398D01*
X298021717Y-106706314D02*
X298021717Y-106706314D01*
X297549520Y-107351800D02*
X297549520Y-107351800D01*
X297024705Y-107955282D02*
X297024705Y-107955282D01*
X296450989Y-108512483D02*
X296450989Y-108512483D01*
X295832440Y-109019453D02*
X295832440Y-109019453D01*
X295173441Y-109472600D02*
X295173441Y-109472600D01*
X294478663Y-109868712D02*
X294478663Y-109868712D01*
X293753029Y-110204983D02*
X293753029Y-110204983D01*
X293001683Y-110479027D02*
X293001683Y-110479027D01*
X292229949Y-110688904D02*
X292229949Y-110688904D01*
X291443297Y-110833126D02*
X291443297Y-110833126D01*
X290647301Y-110910671D02*
X290647301Y-110910671D01*
X289847604Y-110920989D02*
X289847604Y-110920989D01*
X289049873Y-110864007D02*
X289049873Y-110864007D01*
X288259761Y-110740129D02*
X288259761Y-110740129D01*
X287482869Y-110550233D02*
X287482869Y-110550233D01*
X286724703Y-110295664D02*
X286724703Y-110295664D01*
X285990635Y-109978228D02*
X285990635Y-109978228D01*
X285285868Y-109600173D02*
X285285868Y-109600173D01*
X284615397Y-109164179D02*
X284615397Y-109164179D01*
X283983974Y-108673336D02*
X283983974Y-108673336D01*
X283396073Y-108131123D02*
X283396073Y-108131123D01*
X282855862Y-107541382D02*
X282855862Y-107541382D01*
X282367170Y-106908294D02*
X282367170Y-106908294D01*
X281933458Y-106236344D02*
X281933458Y-106236344D01*
X281557802Y-105530296D02*
X281557802Y-105530296D01*
X281242863Y-104795152D02*
X281242863Y-104795152D01*
X280990875Y-104036124D02*
X280990875Y-104036124D01*
X280803621Y-103258591D02*
X280803621Y-103258591D01*
X280682431Y-102468063D02*
X280682431Y-102468063D01*
X280628162Y-101670143D02*
X280628162Y-101670143D01*
X280641199Y-100870485D02*
X280641199Y-100870485D01*
X280721450Y-100074758D02*
X280721450Y-100074758D01*
X280868346Y-99288601D02*
X280868346Y-99288601D01*
X281080846Y-98517585D02*
X281080846Y-98517585D01*
X281357444Y-97767175D02*
X281357444Y-97767175D01*
X281696180Y-97042688D02*
X281696180Y-97042688D01*
X282094652Y-96349261D02*
X282094652Y-96349261D01*
X282550038Y-95691807D02*
X282550038Y-95691807D01*
X283059109Y-95074985D02*
X283059109Y-95074985D01*
X283618257Y-94503168D02*
X283618257Y-94503168D01*
X284223520Y-93980408D02*
X284223520Y-93980408D01*
X284870608Y-93510409D02*
X284870608Y-93510409D01*
X285554936Y-93096503D02*
X285554936Y-93096503D01*
X286271652Y-92741624D02*
X286271652Y-92741624D01*
X287015678Y-92448285D02*
X287015678Y-92448285D01*
X287781740Y-92218567D02*
X287781740Y-92218567D01*
X288564410Y-92054097D02*
X288564410Y-92054097D01*
X289358139Y-91956041D02*
X289358139Y-91956041D01*
X290157304Y-91925094D02*
X290157304Y-91925094D01*
X290956240Y-91961476D02*
X290956240Y-91961476D01*
X291749284Y-92064927D02*
X291749284Y-92064927D01*
X292530817Y-92234716D02*
X292530817Y-92234716D01*
X293295300Y-92469639D02*
X293295300Y-92469639D01*
X294037313Y-92768031D02*
X294037313Y-92768031D01*
X294751599Y-93127777D02*
X294751599Y-93127777D01*
X295433096Y-93546327D02*
X295433096Y-93546327D01*
X296076973Y-94020715D02*
X296076973Y-94020715D01*
X296678667Y-94547580D02*
X296678667Y-94547580D01*
X297233913Y-95123187D02*
X297233913Y-95123187D01*
X297738777Y-95743456D02*
X297738777Y-95743456D01*
X298189681Y-96403992D02*
X298189681Y-96403992D01*
X298583428Y-97100114D02*
X298583428Y-97100114D01*
X298917229Y-97826887D02*
X298917229Y-97826887D01*
X299188717Y-98579161D02*
X299188717Y-98579161D01*
X299395968Y-99351604D02*
X299395968Y-99351604D01*
X299537515Y-100138742D02*
X299537515Y-100138742D01*
X299612352Y-100934997D02*
X299612352Y-100934997D01*
D12*
X59525000Y-27350000D02*
G75*
G03*
X59525000Y-27350000I-9500000J0D01*
G01*
X275300000Y-27350000D02*
G75*
G03*
X275300000Y-27350000I-9500000J0D01*
G01*
D10*
X9594253Y-21925000D02*
X306244253Y-21925000D01*
X157925000Y-53684415D02*
X157925000Y-52034415D01*
X157925000Y-51434415D02*
X157925000Y-49784415D01*
X157925000Y-49184415D02*
X157925000Y-47534415D01*
X157925000Y-46934415D02*
X157925000Y-45284415D01*
X157925000Y-44684415D02*
X157925000Y-43034415D01*
X157925000Y-42434415D02*
X157925000Y-40784415D01*
X157925000Y-40184415D02*
X157925000Y-38534415D01*
X157925000Y-37934415D02*
X157925000Y-36284415D01*
X157925000Y-35684415D02*
X157925000Y-34034415D01*
X157925000Y-33434415D02*
X157925000Y-31784415D01*
X157925000Y-31184415D02*
X157925000Y-29534415D01*
X157925000Y-28934415D02*
X157925000Y-27284415D01*
X157925000Y-26684415D02*
X157925000Y-25034415D01*
X157925000Y-24434415D02*
X157925000Y-22784415D01*
X157925000Y-22184415D02*
X157925000Y-20534415D01*
X157925000Y-19934415D02*
X157925000Y-18284415D01*
X157925000Y-17684415D02*
X157925000Y-16034415D01*
X157925000Y-15434415D02*
X157925000Y-13784415D01*
X157925000Y-13184415D02*
X157925000Y-11534415D01*
X157925000Y-10934415D02*
X157925000Y-9284415D01*
X157925000Y-8684415D02*
X157925000Y-7034415D01*
X157925000Y-6434415D02*
X157925000Y-5575040D01*
D11*
X13025000Y-35225000D02*
X13025000Y-35225000D01*
X13825000Y-35225000D02*
X13825000Y-35225000D01*
X14625000Y-35225000D02*
X14625000Y-35225000D01*
X15425000Y-35225000D02*
X15425000Y-35225000D01*
X16225000Y-35225000D02*
X16225000Y-35225000D01*
X17025000Y-35225000D02*
X17025000Y-35225000D01*
X17825000Y-35225000D02*
X17825000Y-35225000D01*
X18625000Y-35225000D02*
X18625000Y-35225000D01*
X19425000Y-35225000D02*
X19425000Y-35225000D01*
X20225000Y-35225000D02*
X20225000Y-35225000D01*
X21025000Y-35225000D02*
X21025000Y-35225000D01*
X21825000Y-35225000D02*
X21825000Y-35225000D01*
X22625000Y-35225000D02*
X22625000Y-35225000D01*
X23425000Y-35225000D02*
X23425000Y-35225000D01*
X24225000Y-35225000D02*
X24225000Y-35225000D01*
X25025000Y-35225000D02*
X25025000Y-35225000D01*
X25825000Y-35225000D02*
X25825000Y-35225000D01*
X26625000Y-35225000D02*
X26625000Y-35225000D01*
X27425000Y-35225000D02*
X27425000Y-35225000D01*
X28225000Y-35225000D02*
X28225000Y-35225000D01*
X29025000Y-35225000D02*
X29025000Y-35225000D01*
X29825000Y-35225000D02*
X29825000Y-35225000D01*
X30625000Y-35225000D02*
X30625000Y-35225000D01*
X31425000Y-35225000D02*
X31425000Y-35225000D01*
X32225000Y-35225000D02*
X32225000Y-35225000D01*
X33025000Y-35225000D02*
X33025000Y-35225000D01*
X33825000Y-35225000D02*
X33825000Y-35225000D01*
X34625000Y-35225000D02*
X34625000Y-35225000D01*
X35425000Y-35225000D02*
X35425000Y-35225000D01*
X36225000Y-35225000D02*
X36225000Y-35225000D01*
X37025000Y-35225000D02*
X37025000Y-35225000D01*
X37825000Y-35225000D02*
X37825000Y-35225000D01*
X38625000Y-35225000D02*
X38625000Y-35225000D01*
X39425000Y-35225000D02*
X39425000Y-35225000D01*
X40225000Y-35225000D02*
X40225000Y-35225000D01*
X41025000Y-35225000D02*
X41025000Y-35225000D01*
X41825000Y-35225000D02*
X41825000Y-35225000D01*
X42625000Y-35225000D02*
X42625000Y-35225000D01*
X43425000Y-35225000D02*
X43425000Y-35225000D01*
X44225000Y-35225000D02*
X44225000Y-35225000D01*
X45025000Y-35225000D02*
X45025000Y-35225000D01*
X45825000Y-35225000D02*
X45825000Y-35225000D01*
X46625000Y-35225000D02*
X46625000Y-35225000D01*
X47425000Y-35225000D02*
X47425000Y-35225000D01*
X48225000Y-35225000D02*
X48225000Y-35225000D01*
X49025000Y-35225000D02*
X49025000Y-35225000D01*
X49825000Y-35225000D02*
X49825000Y-35225000D01*
X50625000Y-35225000D02*
X50625000Y-35225000D01*
X51425000Y-35225000D02*
X51425000Y-35225000D01*
X52225000Y-35225000D02*
X52225000Y-35225000D01*
X53025000Y-35225000D02*
X53025000Y-35225000D01*
X53825000Y-35225000D02*
X53825000Y-35225000D01*
X54625000Y-35225000D02*
X54625000Y-35225000D01*
X55425000Y-35225000D02*
X55425000Y-35225000D01*
X56225000Y-35225000D02*
X56225000Y-35225000D01*
X57025000Y-35225000D02*
X57025000Y-35225000D01*
X57825000Y-35225000D02*
X57825000Y-35225000D01*
X58625000Y-35225000D02*
X58625000Y-35225000D01*
X59425000Y-35225000D02*
X59425000Y-35225000D01*
X60225000Y-35225000D02*
X60225000Y-35225000D01*
X61025000Y-35225000D02*
X61025000Y-35225000D01*
X61825000Y-35225000D02*
X61825000Y-35225000D01*
X62625000Y-35225000D02*
X62625000Y-35225000D01*
X63425000Y-35225000D02*
X63425000Y-35225000D01*
X64225000Y-35225000D02*
X64225000Y-35225000D01*
X65025000Y-35225000D02*
X65025000Y-35225000D01*
X65825000Y-35225000D02*
X65825000Y-35225000D01*
X66625000Y-35225000D02*
X66625000Y-35225000D01*
X67425000Y-35225000D02*
X67425000Y-35225000D01*
X68225000Y-35225000D02*
X68225000Y-35225000D01*
X69025000Y-35225000D02*
X69025000Y-35225000D01*
X69825000Y-35225000D02*
X69825000Y-35225000D01*
X70625000Y-35225000D02*
X70625000Y-35225000D01*
X71425000Y-35225000D02*
X71425000Y-35225000D01*
X72225000Y-35225000D02*
X72225000Y-35225000D01*
X73025000Y-35225000D02*
X73025000Y-35225000D01*
X73825000Y-35225000D02*
X73825000Y-35225000D01*
X74625000Y-35225000D02*
X74625000Y-35225000D01*
X75425000Y-35225000D02*
X75425000Y-35225000D01*
X76225000Y-35225000D02*
X76225000Y-35225000D01*
X77025000Y-35225000D02*
X77025000Y-35225000D01*
X77825000Y-35225000D02*
X77825000Y-35225000D01*
X78625000Y-35225000D02*
X78625000Y-35225000D01*
X79425000Y-35225000D02*
X79425000Y-35225000D01*
X80225000Y-35225000D02*
X80225000Y-35225000D01*
X81025000Y-35225000D02*
X81025000Y-35225000D01*
X81825000Y-35225000D02*
X81825000Y-35225000D01*
X82625000Y-35225000D02*
X82625000Y-35225000D01*
X83425000Y-35225000D02*
X83425000Y-35225000D01*
X84225000Y-35225000D02*
X84225000Y-35225000D01*
X85025000Y-35225000D02*
X85025000Y-35225000D01*
X85825000Y-35225000D02*
X85825000Y-35225000D01*
X86625000Y-35225000D02*
X86625000Y-35225000D01*
X87425000Y-35225000D02*
X87425000Y-35225000D01*
X88225000Y-35225000D02*
X88225000Y-35225000D01*
X89025000Y-35225000D02*
X89025000Y-35225000D01*
X89825000Y-35225000D02*
X89825000Y-35225000D01*
X90625000Y-35225000D02*
X90625000Y-35225000D01*
X91425000Y-35225000D02*
X91425000Y-35225000D01*
X92225000Y-35225000D02*
X92225000Y-35225000D01*
X93025000Y-35225000D02*
X93025000Y-35225000D01*
X93825000Y-35225000D02*
X93825000Y-35225000D01*
X94625000Y-35225000D02*
X94625000Y-35225000D01*
X95425000Y-35225000D02*
X95425000Y-35225000D01*
X96225000Y-35225000D02*
X96225000Y-35225000D01*
X97025000Y-35225000D02*
X97025000Y-35225000D01*
X97825000Y-35225000D02*
X97825000Y-35225000D01*
X98625000Y-35225000D02*
X98625000Y-35225000D01*
X99425000Y-35225000D02*
X99425000Y-35225000D01*
X100225000Y-35225000D02*
X100225000Y-35225000D01*
X101025000Y-35225000D02*
X101025000Y-35225000D01*
X101825000Y-35225000D02*
X101825000Y-35225000D01*
X102625000Y-35225000D02*
X102625000Y-35225000D01*
X103425000Y-35225000D02*
X103425000Y-35225000D01*
X104225000Y-35225000D02*
X104225000Y-35225000D01*
D10*
X295650000Y-114300000D02*
X295650000Y-13500000D01*
X20200000Y-115200000D02*
X20200000Y-14400000D01*
D12*
X299650000Y-21875000D02*
G75*
G03*
X299650000Y-21875000I-4000000J0D01*
G01*
D11*
X35200000Y-35225040D02*
X35200000Y-35225040D01*
X35166335Y-36024094D02*
X35166335Y-36024094D01*
X35065581Y-36817486D02*
X35065581Y-36817486D01*
X34898451Y-37599592D02*
X34898451Y-37599592D01*
X34666129Y-38364868D02*
X34666129Y-38364868D01*
X34370262Y-39107893D02*
X34370262Y-39107893D01*
X34012947Y-39823398D02*
X34012947Y-39823398D01*
X33596717Y-40506314D02*
X33596717Y-40506314D01*
X33124520Y-41151800D02*
X33124520Y-41151800D01*
X32599705Y-41755282D02*
X32599705Y-41755282D01*
X32025989Y-42312483D02*
X32025989Y-42312483D01*
X31407440Y-42819453D02*
X31407440Y-42819453D01*
X30748441Y-43272600D02*
X30748441Y-43272600D01*
X30053663Y-43668712D02*
X30053663Y-43668712D01*
X29328029Y-44004983D02*
X29328029Y-44004983D01*
X28576683Y-44279027D02*
X28576683Y-44279027D01*
X27804949Y-44488904D02*
X27804949Y-44488904D01*
X27018297Y-44633126D02*
X27018297Y-44633126D01*
X26222301Y-44710671D02*
X26222301Y-44710671D01*
X25422604Y-44720989D02*
X25422604Y-44720989D01*
X24624873Y-44664007D02*
X24624873Y-44664007D01*
X23834761Y-44540129D02*
X23834761Y-44540129D01*
X23057869Y-44350233D02*
X23057869Y-44350233D01*
X22299703Y-44095664D02*
X22299703Y-44095664D01*
X21565635Y-43778228D02*
X21565635Y-43778228D01*
X20860868Y-43400173D02*
X20860868Y-43400173D01*
X20190397Y-42964179D02*
X20190397Y-42964179D01*
X19558974Y-42473336D02*
X19558974Y-42473336D01*
X18971073Y-41931123D02*
X18971073Y-41931123D01*
X18430862Y-41341382D02*
X18430862Y-41341382D01*
X17942170Y-40708294D02*
X17942170Y-40708294D01*
X17508458Y-40036344D02*
X17508458Y-40036344D01*
X17132802Y-39330296D02*
X17132802Y-39330296D01*
X16817863Y-38595152D02*
X16817863Y-38595152D01*
X16565875Y-37836124D02*
X16565875Y-37836124D01*
X16378621Y-37058591D02*
X16378621Y-37058591D01*
X16257431Y-36268063D02*
X16257431Y-36268063D01*
X16203162Y-35470143D02*
X16203162Y-35470143D01*
X16216199Y-34670485D02*
X16216199Y-34670485D01*
X16296450Y-33874758D02*
X16296450Y-33874758D01*
X16443346Y-33088601D02*
X16443346Y-33088601D01*
X16655846Y-32317585D02*
X16655846Y-32317585D01*
X16932444Y-31567175D02*
X16932444Y-31567175D01*
X17271180Y-30842688D02*
X17271180Y-30842688D01*
X17669652Y-30149261D02*
X17669652Y-30149261D01*
X18125038Y-29491807D02*
X18125038Y-29491807D01*
X18634109Y-28874985D02*
X18634109Y-28874985D01*
X19193257Y-28303168D02*
X19193257Y-28303168D01*
X19798520Y-27780408D02*
X19798520Y-27780408D01*
X20445608Y-27310409D02*
X20445608Y-27310409D01*
X21129936Y-26896503D02*
X21129936Y-26896503D01*
X21846652Y-26541624D02*
X21846652Y-26541624D01*
X22590678Y-26248285D02*
X22590678Y-26248285D01*
X23356740Y-26018567D02*
X23356740Y-26018567D01*
X24139410Y-25854097D02*
X24139410Y-25854097D01*
X24933139Y-25756041D02*
X24933139Y-25756041D01*
X25732304Y-25725094D02*
X25732304Y-25725094D01*
X26531240Y-25761476D02*
X26531240Y-25761476D01*
X27324284Y-25864927D02*
X27324284Y-25864927D01*
X28105817Y-26034716D02*
X28105817Y-26034716D01*
X28870300Y-26269639D02*
X28870300Y-26269639D01*
X29612313Y-26568031D02*
X29612313Y-26568031D01*
X30326599Y-26927777D02*
X30326599Y-26927777D01*
X31008096Y-27346327D02*
X31008096Y-27346327D01*
X31651973Y-27820715D02*
X31651973Y-27820715D01*
X32253667Y-28347580D02*
X32253667Y-28347580D01*
X32808913Y-28923187D02*
X32808913Y-28923187D01*
X33313777Y-29543456D02*
X33313777Y-29543456D01*
X33764681Y-30203992D02*
X33764681Y-30203992D01*
X34158428Y-30900114D02*
X34158428Y-30900114D01*
X34492229Y-31626887D02*
X34492229Y-31626887D01*
X34763717Y-32379161D02*
X34763717Y-32379161D01*
X34970968Y-33151604D02*
X34970968Y-33151604D01*
X35112515Y-33938742D02*
X35112515Y-33938742D01*
X35187352Y-34734997D02*
X35187352Y-34734997D01*
D10*
X10850000Y-27350000D02*
X12500000Y-27350000D01*
X13100000Y-27350000D02*
X14750000Y-27350000D01*
X15350000Y-27350000D02*
X17000000Y-27350000D01*
X17600000Y-27350000D02*
X19250000Y-27350000D01*
X19850000Y-27350000D02*
X21500000Y-27350000D01*
X22100000Y-27350000D02*
X23750000Y-27350000D01*
X24350000Y-27350000D02*
X26000000Y-27350000D01*
X26600000Y-27350000D02*
X28250000Y-27350000D01*
X28850000Y-27350000D02*
X30500000Y-27350000D01*
X31100000Y-27350000D02*
X32750000Y-27350000D01*
X33350000Y-27350000D02*
X35000000Y-27350000D01*
X35600000Y-27350000D02*
X37250000Y-27350000D01*
X37850000Y-27350000D02*
X39500000Y-27350000D01*
X40100000Y-27350000D02*
X41750000Y-27350000D01*
X42350000Y-27350000D02*
X44000000Y-27350000D01*
X44600000Y-27350000D02*
X46250000Y-27350000D01*
X46850000Y-27350000D02*
X48500000Y-27350000D01*
X49100000Y-27350000D02*
X50750000Y-27350000D01*
X51350000Y-27350000D02*
X53000000Y-27350000D01*
X53600000Y-27350000D02*
X55250000Y-27350000D01*
X55850000Y-27350000D02*
X57500000Y-27350000D01*
X58100000Y-27350000D02*
X59750000Y-27350000D01*
X60350000Y-27350000D02*
X62000000Y-27350000D01*
X62600000Y-27350000D02*
X64250000Y-27350000D01*
X64850000Y-27350000D02*
X66500000Y-27350000D01*
X67100000Y-27350000D02*
X68750000Y-27350000D01*
X69350000Y-27350000D02*
X71000000Y-27350000D01*
X71600000Y-27350000D02*
X73250000Y-27350000D01*
X73850000Y-27350000D02*
X75500000Y-27350000D01*
X76100000Y-27350000D02*
X77750000Y-27350000D01*
X78350000Y-27350000D02*
X80000000Y-27350000D01*
X80600000Y-27350000D02*
X82250000Y-27350000D01*
X82850000Y-27350000D02*
X84500000Y-27350000D01*
X85100000Y-27350000D02*
X86750000Y-27350000D01*
X87350000Y-27350000D02*
X89000000Y-27350000D01*
X89600000Y-27350000D02*
X91250000Y-27350000D01*
X91850000Y-27350000D02*
X93500000Y-27350000D01*
X94100000Y-27350000D02*
X95750000Y-27350000D01*
X96350000Y-27350000D02*
X98000000Y-27350000D01*
X98600000Y-27350000D02*
X100250000Y-27350000D01*
X100850000Y-27350000D02*
X102500000Y-27350000D01*
X103100000Y-27350000D02*
X104750000Y-27350000D01*
X105350000Y-27350000D02*
X107000000Y-27350000D01*
X107600000Y-27350000D02*
X109250000Y-27350000D01*
X109850000Y-27350000D02*
X111500000Y-27350000D01*
X112100000Y-27350000D02*
X113750000Y-27350000D01*
X114350000Y-27350000D02*
X116000000Y-27350000D01*
X116600000Y-27350000D02*
X118250000Y-27350000D01*
X118850000Y-27350000D02*
X120500000Y-27350000D01*
X121100000Y-27350000D02*
X122750000Y-27350000D01*
X123350000Y-27350000D02*
X125000000Y-27350000D01*
X125600000Y-27350000D02*
X127250000Y-27350000D01*
X127850000Y-27350000D02*
X129500000Y-27350000D01*
X130100000Y-27350000D02*
X131750000Y-27350000D01*
X132350000Y-27350000D02*
X134000000Y-27350000D01*
X134600000Y-27350000D02*
X136250000Y-27350000D01*
X136850000Y-27350000D02*
X138500000Y-27350000D01*
X139100000Y-27350000D02*
X140750000Y-27350000D01*
X141350000Y-27350000D02*
X143000000Y-27350000D01*
X143600000Y-27350000D02*
X145250000Y-27350000D01*
X145850000Y-27350000D02*
X147500000Y-27350000D01*
X148100000Y-27350000D02*
X149750000Y-27350000D01*
X150350000Y-27350000D02*
X152000000Y-27350000D01*
X152600000Y-27350000D02*
X154250000Y-27350000D01*
X154850000Y-27350000D02*
X156500000Y-27350000D01*
X157100000Y-27350000D02*
X158750000Y-27350000D01*
X159350000Y-27350000D02*
X161000000Y-27350000D01*
X161600000Y-27350000D02*
X163250000Y-27350000D01*
X163850000Y-27350000D02*
X165500000Y-27350000D01*
X166100000Y-27350000D02*
X167750000Y-27350000D01*
X168350000Y-27350000D02*
X170000000Y-27350000D01*
X170600000Y-27350000D02*
X172250000Y-27350000D01*
X172850000Y-27350000D02*
X174500000Y-27350000D01*
X175100000Y-27350000D02*
X176750000Y-27350000D01*
X177350000Y-27350000D02*
X179000000Y-27350000D01*
X179600000Y-27350000D02*
X181250000Y-27350000D01*
X181850000Y-27350000D02*
X183500000Y-27350000D01*
X184100000Y-27350000D02*
X185750000Y-27350000D01*
X186350000Y-27350000D02*
X188000000Y-27350000D01*
X188600000Y-27350000D02*
X190250000Y-27350000D01*
X190850000Y-27350000D02*
X192500000Y-27350000D01*
X193100000Y-27350000D02*
X194750000Y-27350000D01*
X195350000Y-27350000D02*
X197000000Y-27350000D01*
X197600000Y-27350000D02*
X199250000Y-27350000D01*
X199850000Y-27350000D02*
X201500000Y-27350000D01*
X202100000Y-27350000D02*
X203750000Y-27350000D01*
X204350000Y-27350000D02*
X206000000Y-27350000D01*
X206600000Y-27350000D02*
X208250000Y-27350000D01*
X208850000Y-27350000D02*
X210500000Y-27350000D01*
X211100000Y-27350000D02*
X212750000Y-27350000D01*
X213350000Y-27350000D02*
X215000000Y-27350000D01*
X215600000Y-27350000D02*
X217250000Y-27350000D01*
X217850000Y-27350000D02*
X219500000Y-27350000D01*
X220100000Y-27350000D02*
X221750000Y-27350000D01*
X222350000Y-27350000D02*
X224000000Y-27350000D01*
X224600000Y-27350000D02*
X226250000Y-27350000D01*
X226850000Y-27350000D02*
X228500000Y-27350000D01*
X229100000Y-27350000D02*
X230750000Y-27350000D01*
X231350000Y-27350000D02*
X233000000Y-27350000D01*
X233600000Y-27350000D02*
X235250000Y-27350000D01*
X235850000Y-27350000D02*
X237500000Y-27350000D01*
X238100000Y-27350000D02*
X239750000Y-27350000D01*
X240350000Y-27350000D02*
X242000000Y-27350000D01*
X242600000Y-27350000D02*
X244250000Y-27350000D01*
X244850000Y-27350000D02*
X246500000Y-27350000D01*
X247100000Y-27350000D02*
X248750000Y-27350000D01*
X249350000Y-27350000D02*
X251000000Y-27350000D01*
X251600000Y-27350000D02*
X253250000Y-27350000D01*
X253850000Y-27350000D02*
X255500000Y-27350000D01*
X256100000Y-27350000D02*
X257750000Y-27350000D01*
X258350000Y-27350000D02*
X260000000Y-27350000D01*
X260600000Y-27350000D02*
X262250000Y-27350000D01*
X262850000Y-27350000D02*
X264500000Y-27350000D01*
X265100000Y-27350000D02*
X266750000Y-27350000D01*
X267350000Y-27350000D02*
X269000000Y-27350000D01*
X269600000Y-27350000D02*
X271250000Y-27350000D01*
X271850000Y-27350000D02*
X273500000Y-27350000D01*
X274100000Y-27350000D02*
X275750000Y-27350000D01*
X276350000Y-27350000D02*
X278000000Y-27350000D01*
X278600000Y-27350000D02*
X280250000Y-27350000D01*
X280850000Y-27350000D02*
X282500000Y-27350000D01*
X283100000Y-27350000D02*
X284750000Y-27350000D01*
X285350000Y-27350000D02*
X287000000Y-27350000D01*
X287600000Y-27350000D02*
X289250000Y-27350000D01*
X289850000Y-27350000D02*
X291500000Y-27350000D01*
X292100000Y-27350000D02*
X293750000Y-27350000D01*
X294350000Y-27350000D02*
X296000000Y-27350000D01*
X296600000Y-27350000D02*
X298250000Y-27350000D01*
X298850000Y-27350000D02*
X300500000Y-27350000D01*
X301100000Y-27350000D02*
X302750000Y-27350000D01*
X303350000Y-27350000D02*
X305000000Y-27350000D01*
X305600000Y-27350000D02*
X307250000Y-27350000D01*
X25700000Y-115200000D02*
X25700000Y-113550000D01*
X25700000Y-112950000D02*
X25700000Y-111300000D01*
X25700000Y-110700000D02*
X25700000Y-109050000D01*
X25700000Y-108450000D02*
X25700000Y-106800000D01*
X25700000Y-106200000D02*
X25700000Y-104550000D01*
X25700000Y-103950000D02*
X25700000Y-102300000D01*
X25700000Y-101700000D02*
X25700000Y-100050000D01*
X25700000Y-99450000D02*
X25700000Y-97800000D01*
X25700000Y-97200000D02*
X25700000Y-95550000D01*
X25700000Y-94950000D02*
X25700000Y-93300000D01*
X25700000Y-92700000D02*
X25700000Y-91050000D01*
X25700000Y-90450000D02*
X25700000Y-88800000D01*
X25700000Y-88200000D02*
X25700000Y-86550000D01*
X25700000Y-85950000D02*
X25700000Y-84300000D01*
X25700000Y-83700000D02*
X25700000Y-82050000D01*
X25700000Y-81450000D02*
X25700000Y-79800000D01*
X25700000Y-79200000D02*
X25700000Y-77550000D01*
X25700000Y-76950000D02*
X25700000Y-75300000D01*
X25700000Y-74700000D02*
X25700000Y-73050000D01*
X25700000Y-72450000D02*
X25700000Y-70800000D01*
X25700000Y-70200000D02*
X25700000Y-68550000D01*
X25700000Y-67950000D02*
X25700000Y-66300000D01*
X25700000Y-65700000D02*
X25700000Y-64050000D01*
X25700000Y-63450000D02*
X25700000Y-61800000D01*
X25700000Y-61200000D02*
X25700000Y-59550000D01*
X25700000Y-58950000D02*
X25700000Y-57300000D01*
X25700000Y-56700000D02*
X25700000Y-55050000D01*
X25700000Y-54450000D02*
X25700000Y-52800000D01*
X25700000Y-52200000D02*
X25700000Y-50550000D01*
X25700000Y-49950000D02*
X25700000Y-48300000D01*
X25700000Y-47700000D02*
X25700000Y-46050000D01*
X25700000Y-45450000D02*
X25700000Y-43800000D01*
X25700000Y-43200000D02*
X25700000Y-41550000D01*
X25700000Y-40950000D02*
X25700000Y-39300000D01*
X25700000Y-38700000D02*
X25700000Y-37050000D01*
X25700000Y-36450000D02*
X25700000Y-34800000D01*
X25700000Y-34200000D02*
X25700000Y-32550000D01*
X25700000Y-31950000D02*
X25700000Y-30300000D01*
X25700000Y-29700000D02*
X25700000Y-28050000D01*
X25700000Y-27450000D02*
X25700000Y-25800000D01*
X25700000Y-25200000D02*
X25700000Y-23550000D01*
X25700000Y-22950000D02*
X25700000Y-21300000D01*
X25700000Y-20700000D02*
X25700000Y-19050000D01*
X25700000Y-18450000D02*
X25700000Y-16800000D01*
X25700000Y-16200000D02*
X25700000Y-14550000D01*
X290125000Y-114300000D02*
X290125000Y-112650000D01*
X290125000Y-112050000D02*
X290125000Y-110400000D01*
X290125000Y-109800000D02*
X290125000Y-108150000D01*
X290125000Y-107550000D02*
X290125000Y-105900000D01*
X290125000Y-105300000D02*
X290125000Y-103650000D01*
X290125000Y-103050000D02*
X290125000Y-101400000D01*
X290125000Y-100800000D02*
X290125000Y-99150000D01*
X290125000Y-98550000D02*
X290125000Y-96900000D01*
X290125000Y-96300000D02*
X290125000Y-94650000D01*
X290125000Y-94050000D02*
X290125000Y-92400000D01*
X290125000Y-91800000D02*
X290125000Y-90150000D01*
X290125000Y-89550000D02*
X290125000Y-87900000D01*
X290125000Y-87300000D02*
X290125000Y-85650000D01*
X290125000Y-85050000D02*
X290125000Y-83400000D01*
X290125000Y-82800000D02*
X290125000Y-81150000D01*
X290125000Y-80550000D02*
X290125000Y-78900000D01*
X290125000Y-78300000D02*
X290125000Y-76650000D01*
X290125000Y-76050000D02*
X290125000Y-74400000D01*
X290125000Y-73800000D02*
X290125000Y-72150000D01*
X290125000Y-71550000D02*
X290125000Y-69900000D01*
X290125000Y-69300000D02*
X290125000Y-67650000D01*
X290125000Y-67050000D02*
X290125000Y-65400000D01*
X290125000Y-64800000D02*
X290125000Y-63150000D01*
X290125000Y-62550000D02*
X290125000Y-60900000D01*
X290125000Y-60300000D02*
X290125000Y-58650000D01*
X290125000Y-58050000D02*
X290125000Y-56400000D01*
X290125000Y-55800000D02*
X290125000Y-54150000D01*
X290125000Y-53550000D02*
X290125000Y-51900000D01*
X290125000Y-51300000D02*
X290125000Y-49650000D01*
X290125000Y-49050000D02*
X290125000Y-47400000D01*
X290125000Y-46800000D02*
X290125000Y-45150000D01*
X290125000Y-44550000D02*
X290125000Y-42900000D01*
X290125000Y-42300000D02*
X290125000Y-40650000D01*
X290125000Y-40050000D02*
X290125000Y-38400000D01*
X290125000Y-37800000D02*
X290125000Y-36150000D01*
X290125000Y-35550000D02*
X290125000Y-33900000D01*
X290125000Y-33300000D02*
X290125000Y-31650000D01*
X290125000Y-31050000D02*
X290125000Y-29400000D01*
X290125000Y-28800000D02*
X290125000Y-27150000D01*
X290125000Y-26550000D02*
X290125000Y-24900000D01*
X290125000Y-24300000D02*
X290125000Y-22650000D01*
X290125000Y-22050000D02*
X290125000Y-20400000D01*
X290125000Y-19800000D02*
X290125000Y-18150000D01*
X290125000Y-17550000D02*
X290125000Y-15900000D01*
X290125000Y-15300000D02*
X290125000Y-13650000D01*
D12*
X24200000Y-106900000D02*
G75*
G03*
X24200000Y-106900000I-4000000J0D01*
G01*
D10*
X13000000Y-106900000D02*
X305000000Y-106900000D01*
D12*
X299711697Y-27341705D02*
X299620139Y-28657461D01*
X299541680Y-29130954D02*
X299203948Y-30405919D01*
X299037715Y-30856160D02*
X298465898Y-32044699D01*
X298217840Y-32455574D02*
X297432405Y-33515145D01*
X297111402Y-33871947D02*
X296140462Y-34764625D01*
X295758002Y-35054583D02*
X294636310Y-35748416D01*
X294206083Y-35961152D02*
X292973787Y-36431306D01*
X292511194Y-36559205D02*
X291212402Y-36788852D01*
X290733998Y-36827336D02*
X289415198Y-36808256D01*
X288938108Y-36755948D02*
X287646503Y-36488823D01*
X287187803Y-36347595D02*
X285969624Y-35841988D01*
X285545732Y-35616895D02*
X284444582Y-34890902D01*
X284070671Y-34590001D02*
X283125962Y-33669608D01*
X282815415Y-33303669D02*
X282060961Y-32221819D01*
X281824894Y-31803940D02*
X281287700Y-30599356D01*
X281134562Y-30144494D02*
X280833856Y-28860292D01*
X280769128Y-28384728D02*
X280715673Y-27066873D01*
X280741672Y-26587629D02*
X280937381Y-25283291D01*
X281053176Y-24817520D02*
X281491044Y-23573386D01*
X281692492Y-23137760D02*
X282356846Y-21998361D01*
X282636735Y-21608472D02*
X283503797Y-20614589D01*
X283852109Y-20284393D02*
X284890843Y-19471602D01*
X285295112Y-19212917D02*
X286468339Y-18610309D01*
X286914094Y-18432394D02*
X288179821Y-18061539D01*
X288651107Y-17970762D02*
X289964029Y-17844933D01*
X290443978Y-17844545D02*
X291757103Y-17968246D01*
X292228535Y-18058259D02*
X293494861Y-18427063D01*
X293940904Y-18604256D02*
X295115106Y-19204962D01*
X295519793Y-19462992D02*
X296559843Y-20274099D01*
X296908689Y-20603731D02*
X297777360Y-21596207D01*
X298057880Y-21985642D02*
X298724080Y-23123964D01*
X298926232Y-23559263D02*
X299366115Y-24802686D01*
X299482665Y-25268269D02*
X299680487Y-26572288D01*
X299707263Y-27051489D02*
X299711697Y-27341705D01*
X35286697Y-27341705D02*
X35195139Y-28657461D01*
X35116680Y-29130954D02*
X34778948Y-30405919D01*
X34612715Y-30856160D02*
X34040898Y-32044699D01*
X33792840Y-32455574D02*
X33007405Y-33515145D01*
X32686402Y-33871947D02*
X31715462Y-34764625D01*
X31333002Y-35054583D02*
X30211310Y-35748416D01*
X29781083Y-35961152D02*
X28548787Y-36431306D01*
X28086194Y-36559205D02*
X26787402Y-36788852D01*
X26308998Y-36827336D02*
X24990198Y-36808256D01*
X24513108Y-36755948D02*
X23221503Y-36488823D01*
X22762803Y-36347595D02*
X21544624Y-35841988D01*
X21120732Y-35616895D02*
X20019582Y-34890902D01*
X19645671Y-34590001D02*
X18700962Y-33669608D01*
X18390415Y-33303669D02*
X17635961Y-32221819D01*
X17399894Y-31803940D02*
X16862700Y-30599356D01*
X16709562Y-30144494D02*
X16408856Y-28860292D01*
X16344128Y-28384728D02*
X16290673Y-27066873D01*
X16316672Y-26587629D02*
X16512381Y-25283291D01*
X16628176Y-24817520D02*
X17066044Y-23573386D01*
X17267492Y-23137760D02*
X17931846Y-21998361D01*
X18211735Y-21608472D02*
X19078797Y-20614589D01*
X19427109Y-20284393D02*
X20465843Y-19471602D01*
X20870112Y-19212917D02*
X22043339Y-18610309D01*
X22489094Y-18432394D02*
X23754821Y-18061539D01*
X24226107Y-17970762D02*
X25539029Y-17844933D01*
X26018978Y-17844545D02*
X27332103Y-17968246D01*
X27803535Y-18058259D02*
X29069861Y-18427063D01*
X29515904Y-18604256D02*
X30690106Y-19204962D01*
X31094793Y-19462992D02*
X32134843Y-20274099D01*
X32483689Y-20603731D02*
X33352360Y-21596207D01*
X33632880Y-21985642D02*
X34299080Y-23123964D01*
X34501232Y-23559263D02*
X34941115Y-24802686D01*
X35057665Y-25268269D02*
X35255487Y-26572288D01*
X35282263Y-27051489D02*
X35286697Y-27341705D01*
D11*
X50025000Y-154887540D02*
X50025000Y-154887540D01*
X50025000Y-154087540D02*
X50025000Y-154087540D01*
X50025000Y-153287540D02*
X50025000Y-153287540D01*
X50025000Y-152487540D02*
X50025000Y-152487540D01*
X50025000Y-151687540D02*
X50025000Y-151687540D01*
X50025000Y-150887540D02*
X50025000Y-150887540D01*
X50025000Y-150087540D02*
X50025000Y-150087540D01*
X50025000Y-149287540D02*
X50025000Y-149287540D01*
X50025000Y-148487540D02*
X50025000Y-148487540D01*
X50025000Y-147687540D02*
X50025000Y-147687540D01*
X50025000Y-146887540D02*
X50025000Y-146887540D01*
X50025000Y-146087540D02*
X50025000Y-146087540D01*
X50025000Y-145287540D02*
X50025000Y-145287540D01*
X50025000Y-144487540D02*
X50025000Y-144487540D01*
X50025000Y-143687540D02*
X50025000Y-143687540D01*
X50025000Y-142887540D02*
X50025000Y-142887540D01*
X50025000Y-142087540D02*
X50025000Y-142087540D01*
X50025000Y-141287540D02*
X50025000Y-141287540D01*
X50025000Y-140487540D02*
X50025000Y-140487540D01*
X50025000Y-139687540D02*
X50025000Y-139687540D01*
X50025000Y-138887540D02*
X50025000Y-138887540D01*
X50025000Y-138087540D02*
X50025000Y-138087540D01*
X50025000Y-137287540D02*
X50025000Y-137287540D01*
X50025000Y-136487540D02*
X50025000Y-136487540D01*
X50025000Y-135687540D02*
X50025000Y-135687540D01*
X50025000Y-134887540D02*
X50025000Y-134887540D01*
X50025000Y-134087540D02*
X50025000Y-134087540D01*
X50025000Y-133287540D02*
X50025000Y-133287540D01*
X50025000Y-132487540D02*
X50025000Y-132487540D01*
X50025000Y-131687540D02*
X50025000Y-131687540D01*
X50025000Y-130887540D02*
X50025000Y-130887540D01*
X50025000Y-130087540D02*
X50025000Y-130087540D01*
X50025000Y-129287540D02*
X50025000Y-129287540D01*
X50025000Y-128487540D02*
X50025000Y-128487540D01*
X50025000Y-127687540D02*
X50025000Y-127687540D01*
X50025000Y-126887540D02*
X50025000Y-126887540D01*
X50025000Y-126087540D02*
X50025000Y-126087540D01*
X50025000Y-125287540D02*
X50025000Y-125287540D01*
X50025000Y-124487540D02*
X50025000Y-124487540D01*
X50025000Y-123687540D02*
X50025000Y-123687540D01*
X50025000Y-122887540D02*
X50025000Y-122887540D01*
X50025000Y-122087540D02*
X50025000Y-122087540D01*
X50025000Y-121287540D02*
X50025000Y-121287540D01*
X50025000Y-120487540D02*
X50025000Y-120487540D01*
X50025000Y-119687540D02*
X50025000Y-119687540D01*
X50025000Y-118887540D02*
X50025000Y-118887540D01*
X50025000Y-118087540D02*
X50025000Y-118087540D01*
X50025000Y-117287540D02*
X50025000Y-117287540D01*
X50025000Y-116487540D02*
X50025000Y-116487540D01*
X50025000Y-115687540D02*
X50025000Y-115687540D01*
X50025000Y-114887540D02*
X50025000Y-114887540D01*
X50025000Y-114087540D02*
X50025000Y-114087540D01*
X50025000Y-113287540D02*
X50025000Y-113287540D01*
X50025000Y-112487540D02*
X50025000Y-112487540D01*
X50025000Y-111687540D02*
X50025000Y-111687540D01*
X50025000Y-110887540D02*
X50025000Y-110887540D01*
X50025000Y-110087540D02*
X50025000Y-110087540D01*
X50025000Y-109287540D02*
X50025000Y-109287540D01*
X50025000Y-108487540D02*
X50025000Y-108487540D01*
X50025000Y-107687540D02*
X50025000Y-107687540D01*
X50025000Y-106887540D02*
X50025000Y-106887540D01*
X50025000Y-106087540D02*
X50025000Y-106087540D01*
X50025000Y-105287540D02*
X50025000Y-105287540D01*
X50025000Y-104487540D02*
X50025000Y-104487540D01*
X50025000Y-103687540D02*
X50025000Y-103687540D01*
X50025000Y-102887540D02*
X50025000Y-102887540D01*
X50025000Y-102087540D02*
X50025000Y-102087540D01*
X50025000Y-101287540D02*
X50025000Y-101287540D01*
X50025000Y-100487540D02*
X50025000Y-100487540D01*
X50025000Y-99687540D02*
X50025000Y-99687540D01*
X50025000Y-98887540D02*
X50025000Y-98887540D01*
X50025000Y-98087540D02*
X50025000Y-98087540D01*
X50025000Y-97287540D02*
X50025000Y-97287540D01*
X50025000Y-96487540D02*
X50025000Y-96487540D01*
X50025000Y-95687540D02*
X50025000Y-95687540D01*
X50025000Y-94887540D02*
X50025000Y-94887540D01*
X50025000Y-94087540D02*
X50025000Y-94087540D01*
X50025000Y-93287540D02*
X50025000Y-93287540D01*
X50025000Y-92487540D02*
X50025000Y-92487540D01*
X50025000Y-91687540D02*
X50025000Y-91687540D01*
X50025000Y-90887540D02*
X50025000Y-90887540D01*
X50025000Y-90087540D02*
X50025000Y-90087540D01*
X50025000Y-89287540D02*
X50025000Y-89287540D01*
X50025000Y-88487540D02*
X50025000Y-88487540D01*
X50025000Y-87687540D02*
X50025000Y-87687540D01*
X50025000Y-86887540D02*
X50025000Y-86887540D01*
X50025000Y-86087540D02*
X50025000Y-86087540D01*
X50025000Y-85287540D02*
X50025000Y-85287540D01*
X50025000Y-84487540D02*
X50025000Y-84487540D01*
X50025000Y-83687540D02*
X50025000Y-83687540D01*
X50025000Y-82887540D02*
X50025000Y-82887540D01*
X50025000Y-82087540D02*
X50025000Y-82087540D01*
X50025000Y-81287540D02*
X50025000Y-81287540D01*
X50025000Y-80487540D02*
X50025000Y-80487540D01*
X50025000Y-79687540D02*
X50025000Y-79687540D01*
X50025000Y-78887540D02*
X50025000Y-78887540D01*
X50025000Y-78087540D02*
X50025000Y-78087540D01*
X50025000Y-77287540D02*
X50025000Y-77287540D01*
X50025000Y-76487540D02*
X50025000Y-76487540D01*
X50025000Y-75687540D02*
X50025000Y-75687540D01*
X50025000Y-74887540D02*
X50025000Y-74887540D01*
X50025000Y-74087540D02*
X50025000Y-74087540D01*
X50025000Y-73287540D02*
X50025000Y-73287540D01*
X50025000Y-72487540D02*
X50025000Y-72487540D01*
X50025000Y-71687540D02*
X50025000Y-71687540D01*
X50025000Y-70887540D02*
X50025000Y-70887540D01*
X50025000Y-70087540D02*
X50025000Y-70087540D01*
X50025000Y-69287540D02*
X50025000Y-69287540D01*
X50025000Y-68487540D02*
X50025000Y-68487540D01*
X50025000Y-67687540D02*
X50025000Y-67687540D01*
X50025000Y-66887540D02*
X50025000Y-66887540D01*
X50025000Y-66087540D02*
X50025000Y-66087540D01*
X50025000Y-65287540D02*
X50025000Y-65287540D01*
X50025000Y-64487540D02*
X50025000Y-64487540D01*
X50025000Y-63687540D02*
X50025000Y-63687540D01*
X50025000Y-62887540D02*
X50025000Y-62887540D01*
X50025000Y-62087540D02*
X50025000Y-62087540D01*
X50025000Y-61287540D02*
X50025000Y-61287540D01*
X50025000Y-60487540D02*
X50025000Y-60487540D01*
X50025000Y-59687540D02*
X50025000Y-59687540D01*
X50025000Y-58887540D02*
X50025000Y-58887540D01*
X50025000Y-58087540D02*
X50025000Y-58087540D01*
X50025000Y-57287540D02*
X50025000Y-57287540D01*
X50025000Y-56487540D02*
X50025000Y-56487540D01*
X50025000Y-55687540D02*
X50025000Y-55687540D01*
X50025000Y-54887540D02*
X50025000Y-54887540D01*
X50025000Y-54087540D02*
X50025000Y-54087540D01*
X50025000Y-53287540D02*
X50025000Y-53287540D01*
X50025000Y-52487540D02*
X50025000Y-52487540D01*
X50025000Y-51687540D02*
X50025000Y-51687540D01*
X50025000Y-50887540D02*
X50025000Y-50887540D01*
X50025000Y-50087540D02*
X50025000Y-50087540D01*
X50025000Y-49287540D02*
X50025000Y-49287540D01*
X50025000Y-48487540D02*
X50025000Y-48487540D01*
X50025000Y-47687540D02*
X50025000Y-47687540D01*
X50025000Y-46887540D02*
X50025000Y-46887540D01*
X50025000Y-46087540D02*
X50025000Y-46087540D01*
X50025000Y-45287540D02*
X50025000Y-45287540D01*
X50025000Y-44487540D02*
X50025000Y-44487540D01*
X50025000Y-43687540D02*
X50025000Y-43687540D01*
X50025000Y-42887540D02*
X50025000Y-42887540D01*
X50025000Y-42087540D02*
X50025000Y-42087540D01*
X50025000Y-41287540D02*
X50025000Y-41287540D01*
X50025000Y-40487540D02*
X50025000Y-40487540D01*
X50025000Y-39687540D02*
X50025000Y-39687540D01*
X50025000Y-38887540D02*
X50025000Y-38887540D01*
X50025000Y-38087540D02*
X50025000Y-38087540D01*
X50025000Y-37287540D02*
X50025000Y-37287540D01*
X50025000Y-36487540D02*
X50025000Y-36487540D01*
X50025000Y-35687540D02*
X50025000Y-35687540D01*
X50025000Y-34887540D02*
X50025000Y-34887540D01*
X50025000Y-34087540D02*
X50025000Y-34087540D01*
X50025000Y-33287540D02*
X50025000Y-33287540D01*
X50025000Y-32487540D02*
X50025000Y-32487540D01*
X50025000Y-31687540D02*
X50025000Y-31687540D01*
X50025000Y-30887540D02*
X50025000Y-30887540D01*
X50025000Y-30087540D02*
X50025000Y-30087540D01*
X50025000Y-29287540D02*
X50025000Y-29287540D01*
X50025000Y-28487540D02*
X50025000Y-28487540D01*
X50025000Y-27687540D02*
X50025000Y-27687540D01*
X50025000Y-26887540D02*
X50025000Y-26887540D01*
X50025000Y-26087540D02*
X50025000Y-26087540D01*
X50025000Y-25287540D02*
X50025000Y-25287540D01*
X50025000Y-24487540D02*
X50025000Y-24487540D01*
X50025000Y-23687540D02*
X50025000Y-23687540D01*
X50025000Y-22887540D02*
X50025000Y-22887540D01*
X50025000Y-22087540D02*
X50025000Y-22087540D01*
X50025000Y-21287540D02*
X50025000Y-21287540D01*
X50025000Y-20487540D02*
X50025000Y-20487540D01*
X50025000Y-19687540D02*
X50025000Y-19687540D01*
X50025000Y-18887540D02*
X50025000Y-18887540D01*
X50025000Y-18087540D02*
X50025000Y-18087540D01*
X50025000Y-17287540D02*
X50025000Y-17287540D01*
X50025000Y-16487540D02*
X50025000Y-16487540D01*
X50025000Y-15687540D02*
X50025000Y-15687540D01*
X50025000Y-14887540D02*
X50025000Y-14887540D01*
X50025000Y-14087540D02*
X50025000Y-14087540D01*
X50025000Y-13287540D02*
X50025000Y-13287540D01*
X50025000Y-12487540D02*
X50025000Y-12487540D01*
D12*
X24200000Y-21875000D02*
G75*
G03*
X24200000Y-21875000I-4000000J0D01*
G01*
D11*
X161919253Y-48800000D02*
X161919253Y-48800000D01*
X161839519Y-49594677D02*
X161839519Y-49594677D01*
X161603496Y-50357673D02*
X161603496Y-50357673D01*
X161220595Y-51058569D02*
X161220595Y-51058569D01*
X160706079Y-51669424D02*
X160706079Y-51669424D01*
X160080462Y-52165883D02*
X160080462Y-52165883D01*
X159368684Y-52528156D02*
X159368684Y-52528156D01*
X158599121Y-52741798D02*
X158599121Y-52741798D01*
X157802454Y-52798294D02*
X157802454Y-52798294D01*
X157010444Y-52695390D02*
X157010444Y-52695390D01*
X156254665Y-52437189D02*
X156254665Y-52437189D01*
X155565248Y-52033985D02*
X155565248Y-52033985D01*
X154969678Y-51501852D02*
X154969678Y-51501852D01*
X154491697Y-50862005D02*
X154491697Y-50862005D01*
X154150363Y-50139952D02*
X154150363Y-50139952D01*
X153959283Y-49364480D02*
X153959283Y-49364480D01*
X153926073Y-48566503D02*
X153926073Y-48566503D01*
X154052060Y-47777835D02*
X154052060Y-47777835D01*
X154332219Y-47029918D02*
X154332219Y-47029918D01*
X154755382Y-46352568D02*
X154755382Y-46352568D01*
X155304678Y-45772790D02*
X155304678Y-45772790D01*
X155958209Y-45313696D02*
X155958209Y-45313696D01*
X156689921Y-44993591D02*
X156689921Y-44993591D01*
X157470642Y-44825235D02*
X157470642Y-44825235D01*
X158269248Y-44815341D02*
X158269248Y-44815341D01*
X159053901Y-44964302D02*
X159053901Y-44964302D01*
X159793319Y-45266181D02*
X159793319Y-45266181D01*
X160458024Y-45708942D02*
X160458024Y-45708942D01*
X161021516Y-46274933D02*
X161021516Y-46274933D01*
X161461331Y-46941591D02*
X161461331Y-46941591D01*
X161759934Y-47682338D02*
X161759934Y-47682338D01*
X161905421Y-48467642D02*
X161905421Y-48467642D01*
X265800000Y-154512540D02*
X265800000Y-154512540D01*
X265800000Y-153712540D02*
X265800000Y-153712540D01*
X265800000Y-152912540D02*
X265800000Y-152912540D01*
X265800000Y-152112540D02*
X265800000Y-152112540D01*
X265800000Y-151312540D02*
X265800000Y-151312540D01*
X265800000Y-150512540D02*
X265800000Y-150512540D01*
X265800000Y-149712540D02*
X265800000Y-149712540D01*
X265800000Y-148912540D02*
X265800000Y-148912540D01*
X265800000Y-148112540D02*
X265800000Y-148112540D01*
X265800000Y-147312540D02*
X265800000Y-147312540D01*
X265800000Y-146512540D02*
X265800000Y-146512540D01*
X265800000Y-145712540D02*
X265800000Y-145712540D01*
X265800000Y-144912540D02*
X265800000Y-144912540D01*
X265800000Y-144112540D02*
X265800000Y-144112540D01*
X265800000Y-143312540D02*
X265800000Y-143312540D01*
X265800000Y-142512540D02*
X265800000Y-142512540D01*
X265800000Y-141712540D02*
X265800000Y-141712540D01*
X265800000Y-140912540D02*
X265800000Y-140912540D01*
X265800000Y-140112540D02*
X265800000Y-140112540D01*
X265800000Y-139312540D02*
X265800000Y-139312540D01*
X265800000Y-138512540D02*
X265800000Y-138512540D01*
X265800000Y-137712540D02*
X265800000Y-137712540D01*
X265800000Y-136912540D02*
X265800000Y-136912540D01*
X265800000Y-136112540D02*
X265800000Y-136112540D01*
X265800000Y-135312540D02*
X265800000Y-135312540D01*
X265800000Y-134512540D02*
X265800000Y-134512540D01*
X265800000Y-133712540D02*
X265800000Y-133712540D01*
X265800000Y-132912540D02*
X265800000Y-132912540D01*
X265800000Y-132112540D02*
X265800000Y-132112540D01*
X265800000Y-131312540D02*
X265800000Y-131312540D01*
X265800000Y-130512540D02*
X265800000Y-130512540D01*
X265800000Y-129712540D02*
X265800000Y-129712540D01*
X265800000Y-128912540D02*
X265800000Y-128912540D01*
X265800000Y-128112540D02*
X265800000Y-128112540D01*
X265800000Y-127312540D02*
X265800000Y-127312540D01*
X265800000Y-126512540D02*
X265800000Y-126512540D01*
X265800000Y-125712540D02*
X265800000Y-125712540D01*
X265800000Y-124912540D02*
X265800000Y-124912540D01*
X265800000Y-124112540D02*
X265800000Y-124112540D01*
X265800000Y-123312540D02*
X265800000Y-123312540D01*
X265800000Y-122512540D02*
X265800000Y-122512540D01*
X265800000Y-121712540D02*
X265800000Y-121712540D01*
X265800000Y-120912540D02*
X265800000Y-120912540D01*
X265800000Y-120112540D02*
X265800000Y-120112540D01*
X265800000Y-119312540D02*
X265800000Y-119312540D01*
X265800000Y-118512540D02*
X265800000Y-118512540D01*
X265800000Y-117712540D02*
X265800000Y-117712540D01*
X265800000Y-116912540D02*
X265800000Y-116912540D01*
X265800000Y-116112540D02*
X265800000Y-116112540D01*
X265800000Y-115312540D02*
X265800000Y-115312540D01*
X265800000Y-114512540D02*
X265800000Y-114512540D01*
X265800000Y-113712540D02*
X265800000Y-113712540D01*
X265800000Y-112912540D02*
X265800000Y-112912540D01*
X265800000Y-112112540D02*
X265800000Y-112112540D01*
X265800000Y-111312540D02*
X265800000Y-111312540D01*
X265800000Y-110512540D02*
X265800000Y-110512540D01*
X265800000Y-109712540D02*
X265800000Y-109712540D01*
X265800000Y-108912540D02*
X265800000Y-108912540D01*
X265800000Y-108112540D02*
X265800000Y-108112540D01*
X265800000Y-107312540D02*
X265800000Y-107312540D01*
X265800000Y-106512540D02*
X265800000Y-106512540D01*
X265800000Y-105712540D02*
X265800000Y-105712540D01*
X265800000Y-104912540D02*
X265800000Y-104912540D01*
X265800000Y-104112540D02*
X265800000Y-104112540D01*
X265800000Y-103312540D02*
X265800000Y-103312540D01*
X265800000Y-102512540D02*
X265800000Y-102512540D01*
X265800000Y-101712540D02*
X265800000Y-101712540D01*
X265800000Y-100912540D02*
X265800000Y-100912540D01*
X265800000Y-100112540D02*
X265800000Y-100112540D01*
X265800000Y-99312540D02*
X265800000Y-99312540D01*
X265800000Y-98512540D02*
X265800000Y-98512540D01*
X265800000Y-97712540D02*
X265800000Y-97712540D01*
X265800000Y-96912540D02*
X265800000Y-96912540D01*
X265800000Y-96112540D02*
X265800000Y-96112540D01*
X265800000Y-95312540D02*
X265800000Y-95312540D01*
X265800000Y-94512540D02*
X265800000Y-94512540D01*
X265800000Y-93712540D02*
X265800000Y-93712540D01*
X265800000Y-92912540D02*
X265800000Y-92912540D01*
X265800000Y-92112540D02*
X265800000Y-92112540D01*
X265800000Y-91312540D02*
X265800000Y-91312540D01*
X265800000Y-90512540D02*
X265800000Y-90512540D01*
X265800000Y-89712540D02*
X265800000Y-89712540D01*
X265800000Y-88912540D02*
X265800000Y-88912540D01*
X265800000Y-88112540D02*
X265800000Y-88112540D01*
X265800000Y-87312540D02*
X265800000Y-87312540D01*
X265800000Y-86512540D02*
X265800000Y-86512540D01*
X265800000Y-85712540D02*
X265800000Y-85712540D01*
X265800000Y-84912540D02*
X265800000Y-84912540D01*
X265800000Y-84112540D02*
X265800000Y-84112540D01*
X265800000Y-83312540D02*
X265800000Y-83312540D01*
X265800000Y-82512540D02*
X265800000Y-82512540D01*
X265800000Y-81712540D02*
X265800000Y-81712540D01*
X265800000Y-80912540D02*
X265800000Y-80912540D01*
X265800000Y-80112540D02*
X265800000Y-80112540D01*
X265800000Y-79312540D02*
X265800000Y-79312540D01*
X265800000Y-78512540D02*
X265800000Y-78512540D01*
X265800000Y-77712540D02*
X265800000Y-77712540D01*
X265800000Y-76912540D02*
X265800000Y-76912540D01*
X265800000Y-76112540D02*
X265800000Y-76112540D01*
X265800000Y-75312540D02*
X265800000Y-75312540D01*
X265800000Y-74512540D02*
X265800000Y-74512540D01*
X265800000Y-73712540D02*
X265800000Y-73712540D01*
X265800000Y-72912540D02*
X265800000Y-72912540D01*
X265800000Y-72112540D02*
X265800000Y-72112540D01*
X265800000Y-71312540D02*
X265800000Y-71312540D01*
X265800000Y-70512540D02*
X265800000Y-70512540D01*
X265800000Y-69712540D02*
X265800000Y-69712540D01*
X265800000Y-68912540D02*
X265800000Y-68912540D01*
X265800000Y-68112540D02*
X265800000Y-68112540D01*
X265800000Y-67312540D02*
X265800000Y-67312540D01*
X265800000Y-66512540D02*
X265800000Y-66512540D01*
X265800000Y-65712540D02*
X265800000Y-65712540D01*
X265800000Y-64912540D02*
X265800000Y-64912540D01*
X265800000Y-64112540D02*
X265800000Y-64112540D01*
X265800000Y-63312540D02*
X265800000Y-63312540D01*
X265800000Y-62512540D02*
X265800000Y-62512540D01*
X265800000Y-61712540D02*
X265800000Y-61712540D01*
X265800000Y-60912540D02*
X265800000Y-60912540D01*
X265800000Y-60112540D02*
X265800000Y-60112540D01*
X265800000Y-59312540D02*
X265800000Y-59312540D01*
X265800000Y-58512540D02*
X265800000Y-58512540D01*
X265800000Y-57712540D02*
X265800000Y-57712540D01*
X265800000Y-56912540D02*
X265800000Y-56912540D01*
X265800000Y-56112540D02*
X265800000Y-56112540D01*
X265800000Y-55312540D02*
X265800000Y-55312540D01*
X265800000Y-54512540D02*
X265800000Y-54512540D01*
X265800000Y-53712540D02*
X265800000Y-53712540D01*
X265800000Y-52912540D02*
X265800000Y-52912540D01*
X265800000Y-52112540D02*
X265800000Y-52112540D01*
X265800000Y-51312540D02*
X265800000Y-51312540D01*
X265800000Y-50512540D02*
X265800000Y-50512540D01*
X265800000Y-49712540D02*
X265800000Y-49712540D01*
X265800000Y-48912540D02*
X265800000Y-48912540D01*
X265800000Y-48112540D02*
X265800000Y-48112540D01*
X265800000Y-47312540D02*
X265800000Y-47312540D01*
X265800000Y-46512540D02*
X265800000Y-46512540D01*
X265800000Y-45712540D02*
X265800000Y-45712540D01*
X265800000Y-44912540D02*
X265800000Y-44912540D01*
X265800000Y-44112540D02*
X265800000Y-44112540D01*
X265800000Y-43312540D02*
X265800000Y-43312540D01*
X265800000Y-42512540D02*
X265800000Y-42512540D01*
X265800000Y-41712540D02*
X265800000Y-41712540D01*
X265800000Y-40912540D02*
X265800000Y-40912540D01*
X265800000Y-40112540D02*
X265800000Y-40112540D01*
X265800000Y-39312540D02*
X265800000Y-39312540D01*
X265800000Y-38512540D02*
X265800000Y-38512540D01*
X265800000Y-37712540D02*
X265800000Y-37712540D01*
X265800000Y-36912540D02*
X265800000Y-36912540D01*
X265800000Y-36112540D02*
X265800000Y-36112540D01*
X265800000Y-35312540D02*
X265800000Y-35312540D01*
X265800000Y-34512540D02*
X265800000Y-34512540D01*
X265800000Y-33712540D02*
X265800000Y-33712540D01*
X265800000Y-32912540D02*
X265800000Y-32912540D01*
X265800000Y-32112540D02*
X265800000Y-32112540D01*
X265800000Y-31312540D02*
X265800000Y-31312540D01*
X265800000Y-30512540D02*
X265800000Y-30512540D01*
X265800000Y-29712540D02*
X265800000Y-29712540D01*
X265800000Y-28912540D02*
X265800000Y-28912540D01*
X265800000Y-28112540D02*
X265800000Y-28112540D01*
X265800000Y-27312540D02*
X265800000Y-27312540D01*
X265800000Y-26512540D02*
X265800000Y-26512540D01*
X265800000Y-25712540D02*
X265800000Y-25712540D01*
X265800000Y-24912540D02*
X265800000Y-24912540D01*
X265800000Y-24112540D02*
X265800000Y-24112540D01*
X265800000Y-23312540D02*
X265800000Y-23312540D01*
X265800000Y-22512540D02*
X265800000Y-22512540D01*
X265800000Y-21712540D02*
X265800000Y-21712540D01*
X265800000Y-20912540D02*
X265800000Y-20912540D01*
X265800000Y-20112540D02*
X265800000Y-20112540D01*
X265800000Y-19312540D02*
X265800000Y-19312540D01*
X265800000Y-18512540D02*
X265800000Y-18512540D01*
X265800000Y-17712540D02*
X265800000Y-17712540D01*
X265800000Y-16912540D02*
X265800000Y-16912540D01*
X265800000Y-16112540D02*
X265800000Y-16112540D01*
X265800000Y-15312540D02*
X265800000Y-15312540D01*
X265800000Y-14512540D02*
X265800000Y-14512540D01*
X265800000Y-13712540D02*
X265800000Y-13712540D01*
X265800000Y-12912540D02*
X265800000Y-12912540D01*
X265800000Y-12112540D02*
X265800000Y-12112540D01*
D12*
X161925000Y-106900000D02*
G75*
G03*
X161925000Y-106900000I-4000000J0D01*
G01*
X299650000Y-106900000D02*
G75*
G03*
X299650000Y-106900000I-4000000J0D01*
G01*
X161919253Y-21925000D02*
X161703422Y-23221172D01*
X161521041Y-23664862D02*
X160762907Y-24738117D01*
X160405692Y-25058307D02*
X159256203Y-25694955D01*
X158795279Y-25827893D02*
X157483305Y-25901172D01*
X157010444Y-25820390D02*
X155797207Y-25315711D01*
X155406558Y-25037292D02*
X154533620Y-24055139D01*
X154302964Y-23634519D02*
X153944133Y-22370444D01*
X153919394Y-21891371D02*
X154146114Y-20597059D01*
X154332219Y-20154918D02*
X155099349Y-19088074D01*
X155459243Y-18770898D02*
X156614044Y-18143937D01*
X157076069Y-18014879D02*
X158388613Y-17952632D01*
X158860778Y-18037387D02*
X160069729Y-18552249D01*
X160458024Y-18833942D02*
X161322674Y-19823399D01*
X161549786Y-20245943D02*
X161897977Y-21512990D01*
D11*
X299625000Y-35225000D02*
X299625000Y-35225000D01*
X299591335Y-36024054D02*
X299591335Y-36024054D01*
X299490581Y-36817446D02*
X299490581Y-36817446D01*
X299323451Y-37599552D02*
X299323451Y-37599552D01*
X299091129Y-38364828D02*
X299091129Y-38364828D01*
X298795262Y-39107853D02*
X298795262Y-39107853D01*
X298437947Y-39823358D02*
X298437947Y-39823358D01*
X298021717Y-40506274D02*
X298021717Y-40506274D01*
X297549520Y-41151760D02*
X297549520Y-41151760D01*
X297024705Y-41755242D02*
X297024705Y-41755242D01*
X296450989Y-42312443D02*
X296450989Y-42312443D01*
X295832440Y-42819413D02*
X295832440Y-42819413D01*
X295173441Y-43272560D02*
X295173441Y-43272560D01*
X294478663Y-43668672D02*
X294478663Y-43668672D01*
X293753029Y-44004943D02*
X293753029Y-44004943D01*
X293001683Y-44278987D02*
X293001683Y-44278987D01*
X292229949Y-44488864D02*
X292229949Y-44488864D01*
X291443297Y-44633086D02*
X291443297Y-44633086D01*
X290647301Y-44710631D02*
X290647301Y-44710631D01*
X289847604Y-44720949D02*
X289847604Y-44720949D01*
X289049873Y-44663967D02*
X289049873Y-44663967D01*
X288259761Y-44540089D02*
X288259761Y-44540089D01*
X287482869Y-44350193D02*
X287482869Y-44350193D01*
X286724703Y-44095624D02*
X286724703Y-44095624D01*
X285990635Y-43778188D02*
X285990635Y-43778188D01*
X285285868Y-43400133D02*
X285285868Y-43400133D01*
X284615397Y-42964139D02*
X284615397Y-42964139D01*
X283983974Y-42473296D02*
X283983974Y-42473296D01*
X283396073Y-41931083D02*
X283396073Y-41931083D01*
X282855862Y-41341342D02*
X282855862Y-41341342D01*
X282367170Y-40708254D02*
X282367170Y-40708254D01*
X281933458Y-40036304D02*
X281933458Y-40036304D01*
X281557802Y-39330256D02*
X281557802Y-39330256D01*
X281242863Y-38595112D02*
X281242863Y-38595112D01*
X280990875Y-37836084D02*
X280990875Y-37836084D01*
X280803621Y-37058551D02*
X280803621Y-37058551D01*
X280682431Y-36268023D02*
X280682431Y-36268023D01*
X280628162Y-35470103D02*
X280628162Y-35470103D01*
X280641199Y-34670445D02*
X280641199Y-34670445D01*
X280721450Y-33874718D02*
X280721450Y-33874718D01*
X280868346Y-33088561D02*
X280868346Y-33088561D01*
X281080846Y-32317545D02*
X281080846Y-32317545D01*
X281357444Y-31567135D02*
X281357444Y-31567135D01*
X281696180Y-30842648D02*
X281696180Y-30842648D01*
X282094652Y-30149221D02*
X282094652Y-30149221D01*
X282550038Y-29491767D02*
X282550038Y-29491767D01*
X283059109Y-28874945D02*
X283059109Y-28874945D01*
X283618257Y-28303128D02*
X283618257Y-28303128D01*
X284223520Y-27780368D02*
X284223520Y-27780368D01*
X284870608Y-27310369D02*
X284870608Y-27310369D01*
X285554936Y-26896463D02*
X285554936Y-26896463D01*
X286271652Y-26541584D02*
X286271652Y-26541584D01*
X287015678Y-26248245D02*
X287015678Y-26248245D01*
X287781740Y-26018527D02*
X287781740Y-26018527D01*
X288564410Y-25854057D02*
X288564410Y-25854057D01*
X289358139Y-25756001D02*
X289358139Y-25756001D01*
X290157304Y-25725054D02*
X290157304Y-25725054D01*
X290956240Y-25761436D02*
X290956240Y-25761436D01*
X291749284Y-25864887D02*
X291749284Y-25864887D01*
X292530817Y-26034676D02*
X292530817Y-26034676D01*
X293295300Y-26269599D02*
X293295300Y-26269599D01*
X294037313Y-26567991D02*
X294037313Y-26567991D01*
X294751599Y-26927737D02*
X294751599Y-26927737D01*
X295433096Y-27346287D02*
X295433096Y-27346287D01*
X296076973Y-27820675D02*
X296076973Y-27820675D01*
X296678667Y-28347540D02*
X296678667Y-28347540D01*
X297233913Y-28923147D02*
X297233913Y-28923147D01*
X297738777Y-29543416D02*
X297738777Y-29543416D01*
X298189681Y-30203952D02*
X298189681Y-30203952D01*
X298583428Y-30900074D02*
X298583428Y-30900074D01*
X298917229Y-31626847D02*
X298917229Y-31626847D01*
X299188717Y-32379121D02*
X299188717Y-32379121D01*
X299395968Y-33151564D02*
X299395968Y-33151564D01*
X299537515Y-33938702D02*
X299537515Y-33938702D01*
X299612352Y-34734957D02*
X299612352Y-34734957D01*
%TO.C,G\u002A\u002A\u002A*%
G36*
X136904567Y-40526436D02*
G01*
X136910419Y-40565279D01*
X136926557Y-40777377D01*
X136938023Y-41075048D01*
X136940065Y-41182980D01*
X136945592Y-41475044D01*
X136950039Y-41994116D01*
X136952139Y-42649016D01*
X136952666Y-43456495D01*
X136952667Y-43459907D01*
X136953620Y-44162592D01*
X136956317Y-44808757D01*
X136960539Y-45379600D01*
X136966068Y-45856319D01*
X136972687Y-46220110D01*
X136980178Y-46452174D01*
X136988322Y-46533707D01*
X137029093Y-46516037D01*
X137191146Y-46430036D01*
X137444766Y-46288765D01*
X137757000Y-46110373D01*
X137956717Y-45998866D01*
X138272035Y-45838382D01*
X138526114Y-45728063D01*
X138677368Y-45687040D01*
X138678493Y-45687156D01*
X138774991Y-45732782D01*
X139006763Y-45856681D01*
X139363048Y-46052695D01*
X139833086Y-46314668D01*
X140406118Y-46636444D01*
X141071383Y-47011867D01*
X141818122Y-47434779D01*
X142635574Y-47899024D01*
X143512979Y-48398447D01*
X144439578Y-48926889D01*
X145404610Y-49478196D01*
X146397316Y-50046209D01*
X147406935Y-50624774D01*
X148422707Y-51207733D01*
X149433873Y-51788930D01*
X150429673Y-52362208D01*
X151399345Y-52921412D01*
X152332132Y-53460384D01*
X153217272Y-53972967D01*
X154044005Y-54453007D01*
X154801572Y-54894345D01*
X155479213Y-55290825D01*
X156066166Y-55636292D01*
X156341333Y-55798883D01*
X156341333Y-56021868D01*
X156341333Y-56669628D01*
X156344020Y-56937483D01*
X156355401Y-57248861D01*
X156363287Y-57340815D01*
X156373645Y-57461605D01*
X156396513Y-57540373D01*
X156423702Y-57531510D01*
X156572245Y-57458651D01*
X156813824Y-57328181D01*
X157112235Y-57159373D01*
X157242039Y-57086488D01*
X157550137Y-56928828D01*
X157804123Y-56819366D01*
X157958945Y-56778373D01*
X158038298Y-56811198D01*
X158257281Y-56923641D01*
X158604048Y-57110678D01*
X159068735Y-57366742D01*
X159641479Y-57686265D01*
X160312417Y-58063677D01*
X161071685Y-58493410D01*
X161909419Y-58969897D01*
X162815758Y-59487569D01*
X163780837Y-60040857D01*
X164794793Y-60624193D01*
X165847763Y-61232009D01*
X166550062Y-61637982D01*
X167715194Y-62310929D01*
X168746744Y-62905741D01*
X169652937Y-63426966D01*
X170442002Y-63879154D01*
X171122163Y-64266851D01*
X171701648Y-64594606D01*
X172188684Y-64866967D01*
X172591497Y-65088482D01*
X172918313Y-65263699D01*
X173177361Y-65397167D01*
X173376865Y-65493433D01*
X173525054Y-65557046D01*
X173630153Y-65592554D01*
X173700389Y-65604505D01*
X173743989Y-65597446D01*
X173779518Y-65579747D01*
X173959856Y-65481729D01*
X174252408Y-65317510D01*
X174632988Y-65100829D01*
X175077408Y-64845425D01*
X175561484Y-64565036D01*
X175772344Y-64443420D01*
X176236371Y-64182972D01*
X176646572Y-63962456D01*
X176980078Y-63793627D01*
X177214022Y-63688244D01*
X177325534Y-63658064D01*
X177351552Y-63670542D01*
X177507474Y-63755580D01*
X177791405Y-63914741D01*
X178190935Y-64140892D01*
X178693656Y-64426902D01*
X179287158Y-64765639D01*
X179959034Y-65149972D01*
X180696873Y-65572770D01*
X181488267Y-66026900D01*
X182320806Y-66505231D01*
X183182083Y-67000631D01*
X184059688Y-67505970D01*
X184941211Y-68014115D01*
X185814245Y-68517934D01*
X186666380Y-69010297D01*
X187485207Y-69484072D01*
X188258317Y-69932126D01*
X188973301Y-70347329D01*
X189617750Y-70722549D01*
X189632138Y-70730700D01*
X189688318Y-70754292D01*
X189756803Y-70760940D01*
X189851007Y-70743837D01*
X189984345Y-70696177D01*
X190170232Y-70611154D01*
X190422081Y-70481961D01*
X190753308Y-70301791D01*
X191177325Y-70063839D01*
X191707549Y-69761297D01*
X192357392Y-69387359D01*
X193140270Y-68935219D01*
X193671821Y-68629413D01*
X194330345Y-68254626D01*
X194936770Y-67913998D01*
X195475424Y-67616095D01*
X195930634Y-67369482D01*
X196286729Y-67182724D01*
X196528037Y-67064389D01*
X196638884Y-67023040D01*
X196714730Y-67057383D01*
X196928067Y-67170392D01*
X197266751Y-67356044D01*
X197719676Y-67607972D01*
X198275734Y-67919809D01*
X198923817Y-68285191D01*
X199652818Y-68697750D01*
X200451629Y-69151122D01*
X201309142Y-69638939D01*
X202214251Y-70154837D01*
X203155848Y-70692448D01*
X204122824Y-71245407D01*
X205104073Y-71807348D01*
X206088487Y-72371905D01*
X207064958Y-72932712D01*
X208022379Y-73483403D01*
X208949643Y-74017611D01*
X209835640Y-74528972D01*
X210669266Y-75011118D01*
X211439410Y-75457684D01*
X212134967Y-75862304D01*
X212744828Y-76218611D01*
X213257886Y-76520240D01*
X213663034Y-76760825D01*
X213949163Y-76934000D01*
X214105166Y-77033398D01*
X214338000Y-77194570D01*
X214338000Y-77353078D01*
X214338000Y-78012757D01*
X214338000Y-82354300D01*
X214337930Y-82970840D01*
X214337309Y-83948075D01*
X214335750Y-84775859D01*
X214332893Y-85466944D01*
X214328382Y-86034080D01*
X214321859Y-86490017D01*
X214312966Y-86847507D01*
X214301346Y-87119300D01*
X214286643Y-87318146D01*
X214268497Y-87456796D01*
X214246552Y-87548001D01*
X214220450Y-87604512D01*
X214189833Y-87639078D01*
X214156065Y-87661548D01*
X213986689Y-87764890D01*
X213685297Y-87944722D01*
X213261150Y-88195619D01*
X212723510Y-88512160D01*
X212081638Y-88888924D01*
X211344796Y-89320487D01*
X210522245Y-89801428D01*
X209623246Y-90326324D01*
X208657061Y-90889755D01*
X207632950Y-91486296D01*
X206560176Y-92110527D01*
X205448000Y-92757025D01*
X204817021Y-93123312D01*
X203725049Y-93755718D01*
X202676803Y-94360932D01*
X201681604Y-94933664D01*
X200748768Y-95468623D01*
X199887613Y-95960516D01*
X199107457Y-96404053D01*
X198417618Y-96793942D01*
X198376155Y-96817192D01*
X197827414Y-97124893D01*
X197346163Y-97391613D01*
X196983182Y-97588813D01*
X196747790Y-97711199D01*
X196649303Y-97753482D01*
X196645183Y-97753147D01*
X196524131Y-97703545D01*
X196266471Y-97573102D01*
X195880635Y-97366554D01*
X195375058Y-97088636D01*
X194758174Y-96744084D01*
X194038414Y-96337635D01*
X193224214Y-95874025D01*
X192324007Y-95357989D01*
X191346225Y-94794262D01*
X190299303Y-94187582D01*
X189702482Y-93841145D01*
X188790990Y-93313008D01*
X187927857Y-92814041D01*
X187123966Y-92350474D01*
X186390201Y-91928540D01*
X185737442Y-91554471D01*
X185176575Y-91234498D01*
X184718481Y-90974855D01*
X184374043Y-90781773D01*
X184154144Y-90661483D01*
X184069666Y-90620218D01*
X184011374Y-90646437D01*
X183818315Y-90749620D01*
X183506039Y-90923054D01*
X183089600Y-91158183D01*
X182584053Y-91446452D01*
X182004451Y-91779307D01*
X181365850Y-92148194D01*
X180683302Y-92544557D01*
X180044733Y-92914868D01*
X179227567Y-93383279D01*
X178545766Y-93766763D01*
X178001010Y-94064408D01*
X177594975Y-94275303D01*
X177329341Y-94398535D01*
X177205786Y-94433193D01*
X177129132Y-94396903D01*
X176912926Y-94280368D01*
X176568911Y-94089151D01*
X176106935Y-93828889D01*
X175536849Y-93505215D01*
X174868502Y-93123764D01*
X174111744Y-92690171D01*
X173276424Y-92210070D01*
X172372393Y-91689096D01*
X171409499Y-91132883D01*
X170397593Y-90547066D01*
X169346524Y-89937279D01*
X161663081Y-85474975D01*
X159905434Y-86493674D01*
X159580796Y-86679966D01*
X159101727Y-86947835D01*
X158677040Y-87176935D01*
X158329538Y-87355340D01*
X158082024Y-87471128D01*
X157957301Y-87512373D01*
X157926514Y-87501015D01*
X157761855Y-87417546D01*
X157467778Y-87258353D01*
X157055333Y-87029820D01*
X156535574Y-86738332D01*
X155919552Y-86390276D01*
X155218320Y-85992037D01*
X154442929Y-85549999D01*
X153604431Y-85070549D01*
X152713878Y-84560070D01*
X151782322Y-84024950D01*
X150820816Y-83471572D01*
X149840411Y-82906323D01*
X148852158Y-82335588D01*
X147867111Y-81765751D01*
X146896321Y-81203198D01*
X145950840Y-80654315D01*
X145041720Y-80125487D01*
X144180013Y-79623099D01*
X143376771Y-79153537D01*
X142643046Y-78723185D01*
X141989890Y-78338429D01*
X141428355Y-78005654D01*
X140969493Y-77731247D01*
X140624355Y-77521591D01*
X140403995Y-77383072D01*
X140319463Y-77322076D01*
X140305562Y-77280766D01*
X140280516Y-77091183D01*
X140262933Y-76797114D01*
X140255963Y-76442207D01*
X140254686Y-76253310D01*
X140247789Y-75948005D01*
X140236381Y-75737493D01*
X140222075Y-75659040D01*
X140198206Y-75668543D01*
X140056902Y-75741826D01*
X139820448Y-75871753D01*
X139523575Y-76039410D01*
X139389936Y-76113712D01*
X139080816Y-76270499D01*
X138826492Y-76379431D01*
X138671886Y-76420410D01*
X138655626Y-76415128D01*
X138514947Y-76344929D01*
X138242980Y-76198090D01*
X137850799Y-75981002D01*
X137349477Y-75700052D01*
X136750086Y-75361630D01*
X136063702Y-74972125D01*
X135301396Y-74537926D01*
X134474242Y-74065421D01*
X133593313Y-73561000D01*
X132669683Y-73031051D01*
X131714424Y-72481964D01*
X130738611Y-71920127D01*
X129753316Y-71351930D01*
X128769613Y-70783761D01*
X127798575Y-70222009D01*
X126851275Y-69673063D01*
X125938786Y-69143312D01*
X125072182Y-68639146D01*
X124262537Y-68166952D01*
X123520923Y-67733120D01*
X122858413Y-67344040D01*
X122286081Y-67006099D01*
X121815001Y-66725687D01*
X121456245Y-66509192D01*
X121220887Y-66363004D01*
X121120000Y-66293512D01*
X121101587Y-66270106D01*
X121070200Y-66190959D01*
X121044098Y-66054181D01*
X121022428Y-65843815D01*
X121004336Y-65543903D01*
X120988968Y-65138489D01*
X120975470Y-64611614D01*
X120962987Y-63947323D01*
X120950666Y-63129656D01*
X120908333Y-60088791D01*
X120188666Y-60509924D01*
X120018539Y-60607521D01*
X119663084Y-60790951D01*
X119404203Y-60885846D01*
X119215000Y-60903066D01*
X119191384Y-60894854D01*
X119035250Y-60817340D01*
X118748809Y-60663493D01*
X118343156Y-60439723D01*
X117829386Y-60152444D01*
X117218594Y-59808064D01*
X116521874Y-59412997D01*
X115750321Y-58973653D01*
X114915029Y-58496443D01*
X114027094Y-57987778D01*
X113097609Y-57454070D01*
X112137670Y-56901729D01*
X111158371Y-56337168D01*
X110170806Y-55766797D01*
X109186072Y-55197028D01*
X108215261Y-54634271D01*
X107269469Y-54084938D01*
X106359790Y-53555441D01*
X105497320Y-53052189D01*
X104693152Y-52581595D01*
X103958382Y-52150070D01*
X103304103Y-51764025D01*
X102741412Y-51429871D01*
X102281401Y-51154020D01*
X101935167Y-50942882D01*
X101713804Y-50802869D01*
X101628405Y-50740392D01*
X101628040Y-50739734D01*
X101616642Y-50634155D01*
X101605862Y-50374645D01*
X101595886Y-49976134D01*
X101586899Y-49453557D01*
X101579086Y-48821845D01*
X101572634Y-48095932D01*
X101567728Y-47290749D01*
X101566744Y-47021245D01*
X102340869Y-47021245D01*
X102341481Y-47800556D01*
X102344316Y-48505136D01*
X102349228Y-49119218D01*
X102356073Y-49627036D01*
X102364706Y-50012824D01*
X102374982Y-50260816D01*
X102386756Y-50355246D01*
X102396363Y-50361917D01*
X102520033Y-50437173D01*
X102777960Y-50590226D01*
X103160800Y-50815623D01*
X103659208Y-51107909D01*
X104263840Y-51461627D01*
X104965350Y-51871325D01*
X105754394Y-52331545D01*
X106621627Y-52836834D01*
X107557704Y-53381737D01*
X108553281Y-53960799D01*
X109599012Y-54568564D01*
X110685552Y-55199578D01*
X118920105Y-59980084D01*
X118898328Y-55390045D01*
X119596000Y-55390045D01*
X119596124Y-55889596D01*
X119596914Y-56726255D01*
X119598371Y-57500952D01*
X119600424Y-58198351D01*
X119603003Y-58803110D01*
X119606038Y-59299892D01*
X119609457Y-59673358D01*
X119613190Y-59908168D01*
X119616728Y-59980084D01*
X119617166Y-59988985D01*
X119638080Y-59977804D01*
X119772832Y-59899712D01*
X120002890Y-59763985D01*
X120294500Y-59590484D01*
X120950666Y-59198706D01*
X120950666Y-58200354D01*
X121725819Y-58200354D01*
X121725868Y-58857641D01*
X121727083Y-59598805D01*
X121729488Y-60408430D01*
X121733104Y-61271099D01*
X121755000Y-65848491D01*
X129925333Y-70594031D01*
X130207833Y-70758102D01*
X131281248Y-71381307D01*
X132312082Y-71979452D01*
X133290897Y-72547077D01*
X134208256Y-73078725D01*
X135054722Y-73568936D01*
X135820856Y-74012251D01*
X136497223Y-74403213D01*
X137074385Y-74736361D01*
X137542904Y-75006237D01*
X137893344Y-75207382D01*
X138116266Y-75334338D01*
X138202234Y-75381645D01*
X138222998Y-75367366D01*
X138243355Y-75286517D01*
X138259912Y-75125940D01*
X138272877Y-74874437D01*
X138282458Y-74520809D01*
X138288864Y-74053856D01*
X138292303Y-73462379D01*
X138292983Y-72735180D01*
X138291703Y-72137050D01*
X139086195Y-72137050D01*
X139086748Y-72735180D01*
X139086911Y-72911152D01*
X139089811Y-73608057D01*
X139094753Y-74212411D01*
X139101595Y-74708857D01*
X139110195Y-75082041D01*
X139120412Y-75316608D01*
X139132104Y-75397201D01*
X139135847Y-75396456D01*
X139246948Y-75345703D01*
X139457345Y-75232597D01*
X139724909Y-75079701D01*
X140253485Y-74770040D01*
X140253661Y-73606592D01*
X141033535Y-73606592D01*
X141034148Y-74385872D01*
X141036983Y-75090405D01*
X141041896Y-75704427D01*
X141048741Y-76212175D01*
X141057374Y-76597885D01*
X141067650Y-76845794D01*
X141079423Y-76940138D01*
X141089044Y-76946801D01*
X141212746Y-77022028D01*
X141470698Y-77175063D01*
X141853555Y-77400451D01*
X142351973Y-77692738D01*
X142956608Y-78046467D01*
X143658116Y-78456185D01*
X144447153Y-78916436D01*
X145314374Y-79421765D01*
X146250435Y-79966718D01*
X147245993Y-80545840D01*
X148291702Y-81153675D01*
X149378219Y-81784770D01*
X157612772Y-86566016D01*
X157590988Y-81974026D01*
X158288666Y-81974026D01*
X158288792Y-82474771D01*
X158289582Y-83311478D01*
X158291039Y-84086203D01*
X158293093Y-84783608D01*
X158295672Y-85388360D01*
X158298706Y-85885121D01*
X158302124Y-86258556D01*
X158305857Y-86493329D01*
X158309435Y-86566016D01*
X158309833Y-86574105D01*
X158397549Y-86531214D01*
X158602383Y-86416443D01*
X158890345Y-86248513D01*
X159232806Y-86044807D01*
X159601133Y-85822709D01*
X159966695Y-85599603D01*
X160300860Y-85392872D01*
X160574998Y-85219901D01*
X160760478Y-85098073D01*
X160828666Y-85044772D01*
X160764792Y-84979303D01*
X160589489Y-84858900D01*
X160341833Y-84711448D01*
X160169139Y-84619007D01*
X160013623Y-84537911D01*
X159886721Y-84460508D01*
X159785557Y-84371070D01*
X159707255Y-84253870D01*
X159648938Y-84093181D01*
X159607729Y-83873276D01*
X159604900Y-83842353D01*
X160320666Y-83842353D01*
X162391304Y-85044772D01*
X168547253Y-88619530D01*
X168882395Y-88814136D01*
X169956844Y-89437889D01*
X170987750Y-90036146D01*
X171965762Y-90603492D01*
X172881528Y-91134510D01*
X173725696Y-91623784D01*
X174488915Y-92065899D01*
X175161832Y-92455437D01*
X175735096Y-92786984D01*
X176199356Y-93055122D01*
X176545258Y-93254437D01*
X176763452Y-93379511D01*
X176844586Y-93424929D01*
X176852233Y-93400959D01*
X176864961Y-93234523D01*
X176876633Y-92922706D01*
X176887022Y-92480760D01*
X176895906Y-91923938D01*
X176903059Y-91267492D01*
X176908257Y-90526673D01*
X176909581Y-90171432D01*
X177609531Y-90171432D01*
X177610236Y-90945539D01*
X177613130Y-91642574D01*
X177618069Y-92247159D01*
X177624911Y-92743920D01*
X177633514Y-93117481D01*
X177643737Y-93352465D01*
X177655437Y-93433497D01*
X177733069Y-93397212D01*
X177938508Y-93285423D01*
X178250933Y-93109423D01*
X178650832Y-92880660D01*
X179118691Y-92610581D01*
X179634998Y-92310633D01*
X180180239Y-91992265D01*
X180734902Y-91666923D01*
X181279474Y-91346056D01*
X181794442Y-91041111D01*
X182260293Y-90763535D01*
X182657514Y-90524777D01*
X182966593Y-90336283D01*
X183168016Y-90209501D01*
X183242271Y-90155879D01*
X183238355Y-90148521D01*
X183136380Y-90071481D01*
X182910296Y-89924448D01*
X182578141Y-89718485D01*
X182157950Y-89464652D01*
X181667759Y-89174014D01*
X181125605Y-88857633D01*
X178989666Y-87620559D01*
X178966995Y-85576800D01*
X178961794Y-85169015D01*
X178957475Y-84913755D01*
X179724112Y-84913755D01*
X179726763Y-85573597D01*
X179732484Y-86104381D01*
X179741483Y-86517487D01*
X179753969Y-86824298D01*
X179770149Y-87036195D01*
X179790231Y-87164562D01*
X179814422Y-87220779D01*
X179827103Y-87229782D01*
X179959527Y-87311519D01*
X180224939Y-87470121D01*
X180613083Y-87699590D01*
X181113704Y-87993932D01*
X181716547Y-88347151D01*
X182411358Y-88753250D01*
X183187882Y-89206234D01*
X184035863Y-89700107D01*
X184819538Y-90155879D01*
X184945046Y-90228872D01*
X185905177Y-90786535D01*
X186906000Y-91367099D01*
X187036746Y-91442895D01*
X188064912Y-92038961D01*
X189071471Y-92622519D01*
X190043935Y-93186328D01*
X190969814Y-93723147D01*
X191836618Y-94225733D01*
X192631860Y-94686845D01*
X193343049Y-95099241D01*
X193957697Y-95455680D01*
X194463314Y-95748919D01*
X194847411Y-95971718D01*
X195097500Y-96116834D01*
X196304000Y-96817192D01*
X196304000Y-92216085D01*
X196304000Y-90540357D01*
X196998228Y-90540357D01*
X196998783Y-91353192D01*
X197001763Y-92217241D01*
X197023666Y-96785168D01*
X205278666Y-91991503D01*
X213533666Y-87197838D01*
X213555566Y-82605297D01*
X213577466Y-78012757D01*
X213216900Y-78221931D01*
X213099398Y-78289932D01*
X212844167Y-78437504D01*
X212462227Y-78658276D01*
X211963635Y-78946438D01*
X211358449Y-79296176D01*
X210656726Y-79701681D01*
X209868524Y-80157139D01*
X209003899Y-80656739D01*
X208072911Y-81194669D01*
X207085615Y-81765118D01*
X206052070Y-82362274D01*
X204982333Y-82980324D01*
X204951123Y-82998356D01*
X203889424Y-83611975D01*
X202869031Y-84202124D01*
X201899524Y-84763245D01*
X200990479Y-85289775D01*
X200151474Y-85776153D01*
X199392087Y-86216819D01*
X198721895Y-86606211D01*
X198150477Y-86938768D01*
X197687411Y-87208929D01*
X197342273Y-87411134D01*
X197124642Y-87539820D01*
X197044096Y-87589428D01*
X197037790Y-87618182D01*
X197026808Y-87793981D01*
X197017390Y-88115209D01*
X197009680Y-88566163D01*
X197003820Y-89131140D01*
X196999955Y-89794439D01*
X196998228Y-90540357D01*
X196304000Y-90540357D01*
X196304000Y-87614978D01*
X188027833Y-82829013D01*
X179751666Y-78043048D01*
X179729756Y-82583443D01*
X179727193Y-83161365D01*
X179724325Y-84113471D01*
X179724112Y-84913755D01*
X178957475Y-84913755D01*
X178952869Y-84641585D01*
X178942662Y-84191202D01*
X178931808Y-83840937D01*
X178920942Y-83613859D01*
X178910700Y-83533040D01*
X178894557Y-83539007D01*
X178765989Y-83606612D01*
X178541240Y-83733558D01*
X178256038Y-83899827D01*
X177635000Y-84266615D01*
X177613104Y-88852827D01*
X177613104Y-88852929D01*
X177611155Y-89335628D01*
X177609531Y-90171432D01*
X176909581Y-90171432D01*
X176911275Y-89716735D01*
X176911889Y-88852929D01*
X176908444Y-84252707D01*
X168695317Y-79511373D01*
X168382525Y-79330815D01*
X167307168Y-78710277D01*
X166275090Y-78115025D01*
X165295685Y-77550462D01*
X164378347Y-77021990D01*
X163532471Y-76535013D01*
X162767452Y-76094931D01*
X162092684Y-75707150D01*
X161517562Y-75377069D01*
X161051481Y-75110094D01*
X160703835Y-74911625D01*
X160484019Y-74787065D01*
X160401428Y-74741818D01*
X160386680Y-74788684D01*
X160369909Y-74994196D01*
X160355379Y-75356575D01*
X160343213Y-75868865D01*
X160333535Y-76524108D01*
X160326468Y-77315345D01*
X160322138Y-78235620D01*
X160320666Y-79277974D01*
X160320666Y-83842353D01*
X159604900Y-83842353D01*
X159580752Y-83578427D01*
X159565130Y-83192908D01*
X159557988Y-82700992D01*
X159556447Y-82086950D01*
X159557632Y-81335057D01*
X159558666Y-80429584D01*
X159558249Y-79850614D01*
X159556430Y-79110246D01*
X159553311Y-78437080D01*
X159549052Y-77848137D01*
X159543810Y-77360440D01*
X159537743Y-76991010D01*
X159531011Y-76756869D01*
X159523771Y-76675040D01*
X159511697Y-76678975D01*
X159389796Y-76740538D01*
X159169867Y-76861250D01*
X158888771Y-77021026D01*
X158288666Y-77367011D01*
X158288666Y-81974026D01*
X157590988Y-81974026D01*
X157590886Y-81952557D01*
X157569000Y-77339098D01*
X149314000Y-72565210D01*
X141059000Y-67791322D01*
X141037090Y-72334038D01*
X141035289Y-72768327D01*
X141033535Y-73606592D01*
X140253661Y-73606592D01*
X140254076Y-70859007D01*
X140254175Y-70412339D01*
X140254806Y-69570949D01*
X140256521Y-68877163D01*
X140259944Y-68316159D01*
X140265699Y-67873114D01*
X140274409Y-67533207D01*
X140286699Y-67281614D01*
X140302748Y-67108311D01*
X141442039Y-67108311D01*
X141447371Y-67113002D01*
X141557212Y-67182292D01*
X141801899Y-67329311D01*
X142172140Y-67548635D01*
X142658641Y-67834843D01*
X143252110Y-68182510D01*
X143943254Y-68586213D01*
X144722782Y-69040530D01*
X145581400Y-69540038D01*
X146509816Y-70079312D01*
X147498737Y-70652931D01*
X148538872Y-71255470D01*
X149620927Y-71881508D01*
X149902006Y-72043997D01*
X150977429Y-72665095D01*
X152010728Y-73260939D01*
X152992415Y-73826105D01*
X153913002Y-74355167D01*
X154762998Y-74842701D01*
X155532917Y-75283284D01*
X156213269Y-75671490D01*
X156794566Y-76001895D01*
X157267319Y-76269075D01*
X157622039Y-76467605D01*
X157849238Y-76592061D01*
X157939427Y-76637018D01*
X158008661Y-76626199D01*
X158209460Y-76546688D01*
X158491320Y-76406738D01*
X158816418Y-76224155D01*
X159555836Y-75786040D01*
X159558548Y-74854707D01*
X159563049Y-74538105D01*
X159577017Y-74197941D01*
X159585774Y-74094126D01*
X160845294Y-74094126D01*
X160852809Y-74099648D01*
X160972527Y-74173716D01*
X161227239Y-74325543D01*
X161607467Y-74549609D01*
X162103728Y-74840398D01*
X162706543Y-75192391D01*
X163406431Y-75600070D01*
X164193910Y-76057916D01*
X165059501Y-76560411D01*
X165993723Y-77102038D01*
X166987094Y-77677277D01*
X168030135Y-78280611D01*
X169113364Y-78906522D01*
X169391898Y-79067373D01*
X170462816Y-79685699D01*
X171489672Y-80278396D01*
X172463142Y-80840094D01*
X173373903Y-81365420D01*
X174212633Y-81849003D01*
X174970007Y-82285471D01*
X175636704Y-82669452D01*
X176203398Y-82995574D01*
X176660768Y-83258466D01*
X176999490Y-83452756D01*
X177210241Y-83573071D01*
X177283697Y-83614041D01*
X177343730Y-83580201D01*
X177522919Y-83476417D01*
X177791799Y-83319663D01*
X178120683Y-83127208D01*
X178945032Y-82644040D01*
X178946183Y-79926662D01*
X178946985Y-79237376D01*
X178949563Y-78620196D01*
X178954827Y-78138250D01*
X178963719Y-77773632D01*
X178977178Y-77508436D01*
X178992973Y-77355476D01*
X180133028Y-77355476D01*
X180137509Y-77359587D01*
X180244201Y-77427277D01*
X180485937Y-77572809D01*
X180853404Y-77790746D01*
X181337290Y-78075649D01*
X181928279Y-78422081D01*
X182617061Y-78824605D01*
X183394321Y-79277783D01*
X184250745Y-79776177D01*
X185177022Y-80314351D01*
X186163838Y-80886866D01*
X187201879Y-81488285D01*
X188281833Y-82113171D01*
X188536137Y-82260210D01*
X189610198Y-82880947D01*
X190642173Y-83476910D01*
X191622565Y-84042636D01*
X192541878Y-84572664D01*
X193390615Y-85061535D01*
X194159281Y-85503787D01*
X194838380Y-85893959D01*
X195418415Y-86226591D01*
X195889891Y-86496221D01*
X196243311Y-86697389D01*
X196469179Y-86824634D01*
X196558000Y-86872495D01*
X196629858Y-86842388D01*
X196838197Y-86734094D01*
X197171084Y-86553375D01*
X197617193Y-86306727D01*
X198165196Y-86000649D01*
X198803767Y-85641640D01*
X199521578Y-85236197D01*
X200307303Y-84790819D01*
X201149615Y-84312004D01*
X202037187Y-83806250D01*
X202958692Y-83280056D01*
X203902804Y-82739919D01*
X204858195Y-82192339D01*
X205813539Y-81643812D01*
X206757508Y-81100838D01*
X207678777Y-80569915D01*
X208566017Y-80057540D01*
X209407902Y-79570213D01*
X210193106Y-79114431D01*
X210910301Y-78696692D01*
X211548161Y-78323495D01*
X212095358Y-78001339D01*
X212540567Y-77736721D01*
X212872459Y-77536139D01*
X213079708Y-77406092D01*
X213150987Y-77353078D01*
X213143142Y-77346715D01*
X213025210Y-77273088D01*
X212772874Y-77122021D01*
X212395392Y-76898911D01*
X211902022Y-76609155D01*
X211302022Y-76258149D01*
X210604649Y-75851291D01*
X209819161Y-75393978D01*
X208954816Y-74891607D01*
X208020872Y-74349575D01*
X207026587Y-73773278D01*
X205981217Y-73168115D01*
X204894021Y-72539481D01*
X196638735Y-67768922D01*
X190590300Y-71265294D01*
X188386062Y-72539481D01*
X188028587Y-72746166D01*
X186954211Y-73367866D01*
X185924691Y-73964374D01*
X184949283Y-74530286D01*
X184037245Y-75060203D01*
X183197833Y-75548722D01*
X182440303Y-75990441D01*
X181773912Y-76379959D01*
X181207917Y-76711875D01*
X180751574Y-76980786D01*
X180414141Y-77181291D01*
X180204873Y-77307988D01*
X180133028Y-77355476D01*
X178992973Y-77355476D01*
X178996145Y-77324753D01*
X179021561Y-77204678D01*
X179054366Y-77130303D01*
X179095500Y-77083722D01*
X179121940Y-77065338D01*
X179281273Y-76966725D01*
X179569210Y-76794332D01*
X179973222Y-76555489D01*
X180480778Y-76257523D01*
X181079349Y-75907763D01*
X181756403Y-75513537D01*
X182499411Y-75082175D01*
X183295842Y-74621004D01*
X184133166Y-74137353D01*
X184540019Y-73902451D01*
X185352282Y-73432341D01*
X186113968Y-72990002D01*
X186813047Y-72582506D01*
X187437487Y-72216925D01*
X187975255Y-71900332D01*
X188414322Y-71639800D01*
X188742654Y-71442401D01*
X188948221Y-71315208D01*
X189018990Y-71265294D01*
X188982745Y-71238860D01*
X188815279Y-71134971D01*
X188523802Y-70960191D01*
X188121760Y-70722288D01*
X187622599Y-70429029D01*
X187039767Y-70088181D01*
X186386710Y-69707511D01*
X185676875Y-69294786D01*
X184923709Y-68857774D01*
X184140658Y-68404241D01*
X183341169Y-67941955D01*
X182538689Y-67478683D01*
X181746664Y-67022192D01*
X180978541Y-66580249D01*
X180247766Y-66160622D01*
X179567787Y-65771077D01*
X178952051Y-65419382D01*
X178414003Y-65113304D01*
X177967090Y-64860610D01*
X177624760Y-64669067D01*
X177400459Y-64546442D01*
X177307633Y-64500504D01*
X177296575Y-64503302D01*
X177167788Y-64566042D01*
X176904799Y-64706864D01*
X176517025Y-64920425D01*
X176013879Y-65201383D01*
X175404776Y-65544397D01*
X174699133Y-65944123D01*
X174376003Y-66127988D01*
X173906363Y-66395219D01*
X173035881Y-66892343D01*
X172097102Y-67430153D01*
X171099442Y-68003306D01*
X170052315Y-68606461D01*
X168965136Y-69234274D01*
X168849025Y-69301412D01*
X167541602Y-70057983D01*
X166374000Y-70734885D01*
X165339562Y-71336104D01*
X164431628Y-71865625D01*
X163643541Y-72327432D01*
X162968644Y-72725512D01*
X162400277Y-73063848D01*
X161931783Y-73346426D01*
X161556504Y-73577230D01*
X161267781Y-73760246D01*
X161058957Y-73899459D01*
X160923373Y-73998853D01*
X160854372Y-74062414D01*
X160845294Y-74094126D01*
X159585774Y-74094126D01*
X159597976Y-73949472D01*
X159623463Y-73831510D01*
X159676792Y-73793980D01*
X159867232Y-73675848D01*
X160185186Y-73484492D01*
X160619957Y-73226183D01*
X161160848Y-72907199D01*
X161797161Y-72533811D01*
X162518200Y-72112296D01*
X163313267Y-71648927D01*
X164171665Y-71149978D01*
X165082697Y-70621725D01*
X166035666Y-70070442D01*
X166776180Y-69642510D01*
X167704532Y-69105903D01*
X168585719Y-68596419D01*
X169408690Y-68120456D01*
X170162392Y-67684410D01*
X170835774Y-67294678D01*
X171417784Y-66957657D01*
X171897371Y-66679743D01*
X172263482Y-66467333D01*
X172505065Y-66326824D01*
X172611069Y-66264613D01*
X172836472Y-66127988D01*
X165396742Y-61827229D01*
X157957012Y-57526469D01*
X149700545Y-62295921D01*
X149341051Y-62503626D01*
X148266374Y-63125023D01*
X147236548Y-63721190D01*
X146260832Y-64286734D01*
X145348484Y-64816258D01*
X144508764Y-65304367D01*
X143750930Y-65745666D01*
X143084242Y-66134760D01*
X142517957Y-66466253D01*
X142061336Y-66734750D01*
X141723636Y-66934855D01*
X141514118Y-67061174D01*
X141442039Y-67108311D01*
X140302748Y-67108311D01*
X140303192Y-67103514D01*
X140324512Y-66984085D01*
X140351283Y-66908504D01*
X140384129Y-66861949D01*
X140423673Y-66829598D01*
X140481724Y-66793910D01*
X140680272Y-66676427D01*
X141008045Y-66484426D01*
X141455064Y-66223698D01*
X142011354Y-65900034D01*
X142666935Y-65519225D01*
X143411830Y-65087063D01*
X144236062Y-64609337D01*
X145129653Y-64091840D01*
X146082626Y-63540363D01*
X147085002Y-62960696D01*
X148126804Y-62358631D01*
X155660928Y-58006040D01*
X155662464Y-57340815D01*
X155661221Y-57147426D01*
X155646921Y-56876174D01*
X155613798Y-56740782D01*
X155558166Y-56719279D01*
X155549934Y-56723449D01*
X155428521Y-56791411D01*
X155172414Y-56937423D01*
X154791062Y-57156037D01*
X154293915Y-57441804D01*
X153690420Y-57789274D01*
X152990029Y-58193000D01*
X152202190Y-58647531D01*
X151336352Y-59147421D01*
X150401964Y-59687219D01*
X149408477Y-60261477D01*
X148365339Y-60864747D01*
X147282000Y-61491579D01*
X139111666Y-66220191D01*
X139089771Y-70812616D01*
X139087805Y-71301107D01*
X139086195Y-72137050D01*
X138291703Y-72137050D01*
X138291113Y-71861059D01*
X138286900Y-70828817D01*
X138265000Y-66233914D01*
X130016578Y-61463810D01*
X129662199Y-61258886D01*
X128587634Y-60637693D01*
X127557440Y-60042429D01*
X126580908Y-59478448D01*
X125667327Y-58951103D01*
X124825987Y-58465748D01*
X124066178Y-58027737D01*
X123397188Y-57642424D01*
X122828309Y-57315163D01*
X122368829Y-57051306D01*
X122028038Y-56856209D01*
X121815226Y-56735224D01*
X121739682Y-56693707D01*
X121736849Y-56718282D01*
X121732452Y-56885907D01*
X121729133Y-57199071D01*
X121726915Y-57642358D01*
X121725819Y-58200354D01*
X120950666Y-58200354D01*
X120950666Y-57655384D01*
X120954013Y-57202030D01*
X120964913Y-56735863D01*
X120982010Y-56345323D01*
X121003895Y-56061642D01*
X121011750Y-56016373D01*
X122142104Y-56016373D01*
X122148213Y-56021594D01*
X122260745Y-56092277D01*
X122507996Y-56240542D01*
X122880687Y-56460979D01*
X123369537Y-56748179D01*
X123965265Y-57096731D01*
X124658591Y-57501226D01*
X125440234Y-57956254D01*
X126300914Y-58456404D01*
X127231351Y-58996268D01*
X128222263Y-59570435D01*
X129264371Y-60173496D01*
X130348393Y-60800040D01*
X130655400Y-60977344D01*
X131731141Y-61598089D01*
X132764088Y-62193347D01*
X133744809Y-62757720D01*
X134663873Y-63285815D01*
X135511847Y-63772236D01*
X136279298Y-64211587D01*
X136956794Y-64598473D01*
X137534903Y-64927499D01*
X138004193Y-65193269D01*
X138355231Y-65390388D01*
X138578585Y-65513461D01*
X138664823Y-65557093D01*
X138724473Y-65532129D01*
X138921129Y-65429238D01*
X139242937Y-65252840D01*
X139678561Y-65009507D01*
X140216665Y-64705809D01*
X140845913Y-64348318D01*
X141554969Y-63943606D01*
X142332497Y-63498243D01*
X143167161Y-63018801D01*
X144047625Y-62511852D01*
X144962554Y-61983966D01*
X145900610Y-61441716D01*
X146850458Y-60891672D01*
X147800762Y-60340406D01*
X148740185Y-59794489D01*
X149657393Y-59260493D01*
X150541049Y-58744989D01*
X151379817Y-58254548D01*
X152162360Y-57795742D01*
X152877344Y-57375142D01*
X153513431Y-56999320D01*
X154059287Y-56674846D01*
X154503574Y-56408293D01*
X154834957Y-56206231D01*
X155042100Y-56075232D01*
X155113666Y-56021868D01*
X155059524Y-55981347D01*
X154869628Y-55861529D01*
X154554021Y-55669676D01*
X154124025Y-55412350D01*
X153590958Y-55096113D01*
X152966140Y-54727528D01*
X152260891Y-54313157D01*
X151486531Y-53859563D01*
X150654380Y-53373307D01*
X149775758Y-52860952D01*
X148861983Y-52329060D01*
X147924377Y-51784193D01*
X146974258Y-51232915D01*
X146022947Y-50681786D01*
X145081763Y-50137370D01*
X144162027Y-49606228D01*
X143275057Y-49094924D01*
X142432174Y-48610019D01*
X141644698Y-48158076D01*
X140923948Y-47745656D01*
X140281243Y-47379323D01*
X139727905Y-47065638D01*
X139275252Y-46811164D01*
X138934605Y-46622463D01*
X138717283Y-46506098D01*
X138634606Y-46468630D01*
X138568384Y-46503568D01*
X138365242Y-46617424D01*
X138037666Y-46803640D01*
X137596953Y-47055677D01*
X137054399Y-47366994D01*
X136421301Y-47731051D01*
X135708956Y-48141309D01*
X134928660Y-48591229D01*
X134091711Y-49074269D01*
X133209405Y-49583891D01*
X132293038Y-50113554D01*
X131353909Y-50656718D01*
X130403312Y-51206845D01*
X129452546Y-51757393D01*
X128512906Y-52301823D01*
X127595690Y-52833595D01*
X126712194Y-53346170D01*
X125873715Y-53833007D01*
X125091549Y-54287567D01*
X124376995Y-54703310D01*
X123741347Y-55073695D01*
X123195903Y-55392184D01*
X122751961Y-55652236D01*
X122420815Y-55847311D01*
X122213764Y-55970870D01*
X122142104Y-56016373D01*
X121011750Y-56016373D01*
X121029159Y-55916052D01*
X121070628Y-55870210D01*
X121203768Y-55769310D01*
X121432536Y-55615998D01*
X121762110Y-55407184D01*
X122197669Y-55139776D01*
X122744390Y-54810683D01*
X123407454Y-54416815D01*
X124192039Y-53955079D01*
X125103323Y-53422384D01*
X126146485Y-52815640D01*
X127326704Y-52131755D01*
X128649159Y-51367638D01*
X136190666Y-47015236D01*
X136190666Y-44099108D01*
X136190666Y-41182980D01*
X135876154Y-41368547D01*
X135872682Y-41370591D01*
X135747875Y-41443247D01*
X135487082Y-41594501D01*
X135100206Y-41818623D01*
X134597152Y-42109883D01*
X133987824Y-42462549D01*
X133282126Y-42870892D01*
X132489964Y-43329181D01*
X131621240Y-43831686D01*
X130685859Y-44372675D01*
X129693726Y-44946419D01*
X128654745Y-45547187D01*
X127578821Y-46169249D01*
X119596000Y-50784384D01*
X119596000Y-55390045D01*
X118898328Y-55390045D01*
X118898219Y-55367038D01*
X118876333Y-50753992D01*
X110621333Y-45980311D01*
X102366333Y-41206630D01*
X102344423Y-45749025D01*
X102342624Y-46182967D01*
X102340869Y-47021245D01*
X101566744Y-47021245D01*
X101564554Y-46421229D01*
X101563296Y-45502305D01*
X101562040Y-40522978D01*
X102748889Y-40522978D01*
X102753649Y-40527240D01*
X102861401Y-40595295D01*
X103104125Y-40741154D01*
X103472518Y-40959388D01*
X103957275Y-41244565D01*
X104549090Y-41591257D01*
X105238658Y-41994032D01*
X106016675Y-42447461D01*
X106873836Y-42946114D01*
X107800837Y-43484560D01*
X108788371Y-44057369D01*
X109827135Y-44659112D01*
X110907823Y-45284357D01*
X111173039Y-45437695D01*
X112247245Y-46058512D01*
X113279116Y-46654474D01*
X114259176Y-47220128D01*
X115177953Y-47750023D01*
X116025971Y-48238706D01*
X116793756Y-48680726D01*
X117471834Y-49070629D01*
X118050731Y-49402964D01*
X118520971Y-49672280D01*
X118873081Y-49873122D01*
X119097587Y-50000041D01*
X119185014Y-50047582D01*
X119255592Y-50017591D01*
X119462663Y-49909381D01*
X119794366Y-49728683D01*
X120239373Y-49482002D01*
X120786355Y-49175842D01*
X121423984Y-48816708D01*
X122140931Y-48411105D01*
X122925870Y-47965536D01*
X123767471Y-47486507D01*
X124654406Y-46980522D01*
X125575346Y-46454086D01*
X126518965Y-45913702D01*
X127473933Y-45365876D01*
X128428922Y-44817112D01*
X129372604Y-44273915D01*
X130293651Y-43742789D01*
X131180735Y-43230239D01*
X132022527Y-42742769D01*
X132807698Y-42286883D01*
X133524922Y-41869087D01*
X134162869Y-41495884D01*
X134710212Y-41173780D01*
X135155622Y-40909278D01*
X135487770Y-40708884D01*
X135695330Y-40579102D01*
X135766972Y-40526436D01*
X135759281Y-40519994D01*
X135641814Y-40446077D01*
X135389928Y-40294709D01*
X135012880Y-40071292D01*
X134519928Y-39781231D01*
X133920329Y-39429927D01*
X133223340Y-39022784D01*
X132438218Y-38565205D01*
X131574221Y-38062593D01*
X130640605Y-37520351D01*
X129646628Y-36943882D01*
X128601547Y-36338589D01*
X127514619Y-35709875D01*
X119262629Y-30939711D01*
X111006537Y-35709875D01*
X110646974Y-35917661D01*
X109572363Y-36539144D01*
X108542608Y-37135395D01*
X107566969Y-37701017D01*
X106654701Y-38230614D01*
X105815063Y-38718790D01*
X105057313Y-39160150D01*
X104390709Y-39549297D01*
X103824507Y-39880835D01*
X103367967Y-40149368D01*
X103030345Y-40349500D01*
X102820900Y-40475835D01*
X102748889Y-40522978D01*
X101562040Y-40522978D01*
X101562000Y-40364570D01*
X101794833Y-40203259D01*
X101932336Y-40115300D01*
X102207505Y-39948407D01*
X102602669Y-39713551D01*
X103106721Y-39417098D01*
X103708554Y-39065411D01*
X104397060Y-38664856D01*
X105161133Y-38221798D01*
X105989666Y-37742600D01*
X106871551Y-37233628D01*
X107795681Y-36701246D01*
X108750950Y-36151820D01*
X109726250Y-35591713D01*
X110710473Y-35027291D01*
X111692514Y-34464918D01*
X112661264Y-33910959D01*
X113605618Y-33371779D01*
X114514466Y-32853742D01*
X115376703Y-32363214D01*
X116181222Y-31906558D01*
X116916915Y-31490139D01*
X117572675Y-31120323D01*
X118137395Y-30803474D01*
X118599969Y-30545956D01*
X118949288Y-30354135D01*
X119174246Y-30234374D01*
X119263735Y-30193040D01*
X119273930Y-30195977D01*
X119401578Y-30258702D01*
X119661723Y-30398270D01*
X120043267Y-30608315D01*
X120535114Y-30882474D01*
X121126170Y-31214383D01*
X121805338Y-31597678D01*
X122561521Y-32025994D01*
X123383625Y-32492968D01*
X124260553Y-32992234D01*
X125181209Y-33517429D01*
X126134498Y-34062189D01*
X127109323Y-34620150D01*
X128094588Y-35184947D01*
X129079199Y-35750216D01*
X130052058Y-36309593D01*
X131002070Y-36856715D01*
X131918139Y-37385215D01*
X132789169Y-37888732D01*
X133604064Y-38360900D01*
X134351729Y-38795355D01*
X135021067Y-39185733D01*
X135600982Y-39525670D01*
X136080379Y-39808801D01*
X136448162Y-40028763D01*
X136693234Y-40179192D01*
X136804500Y-40253723D01*
X136826224Y-40274903D01*
X136861028Y-40330793D01*
X136888834Y-40422001D01*
X136904567Y-40526436D01*
G37*
G36*
X198790997Y-72889751D02*
G01*
X198819369Y-72891596D01*
X199564284Y-72986059D01*
X200321673Y-73162576D01*
X201065575Y-73408632D01*
X201770031Y-73711712D01*
X202409083Y-74059301D01*
X202956771Y-74438884D01*
X203387134Y-74837945D01*
X203674215Y-75243970D01*
X203800157Y-75603178D01*
X203845793Y-76054913D01*
X203789191Y-76493260D01*
X203631975Y-76856220D01*
X203553533Y-76961869D01*
X203163087Y-77332113D01*
X202646328Y-77649110D01*
X202033538Y-77902136D01*
X201355002Y-78080467D01*
X200641001Y-78173378D01*
X199921819Y-78170144D01*
X199682409Y-78148791D01*
X199163041Y-78076586D01*
X198662662Y-77962916D01*
X198140717Y-77795568D01*
X197556649Y-77562327D01*
X196869903Y-77250979D01*
X196416613Y-77043631D01*
X195757951Y-76774930D01*
X195190767Y-76594225D01*
X194686374Y-76494721D01*
X194216087Y-76469620D01*
X193751218Y-76512128D01*
X193318243Y-76610373D01*
X192853211Y-76782598D01*
X192442212Y-77002015D01*
X192113571Y-77250345D01*
X191895614Y-77509307D01*
X191816666Y-77760619D01*
X191884974Y-78042638D01*
X192098295Y-78366857D01*
X192434624Y-78699516D01*
X192871500Y-79028350D01*
X193386459Y-79341093D01*
X193957040Y-79625480D01*
X194560780Y-79869243D01*
X195175217Y-80060117D01*
X195777889Y-80185836D01*
X196346333Y-80234134D01*
X196391067Y-80234805D01*
X196806340Y-80261699D01*
X197169428Y-80319839D01*
X197441322Y-80400941D01*
X197583012Y-80496723D01*
X197658402Y-80716995D01*
X197602432Y-80964632D01*
X197409479Y-81178274D01*
X197096264Y-81329318D01*
X197076014Y-81335179D01*
X196665839Y-81397445D01*
X196135319Y-81398265D01*
X195517635Y-81342837D01*
X194845965Y-81236355D01*
X194153489Y-81084017D01*
X193473387Y-80891019D01*
X192838838Y-80662557D01*
X192151171Y-80347749D01*
X191435964Y-79915272D01*
X190828018Y-79411389D01*
X190548571Y-79110592D01*
X190220520Y-78611583D01*
X190058978Y-78117346D01*
X190062252Y-77634671D01*
X190228650Y-77170345D01*
X190556480Y-76731156D01*
X191044050Y-76323891D01*
X191689666Y-75955338D01*
X191942868Y-75838507D01*
X192516001Y-75617318D01*
X193077223Y-75474580D01*
X193685301Y-75397684D01*
X194399000Y-75374019D01*
X194487325Y-75374180D01*
X195080849Y-75395395D01*
X195625752Y-75458935D01*
X196160177Y-75574757D01*
X196722265Y-75752819D01*
X197350159Y-76003077D01*
X198082000Y-76335489D01*
X198269926Y-76423438D01*
X198933576Y-76713729D01*
X199486774Y-76916563D01*
X199952933Y-77038423D01*
X200355468Y-77085790D01*
X200717794Y-77065145D01*
X200968423Y-77011469D01*
X201388954Y-76855785D01*
X201753495Y-76644037D01*
X202005382Y-76405265D01*
X202086574Y-76281522D01*
X202125044Y-76122167D01*
X202063945Y-75919346D01*
X201999641Y-75791584D01*
X201718923Y-75448056D01*
X201297274Y-75113102D01*
X200755306Y-74797714D01*
X200113628Y-74512888D01*
X199392851Y-74269617D01*
X198613586Y-74078894D01*
X198551983Y-74066435D01*
X198143493Y-73978476D01*
X197796263Y-73894870D01*
X197545356Y-73824547D01*
X197425833Y-73776434D01*
X197375406Y-73714372D01*
X197324434Y-73508704D01*
X197351311Y-73271606D01*
X197452920Y-73082881D01*
X197517514Y-73026274D01*
X197695768Y-72933072D01*
X197946445Y-72882280D01*
X198301028Y-72869354D01*
X198790997Y-72889751D01*
G37*
G36*
X182381950Y-72187707D02*
G01*
X182160416Y-72478103D01*
X181636074Y-73151544D01*
X181004007Y-73952305D01*
X180264507Y-74880004D01*
X179936228Y-75289558D01*
X179402511Y-75952594D01*
X178903077Y-76569595D01*
X178448085Y-77128204D01*
X178047694Y-77616064D01*
X177712065Y-78020818D01*
X177451356Y-78330111D01*
X177275728Y-78531584D01*
X177195340Y-78612883D01*
X177136044Y-78639181D01*
X176888090Y-78688144D01*
X176576577Y-78701455D01*
X176276561Y-78678682D01*
X176063100Y-78619394D01*
X176000338Y-78579723D01*
X175895971Y-78438724D01*
X175896679Y-78240333D01*
X176007473Y-77970374D01*
X176233367Y-77614670D01*
X176579371Y-77159045D01*
X176623617Y-77103366D01*
X176865736Y-76786690D01*
X177053259Y-76521043D01*
X177168358Y-76332869D01*
X177193205Y-76248609D01*
X177130995Y-76207985D01*
X176937715Y-76091192D01*
X176634809Y-75911944D01*
X176242784Y-75682294D01*
X175782142Y-75414296D01*
X175273391Y-75120006D01*
X173419781Y-74050710D01*
X171826466Y-74473875D01*
X171820335Y-74475502D01*
X171302008Y-74608430D01*
X170817650Y-74724108D01*
X170399546Y-74815475D01*
X170079982Y-74875472D01*
X169891241Y-74897040D01*
X169850510Y-74896302D01*
X169537191Y-74830407D01*
X169327145Y-74679870D01*
X169235656Y-74475987D01*
X169278008Y-74250057D01*
X169469484Y-74033376D01*
X169477563Y-74028148D01*
X169624791Y-73968195D01*
X169917859Y-73871647D01*
X170341318Y-73742604D01*
X170879718Y-73585164D01*
X171066631Y-73531912D01*
X175444819Y-73531912D01*
X175461913Y-73590750D01*
X175583396Y-73695857D01*
X175820759Y-73855142D01*
X176185490Y-74076511D01*
X176689082Y-74367873D01*
X176690184Y-74368502D01*
X177125742Y-74615181D01*
X177510665Y-74829912D01*
X177820926Y-74999558D01*
X178032498Y-75110980D01*
X178121354Y-75151040D01*
X178142587Y-75135303D01*
X178256465Y-75013685D01*
X178452041Y-74787510D01*
X178713486Y-74475550D01*
X179024971Y-74096580D01*
X179370666Y-73669373D01*
X179552114Y-73442150D01*
X179867686Y-73039791D01*
X180130892Y-72694702D01*
X180328039Y-72425348D01*
X180445433Y-72250194D01*
X180469383Y-72187707D01*
X180368427Y-72207884D01*
X180127844Y-72266196D01*
X179773288Y-72355998D01*
X179329760Y-72470635D01*
X178822260Y-72603450D01*
X178275791Y-72747786D01*
X177715353Y-72896988D01*
X177165947Y-73044398D01*
X176652576Y-73183360D01*
X176200238Y-73307217D01*
X175833937Y-73409313D01*
X175578674Y-73482992D01*
X175459448Y-73521596D01*
X175444819Y-73531912D01*
X171066631Y-73531912D01*
X171517612Y-73403426D01*
X172239550Y-73201491D01*
X173030084Y-72983457D01*
X173873765Y-72753424D01*
X174755143Y-72515491D01*
X175658771Y-72273758D01*
X176569200Y-72032323D01*
X177470980Y-71795286D01*
X178348663Y-71566747D01*
X179186800Y-71350805D01*
X179969943Y-71151558D01*
X180682642Y-70973107D01*
X181309449Y-70819550D01*
X181834915Y-70694988D01*
X182243591Y-70603519D01*
X182520028Y-70549243D01*
X182648778Y-70536258D01*
X182884937Y-70609855D01*
X183103950Y-70788203D01*
X183180666Y-71040634D01*
X183174733Y-71065183D01*
X183084192Y-71225522D01*
X182884766Y-71514709D01*
X182576744Y-71932364D01*
X182381950Y-72187707D01*
G37*
G36*
X162141999Y-66811373D02*
G01*
X161782572Y-66860985D01*
X161192961Y-66943242D01*
X160499268Y-67040710D01*
X159714959Y-67151500D01*
X158853502Y-67273725D01*
X157928364Y-67405496D01*
X156953013Y-67544926D01*
X156848823Y-67559847D01*
X155700919Y-67724177D01*
X154707933Y-67865642D01*
X153858124Y-67985124D01*
X153139748Y-68083501D01*
X152541065Y-68161655D01*
X152050332Y-68220464D01*
X151655807Y-68260810D01*
X151345749Y-68283570D01*
X151108414Y-68289627D01*
X150932061Y-68279859D01*
X150804948Y-68255146D01*
X150715334Y-68216369D01*
X150651475Y-68164407D01*
X150601630Y-68100140D01*
X150554057Y-68024448D01*
X150537849Y-67997153D01*
X150505517Y-67921890D01*
X150501013Y-67844268D01*
X150534265Y-67757476D01*
X150615203Y-67654700D01*
X150753753Y-67529129D01*
X150959846Y-67373951D01*
X151243409Y-67182354D01*
X151614372Y-66947527D01*
X151838192Y-66811373D01*
X154224666Y-66811373D01*
X154267000Y-66853707D01*
X154309333Y-66811373D01*
X154267000Y-66769040D01*
X154224666Y-66811373D01*
X151838192Y-66811373D01*
X152082663Y-66662656D01*
X152658210Y-66320930D01*
X153350942Y-65915538D01*
X154170788Y-65439666D01*
X155127677Y-64886504D01*
X155156174Y-64870047D01*
X155956349Y-64408147D01*
X156716034Y-63969973D01*
X157421965Y-63563152D01*
X158060878Y-63195312D01*
X158619508Y-62874080D01*
X159084593Y-62607084D01*
X159442869Y-62401950D01*
X159681070Y-62266307D01*
X159785934Y-62207782D01*
X160013073Y-62138291D01*
X160337611Y-62116174D01*
X160657428Y-62152322D01*
X160894494Y-62244174D01*
X160944993Y-62284641D01*
X161067354Y-62492735D01*
X161043286Y-62726816D01*
X160874113Y-62941464D01*
X160829536Y-62972217D01*
X160641851Y-63089593D01*
X160332480Y-63276482D01*
X159917840Y-63523184D01*
X159414346Y-63820003D01*
X158838414Y-64157240D01*
X158206461Y-64525196D01*
X157534901Y-64914175D01*
X157136492Y-65144753D01*
X156503229Y-65513020D01*
X155927708Y-65849891D01*
X155424778Y-66146546D01*
X155009291Y-66394164D01*
X154696099Y-66583926D01*
X154500053Y-66707011D01*
X154436003Y-66754599D01*
X154466491Y-66753947D01*
X154643844Y-66735474D01*
X154967310Y-66696535D01*
X155423171Y-66638929D01*
X155997713Y-66564457D01*
X156677219Y-66474917D01*
X157447971Y-66372111D01*
X158296256Y-66257837D01*
X159208355Y-66133896D01*
X160170553Y-66002088D01*
X160243632Y-65992044D01*
X161316622Y-65845950D01*
X162309643Y-65713331D01*
X163211741Y-65595532D01*
X164011965Y-65493893D01*
X164699360Y-65409758D01*
X165262974Y-65344470D01*
X165691853Y-65299370D01*
X165975046Y-65275801D01*
X166101599Y-65275106D01*
X166291329Y-65369446D01*
X166470842Y-65547564D01*
X166553232Y-65689978D01*
X166555734Y-65812253D01*
X166450746Y-65970373D01*
X166392091Y-66016632D01*
X166196986Y-66145237D01*
X165881987Y-66342476D01*
X165462378Y-66599352D01*
X164953441Y-66906870D01*
X164370461Y-67256034D01*
X163728722Y-67637848D01*
X163043508Y-68043317D01*
X162330102Y-68463444D01*
X161603787Y-68889236D01*
X160879849Y-69311694D01*
X160173570Y-69721825D01*
X159500234Y-70110632D01*
X158875125Y-70469120D01*
X158313528Y-70788293D01*
X157830725Y-71059155D01*
X157442000Y-71272710D01*
X157127647Y-71423353D01*
X156875588Y-71488412D01*
X156616546Y-71485444D01*
X156538293Y-71474937D01*
X156291414Y-71416505D01*
X156129713Y-71341078D01*
X156096221Y-71306545D01*
X156015546Y-71105129D01*
X156018382Y-70865757D01*
X156107677Y-70677230D01*
X156169510Y-70634262D01*
X156367552Y-70511204D01*
X156685178Y-70319861D01*
X157107156Y-70069227D01*
X157618250Y-69768302D01*
X158203228Y-69426081D01*
X158846856Y-69051562D01*
X159533899Y-68653741D01*
X160097257Y-68327947D01*
X160740427Y-67955024D01*
X161323812Y-67615704D01*
X161832918Y-67318473D01*
X162253254Y-67071815D01*
X162570328Y-66884213D01*
X162769648Y-66764152D01*
X162836722Y-66720116D01*
X162792235Y-66724354D01*
X162595676Y-66749653D01*
X162254633Y-66795826D01*
X162141999Y-66811373D01*
G37*
G36*
X147601753Y-54957151D02*
G01*
X147602942Y-54976747D01*
X147472500Y-55189811D01*
X147387431Y-55245401D01*
X147169535Y-55377868D01*
X146835384Y-55577219D01*
X146400590Y-55834363D01*
X145880769Y-56140209D01*
X145291535Y-56485667D01*
X144648503Y-56861646D01*
X143967286Y-57259056D01*
X143263501Y-57668807D01*
X142552761Y-58081807D01*
X141850681Y-58488967D01*
X141172875Y-58881196D01*
X140534958Y-59249404D01*
X139952545Y-59584499D01*
X139441249Y-59877392D01*
X139016686Y-60118992D01*
X138694470Y-60300209D01*
X138693543Y-60300725D01*
X138427242Y-60442760D01*
X138195060Y-60541474D01*
X137974533Y-60591473D01*
X137743196Y-60587363D01*
X137478586Y-60523753D01*
X137158240Y-60395248D01*
X136759692Y-60196456D01*
X136260480Y-59921983D01*
X135638139Y-59566437D01*
X135328178Y-59386469D01*
X134831129Y-59091170D01*
X134383108Y-58816936D01*
X134008769Y-58579232D01*
X133732765Y-58393522D01*
X133579747Y-58275270D01*
X133345506Y-58014646D01*
X133077018Y-57533944D01*
X132962837Y-57009319D01*
X132972286Y-56873118D01*
X134668472Y-56873118D01*
X134792389Y-57283903D01*
X134827164Y-57347621D01*
X134900233Y-57454710D01*
X135002622Y-57562110D01*
X135153991Y-57683693D01*
X135374002Y-57833334D01*
X135682317Y-58024904D01*
X136098596Y-58272276D01*
X136642501Y-58589323D01*
X136976077Y-58781483D01*
X137352315Y-58994371D01*
X137657510Y-59162661D01*
X137866678Y-59272626D01*
X137954834Y-59310533D01*
X137977866Y-59299758D01*
X138126298Y-59218506D01*
X138397865Y-59065127D01*
X138777033Y-58848539D01*
X139248265Y-58577661D01*
X139796028Y-58261411D01*
X140404784Y-57908708D01*
X141059000Y-57528472D01*
X141270796Y-57405196D01*
X141952180Y-57008732D01*
X142607984Y-56627341D01*
X143218084Y-56272716D01*
X143762356Y-55956549D01*
X144220676Y-55690529D01*
X144572919Y-55486349D01*
X144798962Y-55355700D01*
X145490924Y-54957151D01*
X144206295Y-54219983D01*
X143884979Y-54038025D01*
X143447040Y-53797504D01*
X143054723Y-53590301D01*
X142741456Y-53433954D01*
X142540666Y-53346004D01*
X142431295Y-53311471D01*
X142008722Y-53226827D01*
X141486030Y-53173291D01*
X140913442Y-53153148D01*
X140341183Y-53168684D01*
X139819476Y-53222184D01*
X139779969Y-53228306D01*
X138939377Y-53401262D01*
X138138188Y-53644093D01*
X137389080Y-53946556D01*
X136704731Y-54298409D01*
X136097816Y-54689409D01*
X135581014Y-55109313D01*
X135167002Y-55547879D01*
X134868456Y-55994863D01*
X134698054Y-56440024D01*
X134668472Y-56873118D01*
X132972286Y-56873118D01*
X133001410Y-56453333D01*
X133191188Y-55878551D01*
X133530620Y-55297535D01*
X134018155Y-54722850D01*
X134316552Y-54440882D01*
X135115137Y-53828205D01*
X136028835Y-53290788D01*
X137030229Y-52835909D01*
X138091906Y-52470843D01*
X139186450Y-52202866D01*
X140286447Y-52039255D01*
X141364481Y-51987287D01*
X142393137Y-52054237D01*
X143345000Y-52247382D01*
X143347488Y-52248104D01*
X143532406Y-52323194D01*
X143835416Y-52469675D01*
X144229706Y-52672606D01*
X144688461Y-52917051D01*
X145184867Y-53188070D01*
X145692113Y-53470726D01*
X146183383Y-53750080D01*
X146631865Y-54011194D01*
X147010745Y-54239129D01*
X147293210Y-54418949D01*
X147452446Y-54535713D01*
X147588213Y-54734058D01*
X147601753Y-54957151D01*
G37*
G36*
X121656568Y-35624791D02*
G01*
X121942014Y-35741459D01*
X122091870Y-35944712D01*
X122086131Y-36041984D01*
X122015915Y-36296255D01*
X121877836Y-36688477D01*
X121674860Y-37210354D01*
X121409948Y-37853591D01*
X121304685Y-38105223D01*
X121106533Y-38587001D01*
X120939603Y-39003746D01*
X120812732Y-39332791D01*
X120734760Y-39551471D01*
X120714523Y-39637118D01*
X120786016Y-39635942D01*
X121007979Y-39613585D01*
X121361239Y-39571295D01*
X121826564Y-39511549D01*
X122384725Y-39436821D01*
X123016492Y-39349590D01*
X123702634Y-39252330D01*
X124269997Y-39171821D01*
X124942284Y-39078841D01*
X125556965Y-38996438D01*
X126092055Y-38927435D01*
X126525572Y-38874652D01*
X126835531Y-38840913D01*
X126999950Y-38829040D01*
X127168757Y-38839033D01*
X127472358Y-38926560D01*
X127659895Y-39090877D01*
X127707667Y-39315687D01*
X127695755Y-39395356D01*
X127665738Y-39495611D01*
X127607842Y-39583095D01*
X127508080Y-39661389D01*
X127352463Y-39734075D01*
X127127003Y-39804733D01*
X126817712Y-39876944D01*
X126410602Y-39954289D01*
X125891686Y-40040348D01*
X125246975Y-40138702D01*
X124462481Y-40252933D01*
X123524216Y-40386622D01*
X119807666Y-40913631D01*
X117736256Y-42115002D01*
X117577281Y-42207145D01*
X116994831Y-42542952D01*
X116534309Y-42803859D01*
X116176574Y-42999150D01*
X115902484Y-43138112D01*
X115692898Y-43230029D01*
X115528676Y-43284188D01*
X115390676Y-43309875D01*
X115259756Y-43316373D01*
X115242739Y-43316272D01*
X114899864Y-43263196D01*
X114657997Y-43129807D01*
X114533942Y-42941000D01*
X114544508Y-42721676D01*
X114706500Y-42496733D01*
X114798653Y-42429709D01*
X115027161Y-42282898D01*
X115362619Y-42077006D01*
X115782868Y-41825418D01*
X116265751Y-41541521D01*
X116789109Y-41238698D01*
X117228800Y-40983254D01*
X117710193Y-40696124D01*
X118128173Y-40438718D01*
X118461669Y-40224313D01*
X118689611Y-40066181D01*
X118790926Y-39977597D01*
X118833299Y-39895007D01*
X118938249Y-39666608D01*
X119090021Y-39323204D01*
X119278398Y-38888230D01*
X119493161Y-38385124D01*
X119724092Y-37837321D01*
X119964067Y-37267570D01*
X120192308Y-36740726D01*
X120379429Y-36338914D01*
X120537589Y-36045069D01*
X120678945Y-35842128D01*
X120815654Y-35713027D01*
X120959876Y-35640702D01*
X121123767Y-35608088D01*
X121319485Y-35598123D01*
X121656568Y-35624791D01*
G37*
%TD*%
M02*
