%TF.GenerationSoftware,KiCad,Pcbnew,7.0.1-0*%
%TF.CreationDate,2023-04-14T18:53:15+09:00*%
%TF.ProjectId,Sandy_Plate_Bottom,53616e64-795f-4506-9c61-74655f426f74,v.1 (042)*%
%TF.SameCoordinates,Original*%
%TF.FileFunction,Legend,Bot*%
%TF.FilePolarity,Positive*%
%FSLAX46Y46*%
G04 Gerber Fmt 4.6, Leading zero omitted, Abs format (unit mm)*
G04 Created by KiCad (PCBNEW 7.0.1-0) date 2023-04-14 18:53:15*
%MOMM*%
%LPD*%
G01*
G04 APERTURE LIST*
%ADD10C,0.150000*%
%ADD11C,0.120000*%
%ADD12C,0.200000*%
G04 APERTURE END LIST*
D10*
X157925000Y-146500000D02*
X157925000Y-144850000D01*
X157925000Y-144250000D02*
X157925000Y-142600000D01*
X157925000Y-142000000D02*
X157925000Y-140350000D01*
X157925000Y-139750000D02*
X157925000Y-138100000D01*
X157925000Y-137500000D02*
X157925000Y-135850000D01*
X157925000Y-135250000D02*
X157925000Y-133600000D01*
X157925000Y-133000000D02*
X157925000Y-131350000D01*
X157925000Y-130750000D02*
X157925000Y-129100000D01*
X157925000Y-128500000D02*
X157925000Y-126850000D01*
X157925000Y-126250000D02*
X157925000Y-124600000D01*
X157925000Y-124000000D02*
X157925000Y-122350000D01*
X157925000Y-121750000D02*
X157925000Y-120100000D01*
X157925000Y-119500000D02*
X157925000Y-117850000D01*
X157925000Y-117250000D02*
X157925000Y-115600000D01*
X157925000Y-115000000D02*
X157925000Y-113350000D01*
X157925000Y-112750000D02*
X157925000Y-111100000D01*
X157925000Y-110500000D02*
X157925000Y-108850000D01*
X157925000Y-108250000D02*
X157925000Y-106600000D01*
X157925000Y-106000000D02*
X157925000Y-104350000D01*
X157925000Y-103750000D02*
X157925000Y-102100000D01*
X157925000Y-101500000D02*
X157925000Y-99850000D01*
X157925000Y-99250000D02*
X157925000Y-97600000D01*
X157925000Y-97000000D02*
X157925000Y-95350000D01*
X157925000Y-94750000D02*
X157925000Y-93100000D01*
X157925000Y-92500000D02*
X157925000Y-90850000D01*
X157925000Y-90250000D02*
X157925000Y-88600000D01*
X157925000Y-88000000D02*
X157925000Y-86350000D01*
X157925000Y-85750000D02*
X157925000Y-84100000D01*
X157925000Y-83500000D02*
X157925000Y-81850000D01*
X157925000Y-81250000D02*
X157925000Y-79600000D01*
X157925000Y-79000000D02*
X157925000Y-77350000D01*
X157925000Y-76750000D02*
X157925000Y-75100000D01*
X157925000Y-74500000D02*
X157925000Y-72850000D01*
X157925000Y-72250000D02*
X157925000Y-70600000D01*
X157925000Y-70000000D02*
X157925000Y-68350000D01*
X157925000Y-67750000D02*
X157925000Y-66100000D01*
X157925000Y-65500000D02*
X157925000Y-63850000D01*
X157925000Y-63250000D02*
X157925000Y-61600000D01*
X157925000Y-61000000D02*
X157925000Y-59350000D01*
X157925000Y-58750000D02*
X157925000Y-57100000D01*
X157925000Y-56500000D02*
X157925000Y-54850000D01*
X157925000Y-54250000D02*
X157925000Y-52600000D01*
X157925000Y-52000000D02*
X157925000Y-50350000D01*
X157925000Y-49750000D02*
X157925000Y-48100000D01*
X157925000Y-47500000D02*
X157925000Y-45850000D01*
X157925000Y-45250000D02*
X157925000Y-43600000D01*
X157925000Y-43000000D02*
X157925000Y-41350000D01*
X157925000Y-40750000D02*
X157925000Y-39100000D01*
X157925000Y-38500000D02*
X157925000Y-36850000D01*
X157925000Y-36250000D02*
X157925000Y-34600000D01*
X157925000Y-34000000D02*
X157925000Y-32350000D01*
X157925000Y-31750000D02*
X157925000Y-30100000D01*
X157925000Y-29500000D02*
X157925000Y-27850000D01*
X157925000Y-27250000D02*
X157925000Y-25600000D01*
X157925000Y-25000000D02*
X157925000Y-23350000D01*
X157925000Y-22750000D02*
X157925000Y-21100000D01*
X157925000Y-20500000D02*
X157925000Y-18850000D01*
X157925000Y-18250000D02*
X157925000Y-16600000D01*
X157925000Y-16000000D02*
X157925000Y-14350000D01*
X157925000Y-13750000D02*
X157925000Y-12100000D01*
X157925000Y-11500000D02*
X157925000Y-9850000D01*
X157925000Y-9250000D02*
X157925000Y-7600000D01*
X157925000Y-7000000D02*
X157925000Y-5350000D01*
X157925000Y-4750000D02*
X157925000Y-4000000D01*
X15575000Y-21875000D02*
X307575000Y-21875000D01*
X295650000Y-114300000D02*
X295650000Y-13500000D01*
X20200000Y-115200000D02*
X20200000Y-14400000D01*
D11*
X299650000Y-21875000D02*
G75*
G03*
X299650000Y-21875000I-4000000J0D01*
G01*
D12*
X59525000Y-27350000D02*
X59525000Y-27350000D01*
X59491335Y-28149054D02*
X59491335Y-28149054D01*
X59390581Y-28942446D02*
X59390581Y-28942446D01*
X59223451Y-29724552D02*
X59223451Y-29724552D01*
X58991129Y-30489828D02*
X58991129Y-30489828D01*
X58695262Y-31232853D02*
X58695262Y-31232853D01*
X58337947Y-31948358D02*
X58337947Y-31948358D01*
X57921717Y-32631274D02*
X57921717Y-32631274D01*
X57449520Y-33276760D02*
X57449520Y-33276760D01*
X56924705Y-33880242D02*
X56924705Y-33880242D01*
X56350989Y-34437443D02*
X56350989Y-34437443D01*
X55732440Y-34944413D02*
X55732440Y-34944413D01*
X55073441Y-35397560D02*
X55073441Y-35397560D01*
X54378663Y-35793672D02*
X54378663Y-35793672D01*
X53653029Y-36129943D02*
X53653029Y-36129943D01*
X52901683Y-36403987D02*
X52901683Y-36403987D01*
X52129949Y-36613864D02*
X52129949Y-36613864D01*
X51343297Y-36758086D02*
X51343297Y-36758086D01*
X50547301Y-36835631D02*
X50547301Y-36835631D01*
X49747604Y-36845949D02*
X49747604Y-36845949D01*
X48949873Y-36788967D02*
X48949873Y-36788967D01*
X48159761Y-36665089D02*
X48159761Y-36665089D01*
X47382869Y-36475193D02*
X47382869Y-36475193D01*
X46624703Y-36220624D02*
X46624703Y-36220624D01*
X45890635Y-35903188D02*
X45890635Y-35903188D01*
X45185868Y-35525133D02*
X45185868Y-35525133D01*
X44515397Y-35089139D02*
X44515397Y-35089139D01*
X43883974Y-34598296D02*
X43883974Y-34598296D01*
X43296073Y-34056083D02*
X43296073Y-34056083D01*
X42755862Y-33466342D02*
X42755862Y-33466342D01*
X42267170Y-32833254D02*
X42267170Y-32833254D01*
X41833458Y-32161304D02*
X41833458Y-32161304D01*
X41457802Y-31455256D02*
X41457802Y-31455256D01*
X41142863Y-30720112D02*
X41142863Y-30720112D01*
X40890875Y-29961084D02*
X40890875Y-29961084D01*
X40703621Y-29183551D02*
X40703621Y-29183551D01*
X40582431Y-28393023D02*
X40582431Y-28393023D01*
X40528162Y-27595103D02*
X40528162Y-27595103D01*
X40541199Y-26795445D02*
X40541199Y-26795445D01*
X40621450Y-25999718D02*
X40621450Y-25999718D01*
X40768346Y-25213561D02*
X40768346Y-25213561D01*
X40980846Y-24442545D02*
X40980846Y-24442545D01*
X41257444Y-23692135D02*
X41257444Y-23692135D01*
X41596180Y-22967648D02*
X41596180Y-22967648D01*
X41994652Y-22274221D02*
X41994652Y-22274221D01*
X42450038Y-21616767D02*
X42450038Y-21616767D01*
X42959109Y-20999945D02*
X42959109Y-20999945D01*
X43518257Y-20428128D02*
X43518257Y-20428128D01*
X44123520Y-19905368D02*
X44123520Y-19905368D01*
X44770608Y-19435369D02*
X44770608Y-19435369D01*
X45454936Y-19021463D02*
X45454936Y-19021463D01*
X46171652Y-18666584D02*
X46171652Y-18666584D01*
X46915678Y-18373245D02*
X46915678Y-18373245D01*
X47681740Y-18143527D02*
X47681740Y-18143527D01*
X48464410Y-17979057D02*
X48464410Y-17979057D01*
X49258139Y-17881001D02*
X49258139Y-17881001D01*
X50057304Y-17850054D02*
X50057304Y-17850054D01*
X50856240Y-17886436D02*
X50856240Y-17886436D01*
X51649284Y-17989887D02*
X51649284Y-17989887D01*
X52430817Y-18159676D02*
X52430817Y-18159676D01*
X53195300Y-18394599D02*
X53195300Y-18394599D01*
X53937313Y-18692991D02*
X53937313Y-18692991D01*
X54651599Y-19052737D02*
X54651599Y-19052737D01*
X55333096Y-19471287D02*
X55333096Y-19471287D01*
X55976973Y-19945675D02*
X55976973Y-19945675D01*
X56578667Y-20472540D02*
X56578667Y-20472540D01*
X57133913Y-21048147D02*
X57133913Y-21048147D01*
X57638777Y-21668416D02*
X57638777Y-21668416D01*
X58089681Y-22328952D02*
X58089681Y-22328952D01*
X58483428Y-23025074D02*
X58483428Y-23025074D01*
X58817229Y-23751847D02*
X58817229Y-23751847D01*
X59088717Y-24504121D02*
X59088717Y-24504121D01*
X59295968Y-25276564D02*
X59295968Y-25276564D01*
X59437515Y-26063702D02*
X59437515Y-26063702D01*
X59512352Y-26859957D02*
X59512352Y-26859957D01*
D10*
X10375000Y-27350000D02*
X12025000Y-27350000D01*
X12625000Y-27350000D02*
X14275000Y-27350000D01*
X14875000Y-27350000D02*
X16525000Y-27350000D01*
X17125000Y-27350000D02*
X18775000Y-27350000D01*
X19375000Y-27350000D02*
X21025000Y-27350000D01*
X21625000Y-27350000D02*
X23275000Y-27350000D01*
X23875000Y-27350000D02*
X25525000Y-27350000D01*
X26125000Y-27350000D02*
X27775000Y-27350000D01*
X28375000Y-27350000D02*
X30025000Y-27350000D01*
X30625000Y-27350000D02*
X32275000Y-27350000D01*
X32875000Y-27350000D02*
X34525000Y-27350000D01*
X35125000Y-27350000D02*
X36775000Y-27350000D01*
X37375000Y-27350000D02*
X39025000Y-27350000D01*
X39625000Y-27350000D02*
X41275000Y-27350000D01*
X41875000Y-27350000D02*
X43525000Y-27350000D01*
X44125000Y-27350000D02*
X45775000Y-27350000D01*
X46375000Y-27350000D02*
X48025000Y-27350000D01*
X48625000Y-27350000D02*
X50275000Y-27350000D01*
X50875000Y-27350000D02*
X52525000Y-27350000D01*
X53125000Y-27350000D02*
X54775000Y-27350000D01*
X55375000Y-27350000D02*
X57025000Y-27350000D01*
X57625000Y-27350000D02*
X59275000Y-27350000D01*
X59875000Y-27350000D02*
X61525000Y-27350000D01*
X62125000Y-27350000D02*
X63775000Y-27350000D01*
X64375000Y-27350000D02*
X66025000Y-27350000D01*
X66625000Y-27350000D02*
X68275000Y-27350000D01*
X68875000Y-27350000D02*
X70525000Y-27350000D01*
X71125000Y-27350000D02*
X72775000Y-27350000D01*
X73375000Y-27350000D02*
X75025000Y-27350000D01*
X75625000Y-27350000D02*
X77275000Y-27350000D01*
X77875000Y-27350000D02*
X79525000Y-27350000D01*
X80125000Y-27350000D02*
X81775000Y-27350000D01*
X82375000Y-27350000D02*
X84025000Y-27350000D01*
X84625000Y-27350000D02*
X86275000Y-27350000D01*
X86875000Y-27350000D02*
X88525000Y-27350000D01*
X89125000Y-27350000D02*
X90775000Y-27350000D01*
X91375000Y-27350000D02*
X93025000Y-27350000D01*
X93625000Y-27350000D02*
X95275000Y-27350000D01*
X95875000Y-27350000D02*
X97525000Y-27350000D01*
X98125000Y-27350000D02*
X99775000Y-27350000D01*
X100375000Y-27350000D02*
X102025000Y-27350000D01*
X102625000Y-27350000D02*
X104275000Y-27350000D01*
X104875000Y-27350000D02*
X106525000Y-27350000D01*
X107125000Y-27350000D02*
X108775000Y-27350000D01*
X109375000Y-27350000D02*
X111025000Y-27350000D01*
X111625000Y-27350000D02*
X113275000Y-27350000D01*
X113875000Y-27350000D02*
X115525000Y-27350000D01*
X116125000Y-27350000D02*
X117775000Y-27350000D01*
X118375000Y-27350000D02*
X120025000Y-27350000D01*
X120625000Y-27350000D02*
X122275000Y-27350000D01*
X122875000Y-27350000D02*
X124525000Y-27350000D01*
X125125000Y-27350000D02*
X126775000Y-27350000D01*
X127375000Y-27350000D02*
X129025000Y-27350000D01*
X129625000Y-27350000D02*
X131275000Y-27350000D01*
X131875000Y-27350000D02*
X133525000Y-27350000D01*
X134125000Y-27350000D02*
X135775000Y-27350000D01*
X136375000Y-27350000D02*
X138025000Y-27350000D01*
X138625000Y-27350000D02*
X140275000Y-27350000D01*
X140875000Y-27350000D02*
X142525000Y-27350000D01*
X143125000Y-27350000D02*
X144775000Y-27350000D01*
X145375000Y-27350000D02*
X147025000Y-27350000D01*
X147625000Y-27350000D02*
X149275000Y-27350000D01*
X149875000Y-27350000D02*
X151525000Y-27350000D01*
X152125000Y-27350000D02*
X153775000Y-27350000D01*
X154375000Y-27350000D02*
X156025000Y-27350000D01*
X156625000Y-27350000D02*
X158275000Y-27350000D01*
X158875000Y-27350000D02*
X160525000Y-27350000D01*
X161125000Y-27350000D02*
X162775000Y-27350000D01*
X163375000Y-27350000D02*
X165025000Y-27350000D01*
X165625000Y-27350000D02*
X167275000Y-27350000D01*
X167875000Y-27350000D02*
X169525000Y-27350000D01*
X170125000Y-27350000D02*
X171775000Y-27350000D01*
X172375000Y-27350000D02*
X174025000Y-27350000D01*
X174625000Y-27350000D02*
X176275000Y-27350000D01*
X176875000Y-27350000D02*
X178525000Y-27350000D01*
X179125000Y-27350000D02*
X180775000Y-27350000D01*
X181375000Y-27350000D02*
X183025000Y-27350000D01*
X183625000Y-27350000D02*
X185275000Y-27350000D01*
X185875000Y-27350000D02*
X187525000Y-27350000D01*
X188125000Y-27350000D02*
X189775000Y-27350000D01*
X190375000Y-27350000D02*
X192025000Y-27350000D01*
X192625000Y-27350000D02*
X194275000Y-27350000D01*
X194875000Y-27350000D02*
X196525000Y-27350000D01*
X197125000Y-27350000D02*
X198775000Y-27350000D01*
X199375000Y-27350000D02*
X201025000Y-27350000D01*
X201625000Y-27350000D02*
X203275000Y-27350000D01*
X203875000Y-27350000D02*
X205525000Y-27350000D01*
X206125000Y-27350000D02*
X207775000Y-27350000D01*
X208375000Y-27350000D02*
X210025000Y-27350000D01*
X210625000Y-27350000D02*
X212275000Y-27350000D01*
X212875000Y-27350000D02*
X214525000Y-27350000D01*
X215125000Y-27350000D02*
X216775000Y-27350000D01*
X217375000Y-27350000D02*
X219025000Y-27350000D01*
X219625000Y-27350000D02*
X221275000Y-27350000D01*
X221875000Y-27350000D02*
X223525000Y-27350000D01*
X224125000Y-27350000D02*
X225775000Y-27350000D01*
X226375000Y-27350000D02*
X228025000Y-27350000D01*
X228625000Y-27350000D02*
X230275000Y-27350000D01*
X230875000Y-27350000D02*
X232525000Y-27350000D01*
X233125000Y-27350000D02*
X234775000Y-27350000D01*
X235375000Y-27350000D02*
X237025000Y-27350000D01*
X237625000Y-27350000D02*
X239275000Y-27350000D01*
X239875000Y-27350000D02*
X241525000Y-27350000D01*
X242125000Y-27350000D02*
X243775000Y-27350000D01*
X244375000Y-27350000D02*
X246025000Y-27350000D01*
X246625000Y-27350000D02*
X248275000Y-27350000D01*
X248875000Y-27350000D02*
X250525000Y-27350000D01*
X251125000Y-27350000D02*
X252775000Y-27350000D01*
X253375000Y-27350000D02*
X255025000Y-27350000D01*
X255625000Y-27350000D02*
X257275000Y-27350000D01*
X257875000Y-27350000D02*
X259525000Y-27350000D01*
X260125000Y-27350000D02*
X261775000Y-27350000D01*
X262375000Y-27350000D02*
X264025000Y-27350000D01*
X264625000Y-27350000D02*
X266275000Y-27350000D01*
X266875000Y-27350000D02*
X268525000Y-27350000D01*
X269125000Y-27350000D02*
X270775000Y-27350000D01*
X271375000Y-27350000D02*
X273025000Y-27350000D01*
X273625000Y-27350000D02*
X275275000Y-27350000D01*
X275875000Y-27350000D02*
X277525000Y-27350000D01*
X278125000Y-27350000D02*
X279775000Y-27350000D01*
X280375000Y-27350000D02*
X282025000Y-27350000D01*
X282625000Y-27350000D02*
X284275000Y-27350000D01*
X284875000Y-27350000D02*
X286525000Y-27350000D01*
X287125000Y-27350000D02*
X288775000Y-27350000D01*
X289375000Y-27350000D02*
X291025000Y-27350000D01*
X291625000Y-27350000D02*
X293275000Y-27350000D01*
X293875000Y-27350000D02*
X295525000Y-27350000D01*
X296125000Y-27350000D02*
X297775000Y-27350000D01*
X298375000Y-27350000D02*
X300025000Y-27350000D01*
X300625000Y-27350000D02*
X302275000Y-27350000D01*
X302875000Y-27350000D02*
X304525000Y-27350000D01*
X305125000Y-27350000D02*
X306775000Y-27350000D01*
X25700000Y-115200000D02*
X25700000Y-113550000D01*
X25700000Y-112950000D02*
X25700000Y-111300000D01*
X25700000Y-110700000D02*
X25700000Y-109050000D01*
X25700000Y-108450000D02*
X25700000Y-106800000D01*
X25700000Y-106200000D02*
X25700000Y-104550000D01*
X25700000Y-103950000D02*
X25700000Y-102300000D01*
X25700000Y-101700000D02*
X25700000Y-100050000D01*
X25700000Y-99450000D02*
X25700000Y-97800000D01*
X25700000Y-97200000D02*
X25700000Y-95550000D01*
X25700000Y-94950000D02*
X25700000Y-93300000D01*
X25700000Y-92700000D02*
X25700000Y-91050000D01*
X25700000Y-90450000D02*
X25700000Y-88800000D01*
X25700000Y-88200000D02*
X25700000Y-86550000D01*
X25700000Y-85950000D02*
X25700000Y-84300000D01*
X25700000Y-83700000D02*
X25700000Y-82050000D01*
X25700000Y-81450000D02*
X25700000Y-79800000D01*
X25700000Y-79200000D02*
X25700000Y-77550000D01*
X25700000Y-76950000D02*
X25700000Y-75300000D01*
X25700000Y-74700000D02*
X25700000Y-73050000D01*
X25700000Y-72450000D02*
X25700000Y-70800000D01*
X25700000Y-70200000D02*
X25700000Y-68550000D01*
X25700000Y-67950000D02*
X25700000Y-66300000D01*
X25700000Y-65700000D02*
X25700000Y-64050000D01*
X25700000Y-63450000D02*
X25700000Y-61800000D01*
X25700000Y-61200000D02*
X25700000Y-59550000D01*
X25700000Y-58950000D02*
X25700000Y-57300000D01*
X25700000Y-56700000D02*
X25700000Y-55050000D01*
X25700000Y-54450000D02*
X25700000Y-52800000D01*
X25700000Y-52200000D02*
X25700000Y-50550000D01*
X25700000Y-49950000D02*
X25700000Y-48300000D01*
X25700000Y-47700000D02*
X25700000Y-46050000D01*
X25700000Y-45450000D02*
X25700000Y-43800000D01*
X25700000Y-43200000D02*
X25700000Y-41550000D01*
X25700000Y-40950000D02*
X25700000Y-39300000D01*
X25700000Y-38700000D02*
X25700000Y-37050000D01*
X25700000Y-36450000D02*
X25700000Y-34800000D01*
X25700000Y-34200000D02*
X25700000Y-32550000D01*
X25700000Y-31950000D02*
X25700000Y-30300000D01*
X25700000Y-29700000D02*
X25700000Y-28050000D01*
X25700000Y-27450000D02*
X25700000Y-25800000D01*
X25700000Y-25200000D02*
X25700000Y-23550000D01*
X25700000Y-22950000D02*
X25700000Y-21300000D01*
X25700000Y-20700000D02*
X25700000Y-19050000D01*
X25700000Y-18450000D02*
X25700000Y-16800000D01*
X25700000Y-16200000D02*
X25700000Y-14550000D01*
X290125000Y-114300000D02*
X290125000Y-112650000D01*
X290125000Y-112050000D02*
X290125000Y-110400000D01*
X290125000Y-109800000D02*
X290125000Y-108150000D01*
X290125000Y-107550000D02*
X290125000Y-105900000D01*
X290125000Y-105300000D02*
X290125000Y-103650000D01*
X290125000Y-103050000D02*
X290125000Y-101400000D01*
X290125000Y-100800000D02*
X290125000Y-99150000D01*
X290125000Y-98550000D02*
X290125000Y-96900000D01*
X290125000Y-96300000D02*
X290125000Y-94650000D01*
X290125000Y-94050000D02*
X290125000Y-92400000D01*
X290125000Y-91800000D02*
X290125000Y-90150000D01*
X290125000Y-89550000D02*
X290125000Y-87900000D01*
X290125000Y-87300000D02*
X290125000Y-85650000D01*
X290125000Y-85050000D02*
X290125000Y-83400000D01*
X290125000Y-82800000D02*
X290125000Y-81150000D01*
X290125000Y-80550000D02*
X290125000Y-78900000D01*
X290125000Y-78300000D02*
X290125000Y-76650000D01*
X290125000Y-76050000D02*
X290125000Y-74400000D01*
X290125000Y-73800000D02*
X290125000Y-72150000D01*
X290125000Y-71550000D02*
X290125000Y-69900000D01*
X290125000Y-69300000D02*
X290125000Y-67650000D01*
X290125000Y-67050000D02*
X290125000Y-65400000D01*
X290125000Y-64800000D02*
X290125000Y-63150000D01*
X290125000Y-62550000D02*
X290125000Y-60900000D01*
X290125000Y-60300000D02*
X290125000Y-58650000D01*
X290125000Y-58050000D02*
X290125000Y-56400000D01*
X290125000Y-55800000D02*
X290125000Y-54150000D01*
X290125000Y-53550000D02*
X290125000Y-51900000D01*
X290125000Y-51300000D02*
X290125000Y-49650000D01*
X290125000Y-49050000D02*
X290125000Y-47400000D01*
X290125000Y-46800000D02*
X290125000Y-45150000D01*
X290125000Y-44550000D02*
X290125000Y-42900000D01*
X290125000Y-42300000D02*
X290125000Y-40650000D01*
X290125000Y-40050000D02*
X290125000Y-38400000D01*
X290125000Y-37800000D02*
X290125000Y-36150000D01*
X290125000Y-35550000D02*
X290125000Y-33900000D01*
X290125000Y-33300000D02*
X290125000Y-31650000D01*
X290125000Y-31050000D02*
X290125000Y-29400000D01*
X290125000Y-28800000D02*
X290125000Y-27150000D01*
X290125000Y-26550000D02*
X290125000Y-24900000D01*
X290125000Y-24300000D02*
X290125000Y-22650000D01*
X290125000Y-22050000D02*
X290125000Y-20400000D01*
X290125000Y-19800000D02*
X290125000Y-18150000D01*
X290125000Y-17550000D02*
X290125000Y-15900000D01*
X290125000Y-15300000D02*
X290125000Y-13650000D01*
X10375000Y-35225000D02*
X307025000Y-35225000D01*
D11*
X299625000Y-35225000D02*
G75*
G03*
X299625000Y-35225000I-9500000J0D01*
G01*
X24200000Y-106900000D02*
G75*
G03*
X24200000Y-106900000I-4000000J0D01*
G01*
D10*
X13000000Y-106900000D02*
X305000000Y-106900000D01*
D11*
X299711697Y-27341705D02*
X299620139Y-28657461D01*
X299541680Y-29130954D02*
X299203948Y-30405919D01*
X299037715Y-30856160D02*
X298465898Y-32044699D01*
X298217840Y-32455574D02*
X297432405Y-33515145D01*
X297111402Y-33871947D02*
X296140462Y-34764625D01*
X295758002Y-35054583D02*
X294636310Y-35748416D01*
X294206083Y-35961152D02*
X292973787Y-36431306D01*
X292511194Y-36559205D02*
X291212402Y-36788852D01*
X290733998Y-36827336D02*
X289415198Y-36808256D01*
X288938108Y-36755948D02*
X287646503Y-36488823D01*
X287187803Y-36347595D02*
X285969624Y-35841988D01*
X285545732Y-35616895D02*
X284444582Y-34890902D01*
X284070671Y-34590001D02*
X283125962Y-33669608D01*
X282815415Y-33303669D02*
X282060961Y-32221819D01*
X281824894Y-31803940D02*
X281287700Y-30599356D01*
X281134562Y-30144494D02*
X280833856Y-28860292D01*
X280769128Y-28384728D02*
X280715673Y-27066873D01*
X280741672Y-26587629D02*
X280937381Y-25283291D01*
X281053176Y-24817520D02*
X281491044Y-23573386D01*
X281692492Y-23137760D02*
X282356846Y-21998361D01*
X282636735Y-21608472D02*
X283503797Y-20614589D01*
X283852109Y-20284393D02*
X284890843Y-19471602D01*
X285295112Y-19212917D02*
X286468339Y-18610309D01*
X286914094Y-18432394D02*
X288179821Y-18061539D01*
X288651107Y-17970762D02*
X289964029Y-17844933D01*
X290443978Y-17844545D02*
X291757103Y-17968246D01*
X292228535Y-18058259D02*
X293494861Y-18427063D01*
X293940904Y-18604256D02*
X295115106Y-19204962D01*
X295519793Y-19462992D02*
X296559843Y-20274099D01*
X296908689Y-20603731D02*
X297777360Y-21596207D01*
X298057880Y-21985642D02*
X298724080Y-23123964D01*
X298926232Y-23559263D02*
X299366115Y-24802686D01*
X299482665Y-25268269D02*
X299680487Y-26572288D01*
X299707263Y-27051489D02*
X299711697Y-27341705D01*
X35286697Y-27341705D02*
X35195139Y-28657461D01*
X35116680Y-29130954D02*
X34778948Y-30405919D01*
X34612715Y-30856160D02*
X34040898Y-32044699D01*
X33792840Y-32455574D02*
X33007405Y-33515145D01*
X32686402Y-33871947D02*
X31715462Y-34764625D01*
X31333002Y-35054583D02*
X30211310Y-35748416D01*
X29781083Y-35961152D02*
X28548787Y-36431306D01*
X28086194Y-36559205D02*
X26787402Y-36788852D01*
X26308998Y-36827336D02*
X24990198Y-36808256D01*
X24513108Y-36755948D02*
X23221503Y-36488823D01*
X22762803Y-36347595D02*
X21544624Y-35841988D01*
X21120732Y-35616895D02*
X20019582Y-34890902D01*
X19645671Y-34590001D02*
X18700962Y-33669608D01*
X18390415Y-33303669D02*
X17635961Y-32221819D01*
X17399894Y-31803940D02*
X16862700Y-30599356D01*
X16709562Y-30144494D02*
X16408856Y-28860292D01*
X16344128Y-28384728D02*
X16290673Y-27066873D01*
X16316672Y-26587629D02*
X16512381Y-25283291D01*
X16628176Y-24817520D02*
X17066044Y-23573386D01*
X17267492Y-23137760D02*
X17931846Y-21998361D01*
X18211735Y-21608472D02*
X19078797Y-20614589D01*
X19427109Y-20284393D02*
X20465843Y-19471602D01*
X20870112Y-19212917D02*
X22043339Y-18610309D01*
X22489094Y-18432394D02*
X23754821Y-18061539D01*
X24226107Y-17970762D02*
X25539029Y-17844933D01*
X26018978Y-17844545D02*
X27332103Y-17968246D01*
X27803535Y-18058259D02*
X29069861Y-18427063D01*
X29515904Y-18604256D02*
X30690106Y-19204962D01*
X31094793Y-19462992D02*
X32134843Y-20274099D01*
X32483689Y-20603731D02*
X33352360Y-21596207D01*
X33632880Y-21985642D02*
X34299080Y-23123964D01*
X34501232Y-23559263D02*
X34941115Y-24802686D01*
X35057665Y-25268269D02*
X35255487Y-26572288D01*
X35282263Y-27051489D02*
X35286697Y-27341705D01*
D12*
X103792505Y-146071875D02*
X103792505Y-146071875D01*
X103792505Y-145271875D02*
X103792505Y-145271875D01*
X103792505Y-144471875D02*
X103792505Y-144471875D01*
X103792505Y-143671875D02*
X103792505Y-143671875D01*
X103792505Y-142871875D02*
X103792505Y-142871875D01*
X103792505Y-142071875D02*
X103792505Y-142071875D01*
X103792505Y-141271875D02*
X103792505Y-141271875D01*
X103792505Y-140471875D02*
X103792505Y-140471875D01*
X103792505Y-139671875D02*
X103792505Y-139671875D01*
X103792505Y-138871875D02*
X103792505Y-138871875D01*
X103792505Y-138071875D02*
X103792505Y-138071875D01*
X103792505Y-137271875D02*
X103792505Y-137271875D01*
X103792505Y-136471875D02*
X103792505Y-136471875D01*
X103792505Y-135671875D02*
X103792505Y-135671875D01*
X103792505Y-134871875D02*
X103792505Y-134871875D01*
X103792505Y-134071875D02*
X103792505Y-134071875D01*
X103792505Y-133271875D02*
X103792505Y-133271875D01*
X103792505Y-132471875D02*
X103792505Y-132471875D01*
X103792505Y-131671875D02*
X103792505Y-131671875D01*
X103792505Y-130871875D02*
X103792505Y-130871875D01*
X103792505Y-130071875D02*
X103792505Y-130071875D01*
X103792505Y-129271875D02*
X103792505Y-129271875D01*
X103792505Y-128471875D02*
X103792505Y-128471875D01*
X103792505Y-127671875D02*
X103792505Y-127671875D01*
X103792505Y-126871875D02*
X103792505Y-126871875D01*
X103792505Y-126071875D02*
X103792505Y-126071875D01*
X103792505Y-125271875D02*
X103792505Y-125271875D01*
X103792505Y-124471875D02*
X103792505Y-124471875D01*
X103792505Y-123671875D02*
X103792505Y-123671875D01*
X103792505Y-122871875D02*
X103792505Y-122871875D01*
X103792505Y-122071875D02*
X103792505Y-122071875D01*
X103792505Y-121271875D02*
X103792505Y-121271875D01*
X103792505Y-120471875D02*
X103792505Y-120471875D01*
X103792505Y-119671875D02*
X103792505Y-119671875D01*
X103792505Y-118871875D02*
X103792505Y-118871875D01*
X103792505Y-118071875D02*
X103792505Y-118071875D01*
X103792505Y-117271875D02*
X103792505Y-117271875D01*
X103792505Y-116471875D02*
X103792505Y-116471875D01*
X103792505Y-115671875D02*
X103792505Y-115671875D01*
X103792505Y-114871875D02*
X103792505Y-114871875D01*
X103792505Y-114071875D02*
X103792505Y-114071875D01*
X103792505Y-113271875D02*
X103792505Y-113271875D01*
X103792505Y-112471875D02*
X103792505Y-112471875D01*
X103792505Y-111671875D02*
X103792505Y-111671875D01*
X103792505Y-110871875D02*
X103792505Y-110871875D01*
X103792505Y-110071875D02*
X103792505Y-110071875D01*
X103792505Y-109271875D02*
X103792505Y-109271875D01*
X103792505Y-108471875D02*
X103792505Y-108471875D01*
X103792505Y-107671875D02*
X103792505Y-107671875D01*
X103792505Y-106871875D02*
X103792505Y-106871875D01*
X103792505Y-106071875D02*
X103792505Y-106071875D01*
X103792505Y-105271875D02*
X103792505Y-105271875D01*
X103792505Y-104471875D02*
X103792505Y-104471875D01*
X103792505Y-103671875D02*
X103792505Y-103671875D01*
X103792505Y-102871875D02*
X103792505Y-102871875D01*
X103792505Y-102071875D02*
X103792505Y-102071875D01*
X103792505Y-101271875D02*
X103792505Y-101271875D01*
X103792505Y-100471875D02*
X103792505Y-100471875D01*
X103792505Y-99671875D02*
X103792505Y-99671875D01*
X103792505Y-98871875D02*
X103792505Y-98871875D01*
X103792505Y-98071875D02*
X103792505Y-98071875D01*
X103792505Y-97271875D02*
X103792505Y-97271875D01*
X103792505Y-96471875D02*
X103792505Y-96471875D01*
X103792505Y-95671875D02*
X103792505Y-95671875D01*
X103792505Y-94871875D02*
X103792505Y-94871875D01*
X103792505Y-94071875D02*
X103792505Y-94071875D01*
X103792505Y-93271875D02*
X103792505Y-93271875D01*
X103792505Y-92471875D02*
X103792505Y-92471875D01*
X103792505Y-91671875D02*
X103792505Y-91671875D01*
X103792505Y-90871875D02*
X103792505Y-90871875D01*
X103792505Y-90071875D02*
X103792505Y-90071875D01*
X103792505Y-89271875D02*
X103792505Y-89271875D01*
X103792505Y-88471875D02*
X103792505Y-88471875D01*
X103792505Y-87671875D02*
X103792505Y-87671875D01*
X103792505Y-86871875D02*
X103792505Y-86871875D01*
X103792505Y-86071875D02*
X103792505Y-86071875D01*
X103792505Y-85271875D02*
X103792505Y-85271875D01*
X103792505Y-84471875D02*
X103792505Y-84471875D01*
X103792505Y-83671875D02*
X103792505Y-83671875D01*
X103792505Y-82871875D02*
X103792505Y-82871875D01*
X103792505Y-82071875D02*
X103792505Y-82071875D01*
X103792505Y-81271875D02*
X103792505Y-81271875D01*
X103792505Y-80471875D02*
X103792505Y-80471875D01*
X103792505Y-79671875D02*
X103792505Y-79671875D01*
X103792505Y-78871875D02*
X103792505Y-78871875D01*
X103792505Y-78071875D02*
X103792505Y-78071875D01*
X103792505Y-77271875D02*
X103792505Y-77271875D01*
X103792505Y-76471875D02*
X103792505Y-76471875D01*
X103792505Y-75671875D02*
X103792505Y-75671875D01*
X103792505Y-74871875D02*
X103792505Y-74871875D01*
X103792505Y-74071875D02*
X103792505Y-74071875D01*
X103792505Y-73271875D02*
X103792505Y-73271875D01*
X103792505Y-72471875D02*
X103792505Y-72471875D01*
X103792505Y-71671875D02*
X103792505Y-71671875D01*
X103792505Y-70871875D02*
X103792505Y-70871875D01*
X103792505Y-70071875D02*
X103792505Y-70071875D01*
X103792505Y-69271875D02*
X103792505Y-69271875D01*
X103792505Y-68471875D02*
X103792505Y-68471875D01*
X103792505Y-67671875D02*
X103792505Y-67671875D01*
X103792505Y-66871875D02*
X103792505Y-66871875D01*
X103792505Y-66071875D02*
X103792505Y-66071875D01*
X103792505Y-65271875D02*
X103792505Y-65271875D01*
X103792505Y-64471875D02*
X103792505Y-64471875D01*
X103792505Y-63671875D02*
X103792505Y-63671875D01*
X103792505Y-62871875D02*
X103792505Y-62871875D01*
X103792505Y-62071875D02*
X103792505Y-62071875D01*
X103792505Y-61271875D02*
X103792505Y-61271875D01*
X103792505Y-60471875D02*
X103792505Y-60471875D01*
X103792505Y-59671875D02*
X103792505Y-59671875D01*
X103792505Y-58871875D02*
X103792505Y-58871875D01*
X103792505Y-58071875D02*
X103792505Y-58071875D01*
X103792505Y-57271875D02*
X103792505Y-57271875D01*
X103792505Y-56471875D02*
X103792505Y-56471875D01*
X103792505Y-55671875D02*
X103792505Y-55671875D01*
X103792505Y-54871875D02*
X103792505Y-54871875D01*
X103792505Y-54071875D02*
X103792505Y-54071875D01*
X103792505Y-53271875D02*
X103792505Y-53271875D01*
X103792505Y-52471875D02*
X103792505Y-52471875D01*
X103792505Y-51671875D02*
X103792505Y-51671875D01*
X103792505Y-50871875D02*
X103792505Y-50871875D01*
X103792505Y-50071875D02*
X103792505Y-50071875D01*
X103792505Y-49271875D02*
X103792505Y-49271875D01*
X103792505Y-48471875D02*
X103792505Y-48471875D01*
X103792505Y-47671875D02*
X103792505Y-47671875D01*
X103792505Y-46871875D02*
X103792505Y-46871875D01*
X103792505Y-46071875D02*
X103792505Y-46071875D01*
X103792505Y-45271875D02*
X103792505Y-45271875D01*
X103792505Y-44471875D02*
X103792505Y-44471875D01*
X103792505Y-43671875D02*
X103792505Y-43671875D01*
X103792505Y-42871875D02*
X103792505Y-42871875D01*
X103792505Y-42071875D02*
X103792505Y-42071875D01*
X103792505Y-41271875D02*
X103792505Y-41271875D01*
X103792505Y-40471875D02*
X103792505Y-40471875D01*
X103792505Y-39671875D02*
X103792505Y-39671875D01*
X103792505Y-38871875D02*
X103792505Y-38871875D01*
X103792505Y-38071875D02*
X103792505Y-38071875D01*
X103792505Y-37271875D02*
X103792505Y-37271875D01*
X103792505Y-36471875D02*
X103792505Y-36471875D01*
X103792505Y-35671875D02*
X103792505Y-35671875D01*
X103792505Y-34871875D02*
X103792505Y-34871875D01*
X103792505Y-34071875D02*
X103792505Y-34071875D01*
X103792505Y-33271875D02*
X103792505Y-33271875D01*
X103792505Y-32471875D02*
X103792505Y-32471875D01*
X103792505Y-31671875D02*
X103792505Y-31671875D01*
X103792505Y-30871875D02*
X103792505Y-30871875D01*
X103792505Y-30071875D02*
X103792505Y-30071875D01*
X103792505Y-29271875D02*
X103792505Y-29271875D01*
X103792505Y-28471875D02*
X103792505Y-28471875D01*
X103792505Y-27671875D02*
X103792505Y-27671875D01*
X103792505Y-26871875D02*
X103792505Y-26871875D01*
X103792505Y-26071875D02*
X103792505Y-26071875D01*
X103792505Y-25271875D02*
X103792505Y-25271875D01*
X103792505Y-24471875D02*
X103792505Y-24471875D01*
X103792505Y-23671875D02*
X103792505Y-23671875D01*
X103792505Y-22871875D02*
X103792505Y-22871875D01*
X103792505Y-22071875D02*
X103792505Y-22071875D01*
X103792505Y-21271875D02*
X103792505Y-21271875D01*
X103792505Y-20471875D02*
X103792505Y-20471875D01*
X103792505Y-19671875D02*
X103792505Y-19671875D01*
X103792505Y-18871875D02*
X103792505Y-18871875D01*
X103792505Y-18071875D02*
X103792505Y-18071875D01*
X103792505Y-17271875D02*
X103792505Y-17271875D01*
X103792505Y-16471875D02*
X103792505Y-16471875D01*
X103792505Y-15671875D02*
X103792505Y-15671875D01*
X103792505Y-14871875D02*
X103792505Y-14871875D01*
X103792505Y-14071875D02*
X103792505Y-14071875D01*
X103792505Y-13271875D02*
X103792505Y-13271875D01*
X103792505Y-12471875D02*
X103792505Y-12471875D01*
X103792505Y-11671875D02*
X103792505Y-11671875D01*
X103792505Y-10871875D02*
X103792505Y-10871875D01*
X103792505Y-10071875D02*
X103792505Y-10071875D01*
X103792505Y-9271875D02*
X103792505Y-9271875D01*
X103792505Y-8471875D02*
X103792505Y-8471875D01*
X103792505Y-7671875D02*
X103792505Y-7671875D01*
X103792505Y-6871875D02*
X103792505Y-6871875D01*
X103792505Y-6071875D02*
X103792505Y-6071875D01*
X103792505Y-5271875D02*
X103792505Y-5271875D01*
X103792505Y-4471875D02*
X103792505Y-4471875D01*
X103792505Y-3671875D02*
X103792505Y-3671875D01*
D11*
X24200000Y-21875000D02*
G75*
G03*
X24200000Y-21875000I-4000000J0D01*
G01*
D12*
X161919253Y-48800000D02*
X161919253Y-48800000D01*
X161839519Y-49594677D02*
X161839519Y-49594677D01*
X161603496Y-50357673D02*
X161603496Y-50357673D01*
X161220595Y-51058569D02*
X161220595Y-51058569D01*
X160706079Y-51669424D02*
X160706079Y-51669424D01*
X160080462Y-52165883D02*
X160080462Y-52165883D01*
X159368684Y-52528156D02*
X159368684Y-52528156D01*
X158599121Y-52741798D02*
X158599121Y-52741798D01*
X157802454Y-52798294D02*
X157802454Y-52798294D01*
X157010444Y-52695390D02*
X157010444Y-52695390D01*
X156254665Y-52437189D02*
X156254665Y-52437189D01*
X155565248Y-52033985D02*
X155565248Y-52033985D01*
X154969678Y-51501852D02*
X154969678Y-51501852D01*
X154491697Y-50862005D02*
X154491697Y-50862005D01*
X154150363Y-50139952D02*
X154150363Y-50139952D01*
X153959283Y-49364480D02*
X153959283Y-49364480D01*
X153926073Y-48566503D02*
X153926073Y-48566503D01*
X154052060Y-47777835D02*
X154052060Y-47777835D01*
X154332219Y-47029918D02*
X154332219Y-47029918D01*
X154755382Y-46352568D02*
X154755382Y-46352568D01*
X155304678Y-45772790D02*
X155304678Y-45772790D01*
X155958209Y-45313696D02*
X155958209Y-45313696D01*
X156689921Y-44993591D02*
X156689921Y-44993591D01*
X157470642Y-44825235D02*
X157470642Y-44825235D01*
X158269248Y-44815341D02*
X158269248Y-44815341D01*
X159053901Y-44964302D02*
X159053901Y-44964302D01*
X159793319Y-45266181D02*
X159793319Y-45266181D01*
X160458024Y-45708942D02*
X160458024Y-45708942D01*
X161021516Y-46274933D02*
X161021516Y-46274933D01*
X161461331Y-46941591D02*
X161461331Y-46941591D01*
X161759934Y-47682338D02*
X161759934Y-47682338D01*
X161905421Y-48467642D02*
X161905421Y-48467642D01*
D11*
X216094253Y-21860000D02*
X215878422Y-23156172D01*
X215696041Y-23599862D02*
X214937907Y-24673117D01*
X214580692Y-24993307D02*
X213431203Y-25629955D01*
X212970279Y-25762893D02*
X211658305Y-25836172D01*
X211185444Y-25755390D02*
X209972207Y-25250711D01*
X209581558Y-24972292D02*
X208708620Y-23990139D01*
X208477964Y-23569519D02*
X208119133Y-22305444D01*
X208094394Y-21826371D02*
X208321114Y-20532059D01*
X208507219Y-20089918D02*
X209274349Y-19023074D01*
X209634243Y-18705898D02*
X210789044Y-18078937D01*
X211251069Y-17949879D02*
X212563613Y-17887632D01*
X213035778Y-17972387D02*
X214244729Y-18487249D01*
X214633024Y-18768942D02*
X215497674Y-19758399D01*
X215724786Y-20180943D02*
X216072977Y-21447990D01*
X107792505Y-21900000D02*
X107576674Y-23196172D01*
X107394293Y-23639862D02*
X106636159Y-24713117D01*
X106278944Y-25033307D02*
X105129455Y-25669955D01*
X104668531Y-25802893D02*
X103356557Y-25876172D01*
X102883696Y-25795390D02*
X101670459Y-25290711D01*
X101279810Y-25012292D02*
X100406872Y-24030139D01*
X100176216Y-23609519D02*
X99817385Y-22345444D01*
X99792646Y-21866371D02*
X100019366Y-20572059D01*
X100205471Y-20129918D02*
X100972601Y-19063074D01*
X101332495Y-18745898D02*
X102487296Y-18118937D01*
X102949321Y-17989879D02*
X104261865Y-17927632D01*
X104734030Y-18012387D02*
X105942981Y-18527249D01*
X106331276Y-18808942D02*
X107195926Y-19798399D01*
X107423038Y-20220943D02*
X107771229Y-21487990D01*
D12*
X212094253Y-146071875D02*
X212094253Y-146071875D01*
X212094253Y-145271875D02*
X212094253Y-145271875D01*
X212094253Y-144471875D02*
X212094253Y-144471875D01*
X212094253Y-143671875D02*
X212094253Y-143671875D01*
X212094253Y-142871875D02*
X212094253Y-142871875D01*
X212094253Y-142071875D02*
X212094253Y-142071875D01*
X212094253Y-141271875D02*
X212094253Y-141271875D01*
X212094253Y-140471875D02*
X212094253Y-140471875D01*
X212094253Y-139671875D02*
X212094253Y-139671875D01*
X212094253Y-138871875D02*
X212094253Y-138871875D01*
X212094253Y-138071875D02*
X212094253Y-138071875D01*
X212094253Y-137271875D02*
X212094253Y-137271875D01*
X212094253Y-136471875D02*
X212094253Y-136471875D01*
X212094253Y-135671875D02*
X212094253Y-135671875D01*
X212094253Y-134871875D02*
X212094253Y-134871875D01*
X212094253Y-134071875D02*
X212094253Y-134071875D01*
X212094253Y-133271875D02*
X212094253Y-133271875D01*
X212094253Y-132471875D02*
X212094253Y-132471875D01*
X212094253Y-131671875D02*
X212094253Y-131671875D01*
X212094253Y-130871875D02*
X212094253Y-130871875D01*
X212094253Y-130071875D02*
X212094253Y-130071875D01*
X212094253Y-129271875D02*
X212094253Y-129271875D01*
X212094253Y-128471875D02*
X212094253Y-128471875D01*
X212094253Y-127671875D02*
X212094253Y-127671875D01*
X212094253Y-126871875D02*
X212094253Y-126871875D01*
X212094253Y-126071875D02*
X212094253Y-126071875D01*
X212094253Y-125271875D02*
X212094253Y-125271875D01*
X212094253Y-124471875D02*
X212094253Y-124471875D01*
X212094253Y-123671875D02*
X212094253Y-123671875D01*
X212094253Y-122871875D02*
X212094253Y-122871875D01*
X212094253Y-122071875D02*
X212094253Y-122071875D01*
X212094253Y-121271875D02*
X212094253Y-121271875D01*
X212094253Y-120471875D02*
X212094253Y-120471875D01*
X212094253Y-119671875D02*
X212094253Y-119671875D01*
X212094253Y-118871875D02*
X212094253Y-118871875D01*
X212094253Y-118071875D02*
X212094253Y-118071875D01*
X212094253Y-117271875D02*
X212094253Y-117271875D01*
X212094253Y-116471875D02*
X212094253Y-116471875D01*
X212094253Y-115671875D02*
X212094253Y-115671875D01*
X212094253Y-114871875D02*
X212094253Y-114871875D01*
X212094253Y-114071875D02*
X212094253Y-114071875D01*
X212094253Y-113271875D02*
X212094253Y-113271875D01*
X212094253Y-112471875D02*
X212094253Y-112471875D01*
X212094253Y-111671875D02*
X212094253Y-111671875D01*
X212094253Y-110871875D02*
X212094253Y-110871875D01*
X212094253Y-110071875D02*
X212094253Y-110071875D01*
X212094253Y-109271875D02*
X212094253Y-109271875D01*
X212094253Y-108471875D02*
X212094253Y-108471875D01*
X212094253Y-107671875D02*
X212094253Y-107671875D01*
X212094253Y-106871875D02*
X212094253Y-106871875D01*
X212094253Y-106071875D02*
X212094253Y-106071875D01*
X212094253Y-105271875D02*
X212094253Y-105271875D01*
X212094253Y-104471875D02*
X212094253Y-104471875D01*
X212094253Y-103671875D02*
X212094253Y-103671875D01*
X212094253Y-102871875D02*
X212094253Y-102871875D01*
X212094253Y-102071875D02*
X212094253Y-102071875D01*
X212094253Y-101271875D02*
X212094253Y-101271875D01*
X212094253Y-100471875D02*
X212094253Y-100471875D01*
X212094253Y-99671875D02*
X212094253Y-99671875D01*
X212094253Y-98871875D02*
X212094253Y-98871875D01*
X212094253Y-98071875D02*
X212094253Y-98071875D01*
X212094253Y-97271875D02*
X212094253Y-97271875D01*
X212094253Y-96471875D02*
X212094253Y-96471875D01*
X212094253Y-95671875D02*
X212094253Y-95671875D01*
X212094253Y-94871875D02*
X212094253Y-94871875D01*
X212094253Y-94071875D02*
X212094253Y-94071875D01*
X212094253Y-93271875D02*
X212094253Y-93271875D01*
X212094253Y-92471875D02*
X212094253Y-92471875D01*
X212094253Y-91671875D02*
X212094253Y-91671875D01*
X212094253Y-90871875D02*
X212094253Y-90871875D01*
X212094253Y-90071875D02*
X212094253Y-90071875D01*
X212094253Y-89271875D02*
X212094253Y-89271875D01*
X212094253Y-88471875D02*
X212094253Y-88471875D01*
X212094253Y-87671875D02*
X212094253Y-87671875D01*
X212094253Y-86871875D02*
X212094253Y-86871875D01*
X212094253Y-86071875D02*
X212094253Y-86071875D01*
X212094253Y-85271875D02*
X212094253Y-85271875D01*
X212094253Y-84471875D02*
X212094253Y-84471875D01*
X212094253Y-83671875D02*
X212094253Y-83671875D01*
X212094253Y-82871875D02*
X212094253Y-82871875D01*
X212094253Y-82071875D02*
X212094253Y-82071875D01*
X212094253Y-81271875D02*
X212094253Y-81271875D01*
X212094253Y-80471875D02*
X212094253Y-80471875D01*
X212094253Y-79671875D02*
X212094253Y-79671875D01*
X212094253Y-78871875D02*
X212094253Y-78871875D01*
X212094253Y-78071875D02*
X212094253Y-78071875D01*
X212094253Y-77271875D02*
X212094253Y-77271875D01*
X212094253Y-76471875D02*
X212094253Y-76471875D01*
X212094253Y-75671875D02*
X212094253Y-75671875D01*
X212094253Y-74871875D02*
X212094253Y-74871875D01*
X212094253Y-74071875D02*
X212094253Y-74071875D01*
X212094253Y-73271875D02*
X212094253Y-73271875D01*
X212094253Y-72471875D02*
X212094253Y-72471875D01*
X212094253Y-71671875D02*
X212094253Y-71671875D01*
X212094253Y-70871875D02*
X212094253Y-70871875D01*
X212094253Y-70071875D02*
X212094253Y-70071875D01*
X212094253Y-69271875D02*
X212094253Y-69271875D01*
X212094253Y-68471875D02*
X212094253Y-68471875D01*
X212094253Y-67671875D02*
X212094253Y-67671875D01*
X212094253Y-66871875D02*
X212094253Y-66871875D01*
X212094253Y-66071875D02*
X212094253Y-66071875D01*
X212094253Y-65271875D02*
X212094253Y-65271875D01*
X212094253Y-64471875D02*
X212094253Y-64471875D01*
X212094253Y-63671875D02*
X212094253Y-63671875D01*
X212094253Y-62871875D02*
X212094253Y-62871875D01*
X212094253Y-62071875D02*
X212094253Y-62071875D01*
X212094253Y-61271875D02*
X212094253Y-61271875D01*
X212094253Y-60471875D02*
X212094253Y-60471875D01*
X212094253Y-59671875D02*
X212094253Y-59671875D01*
X212094253Y-58871875D02*
X212094253Y-58871875D01*
X212094253Y-58071875D02*
X212094253Y-58071875D01*
X212094253Y-57271875D02*
X212094253Y-57271875D01*
X212094253Y-56471875D02*
X212094253Y-56471875D01*
X212094253Y-55671875D02*
X212094253Y-55671875D01*
X212094253Y-54871875D02*
X212094253Y-54871875D01*
X212094253Y-54071875D02*
X212094253Y-54071875D01*
X212094253Y-53271875D02*
X212094253Y-53271875D01*
X212094253Y-52471875D02*
X212094253Y-52471875D01*
X212094253Y-51671875D02*
X212094253Y-51671875D01*
X212094253Y-50871875D02*
X212094253Y-50871875D01*
X212094253Y-50071875D02*
X212094253Y-50071875D01*
X212094253Y-49271875D02*
X212094253Y-49271875D01*
X212094253Y-48471875D02*
X212094253Y-48471875D01*
X212094253Y-47671875D02*
X212094253Y-47671875D01*
X212094253Y-46871875D02*
X212094253Y-46871875D01*
X212094253Y-46071875D02*
X212094253Y-46071875D01*
X212094253Y-45271875D02*
X212094253Y-45271875D01*
X212094253Y-44471875D02*
X212094253Y-44471875D01*
X212094253Y-43671875D02*
X212094253Y-43671875D01*
X212094253Y-42871875D02*
X212094253Y-42871875D01*
X212094253Y-42071875D02*
X212094253Y-42071875D01*
X212094253Y-41271875D02*
X212094253Y-41271875D01*
X212094253Y-40471875D02*
X212094253Y-40471875D01*
X212094253Y-39671875D02*
X212094253Y-39671875D01*
X212094253Y-38871875D02*
X212094253Y-38871875D01*
X212094253Y-38071875D02*
X212094253Y-38071875D01*
X212094253Y-37271875D02*
X212094253Y-37271875D01*
X212094253Y-36471875D02*
X212094253Y-36471875D01*
X212094253Y-35671875D02*
X212094253Y-35671875D01*
X212094253Y-34871875D02*
X212094253Y-34871875D01*
X212094253Y-34071875D02*
X212094253Y-34071875D01*
X212094253Y-33271875D02*
X212094253Y-33271875D01*
X212094253Y-32471875D02*
X212094253Y-32471875D01*
X212094253Y-31671875D02*
X212094253Y-31671875D01*
X212094253Y-30871875D02*
X212094253Y-30871875D01*
X212094253Y-30071875D02*
X212094253Y-30071875D01*
X212094253Y-29271875D02*
X212094253Y-29271875D01*
X212094253Y-28471875D02*
X212094253Y-28471875D01*
X212094253Y-27671875D02*
X212094253Y-27671875D01*
X212094253Y-26871875D02*
X212094253Y-26871875D01*
X212094253Y-26071875D02*
X212094253Y-26071875D01*
X212094253Y-25271875D02*
X212094253Y-25271875D01*
X212094253Y-24471875D02*
X212094253Y-24471875D01*
X212094253Y-23671875D02*
X212094253Y-23671875D01*
X212094253Y-22871875D02*
X212094253Y-22871875D01*
X212094253Y-22071875D02*
X212094253Y-22071875D01*
X212094253Y-21271875D02*
X212094253Y-21271875D01*
X212094253Y-20471875D02*
X212094253Y-20471875D01*
X212094253Y-19671875D02*
X212094253Y-19671875D01*
X212094253Y-18871875D02*
X212094253Y-18871875D01*
X212094253Y-18071875D02*
X212094253Y-18071875D01*
X212094253Y-17271875D02*
X212094253Y-17271875D01*
X212094253Y-16471875D02*
X212094253Y-16471875D01*
X212094253Y-15671875D02*
X212094253Y-15671875D01*
X212094253Y-14871875D02*
X212094253Y-14871875D01*
X212094253Y-14071875D02*
X212094253Y-14071875D01*
X212094253Y-13271875D02*
X212094253Y-13271875D01*
X212094253Y-12471875D02*
X212094253Y-12471875D01*
X212094253Y-11671875D02*
X212094253Y-11671875D01*
X212094253Y-10871875D02*
X212094253Y-10871875D01*
X212094253Y-10071875D02*
X212094253Y-10071875D01*
X212094253Y-9271875D02*
X212094253Y-9271875D01*
X212094253Y-8471875D02*
X212094253Y-8471875D01*
X212094253Y-7671875D02*
X212094253Y-7671875D01*
X212094253Y-6871875D02*
X212094253Y-6871875D01*
X212094253Y-6071875D02*
X212094253Y-6071875D01*
X212094253Y-5271875D02*
X212094253Y-5271875D01*
X212094253Y-4471875D02*
X212094253Y-4471875D01*
X212094253Y-3671875D02*
X212094253Y-3671875D01*
D11*
X161925000Y-106900000D02*
G75*
G03*
X161925000Y-106900000I-4000000J0D01*
G01*
D12*
X9594253Y-48800000D02*
X9594253Y-48800000D01*
X10394253Y-48800000D02*
X10394253Y-48800000D01*
X11194253Y-48800000D02*
X11194253Y-48800000D01*
X11994253Y-48800000D02*
X11994253Y-48800000D01*
X12794253Y-48800000D02*
X12794253Y-48800000D01*
X13594253Y-48800000D02*
X13594253Y-48800000D01*
X14394253Y-48800000D02*
X14394253Y-48800000D01*
X15194253Y-48800000D02*
X15194253Y-48800000D01*
X15994253Y-48800000D02*
X15994253Y-48800000D01*
X16794253Y-48800000D02*
X16794253Y-48800000D01*
X17594253Y-48800000D02*
X17594253Y-48800000D01*
X18394253Y-48800000D02*
X18394253Y-48800000D01*
X19194253Y-48800000D02*
X19194253Y-48800000D01*
X19994253Y-48800000D02*
X19994253Y-48800000D01*
X20794253Y-48800000D02*
X20794253Y-48800000D01*
X21594253Y-48800000D02*
X21594253Y-48800000D01*
X22394253Y-48800000D02*
X22394253Y-48800000D01*
X23194253Y-48800000D02*
X23194253Y-48800000D01*
X23994253Y-48800000D02*
X23994253Y-48800000D01*
X24794253Y-48800000D02*
X24794253Y-48800000D01*
X25594253Y-48800000D02*
X25594253Y-48800000D01*
X26394253Y-48800000D02*
X26394253Y-48800000D01*
X27194253Y-48800000D02*
X27194253Y-48800000D01*
X27994253Y-48800000D02*
X27994253Y-48800000D01*
X28794253Y-48800000D02*
X28794253Y-48800000D01*
X29594253Y-48800000D02*
X29594253Y-48800000D01*
X30394253Y-48800000D02*
X30394253Y-48800000D01*
X31194253Y-48800000D02*
X31194253Y-48800000D01*
X31994253Y-48800000D02*
X31994253Y-48800000D01*
X32794253Y-48800000D02*
X32794253Y-48800000D01*
X33594253Y-48800000D02*
X33594253Y-48800000D01*
X34394253Y-48800000D02*
X34394253Y-48800000D01*
X35194253Y-48800000D02*
X35194253Y-48800000D01*
X35994253Y-48800000D02*
X35994253Y-48800000D01*
X36794253Y-48800000D02*
X36794253Y-48800000D01*
X37594253Y-48800000D02*
X37594253Y-48800000D01*
X38394253Y-48800000D02*
X38394253Y-48800000D01*
X39194253Y-48800000D02*
X39194253Y-48800000D01*
X39994253Y-48800000D02*
X39994253Y-48800000D01*
X40794253Y-48800000D02*
X40794253Y-48800000D01*
X41594253Y-48800000D02*
X41594253Y-48800000D01*
X42394253Y-48800000D02*
X42394253Y-48800000D01*
X43194253Y-48800000D02*
X43194253Y-48800000D01*
X43994253Y-48800000D02*
X43994253Y-48800000D01*
X44794253Y-48800000D02*
X44794253Y-48800000D01*
X45594253Y-48800000D02*
X45594253Y-48800000D01*
X46394253Y-48800000D02*
X46394253Y-48800000D01*
X47194253Y-48800000D02*
X47194253Y-48800000D01*
X47994253Y-48800000D02*
X47994253Y-48800000D01*
X48794253Y-48800000D02*
X48794253Y-48800000D01*
X49594253Y-48800000D02*
X49594253Y-48800000D01*
X50394253Y-48800000D02*
X50394253Y-48800000D01*
X51194253Y-48800000D02*
X51194253Y-48800000D01*
X51994253Y-48800000D02*
X51994253Y-48800000D01*
X52794253Y-48800000D02*
X52794253Y-48800000D01*
X53594253Y-48800000D02*
X53594253Y-48800000D01*
X54394253Y-48800000D02*
X54394253Y-48800000D01*
X55194253Y-48800000D02*
X55194253Y-48800000D01*
X55994253Y-48800000D02*
X55994253Y-48800000D01*
X56794253Y-48800000D02*
X56794253Y-48800000D01*
X57594253Y-48800000D02*
X57594253Y-48800000D01*
X58394253Y-48800000D02*
X58394253Y-48800000D01*
X59194253Y-48800000D02*
X59194253Y-48800000D01*
X59994253Y-48800000D02*
X59994253Y-48800000D01*
X60794253Y-48800000D02*
X60794253Y-48800000D01*
X61594253Y-48800000D02*
X61594253Y-48800000D01*
X62394253Y-48800000D02*
X62394253Y-48800000D01*
X63194253Y-48800000D02*
X63194253Y-48800000D01*
X63994253Y-48800000D02*
X63994253Y-48800000D01*
X64794253Y-48800000D02*
X64794253Y-48800000D01*
X65594253Y-48800000D02*
X65594253Y-48800000D01*
X66394253Y-48800000D02*
X66394253Y-48800000D01*
X67194253Y-48800000D02*
X67194253Y-48800000D01*
X67994253Y-48800000D02*
X67994253Y-48800000D01*
X68794253Y-48800000D02*
X68794253Y-48800000D01*
X69594253Y-48800000D02*
X69594253Y-48800000D01*
X70394253Y-48800000D02*
X70394253Y-48800000D01*
X71194253Y-48800000D02*
X71194253Y-48800000D01*
X71994253Y-48800000D02*
X71994253Y-48800000D01*
X72794253Y-48800000D02*
X72794253Y-48800000D01*
X73594253Y-48800000D02*
X73594253Y-48800000D01*
X74394253Y-48800000D02*
X74394253Y-48800000D01*
X75194253Y-48800000D02*
X75194253Y-48800000D01*
X75994253Y-48800000D02*
X75994253Y-48800000D01*
X76794253Y-48800000D02*
X76794253Y-48800000D01*
X77594253Y-48800000D02*
X77594253Y-48800000D01*
X78394253Y-48800000D02*
X78394253Y-48800000D01*
X79194253Y-48800000D02*
X79194253Y-48800000D01*
X79994253Y-48800000D02*
X79994253Y-48800000D01*
X80794253Y-48800000D02*
X80794253Y-48800000D01*
X81594253Y-48800000D02*
X81594253Y-48800000D01*
X82394253Y-48800000D02*
X82394253Y-48800000D01*
X83194253Y-48800000D02*
X83194253Y-48800000D01*
X83994253Y-48800000D02*
X83994253Y-48800000D01*
X84794253Y-48800000D02*
X84794253Y-48800000D01*
X85594253Y-48800000D02*
X85594253Y-48800000D01*
X86394253Y-48800000D02*
X86394253Y-48800000D01*
X87194253Y-48800000D02*
X87194253Y-48800000D01*
X87994253Y-48800000D02*
X87994253Y-48800000D01*
X88794253Y-48800000D02*
X88794253Y-48800000D01*
X89594253Y-48800000D02*
X89594253Y-48800000D01*
X90394253Y-48800000D02*
X90394253Y-48800000D01*
X91194253Y-48800000D02*
X91194253Y-48800000D01*
X91994253Y-48800000D02*
X91994253Y-48800000D01*
X92794253Y-48800000D02*
X92794253Y-48800000D01*
X93594253Y-48800000D02*
X93594253Y-48800000D01*
X94394253Y-48800000D02*
X94394253Y-48800000D01*
X95194253Y-48800000D02*
X95194253Y-48800000D01*
X95994253Y-48800000D02*
X95994253Y-48800000D01*
X96794253Y-48800000D02*
X96794253Y-48800000D01*
X97594253Y-48800000D02*
X97594253Y-48800000D01*
X98394253Y-48800000D02*
X98394253Y-48800000D01*
X99194253Y-48800000D02*
X99194253Y-48800000D01*
X99994253Y-48800000D02*
X99994253Y-48800000D01*
X100794253Y-48800000D02*
X100794253Y-48800000D01*
X101594253Y-48800000D02*
X101594253Y-48800000D01*
X102394253Y-48800000D02*
X102394253Y-48800000D01*
X103194253Y-48800000D02*
X103194253Y-48800000D01*
X103994253Y-48800000D02*
X103994253Y-48800000D01*
X104794253Y-48800000D02*
X104794253Y-48800000D01*
X105594253Y-48800000D02*
X105594253Y-48800000D01*
X106394253Y-48800000D02*
X106394253Y-48800000D01*
X107194253Y-48800000D02*
X107194253Y-48800000D01*
X107994253Y-48800000D02*
X107994253Y-48800000D01*
X108794253Y-48800000D02*
X108794253Y-48800000D01*
X109594253Y-48800000D02*
X109594253Y-48800000D01*
X110394253Y-48800000D02*
X110394253Y-48800000D01*
X111194253Y-48800000D02*
X111194253Y-48800000D01*
X111994253Y-48800000D02*
X111994253Y-48800000D01*
X112794253Y-48800000D02*
X112794253Y-48800000D01*
X113594253Y-48800000D02*
X113594253Y-48800000D01*
X114394253Y-48800000D02*
X114394253Y-48800000D01*
X115194253Y-48800000D02*
X115194253Y-48800000D01*
X115994253Y-48800000D02*
X115994253Y-48800000D01*
X116794253Y-48800000D02*
X116794253Y-48800000D01*
X117594253Y-48800000D02*
X117594253Y-48800000D01*
X118394253Y-48800000D02*
X118394253Y-48800000D01*
X119194253Y-48800000D02*
X119194253Y-48800000D01*
X119994253Y-48800000D02*
X119994253Y-48800000D01*
X120794253Y-48800000D02*
X120794253Y-48800000D01*
X121594253Y-48800000D02*
X121594253Y-48800000D01*
X122394253Y-48800000D02*
X122394253Y-48800000D01*
X123194253Y-48800000D02*
X123194253Y-48800000D01*
X123994253Y-48800000D02*
X123994253Y-48800000D01*
X124794253Y-48800000D02*
X124794253Y-48800000D01*
X125594253Y-48800000D02*
X125594253Y-48800000D01*
X126394253Y-48800000D02*
X126394253Y-48800000D01*
X127194253Y-48800000D02*
X127194253Y-48800000D01*
X127994253Y-48800000D02*
X127994253Y-48800000D01*
X128794253Y-48800000D02*
X128794253Y-48800000D01*
X129594253Y-48800000D02*
X129594253Y-48800000D01*
X130394253Y-48800000D02*
X130394253Y-48800000D01*
X131194253Y-48800000D02*
X131194253Y-48800000D01*
X131994253Y-48800000D02*
X131994253Y-48800000D01*
X132794253Y-48800000D02*
X132794253Y-48800000D01*
X133594253Y-48800000D02*
X133594253Y-48800000D01*
X134394253Y-48800000D02*
X134394253Y-48800000D01*
X135194253Y-48800000D02*
X135194253Y-48800000D01*
X135994253Y-48800000D02*
X135994253Y-48800000D01*
X136794253Y-48800000D02*
X136794253Y-48800000D01*
X137594253Y-48800000D02*
X137594253Y-48800000D01*
X138394253Y-48800000D02*
X138394253Y-48800000D01*
X139194253Y-48800000D02*
X139194253Y-48800000D01*
X139994253Y-48800000D02*
X139994253Y-48800000D01*
X140794253Y-48800000D02*
X140794253Y-48800000D01*
X141594253Y-48800000D02*
X141594253Y-48800000D01*
X142394253Y-48800000D02*
X142394253Y-48800000D01*
X143194253Y-48800000D02*
X143194253Y-48800000D01*
X143994253Y-48800000D02*
X143994253Y-48800000D01*
X144794253Y-48800000D02*
X144794253Y-48800000D01*
X145594253Y-48800000D02*
X145594253Y-48800000D01*
X146394253Y-48800000D02*
X146394253Y-48800000D01*
X147194253Y-48800000D02*
X147194253Y-48800000D01*
X147994253Y-48800000D02*
X147994253Y-48800000D01*
X148794253Y-48800000D02*
X148794253Y-48800000D01*
X149594253Y-48800000D02*
X149594253Y-48800000D01*
X150394253Y-48800000D02*
X150394253Y-48800000D01*
X151194253Y-48800000D02*
X151194253Y-48800000D01*
X151994253Y-48800000D02*
X151994253Y-48800000D01*
X152794253Y-48800000D02*
X152794253Y-48800000D01*
X153594253Y-48800000D02*
X153594253Y-48800000D01*
X154394253Y-48800000D02*
X154394253Y-48800000D01*
X155194253Y-48800000D02*
X155194253Y-48800000D01*
X155994253Y-48800000D02*
X155994253Y-48800000D01*
X156794253Y-48800000D02*
X156794253Y-48800000D01*
X157594253Y-48800000D02*
X157594253Y-48800000D01*
X158394253Y-48800000D02*
X158394253Y-48800000D01*
X159194253Y-48800000D02*
X159194253Y-48800000D01*
X159994253Y-48800000D02*
X159994253Y-48800000D01*
X160794253Y-48800000D02*
X160794253Y-48800000D01*
X161594253Y-48800000D02*
X161594253Y-48800000D01*
X162394253Y-48800000D02*
X162394253Y-48800000D01*
X163194253Y-48800000D02*
X163194253Y-48800000D01*
X163994253Y-48800000D02*
X163994253Y-48800000D01*
X164794253Y-48800000D02*
X164794253Y-48800000D01*
X165594253Y-48800000D02*
X165594253Y-48800000D01*
X166394253Y-48800000D02*
X166394253Y-48800000D01*
X167194253Y-48800000D02*
X167194253Y-48800000D01*
X167994253Y-48800000D02*
X167994253Y-48800000D01*
X168794253Y-48800000D02*
X168794253Y-48800000D01*
X169594253Y-48800000D02*
X169594253Y-48800000D01*
X170394253Y-48800000D02*
X170394253Y-48800000D01*
X171194253Y-48800000D02*
X171194253Y-48800000D01*
X171994253Y-48800000D02*
X171994253Y-48800000D01*
X172794253Y-48800000D02*
X172794253Y-48800000D01*
X173594253Y-48800000D02*
X173594253Y-48800000D01*
X174394253Y-48800000D02*
X174394253Y-48800000D01*
X175194253Y-48800000D02*
X175194253Y-48800000D01*
X175994253Y-48800000D02*
X175994253Y-48800000D01*
X176794253Y-48800000D02*
X176794253Y-48800000D01*
X177594253Y-48800000D02*
X177594253Y-48800000D01*
X178394253Y-48800000D02*
X178394253Y-48800000D01*
X179194253Y-48800000D02*
X179194253Y-48800000D01*
X179994253Y-48800000D02*
X179994253Y-48800000D01*
X180794253Y-48800000D02*
X180794253Y-48800000D01*
X181594253Y-48800000D02*
X181594253Y-48800000D01*
X182394253Y-48800000D02*
X182394253Y-48800000D01*
X183194253Y-48800000D02*
X183194253Y-48800000D01*
X183994253Y-48800000D02*
X183994253Y-48800000D01*
X184794253Y-48800000D02*
X184794253Y-48800000D01*
X185594253Y-48800000D02*
X185594253Y-48800000D01*
X186394253Y-48800000D02*
X186394253Y-48800000D01*
X187194253Y-48800000D02*
X187194253Y-48800000D01*
X187994253Y-48800000D02*
X187994253Y-48800000D01*
X188794253Y-48800000D02*
X188794253Y-48800000D01*
X189594253Y-48800000D02*
X189594253Y-48800000D01*
X190394253Y-48800000D02*
X190394253Y-48800000D01*
X191194253Y-48800000D02*
X191194253Y-48800000D01*
X191994253Y-48800000D02*
X191994253Y-48800000D01*
X192794253Y-48800000D02*
X192794253Y-48800000D01*
X193594253Y-48800000D02*
X193594253Y-48800000D01*
X194394253Y-48800000D02*
X194394253Y-48800000D01*
X195194253Y-48800000D02*
X195194253Y-48800000D01*
X195994253Y-48800000D02*
X195994253Y-48800000D01*
X196794253Y-48800000D02*
X196794253Y-48800000D01*
X197594253Y-48800000D02*
X197594253Y-48800000D01*
X198394253Y-48800000D02*
X198394253Y-48800000D01*
X199194253Y-48800000D02*
X199194253Y-48800000D01*
X199994253Y-48800000D02*
X199994253Y-48800000D01*
X200794253Y-48800000D02*
X200794253Y-48800000D01*
X201594253Y-48800000D02*
X201594253Y-48800000D01*
X202394253Y-48800000D02*
X202394253Y-48800000D01*
X203194253Y-48800000D02*
X203194253Y-48800000D01*
X203994253Y-48800000D02*
X203994253Y-48800000D01*
X204794253Y-48800000D02*
X204794253Y-48800000D01*
X205594253Y-48800000D02*
X205594253Y-48800000D01*
X206394253Y-48800000D02*
X206394253Y-48800000D01*
X207194253Y-48800000D02*
X207194253Y-48800000D01*
X207994253Y-48800000D02*
X207994253Y-48800000D01*
X208794253Y-48800000D02*
X208794253Y-48800000D01*
X209594253Y-48800000D02*
X209594253Y-48800000D01*
X210394253Y-48800000D02*
X210394253Y-48800000D01*
X211194253Y-48800000D02*
X211194253Y-48800000D01*
X211994253Y-48800000D02*
X211994253Y-48800000D01*
X212794253Y-48800000D02*
X212794253Y-48800000D01*
X213594253Y-48800000D02*
X213594253Y-48800000D01*
X214394253Y-48800000D02*
X214394253Y-48800000D01*
X215194253Y-48800000D02*
X215194253Y-48800000D01*
X215994253Y-48800000D02*
X215994253Y-48800000D01*
X216794253Y-48800000D02*
X216794253Y-48800000D01*
X217594253Y-48800000D02*
X217594253Y-48800000D01*
X218394253Y-48800000D02*
X218394253Y-48800000D01*
X219194253Y-48800000D02*
X219194253Y-48800000D01*
X219994253Y-48800000D02*
X219994253Y-48800000D01*
X220794253Y-48800000D02*
X220794253Y-48800000D01*
X221594253Y-48800000D02*
X221594253Y-48800000D01*
X222394253Y-48800000D02*
X222394253Y-48800000D01*
X223194253Y-48800000D02*
X223194253Y-48800000D01*
X223994253Y-48800000D02*
X223994253Y-48800000D01*
X224794253Y-48800000D02*
X224794253Y-48800000D01*
X225594253Y-48800000D02*
X225594253Y-48800000D01*
X226394253Y-48800000D02*
X226394253Y-48800000D01*
X227194253Y-48800000D02*
X227194253Y-48800000D01*
X227994253Y-48800000D02*
X227994253Y-48800000D01*
X228794253Y-48800000D02*
X228794253Y-48800000D01*
X229594253Y-48800000D02*
X229594253Y-48800000D01*
X230394253Y-48800000D02*
X230394253Y-48800000D01*
X231194253Y-48800000D02*
X231194253Y-48800000D01*
X231994253Y-48800000D02*
X231994253Y-48800000D01*
X232794253Y-48800000D02*
X232794253Y-48800000D01*
X233594253Y-48800000D02*
X233594253Y-48800000D01*
X234394253Y-48800000D02*
X234394253Y-48800000D01*
X235194253Y-48800000D02*
X235194253Y-48800000D01*
X235994253Y-48800000D02*
X235994253Y-48800000D01*
X236794253Y-48800000D02*
X236794253Y-48800000D01*
X237594253Y-48800000D02*
X237594253Y-48800000D01*
X238394253Y-48800000D02*
X238394253Y-48800000D01*
X239194253Y-48800000D02*
X239194253Y-48800000D01*
X239994253Y-48800000D02*
X239994253Y-48800000D01*
X240794253Y-48800000D02*
X240794253Y-48800000D01*
X241594253Y-48800000D02*
X241594253Y-48800000D01*
X242394253Y-48800000D02*
X242394253Y-48800000D01*
X243194253Y-48800000D02*
X243194253Y-48800000D01*
X243994253Y-48800000D02*
X243994253Y-48800000D01*
X244794253Y-48800000D02*
X244794253Y-48800000D01*
X245594253Y-48800000D02*
X245594253Y-48800000D01*
X246394253Y-48800000D02*
X246394253Y-48800000D01*
X247194253Y-48800000D02*
X247194253Y-48800000D01*
X247994253Y-48800000D02*
X247994253Y-48800000D01*
X248794253Y-48800000D02*
X248794253Y-48800000D01*
X249594253Y-48800000D02*
X249594253Y-48800000D01*
X250394253Y-48800000D02*
X250394253Y-48800000D01*
X251194253Y-48800000D02*
X251194253Y-48800000D01*
X251994253Y-48800000D02*
X251994253Y-48800000D01*
X252794253Y-48800000D02*
X252794253Y-48800000D01*
X253594253Y-48800000D02*
X253594253Y-48800000D01*
X254394253Y-48800000D02*
X254394253Y-48800000D01*
X255194253Y-48800000D02*
X255194253Y-48800000D01*
X255994253Y-48800000D02*
X255994253Y-48800000D01*
X256794253Y-48800000D02*
X256794253Y-48800000D01*
X257594253Y-48800000D02*
X257594253Y-48800000D01*
X258394253Y-48800000D02*
X258394253Y-48800000D01*
X259194253Y-48800000D02*
X259194253Y-48800000D01*
X259994253Y-48800000D02*
X259994253Y-48800000D01*
X260794253Y-48800000D02*
X260794253Y-48800000D01*
X261594253Y-48800000D02*
X261594253Y-48800000D01*
X262394253Y-48800000D02*
X262394253Y-48800000D01*
X263194253Y-48800000D02*
X263194253Y-48800000D01*
X263994253Y-48800000D02*
X263994253Y-48800000D01*
X264794253Y-48800000D02*
X264794253Y-48800000D01*
X265594253Y-48800000D02*
X265594253Y-48800000D01*
X266394253Y-48800000D02*
X266394253Y-48800000D01*
X267194253Y-48800000D02*
X267194253Y-48800000D01*
X267994253Y-48800000D02*
X267994253Y-48800000D01*
X268794253Y-48800000D02*
X268794253Y-48800000D01*
X269594253Y-48800000D02*
X269594253Y-48800000D01*
X270394253Y-48800000D02*
X270394253Y-48800000D01*
X271194253Y-48800000D02*
X271194253Y-48800000D01*
X271994253Y-48800000D02*
X271994253Y-48800000D01*
X272794253Y-48800000D02*
X272794253Y-48800000D01*
X273594253Y-48800000D02*
X273594253Y-48800000D01*
X274394253Y-48800000D02*
X274394253Y-48800000D01*
X275194253Y-48800000D02*
X275194253Y-48800000D01*
X275994253Y-48800000D02*
X275994253Y-48800000D01*
X276794253Y-48800000D02*
X276794253Y-48800000D01*
X277594253Y-48800000D02*
X277594253Y-48800000D01*
X278394253Y-48800000D02*
X278394253Y-48800000D01*
X279194253Y-48800000D02*
X279194253Y-48800000D01*
X279994253Y-48800000D02*
X279994253Y-48800000D01*
X280794253Y-48800000D02*
X280794253Y-48800000D01*
X281594253Y-48800000D02*
X281594253Y-48800000D01*
X282394253Y-48800000D02*
X282394253Y-48800000D01*
X283194253Y-48800000D02*
X283194253Y-48800000D01*
X283994253Y-48800000D02*
X283994253Y-48800000D01*
X284794253Y-48800000D02*
X284794253Y-48800000D01*
X285594253Y-48800000D02*
X285594253Y-48800000D01*
X286394253Y-48800000D02*
X286394253Y-48800000D01*
X287194253Y-48800000D02*
X287194253Y-48800000D01*
X287994253Y-48800000D02*
X287994253Y-48800000D01*
X288794253Y-48800000D02*
X288794253Y-48800000D01*
X289594253Y-48800000D02*
X289594253Y-48800000D01*
X290394253Y-48800000D02*
X290394253Y-48800000D01*
X291194253Y-48800000D02*
X291194253Y-48800000D01*
X291994253Y-48800000D02*
X291994253Y-48800000D01*
X292794253Y-48800000D02*
X292794253Y-48800000D01*
X293594253Y-48800000D02*
X293594253Y-48800000D01*
X294394253Y-48800000D02*
X294394253Y-48800000D01*
X295194253Y-48800000D02*
X295194253Y-48800000D01*
X295994253Y-48800000D02*
X295994253Y-48800000D01*
X296794253Y-48800000D02*
X296794253Y-48800000D01*
X297594253Y-48800000D02*
X297594253Y-48800000D01*
X298394253Y-48800000D02*
X298394253Y-48800000D01*
X299194253Y-48800000D02*
X299194253Y-48800000D01*
X299994253Y-48800000D02*
X299994253Y-48800000D01*
X300794253Y-48800000D02*
X300794253Y-48800000D01*
X301594253Y-48800000D02*
X301594253Y-48800000D01*
X302394253Y-48800000D02*
X302394253Y-48800000D01*
X303194253Y-48800000D02*
X303194253Y-48800000D01*
X303994253Y-48800000D02*
X303994253Y-48800000D01*
X304794253Y-48800000D02*
X304794253Y-48800000D01*
X305594253Y-48800000D02*
X305594253Y-48800000D01*
D11*
X299650000Y-106900000D02*
G75*
G03*
X299650000Y-106900000I-4000000J0D01*
G01*
X161919253Y-21925000D02*
X161703422Y-23221172D01*
X161521041Y-23664862D02*
X160762907Y-24738117D01*
X160405692Y-25058307D02*
X159256203Y-25694955D01*
X158795279Y-25827893D02*
X157483305Y-25901172D01*
X157010444Y-25820390D02*
X155797207Y-25315711D01*
X155406558Y-25037292D02*
X154533620Y-24055139D01*
X154302964Y-23634519D02*
X153944133Y-22370444D01*
X153919394Y-21891371D02*
X154146114Y-20597059D01*
X154332219Y-20154918D02*
X155099349Y-19088074D01*
X155459243Y-18770898D02*
X156614044Y-18143937D01*
X157076069Y-18014879D02*
X158388613Y-17952632D01*
X158860778Y-18037387D02*
X160069729Y-18552249D01*
X160458024Y-18833942D02*
X161322674Y-19823399D01*
X161549786Y-20245943D02*
X161897977Y-21512990D01*
D12*
X275300000Y-27350000D02*
X275300000Y-27350000D01*
X275266335Y-28149054D02*
X275266335Y-28149054D01*
X275165581Y-28942446D02*
X275165581Y-28942446D01*
X274998451Y-29724552D02*
X274998451Y-29724552D01*
X274766129Y-30489828D02*
X274766129Y-30489828D01*
X274470262Y-31232853D02*
X274470262Y-31232853D01*
X274112947Y-31948358D02*
X274112947Y-31948358D01*
X273696717Y-32631274D02*
X273696717Y-32631274D01*
X273224520Y-33276760D02*
X273224520Y-33276760D01*
X272699705Y-33880242D02*
X272699705Y-33880242D01*
X272125989Y-34437443D02*
X272125989Y-34437443D01*
X271507440Y-34944413D02*
X271507440Y-34944413D01*
X270848441Y-35397560D02*
X270848441Y-35397560D01*
X270153663Y-35793672D02*
X270153663Y-35793672D01*
X269428029Y-36129943D02*
X269428029Y-36129943D01*
X268676683Y-36403987D02*
X268676683Y-36403987D01*
X267904949Y-36613864D02*
X267904949Y-36613864D01*
X267118297Y-36758086D02*
X267118297Y-36758086D01*
X266322301Y-36835631D02*
X266322301Y-36835631D01*
X265522604Y-36845949D02*
X265522604Y-36845949D01*
X264724873Y-36788967D02*
X264724873Y-36788967D01*
X263934761Y-36665089D02*
X263934761Y-36665089D01*
X263157869Y-36475193D02*
X263157869Y-36475193D01*
X262399703Y-36220624D02*
X262399703Y-36220624D01*
X261665635Y-35903188D02*
X261665635Y-35903188D01*
X260960868Y-35525133D02*
X260960868Y-35525133D01*
X260290397Y-35089139D02*
X260290397Y-35089139D01*
X259658974Y-34598296D02*
X259658974Y-34598296D01*
X259071073Y-34056083D02*
X259071073Y-34056083D01*
X258530862Y-33466342D02*
X258530862Y-33466342D01*
X258042170Y-32833254D02*
X258042170Y-32833254D01*
X257608458Y-32161304D02*
X257608458Y-32161304D01*
X257232802Y-31455256D02*
X257232802Y-31455256D01*
X256917863Y-30720112D02*
X256917863Y-30720112D01*
X256665875Y-29961084D02*
X256665875Y-29961084D01*
X256478621Y-29183551D02*
X256478621Y-29183551D01*
X256357431Y-28393023D02*
X256357431Y-28393023D01*
X256303162Y-27595103D02*
X256303162Y-27595103D01*
X256316199Y-26795445D02*
X256316199Y-26795445D01*
X256396450Y-25999718D02*
X256396450Y-25999718D01*
X256543346Y-25213561D02*
X256543346Y-25213561D01*
X256755846Y-24442545D02*
X256755846Y-24442545D01*
X257032444Y-23692135D02*
X257032444Y-23692135D01*
X257371180Y-22967648D02*
X257371180Y-22967648D01*
X257769652Y-22274221D02*
X257769652Y-22274221D01*
X258225038Y-21616767D02*
X258225038Y-21616767D01*
X258734109Y-20999945D02*
X258734109Y-20999945D01*
X259293257Y-20428128D02*
X259293257Y-20428128D01*
X259898520Y-19905368D02*
X259898520Y-19905368D01*
X260545608Y-19435369D02*
X260545608Y-19435369D01*
X261229936Y-19021463D02*
X261229936Y-19021463D01*
X261946652Y-18666584D02*
X261946652Y-18666584D01*
X262690678Y-18373245D02*
X262690678Y-18373245D01*
X263456740Y-18143527D02*
X263456740Y-18143527D01*
X264239410Y-17979057D02*
X264239410Y-17979057D01*
X265033139Y-17881001D02*
X265033139Y-17881001D01*
X265832304Y-17850054D02*
X265832304Y-17850054D01*
X266631240Y-17886436D02*
X266631240Y-17886436D01*
X267424284Y-17989887D02*
X267424284Y-17989887D01*
X268205817Y-18159676D02*
X268205817Y-18159676D01*
X268970300Y-18394599D02*
X268970300Y-18394599D01*
X269712313Y-18692991D02*
X269712313Y-18692991D01*
X270426599Y-19052737D02*
X270426599Y-19052737D01*
X271108096Y-19471287D02*
X271108096Y-19471287D01*
X271751973Y-19945675D02*
X271751973Y-19945675D01*
X272353667Y-20472540D02*
X272353667Y-20472540D01*
X272908913Y-21048147D02*
X272908913Y-21048147D01*
X273413777Y-21668416D02*
X273413777Y-21668416D01*
X273864681Y-22328952D02*
X273864681Y-22328952D01*
X274258428Y-23025074D02*
X274258428Y-23025074D01*
X274592229Y-23751847D02*
X274592229Y-23751847D01*
X274863717Y-24504121D02*
X274863717Y-24504121D01*
X275070968Y-25276564D02*
X275070968Y-25276564D01*
X275212515Y-26063702D02*
X275212515Y-26063702D01*
X275287352Y-26859957D02*
X275287352Y-26859957D01*
M02*
