%TF.GenerationSoftware,KiCad,Pcbnew,7.0.1-0*%
%TF.CreationDate,2023-04-15T21:16:29+09:00*%
%TF.ProjectId,Sandy_Plate_Bottom,53616e64-795f-4506-9c61-74655f426f74,v.1 (042)*%
%TF.SameCoordinates,Original*%
%TF.FileFunction,Drillmap*%
%TF.FilePolarity,Positive*%
%FSLAX45Y45*%
G04 Gerber Fmt 4.5, Leading zero omitted, Abs format (unit mm)*
G04 Created by KiCad (PCBNEW 7.0.1-0) date 2023-04-15 21:16:29*
%MOMM*%
%LPD*%
G01*
G04 APERTURE LIST*
%ADD10C,0.200000*%
%ADD11C,0.220000*%
%ADD12C,0.240000*%
%ADD13C,0.249940*%
G04 APERTURE END LIST*
D10*
D11*
X9817500Y-10582500D02*
X10037500Y-10802500D01*
X10037500Y-10582500D02*
X9817500Y-10802500D01*
X10922500Y-2022500D02*
X11142500Y-2242500D01*
X11142500Y-2022500D02*
X10922500Y-2242500D01*
X19972500Y-10582500D02*
X20192500Y-10802500D01*
X20192500Y-10582500D02*
X19972500Y-10802500D01*
X20447500Y-2022500D02*
X20667500Y-2242500D01*
X20667500Y-2022500D02*
X20447500Y-2242500D01*
X23807500Y-10582500D02*
X24027500Y-10802500D01*
X24027500Y-10582500D02*
X23807500Y-10802500D01*
D12*
X2017496Y-7357460D02*
G75*
G03*
X2017496Y-7357460I-120000J0D01*
G01*
D10*
X1872496Y-7477460D02*
X1922496Y-7477460D01*
X1922496Y-7477460D02*
G75*
G03*
X1922496Y-7237460I0J120000D01*
G01*
X1922496Y-7237460D02*
X1872496Y-7237460D01*
X1872496Y-7237460D02*
G75*
G03*
X1872496Y-7477460I0J-120000D01*
G01*
D12*
X14482496Y-6407460D02*
G75*
G03*
X14482496Y-6407460I-120000J0D01*
G01*
D10*
X14222496Y-6527460D02*
X14502496Y-6527460D01*
X14502496Y-6527460D02*
G75*
G03*
X14502496Y-6287460I0J120000D01*
G01*
X14502496Y-6287460D02*
X14222496Y-6287460D01*
X14222496Y-6287460D02*
G75*
G03*
X14222496Y-6527460I0J-120000D01*
G01*
D12*
X20712496Y-10227460D02*
G75*
G03*
X20712496Y-10227460I-120000J0D01*
G01*
D10*
X20452496Y-10347460D02*
X20732496Y-10347460D01*
X20732496Y-10347460D02*
G75*
G03*
X20732496Y-10107460I0J120000D01*
G01*
X20732496Y-10107460D02*
X20452496Y-10107460D01*
X20452496Y-10107460D02*
G75*
G03*
X20452496Y-10347460I0J-120000D01*
G01*
D12*
X27667496Y-4497460D02*
G75*
G03*
X27667496Y-4497460I-120000J0D01*
G01*
D10*
X27407496Y-4617460D02*
X27687496Y-4617460D01*
X27687496Y-4617460D02*
G75*
G03*
X27687496Y-4377460I0J120000D01*
G01*
X27687496Y-4377460D02*
X27407496Y-4377460D01*
X27407496Y-4377460D02*
G75*
G03*
X27407496Y-4617460I0J-120000D01*
G01*
D12*
X29807496Y-7357460D02*
G75*
G03*
X29807496Y-7357460I-120000J0D01*
G01*
D10*
X29712496Y-7237460D02*
X29662496Y-7237460D01*
X29662496Y-7237460D02*
G75*
G03*
X29662496Y-7477460I0J-120000D01*
G01*
X29662496Y-7477460D02*
X29712496Y-7477460D01*
X29712496Y-7477460D02*
G75*
G03*
X29712496Y-7237460I0J120000D01*
G01*
D13*
X4062496Y-4372490D02*
X4062496Y-4622430D01*
X3937526Y-4497460D02*
X4187466Y-4497460D01*
D10*
X1775115Y-11494984D02*
X1775115Y-11294984D01*
X1775115Y-11294984D02*
X1822734Y-11294984D01*
X1822734Y-11294984D02*
X1851305Y-11304508D01*
X1851305Y-11304508D02*
X1870353Y-11323555D01*
X1870353Y-11323555D02*
X1879877Y-11342603D01*
X1879877Y-11342603D02*
X1889401Y-11380698D01*
X1889401Y-11380698D02*
X1889401Y-11409269D01*
X1889401Y-11409269D02*
X1879877Y-11447365D01*
X1879877Y-11447365D02*
X1870353Y-11466412D01*
X1870353Y-11466412D02*
X1851305Y-11485460D01*
X1851305Y-11485460D02*
X1822734Y-11494984D01*
X1822734Y-11494984D02*
X1775115Y-11494984D01*
X1975115Y-11494984D02*
X1975115Y-11361650D01*
X1975115Y-11399746D02*
X1984639Y-11380698D01*
X1984639Y-11380698D02*
X1994163Y-11371174D01*
X1994163Y-11371174D02*
X2013210Y-11361650D01*
X2013210Y-11361650D02*
X2032258Y-11361650D01*
X2098925Y-11494984D02*
X2098925Y-11361650D01*
X2098925Y-11294984D02*
X2089401Y-11304508D01*
X2089401Y-11304508D02*
X2098925Y-11314031D01*
X2098925Y-11314031D02*
X2108448Y-11304508D01*
X2108448Y-11304508D02*
X2098925Y-11294984D01*
X2098925Y-11294984D02*
X2098925Y-11314031D01*
X2222734Y-11494984D02*
X2203686Y-11485460D01*
X2203686Y-11485460D02*
X2194163Y-11466412D01*
X2194163Y-11466412D02*
X2194163Y-11294984D01*
X2327496Y-11494984D02*
X2308448Y-11485460D01*
X2308448Y-11485460D02*
X2298925Y-11466412D01*
X2298925Y-11466412D02*
X2298925Y-11294984D01*
X2556067Y-11494984D02*
X2556067Y-11294984D01*
X2556067Y-11294984D02*
X2622734Y-11437841D01*
X2622734Y-11437841D02*
X2689401Y-11294984D01*
X2689401Y-11294984D02*
X2689401Y-11494984D01*
X2870353Y-11494984D02*
X2870353Y-11390222D01*
X2870353Y-11390222D02*
X2860829Y-11371174D01*
X2860829Y-11371174D02*
X2841782Y-11361650D01*
X2841782Y-11361650D02*
X2803686Y-11361650D01*
X2803686Y-11361650D02*
X2784639Y-11371174D01*
X2870353Y-11485460D02*
X2851305Y-11494984D01*
X2851305Y-11494984D02*
X2803686Y-11494984D01*
X2803686Y-11494984D02*
X2784639Y-11485460D01*
X2784639Y-11485460D02*
X2775115Y-11466412D01*
X2775115Y-11466412D02*
X2775115Y-11447365D01*
X2775115Y-11447365D02*
X2784639Y-11428317D01*
X2784639Y-11428317D02*
X2803686Y-11418793D01*
X2803686Y-11418793D02*
X2851305Y-11418793D01*
X2851305Y-11418793D02*
X2870353Y-11409269D01*
X2965591Y-11361650D02*
X2965591Y-11561650D01*
X2965591Y-11371174D02*
X2984639Y-11361650D01*
X2984639Y-11361650D02*
X3022734Y-11361650D01*
X3022734Y-11361650D02*
X3041782Y-11371174D01*
X3041782Y-11371174D02*
X3051305Y-11380698D01*
X3051305Y-11380698D02*
X3060829Y-11399746D01*
X3060829Y-11399746D02*
X3060829Y-11456888D01*
X3060829Y-11456888D02*
X3051305Y-11475936D01*
X3051305Y-11475936D02*
X3041782Y-11485460D01*
X3041782Y-11485460D02*
X3022734Y-11494984D01*
X3022734Y-11494984D02*
X2984639Y-11494984D01*
X2984639Y-11494984D02*
X2965591Y-11485460D01*
X3146544Y-11475936D02*
X3156067Y-11485460D01*
X3156067Y-11485460D02*
X3146544Y-11494984D01*
X3146544Y-11494984D02*
X3137020Y-11485460D01*
X3137020Y-11485460D02*
X3146544Y-11475936D01*
X3146544Y-11475936D02*
X3146544Y-11494984D01*
X3146544Y-11371174D02*
X3156067Y-11380698D01*
X3156067Y-11380698D02*
X3146544Y-11390222D01*
X3146544Y-11390222D02*
X3137020Y-11380698D01*
X3137020Y-11380698D02*
X3146544Y-11371174D01*
X3146544Y-11371174D02*
X3146544Y-11390222D01*
X1327496Y-11722460D02*
X1527496Y-11922460D01*
X1527496Y-11722460D02*
X1327496Y-11922460D01*
X1765591Y-11734031D02*
X1775115Y-11724508D01*
X1775115Y-11724508D02*
X1794163Y-11714984D01*
X1794163Y-11714984D02*
X1841782Y-11714984D01*
X1841782Y-11714984D02*
X1860829Y-11724508D01*
X1860829Y-11724508D02*
X1870353Y-11734031D01*
X1870353Y-11734031D02*
X1879877Y-11753079D01*
X1879877Y-11753079D02*
X1879877Y-11772127D01*
X1879877Y-11772127D02*
X1870353Y-11800698D01*
X1870353Y-11800698D02*
X1756067Y-11914984D01*
X1756067Y-11914984D02*
X1879877Y-11914984D01*
X1965591Y-11895936D02*
X1975115Y-11905460D01*
X1975115Y-11905460D02*
X1965591Y-11914984D01*
X1965591Y-11914984D02*
X1956067Y-11905460D01*
X1956067Y-11905460D02*
X1965591Y-11895936D01*
X1965591Y-11895936D02*
X1965591Y-11914984D01*
X2051305Y-11734031D02*
X2060829Y-11724508D01*
X2060829Y-11724508D02*
X2079877Y-11714984D01*
X2079877Y-11714984D02*
X2127496Y-11714984D01*
X2127496Y-11714984D02*
X2146544Y-11724508D01*
X2146544Y-11724508D02*
X2156067Y-11734031D01*
X2156067Y-11734031D02*
X2165591Y-11753079D01*
X2165591Y-11753079D02*
X2165591Y-11772127D01*
X2165591Y-11772127D02*
X2156067Y-11800698D01*
X2156067Y-11800698D02*
X2041782Y-11914984D01*
X2041782Y-11914984D02*
X2165591Y-11914984D01*
X2289401Y-11714984D02*
X2308448Y-11714984D01*
X2308448Y-11714984D02*
X2327496Y-11724508D01*
X2327496Y-11724508D02*
X2337020Y-11734031D01*
X2337020Y-11734031D02*
X2346544Y-11753079D01*
X2346544Y-11753079D02*
X2356067Y-11791174D01*
X2356067Y-11791174D02*
X2356067Y-11838793D01*
X2356067Y-11838793D02*
X2346544Y-11876888D01*
X2346544Y-11876888D02*
X2337020Y-11895936D01*
X2337020Y-11895936D02*
X2327496Y-11905460D01*
X2327496Y-11905460D02*
X2308448Y-11914984D01*
X2308448Y-11914984D02*
X2289401Y-11914984D01*
X2289401Y-11914984D02*
X2270353Y-11905460D01*
X2270353Y-11905460D02*
X2260829Y-11895936D01*
X2260829Y-11895936D02*
X2251306Y-11876888D01*
X2251306Y-11876888D02*
X2241782Y-11838793D01*
X2241782Y-11838793D02*
X2241782Y-11791174D01*
X2241782Y-11791174D02*
X2251306Y-11753079D01*
X2251306Y-11753079D02*
X2260829Y-11734031D01*
X2260829Y-11734031D02*
X2270353Y-11724508D01*
X2270353Y-11724508D02*
X2289401Y-11714984D01*
X2479877Y-11714984D02*
X2498925Y-11714984D01*
X2498925Y-11714984D02*
X2517972Y-11724508D01*
X2517972Y-11724508D02*
X2527496Y-11734031D01*
X2527496Y-11734031D02*
X2537020Y-11753079D01*
X2537020Y-11753079D02*
X2546544Y-11791174D01*
X2546544Y-11791174D02*
X2546544Y-11838793D01*
X2546544Y-11838793D02*
X2537020Y-11876888D01*
X2537020Y-11876888D02*
X2527496Y-11895936D01*
X2527496Y-11895936D02*
X2517972Y-11905460D01*
X2517972Y-11905460D02*
X2498925Y-11914984D01*
X2498925Y-11914984D02*
X2479877Y-11914984D01*
X2479877Y-11914984D02*
X2460829Y-11905460D01*
X2460829Y-11905460D02*
X2451306Y-11895936D01*
X2451306Y-11895936D02*
X2441782Y-11876888D01*
X2441782Y-11876888D02*
X2432258Y-11838793D01*
X2432258Y-11838793D02*
X2432258Y-11791174D01*
X2432258Y-11791174D02*
X2441782Y-11753079D01*
X2441782Y-11753079D02*
X2451306Y-11734031D01*
X2451306Y-11734031D02*
X2460829Y-11724508D01*
X2460829Y-11724508D02*
X2479877Y-11714984D01*
X2632258Y-11914984D02*
X2632258Y-11781650D01*
X2632258Y-11800698D02*
X2641782Y-11791174D01*
X2641782Y-11791174D02*
X2660829Y-11781650D01*
X2660829Y-11781650D02*
X2689401Y-11781650D01*
X2689401Y-11781650D02*
X2708448Y-11791174D01*
X2708448Y-11791174D02*
X2717972Y-11810222D01*
X2717972Y-11810222D02*
X2717972Y-11914984D01*
X2717972Y-11810222D02*
X2727496Y-11791174D01*
X2727496Y-11791174D02*
X2746544Y-11781650D01*
X2746544Y-11781650D02*
X2775115Y-11781650D01*
X2775115Y-11781650D02*
X2794163Y-11791174D01*
X2794163Y-11791174D02*
X2803686Y-11810222D01*
X2803686Y-11810222D02*
X2803686Y-11914984D01*
X2898925Y-11914984D02*
X2898925Y-11781650D01*
X2898925Y-11800698D02*
X2908448Y-11791174D01*
X2908448Y-11791174D02*
X2927496Y-11781650D01*
X2927496Y-11781650D02*
X2956067Y-11781650D01*
X2956067Y-11781650D02*
X2975115Y-11791174D01*
X2975115Y-11791174D02*
X2984639Y-11810222D01*
X2984639Y-11810222D02*
X2984639Y-11914984D01*
X2984639Y-11810222D02*
X2994163Y-11791174D01*
X2994163Y-11791174D02*
X3013210Y-11781650D01*
X3013210Y-11781650D02*
X3041782Y-11781650D01*
X3041782Y-11781650D02*
X3060829Y-11791174D01*
X3060829Y-11791174D02*
X3070353Y-11810222D01*
X3070353Y-11810222D02*
X3070353Y-11914984D01*
X3460829Y-11705460D02*
X3289401Y-11962603D01*
X3717972Y-11714984D02*
X3737020Y-11714984D01*
X3737020Y-11714984D02*
X3756068Y-11724508D01*
X3756068Y-11724508D02*
X3765591Y-11734031D01*
X3765591Y-11734031D02*
X3775115Y-11753079D01*
X3775115Y-11753079D02*
X3784639Y-11791174D01*
X3784639Y-11791174D02*
X3784639Y-11838793D01*
X3784639Y-11838793D02*
X3775115Y-11876888D01*
X3775115Y-11876888D02*
X3765591Y-11895936D01*
X3765591Y-11895936D02*
X3756068Y-11905460D01*
X3756068Y-11905460D02*
X3737020Y-11914984D01*
X3737020Y-11914984D02*
X3717972Y-11914984D01*
X3717972Y-11914984D02*
X3698925Y-11905460D01*
X3698925Y-11905460D02*
X3689401Y-11895936D01*
X3689401Y-11895936D02*
X3679877Y-11876888D01*
X3679877Y-11876888D02*
X3670353Y-11838793D01*
X3670353Y-11838793D02*
X3670353Y-11791174D01*
X3670353Y-11791174D02*
X3679877Y-11753079D01*
X3679877Y-11753079D02*
X3689401Y-11734031D01*
X3689401Y-11734031D02*
X3698925Y-11724508D01*
X3698925Y-11724508D02*
X3717972Y-11714984D01*
X3870353Y-11895936D02*
X3879877Y-11905460D01*
X3879877Y-11905460D02*
X3870353Y-11914984D01*
X3870353Y-11914984D02*
X3860829Y-11905460D01*
X3860829Y-11905460D02*
X3870353Y-11895936D01*
X3870353Y-11895936D02*
X3870353Y-11914984D01*
X4003687Y-11714984D02*
X4022734Y-11714984D01*
X4022734Y-11714984D02*
X4041782Y-11724508D01*
X4041782Y-11724508D02*
X4051306Y-11734031D01*
X4051306Y-11734031D02*
X4060829Y-11753079D01*
X4060829Y-11753079D02*
X4070353Y-11791174D01*
X4070353Y-11791174D02*
X4070353Y-11838793D01*
X4070353Y-11838793D02*
X4060829Y-11876888D01*
X4060829Y-11876888D02*
X4051306Y-11895936D01*
X4051306Y-11895936D02*
X4041782Y-11905460D01*
X4041782Y-11905460D02*
X4022734Y-11914984D01*
X4022734Y-11914984D02*
X4003687Y-11914984D01*
X4003687Y-11914984D02*
X3984639Y-11905460D01*
X3984639Y-11905460D02*
X3975115Y-11895936D01*
X3975115Y-11895936D02*
X3965591Y-11876888D01*
X3965591Y-11876888D02*
X3956068Y-11838793D01*
X3956068Y-11838793D02*
X3956068Y-11791174D01*
X3956068Y-11791174D02*
X3965591Y-11753079D01*
X3965591Y-11753079D02*
X3975115Y-11734031D01*
X3975115Y-11734031D02*
X3984639Y-11724508D01*
X3984639Y-11724508D02*
X4003687Y-11714984D01*
X4184639Y-11800698D02*
X4165591Y-11791174D01*
X4165591Y-11791174D02*
X4156068Y-11781650D01*
X4156068Y-11781650D02*
X4146544Y-11762603D01*
X4146544Y-11762603D02*
X4146544Y-11753079D01*
X4146544Y-11753079D02*
X4156068Y-11734031D01*
X4156068Y-11734031D02*
X4165591Y-11724508D01*
X4165591Y-11724508D02*
X4184639Y-11714984D01*
X4184639Y-11714984D02*
X4222734Y-11714984D01*
X4222734Y-11714984D02*
X4241782Y-11724508D01*
X4241782Y-11724508D02*
X4251306Y-11734031D01*
X4251306Y-11734031D02*
X4260830Y-11753079D01*
X4260830Y-11753079D02*
X4260830Y-11762603D01*
X4260830Y-11762603D02*
X4251306Y-11781650D01*
X4251306Y-11781650D02*
X4241782Y-11791174D01*
X4241782Y-11791174D02*
X4222734Y-11800698D01*
X4222734Y-11800698D02*
X4184639Y-11800698D01*
X4184639Y-11800698D02*
X4165591Y-11810222D01*
X4165591Y-11810222D02*
X4156068Y-11819746D01*
X4156068Y-11819746D02*
X4146544Y-11838793D01*
X4146544Y-11838793D02*
X4146544Y-11876888D01*
X4146544Y-11876888D02*
X4156068Y-11895936D01*
X4156068Y-11895936D02*
X4165591Y-11905460D01*
X4165591Y-11905460D02*
X4184639Y-11914984D01*
X4184639Y-11914984D02*
X4222734Y-11914984D01*
X4222734Y-11914984D02*
X4241782Y-11905460D01*
X4241782Y-11905460D02*
X4251306Y-11895936D01*
X4251306Y-11895936D02*
X4260830Y-11876888D01*
X4260830Y-11876888D02*
X4260830Y-11838793D01*
X4260830Y-11838793D02*
X4251306Y-11819746D01*
X4251306Y-11819746D02*
X4241782Y-11810222D01*
X4241782Y-11810222D02*
X4222734Y-11800698D01*
X4432258Y-11714984D02*
X4394163Y-11714984D01*
X4394163Y-11714984D02*
X4375115Y-11724508D01*
X4375115Y-11724508D02*
X4365591Y-11734031D01*
X4365591Y-11734031D02*
X4346544Y-11762603D01*
X4346544Y-11762603D02*
X4337020Y-11800698D01*
X4337020Y-11800698D02*
X4337020Y-11876888D01*
X4337020Y-11876888D02*
X4346544Y-11895936D01*
X4346544Y-11895936D02*
X4356068Y-11905460D01*
X4356068Y-11905460D02*
X4375115Y-11914984D01*
X4375115Y-11914984D02*
X4413211Y-11914984D01*
X4413211Y-11914984D02*
X4432258Y-11905460D01*
X4432258Y-11905460D02*
X4441782Y-11895936D01*
X4441782Y-11895936D02*
X4451306Y-11876888D01*
X4451306Y-11876888D02*
X4451306Y-11829269D01*
X4451306Y-11829269D02*
X4441782Y-11810222D01*
X4441782Y-11810222D02*
X4432258Y-11800698D01*
X4432258Y-11800698D02*
X4413211Y-11791174D01*
X4413211Y-11791174D02*
X4375115Y-11791174D01*
X4375115Y-11791174D02*
X4356068Y-11800698D01*
X4356068Y-11800698D02*
X4346544Y-11810222D01*
X4346544Y-11810222D02*
X4337020Y-11829269D01*
X4622734Y-11714984D02*
X4584639Y-11714984D01*
X4584639Y-11714984D02*
X4565591Y-11724508D01*
X4565591Y-11724508D02*
X4556068Y-11734031D01*
X4556068Y-11734031D02*
X4537020Y-11762603D01*
X4537020Y-11762603D02*
X4527496Y-11800698D01*
X4527496Y-11800698D02*
X4527496Y-11876888D01*
X4527496Y-11876888D02*
X4537020Y-11895936D01*
X4537020Y-11895936D02*
X4546544Y-11905460D01*
X4546544Y-11905460D02*
X4565591Y-11914984D01*
X4565591Y-11914984D02*
X4603687Y-11914984D01*
X4603687Y-11914984D02*
X4622734Y-11905460D01*
X4622734Y-11905460D02*
X4632258Y-11895936D01*
X4632258Y-11895936D02*
X4641782Y-11876888D01*
X4641782Y-11876888D02*
X4641782Y-11829269D01*
X4641782Y-11829269D02*
X4632258Y-11810222D01*
X4632258Y-11810222D02*
X4622734Y-11800698D01*
X4622734Y-11800698D02*
X4603687Y-11791174D01*
X4603687Y-11791174D02*
X4565591Y-11791174D01*
X4565591Y-11791174D02*
X4546544Y-11800698D01*
X4546544Y-11800698D02*
X4537020Y-11810222D01*
X4537020Y-11810222D02*
X4527496Y-11829269D01*
X4717972Y-11714984D02*
X4717972Y-11753079D01*
X4794163Y-11714984D02*
X4794163Y-11753079D01*
X5089401Y-11991174D02*
X5079877Y-11981650D01*
X5079877Y-11981650D02*
X5060830Y-11953079D01*
X5060830Y-11953079D02*
X5051306Y-11934031D01*
X5051306Y-11934031D02*
X5041782Y-11905460D01*
X5041782Y-11905460D02*
X5032258Y-11857841D01*
X5032258Y-11857841D02*
X5032258Y-11819746D01*
X5032258Y-11819746D02*
X5041782Y-11772127D01*
X5041782Y-11772127D02*
X5051306Y-11743555D01*
X5051306Y-11743555D02*
X5060830Y-11724508D01*
X5060830Y-11724508D02*
X5079877Y-11695936D01*
X5079877Y-11695936D02*
X5089401Y-11686412D01*
X5260830Y-11714984D02*
X5165592Y-11714984D01*
X5165592Y-11714984D02*
X5156068Y-11810222D01*
X5156068Y-11810222D02*
X5165592Y-11800698D01*
X5165592Y-11800698D02*
X5184639Y-11791174D01*
X5184639Y-11791174D02*
X5232258Y-11791174D01*
X5232258Y-11791174D02*
X5251306Y-11800698D01*
X5251306Y-11800698D02*
X5260830Y-11810222D01*
X5260830Y-11810222D02*
X5270353Y-11829269D01*
X5270353Y-11829269D02*
X5270353Y-11876888D01*
X5270353Y-11876888D02*
X5260830Y-11895936D01*
X5260830Y-11895936D02*
X5251306Y-11905460D01*
X5251306Y-11905460D02*
X5232258Y-11914984D01*
X5232258Y-11914984D02*
X5184639Y-11914984D01*
X5184639Y-11914984D02*
X5165592Y-11905460D01*
X5165592Y-11905460D02*
X5156068Y-11895936D01*
X5508449Y-11914984D02*
X5508449Y-11714984D01*
X5594163Y-11914984D02*
X5594163Y-11810222D01*
X5594163Y-11810222D02*
X5584639Y-11791174D01*
X5584639Y-11791174D02*
X5565592Y-11781650D01*
X5565592Y-11781650D02*
X5537020Y-11781650D01*
X5537020Y-11781650D02*
X5517973Y-11791174D01*
X5517973Y-11791174D02*
X5508449Y-11800698D01*
X5717972Y-11914984D02*
X5698925Y-11905460D01*
X5698925Y-11905460D02*
X5689401Y-11895936D01*
X5689401Y-11895936D02*
X5679877Y-11876888D01*
X5679877Y-11876888D02*
X5679877Y-11819746D01*
X5679877Y-11819746D02*
X5689401Y-11800698D01*
X5689401Y-11800698D02*
X5698925Y-11791174D01*
X5698925Y-11791174D02*
X5717972Y-11781650D01*
X5717972Y-11781650D02*
X5746544Y-11781650D01*
X5746544Y-11781650D02*
X5765592Y-11791174D01*
X5765592Y-11791174D02*
X5775115Y-11800698D01*
X5775115Y-11800698D02*
X5784639Y-11819746D01*
X5784639Y-11819746D02*
X5784639Y-11876888D01*
X5784639Y-11876888D02*
X5775115Y-11895936D01*
X5775115Y-11895936D02*
X5765592Y-11905460D01*
X5765592Y-11905460D02*
X5746544Y-11914984D01*
X5746544Y-11914984D02*
X5717972Y-11914984D01*
X5898925Y-11914984D02*
X5879877Y-11905460D01*
X5879877Y-11905460D02*
X5870353Y-11886412D01*
X5870353Y-11886412D02*
X5870353Y-11714984D01*
X6051306Y-11905460D02*
X6032258Y-11914984D01*
X6032258Y-11914984D02*
X5994163Y-11914984D01*
X5994163Y-11914984D02*
X5975115Y-11905460D01*
X5975115Y-11905460D02*
X5965592Y-11886412D01*
X5965592Y-11886412D02*
X5965592Y-11810222D01*
X5965592Y-11810222D02*
X5975115Y-11791174D01*
X5975115Y-11791174D02*
X5994163Y-11781650D01*
X5994163Y-11781650D02*
X6032258Y-11781650D01*
X6032258Y-11781650D02*
X6051306Y-11791174D01*
X6051306Y-11791174D02*
X6060830Y-11810222D01*
X6060830Y-11810222D02*
X6060830Y-11829269D01*
X6060830Y-11829269D02*
X5965592Y-11848317D01*
X6137020Y-11905460D02*
X6156068Y-11914984D01*
X6156068Y-11914984D02*
X6194163Y-11914984D01*
X6194163Y-11914984D02*
X6213211Y-11905460D01*
X6213211Y-11905460D02*
X6222734Y-11886412D01*
X6222734Y-11886412D02*
X6222734Y-11876888D01*
X6222734Y-11876888D02*
X6213211Y-11857841D01*
X6213211Y-11857841D02*
X6194163Y-11848317D01*
X6194163Y-11848317D02*
X6165592Y-11848317D01*
X6165592Y-11848317D02*
X6146544Y-11838793D01*
X6146544Y-11838793D02*
X6137020Y-11819746D01*
X6137020Y-11819746D02*
X6137020Y-11810222D01*
X6137020Y-11810222D02*
X6146544Y-11791174D01*
X6146544Y-11791174D02*
X6165592Y-11781650D01*
X6165592Y-11781650D02*
X6194163Y-11781650D01*
X6194163Y-11781650D02*
X6213211Y-11791174D01*
X6289401Y-11991174D02*
X6298925Y-11981650D01*
X6298925Y-11981650D02*
X6317973Y-11953079D01*
X6317973Y-11953079D02*
X6327496Y-11934031D01*
X6327496Y-11934031D02*
X6337020Y-11905460D01*
X6337020Y-11905460D02*
X6346544Y-11857841D01*
X6346544Y-11857841D02*
X6346544Y-11819746D01*
X6346544Y-11819746D02*
X6337020Y-11772127D01*
X6337020Y-11772127D02*
X6327496Y-11743555D01*
X6327496Y-11743555D02*
X6317973Y-11724508D01*
X6317973Y-11724508D02*
X6298925Y-11695936D01*
X6298925Y-11695936D02*
X6289401Y-11686412D01*
X6651306Y-11991174D02*
X6641782Y-11981650D01*
X6641782Y-11981650D02*
X6622734Y-11953079D01*
X6622734Y-11953079D02*
X6613211Y-11934031D01*
X6613211Y-11934031D02*
X6603687Y-11905460D01*
X6603687Y-11905460D02*
X6594163Y-11857841D01*
X6594163Y-11857841D02*
X6594163Y-11819746D01*
X6594163Y-11819746D02*
X6603687Y-11772127D01*
X6603687Y-11772127D02*
X6613211Y-11743555D01*
X6613211Y-11743555D02*
X6622734Y-11724508D01*
X6622734Y-11724508D02*
X6641782Y-11695936D01*
X6641782Y-11695936D02*
X6651306Y-11686412D01*
X6727496Y-11781650D02*
X6727496Y-11914984D01*
X6727496Y-11800698D02*
X6737020Y-11791174D01*
X6737020Y-11791174D02*
X6756068Y-11781650D01*
X6756068Y-11781650D02*
X6784639Y-11781650D01*
X6784639Y-11781650D02*
X6803687Y-11791174D01*
X6803687Y-11791174D02*
X6813211Y-11810222D01*
X6813211Y-11810222D02*
X6813211Y-11914984D01*
X6937020Y-11914984D02*
X6917973Y-11905460D01*
X6917973Y-11905460D02*
X6908449Y-11895936D01*
X6908449Y-11895936D02*
X6898925Y-11876888D01*
X6898925Y-11876888D02*
X6898925Y-11819746D01*
X6898925Y-11819746D02*
X6908449Y-11800698D01*
X6908449Y-11800698D02*
X6917973Y-11791174D01*
X6917973Y-11791174D02*
X6937020Y-11781650D01*
X6937020Y-11781650D02*
X6965592Y-11781650D01*
X6965592Y-11781650D02*
X6984639Y-11791174D01*
X6984639Y-11791174D02*
X6994163Y-11800698D01*
X6994163Y-11800698D02*
X7003687Y-11819746D01*
X7003687Y-11819746D02*
X7003687Y-11876888D01*
X7003687Y-11876888D02*
X6994163Y-11895936D01*
X6994163Y-11895936D02*
X6984639Y-11905460D01*
X6984639Y-11905460D02*
X6965592Y-11914984D01*
X6965592Y-11914984D02*
X6937020Y-11914984D01*
X7060830Y-11781650D02*
X7137020Y-11781650D01*
X7089401Y-11714984D02*
X7089401Y-11886412D01*
X7089401Y-11886412D02*
X7098925Y-11905460D01*
X7098925Y-11905460D02*
X7117973Y-11914984D01*
X7117973Y-11914984D02*
X7137020Y-11914984D01*
X7356068Y-11781650D02*
X7356068Y-11981650D01*
X7356068Y-11791174D02*
X7375115Y-11781650D01*
X7375115Y-11781650D02*
X7413211Y-11781650D01*
X7413211Y-11781650D02*
X7432258Y-11791174D01*
X7432258Y-11791174D02*
X7441782Y-11800698D01*
X7441782Y-11800698D02*
X7451306Y-11819746D01*
X7451306Y-11819746D02*
X7451306Y-11876888D01*
X7451306Y-11876888D02*
X7441782Y-11895936D01*
X7441782Y-11895936D02*
X7432258Y-11905460D01*
X7432258Y-11905460D02*
X7413211Y-11914984D01*
X7413211Y-11914984D02*
X7375115Y-11914984D01*
X7375115Y-11914984D02*
X7356068Y-11905460D01*
X7565592Y-11914984D02*
X7546544Y-11905460D01*
X7546544Y-11905460D02*
X7537020Y-11886412D01*
X7537020Y-11886412D02*
X7537020Y-11714984D01*
X7727496Y-11914984D02*
X7727496Y-11810222D01*
X7727496Y-11810222D02*
X7717973Y-11791174D01*
X7717973Y-11791174D02*
X7698925Y-11781650D01*
X7698925Y-11781650D02*
X7660830Y-11781650D01*
X7660830Y-11781650D02*
X7641782Y-11791174D01*
X7727496Y-11905460D02*
X7708449Y-11914984D01*
X7708449Y-11914984D02*
X7660830Y-11914984D01*
X7660830Y-11914984D02*
X7641782Y-11905460D01*
X7641782Y-11905460D02*
X7632258Y-11886412D01*
X7632258Y-11886412D02*
X7632258Y-11867365D01*
X7632258Y-11867365D02*
X7641782Y-11848317D01*
X7641782Y-11848317D02*
X7660830Y-11838793D01*
X7660830Y-11838793D02*
X7708449Y-11838793D01*
X7708449Y-11838793D02*
X7727496Y-11829269D01*
X7794163Y-11781650D02*
X7870354Y-11781650D01*
X7822735Y-11714984D02*
X7822735Y-11886412D01*
X7822735Y-11886412D02*
X7832258Y-11905460D01*
X7832258Y-11905460D02*
X7851306Y-11914984D01*
X7851306Y-11914984D02*
X7870354Y-11914984D01*
X8013211Y-11905460D02*
X7994163Y-11914984D01*
X7994163Y-11914984D02*
X7956068Y-11914984D01*
X7956068Y-11914984D02*
X7937020Y-11905460D01*
X7937020Y-11905460D02*
X7927496Y-11886412D01*
X7927496Y-11886412D02*
X7927496Y-11810222D01*
X7927496Y-11810222D02*
X7937020Y-11791174D01*
X7937020Y-11791174D02*
X7956068Y-11781650D01*
X7956068Y-11781650D02*
X7994163Y-11781650D01*
X7994163Y-11781650D02*
X8013211Y-11791174D01*
X8013211Y-11791174D02*
X8022735Y-11810222D01*
X8022735Y-11810222D02*
X8022735Y-11829269D01*
X8022735Y-11829269D02*
X7927496Y-11848317D01*
X8194163Y-11914984D02*
X8194163Y-11714984D01*
X8194163Y-11905460D02*
X8175116Y-11914984D01*
X8175116Y-11914984D02*
X8137020Y-11914984D01*
X8137020Y-11914984D02*
X8117973Y-11905460D01*
X8117973Y-11905460D02*
X8108449Y-11895936D01*
X8108449Y-11895936D02*
X8098925Y-11876888D01*
X8098925Y-11876888D02*
X8098925Y-11819746D01*
X8098925Y-11819746D02*
X8108449Y-11800698D01*
X8108449Y-11800698D02*
X8117973Y-11791174D01*
X8117973Y-11791174D02*
X8137020Y-11781650D01*
X8137020Y-11781650D02*
X8175116Y-11781650D01*
X8175116Y-11781650D02*
X8194163Y-11791174D01*
X8270354Y-11991174D02*
X8279877Y-11981650D01*
X8279877Y-11981650D02*
X8298925Y-11953079D01*
X8298925Y-11953079D02*
X8308449Y-11934031D01*
X8308449Y-11934031D02*
X8317973Y-11905460D01*
X8317973Y-11905460D02*
X8327496Y-11857841D01*
X8327496Y-11857841D02*
X8327496Y-11819746D01*
X8327496Y-11819746D02*
X8317973Y-11772127D01*
X8317973Y-11772127D02*
X8308449Y-11743555D01*
X8308449Y-11743555D02*
X8298925Y-11724508D01*
X8298925Y-11724508D02*
X8279877Y-11695936D01*
X8279877Y-11695936D02*
X8270354Y-11686412D01*
X1527496Y-12142460D02*
G75*
G03*
X1527496Y-12142460I-100000J0D01*
G01*
X1765591Y-12054031D02*
X1775115Y-12044508D01*
X1775115Y-12044508D02*
X1794163Y-12034984D01*
X1794163Y-12034984D02*
X1841782Y-12034984D01*
X1841782Y-12034984D02*
X1860829Y-12044508D01*
X1860829Y-12044508D02*
X1870353Y-12054031D01*
X1870353Y-12054031D02*
X1879877Y-12073079D01*
X1879877Y-12073079D02*
X1879877Y-12092127D01*
X1879877Y-12092127D02*
X1870353Y-12120698D01*
X1870353Y-12120698D02*
X1756067Y-12234984D01*
X1756067Y-12234984D02*
X1879877Y-12234984D01*
X1965591Y-12215936D02*
X1975115Y-12225460D01*
X1975115Y-12225460D02*
X1965591Y-12234984D01*
X1965591Y-12234984D02*
X1956067Y-12225460D01*
X1956067Y-12225460D02*
X1965591Y-12215936D01*
X1965591Y-12215936D02*
X1965591Y-12234984D01*
X2146544Y-12101650D02*
X2146544Y-12234984D01*
X2098925Y-12025460D02*
X2051305Y-12168317D01*
X2051305Y-12168317D02*
X2175115Y-12168317D01*
X2289401Y-12034984D02*
X2308448Y-12034984D01*
X2308448Y-12034984D02*
X2327496Y-12044508D01*
X2327496Y-12044508D02*
X2337020Y-12054031D01*
X2337020Y-12054031D02*
X2346544Y-12073079D01*
X2346544Y-12073079D02*
X2356067Y-12111174D01*
X2356067Y-12111174D02*
X2356067Y-12158793D01*
X2356067Y-12158793D02*
X2346544Y-12196888D01*
X2346544Y-12196888D02*
X2337020Y-12215936D01*
X2337020Y-12215936D02*
X2327496Y-12225460D01*
X2327496Y-12225460D02*
X2308448Y-12234984D01*
X2308448Y-12234984D02*
X2289401Y-12234984D01*
X2289401Y-12234984D02*
X2270353Y-12225460D01*
X2270353Y-12225460D02*
X2260829Y-12215936D01*
X2260829Y-12215936D02*
X2251306Y-12196888D01*
X2251306Y-12196888D02*
X2241782Y-12158793D01*
X2241782Y-12158793D02*
X2241782Y-12111174D01*
X2241782Y-12111174D02*
X2251306Y-12073079D01*
X2251306Y-12073079D02*
X2260829Y-12054031D01*
X2260829Y-12054031D02*
X2270353Y-12044508D01*
X2270353Y-12044508D02*
X2289401Y-12034984D01*
X2479877Y-12034984D02*
X2498925Y-12034984D01*
X2498925Y-12034984D02*
X2517972Y-12044508D01*
X2517972Y-12044508D02*
X2527496Y-12054031D01*
X2527496Y-12054031D02*
X2537020Y-12073079D01*
X2537020Y-12073079D02*
X2546544Y-12111174D01*
X2546544Y-12111174D02*
X2546544Y-12158793D01*
X2546544Y-12158793D02*
X2537020Y-12196888D01*
X2537020Y-12196888D02*
X2527496Y-12215936D01*
X2527496Y-12215936D02*
X2517972Y-12225460D01*
X2517972Y-12225460D02*
X2498925Y-12234984D01*
X2498925Y-12234984D02*
X2479877Y-12234984D01*
X2479877Y-12234984D02*
X2460829Y-12225460D01*
X2460829Y-12225460D02*
X2451306Y-12215936D01*
X2451306Y-12215936D02*
X2441782Y-12196888D01*
X2441782Y-12196888D02*
X2432258Y-12158793D01*
X2432258Y-12158793D02*
X2432258Y-12111174D01*
X2432258Y-12111174D02*
X2441782Y-12073079D01*
X2441782Y-12073079D02*
X2451306Y-12054031D01*
X2451306Y-12054031D02*
X2460829Y-12044508D01*
X2460829Y-12044508D02*
X2479877Y-12034984D01*
X2632258Y-12234984D02*
X2632258Y-12101650D01*
X2632258Y-12120698D02*
X2641782Y-12111174D01*
X2641782Y-12111174D02*
X2660829Y-12101650D01*
X2660829Y-12101650D02*
X2689401Y-12101650D01*
X2689401Y-12101650D02*
X2708448Y-12111174D01*
X2708448Y-12111174D02*
X2717972Y-12130222D01*
X2717972Y-12130222D02*
X2717972Y-12234984D01*
X2717972Y-12130222D02*
X2727496Y-12111174D01*
X2727496Y-12111174D02*
X2746544Y-12101650D01*
X2746544Y-12101650D02*
X2775115Y-12101650D01*
X2775115Y-12101650D02*
X2794163Y-12111174D01*
X2794163Y-12111174D02*
X2803686Y-12130222D01*
X2803686Y-12130222D02*
X2803686Y-12234984D01*
X2898925Y-12234984D02*
X2898925Y-12101650D01*
X2898925Y-12120698D02*
X2908448Y-12111174D01*
X2908448Y-12111174D02*
X2927496Y-12101650D01*
X2927496Y-12101650D02*
X2956067Y-12101650D01*
X2956067Y-12101650D02*
X2975115Y-12111174D01*
X2975115Y-12111174D02*
X2984639Y-12130222D01*
X2984639Y-12130222D02*
X2984639Y-12234984D01*
X2984639Y-12130222D02*
X2994163Y-12111174D01*
X2994163Y-12111174D02*
X3013210Y-12101650D01*
X3013210Y-12101650D02*
X3041782Y-12101650D01*
X3041782Y-12101650D02*
X3060829Y-12111174D01*
X3060829Y-12111174D02*
X3070353Y-12130222D01*
X3070353Y-12130222D02*
X3070353Y-12234984D01*
X3460829Y-12025460D02*
X3289401Y-12282603D01*
X3717972Y-12034984D02*
X3737020Y-12034984D01*
X3737020Y-12034984D02*
X3756068Y-12044508D01*
X3756068Y-12044508D02*
X3765591Y-12054031D01*
X3765591Y-12054031D02*
X3775115Y-12073079D01*
X3775115Y-12073079D02*
X3784639Y-12111174D01*
X3784639Y-12111174D02*
X3784639Y-12158793D01*
X3784639Y-12158793D02*
X3775115Y-12196888D01*
X3775115Y-12196888D02*
X3765591Y-12215936D01*
X3765591Y-12215936D02*
X3756068Y-12225460D01*
X3756068Y-12225460D02*
X3737020Y-12234984D01*
X3737020Y-12234984D02*
X3717972Y-12234984D01*
X3717972Y-12234984D02*
X3698925Y-12225460D01*
X3698925Y-12225460D02*
X3689401Y-12215936D01*
X3689401Y-12215936D02*
X3679877Y-12196888D01*
X3679877Y-12196888D02*
X3670353Y-12158793D01*
X3670353Y-12158793D02*
X3670353Y-12111174D01*
X3670353Y-12111174D02*
X3679877Y-12073079D01*
X3679877Y-12073079D02*
X3689401Y-12054031D01*
X3689401Y-12054031D02*
X3698925Y-12044508D01*
X3698925Y-12044508D02*
X3717972Y-12034984D01*
X3870353Y-12215936D02*
X3879877Y-12225460D01*
X3879877Y-12225460D02*
X3870353Y-12234984D01*
X3870353Y-12234984D02*
X3860829Y-12225460D01*
X3860829Y-12225460D02*
X3870353Y-12215936D01*
X3870353Y-12215936D02*
X3870353Y-12234984D01*
X4003687Y-12034984D02*
X4022734Y-12034984D01*
X4022734Y-12034984D02*
X4041782Y-12044508D01*
X4041782Y-12044508D02*
X4051306Y-12054031D01*
X4051306Y-12054031D02*
X4060829Y-12073079D01*
X4060829Y-12073079D02*
X4070353Y-12111174D01*
X4070353Y-12111174D02*
X4070353Y-12158793D01*
X4070353Y-12158793D02*
X4060829Y-12196888D01*
X4060829Y-12196888D02*
X4051306Y-12215936D01*
X4051306Y-12215936D02*
X4041782Y-12225460D01*
X4041782Y-12225460D02*
X4022734Y-12234984D01*
X4022734Y-12234984D02*
X4003687Y-12234984D01*
X4003687Y-12234984D02*
X3984639Y-12225460D01*
X3984639Y-12225460D02*
X3975115Y-12215936D01*
X3975115Y-12215936D02*
X3965591Y-12196888D01*
X3965591Y-12196888D02*
X3956068Y-12158793D01*
X3956068Y-12158793D02*
X3956068Y-12111174D01*
X3956068Y-12111174D02*
X3965591Y-12073079D01*
X3965591Y-12073079D02*
X3975115Y-12054031D01*
X3975115Y-12054031D02*
X3984639Y-12044508D01*
X3984639Y-12044508D02*
X4003687Y-12034984D01*
X4165591Y-12234984D02*
X4203687Y-12234984D01*
X4203687Y-12234984D02*
X4222734Y-12225460D01*
X4222734Y-12225460D02*
X4232258Y-12215936D01*
X4232258Y-12215936D02*
X4251306Y-12187365D01*
X4251306Y-12187365D02*
X4260830Y-12149269D01*
X4260830Y-12149269D02*
X4260830Y-12073079D01*
X4260830Y-12073079D02*
X4251306Y-12054031D01*
X4251306Y-12054031D02*
X4241782Y-12044508D01*
X4241782Y-12044508D02*
X4222734Y-12034984D01*
X4222734Y-12034984D02*
X4184639Y-12034984D01*
X4184639Y-12034984D02*
X4165591Y-12044508D01*
X4165591Y-12044508D02*
X4156068Y-12054031D01*
X4156068Y-12054031D02*
X4146544Y-12073079D01*
X4146544Y-12073079D02*
X4146544Y-12120698D01*
X4146544Y-12120698D02*
X4156068Y-12139746D01*
X4156068Y-12139746D02*
X4165591Y-12149269D01*
X4165591Y-12149269D02*
X4184639Y-12158793D01*
X4184639Y-12158793D02*
X4222734Y-12158793D01*
X4222734Y-12158793D02*
X4241782Y-12149269D01*
X4241782Y-12149269D02*
X4251306Y-12139746D01*
X4251306Y-12139746D02*
X4260830Y-12120698D01*
X4432258Y-12101650D02*
X4432258Y-12234984D01*
X4384639Y-12025460D02*
X4337020Y-12168317D01*
X4337020Y-12168317D02*
X4460830Y-12168317D01*
X4632258Y-12034984D02*
X4537020Y-12034984D01*
X4537020Y-12034984D02*
X4527496Y-12130222D01*
X4527496Y-12130222D02*
X4537020Y-12120698D01*
X4537020Y-12120698D02*
X4556068Y-12111174D01*
X4556068Y-12111174D02*
X4603687Y-12111174D01*
X4603687Y-12111174D02*
X4622734Y-12120698D01*
X4622734Y-12120698D02*
X4632258Y-12130222D01*
X4632258Y-12130222D02*
X4641782Y-12149269D01*
X4641782Y-12149269D02*
X4641782Y-12196888D01*
X4641782Y-12196888D02*
X4632258Y-12215936D01*
X4632258Y-12215936D02*
X4622734Y-12225460D01*
X4622734Y-12225460D02*
X4603687Y-12234984D01*
X4603687Y-12234984D02*
X4556068Y-12234984D01*
X4556068Y-12234984D02*
X4537020Y-12225460D01*
X4537020Y-12225460D02*
X4527496Y-12215936D01*
X4717972Y-12034984D02*
X4717972Y-12073079D01*
X4794163Y-12034984D02*
X4794163Y-12073079D01*
X5089401Y-12311174D02*
X5079877Y-12301650D01*
X5079877Y-12301650D02*
X5060830Y-12273079D01*
X5060830Y-12273079D02*
X5051306Y-12254031D01*
X5051306Y-12254031D02*
X5041782Y-12225460D01*
X5041782Y-12225460D02*
X5032258Y-12177841D01*
X5032258Y-12177841D02*
X5032258Y-12139746D01*
X5032258Y-12139746D02*
X5041782Y-12092127D01*
X5041782Y-12092127D02*
X5051306Y-12063555D01*
X5051306Y-12063555D02*
X5060830Y-12044508D01*
X5060830Y-12044508D02*
X5079877Y-12015936D01*
X5079877Y-12015936D02*
X5089401Y-12006412D01*
X5203687Y-12034984D02*
X5222734Y-12034984D01*
X5222734Y-12034984D02*
X5241782Y-12044508D01*
X5241782Y-12044508D02*
X5251306Y-12054031D01*
X5251306Y-12054031D02*
X5260830Y-12073079D01*
X5260830Y-12073079D02*
X5270353Y-12111174D01*
X5270353Y-12111174D02*
X5270353Y-12158793D01*
X5270353Y-12158793D02*
X5260830Y-12196888D01*
X5260830Y-12196888D02*
X5251306Y-12215936D01*
X5251306Y-12215936D02*
X5241782Y-12225460D01*
X5241782Y-12225460D02*
X5222734Y-12234984D01*
X5222734Y-12234984D02*
X5203687Y-12234984D01*
X5203687Y-12234984D02*
X5184639Y-12225460D01*
X5184639Y-12225460D02*
X5175115Y-12215936D01*
X5175115Y-12215936D02*
X5165592Y-12196888D01*
X5165592Y-12196888D02*
X5156068Y-12158793D01*
X5156068Y-12158793D02*
X5156068Y-12111174D01*
X5156068Y-12111174D02*
X5165592Y-12073079D01*
X5165592Y-12073079D02*
X5175115Y-12054031D01*
X5175115Y-12054031D02*
X5184639Y-12044508D01*
X5184639Y-12044508D02*
X5203687Y-12034984D01*
X5508449Y-12234984D02*
X5508449Y-12034984D01*
X5594163Y-12234984D02*
X5594163Y-12130222D01*
X5594163Y-12130222D02*
X5584639Y-12111174D01*
X5584639Y-12111174D02*
X5565592Y-12101650D01*
X5565592Y-12101650D02*
X5537020Y-12101650D01*
X5537020Y-12101650D02*
X5517973Y-12111174D01*
X5517973Y-12111174D02*
X5508449Y-12120698D01*
X5717972Y-12234984D02*
X5698925Y-12225460D01*
X5698925Y-12225460D02*
X5689401Y-12215936D01*
X5689401Y-12215936D02*
X5679877Y-12196888D01*
X5679877Y-12196888D02*
X5679877Y-12139746D01*
X5679877Y-12139746D02*
X5689401Y-12120698D01*
X5689401Y-12120698D02*
X5698925Y-12111174D01*
X5698925Y-12111174D02*
X5717972Y-12101650D01*
X5717972Y-12101650D02*
X5746544Y-12101650D01*
X5746544Y-12101650D02*
X5765592Y-12111174D01*
X5765592Y-12111174D02*
X5775115Y-12120698D01*
X5775115Y-12120698D02*
X5784639Y-12139746D01*
X5784639Y-12139746D02*
X5784639Y-12196888D01*
X5784639Y-12196888D02*
X5775115Y-12215936D01*
X5775115Y-12215936D02*
X5765592Y-12225460D01*
X5765592Y-12225460D02*
X5746544Y-12234984D01*
X5746544Y-12234984D02*
X5717972Y-12234984D01*
X5898925Y-12234984D02*
X5879877Y-12225460D01*
X5879877Y-12225460D02*
X5870353Y-12206412D01*
X5870353Y-12206412D02*
X5870353Y-12034984D01*
X6051306Y-12225460D02*
X6032258Y-12234984D01*
X6032258Y-12234984D02*
X5994163Y-12234984D01*
X5994163Y-12234984D02*
X5975115Y-12225460D01*
X5975115Y-12225460D02*
X5965592Y-12206412D01*
X5965592Y-12206412D02*
X5965592Y-12130222D01*
X5965592Y-12130222D02*
X5975115Y-12111174D01*
X5975115Y-12111174D02*
X5994163Y-12101650D01*
X5994163Y-12101650D02*
X6032258Y-12101650D01*
X6032258Y-12101650D02*
X6051306Y-12111174D01*
X6051306Y-12111174D02*
X6060830Y-12130222D01*
X6060830Y-12130222D02*
X6060830Y-12149269D01*
X6060830Y-12149269D02*
X5965592Y-12168317D01*
X6137020Y-12225460D02*
X6156068Y-12234984D01*
X6156068Y-12234984D02*
X6194163Y-12234984D01*
X6194163Y-12234984D02*
X6213211Y-12225460D01*
X6213211Y-12225460D02*
X6222734Y-12206412D01*
X6222734Y-12206412D02*
X6222734Y-12196888D01*
X6222734Y-12196888D02*
X6213211Y-12177841D01*
X6213211Y-12177841D02*
X6194163Y-12168317D01*
X6194163Y-12168317D02*
X6165592Y-12168317D01*
X6165592Y-12168317D02*
X6146544Y-12158793D01*
X6146544Y-12158793D02*
X6137020Y-12139746D01*
X6137020Y-12139746D02*
X6137020Y-12130222D01*
X6137020Y-12130222D02*
X6146544Y-12111174D01*
X6146544Y-12111174D02*
X6165592Y-12101650D01*
X6165592Y-12101650D02*
X6194163Y-12101650D01*
X6194163Y-12101650D02*
X6213211Y-12111174D01*
X6460830Y-12158793D02*
X6613211Y-12158793D01*
X6537020Y-12234984D02*
X6537020Y-12082603D01*
X6956068Y-12034984D02*
X6860830Y-12034984D01*
X6860830Y-12034984D02*
X6851306Y-12130222D01*
X6851306Y-12130222D02*
X6860830Y-12120698D01*
X6860830Y-12120698D02*
X6879877Y-12111174D01*
X6879877Y-12111174D02*
X6927496Y-12111174D01*
X6927496Y-12111174D02*
X6946544Y-12120698D01*
X6946544Y-12120698D02*
X6956068Y-12130222D01*
X6956068Y-12130222D02*
X6965592Y-12149269D01*
X6965592Y-12149269D02*
X6965592Y-12196888D01*
X6965592Y-12196888D02*
X6956068Y-12215936D01*
X6956068Y-12215936D02*
X6946544Y-12225460D01*
X6946544Y-12225460D02*
X6927496Y-12234984D01*
X6927496Y-12234984D02*
X6879877Y-12234984D01*
X6879877Y-12234984D02*
X6860830Y-12225460D01*
X6860830Y-12225460D02*
X6851306Y-12215936D01*
X7194163Y-12225460D02*
X7213211Y-12234984D01*
X7213211Y-12234984D02*
X7251306Y-12234984D01*
X7251306Y-12234984D02*
X7270354Y-12225460D01*
X7270354Y-12225460D02*
X7279877Y-12206412D01*
X7279877Y-12206412D02*
X7279877Y-12196888D01*
X7279877Y-12196888D02*
X7270354Y-12177841D01*
X7270354Y-12177841D02*
X7251306Y-12168317D01*
X7251306Y-12168317D02*
X7222735Y-12168317D01*
X7222735Y-12168317D02*
X7203687Y-12158793D01*
X7203687Y-12158793D02*
X7194163Y-12139746D01*
X7194163Y-12139746D02*
X7194163Y-12130222D01*
X7194163Y-12130222D02*
X7203687Y-12111174D01*
X7203687Y-12111174D02*
X7222735Y-12101650D01*
X7222735Y-12101650D02*
X7251306Y-12101650D01*
X7251306Y-12101650D02*
X7270354Y-12111174D01*
X7394163Y-12234984D02*
X7375116Y-12225460D01*
X7375116Y-12225460D02*
X7365592Y-12206412D01*
X7365592Y-12206412D02*
X7365592Y-12034984D01*
X7498925Y-12234984D02*
X7479877Y-12225460D01*
X7479877Y-12225460D02*
X7470354Y-12215936D01*
X7470354Y-12215936D02*
X7460830Y-12196888D01*
X7460830Y-12196888D02*
X7460830Y-12139746D01*
X7460830Y-12139746D02*
X7470354Y-12120698D01*
X7470354Y-12120698D02*
X7479877Y-12111174D01*
X7479877Y-12111174D02*
X7498925Y-12101650D01*
X7498925Y-12101650D02*
X7527497Y-12101650D01*
X7527497Y-12101650D02*
X7546544Y-12111174D01*
X7546544Y-12111174D02*
X7556068Y-12120698D01*
X7556068Y-12120698D02*
X7565592Y-12139746D01*
X7565592Y-12139746D02*
X7565592Y-12196888D01*
X7565592Y-12196888D02*
X7556068Y-12215936D01*
X7556068Y-12215936D02*
X7546544Y-12225460D01*
X7546544Y-12225460D02*
X7527497Y-12234984D01*
X7527497Y-12234984D02*
X7498925Y-12234984D01*
X7622735Y-12101650D02*
X7698925Y-12101650D01*
X7651306Y-12034984D02*
X7651306Y-12206412D01*
X7651306Y-12206412D02*
X7660830Y-12225460D01*
X7660830Y-12225460D02*
X7679877Y-12234984D01*
X7679877Y-12234984D02*
X7698925Y-12234984D01*
X7756068Y-12225460D02*
X7775116Y-12234984D01*
X7775116Y-12234984D02*
X7813211Y-12234984D01*
X7813211Y-12234984D02*
X7832258Y-12225460D01*
X7832258Y-12225460D02*
X7841782Y-12206412D01*
X7841782Y-12206412D02*
X7841782Y-12196888D01*
X7841782Y-12196888D02*
X7832258Y-12177841D01*
X7832258Y-12177841D02*
X7813211Y-12168317D01*
X7813211Y-12168317D02*
X7784639Y-12168317D01*
X7784639Y-12168317D02*
X7765592Y-12158793D01*
X7765592Y-12158793D02*
X7756068Y-12139746D01*
X7756068Y-12139746D02*
X7756068Y-12130222D01*
X7756068Y-12130222D02*
X7765592Y-12111174D01*
X7765592Y-12111174D02*
X7784639Y-12101650D01*
X7784639Y-12101650D02*
X7813211Y-12101650D01*
X7813211Y-12101650D02*
X7832258Y-12111174D01*
X7908449Y-12311174D02*
X7917973Y-12301650D01*
X7917973Y-12301650D02*
X7937020Y-12273079D01*
X7937020Y-12273079D02*
X7946544Y-12254031D01*
X7946544Y-12254031D02*
X7956068Y-12225460D01*
X7956068Y-12225460D02*
X7965592Y-12177841D01*
X7965592Y-12177841D02*
X7965592Y-12139746D01*
X7965592Y-12139746D02*
X7956068Y-12092127D01*
X7956068Y-12092127D02*
X7946544Y-12063555D01*
X7946544Y-12063555D02*
X7937020Y-12044508D01*
X7937020Y-12044508D02*
X7917973Y-12015936D01*
X7917973Y-12015936D02*
X7908449Y-12006412D01*
X8270354Y-12311174D02*
X8260830Y-12301650D01*
X8260830Y-12301650D02*
X8241782Y-12273079D01*
X8241782Y-12273079D02*
X8232258Y-12254031D01*
X8232258Y-12254031D02*
X8222735Y-12225460D01*
X8222735Y-12225460D02*
X8213211Y-12177841D01*
X8213211Y-12177841D02*
X8213211Y-12139746D01*
X8213211Y-12139746D02*
X8222735Y-12092127D01*
X8222735Y-12092127D02*
X8232258Y-12063555D01*
X8232258Y-12063555D02*
X8241782Y-12044508D01*
X8241782Y-12044508D02*
X8260830Y-12015936D01*
X8260830Y-12015936D02*
X8270354Y-12006412D01*
X8346544Y-12101650D02*
X8346544Y-12234984D01*
X8346544Y-12120698D02*
X8356068Y-12111174D01*
X8356068Y-12111174D02*
X8375116Y-12101650D01*
X8375116Y-12101650D02*
X8403687Y-12101650D01*
X8403687Y-12101650D02*
X8422735Y-12111174D01*
X8422735Y-12111174D02*
X8432259Y-12130222D01*
X8432259Y-12130222D02*
X8432259Y-12234984D01*
X8556068Y-12234984D02*
X8537020Y-12225460D01*
X8537020Y-12225460D02*
X8527497Y-12215936D01*
X8527497Y-12215936D02*
X8517973Y-12196888D01*
X8517973Y-12196888D02*
X8517973Y-12139746D01*
X8517973Y-12139746D02*
X8527497Y-12120698D01*
X8527497Y-12120698D02*
X8537020Y-12111174D01*
X8537020Y-12111174D02*
X8556068Y-12101650D01*
X8556068Y-12101650D02*
X8584640Y-12101650D01*
X8584640Y-12101650D02*
X8603687Y-12111174D01*
X8603687Y-12111174D02*
X8613211Y-12120698D01*
X8613211Y-12120698D02*
X8622735Y-12139746D01*
X8622735Y-12139746D02*
X8622735Y-12196888D01*
X8622735Y-12196888D02*
X8613211Y-12215936D01*
X8613211Y-12215936D02*
X8603687Y-12225460D01*
X8603687Y-12225460D02*
X8584640Y-12234984D01*
X8584640Y-12234984D02*
X8556068Y-12234984D01*
X8679878Y-12101650D02*
X8756068Y-12101650D01*
X8708449Y-12034984D02*
X8708449Y-12206412D01*
X8708449Y-12206412D02*
X8717973Y-12225460D01*
X8717973Y-12225460D02*
X8737020Y-12234984D01*
X8737020Y-12234984D02*
X8756068Y-12234984D01*
X8975116Y-12101650D02*
X8975116Y-12301650D01*
X8975116Y-12111174D02*
X8994163Y-12101650D01*
X8994163Y-12101650D02*
X9032259Y-12101650D01*
X9032259Y-12101650D02*
X9051306Y-12111174D01*
X9051306Y-12111174D02*
X9060830Y-12120698D01*
X9060830Y-12120698D02*
X9070354Y-12139746D01*
X9070354Y-12139746D02*
X9070354Y-12196888D01*
X9070354Y-12196888D02*
X9060830Y-12215936D01*
X9060830Y-12215936D02*
X9051306Y-12225460D01*
X9051306Y-12225460D02*
X9032259Y-12234984D01*
X9032259Y-12234984D02*
X8994163Y-12234984D01*
X8994163Y-12234984D02*
X8975116Y-12225460D01*
X9184640Y-12234984D02*
X9165592Y-12225460D01*
X9165592Y-12225460D02*
X9156068Y-12206412D01*
X9156068Y-12206412D02*
X9156068Y-12034984D01*
X9346544Y-12234984D02*
X9346544Y-12130222D01*
X9346544Y-12130222D02*
X9337021Y-12111174D01*
X9337021Y-12111174D02*
X9317973Y-12101650D01*
X9317973Y-12101650D02*
X9279878Y-12101650D01*
X9279878Y-12101650D02*
X9260830Y-12111174D01*
X9346544Y-12225460D02*
X9327497Y-12234984D01*
X9327497Y-12234984D02*
X9279878Y-12234984D01*
X9279878Y-12234984D02*
X9260830Y-12225460D01*
X9260830Y-12225460D02*
X9251306Y-12206412D01*
X9251306Y-12206412D02*
X9251306Y-12187365D01*
X9251306Y-12187365D02*
X9260830Y-12168317D01*
X9260830Y-12168317D02*
X9279878Y-12158793D01*
X9279878Y-12158793D02*
X9327497Y-12158793D01*
X9327497Y-12158793D02*
X9346544Y-12149269D01*
X9413211Y-12101650D02*
X9489401Y-12101650D01*
X9441782Y-12034984D02*
X9441782Y-12206412D01*
X9441782Y-12206412D02*
X9451306Y-12225460D01*
X9451306Y-12225460D02*
X9470354Y-12234984D01*
X9470354Y-12234984D02*
X9489401Y-12234984D01*
X9632259Y-12225460D02*
X9613211Y-12234984D01*
X9613211Y-12234984D02*
X9575116Y-12234984D01*
X9575116Y-12234984D02*
X9556068Y-12225460D01*
X9556068Y-12225460D02*
X9546544Y-12206412D01*
X9546544Y-12206412D02*
X9546544Y-12130222D01*
X9546544Y-12130222D02*
X9556068Y-12111174D01*
X9556068Y-12111174D02*
X9575116Y-12101650D01*
X9575116Y-12101650D02*
X9613211Y-12101650D01*
X9613211Y-12101650D02*
X9632259Y-12111174D01*
X9632259Y-12111174D02*
X9641782Y-12130222D01*
X9641782Y-12130222D02*
X9641782Y-12149269D01*
X9641782Y-12149269D02*
X9546544Y-12168317D01*
X9813211Y-12234984D02*
X9813211Y-12034984D01*
X9813211Y-12225460D02*
X9794163Y-12234984D01*
X9794163Y-12234984D02*
X9756068Y-12234984D01*
X9756068Y-12234984D02*
X9737021Y-12225460D01*
X9737021Y-12225460D02*
X9727497Y-12215936D01*
X9727497Y-12215936D02*
X9717973Y-12196888D01*
X9717973Y-12196888D02*
X9717973Y-12139746D01*
X9717973Y-12139746D02*
X9727497Y-12120698D01*
X9727497Y-12120698D02*
X9737021Y-12111174D01*
X9737021Y-12111174D02*
X9756068Y-12101650D01*
X9756068Y-12101650D02*
X9794163Y-12101650D01*
X9794163Y-12101650D02*
X9813211Y-12111174D01*
X9889402Y-12311174D02*
X9898925Y-12301650D01*
X9898925Y-12301650D02*
X9917973Y-12273079D01*
X9917973Y-12273079D02*
X9927497Y-12254031D01*
X9927497Y-12254031D02*
X9937021Y-12225460D01*
X9937021Y-12225460D02*
X9946544Y-12177841D01*
X9946544Y-12177841D02*
X9946544Y-12139746D01*
X9946544Y-12139746D02*
X9937021Y-12092127D01*
X9937021Y-12092127D02*
X9927497Y-12063555D01*
X9927497Y-12063555D02*
X9917973Y-12044508D01*
X9917973Y-12044508D02*
X9898925Y-12015936D01*
X9898925Y-12015936D02*
X9889402Y-12006412D01*
X1427496Y-12362460D02*
X1427496Y-12562460D01*
X1327496Y-12462460D02*
X1527496Y-12462460D01*
X1765591Y-12374031D02*
X1775115Y-12364508D01*
X1775115Y-12364508D02*
X1794163Y-12354984D01*
X1794163Y-12354984D02*
X1841782Y-12354984D01*
X1841782Y-12354984D02*
X1860829Y-12364508D01*
X1860829Y-12364508D02*
X1870353Y-12374031D01*
X1870353Y-12374031D02*
X1879877Y-12393079D01*
X1879877Y-12393079D02*
X1879877Y-12412127D01*
X1879877Y-12412127D02*
X1870353Y-12440698D01*
X1870353Y-12440698D02*
X1756067Y-12554984D01*
X1756067Y-12554984D02*
X1879877Y-12554984D01*
X1965591Y-12535936D02*
X1975115Y-12545460D01*
X1975115Y-12545460D02*
X1965591Y-12554984D01*
X1965591Y-12554984D02*
X1956067Y-12545460D01*
X1956067Y-12545460D02*
X1965591Y-12535936D01*
X1965591Y-12535936D02*
X1965591Y-12554984D01*
X2146544Y-12421650D02*
X2146544Y-12554984D01*
X2098925Y-12345460D02*
X2051305Y-12488317D01*
X2051305Y-12488317D02*
X2175115Y-12488317D01*
X2260829Y-12554984D02*
X2298925Y-12554984D01*
X2298925Y-12554984D02*
X2317972Y-12545460D01*
X2317972Y-12545460D02*
X2327496Y-12535936D01*
X2327496Y-12535936D02*
X2346544Y-12507365D01*
X2346544Y-12507365D02*
X2356067Y-12469269D01*
X2356067Y-12469269D02*
X2356067Y-12393079D01*
X2356067Y-12393079D02*
X2346544Y-12374031D01*
X2346544Y-12374031D02*
X2337020Y-12364508D01*
X2337020Y-12364508D02*
X2317972Y-12354984D01*
X2317972Y-12354984D02*
X2279877Y-12354984D01*
X2279877Y-12354984D02*
X2260829Y-12364508D01*
X2260829Y-12364508D02*
X2251306Y-12374031D01*
X2251306Y-12374031D02*
X2241782Y-12393079D01*
X2241782Y-12393079D02*
X2241782Y-12440698D01*
X2241782Y-12440698D02*
X2251306Y-12459746D01*
X2251306Y-12459746D02*
X2260829Y-12469269D01*
X2260829Y-12469269D02*
X2279877Y-12478793D01*
X2279877Y-12478793D02*
X2317972Y-12478793D01*
X2317972Y-12478793D02*
X2337020Y-12469269D01*
X2337020Y-12469269D02*
X2346544Y-12459746D01*
X2346544Y-12459746D02*
X2356067Y-12440698D01*
X2451306Y-12554984D02*
X2489401Y-12554984D01*
X2489401Y-12554984D02*
X2508448Y-12545460D01*
X2508448Y-12545460D02*
X2517972Y-12535936D01*
X2517972Y-12535936D02*
X2537020Y-12507365D01*
X2537020Y-12507365D02*
X2546544Y-12469269D01*
X2546544Y-12469269D02*
X2546544Y-12393079D01*
X2546544Y-12393079D02*
X2537020Y-12374031D01*
X2537020Y-12374031D02*
X2527496Y-12364508D01*
X2527496Y-12364508D02*
X2508448Y-12354984D01*
X2508448Y-12354984D02*
X2470353Y-12354984D01*
X2470353Y-12354984D02*
X2451306Y-12364508D01*
X2451306Y-12364508D02*
X2441782Y-12374031D01*
X2441782Y-12374031D02*
X2432258Y-12393079D01*
X2432258Y-12393079D02*
X2432258Y-12440698D01*
X2432258Y-12440698D02*
X2441782Y-12459746D01*
X2441782Y-12459746D02*
X2451306Y-12469269D01*
X2451306Y-12469269D02*
X2470353Y-12478793D01*
X2470353Y-12478793D02*
X2508448Y-12478793D01*
X2508448Y-12478793D02*
X2527496Y-12469269D01*
X2527496Y-12469269D02*
X2537020Y-12459746D01*
X2537020Y-12459746D02*
X2546544Y-12440698D01*
X2632258Y-12554984D02*
X2632258Y-12421650D01*
X2632258Y-12440698D02*
X2641782Y-12431174D01*
X2641782Y-12431174D02*
X2660829Y-12421650D01*
X2660829Y-12421650D02*
X2689401Y-12421650D01*
X2689401Y-12421650D02*
X2708448Y-12431174D01*
X2708448Y-12431174D02*
X2717972Y-12450222D01*
X2717972Y-12450222D02*
X2717972Y-12554984D01*
X2717972Y-12450222D02*
X2727496Y-12431174D01*
X2727496Y-12431174D02*
X2746544Y-12421650D01*
X2746544Y-12421650D02*
X2775115Y-12421650D01*
X2775115Y-12421650D02*
X2794163Y-12431174D01*
X2794163Y-12431174D02*
X2803686Y-12450222D01*
X2803686Y-12450222D02*
X2803686Y-12554984D01*
X2898925Y-12554984D02*
X2898925Y-12421650D01*
X2898925Y-12440698D02*
X2908448Y-12431174D01*
X2908448Y-12431174D02*
X2927496Y-12421650D01*
X2927496Y-12421650D02*
X2956067Y-12421650D01*
X2956067Y-12421650D02*
X2975115Y-12431174D01*
X2975115Y-12431174D02*
X2984639Y-12450222D01*
X2984639Y-12450222D02*
X2984639Y-12554984D01*
X2984639Y-12450222D02*
X2994163Y-12431174D01*
X2994163Y-12431174D02*
X3013210Y-12421650D01*
X3013210Y-12421650D02*
X3041782Y-12421650D01*
X3041782Y-12421650D02*
X3060829Y-12431174D01*
X3060829Y-12431174D02*
X3070353Y-12450222D01*
X3070353Y-12450222D02*
X3070353Y-12554984D01*
X3460829Y-12345460D02*
X3289401Y-12602603D01*
X3717972Y-12354984D02*
X3737020Y-12354984D01*
X3737020Y-12354984D02*
X3756068Y-12364508D01*
X3756068Y-12364508D02*
X3765591Y-12374031D01*
X3765591Y-12374031D02*
X3775115Y-12393079D01*
X3775115Y-12393079D02*
X3784639Y-12431174D01*
X3784639Y-12431174D02*
X3784639Y-12478793D01*
X3784639Y-12478793D02*
X3775115Y-12516888D01*
X3775115Y-12516888D02*
X3765591Y-12535936D01*
X3765591Y-12535936D02*
X3756068Y-12545460D01*
X3756068Y-12545460D02*
X3737020Y-12554984D01*
X3737020Y-12554984D02*
X3717972Y-12554984D01*
X3717972Y-12554984D02*
X3698925Y-12545460D01*
X3698925Y-12545460D02*
X3689401Y-12535936D01*
X3689401Y-12535936D02*
X3679877Y-12516888D01*
X3679877Y-12516888D02*
X3670353Y-12478793D01*
X3670353Y-12478793D02*
X3670353Y-12431174D01*
X3670353Y-12431174D02*
X3679877Y-12393079D01*
X3679877Y-12393079D02*
X3689401Y-12374031D01*
X3689401Y-12374031D02*
X3698925Y-12364508D01*
X3698925Y-12364508D02*
X3717972Y-12354984D01*
X3870353Y-12535936D02*
X3879877Y-12545460D01*
X3879877Y-12545460D02*
X3870353Y-12554984D01*
X3870353Y-12554984D02*
X3860829Y-12545460D01*
X3860829Y-12545460D02*
X3870353Y-12535936D01*
X3870353Y-12535936D02*
X3870353Y-12554984D01*
X4003687Y-12354984D02*
X4022734Y-12354984D01*
X4022734Y-12354984D02*
X4041782Y-12364508D01*
X4041782Y-12364508D02*
X4051306Y-12374031D01*
X4051306Y-12374031D02*
X4060829Y-12393079D01*
X4060829Y-12393079D02*
X4070353Y-12431174D01*
X4070353Y-12431174D02*
X4070353Y-12478793D01*
X4070353Y-12478793D02*
X4060829Y-12516888D01*
X4060829Y-12516888D02*
X4051306Y-12535936D01*
X4051306Y-12535936D02*
X4041782Y-12545460D01*
X4041782Y-12545460D02*
X4022734Y-12554984D01*
X4022734Y-12554984D02*
X4003687Y-12554984D01*
X4003687Y-12554984D02*
X3984639Y-12545460D01*
X3984639Y-12545460D02*
X3975115Y-12535936D01*
X3975115Y-12535936D02*
X3965591Y-12516888D01*
X3965591Y-12516888D02*
X3956068Y-12478793D01*
X3956068Y-12478793D02*
X3956068Y-12431174D01*
X3956068Y-12431174D02*
X3965591Y-12393079D01*
X3965591Y-12393079D02*
X3975115Y-12374031D01*
X3975115Y-12374031D02*
X3984639Y-12364508D01*
X3984639Y-12364508D02*
X4003687Y-12354984D01*
X4165591Y-12554984D02*
X4203687Y-12554984D01*
X4203687Y-12554984D02*
X4222734Y-12545460D01*
X4222734Y-12545460D02*
X4232258Y-12535936D01*
X4232258Y-12535936D02*
X4251306Y-12507365D01*
X4251306Y-12507365D02*
X4260830Y-12469269D01*
X4260830Y-12469269D02*
X4260830Y-12393079D01*
X4260830Y-12393079D02*
X4251306Y-12374031D01*
X4251306Y-12374031D02*
X4241782Y-12364508D01*
X4241782Y-12364508D02*
X4222734Y-12354984D01*
X4222734Y-12354984D02*
X4184639Y-12354984D01*
X4184639Y-12354984D02*
X4165591Y-12364508D01*
X4165591Y-12364508D02*
X4156068Y-12374031D01*
X4156068Y-12374031D02*
X4146544Y-12393079D01*
X4146544Y-12393079D02*
X4146544Y-12440698D01*
X4146544Y-12440698D02*
X4156068Y-12459746D01*
X4156068Y-12459746D02*
X4165591Y-12469269D01*
X4165591Y-12469269D02*
X4184639Y-12478793D01*
X4184639Y-12478793D02*
X4222734Y-12478793D01*
X4222734Y-12478793D02*
X4241782Y-12469269D01*
X4241782Y-12469269D02*
X4251306Y-12459746D01*
X4251306Y-12459746D02*
X4260830Y-12440698D01*
X4375115Y-12440698D02*
X4356068Y-12431174D01*
X4356068Y-12431174D02*
X4346544Y-12421650D01*
X4346544Y-12421650D02*
X4337020Y-12402603D01*
X4337020Y-12402603D02*
X4337020Y-12393079D01*
X4337020Y-12393079D02*
X4346544Y-12374031D01*
X4346544Y-12374031D02*
X4356068Y-12364508D01*
X4356068Y-12364508D02*
X4375115Y-12354984D01*
X4375115Y-12354984D02*
X4413211Y-12354984D01*
X4413211Y-12354984D02*
X4432258Y-12364508D01*
X4432258Y-12364508D02*
X4441782Y-12374031D01*
X4441782Y-12374031D02*
X4451306Y-12393079D01*
X4451306Y-12393079D02*
X4451306Y-12402603D01*
X4451306Y-12402603D02*
X4441782Y-12421650D01*
X4441782Y-12421650D02*
X4432258Y-12431174D01*
X4432258Y-12431174D02*
X4413211Y-12440698D01*
X4413211Y-12440698D02*
X4375115Y-12440698D01*
X4375115Y-12440698D02*
X4356068Y-12450222D01*
X4356068Y-12450222D02*
X4346544Y-12459746D01*
X4346544Y-12459746D02*
X4337020Y-12478793D01*
X4337020Y-12478793D02*
X4337020Y-12516888D01*
X4337020Y-12516888D02*
X4346544Y-12535936D01*
X4346544Y-12535936D02*
X4356068Y-12545460D01*
X4356068Y-12545460D02*
X4375115Y-12554984D01*
X4375115Y-12554984D02*
X4413211Y-12554984D01*
X4413211Y-12554984D02*
X4432258Y-12545460D01*
X4432258Y-12545460D02*
X4441782Y-12535936D01*
X4441782Y-12535936D02*
X4451306Y-12516888D01*
X4451306Y-12516888D02*
X4451306Y-12478793D01*
X4451306Y-12478793D02*
X4441782Y-12459746D01*
X4441782Y-12459746D02*
X4432258Y-12450222D01*
X4432258Y-12450222D02*
X4413211Y-12440698D01*
X4622734Y-12421650D02*
X4622734Y-12554984D01*
X4575115Y-12345460D02*
X4527496Y-12488317D01*
X4527496Y-12488317D02*
X4651306Y-12488317D01*
X4717972Y-12354984D02*
X4717972Y-12393079D01*
X4794163Y-12354984D02*
X4794163Y-12393079D01*
X5089401Y-12631174D02*
X5079877Y-12621650D01*
X5079877Y-12621650D02*
X5060830Y-12593079D01*
X5060830Y-12593079D02*
X5051306Y-12574031D01*
X5051306Y-12574031D02*
X5041782Y-12545460D01*
X5041782Y-12545460D02*
X5032258Y-12497841D01*
X5032258Y-12497841D02*
X5032258Y-12459746D01*
X5032258Y-12459746D02*
X5041782Y-12412127D01*
X5041782Y-12412127D02*
X5051306Y-12383555D01*
X5051306Y-12383555D02*
X5060830Y-12364508D01*
X5060830Y-12364508D02*
X5079877Y-12335936D01*
X5079877Y-12335936D02*
X5089401Y-12326412D01*
X5270353Y-12554984D02*
X5156068Y-12554984D01*
X5213211Y-12554984D02*
X5213211Y-12354984D01*
X5213211Y-12354984D02*
X5194163Y-12383555D01*
X5194163Y-12383555D02*
X5175115Y-12402603D01*
X5175115Y-12402603D02*
X5156068Y-12412127D01*
X5508449Y-12554984D02*
X5508449Y-12354984D01*
X5594163Y-12554984D02*
X5594163Y-12450222D01*
X5594163Y-12450222D02*
X5584639Y-12431174D01*
X5584639Y-12431174D02*
X5565592Y-12421650D01*
X5565592Y-12421650D02*
X5537020Y-12421650D01*
X5537020Y-12421650D02*
X5517973Y-12431174D01*
X5517973Y-12431174D02*
X5508449Y-12440698D01*
X5717972Y-12554984D02*
X5698925Y-12545460D01*
X5698925Y-12545460D02*
X5689401Y-12535936D01*
X5689401Y-12535936D02*
X5679877Y-12516888D01*
X5679877Y-12516888D02*
X5679877Y-12459746D01*
X5679877Y-12459746D02*
X5689401Y-12440698D01*
X5689401Y-12440698D02*
X5698925Y-12431174D01*
X5698925Y-12431174D02*
X5717972Y-12421650D01*
X5717972Y-12421650D02*
X5746544Y-12421650D01*
X5746544Y-12421650D02*
X5765592Y-12431174D01*
X5765592Y-12431174D02*
X5775115Y-12440698D01*
X5775115Y-12440698D02*
X5784639Y-12459746D01*
X5784639Y-12459746D02*
X5784639Y-12516888D01*
X5784639Y-12516888D02*
X5775115Y-12535936D01*
X5775115Y-12535936D02*
X5765592Y-12545460D01*
X5765592Y-12545460D02*
X5746544Y-12554984D01*
X5746544Y-12554984D02*
X5717972Y-12554984D01*
X5898925Y-12554984D02*
X5879877Y-12545460D01*
X5879877Y-12545460D02*
X5870353Y-12526412D01*
X5870353Y-12526412D02*
X5870353Y-12354984D01*
X6051306Y-12545460D02*
X6032258Y-12554984D01*
X6032258Y-12554984D02*
X5994163Y-12554984D01*
X5994163Y-12554984D02*
X5975115Y-12545460D01*
X5975115Y-12545460D02*
X5965592Y-12526412D01*
X5965592Y-12526412D02*
X5965592Y-12450222D01*
X5965592Y-12450222D02*
X5975115Y-12431174D01*
X5975115Y-12431174D02*
X5994163Y-12421650D01*
X5994163Y-12421650D02*
X6032258Y-12421650D01*
X6032258Y-12421650D02*
X6051306Y-12431174D01*
X6051306Y-12431174D02*
X6060830Y-12450222D01*
X6060830Y-12450222D02*
X6060830Y-12469269D01*
X6060830Y-12469269D02*
X5965592Y-12488317D01*
X6127496Y-12631174D02*
X6137020Y-12621650D01*
X6137020Y-12621650D02*
X6156068Y-12593079D01*
X6156068Y-12593079D02*
X6165592Y-12574031D01*
X6165592Y-12574031D02*
X6175115Y-12545460D01*
X6175115Y-12545460D02*
X6184639Y-12497841D01*
X6184639Y-12497841D02*
X6184639Y-12459746D01*
X6184639Y-12459746D02*
X6175115Y-12412127D01*
X6175115Y-12412127D02*
X6165592Y-12383555D01*
X6165592Y-12383555D02*
X6156068Y-12364508D01*
X6156068Y-12364508D02*
X6137020Y-12335936D01*
X6137020Y-12335936D02*
X6127496Y-12326412D01*
X6489401Y-12631174D02*
X6479877Y-12621650D01*
X6479877Y-12621650D02*
X6460830Y-12593079D01*
X6460830Y-12593079D02*
X6451306Y-12574031D01*
X6451306Y-12574031D02*
X6441782Y-12545460D01*
X6441782Y-12545460D02*
X6432258Y-12497841D01*
X6432258Y-12497841D02*
X6432258Y-12459746D01*
X6432258Y-12459746D02*
X6441782Y-12412127D01*
X6441782Y-12412127D02*
X6451306Y-12383555D01*
X6451306Y-12383555D02*
X6460830Y-12364508D01*
X6460830Y-12364508D02*
X6479877Y-12335936D01*
X6479877Y-12335936D02*
X6489401Y-12326412D01*
X6565592Y-12421650D02*
X6565592Y-12554984D01*
X6565592Y-12440698D02*
X6575115Y-12431174D01*
X6575115Y-12431174D02*
X6594163Y-12421650D01*
X6594163Y-12421650D02*
X6622734Y-12421650D01*
X6622734Y-12421650D02*
X6641782Y-12431174D01*
X6641782Y-12431174D02*
X6651306Y-12450222D01*
X6651306Y-12450222D02*
X6651306Y-12554984D01*
X6775115Y-12554984D02*
X6756068Y-12545460D01*
X6756068Y-12545460D02*
X6746544Y-12535936D01*
X6746544Y-12535936D02*
X6737020Y-12516888D01*
X6737020Y-12516888D02*
X6737020Y-12459746D01*
X6737020Y-12459746D02*
X6746544Y-12440698D01*
X6746544Y-12440698D02*
X6756068Y-12431174D01*
X6756068Y-12431174D02*
X6775115Y-12421650D01*
X6775115Y-12421650D02*
X6803687Y-12421650D01*
X6803687Y-12421650D02*
X6822734Y-12431174D01*
X6822734Y-12431174D02*
X6832258Y-12440698D01*
X6832258Y-12440698D02*
X6841782Y-12459746D01*
X6841782Y-12459746D02*
X6841782Y-12516888D01*
X6841782Y-12516888D02*
X6832258Y-12535936D01*
X6832258Y-12535936D02*
X6822734Y-12545460D01*
X6822734Y-12545460D02*
X6803687Y-12554984D01*
X6803687Y-12554984D02*
X6775115Y-12554984D01*
X6898925Y-12421650D02*
X6975115Y-12421650D01*
X6927496Y-12354984D02*
X6927496Y-12526412D01*
X6927496Y-12526412D02*
X6937020Y-12545460D01*
X6937020Y-12545460D02*
X6956068Y-12554984D01*
X6956068Y-12554984D02*
X6975115Y-12554984D01*
X7194163Y-12421650D02*
X7194163Y-12621650D01*
X7194163Y-12431174D02*
X7213211Y-12421650D01*
X7213211Y-12421650D02*
X7251306Y-12421650D01*
X7251306Y-12421650D02*
X7270354Y-12431174D01*
X7270354Y-12431174D02*
X7279877Y-12440698D01*
X7279877Y-12440698D02*
X7289401Y-12459746D01*
X7289401Y-12459746D02*
X7289401Y-12516888D01*
X7289401Y-12516888D02*
X7279877Y-12535936D01*
X7279877Y-12535936D02*
X7270354Y-12545460D01*
X7270354Y-12545460D02*
X7251306Y-12554984D01*
X7251306Y-12554984D02*
X7213211Y-12554984D01*
X7213211Y-12554984D02*
X7194163Y-12545460D01*
X7403687Y-12554984D02*
X7384639Y-12545460D01*
X7384639Y-12545460D02*
X7375115Y-12526412D01*
X7375115Y-12526412D02*
X7375115Y-12354984D01*
X7565592Y-12554984D02*
X7565592Y-12450222D01*
X7565592Y-12450222D02*
X7556068Y-12431174D01*
X7556068Y-12431174D02*
X7537020Y-12421650D01*
X7537020Y-12421650D02*
X7498925Y-12421650D01*
X7498925Y-12421650D02*
X7479877Y-12431174D01*
X7565592Y-12545460D02*
X7546544Y-12554984D01*
X7546544Y-12554984D02*
X7498925Y-12554984D01*
X7498925Y-12554984D02*
X7479877Y-12545460D01*
X7479877Y-12545460D02*
X7470354Y-12526412D01*
X7470354Y-12526412D02*
X7470354Y-12507365D01*
X7470354Y-12507365D02*
X7479877Y-12488317D01*
X7479877Y-12488317D02*
X7498925Y-12478793D01*
X7498925Y-12478793D02*
X7546544Y-12478793D01*
X7546544Y-12478793D02*
X7565592Y-12469269D01*
X7632258Y-12421650D02*
X7708449Y-12421650D01*
X7660830Y-12354984D02*
X7660830Y-12526412D01*
X7660830Y-12526412D02*
X7670354Y-12545460D01*
X7670354Y-12545460D02*
X7689401Y-12554984D01*
X7689401Y-12554984D02*
X7708449Y-12554984D01*
X7851306Y-12545460D02*
X7832258Y-12554984D01*
X7832258Y-12554984D02*
X7794163Y-12554984D01*
X7794163Y-12554984D02*
X7775115Y-12545460D01*
X7775115Y-12545460D02*
X7765592Y-12526412D01*
X7765592Y-12526412D02*
X7765592Y-12450222D01*
X7765592Y-12450222D02*
X7775115Y-12431174D01*
X7775115Y-12431174D02*
X7794163Y-12421650D01*
X7794163Y-12421650D02*
X7832258Y-12421650D01*
X7832258Y-12421650D02*
X7851306Y-12431174D01*
X7851306Y-12431174D02*
X7860830Y-12450222D01*
X7860830Y-12450222D02*
X7860830Y-12469269D01*
X7860830Y-12469269D02*
X7765592Y-12488317D01*
X8032258Y-12554984D02*
X8032258Y-12354984D01*
X8032258Y-12545460D02*
X8013211Y-12554984D01*
X8013211Y-12554984D02*
X7975115Y-12554984D01*
X7975115Y-12554984D02*
X7956068Y-12545460D01*
X7956068Y-12545460D02*
X7946544Y-12535936D01*
X7946544Y-12535936D02*
X7937020Y-12516888D01*
X7937020Y-12516888D02*
X7937020Y-12459746D01*
X7937020Y-12459746D02*
X7946544Y-12440698D01*
X7946544Y-12440698D02*
X7956068Y-12431174D01*
X7956068Y-12431174D02*
X7975115Y-12421650D01*
X7975115Y-12421650D02*
X8013211Y-12421650D01*
X8013211Y-12421650D02*
X8032258Y-12431174D01*
X8108449Y-12631174D02*
X8117973Y-12621650D01*
X8117973Y-12621650D02*
X8137020Y-12593079D01*
X8137020Y-12593079D02*
X8146544Y-12574031D01*
X8146544Y-12574031D02*
X8156068Y-12545460D01*
X8156068Y-12545460D02*
X8165592Y-12497841D01*
X8165592Y-12497841D02*
X8165592Y-12459746D01*
X8165592Y-12459746D02*
X8156068Y-12412127D01*
X8156068Y-12412127D02*
X8146544Y-12383555D01*
X8146544Y-12383555D02*
X8137020Y-12364508D01*
X8137020Y-12364508D02*
X8117973Y-12335936D01*
X8117973Y-12335936D02*
X8108449Y-12326412D01*
M02*
