%TF.GenerationSoftware,KiCad,Pcbnew,7.0.1-0*%
%TF.CreationDate,2023-04-15T21:16:26+09:00*%
%TF.ProjectId,Sandy_Plate_Bottom,53616e64-795f-4506-9c61-74655f426f74,v.1 (042)*%
%TF.SameCoordinates,Original*%
%TF.FileFunction,Legend,Top*%
%TF.FilePolarity,Positive*%
%FSLAX46Y46*%
G04 Gerber Fmt 4.6, Leading zero omitted, Abs format (unit mm)*
G04 Created by KiCad (PCBNEW 7.0.1-0) date 2023-04-15 21:16:26*
%MOMM*%
%LPD*%
G01*
G04 APERTURE LIST*
%ADD10C,0.240000*%
%ADD11C,0.200000*%
%ADD12C,0.300000*%
%ADD13C,0.010000*%
G04 APERTURE END LIST*
D10*
X70675446Y-64249714D02*
X70675446Y-65706857D01*
X70675446Y-65706857D02*
X70761160Y-65878285D01*
X70761160Y-65878285D02*
X70846875Y-65964000D01*
X70846875Y-65964000D02*
X71018303Y-66049714D01*
X71018303Y-66049714D02*
X71361160Y-66049714D01*
X71361160Y-66049714D02*
X71532589Y-65964000D01*
X71532589Y-65964000D02*
X71618303Y-65878285D01*
X71618303Y-65878285D02*
X71704017Y-65706857D01*
X71704017Y-65706857D02*
X71704017Y-64249714D01*
X72561160Y-64849714D02*
X72561160Y-66049714D01*
X72561160Y-65021142D02*
X72646874Y-64935428D01*
X72646874Y-64935428D02*
X72818303Y-64849714D01*
X72818303Y-64849714D02*
X73075446Y-64849714D01*
X73075446Y-64849714D02*
X73246874Y-64935428D01*
X73246874Y-64935428D02*
X73332589Y-65106857D01*
X73332589Y-65106857D02*
X73332589Y-66049714D01*
X74189731Y-66049714D02*
X74189731Y-64849714D01*
X74189731Y-64249714D02*
X74104017Y-64335428D01*
X74104017Y-64335428D02*
X74189731Y-64421142D01*
X74189731Y-64421142D02*
X74275445Y-64335428D01*
X74275445Y-64335428D02*
X74189731Y-64249714D01*
X74189731Y-64249714D02*
X74189731Y-64421142D01*
X74875445Y-64849714D02*
X75304017Y-66049714D01*
X75304017Y-66049714D02*
X75732588Y-64849714D01*
X77104017Y-65964000D02*
X76932589Y-66049714D01*
X76932589Y-66049714D02*
X76589732Y-66049714D01*
X76589732Y-66049714D02*
X76418303Y-65964000D01*
X76418303Y-65964000D02*
X76332589Y-65792571D01*
X76332589Y-65792571D02*
X76332589Y-65106857D01*
X76332589Y-65106857D02*
X76418303Y-64935428D01*
X76418303Y-64935428D02*
X76589732Y-64849714D01*
X76589732Y-64849714D02*
X76932589Y-64849714D01*
X76932589Y-64849714D02*
X77104017Y-64935428D01*
X77104017Y-64935428D02*
X77189732Y-65106857D01*
X77189732Y-65106857D02*
X77189732Y-65278285D01*
X77189732Y-65278285D02*
X76332589Y-65449714D01*
X77961160Y-66049714D02*
X77961160Y-64849714D01*
X77961160Y-65192571D02*
X78046874Y-65021142D01*
X78046874Y-65021142D02*
X78132589Y-64935428D01*
X78132589Y-64935428D02*
X78304017Y-64849714D01*
X78304017Y-64849714D02*
X78475446Y-64849714D01*
X78989732Y-65964000D02*
X79161160Y-66049714D01*
X79161160Y-66049714D02*
X79504017Y-66049714D01*
X79504017Y-66049714D02*
X79675446Y-65964000D01*
X79675446Y-65964000D02*
X79761160Y-65792571D01*
X79761160Y-65792571D02*
X79761160Y-65706857D01*
X79761160Y-65706857D02*
X79675446Y-65535428D01*
X79675446Y-65535428D02*
X79504017Y-65449714D01*
X79504017Y-65449714D02*
X79246875Y-65449714D01*
X79246875Y-65449714D02*
X79075446Y-65364000D01*
X79075446Y-65364000D02*
X78989732Y-65192571D01*
X78989732Y-65192571D02*
X78989732Y-65106857D01*
X78989732Y-65106857D02*
X79075446Y-64935428D01*
X79075446Y-64935428D02*
X79246875Y-64849714D01*
X79246875Y-64849714D02*
X79504017Y-64849714D01*
X79504017Y-64849714D02*
X79675446Y-64935428D01*
X81304018Y-66049714D02*
X81304018Y-65106857D01*
X81304018Y-65106857D02*
X81218303Y-64935428D01*
X81218303Y-64935428D02*
X81046875Y-64849714D01*
X81046875Y-64849714D02*
X80704018Y-64849714D01*
X80704018Y-64849714D02*
X80532589Y-64935428D01*
X81304018Y-65964000D02*
X81132589Y-66049714D01*
X81132589Y-66049714D02*
X80704018Y-66049714D01*
X80704018Y-66049714D02*
X80532589Y-65964000D01*
X80532589Y-65964000D02*
X80446875Y-65792571D01*
X80446875Y-65792571D02*
X80446875Y-65621142D01*
X80446875Y-65621142D02*
X80532589Y-65449714D01*
X80532589Y-65449714D02*
X80704018Y-65364000D01*
X80704018Y-65364000D02*
X81132589Y-65364000D01*
X81132589Y-65364000D02*
X81304018Y-65278285D01*
X82418303Y-66049714D02*
X82246874Y-65964000D01*
X82246874Y-65964000D02*
X82161160Y-65792571D01*
X82161160Y-65792571D02*
X82161160Y-64249714D01*
X85246875Y-64249714D02*
X84904017Y-64249714D01*
X84904017Y-64249714D02*
X84732589Y-64335428D01*
X84732589Y-64335428D02*
X84646875Y-64421142D01*
X84646875Y-64421142D02*
X84475446Y-64678285D01*
X84475446Y-64678285D02*
X84389732Y-65021142D01*
X84389732Y-65021142D02*
X84389732Y-65706857D01*
X84389732Y-65706857D02*
X84475446Y-65878285D01*
X84475446Y-65878285D02*
X84561160Y-65964000D01*
X84561160Y-65964000D02*
X84732589Y-66049714D01*
X84732589Y-66049714D02*
X85075446Y-66049714D01*
X85075446Y-66049714D02*
X85246875Y-65964000D01*
X85246875Y-65964000D02*
X85332589Y-65878285D01*
X85332589Y-65878285D02*
X85418303Y-65706857D01*
X85418303Y-65706857D02*
X85418303Y-65278285D01*
X85418303Y-65278285D02*
X85332589Y-65106857D01*
X85332589Y-65106857D02*
X85246875Y-65021142D01*
X85246875Y-65021142D02*
X85075446Y-64935428D01*
X85075446Y-64935428D02*
X84732589Y-64935428D01*
X84732589Y-64935428D02*
X84561160Y-65021142D01*
X84561160Y-65021142D02*
X84475446Y-65106857D01*
X84475446Y-65106857D02*
X84389732Y-65278285D01*
X86532589Y-64249714D02*
X86704018Y-64249714D01*
X86704018Y-64249714D02*
X86875446Y-64335428D01*
X86875446Y-64335428D02*
X86961161Y-64421142D01*
X86961161Y-64421142D02*
X87046875Y-64592571D01*
X87046875Y-64592571D02*
X87132589Y-64935428D01*
X87132589Y-64935428D02*
X87132589Y-65364000D01*
X87132589Y-65364000D02*
X87046875Y-65706857D01*
X87046875Y-65706857D02*
X86961161Y-65878285D01*
X86961161Y-65878285D02*
X86875446Y-65964000D01*
X86875446Y-65964000D02*
X86704018Y-66049714D01*
X86704018Y-66049714D02*
X86532589Y-66049714D01*
X86532589Y-66049714D02*
X86361161Y-65964000D01*
X86361161Y-65964000D02*
X86275446Y-65878285D01*
X86275446Y-65878285D02*
X86189732Y-65706857D01*
X86189732Y-65706857D02*
X86104018Y-65364000D01*
X86104018Y-65364000D02*
X86104018Y-64935428D01*
X86104018Y-64935428D02*
X86189732Y-64592571D01*
X86189732Y-64592571D02*
X86275446Y-64421142D01*
X86275446Y-64421142D02*
X86361161Y-64335428D01*
X86361161Y-64335428D02*
X86532589Y-64249714D01*
X87818304Y-66049714D02*
X89189732Y-64249714D01*
X88075447Y-64249714D02*
X88246875Y-64335428D01*
X88246875Y-64335428D02*
X88332589Y-64506857D01*
X88332589Y-64506857D02*
X88246875Y-64678285D01*
X88246875Y-64678285D02*
X88075447Y-64764000D01*
X88075447Y-64764000D02*
X87904018Y-64678285D01*
X87904018Y-64678285D02*
X87818304Y-64506857D01*
X87818304Y-64506857D02*
X87904018Y-64335428D01*
X87904018Y-64335428D02*
X88075447Y-64249714D01*
X89104018Y-65964000D02*
X89189732Y-65792571D01*
X89189732Y-65792571D02*
X89104018Y-65621142D01*
X89104018Y-65621142D02*
X88932589Y-65535428D01*
X88932589Y-65535428D02*
X88761161Y-65621142D01*
X88761161Y-65621142D02*
X88675447Y-65792571D01*
X88675447Y-65792571D02*
X88761161Y-65964000D01*
X88761161Y-65964000D02*
X88932589Y-66049714D01*
X88932589Y-66049714D02*
X89104018Y-65964000D01*
X91932590Y-65106857D02*
X92189733Y-65192571D01*
X92189733Y-65192571D02*
X92275447Y-65278285D01*
X92275447Y-65278285D02*
X92361161Y-65449714D01*
X92361161Y-65449714D02*
X92361161Y-65706857D01*
X92361161Y-65706857D02*
X92275447Y-65878285D01*
X92275447Y-65878285D02*
X92189733Y-65964000D01*
X92189733Y-65964000D02*
X92018304Y-66049714D01*
X92018304Y-66049714D02*
X91332590Y-66049714D01*
X91332590Y-66049714D02*
X91332590Y-64249714D01*
X91332590Y-64249714D02*
X91932590Y-64249714D01*
X91932590Y-64249714D02*
X92104019Y-64335428D01*
X92104019Y-64335428D02*
X92189733Y-64421142D01*
X92189733Y-64421142D02*
X92275447Y-64592571D01*
X92275447Y-64592571D02*
X92275447Y-64764000D01*
X92275447Y-64764000D02*
X92189733Y-64935428D01*
X92189733Y-64935428D02*
X92104019Y-65021142D01*
X92104019Y-65021142D02*
X91932590Y-65106857D01*
X91932590Y-65106857D02*
X91332590Y-65106857D01*
X93389733Y-66049714D02*
X93218304Y-65964000D01*
X93218304Y-65964000D02*
X93132590Y-65878285D01*
X93132590Y-65878285D02*
X93046876Y-65706857D01*
X93046876Y-65706857D02*
X93046876Y-65192571D01*
X93046876Y-65192571D02*
X93132590Y-65021142D01*
X93132590Y-65021142D02*
X93218304Y-64935428D01*
X93218304Y-64935428D02*
X93389733Y-64849714D01*
X93389733Y-64849714D02*
X93646876Y-64849714D01*
X93646876Y-64849714D02*
X93818304Y-64935428D01*
X93818304Y-64935428D02*
X93904019Y-65021142D01*
X93904019Y-65021142D02*
X93989733Y-65192571D01*
X93989733Y-65192571D02*
X93989733Y-65706857D01*
X93989733Y-65706857D02*
X93904019Y-65878285D01*
X93904019Y-65878285D02*
X93818304Y-65964000D01*
X93818304Y-65964000D02*
X93646876Y-66049714D01*
X93646876Y-66049714D02*
X93389733Y-66049714D01*
X94504018Y-64849714D02*
X95189732Y-64849714D01*
X94761161Y-64249714D02*
X94761161Y-65792571D01*
X94761161Y-65792571D02*
X94846875Y-65964000D01*
X94846875Y-65964000D02*
X95018304Y-66049714D01*
X95018304Y-66049714D02*
X95189732Y-66049714D01*
X95532589Y-64849714D02*
X96218303Y-64849714D01*
X95789732Y-64249714D02*
X95789732Y-65792571D01*
X95789732Y-65792571D02*
X95875446Y-65964000D01*
X95875446Y-65964000D02*
X96046875Y-66049714D01*
X96046875Y-66049714D02*
X96218303Y-66049714D01*
X97075446Y-66049714D02*
X96904017Y-65964000D01*
X96904017Y-65964000D02*
X96818303Y-65878285D01*
X96818303Y-65878285D02*
X96732589Y-65706857D01*
X96732589Y-65706857D02*
X96732589Y-65192571D01*
X96732589Y-65192571D02*
X96818303Y-65021142D01*
X96818303Y-65021142D02*
X96904017Y-64935428D01*
X96904017Y-64935428D02*
X97075446Y-64849714D01*
X97075446Y-64849714D02*
X97332589Y-64849714D01*
X97332589Y-64849714D02*
X97504017Y-64935428D01*
X97504017Y-64935428D02*
X97589732Y-65021142D01*
X97589732Y-65021142D02*
X97675446Y-65192571D01*
X97675446Y-65192571D02*
X97675446Y-65706857D01*
X97675446Y-65706857D02*
X97589732Y-65878285D01*
X97589732Y-65878285D02*
X97504017Y-65964000D01*
X97504017Y-65964000D02*
X97332589Y-66049714D01*
X97332589Y-66049714D02*
X97075446Y-66049714D01*
X98446874Y-66049714D02*
X98446874Y-64849714D01*
X98446874Y-65021142D02*
X98532588Y-64935428D01*
X98532588Y-64935428D02*
X98704017Y-64849714D01*
X98704017Y-64849714D02*
X98961160Y-64849714D01*
X98961160Y-64849714D02*
X99132588Y-64935428D01*
X99132588Y-64935428D02*
X99218303Y-65106857D01*
X99218303Y-65106857D02*
X99218303Y-66049714D01*
X99218303Y-65106857D02*
X99304017Y-64935428D01*
X99304017Y-64935428D02*
X99475445Y-64849714D01*
X99475445Y-64849714D02*
X99732588Y-64849714D01*
X99732588Y-64849714D02*
X99904017Y-64935428D01*
X99904017Y-64935428D02*
X99989731Y-65106857D01*
X99989731Y-65106857D02*
X99989731Y-66049714D01*
X102218303Y-66049714D02*
X102218303Y-64249714D01*
X102218303Y-64249714D02*
X102904017Y-64249714D01*
X102904017Y-64249714D02*
X103075446Y-64335428D01*
X103075446Y-64335428D02*
X103161160Y-64421142D01*
X103161160Y-64421142D02*
X103246874Y-64592571D01*
X103246874Y-64592571D02*
X103246874Y-64849714D01*
X103246874Y-64849714D02*
X103161160Y-65021142D01*
X103161160Y-65021142D02*
X103075446Y-65106857D01*
X103075446Y-65106857D02*
X102904017Y-65192571D01*
X102904017Y-65192571D02*
X102218303Y-65192571D01*
X104275446Y-66049714D02*
X104104017Y-65964000D01*
X104104017Y-65964000D02*
X104018303Y-65792571D01*
X104018303Y-65792571D02*
X104018303Y-64249714D01*
X105732589Y-66049714D02*
X105732589Y-65106857D01*
X105732589Y-65106857D02*
X105646874Y-64935428D01*
X105646874Y-64935428D02*
X105475446Y-64849714D01*
X105475446Y-64849714D02*
X105132589Y-64849714D01*
X105132589Y-64849714D02*
X104961160Y-64935428D01*
X105732589Y-65964000D02*
X105561160Y-66049714D01*
X105561160Y-66049714D02*
X105132589Y-66049714D01*
X105132589Y-66049714D02*
X104961160Y-65964000D01*
X104961160Y-65964000D02*
X104875446Y-65792571D01*
X104875446Y-65792571D02*
X104875446Y-65621142D01*
X104875446Y-65621142D02*
X104961160Y-65449714D01*
X104961160Y-65449714D02*
X105132589Y-65364000D01*
X105132589Y-65364000D02*
X105561160Y-65364000D01*
X105561160Y-65364000D02*
X105732589Y-65278285D01*
X106332588Y-64849714D02*
X107018302Y-64849714D01*
X106589731Y-64249714D02*
X106589731Y-65792571D01*
X106589731Y-65792571D02*
X106675445Y-65964000D01*
X106675445Y-65964000D02*
X106846874Y-66049714D01*
X106846874Y-66049714D02*
X107018302Y-66049714D01*
X108304016Y-65964000D02*
X108132588Y-66049714D01*
X108132588Y-66049714D02*
X107789731Y-66049714D01*
X107789731Y-66049714D02*
X107618302Y-65964000D01*
X107618302Y-65964000D02*
X107532588Y-65792571D01*
X107532588Y-65792571D02*
X107532588Y-65106857D01*
X107532588Y-65106857D02*
X107618302Y-64935428D01*
X107618302Y-64935428D02*
X107789731Y-64849714D01*
X107789731Y-64849714D02*
X108132588Y-64849714D01*
X108132588Y-64849714D02*
X108304016Y-64935428D01*
X108304016Y-64935428D02*
X108389731Y-65106857D01*
X108389731Y-65106857D02*
X108389731Y-65278285D01*
X108389731Y-65278285D02*
X107532588Y-65449714D01*
X110361159Y-64849714D02*
X110789731Y-66049714D01*
X110789731Y-66049714D02*
X111218302Y-64849714D01*
X111904017Y-65878285D02*
X111989731Y-65964000D01*
X111989731Y-65964000D02*
X111904017Y-66049714D01*
X111904017Y-66049714D02*
X111818303Y-65964000D01*
X111818303Y-65964000D02*
X111904017Y-65878285D01*
X111904017Y-65878285D02*
X111904017Y-66049714D01*
X113704017Y-66049714D02*
X112675446Y-66049714D01*
X113189731Y-66049714D02*
X113189731Y-64249714D01*
X113189731Y-64249714D02*
X113018303Y-64506857D01*
X113018303Y-64506857D02*
X112846874Y-64678285D01*
X112846874Y-64678285D02*
X112675446Y-64764000D01*
X114475446Y-65878285D02*
X114561160Y-65964000D01*
X114561160Y-65964000D02*
X114475446Y-66049714D01*
X114475446Y-66049714D02*
X114389732Y-65964000D01*
X114389732Y-65964000D02*
X114475446Y-65878285D01*
X114475446Y-65878285D02*
X114475446Y-66049714D01*
X115161160Y-64249714D02*
X116275446Y-64249714D01*
X116275446Y-64249714D02*
X115675446Y-64935428D01*
X115675446Y-64935428D02*
X115932589Y-64935428D01*
X115932589Y-64935428D02*
X116104018Y-65021142D01*
X116104018Y-65021142D02*
X116189732Y-65106857D01*
X116189732Y-65106857D02*
X116275446Y-65278285D01*
X116275446Y-65278285D02*
X116275446Y-65706857D01*
X116275446Y-65706857D02*
X116189732Y-65878285D01*
X116189732Y-65878285D02*
X116104018Y-65964000D01*
X116104018Y-65964000D02*
X115932589Y-66049714D01*
X115932589Y-66049714D02*
X115418303Y-66049714D01*
X115418303Y-66049714D02*
X115246875Y-65964000D01*
X115246875Y-65964000D02*
X115161160Y-65878285D01*
X70675446Y-68965714D02*
X70675446Y-67165714D01*
X70675446Y-67851428D02*
X70846875Y-67765714D01*
X70846875Y-67765714D02*
X71189732Y-67765714D01*
X71189732Y-67765714D02*
X71361160Y-67851428D01*
X71361160Y-67851428D02*
X71446875Y-67937142D01*
X71446875Y-67937142D02*
X71532589Y-68108571D01*
X71532589Y-68108571D02*
X71532589Y-68622857D01*
X71532589Y-68622857D02*
X71446875Y-68794285D01*
X71446875Y-68794285D02*
X71361160Y-68880000D01*
X71361160Y-68880000D02*
X71189732Y-68965714D01*
X71189732Y-68965714D02*
X70846875Y-68965714D01*
X70846875Y-68965714D02*
X70675446Y-68880000D01*
X72132588Y-67765714D02*
X72561160Y-68965714D01*
X72989731Y-67765714D02*
X72561160Y-68965714D01*
X72561160Y-68965714D02*
X72389731Y-69394285D01*
X72389731Y-69394285D02*
X72304017Y-69480000D01*
X72304017Y-69480000D02*
X72132588Y-69565714D01*
X76161161Y-68108571D02*
X76075446Y-68022857D01*
X76075446Y-68022857D02*
X75904018Y-67937142D01*
X75904018Y-67937142D02*
X75732589Y-67937142D01*
X75732589Y-67937142D02*
X75561161Y-68022857D01*
X75561161Y-68022857D02*
X75475446Y-68108571D01*
X75475446Y-68108571D02*
X75389732Y-68280000D01*
X75389732Y-68280000D02*
X75389732Y-68451428D01*
X75389732Y-68451428D02*
X75475446Y-68622857D01*
X75475446Y-68622857D02*
X75561161Y-68708571D01*
X75561161Y-68708571D02*
X75732589Y-68794285D01*
X75732589Y-68794285D02*
X75904018Y-68794285D01*
X75904018Y-68794285D02*
X76075446Y-68708571D01*
X76075446Y-68708571D02*
X76161161Y-68622857D01*
X76161161Y-67937142D02*
X76161161Y-68622857D01*
X76161161Y-68622857D02*
X76246875Y-68708571D01*
X76246875Y-68708571D02*
X76332589Y-68708571D01*
X76332589Y-68708571D02*
X76504018Y-68622857D01*
X76504018Y-68622857D02*
X76589732Y-68451428D01*
X76589732Y-68451428D02*
X76589732Y-68022857D01*
X76589732Y-68022857D02*
X76418304Y-67765714D01*
X76418304Y-67765714D02*
X76161161Y-67594285D01*
X76161161Y-67594285D02*
X75818304Y-67508571D01*
X75818304Y-67508571D02*
X75475446Y-67594285D01*
X75475446Y-67594285D02*
X75218304Y-67765714D01*
X75218304Y-67765714D02*
X75046875Y-68022857D01*
X75046875Y-68022857D02*
X74961161Y-68365714D01*
X74961161Y-68365714D02*
X75046875Y-68708571D01*
X75046875Y-68708571D02*
X75218304Y-68965714D01*
X75218304Y-68965714D02*
X75475446Y-69137142D01*
X75475446Y-69137142D02*
X75818304Y-69222857D01*
X75818304Y-69222857D02*
X76161161Y-69137142D01*
X76161161Y-69137142D02*
X76418304Y-68965714D01*
X77361161Y-67765714D02*
X77361161Y-69308571D01*
X77361161Y-69308571D02*
X77275447Y-69480000D01*
X77275447Y-69480000D02*
X77104018Y-69565714D01*
X77104018Y-69565714D02*
X77018304Y-69565714D01*
X77361161Y-67165714D02*
X77275447Y-67251428D01*
X77275447Y-67251428D02*
X77361161Y-67337142D01*
X77361161Y-67337142D02*
X77446875Y-67251428D01*
X77446875Y-67251428D02*
X77361161Y-67165714D01*
X77361161Y-67165714D02*
X77361161Y-67337142D01*
X78218304Y-67765714D02*
X78218304Y-69565714D01*
X78218304Y-67851428D02*
X78389733Y-67765714D01*
X78389733Y-67765714D02*
X78732590Y-67765714D01*
X78732590Y-67765714D02*
X78904018Y-67851428D01*
X78904018Y-67851428D02*
X78989733Y-67937142D01*
X78989733Y-67937142D02*
X79075447Y-68108571D01*
X79075447Y-68108571D02*
X79075447Y-68622857D01*
X79075447Y-68622857D02*
X78989733Y-68794285D01*
X78989733Y-68794285D02*
X78904018Y-68880000D01*
X78904018Y-68880000D02*
X78732590Y-68965714D01*
X78732590Y-68965714D02*
X78389733Y-68965714D01*
X78389733Y-68965714D02*
X78218304Y-68880000D01*
X79761161Y-68880000D02*
X79932589Y-68965714D01*
X79932589Y-68965714D02*
X80275446Y-68965714D01*
X80275446Y-68965714D02*
X80446875Y-68880000D01*
X80446875Y-68880000D02*
X80532589Y-68708571D01*
X80532589Y-68708571D02*
X80532589Y-68622857D01*
X80532589Y-68622857D02*
X80446875Y-68451428D01*
X80446875Y-68451428D02*
X80275446Y-68365714D01*
X80275446Y-68365714D02*
X80018304Y-68365714D01*
X80018304Y-68365714D02*
X79846875Y-68280000D01*
X79846875Y-68280000D02*
X79761161Y-68108571D01*
X79761161Y-68108571D02*
X79761161Y-68022857D01*
X79761161Y-68022857D02*
X79846875Y-67851428D01*
X79846875Y-67851428D02*
X80018304Y-67765714D01*
X80018304Y-67765714D02*
X80275446Y-67765714D01*
X80275446Y-67765714D02*
X80446875Y-67851428D01*
X81304018Y-68965714D02*
X81304018Y-67165714D01*
X81475447Y-68280000D02*
X81989732Y-68965714D01*
X81989732Y-67765714D02*
X81304018Y-68451428D01*
X83446875Y-68880000D02*
X83275447Y-68965714D01*
X83275447Y-68965714D02*
X82932590Y-68965714D01*
X82932590Y-68965714D02*
X82761161Y-68880000D01*
X82761161Y-68880000D02*
X82675447Y-68708571D01*
X82675447Y-68708571D02*
X82675447Y-68022857D01*
X82675447Y-68022857D02*
X82761161Y-67851428D01*
X82761161Y-67851428D02*
X82932590Y-67765714D01*
X82932590Y-67765714D02*
X83275447Y-67765714D01*
X83275447Y-67765714D02*
X83446875Y-67851428D01*
X83446875Y-67851428D02*
X83532590Y-68022857D01*
X83532590Y-68022857D02*
X83532590Y-68194285D01*
X83532590Y-68194285D02*
X82675447Y-68365714D01*
X84304018Y-67765714D02*
X84304018Y-68965714D01*
X84304018Y-67937142D02*
X84389732Y-67851428D01*
X84389732Y-67851428D02*
X84561161Y-67765714D01*
X84561161Y-67765714D02*
X84818304Y-67765714D01*
X84818304Y-67765714D02*
X84989732Y-67851428D01*
X84989732Y-67851428D02*
X85075447Y-68022857D01*
X85075447Y-68022857D02*
X85075447Y-68965714D01*
X85932589Y-67765714D02*
X85932589Y-68965714D01*
X85932589Y-67937142D02*
X86018303Y-67851428D01*
X86018303Y-67851428D02*
X86189732Y-67765714D01*
X86189732Y-67765714D02*
X86446875Y-67765714D01*
X86446875Y-67765714D02*
X86618303Y-67851428D01*
X86618303Y-67851428D02*
X86704018Y-68022857D01*
X86704018Y-68022857D02*
X86704018Y-68965714D01*
D11*
X71032589Y-73012678D02*
X71032589Y-74084107D01*
X71032589Y-74084107D02*
X70961160Y-74298392D01*
X70961160Y-74298392D02*
X70818303Y-74441250D01*
X70818303Y-74441250D02*
X70604017Y-74512678D01*
X70604017Y-74512678D02*
X70461160Y-74512678D01*
X72461160Y-74512678D02*
X71746874Y-74512678D01*
X71746874Y-74512678D02*
X71746874Y-73012678D01*
X73818303Y-74369821D02*
X73746875Y-74441250D01*
X73746875Y-74441250D02*
X73532589Y-74512678D01*
X73532589Y-74512678D02*
X73389732Y-74512678D01*
X73389732Y-74512678D02*
X73175446Y-74441250D01*
X73175446Y-74441250D02*
X73032589Y-74298392D01*
X73032589Y-74298392D02*
X72961160Y-74155535D01*
X72961160Y-74155535D02*
X72889732Y-73869821D01*
X72889732Y-73869821D02*
X72889732Y-73655535D01*
X72889732Y-73655535D02*
X72961160Y-73369821D01*
X72961160Y-73369821D02*
X73032589Y-73226964D01*
X73032589Y-73226964D02*
X73175446Y-73084107D01*
X73175446Y-73084107D02*
X73389732Y-73012678D01*
X73389732Y-73012678D02*
X73532589Y-73012678D01*
X73532589Y-73012678D02*
X73746875Y-73084107D01*
X73746875Y-73084107D02*
X73818303Y-73155535D01*
X74889732Y-73012678D02*
X74889732Y-74084107D01*
X74889732Y-74084107D02*
X74818303Y-74298392D01*
X74818303Y-74298392D02*
X74675446Y-74441250D01*
X74675446Y-74441250D02*
X74461160Y-74512678D01*
X74461160Y-74512678D02*
X74318303Y-74512678D01*
X76318303Y-74512678D02*
X75604017Y-74512678D01*
X75604017Y-74512678D02*
X75604017Y-73012678D01*
X77675446Y-74369821D02*
X77604018Y-74441250D01*
X77604018Y-74441250D02*
X77389732Y-74512678D01*
X77389732Y-74512678D02*
X77246875Y-74512678D01*
X77246875Y-74512678D02*
X77032589Y-74441250D01*
X77032589Y-74441250D02*
X76889732Y-74298392D01*
X76889732Y-74298392D02*
X76818303Y-74155535D01*
X76818303Y-74155535D02*
X76746875Y-73869821D01*
X76746875Y-73869821D02*
X76746875Y-73655535D01*
X76746875Y-73655535D02*
X76818303Y-73369821D01*
X76818303Y-73369821D02*
X76889732Y-73226964D01*
X76889732Y-73226964D02*
X77032589Y-73084107D01*
X77032589Y-73084107D02*
X77246875Y-73012678D01*
X77246875Y-73012678D02*
X77389732Y-73012678D01*
X77389732Y-73012678D02*
X77604018Y-73084107D01*
X77604018Y-73084107D02*
X77675446Y-73155535D01*
X78746875Y-73012678D02*
X78746875Y-74084107D01*
X78746875Y-74084107D02*
X78675446Y-74298392D01*
X78675446Y-74298392D02*
X78532589Y-74441250D01*
X78532589Y-74441250D02*
X78318303Y-74512678D01*
X78318303Y-74512678D02*
X78175446Y-74512678D01*
X80175446Y-74512678D02*
X79461160Y-74512678D01*
X79461160Y-74512678D02*
X79461160Y-73012678D01*
X81532589Y-74369821D02*
X81461161Y-74441250D01*
X81461161Y-74441250D02*
X81246875Y-74512678D01*
X81246875Y-74512678D02*
X81104018Y-74512678D01*
X81104018Y-74512678D02*
X80889732Y-74441250D01*
X80889732Y-74441250D02*
X80746875Y-74298392D01*
X80746875Y-74298392D02*
X80675446Y-74155535D01*
X80675446Y-74155535D02*
X80604018Y-73869821D01*
X80604018Y-73869821D02*
X80604018Y-73655535D01*
X80604018Y-73655535D02*
X80675446Y-73369821D01*
X80675446Y-73369821D02*
X80746875Y-73226964D01*
X80746875Y-73226964D02*
X80889732Y-73084107D01*
X80889732Y-73084107D02*
X81104018Y-73012678D01*
X81104018Y-73012678D02*
X81246875Y-73012678D01*
X81246875Y-73012678D02*
X81461161Y-73084107D01*
X81461161Y-73084107D02*
X81532589Y-73155535D01*
X82604018Y-73012678D02*
X82604018Y-74084107D01*
X82604018Y-74084107D02*
X82532589Y-74298392D01*
X82532589Y-74298392D02*
X82389732Y-74441250D01*
X82389732Y-74441250D02*
X82175446Y-74512678D01*
X82175446Y-74512678D02*
X82032589Y-74512678D01*
X84032589Y-74512678D02*
X83318303Y-74512678D01*
X83318303Y-74512678D02*
X83318303Y-73012678D01*
X85389732Y-74369821D02*
X85318304Y-74441250D01*
X85318304Y-74441250D02*
X85104018Y-74512678D01*
X85104018Y-74512678D02*
X84961161Y-74512678D01*
X84961161Y-74512678D02*
X84746875Y-74441250D01*
X84746875Y-74441250D02*
X84604018Y-74298392D01*
X84604018Y-74298392D02*
X84532589Y-74155535D01*
X84532589Y-74155535D02*
X84461161Y-73869821D01*
X84461161Y-73869821D02*
X84461161Y-73655535D01*
X84461161Y-73655535D02*
X84532589Y-73369821D01*
X84532589Y-73369821D02*
X84604018Y-73226964D01*
X84604018Y-73226964D02*
X84746875Y-73084107D01*
X84746875Y-73084107D02*
X84961161Y-73012678D01*
X84961161Y-73012678D02*
X85104018Y-73012678D01*
X85104018Y-73012678D02*
X85318304Y-73084107D01*
X85318304Y-73084107D02*
X85389732Y-73155535D01*
D12*
%TO.C,G\u002A\u002A\u002A*%
X200440179Y-79404589D02*
X201725893Y-79404589D01*
X200954464Y-78633160D02*
X200440179Y-80947446D01*
X201554464Y-80176017D02*
X200268750Y-80176017D01*
X201040179Y-80947446D02*
X201554464Y-78633160D01*
X202325893Y-80604589D02*
X202325893Y-78804589D01*
X202325893Y-78804589D02*
X203354464Y-80604589D01*
X203354464Y-80604589D02*
X203354464Y-78804589D01*
X204468750Y-80604589D02*
X204297321Y-80518875D01*
X204297321Y-80518875D02*
X204211607Y-80433160D01*
X204211607Y-80433160D02*
X204125893Y-80261732D01*
X204125893Y-80261732D02*
X204125893Y-79747446D01*
X204125893Y-79747446D02*
X204211607Y-79576017D01*
X204211607Y-79576017D02*
X204297321Y-79490303D01*
X204297321Y-79490303D02*
X204468750Y-79404589D01*
X204468750Y-79404589D02*
X204725893Y-79404589D01*
X204725893Y-79404589D02*
X204897321Y-79490303D01*
X204897321Y-79490303D02*
X204983036Y-79576017D01*
X204983036Y-79576017D02*
X205068750Y-79747446D01*
X205068750Y-79747446D02*
X205068750Y-80261732D01*
X205068750Y-80261732D02*
X204983036Y-80433160D01*
X204983036Y-80433160D02*
X204897321Y-80518875D01*
X204897321Y-80518875D02*
X204725893Y-80604589D01*
X204725893Y-80604589D02*
X204468750Y-80604589D01*
X205840178Y-80604589D02*
X205840178Y-79404589D01*
X205840178Y-79747446D02*
X205925892Y-79576017D01*
X205925892Y-79576017D02*
X206011607Y-79490303D01*
X206011607Y-79490303D02*
X206183035Y-79404589D01*
X206183035Y-79404589D02*
X206354464Y-79404589D01*
X207725893Y-80604589D02*
X207725893Y-79661732D01*
X207725893Y-79661732D02*
X207640178Y-79490303D01*
X207640178Y-79490303D02*
X207468750Y-79404589D01*
X207468750Y-79404589D02*
X207125893Y-79404589D01*
X207125893Y-79404589D02*
X206954464Y-79490303D01*
X207725893Y-80518875D02*
X207554464Y-80604589D01*
X207554464Y-80604589D02*
X207125893Y-80604589D01*
X207125893Y-80604589D02*
X206954464Y-80518875D01*
X206954464Y-80518875D02*
X206868750Y-80347446D01*
X206868750Y-80347446D02*
X206868750Y-80176017D01*
X206868750Y-80176017D02*
X206954464Y-80004589D01*
X206954464Y-80004589D02*
X207125893Y-79918875D01*
X207125893Y-79918875D02*
X207554464Y-79918875D01*
X207554464Y-79918875D02*
X207725893Y-79833160D01*
X208154464Y-80776017D02*
X209525892Y-80776017D01*
X209954464Y-80604589D02*
X209954464Y-78804589D01*
X210125893Y-79918875D02*
X210640178Y-80604589D01*
X210640178Y-79404589D02*
X209954464Y-80090303D01*
X211411607Y-80604589D02*
X211411607Y-78804589D01*
X211411607Y-79490303D02*
X211583036Y-79404589D01*
X211583036Y-79404589D02*
X211925893Y-79404589D01*
X211925893Y-79404589D02*
X212097321Y-79490303D01*
X212097321Y-79490303D02*
X212183036Y-79576017D01*
X212183036Y-79576017D02*
X212268750Y-79747446D01*
X212268750Y-79747446D02*
X212268750Y-80261732D01*
X212268750Y-80261732D02*
X212183036Y-80433160D01*
X212183036Y-80433160D02*
X212097321Y-80518875D01*
X212097321Y-80518875D02*
X211925893Y-80604589D01*
X211925893Y-80604589D02*
X211583036Y-80604589D01*
X211583036Y-80604589D02*
X211411607Y-80518875D01*
X213811607Y-80604589D02*
X213811607Y-78804589D01*
X213811607Y-80518875D02*
X213640178Y-80604589D01*
X213640178Y-80604589D02*
X213297321Y-80604589D01*
X213297321Y-80604589D02*
X213125892Y-80518875D01*
X213125892Y-80518875D02*
X213040178Y-80433160D01*
X213040178Y-80433160D02*
X212954464Y-80261732D01*
X212954464Y-80261732D02*
X212954464Y-79747446D01*
X212954464Y-79747446D02*
X213040178Y-79576017D01*
X213040178Y-79576017D02*
X213125892Y-79490303D01*
X213125892Y-79490303D02*
X213297321Y-79404589D01*
X213297321Y-79404589D02*
X213640178Y-79404589D01*
X213640178Y-79404589D02*
X213811607Y-79490303D01*
X164035715Y-79404589D02*
X165321429Y-79404589D01*
X164550000Y-78633160D02*
X164035715Y-80947446D01*
X165150000Y-80176017D02*
X163864286Y-80176017D01*
X164635715Y-80947446D02*
X165150000Y-78633160D01*
X166435715Y-78804589D02*
X166435715Y-80090303D01*
X166435715Y-80090303D02*
X166350000Y-80347446D01*
X166350000Y-80347446D02*
X166178572Y-80518875D01*
X166178572Y-80518875D02*
X165921429Y-80604589D01*
X165921429Y-80604589D02*
X165750000Y-80604589D01*
X167550001Y-80604589D02*
X167378572Y-80518875D01*
X167378572Y-80518875D02*
X167292858Y-80433160D01*
X167292858Y-80433160D02*
X167207144Y-80261732D01*
X167207144Y-80261732D02*
X167207144Y-79747446D01*
X167207144Y-79747446D02*
X167292858Y-79576017D01*
X167292858Y-79576017D02*
X167378572Y-79490303D01*
X167378572Y-79490303D02*
X167550001Y-79404589D01*
X167550001Y-79404589D02*
X167807144Y-79404589D01*
X167807144Y-79404589D02*
X167978572Y-79490303D01*
X167978572Y-79490303D02*
X168064287Y-79576017D01*
X168064287Y-79576017D02*
X168150001Y-79747446D01*
X168150001Y-79747446D02*
X168150001Y-80261732D01*
X168150001Y-80261732D02*
X168064287Y-80433160D01*
X168064287Y-80433160D02*
X167978572Y-80518875D01*
X167978572Y-80518875D02*
X167807144Y-80604589D01*
X167807144Y-80604589D02*
X167550001Y-80604589D01*
X168921429Y-79404589D02*
X168921429Y-80604589D01*
X168921429Y-79576017D02*
X169007143Y-79490303D01*
X169007143Y-79490303D02*
X169178572Y-79404589D01*
X169178572Y-79404589D02*
X169435715Y-79404589D01*
X169435715Y-79404589D02*
X169607143Y-79490303D01*
X169607143Y-79490303D02*
X169692858Y-79661732D01*
X169692858Y-79661732D02*
X169692858Y-80604589D01*
X171235714Y-80518875D02*
X171064286Y-80604589D01*
X171064286Y-80604589D02*
X170721429Y-80604589D01*
X170721429Y-80604589D02*
X170550000Y-80518875D01*
X170550000Y-80518875D02*
X170464286Y-80347446D01*
X170464286Y-80347446D02*
X170464286Y-79661732D01*
X170464286Y-79661732D02*
X170550000Y-79490303D01*
X170550000Y-79490303D02*
X170721429Y-79404589D01*
X170721429Y-79404589D02*
X171064286Y-79404589D01*
X171064286Y-79404589D02*
X171235714Y-79490303D01*
X171235714Y-79490303D02*
X171321429Y-79661732D01*
X171321429Y-79661732D02*
X171321429Y-79833160D01*
X171321429Y-79833160D02*
X170464286Y-80004589D01*
X172007143Y-80518875D02*
X172178571Y-80604589D01*
X172178571Y-80604589D02*
X172521428Y-80604589D01*
X172521428Y-80604589D02*
X172692857Y-80518875D01*
X172692857Y-80518875D02*
X172778571Y-80347446D01*
X172778571Y-80347446D02*
X172778571Y-80261732D01*
X172778571Y-80261732D02*
X172692857Y-80090303D01*
X172692857Y-80090303D02*
X172521428Y-80004589D01*
X172521428Y-80004589D02*
X172264286Y-80004589D01*
X172264286Y-80004589D02*
X172092857Y-79918875D01*
X172092857Y-79918875D02*
X172007143Y-79747446D01*
X172007143Y-79747446D02*
X172007143Y-79661732D01*
X172007143Y-79661732D02*
X172092857Y-79490303D01*
X172092857Y-79490303D02*
X172264286Y-79404589D01*
X172264286Y-79404589D02*
X172521428Y-79404589D01*
X172521428Y-79404589D02*
X172692857Y-79490303D01*
X173121429Y-80776017D02*
X174492857Y-80776017D01*
X174921429Y-80604589D02*
X174921429Y-78804589D01*
X175092858Y-79918875D02*
X175607143Y-80604589D01*
X175607143Y-79404589D02*
X174921429Y-80090303D01*
X176378572Y-80604589D02*
X176378572Y-78804589D01*
X176378572Y-79490303D02*
X176550001Y-79404589D01*
X176550001Y-79404589D02*
X176892858Y-79404589D01*
X176892858Y-79404589D02*
X177064286Y-79490303D01*
X177064286Y-79490303D02*
X177150001Y-79576017D01*
X177150001Y-79576017D02*
X177235715Y-79747446D01*
X177235715Y-79747446D02*
X177235715Y-80261732D01*
X177235715Y-80261732D02*
X177150001Y-80433160D01*
X177150001Y-80433160D02*
X177064286Y-80518875D01*
X177064286Y-80518875D02*
X176892858Y-80604589D01*
X176892858Y-80604589D02*
X176550001Y-80604589D01*
X176550001Y-80604589D02*
X176378572Y-80518875D01*
X178778572Y-80604589D02*
X178778572Y-78804589D01*
X178778572Y-80518875D02*
X178607143Y-80604589D01*
X178607143Y-80604589D02*
X178264286Y-80604589D01*
X178264286Y-80604589D02*
X178092857Y-80518875D01*
X178092857Y-80518875D02*
X178007143Y-80433160D01*
X178007143Y-80433160D02*
X177921429Y-80261732D01*
X177921429Y-80261732D02*
X177921429Y-79747446D01*
X177921429Y-79747446D02*
X178007143Y-79576017D01*
X178007143Y-79576017D02*
X178092857Y-79490303D01*
X178092857Y-79490303D02*
X178264286Y-79404589D01*
X178264286Y-79404589D02*
X178607143Y-79404589D01*
X178607143Y-79404589D02*
X178778572Y-79490303D01*
X237683036Y-79404589D02*
X238968750Y-79404589D01*
X238197321Y-78633160D02*
X237683036Y-80947446D01*
X238797321Y-80176017D02*
X237511607Y-80176017D01*
X238283036Y-80947446D02*
X238797321Y-78633160D01*
X239483036Y-80518875D02*
X239740179Y-80604589D01*
X239740179Y-80604589D02*
X240168750Y-80604589D01*
X240168750Y-80604589D02*
X240340179Y-80518875D01*
X240340179Y-80518875D02*
X240425893Y-80433160D01*
X240425893Y-80433160D02*
X240511607Y-80261732D01*
X240511607Y-80261732D02*
X240511607Y-80090303D01*
X240511607Y-80090303D02*
X240425893Y-79918875D01*
X240425893Y-79918875D02*
X240340179Y-79833160D01*
X240340179Y-79833160D02*
X240168750Y-79747446D01*
X240168750Y-79747446D02*
X239825893Y-79661732D01*
X239825893Y-79661732D02*
X239654464Y-79576017D01*
X239654464Y-79576017D02*
X239568750Y-79490303D01*
X239568750Y-79490303D02*
X239483036Y-79318875D01*
X239483036Y-79318875D02*
X239483036Y-79147446D01*
X239483036Y-79147446D02*
X239568750Y-78976017D01*
X239568750Y-78976017D02*
X239654464Y-78890303D01*
X239654464Y-78890303D02*
X239825893Y-78804589D01*
X239825893Y-78804589D02*
X240254464Y-78804589D01*
X240254464Y-78804589D02*
X240511607Y-78890303D01*
X242054465Y-80604589D02*
X242054465Y-79661732D01*
X242054465Y-79661732D02*
X241968750Y-79490303D01*
X241968750Y-79490303D02*
X241797322Y-79404589D01*
X241797322Y-79404589D02*
X241454465Y-79404589D01*
X241454465Y-79404589D02*
X241283036Y-79490303D01*
X242054465Y-80518875D02*
X241883036Y-80604589D01*
X241883036Y-80604589D02*
X241454465Y-80604589D01*
X241454465Y-80604589D02*
X241283036Y-80518875D01*
X241283036Y-80518875D02*
X241197322Y-80347446D01*
X241197322Y-80347446D02*
X241197322Y-80176017D01*
X241197322Y-80176017D02*
X241283036Y-80004589D01*
X241283036Y-80004589D02*
X241454465Y-79918875D01*
X241454465Y-79918875D02*
X241883036Y-79918875D01*
X241883036Y-79918875D02*
X242054465Y-79833160D01*
X242911607Y-79404589D02*
X242911607Y-80604589D01*
X242911607Y-79576017D02*
X242997321Y-79490303D01*
X242997321Y-79490303D02*
X243168750Y-79404589D01*
X243168750Y-79404589D02*
X243425893Y-79404589D01*
X243425893Y-79404589D02*
X243597321Y-79490303D01*
X243597321Y-79490303D02*
X243683036Y-79661732D01*
X243683036Y-79661732D02*
X243683036Y-80604589D01*
X245311607Y-80604589D02*
X245311607Y-78804589D01*
X245311607Y-80518875D02*
X245140178Y-80604589D01*
X245140178Y-80604589D02*
X244797321Y-80604589D01*
X244797321Y-80604589D02*
X244625892Y-80518875D01*
X244625892Y-80518875D02*
X244540178Y-80433160D01*
X244540178Y-80433160D02*
X244454464Y-80261732D01*
X244454464Y-80261732D02*
X244454464Y-79747446D01*
X244454464Y-79747446D02*
X244540178Y-79576017D01*
X244540178Y-79576017D02*
X244625892Y-79490303D01*
X244625892Y-79490303D02*
X244797321Y-79404589D01*
X244797321Y-79404589D02*
X245140178Y-79404589D01*
X245140178Y-79404589D02*
X245311607Y-79490303D01*
X245997320Y-79404589D02*
X246425892Y-80604589D01*
X246854463Y-79404589D02*
X246425892Y-80604589D01*
X246425892Y-80604589D02*
X246254463Y-81033160D01*
X246254463Y-81033160D02*
X246168749Y-81118875D01*
X246168749Y-81118875D02*
X245997320Y-81204589D01*
X247111607Y-80776017D02*
X248483035Y-80776017D01*
X248911607Y-80604589D02*
X248911607Y-78804589D01*
X249083036Y-79918875D02*
X249597321Y-80604589D01*
X249597321Y-79404589D02*
X248911607Y-80090303D01*
X250368750Y-80604589D02*
X250368750Y-78804589D01*
X250368750Y-79490303D02*
X250540179Y-79404589D01*
X250540179Y-79404589D02*
X250883036Y-79404589D01*
X250883036Y-79404589D02*
X251054464Y-79490303D01*
X251054464Y-79490303D02*
X251140179Y-79576017D01*
X251140179Y-79576017D02*
X251225893Y-79747446D01*
X251225893Y-79747446D02*
X251225893Y-80261732D01*
X251225893Y-80261732D02*
X251140179Y-80433160D01*
X251140179Y-80433160D02*
X251054464Y-80518875D01*
X251054464Y-80518875D02*
X250883036Y-80604589D01*
X250883036Y-80604589D02*
X250540179Y-80604589D01*
X250540179Y-80604589D02*
X250368750Y-80518875D01*
X252768750Y-80604589D02*
X252768750Y-78804589D01*
X252768750Y-80518875D02*
X252597321Y-80604589D01*
X252597321Y-80604589D02*
X252254464Y-80604589D01*
X252254464Y-80604589D02*
X252083035Y-80518875D01*
X252083035Y-80518875D02*
X251997321Y-80433160D01*
X251997321Y-80433160D02*
X251911607Y-80261732D01*
X251911607Y-80261732D02*
X251911607Y-79747446D01*
X251911607Y-79747446D02*
X251997321Y-79576017D01*
X251997321Y-79576017D02*
X252083035Y-79490303D01*
X252083035Y-79490303D02*
X252254464Y-79404589D01*
X252254464Y-79404589D02*
X252597321Y-79404589D01*
X252597321Y-79404589D02*
X252768750Y-79490303D01*
G36*
X211015099Y-66579635D02*
G01*
X211142217Y-66581052D01*
X211239202Y-66583891D01*
X211312151Y-66588543D01*
X211367161Y-66595401D01*
X211410330Y-66604854D01*
X211447756Y-66617295D01*
X211448362Y-66617529D01*
X211536622Y-66667105D01*
X211624114Y-66741754D01*
X211695508Y-66827057D01*
X211723952Y-66876720D01*
X211747545Y-66928500D01*
X212453911Y-66928500D01*
X212652977Y-66928788D01*
X212814194Y-66929776D01*
X212942039Y-66931648D01*
X213040993Y-66934590D01*
X213115535Y-66938787D01*
X213170145Y-66944425D01*
X213209302Y-66951688D01*
X213237486Y-66960761D01*
X213237832Y-66960905D01*
X213369276Y-67036329D01*
X213467795Y-67137787D01*
X213531715Y-67262754D01*
X213559361Y-67408709D01*
X213560412Y-67447084D01*
X213542857Y-67592252D01*
X213489193Y-67717616D01*
X213403125Y-67823142D01*
X213368326Y-67855907D01*
X213334653Y-67883224D01*
X213298056Y-67905591D01*
X213254484Y-67923507D01*
X213199884Y-67937471D01*
X213130206Y-67947983D01*
X213041397Y-67955540D01*
X212929407Y-67960643D01*
X212790184Y-67963790D01*
X212619675Y-67965479D01*
X212413831Y-67966211D01*
X212239688Y-67966426D01*
X211349167Y-67967186D01*
X210523667Y-69409908D01*
X210392417Y-69638836D01*
X210266051Y-69858364D01*
X210146306Y-70065527D01*
X210034922Y-70257356D01*
X209933637Y-70430883D01*
X209844188Y-70583143D01*
X209768316Y-70711167D01*
X209707758Y-70811988D01*
X209664253Y-70882640D01*
X209639540Y-70920153D01*
X209636671Y-70923812D01*
X209539348Y-71006259D01*
X209418136Y-71063185D01*
X209284959Y-71091636D01*
X209151743Y-71088661D01*
X209063400Y-71065747D01*
X208968432Y-71012685D01*
X208876420Y-70932528D01*
X208801720Y-70838948D01*
X208775358Y-70791417D01*
X208746856Y-70694396D01*
X208737198Y-70578824D01*
X208746957Y-70464338D01*
X208763973Y-70399834D01*
X208778775Y-70369684D01*
X208813024Y-70305952D01*
X208864987Y-70211712D01*
X208932929Y-70090034D01*
X209015118Y-69943992D01*
X209109818Y-69776657D01*
X209215297Y-69591102D01*
X209329821Y-69390399D01*
X209451656Y-69177620D01*
X209567377Y-68976159D01*
X209693374Y-68757020D01*
X209813024Y-68548693D01*
X209924678Y-68354067D01*
X210026686Y-68176027D01*
X210117396Y-68017463D01*
X210195159Y-67881261D01*
X210258324Y-67770307D01*
X210305242Y-67687490D01*
X210334261Y-67635697D01*
X210343750Y-67617842D01*
X210325822Y-67606339D01*
X210281313Y-67588666D01*
X210266900Y-67583754D01*
X210176446Y-67537086D01*
X210087251Y-67462752D01*
X210012938Y-67373575D01*
X209978409Y-67312246D01*
X209940235Y-67176763D01*
X209939821Y-67036589D01*
X209975192Y-66901069D01*
X210044373Y-66779553D01*
X210104759Y-66714096D01*
X210151459Y-66674270D01*
X210196610Y-66643132D01*
X210246088Y-66619621D01*
X210305766Y-66602676D01*
X210381522Y-66591237D01*
X210479228Y-66584244D01*
X210604762Y-66580636D01*
X210763997Y-66579352D01*
X210851750Y-66579250D01*
X211015099Y-66579635D01*
G37*
G36*
X203748266Y-70052336D02*
G01*
X203829825Y-69908823D01*
X203923755Y-69744323D01*
X204028248Y-69561955D01*
X204141498Y-69364840D01*
X204261694Y-69156098D01*
X204387029Y-68938848D01*
X204515695Y-68716211D01*
X204645883Y-68491307D01*
X204775786Y-68267256D01*
X204903594Y-68047177D01*
X205027501Y-67834192D01*
X205145697Y-67631420D01*
X205256374Y-67441980D01*
X205357724Y-67268994D01*
X205447939Y-67115580D01*
X205525210Y-66984860D01*
X205587730Y-66879953D01*
X205633690Y-66803979D01*
X205661282Y-66760059D01*
X205667585Y-66751141D01*
X205731569Y-66690276D01*
X205808686Y-66637009D01*
X205833449Y-66624141D01*
X205852718Y-66615556D01*
X205872804Y-66608142D01*
X205896783Y-66601812D01*
X205927736Y-66596482D01*
X205968740Y-66592065D01*
X206022873Y-66588476D01*
X206093215Y-66585628D01*
X206182844Y-66583436D01*
X206294838Y-66581815D01*
X206432276Y-66580677D01*
X206598236Y-66579938D01*
X206795797Y-66579512D01*
X207028037Y-66579312D01*
X207298034Y-66579253D01*
X207443917Y-66579250D01*
X207743721Y-66579220D01*
X208004218Y-66579296D01*
X208228430Y-66579730D01*
X208419383Y-66580774D01*
X208580101Y-66582680D01*
X208713609Y-66585698D01*
X208822931Y-66590082D01*
X208911092Y-66596081D01*
X208981117Y-66603949D01*
X209036029Y-66613936D01*
X209078854Y-66626294D01*
X209112617Y-66641275D01*
X209140341Y-66659131D01*
X209165051Y-66680112D01*
X209189772Y-66704471D01*
X209211309Y-66726278D01*
X209296488Y-66838450D01*
X209349692Y-66967627D01*
X209368553Y-67103944D01*
X209350704Y-67237530D01*
X209341034Y-67267167D01*
X209327071Y-67294990D01*
X209293726Y-67356348D01*
X209242788Y-67448115D01*
X209176046Y-67567168D01*
X209095290Y-67710383D01*
X209002308Y-67874633D01*
X208898891Y-68056796D01*
X208786827Y-68253746D01*
X208667905Y-68462359D01*
X208543915Y-68679510D01*
X208416646Y-68902076D01*
X208287887Y-69126931D01*
X208159428Y-69350951D01*
X208033058Y-69571011D01*
X207910565Y-69783987D01*
X207793740Y-69986755D01*
X207684371Y-70176189D01*
X207584248Y-70349166D01*
X207495159Y-70502561D01*
X207418895Y-70633250D01*
X207357244Y-70738107D01*
X207311996Y-70814009D01*
X207284940Y-70857830D01*
X207284206Y-70858955D01*
X207200670Y-70959248D01*
X207111157Y-71028289D01*
X207010000Y-71087750D01*
X205475417Y-71092865D01*
X205183687Y-71093813D01*
X204931237Y-71094526D01*
X204715017Y-71094932D01*
X204531972Y-71094961D01*
X204379052Y-71094540D01*
X204253203Y-71093597D01*
X204151373Y-71092061D01*
X204070511Y-71089860D01*
X204007564Y-71086922D01*
X203959479Y-71083176D01*
X203923204Y-71078550D01*
X203895688Y-71072972D01*
X203873877Y-71066371D01*
X203854720Y-71058674D01*
X203845583Y-71054576D01*
X203715537Y-70976475D01*
X203621801Y-70876731D01*
X203563681Y-70754270D01*
X203540486Y-70608015D01*
X203539966Y-70579750D01*
X203543995Y-70484197D01*
X203558949Y-70410484D01*
X203589232Y-70338622D01*
X203595905Y-70325750D01*
X203629498Y-70263920D01*
X203680888Y-70171742D01*
X203743283Y-70061167D01*
X204949965Y-70061167D01*
X206544352Y-70061167D01*
X207179343Y-68956262D01*
X207295462Y-68754196D01*
X207407066Y-68559955D01*
X207512058Y-68377195D01*
X207608340Y-68209568D01*
X207693812Y-68060728D01*
X207766378Y-67934329D01*
X207823938Y-67834024D01*
X207864395Y-67763467D01*
X207884495Y-67728340D01*
X207954656Y-67605322D01*
X207154556Y-67610869D01*
X206354456Y-67616417D01*
X206014026Y-68209084D01*
X205911783Y-68387076D01*
X205795099Y-68590195D01*
X205670626Y-68806865D01*
X205545016Y-69025507D01*
X205424919Y-69234544D01*
X205316986Y-69422398D01*
X205311780Y-69431459D01*
X204949965Y-70061167D01*
X203743283Y-70061167D01*
X203748266Y-70052336D01*
G37*
G36*
X212767005Y-70041099D02*
G01*
X213966778Y-70041099D01*
X213985171Y-70047140D01*
X214042948Y-70052233D01*
X214137168Y-70056277D01*
X214264890Y-70059171D01*
X214423173Y-70060815D01*
X214552417Y-70061167D01*
X215145113Y-70061167D01*
X215403852Y-69611375D01*
X215478920Y-69480889D01*
X215549844Y-69357630D01*
X215612955Y-69247972D01*
X215664584Y-69158289D01*
X215701063Y-69094955D01*
X215714515Y-69071625D01*
X215766439Y-68981667D01*
X215166469Y-68982484D01*
X214566500Y-68983300D01*
X214270167Y-69502165D01*
X214193208Y-69637179D01*
X214123189Y-69760525D01*
X214062847Y-69867336D01*
X214014924Y-69952745D01*
X213982159Y-70011885D01*
X213967293Y-70039889D01*
X213966778Y-70041099D01*
X212767005Y-70041099D01*
X212788911Y-70000895D01*
X212876955Y-69841429D01*
X212972764Y-69669657D01*
X213074046Y-69489605D01*
X213178510Y-69305299D01*
X213283864Y-69120764D01*
X213387819Y-68940027D01*
X213488081Y-68767113D01*
X213582361Y-68606048D01*
X213668366Y-68460858D01*
X213743806Y-68335568D01*
X213806390Y-68234204D01*
X213853826Y-68160793D01*
X213883823Y-68119359D01*
X213886390Y-68116458D01*
X213948667Y-68062004D01*
X214024174Y-68012332D01*
X214047917Y-68000041D01*
X214070098Y-67990107D01*
X214093481Y-67981728D01*
X214121739Y-67974748D01*
X214158541Y-67969011D01*
X214207559Y-67964362D01*
X214272463Y-67960646D01*
X214356926Y-67957707D01*
X214464618Y-67955389D01*
X214599210Y-67953537D01*
X214764372Y-67951996D01*
X214963777Y-67950610D01*
X215201095Y-67949223D01*
X215254476Y-67948926D01*
X216365786Y-67942768D01*
X216450393Y-67790303D01*
X216490374Y-67717879D01*
X216522071Y-67659760D01*
X216540115Y-67625813D01*
X216542055Y-67621836D01*
X216523260Y-67618271D01*
X216466655Y-67614973D01*
X216376765Y-67612030D01*
X216258115Y-67609536D01*
X216115228Y-67607581D01*
X215952628Y-67606256D01*
X215774839Y-67605653D01*
X215737722Y-67605627D01*
X215531133Y-67605531D01*
X215362401Y-67605196D01*
X215227051Y-67604375D01*
X215120607Y-67602822D01*
X215038593Y-67600290D01*
X214976532Y-67596532D01*
X214929950Y-67591303D01*
X214894370Y-67584356D01*
X214865317Y-67575444D01*
X214838314Y-67564320D01*
X214818023Y-67554988D01*
X214702373Y-67480518D01*
X214617205Y-67383383D01*
X214562285Y-67270049D01*
X214537378Y-67146982D01*
X214542249Y-67020645D01*
X214576662Y-66897506D01*
X214640384Y-66784029D01*
X214733179Y-66686679D01*
X214852250Y-66613084D01*
X214871395Y-66606079D01*
X214897942Y-66600096D01*
X214935105Y-66595057D01*
X214986097Y-66590884D01*
X215054133Y-66587498D01*
X215142427Y-66584821D01*
X215254193Y-66582774D01*
X215392645Y-66581280D01*
X215560997Y-66580258D01*
X215762463Y-66579632D01*
X216000258Y-66579323D01*
X216238667Y-66579250D01*
X216508609Y-66579319D01*
X216739553Y-66579586D01*
X216934836Y-66580142D01*
X217097793Y-66581078D01*
X217231760Y-66582483D01*
X217340071Y-66584448D01*
X217426064Y-66587063D01*
X217493073Y-66590420D01*
X217544435Y-66594608D01*
X217583485Y-66599718D01*
X217613558Y-66605841D01*
X217637991Y-66613066D01*
X217650196Y-66617529D01*
X217745832Y-66671900D01*
X217836775Y-66753781D01*
X217909080Y-66849372D01*
X217934057Y-66898408D01*
X217956193Y-66986735D01*
X217962540Y-67095226D01*
X217953093Y-67204769D01*
X217934137Y-67280381D01*
X217918884Y-67311879D01*
X217884178Y-67376919D01*
X217831765Y-67472398D01*
X217763393Y-67595215D01*
X217680807Y-67742268D01*
X217585757Y-67910457D01*
X217479987Y-68096679D01*
X217365246Y-68297834D01*
X217243280Y-68510819D01*
X217130825Y-68706500D01*
X216357127Y-70050584D01*
X216477813Y-70063791D01*
X216585858Y-70080539D01*
X216668505Y-70108083D01*
X216742556Y-70153852D01*
X216808442Y-70210004D01*
X216897259Y-70317919D01*
X216950337Y-70439691D01*
X216968865Y-70568473D01*
X216954029Y-70697418D01*
X216907016Y-70819679D01*
X216829013Y-70928407D01*
X216721206Y-71016755D01*
X216663177Y-71048090D01*
X216556167Y-71097920D01*
X214757000Y-71097198D01*
X214426865Y-71096951D01*
X214136600Y-71096467D01*
X213883744Y-71095707D01*
X213665835Y-71094633D01*
X213480410Y-71093208D01*
X213325007Y-71091393D01*
X213197165Y-71089151D01*
X213094420Y-71086442D01*
X213014311Y-71083229D01*
X212954376Y-71079475D01*
X212912153Y-71075140D01*
X212885179Y-71070186D01*
X212878415Y-71068134D01*
X212750837Y-71001815D01*
X212649131Y-70906786D01*
X212577111Y-70789862D01*
X212538589Y-70657861D01*
X212537379Y-70517597D01*
X212545347Y-70472739D01*
X212560201Y-70435188D01*
X212594276Y-70365202D01*
X212645280Y-70266808D01*
X212710922Y-70144030D01*
X212767005Y-70041099D01*
G37*
G36*
X199653062Y-63795952D02*
G01*
X199904144Y-63796583D01*
X200120059Y-63798384D01*
X200299474Y-63801323D01*
X200441056Y-63805368D01*
X200543470Y-63810486D01*
X200605385Y-63816646D01*
X200617667Y-63819157D01*
X200703989Y-63861365D01*
X200801058Y-63943564D01*
X200810509Y-63953127D01*
X200901259Y-64069902D01*
X200951582Y-64195053D01*
X200963270Y-64333882D01*
X200958163Y-64389770D01*
X200944393Y-64493568D01*
X202581868Y-64499242D01*
X204219343Y-64504917D01*
X204322945Y-64568976D01*
X204428296Y-64657335D01*
X204506254Y-64770513D01*
X204553424Y-64899397D01*
X204566408Y-65034871D01*
X204543822Y-65161874D01*
X204530207Y-65189719D01*
X204496725Y-65252005D01*
X204444647Y-65346492D01*
X204375242Y-65470940D01*
X204289777Y-65623109D01*
X204189523Y-65800761D01*
X204075749Y-66001654D01*
X203949722Y-66223550D01*
X203812713Y-66464208D01*
X203665990Y-66721389D01*
X203510821Y-66992854D01*
X203348477Y-67276362D01*
X203180226Y-67569674D01*
X203136448Y-67645908D01*
X201755265Y-70050584D01*
X202183057Y-70061167D01*
X202610848Y-70071750D01*
X202714580Y-70135943D01*
X202826997Y-70224632D01*
X202902187Y-70330748D01*
X202943356Y-70459602D01*
X202951845Y-70529281D01*
X202948457Y-70676331D01*
X202913675Y-70799748D01*
X202845185Y-70906664D01*
X202820613Y-70933626D01*
X202785973Y-70969118D01*
X202754398Y-70998692D01*
X202721823Y-71022914D01*
X202684182Y-71042351D01*
X202637411Y-71057570D01*
X202577445Y-71069137D01*
X202500218Y-71077621D01*
X202401666Y-71083586D01*
X202277725Y-71087601D01*
X202124328Y-71090233D01*
X201937411Y-71092047D01*
X201712910Y-71093610D01*
X201671308Y-71093888D01*
X201450485Y-71095320D01*
X201267831Y-71096267D01*
X201119180Y-71096569D01*
X201000371Y-71096060D01*
X200907238Y-71094580D01*
X200835618Y-71091964D01*
X200781348Y-71088049D01*
X200740262Y-71082674D01*
X200708198Y-71075675D01*
X200680991Y-71066888D01*
X200654478Y-71056152D01*
X200649219Y-71053897D01*
X200526953Y-70980089D01*
X200431643Y-70879377D01*
X200366531Y-70759034D01*
X200334858Y-70626335D01*
X200339865Y-70488555D01*
X200361349Y-70407786D01*
X200375379Y-70379581D01*
X200409267Y-70316946D01*
X200461739Y-70222130D01*
X200531517Y-70097382D01*
X200617326Y-69944953D01*
X200717888Y-69767092D01*
X200831928Y-69566047D01*
X200958170Y-69344070D01*
X201095336Y-69103408D01*
X201242151Y-68846311D01*
X201397337Y-68575029D01*
X201559620Y-68291812D01*
X201727722Y-67998908D01*
X201765058Y-67933917D01*
X203139333Y-65542084D01*
X201752409Y-65536638D01*
X201463935Y-65535665D01*
X201215211Y-65535201D01*
X201003657Y-65535283D01*
X200826692Y-65535950D01*
X200681736Y-65537242D01*
X200566208Y-65539197D01*
X200477528Y-65541853D01*
X200413114Y-65545250D01*
X200370388Y-65549426D01*
X200346768Y-65554419D01*
X200340711Y-65557805D01*
X200327455Y-65578978D01*
X200294358Y-65634809D01*
X200242617Y-65723222D01*
X200173430Y-65842140D01*
X200087996Y-65989487D01*
X199987513Y-66163186D01*
X199873180Y-66361161D01*
X199746195Y-66581337D01*
X199607756Y-66821635D01*
X199459061Y-67079980D01*
X199301310Y-67354296D01*
X199135700Y-67642507D01*
X198963429Y-67942535D01*
X198798346Y-68230250D01*
X198620452Y-68540133D01*
X198447705Y-68840535D01*
X198281334Y-69129343D01*
X198122568Y-69404443D01*
X197972636Y-69663724D01*
X197832768Y-69905071D01*
X197704192Y-70126373D01*
X197588137Y-70325517D01*
X197485833Y-70500389D01*
X197398509Y-70648878D01*
X197327394Y-70768870D01*
X197273717Y-70858252D01*
X197238707Y-70914911D01*
X197224128Y-70936230D01*
X197166811Y-70985972D01*
X197097689Y-71031908D01*
X197084365Y-71039120D01*
X197003969Y-71067976D01*
X196905075Y-71086244D01*
X196805703Y-71091954D01*
X196723868Y-71083135D01*
X196712279Y-71079816D01*
X196577859Y-71016123D01*
X196469379Y-70925118D01*
X196390068Y-70812974D01*
X196343154Y-70685864D01*
X196331868Y-70549961D01*
X196359437Y-70411435D01*
X196360725Y-70407786D01*
X196374502Y-70380238D01*
X196408215Y-70318090D01*
X196460679Y-70223431D01*
X196530707Y-70098347D01*
X196617115Y-69944928D01*
X196718716Y-69765260D01*
X196834325Y-69561432D01*
X196962754Y-69335531D01*
X197102820Y-69089646D01*
X197253334Y-68825863D01*
X197413113Y-68546271D01*
X197580970Y-68252958D01*
X197755719Y-67948010D01*
X197936174Y-67633517D01*
X197967264Y-67579375D01*
X199544494Y-64833000D01*
X199139164Y-64832793D01*
X198997014Y-64832431D01*
X198890013Y-64831037D01*
X198810978Y-64827906D01*
X198752727Y-64822333D01*
X198708076Y-64813610D01*
X198669843Y-64801033D01*
X198630844Y-64783895D01*
X198628000Y-64782554D01*
X198501888Y-64703270D01*
X198411313Y-64601155D01*
X198355870Y-64475562D01*
X198335156Y-64325845D01*
X198334990Y-64313423D01*
X198353610Y-64166855D01*
X198408931Y-64038239D01*
X198497700Y-63932177D01*
X198616662Y-63853269D01*
X198678210Y-63828174D01*
X198708303Y-63819966D01*
X198748519Y-63813226D01*
X198802883Y-63807819D01*
X198875415Y-63803614D01*
X198970139Y-63800477D01*
X199091077Y-63798275D01*
X199242252Y-63796875D01*
X199427686Y-63796145D01*
X199651401Y-63795951D01*
X199653062Y-63795952D01*
G37*
D13*
X174888770Y-68524000D02*
X173990000Y-68524000D01*
X173990000Y-69266462D01*
X174830154Y-69266462D01*
X174830154Y-69930769D01*
X173990000Y-69930769D01*
X173990000Y-70712308D01*
X174966923Y-70712308D01*
X174966923Y-71376615D01*
X173130308Y-71376615D01*
X173130308Y-67879231D01*
X174888770Y-67879231D01*
X174888770Y-68524000D01*
G36*
X174888770Y-68524000D02*
G01*
X173990000Y-68524000D01*
X173990000Y-69266462D01*
X174830154Y-69266462D01*
X174830154Y-69930769D01*
X173990000Y-69930769D01*
X173990000Y-70712308D01*
X174966923Y-70712308D01*
X174966923Y-71376615D01*
X173130308Y-71376615D01*
X173130308Y-67879231D01*
X174888770Y-67879231D01*
X174888770Y-68524000D01*
G37*
X171218723Y-65251308D02*
X171575015Y-66345462D01*
X171639794Y-66544331D01*
X171701139Y-66732537D01*
X171757953Y-66906720D01*
X171809138Y-67063523D01*
X171853598Y-67199588D01*
X171890235Y-67311555D01*
X171917951Y-67396068D01*
X171935651Y-67449768D01*
X171942088Y-67468923D01*
X171943880Y-67455401D01*
X171945237Y-67406127D01*
X171946157Y-67324427D01*
X171946639Y-67213622D01*
X171946680Y-67077038D01*
X171946278Y-66917998D01*
X171945433Y-66739825D01*
X171944142Y-66545843D01*
X171942682Y-66369885D01*
X171932495Y-65241539D01*
X172661385Y-65241539D01*
X172661385Y-68738923D01*
X171750853Y-68738923D01*
X171010385Y-66594167D01*
X171000285Y-68738923D01*
X170277693Y-68738923D01*
X170277693Y-65240844D01*
X171218723Y-65251308D01*
G36*
X171218723Y-65251308D02*
G01*
X171575015Y-66345462D01*
X171639794Y-66544331D01*
X171701139Y-66732537D01*
X171757953Y-66906720D01*
X171809138Y-67063523D01*
X171853598Y-67199588D01*
X171890235Y-67311555D01*
X171917951Y-67396068D01*
X171935651Y-67449768D01*
X171942088Y-67468923D01*
X171943880Y-67455401D01*
X171945237Y-67406127D01*
X171946157Y-67324427D01*
X171946639Y-67213622D01*
X171946680Y-67077038D01*
X171946278Y-66917998D01*
X171945433Y-66739825D01*
X171944142Y-66545843D01*
X171942682Y-66369885D01*
X171932495Y-65241539D01*
X172661385Y-65241539D01*
X172661385Y-68738923D01*
X171750853Y-68738923D01*
X171010385Y-66594167D01*
X171000285Y-68738923D01*
X170277693Y-68738923D01*
X170277693Y-65240844D01*
X171218723Y-65251308D01*
G37*
X169671661Y-60000346D02*
X169671464Y-60277783D01*
X169670986Y-60518873D01*
X169670175Y-60726345D01*
X169668980Y-60902926D01*
X169667350Y-61051347D01*
X169665233Y-61174336D01*
X169662579Y-61274622D01*
X169659336Y-61354934D01*
X169655453Y-61418000D01*
X169650878Y-61466550D01*
X169645562Y-61503313D01*
X169643250Y-61515171D01*
X169591413Y-61681550D01*
X169511572Y-61822294D01*
X169403249Y-61937695D01*
X169265969Y-62028048D01*
X169099254Y-62093643D01*
X168902628Y-62134776D01*
X168675616Y-62151738D01*
X168607154Y-62152200D01*
X168496828Y-62149299D01*
X168387438Y-62142658D01*
X168291944Y-62133275D01*
X168226317Y-62122824D01*
X168042667Y-62067518D01*
X167886919Y-61988507D01*
X167760832Y-61887013D01*
X167666170Y-61764259D01*
X167641000Y-61716940D01*
X167607161Y-61636527D01*
X167581551Y-61551173D01*
X167563223Y-61454145D01*
X167551230Y-61338713D01*
X167544626Y-61198148D01*
X167542464Y-61025718D01*
X167542456Y-61016346D01*
X167542308Y-60689077D01*
X168382462Y-60689077D01*
X168382855Y-60938192D01*
X168385688Y-61112260D01*
X168394448Y-61251016D01*
X168410439Y-61357952D01*
X168434964Y-61436560D01*
X168469326Y-61490329D01*
X168514828Y-61522753D01*
X168572775Y-61537321D01*
X168607154Y-61539000D01*
X168688909Y-61526326D01*
X168748682Y-61486158D01*
X168789539Y-61415277D01*
X168812555Y-61323273D01*
X168816112Y-61281819D01*
X168819411Y-61204369D01*
X168822409Y-61094006D01*
X168825064Y-60953809D01*
X168827334Y-60786860D01*
X168829178Y-60596240D01*
X168830554Y-60385029D01*
X168831420Y-60156310D01*
X168831733Y-59913162D01*
X168831733Y-59912423D01*
X168831846Y-58618000D01*
X169672000Y-58618000D01*
X169671661Y-60000346D01*
G36*
X169671661Y-60000346D02*
G01*
X169671464Y-60277783D01*
X169670986Y-60518873D01*
X169670175Y-60726345D01*
X169668980Y-60902926D01*
X169667350Y-61051347D01*
X169665233Y-61174336D01*
X169662579Y-61274622D01*
X169659336Y-61354934D01*
X169655453Y-61418000D01*
X169650878Y-61466550D01*
X169645562Y-61503313D01*
X169643250Y-61515171D01*
X169591413Y-61681550D01*
X169511572Y-61822294D01*
X169403249Y-61937695D01*
X169265969Y-62028048D01*
X169099254Y-62093643D01*
X168902628Y-62134776D01*
X168675616Y-62151738D01*
X168607154Y-62152200D01*
X168496828Y-62149299D01*
X168387438Y-62142658D01*
X168291944Y-62133275D01*
X168226317Y-62122824D01*
X168042667Y-62067518D01*
X167886919Y-61988507D01*
X167760832Y-61887013D01*
X167666170Y-61764259D01*
X167641000Y-61716940D01*
X167607161Y-61636527D01*
X167581551Y-61551173D01*
X167563223Y-61454145D01*
X167551230Y-61338713D01*
X167544626Y-61198148D01*
X167542464Y-61025718D01*
X167542456Y-61016346D01*
X167542308Y-60689077D01*
X168382462Y-60689077D01*
X168382855Y-60938192D01*
X168385688Y-61112260D01*
X168394448Y-61251016D01*
X168410439Y-61357952D01*
X168434964Y-61436560D01*
X168469326Y-61490329D01*
X168514828Y-61522753D01*
X168572775Y-61537321D01*
X168607154Y-61539000D01*
X168688909Y-61526326D01*
X168748682Y-61486158D01*
X168789539Y-61415277D01*
X168812555Y-61323273D01*
X168816112Y-61281819D01*
X168819411Y-61204369D01*
X168822409Y-61094006D01*
X168825064Y-60953809D01*
X168827334Y-60786860D01*
X168829178Y-60596240D01*
X168830554Y-60385029D01*
X168831420Y-60156310D01*
X168831733Y-59913162D01*
X168831733Y-59912423D01*
X168831846Y-58618000D01*
X169672000Y-58618000D01*
X169671661Y-60000346D01*
G37*
X174302791Y-71813315D02*
X174504989Y-71844217D01*
X174676067Y-71897167D01*
X174817343Y-71973347D01*
X174930137Y-72073941D01*
X175015769Y-72200132D01*
X175075556Y-72353102D01*
X175110819Y-72534035D01*
X175122877Y-72744114D01*
X175122892Y-72749192D01*
X175123231Y-72939692D01*
X174263539Y-72939692D01*
X174263539Y-72745807D01*
X174262771Y-72655345D01*
X174259200Y-72594314D01*
X174250923Y-72553075D01*
X174236037Y-72521994D01*
X174213515Y-72492471D01*
X174143877Y-72438083D01*
X174058114Y-72417023D01*
X173962976Y-72430940D01*
X173962295Y-72431164D01*
X173884488Y-72475111D01*
X173835074Y-72545296D01*
X173815199Y-72639944D01*
X173814846Y-72659401D01*
X173818197Y-72713643D01*
X173829446Y-72763650D01*
X173851648Y-72812667D01*
X173887857Y-72863941D01*
X173941127Y-72920716D01*
X174014513Y-72986239D01*
X174111071Y-73063755D01*
X174233853Y-73156508D01*
X174385916Y-73267746D01*
X174390539Y-73271097D01*
X174557019Y-73393184D01*
X174694113Y-73497339D01*
X174805324Y-73586730D01*
X174894157Y-73664525D01*
X174964116Y-73733892D01*
X175018704Y-73797999D01*
X175061426Y-73860014D01*
X175082239Y-73896441D01*
X175127751Y-73994143D01*
X175158330Y-74092975D01*
X175176140Y-74203778D01*
X175183342Y-74337393D01*
X175183714Y-74405077D01*
X175172186Y-74602252D01*
X175138628Y-74770759D01*
X175081327Y-74915308D01*
X174998574Y-75040609D01*
X174923964Y-75119972D01*
X174794177Y-75216403D01*
X174634705Y-75292713D01*
X174449985Y-75347829D01*
X174244449Y-75380681D01*
X174022535Y-75390198D01*
X173843462Y-75380966D01*
X173628688Y-75349447D01*
X173444254Y-75296327D01*
X173287219Y-75220485D01*
X173154643Y-75120802D01*
X173150594Y-75117039D01*
X173065312Y-75023356D01*
X172999362Y-74917481D01*
X172951124Y-74794221D01*
X172918977Y-74648384D01*
X172901302Y-74474777D01*
X172896450Y-74302500D01*
X172895846Y-74112000D01*
X173755539Y-74112000D01*
X173755569Y-74331808D01*
X173761220Y-74474751D01*
X173779801Y-74584177D01*
X173813819Y-74664229D01*
X173865780Y-74719050D01*
X173938191Y-74752784D01*
X174019585Y-74768184D01*
X174124491Y-74764344D01*
X174209895Y-74726859D01*
X174277792Y-74654662D01*
X174299076Y-74618554D01*
X174329276Y-74546340D01*
X174337013Y-74477747D01*
X174334313Y-74440320D01*
X174325165Y-74379553D01*
X174309789Y-74325109D01*
X174284856Y-74273472D01*
X174247038Y-74221127D01*
X174193004Y-74164559D01*
X174119427Y-74100254D01*
X174022976Y-74024695D01*
X173900324Y-73934368D01*
X173760728Y-73834668D01*
X173563975Y-73690979D01*
X173400851Y-73562219D01*
X173269583Y-73446772D01*
X173168398Y-73343020D01*
X173095526Y-73249347D01*
X173067117Y-73201999D01*
X173001792Y-73043530D01*
X172965008Y-72873027D01*
X172955978Y-72697547D01*
X172973916Y-72524153D01*
X173018035Y-72359903D01*
X173087551Y-72211858D01*
X173181676Y-72087078D01*
X173192485Y-72076078D01*
X173308432Y-71979669D01*
X173441323Y-71905610D01*
X173595380Y-71852587D01*
X173774826Y-71819285D01*
X173983883Y-71804388D01*
X174068154Y-71803277D01*
X174302791Y-71813315D01*
G36*
X174302791Y-71813315D02*
G01*
X174504989Y-71844217D01*
X174676067Y-71897167D01*
X174817343Y-71973347D01*
X174930137Y-72073941D01*
X175015769Y-72200132D01*
X175075556Y-72353102D01*
X175110819Y-72534035D01*
X175122877Y-72744114D01*
X175122892Y-72749192D01*
X175123231Y-72939692D01*
X174263539Y-72939692D01*
X174263539Y-72745807D01*
X174262771Y-72655345D01*
X174259200Y-72594314D01*
X174250923Y-72553075D01*
X174236037Y-72521994D01*
X174213515Y-72492471D01*
X174143877Y-72438083D01*
X174058114Y-72417023D01*
X173962976Y-72430940D01*
X173962295Y-72431164D01*
X173884488Y-72475111D01*
X173835074Y-72545296D01*
X173815199Y-72639944D01*
X173814846Y-72659401D01*
X173818197Y-72713643D01*
X173829446Y-72763650D01*
X173851648Y-72812667D01*
X173887857Y-72863941D01*
X173941127Y-72920716D01*
X174014513Y-72986239D01*
X174111071Y-73063755D01*
X174233853Y-73156508D01*
X174385916Y-73267746D01*
X174390539Y-73271097D01*
X174557019Y-73393184D01*
X174694113Y-73497339D01*
X174805324Y-73586730D01*
X174894157Y-73664525D01*
X174964116Y-73733892D01*
X175018704Y-73797999D01*
X175061426Y-73860014D01*
X175082239Y-73896441D01*
X175127751Y-73994143D01*
X175158330Y-74092975D01*
X175176140Y-74203778D01*
X175183342Y-74337393D01*
X175183714Y-74405077D01*
X175172186Y-74602252D01*
X175138628Y-74770759D01*
X175081327Y-74915308D01*
X174998574Y-75040609D01*
X174923964Y-75119972D01*
X174794177Y-75216403D01*
X174634705Y-75292713D01*
X174449985Y-75347829D01*
X174244449Y-75380681D01*
X174022535Y-75390198D01*
X173843462Y-75380966D01*
X173628688Y-75349447D01*
X173444254Y-75296327D01*
X173287219Y-75220485D01*
X173154643Y-75120802D01*
X173150594Y-75117039D01*
X173065312Y-75023356D01*
X172999362Y-74917481D01*
X172951124Y-74794221D01*
X172918977Y-74648384D01*
X172901302Y-74474777D01*
X172896450Y-74302500D01*
X172895846Y-74112000D01*
X173755539Y-74112000D01*
X173755569Y-74331808D01*
X173761220Y-74474751D01*
X173779801Y-74584177D01*
X173813819Y-74664229D01*
X173865780Y-74719050D01*
X173938191Y-74752784D01*
X174019585Y-74768184D01*
X174124491Y-74764344D01*
X174209895Y-74726859D01*
X174277792Y-74654662D01*
X174299076Y-74618554D01*
X174329276Y-74546340D01*
X174337013Y-74477747D01*
X174334313Y-74440320D01*
X174325165Y-74379553D01*
X174309789Y-74325109D01*
X174284856Y-74273472D01*
X174247038Y-74221127D01*
X174193004Y-74164559D01*
X174119427Y-74100254D01*
X174022976Y-74024695D01*
X173900324Y-73934368D01*
X173760728Y-73834668D01*
X173563975Y-73690979D01*
X173400851Y-73562219D01*
X173269583Y-73446772D01*
X173168398Y-73343020D01*
X173095526Y-73249347D01*
X173067117Y-73201999D01*
X173001792Y-73043530D01*
X172965008Y-72873027D01*
X172955978Y-72697547D01*
X172973916Y-72524153D01*
X173018035Y-72359903D01*
X173087551Y-72211858D01*
X173181676Y-72087078D01*
X173192485Y-72076078D01*
X173308432Y-71979669D01*
X173441323Y-71905610D01*
X173595380Y-71852587D01*
X173774826Y-71819285D01*
X173983883Y-71804388D01*
X174068154Y-71803277D01*
X174302791Y-71813315D01*
G37*
X170359687Y-63032669D02*
X171215511Y-63032669D01*
X171215823Y-63206483D01*
X171216767Y-63375445D01*
X171218343Y-63534675D01*
X171220550Y-63679292D01*
X171223390Y-63804417D01*
X171226861Y-63905168D01*
X171230964Y-63976665D01*
X171235699Y-64014028D01*
X171235758Y-64014244D01*
X171277751Y-64098572D01*
X171346176Y-64157190D01*
X171434237Y-64184930D01*
X171462239Y-64186462D01*
X171530431Y-64179930D01*
X171591927Y-64163683D01*
X171604644Y-64158015D01*
X171649076Y-64121850D01*
X171689504Y-64068310D01*
X171696481Y-64055438D01*
X171705025Y-64036285D01*
X171712140Y-64013917D01*
X171717956Y-63984794D01*
X171722602Y-63945378D01*
X171726209Y-63892129D01*
X171728906Y-63821508D01*
X171730824Y-63729975D01*
X171732094Y-63613991D01*
X171732844Y-63470017D01*
X171733205Y-63294514D01*
X171733307Y-63083942D01*
X171733308Y-63053231D01*
X171733063Y-62824287D01*
X171732279Y-62631480D01*
X171730880Y-62471875D01*
X171728791Y-62342535D01*
X171725935Y-62240524D01*
X171722238Y-62162905D01*
X171717624Y-62106741D01*
X171712018Y-62069097D01*
X171707581Y-62052524D01*
X171661579Y-61970482D01*
X171596056Y-61914455D01*
X171518725Y-61884432D01*
X171437301Y-61880404D01*
X171359497Y-61902359D01*
X171293026Y-61950289D01*
X171245603Y-62024183D01*
X171235758Y-62053141D01*
X171231016Y-62090074D01*
X171226905Y-62161200D01*
X171223427Y-62261636D01*
X171220580Y-62386503D01*
X171218365Y-62530920D01*
X171216782Y-62690007D01*
X171215830Y-62858883D01*
X171215511Y-63032669D01*
X170359687Y-63032669D01*
X170358802Y-62903284D01*
X170358172Y-62681599D01*
X170358885Y-62492296D01*
X170361154Y-62332032D01*
X170365193Y-62197466D01*
X170371214Y-62085254D01*
X170379430Y-61992056D01*
X170390054Y-61914528D01*
X170403300Y-61849328D01*
X170419381Y-61793114D01*
X170438509Y-61742544D01*
X170453029Y-61710379D01*
X170533939Y-61578785D01*
X170641459Y-61469798D01*
X170778338Y-61381359D01*
X170947323Y-61311407D01*
X171010973Y-61291923D01*
X171120012Y-61269387D01*
X171255465Y-61254057D01*
X171405892Y-61246070D01*
X171559852Y-61245560D01*
X171705903Y-61252662D01*
X171832604Y-61267511D01*
X171899385Y-61281439D01*
X172071601Y-61340227D01*
X172223759Y-61418914D01*
X172350669Y-61513936D01*
X172447140Y-61621730D01*
X172484192Y-61682899D01*
X172505110Y-61726375D01*
X172522878Y-61770605D01*
X172537752Y-61819051D01*
X172549984Y-61875177D01*
X172559829Y-61942445D01*
X172567541Y-62024317D01*
X172573373Y-62124257D01*
X172577580Y-62245728D01*
X172580416Y-62392192D01*
X172582133Y-62567111D01*
X172582987Y-62773949D01*
X172583230Y-63016169D01*
X172583231Y-63033692D01*
X172583031Y-63278870D01*
X172582241Y-63488446D01*
X172580580Y-63665893D01*
X172577765Y-63814684D01*
X172573514Y-63938294D01*
X172567545Y-64040196D01*
X172559576Y-64123864D01*
X172549323Y-64192770D01*
X172536505Y-64250388D01*
X172520840Y-64300193D01*
X172502045Y-64345657D01*
X172479839Y-64390253D01*
X172471765Y-64405278D01*
X172385248Y-64524500D01*
X172265439Y-64628063D01*
X172115804Y-64713566D01*
X171939809Y-64778611D01*
X171927463Y-64782095D01*
X171865741Y-64793954D01*
X171775451Y-64804754D01*
X171666746Y-64813953D01*
X171549776Y-64821010D01*
X171434693Y-64825385D01*
X171331647Y-64826535D01*
X171250790Y-64823921D01*
X171215539Y-64820050D01*
X171012574Y-64776045D01*
X170843335Y-64718832D01*
X170704141Y-64646509D01*
X170591313Y-64557173D01*
X170503222Y-64451943D01*
X170474530Y-64408930D01*
X170450227Y-64368284D01*
X170429920Y-64326431D01*
X170413212Y-64279798D01*
X170399710Y-64224812D01*
X170389018Y-64157899D01*
X170380742Y-64075486D01*
X170374487Y-63974001D01*
X170369858Y-63849869D01*
X170366461Y-63699519D01*
X170363900Y-63519376D01*
X170361781Y-63305868D01*
X170360561Y-63160692D01*
X170359687Y-63032669D01*
G36*
X170359687Y-63032669D02*
G01*
X171215511Y-63032669D01*
X171215823Y-63206483D01*
X171216767Y-63375445D01*
X171218343Y-63534675D01*
X171220550Y-63679292D01*
X171223390Y-63804417D01*
X171226861Y-63905168D01*
X171230964Y-63976665D01*
X171235699Y-64014028D01*
X171235758Y-64014244D01*
X171277751Y-64098572D01*
X171346176Y-64157190D01*
X171434237Y-64184930D01*
X171462239Y-64186462D01*
X171530431Y-64179930D01*
X171591927Y-64163683D01*
X171604644Y-64158015D01*
X171649076Y-64121850D01*
X171689504Y-64068310D01*
X171696481Y-64055438D01*
X171705025Y-64036285D01*
X171712140Y-64013917D01*
X171717956Y-63984794D01*
X171722602Y-63945378D01*
X171726209Y-63892129D01*
X171728906Y-63821508D01*
X171730824Y-63729975D01*
X171732094Y-63613991D01*
X171732844Y-63470017D01*
X171733205Y-63294514D01*
X171733307Y-63083942D01*
X171733308Y-63053231D01*
X171733063Y-62824287D01*
X171732279Y-62631480D01*
X171730880Y-62471875D01*
X171728791Y-62342535D01*
X171725935Y-62240524D01*
X171722238Y-62162905D01*
X171717624Y-62106741D01*
X171712018Y-62069097D01*
X171707581Y-62052524D01*
X171661579Y-61970482D01*
X171596056Y-61914455D01*
X171518725Y-61884432D01*
X171437301Y-61880404D01*
X171359497Y-61902359D01*
X171293026Y-61950289D01*
X171245603Y-62024183D01*
X171235758Y-62053141D01*
X171231016Y-62090074D01*
X171226905Y-62161200D01*
X171223427Y-62261636D01*
X171220580Y-62386503D01*
X171218365Y-62530920D01*
X171216782Y-62690007D01*
X171215830Y-62858883D01*
X171215511Y-63032669D01*
X170359687Y-63032669D01*
X170358802Y-62903284D01*
X170358172Y-62681599D01*
X170358885Y-62492296D01*
X170361154Y-62332032D01*
X170365193Y-62197466D01*
X170371214Y-62085254D01*
X170379430Y-61992056D01*
X170390054Y-61914528D01*
X170403300Y-61849328D01*
X170419381Y-61793114D01*
X170438509Y-61742544D01*
X170453029Y-61710379D01*
X170533939Y-61578785D01*
X170641459Y-61469798D01*
X170778338Y-61381359D01*
X170947323Y-61311407D01*
X171010973Y-61291923D01*
X171120012Y-61269387D01*
X171255465Y-61254057D01*
X171405892Y-61246070D01*
X171559852Y-61245560D01*
X171705903Y-61252662D01*
X171832604Y-61267511D01*
X171899385Y-61281439D01*
X172071601Y-61340227D01*
X172223759Y-61418914D01*
X172350669Y-61513936D01*
X172447140Y-61621730D01*
X172484192Y-61682899D01*
X172505110Y-61726375D01*
X172522878Y-61770605D01*
X172537752Y-61819051D01*
X172549984Y-61875177D01*
X172559829Y-61942445D01*
X172567541Y-62024317D01*
X172573373Y-62124257D01*
X172577580Y-62245728D01*
X172580416Y-62392192D01*
X172582133Y-62567111D01*
X172582987Y-62773949D01*
X172583230Y-63016169D01*
X172583231Y-63033692D01*
X172583031Y-63278870D01*
X172582241Y-63488446D01*
X172580580Y-63665893D01*
X172577765Y-63814684D01*
X172573514Y-63938294D01*
X172567545Y-64040196D01*
X172559576Y-64123864D01*
X172549323Y-64192770D01*
X172536505Y-64250388D01*
X172520840Y-64300193D01*
X172502045Y-64345657D01*
X172479839Y-64390253D01*
X172471765Y-64405278D01*
X172385248Y-64524500D01*
X172265439Y-64628063D01*
X172115804Y-64713566D01*
X171939809Y-64778611D01*
X171927463Y-64782095D01*
X171865741Y-64793954D01*
X171775451Y-64804754D01*
X171666746Y-64813953D01*
X171549776Y-64821010D01*
X171434693Y-64825385D01*
X171331647Y-64826535D01*
X171250790Y-64823921D01*
X171215539Y-64820050D01*
X171012574Y-64776045D01*
X170843335Y-64718832D01*
X170704141Y-64646509D01*
X170591313Y-64557173D01*
X170503222Y-64451943D01*
X170474530Y-64408930D01*
X170450227Y-64368284D01*
X170429920Y-64326431D01*
X170413212Y-64279798D01*
X170399710Y-64224812D01*
X170389018Y-64157899D01*
X170380742Y-64075486D01*
X170374487Y-63974001D01*
X170369858Y-63849869D01*
X170366461Y-63699519D01*
X170363900Y-63519376D01*
X170361781Y-63305868D01*
X170360561Y-63160692D01*
X170359687Y-63032669D01*
G37*
X165949923Y-62535937D02*
X166447654Y-62535937D01*
X166491866Y-62622177D01*
X166508148Y-62654482D01*
X166523346Y-62682045D01*
X166540516Y-62705242D01*
X166562711Y-62724449D01*
X166592985Y-62740041D01*
X166634392Y-62752394D01*
X166689986Y-62761883D01*
X166762820Y-62768885D01*
X166855949Y-62773774D01*
X166972427Y-62776928D01*
X167115308Y-62778721D01*
X167287645Y-62779529D01*
X167492493Y-62779729D01*
X167732906Y-62779694D01*
X167772208Y-62779692D01*
X168017959Y-62779734D01*
X168227689Y-62780035D01*
X168404456Y-62780861D01*
X168551315Y-62782476D01*
X168671324Y-62785145D01*
X168767538Y-62789133D01*
X168843015Y-62794704D01*
X168900810Y-62802123D01*
X168943981Y-62811656D01*
X168975584Y-62823566D01*
X168998675Y-62838119D01*
X169016311Y-62855579D01*
X169031548Y-62876212D01*
X169040365Y-62889543D01*
X169045051Y-62897949D01*
X169049320Y-62909413D01*
X169053201Y-62925748D01*
X169056717Y-62948767D01*
X169059896Y-62980280D01*
X169062763Y-63022101D01*
X169065345Y-63076042D01*
X169067666Y-63143915D01*
X169069754Y-63227532D01*
X169071634Y-63328706D01*
X169073332Y-63449249D01*
X169074874Y-63590972D01*
X169076286Y-63755689D01*
X169077593Y-63945212D01*
X169078823Y-64161352D01*
X169080001Y-64405923D01*
X169081152Y-64680735D01*
X169082303Y-64987603D01*
X169083480Y-65328337D01*
X169084709Y-65704750D01*
X169085846Y-66064746D01*
X169087129Y-66473211D01*
X169088320Y-66844416D01*
X169089446Y-67180176D01*
X169090538Y-67482308D01*
X169091622Y-67752627D01*
X169092729Y-67992951D01*
X169093886Y-68205094D01*
X169095122Y-68390873D01*
X169096466Y-68552105D01*
X169097947Y-68690604D01*
X169099592Y-68808188D01*
X169101432Y-68906672D01*
X169103494Y-68987873D01*
X169105807Y-69053607D01*
X169108399Y-69105689D01*
X169111300Y-69145936D01*
X169114538Y-69176165D01*
X169118141Y-69198190D01*
X169122138Y-69213828D01*
X169126559Y-69224896D01*
X169131430Y-69233209D01*
X169135900Y-69239402D01*
X169182430Y-69291566D01*
X169230117Y-69333639D01*
X169242372Y-69342078D01*
X169256829Y-69349284D01*
X169276567Y-69355385D01*
X169304666Y-69360509D01*
X169344205Y-69364783D01*
X169398265Y-69368336D01*
X169469924Y-69371295D01*
X169562262Y-69373789D01*
X169678360Y-69375945D01*
X169821295Y-69377891D01*
X169994150Y-69379755D01*
X170200002Y-69381666D01*
X170435051Y-69383692D01*
X171586051Y-69393462D01*
X171649910Y-69457334D01*
X171713770Y-69521206D01*
X171723539Y-72651872D01*
X171733308Y-75782539D01*
X171778628Y-75846078D01*
X171835929Y-75909531D01*
X171907605Y-75951796D01*
X171956859Y-75969380D01*
X171982764Y-75971406D01*
X172045170Y-75973293D01*
X172141500Y-75975026D01*
X172269179Y-75976592D01*
X172425631Y-75977977D01*
X172608279Y-75979165D01*
X172814548Y-75980144D01*
X173041862Y-75980900D01*
X173287644Y-75981418D01*
X173549319Y-75981683D01*
X173824310Y-75981683D01*
X174110042Y-75981403D01*
X174149766Y-75981343D01*
X174485012Y-75980801D01*
X174783391Y-75980276D01*
X175047113Y-75979723D01*
X175278387Y-75979099D01*
X175479424Y-75978359D01*
X175652432Y-75977457D01*
X175799623Y-75976350D01*
X175923205Y-75974993D01*
X176025388Y-75973342D01*
X176108383Y-75971351D01*
X176174399Y-75968977D01*
X176225646Y-75966175D01*
X176264334Y-75962900D01*
X176292672Y-75959109D01*
X176312870Y-75954755D01*
X176327138Y-75949795D01*
X176337686Y-75944184D01*
X176346724Y-75937879D01*
X176347843Y-75937050D01*
X176397100Y-75891970D01*
X176443314Y-75836818D01*
X176446962Y-75831583D01*
X176490923Y-75766990D01*
X176490923Y-71627098D01*
X176490952Y-71147512D01*
X176491009Y-70705451D01*
X176491052Y-70299366D01*
X176491037Y-69927705D01*
X176490922Y-69588918D01*
X176490662Y-69281454D01*
X176490216Y-69003762D01*
X176489540Y-68754291D01*
X176488591Y-68531491D01*
X176487326Y-68333810D01*
X176485702Y-68159699D01*
X176483676Y-68007606D01*
X176481204Y-67875980D01*
X176478244Y-67763271D01*
X176474752Y-67667927D01*
X176470686Y-67588399D01*
X176466003Y-67523135D01*
X176460658Y-67470584D01*
X176454610Y-67429196D01*
X176447815Y-67397420D01*
X176440231Y-67373705D01*
X176431813Y-67356501D01*
X176422519Y-67344256D01*
X176412306Y-67335420D01*
X176401131Y-67328441D01*
X176388950Y-67321770D01*
X176375721Y-67313855D01*
X176371019Y-67310635D01*
X176305308Y-67263769D01*
X175162308Y-67254000D01*
X174921226Y-67251874D01*
X174716149Y-67249867D01*
X174544007Y-67247861D01*
X174401730Y-67245741D01*
X174286245Y-67243391D01*
X174194483Y-67240696D01*
X174123373Y-67237539D01*
X174069844Y-67233804D01*
X174030825Y-67229376D01*
X174003246Y-67224138D01*
X173984035Y-67217975D01*
X173970123Y-67210771D01*
X173967260Y-67208894D01*
X173952426Y-67199687D01*
X173938933Y-67191944D01*
X173926716Y-67183866D01*
X173915713Y-67173653D01*
X173905862Y-67159502D01*
X173897097Y-67139615D01*
X173889357Y-67112190D01*
X173882578Y-67075426D01*
X173876697Y-67027524D01*
X173871650Y-66966682D01*
X173867374Y-66891100D01*
X173863807Y-66798977D01*
X173860885Y-66688513D01*
X173858544Y-66557907D01*
X173856722Y-66405358D01*
X173855355Y-66229067D01*
X173854380Y-66027231D01*
X173853734Y-65798051D01*
X173853353Y-65539726D01*
X173853175Y-65250456D01*
X173853136Y-64928439D01*
X173853172Y-64571876D01*
X173853221Y-64178965D01*
X173853231Y-63961477D01*
X173853231Y-60880013D01*
X173812313Y-60807208D01*
X173795954Y-60777434D01*
X173780895Y-60751969D01*
X173764120Y-60730452D01*
X173742614Y-60712522D01*
X173713362Y-60697815D01*
X173673350Y-60685971D01*
X173619563Y-60676628D01*
X173548985Y-60669424D01*
X173458603Y-60663997D01*
X173345400Y-60659985D01*
X173206362Y-60657027D01*
X173038474Y-60654761D01*
X172838721Y-60652824D01*
X172604089Y-60650856D01*
X172502225Y-60650000D01*
X172261807Y-60647912D01*
X172057405Y-60645989D01*
X171885960Y-60644105D01*
X171744413Y-60642135D01*
X171629703Y-60639952D01*
X171538771Y-60637432D01*
X171468558Y-60634448D01*
X171416004Y-60630875D01*
X171378050Y-60626588D01*
X171351636Y-60621460D01*
X171333702Y-60615367D01*
X171321190Y-60608181D01*
X171312567Y-60601154D01*
X171292469Y-60582686D01*
X171275358Y-60563863D01*
X171260993Y-60541561D01*
X171249134Y-60512655D01*
X171239542Y-60474022D01*
X171231974Y-60422538D01*
X171226192Y-60355077D01*
X171221956Y-60268517D01*
X171219024Y-60159733D01*
X171217157Y-60025601D01*
X171216114Y-59862997D01*
X171215656Y-59668796D01*
X171215542Y-59439875D01*
X171215539Y-59339326D01*
X171215515Y-59104704D01*
X171215367Y-58905938D01*
X171214978Y-58739807D01*
X171214229Y-58603091D01*
X171213003Y-58492568D01*
X171211185Y-58405017D01*
X171208655Y-58337218D01*
X171205298Y-58285950D01*
X171200996Y-58247993D01*
X171195632Y-58220124D01*
X171189088Y-58199123D01*
X171181248Y-58181770D01*
X171172865Y-58166393D01*
X171108542Y-58089743D01*
X171048941Y-58051133D01*
X171035640Y-58045003D01*
X171021026Y-58039552D01*
X171002872Y-58034747D01*
X170978950Y-58030552D01*
X170947034Y-58026935D01*
X170904897Y-58023861D01*
X170850310Y-58021296D01*
X170781048Y-58019206D01*
X170694882Y-58017558D01*
X170589586Y-58016317D01*
X170462932Y-58015449D01*
X170312693Y-58014921D01*
X170136642Y-58014698D01*
X169932551Y-58014747D01*
X169698195Y-58015033D01*
X169431344Y-58015522D01*
X169129773Y-58016182D01*
X168807044Y-58016939D01*
X168470307Y-58017748D01*
X168170449Y-58018515D01*
X167905268Y-58019282D01*
X167672566Y-58020097D01*
X167470144Y-58021004D01*
X167295801Y-58022047D01*
X167147339Y-58023273D01*
X167022559Y-58024726D01*
X166919260Y-58026451D01*
X166835244Y-58028494D01*
X166768311Y-58030899D01*
X166716262Y-58033712D01*
X166676897Y-58036977D01*
X166648017Y-58040741D01*
X166627424Y-58045047D01*
X166612916Y-58049942D01*
X166602296Y-58055470D01*
X166593363Y-58061676D01*
X166592444Y-58062361D01*
X166540279Y-58108899D01*
X166498208Y-58156597D01*
X166491931Y-58165477D01*
X166486337Y-58175815D01*
X166481381Y-58189809D01*
X166477016Y-58209659D01*
X166473199Y-58237562D01*
X166469884Y-58275716D01*
X166467027Y-58326321D01*
X166464581Y-58391573D01*
X166462503Y-58473672D01*
X166460746Y-58574815D01*
X166459267Y-58697202D01*
X166458019Y-58843029D01*
X166456959Y-59014496D01*
X166456040Y-59213801D01*
X166455218Y-59443142D01*
X166454448Y-59704717D01*
X166453685Y-60000725D01*
X166452884Y-60333363D01*
X166452789Y-60373243D01*
X166447654Y-62535937D01*
X165949923Y-62535937D01*
X165949923Y-58119769D01*
X165994596Y-58009274D01*
X166077400Y-57855280D01*
X166190568Y-57722855D01*
X166329049Y-57617048D01*
X166445120Y-57558750D01*
X166555616Y-57514077D01*
X168773055Y-57508785D01*
X169178344Y-57508005D01*
X169544607Y-57507693D01*
X169871893Y-57507850D01*
X170160251Y-57508475D01*
X170409730Y-57509569D01*
X170620379Y-57511133D01*
X170792245Y-57513167D01*
X170925379Y-57515671D01*
X171019828Y-57518645D01*
X171075641Y-57522089D01*
X171088363Y-57523834D01*
X171255796Y-57577860D01*
X171404390Y-57664979D01*
X171530415Y-57782241D01*
X171630137Y-57926698D01*
X171651381Y-57968527D01*
X171713770Y-58100231D01*
X171719318Y-59121115D01*
X171724866Y-60142000D01*
X172669151Y-60142000D01*
X172881166Y-60142416D01*
X173077337Y-60143618D01*
X173254133Y-60145541D01*
X173408022Y-60148118D01*
X173535472Y-60151283D01*
X173632953Y-60154970D01*
X173696931Y-60159112D01*
X173717250Y-60161688D01*
X173884972Y-60212601D01*
X174034052Y-60296810D01*
X174160970Y-60411578D01*
X174262205Y-60554166D01*
X174289073Y-60606219D01*
X174351462Y-60737923D01*
X174356590Y-63741962D01*
X174361719Y-66746000D01*
X175344621Y-66746000D01*
X175571439Y-66746139D01*
X175762637Y-66746624D01*
X175921671Y-66747554D01*
X176051999Y-66749029D01*
X176157076Y-66751149D01*
X176240359Y-66754014D01*
X176305305Y-66757722D01*
X176355369Y-66762375D01*
X176394008Y-66768072D01*
X176424678Y-66774912D01*
X176433646Y-66777440D01*
X176595847Y-66844831D01*
X176735377Y-66942662D01*
X176849009Y-67067696D01*
X176933518Y-67216700D01*
X176968063Y-67313335D01*
X176971614Y-67328216D01*
X176974880Y-67348269D01*
X176977870Y-67375039D01*
X176980595Y-67410076D01*
X176983062Y-67454925D01*
X176985282Y-67511134D01*
X176987264Y-67580250D01*
X176989016Y-67663821D01*
X176990550Y-67763393D01*
X176991872Y-67880514D01*
X176992994Y-68016731D01*
X176993924Y-68173592D01*
X176994672Y-68352643D01*
X176995246Y-68555432D01*
X176995657Y-68783507D01*
X176995913Y-69038413D01*
X176996024Y-69321699D01*
X176995999Y-69634911D01*
X176995848Y-69979598D01*
X176995579Y-70357306D01*
X176995202Y-70769582D01*
X176994727Y-71217974D01*
X176994214Y-71660642D01*
X176989154Y-75899769D01*
X176926450Y-76032148D01*
X176836163Y-76179419D01*
X176718551Y-76302287D01*
X176578703Y-76396872D01*
X176421708Y-76459296D01*
X176343385Y-76476433D01*
X176307536Y-76479078D01*
X176235775Y-76481494D01*
X176131235Y-76483683D01*
X175997045Y-76485644D01*
X175836337Y-76487379D01*
X175652242Y-76488888D01*
X175447890Y-76490171D01*
X175226412Y-76491230D01*
X174990940Y-76492064D01*
X174744603Y-76492675D01*
X174490532Y-76493063D01*
X174231860Y-76493228D01*
X173971715Y-76493172D01*
X173713229Y-76492895D01*
X173459534Y-76492397D01*
X173213759Y-76491680D01*
X172979036Y-76490743D01*
X172758495Y-76489587D01*
X172555267Y-76488213D01*
X172372483Y-76486622D01*
X172213274Y-76484814D01*
X172080771Y-76482790D01*
X171978104Y-76480550D01*
X171908405Y-76478095D01*
X171875557Y-76475561D01*
X171716136Y-76429453D01*
X171569435Y-76349232D01*
X171440959Y-76239191D01*
X171336213Y-76103623D01*
X171290549Y-76019387D01*
X171225308Y-75880231D01*
X171220060Y-72886786D01*
X171214813Y-69893340D01*
X170204060Y-69887632D01*
X169979476Y-69886332D01*
X169790483Y-69885081D01*
X169633598Y-69883720D01*
X169505335Y-69882094D01*
X169402210Y-69880046D01*
X169320738Y-69877419D01*
X169257435Y-69874057D01*
X169208815Y-69869804D01*
X169171396Y-69864502D01*
X169141691Y-69857995D01*
X169116216Y-69850127D01*
X169091486Y-69840741D01*
X169082812Y-69837250D01*
X168928819Y-69754446D01*
X168796394Y-69641279D01*
X168690587Y-69502797D01*
X168632289Y-69386726D01*
X168587616Y-69276231D01*
X168582427Y-66281962D01*
X168577238Y-63287692D01*
X167594396Y-63287692D01*
X167359725Y-63287616D01*
X167160571Y-63287156D01*
X166993373Y-63285966D01*
X166854573Y-63283701D01*
X166740609Y-63280013D01*
X166647922Y-63274558D01*
X166572952Y-63266988D01*
X166512139Y-63256957D01*
X166461922Y-63244121D01*
X166418743Y-63228131D01*
X166379040Y-63208643D01*
X166339253Y-63185309D01*
X166302540Y-63162085D01*
X166181884Y-63067584D01*
X166084428Y-62950910D01*
X166010544Y-62819695D01*
X165949923Y-62691769D01*
X165949923Y-62535937D01*
G36*
X165949923Y-62535937D02*
G01*
X166447654Y-62535937D01*
X166491866Y-62622177D01*
X166508148Y-62654482D01*
X166523346Y-62682045D01*
X166540516Y-62705242D01*
X166562711Y-62724449D01*
X166592985Y-62740041D01*
X166634392Y-62752394D01*
X166689986Y-62761883D01*
X166762820Y-62768885D01*
X166855949Y-62773774D01*
X166972427Y-62776928D01*
X167115308Y-62778721D01*
X167287645Y-62779529D01*
X167492493Y-62779729D01*
X167732906Y-62779694D01*
X167772208Y-62779692D01*
X168017959Y-62779734D01*
X168227689Y-62780035D01*
X168404456Y-62780861D01*
X168551315Y-62782476D01*
X168671324Y-62785145D01*
X168767538Y-62789133D01*
X168843015Y-62794704D01*
X168900810Y-62802123D01*
X168943981Y-62811656D01*
X168975584Y-62823566D01*
X168998675Y-62838119D01*
X169016311Y-62855579D01*
X169031548Y-62876212D01*
X169040365Y-62889543D01*
X169045051Y-62897949D01*
X169049320Y-62909413D01*
X169053201Y-62925748D01*
X169056717Y-62948767D01*
X169059896Y-62980280D01*
X169062763Y-63022101D01*
X169065345Y-63076042D01*
X169067666Y-63143915D01*
X169069754Y-63227532D01*
X169071634Y-63328706D01*
X169073332Y-63449249D01*
X169074874Y-63590972D01*
X169076286Y-63755689D01*
X169077593Y-63945212D01*
X169078823Y-64161352D01*
X169080001Y-64405923D01*
X169081152Y-64680735D01*
X169082303Y-64987603D01*
X169083480Y-65328337D01*
X169084709Y-65704750D01*
X169085846Y-66064746D01*
X169087129Y-66473211D01*
X169088320Y-66844416D01*
X169089446Y-67180176D01*
X169090538Y-67482308D01*
X169091622Y-67752627D01*
X169092729Y-67992951D01*
X169093886Y-68205094D01*
X169095122Y-68390873D01*
X169096466Y-68552105D01*
X169097947Y-68690604D01*
X169099592Y-68808188D01*
X169101432Y-68906672D01*
X169103494Y-68987873D01*
X169105807Y-69053607D01*
X169108399Y-69105689D01*
X169111300Y-69145936D01*
X169114538Y-69176165D01*
X169118141Y-69198190D01*
X169122138Y-69213828D01*
X169126559Y-69224896D01*
X169131430Y-69233209D01*
X169135900Y-69239402D01*
X169182430Y-69291566D01*
X169230117Y-69333639D01*
X169242372Y-69342078D01*
X169256829Y-69349284D01*
X169276567Y-69355385D01*
X169304666Y-69360509D01*
X169344205Y-69364783D01*
X169398265Y-69368336D01*
X169469924Y-69371295D01*
X169562262Y-69373789D01*
X169678360Y-69375945D01*
X169821295Y-69377891D01*
X169994150Y-69379755D01*
X170200002Y-69381666D01*
X170435051Y-69383692D01*
X171586051Y-69393462D01*
X171649910Y-69457334D01*
X171713770Y-69521206D01*
X171723539Y-72651872D01*
X171733308Y-75782539D01*
X171778628Y-75846078D01*
X171835929Y-75909531D01*
X171907605Y-75951796D01*
X171956859Y-75969380D01*
X171982764Y-75971406D01*
X172045170Y-75973293D01*
X172141500Y-75975026D01*
X172269179Y-75976592D01*
X172425631Y-75977977D01*
X172608279Y-75979165D01*
X172814548Y-75980144D01*
X173041862Y-75980900D01*
X173287644Y-75981418D01*
X173549319Y-75981683D01*
X173824310Y-75981683D01*
X174110042Y-75981403D01*
X174149766Y-75981343D01*
X174485012Y-75980801D01*
X174783391Y-75980276D01*
X175047113Y-75979723D01*
X175278387Y-75979099D01*
X175479424Y-75978359D01*
X175652432Y-75977457D01*
X175799623Y-75976350D01*
X175923205Y-75974993D01*
X176025388Y-75973342D01*
X176108383Y-75971351D01*
X176174399Y-75968977D01*
X176225646Y-75966175D01*
X176264334Y-75962900D01*
X176292672Y-75959109D01*
X176312870Y-75954755D01*
X176327138Y-75949795D01*
X176337686Y-75944184D01*
X176346724Y-75937879D01*
X176347843Y-75937050D01*
X176397100Y-75891970D01*
X176443314Y-75836818D01*
X176446962Y-75831583D01*
X176490923Y-75766990D01*
X176490923Y-71627098D01*
X176490952Y-71147512D01*
X176491009Y-70705451D01*
X176491052Y-70299366D01*
X176491037Y-69927705D01*
X176490922Y-69588918D01*
X176490662Y-69281454D01*
X176490216Y-69003762D01*
X176489540Y-68754291D01*
X176488591Y-68531491D01*
X176487326Y-68333810D01*
X176485702Y-68159699D01*
X176483676Y-68007606D01*
X176481204Y-67875980D01*
X176478244Y-67763271D01*
X176474752Y-67667927D01*
X176470686Y-67588399D01*
X176466003Y-67523135D01*
X176460658Y-67470584D01*
X176454610Y-67429196D01*
X176447815Y-67397420D01*
X176440231Y-67373705D01*
X176431813Y-67356501D01*
X176422519Y-67344256D01*
X176412306Y-67335420D01*
X176401131Y-67328441D01*
X176388950Y-67321770D01*
X176375721Y-67313855D01*
X176371019Y-67310635D01*
X176305308Y-67263769D01*
X175162308Y-67254000D01*
X174921226Y-67251874D01*
X174716149Y-67249867D01*
X174544007Y-67247861D01*
X174401730Y-67245741D01*
X174286245Y-67243391D01*
X174194483Y-67240696D01*
X174123373Y-67237539D01*
X174069844Y-67233804D01*
X174030825Y-67229376D01*
X174003246Y-67224138D01*
X173984035Y-67217975D01*
X173970123Y-67210771D01*
X173967260Y-67208894D01*
X173952426Y-67199687D01*
X173938933Y-67191944D01*
X173926716Y-67183866D01*
X173915713Y-67173653D01*
X173905862Y-67159502D01*
X173897097Y-67139615D01*
X173889357Y-67112190D01*
X173882578Y-67075426D01*
X173876697Y-67027524D01*
X173871650Y-66966682D01*
X173867374Y-66891100D01*
X173863807Y-66798977D01*
X173860885Y-66688513D01*
X173858544Y-66557907D01*
X173856722Y-66405358D01*
X173855355Y-66229067D01*
X173854380Y-66027231D01*
X173853734Y-65798051D01*
X173853353Y-65539726D01*
X173853175Y-65250456D01*
X173853136Y-64928439D01*
X173853172Y-64571876D01*
X173853221Y-64178965D01*
X173853231Y-63961477D01*
X173853231Y-60880013D01*
X173812313Y-60807208D01*
X173795954Y-60777434D01*
X173780895Y-60751969D01*
X173764120Y-60730452D01*
X173742614Y-60712522D01*
X173713362Y-60697815D01*
X173673350Y-60685971D01*
X173619563Y-60676628D01*
X173548985Y-60669424D01*
X173458603Y-60663997D01*
X173345400Y-60659985D01*
X173206362Y-60657027D01*
X173038474Y-60654761D01*
X172838721Y-60652824D01*
X172604089Y-60650856D01*
X172502225Y-60650000D01*
X172261807Y-60647912D01*
X172057405Y-60645989D01*
X171885960Y-60644105D01*
X171744413Y-60642135D01*
X171629703Y-60639952D01*
X171538771Y-60637432D01*
X171468558Y-60634448D01*
X171416004Y-60630875D01*
X171378050Y-60626588D01*
X171351636Y-60621460D01*
X171333702Y-60615367D01*
X171321190Y-60608181D01*
X171312567Y-60601154D01*
X171292469Y-60582686D01*
X171275358Y-60563863D01*
X171260993Y-60541561D01*
X171249134Y-60512655D01*
X171239542Y-60474022D01*
X171231974Y-60422538D01*
X171226192Y-60355077D01*
X171221956Y-60268517D01*
X171219024Y-60159733D01*
X171217157Y-60025601D01*
X171216114Y-59862997D01*
X171215656Y-59668796D01*
X171215542Y-59439875D01*
X171215539Y-59339326D01*
X171215515Y-59104704D01*
X171215367Y-58905938D01*
X171214978Y-58739807D01*
X171214229Y-58603091D01*
X171213003Y-58492568D01*
X171211185Y-58405017D01*
X171208655Y-58337218D01*
X171205298Y-58285950D01*
X171200996Y-58247993D01*
X171195632Y-58220124D01*
X171189088Y-58199123D01*
X171181248Y-58181770D01*
X171172865Y-58166393D01*
X171108542Y-58089743D01*
X171048941Y-58051133D01*
X171035640Y-58045003D01*
X171021026Y-58039552D01*
X171002872Y-58034747D01*
X170978950Y-58030552D01*
X170947034Y-58026935D01*
X170904897Y-58023861D01*
X170850310Y-58021296D01*
X170781048Y-58019206D01*
X170694882Y-58017558D01*
X170589586Y-58016317D01*
X170462932Y-58015449D01*
X170312693Y-58014921D01*
X170136642Y-58014698D01*
X169932551Y-58014747D01*
X169698195Y-58015033D01*
X169431344Y-58015522D01*
X169129773Y-58016182D01*
X168807044Y-58016939D01*
X168470307Y-58017748D01*
X168170449Y-58018515D01*
X167905268Y-58019282D01*
X167672566Y-58020097D01*
X167470144Y-58021004D01*
X167295801Y-58022047D01*
X167147339Y-58023273D01*
X167022559Y-58024726D01*
X166919260Y-58026451D01*
X166835244Y-58028494D01*
X166768311Y-58030899D01*
X166716262Y-58033712D01*
X166676897Y-58036977D01*
X166648017Y-58040741D01*
X166627424Y-58045047D01*
X166612916Y-58049942D01*
X166602296Y-58055470D01*
X166593363Y-58061676D01*
X166592444Y-58062361D01*
X166540279Y-58108899D01*
X166498208Y-58156597D01*
X166491931Y-58165477D01*
X166486337Y-58175815D01*
X166481381Y-58189809D01*
X166477016Y-58209659D01*
X166473199Y-58237562D01*
X166469884Y-58275716D01*
X166467027Y-58326321D01*
X166464581Y-58391573D01*
X166462503Y-58473672D01*
X166460746Y-58574815D01*
X166459267Y-58697202D01*
X166458019Y-58843029D01*
X166456959Y-59014496D01*
X166456040Y-59213801D01*
X166455218Y-59443142D01*
X166454448Y-59704717D01*
X166453685Y-60000725D01*
X166452884Y-60333363D01*
X166452789Y-60373243D01*
X166447654Y-62535937D01*
X165949923Y-62535937D01*
X165949923Y-58119769D01*
X165994596Y-58009274D01*
X166077400Y-57855280D01*
X166190568Y-57722855D01*
X166329049Y-57617048D01*
X166445120Y-57558750D01*
X166555616Y-57514077D01*
X168773055Y-57508785D01*
X169178344Y-57508005D01*
X169544607Y-57507693D01*
X169871893Y-57507850D01*
X170160251Y-57508475D01*
X170409730Y-57509569D01*
X170620379Y-57511133D01*
X170792245Y-57513167D01*
X170925379Y-57515671D01*
X171019828Y-57518645D01*
X171075641Y-57522089D01*
X171088363Y-57523834D01*
X171255796Y-57577860D01*
X171404390Y-57664979D01*
X171530415Y-57782241D01*
X171630137Y-57926698D01*
X171651381Y-57968527D01*
X171713770Y-58100231D01*
X171719318Y-59121115D01*
X171724866Y-60142000D01*
X172669151Y-60142000D01*
X172881166Y-60142416D01*
X173077337Y-60143618D01*
X173254133Y-60145541D01*
X173408022Y-60148118D01*
X173535472Y-60151283D01*
X173632953Y-60154970D01*
X173696931Y-60159112D01*
X173717250Y-60161688D01*
X173884972Y-60212601D01*
X174034052Y-60296810D01*
X174160970Y-60411578D01*
X174262205Y-60554166D01*
X174289073Y-60606219D01*
X174351462Y-60737923D01*
X174356590Y-63741962D01*
X174361719Y-66746000D01*
X175344621Y-66746000D01*
X175571439Y-66746139D01*
X175762637Y-66746624D01*
X175921671Y-66747554D01*
X176051999Y-66749029D01*
X176157076Y-66751149D01*
X176240359Y-66754014D01*
X176305305Y-66757722D01*
X176355369Y-66762375D01*
X176394008Y-66768072D01*
X176424678Y-66774912D01*
X176433646Y-66777440D01*
X176595847Y-66844831D01*
X176735377Y-66942662D01*
X176849009Y-67067696D01*
X176933518Y-67216700D01*
X176968063Y-67313335D01*
X176971614Y-67328216D01*
X176974880Y-67348269D01*
X176977870Y-67375039D01*
X176980595Y-67410076D01*
X176983062Y-67454925D01*
X176985282Y-67511134D01*
X176987264Y-67580250D01*
X176989016Y-67663821D01*
X176990550Y-67763393D01*
X176991872Y-67880514D01*
X176992994Y-68016731D01*
X176993924Y-68173592D01*
X176994672Y-68352643D01*
X176995246Y-68555432D01*
X176995657Y-68783507D01*
X176995913Y-69038413D01*
X176996024Y-69321699D01*
X176995999Y-69634911D01*
X176995848Y-69979598D01*
X176995579Y-70357306D01*
X176995202Y-70769582D01*
X176994727Y-71217974D01*
X176994214Y-71660642D01*
X176989154Y-75899769D01*
X176926450Y-76032148D01*
X176836163Y-76179419D01*
X176718551Y-76302287D01*
X176578703Y-76396872D01*
X176421708Y-76459296D01*
X176343385Y-76476433D01*
X176307536Y-76479078D01*
X176235775Y-76481494D01*
X176131235Y-76483683D01*
X175997045Y-76485644D01*
X175836337Y-76487379D01*
X175652242Y-76488888D01*
X175447890Y-76490171D01*
X175226412Y-76491230D01*
X174990940Y-76492064D01*
X174744603Y-76492675D01*
X174490532Y-76493063D01*
X174231860Y-76493228D01*
X173971715Y-76493172D01*
X173713229Y-76492895D01*
X173459534Y-76492397D01*
X173213759Y-76491680D01*
X172979036Y-76490743D01*
X172758495Y-76489587D01*
X172555267Y-76488213D01*
X172372483Y-76486622D01*
X172213274Y-76484814D01*
X172080771Y-76482790D01*
X171978104Y-76480550D01*
X171908405Y-76478095D01*
X171875557Y-76475561D01*
X171716136Y-76429453D01*
X171569435Y-76349232D01*
X171440959Y-76239191D01*
X171336213Y-76103623D01*
X171290549Y-76019387D01*
X171225308Y-75880231D01*
X171220060Y-72886786D01*
X171214813Y-69893340D01*
X170204060Y-69887632D01*
X169979476Y-69886332D01*
X169790483Y-69885081D01*
X169633598Y-69883720D01*
X169505335Y-69882094D01*
X169402210Y-69880046D01*
X169320738Y-69877419D01*
X169257435Y-69874057D01*
X169208815Y-69869804D01*
X169171396Y-69864502D01*
X169141691Y-69857995D01*
X169116216Y-69850127D01*
X169091486Y-69840741D01*
X169082812Y-69837250D01*
X168928819Y-69754446D01*
X168796394Y-69641279D01*
X168690587Y-69502797D01*
X168632289Y-69386726D01*
X168587616Y-69276231D01*
X168582427Y-66281962D01*
X168577238Y-63287692D01*
X167594396Y-63287692D01*
X167359725Y-63287616D01*
X167160571Y-63287156D01*
X166993373Y-63285966D01*
X166854573Y-63283701D01*
X166740609Y-63280013D01*
X166647922Y-63274558D01*
X166572952Y-63266988D01*
X166512139Y-63256957D01*
X166461922Y-63244121D01*
X166418743Y-63228131D01*
X166379040Y-63208643D01*
X166339253Y-63185309D01*
X166302540Y-63162085D01*
X166181884Y-63067584D01*
X166084428Y-62950910D01*
X166010544Y-62819695D01*
X165949923Y-62691769D01*
X165949923Y-62535937D01*
G37*
G36*
X253037684Y-60770768D02*
G01*
X253085256Y-60789937D01*
X253121158Y-60824958D01*
X253145477Y-60867617D01*
X253157181Y-60893833D01*
X253176825Y-60939078D01*
X253203082Y-61000240D01*
X253234622Y-61074203D01*
X253270115Y-61157852D01*
X253308232Y-61248072D01*
X253335672Y-61313252D01*
X253382486Y-61423832D01*
X253421364Y-61513813D01*
X253453136Y-61584949D01*
X253478630Y-61638991D01*
X253498678Y-61677691D01*
X253514108Y-61702801D01*
X253525750Y-61716074D01*
X253526819Y-61716875D01*
X253543964Y-61727644D01*
X253579418Y-61748870D01*
X253630659Y-61779080D01*
X253695165Y-61816799D01*
X253770412Y-61860552D01*
X253853878Y-61908864D01*
X253943041Y-61960260D01*
X253947484Y-61962816D01*
X254059269Y-62027438D01*
X254151622Y-62081641D01*
X254226181Y-62126517D01*
X254284581Y-62163156D01*
X254328459Y-62192649D01*
X254359453Y-62216088D01*
X254379200Y-62234563D01*
X254389335Y-62249164D01*
X254391624Y-62258824D01*
X254383834Y-62274639D01*
X254364815Y-62297464D01*
X254362160Y-62300168D01*
X254340216Y-62317745D01*
X254314101Y-62326623D01*
X254275005Y-62329410D01*
X254263129Y-62329463D01*
X254221169Y-62327146D01*
X254184174Y-62318560D01*
X254142797Y-62300906D01*
X254109535Y-62283466D01*
X254077295Y-62265536D01*
X254027820Y-62237573D01*
X253964640Y-62201593D01*
X253891284Y-62159613D01*
X253811283Y-62113650D01*
X253728165Y-62065719D01*
X253713410Y-62057190D01*
X253632165Y-62010338D01*
X253555247Y-61966211D01*
X253485785Y-61926586D01*
X253426908Y-61893240D01*
X253381743Y-61867950D01*
X253353420Y-61852494D01*
X253349308Y-61850360D01*
X253334472Y-61844285D01*
X253312213Y-61837728D01*
X253280866Y-61830416D01*
X253238765Y-61822075D01*
X253184242Y-61812430D01*
X253115632Y-61801207D01*
X253031268Y-61788132D01*
X252929484Y-61772931D01*
X252808613Y-61755329D01*
X252666990Y-61735054D01*
X252533051Y-61716077D01*
X252353601Y-61690505D01*
X252196041Y-61667553D01*
X252060651Y-61647267D01*
X251947711Y-61629690D01*
X251857502Y-61614867D01*
X251790303Y-61602843D01*
X251746395Y-61593663D01*
X251726846Y-61587784D01*
X251691077Y-61561518D01*
X251673071Y-61533125D01*
X251667486Y-61505800D01*
X251677625Y-61486463D01*
X251688870Y-61476490D01*
X251720951Y-61458140D01*
X251756658Y-61446587D01*
X251777556Y-61446647D01*
X251820836Y-61450188D01*
X251885154Y-61457044D01*
X251969165Y-61467050D01*
X252071522Y-61480039D01*
X252190880Y-61495847D01*
X252325894Y-61514305D01*
X252473028Y-61534940D01*
X252597688Y-61552430D01*
X252715260Y-61568564D01*
X252823592Y-61583072D01*
X252920534Y-61595683D01*
X253003937Y-61606125D01*
X253071649Y-61614129D01*
X253121520Y-61619423D01*
X253151400Y-61621737D01*
X253159401Y-61621351D01*
X253157315Y-61608441D01*
X253146751Y-61576104D01*
X253128719Y-61526966D01*
X253104228Y-61463653D01*
X253074289Y-61388791D01*
X253039912Y-61305004D01*
X253012355Y-61239142D01*
X252974849Y-61149388D01*
X252940546Y-61065699D01*
X252910547Y-60990882D01*
X252885952Y-60927747D01*
X252867859Y-60879103D01*
X252857370Y-60847757D01*
X252855140Y-60837641D01*
X252865448Y-60801008D01*
X252895861Y-60776713D01*
X252945612Y-60765233D01*
X252973291Y-60764362D01*
X253037684Y-60770768D01*
G37*
G36*
X236864112Y-68609195D02*
G01*
X236916179Y-68630860D01*
X236929124Y-68640672D01*
X236947667Y-68671242D01*
X236948007Y-68706957D01*
X236930859Y-68738184D01*
X236921288Y-68745992D01*
X236898798Y-68755243D01*
X236858147Y-68766899D01*
X236804876Y-68779541D01*
X236744526Y-68791752D01*
X236737322Y-68793075D01*
X236636100Y-68812443D01*
X236552588Y-68830938D01*
X236480631Y-68850267D01*
X236414071Y-68872137D01*
X236346751Y-68898256D01*
X236324790Y-68907472D01*
X236226112Y-68954879D01*
X236137439Y-69008067D01*
X236061573Y-69064739D01*
X236001313Y-69122597D01*
X235959460Y-69179346D01*
X235941202Y-69222070D01*
X235933971Y-69264304D01*
X235939975Y-69299578D01*
X235961620Y-69336104D01*
X235981775Y-69360511D01*
X236039087Y-69409407D01*
X236113530Y-69448020D01*
X236199898Y-69474872D01*
X236292986Y-69488485D01*
X236387590Y-69487379D01*
X236416050Y-69483872D01*
X236467540Y-69475007D01*
X236515590Y-69463933D01*
X236564304Y-69449106D01*
X236617787Y-69428987D01*
X236680142Y-69402032D01*
X236755475Y-69366701D01*
X236846035Y-69322371D01*
X236961210Y-69267594D01*
X237063074Y-69224665D01*
X237157859Y-69191489D01*
X237251796Y-69165968D01*
X237351116Y-69146006D01*
X237388268Y-69139951D01*
X237534687Y-69126263D01*
X237682928Y-69129229D01*
X237829370Y-69147896D01*
X237970390Y-69181307D01*
X238102364Y-69228507D01*
X238221671Y-69288543D01*
X238324687Y-69360458D01*
X238366058Y-69397709D01*
X238407659Y-69440326D01*
X238435325Y-69474232D01*
X238453576Y-69506072D01*
X238466932Y-69542492D01*
X238468795Y-69548770D01*
X238482319Y-69623077D01*
X238476501Y-69693416D01*
X238451861Y-69765464D01*
X238402601Y-69848643D01*
X238331143Y-69929207D01*
X238239244Y-70006116D01*
X238128660Y-70078336D01*
X238001149Y-70144827D01*
X237858468Y-70204553D01*
X237702373Y-70256476D01*
X237554919Y-70294980D01*
X237483124Y-70310097D01*
X237417159Y-70320437D01*
X237348197Y-70327007D01*
X237267409Y-70330810D01*
X237232219Y-70331730D01*
X237151031Y-70332471D01*
X237085594Y-70330885D01*
X237038796Y-70327097D01*
X237016151Y-70322361D01*
X236970201Y-70298982D01*
X236945167Y-70269161D01*
X236938126Y-70232683D01*
X236945504Y-70196227D01*
X236960892Y-70180769D01*
X236980907Y-70175387D01*
X237019692Y-70169225D01*
X237072055Y-70162968D01*
X237132802Y-70157303D01*
X237146825Y-70156201D01*
X237273134Y-70144142D01*
X237382560Y-70127597D01*
X237482071Y-70104794D01*
X237578637Y-70073964D01*
X237679228Y-70033337D01*
X237740219Y-70005503D01*
X237843473Y-69951998D01*
X237936780Y-69894146D01*
X238017592Y-69834072D01*
X238083364Y-69773898D01*
X238131551Y-69715749D01*
X238159605Y-69661746D01*
X238162033Y-69653716D01*
X238166220Y-69594481D01*
X238146716Y-69536821D01*
X238103805Y-69481118D01*
X238037774Y-69427753D01*
X237957791Y-69381522D01*
X237870681Y-69343358D01*
X237785546Y-69319193D01*
X237694556Y-69307484D01*
X237589886Y-69306686D01*
X237580329Y-69307063D01*
X237503222Y-69312782D01*
X237430822Y-69324052D01*
X237358379Y-69342350D01*
X237281142Y-69369153D01*
X237194362Y-69405938D01*
X237093288Y-69454182D01*
X237070168Y-69465724D01*
X236924382Y-69534450D01*
X236791120Y-69587181D01*
X236666037Y-69625006D01*
X236544790Y-69649013D01*
X236423036Y-69660293D01*
X236296432Y-69659935D01*
X236295924Y-69659913D01*
X236152378Y-69645028D01*
X236019222Y-69614292D01*
X235899278Y-69568695D01*
X235795363Y-69509225D01*
X235738863Y-69464602D01*
X235682681Y-69406292D01*
X235646950Y-69348764D01*
X235628943Y-69286553D01*
X235625423Y-69237244D01*
X235632092Y-69169623D01*
X235653982Y-69106417D01*
X235693301Y-69043222D01*
X235752257Y-68975633D01*
X235760987Y-68966787D01*
X235845307Y-68895244D01*
X235950698Y-68827575D01*
X236074346Y-68765219D01*
X236213440Y-68709612D01*
X236347730Y-68667022D01*
X236479987Y-68633537D01*
X236599301Y-68610941D01*
X236704125Y-68599306D01*
X236792911Y-68598700D01*
X236864112Y-68609195D01*
G37*
G36*
X244834031Y-66348002D02*
G01*
X244870204Y-66360628D01*
X244888134Y-66370307D01*
X244924847Y-66390885D01*
X244978504Y-66421299D01*
X245047261Y-66460487D01*
X245129278Y-66507386D01*
X245222711Y-66560934D01*
X245325720Y-66620067D01*
X245436463Y-66683724D01*
X245553096Y-66750842D01*
X245673780Y-66820358D01*
X245796671Y-66891209D01*
X245919928Y-66962333D01*
X246041709Y-67032668D01*
X246160172Y-67101150D01*
X246273475Y-67166718D01*
X246379777Y-67228307D01*
X246477235Y-67284857D01*
X246564008Y-67335304D01*
X246638254Y-67378586D01*
X246698130Y-67413639D01*
X246741796Y-67439402D01*
X246767408Y-67454812D01*
X246772888Y-67458316D01*
X246799723Y-67488342D01*
X246804825Y-67522201D01*
X246788829Y-67554999D01*
X246757219Y-67579408D01*
X246715206Y-67601537D01*
X245441084Y-67420358D01*
X245268581Y-67395864D01*
X245102446Y-67372345D01*
X244944262Y-67350020D01*
X244795610Y-67329111D01*
X244658070Y-67309836D01*
X244533225Y-67292417D01*
X244422656Y-67277072D01*
X244327943Y-67264023D01*
X244250668Y-67253489D01*
X244192412Y-67245690D01*
X244154756Y-67240846D01*
X244139282Y-67239178D01*
X244139274Y-67239178D01*
X244121344Y-67242677D01*
X244122989Y-67250325D01*
X244135095Y-67258088D01*
X244166261Y-67276804D01*
X244214740Y-67305453D01*
X244278784Y-67343016D01*
X244356644Y-67388471D01*
X244446574Y-67440801D01*
X244546823Y-67498984D01*
X244655645Y-67562002D01*
X244771290Y-67628834D01*
X244824610Y-67659604D01*
X244974797Y-67746236D01*
X245105551Y-67821682D01*
X245218230Y-67886764D01*
X245314191Y-67942299D01*
X245394793Y-67989107D01*
X245461393Y-68028006D01*
X245515350Y-68059817D01*
X245558020Y-68085358D01*
X245590763Y-68105448D01*
X245614936Y-68120907D01*
X245631898Y-68132553D01*
X245643005Y-68141207D01*
X245649616Y-68147686D01*
X245653088Y-68152810D01*
X245654781Y-68157398D01*
X245655687Y-68160938D01*
X245654829Y-68197094D01*
X245634705Y-68226503D01*
X245599538Y-68247382D01*
X245553552Y-68257948D01*
X245500970Y-68256421D01*
X245456358Y-68245064D01*
X245439865Y-68236866D01*
X245404532Y-68217676D01*
X245352170Y-68188541D01*
X245284591Y-68150505D01*
X245203607Y-68104613D01*
X245111030Y-68051912D01*
X245008670Y-67993445D01*
X244898340Y-67930260D01*
X244781852Y-67863401D01*
X244661016Y-67793913D01*
X244537646Y-67722842D01*
X244413551Y-67651232D01*
X244290545Y-67580131D01*
X244170438Y-67510582D01*
X244055043Y-67443631D01*
X243946171Y-67380324D01*
X243845634Y-67321706D01*
X243755243Y-67268821D01*
X243676810Y-67222717D01*
X243612147Y-67184437D01*
X243563065Y-67155027D01*
X243531376Y-67135533D01*
X243519199Y-67127307D01*
X243496404Y-67094778D01*
X243495148Y-67061739D01*
X243513433Y-67032407D01*
X243549260Y-67010999D01*
X243577729Y-67003807D01*
X243594943Y-67004569D01*
X243634324Y-67008449D01*
X243694263Y-67015240D01*
X243773152Y-67024736D01*
X243869381Y-67036730D01*
X243981342Y-67051013D01*
X244107426Y-67067380D01*
X244246024Y-67085622D01*
X244395528Y-67105534D01*
X244554327Y-67126908D01*
X244720814Y-67149536D01*
X244884071Y-67171930D01*
X245055523Y-67195493D01*
X245220237Y-67218017D01*
X245376664Y-67239295D01*
X245523250Y-67259122D01*
X245658444Y-67277291D01*
X245780694Y-67293596D01*
X245888449Y-67307832D01*
X245980157Y-67319792D01*
X246054266Y-67329271D01*
X246109224Y-67336061D01*
X246143480Y-67339958D01*
X246155472Y-67340768D01*
X246155597Y-67329774D01*
X246144554Y-67323022D01*
X246114387Y-67305257D01*
X246066771Y-67277452D01*
X246003383Y-67240578D01*
X245925899Y-67195609D01*
X245835997Y-67143515D01*
X245735352Y-67085271D01*
X245625641Y-67021848D01*
X245508541Y-66954218D01*
X245418364Y-66902180D01*
X245296336Y-66831694D01*
X245180072Y-66764363D01*
X245071300Y-66701198D01*
X244971749Y-66643211D01*
X244883145Y-66591413D01*
X244807215Y-66546816D01*
X244745688Y-66510431D01*
X244700290Y-66483269D01*
X244672749Y-66466342D01*
X244664978Y-66461087D01*
X244647876Y-66432137D01*
X244648051Y-66397565D01*
X244664119Y-66366855D01*
X244680565Y-66354350D01*
X244724257Y-66342128D01*
X244778934Y-66340129D01*
X244834031Y-66348002D01*
G37*
G36*
X240139406Y-68405280D02*
G01*
X240463860Y-68405280D01*
X240468958Y-68419120D01*
X240481202Y-68440076D01*
X240501589Y-68469595D01*
X240531118Y-68509123D01*
X240570787Y-68560109D01*
X240621594Y-68623999D01*
X240684538Y-68702241D01*
X240760615Y-68796281D01*
X240848503Y-68904703D01*
X240906754Y-68975105D01*
X240954143Y-69029317D01*
X240989780Y-69066385D01*
X241012777Y-69085358D01*
X241019240Y-69087760D01*
X241034965Y-69081931D01*
X241068611Y-69065443D01*
X241117396Y-69039794D01*
X241178540Y-69006485D01*
X241249263Y-68967014D01*
X241326782Y-68922880D01*
X241351586Y-68908586D01*
X241429637Y-68862990D01*
X241500481Y-68820665D01*
X241561553Y-68783220D01*
X241610288Y-68752261D01*
X241644120Y-68729398D01*
X241660485Y-68716237D01*
X241661614Y-68714292D01*
X241650450Y-68708745D01*
X241618738Y-68697833D01*
X241569151Y-68682295D01*
X241504361Y-68662868D01*
X241427038Y-68640290D01*
X241339856Y-68615299D01*
X241245485Y-68588632D01*
X241146599Y-68561028D01*
X241045867Y-68533224D01*
X240945963Y-68505958D01*
X240849558Y-68479968D01*
X240759324Y-68455991D01*
X240677933Y-68434766D01*
X240608057Y-68417030D01*
X240552366Y-68403521D01*
X240513535Y-68394976D01*
X240494955Y-68392133D01*
X240481454Y-68391982D01*
X240471106Y-68393158D01*
X240464908Y-68397109D01*
X240463860Y-68405280D01*
X240139406Y-68405280D01*
X240104741Y-68360324D01*
X240064310Y-68306819D01*
X240033309Y-68264464D01*
X240010921Y-68232191D01*
X239996328Y-68208933D01*
X239988712Y-68193624D01*
X239987087Y-68186702D01*
X239997404Y-68150862D01*
X240028091Y-68127312D01*
X240078747Y-68116301D01*
X240102006Y-68115454D01*
X240122511Y-68118025D01*
X240161467Y-68125815D01*
X240219334Y-68138941D01*
X240296571Y-68157521D01*
X240393637Y-68181672D01*
X240510993Y-68211509D01*
X240649097Y-68247152D01*
X240808409Y-68288716D01*
X240989389Y-68336318D01*
X241192496Y-68390076D01*
X241418190Y-68450106D01*
X241464766Y-68462525D01*
X241637166Y-68508543D01*
X241803447Y-68552995D01*
X241962093Y-68595470D01*
X242111590Y-68635562D01*
X242250421Y-68672860D01*
X242377071Y-68706956D01*
X242490025Y-68737443D01*
X242587767Y-68763910D01*
X242668783Y-68785950D01*
X242731555Y-68803154D01*
X242774570Y-68815113D01*
X242796311Y-68821419D01*
X242798345Y-68822102D01*
X242835220Y-68845202D01*
X242856839Y-68876596D01*
X242861897Y-68910487D01*
X242849088Y-68941079D01*
X242828793Y-68957426D01*
X242805863Y-68966236D01*
X242776539Y-68970425D01*
X242738380Y-68969618D01*
X242688943Y-68963441D01*
X242625785Y-68951520D01*
X242546464Y-68933482D01*
X242448536Y-68908951D01*
X242359517Y-68885563D01*
X242274367Y-68863088D01*
X242196024Y-68842809D01*
X242127709Y-68825528D01*
X242072644Y-68812046D01*
X242034049Y-68803166D01*
X242015146Y-68799690D01*
X242014573Y-68799670D01*
X242000268Y-68805455D01*
X241967999Y-68821764D01*
X241920539Y-68847023D01*
X241860661Y-68879660D01*
X241791139Y-68918102D01*
X241714746Y-68960776D01*
X241634256Y-69006110D01*
X241552441Y-69052531D01*
X241472076Y-69098467D01*
X241395934Y-69142344D01*
X241326788Y-69182591D01*
X241267411Y-69217634D01*
X241220577Y-69245902D01*
X241189060Y-69265820D01*
X241176518Y-69274886D01*
X241169462Y-69286039D01*
X241172675Y-69301505D01*
X241188212Y-69326225D01*
X241209505Y-69354216D01*
X241236380Y-69388458D01*
X241273348Y-69435546D01*
X241315674Y-69489447D01*
X241358620Y-69544128D01*
X241361497Y-69547791D01*
X241409734Y-69611146D01*
X241442354Y-69659674D01*
X241460127Y-69696092D01*
X241463820Y-69723121D01*
X241454201Y-69743480D01*
X241432039Y-69759889D01*
X241422725Y-69764606D01*
X241370399Y-69780593D01*
X241312859Y-69779227D01*
X241271491Y-69769811D01*
X241238333Y-69757917D01*
X241213804Y-69745010D01*
X241212336Y-69743885D01*
X241202319Y-69732536D01*
X241178479Y-69703862D01*
X241141977Y-69659298D01*
X241093972Y-69600278D01*
X241035623Y-69528237D01*
X240968089Y-69444610D01*
X240892530Y-69350831D01*
X240810106Y-69248335D01*
X240721976Y-69138557D01*
X240629299Y-69022930D01*
X240591140Y-68975270D01*
X240476960Y-68832453D01*
X240377115Y-68707189D01*
X240290789Y-68598411D01*
X240217162Y-68505053D01*
X240155419Y-68426046D01*
X240139406Y-68405280D01*
G37*
G36*
X247481511Y-64811763D02*
G01*
X247842911Y-64811763D01*
X247853803Y-64818363D01*
X247883912Y-64836037D01*
X247931658Y-64863870D01*
X247995460Y-64900946D01*
X248073735Y-64946348D01*
X248164904Y-64999160D01*
X248267385Y-65058465D01*
X248379597Y-65123349D01*
X248499959Y-65192893D01*
X248626890Y-65266183D01*
X248666514Y-65289052D01*
X248816353Y-65375495D01*
X248946817Y-65450666D01*
X249059309Y-65515317D01*
X249155233Y-65570200D01*
X249235991Y-65616070D01*
X249302988Y-65653679D01*
X249357626Y-65683779D01*
X249401308Y-65707124D01*
X249435439Y-65724466D01*
X249461421Y-65736558D01*
X249480658Y-65744153D01*
X249494553Y-65748004D01*
X249504509Y-65748865D01*
X249511930Y-65747486D01*
X249516944Y-65745299D01*
X249535813Y-65734938D01*
X249572249Y-65714399D01*
X249623034Y-65685517D01*
X249684947Y-65650127D01*
X249754771Y-65610063D01*
X249812380Y-65576907D01*
X249886951Y-65533343D01*
X249956618Y-65491539D01*
X250018000Y-65453610D01*
X250067715Y-65421674D01*
X250102384Y-65397843D01*
X250116329Y-65386706D01*
X250170219Y-65321567D01*
X250200978Y-65250566D01*
X250208641Y-65173436D01*
X250193241Y-65089909D01*
X250163756Y-65017122D01*
X250104715Y-64922495D01*
X250023843Y-64831411D01*
X249923208Y-64745122D01*
X249804876Y-64664878D01*
X249670916Y-64591929D01*
X249523395Y-64527526D01*
X249364378Y-64472919D01*
X249195935Y-64429359D01*
X249189958Y-64428063D01*
X249137506Y-64417758D01*
X249087284Y-64410458D01*
X249033351Y-64405704D01*
X248969768Y-64403037D01*
X248890594Y-64401998D01*
X248851879Y-64401937D01*
X248772179Y-64402440D01*
X248704313Y-64404594D01*
X248644769Y-64409546D01*
X248590038Y-64418441D01*
X248536609Y-64432423D01*
X248480970Y-64452640D01*
X248419611Y-64480236D01*
X248349021Y-64516356D01*
X248265689Y-64562146D01*
X248166105Y-64618753D01*
X248138054Y-64634845D01*
X248061657Y-64678962D01*
X247992761Y-64719223D01*
X247933916Y-64754099D01*
X247887674Y-64782062D01*
X247856586Y-64801581D01*
X247843205Y-64811126D01*
X247842911Y-64811763D01*
X247481511Y-64811763D01*
X247478878Y-64806851D01*
X247477446Y-64792097D01*
X247484584Y-64760554D01*
X247498452Y-64740242D01*
X247513934Y-64729904D01*
X247547279Y-64709486D01*
X247595461Y-64680735D01*
X247655451Y-64645399D01*
X247724223Y-64605226D01*
X247798748Y-64561963D01*
X247875999Y-64517360D01*
X247952949Y-64473163D01*
X248026571Y-64431121D01*
X248093836Y-64392982D01*
X248151717Y-64360493D01*
X248197187Y-64335403D01*
X248227218Y-64319458D01*
X248227682Y-64319224D01*
X248331736Y-64277043D01*
X248453970Y-64245432D01*
X248590827Y-64224759D01*
X248738753Y-64215396D01*
X248894194Y-64217712D01*
X249053595Y-64232078D01*
X249058329Y-64232690D01*
X249246056Y-64264523D01*
X249429818Y-64309956D01*
X249607137Y-64367750D01*
X249775539Y-64436665D01*
X249932544Y-64515460D01*
X250075678Y-64602895D01*
X250202463Y-64697731D01*
X250310422Y-64798727D01*
X250395244Y-64902021D01*
X250447622Y-64985262D01*
X250481973Y-65062287D01*
X250500626Y-65139613D01*
X250505891Y-65211939D01*
X250497007Y-65304343D01*
X250467757Y-65384801D01*
X250417143Y-65455550D01*
X250382496Y-65488861D01*
X250358350Y-65506709D01*
X250316219Y-65534618D01*
X250258997Y-65570802D01*
X250189580Y-65613477D01*
X250110865Y-65660857D01*
X250025745Y-65711156D01*
X249960326Y-65749213D01*
X249863219Y-65805230D01*
X249784407Y-65850359D01*
X249721443Y-65885803D01*
X249671880Y-65912763D01*
X249633271Y-65932438D01*
X249603169Y-65946032D01*
X249579127Y-65954744D01*
X249558698Y-65959776D01*
X249539435Y-65962329D01*
X249524090Y-65963350D01*
X249472536Y-65963009D01*
X249432670Y-65954267D01*
X249404053Y-65941203D01*
X249382813Y-65929364D01*
X249343074Y-65906807D01*
X249286692Y-65874605D01*
X249215525Y-65833830D01*
X249131431Y-65785553D01*
X249036267Y-65730848D01*
X248931891Y-65670785D01*
X248820159Y-65606437D01*
X248702929Y-65538876D01*
X248582059Y-65469175D01*
X248459406Y-65398405D01*
X248336828Y-65327638D01*
X248216182Y-65257946D01*
X248099325Y-65190402D01*
X247988114Y-65126077D01*
X247884408Y-65066044D01*
X247790064Y-65011375D01*
X247706938Y-64963141D01*
X247636889Y-64922415D01*
X247581774Y-64890270D01*
X247543451Y-64867776D01*
X247523776Y-64856006D01*
X247522460Y-64855175D01*
X247491810Y-64830973D01*
X247481511Y-64811763D01*
G37*
G36*
X249735204Y-61785105D02*
G01*
X249888787Y-61785105D01*
X249890392Y-61788200D01*
X249891941Y-61789462D01*
X249904137Y-61796739D01*
X249935724Y-61815224D01*
X249985396Y-61844160D01*
X250051845Y-61882791D01*
X250133763Y-61930359D01*
X250229843Y-61986109D01*
X250338778Y-62049284D01*
X250459260Y-62119126D01*
X250589982Y-62194880D01*
X250729637Y-62275790D01*
X250876917Y-62361097D01*
X251030515Y-62450047D01*
X251189124Y-62541882D01*
X251351435Y-62635845D01*
X251516142Y-62731181D01*
X251681938Y-62827132D01*
X251847515Y-62922943D01*
X252011565Y-63017855D01*
X252172781Y-63111114D01*
X252329857Y-63201961D01*
X252481484Y-63289642D01*
X252626355Y-63373398D01*
X252763163Y-63452474D01*
X252890600Y-63526113D01*
X253007360Y-63593559D01*
X253112134Y-63654054D01*
X253203616Y-63706842D01*
X253280497Y-63751167D01*
X253341471Y-63786272D01*
X253385230Y-63811401D01*
X253410467Y-63825796D01*
X253416436Y-63829091D01*
X253426995Y-63823304D01*
X253457274Y-63806133D01*
X253506203Y-63778194D01*
X253572710Y-63740105D01*
X253655721Y-63692481D01*
X253754167Y-63635939D01*
X253866974Y-63571096D01*
X253993071Y-63498568D01*
X254131386Y-63418972D01*
X254280848Y-63332924D01*
X254440384Y-63241041D01*
X254608922Y-63143939D01*
X254785390Y-63042234D01*
X254968718Y-62936545D01*
X255157832Y-62827486D01*
X255180992Y-62814128D01*
X255370982Y-62704513D01*
X255555436Y-62598035D01*
X255733272Y-62495320D01*
X255903407Y-62396995D01*
X256064759Y-62303688D01*
X256216246Y-62216026D01*
X256356785Y-62134637D01*
X256485296Y-62060147D01*
X256600694Y-61993185D01*
X256701899Y-61934377D01*
X256787827Y-61884350D01*
X256857397Y-61843733D01*
X256909526Y-61813152D01*
X256943133Y-61793235D01*
X256957134Y-61784608D01*
X256957425Y-61784382D01*
X256954907Y-61779941D01*
X256942709Y-61770169D01*
X256920114Y-61754644D01*
X256886410Y-61732944D01*
X256840883Y-61704649D01*
X256782817Y-61669337D01*
X256711500Y-61626587D01*
X256626216Y-61575978D01*
X256526253Y-61517089D01*
X256410895Y-61449498D01*
X256279429Y-61372785D01*
X256131140Y-61286528D01*
X255965315Y-61190306D01*
X255781240Y-61083698D01*
X255578200Y-60966282D01*
X255355481Y-60837638D01*
X255204873Y-60750713D01*
X255014582Y-60640978D01*
X254829784Y-60534540D01*
X254651560Y-60432014D01*
X254480992Y-60334019D01*
X254319161Y-60241172D01*
X254167149Y-60154089D01*
X254026037Y-60073389D01*
X253896907Y-59999687D01*
X253780840Y-59933602D01*
X253678917Y-59875750D01*
X253592221Y-59826749D01*
X253521833Y-59787216D01*
X253468834Y-59757768D01*
X253434305Y-59739021D01*
X253419329Y-59731595D01*
X253418861Y-59731493D01*
X253406637Y-59737473D01*
X253374711Y-59754851D01*
X253324165Y-59783011D01*
X253256081Y-59821333D01*
X253171540Y-59869201D01*
X253071625Y-59925995D01*
X252957416Y-59991098D01*
X252829996Y-60063891D01*
X252690447Y-60143757D01*
X252539850Y-60230077D01*
X252379286Y-60322234D01*
X252209839Y-60419609D01*
X252032589Y-60521585D01*
X251848617Y-60627543D01*
X251659007Y-60736865D01*
X251633094Y-60751814D01*
X251408312Y-60881515D01*
X251203430Y-60999771D01*
X251017545Y-61107121D01*
X250849754Y-61204104D01*
X250699154Y-61291258D01*
X250564840Y-61369121D01*
X250445911Y-61438231D01*
X250341462Y-61499127D01*
X250250591Y-61552347D01*
X250172394Y-61598429D01*
X250105967Y-61637912D01*
X250050409Y-61671334D01*
X250004815Y-61699233D01*
X249968282Y-61722148D01*
X249939907Y-61740616D01*
X249918787Y-61755176D01*
X249904018Y-61766367D01*
X249894697Y-61774727D01*
X249889922Y-61780793D01*
X249888787Y-61785105D01*
X249735204Y-61785105D01*
X249737830Y-61753448D01*
X249740159Y-61743433D01*
X249753211Y-61734922D01*
X249785699Y-61715309D01*
X249836334Y-61685333D01*
X249903833Y-61645733D01*
X249986909Y-61597247D01*
X250084275Y-61540615D01*
X250194646Y-61476575D01*
X250316736Y-61405866D01*
X250449260Y-61329227D01*
X250590930Y-61247397D01*
X250740462Y-61161115D01*
X250896569Y-61071120D01*
X251057966Y-60978149D01*
X251223366Y-60882943D01*
X251391483Y-60786241D01*
X251561032Y-60688780D01*
X251730727Y-60591301D01*
X251899281Y-60494541D01*
X252065409Y-60399239D01*
X252227826Y-60306136D01*
X252385244Y-60215968D01*
X252536378Y-60129476D01*
X252679942Y-60047399D01*
X252814651Y-59970474D01*
X252939217Y-59899441D01*
X253052356Y-59835038D01*
X253152782Y-59778006D01*
X253239208Y-59729081D01*
X253310348Y-59689004D01*
X253364917Y-59658514D01*
X253401629Y-59638348D01*
X253419198Y-59629246D01*
X253420510Y-59628781D01*
X253432425Y-59634658D01*
X253463843Y-59651794D01*
X253513474Y-59679449D01*
X253580027Y-59716882D01*
X253662213Y-59763353D01*
X253758739Y-59818120D01*
X253868318Y-59880443D01*
X253989657Y-59949581D01*
X254121468Y-60024793D01*
X254262459Y-60105338D01*
X254411340Y-60190477D01*
X254566822Y-60279468D01*
X254727613Y-60371570D01*
X254892424Y-60466042D01*
X255059963Y-60562144D01*
X255228942Y-60659136D01*
X255398070Y-60756275D01*
X255566055Y-60852822D01*
X255731609Y-60948036D01*
X255893441Y-61041176D01*
X256050260Y-61131501D01*
X256200776Y-61218271D01*
X256343700Y-61300745D01*
X256477740Y-61378181D01*
X256601606Y-61449840D01*
X256714008Y-61514981D01*
X256813657Y-61572862D01*
X256899260Y-61622743D01*
X256969529Y-61663884D01*
X257023173Y-61695543D01*
X257058902Y-61716979D01*
X257071468Y-61724797D01*
X257116482Y-61753791D01*
X257116482Y-62827789D01*
X257116482Y-63901786D01*
X257071468Y-63931155D01*
X257049675Y-63944604D01*
X257009058Y-63968861D01*
X256950903Y-64003184D01*
X256876497Y-64046831D01*
X256787127Y-64099057D01*
X256684081Y-64159121D01*
X256568644Y-64226279D01*
X256442105Y-64299789D01*
X256305750Y-64378907D01*
X256160866Y-64462892D01*
X256008740Y-64551000D01*
X255850659Y-64642489D01*
X255687910Y-64736615D01*
X255521780Y-64832636D01*
X255353555Y-64929809D01*
X255184524Y-65027391D01*
X255015973Y-65124639D01*
X254849188Y-65220811D01*
X254685458Y-65315164D01*
X254526068Y-65406955D01*
X254372306Y-65495441D01*
X254225459Y-65579880D01*
X254086813Y-65659527D01*
X253957657Y-65733642D01*
X253839276Y-65801481D01*
X253732957Y-65862300D01*
X253639989Y-65915358D01*
X253561657Y-65959912D01*
X253499248Y-65995218D01*
X253454050Y-66020534D01*
X253427350Y-66035117D01*
X253420214Y-66038565D01*
X253404104Y-66032699D01*
X253371047Y-66016565D01*
X253324759Y-65992118D01*
X253268954Y-65961314D01*
X253215253Y-65930690D01*
X253029194Y-65823051D01*
X253023193Y-66497219D01*
X253017191Y-67171388D01*
X251186614Y-68232722D01*
X250992955Y-68344925D01*
X250804714Y-68453840D01*
X250622953Y-68558858D01*
X250448739Y-68659369D01*
X250283134Y-68754763D01*
X250127204Y-68844433D01*
X249982013Y-68927768D01*
X249848625Y-69004160D01*
X249728105Y-69072998D01*
X249621517Y-69133674D01*
X249529925Y-69185578D01*
X249454394Y-69228101D01*
X249395989Y-69260635D01*
X249355773Y-69282568D01*
X249334811Y-69293293D01*
X249332030Y-69294309D01*
X249313835Y-69288580D01*
X249279136Y-69272592D01*
X249232026Y-69248413D01*
X249176602Y-69218115D01*
X249139970Y-69197228D01*
X248971917Y-69099893D01*
X248965915Y-69297331D01*
X248963205Y-69364141D01*
X248959550Y-69422627D01*
X248955318Y-69468531D01*
X248950877Y-69497599D01*
X248947909Y-69505589D01*
X248935620Y-69513367D01*
X248903904Y-69532333D01*
X248854042Y-69561747D01*
X248787315Y-69600868D01*
X248705003Y-69648955D01*
X248608387Y-69705270D01*
X248498747Y-69769071D01*
X248377364Y-69839617D01*
X248245518Y-69916169D01*
X248104491Y-69997987D01*
X247955563Y-70084330D01*
X247800013Y-70174457D01*
X247639124Y-70267628D01*
X247474175Y-70363104D01*
X247306447Y-70460143D01*
X247137221Y-70558006D01*
X246967777Y-70655951D01*
X246799395Y-70753239D01*
X246633357Y-70849130D01*
X246470943Y-70942882D01*
X246313434Y-71033757D01*
X246162110Y-71121012D01*
X246018251Y-71203909D01*
X245883138Y-71281706D01*
X245758053Y-71353664D01*
X245644275Y-71419042D01*
X245543085Y-71477100D01*
X245455763Y-71527097D01*
X245383591Y-71568293D01*
X245327848Y-71599948D01*
X245289816Y-71621321D01*
X245270775Y-71631672D01*
X245268777Y-71632562D01*
X245255733Y-71626730D01*
X245224346Y-71610125D01*
X245177005Y-71584086D01*
X245116097Y-71549952D01*
X245044008Y-71509060D01*
X244963127Y-71462748D01*
X244875841Y-71412356D01*
X244872383Y-71410351D01*
X244489119Y-71188141D01*
X242860107Y-72132275D01*
X242677549Y-72238041D01*
X242500487Y-72340544D01*
X242330049Y-72439134D01*
X242167365Y-72533162D01*
X242013561Y-72621978D01*
X241869766Y-72704933D01*
X241737107Y-72781379D01*
X241616713Y-72850664D01*
X241509712Y-72912141D01*
X241417231Y-72965159D01*
X241340399Y-73009070D01*
X241280343Y-73043224D01*
X241238191Y-73066971D01*
X241215072Y-73079663D01*
X241210911Y-73081688D01*
X241197017Y-73076722D01*
X241163892Y-73060379D01*
X241112990Y-73033469D01*
X241045765Y-72996800D01*
X240963670Y-72951182D01*
X240868159Y-72897425D01*
X240760687Y-72836338D01*
X240642708Y-72768729D01*
X240515674Y-72695409D01*
X240483874Y-72676978D01*
X240364595Y-72607820D01*
X240251447Y-72542266D01*
X240146136Y-72481302D01*
X240050367Y-72425912D01*
X239965847Y-72377083D01*
X239894281Y-72335798D01*
X239837375Y-72303043D01*
X239796834Y-72279804D01*
X239774364Y-72267064D01*
X239770287Y-72264875D01*
X239759262Y-72270514D01*
X239728718Y-72287488D01*
X239679902Y-72315082D01*
X239614059Y-72352579D01*
X239532435Y-72399263D01*
X239436276Y-72454418D01*
X239326827Y-72517329D01*
X239205333Y-72587278D01*
X239073042Y-72663551D01*
X238931197Y-72745432D01*
X238781045Y-72832203D01*
X238623832Y-72923150D01*
X238460803Y-73017555D01*
X238453132Y-73021999D01*
X238274193Y-73125540D01*
X238104179Y-73223651D01*
X237944115Y-73315751D01*
X237795026Y-73401260D01*
X237657933Y-73479597D01*
X237533863Y-73550183D01*
X237423839Y-73612438D01*
X237328884Y-73665780D01*
X237250024Y-73709631D01*
X237188281Y-73743409D01*
X237144681Y-73766534D01*
X237120246Y-73778426D01*
X237115442Y-73779978D01*
X237102322Y-73773905D01*
X237069522Y-73756364D01*
X237018112Y-73727967D01*
X236949159Y-73689325D01*
X236900481Y-73661817D01*
X237166198Y-73661817D01*
X237199209Y-73643962D01*
X237213030Y-73636086D01*
X237246519Y-73616798D01*
X237298576Y-73586737D01*
X237368102Y-73546538D01*
X237453998Y-73496838D01*
X237555165Y-73438273D01*
X237670505Y-73371481D01*
X237798917Y-73297098D01*
X237939304Y-73215759D01*
X238090566Y-73128103D01*
X238251604Y-73034766D01*
X238421320Y-72936383D01*
X238598614Y-72833592D01*
X238782387Y-72727030D01*
X238971541Y-72617332D01*
X238978769Y-72613140D01*
X239676443Y-72208502D01*
X239867049Y-72208502D01*
X239877072Y-72215113D01*
X239905711Y-72232521D01*
X239950816Y-72259472D01*
X240010241Y-72294709D01*
X240081837Y-72336978D01*
X240163457Y-72385023D01*
X240252953Y-72437588D01*
X240348177Y-72493419D01*
X240446981Y-72551260D01*
X240547217Y-72609855D01*
X240646737Y-72667949D01*
X240743395Y-72724288D01*
X240835041Y-72777615D01*
X240919528Y-72826675D01*
X240994708Y-72870213D01*
X241058433Y-72906973D01*
X241108556Y-72935701D01*
X241142929Y-72955141D01*
X241159403Y-72964037D01*
X241160456Y-72964463D01*
X241160910Y-72952832D01*
X241161338Y-72918949D01*
X241161735Y-72864568D01*
X241162097Y-72791443D01*
X241162417Y-72701331D01*
X241162692Y-72595985D01*
X241162916Y-72477161D01*
X241163086Y-72346614D01*
X241163195Y-72206098D01*
X241163239Y-72057368D01*
X241163231Y-71959665D01*
X241163229Y-71952290D01*
X241247484Y-71952290D01*
X241247576Y-72104970D01*
X241247843Y-72250555D01*
X241248271Y-72387286D01*
X241248847Y-72513400D01*
X241249556Y-72627140D01*
X241250384Y-72726743D01*
X241251319Y-72810451D01*
X241252345Y-72876503D01*
X241253449Y-72923138D01*
X241254618Y-72948598D01*
X241255354Y-72952978D01*
X241266415Y-72947057D01*
X241297172Y-72929708D01*
X241346557Y-72901546D01*
X241413499Y-72863189D01*
X241496929Y-72815255D01*
X241595778Y-72758359D01*
X241708976Y-72693120D01*
X241835453Y-72620154D01*
X241974140Y-72540079D01*
X242123967Y-72453511D01*
X242283864Y-72361068D01*
X242452763Y-72263367D01*
X242629592Y-72161025D01*
X242813283Y-72054659D01*
X243002767Y-71944887D01*
X243037916Y-71924518D01*
X244397494Y-71136622D01*
X244581642Y-71136622D01*
X244892186Y-71317985D01*
X244970506Y-71363575D01*
X245042172Y-71405004D01*
X245104556Y-71440775D01*
X245155027Y-71469391D01*
X245190959Y-71489356D01*
X245209722Y-71499173D01*
X245211732Y-71499934D01*
X245213105Y-71488314D01*
X245214415Y-71454445D01*
X245215644Y-71400085D01*
X245216779Y-71326992D01*
X245217802Y-71236924D01*
X245218698Y-71131639D01*
X245219451Y-71012895D01*
X245219577Y-70985248D01*
X245318842Y-70985248D01*
X245319018Y-71105527D01*
X245319450Y-71206950D01*
X245320153Y-71290803D01*
X245321145Y-71358376D01*
X245322438Y-71410955D01*
X245324050Y-71449828D01*
X245325996Y-71476283D01*
X245328290Y-71491607D01*
X245330950Y-71497087D01*
X245331701Y-71497060D01*
X245343551Y-71490476D01*
X245375086Y-71472470D01*
X245425227Y-71443668D01*
X245492893Y-71404692D01*
X245577003Y-71356169D01*
X245676478Y-71298723D01*
X245790237Y-71232979D01*
X245917199Y-71159562D01*
X246056285Y-71079095D01*
X246206413Y-70992205D01*
X246366503Y-70899516D01*
X246535476Y-70801653D01*
X246712250Y-70699240D01*
X246895745Y-70592902D01*
X247084881Y-70483264D01*
X247105329Y-70471409D01*
X248863883Y-69451841D01*
X248866952Y-68453544D01*
X248867315Y-68301059D01*
X248867454Y-68155678D01*
X248867379Y-68019161D01*
X248867101Y-67893271D01*
X248866631Y-67779769D01*
X248865980Y-67680416D01*
X248865158Y-67596974D01*
X248864175Y-67531204D01*
X248863043Y-67484869D01*
X248861771Y-67459728D01*
X248860951Y-67455550D01*
X248849748Y-67461487D01*
X248818836Y-67478822D01*
X248769289Y-67506935D01*
X248702182Y-67545210D01*
X248618591Y-67593028D01*
X248519591Y-67649772D01*
X248406256Y-67714823D01*
X248279662Y-67787565D01*
X248140885Y-67867379D01*
X247990998Y-67953647D01*
X247831077Y-68045752D01*
X247662197Y-68143076D01*
X247485434Y-68245001D01*
X247301862Y-68350910D01*
X247112557Y-68460183D01*
X247087323Y-68474754D01*
X245322767Y-69493653D01*
X245319697Y-70498397D01*
X245319197Y-70682971D01*
X245318907Y-70844825D01*
X245318842Y-70985248D01*
X245219577Y-70985248D01*
X245220045Y-70882451D01*
X245220465Y-70742064D01*
X245220695Y-70593493D01*
X245220735Y-70499128D01*
X245220735Y-69497736D01*
X245063942Y-69406784D01*
X245009082Y-69375149D01*
X244961899Y-69348298D01*
X244926119Y-69328324D01*
X244905468Y-69317318D01*
X244901975Y-69315832D01*
X244901060Y-69327512D01*
X244900108Y-69361253D01*
X244899139Y-69415112D01*
X244898172Y-69487142D01*
X244897227Y-69575399D01*
X244896323Y-69677937D01*
X244895480Y-69792810D01*
X244894718Y-69918074D01*
X244894056Y-70051783D01*
X244893715Y-70135090D01*
X244890631Y-70954348D01*
X244794601Y-71010770D01*
X244743335Y-71040933D01*
X244691918Y-71071254D01*
X244649457Y-71096361D01*
X244640106Y-71101907D01*
X244581642Y-71136622D01*
X244397494Y-71136622D01*
X244812607Y-70896058D01*
X244812607Y-69894693D01*
X244812607Y-68893328D01*
X244773594Y-68916208D01*
X244759093Y-68924617D01*
X244724906Y-68944386D01*
X244672139Y-68974876D01*
X244601900Y-69015448D01*
X244515297Y-69065463D01*
X244413435Y-69124282D01*
X244297423Y-69191265D01*
X244168367Y-69265774D01*
X244027375Y-69347168D01*
X243875554Y-69434809D01*
X243714011Y-69528058D01*
X243543853Y-69626276D01*
X243366187Y-69728823D01*
X243182121Y-69835059D01*
X242992761Y-69944347D01*
X242991033Y-69945345D01*
X241247484Y-70951601D01*
X241247484Y-71952290D01*
X241163229Y-71952290D01*
X241163006Y-70954348D01*
X240992178Y-70856236D01*
X240821349Y-70758124D01*
X240815348Y-71203875D01*
X240809346Y-71649626D01*
X240771199Y-71675325D01*
X240752725Y-71686797D01*
X240715870Y-71708841D01*
X240663054Y-71740042D01*
X240596694Y-71778982D01*
X240519209Y-71824242D01*
X240433018Y-71874406D01*
X240340538Y-71928056D01*
X240300051Y-71951491D01*
X240207400Y-72005236D01*
X240121533Y-72055338D01*
X240044611Y-72100516D01*
X239978792Y-72139488D01*
X239926237Y-72170972D01*
X239889105Y-72193686D01*
X239869555Y-72206348D01*
X239867049Y-72208502D01*
X239676443Y-72208502D01*
X240725319Y-71600173D01*
X240728389Y-70602048D01*
X240728763Y-70449568D01*
X240728933Y-70304185D01*
X240728909Y-70167662D01*
X240728700Y-70041762D01*
X240728314Y-69928245D01*
X240727761Y-69828875D01*
X240727050Y-69745415D01*
X240726189Y-69679626D01*
X240725187Y-69633270D01*
X240724054Y-69608111D01*
X240723321Y-69603923D01*
X240712219Y-69609822D01*
X240681398Y-69627110D01*
X240631929Y-69655172D01*
X240564885Y-69693391D01*
X240481338Y-69741152D01*
X240382359Y-69797841D01*
X240269020Y-69862841D01*
X240142393Y-69935538D01*
X240003550Y-70015315D01*
X239853562Y-70101558D01*
X239693502Y-70193650D01*
X239524442Y-70290978D01*
X239347452Y-70392924D01*
X239163606Y-70498875D01*
X238973975Y-70608213D01*
X238940977Y-70627245D01*
X237166771Y-71650567D01*
X237166485Y-72656192D01*
X237166198Y-73661817D01*
X236900481Y-73661817D01*
X236863731Y-73641050D01*
X236762897Y-73583754D01*
X236647725Y-73518048D01*
X236519283Y-73444544D01*
X236378639Y-73363853D01*
X236226861Y-73276588D01*
X236065018Y-73183358D01*
X235894177Y-73084778D01*
X235715408Y-72981457D01*
X235529777Y-72874007D01*
X235338354Y-72763041D01*
X235263599Y-72719662D01*
X233439024Y-71660607D01*
X233435960Y-70574723D01*
X233435779Y-70510743D01*
X233517295Y-70510743D01*
X233517298Y-70603238D01*
X233517548Y-71602552D01*
X235290857Y-72630886D01*
X235481215Y-72741248D01*
X235665989Y-72848326D01*
X235844108Y-72951500D01*
X236014503Y-73050151D01*
X236176101Y-73143662D01*
X236327832Y-73231414D01*
X236468626Y-73312789D01*
X236597412Y-73387168D01*
X236713119Y-73453933D01*
X236814676Y-73512466D01*
X236901013Y-73562148D01*
X236971058Y-73602361D01*
X237023742Y-73632487D01*
X237057993Y-73651907D01*
X237072740Y-73660003D01*
X237073237Y-73660210D01*
X237074583Y-73648652D01*
X237075797Y-73614843D01*
X237076868Y-73560536D01*
X237077787Y-73487486D01*
X237078541Y-73397449D01*
X237079122Y-73292179D01*
X237079518Y-73173431D01*
X237079718Y-73042961D01*
X237079714Y-72902522D01*
X237079493Y-72753870D01*
X237079239Y-72657227D01*
X237076170Y-71653253D01*
X235301129Y-70628588D01*
X235110641Y-70518641D01*
X234925791Y-70411979D01*
X234747648Y-70309215D01*
X234577280Y-70210965D01*
X234415755Y-70117844D01*
X234264143Y-70030469D01*
X234123511Y-69949453D01*
X233994929Y-69875412D01*
X233879464Y-69808962D01*
X233778186Y-69750717D01*
X233692162Y-69701294D01*
X233622462Y-69661307D01*
X233570154Y-69631371D01*
X233536307Y-69612102D01*
X233521988Y-69604115D01*
X233521568Y-69603923D01*
X233520881Y-69615633D01*
X233520232Y-69649589D01*
X233519627Y-69704031D01*
X233519076Y-69777196D01*
X233518585Y-69867322D01*
X233518161Y-69972650D01*
X233517813Y-70091418D01*
X233517547Y-70221863D01*
X233517372Y-70362225D01*
X233517295Y-70510743D01*
X233435779Y-70510743D01*
X233432996Y-69524211D01*
X233577298Y-69524211D01*
X233589754Y-69532495D01*
X233621618Y-69551868D01*
X233671585Y-69581581D01*
X233738350Y-69620882D01*
X233820607Y-69669020D01*
X233917051Y-69725244D01*
X234026377Y-69788805D01*
X234147278Y-69858949D01*
X234278450Y-69934928D01*
X234418586Y-70015990D01*
X234566382Y-70101385D01*
X234720531Y-70190360D01*
X234879729Y-70282167D01*
X235042670Y-70376053D01*
X235208048Y-70471268D01*
X235374558Y-70567062D01*
X235540895Y-70662682D01*
X235705752Y-70757380D01*
X235867824Y-70850403D01*
X236025807Y-70941000D01*
X236178394Y-71028422D01*
X236324279Y-71111917D01*
X236462158Y-71190734D01*
X236590725Y-71264123D01*
X236708675Y-71331333D01*
X236814701Y-71391612D01*
X236907499Y-71444210D01*
X236985762Y-71488377D01*
X237048187Y-71523361D01*
X237093466Y-71548411D01*
X237120294Y-71562778D01*
X237127577Y-71566082D01*
X237139473Y-71559628D01*
X237171079Y-71541792D01*
X237221314Y-71513194D01*
X237289097Y-71474457D01*
X237373348Y-71426201D01*
X237472986Y-71369047D01*
X237586930Y-71303617D01*
X237714098Y-71230532D01*
X237853410Y-71150414D01*
X238003785Y-71063882D01*
X238164142Y-70971560D01*
X238333400Y-70874067D01*
X238510478Y-70772026D01*
X238694295Y-70666057D01*
X238883771Y-70556781D01*
X238906890Y-70543445D01*
X239096754Y-70433884D01*
X239280927Y-70327540D01*
X239458340Y-70225032D01*
X239627924Y-70126982D01*
X239788608Y-70034010D01*
X239939325Y-69946736D01*
X240079003Y-69865782D01*
X240206574Y-69791766D01*
X240320969Y-69725311D01*
X240421117Y-69667036D01*
X240505951Y-69617562D01*
X240574399Y-69577509D01*
X240625394Y-69547498D01*
X240657865Y-69528150D01*
X240670743Y-69520084D01*
X240670922Y-69519896D01*
X240660745Y-69513217D01*
X240631049Y-69495337D01*
X240583137Y-69467006D01*
X240518312Y-69428975D01*
X240437876Y-69381995D01*
X240343130Y-69326817D01*
X240235379Y-69264192D01*
X240115923Y-69194871D01*
X239986065Y-69119604D01*
X239847107Y-69039144D01*
X239700353Y-68954240D01*
X239547103Y-68865644D01*
X239388661Y-68774106D01*
X239226329Y-68680378D01*
X239061409Y-68585211D01*
X238895204Y-68489354D01*
X238729016Y-68393560D01*
X238564147Y-68298579D01*
X238463280Y-68240503D01*
X238644278Y-68240503D01*
X238796519Y-68327950D01*
X238829892Y-68347152D01*
X238882244Y-68377318D01*
X238951765Y-68417403D01*
X239036647Y-68466364D01*
X239135080Y-68523155D01*
X239245254Y-68586734D01*
X239365359Y-68656055D01*
X239493587Y-68730075D01*
X239628128Y-68807750D01*
X239767171Y-68888034D01*
X239879053Y-68952642D01*
X240809346Y-69489887D01*
X240815348Y-70071556D01*
X240821349Y-70653225D01*
X241011559Y-70763264D01*
X241201768Y-70873303D01*
X241402032Y-70757777D01*
X241435605Y-70738405D01*
X241488642Y-70707798D01*
X241559816Y-70666721D01*
X241647799Y-70615940D01*
X241751264Y-70556222D01*
X241868882Y-70488333D01*
X241999327Y-70413039D01*
X242141271Y-70331107D01*
X242293385Y-70243303D01*
X242454344Y-70150393D01*
X242622818Y-70053144D01*
X242797481Y-69952322D01*
X242977004Y-69848692D01*
X243160061Y-69743022D01*
X243182639Y-69729989D01*
X243403678Y-69602332D01*
X243604645Y-69486132D01*
X243786311Y-69380932D01*
X243949449Y-69286276D01*
X244094829Y-69201707D01*
X244223222Y-69126769D01*
X244335400Y-69061005D01*
X244432135Y-69003960D01*
X244514197Y-68955175D01*
X244582359Y-68914196D01*
X244637391Y-68880565D01*
X244680064Y-68853827D01*
X244711151Y-68833524D01*
X244731423Y-68819200D01*
X244741650Y-68810398D01*
X244742780Y-68806744D01*
X244730354Y-68799647D01*
X244698222Y-68781177D01*
X244647472Y-68751961D01*
X244579192Y-68712627D01*
X244494468Y-68663802D01*
X244394388Y-68606112D01*
X244280040Y-68540185D01*
X244152512Y-68466648D01*
X244012891Y-68386128D01*
X243862264Y-68299252D01*
X243701719Y-68206648D01*
X243532344Y-68108942D01*
X243355226Y-68006761D01*
X243171453Y-67900734D01*
X242982112Y-67791486D01*
X242966680Y-67782582D01*
X242777079Y-67673254D01*
X242592999Y-67567259D01*
X242415524Y-67465213D01*
X242245737Y-67367732D01*
X242084720Y-67275434D01*
X241933556Y-67188936D01*
X241863822Y-67149112D01*
X242090127Y-67149112D01*
X242091755Y-67153478D01*
X242102065Y-67162521D01*
X242121912Y-67176746D01*
X242152151Y-67196663D01*
X242193637Y-67222779D01*
X242247226Y-67255601D01*
X242313772Y-67295637D01*
X242394131Y-67343394D01*
X242489157Y-67399381D01*
X242599706Y-67464105D01*
X242726633Y-67538073D01*
X242870792Y-67621793D01*
X243033040Y-67715773D01*
X243214231Y-67820520D01*
X243415220Y-67936542D01*
X243464560Y-67965003D01*
X243633249Y-68062343D01*
X243796384Y-68156569D01*
X243952738Y-68246965D01*
X244101081Y-68332818D01*
X244240184Y-68413413D01*
X244368817Y-68488035D01*
X244485751Y-68555971D01*
X244589758Y-68616505D01*
X244679607Y-68668924D01*
X244754070Y-68712513D01*
X244811917Y-68746558D01*
X244851920Y-68770345D01*
X244872848Y-68783158D01*
X244875626Y-68785070D01*
X244883457Y-68794425D01*
X244889090Y-68809141D01*
X244892875Y-68832863D01*
X244895160Y-68869234D01*
X244896296Y-68921899D01*
X244896630Y-68994500D01*
X244896633Y-69004383D01*
X244896633Y-69205376D01*
X245073689Y-69308241D01*
X245133035Y-69342211D01*
X245185867Y-69371496D01*
X245228425Y-69394089D01*
X245256951Y-69407981D01*
X245266945Y-69411484D01*
X245278926Y-69405620D01*
X245310608Y-69388358D01*
X245360910Y-69360315D01*
X245428749Y-69322111D01*
X245513043Y-69274363D01*
X245612711Y-69217691D01*
X245726669Y-69152712D01*
X245853836Y-69080045D01*
X245993130Y-69000309D01*
X246143469Y-68914121D01*
X246303771Y-68822100D01*
X246472953Y-68724865D01*
X246649933Y-68623034D01*
X246833630Y-68517225D01*
X247022961Y-68408057D01*
X247043504Y-68396205D01*
X247233325Y-68286667D01*
X247417554Y-68180317D01*
X247595114Y-68077780D01*
X247764926Y-67979680D01*
X247925913Y-67886640D01*
X248076997Y-67799284D01*
X248217099Y-67718237D01*
X248345143Y-67644123D01*
X248460050Y-67577564D01*
X248560742Y-67519186D01*
X248646141Y-67469612D01*
X248715170Y-67429466D01*
X248766751Y-67399372D01*
X248799804Y-67379953D01*
X248813254Y-67371835D01*
X248813488Y-67371661D01*
X248804191Y-67364978D01*
X248775379Y-67347076D01*
X248728350Y-67318708D01*
X248664400Y-67280623D01*
X248584825Y-67233573D01*
X248490923Y-67178309D01*
X248383990Y-67115582D01*
X248265322Y-67046143D01*
X248136218Y-66970743D01*
X247997972Y-66890133D01*
X247851883Y-66805063D01*
X247699246Y-66716286D01*
X247541358Y-66624551D01*
X247379517Y-66530610D01*
X247215018Y-66435215D01*
X247049159Y-66339115D01*
X246883236Y-66243062D01*
X246718546Y-66147808D01*
X246556385Y-66054102D01*
X246398051Y-65962696D01*
X246244839Y-65874341D01*
X246098048Y-65789788D01*
X245958973Y-65709789D01*
X245828910Y-65635093D01*
X245709158Y-65566452D01*
X245601012Y-65504617D01*
X245540210Y-65469967D01*
X245724894Y-65469967D01*
X247333218Y-66398137D01*
X247514621Y-66502874D01*
X247690420Y-66604469D01*
X247859482Y-66702265D01*
X248020677Y-66795603D01*
X248172874Y-66883825D01*
X248314941Y-66966274D01*
X248445748Y-67042290D01*
X248564163Y-67111217D01*
X248669055Y-67172396D01*
X248759293Y-67225168D01*
X248833745Y-67268876D01*
X248891282Y-67302861D01*
X248930770Y-67326466D01*
X248951081Y-67339033D01*
X248953644Y-67340889D01*
X248956308Y-67356136D01*
X248958760Y-67394853D01*
X248960991Y-67456502D01*
X248962989Y-67540547D01*
X248964747Y-67646449D01*
X248966253Y-67773672D01*
X248967499Y-67921678D01*
X248968474Y-68089931D01*
X248968832Y-68174758D01*
X248971917Y-68994045D01*
X249121964Y-69082422D01*
X249175855Y-69113846D01*
X249222449Y-69140415D01*
X249257831Y-69159944D01*
X249278085Y-69170246D01*
X249281082Y-69171293D01*
X249282429Y-69159659D01*
X249283643Y-69125774D01*
X249284715Y-69071396D01*
X249285633Y-68998280D01*
X249286388Y-68908183D01*
X249286968Y-68802863D01*
X249287363Y-68684076D01*
X249287564Y-68553578D01*
X249287562Y-68497102D01*
X249376470Y-68497102D01*
X249376629Y-68641761D01*
X249377049Y-68771715D01*
X249377719Y-68885659D01*
X249378630Y-68982293D01*
X249379771Y-69060313D01*
X249381133Y-69118418D01*
X249382705Y-69155304D01*
X249384477Y-69169670D01*
X249384742Y-69169809D01*
X249396128Y-69163455D01*
X249427211Y-69145682D01*
X249476918Y-69117112D01*
X249544176Y-69078363D01*
X249627912Y-69030057D01*
X249727053Y-68972814D01*
X249840524Y-68907255D01*
X249967254Y-68833999D01*
X250106167Y-68753668D01*
X250256193Y-68666882D01*
X250416256Y-68574261D01*
X250585284Y-68476425D01*
X250762204Y-68373995D01*
X250945942Y-68267592D01*
X251135425Y-68157836D01*
X251167141Y-68139462D01*
X252938704Y-67113138D01*
X252938935Y-66113824D01*
X252938920Y-65961250D01*
X252938807Y-65815773D01*
X252938604Y-65679153D01*
X252938318Y-65553153D01*
X252937957Y-65439533D01*
X252937526Y-65340054D01*
X252937034Y-65256479D01*
X252936488Y-65190568D01*
X252935894Y-65144083D01*
X252935260Y-65118785D01*
X252934863Y-65114509D01*
X252924179Y-65120410D01*
X252893773Y-65137702D01*
X252844714Y-65165770D01*
X252778071Y-65203999D01*
X252694912Y-65251774D01*
X252596305Y-65308479D01*
X252483318Y-65373500D01*
X252357021Y-65446222D01*
X252218480Y-65526028D01*
X252068765Y-65612304D01*
X251908944Y-65704435D01*
X251740085Y-65801806D01*
X251563257Y-65903801D01*
X251379528Y-66009805D01*
X251189966Y-66119203D01*
X251155303Y-66139211D01*
X249380045Y-67163914D01*
X249376975Y-68168873D01*
X249376582Y-68339038D01*
X249376470Y-68497102D01*
X249287562Y-68497102D01*
X249287558Y-68413126D01*
X249287337Y-68264477D01*
X249287084Y-68168515D01*
X249284015Y-67165242D01*
X247579478Y-66181101D01*
X247391580Y-66072621D01*
X247208574Y-65966979D01*
X247031613Y-65864838D01*
X246861849Y-65766863D01*
X246700431Y-65673717D01*
X246548512Y-65586066D01*
X246407244Y-65504573D01*
X246277777Y-65429901D01*
X246161264Y-65362717D01*
X246058856Y-65303682D01*
X245971703Y-65253463D01*
X245900959Y-65212722D01*
X245847774Y-65182124D01*
X245813299Y-65162333D01*
X245799918Y-65154701D01*
X245724894Y-65112443D01*
X245724894Y-65291205D01*
X245724894Y-65469967D01*
X245540210Y-65469967D01*
X245505770Y-65450340D01*
X245424727Y-65404370D01*
X245359181Y-65367459D01*
X245310428Y-65340359D01*
X245279766Y-65323820D01*
X245268587Y-65318573D01*
X245257014Y-65324452D01*
X245226041Y-65341557D01*
X245177049Y-65369093D01*
X245111421Y-65406265D01*
X245030537Y-65452278D01*
X244935778Y-65506335D01*
X244828526Y-65567642D01*
X244710161Y-65635403D01*
X244582066Y-65708823D01*
X244445620Y-65787105D01*
X244302206Y-65869455D01*
X244153204Y-65955078D01*
X243999996Y-66043177D01*
X243843962Y-66132957D01*
X243686485Y-66223624D01*
X243528945Y-66314380D01*
X243372723Y-66404432D01*
X243219200Y-66492983D01*
X243069758Y-66579238D01*
X242925778Y-66662402D01*
X242788642Y-66741679D01*
X242659729Y-66816273D01*
X242540422Y-66885390D01*
X242432101Y-66948234D01*
X242336148Y-67004009D01*
X242253944Y-67051920D01*
X242186871Y-67091171D01*
X242136308Y-67120967D01*
X242103638Y-67140513D01*
X242090242Y-67149013D01*
X242090127Y-67149112D01*
X241863822Y-67149112D01*
X241793329Y-67108855D01*
X241665121Y-67035806D01*
X241550014Y-66970409D01*
X241449093Y-66913278D01*
X241363440Y-66865032D01*
X241294137Y-66826287D01*
X241242268Y-66797660D01*
X241208915Y-66779769D01*
X241195162Y-66773229D01*
X241194923Y-66773218D01*
X241182703Y-66779596D01*
X241150981Y-66797258D01*
X241101038Y-66825471D01*
X241034155Y-66863500D01*
X240951612Y-66910610D01*
X240854691Y-66966068D01*
X240744672Y-67029140D01*
X240622836Y-67099092D01*
X240490464Y-67175188D01*
X240348837Y-67256696D01*
X240199234Y-67342881D01*
X240042939Y-67433008D01*
X239911671Y-67508768D01*
X238644278Y-68240503D01*
X238463280Y-68240503D01*
X238401899Y-68205162D01*
X238243576Y-68114060D01*
X238090479Y-68026024D01*
X237943910Y-67941805D01*
X237805173Y-67862154D01*
X237675568Y-67787821D01*
X237556400Y-67719558D01*
X237448969Y-67658116D01*
X237354579Y-67604245D01*
X237274532Y-67558697D01*
X237210130Y-67522222D01*
X237162675Y-67495571D01*
X237133470Y-67479495D01*
X237123881Y-67474691D01*
X237111379Y-67480351D01*
X237079556Y-67497278D01*
X237029711Y-67524720D01*
X236963141Y-67561929D01*
X236881144Y-67608154D01*
X236785017Y-67662645D01*
X236676058Y-67724653D01*
X236555565Y-67793428D01*
X236424835Y-67868219D01*
X236285167Y-67948277D01*
X236137857Y-68032852D01*
X235984204Y-68121194D01*
X235825504Y-68212554D01*
X235663057Y-68306180D01*
X235498159Y-68401324D01*
X235332107Y-68497235D01*
X235166201Y-68593163D01*
X235001737Y-68688359D01*
X234840014Y-68782073D01*
X234682328Y-68873554D01*
X234529977Y-68962053D01*
X234384260Y-69046821D01*
X234246473Y-69127106D01*
X234117915Y-69202160D01*
X233999883Y-69271231D01*
X233893675Y-69333571D01*
X233800588Y-69388430D01*
X233721920Y-69435057D01*
X233658969Y-69472702D01*
X233613033Y-69500617D01*
X233585408Y-69518050D01*
X233577298Y-69524211D01*
X233432996Y-69524211D01*
X233432896Y-69488840D01*
X235267414Y-68430030D01*
X235461316Y-68318177D01*
X235649742Y-68209603D01*
X235831630Y-68104913D01*
X236005919Y-68004713D01*
X236171548Y-67909609D01*
X236327455Y-67820209D01*
X236472579Y-67737118D01*
X236605860Y-67660942D01*
X236726234Y-67592288D01*
X236832643Y-67531763D01*
X236924023Y-67479971D01*
X236999315Y-67437521D01*
X237057456Y-67405018D01*
X237097385Y-67383068D01*
X237118041Y-67372278D01*
X237120717Y-67371220D01*
X237134100Y-67377083D01*
X237166464Y-67394008D01*
X237216033Y-67420996D01*
X237281030Y-67457048D01*
X237359677Y-67501166D01*
X237450198Y-67552351D01*
X237550815Y-67609604D01*
X237659752Y-67671928D01*
X237775232Y-67738322D01*
X237822061Y-67765337D01*
X237939940Y-67833385D01*
X238052144Y-67898125D01*
X238156871Y-67958520D01*
X238252315Y-68013529D01*
X238336672Y-68062113D01*
X238408138Y-68103235D01*
X238464908Y-68135853D01*
X238505179Y-68158931D01*
X238527145Y-68171428D01*
X238530301Y-68173177D01*
X238535761Y-68174244D01*
X238544857Y-68172780D01*
X238558652Y-68168197D01*
X238578207Y-68159903D01*
X238604583Y-68147309D01*
X238638841Y-68129824D01*
X238682044Y-68106860D01*
X238735252Y-68077825D01*
X238799527Y-68042129D01*
X238875930Y-67999184D01*
X238965522Y-67948397D01*
X239069366Y-67889180D01*
X239188523Y-67820943D01*
X239324053Y-67743095D01*
X239477019Y-67655046D01*
X239648482Y-67556207D01*
X239839503Y-67445987D01*
X239867013Y-67430107D01*
X240030667Y-67335718D01*
X240188754Y-67244699D01*
X240340008Y-67157769D01*
X240483166Y-67075649D01*
X240616963Y-66999057D01*
X240740134Y-66928715D01*
X240851417Y-66865342D01*
X240949547Y-66809658D01*
X241033259Y-66762383D01*
X241101289Y-66724236D01*
X241152374Y-66695938D01*
X241185249Y-66678208D01*
X241198649Y-66671766D01*
X241198737Y-66671755D01*
X241213581Y-66677221D01*
X241246687Y-66693463D01*
X241295587Y-66719143D01*
X241357818Y-66752923D01*
X241430912Y-66793465D01*
X241512405Y-66839431D01*
X241598048Y-66888456D01*
X241976666Y-67106716D01*
X243589698Y-66175552D01*
X243771729Y-66070482D01*
X243948413Y-65968522D01*
X244118602Y-65870334D01*
X244281147Y-65776579D01*
X244434898Y-65687919D01*
X244578706Y-65605018D01*
X244711423Y-65528536D01*
X244831898Y-65459135D01*
X244938984Y-65397479D01*
X245031531Y-65344228D01*
X245108390Y-65300045D01*
X245168412Y-65265591D01*
X245210447Y-65241529D01*
X245233347Y-65228521D01*
X245237063Y-65226471D01*
X245250232Y-65220378D01*
X245263305Y-65218021D01*
X245279744Y-65220786D01*
X245303014Y-65230060D01*
X245336578Y-65247227D01*
X245383900Y-65273673D01*
X245448443Y-65310783D01*
X245449821Y-65311579D01*
X245508599Y-65345325D01*
X245559936Y-65374433D01*
X245600327Y-65396945D01*
X245626272Y-65410906D01*
X245634273Y-65414603D01*
X245636418Y-65403245D01*
X245638614Y-65371749D01*
X245640687Y-65323985D01*
X245642464Y-65263822D01*
X245643585Y-65207538D01*
X245645093Y-65112443D01*
X245646420Y-65028803D01*
X245783005Y-65028803D01*
X245792511Y-65035328D01*
X245821524Y-65053085D01*
X245868746Y-65081323D01*
X245932880Y-65119291D01*
X246012630Y-65166237D01*
X246106697Y-65221410D01*
X246213786Y-65284059D01*
X246332598Y-65353433D01*
X246461838Y-65428780D01*
X246600209Y-65509350D01*
X246746412Y-65594390D01*
X246899152Y-65683151D01*
X247057131Y-65774880D01*
X247219053Y-65868827D01*
X247383620Y-65964241D01*
X247549535Y-66060369D01*
X247715502Y-66156462D01*
X247880223Y-66251767D01*
X248042402Y-66345533D01*
X248200741Y-66437010D01*
X248353944Y-66525446D01*
X248500713Y-66610090D01*
X248639751Y-66690191D01*
X248769763Y-66764997D01*
X248889450Y-66833758D01*
X248997515Y-66895721D01*
X249092662Y-66950137D01*
X249173594Y-66996253D01*
X249239013Y-67033319D01*
X249287624Y-67060583D01*
X249318128Y-67077294D01*
X249329157Y-67082711D01*
X249340365Y-67076854D01*
X249371287Y-67059601D01*
X249420849Y-67031570D01*
X249487977Y-66993375D01*
X249571598Y-66945634D01*
X249670639Y-66888962D01*
X249784025Y-66823975D01*
X249910684Y-66751290D01*
X250049542Y-66671522D01*
X250199525Y-66585288D01*
X250359560Y-66493204D01*
X250528574Y-66395886D01*
X250705493Y-66293949D01*
X250889243Y-66188011D01*
X251078751Y-66078686D01*
X251108717Y-66061393D01*
X251298927Y-65951576D01*
X251483443Y-65844957D01*
X251661199Y-65742158D01*
X251831126Y-65643799D01*
X251992158Y-65550501D01*
X252143228Y-65462883D01*
X252283269Y-65381567D01*
X252411214Y-65307173D01*
X252525996Y-65240322D01*
X252626547Y-65181633D01*
X252711802Y-65131728D01*
X252780692Y-65091227D01*
X252832152Y-65060750D01*
X252865113Y-65040918D01*
X252878509Y-65032352D01*
X252878765Y-65032069D01*
X252868496Y-65024983D01*
X252838684Y-65006739D01*
X252790633Y-64978086D01*
X252725646Y-64939774D01*
X252645027Y-64892552D01*
X252550080Y-64837169D01*
X252442108Y-64774375D01*
X252322415Y-64704919D01*
X252192304Y-64629551D01*
X252053079Y-64549020D01*
X251906043Y-64464075D01*
X251752501Y-64375467D01*
X251593755Y-64283943D01*
X251431110Y-64190255D01*
X251265869Y-64095150D01*
X251099335Y-63999379D01*
X250932813Y-63903690D01*
X250767605Y-63808834D01*
X250605015Y-63715560D01*
X250446348Y-63624617D01*
X250292906Y-63536754D01*
X250145993Y-63452721D01*
X250006913Y-63373268D01*
X249876969Y-63299143D01*
X249757465Y-63231097D01*
X249649704Y-63169878D01*
X249623910Y-63155269D01*
X249554991Y-63116235D01*
X249474628Y-63070920D01*
X249409919Y-63034680D01*
X249362169Y-63008265D01*
X249332679Y-62992424D01*
X249322803Y-62987834D01*
X249311087Y-62994132D01*
X249279895Y-63011689D01*
X249230537Y-63039750D01*
X249164322Y-63077559D01*
X249082560Y-63124363D01*
X248986561Y-63179405D01*
X248877633Y-63241931D01*
X248757088Y-63311186D01*
X248626233Y-63386414D01*
X248486380Y-63466861D01*
X248338836Y-63551771D01*
X248184913Y-63640390D01*
X248025919Y-63731962D01*
X247863163Y-63825732D01*
X247697957Y-63920946D01*
X247531608Y-64016847D01*
X247365427Y-64112682D01*
X247200723Y-64207695D01*
X247038806Y-64301131D01*
X246880985Y-64392234D01*
X246728569Y-64480251D01*
X246582870Y-64564425D01*
X246445195Y-64644002D01*
X246316854Y-64718227D01*
X246199158Y-64786345D01*
X246093415Y-64847600D01*
X246000935Y-64901237D01*
X245923028Y-64946503D01*
X245861003Y-64982640D01*
X245816170Y-65008895D01*
X245789838Y-65024512D01*
X245783005Y-65028803D01*
X245646420Y-65028803D01*
X245646869Y-65000473D01*
X247482023Y-63941139D01*
X247675883Y-63829279D01*
X247864213Y-63720695D01*
X248045958Y-63615993D01*
X248220059Y-63515779D01*
X248385459Y-63420658D01*
X248541102Y-63331238D01*
X248685929Y-63248122D01*
X248818883Y-63171918D01*
X248938907Y-63103232D01*
X249044944Y-63042668D01*
X249135936Y-62990833D01*
X249210826Y-62948332D01*
X249268557Y-62915772D01*
X249308071Y-62893758D01*
X249328311Y-62882897D01*
X249330822Y-62881806D01*
X249345183Y-62887563D01*
X249376647Y-62903544D01*
X249421614Y-62927811D01*
X249476488Y-62958427D01*
X249530309Y-62989197D01*
X249716151Y-63096587D01*
X249721424Y-62507092D01*
X249818183Y-62507092D01*
X249818183Y-63155269D01*
X251417687Y-64078465D01*
X253017191Y-65001661D01*
X253023193Y-65359316D01*
X253029194Y-65716972D01*
X253197247Y-65816754D01*
X253254311Y-65850386D01*
X253304207Y-65879320D01*
X253343273Y-65901470D01*
X253367849Y-65914752D01*
X253374372Y-65917649D01*
X253374383Y-65917555D01*
X253375717Y-65906111D01*
X253376931Y-65872319D01*
X253378002Y-65818028D01*
X253378920Y-65744991D01*
X253379674Y-65654964D01*
X253380255Y-65549699D01*
X253380651Y-65430951D01*
X253380852Y-65300474D01*
X253380848Y-65160021D01*
X253380628Y-65011348D01*
X253380374Y-64914076D01*
X253380369Y-64912343D01*
X253467332Y-64912343D01*
X253467332Y-65917555D01*
X253638386Y-65818347D01*
X253668295Y-65801006D01*
X253717696Y-65772372D01*
X253785310Y-65733184D01*
X253869858Y-65684186D01*
X253970058Y-65626119D01*
X254084632Y-65559724D01*
X254212300Y-65485743D01*
X254351781Y-65404917D01*
X254501796Y-65317989D01*
X254661065Y-65225700D01*
X254828308Y-65128791D01*
X255002246Y-65028004D01*
X255181598Y-64924082D01*
X255365085Y-64817764D01*
X255420948Y-64785396D01*
X257032455Y-63851654D01*
X257032455Y-62850324D01*
X257032455Y-61848995D01*
X256974729Y-61882248D01*
X256958134Y-61891821D01*
X256921877Y-61912746D01*
X256867087Y-61944371D01*
X256794893Y-61986044D01*
X256706425Y-62037113D01*
X256602813Y-62096926D01*
X256485184Y-62164832D01*
X256354668Y-62240178D01*
X256212396Y-62322313D01*
X256059495Y-62410585D01*
X255897095Y-62504341D01*
X255726325Y-62602930D01*
X255548315Y-62705700D01*
X255364193Y-62812000D01*
X255192168Y-62911316D01*
X253467332Y-63907131D01*
X253467332Y-64912343D01*
X253380369Y-64912343D01*
X253377304Y-63909389D01*
X251612748Y-62890336D01*
X251422656Y-62780570D01*
X251238095Y-62674025D01*
X251060145Y-62571326D01*
X250889887Y-62473092D01*
X250728399Y-62379948D01*
X250576763Y-62292514D01*
X250436058Y-62211414D01*
X250307364Y-62137269D01*
X250191762Y-62070702D01*
X250090332Y-62012334D01*
X250004153Y-61962790D01*
X249934306Y-61922689D01*
X249881870Y-61892655D01*
X249847926Y-61873310D01*
X249833554Y-61865277D01*
X249833188Y-61865099D01*
X249829801Y-61868202D01*
X249826931Y-61881572D01*
X249824541Y-61906779D01*
X249822596Y-61945392D01*
X249821057Y-61998979D01*
X249819889Y-62069111D01*
X249819055Y-62157356D01*
X249818518Y-62265285D01*
X249818242Y-62394465D01*
X249818183Y-62507092D01*
X249721424Y-62507092D01*
X249722153Y-62425612D01*
X249723745Y-62271438D01*
X249725592Y-62135149D01*
X249727671Y-62017644D01*
X249729958Y-61919823D01*
X249732430Y-61842584D01*
X249735061Y-61786826D01*
X249735204Y-61785105D01*
G37*
%TD*%
M02*
