%TF.GenerationSoftware,KiCad,Pcbnew,7.0.1-0*%
%TF.CreationDate,2023-05-16T20:35:45+09:00*%
%TF.ProjectId,Sandy_Plate_Bottom,53616e64-795f-4506-9c61-74655f426f74,v.1 (042)*%
%TF.SameCoordinates,Original*%
%TF.FileFunction,Copper,L2,Bot*%
%TF.FilePolarity,Positive*%
%FSLAX46Y46*%
G04 Gerber Fmt 4.6, Leading zero omitted, Abs format (unit mm)*
G04 Created by KiCad (PCBNEW 7.0.1-0) date 2023-05-16 20:35:45*
%MOMM*%
%LPD*%
G01*
G04 APERTURE LIST*
G04 APERTURE END LIST*
%TA.AperFunction,NonConductor*%
G36*
X26031979Y-17075891D02*
G01*
X26043107Y-17077143D01*
X26050090Y-17077929D01*
X26052283Y-17078197D01*
X26154841Y-17091699D01*
X26179986Y-17097686D01*
X26219402Y-17111476D01*
X26225998Y-17113994D01*
X26234528Y-17117527D01*
X26294017Y-17142168D01*
X26312826Y-17151884D01*
X26330365Y-17162904D01*
X26352495Y-17176808D01*
X26362166Y-17183535D01*
X26416887Y-17225524D01*
X26429275Y-17236387D01*
X26463159Y-17270268D01*
X26474023Y-17282655D01*
X26505475Y-17323644D01*
X26516100Y-17337491D01*
X26522820Y-17347153D01*
X26547634Y-17386640D01*
X26557359Y-17405464D01*
X26585728Y-17473955D01*
X26588248Y-17480556D01*
X26601850Y-17519427D01*
X26607843Y-17544595D01*
X26621609Y-17649149D01*
X26621894Y-17651487D01*
X26623667Y-17667220D01*
X26624460Y-17681330D01*
X26624460Y-24698975D01*
X26624499Y-24699177D01*
X26624499Y-24742257D01*
X26654608Y-24874179D01*
X26713316Y-24996094D01*
X26727527Y-25013915D01*
X26797681Y-25101890D01*
X26903460Y-25186253D01*
X26903471Y-25186262D01*
X27025381Y-25244978D01*
X27080805Y-25257631D01*
X27157303Y-25275096D01*
X27199799Y-25275097D01*
X27199809Y-25275100D01*
X27224861Y-25275100D01*
X27224960Y-25275100D01*
X40024460Y-25275100D01*
X40025059Y-25275100D01*
X40049927Y-25275100D01*
X40050118Y-25275061D01*
X40092618Y-25275064D01*
X40176101Y-25256014D01*
X40224541Y-25244961D01*
X40224542Y-25244960D01*
X40224544Y-25244960D01*
X40346463Y-25186254D01*
X40452261Y-25101890D01*
X40536633Y-24996097D01*
X40595347Y-24874182D01*
X40625459Y-24742258D01*
X40625460Y-24674600D01*
X40625460Y-24674100D01*
X40625460Y-21325000D01*
X108969341Y-21325000D01*
X108989937Y-21560409D01*
X109051096Y-21788662D01*
X109150965Y-22002829D01*
X109286507Y-22196404D01*
X109453595Y-22363492D01*
X109453598Y-22363494D01*
X109453599Y-22363495D01*
X109647171Y-22499035D01*
X109861337Y-22598903D01*
X110089592Y-22660063D01*
X110266034Y-22675500D01*
X110383960Y-22675500D01*
X110383966Y-22675500D01*
X110560408Y-22660063D01*
X110788663Y-22598903D01*
X111002829Y-22499035D01*
X111196401Y-22363495D01*
X111363495Y-22196401D01*
X111499035Y-22002830D01*
X111598903Y-21788663D01*
X111660063Y-21560408D01*
X111680659Y-21325000D01*
X111680659Y-21324999D01*
X204219341Y-21324999D01*
X204239937Y-21560409D01*
X204301096Y-21788662D01*
X204400965Y-22002829D01*
X204536507Y-22196404D01*
X204703595Y-22363492D01*
X204703598Y-22363494D01*
X204703599Y-22363495D01*
X204897171Y-22499035D01*
X205111337Y-22598903D01*
X205339592Y-22660063D01*
X205516034Y-22675500D01*
X205633960Y-22675500D01*
X205633966Y-22675500D01*
X205810408Y-22660063D01*
X206038663Y-22598903D01*
X206252829Y-22499035D01*
X206446401Y-22363495D01*
X206613495Y-22196401D01*
X206749035Y-22002830D01*
X206848903Y-21788663D01*
X206910063Y-21560408D01*
X206930659Y-21325000D01*
X206910063Y-21089592D01*
X206848903Y-20861337D01*
X206749035Y-20647171D01*
X206613495Y-20453599D01*
X206613494Y-20453598D01*
X206613492Y-20453595D01*
X206446404Y-20286507D01*
X206252829Y-20150965D01*
X206038662Y-20051096D01*
X205810409Y-19989937D01*
X205785202Y-19987731D01*
X205633966Y-19974500D01*
X205516034Y-19974500D01*
X205383702Y-19986077D01*
X205339590Y-19989937D01*
X205111337Y-20051096D01*
X204897170Y-20150965D01*
X204703595Y-20286507D01*
X204536507Y-20453595D01*
X204400965Y-20647169D01*
X204301096Y-20861336D01*
X204239937Y-21089590D01*
X204219341Y-21324999D01*
X111680659Y-21324999D01*
X111660063Y-21089592D01*
X111598903Y-20861337D01*
X111499035Y-20647171D01*
X111363495Y-20453599D01*
X111363494Y-20453598D01*
X111363492Y-20453595D01*
X111196404Y-20286507D01*
X111002829Y-20150965D01*
X110788662Y-20051096D01*
X110560409Y-19989937D01*
X110535202Y-19987731D01*
X110383966Y-19974500D01*
X110266034Y-19974500D01*
X110133702Y-19986077D01*
X110089590Y-19989937D01*
X109861337Y-20051096D01*
X109647170Y-20150965D01*
X109453595Y-20286507D01*
X109286507Y-20453595D01*
X109150965Y-20647169D01*
X109051096Y-20861336D01*
X108989937Y-21089590D01*
X108969341Y-21325000D01*
X40625460Y-21325000D01*
X40625460Y-17681675D01*
X40626252Y-17667574D01*
X40628293Y-17649451D01*
X40628569Y-17647183D01*
X40642054Y-17544759D01*
X40648040Y-17519617D01*
X40661924Y-17479936D01*
X40664410Y-17473425D01*
X40692500Y-17405609D01*
X40702206Y-17386821D01*
X40727282Y-17346910D01*
X40733972Y-17337291D01*
X40775827Y-17282745D01*
X40786649Y-17270405D01*
X40820741Y-17236310D01*
X40833100Y-17225470D01*
X40887752Y-17183535D01*
X40897369Y-17176846D01*
X40937087Y-17151888D01*
X40955891Y-17142172D01*
X41024172Y-17113889D01*
X41030710Y-17111393D01*
X41069833Y-17097701D01*
X41094990Y-17091711D01*
X41199592Y-17077939D01*
X41201694Y-17077682D01*
X41217582Y-17075891D01*
X41231680Y-17075100D01*
X298420843Y-17075100D01*
X298429080Y-17075370D01*
X298433512Y-17075660D01*
X298508321Y-17080562D01*
X298508409Y-17080568D01*
X298686465Y-17093303D01*
X298702040Y-17095401D01*
X298812995Y-17117469D01*
X298814941Y-17117874D01*
X298955165Y-17148378D01*
X298968868Y-17152181D01*
X299082229Y-17190659D01*
X299085698Y-17191895D01*
X299213826Y-17239684D01*
X299225509Y-17244729D01*
X299335179Y-17298811D01*
X299339833Y-17301227D01*
X299457581Y-17365522D01*
X299467169Y-17371327D01*
X299531748Y-17414476D01*
X299569836Y-17439925D01*
X299575344Y-17443823D01*
X299681884Y-17523578D01*
X299689437Y-17529701D01*
X299782613Y-17611412D01*
X299788616Y-17617036D01*
X299882554Y-17710974D01*
X299888190Y-17716991D01*
X299969804Y-17810053D01*
X299975941Y-17817622D01*
X300055853Y-17924371D01*
X300059749Y-17929876D01*
X300128163Y-18032263D01*
X300133966Y-18041848D01*
X300134156Y-18042195D01*
X300198530Y-18160088D01*
X300200948Y-18164744D01*
X300254760Y-18273862D01*
X300259810Y-18285559D01*
X300307944Y-18414612D01*
X300309201Y-18418142D01*
X300347323Y-18530445D01*
X300351130Y-18544164D01*
X300382025Y-18686185D01*
X300382484Y-18688386D01*
X300404138Y-18797243D01*
X300406238Y-18812837D01*
X300419424Y-18997210D01*
X300419475Y-18997956D01*
X300424190Y-19069883D01*
X300424460Y-19078125D01*
X300424460Y-109670477D01*
X300424190Y-109678721D01*
X300419001Y-109757862D01*
X300418950Y-109758606D01*
X300406261Y-109936039D01*
X300404161Y-109951633D01*
X300382016Y-110062960D01*
X300381557Y-110065162D01*
X300351203Y-110204695D01*
X300347396Y-110218412D01*
X300308729Y-110332321D01*
X300307472Y-110335853D01*
X300259949Y-110463266D01*
X300254898Y-110474962D01*
X300200483Y-110585302D01*
X300198066Y-110589958D01*
X300134190Y-110706939D01*
X300128367Y-110716556D01*
X300059294Y-110819930D01*
X300055397Y-110825437D01*
X299976254Y-110931159D01*
X299970117Y-110938728D01*
X299887760Y-111032637D01*
X299882124Y-111038654D01*
X299789051Y-111131727D01*
X299783032Y-111137365D01*
X299689026Y-111219804D01*
X299681459Y-111225939D01*
X299575952Y-111304921D01*
X299570444Y-111308819D01*
X299466787Y-111378079D01*
X299457171Y-111383901D01*
X299340673Y-111447513D01*
X299336015Y-111449932D01*
X299225146Y-111504605D01*
X299213452Y-111509653D01*
X299086965Y-111556831D01*
X299083431Y-111558090D01*
X298968532Y-111597090D01*
X298954817Y-111600896D01*
X298817251Y-111630822D01*
X298815045Y-111631282D01*
X298701724Y-111653820D01*
X298686135Y-111655919D01*
X298515324Y-111668136D01*
X298514574Y-111668187D01*
X298428463Y-111673830D01*
X298420224Y-111674100D01*
X17429082Y-111674100D01*
X17420841Y-111673830D01*
X17416551Y-111673548D01*
X17341728Y-111668644D01*
X17340981Y-111668593D01*
X17163511Y-111655900D01*
X17147919Y-111653800D01*
X17036668Y-111631671D01*
X17034466Y-111631213D01*
X16894841Y-111600840D01*
X16881130Y-111597034D01*
X16767302Y-111558394D01*
X16763816Y-111557153D01*
X16636254Y-111509575D01*
X16624557Y-111504525D01*
X16514358Y-111450180D01*
X16509702Y-111447762D01*
X16411296Y-111394029D01*
X16392552Y-111383794D01*
X16382953Y-111377982D01*
X16279733Y-111309013D01*
X16274227Y-111305116D01*
X16168309Y-111225827D01*
X16160741Y-111219691D01*
X16067022Y-111137502D01*
X16061004Y-111131865D01*
X15967693Y-111038554D01*
X15962056Y-111032536D01*
X15879867Y-110938817D01*
X15873731Y-110931249D01*
X15794442Y-110825331D01*
X15790556Y-110819841D01*
X15721568Y-110716594D01*
X15715772Y-110707021D01*
X15651795Y-110589854D01*
X15649378Y-110585200D01*
X15637587Y-110561290D01*
X15595025Y-110474984D01*
X15589991Y-110463325D01*
X15542377Y-110335667D01*
X15541187Y-110332321D01*
X15502517Y-110218406D01*
X15498725Y-110204743D01*
X15468324Y-110064994D01*
X15467902Y-110062960D01*
X15445756Y-109951624D01*
X15443659Y-109936061D01*
X15430937Y-109758170D01*
X15425730Y-109678719D01*
X15425460Y-109670480D01*
X15425460Y-106925000D01*
X97919341Y-106925000D01*
X97939937Y-107160409D01*
X98001096Y-107388662D01*
X98100965Y-107602829D01*
X98236507Y-107796404D01*
X98403595Y-107963492D01*
X98403598Y-107963494D01*
X98403599Y-107963495D01*
X98597171Y-108099035D01*
X98811337Y-108198903D01*
X99039592Y-108260063D01*
X99216034Y-108275500D01*
X99333960Y-108275500D01*
X99333966Y-108275500D01*
X99510408Y-108260063D01*
X99738663Y-108198903D01*
X99952829Y-108099035D01*
X100146401Y-107963495D01*
X100313495Y-107796401D01*
X100449035Y-107602830D01*
X100548903Y-107388663D01*
X100610063Y-107160408D01*
X100630659Y-106925000D01*
X199469341Y-106925000D01*
X199489937Y-107160409D01*
X199551096Y-107388662D01*
X199650965Y-107602829D01*
X199786507Y-107796404D01*
X199953595Y-107963492D01*
X199953598Y-107963494D01*
X199953599Y-107963495D01*
X200147171Y-108099035D01*
X200361337Y-108198903D01*
X200589592Y-108260063D01*
X200766034Y-108275500D01*
X200883960Y-108275500D01*
X200883966Y-108275500D01*
X201060408Y-108260063D01*
X201288663Y-108198903D01*
X201502829Y-108099035D01*
X201696401Y-107963495D01*
X201863495Y-107796401D01*
X201999035Y-107602830D01*
X202098903Y-107388663D01*
X202160063Y-107160408D01*
X202180659Y-106925000D01*
X237819341Y-106925000D01*
X237839937Y-107160409D01*
X237901096Y-107388662D01*
X238000965Y-107602829D01*
X238136507Y-107796404D01*
X238303595Y-107963492D01*
X238303598Y-107963494D01*
X238303599Y-107963495D01*
X238497171Y-108099035D01*
X238711337Y-108198903D01*
X238939592Y-108260063D01*
X239116034Y-108275500D01*
X239233960Y-108275500D01*
X239233966Y-108275500D01*
X239410408Y-108260063D01*
X239638663Y-108198903D01*
X239852829Y-108099035D01*
X240046401Y-107963495D01*
X240213495Y-107796401D01*
X240349035Y-107602830D01*
X240448903Y-107388663D01*
X240510063Y-107160408D01*
X240530659Y-106925000D01*
X240510063Y-106689592D01*
X240448903Y-106461337D01*
X240349035Y-106247171D01*
X240213495Y-106053599D01*
X240213494Y-106053598D01*
X240213492Y-106053595D01*
X240046404Y-105886507D01*
X239852829Y-105750965D01*
X239638662Y-105651096D01*
X239410409Y-105589937D01*
X239385202Y-105587731D01*
X239233966Y-105574500D01*
X239116034Y-105574500D01*
X238983702Y-105586077D01*
X238939590Y-105589937D01*
X238711337Y-105651096D01*
X238497170Y-105750965D01*
X238303595Y-105886507D01*
X238136507Y-106053595D01*
X238000965Y-106247169D01*
X237901096Y-106461336D01*
X237839937Y-106689590D01*
X237819341Y-106925000D01*
X202180659Y-106925000D01*
X202160063Y-106689592D01*
X202098903Y-106461337D01*
X201999035Y-106247171D01*
X201863495Y-106053599D01*
X201863494Y-106053598D01*
X201863492Y-106053595D01*
X201696404Y-105886507D01*
X201502829Y-105750965D01*
X201288662Y-105651096D01*
X201060409Y-105589937D01*
X201035202Y-105587731D01*
X200883966Y-105574500D01*
X200766034Y-105574500D01*
X200633702Y-105586077D01*
X200589590Y-105589937D01*
X200361337Y-105651096D01*
X200147170Y-105750965D01*
X199953595Y-105886507D01*
X199786507Y-106053595D01*
X199650965Y-106247169D01*
X199551096Y-106461336D01*
X199489937Y-106689590D01*
X199469341Y-106925000D01*
X100630659Y-106925000D01*
X100610063Y-106689592D01*
X100548903Y-106461337D01*
X100449035Y-106247171D01*
X100313495Y-106053599D01*
X100313494Y-106053598D01*
X100313492Y-106053595D01*
X100146404Y-105886507D01*
X99952829Y-105750965D01*
X99738662Y-105651096D01*
X99510409Y-105589937D01*
X99485202Y-105587731D01*
X99333966Y-105574500D01*
X99216034Y-105574500D01*
X99083702Y-105586077D01*
X99039590Y-105589937D01*
X98811337Y-105651096D01*
X98597170Y-105750965D01*
X98403595Y-105886507D01*
X98236507Y-106053595D01*
X98100965Y-106247169D01*
X98001096Y-106461336D01*
X97939937Y-106689590D01*
X97919341Y-106925000D01*
X15425460Y-106925000D01*
X15425460Y-102394792D01*
X203074460Y-102394792D01*
X203114026Y-102631897D01*
X203114027Y-102631899D01*
X203192076Y-102859252D01*
X203192077Y-102859255D01*
X203192078Y-102859256D01*
X203306488Y-103070667D01*
X203454135Y-103260364D01*
X203630991Y-103423171D01*
X203832232Y-103554649D01*
X204052369Y-103651210D01*
X204285397Y-103710220D01*
X204464970Y-103725100D01*
X207384945Y-103725100D01*
X207384950Y-103725100D01*
X207564523Y-103710220D01*
X207797551Y-103651210D01*
X208017688Y-103554649D01*
X208218929Y-103423171D01*
X208395785Y-103260364D01*
X208543432Y-103070667D01*
X208657842Y-102859256D01*
X208735894Y-102631897D01*
X208775460Y-102394792D01*
X208775460Y-102154408D01*
X208735894Y-101917303D01*
X208657842Y-101689944D01*
X208543432Y-101478533D01*
X208395785Y-101288836D01*
X208218929Y-101126029D01*
X208017688Y-100994551D01*
X208017685Y-100994549D01*
X208017684Y-100994549D01*
X207907619Y-100946270D01*
X207797551Y-100897990D01*
X207564523Y-100838980D01*
X207384950Y-100824100D01*
X204464970Y-100824100D01*
X204285397Y-100838980D01*
X204052369Y-100897990D01*
X204052365Y-100897991D01*
X204052364Y-100897992D01*
X203832235Y-100994549D01*
X203832231Y-100994551D01*
X203832232Y-100994551D01*
X203630991Y-101126029D01*
X203630989Y-101126030D01*
X203630987Y-101126032D01*
X203454138Y-101288832D01*
X203306489Y-101478531D01*
X203192076Y-101689947D01*
X203114027Y-101917300D01*
X203114026Y-101917303D01*
X203074460Y-102154408D01*
X203074460Y-102394792D01*
X15425460Y-102394792D01*
X15425460Y-73694792D01*
X17274460Y-73694792D01*
X17314026Y-73931897D01*
X17314027Y-73931899D01*
X17392076Y-74159252D01*
X17392077Y-74159255D01*
X17392078Y-74159256D01*
X17506488Y-74370667D01*
X17654135Y-74560364D01*
X17830991Y-74723171D01*
X18032232Y-74854649D01*
X18252369Y-74951210D01*
X18485397Y-75010220D01*
X18664970Y-75025100D01*
X19284945Y-75025100D01*
X19284950Y-75025100D01*
X19464523Y-75010220D01*
X19697551Y-74951210D01*
X19917688Y-74854649D01*
X20118929Y-74723171D01*
X20295785Y-74560364D01*
X20443432Y-74370667D01*
X20557842Y-74159256D01*
X20635894Y-73931897D01*
X20675460Y-73694792D01*
X295174460Y-73694792D01*
X295214026Y-73931897D01*
X295214027Y-73931899D01*
X295292076Y-74159252D01*
X295292077Y-74159255D01*
X295292078Y-74159256D01*
X295406488Y-74370667D01*
X295554135Y-74560364D01*
X295730991Y-74723171D01*
X295932232Y-74854649D01*
X296152369Y-74951210D01*
X296385397Y-75010220D01*
X296564970Y-75025100D01*
X297184945Y-75025100D01*
X297184950Y-75025100D01*
X297364523Y-75010220D01*
X297597551Y-74951210D01*
X297817688Y-74854649D01*
X298018929Y-74723171D01*
X298195785Y-74560364D01*
X298343432Y-74370667D01*
X298457842Y-74159256D01*
X298535894Y-73931897D01*
X298575460Y-73694792D01*
X298575460Y-73454408D01*
X298535894Y-73217303D01*
X298457842Y-72989944D01*
X298343432Y-72778533D01*
X298195785Y-72588836D01*
X298018929Y-72426029D01*
X297817688Y-72294551D01*
X297817685Y-72294549D01*
X297817684Y-72294549D01*
X297707619Y-72246270D01*
X297597551Y-72197990D01*
X297364523Y-72138980D01*
X297184950Y-72124100D01*
X296564970Y-72124100D01*
X296385397Y-72138980D01*
X296152369Y-72197990D01*
X296152365Y-72197991D01*
X296152364Y-72197992D01*
X295932235Y-72294549D01*
X295932231Y-72294551D01*
X295932232Y-72294551D01*
X295730991Y-72426029D01*
X295730989Y-72426030D01*
X295730987Y-72426032D01*
X295554138Y-72588832D01*
X295406489Y-72778531D01*
X295292076Y-72989947D01*
X295214027Y-73217300D01*
X295214026Y-73217303D01*
X295174460Y-73454408D01*
X295174460Y-73694792D01*
X20675460Y-73694792D01*
X20675460Y-73454408D01*
X20635894Y-73217303D01*
X20557842Y-72989944D01*
X20443432Y-72778533D01*
X20295785Y-72588836D01*
X20118929Y-72426029D01*
X19917688Y-72294551D01*
X19917685Y-72294549D01*
X19917684Y-72294549D01*
X19807619Y-72246270D01*
X19697551Y-72197990D01*
X19464523Y-72138980D01*
X19284950Y-72124100D01*
X18664970Y-72124100D01*
X18485397Y-72138980D01*
X18252369Y-72197990D01*
X18252365Y-72197991D01*
X18252364Y-72197992D01*
X18032235Y-72294549D01*
X18032231Y-72294551D01*
X18032232Y-72294551D01*
X17830991Y-72426029D01*
X17830989Y-72426030D01*
X17830987Y-72426032D01*
X17654138Y-72588832D01*
X17506489Y-72778531D01*
X17392076Y-72989947D01*
X17314027Y-73217300D01*
X17314026Y-73217303D01*
X17274460Y-73454408D01*
X17274460Y-73694792D01*
X15425460Y-73694792D01*
X15425460Y-69778975D01*
X35224460Y-69778975D01*
X35224499Y-69779177D01*
X35224499Y-69822257D01*
X35254608Y-69954179D01*
X35313316Y-70076094D01*
X35327527Y-70093915D01*
X35397681Y-70181890D01*
X35503460Y-70266253D01*
X35503471Y-70266262D01*
X35625381Y-70324978D01*
X35680805Y-70337631D01*
X35757303Y-70355096D01*
X35799799Y-70355097D01*
X35799809Y-70355100D01*
X35824861Y-70355100D01*
X35824960Y-70355100D01*
X44174460Y-70355100D01*
X44175059Y-70355100D01*
X44199927Y-70355100D01*
X44200118Y-70355061D01*
X44242618Y-70355064D01*
X44326101Y-70336014D01*
X44374541Y-70324961D01*
X44374542Y-70324960D01*
X44374544Y-70324960D01*
X44496463Y-70266254D01*
X44602261Y-70181890D01*
X44686633Y-70076097D01*
X44745347Y-69954182D01*
X44775459Y-69822258D01*
X44775460Y-69754600D01*
X44775460Y-69754100D01*
X44775460Y-64194792D01*
X140774460Y-64194792D01*
X140814026Y-64431897D01*
X140814027Y-64431899D01*
X140892076Y-64659252D01*
X140892077Y-64659255D01*
X140892078Y-64659256D01*
X141006488Y-64870667D01*
X141154135Y-65060364D01*
X141330991Y-65223171D01*
X141532232Y-65354649D01*
X141752369Y-65451210D01*
X141985397Y-65510220D01*
X142164970Y-65525100D01*
X145084945Y-65525100D01*
X145084950Y-65525100D01*
X145264523Y-65510220D01*
X145497551Y-65451210D01*
X145717688Y-65354649D01*
X145918929Y-65223171D01*
X146095785Y-65060364D01*
X146243432Y-64870667D01*
X146357842Y-64659256D01*
X146435894Y-64431897D01*
X146475460Y-64194792D01*
X146475460Y-63954408D01*
X146435894Y-63717303D01*
X146357842Y-63489944D01*
X146243432Y-63278533D01*
X146095785Y-63088836D01*
X145918929Y-62926029D01*
X145717688Y-62794551D01*
X145717685Y-62794549D01*
X145717684Y-62794549D01*
X145607619Y-62746270D01*
X145497551Y-62697990D01*
X145264523Y-62638980D01*
X145084950Y-62624100D01*
X142164970Y-62624100D01*
X141985397Y-62638980D01*
X141752369Y-62697990D01*
X141752365Y-62697991D01*
X141752364Y-62697992D01*
X141532235Y-62794549D01*
X141532231Y-62794551D01*
X141532232Y-62794551D01*
X141330991Y-62926029D01*
X141330989Y-62926030D01*
X141330987Y-62926032D01*
X141154138Y-63088832D01*
X141006489Y-63278531D01*
X140892076Y-63489947D01*
X140814027Y-63717300D01*
X140814026Y-63717303D01*
X140774460Y-63954408D01*
X140774460Y-64194792D01*
X44775460Y-64194792D01*
X44775460Y-61506831D01*
X44775500Y-61506630D01*
X44775500Y-61386939D01*
X44775500Y-61386937D01*
X44745386Y-61255004D01*
X44686668Y-61133081D01*
X44602290Y-61027281D01*
X44496485Y-60942911D01*
X44374558Y-60884201D01*
X44335551Y-60875300D01*
X44242621Y-60854095D01*
X44174964Y-60854099D01*
X44174960Y-60854100D01*
X35877189Y-60854100D01*
X35876972Y-60854057D01*
X35824960Y-60854060D01*
X35757578Y-60854063D01*
X35757295Y-60854064D01*
X35625369Y-60884183D01*
X35503453Y-60942902D01*
X35503451Y-60942903D01*
X35503450Y-60942904D01*
X35461396Y-60976443D01*
X35397651Y-61027282D01*
X35313282Y-61133084D01*
X35254571Y-61255005D01*
X35224460Y-61386938D01*
X35224460Y-69778975D01*
X15425460Y-69778975D01*
X15425460Y-45098910D01*
X39124760Y-45098910D01*
X39165681Y-45344140D01*
X39165682Y-45344142D01*
X39246407Y-45579288D01*
X39246408Y-45579289D01*
X39364738Y-45797944D01*
X39517444Y-45994140D01*
X39700360Y-46162526D01*
X39908496Y-46298509D01*
X40136176Y-46398378D01*
X40377189Y-46459411D01*
X40562906Y-46474800D01*
X40687009Y-46474800D01*
X40687014Y-46474800D01*
X40872731Y-46459411D01*
X41113744Y-46398378D01*
X41341424Y-46298509D01*
X41549560Y-46162526D01*
X41732476Y-45994140D01*
X41885182Y-45797944D01*
X42003512Y-45579289D01*
X42084239Y-45344140D01*
X42125160Y-45098910D01*
X42125160Y-45094792D01*
X272624460Y-45094792D01*
X272664026Y-45331897D01*
X272664027Y-45331899D01*
X272742076Y-45559252D01*
X272742077Y-45559255D01*
X272742078Y-45559256D01*
X272856488Y-45770667D01*
X273004135Y-45960364D01*
X273004137Y-45960366D01*
X273004138Y-45960367D01*
X273040829Y-45994143D01*
X273180991Y-46123171D01*
X273382232Y-46254649D01*
X273602369Y-46351210D01*
X273835397Y-46410220D01*
X274014970Y-46425100D01*
X276934945Y-46425100D01*
X276934950Y-46425100D01*
X277114523Y-46410220D01*
X277347551Y-46351210D01*
X277567688Y-46254649D01*
X277768929Y-46123171D01*
X277945785Y-45960364D01*
X278093432Y-45770667D01*
X278207842Y-45559256D01*
X278285894Y-45331897D01*
X278325460Y-45094792D01*
X278325460Y-44854408D01*
X278285894Y-44617303D01*
X278207842Y-44389944D01*
X278093432Y-44178533D01*
X277945785Y-43988836D01*
X277909094Y-43955060D01*
X277768932Y-43826032D01*
X277768929Y-43826029D01*
X277567688Y-43694551D01*
X277567685Y-43694549D01*
X277567684Y-43694549D01*
X277457619Y-43646270D01*
X277347551Y-43597990D01*
X277114523Y-43538980D01*
X276934950Y-43524100D01*
X274014970Y-43524100D01*
X273835397Y-43538980D01*
X273602369Y-43597990D01*
X273602365Y-43597991D01*
X273602364Y-43597992D01*
X273382235Y-43694549D01*
X273382231Y-43694551D01*
X273382232Y-43694551D01*
X273180991Y-43826029D01*
X273180989Y-43826030D01*
X273180987Y-43826032D01*
X273004138Y-43988832D01*
X272856489Y-44178531D01*
X272742076Y-44389947D01*
X272668230Y-44605057D01*
X272664026Y-44617303D01*
X272624460Y-44854408D01*
X272624460Y-45094792D01*
X42125160Y-45094792D01*
X42125160Y-44850290D01*
X42084239Y-44605060D01*
X42003512Y-44369911D01*
X41885182Y-44151256D01*
X41732476Y-43955060D01*
X41549560Y-43786674D01*
X41341424Y-43650691D01*
X41113744Y-43550822D01*
X41113742Y-43550821D01*
X41113739Y-43550820D01*
X40872735Y-43489790D01*
X40872734Y-43489789D01*
X40872731Y-43489789D01*
X40687014Y-43474400D01*
X40562906Y-43474400D01*
X40377189Y-43489789D01*
X40377185Y-43489789D01*
X40377184Y-43489790D01*
X40136180Y-43550820D01*
X40028643Y-43597990D01*
X39908496Y-43650691D01*
X39700360Y-43786674D01*
X39700358Y-43786675D01*
X39700356Y-43786677D01*
X39517447Y-43955056D01*
X39364737Y-44151257D01*
X39246407Y-44369911D01*
X39165682Y-44605057D01*
X39165681Y-44605060D01*
X39124760Y-44850290D01*
X39124760Y-45098910D01*
X15425460Y-45098910D01*
X15425460Y-19078720D01*
X15425730Y-19070482D01*
X15426049Y-19065605D01*
X15430943Y-18990939D01*
X15443660Y-18813134D01*
X15445755Y-18797579D01*
X15467918Y-18686156D01*
X15468315Y-18684248D01*
X15498727Y-18544447D01*
X15502514Y-18530802D01*
X15541206Y-18416820D01*
X15542362Y-18413574D01*
X15589997Y-18285860D01*
X15595018Y-18274229D01*
X15649400Y-18163955D01*
X15651774Y-18159384D01*
X15715784Y-18042158D01*
X15721555Y-18032625D01*
X15790580Y-17929322D01*
X15794418Y-17923900D01*
X15873751Y-17817923D01*
X15879846Y-17810406D01*
X15962084Y-17716631D01*
X15967663Y-17710675D01*
X16061035Y-17617303D01*
X16066991Y-17611724D01*
X16160766Y-17529486D01*
X16168283Y-17523391D01*
X16274260Y-17444058D01*
X16279682Y-17440220D01*
X16382985Y-17371195D01*
X16392518Y-17365424D01*
X16509744Y-17301414D01*
X16514315Y-17299040D01*
X16624589Y-17244658D01*
X16636220Y-17239637D01*
X16763934Y-17192002D01*
X16767180Y-17190846D01*
X16881162Y-17152154D01*
X16894807Y-17148367D01*
X17034608Y-17117955D01*
X17036516Y-17117558D01*
X17147939Y-17095395D01*
X17163494Y-17093300D01*
X17341299Y-17080583D01*
X17415965Y-17075689D01*
X17420842Y-17075370D01*
X17429080Y-17075100D01*
X26017886Y-17075100D01*
X26031979Y-17075891D01*
G37*
%TD.AperFunction*%
M02*
