%TF.GenerationSoftware,KiCad,Pcbnew,7.0.1-0*%
%TF.CreationDate,2023-05-14T12:26:13+09:00*%
%TF.ProjectId,Sandy_Plate_Bottom,53616e64-795f-4506-9c61-74655f426f74,v.1 (042)*%
%TF.SameCoordinates,Original*%
%TF.FileFunction,Copper,L1,Top*%
%TF.FilePolarity,Positive*%
%FSLAX46Y46*%
G04 Gerber Fmt 4.6, Leading zero omitted, Abs format (unit mm)*
G04 Created by KiCad (PCBNEW 7.0.1-0) date 2023-05-14 12:26:13*
%MOMM*%
%LPD*%
G01*
G04 APERTURE LIST*
G04 APERTURE END LIST*
%TA.AperFunction,NonConductor*%
G36*
X26031979Y-17075891D02*
G01*
X26043107Y-17077143D01*
X26050090Y-17077929D01*
X26052283Y-17078197D01*
X26154841Y-17091699D01*
X26179986Y-17097686D01*
X26219402Y-17111476D01*
X26225998Y-17113994D01*
X26234528Y-17117527D01*
X26294017Y-17142168D01*
X26312826Y-17151884D01*
X26330365Y-17162904D01*
X26352495Y-17176808D01*
X26362166Y-17183535D01*
X26416887Y-17225524D01*
X26429275Y-17236387D01*
X26463159Y-17270268D01*
X26474023Y-17282655D01*
X26505475Y-17323644D01*
X26516100Y-17337491D01*
X26522820Y-17347153D01*
X26547634Y-17386640D01*
X26557359Y-17405464D01*
X26585728Y-17473955D01*
X26588248Y-17480556D01*
X26601850Y-17519427D01*
X26607843Y-17544595D01*
X26621609Y-17649149D01*
X26621894Y-17651487D01*
X26623667Y-17667220D01*
X26624460Y-17681330D01*
X26624460Y-24698975D01*
X26624499Y-24699177D01*
X26624499Y-24742257D01*
X26654608Y-24874179D01*
X26713316Y-24996094D01*
X26727527Y-25013915D01*
X26797681Y-25101890D01*
X26903460Y-25186253D01*
X26903471Y-25186262D01*
X27025381Y-25244978D01*
X27080805Y-25257631D01*
X27157303Y-25275096D01*
X27199799Y-25275097D01*
X27199809Y-25275100D01*
X27224861Y-25275100D01*
X27224960Y-25275100D01*
X40024460Y-25275100D01*
X40025059Y-25275100D01*
X40049927Y-25275100D01*
X40050118Y-25275061D01*
X40092618Y-25275064D01*
X40176101Y-25256014D01*
X40224541Y-25244961D01*
X40224542Y-25244960D01*
X40224544Y-25244960D01*
X40346463Y-25186254D01*
X40452261Y-25101890D01*
X40536633Y-24996097D01*
X40595347Y-24874182D01*
X40625459Y-24742258D01*
X40625460Y-24674600D01*
X40625460Y-24674100D01*
X40625460Y-20400000D01*
X107800000Y-20400000D01*
X107800021Y-22449998D01*
X107800022Y-22449999D01*
X107800022Y-22450000D01*
X109360004Y-23841086D01*
X111260004Y-23841086D01*
X112860866Y-22450000D01*
X112850000Y-20450000D01*
X112807576Y-20400000D01*
X203050000Y-20400000D01*
X203050021Y-22449998D01*
X203050022Y-22449999D01*
X203050022Y-22450000D01*
X204610004Y-23841086D01*
X206510004Y-23841086D01*
X208110866Y-22450000D01*
X208100000Y-20450000D01*
X207915788Y-20232893D01*
X206700001Y-18800000D01*
X206700000Y-18800000D01*
X204500000Y-18800000D01*
X204499998Y-18800000D01*
X203050001Y-20399997D01*
X203050000Y-20400000D01*
X112807576Y-20400000D01*
X112665788Y-20232893D01*
X111450001Y-18800000D01*
X111450000Y-18800000D01*
X109250000Y-18800000D01*
X109249998Y-18800000D01*
X107800001Y-20399997D01*
X107800000Y-20400000D01*
X40625460Y-20400000D01*
X40625460Y-17681675D01*
X40626252Y-17667574D01*
X40628293Y-17649451D01*
X40628569Y-17647183D01*
X40642054Y-17544759D01*
X40648040Y-17519617D01*
X40661924Y-17479936D01*
X40664410Y-17473425D01*
X40692500Y-17405609D01*
X40702206Y-17386821D01*
X40727282Y-17346910D01*
X40733972Y-17337291D01*
X40775827Y-17282745D01*
X40786649Y-17270405D01*
X40820741Y-17236310D01*
X40833100Y-17225470D01*
X40887752Y-17183535D01*
X40897369Y-17176846D01*
X40937087Y-17151888D01*
X40955891Y-17142172D01*
X41024172Y-17113889D01*
X41030710Y-17111393D01*
X41069833Y-17097701D01*
X41094990Y-17091711D01*
X41199592Y-17077939D01*
X41201694Y-17077682D01*
X41217582Y-17075891D01*
X41231680Y-17075100D01*
X298420843Y-17075100D01*
X298429080Y-17075370D01*
X298433512Y-17075660D01*
X298508321Y-17080562D01*
X298508409Y-17080568D01*
X298686465Y-17093303D01*
X298702040Y-17095401D01*
X298812995Y-17117469D01*
X298814941Y-17117874D01*
X298955165Y-17148378D01*
X298968868Y-17152181D01*
X299082229Y-17190659D01*
X299085698Y-17191895D01*
X299213826Y-17239684D01*
X299225509Y-17244729D01*
X299335179Y-17298811D01*
X299339833Y-17301227D01*
X299457581Y-17365522D01*
X299467169Y-17371327D01*
X299531748Y-17414476D01*
X299569836Y-17439925D01*
X299575344Y-17443823D01*
X299681884Y-17523578D01*
X299689437Y-17529701D01*
X299782613Y-17611412D01*
X299788616Y-17617036D01*
X299882554Y-17710974D01*
X299888190Y-17716991D01*
X299969804Y-17810053D01*
X299975941Y-17817622D01*
X300055853Y-17924371D01*
X300059749Y-17929876D01*
X300128163Y-18032263D01*
X300133966Y-18041848D01*
X300134156Y-18042195D01*
X300198530Y-18160088D01*
X300200948Y-18164744D01*
X300254760Y-18273862D01*
X300259810Y-18285559D01*
X300307944Y-18414612D01*
X300309201Y-18418142D01*
X300347323Y-18530445D01*
X300351130Y-18544164D01*
X300382025Y-18686185D01*
X300382484Y-18688386D01*
X300404138Y-18797243D01*
X300406238Y-18812837D01*
X300419424Y-18997210D01*
X300419475Y-18997956D01*
X300424190Y-19069883D01*
X300424460Y-19078125D01*
X300424460Y-70934128D01*
X300407771Y-70996795D01*
X300362123Y-71042861D01*
X300299611Y-71060122D01*
X299714061Y-71065473D01*
X299709139Y-71065518D01*
X299707988Y-71065523D01*
X295658592Y-71065523D01*
X294058592Y-72665525D01*
X294058613Y-74715525D01*
X294058614Y-74715526D01*
X295768596Y-76106609D01*
X299708592Y-76106609D01*
X299708602Y-76106609D01*
X299796612Y-76106265D01*
X300297968Y-76104306D01*
X300361176Y-76121022D01*
X300407497Y-76167163D01*
X300424460Y-76230305D01*
X300424460Y-109670477D01*
X300424190Y-109678721D01*
X300419001Y-109757862D01*
X300418950Y-109758606D01*
X300406261Y-109936039D01*
X300404161Y-109951633D01*
X300382016Y-110062960D01*
X300381557Y-110065162D01*
X300351203Y-110204695D01*
X300347396Y-110218412D01*
X300308729Y-110332321D01*
X300307472Y-110335853D01*
X300259949Y-110463266D01*
X300254898Y-110474962D01*
X300200483Y-110585302D01*
X300198066Y-110589958D01*
X300134190Y-110706939D01*
X300128367Y-110716556D01*
X300059294Y-110819930D01*
X300055397Y-110825437D01*
X299976254Y-110931159D01*
X299970117Y-110938728D01*
X299887760Y-111032637D01*
X299882124Y-111038654D01*
X299789051Y-111131727D01*
X299783032Y-111137365D01*
X299689026Y-111219804D01*
X299681459Y-111225939D01*
X299575952Y-111304921D01*
X299570444Y-111308819D01*
X299466787Y-111378079D01*
X299457171Y-111383901D01*
X299340673Y-111447513D01*
X299336015Y-111449932D01*
X299225146Y-111504605D01*
X299213452Y-111509653D01*
X299086965Y-111556831D01*
X299083431Y-111558090D01*
X298968532Y-111597090D01*
X298954817Y-111600896D01*
X298817251Y-111630822D01*
X298815045Y-111631282D01*
X298701724Y-111653820D01*
X298686135Y-111655919D01*
X298515324Y-111668136D01*
X298514574Y-111668187D01*
X298428463Y-111673830D01*
X298420224Y-111674100D01*
X17429082Y-111674100D01*
X17420841Y-111673830D01*
X17416551Y-111673548D01*
X17341728Y-111668644D01*
X17340981Y-111668593D01*
X17163511Y-111655900D01*
X17147919Y-111653800D01*
X17036668Y-111631671D01*
X17034466Y-111631213D01*
X16894841Y-111600840D01*
X16881130Y-111597034D01*
X16767302Y-111558394D01*
X16763816Y-111557153D01*
X16636254Y-111509575D01*
X16624557Y-111504525D01*
X16514358Y-111450180D01*
X16509702Y-111447762D01*
X16411296Y-111394029D01*
X16392552Y-111383794D01*
X16382953Y-111377982D01*
X16279733Y-111309013D01*
X16274227Y-111305116D01*
X16168309Y-111225827D01*
X16160741Y-111219691D01*
X16067022Y-111137502D01*
X16061004Y-111131865D01*
X15967693Y-111038554D01*
X15962056Y-111032536D01*
X15879867Y-110938817D01*
X15873731Y-110931249D01*
X15794442Y-110825331D01*
X15790556Y-110819841D01*
X15721568Y-110716594D01*
X15715772Y-110707021D01*
X15651795Y-110589854D01*
X15649378Y-110585200D01*
X15637587Y-110561290D01*
X15595025Y-110474984D01*
X15589991Y-110463325D01*
X15542377Y-110335667D01*
X15541187Y-110332321D01*
X15502517Y-110218406D01*
X15498725Y-110204743D01*
X15468324Y-110064994D01*
X15467902Y-110062960D01*
X15445756Y-109951624D01*
X15443659Y-109936061D01*
X15430937Y-109758170D01*
X15425730Y-109678719D01*
X15425460Y-109670480D01*
X15425460Y-106000000D01*
X96750000Y-106000000D01*
X96750021Y-108049998D01*
X96750022Y-108049999D01*
X96750022Y-108050000D01*
X98310004Y-109441086D01*
X100210004Y-109441086D01*
X101810866Y-108050000D01*
X101800000Y-106050000D01*
X101757576Y-106000000D01*
X198300000Y-106000000D01*
X198300021Y-108049998D01*
X198300022Y-108049999D01*
X198300022Y-108050000D01*
X199860004Y-109441086D01*
X201760004Y-109441086D01*
X203360866Y-108050000D01*
X203350000Y-106050000D01*
X203307576Y-106000000D01*
X236650000Y-106000000D01*
X236650021Y-108049998D01*
X236650022Y-108049999D01*
X236650022Y-108050000D01*
X238210004Y-109441086D01*
X240110004Y-109441086D01*
X241710866Y-108050000D01*
X241700000Y-106050000D01*
X240645002Y-104806609D01*
X240300001Y-104400000D01*
X240300000Y-104400000D01*
X238100000Y-104400000D01*
X238099998Y-104400000D01*
X236650001Y-105999997D01*
X236650000Y-106000000D01*
X203307576Y-106000000D01*
X202295002Y-104806609D01*
X201950001Y-104400000D01*
X201950000Y-104400000D01*
X199750000Y-104400000D01*
X199749998Y-104400000D01*
X198300001Y-105999997D01*
X198300000Y-106000000D01*
X101757576Y-106000000D01*
X100745002Y-104806609D01*
X100400001Y-104400000D01*
X100400000Y-104400000D01*
X98200000Y-104400000D01*
X98199998Y-104400000D01*
X96750001Y-105999997D01*
X96750000Y-106000000D01*
X15425460Y-106000000D01*
X15425460Y-101365525D01*
X202258592Y-101365525D01*
X202258613Y-103415525D01*
X202258614Y-103415526D01*
X203968596Y-104806609D01*
X207908592Y-104806609D01*
X209587954Y-103406287D01*
X209607595Y-101406287D01*
X209607594Y-101406286D01*
X209607595Y-101406286D01*
X207908593Y-99765523D01*
X207908592Y-99765523D01*
X203858592Y-99765523D01*
X202258592Y-101365525D01*
X15425460Y-101365525D01*
X15425460Y-76180562D01*
X15442424Y-76117418D01*
X15488748Y-76071277D01*
X15551959Y-76054563D01*
X16068593Y-76056609D01*
X16068596Y-76056609D01*
X20008592Y-76056609D01*
X21687954Y-74656287D01*
X21707595Y-72656287D01*
X21707594Y-72656286D01*
X21707595Y-72656286D01*
X20008593Y-71015523D01*
X20008592Y-71015523D01*
X15959196Y-71015523D01*
X15957974Y-71015517D01*
X15550238Y-71011561D01*
X15487756Y-70994276D01*
X15442138Y-70948214D01*
X15425460Y-70885567D01*
X15425460Y-69778975D01*
X35224460Y-69778975D01*
X35224499Y-69779177D01*
X35224499Y-69822257D01*
X35254608Y-69954179D01*
X35313316Y-70076094D01*
X35327527Y-70093915D01*
X35397681Y-70181890D01*
X35503460Y-70266253D01*
X35503471Y-70266262D01*
X35625381Y-70324978D01*
X35680805Y-70337631D01*
X35757303Y-70355096D01*
X35799799Y-70355097D01*
X35799809Y-70355100D01*
X35824861Y-70355100D01*
X35824960Y-70355100D01*
X44174460Y-70355100D01*
X44175059Y-70355100D01*
X44199927Y-70355100D01*
X44200118Y-70355061D01*
X44242618Y-70355064D01*
X44326101Y-70336014D01*
X44374541Y-70324961D01*
X44374542Y-70324960D01*
X44374544Y-70324960D01*
X44496463Y-70266254D01*
X44602261Y-70181890D01*
X44686633Y-70076097D01*
X44745347Y-69954182D01*
X44775459Y-69822258D01*
X44775460Y-69754600D01*
X44775460Y-69754100D01*
X44775460Y-63150002D01*
X139950000Y-63150002D01*
X139950021Y-65200002D01*
X139950022Y-65200003D01*
X141660004Y-66591086D01*
X145600000Y-66591086D01*
X147279362Y-65190764D01*
X147299003Y-63190764D01*
X147299002Y-63190763D01*
X147299003Y-63190763D01*
X145600001Y-61550000D01*
X145600000Y-61550000D01*
X141550000Y-61550000D01*
X139950000Y-63150002D01*
X44775460Y-63150002D01*
X44775460Y-61506831D01*
X44775500Y-61506630D01*
X44775500Y-61386939D01*
X44775500Y-61386937D01*
X44745386Y-61255004D01*
X44686668Y-61133081D01*
X44602290Y-61027281D01*
X44496485Y-60942911D01*
X44374558Y-60884201D01*
X44335551Y-60875300D01*
X44242621Y-60854095D01*
X44174964Y-60854099D01*
X44174960Y-60854100D01*
X35877189Y-60854100D01*
X35876972Y-60854057D01*
X35824960Y-60854060D01*
X35757578Y-60854063D01*
X35757295Y-60854064D01*
X35625369Y-60884183D01*
X35503453Y-60942902D01*
X35503451Y-60942903D01*
X35503450Y-60942904D01*
X35461396Y-60976443D01*
X35397651Y-61027282D01*
X35313282Y-61133084D01*
X35254571Y-61255005D01*
X35224460Y-61386938D01*
X35224460Y-69778975D01*
X15425460Y-69778975D01*
X15425460Y-44050000D01*
X38109437Y-44050000D01*
X38109458Y-46099998D01*
X38109459Y-46099999D01*
X38109459Y-46100000D01*
X39669441Y-47491086D01*
X41569441Y-47491086D01*
X43170303Y-46100000D01*
X43159437Y-44100000D01*
X43071240Y-43996053D01*
X271811731Y-43996053D01*
X271811752Y-46046053D01*
X271811753Y-46046054D01*
X273521735Y-47437137D01*
X277461731Y-47437137D01*
X279141093Y-46036815D01*
X279160734Y-44036815D01*
X279160733Y-44036814D01*
X279160734Y-44036814D01*
X277461732Y-42396051D01*
X277461731Y-42396051D01*
X273411731Y-42396051D01*
X271811731Y-43996053D01*
X43071240Y-43996053D01*
X42975225Y-43882893D01*
X41759438Y-42450000D01*
X41759437Y-42450000D01*
X39559437Y-42450000D01*
X39559435Y-42450000D01*
X38109438Y-44049997D01*
X38109437Y-44050000D01*
X15425460Y-44050000D01*
X15425460Y-19078720D01*
X15425730Y-19070482D01*
X15426049Y-19065605D01*
X15430943Y-18990939D01*
X15443660Y-18813134D01*
X15445755Y-18797579D01*
X15467918Y-18686156D01*
X15468315Y-18684248D01*
X15498727Y-18544447D01*
X15502514Y-18530802D01*
X15541206Y-18416820D01*
X15542362Y-18413574D01*
X15589997Y-18285860D01*
X15595018Y-18274229D01*
X15649400Y-18163955D01*
X15651774Y-18159384D01*
X15715784Y-18042158D01*
X15721555Y-18032625D01*
X15790580Y-17929322D01*
X15794418Y-17923900D01*
X15873751Y-17817923D01*
X15879846Y-17810406D01*
X15962084Y-17716631D01*
X15967663Y-17710675D01*
X16061035Y-17617303D01*
X16066991Y-17611724D01*
X16160766Y-17529486D01*
X16168283Y-17523391D01*
X16274260Y-17444058D01*
X16279682Y-17440220D01*
X16382985Y-17371195D01*
X16392518Y-17365424D01*
X16509744Y-17301414D01*
X16514315Y-17299040D01*
X16624589Y-17244658D01*
X16636220Y-17239637D01*
X16763934Y-17192002D01*
X16767180Y-17190846D01*
X16881162Y-17152154D01*
X16894807Y-17148367D01*
X17034608Y-17117955D01*
X17036516Y-17117558D01*
X17147939Y-17095395D01*
X17163494Y-17093300D01*
X17341299Y-17080583D01*
X17415965Y-17075689D01*
X17420842Y-17075370D01*
X17429080Y-17075100D01*
X26017886Y-17075100D01*
X26031979Y-17075891D01*
G37*
%TD.AperFunction*%
M02*
