M48
; DRILL file {KiCad 7.0.1-0} date 2023 April 15, Saturday 21:15:38
; FORMAT={-:-/ absolute / metric / decimal}
; #@! TF.CreationDate,2023-04-15T21:15:38+09:00
; #@! TF.GenerationSoftware,Kicad,Pcbnew,7.0.1-0
; #@! TF.FileFunction,NonPlated,1,2,NPTH
FMAT,2
METRIC
; #@! TA.AperFunction,NonPlated,NPTH,ComponentDrill
T1C0.787
%
G90
G05
T1
X8.755Y-36.925
X8.757Y-112.475
X10.025Y-36.925
X10.027Y-112.475
X11.295Y-36.925
X11.297Y-112.475
X12.565Y-36.925
X12.567Y-112.475
X13.835Y-36.925
X13.837Y-112.475
X15.105Y-36.925
X15.107Y-112.475
X16.296Y-28.194
X16.296Y-29.464
X16.296Y-30.734
X16.296Y-32.004
X16.296Y-33.274
X16.296Y-34.544
X17.472Y-59.753
X17.472Y-61.023
X17.472Y-62.293
X17.472Y-63.563
X17.472Y-64.833
X17.472Y-66.103
X17.487Y-92.933
X17.487Y-94.203
X17.487Y-95.473
X17.487Y-96.743
X17.487Y-98.013
X17.487Y-99.283
X17.487Y-114.857
X17.487Y-116.127
X17.487Y-117.397
X17.487Y-118.667
X17.487Y-119.937
X17.487Y-121.207
X80.435Y-36.925
X81.705Y-36.925
X82.975Y-36.925
X84.245Y-36.925
X85.515Y-36.925
X86.785Y-36.925
X103.222Y-112.475
X104.492Y-112.475
X105.762Y-112.475
X107.032Y-112.475
X108.302Y-112.475
X109.572Y-112.475
X213.109Y-112.465
X214.379Y-112.465
X215.649Y-112.465
X216.919Y-112.465
X218.189Y-112.465
X219.459Y-112.465
X233.072Y-36.925
X234.342Y-36.925
X235.612Y-36.925
X236.882Y-36.925
X238.152Y-36.925
X239.422Y-36.925
X302.469Y-28.194
X302.469Y-29.464
X302.469Y-30.734
X302.469Y-32.004
X302.469Y-33.274
X302.469Y-34.544
X302.472Y-59.753
X302.472Y-61.023
X302.472Y-62.293
X302.472Y-63.563
X302.472Y-64.833
X302.472Y-66.103
X302.472Y-93.03
X302.472Y-94.3
X302.472Y-95.57
X302.472Y-96.84
X302.472Y-98.11
X302.472Y-99.38
X302.472Y-114.857
X302.472Y-116.127
X302.472Y-117.397
X302.472Y-118.667
X302.472Y-119.937
X302.472Y-121.207
X304.854Y-36.925
X304.854Y-112.475
X306.124Y-36.925
X306.124Y-112.475
X307.394Y-36.925
X307.394Y-112.475
X308.664Y-36.925
X308.664Y-112.475
X309.934Y-36.925
X309.934Y-112.475
X311.204Y-36.925
X311.204Y-112.475
T0
M30
