G04 #@! TF.GenerationSoftware,KiCad,Pcbnew,7.0.1-0*
G04 #@! TF.CreationDate,2023-05-15T19:07:48+09:00*
G04 #@! TF.ProjectId,Sandy_Plate_Base,53616e64-795f-4506-9c61-74655f426173,v.0*
G04 #@! TF.SameCoordinates,Original*
G04 #@! TF.FileFunction,Legend,Bot*
G04 #@! TF.FilePolarity,Positive*
%FSLAX46Y46*%
G04 Gerber Fmt 4.6, Leading zero omitted, Abs format (unit mm)*
G04 Created by KiCad (PCBNEW 7.0.1-0) date 2023-05-15 19:07:48*
%MOMM*%
%LPD*%
G01*
G04 APERTURE LIST*
%ADD10C,0.700000*%
%ADD11C,0.200000*%
%ADD12C,0.150000*%
%ADD13C,0.100000*%
%ADD14C,1.187400*%
G04 APERTURE END LIST*
D10*
G36*
X294349679Y-104800796D02*
G01*
X293300582Y-104800796D01*
X293012336Y-104665150D01*
X292873428Y-104541676D01*
X292702921Y-104268864D01*
X292651765Y-103859614D01*
X292741976Y-103619048D01*
X292805727Y-103546190D01*
X293183424Y-103414817D01*
X293198693Y-103417192D01*
X293224959Y-103405558D01*
X294175274Y-103405558D01*
X294349679Y-104800796D01*
G37*
G36*
X294087774Y-102705558D02*
G01*
X293229152Y-102705558D01*
X292940909Y-102569913D01*
X292801998Y-102446437D01*
X292631492Y-102173626D01*
X292604146Y-101954852D01*
X292694357Y-101714286D01*
X292776900Y-101619952D01*
X293000320Y-101500796D01*
X293937179Y-101500796D01*
X294087774Y-102705558D01*
G37*
G36*
X290361080Y-104090295D02*
G01*
X290503671Y-104318441D01*
X290531017Y-104537214D01*
X290464840Y-104713687D01*
X290301511Y-104800796D01*
X289514868Y-104800796D01*
X289355262Y-104725687D01*
X289262518Y-103983734D01*
X289293932Y-103988619D01*
X289320196Y-103976986D01*
X290120297Y-103976986D01*
X290361080Y-104090295D01*
G37*
G36*
X271146634Y-102969771D02*
G01*
X271285545Y-103093248D01*
X271456052Y-103366060D01*
X271578636Y-104346738D01*
X271488424Y-104587305D01*
X271405883Y-104681639D01*
X271182464Y-104800796D01*
X270586297Y-104800796D01*
X270426691Y-104725687D01*
X270194745Y-102870118D01*
X270262225Y-102834129D01*
X270858392Y-102834129D01*
X271146634Y-102969771D01*
G37*
G36*
X267694414Y-102947438D02*
G01*
X267837005Y-103175584D01*
X267862732Y-103381402D01*
X266633435Y-103141539D01*
X266627957Y-103097710D01*
X266694134Y-102921237D01*
X266857464Y-102834129D01*
X267453630Y-102834129D01*
X267694414Y-102947438D01*
G37*
G36*
X298021155Y-107796749D02*
G01*
X263923536Y-107796749D01*
X263923536Y-102996995D01*
X265909920Y-102996995D01*
X265918365Y-103064558D01*
X265913388Y-103132466D01*
X265930873Y-103164623D01*
X265960124Y-103398631D01*
X265953261Y-103418315D01*
X265972704Y-103499272D01*
X265976527Y-103529856D01*
X265984400Y-103547972D01*
X266001259Y-103618170D01*
X266024639Y-103640565D01*
X266037545Y-103670263D01*
X266097554Y-103710411D01*
X266149688Y-103760350D01*
X266181464Y-103766550D01*
X266208376Y-103784555D01*
X266280563Y-103785886D01*
X267954111Y-104112432D01*
X268007208Y-104537214D01*
X267941031Y-104713687D01*
X267777702Y-104800796D01*
X267181535Y-104800796D01*
X266802032Y-104622206D01*
X266650757Y-104598687D01*
X266462827Y-104681926D01*
X266349734Y-104853552D01*
X266347382Y-105059077D01*
X266456519Y-105233248D01*
X266933439Y-105457680D01*
X267000528Y-105500796D01*
X267076254Y-105500796D01*
X267151075Y-105512429D01*
X267177339Y-105500796D01*
X267850984Y-105500796D01*
X267939229Y-105507981D01*
X267998240Y-105476508D01*
X268062415Y-105457665D01*
X268087196Y-105429065D01*
X268321176Y-105304276D01*
X268349215Y-105302321D01*
X268410385Y-105256699D01*
X268431453Y-105245463D01*
X268450527Y-105226760D01*
X268513976Y-105179439D01*
X268522807Y-105155888D01*
X268540765Y-105138281D01*
X268558350Y-105061107D01*
X268687504Y-104716694D01*
X268725246Y-104637931D01*
X268716800Y-104570367D01*
X268721778Y-104502459D01*
X268704292Y-104470300D01*
X268627422Y-103855340D01*
X268634286Y-103835657D01*
X268614842Y-103754696D01*
X268525000Y-103035960D01*
X268525993Y-102957206D01*
X268485337Y-102892156D01*
X268454764Y-102821806D01*
X268431740Y-102806402D01*
X268287779Y-102576064D01*
X268287782Y-102575848D01*
X268233833Y-102489750D01*
X268206759Y-102446432D01*
X268206602Y-102446292D01*
X268178646Y-102401677D01*
X268131378Y-102379433D01*
X268092331Y-102344728D01*
X268040313Y-102336579D01*
X267701720Y-102177241D01*
X267634637Y-102134129D01*
X267558914Y-102134129D01*
X267484090Y-102122496D01*
X267457826Y-102134129D01*
X266784182Y-102134129D01*
X266695937Y-102126944D01*
X266636925Y-102158416D01*
X266572751Y-102177260D01*
X266547969Y-102205859D01*
X266313991Y-102330647D01*
X266285951Y-102332603D01*
X266224775Y-102378229D01*
X266203714Y-102389462D01*
X266184643Y-102408160D01*
X266121190Y-102455486D01*
X266112358Y-102479036D01*
X266094401Y-102496644D01*
X266076815Y-102573817D01*
X265947659Y-102918234D01*
X265909920Y-102996995D01*
X263923536Y-102996995D01*
X263923536Y-101092233D01*
X269267062Y-101092233D01*
X269462645Y-102656901D01*
X269453498Y-102697046D01*
X269475140Y-102756862D01*
X269753047Y-104980122D01*
X269752144Y-105059077D01*
X269765601Y-105080553D01*
X269786050Y-105244142D01*
X269847068Y-105384549D01*
X270017899Y-105498841D01*
X270223402Y-105502632D01*
X270314413Y-105446486D01*
X270338201Y-105457680D01*
X270405290Y-105500796D01*
X270481016Y-105500796D01*
X270555837Y-105512429D01*
X270582101Y-105500796D01*
X271255747Y-105500796D01*
X271343992Y-105507981D01*
X271403004Y-105476507D01*
X271467177Y-105457665D01*
X271491958Y-105429065D01*
X271759392Y-105286433D01*
X271822834Y-105268138D01*
X271881701Y-105200860D01*
X271945526Y-105138280D01*
X271948718Y-105124270D01*
X272032753Y-105028229D01*
X272085404Y-104988962D01*
X272116911Y-104904940D01*
X272154581Y-104823499D01*
X272152654Y-104809625D01*
X272258930Y-104526223D01*
X272296674Y-104447454D01*
X272288228Y-104379891D01*
X272293207Y-104311984D01*
X272275720Y-104279824D01*
X272144047Y-103226436D01*
X272145040Y-103147683D01*
X272104385Y-103082635D01*
X272073811Y-103012282D01*
X272050787Y-102996878D01*
X271879152Y-102722262D01*
X271865016Y-102671764D01*
X271825810Y-102636914D01*
X271825807Y-102636909D01*
X271793221Y-102607946D01*
X271611368Y-102446299D01*
X271598377Y-102425566D01*
X273028967Y-102425566D01*
X273381288Y-105244142D01*
X273442306Y-105384549D01*
X273613137Y-105498842D01*
X273818640Y-105502632D01*
X273993570Y-105394718D01*
X274082388Y-105209360D01*
X273730067Y-102390783D01*
X273669049Y-102250377D01*
X273498218Y-102136084D01*
X273292715Y-102132293D01*
X273117785Y-102240208D01*
X273028967Y-102425566D01*
X271598377Y-102425566D01*
X271583408Y-102401677D01*
X271490628Y-102358016D01*
X271397865Y-102314227D01*
X271397639Y-102314256D01*
X271106482Y-102177241D01*
X271039399Y-102134129D01*
X270963676Y-102134129D01*
X270888852Y-102122496D01*
X270862588Y-102134129D01*
X270188942Y-102134129D01*
X270101860Y-102127038D01*
X270003063Y-101336660D01*
X272690931Y-101336660D01*
X272712256Y-101412840D01*
X272723137Y-101491200D01*
X272739545Y-101510322D01*
X272746339Y-101534590D01*
X272805469Y-101587150D01*
X272856983Y-101647184D01*
X272881125Y-101654399D01*
X272979734Y-101742052D01*
X272989925Y-101765501D01*
X273035535Y-101796015D01*
X273071269Y-101837660D01*
X273119186Y-101851981D01*
X273160756Y-101879793D01*
X273188445Y-101880303D01*
X273213490Y-101892126D01*
X273241315Y-101888483D01*
X273268200Y-101896519D01*
X273316252Y-101882661D01*
X273366260Y-101883584D01*
X273389830Y-101869043D01*
X273417290Y-101865449D01*
X273438729Y-101847341D01*
X273465691Y-101839566D01*
X273498625Y-101801926D01*
X273541189Y-101775669D01*
X273553155Y-101750695D01*
X273574314Y-101732825D01*
X273582559Y-101706002D01*
X273682642Y-101591622D01*
X273740981Y-101542349D01*
X273764227Y-101466730D01*
X273797438Y-101394929D01*
X273793972Y-101369970D01*
X273801377Y-101345884D01*
X273790535Y-101307157D01*
X274573453Y-101307157D01*
X274612662Y-101508920D01*
X274754728Y-101657457D01*
X274954547Y-101705608D01*
X275543381Y-101500796D01*
X276358392Y-101500796D01*
X276646633Y-101636438D01*
X276785544Y-101759914D01*
X276956051Y-102032726D01*
X276983397Y-102251500D01*
X276893186Y-102492066D01*
X276810644Y-102586400D01*
X276546852Y-102727090D01*
X275906262Y-102892403D01*
X275862603Y-102888849D01*
X275808758Y-102917566D01*
X275800447Y-102919711D01*
X275764471Y-102941185D01*
X275447201Y-103110395D01*
X275383760Y-103128691D01*
X275324893Y-103195967D01*
X275261067Y-103258549D01*
X275257874Y-103272559D01*
X275173840Y-103368598D01*
X275121189Y-103407867D01*
X275089680Y-103491890D01*
X275052012Y-103573329D01*
X275053938Y-103587202D01*
X274947658Y-103870615D01*
X274909919Y-103949376D01*
X274918364Y-104016939D01*
X274913387Y-104084847D01*
X274930872Y-104117004D01*
X274967307Y-104408488D01*
X274966315Y-104487243D01*
X275006970Y-104552291D01*
X275037544Y-104622644D01*
X275060568Y-104638047D01*
X275232203Y-104912664D01*
X275246339Y-104963160D01*
X275285543Y-104998008D01*
X275285548Y-104998016D01*
X275328116Y-105035851D01*
X275499985Y-105188624D01*
X275527947Y-105233248D01*
X275620638Y-105276867D01*
X275713488Y-105320698D01*
X275713715Y-105320668D01*
X276004867Y-105457680D01*
X276071956Y-105500796D01*
X276147682Y-105500796D01*
X276222503Y-105512429D01*
X276248767Y-105500796D01*
X277085531Y-105500796D01*
X277145023Y-105515132D01*
X277233971Y-105484193D01*
X277324319Y-105457665D01*
X277330392Y-105450655D01*
X277837236Y-105274362D01*
X277961805Y-105185368D01*
X278037902Y-104994435D01*
X277998694Y-104792672D01*
X277856627Y-104644135D01*
X277656808Y-104595984D01*
X277067974Y-104800796D01*
X276252963Y-104800796D01*
X275964717Y-104665150D01*
X275825809Y-104541676D01*
X275655302Y-104268864D01*
X275627956Y-104050091D01*
X275718169Y-103809522D01*
X275800710Y-103715190D01*
X276064505Y-103574500D01*
X276705092Y-103409188D01*
X276748753Y-103412743D01*
X276802598Y-103384025D01*
X276810908Y-103381881D01*
X276846878Y-103360409D01*
X277164154Y-103191194D01*
X277227596Y-103172899D01*
X277286462Y-103105623D01*
X277350288Y-103043041D01*
X277353480Y-103029030D01*
X277437512Y-102932993D01*
X277490165Y-102893724D01*
X277521675Y-102809695D01*
X277559342Y-102728261D01*
X277557415Y-102714387D01*
X277645491Y-102479517D01*
X281548074Y-102479517D01*
X281603482Y-102677446D01*
X282745054Y-103692177D01*
X281922684Y-105007969D01*
X281881407Y-105155392D01*
X281941794Y-105351860D01*
X282098813Y-105484491D01*
X282302612Y-105511176D01*
X282488486Y-105423444D01*
X283275715Y-104163876D01*
X283296143Y-104182034D01*
X283428907Y-105244142D01*
X283489925Y-105384549D01*
X283660756Y-105498841D01*
X283866259Y-105502632D01*
X284041189Y-105394717D01*
X284130007Y-105209359D01*
X283983715Y-104039023D01*
X283991853Y-104012552D01*
X283971171Y-103938674D01*
X283815968Y-102697046D01*
X284786831Y-102697046D01*
X284856761Y-102890323D01*
X285020083Y-103015110D01*
X285224944Y-103031790D01*
X285595558Y-102834129D01*
X286191725Y-102834129D01*
X286479967Y-102969771D01*
X286618878Y-103093248D01*
X286789385Y-103366060D01*
X286911969Y-104346738D01*
X286821757Y-104587305D01*
X286739216Y-104681639D01*
X286515797Y-104800796D01*
X285919630Y-104800796D01*
X285540127Y-104622206D01*
X285388852Y-104598687D01*
X285200922Y-104681926D01*
X285087829Y-104853552D01*
X285085477Y-105059077D01*
X285194614Y-105233248D01*
X285671534Y-105457680D01*
X285738623Y-105500796D01*
X285814349Y-105500796D01*
X285889170Y-105512429D01*
X285915434Y-105500796D01*
X286589080Y-105500796D01*
X286677325Y-105507981D01*
X286736337Y-105476507D01*
X286800510Y-105457665D01*
X286825291Y-105429065D01*
X287092725Y-105286433D01*
X287156167Y-105268138D01*
X287215034Y-105200860D01*
X287278859Y-105138280D01*
X287282051Y-105124270D01*
X287366086Y-105028229D01*
X287418737Y-104988962D01*
X287450244Y-104904940D01*
X287487914Y-104823499D01*
X287485987Y-104809625D01*
X287592263Y-104526223D01*
X287630007Y-104447454D01*
X287621561Y-104379891D01*
X287626540Y-104311984D01*
X287609053Y-104279824D01*
X287477380Y-103226436D01*
X287478373Y-103147683D01*
X287437718Y-103082635D01*
X287407144Y-103012282D01*
X287384295Y-102996995D01*
X288433729Y-102996995D01*
X288442174Y-103064558D01*
X288437197Y-103132466D01*
X288454682Y-103164623D01*
X288491142Y-103456306D01*
X288490239Y-103535267D01*
X288503697Y-103556745D01*
X288681618Y-104980121D01*
X288680715Y-105059077D01*
X288694172Y-105080553D01*
X288714621Y-105244142D01*
X288775639Y-105384549D01*
X288946470Y-105498842D01*
X289151973Y-105502632D01*
X289242985Y-105446486D01*
X289266772Y-105457680D01*
X289333861Y-105500796D01*
X289409587Y-105500796D01*
X289484408Y-105512429D01*
X289510672Y-105500796D01*
X290374793Y-105500796D01*
X290463038Y-105507981D01*
X290522049Y-105476508D01*
X290586224Y-105457665D01*
X290611005Y-105429065D01*
X290844985Y-105304276D01*
X290873024Y-105302321D01*
X290934194Y-105256699D01*
X290955262Y-105245463D01*
X290974336Y-105226760D01*
X291037785Y-105179439D01*
X291046616Y-105155888D01*
X291064574Y-105138281D01*
X291082159Y-105061107D01*
X291211314Y-104716692D01*
X291249055Y-104637931D01*
X291240609Y-104570367D01*
X291245587Y-104502459D01*
X291228101Y-104470301D01*
X291191666Y-104178818D01*
X291192659Y-104100063D01*
X291152003Y-104035015D01*
X291121430Y-103964662D01*
X291098405Y-103949257D01*
X290954445Y-103718921D01*
X290954448Y-103718705D01*
X290900499Y-103632607D01*
X290873425Y-103589289D01*
X290873268Y-103589149D01*
X290845312Y-103544534D01*
X290798044Y-103522290D01*
X290758997Y-103487585D01*
X290706978Y-103479435D01*
X290368393Y-103320101D01*
X290301304Y-103276986D01*
X290225581Y-103276986D01*
X290150757Y-103265352D01*
X290124491Y-103276986D01*
X289324392Y-103276986D01*
X289164786Y-103201877D01*
X289151766Y-103097710D01*
X289217943Y-102921237D01*
X289381273Y-102834129D01*
X289977439Y-102834129D01*
X290356942Y-103012718D01*
X290508217Y-103036238D01*
X290696146Y-102952999D01*
X290809240Y-102781372D01*
X290811591Y-102575848D01*
X290702455Y-102401677D01*
X290225529Y-102177241D01*
X290158446Y-102134129D01*
X290082723Y-102134129D01*
X290007899Y-102122496D01*
X289981635Y-102134129D01*
X289307991Y-102134129D01*
X289219746Y-102126944D01*
X289160734Y-102158416D01*
X289096560Y-102177260D01*
X289071778Y-102205859D01*
X288837800Y-102330647D01*
X288809760Y-102332603D01*
X288748584Y-102378229D01*
X288727523Y-102389462D01*
X288708452Y-102408160D01*
X288644999Y-102455486D01*
X288636167Y-102479036D01*
X288618210Y-102496644D01*
X288600624Y-102573817D01*
X288471468Y-102918234D01*
X288433729Y-102996995D01*
X287384295Y-102996995D01*
X287384120Y-102996878D01*
X287212485Y-102722262D01*
X287198349Y-102671764D01*
X287159143Y-102636914D01*
X287159140Y-102636909D01*
X287126554Y-102607946D01*
X286944701Y-102446299D01*
X286916741Y-102401677D01*
X286823961Y-102358016D01*
X286731198Y-102314227D01*
X286730972Y-102314256D01*
X286439815Y-102177241D01*
X286372732Y-102134129D01*
X286297009Y-102134129D01*
X286222185Y-102122496D01*
X286195921Y-102134129D01*
X285522275Y-102134129D01*
X285434030Y-102126944D01*
X285375017Y-102158417D01*
X285310845Y-102177260D01*
X285286063Y-102205859D01*
X284941808Y-102389463D01*
X284832495Y-102496645D01*
X284786831Y-102697046D01*
X283815968Y-102697046D01*
X283710605Y-101854137D01*
X291886109Y-101854137D01*
X291894554Y-101921699D01*
X291889576Y-101989607D01*
X291907062Y-102021766D01*
X291943497Y-102313249D01*
X291942505Y-102392005D01*
X291983160Y-102457053D01*
X292013734Y-102527406D01*
X292036758Y-102542809D01*
X292208392Y-102817425D01*
X292222529Y-102867923D01*
X292261734Y-102902772D01*
X292261738Y-102902778D01*
X292294607Y-102931992D01*
X292359742Y-102989890D01*
X292316216Y-103020986D01*
X292300382Y-103060713D01*
X292197649Y-103178122D01*
X292144998Y-103217391D01*
X292113489Y-103301413D01*
X292075821Y-103382853D01*
X292077747Y-103396726D01*
X291971471Y-103680129D01*
X291933728Y-103758899D01*
X291942173Y-103826461D01*
X291937195Y-103894369D01*
X291954681Y-103926528D01*
X292014926Y-104408488D01*
X292013934Y-104487243D01*
X292054589Y-104552291D01*
X292085163Y-104622644D01*
X292108186Y-104638047D01*
X292279822Y-104912664D01*
X292293958Y-104963160D01*
X292333162Y-104998008D01*
X292333167Y-104998016D01*
X292375735Y-105035851D01*
X292547604Y-105188624D01*
X292575566Y-105233248D01*
X292668257Y-105276867D01*
X292761107Y-105320698D01*
X292761334Y-105320668D01*
X293052486Y-105457680D01*
X293119575Y-105500796D01*
X293195301Y-105500796D01*
X293270122Y-105512429D01*
X293296386Y-105500796D01*
X294742923Y-105500796D01*
X294842449Y-105502632D01*
X294889885Y-105473368D01*
X294943366Y-105457665D01*
X294975552Y-105420520D01*
X295017379Y-105394717D01*
X295041463Y-105344454D01*
X295077965Y-105302329D01*
X295084959Y-105253680D01*
X295106197Y-105209359D01*
X295099283Y-105154053D01*
X295107216Y-105098883D01*
X295086799Y-105054176D01*
X294837379Y-103058812D01*
X294845311Y-103003645D01*
X294824895Y-102958940D01*
X294599284Y-101154050D01*
X294607216Y-101098883D01*
X294565878Y-101008367D01*
X294526191Y-100917043D01*
X294523283Y-100915097D01*
X294521832Y-100911919D01*
X294438118Y-100858119D01*
X294355360Y-100802751D01*
X294351863Y-100802686D01*
X294348922Y-100800796D01*
X294249383Y-100800796D01*
X294149857Y-100798960D01*
X294146881Y-100800796D01*
X292927038Y-100800796D01*
X292838793Y-100793611D01*
X292779781Y-100825083D01*
X292715607Y-100843927D01*
X292690825Y-100872526D01*
X292423391Y-101015157D01*
X292359950Y-101033453D01*
X292301083Y-101100729D01*
X292237257Y-101163311D01*
X292234064Y-101177321D01*
X292150030Y-101273360D01*
X292097379Y-101312629D01*
X292065870Y-101396651D01*
X292028202Y-101478091D01*
X292030128Y-101491964D01*
X291923852Y-101775367D01*
X291886109Y-101854137D01*
X283710605Y-101854137D01*
X283611019Y-101057450D01*
X283550001Y-100917043D01*
X283379170Y-100802751D01*
X283173667Y-100798960D01*
X282998737Y-100906875D01*
X282909919Y-101092233D01*
X283164438Y-103128395D01*
X282107736Y-102189104D01*
X281969294Y-102123751D01*
X281765494Y-102150428D01*
X281608469Y-102283052D01*
X281548074Y-102479517D01*
X277645491Y-102479517D01*
X277663689Y-102430989D01*
X277701435Y-102352217D01*
X277692989Y-102284653D01*
X277697968Y-102216746D01*
X277680481Y-102184586D01*
X277644046Y-101893104D01*
X277645039Y-101814349D01*
X277604383Y-101749300D01*
X277573810Y-101678948D01*
X277550786Y-101663544D01*
X277379151Y-101388927D01*
X277365015Y-101338431D01*
X277325810Y-101303582D01*
X277325806Y-101303575D01*
X277280403Y-101263220D01*
X277111367Y-101112966D01*
X277083407Y-101068344D01*
X276990689Y-101024712D01*
X276897864Y-100980894D01*
X276897638Y-100980923D01*
X276606488Y-100843911D01*
X276539399Y-100800796D01*
X276463676Y-100800796D01*
X276388852Y-100789162D01*
X276362586Y-100800796D01*
X275525824Y-100800796D01*
X275466332Y-100786460D01*
X275377383Y-100817398D01*
X275287036Y-100843927D01*
X275280962Y-100850936D01*
X274774119Y-101027230D01*
X274649550Y-101116224D01*
X274573453Y-101307157D01*
X273790535Y-101307157D01*
X273780049Y-101269700D01*
X273769170Y-101191344D01*
X273752761Y-101172221D01*
X273745968Y-101147955D01*
X273686840Y-101095396D01*
X273635324Y-101035360D01*
X273611180Y-101028144D01*
X273512572Y-100940492D01*
X273502382Y-100917043D01*
X273456771Y-100886528D01*
X273421038Y-100844884D01*
X273373120Y-100830562D01*
X273331551Y-100802751D01*
X273303861Y-100802240D01*
X273278817Y-100790418D01*
X273250991Y-100794060D01*
X273224107Y-100786025D01*
X273176054Y-100799882D01*
X273126048Y-100798960D01*
X273102478Y-100813500D01*
X273075017Y-100817095D01*
X273053579Y-100835201D01*
X273026617Y-100842977D01*
X272993681Y-100880617D01*
X272951118Y-100906875D01*
X272939151Y-100931848D01*
X272917993Y-100949719D01*
X272909747Y-100976541D01*
X272809664Y-101090921D01*
X272751326Y-101140195D01*
X272728081Y-101215810D01*
X272694869Y-101287615D01*
X272698334Y-101312575D01*
X272690931Y-101336660D01*
X270003063Y-101336660D01*
X269968162Y-101057450D01*
X269907144Y-100917043D01*
X269736313Y-100802751D01*
X269530810Y-100798960D01*
X269355880Y-100906875D01*
X269267062Y-101092233D01*
X263923536Y-101092233D01*
X263923536Y-98803891D01*
X298021155Y-98803891D01*
X298021155Y-107796749D01*
G37*
D11*
X298957612Y-93545659D02*
X297671898Y-93545659D01*
X298443327Y-92774230D02*
X298957612Y-95088516D01*
X297843327Y-94317087D02*
X299129041Y-94317087D01*
X298357612Y-95088516D02*
X297843327Y-92774230D01*
X297157612Y-94659945D02*
X296900470Y-94745659D01*
X296900470Y-94745659D02*
X296471898Y-94745659D01*
X296471898Y-94745659D02*
X296300470Y-94659945D01*
X296300470Y-94659945D02*
X296214755Y-94574230D01*
X296214755Y-94574230D02*
X296129041Y-94402802D01*
X296129041Y-94402802D02*
X296129041Y-94231373D01*
X296129041Y-94231373D02*
X296214755Y-94059945D01*
X296214755Y-94059945D02*
X296300470Y-93974230D01*
X296300470Y-93974230D02*
X296471898Y-93888516D01*
X296471898Y-93888516D02*
X296814755Y-93802802D01*
X296814755Y-93802802D02*
X296986184Y-93717087D01*
X296986184Y-93717087D02*
X297071898Y-93631373D01*
X297071898Y-93631373D02*
X297157612Y-93459945D01*
X297157612Y-93459945D02*
X297157612Y-93288516D01*
X297157612Y-93288516D02*
X297071898Y-93117087D01*
X297071898Y-93117087D02*
X296986184Y-93031373D01*
X296986184Y-93031373D02*
X296814755Y-92945659D01*
X296814755Y-92945659D02*
X296386184Y-92945659D01*
X296386184Y-92945659D02*
X296129041Y-93031373D01*
X294586184Y-94745659D02*
X294586184Y-93802802D01*
X294586184Y-93802802D02*
X294671898Y-93631373D01*
X294671898Y-93631373D02*
X294843326Y-93545659D01*
X294843326Y-93545659D02*
X295186184Y-93545659D01*
X295186184Y-93545659D02*
X295357612Y-93631373D01*
X294586184Y-94659945D02*
X294757612Y-94745659D01*
X294757612Y-94745659D02*
X295186184Y-94745659D01*
X295186184Y-94745659D02*
X295357612Y-94659945D01*
X295357612Y-94659945D02*
X295443326Y-94488516D01*
X295443326Y-94488516D02*
X295443326Y-94317087D01*
X295443326Y-94317087D02*
X295357612Y-94145659D01*
X295357612Y-94145659D02*
X295186184Y-94059945D01*
X295186184Y-94059945D02*
X294757612Y-94059945D01*
X294757612Y-94059945D02*
X294586184Y-93974230D01*
X293729041Y-93545659D02*
X293729041Y-94745659D01*
X293729041Y-93717087D02*
X293643327Y-93631373D01*
X293643327Y-93631373D02*
X293471898Y-93545659D01*
X293471898Y-93545659D02*
X293214755Y-93545659D01*
X293214755Y-93545659D02*
X293043327Y-93631373D01*
X293043327Y-93631373D02*
X292957613Y-93802802D01*
X292957613Y-93802802D02*
X292957613Y-94745659D01*
X291329042Y-94745659D02*
X291329042Y-92945659D01*
X291329042Y-94659945D02*
X291500470Y-94745659D01*
X291500470Y-94745659D02*
X291843327Y-94745659D01*
X291843327Y-94745659D02*
X292014756Y-94659945D01*
X292014756Y-94659945D02*
X292100470Y-94574230D01*
X292100470Y-94574230D02*
X292186184Y-94402802D01*
X292186184Y-94402802D02*
X292186184Y-93888516D01*
X292186184Y-93888516D02*
X292100470Y-93717087D01*
X292100470Y-93717087D02*
X292014756Y-93631373D01*
X292014756Y-93631373D02*
X291843327Y-93545659D01*
X291843327Y-93545659D02*
X291500470Y-93545659D01*
X291500470Y-93545659D02*
X291329042Y-93631373D01*
X290643328Y-93545659D02*
X290214756Y-94745659D01*
X289786185Y-93545659D02*
X290214756Y-94745659D01*
X290214756Y-94745659D02*
X290386185Y-95174230D01*
X290386185Y-95174230D02*
X290471899Y-95259945D01*
X290471899Y-95259945D02*
X290643328Y-95345659D01*
X289529042Y-94917087D02*
X288157613Y-94917087D01*
X287729041Y-94745659D02*
X287729041Y-92945659D01*
X287557613Y-94059945D02*
X287043327Y-94745659D01*
X287043327Y-93545659D02*
X287729041Y-94231373D01*
X286271898Y-94745659D02*
X286271898Y-92945659D01*
X286271898Y-93631373D02*
X286100470Y-93545659D01*
X286100470Y-93545659D02*
X285757612Y-93545659D01*
X285757612Y-93545659D02*
X285586184Y-93631373D01*
X285586184Y-93631373D02*
X285500470Y-93717087D01*
X285500470Y-93717087D02*
X285414755Y-93888516D01*
X285414755Y-93888516D02*
X285414755Y-94402802D01*
X285414755Y-94402802D02*
X285500470Y-94574230D01*
X285500470Y-94574230D02*
X285586184Y-94659945D01*
X285586184Y-94659945D02*
X285757612Y-94745659D01*
X285757612Y-94745659D02*
X286100470Y-94745659D01*
X286100470Y-94745659D02*
X286271898Y-94659945D01*
X283871899Y-94745659D02*
X283871899Y-92945659D01*
X283871899Y-94659945D02*
X284043327Y-94745659D01*
X284043327Y-94745659D02*
X284386184Y-94745659D01*
X284386184Y-94745659D02*
X284557613Y-94659945D01*
X284557613Y-94659945D02*
X284643327Y-94574230D01*
X284643327Y-94574230D02*
X284729041Y-94402802D01*
X284729041Y-94402802D02*
X284729041Y-93888516D01*
X284729041Y-93888516D02*
X284643327Y-93717087D01*
X284643327Y-93717087D02*
X284557613Y-93631373D01*
X284557613Y-93631373D02*
X284386184Y-93545659D01*
X284386184Y-93545659D02*
X284043327Y-93545659D01*
X284043327Y-93545659D02*
X283871899Y-93631373D01*
X281643327Y-94745659D02*
X281643327Y-92945659D01*
X281643327Y-92945659D02*
X281214756Y-92945659D01*
X281214756Y-92945659D02*
X280957613Y-93031373D01*
X280957613Y-93031373D02*
X280786184Y-93202802D01*
X280786184Y-93202802D02*
X280700470Y-93374230D01*
X280700470Y-93374230D02*
X280614756Y-93717087D01*
X280614756Y-93717087D02*
X280614756Y-93974230D01*
X280614756Y-93974230D02*
X280700470Y-94317087D01*
X280700470Y-94317087D02*
X280786184Y-94488516D01*
X280786184Y-94488516D02*
X280957613Y-94659945D01*
X280957613Y-94659945D02*
X281214756Y-94745659D01*
X281214756Y-94745659D02*
X281643327Y-94745659D01*
X279843327Y-94745659D02*
X279843327Y-92945659D01*
X279843327Y-92945659D02*
X278814756Y-94745659D01*
X278814756Y-94745659D02*
X278814756Y-92945659D01*
X277614756Y-92945659D02*
X277443327Y-92945659D01*
X277443327Y-92945659D02*
X277271899Y-93031373D01*
X277271899Y-93031373D02*
X277186185Y-93117087D01*
X277186185Y-93117087D02*
X277100470Y-93288516D01*
X277100470Y-93288516D02*
X277014756Y-93631373D01*
X277014756Y-93631373D02*
X277014756Y-94059945D01*
X277014756Y-94059945D02*
X277100470Y-94402802D01*
X277100470Y-94402802D02*
X277186185Y-94574230D01*
X277186185Y-94574230D02*
X277271899Y-94659945D01*
X277271899Y-94659945D02*
X277443327Y-94745659D01*
X277443327Y-94745659D02*
X277614756Y-94745659D01*
X277614756Y-94745659D02*
X277786185Y-94659945D01*
X277786185Y-94659945D02*
X277871899Y-94574230D01*
X277871899Y-94574230D02*
X277957613Y-94402802D01*
X277957613Y-94402802D02*
X278043327Y-94059945D01*
X278043327Y-94059945D02*
X278043327Y-93631373D01*
X278043327Y-93631373D02*
X277957613Y-93288516D01*
X277957613Y-93288516D02*
X277871899Y-93117087D01*
X277871899Y-93117087D02*
X277786185Y-93031373D01*
X277786185Y-93031373D02*
X277614756Y-92945659D01*
X275900470Y-92945659D02*
X275729041Y-92945659D01*
X275729041Y-92945659D02*
X275557613Y-93031373D01*
X275557613Y-93031373D02*
X275471899Y-93117087D01*
X275471899Y-93117087D02*
X275386184Y-93288516D01*
X275386184Y-93288516D02*
X275300470Y-93631373D01*
X275300470Y-93631373D02*
X275300470Y-94059945D01*
X275300470Y-94059945D02*
X275386184Y-94402802D01*
X275386184Y-94402802D02*
X275471899Y-94574230D01*
X275471899Y-94574230D02*
X275557613Y-94659945D01*
X275557613Y-94659945D02*
X275729041Y-94745659D01*
X275729041Y-94745659D02*
X275900470Y-94745659D01*
X275900470Y-94745659D02*
X276071899Y-94659945D01*
X276071899Y-94659945D02*
X276157613Y-94574230D01*
X276157613Y-94574230D02*
X276243327Y-94402802D01*
X276243327Y-94402802D02*
X276329041Y-94059945D01*
X276329041Y-94059945D02*
X276329041Y-93631373D01*
X276329041Y-93631373D02*
X276243327Y-93288516D01*
X276243327Y-93288516D02*
X276157613Y-93117087D01*
X276157613Y-93117087D02*
X276071899Y-93031373D01*
X276071899Y-93031373D02*
X275900470Y-92945659D01*
X274700470Y-92945659D02*
X273586184Y-92945659D01*
X273586184Y-92945659D02*
X274186184Y-93631373D01*
X274186184Y-93631373D02*
X273929041Y-93631373D01*
X273929041Y-93631373D02*
X273757613Y-93717087D01*
X273757613Y-93717087D02*
X273671898Y-93802802D01*
X273671898Y-93802802D02*
X273586184Y-93974230D01*
X273586184Y-93974230D02*
X273586184Y-94402802D01*
X273586184Y-94402802D02*
X273671898Y-94574230D01*
X273671898Y-94574230D02*
X273757613Y-94659945D01*
X273757613Y-94659945D02*
X273929041Y-94745659D01*
X273929041Y-94745659D02*
X274443327Y-94745659D01*
X274443327Y-94745659D02*
X274614755Y-94659945D01*
X274614755Y-94659945D02*
X274700470Y-94574230D01*
X272471898Y-92945659D02*
X272300469Y-92945659D01*
X272300469Y-92945659D02*
X272129041Y-93031373D01*
X272129041Y-93031373D02*
X272043327Y-93117087D01*
X272043327Y-93117087D02*
X271957612Y-93288516D01*
X271957612Y-93288516D02*
X271871898Y-93631373D01*
X271871898Y-93631373D02*
X271871898Y-94059945D01*
X271871898Y-94059945D02*
X271957612Y-94402802D01*
X271957612Y-94402802D02*
X272043327Y-94574230D01*
X272043327Y-94574230D02*
X272129041Y-94659945D01*
X272129041Y-94659945D02*
X272300469Y-94745659D01*
X272300469Y-94745659D02*
X272471898Y-94745659D01*
X272471898Y-94745659D02*
X272643327Y-94659945D01*
X272643327Y-94659945D02*
X272729041Y-94574230D01*
X272729041Y-94574230D02*
X272814755Y-94402802D01*
X272814755Y-94402802D02*
X272900469Y-94059945D01*
X272900469Y-94059945D02*
X272900469Y-93631373D01*
X272900469Y-93631373D02*
X272814755Y-93288516D01*
X272814755Y-93288516D02*
X272729041Y-93117087D01*
X272729041Y-93117087D02*
X272643327Y-93031373D01*
X272643327Y-93031373D02*
X272471898Y-92945659D01*
X271014755Y-94659945D02*
X271014755Y-94745659D01*
X271014755Y-94745659D02*
X271100469Y-94917087D01*
X271100469Y-94917087D02*
X271186183Y-95002802D01*
X268871897Y-94745659D02*
X268871897Y-92945659D01*
X268871897Y-92945659D02*
X268186183Y-92945659D01*
X268186183Y-92945659D02*
X268014754Y-93031373D01*
X268014754Y-93031373D02*
X267929040Y-93117087D01*
X267929040Y-93117087D02*
X267843326Y-93288516D01*
X267843326Y-93288516D02*
X267843326Y-93545659D01*
X267843326Y-93545659D02*
X267929040Y-93717087D01*
X267929040Y-93717087D02*
X268014754Y-93802802D01*
X268014754Y-93802802D02*
X268186183Y-93888516D01*
X268186183Y-93888516D02*
X268871897Y-93888516D01*
X266814754Y-94745659D02*
X266986183Y-94659945D01*
X266986183Y-94659945D02*
X267071897Y-94488516D01*
X267071897Y-94488516D02*
X267071897Y-92945659D01*
X265357612Y-94745659D02*
X265357612Y-93802802D01*
X265357612Y-93802802D02*
X265443326Y-93631373D01*
X265443326Y-93631373D02*
X265614754Y-93545659D01*
X265614754Y-93545659D02*
X265957612Y-93545659D01*
X265957612Y-93545659D02*
X266129040Y-93631373D01*
X265357612Y-94659945D02*
X265529040Y-94745659D01*
X265529040Y-94745659D02*
X265957612Y-94745659D01*
X265957612Y-94745659D02*
X266129040Y-94659945D01*
X266129040Y-94659945D02*
X266214754Y-94488516D01*
X266214754Y-94488516D02*
X266214754Y-94317087D01*
X266214754Y-94317087D02*
X266129040Y-94145659D01*
X266129040Y-94145659D02*
X265957612Y-94059945D01*
X265957612Y-94059945D02*
X265529040Y-94059945D01*
X265529040Y-94059945D02*
X265357612Y-93974230D01*
X264757612Y-93545659D02*
X264071898Y-93545659D01*
X264500469Y-92945659D02*
X264500469Y-94488516D01*
X264500469Y-94488516D02*
X264414755Y-94659945D01*
X264414755Y-94659945D02*
X264243326Y-94745659D01*
X264243326Y-94745659D02*
X264071898Y-94745659D01*
X262786184Y-94659945D02*
X262957612Y-94745659D01*
X262957612Y-94745659D02*
X263300470Y-94745659D01*
X263300470Y-94745659D02*
X263471898Y-94659945D01*
X263471898Y-94659945D02*
X263557612Y-94488516D01*
X263557612Y-94488516D02*
X263557612Y-93802802D01*
X263557612Y-93802802D02*
X263471898Y-93631373D01*
X263471898Y-93631373D02*
X263300470Y-93545659D01*
X263300470Y-93545659D02*
X262957612Y-93545659D01*
X262957612Y-93545659D02*
X262786184Y-93631373D01*
X262786184Y-93631373D02*
X262700470Y-93802802D01*
X262700470Y-93802802D02*
X262700470Y-93974230D01*
X262700470Y-93974230D02*
X263557612Y-94145659D01*
X260814755Y-93545659D02*
X260129041Y-93545659D01*
X260557612Y-94745659D02*
X260557612Y-93202802D01*
X260557612Y-93202802D02*
X260471898Y-93031373D01*
X260471898Y-93031373D02*
X260300469Y-92945659D01*
X260300469Y-92945659D02*
X260129041Y-92945659D01*
X259271898Y-94745659D02*
X259443327Y-94659945D01*
X259443327Y-94659945D02*
X259529041Y-94574230D01*
X259529041Y-94574230D02*
X259614755Y-94402802D01*
X259614755Y-94402802D02*
X259614755Y-93888516D01*
X259614755Y-93888516D02*
X259529041Y-93717087D01*
X259529041Y-93717087D02*
X259443327Y-93631373D01*
X259443327Y-93631373D02*
X259271898Y-93545659D01*
X259271898Y-93545659D02*
X259014755Y-93545659D01*
X259014755Y-93545659D02*
X258843327Y-93631373D01*
X258843327Y-93631373D02*
X258757613Y-93717087D01*
X258757613Y-93717087D02*
X258671898Y-93888516D01*
X258671898Y-93888516D02*
X258671898Y-94402802D01*
X258671898Y-94402802D02*
X258757613Y-94574230D01*
X258757613Y-94574230D02*
X258843327Y-94659945D01*
X258843327Y-94659945D02*
X259014755Y-94745659D01*
X259014755Y-94745659D02*
X259271898Y-94745659D01*
X257900470Y-94745659D02*
X257900470Y-93545659D01*
X257900470Y-93888516D02*
X257814756Y-93717087D01*
X257814756Y-93717087D02*
X257729042Y-93631373D01*
X257729042Y-93631373D02*
X257557613Y-93545659D01*
X257557613Y-93545659D02*
X257386184Y-93545659D01*
X254814755Y-93802802D02*
X254557612Y-93888516D01*
X254557612Y-93888516D02*
X254471898Y-93974230D01*
X254471898Y-93974230D02*
X254386184Y-94145659D01*
X254386184Y-94145659D02*
X254386184Y-94402802D01*
X254386184Y-94402802D02*
X254471898Y-94574230D01*
X254471898Y-94574230D02*
X254557612Y-94659945D01*
X254557612Y-94659945D02*
X254729041Y-94745659D01*
X254729041Y-94745659D02*
X255414755Y-94745659D01*
X255414755Y-94745659D02*
X255414755Y-92945659D01*
X255414755Y-92945659D02*
X254814755Y-92945659D01*
X254814755Y-92945659D02*
X254643327Y-93031373D01*
X254643327Y-93031373D02*
X254557612Y-93117087D01*
X254557612Y-93117087D02*
X254471898Y-93288516D01*
X254471898Y-93288516D02*
X254471898Y-93459945D01*
X254471898Y-93459945D02*
X254557612Y-93631373D01*
X254557612Y-93631373D02*
X254643327Y-93717087D01*
X254643327Y-93717087D02*
X254814755Y-93802802D01*
X254814755Y-93802802D02*
X255414755Y-93802802D01*
X252843327Y-94745659D02*
X252843327Y-93802802D01*
X252843327Y-93802802D02*
X252929041Y-93631373D01*
X252929041Y-93631373D02*
X253100469Y-93545659D01*
X253100469Y-93545659D02*
X253443327Y-93545659D01*
X253443327Y-93545659D02*
X253614755Y-93631373D01*
X252843327Y-94659945D02*
X253014755Y-94745659D01*
X253014755Y-94745659D02*
X253443327Y-94745659D01*
X253443327Y-94745659D02*
X253614755Y-94659945D01*
X253614755Y-94659945D02*
X253700469Y-94488516D01*
X253700469Y-94488516D02*
X253700469Y-94317087D01*
X253700469Y-94317087D02*
X253614755Y-94145659D01*
X253614755Y-94145659D02*
X253443327Y-94059945D01*
X253443327Y-94059945D02*
X253014755Y-94059945D01*
X253014755Y-94059945D02*
X252843327Y-93974230D01*
X252071898Y-94659945D02*
X251900470Y-94745659D01*
X251900470Y-94745659D02*
X251557613Y-94745659D01*
X251557613Y-94745659D02*
X251386184Y-94659945D01*
X251386184Y-94659945D02*
X251300470Y-94488516D01*
X251300470Y-94488516D02*
X251300470Y-94402802D01*
X251300470Y-94402802D02*
X251386184Y-94231373D01*
X251386184Y-94231373D02*
X251557613Y-94145659D01*
X251557613Y-94145659D02*
X251814756Y-94145659D01*
X251814756Y-94145659D02*
X251986184Y-94059945D01*
X251986184Y-94059945D02*
X252071898Y-93888516D01*
X252071898Y-93888516D02*
X252071898Y-93802802D01*
X252071898Y-93802802D02*
X251986184Y-93631373D01*
X251986184Y-93631373D02*
X251814756Y-93545659D01*
X251814756Y-93545659D02*
X251557613Y-93545659D01*
X251557613Y-93545659D02*
X251386184Y-93631373D01*
X249843327Y-94659945D02*
X250014755Y-94745659D01*
X250014755Y-94745659D02*
X250357613Y-94745659D01*
X250357613Y-94745659D02*
X250529041Y-94659945D01*
X250529041Y-94659945D02*
X250614755Y-94488516D01*
X250614755Y-94488516D02*
X250614755Y-93802802D01*
X250614755Y-93802802D02*
X250529041Y-93631373D01*
X250529041Y-93631373D02*
X250357613Y-93545659D01*
X250357613Y-93545659D02*
X250014755Y-93545659D01*
X250014755Y-93545659D02*
X249843327Y-93631373D01*
X249843327Y-93631373D02*
X249757613Y-93802802D01*
X249757613Y-93802802D02*
X249757613Y-93974230D01*
X249757613Y-93974230D02*
X250614755Y-94145659D01*
X247614755Y-94745659D02*
X247614755Y-92945659D01*
X247614755Y-93631373D02*
X247443327Y-93545659D01*
X247443327Y-93545659D02*
X247100469Y-93545659D01*
X247100469Y-93545659D02*
X246929041Y-93631373D01*
X246929041Y-93631373D02*
X246843327Y-93717087D01*
X246843327Y-93717087D02*
X246757612Y-93888516D01*
X246757612Y-93888516D02*
X246757612Y-94402802D01*
X246757612Y-94402802D02*
X246843327Y-94574230D01*
X246843327Y-94574230D02*
X246929041Y-94659945D01*
X246929041Y-94659945D02*
X247100469Y-94745659D01*
X247100469Y-94745659D02*
X247443327Y-94745659D01*
X247443327Y-94745659D02*
X247614755Y-94659945D01*
X246157613Y-93545659D02*
X245729041Y-94745659D01*
X245300470Y-93545659D02*
X245729041Y-94745659D01*
X245729041Y-94745659D02*
X245900470Y-95174230D01*
X245900470Y-95174230D02*
X245986184Y-95259945D01*
X245986184Y-95259945D02*
X246157613Y-95345659D01*
X242129040Y-93888516D02*
X242214755Y-93802802D01*
X242214755Y-93802802D02*
X242386183Y-93717087D01*
X242386183Y-93717087D02*
X242557612Y-93717087D01*
X242557612Y-93717087D02*
X242729040Y-93802802D01*
X242729040Y-93802802D02*
X242814755Y-93888516D01*
X242814755Y-93888516D02*
X242900469Y-94059945D01*
X242900469Y-94059945D02*
X242900469Y-94231373D01*
X242900469Y-94231373D02*
X242814755Y-94402802D01*
X242814755Y-94402802D02*
X242729040Y-94488516D01*
X242729040Y-94488516D02*
X242557612Y-94574230D01*
X242557612Y-94574230D02*
X242386183Y-94574230D01*
X242386183Y-94574230D02*
X242214755Y-94488516D01*
X242214755Y-94488516D02*
X242129040Y-94402802D01*
X242129040Y-93717087D02*
X242129040Y-94402802D01*
X242129040Y-94402802D02*
X242043326Y-94488516D01*
X242043326Y-94488516D02*
X241957612Y-94488516D01*
X241957612Y-94488516D02*
X241786183Y-94402802D01*
X241786183Y-94402802D02*
X241700469Y-94231373D01*
X241700469Y-94231373D02*
X241700469Y-93802802D01*
X241700469Y-93802802D02*
X241871898Y-93545659D01*
X241871898Y-93545659D02*
X242129040Y-93374230D01*
X242129040Y-93374230D02*
X242471898Y-93288516D01*
X242471898Y-93288516D02*
X242814755Y-93374230D01*
X242814755Y-93374230D02*
X243071898Y-93545659D01*
X243071898Y-93545659D02*
X243243326Y-93802802D01*
X243243326Y-93802802D02*
X243329040Y-94145659D01*
X243329040Y-94145659D02*
X243243326Y-94488516D01*
X243243326Y-94488516D02*
X243071898Y-94745659D01*
X243071898Y-94745659D02*
X242814755Y-94917087D01*
X242814755Y-94917087D02*
X242471898Y-95002802D01*
X242471898Y-95002802D02*
X242129040Y-94917087D01*
X242129040Y-94917087D02*
X241871898Y-94745659D01*
X240929040Y-93545659D02*
X240929040Y-95088516D01*
X240929040Y-95088516D02*
X241014754Y-95259945D01*
X241014754Y-95259945D02*
X241186183Y-95345659D01*
X241186183Y-95345659D02*
X241271897Y-95345659D01*
X240929040Y-92945659D02*
X241014754Y-93031373D01*
X241014754Y-93031373D02*
X240929040Y-93117087D01*
X240929040Y-93117087D02*
X240843326Y-93031373D01*
X240843326Y-93031373D02*
X240929040Y-92945659D01*
X240929040Y-92945659D02*
X240929040Y-93117087D01*
X240071897Y-93545659D02*
X240071897Y-95345659D01*
X240071897Y-93631373D02*
X239900469Y-93545659D01*
X239900469Y-93545659D02*
X239557611Y-93545659D01*
X239557611Y-93545659D02*
X239386183Y-93631373D01*
X239386183Y-93631373D02*
X239300469Y-93717087D01*
X239300469Y-93717087D02*
X239214754Y-93888516D01*
X239214754Y-93888516D02*
X239214754Y-94402802D01*
X239214754Y-94402802D02*
X239300469Y-94574230D01*
X239300469Y-94574230D02*
X239386183Y-94659945D01*
X239386183Y-94659945D02*
X239557611Y-94745659D01*
X239557611Y-94745659D02*
X239900469Y-94745659D01*
X239900469Y-94745659D02*
X240071897Y-94659945D01*
X238529040Y-94659945D02*
X238357612Y-94745659D01*
X238357612Y-94745659D02*
X238014755Y-94745659D01*
X238014755Y-94745659D02*
X237843326Y-94659945D01*
X237843326Y-94659945D02*
X237757612Y-94488516D01*
X237757612Y-94488516D02*
X237757612Y-94402802D01*
X237757612Y-94402802D02*
X237843326Y-94231373D01*
X237843326Y-94231373D02*
X238014755Y-94145659D01*
X238014755Y-94145659D02*
X238271898Y-94145659D01*
X238271898Y-94145659D02*
X238443326Y-94059945D01*
X238443326Y-94059945D02*
X238529040Y-93888516D01*
X238529040Y-93888516D02*
X238529040Y-93802802D01*
X238529040Y-93802802D02*
X238443326Y-93631373D01*
X238443326Y-93631373D02*
X238271898Y-93545659D01*
X238271898Y-93545659D02*
X238014755Y-93545659D01*
X238014755Y-93545659D02*
X237843326Y-93631373D01*
X236986183Y-94745659D02*
X236986183Y-92945659D01*
X236814755Y-94059945D02*
X236300469Y-94745659D01*
X236300469Y-93545659D02*
X236986183Y-94231373D01*
X234843326Y-94659945D02*
X235014754Y-94745659D01*
X235014754Y-94745659D02*
X235357612Y-94745659D01*
X235357612Y-94745659D02*
X235529040Y-94659945D01*
X235529040Y-94659945D02*
X235614754Y-94488516D01*
X235614754Y-94488516D02*
X235614754Y-93802802D01*
X235614754Y-93802802D02*
X235529040Y-93631373D01*
X235529040Y-93631373D02*
X235357612Y-93545659D01*
X235357612Y-93545659D02*
X235014754Y-93545659D01*
X235014754Y-93545659D02*
X234843326Y-93631373D01*
X234843326Y-93631373D02*
X234757612Y-93802802D01*
X234757612Y-93802802D02*
X234757612Y-93974230D01*
X234757612Y-93974230D02*
X235614754Y-94145659D01*
X233986183Y-93545659D02*
X233986183Y-94745659D01*
X233986183Y-93717087D02*
X233900469Y-93631373D01*
X233900469Y-93631373D02*
X233729040Y-93545659D01*
X233729040Y-93545659D02*
X233471897Y-93545659D01*
X233471897Y-93545659D02*
X233300469Y-93631373D01*
X233300469Y-93631373D02*
X233214755Y-93802802D01*
X233214755Y-93802802D02*
X233214755Y-94745659D01*
X232357612Y-93545659D02*
X232357612Y-94745659D01*
X232357612Y-93717087D02*
X232271898Y-93631373D01*
X232271898Y-93631373D02*
X232100469Y-93545659D01*
X232100469Y-93545659D02*
X231843326Y-93545659D01*
X231843326Y-93545659D02*
X231671898Y-93631373D01*
X231671898Y-93631373D02*
X231586184Y-93802802D01*
X231586184Y-93802802D02*
X231586184Y-94745659D01*
D12*
X202336035Y-93843564D02*
X202336035Y-94557849D01*
X202336035Y-94557849D02*
X202383654Y-94700706D01*
X202383654Y-94700706D02*
X202478892Y-94795945D01*
X202478892Y-94795945D02*
X202621749Y-94843564D01*
X202621749Y-94843564D02*
X202716987Y-94843564D01*
X201383654Y-94843564D02*
X201859844Y-94843564D01*
X201859844Y-94843564D02*
X201859844Y-93843564D01*
X200478892Y-94748325D02*
X200526511Y-94795945D01*
X200526511Y-94795945D02*
X200669368Y-94843564D01*
X200669368Y-94843564D02*
X200764606Y-94843564D01*
X200764606Y-94843564D02*
X200907463Y-94795945D01*
X200907463Y-94795945D02*
X201002701Y-94700706D01*
X201002701Y-94700706D02*
X201050320Y-94605468D01*
X201050320Y-94605468D02*
X201097939Y-94414992D01*
X201097939Y-94414992D02*
X201097939Y-94272135D01*
X201097939Y-94272135D02*
X201050320Y-94081659D01*
X201050320Y-94081659D02*
X201002701Y-93986421D01*
X201002701Y-93986421D02*
X200907463Y-93891183D01*
X200907463Y-93891183D02*
X200764606Y-93843564D01*
X200764606Y-93843564D02*
X200669368Y-93843564D01*
X200669368Y-93843564D02*
X200526511Y-93891183D01*
X200526511Y-93891183D02*
X200478892Y-93938802D01*
X199764606Y-93843564D02*
X199764606Y-94557849D01*
X199764606Y-94557849D02*
X199812225Y-94700706D01*
X199812225Y-94700706D02*
X199907463Y-94795945D01*
X199907463Y-94795945D02*
X200050320Y-94843564D01*
X200050320Y-94843564D02*
X200145558Y-94843564D01*
X198812225Y-94843564D02*
X199288415Y-94843564D01*
X199288415Y-94843564D02*
X199288415Y-93843564D01*
X197907463Y-94748325D02*
X197955082Y-94795945D01*
X197955082Y-94795945D02*
X198097939Y-94843564D01*
X198097939Y-94843564D02*
X198193177Y-94843564D01*
X198193177Y-94843564D02*
X198336034Y-94795945D01*
X198336034Y-94795945D02*
X198431272Y-94700706D01*
X198431272Y-94700706D02*
X198478891Y-94605468D01*
X198478891Y-94605468D02*
X198526510Y-94414992D01*
X198526510Y-94414992D02*
X198526510Y-94272135D01*
X198526510Y-94272135D02*
X198478891Y-94081659D01*
X198478891Y-94081659D02*
X198431272Y-93986421D01*
X198431272Y-93986421D02*
X198336034Y-93891183D01*
X198336034Y-93891183D02*
X198193177Y-93843564D01*
X198193177Y-93843564D02*
X198097939Y-93843564D01*
X198097939Y-93843564D02*
X197955082Y-93891183D01*
X197955082Y-93891183D02*
X197907463Y-93938802D01*
X197193177Y-93843564D02*
X197193177Y-94557849D01*
X197193177Y-94557849D02*
X197240796Y-94700706D01*
X197240796Y-94700706D02*
X197336034Y-94795945D01*
X197336034Y-94795945D02*
X197478891Y-94843564D01*
X197478891Y-94843564D02*
X197574129Y-94843564D01*
X196240796Y-94843564D02*
X196716986Y-94843564D01*
X196716986Y-94843564D02*
X196716986Y-93843564D01*
X195336034Y-94748325D02*
X195383653Y-94795945D01*
X195383653Y-94795945D02*
X195526510Y-94843564D01*
X195526510Y-94843564D02*
X195621748Y-94843564D01*
X195621748Y-94843564D02*
X195764605Y-94795945D01*
X195764605Y-94795945D02*
X195859843Y-94700706D01*
X195859843Y-94700706D02*
X195907462Y-94605468D01*
X195907462Y-94605468D02*
X195955081Y-94414992D01*
X195955081Y-94414992D02*
X195955081Y-94272135D01*
X195955081Y-94272135D02*
X195907462Y-94081659D01*
X195907462Y-94081659D02*
X195859843Y-93986421D01*
X195859843Y-93986421D02*
X195764605Y-93891183D01*
X195764605Y-93891183D02*
X195621748Y-93843564D01*
X195621748Y-93843564D02*
X195526510Y-93843564D01*
X195526510Y-93843564D02*
X195383653Y-93891183D01*
X195383653Y-93891183D02*
X195336034Y-93938802D01*
X194621748Y-93843564D02*
X194621748Y-94557849D01*
X194621748Y-94557849D02*
X194669367Y-94700706D01*
X194669367Y-94700706D02*
X194764605Y-94795945D01*
X194764605Y-94795945D02*
X194907462Y-94843564D01*
X194907462Y-94843564D02*
X195002700Y-94843564D01*
X193669367Y-94843564D02*
X194145557Y-94843564D01*
X194145557Y-94843564D02*
X194145557Y-93843564D01*
X192764605Y-94748325D02*
X192812224Y-94795945D01*
X192812224Y-94795945D02*
X192955081Y-94843564D01*
X192955081Y-94843564D02*
X193050319Y-94843564D01*
X193050319Y-94843564D02*
X193193176Y-94795945D01*
X193193176Y-94795945D02*
X193288414Y-94700706D01*
X193288414Y-94700706D02*
X193336033Y-94605468D01*
X193336033Y-94605468D02*
X193383652Y-94414992D01*
X193383652Y-94414992D02*
X193383652Y-94272135D01*
X193383652Y-94272135D02*
X193336033Y-94081659D01*
X193336033Y-94081659D02*
X193288414Y-93986421D01*
X193288414Y-93986421D02*
X193193176Y-93891183D01*
X193193176Y-93891183D02*
X193050319Y-93843564D01*
X193050319Y-93843564D02*
X192955081Y-93843564D01*
X192955081Y-93843564D02*
X192812224Y-93891183D01*
X192812224Y-93891183D02*
X192764605Y-93938802D01*
%LPC*%
D13*
X17472345Y-54990780D02*
X23075470Y-54990780D01*
X23075470Y-54990780D02*
X23075470Y-74040780D01*
X23075470Y-74040780D02*
X17472345Y-74040780D01*
X17472345Y-74040780D02*
X17472345Y-54990780D01*
G36*
X17472345Y-54990780D02*
G01*
X23075470Y-54990780D01*
X23075470Y-74040780D01*
X17472345Y-74040780D01*
X17472345Y-54990780D01*
G37*
D14*
X80434848Y-36925277D03*
X81704848Y-36925277D03*
X82974848Y-36925277D03*
X84244848Y-36925277D03*
X85514848Y-36925277D03*
X86784848Y-36925277D03*
X233072495Y-36925280D03*
X234342495Y-36925280D03*
X235612495Y-36925280D03*
X236882495Y-36925280D03*
X238152495Y-36925280D03*
X239422495Y-36925280D03*
M02*
