<?xml version="1.0" encoding="UTF-8" standalone="no"?>
<!DOCTYPE svg PUBLIC "-//W3C//DTD SVG 1.1//EN" "http://www.w3.org/Graphics/SVG/1.1/DTD/svg11.dtd">
<svg width="100%" height="100%" viewBox="0 0 1109 388" version="1.1" xmlns="http://www.w3.org/2000/svg" xmlns:xlink="http://www.w3.org/1999/xlink" xml:space="preserve" xmlns:serif="http://www.serif.com/" style="fill-rule:evenodd;clip-rule:evenodd;stroke-linecap:round;stroke-linejoin:round;stroke-miterlimit:1.5;">
    <g transform="matrix(1.33333,0,0,1.33333,0,0)">
        <g transform="matrix(0.964327,0,0,0.939019,12.7501,13.8747)">
            <rect id="アートボード1" x="-13.222" y="-14.776" width="862.176" height="309.188" style="fill:none;"/>
            <g id="アートボード11" serif:id="アートボード1">
                <g id="静音フォーム" transform="matrix(1.03699,0,0,1.06494,-13.2218,-14.7758)">
                    <path d="M17.008,202.766L17.008,219.286L15.585,216.963L15.585,208.459L17.008,202.766ZM17.008,219.286L21.254,226.214L38.262,226.332L43.931,219.798L55.27,219.798L62.356,211.294L62.356,199.955L43.931,191.451L31.175,191.451L18.419,197.121L17.008,202.766L17.008,195.591L28.346,184.252L28.346,119.87L41.552,106.37L115.589,106.37L171.66,49.921L255.685,49.921L255.685,99.62L269.185,113.12L302.457,113.12L316.435,146.87L350.185,146.87L363.685,126.62L390.685,126.62L404.185,146.87L511.707,146.87L532.435,113.12L552.685,113.12L572.935,92.87L572.935,38.87L694.435,38.87L721.435,109.82L796.535,109.82L796.535,136.063L803.467,145.305L794.113,140.988L795.207,136.612L795.207,128.108L789.537,118.858L772.53,118.739L766.86,125.274L755.522,125.274L748.435,133.778L748.435,145.116L759.198,150.084L758.104,154.459L758.104,162.963L759.813,165.798L797.789,165.798L804.876,157.294L804.876,147.183L805.039,147.402L805.039,164.979L816.378,164.979L816.378,227.87L741.685,227.87L694.435,276.242L134.185,277.573L93.685,234.62L17.008,234.62L17.008,219.286ZM804.876,147.183L803.467,145.305L804.876,145.955L804.876,147.183ZM759.198,150.084L760.939,143.121L773.695,137.451L786.451,137.451L794.113,140.988L792.372,147.951L779.616,153.62L766.86,153.62L759.198,150.084ZM32.935,142.179L31.799,142.683L28.964,154.022L28.964,162.526L30.674,165.361L68.65,165.361L75.736,156.857L75.736,148.048L64.116,153.213L51.36,153.213L32.935,144.709L32.935,142.179ZM75.736,148.048L76.872,147.543L79.707,136.205L79.707,127.701L74.037,118.45L57.03,118.332L51.36,124.866L40.022,124.866L32.935,133.37L32.935,142.179L44.555,137.014L57.311,137.014L75.736,145.518L75.736,148.048ZM626.457,73.701L620.787,64.45L603.78,64.332L598.11,70.866L586.772,70.866L579.685,79.37L579.685,90.709L598.11,99.213L610.866,99.213L623.622,93.543L626.457,82.205L626.457,73.701ZM680.457,73.701L674.787,64.45L657.78,64.332L652.11,70.866L640.772,70.866L633.685,79.37L633.685,90.709L652.11,99.213L664.866,99.213L677.622,93.543L680.457,82.205L680.457,73.701ZM194.457,73.701L188.787,64.45L171.78,64.332L166.11,70.866L154.772,70.866L147.685,79.37L147.685,90.709L166.11,99.213L178.866,99.213L191.622,93.543L194.457,82.205L194.457,73.701ZM248.457,73.701L242.787,64.45L225.78,64.332L220.11,70.866L208.772,70.866L201.685,79.37L201.685,90.709L220.11,99.213L232.866,99.213L245.622,93.543L248.457,82.205L248.457,73.701ZM248.457,127.701L242.787,118.45L225.78,118.332L220.11,124.866L208.772,124.866L201.685,133.37L201.685,144.709L220.11,153.213L232.866,153.213L245.622,147.543L248.457,136.205L248.457,127.701ZM302.457,127.701L296.787,118.45L279.78,118.332L274.11,124.866L262.772,124.866L255.685,133.37L255.685,144.709L274.11,153.213L286.866,153.213L299.622,147.543L302.457,136.205L302.457,127.701ZM140.457,127.701L134.787,118.45L117.78,118.332L112.11,124.866L100.772,124.866L93.685,133.37L93.685,144.709L112.11,153.213L124.866,153.213L137.622,147.543L140.457,136.205L140.457,127.701ZM194.457,127.701L188.787,118.45L171.78,118.332L166.11,124.866L154.772,124.866L147.685,133.37L147.685,144.709L166.11,153.213L178.866,153.213L191.622,147.543L194.457,136.205L194.457,127.701ZM680.457,127.701L674.787,118.45L657.78,118.332L652.11,124.866L640.772,124.866L633.685,133.37L633.685,144.709L652.11,153.213L664.866,153.213L677.622,147.543L680.457,136.205L680.457,127.701ZM734.457,127.701L728.787,118.45L711.78,118.332L706.11,124.866L694.772,124.866L687.685,133.37L687.685,144.709L706.11,153.213L718.866,153.213L731.622,147.543L734.457,136.205L734.457,127.701ZM572.457,127.701L566.787,118.45L549.78,118.332L544.11,124.866L532.772,124.866L525.685,133.37L525.685,144.709L544.11,153.213L556.866,153.213L569.622,147.543L572.457,136.205L572.457,127.701ZM626.457,127.701L620.787,118.45L603.78,118.332L598.11,124.866L586.772,124.866L579.685,133.37L579.685,144.709L598.11,153.213L610.866,153.213L623.622,147.543L626.457,136.205L626.457,127.701ZM653.457,181.701L647.787,172.45L630.78,172.332L625.11,178.866L613.772,178.866L606.685,187.37L606.685,198.709L625.11,207.213L637.866,207.213L650.622,201.543L653.457,190.205L653.457,181.701ZM707.457,181.701L701.787,172.45L684.78,172.332L679.11,178.866L667.772,178.866L660.685,187.37L660.685,198.709L679.11,207.213L691.866,207.213L704.622,201.543L707.457,190.205L707.457,181.701ZM545.457,181.701L539.787,172.45L522.78,172.332L517.11,178.866L505.772,178.866L498.685,187.37L498.685,198.709L517.11,207.213L529.866,207.213L542.622,201.543L545.457,190.205L545.457,181.701ZM599.457,181.701L593.787,172.45L576.78,172.332L571.11,178.866L559.772,178.866L552.685,187.37L552.685,198.709L571.11,207.213L583.866,207.213L596.622,201.543L599.457,190.205L599.457,181.701ZM761.457,181.701L755.787,172.45L738.78,172.332L733.11,178.866L721.772,178.866L714.685,187.37L714.685,198.709L733.11,207.213L745.866,207.213L758.622,201.543L761.457,190.205L761.457,181.701ZM815.457,181.701L809.787,172.45L792.78,172.332L787.11,178.866L775.772,178.866L768.685,187.37L768.685,198.709L787.11,207.213L799.866,207.213L812.622,201.543L815.457,190.205L815.457,181.701ZM275.457,181.701L269.787,172.45L252.78,172.332L247.11,178.866L235.772,178.866L228.685,187.37L228.685,198.709L247.11,207.213L259.866,207.213L272.622,201.543L275.457,190.205L275.457,181.701ZM329.457,181.701L323.787,172.45L306.78,172.332L301.11,178.866L289.772,178.866L282.685,187.37L282.685,198.709L301.11,207.213L313.866,207.213L326.622,201.543L329.457,190.205L329.457,181.701ZM167.457,181.701L161.787,172.45L144.78,172.332L139.11,178.866L127.772,178.866L120.685,187.37L120.685,198.709L139.11,207.213L151.866,207.213L164.622,201.543L167.457,190.205L167.457,181.701ZM113.457,181.701L107.787,172.45L90.78,172.332L85.11,178.866L73.772,178.866L66.685,187.37L66.685,198.709L85.11,207.213L97.866,207.213L110.622,201.543L113.457,190.205L113.457,181.701ZM174.207,235.701L168.537,226.45L151.53,226.332L145.86,232.866L134.522,232.866L127.435,241.37L127.435,252.709L145.86,261.213L158.616,261.213L171.372,255.543L174.207,244.205L174.207,235.701ZM241.707,235.701L236.037,226.45L219.03,226.332L213.36,232.866L202.022,232.866L194.935,241.37L194.935,252.709L213.36,261.213L226.116,261.213L238.872,255.543L241.707,244.205L241.707,235.701ZM315.957,235.701L310.287,226.45L293.28,226.332L287.61,232.866L276.272,232.866L269.185,241.37L269.185,252.709L287.61,261.213L300.366,261.213L313.122,255.543L315.957,244.205L315.957,235.701ZM383.457,235.701L377.787,226.45L360.78,226.332L355.11,232.866L343.772,232.866L336.685,241.37L336.685,252.709L355.11,261.213L367.866,261.213L380.622,255.543L383.457,244.205L383.457,235.701ZM437.457,235.701L431.787,226.45L414.78,226.332L409.11,232.866L397.772,232.866L390.685,241.37L390.685,252.709L409.11,261.213L421.866,261.213L434.622,255.543L437.457,244.205L437.457,235.701ZM491.457,235.701L485.787,226.45L468.78,226.332L463.11,232.866L451.772,232.866L444.685,241.37L444.685,252.709L463.11,261.213L475.866,261.213L488.622,255.543L491.457,244.205L491.457,235.701ZM558.957,235.701L553.287,226.45L536.28,226.332L530.61,232.866L519.272,232.866L512.185,241.37L512.185,252.709L530.61,261.213L543.366,261.213L556.122,255.543L558.957,244.205L558.957,235.701ZM633.207,235.701L627.537,226.45L610.53,226.332L604.86,232.866L593.522,232.866L586.435,241.37L586.435,252.709L604.86,261.213L617.616,261.213L630.372,255.543L633.207,244.205L633.207,235.701ZM700.707,235.701L695.037,226.45L678.03,226.332L672.36,232.866L661.022,232.866L653.935,241.37L653.935,252.709L672.36,261.213L685.116,261.213L697.872,255.543L700.707,244.205L700.707,235.701ZM221.457,181.701L215.787,172.45L198.78,172.332L193.11,178.866L181.772,178.866L174.685,187.37L174.685,198.709L193.11,207.213L205.866,207.213L218.622,201.543L221.457,190.205L221.457,181.701ZM374.252,143.335C372.924,143.335 371.846,144.412 371.846,145.74C371.846,147.067 372.924,148.145 374.252,148.145C375.579,148.145 376.657,147.067 376.657,145.74C376.657,144.412 375.579,143.335 374.252,143.335Z" style="fill:none;stroke:black;stroke-width:0.25px;"/>
                </g>
            </g>
        </g>
    </g>
</svg>
