<?xml version="1.0" encoding="UTF-8" standalone="no"?>
<!DOCTYPE svg PUBLIC "-//W3C//DTD SVG 1.1//EN" "http://www.w3.org/Graphics/SVG/1.1/DTD/svg11.dtd">
<svg width="100%" height="100%" viewBox="0 0 1109 388" version="1.1" xmlns="http://www.w3.org/2000/svg" xmlns:xlink="http://www.w3.org/1999/xlink" xml:space="preserve" xmlns:serif="http://www.serif.com/" style="fill-rule:evenodd;clip-rule:evenodd;stroke-linecap:round;stroke-linejoin:round;stroke-miterlimit:1.5;">
    <g transform="matrix(1.33333,0,0,1.33333,0,0)">
        <g transform="matrix(0.964327,0,0,0.939019,12.7501,13.8747)">
            <rect id="アートボード1" x="-13.222" y="-14.776" width="862.176" height="309.188" style="fill:none;"/>
            <g id="アートボード11" serif:id="アートボード1">
                <g id="静音フォーム" transform="matrix(1.03699,0,0,1.06494,-13.2218,-14.7758)">
                    <path d="M796.535,113.386L796.535,136.063L805.039,147.402L805.039,181.417L816.378,181.417L816.378,257.953L805.039,275.988L17.008,277.795L17.008,195.591L28.346,184.252L28.346,117.863L144.567,117.638L144.567,56.693L253.701,56.693L253.701,113.386L571.181,113.386L571.181,56.693L697.323,56.693L697.323,113.386L796.535,113.386ZM626.457,70.866L620.787,64.45L600.945,64.332L600.945,70.866L583.937,70.866L579.685,76.535L579.685,90.709L598.11,99.213L610.866,99.213L623.622,93.543L626.457,83.713L626.457,70.866Z" style="fill:none;stroke:black;stroke-width:0.25px;"/>
                </g>
            </g>
        </g>
    </g>
</svg>
