%TF.GenerationSoftware,KiCad,Pcbnew,7.0.1-0*%
%TF.CreationDate,2023-04-15T21:17:20+09:00*%
%TF.ProjectId,Sandy_Top_with_Plate_Mid,53616e64-795f-4546-9f70-5f776974685f,v.0*%
%TF.SameCoordinates,Original*%
%TF.FileFunction,Drillmap*%
%TF.FilePolarity,Positive*%
%FSLAX45Y45*%
G04 Gerber Fmt 4.5, Leading zero omitted, Abs format (unit mm)*
G04 Created by KiCad (PCBNEW 7.0.1-0) date 2023-04-15 21:17:20*
%MOMM*%
%LPD*%
G01*
G04 APERTURE LIST*
%ADD10C,0.200000*%
%ADD11C,0.175000*%
%ADD12C,0.300000*%
%ADD13C,0.398780*%
%ADD14C,0.609600*%
G04 APERTURE END LIST*
D10*
D11*
X1867531Y-2612841D02*
X2042531Y-2787841D01*
X2042531Y-2612841D02*
X1867531Y-2787841D01*
X2883531Y-2612841D02*
X3058531Y-2787841D01*
X3058531Y-2612841D02*
X2883531Y-2787841D01*
X3772531Y-2612841D02*
X3947531Y-2787841D01*
X3947531Y-2612841D02*
X3772531Y-2787841D01*
X4788531Y-2612841D02*
X4963531Y-2787841D01*
X4963531Y-2612841D02*
X4788531Y-2787841D01*
X5677531Y-2612841D02*
X5852531Y-2787841D01*
X5852531Y-2612841D02*
X5677531Y-2787841D01*
X6693531Y-2612841D02*
X6868531Y-2787841D01*
X6868531Y-2612841D02*
X6693531Y-2787841D01*
X7582531Y-2612841D02*
X7757531Y-2787841D01*
X7757531Y-2612841D02*
X7582531Y-2787841D01*
X8598531Y-2612841D02*
X8773531Y-2787841D01*
X8773531Y-2612841D02*
X8598531Y-2787841D01*
X9487531Y-2612841D02*
X9662531Y-2787841D01*
X9662531Y-2612841D02*
X9487531Y-2787841D01*
X10503531Y-2612841D02*
X10678531Y-2787841D01*
X10678531Y-2612841D02*
X10503531Y-2787841D01*
X11392531Y-2612841D02*
X11567531Y-2787841D01*
X11567531Y-2612841D02*
X11392531Y-2787841D01*
X12345031Y-4517841D02*
X12520031Y-4692841D01*
X12520031Y-4517841D02*
X12345031Y-4692841D01*
X12408531Y-2612841D02*
X12583531Y-2787841D01*
X12583531Y-2612841D02*
X12408531Y-2787841D01*
X13297531Y-2612841D02*
X13472531Y-2787841D01*
X13472531Y-2612841D02*
X13297531Y-2787841D01*
X13361031Y-4517841D02*
X13536031Y-4692841D01*
X13536031Y-4517841D02*
X13361031Y-4692841D01*
X14250031Y-4517841D02*
X14425031Y-4692841D01*
X14425031Y-4517841D02*
X14250031Y-4692841D01*
X14313531Y-2612841D02*
X14488531Y-2787841D01*
X14488531Y-2612841D02*
X14313531Y-2787841D01*
X15195343Y-2612841D02*
X15370343Y-2787841D01*
X15370343Y-2612841D02*
X15195343Y-2787841D01*
X15266031Y-4517841D02*
X15441031Y-4692841D01*
X15441031Y-4517841D02*
X15266031Y-4692841D01*
X16155031Y-4517841D02*
X16330031Y-4692841D01*
X16330031Y-4517841D02*
X16155031Y-4692841D01*
X16211343Y-2612841D02*
X16386343Y-2787841D01*
X16386343Y-2612841D02*
X16211343Y-2787841D01*
X17107531Y-2612841D02*
X17282531Y-2787841D01*
X17282531Y-2612841D02*
X17107531Y-2787841D01*
X17171031Y-4517841D02*
X17346031Y-4692841D01*
X17346031Y-4517841D02*
X17171031Y-4692841D01*
X18060031Y-4517841D02*
X18235031Y-4692841D01*
X18235031Y-4517841D02*
X18060031Y-4692841D01*
X18123531Y-2612841D02*
X18298531Y-2787841D01*
X18298531Y-2612841D02*
X18123531Y-2787841D01*
X19012531Y-2612841D02*
X19187531Y-2787841D01*
X19187531Y-2612841D02*
X19012531Y-2787841D01*
X19076031Y-4517841D02*
X19251031Y-4692841D01*
X19251031Y-4517841D02*
X19076031Y-4692841D01*
X20028531Y-2612841D02*
X20203531Y-2787841D01*
X20203531Y-2612841D02*
X20028531Y-2787841D01*
X20917531Y-2612841D02*
X21092531Y-2787841D01*
X21092531Y-2612841D02*
X20917531Y-2787841D01*
X21933531Y-2612841D02*
X22108531Y-2787841D01*
X22108531Y-2612841D02*
X21933531Y-2787841D01*
X22822531Y-2612841D02*
X22997531Y-2787841D01*
X22997531Y-2612841D02*
X22822531Y-2787841D01*
X23838531Y-2612841D02*
X24013531Y-2787841D01*
X24013531Y-2612841D02*
X23838531Y-2787841D01*
X24727531Y-2612841D02*
X24902531Y-2787841D01*
X24902531Y-2612841D02*
X24727531Y-2787841D01*
X25743531Y-2612841D02*
X25918531Y-2787841D01*
X25918531Y-2612841D02*
X25743531Y-2787841D01*
X26632531Y-2612841D02*
X26807531Y-2787841D01*
X26807531Y-2612841D02*
X26632531Y-2787841D01*
X27648531Y-2612841D02*
X27823531Y-2787841D01*
X27823531Y-2612841D02*
X27648531Y-2787841D01*
X28537531Y-2612841D02*
X28712531Y-2787841D01*
X28712531Y-2612841D02*
X28537531Y-2787841D01*
X29553531Y-2612841D02*
X29728531Y-2787841D01*
X29728531Y-2612841D02*
X29553531Y-2787841D01*
D12*
X2232031Y-2446341D02*
G75*
G03*
X2232031Y-2446341I-150000J0D01*
G01*
X2867031Y-2192341D02*
G75*
G03*
X2867031Y-2192341I-150000J0D01*
G01*
X4137031Y-2446341D02*
G75*
G03*
X4137031Y-2446341I-150000J0D01*
G01*
X4772031Y-2192341D02*
G75*
G03*
X4772031Y-2192341I-150000J0D01*
G01*
X6042031Y-2446341D02*
G75*
G03*
X6042031Y-2446341I-150000J0D01*
G01*
X6677031Y-2192341D02*
G75*
G03*
X6677031Y-2192341I-150000J0D01*
G01*
X7947031Y-2446341D02*
G75*
G03*
X7947031Y-2446341I-150000J0D01*
G01*
X8582031Y-2192341D02*
G75*
G03*
X8582031Y-2192341I-150000J0D01*
G01*
X9852031Y-2446341D02*
G75*
G03*
X9852031Y-2446341I-150000J0D01*
G01*
X10487031Y-2192341D02*
G75*
G03*
X10487031Y-2192341I-150000J0D01*
G01*
X11757031Y-2446341D02*
G75*
G03*
X11757031Y-2446341I-150000J0D01*
G01*
X12392031Y-2192341D02*
G75*
G03*
X12392031Y-2192341I-150000J0D01*
G01*
X12709531Y-4351341D02*
G75*
G03*
X12709531Y-4351341I-150000J0D01*
G01*
X13344531Y-4097340D02*
G75*
G03*
X13344531Y-4097340I-150000J0D01*
G01*
X13662031Y-2446341D02*
G75*
G03*
X13662031Y-2446341I-150000J0D01*
G01*
X14297031Y-2192341D02*
G75*
G03*
X14297031Y-2192341I-150000J0D01*
G01*
X14614531Y-4351341D02*
G75*
G03*
X14614531Y-4351341I-150000J0D01*
G01*
X15249531Y-4097340D02*
G75*
G03*
X15249531Y-4097340I-150000J0D01*
G01*
X15559843Y-2446341D02*
G75*
G03*
X15559843Y-2446341I-150000J0D01*
G01*
X16194843Y-2192341D02*
G75*
G03*
X16194843Y-2192341I-150000J0D01*
G01*
X16519531Y-4351341D02*
G75*
G03*
X16519531Y-4351341I-150000J0D01*
G01*
X17154531Y-4097340D02*
G75*
G03*
X17154531Y-4097340I-150000J0D01*
G01*
X17472031Y-2446341D02*
G75*
G03*
X17472031Y-2446341I-150000J0D01*
G01*
X18107031Y-2192341D02*
G75*
G03*
X18107031Y-2192341I-150000J0D01*
G01*
X18424531Y-4351341D02*
G75*
G03*
X18424531Y-4351341I-150000J0D01*
G01*
X19059531Y-4097340D02*
G75*
G03*
X19059531Y-4097340I-150000J0D01*
G01*
X19377031Y-2446341D02*
G75*
G03*
X19377031Y-2446341I-150000J0D01*
G01*
X20012031Y-2192341D02*
G75*
G03*
X20012031Y-2192341I-150000J0D01*
G01*
X21282031Y-2446341D02*
G75*
G03*
X21282031Y-2446341I-150000J0D01*
G01*
X21917031Y-2192341D02*
G75*
G03*
X21917031Y-2192341I-150000J0D01*
G01*
X23187031Y-2446341D02*
G75*
G03*
X23187031Y-2446341I-150000J0D01*
G01*
X23822031Y-2192341D02*
G75*
G03*
X23822031Y-2192341I-150000J0D01*
G01*
X25092031Y-2446341D02*
G75*
G03*
X25092031Y-2446341I-150000J0D01*
G01*
X25727031Y-2192341D02*
G75*
G03*
X25727031Y-2192341I-150000J0D01*
G01*
X26997031Y-2446341D02*
G75*
G03*
X26997031Y-2446341I-150000J0D01*
G01*
X27632031Y-2192341D02*
G75*
G03*
X27632031Y-2192341I-150000J0D01*
G01*
X28902031Y-2446341D02*
G75*
G03*
X28902031Y-2446341I-150000J0D01*
G01*
X29537031Y-2192341D02*
G75*
G03*
X29537031Y-2192341I-150000J0D01*
G01*
D13*
X2463031Y-2500951D02*
X2463031Y-2899730D01*
X2263641Y-2700341D02*
X2662421Y-2700341D01*
X4368031Y-2500951D02*
X4368031Y-2899730D01*
X4168641Y-2700341D02*
X4567421Y-2700341D01*
X6273031Y-2500951D02*
X6273031Y-2899730D01*
X6073641Y-2700341D02*
X6472421Y-2700341D01*
X8178031Y-2500951D02*
X8178031Y-2899730D01*
X7978641Y-2700341D02*
X8377421Y-2700341D01*
X10083031Y-2500951D02*
X10083031Y-2899730D01*
X9883641Y-2700341D02*
X10282421Y-2700341D01*
X11988031Y-2500951D02*
X11988031Y-2899730D01*
X11788641Y-2700341D02*
X12187421Y-2700341D01*
X12940531Y-4405951D02*
X12940531Y-4804731D01*
X12741141Y-4605341D02*
X13139921Y-4605341D01*
X13893031Y-2500951D02*
X13893031Y-2899730D01*
X13693641Y-2700341D02*
X14092421Y-2700341D01*
X14845531Y-4405951D02*
X14845531Y-4804731D01*
X14646141Y-4605341D02*
X15044921Y-4605341D01*
X15790843Y-2500951D02*
X15790843Y-2899730D01*
X15591453Y-2700341D02*
X15990233Y-2700341D01*
X16750531Y-4405951D02*
X16750531Y-4804731D01*
X16551141Y-4605341D02*
X16949921Y-4605341D01*
X17703031Y-2500951D02*
X17703031Y-2899730D01*
X17503641Y-2700341D02*
X17902421Y-2700341D01*
X18655531Y-4405951D02*
X18655531Y-4804731D01*
X18456141Y-4605341D02*
X18854921Y-4605341D01*
X19608031Y-2500951D02*
X19608031Y-2899730D01*
X19408641Y-2700341D02*
X19807421Y-2700341D01*
X21513031Y-2500951D02*
X21513031Y-2899730D01*
X21313641Y-2700341D02*
X21712421Y-2700341D01*
X23418031Y-2500951D02*
X23418031Y-2899730D01*
X23218641Y-2700341D02*
X23617421Y-2700341D01*
X25323031Y-2500951D02*
X25323031Y-2899730D01*
X25123641Y-2700341D02*
X25522421Y-2700341D01*
X27228031Y-2500951D02*
X27228031Y-2899730D01*
X27028641Y-2700341D02*
X27427421Y-2700341D01*
X29133031Y-2500951D02*
X29133031Y-2899730D01*
X28933641Y-2700341D02*
X29332421Y-2700341D01*
D14*
X4278759Y-4782769D02*
X4278759Y-4351712D01*
X3847703Y-4351712D01*
X3847703Y-4782769D01*
X4278759Y-4782769D01*
D10*
X1778150Y-9620360D02*
X1778150Y-9420360D01*
X1778150Y-9420360D02*
X1825769Y-9420360D01*
X1825769Y-9420360D02*
X1854340Y-9429884D01*
X1854340Y-9429884D02*
X1873388Y-9448932D01*
X1873388Y-9448932D02*
X1882912Y-9467979D01*
X1882912Y-9467979D02*
X1892436Y-9506075D01*
X1892436Y-9506075D02*
X1892436Y-9534646D01*
X1892436Y-9534646D02*
X1882912Y-9572741D01*
X1882912Y-9572741D02*
X1873388Y-9591789D01*
X1873388Y-9591789D02*
X1854340Y-9610837D01*
X1854340Y-9610837D02*
X1825769Y-9620360D01*
X1825769Y-9620360D02*
X1778150Y-9620360D01*
X1978150Y-9620360D02*
X1978150Y-9487027D01*
X1978150Y-9525122D02*
X1987674Y-9506075D01*
X1987674Y-9506075D02*
X1997198Y-9496551D01*
X1997198Y-9496551D02*
X2016245Y-9487027D01*
X2016245Y-9487027D02*
X2035293Y-9487027D01*
X2101960Y-9620360D02*
X2101960Y-9487027D01*
X2101960Y-9420360D02*
X2092436Y-9429884D01*
X2092436Y-9429884D02*
X2101960Y-9439408D01*
X2101960Y-9439408D02*
X2111483Y-9429884D01*
X2111483Y-9429884D02*
X2101960Y-9420360D01*
X2101960Y-9420360D02*
X2101960Y-9439408D01*
X2225769Y-9620360D02*
X2206721Y-9610837D01*
X2206721Y-9610837D02*
X2197198Y-9591789D01*
X2197198Y-9591789D02*
X2197198Y-9420360D01*
X2330531Y-9620360D02*
X2311483Y-9610837D01*
X2311483Y-9610837D02*
X2301960Y-9591789D01*
X2301960Y-9591789D02*
X2301960Y-9420360D01*
X2559102Y-9620360D02*
X2559102Y-9420360D01*
X2559102Y-9420360D02*
X2625769Y-9563217D01*
X2625769Y-9563217D02*
X2692436Y-9420360D01*
X2692436Y-9420360D02*
X2692436Y-9620360D01*
X2873388Y-9620360D02*
X2873388Y-9515598D01*
X2873388Y-9515598D02*
X2863864Y-9496551D01*
X2863864Y-9496551D02*
X2844817Y-9487027D01*
X2844817Y-9487027D02*
X2806721Y-9487027D01*
X2806721Y-9487027D02*
X2787674Y-9496551D01*
X2873388Y-9610837D02*
X2854340Y-9620360D01*
X2854340Y-9620360D02*
X2806721Y-9620360D01*
X2806721Y-9620360D02*
X2787674Y-9610837D01*
X2787674Y-9610837D02*
X2778150Y-9591789D01*
X2778150Y-9591789D02*
X2778150Y-9572741D01*
X2778150Y-9572741D02*
X2787674Y-9553694D01*
X2787674Y-9553694D02*
X2806721Y-9544170D01*
X2806721Y-9544170D02*
X2854340Y-9544170D01*
X2854340Y-9544170D02*
X2873388Y-9534646D01*
X2968626Y-9487027D02*
X2968626Y-9687027D01*
X2968626Y-9496551D02*
X2987674Y-9487027D01*
X2987674Y-9487027D02*
X3025769Y-9487027D01*
X3025769Y-9487027D02*
X3044817Y-9496551D01*
X3044817Y-9496551D02*
X3054340Y-9506075D01*
X3054340Y-9506075D02*
X3063864Y-9525122D01*
X3063864Y-9525122D02*
X3063864Y-9582265D01*
X3063864Y-9582265D02*
X3054340Y-9601313D01*
X3054340Y-9601313D02*
X3044817Y-9610837D01*
X3044817Y-9610837D02*
X3025769Y-9620360D01*
X3025769Y-9620360D02*
X2987674Y-9620360D01*
X2987674Y-9620360D02*
X2968626Y-9610837D01*
X3149579Y-9601313D02*
X3159102Y-9610837D01*
X3159102Y-9610837D02*
X3149579Y-9620360D01*
X3149579Y-9620360D02*
X3140055Y-9610837D01*
X3140055Y-9610837D02*
X3149579Y-9601313D01*
X3149579Y-9601313D02*
X3149579Y-9620360D01*
X3149579Y-9496551D02*
X3159102Y-9506075D01*
X3159102Y-9506075D02*
X3149579Y-9515598D01*
X3149579Y-9515598D02*
X3140055Y-9506075D01*
X3140055Y-9506075D02*
X3149579Y-9496551D01*
X3149579Y-9496551D02*
X3149579Y-9515598D01*
D11*
X1355531Y-9860337D02*
X1530531Y-10035337D01*
X1530531Y-9860337D02*
X1355531Y-10035337D01*
D10*
X1882912Y-10040360D02*
X1768626Y-10040360D01*
X1825769Y-10040360D02*
X1825769Y-9840360D01*
X1825769Y-9840360D02*
X1806721Y-9868932D01*
X1806721Y-9868932D02*
X1787674Y-9887979D01*
X1787674Y-9887979D02*
X1768626Y-9897503D01*
X1968626Y-10021313D02*
X1978150Y-10030837D01*
X1978150Y-10030837D02*
X1968626Y-10040360D01*
X1968626Y-10040360D02*
X1959102Y-10030837D01*
X1959102Y-10030837D02*
X1968626Y-10021313D01*
X1968626Y-10021313D02*
X1968626Y-10040360D01*
X2044817Y-9840360D02*
X2178150Y-9840360D01*
X2178150Y-9840360D02*
X2092436Y-10040360D01*
X2349579Y-9840360D02*
X2254341Y-9840360D01*
X2254341Y-9840360D02*
X2244817Y-9935598D01*
X2244817Y-9935598D02*
X2254341Y-9926075D01*
X2254341Y-9926075D02*
X2273388Y-9916551D01*
X2273388Y-9916551D02*
X2321007Y-9916551D01*
X2321007Y-9916551D02*
X2340055Y-9926075D01*
X2340055Y-9926075D02*
X2349579Y-9935598D01*
X2349579Y-9935598D02*
X2359102Y-9954646D01*
X2359102Y-9954646D02*
X2359102Y-10002265D01*
X2359102Y-10002265D02*
X2349579Y-10021313D01*
X2349579Y-10021313D02*
X2340055Y-10030837D01*
X2340055Y-10030837D02*
X2321007Y-10040360D01*
X2321007Y-10040360D02*
X2273388Y-10040360D01*
X2273388Y-10040360D02*
X2254341Y-10030837D01*
X2254341Y-10030837D02*
X2244817Y-10021313D01*
X2482912Y-9840360D02*
X2501960Y-9840360D01*
X2501960Y-9840360D02*
X2521007Y-9849884D01*
X2521007Y-9849884D02*
X2530531Y-9859408D01*
X2530531Y-9859408D02*
X2540055Y-9878456D01*
X2540055Y-9878456D02*
X2549579Y-9916551D01*
X2549579Y-9916551D02*
X2549579Y-9964170D01*
X2549579Y-9964170D02*
X2540055Y-10002265D01*
X2540055Y-10002265D02*
X2530531Y-10021313D01*
X2530531Y-10021313D02*
X2521007Y-10030837D01*
X2521007Y-10030837D02*
X2501960Y-10040360D01*
X2501960Y-10040360D02*
X2482912Y-10040360D01*
X2482912Y-10040360D02*
X2463864Y-10030837D01*
X2463864Y-10030837D02*
X2454341Y-10021313D01*
X2454341Y-10021313D02*
X2444817Y-10002265D01*
X2444817Y-10002265D02*
X2435293Y-9964170D01*
X2435293Y-9964170D02*
X2435293Y-9916551D01*
X2435293Y-9916551D02*
X2444817Y-9878456D01*
X2444817Y-9878456D02*
X2454341Y-9859408D01*
X2454341Y-9859408D02*
X2463864Y-9849884D01*
X2463864Y-9849884D02*
X2482912Y-9840360D01*
X2635293Y-10040360D02*
X2635293Y-9907027D01*
X2635293Y-9926075D02*
X2644817Y-9916551D01*
X2644817Y-9916551D02*
X2663864Y-9907027D01*
X2663864Y-9907027D02*
X2692436Y-9907027D01*
X2692436Y-9907027D02*
X2711483Y-9916551D01*
X2711483Y-9916551D02*
X2721007Y-9935598D01*
X2721007Y-9935598D02*
X2721007Y-10040360D01*
X2721007Y-9935598D02*
X2730531Y-9916551D01*
X2730531Y-9916551D02*
X2749579Y-9907027D01*
X2749579Y-9907027D02*
X2778150Y-9907027D01*
X2778150Y-9907027D02*
X2797198Y-9916551D01*
X2797198Y-9916551D02*
X2806721Y-9935598D01*
X2806721Y-9935598D02*
X2806721Y-10040360D01*
X2901960Y-10040360D02*
X2901960Y-9907027D01*
X2901960Y-9926075D02*
X2911483Y-9916551D01*
X2911483Y-9916551D02*
X2930531Y-9907027D01*
X2930531Y-9907027D02*
X2959102Y-9907027D01*
X2959102Y-9907027D02*
X2978150Y-9916551D01*
X2978150Y-9916551D02*
X2987674Y-9935598D01*
X2987674Y-9935598D02*
X2987674Y-10040360D01*
X2987674Y-9935598D02*
X2997198Y-9916551D01*
X2997198Y-9916551D02*
X3016245Y-9907027D01*
X3016245Y-9907027D02*
X3044817Y-9907027D01*
X3044817Y-9907027D02*
X3063864Y-9916551D01*
X3063864Y-9916551D02*
X3073388Y-9935598D01*
X3073388Y-9935598D02*
X3073388Y-10040360D01*
X3463864Y-9830837D02*
X3292436Y-10087979D01*
X3721007Y-9840360D02*
X3740055Y-9840360D01*
X3740055Y-9840360D02*
X3759103Y-9849884D01*
X3759103Y-9849884D02*
X3768626Y-9859408D01*
X3768626Y-9859408D02*
X3778150Y-9878456D01*
X3778150Y-9878456D02*
X3787674Y-9916551D01*
X3787674Y-9916551D02*
X3787674Y-9964170D01*
X3787674Y-9964170D02*
X3778150Y-10002265D01*
X3778150Y-10002265D02*
X3768626Y-10021313D01*
X3768626Y-10021313D02*
X3759103Y-10030837D01*
X3759103Y-10030837D02*
X3740055Y-10040360D01*
X3740055Y-10040360D02*
X3721007Y-10040360D01*
X3721007Y-10040360D02*
X3701960Y-10030837D01*
X3701960Y-10030837D02*
X3692436Y-10021313D01*
X3692436Y-10021313D02*
X3682912Y-10002265D01*
X3682912Y-10002265D02*
X3673388Y-9964170D01*
X3673388Y-9964170D02*
X3673388Y-9916551D01*
X3673388Y-9916551D02*
X3682912Y-9878456D01*
X3682912Y-9878456D02*
X3692436Y-9859408D01*
X3692436Y-9859408D02*
X3701960Y-9849884D01*
X3701960Y-9849884D02*
X3721007Y-9840360D01*
X3873388Y-10021313D02*
X3882912Y-10030837D01*
X3882912Y-10030837D02*
X3873388Y-10040360D01*
X3873388Y-10040360D02*
X3863864Y-10030837D01*
X3863864Y-10030837D02*
X3873388Y-10021313D01*
X3873388Y-10021313D02*
X3873388Y-10040360D01*
X4006722Y-9840360D02*
X4025769Y-9840360D01*
X4025769Y-9840360D02*
X4044817Y-9849884D01*
X4044817Y-9849884D02*
X4054341Y-9859408D01*
X4054341Y-9859408D02*
X4063864Y-9878456D01*
X4063864Y-9878456D02*
X4073388Y-9916551D01*
X4073388Y-9916551D02*
X4073388Y-9964170D01*
X4073388Y-9964170D02*
X4063864Y-10002265D01*
X4063864Y-10002265D02*
X4054341Y-10021313D01*
X4054341Y-10021313D02*
X4044817Y-10030837D01*
X4044817Y-10030837D02*
X4025769Y-10040360D01*
X4025769Y-10040360D02*
X4006722Y-10040360D01*
X4006722Y-10040360D02*
X3987674Y-10030837D01*
X3987674Y-10030837D02*
X3978150Y-10021313D01*
X3978150Y-10021313D02*
X3968626Y-10002265D01*
X3968626Y-10002265D02*
X3959103Y-9964170D01*
X3959103Y-9964170D02*
X3959103Y-9916551D01*
X3959103Y-9916551D02*
X3968626Y-9878456D01*
X3968626Y-9878456D02*
X3978150Y-9859408D01*
X3978150Y-9859408D02*
X3987674Y-9849884D01*
X3987674Y-9849884D02*
X4006722Y-9840360D01*
X4244817Y-9840360D02*
X4206722Y-9840360D01*
X4206722Y-9840360D02*
X4187674Y-9849884D01*
X4187674Y-9849884D02*
X4178150Y-9859408D01*
X4178150Y-9859408D02*
X4159103Y-9887979D01*
X4159103Y-9887979D02*
X4149579Y-9926075D01*
X4149579Y-9926075D02*
X4149579Y-10002265D01*
X4149579Y-10002265D02*
X4159103Y-10021313D01*
X4159103Y-10021313D02*
X4168626Y-10030837D01*
X4168626Y-10030837D02*
X4187674Y-10040360D01*
X4187674Y-10040360D02*
X4225769Y-10040360D01*
X4225769Y-10040360D02*
X4244817Y-10030837D01*
X4244817Y-10030837D02*
X4254341Y-10021313D01*
X4254341Y-10021313D02*
X4263865Y-10002265D01*
X4263865Y-10002265D02*
X4263865Y-9954646D01*
X4263865Y-9954646D02*
X4254341Y-9935598D01*
X4254341Y-9935598D02*
X4244817Y-9926075D01*
X4244817Y-9926075D02*
X4225769Y-9916551D01*
X4225769Y-9916551D02*
X4187674Y-9916551D01*
X4187674Y-9916551D02*
X4168626Y-9926075D01*
X4168626Y-9926075D02*
X4159103Y-9935598D01*
X4159103Y-9935598D02*
X4149579Y-9954646D01*
X4378150Y-9926075D02*
X4359103Y-9916551D01*
X4359103Y-9916551D02*
X4349579Y-9907027D01*
X4349579Y-9907027D02*
X4340055Y-9887979D01*
X4340055Y-9887979D02*
X4340055Y-9878456D01*
X4340055Y-9878456D02*
X4349579Y-9859408D01*
X4349579Y-9859408D02*
X4359103Y-9849884D01*
X4359103Y-9849884D02*
X4378150Y-9840360D01*
X4378150Y-9840360D02*
X4416246Y-9840360D01*
X4416246Y-9840360D02*
X4435293Y-9849884D01*
X4435293Y-9849884D02*
X4444817Y-9859408D01*
X4444817Y-9859408D02*
X4454341Y-9878456D01*
X4454341Y-9878456D02*
X4454341Y-9887979D01*
X4454341Y-9887979D02*
X4444817Y-9907027D01*
X4444817Y-9907027D02*
X4435293Y-9916551D01*
X4435293Y-9916551D02*
X4416246Y-9926075D01*
X4416246Y-9926075D02*
X4378150Y-9926075D01*
X4378150Y-9926075D02*
X4359103Y-9935598D01*
X4359103Y-9935598D02*
X4349579Y-9945122D01*
X4349579Y-9945122D02*
X4340055Y-9964170D01*
X4340055Y-9964170D02*
X4340055Y-10002265D01*
X4340055Y-10002265D02*
X4349579Y-10021313D01*
X4349579Y-10021313D02*
X4359103Y-10030837D01*
X4359103Y-10030837D02*
X4378150Y-10040360D01*
X4378150Y-10040360D02*
X4416246Y-10040360D01*
X4416246Y-10040360D02*
X4435293Y-10030837D01*
X4435293Y-10030837D02*
X4444817Y-10021313D01*
X4444817Y-10021313D02*
X4454341Y-10002265D01*
X4454341Y-10002265D02*
X4454341Y-9964170D01*
X4454341Y-9964170D02*
X4444817Y-9945122D01*
X4444817Y-9945122D02*
X4435293Y-9935598D01*
X4435293Y-9935598D02*
X4416246Y-9926075D01*
X4549579Y-10040360D02*
X4587674Y-10040360D01*
X4587674Y-10040360D02*
X4606722Y-10030837D01*
X4606722Y-10030837D02*
X4616246Y-10021313D01*
X4616246Y-10021313D02*
X4635293Y-9992741D01*
X4635293Y-9992741D02*
X4644817Y-9954646D01*
X4644817Y-9954646D02*
X4644817Y-9878456D01*
X4644817Y-9878456D02*
X4635293Y-9859408D01*
X4635293Y-9859408D02*
X4625769Y-9849884D01*
X4625769Y-9849884D02*
X4606722Y-9840360D01*
X4606722Y-9840360D02*
X4568626Y-9840360D01*
X4568626Y-9840360D02*
X4549579Y-9849884D01*
X4549579Y-9849884D02*
X4540055Y-9859408D01*
X4540055Y-9859408D02*
X4530531Y-9878456D01*
X4530531Y-9878456D02*
X4530531Y-9926075D01*
X4530531Y-9926075D02*
X4540055Y-9945122D01*
X4540055Y-9945122D02*
X4549579Y-9954646D01*
X4549579Y-9954646D02*
X4568626Y-9964170D01*
X4568626Y-9964170D02*
X4606722Y-9964170D01*
X4606722Y-9964170D02*
X4625769Y-9954646D01*
X4625769Y-9954646D02*
X4635293Y-9945122D01*
X4635293Y-9945122D02*
X4644817Y-9926075D01*
X4721007Y-9840360D02*
X4721007Y-9878456D01*
X4797198Y-9840360D02*
X4797198Y-9878456D01*
X5092436Y-10116551D02*
X5082912Y-10107027D01*
X5082912Y-10107027D02*
X5063865Y-10078456D01*
X5063865Y-10078456D02*
X5054341Y-10059408D01*
X5054341Y-10059408D02*
X5044817Y-10030837D01*
X5044817Y-10030837D02*
X5035293Y-9983217D01*
X5035293Y-9983217D02*
X5035293Y-9945122D01*
X5035293Y-9945122D02*
X5044817Y-9897503D01*
X5044817Y-9897503D02*
X5054341Y-9868932D01*
X5054341Y-9868932D02*
X5063865Y-9849884D01*
X5063865Y-9849884D02*
X5082912Y-9821313D01*
X5082912Y-9821313D02*
X5092436Y-9811789D01*
X5149579Y-9840360D02*
X5273388Y-9840360D01*
X5273388Y-9840360D02*
X5206722Y-9916551D01*
X5206722Y-9916551D02*
X5235293Y-9916551D01*
X5235293Y-9916551D02*
X5254341Y-9926075D01*
X5254341Y-9926075D02*
X5263865Y-9935598D01*
X5263865Y-9935598D02*
X5273388Y-9954646D01*
X5273388Y-9954646D02*
X5273388Y-10002265D01*
X5273388Y-10002265D02*
X5263865Y-10021313D01*
X5263865Y-10021313D02*
X5254341Y-10030837D01*
X5254341Y-10030837D02*
X5235293Y-10040360D01*
X5235293Y-10040360D02*
X5178150Y-10040360D01*
X5178150Y-10040360D02*
X5159103Y-10030837D01*
X5159103Y-10030837D02*
X5149579Y-10021313D01*
X5387674Y-9926075D02*
X5368627Y-9916551D01*
X5368627Y-9916551D02*
X5359103Y-9907027D01*
X5359103Y-9907027D02*
X5349579Y-9887979D01*
X5349579Y-9887979D02*
X5349579Y-9878456D01*
X5349579Y-9878456D02*
X5359103Y-9859408D01*
X5359103Y-9859408D02*
X5368627Y-9849884D01*
X5368627Y-9849884D02*
X5387674Y-9840360D01*
X5387674Y-9840360D02*
X5425769Y-9840360D01*
X5425769Y-9840360D02*
X5444817Y-9849884D01*
X5444817Y-9849884D02*
X5454341Y-9859408D01*
X5454341Y-9859408D02*
X5463865Y-9878456D01*
X5463865Y-9878456D02*
X5463865Y-9887979D01*
X5463865Y-9887979D02*
X5454341Y-9907027D01*
X5454341Y-9907027D02*
X5444817Y-9916551D01*
X5444817Y-9916551D02*
X5425769Y-9926075D01*
X5425769Y-9926075D02*
X5387674Y-9926075D01*
X5387674Y-9926075D02*
X5368627Y-9935598D01*
X5368627Y-9935598D02*
X5359103Y-9945122D01*
X5359103Y-9945122D02*
X5349579Y-9964170D01*
X5349579Y-9964170D02*
X5349579Y-10002265D01*
X5349579Y-10002265D02*
X5359103Y-10021313D01*
X5359103Y-10021313D02*
X5368627Y-10030837D01*
X5368627Y-10030837D02*
X5387674Y-10040360D01*
X5387674Y-10040360D02*
X5425769Y-10040360D01*
X5425769Y-10040360D02*
X5444817Y-10030837D01*
X5444817Y-10030837D02*
X5454341Y-10021313D01*
X5454341Y-10021313D02*
X5463865Y-10002265D01*
X5463865Y-10002265D02*
X5463865Y-9964170D01*
X5463865Y-9964170D02*
X5454341Y-9945122D01*
X5454341Y-9945122D02*
X5444817Y-9935598D01*
X5444817Y-9935598D02*
X5425769Y-9926075D01*
X5701960Y-10040360D02*
X5701960Y-9840360D01*
X5787674Y-10040360D02*
X5787674Y-9935598D01*
X5787674Y-9935598D02*
X5778150Y-9916551D01*
X5778150Y-9916551D02*
X5759103Y-9907027D01*
X5759103Y-9907027D02*
X5730531Y-9907027D01*
X5730531Y-9907027D02*
X5711484Y-9916551D01*
X5711484Y-9916551D02*
X5701960Y-9926075D01*
X5911484Y-10040360D02*
X5892436Y-10030837D01*
X5892436Y-10030837D02*
X5882912Y-10021313D01*
X5882912Y-10021313D02*
X5873388Y-10002265D01*
X5873388Y-10002265D02*
X5873388Y-9945122D01*
X5873388Y-9945122D02*
X5882912Y-9926075D01*
X5882912Y-9926075D02*
X5892436Y-9916551D01*
X5892436Y-9916551D02*
X5911484Y-9907027D01*
X5911484Y-9907027D02*
X5940055Y-9907027D01*
X5940055Y-9907027D02*
X5959103Y-9916551D01*
X5959103Y-9916551D02*
X5968627Y-9926075D01*
X5968627Y-9926075D02*
X5978150Y-9945122D01*
X5978150Y-9945122D02*
X5978150Y-10002265D01*
X5978150Y-10002265D02*
X5968627Y-10021313D01*
X5968627Y-10021313D02*
X5959103Y-10030837D01*
X5959103Y-10030837D02*
X5940055Y-10040360D01*
X5940055Y-10040360D02*
X5911484Y-10040360D01*
X6092436Y-10040360D02*
X6073388Y-10030837D01*
X6073388Y-10030837D02*
X6063865Y-10011789D01*
X6063865Y-10011789D02*
X6063865Y-9840360D01*
X6244817Y-10030837D02*
X6225769Y-10040360D01*
X6225769Y-10040360D02*
X6187674Y-10040360D01*
X6187674Y-10040360D02*
X6168627Y-10030837D01*
X6168627Y-10030837D02*
X6159103Y-10011789D01*
X6159103Y-10011789D02*
X6159103Y-9935598D01*
X6159103Y-9935598D02*
X6168627Y-9916551D01*
X6168627Y-9916551D02*
X6187674Y-9907027D01*
X6187674Y-9907027D02*
X6225769Y-9907027D01*
X6225769Y-9907027D02*
X6244817Y-9916551D01*
X6244817Y-9916551D02*
X6254341Y-9935598D01*
X6254341Y-9935598D02*
X6254341Y-9954646D01*
X6254341Y-9954646D02*
X6159103Y-9973694D01*
X6330531Y-10030837D02*
X6349579Y-10040360D01*
X6349579Y-10040360D02*
X6387674Y-10040360D01*
X6387674Y-10040360D02*
X6406722Y-10030837D01*
X6406722Y-10030837D02*
X6416246Y-10011789D01*
X6416246Y-10011789D02*
X6416246Y-10002265D01*
X6416246Y-10002265D02*
X6406722Y-9983217D01*
X6406722Y-9983217D02*
X6387674Y-9973694D01*
X6387674Y-9973694D02*
X6359103Y-9973694D01*
X6359103Y-9973694D02*
X6340055Y-9964170D01*
X6340055Y-9964170D02*
X6330531Y-9945122D01*
X6330531Y-9945122D02*
X6330531Y-9935598D01*
X6330531Y-9935598D02*
X6340055Y-9916551D01*
X6340055Y-9916551D02*
X6359103Y-9907027D01*
X6359103Y-9907027D02*
X6387674Y-9907027D01*
X6387674Y-9907027D02*
X6406722Y-9916551D01*
X6482912Y-10116551D02*
X6492436Y-10107027D01*
X6492436Y-10107027D02*
X6511484Y-10078456D01*
X6511484Y-10078456D02*
X6521008Y-10059408D01*
X6521008Y-10059408D02*
X6530531Y-10030837D01*
X6530531Y-10030837D02*
X6540055Y-9983217D01*
X6540055Y-9983217D02*
X6540055Y-9945122D01*
X6540055Y-9945122D02*
X6530531Y-9897503D01*
X6530531Y-9897503D02*
X6521008Y-9868932D01*
X6521008Y-9868932D02*
X6511484Y-9849884D01*
X6511484Y-9849884D02*
X6492436Y-9821313D01*
X6492436Y-9821313D02*
X6482912Y-9811789D01*
X6844817Y-10116551D02*
X6835293Y-10107027D01*
X6835293Y-10107027D02*
X6816246Y-10078456D01*
X6816246Y-10078456D02*
X6806722Y-10059408D01*
X6806722Y-10059408D02*
X6797198Y-10030837D01*
X6797198Y-10030837D02*
X6787674Y-9983217D01*
X6787674Y-9983217D02*
X6787674Y-9945122D01*
X6787674Y-9945122D02*
X6797198Y-9897503D01*
X6797198Y-9897503D02*
X6806722Y-9868932D01*
X6806722Y-9868932D02*
X6816246Y-9849884D01*
X6816246Y-9849884D02*
X6835293Y-9821313D01*
X6835293Y-9821313D02*
X6844817Y-9811789D01*
X6921008Y-9907027D02*
X6921008Y-10040360D01*
X6921008Y-9926075D02*
X6930531Y-9916551D01*
X6930531Y-9916551D02*
X6949579Y-9907027D01*
X6949579Y-9907027D02*
X6978150Y-9907027D01*
X6978150Y-9907027D02*
X6997198Y-9916551D01*
X6997198Y-9916551D02*
X7006722Y-9935598D01*
X7006722Y-9935598D02*
X7006722Y-10040360D01*
X7130531Y-10040360D02*
X7111484Y-10030837D01*
X7111484Y-10030837D02*
X7101960Y-10021313D01*
X7101960Y-10021313D02*
X7092436Y-10002265D01*
X7092436Y-10002265D02*
X7092436Y-9945122D01*
X7092436Y-9945122D02*
X7101960Y-9926075D01*
X7101960Y-9926075D02*
X7111484Y-9916551D01*
X7111484Y-9916551D02*
X7130531Y-9907027D01*
X7130531Y-9907027D02*
X7159103Y-9907027D01*
X7159103Y-9907027D02*
X7178150Y-9916551D01*
X7178150Y-9916551D02*
X7187674Y-9926075D01*
X7187674Y-9926075D02*
X7197198Y-9945122D01*
X7197198Y-9945122D02*
X7197198Y-10002265D01*
X7197198Y-10002265D02*
X7187674Y-10021313D01*
X7187674Y-10021313D02*
X7178150Y-10030837D01*
X7178150Y-10030837D02*
X7159103Y-10040360D01*
X7159103Y-10040360D02*
X7130531Y-10040360D01*
X7254341Y-9907027D02*
X7330531Y-9907027D01*
X7282912Y-9840360D02*
X7282912Y-10011789D01*
X7282912Y-10011789D02*
X7292436Y-10030837D01*
X7292436Y-10030837D02*
X7311484Y-10040360D01*
X7311484Y-10040360D02*
X7330531Y-10040360D01*
X7549579Y-9907027D02*
X7549579Y-10107027D01*
X7549579Y-9916551D02*
X7568627Y-9907027D01*
X7568627Y-9907027D02*
X7606722Y-9907027D01*
X7606722Y-9907027D02*
X7625770Y-9916551D01*
X7625770Y-9916551D02*
X7635293Y-9926075D01*
X7635293Y-9926075D02*
X7644817Y-9945122D01*
X7644817Y-9945122D02*
X7644817Y-10002265D01*
X7644817Y-10002265D02*
X7635293Y-10021313D01*
X7635293Y-10021313D02*
X7625770Y-10030837D01*
X7625770Y-10030837D02*
X7606722Y-10040360D01*
X7606722Y-10040360D02*
X7568627Y-10040360D01*
X7568627Y-10040360D02*
X7549579Y-10030837D01*
X7759103Y-10040360D02*
X7740055Y-10030837D01*
X7740055Y-10030837D02*
X7730531Y-10011789D01*
X7730531Y-10011789D02*
X7730531Y-9840360D01*
X7921008Y-10040360D02*
X7921008Y-9935598D01*
X7921008Y-9935598D02*
X7911484Y-9916551D01*
X7911484Y-9916551D02*
X7892436Y-9907027D01*
X7892436Y-9907027D02*
X7854341Y-9907027D01*
X7854341Y-9907027D02*
X7835293Y-9916551D01*
X7921008Y-10030837D02*
X7901960Y-10040360D01*
X7901960Y-10040360D02*
X7854341Y-10040360D01*
X7854341Y-10040360D02*
X7835293Y-10030837D01*
X7835293Y-10030837D02*
X7825770Y-10011789D01*
X7825770Y-10011789D02*
X7825770Y-9992741D01*
X7825770Y-9992741D02*
X7835293Y-9973694D01*
X7835293Y-9973694D02*
X7854341Y-9964170D01*
X7854341Y-9964170D02*
X7901960Y-9964170D01*
X7901960Y-9964170D02*
X7921008Y-9954646D01*
X7987674Y-9907027D02*
X8063865Y-9907027D01*
X8016246Y-9840360D02*
X8016246Y-10011789D01*
X8016246Y-10011789D02*
X8025770Y-10030837D01*
X8025770Y-10030837D02*
X8044817Y-10040360D01*
X8044817Y-10040360D02*
X8063865Y-10040360D01*
X8206722Y-10030837D02*
X8187674Y-10040360D01*
X8187674Y-10040360D02*
X8149579Y-10040360D01*
X8149579Y-10040360D02*
X8130531Y-10030837D01*
X8130531Y-10030837D02*
X8121008Y-10011789D01*
X8121008Y-10011789D02*
X8121008Y-9935598D01*
X8121008Y-9935598D02*
X8130531Y-9916551D01*
X8130531Y-9916551D02*
X8149579Y-9907027D01*
X8149579Y-9907027D02*
X8187674Y-9907027D01*
X8187674Y-9907027D02*
X8206722Y-9916551D01*
X8206722Y-9916551D02*
X8216246Y-9935598D01*
X8216246Y-9935598D02*
X8216246Y-9954646D01*
X8216246Y-9954646D02*
X8121008Y-9973694D01*
X8387674Y-10040360D02*
X8387674Y-9840360D01*
X8387674Y-10030837D02*
X8368627Y-10040360D01*
X8368627Y-10040360D02*
X8330531Y-10040360D01*
X8330531Y-10040360D02*
X8311484Y-10030837D01*
X8311484Y-10030837D02*
X8301960Y-10021313D01*
X8301960Y-10021313D02*
X8292436Y-10002265D01*
X8292436Y-10002265D02*
X8292436Y-9945122D01*
X8292436Y-9945122D02*
X8301960Y-9926075D01*
X8301960Y-9926075D02*
X8311484Y-9916551D01*
X8311484Y-9916551D02*
X8330531Y-9907027D01*
X8330531Y-9907027D02*
X8368627Y-9907027D01*
X8368627Y-9907027D02*
X8387674Y-9916551D01*
X8463865Y-10116551D02*
X8473389Y-10107027D01*
X8473389Y-10107027D02*
X8492436Y-10078456D01*
X8492436Y-10078456D02*
X8501960Y-10059408D01*
X8501960Y-10059408D02*
X8511484Y-10030837D01*
X8511484Y-10030837D02*
X8521008Y-9983217D01*
X8521008Y-9983217D02*
X8521008Y-9945122D01*
X8521008Y-9945122D02*
X8511484Y-9897503D01*
X8511484Y-9897503D02*
X8501960Y-9868932D01*
X8501960Y-9868932D02*
X8492436Y-9849884D01*
X8492436Y-9849884D02*
X8473389Y-9821313D01*
X8473389Y-9821313D02*
X8463865Y-9811789D01*
X1530531Y-10242837D02*
G75*
G03*
X1530531Y-10242837I-100000J0D01*
G01*
X1759102Y-10135360D02*
X1882912Y-10135360D01*
X1882912Y-10135360D02*
X1816245Y-10211551D01*
X1816245Y-10211551D02*
X1844817Y-10211551D01*
X1844817Y-10211551D02*
X1863864Y-10221075D01*
X1863864Y-10221075D02*
X1873388Y-10230598D01*
X1873388Y-10230598D02*
X1882912Y-10249646D01*
X1882912Y-10249646D02*
X1882912Y-10297265D01*
X1882912Y-10297265D02*
X1873388Y-10316313D01*
X1873388Y-10316313D02*
X1863864Y-10325837D01*
X1863864Y-10325837D02*
X1844817Y-10335360D01*
X1844817Y-10335360D02*
X1787674Y-10335360D01*
X1787674Y-10335360D02*
X1768626Y-10325837D01*
X1768626Y-10325837D02*
X1759102Y-10316313D01*
X1968626Y-10316313D02*
X1978150Y-10325837D01*
X1978150Y-10325837D02*
X1968626Y-10335360D01*
X1968626Y-10335360D02*
X1959102Y-10325837D01*
X1959102Y-10325837D02*
X1968626Y-10316313D01*
X1968626Y-10316313D02*
X1968626Y-10335360D01*
X2101960Y-10135360D02*
X2121007Y-10135360D01*
X2121007Y-10135360D02*
X2140055Y-10144884D01*
X2140055Y-10144884D02*
X2149579Y-10154408D01*
X2149579Y-10154408D02*
X2159102Y-10173456D01*
X2159102Y-10173456D02*
X2168626Y-10211551D01*
X2168626Y-10211551D02*
X2168626Y-10259170D01*
X2168626Y-10259170D02*
X2159102Y-10297265D01*
X2159102Y-10297265D02*
X2149579Y-10316313D01*
X2149579Y-10316313D02*
X2140055Y-10325837D01*
X2140055Y-10325837D02*
X2121007Y-10335360D01*
X2121007Y-10335360D02*
X2101960Y-10335360D01*
X2101960Y-10335360D02*
X2082912Y-10325837D01*
X2082912Y-10325837D02*
X2073388Y-10316313D01*
X2073388Y-10316313D02*
X2063864Y-10297265D01*
X2063864Y-10297265D02*
X2054340Y-10259170D01*
X2054340Y-10259170D02*
X2054340Y-10211551D01*
X2054340Y-10211551D02*
X2063864Y-10173456D01*
X2063864Y-10173456D02*
X2073388Y-10154408D01*
X2073388Y-10154408D02*
X2082912Y-10144884D01*
X2082912Y-10144884D02*
X2101960Y-10135360D01*
X2292436Y-10135360D02*
X2311483Y-10135360D01*
X2311483Y-10135360D02*
X2330531Y-10144884D01*
X2330531Y-10144884D02*
X2340055Y-10154408D01*
X2340055Y-10154408D02*
X2349579Y-10173456D01*
X2349579Y-10173456D02*
X2359102Y-10211551D01*
X2359102Y-10211551D02*
X2359102Y-10259170D01*
X2359102Y-10259170D02*
X2349579Y-10297265D01*
X2349579Y-10297265D02*
X2340055Y-10316313D01*
X2340055Y-10316313D02*
X2330531Y-10325837D01*
X2330531Y-10325837D02*
X2311483Y-10335360D01*
X2311483Y-10335360D02*
X2292436Y-10335360D01*
X2292436Y-10335360D02*
X2273388Y-10325837D01*
X2273388Y-10325837D02*
X2263864Y-10316313D01*
X2263864Y-10316313D02*
X2254341Y-10297265D01*
X2254341Y-10297265D02*
X2244817Y-10259170D01*
X2244817Y-10259170D02*
X2244817Y-10211551D01*
X2244817Y-10211551D02*
X2254341Y-10173456D01*
X2254341Y-10173456D02*
X2263864Y-10154408D01*
X2263864Y-10154408D02*
X2273388Y-10144884D01*
X2273388Y-10144884D02*
X2292436Y-10135360D01*
X2482912Y-10135360D02*
X2501960Y-10135360D01*
X2501960Y-10135360D02*
X2521007Y-10144884D01*
X2521007Y-10144884D02*
X2530531Y-10154408D01*
X2530531Y-10154408D02*
X2540055Y-10173456D01*
X2540055Y-10173456D02*
X2549579Y-10211551D01*
X2549579Y-10211551D02*
X2549579Y-10259170D01*
X2549579Y-10259170D02*
X2540055Y-10297265D01*
X2540055Y-10297265D02*
X2530531Y-10316313D01*
X2530531Y-10316313D02*
X2521007Y-10325837D01*
X2521007Y-10325837D02*
X2501960Y-10335360D01*
X2501960Y-10335360D02*
X2482912Y-10335360D01*
X2482912Y-10335360D02*
X2463864Y-10325837D01*
X2463864Y-10325837D02*
X2454341Y-10316313D01*
X2454341Y-10316313D02*
X2444817Y-10297265D01*
X2444817Y-10297265D02*
X2435293Y-10259170D01*
X2435293Y-10259170D02*
X2435293Y-10211551D01*
X2435293Y-10211551D02*
X2444817Y-10173456D01*
X2444817Y-10173456D02*
X2454341Y-10154408D01*
X2454341Y-10154408D02*
X2463864Y-10144884D01*
X2463864Y-10144884D02*
X2482912Y-10135360D01*
X2635293Y-10335360D02*
X2635293Y-10202027D01*
X2635293Y-10221075D02*
X2644817Y-10211551D01*
X2644817Y-10211551D02*
X2663864Y-10202027D01*
X2663864Y-10202027D02*
X2692436Y-10202027D01*
X2692436Y-10202027D02*
X2711483Y-10211551D01*
X2711483Y-10211551D02*
X2721007Y-10230598D01*
X2721007Y-10230598D02*
X2721007Y-10335360D01*
X2721007Y-10230598D02*
X2730531Y-10211551D01*
X2730531Y-10211551D02*
X2749579Y-10202027D01*
X2749579Y-10202027D02*
X2778150Y-10202027D01*
X2778150Y-10202027D02*
X2797198Y-10211551D01*
X2797198Y-10211551D02*
X2806721Y-10230598D01*
X2806721Y-10230598D02*
X2806721Y-10335360D01*
X2901960Y-10335360D02*
X2901960Y-10202027D01*
X2901960Y-10221075D02*
X2911483Y-10211551D01*
X2911483Y-10211551D02*
X2930531Y-10202027D01*
X2930531Y-10202027D02*
X2959102Y-10202027D01*
X2959102Y-10202027D02*
X2978150Y-10211551D01*
X2978150Y-10211551D02*
X2987674Y-10230598D01*
X2987674Y-10230598D02*
X2987674Y-10335360D01*
X2987674Y-10230598D02*
X2997198Y-10211551D01*
X2997198Y-10211551D02*
X3016245Y-10202027D01*
X3016245Y-10202027D02*
X3044817Y-10202027D01*
X3044817Y-10202027D02*
X3063864Y-10211551D01*
X3063864Y-10211551D02*
X3073388Y-10230598D01*
X3073388Y-10230598D02*
X3073388Y-10335360D01*
X3463864Y-10125837D02*
X3292436Y-10382979D01*
X3721007Y-10135360D02*
X3740055Y-10135360D01*
X3740055Y-10135360D02*
X3759103Y-10144884D01*
X3759103Y-10144884D02*
X3768626Y-10154408D01*
X3768626Y-10154408D02*
X3778150Y-10173456D01*
X3778150Y-10173456D02*
X3787674Y-10211551D01*
X3787674Y-10211551D02*
X3787674Y-10259170D01*
X3787674Y-10259170D02*
X3778150Y-10297265D01*
X3778150Y-10297265D02*
X3768626Y-10316313D01*
X3768626Y-10316313D02*
X3759103Y-10325837D01*
X3759103Y-10325837D02*
X3740055Y-10335360D01*
X3740055Y-10335360D02*
X3721007Y-10335360D01*
X3721007Y-10335360D02*
X3701960Y-10325837D01*
X3701960Y-10325837D02*
X3692436Y-10316313D01*
X3692436Y-10316313D02*
X3682912Y-10297265D01*
X3682912Y-10297265D02*
X3673388Y-10259170D01*
X3673388Y-10259170D02*
X3673388Y-10211551D01*
X3673388Y-10211551D02*
X3682912Y-10173456D01*
X3682912Y-10173456D02*
X3692436Y-10154408D01*
X3692436Y-10154408D02*
X3701960Y-10144884D01*
X3701960Y-10144884D02*
X3721007Y-10135360D01*
X3873388Y-10316313D02*
X3882912Y-10325837D01*
X3882912Y-10325837D02*
X3873388Y-10335360D01*
X3873388Y-10335360D02*
X3863864Y-10325837D01*
X3863864Y-10325837D02*
X3873388Y-10316313D01*
X3873388Y-10316313D02*
X3873388Y-10335360D01*
X4073388Y-10335360D02*
X3959103Y-10335360D01*
X4016245Y-10335360D02*
X4016245Y-10135360D01*
X4016245Y-10135360D02*
X3997198Y-10163932D01*
X3997198Y-10163932D02*
X3978150Y-10182979D01*
X3978150Y-10182979D02*
X3959103Y-10192503D01*
X4263865Y-10335360D02*
X4149579Y-10335360D01*
X4206722Y-10335360D02*
X4206722Y-10135360D01*
X4206722Y-10135360D02*
X4187674Y-10163932D01*
X4187674Y-10163932D02*
X4168626Y-10182979D01*
X4168626Y-10182979D02*
X4149579Y-10192503D01*
X4378150Y-10221075D02*
X4359103Y-10211551D01*
X4359103Y-10211551D02*
X4349579Y-10202027D01*
X4349579Y-10202027D02*
X4340055Y-10182979D01*
X4340055Y-10182979D02*
X4340055Y-10173456D01*
X4340055Y-10173456D02*
X4349579Y-10154408D01*
X4349579Y-10154408D02*
X4359103Y-10144884D01*
X4359103Y-10144884D02*
X4378150Y-10135360D01*
X4378150Y-10135360D02*
X4416246Y-10135360D01*
X4416246Y-10135360D02*
X4435293Y-10144884D01*
X4435293Y-10144884D02*
X4444817Y-10154408D01*
X4444817Y-10154408D02*
X4454341Y-10173456D01*
X4454341Y-10173456D02*
X4454341Y-10182979D01*
X4454341Y-10182979D02*
X4444817Y-10202027D01*
X4444817Y-10202027D02*
X4435293Y-10211551D01*
X4435293Y-10211551D02*
X4416246Y-10221075D01*
X4416246Y-10221075D02*
X4378150Y-10221075D01*
X4378150Y-10221075D02*
X4359103Y-10230598D01*
X4359103Y-10230598D02*
X4349579Y-10240122D01*
X4349579Y-10240122D02*
X4340055Y-10259170D01*
X4340055Y-10259170D02*
X4340055Y-10297265D01*
X4340055Y-10297265D02*
X4349579Y-10316313D01*
X4349579Y-10316313D02*
X4359103Y-10325837D01*
X4359103Y-10325837D02*
X4378150Y-10335360D01*
X4378150Y-10335360D02*
X4416246Y-10335360D01*
X4416246Y-10335360D02*
X4435293Y-10325837D01*
X4435293Y-10325837D02*
X4444817Y-10316313D01*
X4444817Y-10316313D02*
X4454341Y-10297265D01*
X4454341Y-10297265D02*
X4454341Y-10259170D01*
X4454341Y-10259170D02*
X4444817Y-10240122D01*
X4444817Y-10240122D02*
X4435293Y-10230598D01*
X4435293Y-10230598D02*
X4416246Y-10221075D01*
X4644817Y-10335360D02*
X4530531Y-10335360D01*
X4587674Y-10335360D02*
X4587674Y-10135360D01*
X4587674Y-10135360D02*
X4568626Y-10163932D01*
X4568626Y-10163932D02*
X4549579Y-10182979D01*
X4549579Y-10182979D02*
X4530531Y-10192503D01*
X4721007Y-10135360D02*
X4721007Y-10173456D01*
X4797198Y-10135360D02*
X4797198Y-10173456D01*
X5092436Y-10411551D02*
X5082912Y-10402027D01*
X5082912Y-10402027D02*
X5063865Y-10373456D01*
X5063865Y-10373456D02*
X5054341Y-10354408D01*
X5054341Y-10354408D02*
X5044817Y-10325837D01*
X5044817Y-10325837D02*
X5035293Y-10278217D01*
X5035293Y-10278217D02*
X5035293Y-10240122D01*
X5035293Y-10240122D02*
X5044817Y-10192503D01*
X5044817Y-10192503D02*
X5054341Y-10163932D01*
X5054341Y-10163932D02*
X5063865Y-10144884D01*
X5063865Y-10144884D02*
X5082912Y-10116313D01*
X5082912Y-10116313D02*
X5092436Y-10106789D01*
X5149579Y-10135360D02*
X5273388Y-10135360D01*
X5273388Y-10135360D02*
X5206722Y-10211551D01*
X5206722Y-10211551D02*
X5235293Y-10211551D01*
X5235293Y-10211551D02*
X5254341Y-10221075D01*
X5254341Y-10221075D02*
X5263865Y-10230598D01*
X5263865Y-10230598D02*
X5273388Y-10249646D01*
X5273388Y-10249646D02*
X5273388Y-10297265D01*
X5273388Y-10297265D02*
X5263865Y-10316313D01*
X5263865Y-10316313D02*
X5254341Y-10325837D01*
X5254341Y-10325837D02*
X5235293Y-10335360D01*
X5235293Y-10335360D02*
X5178150Y-10335360D01*
X5178150Y-10335360D02*
X5159103Y-10325837D01*
X5159103Y-10325837D02*
X5149579Y-10316313D01*
X5387674Y-10221075D02*
X5368627Y-10211551D01*
X5368627Y-10211551D02*
X5359103Y-10202027D01*
X5359103Y-10202027D02*
X5349579Y-10182979D01*
X5349579Y-10182979D02*
X5349579Y-10173456D01*
X5349579Y-10173456D02*
X5359103Y-10154408D01*
X5359103Y-10154408D02*
X5368627Y-10144884D01*
X5368627Y-10144884D02*
X5387674Y-10135360D01*
X5387674Y-10135360D02*
X5425769Y-10135360D01*
X5425769Y-10135360D02*
X5444817Y-10144884D01*
X5444817Y-10144884D02*
X5454341Y-10154408D01*
X5454341Y-10154408D02*
X5463865Y-10173456D01*
X5463865Y-10173456D02*
X5463865Y-10182979D01*
X5463865Y-10182979D02*
X5454341Y-10202027D01*
X5454341Y-10202027D02*
X5444817Y-10211551D01*
X5444817Y-10211551D02*
X5425769Y-10221075D01*
X5425769Y-10221075D02*
X5387674Y-10221075D01*
X5387674Y-10221075D02*
X5368627Y-10230598D01*
X5368627Y-10230598D02*
X5359103Y-10240122D01*
X5359103Y-10240122D02*
X5349579Y-10259170D01*
X5349579Y-10259170D02*
X5349579Y-10297265D01*
X5349579Y-10297265D02*
X5359103Y-10316313D01*
X5359103Y-10316313D02*
X5368627Y-10325837D01*
X5368627Y-10325837D02*
X5387674Y-10335360D01*
X5387674Y-10335360D02*
X5425769Y-10335360D01*
X5425769Y-10335360D02*
X5444817Y-10325837D01*
X5444817Y-10325837D02*
X5454341Y-10316313D01*
X5454341Y-10316313D02*
X5463865Y-10297265D01*
X5463865Y-10297265D02*
X5463865Y-10259170D01*
X5463865Y-10259170D02*
X5454341Y-10240122D01*
X5454341Y-10240122D02*
X5444817Y-10230598D01*
X5444817Y-10230598D02*
X5425769Y-10221075D01*
X5701960Y-10335360D02*
X5701960Y-10135360D01*
X5787674Y-10335360D02*
X5787674Y-10230598D01*
X5787674Y-10230598D02*
X5778150Y-10211551D01*
X5778150Y-10211551D02*
X5759103Y-10202027D01*
X5759103Y-10202027D02*
X5730531Y-10202027D01*
X5730531Y-10202027D02*
X5711484Y-10211551D01*
X5711484Y-10211551D02*
X5701960Y-10221075D01*
X5911484Y-10335360D02*
X5892436Y-10325837D01*
X5892436Y-10325837D02*
X5882912Y-10316313D01*
X5882912Y-10316313D02*
X5873388Y-10297265D01*
X5873388Y-10297265D02*
X5873388Y-10240122D01*
X5873388Y-10240122D02*
X5882912Y-10221075D01*
X5882912Y-10221075D02*
X5892436Y-10211551D01*
X5892436Y-10211551D02*
X5911484Y-10202027D01*
X5911484Y-10202027D02*
X5940055Y-10202027D01*
X5940055Y-10202027D02*
X5959103Y-10211551D01*
X5959103Y-10211551D02*
X5968627Y-10221075D01*
X5968627Y-10221075D02*
X5978150Y-10240122D01*
X5978150Y-10240122D02*
X5978150Y-10297265D01*
X5978150Y-10297265D02*
X5968627Y-10316313D01*
X5968627Y-10316313D02*
X5959103Y-10325837D01*
X5959103Y-10325837D02*
X5940055Y-10335360D01*
X5940055Y-10335360D02*
X5911484Y-10335360D01*
X6092436Y-10335360D02*
X6073388Y-10325837D01*
X6073388Y-10325837D02*
X6063865Y-10306789D01*
X6063865Y-10306789D02*
X6063865Y-10135360D01*
X6244817Y-10325837D02*
X6225769Y-10335360D01*
X6225769Y-10335360D02*
X6187674Y-10335360D01*
X6187674Y-10335360D02*
X6168627Y-10325837D01*
X6168627Y-10325837D02*
X6159103Y-10306789D01*
X6159103Y-10306789D02*
X6159103Y-10230598D01*
X6159103Y-10230598D02*
X6168627Y-10211551D01*
X6168627Y-10211551D02*
X6187674Y-10202027D01*
X6187674Y-10202027D02*
X6225769Y-10202027D01*
X6225769Y-10202027D02*
X6244817Y-10211551D01*
X6244817Y-10211551D02*
X6254341Y-10230598D01*
X6254341Y-10230598D02*
X6254341Y-10249646D01*
X6254341Y-10249646D02*
X6159103Y-10268694D01*
X6330531Y-10325837D02*
X6349579Y-10335360D01*
X6349579Y-10335360D02*
X6387674Y-10335360D01*
X6387674Y-10335360D02*
X6406722Y-10325837D01*
X6406722Y-10325837D02*
X6416246Y-10306789D01*
X6416246Y-10306789D02*
X6416246Y-10297265D01*
X6416246Y-10297265D02*
X6406722Y-10278217D01*
X6406722Y-10278217D02*
X6387674Y-10268694D01*
X6387674Y-10268694D02*
X6359103Y-10268694D01*
X6359103Y-10268694D02*
X6340055Y-10259170D01*
X6340055Y-10259170D02*
X6330531Y-10240122D01*
X6330531Y-10240122D02*
X6330531Y-10230598D01*
X6330531Y-10230598D02*
X6340055Y-10211551D01*
X6340055Y-10211551D02*
X6359103Y-10202027D01*
X6359103Y-10202027D02*
X6387674Y-10202027D01*
X6387674Y-10202027D02*
X6406722Y-10211551D01*
X6482912Y-10411551D02*
X6492436Y-10402027D01*
X6492436Y-10402027D02*
X6511484Y-10373456D01*
X6511484Y-10373456D02*
X6521008Y-10354408D01*
X6521008Y-10354408D02*
X6530531Y-10325837D01*
X6530531Y-10325837D02*
X6540055Y-10278217D01*
X6540055Y-10278217D02*
X6540055Y-10240122D01*
X6540055Y-10240122D02*
X6530531Y-10192503D01*
X6530531Y-10192503D02*
X6521008Y-10163932D01*
X6521008Y-10163932D02*
X6511484Y-10144884D01*
X6511484Y-10144884D02*
X6492436Y-10116313D01*
X6492436Y-10116313D02*
X6482912Y-10106789D01*
X6844817Y-10411551D02*
X6835293Y-10402027D01*
X6835293Y-10402027D02*
X6816246Y-10373456D01*
X6816246Y-10373456D02*
X6806722Y-10354408D01*
X6806722Y-10354408D02*
X6797198Y-10325837D01*
X6797198Y-10325837D02*
X6787674Y-10278217D01*
X6787674Y-10278217D02*
X6787674Y-10240122D01*
X6787674Y-10240122D02*
X6797198Y-10192503D01*
X6797198Y-10192503D02*
X6806722Y-10163932D01*
X6806722Y-10163932D02*
X6816246Y-10144884D01*
X6816246Y-10144884D02*
X6835293Y-10116313D01*
X6835293Y-10116313D02*
X6844817Y-10106789D01*
X6921008Y-10202027D02*
X6921008Y-10335360D01*
X6921008Y-10221075D02*
X6930531Y-10211551D01*
X6930531Y-10211551D02*
X6949579Y-10202027D01*
X6949579Y-10202027D02*
X6978150Y-10202027D01*
X6978150Y-10202027D02*
X6997198Y-10211551D01*
X6997198Y-10211551D02*
X7006722Y-10230598D01*
X7006722Y-10230598D02*
X7006722Y-10335360D01*
X7130531Y-10335360D02*
X7111484Y-10325837D01*
X7111484Y-10325837D02*
X7101960Y-10316313D01*
X7101960Y-10316313D02*
X7092436Y-10297265D01*
X7092436Y-10297265D02*
X7092436Y-10240122D01*
X7092436Y-10240122D02*
X7101960Y-10221075D01*
X7101960Y-10221075D02*
X7111484Y-10211551D01*
X7111484Y-10211551D02*
X7130531Y-10202027D01*
X7130531Y-10202027D02*
X7159103Y-10202027D01*
X7159103Y-10202027D02*
X7178150Y-10211551D01*
X7178150Y-10211551D02*
X7187674Y-10221075D01*
X7187674Y-10221075D02*
X7197198Y-10240122D01*
X7197198Y-10240122D02*
X7197198Y-10297265D01*
X7197198Y-10297265D02*
X7187674Y-10316313D01*
X7187674Y-10316313D02*
X7178150Y-10325837D01*
X7178150Y-10325837D02*
X7159103Y-10335360D01*
X7159103Y-10335360D02*
X7130531Y-10335360D01*
X7254341Y-10202027D02*
X7330531Y-10202027D01*
X7282912Y-10135360D02*
X7282912Y-10306789D01*
X7282912Y-10306789D02*
X7292436Y-10325837D01*
X7292436Y-10325837D02*
X7311484Y-10335360D01*
X7311484Y-10335360D02*
X7330531Y-10335360D01*
X7549579Y-10202027D02*
X7549579Y-10402027D01*
X7549579Y-10211551D02*
X7568627Y-10202027D01*
X7568627Y-10202027D02*
X7606722Y-10202027D01*
X7606722Y-10202027D02*
X7625770Y-10211551D01*
X7625770Y-10211551D02*
X7635293Y-10221075D01*
X7635293Y-10221075D02*
X7644817Y-10240122D01*
X7644817Y-10240122D02*
X7644817Y-10297265D01*
X7644817Y-10297265D02*
X7635293Y-10316313D01*
X7635293Y-10316313D02*
X7625770Y-10325837D01*
X7625770Y-10325837D02*
X7606722Y-10335360D01*
X7606722Y-10335360D02*
X7568627Y-10335360D01*
X7568627Y-10335360D02*
X7549579Y-10325837D01*
X7759103Y-10335360D02*
X7740055Y-10325837D01*
X7740055Y-10325837D02*
X7730531Y-10306789D01*
X7730531Y-10306789D02*
X7730531Y-10135360D01*
X7921008Y-10335360D02*
X7921008Y-10230598D01*
X7921008Y-10230598D02*
X7911484Y-10211551D01*
X7911484Y-10211551D02*
X7892436Y-10202027D01*
X7892436Y-10202027D02*
X7854341Y-10202027D01*
X7854341Y-10202027D02*
X7835293Y-10211551D01*
X7921008Y-10325837D02*
X7901960Y-10335360D01*
X7901960Y-10335360D02*
X7854341Y-10335360D01*
X7854341Y-10335360D02*
X7835293Y-10325837D01*
X7835293Y-10325837D02*
X7825770Y-10306789D01*
X7825770Y-10306789D02*
X7825770Y-10287741D01*
X7825770Y-10287741D02*
X7835293Y-10268694D01*
X7835293Y-10268694D02*
X7854341Y-10259170D01*
X7854341Y-10259170D02*
X7901960Y-10259170D01*
X7901960Y-10259170D02*
X7921008Y-10249646D01*
X7987674Y-10202027D02*
X8063865Y-10202027D01*
X8016246Y-10135360D02*
X8016246Y-10306789D01*
X8016246Y-10306789D02*
X8025770Y-10325837D01*
X8025770Y-10325837D02*
X8044817Y-10335360D01*
X8044817Y-10335360D02*
X8063865Y-10335360D01*
X8206722Y-10325837D02*
X8187674Y-10335360D01*
X8187674Y-10335360D02*
X8149579Y-10335360D01*
X8149579Y-10335360D02*
X8130531Y-10325837D01*
X8130531Y-10325837D02*
X8121008Y-10306789D01*
X8121008Y-10306789D02*
X8121008Y-10230598D01*
X8121008Y-10230598D02*
X8130531Y-10211551D01*
X8130531Y-10211551D02*
X8149579Y-10202027D01*
X8149579Y-10202027D02*
X8187674Y-10202027D01*
X8187674Y-10202027D02*
X8206722Y-10211551D01*
X8206722Y-10211551D02*
X8216246Y-10230598D01*
X8216246Y-10230598D02*
X8216246Y-10249646D01*
X8216246Y-10249646D02*
X8121008Y-10268694D01*
X8387674Y-10335360D02*
X8387674Y-10135360D01*
X8387674Y-10325837D02*
X8368627Y-10335360D01*
X8368627Y-10335360D02*
X8330531Y-10335360D01*
X8330531Y-10335360D02*
X8311484Y-10325837D01*
X8311484Y-10325837D02*
X8301960Y-10316313D01*
X8301960Y-10316313D02*
X8292436Y-10297265D01*
X8292436Y-10297265D02*
X8292436Y-10240122D01*
X8292436Y-10240122D02*
X8301960Y-10221075D01*
X8301960Y-10221075D02*
X8311484Y-10211551D01*
X8311484Y-10211551D02*
X8330531Y-10202027D01*
X8330531Y-10202027D02*
X8368627Y-10202027D01*
X8368627Y-10202027D02*
X8387674Y-10211551D01*
X8463865Y-10411551D02*
X8473389Y-10402027D01*
X8473389Y-10402027D02*
X8492436Y-10373456D01*
X8492436Y-10373456D02*
X8501960Y-10354408D01*
X8501960Y-10354408D02*
X8511484Y-10325837D01*
X8511484Y-10325837D02*
X8521008Y-10278217D01*
X8521008Y-10278217D02*
X8521008Y-10240122D01*
X8521008Y-10240122D02*
X8511484Y-10192503D01*
X8511484Y-10192503D02*
X8501960Y-10163932D01*
X8501960Y-10163932D02*
X8492436Y-10144884D01*
X8492436Y-10144884D02*
X8473389Y-10116313D01*
X8473389Y-10116313D02*
X8463865Y-10106789D01*
X1430531Y-10462837D02*
X1430531Y-10662837D01*
X1330531Y-10562837D02*
X1530531Y-10562837D01*
X1759102Y-10455360D02*
X1882912Y-10455360D01*
X1882912Y-10455360D02*
X1816245Y-10531551D01*
X1816245Y-10531551D02*
X1844817Y-10531551D01*
X1844817Y-10531551D02*
X1863864Y-10541075D01*
X1863864Y-10541075D02*
X1873388Y-10550598D01*
X1873388Y-10550598D02*
X1882912Y-10569646D01*
X1882912Y-10569646D02*
X1882912Y-10617265D01*
X1882912Y-10617265D02*
X1873388Y-10636313D01*
X1873388Y-10636313D02*
X1863864Y-10645837D01*
X1863864Y-10645837D02*
X1844817Y-10655360D01*
X1844817Y-10655360D02*
X1787674Y-10655360D01*
X1787674Y-10655360D02*
X1768626Y-10645837D01*
X1768626Y-10645837D02*
X1759102Y-10636313D01*
X1968626Y-10636313D02*
X1978150Y-10645837D01*
X1978150Y-10645837D02*
X1968626Y-10655360D01*
X1968626Y-10655360D02*
X1959102Y-10645837D01*
X1959102Y-10645837D02*
X1968626Y-10636313D01*
X1968626Y-10636313D02*
X1968626Y-10655360D01*
X2073388Y-10655360D02*
X2111483Y-10655360D01*
X2111483Y-10655360D02*
X2130531Y-10645837D01*
X2130531Y-10645837D02*
X2140055Y-10636313D01*
X2140055Y-10636313D02*
X2159102Y-10607741D01*
X2159102Y-10607741D02*
X2168626Y-10569646D01*
X2168626Y-10569646D02*
X2168626Y-10493456D01*
X2168626Y-10493456D02*
X2159102Y-10474408D01*
X2159102Y-10474408D02*
X2149579Y-10464884D01*
X2149579Y-10464884D02*
X2130531Y-10455360D01*
X2130531Y-10455360D02*
X2092436Y-10455360D01*
X2092436Y-10455360D02*
X2073388Y-10464884D01*
X2073388Y-10464884D02*
X2063864Y-10474408D01*
X2063864Y-10474408D02*
X2054340Y-10493456D01*
X2054340Y-10493456D02*
X2054340Y-10541075D01*
X2054340Y-10541075D02*
X2063864Y-10560122D01*
X2063864Y-10560122D02*
X2073388Y-10569646D01*
X2073388Y-10569646D02*
X2092436Y-10579170D01*
X2092436Y-10579170D02*
X2130531Y-10579170D01*
X2130531Y-10579170D02*
X2149579Y-10569646D01*
X2149579Y-10569646D02*
X2159102Y-10560122D01*
X2159102Y-10560122D02*
X2168626Y-10541075D01*
X2282912Y-10541075D02*
X2263864Y-10531551D01*
X2263864Y-10531551D02*
X2254341Y-10522027D01*
X2254341Y-10522027D02*
X2244817Y-10502979D01*
X2244817Y-10502979D02*
X2244817Y-10493456D01*
X2244817Y-10493456D02*
X2254341Y-10474408D01*
X2254341Y-10474408D02*
X2263864Y-10464884D01*
X2263864Y-10464884D02*
X2282912Y-10455360D01*
X2282912Y-10455360D02*
X2321007Y-10455360D01*
X2321007Y-10455360D02*
X2340055Y-10464884D01*
X2340055Y-10464884D02*
X2349579Y-10474408D01*
X2349579Y-10474408D02*
X2359102Y-10493456D01*
X2359102Y-10493456D02*
X2359102Y-10502979D01*
X2359102Y-10502979D02*
X2349579Y-10522027D01*
X2349579Y-10522027D02*
X2340055Y-10531551D01*
X2340055Y-10531551D02*
X2321007Y-10541075D01*
X2321007Y-10541075D02*
X2282912Y-10541075D01*
X2282912Y-10541075D02*
X2263864Y-10550598D01*
X2263864Y-10550598D02*
X2254341Y-10560122D01*
X2254341Y-10560122D02*
X2244817Y-10579170D01*
X2244817Y-10579170D02*
X2244817Y-10617265D01*
X2244817Y-10617265D02*
X2254341Y-10636313D01*
X2254341Y-10636313D02*
X2263864Y-10645837D01*
X2263864Y-10645837D02*
X2282912Y-10655360D01*
X2282912Y-10655360D02*
X2321007Y-10655360D01*
X2321007Y-10655360D02*
X2340055Y-10645837D01*
X2340055Y-10645837D02*
X2349579Y-10636313D01*
X2349579Y-10636313D02*
X2359102Y-10617265D01*
X2359102Y-10617265D02*
X2359102Y-10579170D01*
X2359102Y-10579170D02*
X2349579Y-10560122D01*
X2349579Y-10560122D02*
X2340055Y-10550598D01*
X2340055Y-10550598D02*
X2321007Y-10541075D01*
X2473388Y-10541075D02*
X2454341Y-10531551D01*
X2454341Y-10531551D02*
X2444817Y-10522027D01*
X2444817Y-10522027D02*
X2435293Y-10502979D01*
X2435293Y-10502979D02*
X2435293Y-10493456D01*
X2435293Y-10493456D02*
X2444817Y-10474408D01*
X2444817Y-10474408D02*
X2454341Y-10464884D01*
X2454341Y-10464884D02*
X2473388Y-10455360D01*
X2473388Y-10455360D02*
X2511483Y-10455360D01*
X2511483Y-10455360D02*
X2530531Y-10464884D01*
X2530531Y-10464884D02*
X2540055Y-10474408D01*
X2540055Y-10474408D02*
X2549579Y-10493456D01*
X2549579Y-10493456D02*
X2549579Y-10502979D01*
X2549579Y-10502979D02*
X2540055Y-10522027D01*
X2540055Y-10522027D02*
X2530531Y-10531551D01*
X2530531Y-10531551D02*
X2511483Y-10541075D01*
X2511483Y-10541075D02*
X2473388Y-10541075D01*
X2473388Y-10541075D02*
X2454341Y-10550598D01*
X2454341Y-10550598D02*
X2444817Y-10560122D01*
X2444817Y-10560122D02*
X2435293Y-10579170D01*
X2435293Y-10579170D02*
X2435293Y-10617265D01*
X2435293Y-10617265D02*
X2444817Y-10636313D01*
X2444817Y-10636313D02*
X2454341Y-10645837D01*
X2454341Y-10645837D02*
X2473388Y-10655360D01*
X2473388Y-10655360D02*
X2511483Y-10655360D01*
X2511483Y-10655360D02*
X2530531Y-10645837D01*
X2530531Y-10645837D02*
X2540055Y-10636313D01*
X2540055Y-10636313D02*
X2549579Y-10617265D01*
X2549579Y-10617265D02*
X2549579Y-10579170D01*
X2549579Y-10579170D02*
X2540055Y-10560122D01*
X2540055Y-10560122D02*
X2530531Y-10550598D01*
X2530531Y-10550598D02*
X2511483Y-10541075D01*
X2635293Y-10655360D02*
X2635293Y-10522027D01*
X2635293Y-10541075D02*
X2644817Y-10531551D01*
X2644817Y-10531551D02*
X2663864Y-10522027D01*
X2663864Y-10522027D02*
X2692436Y-10522027D01*
X2692436Y-10522027D02*
X2711483Y-10531551D01*
X2711483Y-10531551D02*
X2721007Y-10550598D01*
X2721007Y-10550598D02*
X2721007Y-10655360D01*
X2721007Y-10550598D02*
X2730531Y-10531551D01*
X2730531Y-10531551D02*
X2749579Y-10522027D01*
X2749579Y-10522027D02*
X2778150Y-10522027D01*
X2778150Y-10522027D02*
X2797198Y-10531551D01*
X2797198Y-10531551D02*
X2806721Y-10550598D01*
X2806721Y-10550598D02*
X2806721Y-10655360D01*
X2901960Y-10655360D02*
X2901960Y-10522027D01*
X2901960Y-10541075D02*
X2911483Y-10531551D01*
X2911483Y-10531551D02*
X2930531Y-10522027D01*
X2930531Y-10522027D02*
X2959102Y-10522027D01*
X2959102Y-10522027D02*
X2978150Y-10531551D01*
X2978150Y-10531551D02*
X2987674Y-10550598D01*
X2987674Y-10550598D02*
X2987674Y-10655360D01*
X2987674Y-10550598D02*
X2997198Y-10531551D01*
X2997198Y-10531551D02*
X3016245Y-10522027D01*
X3016245Y-10522027D02*
X3044817Y-10522027D01*
X3044817Y-10522027D02*
X3063864Y-10531551D01*
X3063864Y-10531551D02*
X3073388Y-10550598D01*
X3073388Y-10550598D02*
X3073388Y-10655360D01*
X3463864Y-10445837D02*
X3292436Y-10702979D01*
X3721007Y-10455360D02*
X3740055Y-10455360D01*
X3740055Y-10455360D02*
X3759103Y-10464884D01*
X3759103Y-10464884D02*
X3768626Y-10474408D01*
X3768626Y-10474408D02*
X3778150Y-10493456D01*
X3778150Y-10493456D02*
X3787674Y-10531551D01*
X3787674Y-10531551D02*
X3787674Y-10579170D01*
X3787674Y-10579170D02*
X3778150Y-10617265D01*
X3778150Y-10617265D02*
X3768626Y-10636313D01*
X3768626Y-10636313D02*
X3759103Y-10645837D01*
X3759103Y-10645837D02*
X3740055Y-10655360D01*
X3740055Y-10655360D02*
X3721007Y-10655360D01*
X3721007Y-10655360D02*
X3701960Y-10645837D01*
X3701960Y-10645837D02*
X3692436Y-10636313D01*
X3692436Y-10636313D02*
X3682912Y-10617265D01*
X3682912Y-10617265D02*
X3673388Y-10579170D01*
X3673388Y-10579170D02*
X3673388Y-10531551D01*
X3673388Y-10531551D02*
X3682912Y-10493456D01*
X3682912Y-10493456D02*
X3692436Y-10474408D01*
X3692436Y-10474408D02*
X3701960Y-10464884D01*
X3701960Y-10464884D02*
X3721007Y-10455360D01*
X3873388Y-10636313D02*
X3882912Y-10645837D01*
X3882912Y-10645837D02*
X3873388Y-10655360D01*
X3873388Y-10655360D02*
X3863864Y-10645837D01*
X3863864Y-10645837D02*
X3873388Y-10636313D01*
X3873388Y-10636313D02*
X3873388Y-10655360D01*
X4073388Y-10655360D02*
X3959103Y-10655360D01*
X4016245Y-10655360D02*
X4016245Y-10455360D01*
X4016245Y-10455360D02*
X3997198Y-10483932D01*
X3997198Y-10483932D02*
X3978150Y-10502979D01*
X3978150Y-10502979D02*
X3959103Y-10512503D01*
X4254341Y-10455360D02*
X4159103Y-10455360D01*
X4159103Y-10455360D02*
X4149579Y-10550598D01*
X4149579Y-10550598D02*
X4159103Y-10541075D01*
X4159103Y-10541075D02*
X4178150Y-10531551D01*
X4178150Y-10531551D02*
X4225769Y-10531551D01*
X4225769Y-10531551D02*
X4244817Y-10541075D01*
X4244817Y-10541075D02*
X4254341Y-10550598D01*
X4254341Y-10550598D02*
X4263865Y-10569646D01*
X4263865Y-10569646D02*
X4263865Y-10617265D01*
X4263865Y-10617265D02*
X4254341Y-10636313D01*
X4254341Y-10636313D02*
X4244817Y-10645837D01*
X4244817Y-10645837D02*
X4225769Y-10655360D01*
X4225769Y-10655360D02*
X4178150Y-10655360D01*
X4178150Y-10655360D02*
X4159103Y-10645837D01*
X4159103Y-10645837D02*
X4149579Y-10636313D01*
X4330531Y-10455360D02*
X4463865Y-10455360D01*
X4463865Y-10455360D02*
X4378150Y-10655360D01*
X4578150Y-10455360D02*
X4597198Y-10455360D01*
X4597198Y-10455360D02*
X4616246Y-10464884D01*
X4616246Y-10464884D02*
X4625769Y-10474408D01*
X4625769Y-10474408D02*
X4635293Y-10493456D01*
X4635293Y-10493456D02*
X4644817Y-10531551D01*
X4644817Y-10531551D02*
X4644817Y-10579170D01*
X4644817Y-10579170D02*
X4635293Y-10617265D01*
X4635293Y-10617265D02*
X4625769Y-10636313D01*
X4625769Y-10636313D02*
X4616246Y-10645837D01*
X4616246Y-10645837D02*
X4597198Y-10655360D01*
X4597198Y-10655360D02*
X4578150Y-10655360D01*
X4578150Y-10655360D02*
X4559103Y-10645837D01*
X4559103Y-10645837D02*
X4549579Y-10636313D01*
X4549579Y-10636313D02*
X4540055Y-10617265D01*
X4540055Y-10617265D02*
X4530531Y-10579170D01*
X4530531Y-10579170D02*
X4530531Y-10531551D01*
X4530531Y-10531551D02*
X4540055Y-10493456D01*
X4540055Y-10493456D02*
X4549579Y-10474408D01*
X4549579Y-10474408D02*
X4559103Y-10464884D01*
X4559103Y-10464884D02*
X4578150Y-10455360D01*
X4721007Y-10455360D02*
X4721007Y-10493456D01*
X4797198Y-10455360D02*
X4797198Y-10493456D01*
X5092436Y-10731551D02*
X5082912Y-10722027D01*
X5082912Y-10722027D02*
X5063865Y-10693456D01*
X5063865Y-10693456D02*
X5054341Y-10674408D01*
X5054341Y-10674408D02*
X5044817Y-10645837D01*
X5044817Y-10645837D02*
X5035293Y-10598217D01*
X5035293Y-10598217D02*
X5035293Y-10560122D01*
X5035293Y-10560122D02*
X5044817Y-10512503D01*
X5044817Y-10512503D02*
X5054341Y-10483932D01*
X5054341Y-10483932D02*
X5063865Y-10464884D01*
X5063865Y-10464884D02*
X5082912Y-10436313D01*
X5082912Y-10436313D02*
X5092436Y-10426789D01*
X5273388Y-10655360D02*
X5159103Y-10655360D01*
X5216246Y-10655360D02*
X5216246Y-10455360D01*
X5216246Y-10455360D02*
X5197198Y-10483932D01*
X5197198Y-10483932D02*
X5178150Y-10502979D01*
X5178150Y-10502979D02*
X5159103Y-10512503D01*
X5368627Y-10655360D02*
X5406722Y-10655360D01*
X5406722Y-10655360D02*
X5425769Y-10645837D01*
X5425769Y-10645837D02*
X5435293Y-10636313D01*
X5435293Y-10636313D02*
X5454341Y-10607741D01*
X5454341Y-10607741D02*
X5463865Y-10569646D01*
X5463865Y-10569646D02*
X5463865Y-10493456D01*
X5463865Y-10493456D02*
X5454341Y-10474408D01*
X5454341Y-10474408D02*
X5444817Y-10464884D01*
X5444817Y-10464884D02*
X5425769Y-10455360D01*
X5425769Y-10455360D02*
X5387674Y-10455360D01*
X5387674Y-10455360D02*
X5368627Y-10464884D01*
X5368627Y-10464884D02*
X5359103Y-10474408D01*
X5359103Y-10474408D02*
X5349579Y-10493456D01*
X5349579Y-10493456D02*
X5349579Y-10541075D01*
X5349579Y-10541075D02*
X5359103Y-10560122D01*
X5359103Y-10560122D02*
X5368627Y-10569646D01*
X5368627Y-10569646D02*
X5387674Y-10579170D01*
X5387674Y-10579170D02*
X5425769Y-10579170D01*
X5425769Y-10579170D02*
X5444817Y-10569646D01*
X5444817Y-10569646D02*
X5454341Y-10560122D01*
X5454341Y-10560122D02*
X5463865Y-10541075D01*
X5701960Y-10655360D02*
X5701960Y-10455360D01*
X5787674Y-10655360D02*
X5787674Y-10550598D01*
X5787674Y-10550598D02*
X5778150Y-10531551D01*
X5778150Y-10531551D02*
X5759103Y-10522027D01*
X5759103Y-10522027D02*
X5730531Y-10522027D01*
X5730531Y-10522027D02*
X5711484Y-10531551D01*
X5711484Y-10531551D02*
X5701960Y-10541075D01*
X5911484Y-10655360D02*
X5892436Y-10645837D01*
X5892436Y-10645837D02*
X5882912Y-10636313D01*
X5882912Y-10636313D02*
X5873388Y-10617265D01*
X5873388Y-10617265D02*
X5873388Y-10560122D01*
X5873388Y-10560122D02*
X5882912Y-10541075D01*
X5882912Y-10541075D02*
X5892436Y-10531551D01*
X5892436Y-10531551D02*
X5911484Y-10522027D01*
X5911484Y-10522027D02*
X5940055Y-10522027D01*
X5940055Y-10522027D02*
X5959103Y-10531551D01*
X5959103Y-10531551D02*
X5968627Y-10541075D01*
X5968627Y-10541075D02*
X5978150Y-10560122D01*
X5978150Y-10560122D02*
X5978150Y-10617265D01*
X5978150Y-10617265D02*
X5968627Y-10636313D01*
X5968627Y-10636313D02*
X5959103Y-10645837D01*
X5959103Y-10645837D02*
X5940055Y-10655360D01*
X5940055Y-10655360D02*
X5911484Y-10655360D01*
X6092436Y-10655360D02*
X6073388Y-10645837D01*
X6073388Y-10645837D02*
X6063865Y-10626789D01*
X6063865Y-10626789D02*
X6063865Y-10455360D01*
X6244817Y-10645837D02*
X6225769Y-10655360D01*
X6225769Y-10655360D02*
X6187674Y-10655360D01*
X6187674Y-10655360D02*
X6168627Y-10645837D01*
X6168627Y-10645837D02*
X6159103Y-10626789D01*
X6159103Y-10626789D02*
X6159103Y-10550598D01*
X6159103Y-10550598D02*
X6168627Y-10531551D01*
X6168627Y-10531551D02*
X6187674Y-10522027D01*
X6187674Y-10522027D02*
X6225769Y-10522027D01*
X6225769Y-10522027D02*
X6244817Y-10531551D01*
X6244817Y-10531551D02*
X6254341Y-10550598D01*
X6254341Y-10550598D02*
X6254341Y-10569646D01*
X6254341Y-10569646D02*
X6159103Y-10588694D01*
X6330531Y-10645837D02*
X6349579Y-10655360D01*
X6349579Y-10655360D02*
X6387674Y-10655360D01*
X6387674Y-10655360D02*
X6406722Y-10645837D01*
X6406722Y-10645837D02*
X6416246Y-10626789D01*
X6416246Y-10626789D02*
X6416246Y-10617265D01*
X6416246Y-10617265D02*
X6406722Y-10598217D01*
X6406722Y-10598217D02*
X6387674Y-10588694D01*
X6387674Y-10588694D02*
X6359103Y-10588694D01*
X6359103Y-10588694D02*
X6340055Y-10579170D01*
X6340055Y-10579170D02*
X6330531Y-10560122D01*
X6330531Y-10560122D02*
X6330531Y-10550598D01*
X6330531Y-10550598D02*
X6340055Y-10531551D01*
X6340055Y-10531551D02*
X6359103Y-10522027D01*
X6359103Y-10522027D02*
X6387674Y-10522027D01*
X6387674Y-10522027D02*
X6406722Y-10531551D01*
X6482912Y-10731551D02*
X6492436Y-10722027D01*
X6492436Y-10722027D02*
X6511484Y-10693456D01*
X6511484Y-10693456D02*
X6521008Y-10674408D01*
X6521008Y-10674408D02*
X6530531Y-10645837D01*
X6530531Y-10645837D02*
X6540055Y-10598217D01*
X6540055Y-10598217D02*
X6540055Y-10560122D01*
X6540055Y-10560122D02*
X6530531Y-10512503D01*
X6530531Y-10512503D02*
X6521008Y-10483932D01*
X6521008Y-10483932D02*
X6511484Y-10464884D01*
X6511484Y-10464884D02*
X6492436Y-10436313D01*
X6492436Y-10436313D02*
X6482912Y-10426789D01*
X6844817Y-10731551D02*
X6835293Y-10722027D01*
X6835293Y-10722027D02*
X6816246Y-10693456D01*
X6816246Y-10693456D02*
X6806722Y-10674408D01*
X6806722Y-10674408D02*
X6797198Y-10645837D01*
X6797198Y-10645837D02*
X6787674Y-10598217D01*
X6787674Y-10598217D02*
X6787674Y-10560122D01*
X6787674Y-10560122D02*
X6797198Y-10512503D01*
X6797198Y-10512503D02*
X6806722Y-10483932D01*
X6806722Y-10483932D02*
X6816246Y-10464884D01*
X6816246Y-10464884D02*
X6835293Y-10436313D01*
X6835293Y-10436313D02*
X6844817Y-10426789D01*
X6921008Y-10522027D02*
X6921008Y-10655360D01*
X6921008Y-10541075D02*
X6930531Y-10531551D01*
X6930531Y-10531551D02*
X6949579Y-10522027D01*
X6949579Y-10522027D02*
X6978150Y-10522027D01*
X6978150Y-10522027D02*
X6997198Y-10531551D01*
X6997198Y-10531551D02*
X7006722Y-10550598D01*
X7006722Y-10550598D02*
X7006722Y-10655360D01*
X7130531Y-10655360D02*
X7111484Y-10645837D01*
X7111484Y-10645837D02*
X7101960Y-10636313D01*
X7101960Y-10636313D02*
X7092436Y-10617265D01*
X7092436Y-10617265D02*
X7092436Y-10560122D01*
X7092436Y-10560122D02*
X7101960Y-10541075D01*
X7101960Y-10541075D02*
X7111484Y-10531551D01*
X7111484Y-10531551D02*
X7130531Y-10522027D01*
X7130531Y-10522027D02*
X7159103Y-10522027D01*
X7159103Y-10522027D02*
X7178150Y-10531551D01*
X7178150Y-10531551D02*
X7187674Y-10541075D01*
X7187674Y-10541075D02*
X7197198Y-10560122D01*
X7197198Y-10560122D02*
X7197198Y-10617265D01*
X7197198Y-10617265D02*
X7187674Y-10636313D01*
X7187674Y-10636313D02*
X7178150Y-10645837D01*
X7178150Y-10645837D02*
X7159103Y-10655360D01*
X7159103Y-10655360D02*
X7130531Y-10655360D01*
X7254341Y-10522027D02*
X7330531Y-10522027D01*
X7282912Y-10455360D02*
X7282912Y-10626789D01*
X7282912Y-10626789D02*
X7292436Y-10645837D01*
X7292436Y-10645837D02*
X7311484Y-10655360D01*
X7311484Y-10655360D02*
X7330531Y-10655360D01*
X7549579Y-10522027D02*
X7549579Y-10722027D01*
X7549579Y-10531551D02*
X7568627Y-10522027D01*
X7568627Y-10522027D02*
X7606722Y-10522027D01*
X7606722Y-10522027D02*
X7625770Y-10531551D01*
X7625770Y-10531551D02*
X7635293Y-10541075D01*
X7635293Y-10541075D02*
X7644817Y-10560122D01*
X7644817Y-10560122D02*
X7644817Y-10617265D01*
X7644817Y-10617265D02*
X7635293Y-10636313D01*
X7635293Y-10636313D02*
X7625770Y-10645837D01*
X7625770Y-10645837D02*
X7606722Y-10655360D01*
X7606722Y-10655360D02*
X7568627Y-10655360D01*
X7568627Y-10655360D02*
X7549579Y-10645837D01*
X7759103Y-10655360D02*
X7740055Y-10645837D01*
X7740055Y-10645837D02*
X7730531Y-10626789D01*
X7730531Y-10626789D02*
X7730531Y-10455360D01*
X7921008Y-10655360D02*
X7921008Y-10550598D01*
X7921008Y-10550598D02*
X7911484Y-10531551D01*
X7911484Y-10531551D02*
X7892436Y-10522027D01*
X7892436Y-10522027D02*
X7854341Y-10522027D01*
X7854341Y-10522027D02*
X7835293Y-10531551D01*
X7921008Y-10645837D02*
X7901960Y-10655360D01*
X7901960Y-10655360D02*
X7854341Y-10655360D01*
X7854341Y-10655360D02*
X7835293Y-10645837D01*
X7835293Y-10645837D02*
X7825770Y-10626789D01*
X7825770Y-10626789D02*
X7825770Y-10607741D01*
X7825770Y-10607741D02*
X7835293Y-10588694D01*
X7835293Y-10588694D02*
X7854341Y-10579170D01*
X7854341Y-10579170D02*
X7901960Y-10579170D01*
X7901960Y-10579170D02*
X7921008Y-10569646D01*
X7987674Y-10522027D02*
X8063865Y-10522027D01*
X8016246Y-10455360D02*
X8016246Y-10626789D01*
X8016246Y-10626789D02*
X8025770Y-10645837D01*
X8025770Y-10645837D02*
X8044817Y-10655360D01*
X8044817Y-10655360D02*
X8063865Y-10655360D01*
X8206722Y-10645837D02*
X8187674Y-10655360D01*
X8187674Y-10655360D02*
X8149579Y-10655360D01*
X8149579Y-10655360D02*
X8130531Y-10645837D01*
X8130531Y-10645837D02*
X8121008Y-10626789D01*
X8121008Y-10626789D02*
X8121008Y-10550598D01*
X8121008Y-10550598D02*
X8130531Y-10531551D01*
X8130531Y-10531551D02*
X8149579Y-10522027D01*
X8149579Y-10522027D02*
X8187674Y-10522027D01*
X8187674Y-10522027D02*
X8206722Y-10531551D01*
X8206722Y-10531551D02*
X8216246Y-10550598D01*
X8216246Y-10550598D02*
X8216246Y-10569646D01*
X8216246Y-10569646D02*
X8121008Y-10588694D01*
X8387674Y-10655360D02*
X8387674Y-10455360D01*
X8387674Y-10645837D02*
X8368627Y-10655360D01*
X8368627Y-10655360D02*
X8330531Y-10655360D01*
X8330531Y-10655360D02*
X8311484Y-10645837D01*
X8311484Y-10645837D02*
X8301960Y-10636313D01*
X8301960Y-10636313D02*
X8292436Y-10617265D01*
X8292436Y-10617265D02*
X8292436Y-10560122D01*
X8292436Y-10560122D02*
X8301960Y-10541075D01*
X8301960Y-10541075D02*
X8311484Y-10531551D01*
X8311484Y-10531551D02*
X8330531Y-10522027D01*
X8330531Y-10522027D02*
X8368627Y-10522027D01*
X8368627Y-10522027D02*
X8387674Y-10531551D01*
X8463865Y-10731551D02*
X8473389Y-10722027D01*
X8473389Y-10722027D02*
X8492436Y-10693456D01*
X8492436Y-10693456D02*
X8501960Y-10674408D01*
X8501960Y-10674408D02*
X8511484Y-10645837D01*
X8511484Y-10645837D02*
X8521008Y-10598217D01*
X8521008Y-10598217D02*
X8521008Y-10560122D01*
X8521008Y-10560122D02*
X8511484Y-10512503D01*
X8511484Y-10512503D02*
X8501960Y-10483932D01*
X8501960Y-10483932D02*
X8492436Y-10464884D01*
X8492436Y-10464884D02*
X8473389Y-10436313D01*
X8473389Y-10436313D02*
X8463865Y-10426789D01*
X1501242Y-10953548D02*
X1501242Y-10812125D01*
X1359820Y-10812125D01*
X1359820Y-10953548D01*
X1501242Y-10953548D01*
X1863864Y-10775360D02*
X1825769Y-10775360D01*
X1825769Y-10775360D02*
X1806721Y-10784884D01*
X1806721Y-10784884D02*
X1797198Y-10794408D01*
X1797198Y-10794408D02*
X1778150Y-10822979D01*
X1778150Y-10822979D02*
X1768626Y-10861075D01*
X1768626Y-10861075D02*
X1768626Y-10937265D01*
X1768626Y-10937265D02*
X1778150Y-10956313D01*
X1778150Y-10956313D02*
X1787674Y-10965837D01*
X1787674Y-10965837D02*
X1806721Y-10975360D01*
X1806721Y-10975360D02*
X1844817Y-10975360D01*
X1844817Y-10975360D02*
X1863864Y-10965837D01*
X1863864Y-10965837D02*
X1873388Y-10956313D01*
X1873388Y-10956313D02*
X1882912Y-10937265D01*
X1882912Y-10937265D02*
X1882912Y-10889646D01*
X1882912Y-10889646D02*
X1873388Y-10870598D01*
X1873388Y-10870598D02*
X1863864Y-10861075D01*
X1863864Y-10861075D02*
X1844817Y-10851551D01*
X1844817Y-10851551D02*
X1806721Y-10851551D01*
X1806721Y-10851551D02*
X1787674Y-10861075D01*
X1787674Y-10861075D02*
X1778150Y-10870598D01*
X1778150Y-10870598D02*
X1768626Y-10889646D01*
X1968626Y-10956313D02*
X1978150Y-10965837D01*
X1978150Y-10965837D02*
X1968626Y-10975360D01*
X1968626Y-10975360D02*
X1959102Y-10965837D01*
X1959102Y-10965837D02*
X1968626Y-10956313D01*
X1968626Y-10956313D02*
X1968626Y-10975360D01*
X2101960Y-10775360D02*
X2121007Y-10775360D01*
X2121007Y-10775360D02*
X2140055Y-10784884D01*
X2140055Y-10784884D02*
X2149579Y-10794408D01*
X2149579Y-10794408D02*
X2159102Y-10813456D01*
X2159102Y-10813456D02*
X2168626Y-10851551D01*
X2168626Y-10851551D02*
X2168626Y-10899170D01*
X2168626Y-10899170D02*
X2159102Y-10937265D01*
X2159102Y-10937265D02*
X2149579Y-10956313D01*
X2149579Y-10956313D02*
X2140055Y-10965837D01*
X2140055Y-10965837D02*
X2121007Y-10975360D01*
X2121007Y-10975360D02*
X2101960Y-10975360D01*
X2101960Y-10975360D02*
X2082912Y-10965837D01*
X2082912Y-10965837D02*
X2073388Y-10956313D01*
X2073388Y-10956313D02*
X2063864Y-10937265D01*
X2063864Y-10937265D02*
X2054340Y-10899170D01*
X2054340Y-10899170D02*
X2054340Y-10851551D01*
X2054340Y-10851551D02*
X2063864Y-10813456D01*
X2063864Y-10813456D02*
X2073388Y-10794408D01*
X2073388Y-10794408D02*
X2082912Y-10784884D01*
X2082912Y-10784884D02*
X2101960Y-10775360D01*
X2263864Y-10975360D02*
X2301960Y-10975360D01*
X2301960Y-10975360D02*
X2321007Y-10965837D01*
X2321007Y-10965837D02*
X2330531Y-10956313D01*
X2330531Y-10956313D02*
X2349579Y-10927741D01*
X2349579Y-10927741D02*
X2359102Y-10889646D01*
X2359102Y-10889646D02*
X2359102Y-10813456D01*
X2359102Y-10813456D02*
X2349579Y-10794408D01*
X2349579Y-10794408D02*
X2340055Y-10784884D01*
X2340055Y-10784884D02*
X2321007Y-10775360D01*
X2321007Y-10775360D02*
X2282912Y-10775360D01*
X2282912Y-10775360D02*
X2263864Y-10784884D01*
X2263864Y-10784884D02*
X2254341Y-10794408D01*
X2254341Y-10794408D02*
X2244817Y-10813456D01*
X2244817Y-10813456D02*
X2244817Y-10861075D01*
X2244817Y-10861075D02*
X2254341Y-10880122D01*
X2254341Y-10880122D02*
X2263864Y-10889646D01*
X2263864Y-10889646D02*
X2282912Y-10899170D01*
X2282912Y-10899170D02*
X2321007Y-10899170D01*
X2321007Y-10899170D02*
X2340055Y-10889646D01*
X2340055Y-10889646D02*
X2349579Y-10880122D01*
X2349579Y-10880122D02*
X2359102Y-10861075D01*
X2530531Y-10775360D02*
X2492436Y-10775360D01*
X2492436Y-10775360D02*
X2473388Y-10784884D01*
X2473388Y-10784884D02*
X2463864Y-10794408D01*
X2463864Y-10794408D02*
X2444817Y-10822979D01*
X2444817Y-10822979D02*
X2435293Y-10861075D01*
X2435293Y-10861075D02*
X2435293Y-10937265D01*
X2435293Y-10937265D02*
X2444817Y-10956313D01*
X2444817Y-10956313D02*
X2454341Y-10965837D01*
X2454341Y-10965837D02*
X2473388Y-10975360D01*
X2473388Y-10975360D02*
X2511483Y-10975360D01*
X2511483Y-10975360D02*
X2530531Y-10965837D01*
X2530531Y-10965837D02*
X2540055Y-10956313D01*
X2540055Y-10956313D02*
X2549579Y-10937265D01*
X2549579Y-10937265D02*
X2549579Y-10889646D01*
X2549579Y-10889646D02*
X2540055Y-10870598D01*
X2540055Y-10870598D02*
X2530531Y-10861075D01*
X2530531Y-10861075D02*
X2511483Y-10851551D01*
X2511483Y-10851551D02*
X2473388Y-10851551D01*
X2473388Y-10851551D02*
X2454341Y-10861075D01*
X2454341Y-10861075D02*
X2444817Y-10870598D01*
X2444817Y-10870598D02*
X2435293Y-10889646D01*
X2635293Y-10975360D02*
X2635293Y-10842027D01*
X2635293Y-10861075D02*
X2644817Y-10851551D01*
X2644817Y-10851551D02*
X2663864Y-10842027D01*
X2663864Y-10842027D02*
X2692436Y-10842027D01*
X2692436Y-10842027D02*
X2711483Y-10851551D01*
X2711483Y-10851551D02*
X2721007Y-10870598D01*
X2721007Y-10870598D02*
X2721007Y-10975360D01*
X2721007Y-10870598D02*
X2730531Y-10851551D01*
X2730531Y-10851551D02*
X2749579Y-10842027D01*
X2749579Y-10842027D02*
X2778150Y-10842027D01*
X2778150Y-10842027D02*
X2797198Y-10851551D01*
X2797198Y-10851551D02*
X2806721Y-10870598D01*
X2806721Y-10870598D02*
X2806721Y-10975360D01*
X2901960Y-10975360D02*
X2901960Y-10842027D01*
X2901960Y-10861075D02*
X2911483Y-10851551D01*
X2911483Y-10851551D02*
X2930531Y-10842027D01*
X2930531Y-10842027D02*
X2959102Y-10842027D01*
X2959102Y-10842027D02*
X2978150Y-10851551D01*
X2978150Y-10851551D02*
X2987674Y-10870598D01*
X2987674Y-10870598D02*
X2987674Y-10975360D01*
X2987674Y-10870598D02*
X2997198Y-10851551D01*
X2997198Y-10851551D02*
X3016245Y-10842027D01*
X3016245Y-10842027D02*
X3044817Y-10842027D01*
X3044817Y-10842027D02*
X3063864Y-10851551D01*
X3063864Y-10851551D02*
X3073388Y-10870598D01*
X3073388Y-10870598D02*
X3073388Y-10975360D01*
X3463864Y-10765837D02*
X3292436Y-11022979D01*
X3721007Y-10775360D02*
X3740055Y-10775360D01*
X3740055Y-10775360D02*
X3759103Y-10784884D01*
X3759103Y-10784884D02*
X3768626Y-10794408D01*
X3768626Y-10794408D02*
X3778150Y-10813456D01*
X3778150Y-10813456D02*
X3787674Y-10851551D01*
X3787674Y-10851551D02*
X3787674Y-10899170D01*
X3787674Y-10899170D02*
X3778150Y-10937265D01*
X3778150Y-10937265D02*
X3768626Y-10956313D01*
X3768626Y-10956313D02*
X3759103Y-10965837D01*
X3759103Y-10965837D02*
X3740055Y-10975360D01*
X3740055Y-10975360D02*
X3721007Y-10975360D01*
X3721007Y-10975360D02*
X3701960Y-10965837D01*
X3701960Y-10965837D02*
X3692436Y-10956313D01*
X3692436Y-10956313D02*
X3682912Y-10937265D01*
X3682912Y-10937265D02*
X3673388Y-10899170D01*
X3673388Y-10899170D02*
X3673388Y-10851551D01*
X3673388Y-10851551D02*
X3682912Y-10813456D01*
X3682912Y-10813456D02*
X3692436Y-10794408D01*
X3692436Y-10794408D02*
X3701960Y-10784884D01*
X3701960Y-10784884D02*
X3721007Y-10775360D01*
X3873388Y-10956313D02*
X3882912Y-10965837D01*
X3882912Y-10965837D02*
X3873388Y-10975360D01*
X3873388Y-10975360D02*
X3863864Y-10965837D01*
X3863864Y-10965837D02*
X3873388Y-10956313D01*
X3873388Y-10956313D02*
X3873388Y-10975360D01*
X3959103Y-10794408D02*
X3968626Y-10784884D01*
X3968626Y-10784884D02*
X3987674Y-10775360D01*
X3987674Y-10775360D02*
X4035293Y-10775360D01*
X4035293Y-10775360D02*
X4054341Y-10784884D01*
X4054341Y-10784884D02*
X4063864Y-10794408D01*
X4063864Y-10794408D02*
X4073388Y-10813456D01*
X4073388Y-10813456D02*
X4073388Y-10832503D01*
X4073388Y-10832503D02*
X4063864Y-10861075D01*
X4063864Y-10861075D02*
X3949579Y-10975360D01*
X3949579Y-10975360D02*
X4073388Y-10975360D01*
X4244817Y-10842027D02*
X4244817Y-10975360D01*
X4197198Y-10765837D02*
X4149579Y-10908694D01*
X4149579Y-10908694D02*
X4273388Y-10908694D01*
X4387674Y-10775360D02*
X4406722Y-10775360D01*
X4406722Y-10775360D02*
X4425769Y-10784884D01*
X4425769Y-10784884D02*
X4435293Y-10794408D01*
X4435293Y-10794408D02*
X4444817Y-10813456D01*
X4444817Y-10813456D02*
X4454341Y-10851551D01*
X4454341Y-10851551D02*
X4454341Y-10899170D01*
X4454341Y-10899170D02*
X4444817Y-10937265D01*
X4444817Y-10937265D02*
X4435293Y-10956313D01*
X4435293Y-10956313D02*
X4425769Y-10965837D01*
X4425769Y-10965837D02*
X4406722Y-10975360D01*
X4406722Y-10975360D02*
X4387674Y-10975360D01*
X4387674Y-10975360D02*
X4368626Y-10965837D01*
X4368626Y-10965837D02*
X4359103Y-10956313D01*
X4359103Y-10956313D02*
X4349579Y-10937265D01*
X4349579Y-10937265D02*
X4340055Y-10899170D01*
X4340055Y-10899170D02*
X4340055Y-10851551D01*
X4340055Y-10851551D02*
X4349579Y-10813456D01*
X4349579Y-10813456D02*
X4359103Y-10794408D01*
X4359103Y-10794408D02*
X4368626Y-10784884D01*
X4368626Y-10784884D02*
X4387674Y-10775360D01*
X4578150Y-10775360D02*
X4597198Y-10775360D01*
X4597198Y-10775360D02*
X4616246Y-10784884D01*
X4616246Y-10784884D02*
X4625769Y-10794408D01*
X4625769Y-10794408D02*
X4635293Y-10813456D01*
X4635293Y-10813456D02*
X4644817Y-10851551D01*
X4644817Y-10851551D02*
X4644817Y-10899170D01*
X4644817Y-10899170D02*
X4635293Y-10937265D01*
X4635293Y-10937265D02*
X4625769Y-10956313D01*
X4625769Y-10956313D02*
X4616246Y-10965837D01*
X4616246Y-10965837D02*
X4597198Y-10975360D01*
X4597198Y-10975360D02*
X4578150Y-10975360D01*
X4578150Y-10975360D02*
X4559103Y-10965837D01*
X4559103Y-10965837D02*
X4549579Y-10956313D01*
X4549579Y-10956313D02*
X4540055Y-10937265D01*
X4540055Y-10937265D02*
X4530531Y-10899170D01*
X4530531Y-10899170D02*
X4530531Y-10851551D01*
X4530531Y-10851551D02*
X4540055Y-10813456D01*
X4540055Y-10813456D02*
X4549579Y-10794408D01*
X4549579Y-10794408D02*
X4559103Y-10784884D01*
X4559103Y-10784884D02*
X4578150Y-10775360D01*
X4721007Y-10775360D02*
X4721007Y-10813456D01*
X4797198Y-10775360D02*
X4797198Y-10813456D01*
X5092436Y-11051551D02*
X5082912Y-11042027D01*
X5082912Y-11042027D02*
X5063865Y-11013456D01*
X5063865Y-11013456D02*
X5054341Y-10994408D01*
X5054341Y-10994408D02*
X5044817Y-10965837D01*
X5044817Y-10965837D02*
X5035293Y-10918217D01*
X5035293Y-10918217D02*
X5035293Y-10880122D01*
X5035293Y-10880122D02*
X5044817Y-10832503D01*
X5044817Y-10832503D02*
X5054341Y-10803932D01*
X5054341Y-10803932D02*
X5063865Y-10784884D01*
X5063865Y-10784884D02*
X5082912Y-10756313D01*
X5082912Y-10756313D02*
X5092436Y-10746789D01*
X5273388Y-10975360D02*
X5159103Y-10975360D01*
X5216246Y-10975360D02*
X5216246Y-10775360D01*
X5216246Y-10775360D02*
X5197198Y-10803932D01*
X5197198Y-10803932D02*
X5178150Y-10822979D01*
X5178150Y-10822979D02*
X5159103Y-10832503D01*
X5511484Y-10975360D02*
X5511484Y-10775360D01*
X5597198Y-10975360D02*
X5597198Y-10870598D01*
X5597198Y-10870598D02*
X5587674Y-10851551D01*
X5587674Y-10851551D02*
X5568627Y-10842027D01*
X5568627Y-10842027D02*
X5540055Y-10842027D01*
X5540055Y-10842027D02*
X5521008Y-10851551D01*
X5521008Y-10851551D02*
X5511484Y-10861075D01*
X5721007Y-10975360D02*
X5701960Y-10965837D01*
X5701960Y-10965837D02*
X5692436Y-10956313D01*
X5692436Y-10956313D02*
X5682912Y-10937265D01*
X5682912Y-10937265D02*
X5682912Y-10880122D01*
X5682912Y-10880122D02*
X5692436Y-10861075D01*
X5692436Y-10861075D02*
X5701960Y-10851551D01*
X5701960Y-10851551D02*
X5721007Y-10842027D01*
X5721007Y-10842027D02*
X5749579Y-10842027D01*
X5749579Y-10842027D02*
X5768627Y-10851551D01*
X5768627Y-10851551D02*
X5778150Y-10861075D01*
X5778150Y-10861075D02*
X5787674Y-10880122D01*
X5787674Y-10880122D02*
X5787674Y-10937265D01*
X5787674Y-10937265D02*
X5778150Y-10956313D01*
X5778150Y-10956313D02*
X5768627Y-10965837D01*
X5768627Y-10965837D02*
X5749579Y-10975360D01*
X5749579Y-10975360D02*
X5721007Y-10975360D01*
X5901960Y-10975360D02*
X5882912Y-10965837D01*
X5882912Y-10965837D02*
X5873388Y-10946789D01*
X5873388Y-10946789D02*
X5873388Y-10775360D01*
X6054341Y-10965837D02*
X6035293Y-10975360D01*
X6035293Y-10975360D02*
X5997198Y-10975360D01*
X5997198Y-10975360D02*
X5978150Y-10965837D01*
X5978150Y-10965837D02*
X5968627Y-10946789D01*
X5968627Y-10946789D02*
X5968627Y-10870598D01*
X5968627Y-10870598D02*
X5978150Y-10851551D01*
X5978150Y-10851551D02*
X5997198Y-10842027D01*
X5997198Y-10842027D02*
X6035293Y-10842027D01*
X6035293Y-10842027D02*
X6054341Y-10851551D01*
X6054341Y-10851551D02*
X6063865Y-10870598D01*
X6063865Y-10870598D02*
X6063865Y-10889646D01*
X6063865Y-10889646D02*
X5968627Y-10908694D01*
X6130531Y-11051551D02*
X6140055Y-11042027D01*
X6140055Y-11042027D02*
X6159103Y-11013456D01*
X6159103Y-11013456D02*
X6168627Y-10994408D01*
X6168627Y-10994408D02*
X6178150Y-10965837D01*
X6178150Y-10965837D02*
X6187674Y-10918217D01*
X6187674Y-10918217D02*
X6187674Y-10880122D01*
X6187674Y-10880122D02*
X6178150Y-10832503D01*
X6178150Y-10832503D02*
X6168627Y-10803932D01*
X6168627Y-10803932D02*
X6159103Y-10784884D01*
X6159103Y-10784884D02*
X6140055Y-10756313D01*
X6140055Y-10756313D02*
X6130531Y-10746789D01*
X6492436Y-11051551D02*
X6482912Y-11042027D01*
X6482912Y-11042027D02*
X6463865Y-11013456D01*
X6463865Y-11013456D02*
X6454341Y-10994408D01*
X6454341Y-10994408D02*
X6444817Y-10965837D01*
X6444817Y-10965837D02*
X6435293Y-10918217D01*
X6435293Y-10918217D02*
X6435293Y-10880122D01*
X6435293Y-10880122D02*
X6444817Y-10832503D01*
X6444817Y-10832503D02*
X6454341Y-10803932D01*
X6454341Y-10803932D02*
X6463865Y-10784884D01*
X6463865Y-10784884D02*
X6482912Y-10756313D01*
X6482912Y-10756313D02*
X6492436Y-10746789D01*
X6568627Y-10842027D02*
X6568627Y-10975360D01*
X6568627Y-10861075D02*
X6578150Y-10851551D01*
X6578150Y-10851551D02*
X6597198Y-10842027D01*
X6597198Y-10842027D02*
X6625769Y-10842027D01*
X6625769Y-10842027D02*
X6644817Y-10851551D01*
X6644817Y-10851551D02*
X6654341Y-10870598D01*
X6654341Y-10870598D02*
X6654341Y-10975360D01*
X6778150Y-10975360D02*
X6759103Y-10965837D01*
X6759103Y-10965837D02*
X6749579Y-10956313D01*
X6749579Y-10956313D02*
X6740055Y-10937265D01*
X6740055Y-10937265D02*
X6740055Y-10880122D01*
X6740055Y-10880122D02*
X6749579Y-10861075D01*
X6749579Y-10861075D02*
X6759103Y-10851551D01*
X6759103Y-10851551D02*
X6778150Y-10842027D01*
X6778150Y-10842027D02*
X6806722Y-10842027D01*
X6806722Y-10842027D02*
X6825769Y-10851551D01*
X6825769Y-10851551D02*
X6835293Y-10861075D01*
X6835293Y-10861075D02*
X6844817Y-10880122D01*
X6844817Y-10880122D02*
X6844817Y-10937265D01*
X6844817Y-10937265D02*
X6835293Y-10956313D01*
X6835293Y-10956313D02*
X6825769Y-10965837D01*
X6825769Y-10965837D02*
X6806722Y-10975360D01*
X6806722Y-10975360D02*
X6778150Y-10975360D01*
X6901960Y-10842027D02*
X6978150Y-10842027D01*
X6930531Y-10775360D02*
X6930531Y-10946789D01*
X6930531Y-10946789D02*
X6940055Y-10965837D01*
X6940055Y-10965837D02*
X6959103Y-10975360D01*
X6959103Y-10975360D02*
X6978150Y-10975360D01*
X7197198Y-10842027D02*
X7197198Y-11042027D01*
X7197198Y-10851551D02*
X7216246Y-10842027D01*
X7216246Y-10842027D02*
X7254341Y-10842027D01*
X7254341Y-10842027D02*
X7273389Y-10851551D01*
X7273389Y-10851551D02*
X7282912Y-10861075D01*
X7282912Y-10861075D02*
X7292436Y-10880122D01*
X7292436Y-10880122D02*
X7292436Y-10937265D01*
X7292436Y-10937265D02*
X7282912Y-10956313D01*
X7282912Y-10956313D02*
X7273389Y-10965837D01*
X7273389Y-10965837D02*
X7254341Y-10975360D01*
X7254341Y-10975360D02*
X7216246Y-10975360D01*
X7216246Y-10975360D02*
X7197198Y-10965837D01*
X7406722Y-10975360D02*
X7387674Y-10965837D01*
X7387674Y-10965837D02*
X7378150Y-10946789D01*
X7378150Y-10946789D02*
X7378150Y-10775360D01*
X7568627Y-10975360D02*
X7568627Y-10870598D01*
X7568627Y-10870598D02*
X7559103Y-10851551D01*
X7559103Y-10851551D02*
X7540055Y-10842027D01*
X7540055Y-10842027D02*
X7501960Y-10842027D01*
X7501960Y-10842027D02*
X7482912Y-10851551D01*
X7568627Y-10965837D02*
X7549579Y-10975360D01*
X7549579Y-10975360D02*
X7501960Y-10975360D01*
X7501960Y-10975360D02*
X7482912Y-10965837D01*
X7482912Y-10965837D02*
X7473389Y-10946789D01*
X7473389Y-10946789D02*
X7473389Y-10927741D01*
X7473389Y-10927741D02*
X7482912Y-10908694D01*
X7482912Y-10908694D02*
X7501960Y-10899170D01*
X7501960Y-10899170D02*
X7549579Y-10899170D01*
X7549579Y-10899170D02*
X7568627Y-10889646D01*
X7635293Y-10842027D02*
X7711484Y-10842027D01*
X7663865Y-10775360D02*
X7663865Y-10946789D01*
X7663865Y-10946789D02*
X7673389Y-10965837D01*
X7673389Y-10965837D02*
X7692436Y-10975360D01*
X7692436Y-10975360D02*
X7711484Y-10975360D01*
X7854341Y-10965837D02*
X7835293Y-10975360D01*
X7835293Y-10975360D02*
X7797198Y-10975360D01*
X7797198Y-10975360D02*
X7778150Y-10965837D01*
X7778150Y-10965837D02*
X7768627Y-10946789D01*
X7768627Y-10946789D02*
X7768627Y-10870598D01*
X7768627Y-10870598D02*
X7778150Y-10851551D01*
X7778150Y-10851551D02*
X7797198Y-10842027D01*
X7797198Y-10842027D02*
X7835293Y-10842027D01*
X7835293Y-10842027D02*
X7854341Y-10851551D01*
X7854341Y-10851551D02*
X7863865Y-10870598D01*
X7863865Y-10870598D02*
X7863865Y-10889646D01*
X7863865Y-10889646D02*
X7768627Y-10908694D01*
X8035293Y-10975360D02*
X8035293Y-10775360D01*
X8035293Y-10965837D02*
X8016246Y-10975360D01*
X8016246Y-10975360D02*
X7978150Y-10975360D01*
X7978150Y-10975360D02*
X7959103Y-10965837D01*
X7959103Y-10965837D02*
X7949579Y-10956313D01*
X7949579Y-10956313D02*
X7940055Y-10937265D01*
X7940055Y-10937265D02*
X7940055Y-10880122D01*
X7940055Y-10880122D02*
X7949579Y-10861075D01*
X7949579Y-10861075D02*
X7959103Y-10851551D01*
X7959103Y-10851551D02*
X7978150Y-10842027D01*
X7978150Y-10842027D02*
X8016246Y-10842027D01*
X8016246Y-10842027D02*
X8035293Y-10851551D01*
X8111484Y-11051551D02*
X8121008Y-11042027D01*
X8121008Y-11042027D02*
X8140055Y-11013456D01*
X8140055Y-11013456D02*
X8149579Y-10994408D01*
X8149579Y-10994408D02*
X8159103Y-10965837D01*
X8159103Y-10965837D02*
X8168627Y-10918217D01*
X8168627Y-10918217D02*
X8168627Y-10880122D01*
X8168627Y-10880122D02*
X8159103Y-10832503D01*
X8159103Y-10832503D02*
X8149579Y-10803932D01*
X8149579Y-10803932D02*
X8140055Y-10784884D01*
X8140055Y-10784884D02*
X8121008Y-10756313D01*
X8121008Y-10756313D02*
X8111484Y-10746789D01*
M02*
