G04 #@! TF.GenerationSoftware,KiCad,Pcbnew,7.0.1-0*
G04 #@! TF.CreationDate,2023-05-14T12:23:49+09:00*
G04 #@! TF.ProjectId,Sandy_Top_with_Plate_Mid,53616e64-795f-4546-9f70-5f776974685f,v.0*
G04 #@! TF.SameCoordinates,Original*
G04 #@! TF.FileFunction,Legend,Bot*
G04 #@! TF.FilePolarity,Positive*
%FSLAX46Y46*%
G04 Gerber Fmt 4.6, Leading zero omitted, Abs format (unit mm)*
G04 Created by KiCad (PCBNEW 7.0.1-0) date 2023-05-14 12:23:49*
%MOMM*%
%LPD*%
G01*
G04 APERTURE LIST*
G04 Aperture macros list*
%AMRoundRect*
0 Rectangle with rounded corners*
0 $1 Rounding radius*
0 $2 $3 $4 $5 $6 $7 $8 $9 X,Y pos of 4 corners*
0 Add a 4 corners polygon primitive as box body*
4,1,4,$2,$3,$4,$5,$6,$7,$8,$9,$2,$3,0*
0 Add four circle primitives for the rounded corners*
1,1,$1+$1,$2,$3*
1,1,$1+$1,$4,$5*
1,1,$1+$1,$6,$7*
1,1,$1+$1,$8,$9*
0 Add four rect primitives between the rounded corners*
20,1,$1+$1,$2,$3,$4,$5,0*
20,1,$1+$1,$4,$5,$6,$7,0*
20,1,$1+$1,$6,$7,$8,$9,0*
20,1,$1+$1,$8,$9,$2,$3,0*%
%AMFreePoly0*
4,1,57,1.326539,1.494775,1.368965,1.477201,1.433847,1.433847,1.477201,1.368965,1.494775,1.326539,1.510000,1.250000,1.510000,-1.250000,1.494775,-1.326539,1.477201,-1.368965,1.433847,-1.433847,1.368965,-1.477201,1.326539,-1.494775,1.250000,-1.510000,-1.250000,-1.510000,-1.326539,-1.494775,-1.368965,-1.477201,-1.433847,-1.433847,-1.477201,-1.368965,-1.494775,-1.326539,-1.510000,-1.250000,
-1.510000,0.150000,-1.506375,0.168213,-1.507388,0.186757,-1.496557,0.217547,-1.494762,0.226571,-1.493045,0.230714,-1.492068,0.230309,-1.481490,0.260385,-1.479044,0.264515,-1.477203,0.268961,-1.459488,0.295471,-1.460397,0.296009,-1.458113,0.299868,-1.451973,0.306716,-1.433838,0.333856,-1.418396,0.344171,-1.406000,0.358000,-0.834420,0.786683,-0.356082,1.408525,-0.343294,1.419710,
-0.333856,1.433839,-0.305418,1.452841,-0.297324,1.459922,-0.293764,1.461971,-0.293206,1.461001,-0.268964,1.477201,-0.263076,1.479639,-0.257549,1.482822,-0.229948,1.492152,-0.230376,1.493185,-0.226581,1.494758,-0.216031,1.496857,-0.183614,1.507817,-0.166661,1.506683,-0.150000,1.510000,1.250000,1.510000,1.326539,1.494775,1.326539,1.494775,$1*%
%AMFreePoly1*
4,1,37,1.076539,1.494775,1.118965,1.477201,1.183847,1.433847,1.227201,1.368965,1.244775,1.326539,1.260000,1.250000,1.260000,0.806318,1.486695,0.307589,1.492928,0.280996,1.494770,0.276551,1.499259,0.253985,1.504507,0.231598,1.504669,0.226791,1.510000,0.200000,1.510000,-1.250000,1.494775,-1.326539,1.477201,-1.368965,1.433847,-1.433847,1.368965,-1.477201,1.326539,-1.494775,
1.250000,-1.510000,-1.250000,-1.510000,-1.326539,-1.494775,-1.368965,-1.477201,-1.433847,-1.433847,-1.477201,-1.368965,-1.494775,-1.326539,-1.510000,-1.250000,-1.510000,1.250000,-1.494775,1.326539,-1.477201,1.368965,-1.433847,1.433847,-1.368965,1.477201,-1.326539,1.494775,-1.250000,1.510000,1.000000,1.510000,1.076539,1.494775,1.076539,1.494775,$1*%
G04 Aperture macros list end*
%ADD10C,0.200000*%
%ADD11C,0.300000*%
%ADD12C,0.320000*%
%ADD13C,0.150000*%
%ADD14C,0.120000*%
%ADD15C,2.150000*%
%ADD16C,3.400000*%
%ADD17C,4.387800*%
%ADD18RoundRect,0.200000X-1.275000X-1.250000X1.275000X-1.250000X1.275000X1.250000X-1.275000X1.250000X0*%
%ADD19C,6.496000*%
%ADD20FreePoly0,0.000000*%
%ADD21FreePoly1,0.000000*%
%ADD22C,4.800000*%
%ADD23RoundRect,0.200000X-0.450000X-0.600000X0.450000X-0.600000X0.450000X0.600000X-0.450000X0.600000X0*%
%ADD24C,2.400000*%
%ADD25O,2.100000X2.100000*%
%ADD26RoundRect,0.350000X0.150000X0.625000X-0.150000X0.625000X-0.150000X-0.625000X0.150000X-0.625000X0*%
%ADD27RoundRect,0.450000X0.350000X0.650000X-0.350000X0.650000X-0.350000X-0.650000X0.350000X-0.650000X0*%
%ADD28RoundRect,0.350000X-0.625000X0.150000X-0.625000X-0.150000X0.625000X-0.150000X0.625000X0.150000X0*%
%ADD29RoundRect,0.450000X-0.650000X0.350000X-0.650000X-0.350000X0.650000X-0.350000X0.650000X0.350000X0*%
G04 APERTURE END LIST*
D10*
G36*
X172926644Y-32417731D02*
G01*
X172960839Y-32451925D01*
X173000167Y-32530582D01*
X173000167Y-32654797D01*
X172960838Y-32733453D01*
X172926645Y-32767647D01*
X172847989Y-32806975D01*
X172552345Y-32806975D01*
X172473689Y-32767647D01*
X172439494Y-32733451D01*
X172400167Y-32654797D01*
X172400167Y-32530581D01*
X172439495Y-32451925D01*
X172473687Y-32417732D01*
X172552345Y-32378404D01*
X172847989Y-32378404D01*
X172926644Y-32417731D01*
G37*
G36*
X172926644Y-31332017D02*
G01*
X172960839Y-31366211D01*
X173000167Y-31444868D01*
X173000167Y-31626226D01*
X172981221Y-31664118D01*
X172419113Y-31664118D01*
X172400167Y-31626226D01*
X172400167Y-31444867D01*
X172439495Y-31366211D01*
X172473687Y-31332018D01*
X172552345Y-31292690D01*
X172847989Y-31292690D01*
X172926644Y-31332017D01*
G37*
G36*
X174176739Y-34651263D02*
G01*
X171533881Y-34651263D01*
X171533881Y-33607522D01*
X172197006Y-33607522D01*
X172221401Y-33660941D01*
X172270804Y-33692690D01*
X173400167Y-33692690D01*
X173400167Y-33949926D01*
X173412490Y-33991894D01*
X173456872Y-34030351D01*
X173514999Y-34038708D01*
X173568418Y-34014313D01*
X173600167Y-33964910D01*
X173600167Y-33599844D01*
X173603328Y-33577858D01*
X173600167Y-33570936D01*
X173600167Y-33235454D01*
X173587844Y-33193486D01*
X173543462Y-33155029D01*
X173485335Y-33146672D01*
X173431916Y-33171067D01*
X173400167Y-33220470D01*
X173400167Y-33492690D01*
X172285788Y-33492690D01*
X172243820Y-33505013D01*
X172205363Y-33549395D01*
X172197006Y-33607522D01*
X171533881Y-33607522D01*
X171533881Y-32518163D01*
X172196547Y-32518163D01*
X172200167Y-32526891D01*
X172200167Y-32673020D01*
X172197593Y-32696863D01*
X172206731Y-32715140D01*
X172212490Y-32734751D01*
X172219630Y-32740938D01*
X172262259Y-32826195D01*
X172265836Y-32842636D01*
X172285313Y-32862114D01*
X172304089Y-32882298D01*
X172305980Y-32882781D01*
X172334876Y-32911678D01*
X172343468Y-32926143D01*
X172368095Y-32938456D01*
X172392298Y-32951672D01*
X172394247Y-32951532D01*
X172479196Y-32994007D01*
X172499375Y-33006975D01*
X172519811Y-33006975D01*
X172539926Y-33010595D01*
X172548654Y-33006975D01*
X172866210Y-33006975D01*
X172890053Y-33009549D01*
X172908329Y-33000410D01*
X172927942Y-32994652D01*
X172934129Y-32987510D01*
X173019388Y-32944881D01*
X173035829Y-32941305D01*
X173055300Y-32921833D01*
X173075490Y-32903053D01*
X173075974Y-32901159D01*
X173104867Y-32872266D01*
X173119335Y-32863674D01*
X173131658Y-32839027D01*
X173144864Y-32814843D01*
X173144724Y-32812894D01*
X173187199Y-32727945D01*
X173200167Y-32707767D01*
X173200167Y-32687331D01*
X173203787Y-32667216D01*
X173200167Y-32658488D01*
X173200167Y-32512360D01*
X173202741Y-32488517D01*
X173193602Y-32470240D01*
X173187844Y-32450628D01*
X173180702Y-32444439D01*
X173138074Y-32359183D01*
X173134497Y-32342741D01*
X173115025Y-32323270D01*
X173096246Y-32303080D01*
X173094350Y-32302595D01*
X173065459Y-32273704D01*
X173056866Y-32259236D01*
X173032231Y-32246918D01*
X173008034Y-32233706D01*
X173006084Y-32233845D01*
X172921135Y-32191371D01*
X172900958Y-32178404D01*
X172880522Y-32178404D01*
X172860407Y-32174784D01*
X172851679Y-32178404D01*
X172534123Y-32178404D01*
X172510280Y-32175830D01*
X172492003Y-32184968D01*
X172472391Y-32190727D01*
X172466202Y-32197868D01*
X172380946Y-32240496D01*
X172364504Y-32244074D01*
X172345029Y-32263548D01*
X172324843Y-32282325D01*
X172324358Y-32284219D01*
X172295467Y-32313110D01*
X172280999Y-32321704D01*
X172268676Y-32346348D01*
X172255470Y-32370535D01*
X172255609Y-32372483D01*
X172213134Y-32457434D01*
X172200167Y-32477612D01*
X172200167Y-32498048D01*
X172196547Y-32518163D01*
X171533881Y-32518163D01*
X171533881Y-31778950D01*
X171797006Y-31778950D01*
X171821401Y-31832369D01*
X171870804Y-31864118D01*
X172344724Y-31864118D01*
X172360984Y-31868276D01*
X172373495Y-31864118D01*
X173041257Y-31864118D01*
X173068844Y-31865091D01*
X173070482Y-31864118D01*
X173114546Y-31864118D01*
X173156514Y-31851795D01*
X173194971Y-31807413D01*
X173203328Y-31749286D01*
X173183716Y-31706340D01*
X173187199Y-31699374D01*
X173200167Y-31679196D01*
X173200167Y-31658760D01*
X173203787Y-31638645D01*
X173200167Y-31629917D01*
X173200167Y-31426646D01*
X173202741Y-31402803D01*
X173193602Y-31384526D01*
X173187844Y-31364914D01*
X173180702Y-31358725D01*
X173138074Y-31273469D01*
X173134497Y-31257027D01*
X173115025Y-31237556D01*
X173096246Y-31217366D01*
X173094350Y-31216881D01*
X173065459Y-31187990D01*
X173056866Y-31173522D01*
X173032231Y-31161204D01*
X173008034Y-31147992D01*
X173006084Y-31148131D01*
X172921135Y-31105657D01*
X172900958Y-31092690D01*
X172880522Y-31092690D01*
X172860407Y-31089070D01*
X172851679Y-31092690D01*
X172534123Y-31092690D01*
X172510280Y-31090116D01*
X172492003Y-31099254D01*
X172472391Y-31105013D01*
X172466202Y-31112154D01*
X172380946Y-31154782D01*
X172364504Y-31158360D01*
X172345029Y-31177834D01*
X172324843Y-31196611D01*
X172324358Y-31198505D01*
X172295467Y-31227396D01*
X172280999Y-31235990D01*
X172268676Y-31260634D01*
X172255470Y-31284821D01*
X172255609Y-31286769D01*
X172213134Y-31371720D01*
X172200167Y-31391898D01*
X172200167Y-31412334D01*
X172196547Y-31432449D01*
X172200167Y-31441177D01*
X172200167Y-31644449D01*
X172198044Y-31664118D01*
X171885788Y-31664118D01*
X171843820Y-31676441D01*
X171805363Y-31720823D01*
X171797006Y-31778950D01*
X171533881Y-31778950D01*
X171533881Y-29493236D01*
X172197006Y-29493236D01*
X172200167Y-29500158D01*
X172200167Y-29835640D01*
X172212490Y-29877608D01*
X172256872Y-29916065D01*
X172314999Y-29924422D01*
X172368418Y-29900027D01*
X172400167Y-29850624D01*
X172400167Y-29578404D01*
X173201601Y-29578404D01*
X173152606Y-29627398D01*
X173138140Y-29635991D01*
X173125819Y-29660632D01*
X173112612Y-29684821D01*
X173112751Y-29686769D01*
X173061437Y-29789401D01*
X173053690Y-29832450D01*
X173076189Y-29886695D01*
X173124442Y-29920164D01*
X173183131Y-29922234D01*
X173233622Y-29892245D01*
X173296636Y-29766212D01*
X173392446Y-29670402D01*
X173542958Y-29570061D01*
X173556514Y-29566081D01*
X173566888Y-29554107D01*
X173567601Y-29553633D01*
X173576289Y-29543259D01*
X173594971Y-29521699D01*
X173595100Y-29520797D01*
X173595685Y-29520100D01*
X173599267Y-29491814D01*
X173603328Y-29463572D01*
X173602949Y-29462743D01*
X173603064Y-29461840D01*
X173590785Y-29436107D01*
X173578933Y-29410153D01*
X173578166Y-29409660D01*
X173577775Y-29408840D01*
X173553535Y-29393831D01*
X173529530Y-29378404D01*
X173528620Y-29378404D01*
X173527845Y-29377924D01*
X173499290Y-29378404D01*
X172400167Y-29378404D01*
X172400167Y-29121168D01*
X172387844Y-29079200D01*
X172343462Y-29040743D01*
X172285335Y-29032386D01*
X172231916Y-29056781D01*
X172200167Y-29106184D01*
X172200167Y-29471250D01*
X172197006Y-29493236D01*
X171533881Y-29493236D01*
X171533881Y-28305548D01*
X174176739Y-28305548D01*
X174176739Y-34651263D01*
G37*
G36*
X153876644Y-32417731D02*
G01*
X153910839Y-32451925D01*
X153950167Y-32530582D01*
X153950167Y-32654797D01*
X153910838Y-32733453D01*
X153876645Y-32767647D01*
X153797989Y-32806975D01*
X153502345Y-32806975D01*
X153423689Y-32767647D01*
X153389494Y-32733451D01*
X153350167Y-32654797D01*
X153350167Y-32530581D01*
X153389495Y-32451925D01*
X153423687Y-32417732D01*
X153502345Y-32378404D01*
X153797989Y-32378404D01*
X153876644Y-32417731D01*
G37*
G36*
X153876644Y-31332017D02*
G01*
X153910839Y-31366211D01*
X153950167Y-31444868D01*
X153950167Y-31626226D01*
X153931221Y-31664118D01*
X153369113Y-31664118D01*
X153350167Y-31626226D01*
X153350167Y-31444867D01*
X153389495Y-31366211D01*
X153423687Y-31332018D01*
X153502345Y-31292690D01*
X153797989Y-31292690D01*
X153876644Y-31332017D01*
G37*
G36*
X155126739Y-34651263D02*
G01*
X152483881Y-34651263D01*
X152483881Y-33607522D01*
X153147006Y-33607522D01*
X153171401Y-33660941D01*
X153220804Y-33692690D01*
X154350167Y-33692690D01*
X154350167Y-33949926D01*
X154362490Y-33991894D01*
X154406872Y-34030351D01*
X154464999Y-34038708D01*
X154518418Y-34014313D01*
X154550167Y-33964910D01*
X154550167Y-33599844D01*
X154553328Y-33577858D01*
X154550167Y-33570936D01*
X154550167Y-33235454D01*
X154537844Y-33193486D01*
X154493462Y-33155029D01*
X154435335Y-33146672D01*
X154381916Y-33171067D01*
X154350167Y-33220470D01*
X154350167Y-33492690D01*
X153235788Y-33492690D01*
X153193820Y-33505013D01*
X153155363Y-33549395D01*
X153147006Y-33607522D01*
X152483881Y-33607522D01*
X152483881Y-32518163D01*
X153146547Y-32518163D01*
X153150167Y-32526891D01*
X153150167Y-32673020D01*
X153147593Y-32696863D01*
X153156731Y-32715140D01*
X153162490Y-32734751D01*
X153169630Y-32740938D01*
X153212259Y-32826195D01*
X153215836Y-32842636D01*
X153235313Y-32862114D01*
X153254089Y-32882298D01*
X153255980Y-32882781D01*
X153284876Y-32911678D01*
X153293468Y-32926143D01*
X153318095Y-32938456D01*
X153342298Y-32951672D01*
X153344247Y-32951532D01*
X153429196Y-32994007D01*
X153449375Y-33006975D01*
X153469811Y-33006975D01*
X153489926Y-33010595D01*
X153498654Y-33006975D01*
X153816210Y-33006975D01*
X153840053Y-33009549D01*
X153858329Y-33000410D01*
X153877942Y-32994652D01*
X153884129Y-32987510D01*
X153969388Y-32944881D01*
X153985829Y-32941305D01*
X154005300Y-32921833D01*
X154025490Y-32903053D01*
X154025974Y-32901159D01*
X154054867Y-32872266D01*
X154069335Y-32863674D01*
X154081658Y-32839027D01*
X154094864Y-32814843D01*
X154094724Y-32812894D01*
X154137199Y-32727945D01*
X154150167Y-32707767D01*
X154150167Y-32687331D01*
X154153787Y-32667216D01*
X154150167Y-32658488D01*
X154150167Y-32512360D01*
X154152741Y-32488517D01*
X154143602Y-32470240D01*
X154137844Y-32450628D01*
X154130702Y-32444439D01*
X154088074Y-32359183D01*
X154084497Y-32342741D01*
X154065025Y-32323270D01*
X154046246Y-32303080D01*
X154044350Y-32302595D01*
X154015459Y-32273704D01*
X154006866Y-32259236D01*
X153982231Y-32246918D01*
X153958034Y-32233706D01*
X153956084Y-32233845D01*
X153871135Y-32191371D01*
X153850958Y-32178404D01*
X153830522Y-32178404D01*
X153810407Y-32174784D01*
X153801679Y-32178404D01*
X153484123Y-32178404D01*
X153460280Y-32175830D01*
X153442003Y-32184968D01*
X153422391Y-32190727D01*
X153416202Y-32197868D01*
X153330946Y-32240496D01*
X153314504Y-32244074D01*
X153295029Y-32263548D01*
X153274843Y-32282325D01*
X153274358Y-32284219D01*
X153245467Y-32313110D01*
X153230999Y-32321704D01*
X153218676Y-32346348D01*
X153205470Y-32370535D01*
X153205609Y-32372483D01*
X153163134Y-32457434D01*
X153150167Y-32477612D01*
X153150167Y-32498048D01*
X153146547Y-32518163D01*
X152483881Y-32518163D01*
X152483881Y-31778950D01*
X152747006Y-31778950D01*
X152771401Y-31832369D01*
X152820804Y-31864118D01*
X153294724Y-31864118D01*
X153310984Y-31868276D01*
X153323495Y-31864118D01*
X153991257Y-31864118D01*
X154018844Y-31865091D01*
X154020482Y-31864118D01*
X154064546Y-31864118D01*
X154106514Y-31851795D01*
X154144971Y-31807413D01*
X154153328Y-31749286D01*
X154133716Y-31706340D01*
X154137199Y-31699374D01*
X154150167Y-31679196D01*
X154150167Y-31658760D01*
X154153787Y-31638645D01*
X154150167Y-31629917D01*
X154150167Y-31426646D01*
X154152741Y-31402803D01*
X154143602Y-31384526D01*
X154137844Y-31364914D01*
X154130702Y-31358725D01*
X154088074Y-31273469D01*
X154084497Y-31257027D01*
X154065025Y-31237556D01*
X154046246Y-31217366D01*
X154044350Y-31216881D01*
X154015459Y-31187990D01*
X154006866Y-31173522D01*
X153982231Y-31161204D01*
X153958034Y-31147992D01*
X153956084Y-31148131D01*
X153871135Y-31105657D01*
X153850958Y-31092690D01*
X153830522Y-31092690D01*
X153810407Y-31089070D01*
X153801679Y-31092690D01*
X153484123Y-31092690D01*
X153460280Y-31090116D01*
X153442003Y-31099254D01*
X153422391Y-31105013D01*
X153416202Y-31112154D01*
X153330946Y-31154782D01*
X153314504Y-31158360D01*
X153295029Y-31177834D01*
X153274843Y-31196611D01*
X153274358Y-31198505D01*
X153245467Y-31227396D01*
X153230999Y-31235990D01*
X153218676Y-31260634D01*
X153205470Y-31284821D01*
X153205609Y-31286769D01*
X153163134Y-31371720D01*
X153150167Y-31391898D01*
X153150167Y-31412334D01*
X153146547Y-31432449D01*
X153150167Y-31441177D01*
X153150167Y-31644449D01*
X153148044Y-31664118D01*
X152835788Y-31664118D01*
X152793820Y-31676441D01*
X152755363Y-31720823D01*
X152747006Y-31778950D01*
X152483881Y-31778950D01*
X152483881Y-29856250D01*
X153148327Y-29856250D01*
X153150167Y-29881979D01*
X153150167Y-29892783D01*
X153151188Y-29896261D01*
X153152516Y-29914826D01*
X153159300Y-29923889D01*
X153162490Y-29934751D01*
X153176555Y-29946938D01*
X153187709Y-29961838D01*
X153198316Y-29965794D01*
X153206872Y-29973208D01*
X153225292Y-29975856D01*
X153242732Y-29982361D01*
X153253794Y-29979954D01*
X153264999Y-29981565D01*
X153281929Y-29973833D01*
X153300115Y-29969877D01*
X153308118Y-29961873D01*
X153318418Y-29957170D01*
X153328481Y-29941510D01*
X153989898Y-29280093D01*
X154123537Y-29235547D01*
X154197989Y-29235547D01*
X154276645Y-29274875D01*
X154310838Y-29309068D01*
X154350167Y-29387725D01*
X154350167Y-29626226D01*
X154310838Y-29704882D01*
X154255003Y-29760718D01*
X154234041Y-29799107D01*
X154238230Y-29857683D01*
X154273423Y-29904695D01*
X154328446Y-29925218D01*
X154385829Y-29912734D01*
X154454867Y-29843695D01*
X154469335Y-29835103D01*
X154481658Y-29810456D01*
X154494864Y-29786272D01*
X154494724Y-29784323D01*
X154537199Y-29699374D01*
X154550167Y-29679196D01*
X154550167Y-29658760D01*
X154553787Y-29638645D01*
X154550167Y-29629917D01*
X154550167Y-29369503D01*
X154552741Y-29345660D01*
X154543602Y-29327383D01*
X154537844Y-29307771D01*
X154530702Y-29301582D01*
X154488073Y-29216324D01*
X154484497Y-29199885D01*
X154465025Y-29180413D01*
X154446245Y-29160224D01*
X154444351Y-29159739D01*
X154415459Y-29130847D01*
X154406866Y-29116379D01*
X154382221Y-29104056D01*
X154358035Y-29090850D01*
X154356086Y-29090989D01*
X154271135Y-29048514D01*
X154250958Y-29035547D01*
X154230522Y-29035547D01*
X154210407Y-29031927D01*
X154201679Y-29035547D01*
X154119850Y-29035547D01*
X154103543Y-29031393D01*
X154077401Y-29040106D01*
X154050963Y-29047870D01*
X154049683Y-29049346D01*
X153909368Y-29096118D01*
X153885933Y-29101217D01*
X153871483Y-29115666D01*
X153854700Y-29127331D01*
X153851088Y-29136061D01*
X153350167Y-29636983D01*
X153350167Y-29121168D01*
X153337844Y-29079200D01*
X153293462Y-29040743D01*
X153235335Y-29032386D01*
X153181916Y-29056781D01*
X153150167Y-29106184D01*
X153150167Y-29852880D01*
X153148327Y-29856250D01*
X152483881Y-29856250D01*
X152483881Y-28305548D01*
X155126739Y-28305548D01*
X155126739Y-34651263D01*
G37*
G36*
X133491023Y-37752493D02*
G01*
X133491023Y-38314602D01*
X133453132Y-38333547D01*
X133271773Y-38333547D01*
X133193116Y-38294220D01*
X133158922Y-38260024D01*
X133119595Y-38181370D01*
X133119595Y-37885725D01*
X133158922Y-37807069D01*
X133193116Y-37772874D01*
X133271773Y-37733547D01*
X133453131Y-37733547D01*
X133491023Y-37752493D01*
G37*
G36*
X134560358Y-37772875D02*
G01*
X134594551Y-37807068D01*
X134633880Y-37885726D01*
X134633880Y-38181369D01*
X134594551Y-38260026D01*
X134560358Y-38294219D01*
X134481703Y-38333547D01*
X134357487Y-38333547D01*
X134278830Y-38294220D01*
X134244636Y-38260024D01*
X134205309Y-38181370D01*
X134205309Y-37885725D01*
X134244636Y-37807069D01*
X134278830Y-37772874D01*
X134357487Y-37733547D01*
X134481702Y-37733547D01*
X134560358Y-37772875D01*
G37*
G36*
X136478168Y-39199834D02*
G01*
X130132453Y-39199834D01*
X130132453Y-37930450D01*
X130858832Y-37930450D01*
X130862452Y-37939178D01*
X130862452Y-38199591D01*
X130859878Y-38223434D01*
X130869016Y-38241710D01*
X130874775Y-38261323D01*
X130881916Y-38267510D01*
X130924545Y-38352769D01*
X130928122Y-38369210D01*
X130947593Y-38388681D01*
X130966374Y-38408871D01*
X130968267Y-38409355D01*
X130997161Y-38438249D01*
X131005754Y-38452716D01*
X131030386Y-38465032D01*
X131054584Y-38478245D01*
X131056533Y-38478105D01*
X131141482Y-38520579D01*
X131161660Y-38533547D01*
X131182096Y-38533547D01*
X131202211Y-38537167D01*
X131210939Y-38533547D01*
X131528498Y-38533547D01*
X131552338Y-38536121D01*
X131570615Y-38526982D01*
X131590227Y-38521224D01*
X131596414Y-38514083D01*
X131681674Y-38471454D01*
X131698114Y-38467878D01*
X131717584Y-38448407D01*
X131737774Y-38429627D01*
X131738258Y-38427733D01*
X131786187Y-38379805D01*
X131807149Y-38341416D01*
X131802959Y-38282840D01*
X131767767Y-38235829D01*
X131712744Y-38215306D01*
X131655361Y-38227789D01*
X131588931Y-38294218D01*
X131510273Y-38333547D01*
X131214630Y-38333547D01*
X131135973Y-38294219D01*
X131101780Y-38260026D01*
X131062452Y-38181370D01*
X131062452Y-37942868D01*
X131097233Y-37873307D01*
X132915975Y-37873307D01*
X132919595Y-37882035D01*
X132919595Y-38199591D01*
X132917021Y-38223434D01*
X132926159Y-38241710D01*
X132931918Y-38261323D01*
X132939059Y-38267510D01*
X132981687Y-38352767D01*
X132985264Y-38369209D01*
X133004741Y-38388687D01*
X133023517Y-38408871D01*
X133025408Y-38409354D01*
X133054303Y-38438249D01*
X133062896Y-38452717D01*
X133087537Y-38465037D01*
X133111726Y-38478245D01*
X133113674Y-38478105D01*
X133198626Y-38520580D01*
X133218803Y-38533547D01*
X133239239Y-38533547D01*
X133259355Y-38537167D01*
X133268083Y-38533547D01*
X133471353Y-38533547D01*
X133491023Y-38535671D01*
X133491023Y-38847926D01*
X133503346Y-38889894D01*
X133547728Y-38928351D01*
X133605855Y-38936708D01*
X133659274Y-38912313D01*
X133691023Y-38862910D01*
X133691023Y-38388988D01*
X133695180Y-38372732D01*
X133691023Y-38360223D01*
X133691023Y-37873307D01*
X134001689Y-37873307D01*
X134005309Y-37882035D01*
X134005309Y-38199591D01*
X134002735Y-38223434D01*
X134011873Y-38241710D01*
X134017632Y-38261323D01*
X134024773Y-38267510D01*
X134067401Y-38352767D01*
X134070978Y-38369209D01*
X134090455Y-38388687D01*
X134109231Y-38408871D01*
X134111122Y-38409354D01*
X134140017Y-38438249D01*
X134148610Y-38452717D01*
X134173251Y-38465037D01*
X134197440Y-38478245D01*
X134199388Y-38478105D01*
X134284340Y-38520580D01*
X134304517Y-38533547D01*
X134324953Y-38533547D01*
X134345069Y-38537167D01*
X134353797Y-38533547D01*
X134499924Y-38533547D01*
X134523767Y-38536121D01*
X134542044Y-38526982D01*
X134561656Y-38521224D01*
X134567843Y-38514083D01*
X134653102Y-38471454D01*
X134669542Y-38467878D01*
X134689012Y-38448407D01*
X134709202Y-38429627D01*
X134709686Y-38427733D01*
X134738581Y-38398838D01*
X134753048Y-38390246D01*
X134765365Y-38365611D01*
X134778577Y-38341416D01*
X134778437Y-38339466D01*
X134820912Y-38254517D01*
X134833880Y-38234339D01*
X134833880Y-38213903D01*
X134837500Y-38193788D01*
X134833880Y-38185060D01*
X134833880Y-37867504D01*
X134836454Y-37843661D01*
X134827315Y-37825384D01*
X134821557Y-37805772D01*
X134814415Y-37799583D01*
X134771786Y-37714326D01*
X134768210Y-37697885D01*
X134748735Y-37678410D01*
X134729959Y-37658224D01*
X134728064Y-37657739D01*
X134699172Y-37628847D01*
X134690579Y-37614379D01*
X134665930Y-37602054D01*
X134641748Y-37588850D01*
X134639799Y-37588989D01*
X134554847Y-37546512D01*
X134534672Y-37533547D01*
X134514237Y-37533547D01*
X134494121Y-37529927D01*
X134485393Y-37533547D01*
X134339265Y-37533547D01*
X134315422Y-37530973D01*
X134297145Y-37540111D01*
X134277533Y-37545870D01*
X134271344Y-37553011D01*
X134186088Y-37595639D01*
X134169646Y-37599217D01*
X134150175Y-37618688D01*
X134129985Y-37637468D01*
X134129500Y-37639363D01*
X134100609Y-37668254D01*
X134086141Y-37676848D01*
X134073823Y-37701482D01*
X134060611Y-37725680D01*
X134060750Y-37727629D01*
X134018276Y-37812578D01*
X134005309Y-37832756D01*
X134005309Y-37853192D01*
X134001689Y-37873307D01*
X133691023Y-37873307D01*
X133691023Y-37692472D01*
X133691997Y-37664870D01*
X133691023Y-37663230D01*
X133691023Y-37619168D01*
X133678700Y-37577200D01*
X133634318Y-37538743D01*
X133576191Y-37530386D01*
X133533246Y-37549997D01*
X133526276Y-37546512D01*
X133506101Y-37533547D01*
X133485666Y-37533547D01*
X133465550Y-37529927D01*
X133456822Y-37533547D01*
X133253551Y-37533547D01*
X133229708Y-37530973D01*
X133211431Y-37540111D01*
X133191819Y-37545870D01*
X133185630Y-37553011D01*
X133100374Y-37595639D01*
X133083932Y-37599217D01*
X133064461Y-37618688D01*
X133044271Y-37637468D01*
X133043786Y-37639363D01*
X133014895Y-37668254D01*
X133000427Y-37676848D01*
X132988109Y-37701482D01*
X132974897Y-37725680D01*
X132975036Y-37727629D01*
X132932562Y-37812578D01*
X132919595Y-37832756D01*
X132919595Y-37853192D01*
X132915975Y-37873307D01*
X131097233Y-37873307D01*
X131101780Y-37864212D01*
X131135973Y-37830018D01*
X131214630Y-37790690D01*
X131333351Y-37790690D01*
X131333573Y-37790831D01*
X131362729Y-37790690D01*
X131376831Y-37790690D01*
X131377067Y-37790620D01*
X131392298Y-37790547D01*
X131404657Y-37782519D01*
X131418799Y-37778367D01*
X131428773Y-37766855D01*
X131441546Y-37758560D01*
X131447603Y-37745124D01*
X131457256Y-37733985D01*
X131459423Y-37718909D01*
X131465684Y-37705024D01*
X131463515Y-37690445D01*
X131465613Y-37675858D01*
X131459285Y-37662002D01*
X131457045Y-37646937D01*
X131447340Y-37635846D01*
X131441218Y-37622439D01*
X131428403Y-37614203D01*
X131182829Y-37333547D01*
X131719688Y-37333547D01*
X131761656Y-37321224D01*
X131800113Y-37276842D01*
X131804205Y-37248379D01*
X134973577Y-37248379D01*
X134997972Y-37301798D01*
X135047375Y-37333547D01*
X135319595Y-37333547D01*
X135319595Y-38447926D01*
X135331918Y-38489894D01*
X135376300Y-38528351D01*
X135434427Y-38536708D01*
X135487846Y-38512313D01*
X135519595Y-38462910D01*
X135519595Y-37333547D01*
X135776831Y-37333547D01*
X135818799Y-37321224D01*
X135857256Y-37276842D01*
X135865613Y-37218715D01*
X135841218Y-37165296D01*
X135791815Y-37133547D01*
X135426749Y-37133547D01*
X135404763Y-37130386D01*
X135397841Y-37133547D01*
X135062359Y-37133547D01*
X135020391Y-37145870D01*
X134981934Y-37190252D01*
X134973577Y-37248379D01*
X131804205Y-37248379D01*
X131808470Y-37218715D01*
X131784075Y-37165296D01*
X131734672Y-37133547D01*
X130991553Y-37133547D01*
X130991331Y-37133406D01*
X130962175Y-37133547D01*
X130948073Y-37133547D01*
X130947836Y-37133616D01*
X130932606Y-37133690D01*
X130920246Y-37141717D01*
X130906105Y-37145870D01*
X130896130Y-37157381D01*
X130883358Y-37165677D01*
X130877300Y-37179112D01*
X130867648Y-37190252D01*
X130865480Y-37205327D01*
X130859220Y-37219213D01*
X130861388Y-37233791D01*
X130859291Y-37248379D01*
X130865618Y-37262234D01*
X130867859Y-37277300D01*
X130877563Y-37288390D01*
X130883686Y-37301798D01*
X130896500Y-37310033D01*
X131149141Y-37598765D01*
X131134676Y-37603013D01*
X131128487Y-37610154D01*
X131043229Y-37652783D01*
X131026790Y-37656360D01*
X131007318Y-37675831D01*
X130987129Y-37694612D01*
X130986644Y-37696505D01*
X130957752Y-37725397D01*
X130943284Y-37733991D01*
X130930961Y-37758635D01*
X130917755Y-37782822D01*
X130917894Y-37784770D01*
X130875419Y-37869721D01*
X130862452Y-37889899D01*
X130862452Y-37910335D01*
X130858832Y-37930450D01*
X130132453Y-37930450D01*
X130132453Y-36556976D01*
X136478168Y-36556976D01*
X136478168Y-39199834D01*
G37*
D11*
X293733881Y-35572333D02*
X293733881Y-36643762D01*
X293733881Y-36643762D02*
X293805310Y-36858047D01*
X293805310Y-36858047D02*
X293948167Y-37000905D01*
X293948167Y-37000905D02*
X294162453Y-37072333D01*
X294162453Y-37072333D02*
X294305310Y-37072333D01*
X292305310Y-37072333D02*
X293019596Y-37072333D01*
X293019596Y-37072333D02*
X293019596Y-35572333D01*
X290948167Y-36929476D02*
X291019595Y-37000905D01*
X291019595Y-37000905D02*
X291233881Y-37072333D01*
X291233881Y-37072333D02*
X291376738Y-37072333D01*
X291376738Y-37072333D02*
X291591024Y-37000905D01*
X291591024Y-37000905D02*
X291733881Y-36858047D01*
X291733881Y-36858047D02*
X291805310Y-36715190D01*
X291805310Y-36715190D02*
X291876738Y-36429476D01*
X291876738Y-36429476D02*
X291876738Y-36215190D01*
X291876738Y-36215190D02*
X291805310Y-35929476D01*
X291805310Y-35929476D02*
X291733881Y-35786619D01*
X291733881Y-35786619D02*
X291591024Y-35643762D01*
X291591024Y-35643762D02*
X291376738Y-35572333D01*
X291376738Y-35572333D02*
X291233881Y-35572333D01*
X291233881Y-35572333D02*
X291019595Y-35643762D01*
X291019595Y-35643762D02*
X290948167Y-35715190D01*
X289876738Y-35572333D02*
X289876738Y-36643762D01*
X289876738Y-36643762D02*
X289948167Y-36858047D01*
X289948167Y-36858047D02*
X290091024Y-37000905D01*
X290091024Y-37000905D02*
X290305310Y-37072333D01*
X290305310Y-37072333D02*
X290448167Y-37072333D01*
X288448167Y-37072333D02*
X289162453Y-37072333D01*
X289162453Y-37072333D02*
X289162453Y-35572333D01*
X287091024Y-36929476D02*
X287162452Y-37000905D01*
X287162452Y-37000905D02*
X287376738Y-37072333D01*
X287376738Y-37072333D02*
X287519595Y-37072333D01*
X287519595Y-37072333D02*
X287733881Y-37000905D01*
X287733881Y-37000905D02*
X287876738Y-36858047D01*
X287876738Y-36858047D02*
X287948167Y-36715190D01*
X287948167Y-36715190D02*
X288019595Y-36429476D01*
X288019595Y-36429476D02*
X288019595Y-36215190D01*
X288019595Y-36215190D02*
X287948167Y-35929476D01*
X287948167Y-35929476D02*
X287876738Y-35786619D01*
X287876738Y-35786619D02*
X287733881Y-35643762D01*
X287733881Y-35643762D02*
X287519595Y-35572333D01*
X287519595Y-35572333D02*
X287376738Y-35572333D01*
X287376738Y-35572333D02*
X287162452Y-35643762D01*
X287162452Y-35643762D02*
X287091024Y-35715190D01*
X286019595Y-35572333D02*
X286019595Y-36643762D01*
X286019595Y-36643762D02*
X286091024Y-36858047D01*
X286091024Y-36858047D02*
X286233881Y-37000905D01*
X286233881Y-37000905D02*
X286448167Y-37072333D01*
X286448167Y-37072333D02*
X286591024Y-37072333D01*
X284591024Y-37072333D02*
X285305310Y-37072333D01*
X285305310Y-37072333D02*
X285305310Y-35572333D01*
X283233881Y-36929476D02*
X283305309Y-37000905D01*
X283305309Y-37000905D02*
X283519595Y-37072333D01*
X283519595Y-37072333D02*
X283662452Y-37072333D01*
X283662452Y-37072333D02*
X283876738Y-37000905D01*
X283876738Y-37000905D02*
X284019595Y-36858047D01*
X284019595Y-36858047D02*
X284091024Y-36715190D01*
X284091024Y-36715190D02*
X284162452Y-36429476D01*
X284162452Y-36429476D02*
X284162452Y-36215190D01*
X284162452Y-36215190D02*
X284091024Y-35929476D01*
X284091024Y-35929476D02*
X284019595Y-35786619D01*
X284019595Y-35786619D02*
X283876738Y-35643762D01*
X283876738Y-35643762D02*
X283662452Y-35572333D01*
X283662452Y-35572333D02*
X283519595Y-35572333D01*
X283519595Y-35572333D02*
X283305309Y-35643762D01*
X283305309Y-35643762D02*
X283233881Y-35715190D01*
X282162452Y-35572333D02*
X282162452Y-36643762D01*
X282162452Y-36643762D02*
X282233881Y-36858047D01*
X282233881Y-36858047D02*
X282376738Y-37000905D01*
X282376738Y-37000905D02*
X282591024Y-37072333D01*
X282591024Y-37072333D02*
X282733881Y-37072333D01*
X280733881Y-37072333D02*
X281448167Y-37072333D01*
X281448167Y-37072333D02*
X281448167Y-35572333D01*
X279376738Y-36929476D02*
X279448166Y-37000905D01*
X279448166Y-37000905D02*
X279662452Y-37072333D01*
X279662452Y-37072333D02*
X279805309Y-37072333D01*
X279805309Y-37072333D02*
X280019595Y-37000905D01*
X280019595Y-37000905D02*
X280162452Y-36858047D01*
X280162452Y-36858047D02*
X280233881Y-36715190D01*
X280233881Y-36715190D02*
X280305309Y-36429476D01*
X280305309Y-36429476D02*
X280305309Y-36215190D01*
X280305309Y-36215190D02*
X280233881Y-35929476D01*
X280233881Y-35929476D02*
X280162452Y-35786619D01*
X280162452Y-35786619D02*
X280019595Y-35643762D01*
X280019595Y-35643762D02*
X279805309Y-35572333D01*
X279805309Y-35572333D02*
X279662452Y-35572333D01*
X279662452Y-35572333D02*
X279448166Y-35643762D01*
X279448166Y-35643762D02*
X279376738Y-35715190D01*
D12*
G36*
X164810969Y-75393643D02*
G01*
X164266074Y-75393643D01*
X164116960Y-75323472D01*
X164044274Y-75258860D01*
X163956124Y-75117821D01*
X163929677Y-74906246D01*
X163977039Y-74779946D01*
X164013325Y-74738476D01*
X164209455Y-74670257D01*
X164216437Y-74671343D01*
X164228446Y-74666024D01*
X164720016Y-74666024D01*
X164810969Y-75393643D01*
G37*
G36*
X164680016Y-74346024D02*
G01*
X164230361Y-74346024D01*
X164081245Y-74275851D01*
X164008560Y-74211242D01*
X163920410Y-74070202D01*
X163905867Y-73953864D01*
X163953229Y-73827565D01*
X163998105Y-73776278D01*
X164115547Y-73713643D01*
X164600969Y-73713643D01*
X164680016Y-74346024D01*
G37*
G36*
X162810057Y-75011699D02*
G01*
X162885446Y-75132321D01*
X162899988Y-75248658D01*
X162863614Y-75345658D01*
X162773642Y-75393643D01*
X162373217Y-75393643D01*
X162282909Y-75351145D01*
X162233045Y-74952234D01*
X162264056Y-74957056D01*
X162276063Y-74951738D01*
X162682639Y-74951738D01*
X162810057Y-75011699D01*
G37*
G36*
X153200801Y-74450480D02*
G01*
X153273486Y-74515089D01*
X153361636Y-74656131D01*
X153423797Y-75153419D01*
X153376435Y-75279720D01*
X153331558Y-75331008D01*
X153214118Y-75393643D01*
X152908931Y-75393643D01*
X152818623Y-75351145D01*
X152700345Y-74404924D01*
X152746499Y-74380309D01*
X153051687Y-74380309D01*
X153200801Y-74450480D01*
G37*
G36*
X151476724Y-74440270D02*
G01*
X151552113Y-74560892D01*
X151567955Y-74687634D01*
X150922318Y-74561656D01*
X150917772Y-74525293D01*
X150954146Y-74428294D01*
X151044119Y-74380309D01*
X151349306Y-74380309D01*
X151476724Y-74440270D01*
G37*
G36*
X166547215Y-76794119D02*
G01*
X149663406Y-76794119D01*
X149663406Y-74479252D01*
X150589527Y-74479252D01*
X150593388Y-74510141D01*
X150591113Y-74541183D01*
X150599105Y-74555882D01*
X150614518Y-74679181D01*
X150611380Y-74688182D01*
X150620270Y-74725197D01*
X150622017Y-74739172D01*
X150625614Y-74747451D01*
X150633323Y-74779545D01*
X150644010Y-74789782D01*
X150649910Y-74803358D01*
X150677345Y-74821713D01*
X150701176Y-74844541D01*
X150715699Y-74847374D01*
X150728004Y-74855607D01*
X150761009Y-74856215D01*
X151609729Y-75021819D01*
X151638084Y-75248657D01*
X151601709Y-75345658D01*
X151511737Y-75393643D01*
X151206550Y-75393643D01*
X151015716Y-75303839D01*
X150946562Y-75293087D01*
X150860652Y-75331138D01*
X150808951Y-75409597D01*
X150807877Y-75503551D01*
X150857768Y-75583172D01*
X151093133Y-75693931D01*
X151123805Y-75713643D01*
X151158423Y-75713643D01*
X151192627Y-75718961D01*
X151204634Y-75713643D01*
X151545232Y-75713643D01*
X151585579Y-75716928D01*
X151612556Y-75702540D01*
X151641893Y-75693926D01*
X151653222Y-75680851D01*
X151775487Y-75615643D01*
X151788307Y-75614749D01*
X151816276Y-75593888D01*
X151825902Y-75588755D01*
X151834618Y-75580208D01*
X151863626Y-75558574D01*
X151867662Y-75547808D01*
X151875874Y-75539758D01*
X151883914Y-75504470D01*
X151949073Y-75330711D01*
X151966330Y-75294699D01*
X151962469Y-75263812D01*
X151964745Y-75232770D01*
X151956751Y-75218068D01*
X151917528Y-74904290D01*
X151920666Y-74895293D01*
X151911778Y-74858285D01*
X151866625Y-74497065D01*
X151867079Y-74461063D01*
X151848493Y-74431326D01*
X151834517Y-74399165D01*
X151823991Y-74392122D01*
X151747977Y-74270501D01*
X151747979Y-74270401D01*
X151723106Y-74230707D01*
X151710939Y-74211239D01*
X151710868Y-74211176D01*
X151698088Y-74190780D01*
X151676480Y-74180611D01*
X151658630Y-74164746D01*
X151634848Y-74161020D01*
X151462722Y-74080020D01*
X151432051Y-74060309D01*
X151397433Y-74060309D01*
X151363229Y-74054991D01*
X151351222Y-74060309D01*
X151010619Y-74060309D01*
X150970278Y-74057024D01*
X150943300Y-74071412D01*
X150913964Y-74080026D01*
X150902635Y-74093100D01*
X150780366Y-74158309D01*
X150767549Y-74159204D01*
X150739586Y-74180059D01*
X150729955Y-74185196D01*
X150721234Y-74193746D01*
X150692230Y-74215379D01*
X150688193Y-74226143D01*
X150679983Y-74234194D01*
X150671941Y-74269481D01*
X150606783Y-74443238D01*
X150589527Y-74479252D01*
X149663406Y-74479252D01*
X149663406Y-73526871D01*
X152268098Y-73526871D01*
X152365670Y-74307450D01*
X152361488Y-74325806D01*
X152371383Y-74353155D01*
X152510670Y-75467448D01*
X152510258Y-75503551D01*
X152516410Y-75513370D01*
X152526779Y-75596315D01*
X152554673Y-75660501D01*
X152632766Y-75712749D01*
X152726712Y-75714482D01*
X152775381Y-75684457D01*
X152795514Y-75693931D01*
X152826186Y-75713643D01*
X152860804Y-75713643D01*
X152895008Y-75718961D01*
X152907015Y-75713643D01*
X153247613Y-75713643D01*
X153287960Y-75716928D01*
X153314937Y-75702540D01*
X153344274Y-75693926D01*
X153355603Y-75680851D01*
X153493163Y-75607485D01*
X153522167Y-75599121D01*
X153549074Y-75568368D01*
X153578255Y-75539758D01*
X153579714Y-75533351D01*
X153625272Y-75481285D01*
X153649340Y-75463335D01*
X153663744Y-75424923D01*
X153680964Y-75387693D01*
X153680083Y-75381352D01*
X153734789Y-75235470D01*
X153752044Y-75199461D01*
X153748183Y-75168574D01*
X153750459Y-75137532D01*
X153742465Y-75122830D01*
X153676148Y-74592303D01*
X153676602Y-74556302D01*
X153658017Y-74526566D01*
X153644040Y-74494403D01*
X153633514Y-74487360D01*
X153544848Y-74345493D01*
X153538387Y-74322411D01*
X153520467Y-74306482D01*
X153520464Y-74306477D01*
X153491111Y-74280388D01*
X153413251Y-74211179D01*
X153402197Y-74193537D01*
X154149050Y-74193537D01*
X154324398Y-75596316D01*
X154352292Y-75660501D01*
X154430385Y-75712750D01*
X154524331Y-75714482D01*
X154604298Y-75665150D01*
X154644901Y-75580414D01*
X154469553Y-74177636D01*
X154441659Y-74113450D01*
X154363566Y-74061202D01*
X154269620Y-74059469D01*
X154189653Y-74108802D01*
X154149050Y-74193537D01*
X153402197Y-74193537D01*
X153400469Y-74190780D01*
X153358202Y-74170890D01*
X153315649Y-74150802D01*
X153315544Y-74150815D01*
X153165103Y-74080020D01*
X153134432Y-74060309D01*
X153099814Y-74060309D01*
X153065610Y-74054991D01*
X153053603Y-74060309D01*
X152713005Y-74060309D01*
X152672658Y-74057024D01*
X152657845Y-74064924D01*
X152605576Y-73646773D01*
X153980234Y-73646773D01*
X153989981Y-73681593D01*
X153994956Y-73717419D01*
X154002458Y-73726162D01*
X154005564Y-73737255D01*
X154032589Y-73761277D01*
X154056143Y-73788727D01*
X154067181Y-73792026D01*
X154121441Y-73840256D01*
X154126100Y-73850977D01*
X154146949Y-73864926D01*
X154163286Y-73883965D01*
X154185191Y-73890512D01*
X154204194Y-73903226D01*
X154216855Y-73903459D01*
X154228302Y-73908863D01*
X154241019Y-73907198D01*
X154253311Y-73910872D01*
X154275277Y-73904537D01*
X154298139Y-73904959D01*
X154308913Y-73898312D01*
X154321467Y-73896669D01*
X154331269Y-73888390D01*
X154343593Y-73884836D01*
X154358648Y-73867630D01*
X154378107Y-73855626D01*
X154383577Y-73844209D01*
X154393250Y-73836040D01*
X154397019Y-73823777D01*
X154449912Y-73763328D01*
X154476584Y-73740802D01*
X154487209Y-73706235D01*
X154502393Y-73673410D01*
X154500808Y-73661998D01*
X154504193Y-73650989D01*
X154499237Y-73633285D01*
X154921427Y-73633285D01*
X154939352Y-73725521D01*
X155004297Y-73793423D01*
X155095643Y-73815434D01*
X155388293Y-73713643D01*
X155801686Y-73713643D01*
X155950801Y-73783815D01*
X156023485Y-73848423D01*
X156111636Y-73989464D01*
X156126178Y-74105801D01*
X156078816Y-74232100D01*
X156033939Y-74283388D01*
X155898043Y-74355866D01*
X155573570Y-74439602D01*
X155553611Y-74437977D01*
X155528994Y-74451105D01*
X155525196Y-74452086D01*
X155508753Y-74461901D01*
X155348406Y-74547419D01*
X155319404Y-74555783D01*
X155292492Y-74586539D01*
X155263316Y-74615147D01*
X155261856Y-74621551D01*
X155216298Y-74673618D01*
X155192230Y-74691569D01*
X155177825Y-74729982D01*
X155160606Y-74767210D01*
X155161486Y-74773551D01*
X155106782Y-74919429D01*
X155089526Y-74955443D01*
X155093386Y-74986328D01*
X155091111Y-75017372D01*
X155099105Y-75032074D01*
X155117802Y-75181649D01*
X155117349Y-75217651D01*
X155135934Y-75247387D01*
X155149911Y-75279549D01*
X155160436Y-75286590D01*
X155249100Y-75428454D01*
X155255563Y-75451539D01*
X155273485Y-75467470D01*
X155273488Y-75467474D01*
X155288560Y-75480870D01*
X155380699Y-75562773D01*
X155393482Y-75583172D01*
X155435649Y-75603015D01*
X155478301Y-75623149D01*
X155478404Y-75623135D01*
X155628847Y-75693931D01*
X155659519Y-75713643D01*
X155694137Y-75713643D01*
X155728341Y-75718961D01*
X155740348Y-75713643D01*
X156163686Y-75713643D01*
X156190881Y-75720196D01*
X156231531Y-75706056D01*
X156272845Y-75693926D01*
X156275622Y-75690720D01*
X156530790Y-75601967D01*
X156587736Y-75561284D01*
X156622523Y-75474001D01*
X156604599Y-75381765D01*
X156539654Y-75313863D01*
X156448308Y-75291852D01*
X156155658Y-75393643D01*
X155742264Y-75393643D01*
X155593150Y-75323472D01*
X155520464Y-75258860D01*
X155432314Y-75117821D01*
X155417772Y-75001484D01*
X155465134Y-74875184D01*
X155510010Y-74823897D01*
X155645907Y-74751418D01*
X155970380Y-74667683D01*
X155990341Y-74669309D01*
X156014957Y-74656179D01*
X156018755Y-74655200D01*
X156035195Y-74645386D01*
X156195543Y-74559866D01*
X156224547Y-74551502D01*
X156251458Y-74520745D01*
X156280635Y-74492138D01*
X156282094Y-74485733D01*
X156327653Y-74433665D01*
X156351721Y-74415715D01*
X156366123Y-74377308D01*
X156383345Y-74340075D01*
X156382464Y-74333732D01*
X156425788Y-74218200D01*
X158408806Y-74218200D01*
X158434135Y-74308683D01*
X159011099Y-74821539D01*
X158594342Y-75488351D01*
X158575472Y-75555744D01*
X158603077Y-75645558D01*
X158674858Y-75706190D01*
X158768023Y-75718388D01*
X158852994Y-75678282D01*
X159253687Y-75037173D01*
X159281393Y-75061800D01*
X159348208Y-75596315D01*
X159376102Y-75660501D01*
X159454195Y-75712749D01*
X159548141Y-75714482D01*
X159628108Y-75665150D01*
X159668711Y-75580414D01*
X159595712Y-74996423D01*
X159599432Y-74984323D01*
X159589978Y-74950552D01*
X159511885Y-74325806D01*
X160028155Y-74325806D01*
X160060124Y-74414161D01*
X160134785Y-74471207D01*
X160228436Y-74478832D01*
X160413166Y-74380309D01*
X160718354Y-74380309D01*
X160867468Y-74450480D01*
X160940153Y-74515089D01*
X161028303Y-74656131D01*
X161090464Y-75153419D01*
X161043102Y-75279720D01*
X160998225Y-75331008D01*
X160880785Y-75393643D01*
X160575598Y-75393643D01*
X160384764Y-75303839D01*
X160315610Y-75293087D01*
X160229700Y-75331138D01*
X160177999Y-75409597D01*
X160176925Y-75503551D01*
X160226816Y-75583172D01*
X160462181Y-75693931D01*
X160492853Y-75713643D01*
X160527471Y-75713643D01*
X160561675Y-75718961D01*
X160573682Y-75713643D01*
X160914280Y-75713643D01*
X160954627Y-75716928D01*
X160981604Y-75702540D01*
X161010941Y-75693926D01*
X161022270Y-75680851D01*
X161159830Y-75607485D01*
X161188834Y-75599121D01*
X161215741Y-75568368D01*
X161244922Y-75539758D01*
X161246381Y-75533351D01*
X161291939Y-75481285D01*
X161316007Y-75463335D01*
X161330411Y-75424923D01*
X161347631Y-75387693D01*
X161346750Y-75381352D01*
X161401456Y-75235470D01*
X161418711Y-75199461D01*
X161414850Y-75168574D01*
X161417126Y-75137532D01*
X161409132Y-75122830D01*
X161342815Y-74592303D01*
X161343269Y-74556302D01*
X161324684Y-74526566D01*
X161310707Y-74494403D01*
X161300181Y-74487360D01*
X161295114Y-74479252D01*
X161851432Y-74479252D01*
X161855293Y-74510141D01*
X161853018Y-74541183D01*
X161861010Y-74555882D01*
X161879718Y-74705545D01*
X161879306Y-74741646D01*
X161885458Y-74751464D01*
X161974956Y-75467449D01*
X161974544Y-75503551D01*
X161980696Y-75513370D01*
X161991065Y-75596316D01*
X162018959Y-75660502D01*
X162097052Y-75712750D01*
X162190998Y-75714483D01*
X162239668Y-75684457D01*
X162259800Y-75693931D01*
X162290472Y-75713643D01*
X162325090Y-75713643D01*
X162359294Y-75718961D01*
X162371301Y-75713643D01*
X162807137Y-75713643D01*
X162847484Y-75716928D01*
X162874461Y-75702540D01*
X162903798Y-75693926D01*
X162915127Y-75680851D01*
X163037392Y-75615643D01*
X163050212Y-75614749D01*
X163078181Y-75593888D01*
X163087807Y-75588755D01*
X163096523Y-75580208D01*
X163125531Y-75558574D01*
X163129567Y-75547808D01*
X163137779Y-75539758D01*
X163145819Y-75504470D01*
X163210979Y-75330709D01*
X163228235Y-75294699D01*
X163224374Y-75263813D01*
X163226650Y-75232770D01*
X163218655Y-75218067D01*
X163199958Y-75068495D01*
X163200412Y-75032491D01*
X163181827Y-75002755D01*
X163167850Y-74970593D01*
X163157324Y-74963550D01*
X163081310Y-74841929D01*
X163081312Y-74841830D01*
X163056458Y-74802166D01*
X163044272Y-74782668D01*
X163044201Y-74782605D01*
X163031421Y-74762209D01*
X163009812Y-74752040D01*
X162991962Y-74736175D01*
X162968181Y-74732449D01*
X162796056Y-74651449D01*
X162765385Y-74631738D01*
X162730767Y-74631738D01*
X162696563Y-74626420D01*
X162684556Y-74631738D01*
X162277979Y-74631738D01*
X162187671Y-74589240D01*
X162179677Y-74525292D01*
X162216051Y-74428294D01*
X162306024Y-74380309D01*
X162611211Y-74380309D01*
X162802045Y-74470113D01*
X162871199Y-74480865D01*
X162957109Y-74442814D01*
X163008809Y-74364355D01*
X163009884Y-74270401D01*
X162959993Y-74190780D01*
X162724627Y-74080020D01*
X162693956Y-74060309D01*
X162659338Y-74060309D01*
X162625134Y-74054991D01*
X162613127Y-74060309D01*
X162272524Y-74060309D01*
X162232183Y-74057024D01*
X162205205Y-74071412D01*
X162175869Y-74080026D01*
X162164540Y-74093100D01*
X162042271Y-74158309D01*
X162029454Y-74159204D01*
X162001491Y-74180059D01*
X161991860Y-74185196D01*
X161983139Y-74193746D01*
X161954135Y-74215379D01*
X161950098Y-74226143D01*
X161941888Y-74234194D01*
X161933846Y-74269481D01*
X161868688Y-74443238D01*
X161851432Y-74479252D01*
X161295114Y-74479252D01*
X161211515Y-74345493D01*
X161205054Y-74322411D01*
X161187134Y-74306482D01*
X161187131Y-74306477D01*
X161157778Y-74280388D01*
X161079918Y-74211179D01*
X161067136Y-74190780D01*
X161024869Y-74170890D01*
X160982316Y-74150802D01*
X160982211Y-74150815D01*
X160831770Y-74080020D01*
X160801099Y-74060309D01*
X160766481Y-74060309D01*
X160732277Y-74054991D01*
X160720270Y-74060309D01*
X160379672Y-74060309D01*
X160339325Y-74057024D01*
X160312347Y-74071412D01*
X160283011Y-74080026D01*
X160271682Y-74093100D01*
X160099002Y-74185196D01*
X160049031Y-74234194D01*
X160028155Y-74325806D01*
X159511885Y-74325806D01*
X159459637Y-73907823D01*
X163577622Y-73907823D01*
X163581482Y-73938709D01*
X163579207Y-73969753D01*
X163587200Y-73984454D01*
X163605897Y-74134028D01*
X163605444Y-74170032D01*
X163624028Y-74199767D01*
X163638005Y-74231929D01*
X163648531Y-74238971D01*
X163737198Y-74380838D01*
X163743660Y-74403921D01*
X163761580Y-74419850D01*
X163761584Y-74419856D01*
X163787554Y-74442938D01*
X163820832Y-74472518D01*
X163812629Y-74481893D01*
X163789548Y-74498383D01*
X163782309Y-74516544D01*
X163728203Y-74578380D01*
X163704135Y-74596331D01*
X163689730Y-74634744D01*
X163672511Y-74671972D01*
X163673391Y-74678313D01*
X163618687Y-74824191D01*
X163601431Y-74860205D01*
X163605291Y-74891090D01*
X163603016Y-74922134D01*
X163611010Y-74936835D01*
X163641612Y-75181650D01*
X163641159Y-75217651D01*
X163659742Y-75247385D01*
X163673721Y-75279550D01*
X163684247Y-75286592D01*
X163772910Y-75428454D01*
X163779373Y-75451539D01*
X163797295Y-75467470D01*
X163797298Y-75467474D01*
X163812370Y-75480870D01*
X163904509Y-75562773D01*
X163917292Y-75583172D01*
X163959459Y-75603015D01*
X164002111Y-75623149D01*
X164002214Y-75623135D01*
X164152657Y-75693931D01*
X164183329Y-75713643D01*
X164217947Y-75713643D01*
X164252151Y-75718961D01*
X164264158Y-75713643D01*
X164990754Y-75713643D01*
X165036236Y-75714482D01*
X165057920Y-75701104D01*
X165082369Y-75693926D01*
X165097083Y-75676945D01*
X165116203Y-75665150D01*
X165127212Y-75642174D01*
X165143900Y-75622916D01*
X165147097Y-75600674D01*
X165156806Y-75580414D01*
X165153645Y-75555132D01*
X165157272Y-75529911D01*
X165147938Y-75509473D01*
X165022692Y-74507511D01*
X165026319Y-74482292D01*
X165016985Y-74461855D01*
X164903645Y-73555133D01*
X164907272Y-73529911D01*
X164888360Y-73488501D01*
X164870231Y-73446784D01*
X164868902Y-73445895D01*
X164868239Y-73444442D01*
X164829993Y-73419863D01*
X164792138Y-73394536D01*
X164790537Y-73394506D01*
X164789194Y-73393643D01*
X164743728Y-73393643D01*
X164698192Y-73392803D01*
X164696830Y-73393643D01*
X164082053Y-73393643D01*
X164041706Y-73390358D01*
X164014728Y-73404746D01*
X163985392Y-73413360D01*
X163974063Y-73426434D01*
X163836499Y-73499801D01*
X163807501Y-73508164D01*
X163780595Y-73538912D01*
X163751412Y-73567528D01*
X163749952Y-73573933D01*
X163704393Y-73625999D01*
X163680325Y-73643951D01*
X163665923Y-73682354D01*
X163648701Y-73719590D01*
X163649581Y-73725933D01*
X163594878Y-73871809D01*
X163577622Y-73907823D01*
X159459637Y-73907823D01*
X159410030Y-73510970D01*
X159382136Y-73446784D01*
X159304043Y-73394536D01*
X159210097Y-73392803D01*
X159130130Y-73442136D01*
X159089527Y-73526871D01*
X159221185Y-74580136D01*
X158664651Y-74085440D01*
X158601363Y-74055564D01*
X158508198Y-74067759D01*
X158436414Y-74128388D01*
X158408806Y-74218200D01*
X156425788Y-74218200D01*
X156437167Y-74187856D01*
X156454424Y-74151843D01*
X156450562Y-74120953D01*
X156452838Y-74089913D01*
X156444845Y-74075213D01*
X156426148Y-73925639D01*
X156426602Y-73889634D01*
X156408018Y-73859899D01*
X156394041Y-73827737D01*
X156383514Y-73820694D01*
X156294848Y-73678828D01*
X156288386Y-73655745D01*
X156270464Y-73639814D01*
X156270462Y-73639811D01*
X156251453Y-73622916D01*
X156163250Y-73544513D01*
X156150468Y-73524114D01*
X156108151Y-73504200D01*
X156065648Y-73484136D01*
X156065543Y-73484149D01*
X155915103Y-73413354D01*
X155884432Y-73393643D01*
X155849814Y-73393643D01*
X155815610Y-73388325D01*
X155803603Y-73393643D01*
X155380265Y-73393643D01*
X155353070Y-73387090D01*
X155312419Y-73401229D01*
X155271106Y-73413360D01*
X155268328Y-73416565D01*
X155013161Y-73505319D01*
X154956215Y-73546002D01*
X154921427Y-73633285D01*
X154499237Y-73633285D01*
X154494446Y-73616173D01*
X154489472Y-73580343D01*
X154481967Y-73571597D01*
X154478863Y-73560507D01*
X154451838Y-73536485D01*
X154428284Y-73509035D01*
X154417245Y-73505735D01*
X154362985Y-73457505D01*
X154358327Y-73446785D01*
X154337477Y-73432835D01*
X154321141Y-73413797D01*
X154299235Y-73407249D01*
X154280233Y-73394536D01*
X154267573Y-73394302D01*
X154256125Y-73388898D01*
X154243405Y-73390562D01*
X154231116Y-73386890D01*
X154209149Y-73393224D01*
X154186288Y-73392803D01*
X154175513Y-73399449D01*
X154162960Y-73401093D01*
X154153157Y-73409372D01*
X154140834Y-73412926D01*
X154125778Y-73430131D01*
X154106320Y-73442136D01*
X154100850Y-73453551D01*
X154091176Y-73461722D01*
X154087406Y-73473985D01*
X154034515Y-73534431D01*
X154007842Y-73556960D01*
X153997215Y-73591530D01*
X153982034Y-73624352D01*
X153983618Y-73635763D01*
X153980234Y-73646773D01*
X152605576Y-73646773D01*
X152588601Y-73510970D01*
X152560707Y-73446784D01*
X152482614Y-73394536D01*
X152388668Y-73392803D01*
X152308701Y-73442136D01*
X152268098Y-73526871D01*
X149663406Y-73526871D01*
X149663406Y-72462691D01*
X166547215Y-72462691D01*
X166547215Y-76794119D01*
G37*
D13*
X191389837Y-55251928D02*
X190246979Y-55251928D01*
X190932694Y-54566214D02*
X191389837Y-56623357D01*
X190399360Y-55937643D02*
X191542218Y-55937643D01*
X190856503Y-56623357D02*
X190399360Y-54566214D01*
X189789837Y-56242405D02*
X189561265Y-56318595D01*
X189561265Y-56318595D02*
X189180313Y-56318595D01*
X189180313Y-56318595D02*
X189027932Y-56242405D01*
X189027932Y-56242405D02*
X188951741Y-56166214D01*
X188951741Y-56166214D02*
X188875551Y-56013833D01*
X188875551Y-56013833D02*
X188875551Y-55861452D01*
X188875551Y-55861452D02*
X188951741Y-55709071D01*
X188951741Y-55709071D02*
X189027932Y-55632881D01*
X189027932Y-55632881D02*
X189180313Y-55556690D01*
X189180313Y-55556690D02*
X189485075Y-55480500D01*
X189485075Y-55480500D02*
X189637456Y-55404309D01*
X189637456Y-55404309D02*
X189713646Y-55328119D01*
X189713646Y-55328119D02*
X189789837Y-55175738D01*
X189789837Y-55175738D02*
X189789837Y-55023357D01*
X189789837Y-55023357D02*
X189713646Y-54870976D01*
X189713646Y-54870976D02*
X189637456Y-54794785D01*
X189637456Y-54794785D02*
X189485075Y-54718595D01*
X189485075Y-54718595D02*
X189104122Y-54718595D01*
X189104122Y-54718595D02*
X188875551Y-54794785D01*
X187504122Y-56318595D02*
X187504122Y-55480500D01*
X187504122Y-55480500D02*
X187580312Y-55328119D01*
X187580312Y-55328119D02*
X187732693Y-55251928D01*
X187732693Y-55251928D02*
X188037455Y-55251928D01*
X188037455Y-55251928D02*
X188189836Y-55328119D01*
X187504122Y-56242405D02*
X187656503Y-56318595D01*
X187656503Y-56318595D02*
X188037455Y-56318595D01*
X188037455Y-56318595D02*
X188189836Y-56242405D01*
X188189836Y-56242405D02*
X188266027Y-56090024D01*
X188266027Y-56090024D02*
X188266027Y-55937643D01*
X188266027Y-55937643D02*
X188189836Y-55785262D01*
X188189836Y-55785262D02*
X188037455Y-55709071D01*
X188037455Y-55709071D02*
X187656503Y-55709071D01*
X187656503Y-55709071D02*
X187504122Y-55632881D01*
X186742217Y-55251928D02*
X186742217Y-56318595D01*
X186742217Y-55404309D02*
X186666027Y-55328119D01*
X186666027Y-55328119D02*
X186513646Y-55251928D01*
X186513646Y-55251928D02*
X186285074Y-55251928D01*
X186285074Y-55251928D02*
X186132693Y-55328119D01*
X186132693Y-55328119D02*
X186056503Y-55480500D01*
X186056503Y-55480500D02*
X186056503Y-56318595D01*
X184608884Y-56318595D02*
X184608884Y-54718595D01*
X184608884Y-56242405D02*
X184761265Y-56318595D01*
X184761265Y-56318595D02*
X185066027Y-56318595D01*
X185066027Y-56318595D02*
X185218408Y-56242405D01*
X185218408Y-56242405D02*
X185294598Y-56166214D01*
X185294598Y-56166214D02*
X185370789Y-56013833D01*
X185370789Y-56013833D02*
X185370789Y-55556690D01*
X185370789Y-55556690D02*
X185294598Y-55404309D01*
X185294598Y-55404309D02*
X185218408Y-55328119D01*
X185218408Y-55328119D02*
X185066027Y-55251928D01*
X185066027Y-55251928D02*
X184761265Y-55251928D01*
X184761265Y-55251928D02*
X184608884Y-55328119D01*
X183999360Y-55251928D02*
X183618408Y-56318595D01*
X183237455Y-55251928D02*
X183618408Y-56318595D01*
X183618408Y-56318595D02*
X183770789Y-56699547D01*
X183770789Y-56699547D02*
X183846979Y-56775738D01*
X183846979Y-56775738D02*
X183999360Y-56851928D01*
X183008884Y-56470976D02*
X181789836Y-56470976D01*
X181408883Y-56318595D02*
X181408883Y-54718595D01*
X181256502Y-55709071D02*
X180799359Y-56318595D01*
X180799359Y-55251928D02*
X181408883Y-55861452D01*
X180113645Y-56318595D02*
X180113645Y-54718595D01*
X180113645Y-55328119D02*
X179961264Y-55251928D01*
X179961264Y-55251928D02*
X179656502Y-55251928D01*
X179656502Y-55251928D02*
X179504121Y-55328119D01*
X179504121Y-55328119D02*
X179427931Y-55404309D01*
X179427931Y-55404309D02*
X179351740Y-55556690D01*
X179351740Y-55556690D02*
X179351740Y-56013833D01*
X179351740Y-56013833D02*
X179427931Y-56166214D01*
X179427931Y-56166214D02*
X179504121Y-56242405D01*
X179504121Y-56242405D02*
X179656502Y-56318595D01*
X179656502Y-56318595D02*
X179961264Y-56318595D01*
X179961264Y-56318595D02*
X180113645Y-56242405D01*
X177980312Y-56318595D02*
X177980312Y-54718595D01*
X177980312Y-56242405D02*
X178132693Y-56318595D01*
X178132693Y-56318595D02*
X178437455Y-56318595D01*
X178437455Y-56318595D02*
X178589836Y-56242405D01*
X178589836Y-56242405D02*
X178666026Y-56166214D01*
X178666026Y-56166214D02*
X178742217Y-56013833D01*
X178742217Y-56013833D02*
X178742217Y-55556690D01*
X178742217Y-55556690D02*
X178666026Y-55404309D01*
X178666026Y-55404309D02*
X178589836Y-55328119D01*
X178589836Y-55328119D02*
X178437455Y-55251928D01*
X178437455Y-55251928D02*
X178132693Y-55251928D01*
X178132693Y-55251928D02*
X177980312Y-55328119D01*
X175999359Y-56318595D02*
X175999359Y-54718595D01*
X175999359Y-54718595D02*
X175618407Y-54718595D01*
X175618407Y-54718595D02*
X175389835Y-54794785D01*
X175389835Y-54794785D02*
X175237454Y-54947166D01*
X175237454Y-54947166D02*
X175161264Y-55099547D01*
X175161264Y-55099547D02*
X175085073Y-55404309D01*
X175085073Y-55404309D02*
X175085073Y-55632881D01*
X175085073Y-55632881D02*
X175161264Y-55937643D01*
X175161264Y-55937643D02*
X175237454Y-56090024D01*
X175237454Y-56090024D02*
X175389835Y-56242405D01*
X175389835Y-56242405D02*
X175618407Y-56318595D01*
X175618407Y-56318595D02*
X175999359Y-56318595D01*
X174399359Y-56318595D02*
X174399359Y-54718595D01*
X174399359Y-54718595D02*
X173485073Y-56318595D01*
X173485073Y-56318595D02*
X173485073Y-54718595D01*
X172418407Y-54718595D02*
X172266026Y-54718595D01*
X172266026Y-54718595D02*
X172113645Y-54794785D01*
X172113645Y-54794785D02*
X172037455Y-54870976D01*
X172037455Y-54870976D02*
X171961264Y-55023357D01*
X171961264Y-55023357D02*
X171885074Y-55328119D01*
X171885074Y-55328119D02*
X171885074Y-55709071D01*
X171885074Y-55709071D02*
X171961264Y-56013833D01*
X171961264Y-56013833D02*
X172037455Y-56166214D01*
X172037455Y-56166214D02*
X172113645Y-56242405D01*
X172113645Y-56242405D02*
X172266026Y-56318595D01*
X172266026Y-56318595D02*
X172418407Y-56318595D01*
X172418407Y-56318595D02*
X172570788Y-56242405D01*
X172570788Y-56242405D02*
X172646979Y-56166214D01*
X172646979Y-56166214D02*
X172723169Y-56013833D01*
X172723169Y-56013833D02*
X172799360Y-55709071D01*
X172799360Y-55709071D02*
X172799360Y-55328119D01*
X172799360Y-55328119D02*
X172723169Y-55023357D01*
X172723169Y-55023357D02*
X172646979Y-54870976D01*
X172646979Y-54870976D02*
X172570788Y-54794785D01*
X172570788Y-54794785D02*
X172418407Y-54718595D01*
X170894597Y-54718595D02*
X170742216Y-54718595D01*
X170742216Y-54718595D02*
X170589835Y-54794785D01*
X170589835Y-54794785D02*
X170513645Y-54870976D01*
X170513645Y-54870976D02*
X170437454Y-55023357D01*
X170437454Y-55023357D02*
X170361264Y-55328119D01*
X170361264Y-55328119D02*
X170361264Y-55709071D01*
X170361264Y-55709071D02*
X170437454Y-56013833D01*
X170437454Y-56013833D02*
X170513645Y-56166214D01*
X170513645Y-56166214D02*
X170589835Y-56242405D01*
X170589835Y-56242405D02*
X170742216Y-56318595D01*
X170742216Y-56318595D02*
X170894597Y-56318595D01*
X170894597Y-56318595D02*
X171046978Y-56242405D01*
X171046978Y-56242405D02*
X171123169Y-56166214D01*
X171123169Y-56166214D02*
X171199359Y-56013833D01*
X171199359Y-56013833D02*
X171275550Y-55709071D01*
X171275550Y-55709071D02*
X171275550Y-55328119D01*
X171275550Y-55328119D02*
X171199359Y-55023357D01*
X171199359Y-55023357D02*
X171123169Y-54870976D01*
X171123169Y-54870976D02*
X171046978Y-54794785D01*
X171046978Y-54794785D02*
X170894597Y-54718595D01*
X169827930Y-54718595D02*
X168837454Y-54718595D01*
X168837454Y-54718595D02*
X169370787Y-55328119D01*
X169370787Y-55328119D02*
X169142216Y-55328119D01*
X169142216Y-55328119D02*
X168989835Y-55404309D01*
X168989835Y-55404309D02*
X168913644Y-55480500D01*
X168913644Y-55480500D02*
X168837454Y-55632881D01*
X168837454Y-55632881D02*
X168837454Y-56013833D01*
X168837454Y-56013833D02*
X168913644Y-56166214D01*
X168913644Y-56166214D02*
X168989835Y-56242405D01*
X168989835Y-56242405D02*
X169142216Y-56318595D01*
X169142216Y-56318595D02*
X169599359Y-56318595D01*
X169599359Y-56318595D02*
X169751740Y-56242405D01*
X169751740Y-56242405D02*
X169827930Y-56166214D01*
X167846977Y-54718595D02*
X167694596Y-54718595D01*
X167694596Y-54718595D02*
X167542215Y-54794785D01*
X167542215Y-54794785D02*
X167466025Y-54870976D01*
X167466025Y-54870976D02*
X167389834Y-55023357D01*
X167389834Y-55023357D02*
X167313644Y-55328119D01*
X167313644Y-55328119D02*
X167313644Y-55709071D01*
X167313644Y-55709071D02*
X167389834Y-56013833D01*
X167389834Y-56013833D02*
X167466025Y-56166214D01*
X167466025Y-56166214D02*
X167542215Y-56242405D01*
X167542215Y-56242405D02*
X167694596Y-56318595D01*
X167694596Y-56318595D02*
X167846977Y-56318595D01*
X167846977Y-56318595D02*
X167999358Y-56242405D01*
X167999358Y-56242405D02*
X168075549Y-56166214D01*
X168075549Y-56166214D02*
X168151739Y-56013833D01*
X168151739Y-56013833D02*
X168227930Y-55709071D01*
X168227930Y-55709071D02*
X168227930Y-55328119D01*
X168227930Y-55328119D02*
X168151739Y-55023357D01*
X168151739Y-55023357D02*
X168075549Y-54870976D01*
X168075549Y-54870976D02*
X167999358Y-54794785D01*
X167999358Y-54794785D02*
X167846977Y-54718595D01*
X166551739Y-56242405D02*
X166551739Y-56318595D01*
X166551739Y-56318595D02*
X166627929Y-56470976D01*
X166627929Y-56470976D02*
X166704120Y-56547166D01*
X164875548Y-54718595D02*
X163961262Y-54718595D01*
X164418405Y-56318595D02*
X164418405Y-54718595D01*
X163199357Y-56318595D02*
X163351738Y-56242405D01*
X163351738Y-56242405D02*
X163427928Y-56166214D01*
X163427928Y-56166214D02*
X163504119Y-56013833D01*
X163504119Y-56013833D02*
X163504119Y-55556690D01*
X163504119Y-55556690D02*
X163427928Y-55404309D01*
X163427928Y-55404309D02*
X163351738Y-55328119D01*
X163351738Y-55328119D02*
X163199357Y-55251928D01*
X163199357Y-55251928D02*
X162970785Y-55251928D01*
X162970785Y-55251928D02*
X162818404Y-55328119D01*
X162818404Y-55328119D02*
X162742214Y-55404309D01*
X162742214Y-55404309D02*
X162666023Y-55556690D01*
X162666023Y-55556690D02*
X162666023Y-56013833D01*
X162666023Y-56013833D02*
X162742214Y-56166214D01*
X162742214Y-56166214D02*
X162818404Y-56242405D01*
X162818404Y-56242405D02*
X162970785Y-56318595D01*
X162970785Y-56318595D02*
X163199357Y-56318595D01*
X161980309Y-55251928D02*
X161980309Y-56851928D01*
X161980309Y-55328119D02*
X161827928Y-55251928D01*
X161827928Y-55251928D02*
X161523166Y-55251928D01*
X161523166Y-55251928D02*
X161370785Y-55328119D01*
X161370785Y-55328119D02*
X161294595Y-55404309D01*
X161294595Y-55404309D02*
X161218404Y-55556690D01*
X161218404Y-55556690D02*
X161218404Y-56013833D01*
X161218404Y-56013833D02*
X161294595Y-56166214D01*
X161294595Y-56166214D02*
X161370785Y-56242405D01*
X161370785Y-56242405D02*
X161523166Y-56318595D01*
X161523166Y-56318595D02*
X161827928Y-56318595D01*
X161827928Y-56318595D02*
X161980309Y-56242405D01*
X158018404Y-56318595D02*
X158094595Y-56318595D01*
X158094595Y-56318595D02*
X158246975Y-56242405D01*
X158246975Y-56242405D02*
X158475547Y-56013833D01*
X158475547Y-56013833D02*
X158856499Y-55556690D01*
X158856499Y-55556690D02*
X159008880Y-55328119D01*
X159008880Y-55328119D02*
X159085071Y-55099547D01*
X159085071Y-55099547D02*
X159085071Y-54947166D01*
X159085071Y-54947166D02*
X159008880Y-54794785D01*
X159008880Y-54794785D02*
X158856499Y-54718595D01*
X158856499Y-54718595D02*
X158780309Y-54718595D01*
X158780309Y-54718595D02*
X158627928Y-54794785D01*
X158627928Y-54794785D02*
X158551737Y-54947166D01*
X158551737Y-54947166D02*
X158551737Y-55023357D01*
X158551737Y-55023357D02*
X158627928Y-55175738D01*
X158627928Y-55175738D02*
X158704118Y-55251928D01*
X158704118Y-55251928D02*
X159161261Y-55556690D01*
X159161261Y-55556690D02*
X159237452Y-55632881D01*
X159237452Y-55632881D02*
X159313642Y-55785262D01*
X159313642Y-55785262D02*
X159313642Y-56013833D01*
X159313642Y-56013833D02*
X159237452Y-56166214D01*
X159237452Y-56166214D02*
X159161261Y-56242405D01*
X159161261Y-56242405D02*
X159008880Y-56318595D01*
X159008880Y-56318595D02*
X158780309Y-56318595D01*
X158780309Y-56318595D02*
X158627928Y-56242405D01*
X158627928Y-56242405D02*
X158551737Y-56166214D01*
X158551737Y-56166214D02*
X158323166Y-55861452D01*
X158323166Y-55861452D02*
X158246975Y-55632881D01*
X158246975Y-55632881D02*
X158246975Y-55480500D01*
X156113642Y-56318595D02*
X156113642Y-54718595D01*
X156113642Y-54718595D02*
X155504118Y-54718595D01*
X155504118Y-54718595D02*
X155351737Y-54794785D01*
X155351737Y-54794785D02*
X155275547Y-54870976D01*
X155275547Y-54870976D02*
X155199356Y-55023357D01*
X155199356Y-55023357D02*
X155199356Y-55251928D01*
X155199356Y-55251928D02*
X155275547Y-55404309D01*
X155275547Y-55404309D02*
X155351737Y-55480500D01*
X155351737Y-55480500D02*
X155504118Y-55556690D01*
X155504118Y-55556690D02*
X156113642Y-55556690D01*
X154285071Y-56318595D02*
X154437452Y-56242405D01*
X154437452Y-56242405D02*
X154513642Y-56090024D01*
X154513642Y-56090024D02*
X154513642Y-54718595D01*
X152989833Y-56318595D02*
X152989833Y-55480500D01*
X152989833Y-55480500D02*
X153066023Y-55328119D01*
X153066023Y-55328119D02*
X153218404Y-55251928D01*
X153218404Y-55251928D02*
X153523166Y-55251928D01*
X153523166Y-55251928D02*
X153675547Y-55328119D01*
X152989833Y-56242405D02*
X153142214Y-56318595D01*
X153142214Y-56318595D02*
X153523166Y-56318595D01*
X153523166Y-56318595D02*
X153675547Y-56242405D01*
X153675547Y-56242405D02*
X153751738Y-56090024D01*
X153751738Y-56090024D02*
X153751738Y-55937643D01*
X153751738Y-55937643D02*
X153675547Y-55785262D01*
X153675547Y-55785262D02*
X153523166Y-55709071D01*
X153523166Y-55709071D02*
X153142214Y-55709071D01*
X153142214Y-55709071D02*
X152989833Y-55632881D01*
X152456500Y-55251928D02*
X151846976Y-55251928D01*
X152227928Y-54718595D02*
X152227928Y-56090024D01*
X152227928Y-56090024D02*
X152151738Y-56242405D01*
X152151738Y-56242405D02*
X151999357Y-56318595D01*
X151999357Y-56318595D02*
X151846976Y-56318595D01*
X150704118Y-56242405D02*
X150856499Y-56318595D01*
X150856499Y-56318595D02*
X151161261Y-56318595D01*
X151161261Y-56318595D02*
X151313642Y-56242405D01*
X151313642Y-56242405D02*
X151389833Y-56090024D01*
X151389833Y-56090024D02*
X151389833Y-55480500D01*
X151389833Y-55480500D02*
X151313642Y-55328119D01*
X151313642Y-55328119D02*
X151161261Y-55251928D01*
X151161261Y-55251928D02*
X150856499Y-55251928D01*
X150856499Y-55251928D02*
X150704118Y-55328119D01*
X150704118Y-55328119D02*
X150627928Y-55480500D01*
X150627928Y-55480500D02*
X150627928Y-55632881D01*
X150627928Y-55632881D02*
X151389833Y-55785262D01*
X148951737Y-55251928D02*
X148342213Y-55251928D01*
X148723165Y-56318595D02*
X148723165Y-54947166D01*
X148723165Y-54947166D02*
X148646975Y-54794785D01*
X148646975Y-54794785D02*
X148494594Y-54718595D01*
X148494594Y-54718595D02*
X148342213Y-54718595D01*
X147580308Y-56318595D02*
X147732689Y-56242405D01*
X147732689Y-56242405D02*
X147808879Y-56166214D01*
X147808879Y-56166214D02*
X147885070Y-56013833D01*
X147885070Y-56013833D02*
X147885070Y-55556690D01*
X147885070Y-55556690D02*
X147808879Y-55404309D01*
X147808879Y-55404309D02*
X147732689Y-55328119D01*
X147732689Y-55328119D02*
X147580308Y-55251928D01*
X147580308Y-55251928D02*
X147351736Y-55251928D01*
X147351736Y-55251928D02*
X147199355Y-55328119D01*
X147199355Y-55328119D02*
X147123165Y-55404309D01*
X147123165Y-55404309D02*
X147046974Y-55556690D01*
X147046974Y-55556690D02*
X147046974Y-56013833D01*
X147046974Y-56013833D02*
X147123165Y-56166214D01*
X147123165Y-56166214D02*
X147199355Y-56242405D01*
X147199355Y-56242405D02*
X147351736Y-56318595D01*
X147351736Y-56318595D02*
X147580308Y-56318595D01*
X146361260Y-56318595D02*
X146361260Y-55251928D01*
X146361260Y-55556690D02*
X146285070Y-55404309D01*
X146285070Y-55404309D02*
X146208879Y-55328119D01*
X146208879Y-55328119D02*
X146056498Y-55251928D01*
X146056498Y-55251928D02*
X145904117Y-55251928D01*
X144151736Y-56318595D02*
X144151736Y-54718595D01*
X144151736Y-54718595D02*
X143618403Y-55861452D01*
X143618403Y-55861452D02*
X143085069Y-54718595D01*
X143085069Y-54718595D02*
X143085069Y-56318595D01*
X142323165Y-56318595D02*
X142323165Y-55251928D01*
X142323165Y-54718595D02*
X142399356Y-54794785D01*
X142399356Y-54794785D02*
X142323165Y-54870976D01*
X142323165Y-54870976D02*
X142246975Y-54794785D01*
X142246975Y-54794785D02*
X142323165Y-54718595D01*
X142323165Y-54718595D02*
X142323165Y-54870976D01*
X140875546Y-56318595D02*
X140875546Y-54718595D01*
X140875546Y-56242405D02*
X141027927Y-56318595D01*
X141027927Y-56318595D02*
X141332689Y-56318595D01*
X141332689Y-56318595D02*
X141485070Y-56242405D01*
X141485070Y-56242405D02*
X141561260Y-56166214D01*
X141561260Y-56166214D02*
X141637451Y-56013833D01*
X141637451Y-56013833D02*
X141637451Y-55556690D01*
X141637451Y-55556690D02*
X141561260Y-55404309D01*
X141561260Y-55404309D02*
X141485070Y-55328119D01*
X141485070Y-55328119D02*
X141332689Y-55251928D01*
X141332689Y-55251928D02*
X141027927Y-55251928D01*
X141027927Y-55251928D02*
X140875546Y-55328119D01*
X138894593Y-56318595D02*
X138894593Y-54718595D01*
X138894593Y-55328119D02*
X138742212Y-55251928D01*
X138742212Y-55251928D02*
X138437450Y-55251928D01*
X138437450Y-55251928D02*
X138285069Y-55328119D01*
X138285069Y-55328119D02*
X138208879Y-55404309D01*
X138208879Y-55404309D02*
X138132688Y-55556690D01*
X138132688Y-55556690D02*
X138132688Y-56013833D01*
X138132688Y-56013833D02*
X138208879Y-56166214D01*
X138208879Y-56166214D02*
X138285069Y-56242405D01*
X138285069Y-56242405D02*
X138437450Y-56318595D01*
X138437450Y-56318595D02*
X138742212Y-56318595D01*
X138742212Y-56318595D02*
X138894593Y-56242405D01*
X137599355Y-55251928D02*
X137218403Y-56318595D01*
X136837450Y-55251928D02*
X137218403Y-56318595D01*
X137218403Y-56318595D02*
X137370784Y-56699547D01*
X137370784Y-56699547D02*
X137446974Y-56775738D01*
X137446974Y-56775738D02*
X137599355Y-56851928D01*
X134018402Y-55556690D02*
X134094592Y-55480500D01*
X134094592Y-55480500D02*
X134246973Y-55404309D01*
X134246973Y-55404309D02*
X134399354Y-55404309D01*
X134399354Y-55404309D02*
X134551735Y-55480500D01*
X134551735Y-55480500D02*
X134627926Y-55556690D01*
X134627926Y-55556690D02*
X134704116Y-55709071D01*
X134704116Y-55709071D02*
X134704116Y-55861452D01*
X134704116Y-55861452D02*
X134627926Y-56013833D01*
X134627926Y-56013833D02*
X134551735Y-56090024D01*
X134551735Y-56090024D02*
X134399354Y-56166214D01*
X134399354Y-56166214D02*
X134246973Y-56166214D01*
X134246973Y-56166214D02*
X134094592Y-56090024D01*
X134094592Y-56090024D02*
X134018402Y-56013833D01*
X134018402Y-55404309D02*
X134018402Y-56013833D01*
X134018402Y-56013833D02*
X133942211Y-56090024D01*
X133942211Y-56090024D02*
X133866021Y-56090024D01*
X133866021Y-56090024D02*
X133713640Y-56013833D01*
X133713640Y-56013833D02*
X133637450Y-55861452D01*
X133637450Y-55861452D02*
X133637450Y-55480500D01*
X133637450Y-55480500D02*
X133789831Y-55251928D01*
X133789831Y-55251928D02*
X134018402Y-55099547D01*
X134018402Y-55099547D02*
X134323164Y-55023357D01*
X134323164Y-55023357D02*
X134627926Y-55099547D01*
X134627926Y-55099547D02*
X134856497Y-55251928D01*
X134856497Y-55251928D02*
X135008878Y-55480500D01*
X135008878Y-55480500D02*
X135085069Y-55785262D01*
X135085069Y-55785262D02*
X135008878Y-56090024D01*
X135008878Y-56090024D02*
X134856497Y-56318595D01*
X134856497Y-56318595D02*
X134627926Y-56470976D01*
X134627926Y-56470976D02*
X134323164Y-56547166D01*
X134323164Y-56547166D02*
X134018402Y-56470976D01*
X134018402Y-56470976D02*
X133789831Y-56318595D01*
X132951735Y-55251928D02*
X132951735Y-56623357D01*
X132951735Y-56623357D02*
X133027926Y-56775738D01*
X133027926Y-56775738D02*
X133180307Y-56851928D01*
X133180307Y-56851928D02*
X133256497Y-56851928D01*
X132951735Y-54718595D02*
X133027926Y-54794785D01*
X133027926Y-54794785D02*
X132951735Y-54870976D01*
X132951735Y-54870976D02*
X132875545Y-54794785D01*
X132875545Y-54794785D02*
X132951735Y-54718595D01*
X132951735Y-54718595D02*
X132951735Y-54870976D01*
X132189830Y-55251928D02*
X132189830Y-56851928D01*
X132189830Y-55328119D02*
X132037449Y-55251928D01*
X132037449Y-55251928D02*
X131732687Y-55251928D01*
X131732687Y-55251928D02*
X131580306Y-55328119D01*
X131580306Y-55328119D02*
X131504116Y-55404309D01*
X131504116Y-55404309D02*
X131427925Y-55556690D01*
X131427925Y-55556690D02*
X131427925Y-56013833D01*
X131427925Y-56013833D02*
X131504116Y-56166214D01*
X131504116Y-56166214D02*
X131580306Y-56242405D01*
X131580306Y-56242405D02*
X131732687Y-56318595D01*
X131732687Y-56318595D02*
X132037449Y-56318595D01*
X132037449Y-56318595D02*
X132189830Y-56242405D01*
X130818402Y-56242405D02*
X130666021Y-56318595D01*
X130666021Y-56318595D02*
X130361259Y-56318595D01*
X130361259Y-56318595D02*
X130208878Y-56242405D01*
X130208878Y-56242405D02*
X130132687Y-56090024D01*
X130132687Y-56090024D02*
X130132687Y-56013833D01*
X130132687Y-56013833D02*
X130208878Y-55861452D01*
X130208878Y-55861452D02*
X130361259Y-55785262D01*
X130361259Y-55785262D02*
X130589830Y-55785262D01*
X130589830Y-55785262D02*
X130742211Y-55709071D01*
X130742211Y-55709071D02*
X130818402Y-55556690D01*
X130818402Y-55556690D02*
X130818402Y-55480500D01*
X130818402Y-55480500D02*
X130742211Y-55328119D01*
X130742211Y-55328119D02*
X130589830Y-55251928D01*
X130589830Y-55251928D02*
X130361259Y-55251928D01*
X130361259Y-55251928D02*
X130208878Y-55328119D01*
X129446973Y-56318595D02*
X129446973Y-54718595D01*
X129294592Y-55709071D02*
X128837449Y-56318595D01*
X128837449Y-55251928D02*
X129446973Y-55861452D01*
X127542211Y-56242405D02*
X127694592Y-56318595D01*
X127694592Y-56318595D02*
X127999354Y-56318595D01*
X127999354Y-56318595D02*
X128151735Y-56242405D01*
X128151735Y-56242405D02*
X128227926Y-56090024D01*
X128227926Y-56090024D02*
X128227926Y-55480500D01*
X128227926Y-55480500D02*
X128151735Y-55328119D01*
X128151735Y-55328119D02*
X127999354Y-55251928D01*
X127999354Y-55251928D02*
X127694592Y-55251928D01*
X127694592Y-55251928D02*
X127542211Y-55328119D01*
X127542211Y-55328119D02*
X127466021Y-55480500D01*
X127466021Y-55480500D02*
X127466021Y-55632881D01*
X127466021Y-55632881D02*
X128227926Y-55785262D01*
X126780306Y-55251928D02*
X126780306Y-56318595D01*
X126780306Y-55404309D02*
X126704116Y-55328119D01*
X126704116Y-55328119D02*
X126551735Y-55251928D01*
X126551735Y-55251928D02*
X126323163Y-55251928D01*
X126323163Y-55251928D02*
X126170782Y-55328119D01*
X126170782Y-55328119D02*
X126094592Y-55480500D01*
X126094592Y-55480500D02*
X126094592Y-56318595D01*
X125332687Y-55251928D02*
X125332687Y-56318595D01*
X125332687Y-55404309D02*
X125256497Y-55328119D01*
X125256497Y-55328119D02*
X125104116Y-55251928D01*
X125104116Y-55251928D02*
X124875544Y-55251928D01*
X124875544Y-55251928D02*
X124723163Y-55328119D01*
X124723163Y-55328119D02*
X124646973Y-55480500D01*
X124646973Y-55480500D02*
X124646973Y-56318595D01*
X82518404Y-33037899D02*
X82518404Y-32037899D01*
X82518404Y-32037899D02*
X82280309Y-32037899D01*
X82280309Y-32037899D02*
X82137452Y-32085518D01*
X82137452Y-32085518D02*
X82042214Y-32180756D01*
X82042214Y-32180756D02*
X81994595Y-32275994D01*
X81994595Y-32275994D02*
X81946976Y-32466470D01*
X81946976Y-32466470D02*
X81946976Y-32609327D01*
X81946976Y-32609327D02*
X81994595Y-32799803D01*
X81994595Y-32799803D02*
X82042214Y-32895041D01*
X82042214Y-32895041D02*
X82137452Y-32990280D01*
X82137452Y-32990280D02*
X82280309Y-33037899D01*
X82280309Y-33037899D02*
X82518404Y-33037899D01*
X81089833Y-32371232D02*
X81089833Y-33037899D01*
X81327928Y-31990280D02*
X81566023Y-32704565D01*
X81566023Y-32704565D02*
X80946976Y-32704565D01*
X265564833Y-18991089D02*
X265231500Y-18991089D01*
X265088643Y-19514899D02*
X265564833Y-19514899D01*
X265564833Y-19514899D02*
X265564833Y-18514899D01*
X265564833Y-18514899D02*
X265088643Y-18514899D01*
X264755309Y-18514899D02*
X264088643Y-19514899D01*
X264088643Y-18514899D02*
X264755309Y-19514899D01*
X263850547Y-18514899D02*
X263279119Y-18514899D01*
X263564833Y-19514899D02*
X263564833Y-18514899D01*
X263183881Y-19610137D02*
X262421976Y-19610137D01*
X262326737Y-18514899D02*
X261755309Y-18514899D01*
X262041023Y-19514899D02*
X262041023Y-18514899D01*
X260850547Y-19419660D02*
X260898166Y-19467280D01*
X260898166Y-19467280D02*
X261041023Y-19514899D01*
X261041023Y-19514899D02*
X261136261Y-19514899D01*
X261136261Y-19514899D02*
X261279118Y-19467280D01*
X261279118Y-19467280D02*
X261374356Y-19372041D01*
X261374356Y-19372041D02*
X261421975Y-19276803D01*
X261421975Y-19276803D02*
X261469594Y-19086327D01*
X261469594Y-19086327D02*
X261469594Y-18943470D01*
X261469594Y-18943470D02*
X261421975Y-18752994D01*
X261421975Y-18752994D02*
X261374356Y-18657756D01*
X261374356Y-18657756D02*
X261279118Y-18562518D01*
X261279118Y-18562518D02*
X261136261Y-18514899D01*
X261136261Y-18514899D02*
X261041023Y-18514899D01*
X261041023Y-18514899D02*
X260898166Y-18562518D01*
X260898166Y-18562518D02*
X260850547Y-18610137D01*
X259993404Y-18514899D02*
X260183880Y-18514899D01*
X260183880Y-18514899D02*
X260279118Y-18562518D01*
X260279118Y-18562518D02*
X260326737Y-18610137D01*
X260326737Y-18610137D02*
X260421975Y-18752994D01*
X260421975Y-18752994D02*
X260469594Y-18943470D01*
X260469594Y-18943470D02*
X260469594Y-19324422D01*
X260469594Y-19324422D02*
X260421975Y-19419660D01*
X260421975Y-19419660D02*
X260374356Y-19467280D01*
X260374356Y-19467280D02*
X260279118Y-19514899D01*
X260279118Y-19514899D02*
X260088642Y-19514899D01*
X260088642Y-19514899D02*
X259993404Y-19467280D01*
X259993404Y-19467280D02*
X259945785Y-19419660D01*
X259945785Y-19419660D02*
X259898166Y-19324422D01*
X259898166Y-19324422D02*
X259898166Y-19086327D01*
X259898166Y-19086327D02*
X259945785Y-18991089D01*
X259945785Y-18991089D02*
X259993404Y-18943470D01*
X259993404Y-18943470D02*
X260088642Y-18895851D01*
X260088642Y-18895851D02*
X260279118Y-18895851D01*
X260279118Y-18895851D02*
X260374356Y-18943470D01*
X260374356Y-18943470D02*
X260421975Y-18991089D01*
X260421975Y-18991089D02*
X260469594Y-19086327D01*
X292544595Y-33037899D02*
X292544595Y-32037899D01*
X292544595Y-32037899D02*
X292306500Y-32037899D01*
X292306500Y-32037899D02*
X292163643Y-32085518D01*
X292163643Y-32085518D02*
X292068405Y-32180756D01*
X292068405Y-32180756D02*
X292020786Y-32275994D01*
X292020786Y-32275994D02*
X291973167Y-32466470D01*
X291973167Y-32466470D02*
X291973167Y-32609327D01*
X291973167Y-32609327D02*
X292020786Y-32799803D01*
X292020786Y-32799803D02*
X292068405Y-32895041D01*
X292068405Y-32895041D02*
X292163643Y-32990280D01*
X292163643Y-32990280D02*
X292306500Y-33037899D01*
X292306500Y-33037899D02*
X292544595Y-33037899D01*
X291020786Y-33037899D02*
X291592214Y-33037899D01*
X291306500Y-33037899D02*
X291306500Y-32037899D01*
X291306500Y-32037899D02*
X291401738Y-32180756D01*
X291401738Y-32180756D02*
X291496976Y-32275994D01*
X291496976Y-32275994D02*
X291592214Y-32323613D01*
X290116024Y-32037899D02*
X290592214Y-32037899D01*
X290592214Y-32037899D02*
X290639833Y-32514089D01*
X290639833Y-32514089D02*
X290592214Y-32466470D01*
X290592214Y-32466470D02*
X290496976Y-32418851D01*
X290496976Y-32418851D02*
X290258881Y-32418851D01*
X290258881Y-32418851D02*
X290163643Y-32466470D01*
X290163643Y-32466470D02*
X290116024Y-32514089D01*
X290116024Y-32514089D02*
X290068405Y-32609327D01*
X290068405Y-32609327D02*
X290068405Y-32847422D01*
X290068405Y-32847422D02*
X290116024Y-32942660D01*
X290116024Y-32942660D02*
X290163643Y-32990280D01*
X290163643Y-32990280D02*
X290258881Y-33037899D01*
X290258881Y-33037899D02*
X290496976Y-33037899D01*
X290496976Y-33037899D02*
X290592214Y-32990280D01*
X290592214Y-32990280D02*
X290639833Y-32942660D01*
X235394595Y-33037899D02*
X235394595Y-32037899D01*
X235394595Y-32037899D02*
X235156500Y-32037899D01*
X235156500Y-32037899D02*
X235013643Y-32085518D01*
X235013643Y-32085518D02*
X234918405Y-32180756D01*
X234918405Y-32180756D02*
X234870786Y-32275994D01*
X234870786Y-32275994D02*
X234823167Y-32466470D01*
X234823167Y-32466470D02*
X234823167Y-32609327D01*
X234823167Y-32609327D02*
X234870786Y-32799803D01*
X234870786Y-32799803D02*
X234918405Y-32895041D01*
X234918405Y-32895041D02*
X235013643Y-32990280D01*
X235013643Y-32990280D02*
X235156500Y-33037899D01*
X235156500Y-33037899D02*
X235394595Y-33037899D01*
X233870786Y-33037899D02*
X234442214Y-33037899D01*
X234156500Y-33037899D02*
X234156500Y-32037899D01*
X234156500Y-32037899D02*
X234251738Y-32180756D01*
X234251738Y-32180756D02*
X234346976Y-32275994D01*
X234346976Y-32275994D02*
X234442214Y-32323613D01*
X233489833Y-32133137D02*
X233442214Y-32085518D01*
X233442214Y-32085518D02*
X233346976Y-32037899D01*
X233346976Y-32037899D02*
X233108881Y-32037899D01*
X233108881Y-32037899D02*
X233013643Y-32085518D01*
X233013643Y-32085518D02*
X232966024Y-32133137D01*
X232966024Y-32133137D02*
X232918405Y-32228375D01*
X232918405Y-32228375D02*
X232918405Y-32323613D01*
X232918405Y-32323613D02*
X232966024Y-32466470D01*
X232966024Y-32466470D02*
X233537452Y-33037899D01*
X233537452Y-33037899D02*
X232918405Y-33037899D01*
X63468404Y-33037899D02*
X63468404Y-32037899D01*
X63468404Y-32037899D02*
X63230309Y-32037899D01*
X63230309Y-32037899D02*
X63087452Y-32085518D01*
X63087452Y-32085518D02*
X62992214Y-32180756D01*
X62992214Y-32180756D02*
X62944595Y-32275994D01*
X62944595Y-32275994D02*
X62896976Y-32466470D01*
X62896976Y-32466470D02*
X62896976Y-32609327D01*
X62896976Y-32609327D02*
X62944595Y-32799803D01*
X62944595Y-32799803D02*
X62992214Y-32895041D01*
X62992214Y-32895041D02*
X63087452Y-32990280D01*
X63087452Y-32990280D02*
X63230309Y-33037899D01*
X63230309Y-33037899D02*
X63468404Y-33037899D01*
X62563642Y-32037899D02*
X61944595Y-32037899D01*
X61944595Y-32037899D02*
X62277928Y-32418851D01*
X62277928Y-32418851D02*
X62135071Y-32418851D01*
X62135071Y-32418851D02*
X62039833Y-32466470D01*
X62039833Y-32466470D02*
X61992214Y-32514089D01*
X61992214Y-32514089D02*
X61944595Y-32609327D01*
X61944595Y-32609327D02*
X61944595Y-32847422D01*
X61944595Y-32847422D02*
X61992214Y-32942660D01*
X61992214Y-32942660D02*
X62039833Y-32990280D01*
X62039833Y-32990280D02*
X62135071Y-33037899D01*
X62135071Y-33037899D02*
X62420785Y-33037899D01*
X62420785Y-33037899D02*
X62516023Y-32990280D01*
X62516023Y-32990280D02*
X62563642Y-32942660D01*
X120618404Y-33037899D02*
X120618404Y-32037899D01*
X120618404Y-32037899D02*
X120380309Y-32037899D01*
X120380309Y-32037899D02*
X120237452Y-32085518D01*
X120237452Y-32085518D02*
X120142214Y-32180756D01*
X120142214Y-32180756D02*
X120094595Y-32275994D01*
X120094595Y-32275994D02*
X120046976Y-32466470D01*
X120046976Y-32466470D02*
X120046976Y-32609327D01*
X120046976Y-32609327D02*
X120094595Y-32799803D01*
X120094595Y-32799803D02*
X120142214Y-32895041D01*
X120142214Y-32895041D02*
X120237452Y-32990280D01*
X120237452Y-32990280D02*
X120380309Y-33037899D01*
X120380309Y-33037899D02*
X120618404Y-33037899D01*
X119189833Y-32037899D02*
X119380309Y-32037899D01*
X119380309Y-32037899D02*
X119475547Y-32085518D01*
X119475547Y-32085518D02*
X119523166Y-32133137D01*
X119523166Y-32133137D02*
X119618404Y-32275994D01*
X119618404Y-32275994D02*
X119666023Y-32466470D01*
X119666023Y-32466470D02*
X119666023Y-32847422D01*
X119666023Y-32847422D02*
X119618404Y-32942660D01*
X119618404Y-32942660D02*
X119570785Y-32990280D01*
X119570785Y-32990280D02*
X119475547Y-33037899D01*
X119475547Y-33037899D02*
X119285071Y-33037899D01*
X119285071Y-33037899D02*
X119189833Y-32990280D01*
X119189833Y-32990280D02*
X119142214Y-32942660D01*
X119142214Y-32942660D02*
X119094595Y-32847422D01*
X119094595Y-32847422D02*
X119094595Y-32609327D01*
X119094595Y-32609327D02*
X119142214Y-32514089D01*
X119142214Y-32514089D02*
X119189833Y-32466470D01*
X119189833Y-32466470D02*
X119285071Y-32418851D01*
X119285071Y-32418851D02*
X119475547Y-32418851D01*
X119475547Y-32418851D02*
X119570785Y-32466470D01*
X119570785Y-32466470D02*
X119618404Y-32514089D01*
X119618404Y-32514089D02*
X119666023Y-32609327D01*
X101568404Y-33037899D02*
X101568404Y-32037899D01*
X101568404Y-32037899D02*
X101330309Y-32037899D01*
X101330309Y-32037899D02*
X101187452Y-32085518D01*
X101187452Y-32085518D02*
X101092214Y-32180756D01*
X101092214Y-32180756D02*
X101044595Y-32275994D01*
X101044595Y-32275994D02*
X100996976Y-32466470D01*
X100996976Y-32466470D02*
X100996976Y-32609327D01*
X100996976Y-32609327D02*
X101044595Y-32799803D01*
X101044595Y-32799803D02*
X101092214Y-32895041D01*
X101092214Y-32895041D02*
X101187452Y-32990280D01*
X101187452Y-32990280D02*
X101330309Y-33037899D01*
X101330309Y-33037899D02*
X101568404Y-33037899D01*
X100092214Y-32037899D02*
X100568404Y-32037899D01*
X100568404Y-32037899D02*
X100616023Y-32514089D01*
X100616023Y-32514089D02*
X100568404Y-32466470D01*
X100568404Y-32466470D02*
X100473166Y-32418851D01*
X100473166Y-32418851D02*
X100235071Y-32418851D01*
X100235071Y-32418851D02*
X100139833Y-32466470D01*
X100139833Y-32466470D02*
X100092214Y-32514089D01*
X100092214Y-32514089D02*
X100044595Y-32609327D01*
X100044595Y-32609327D02*
X100044595Y-32847422D01*
X100044595Y-32847422D02*
X100092214Y-32942660D01*
X100092214Y-32942660D02*
X100139833Y-32990280D01*
X100139833Y-32990280D02*
X100235071Y-33037899D01*
X100235071Y-33037899D02*
X100473166Y-33037899D01*
X100473166Y-33037899D02*
X100568404Y-32990280D01*
X100568404Y-32990280D02*
X100616023Y-32942660D01*
X139668404Y-29041024D02*
X139668404Y-28041024D01*
X139668404Y-28041024D02*
X139430309Y-28041024D01*
X139430309Y-28041024D02*
X139287452Y-28088643D01*
X139287452Y-28088643D02*
X139192214Y-28183881D01*
X139192214Y-28183881D02*
X139144595Y-28279119D01*
X139144595Y-28279119D02*
X139096976Y-28469595D01*
X139096976Y-28469595D02*
X139096976Y-28612452D01*
X139096976Y-28612452D02*
X139144595Y-28802928D01*
X139144595Y-28802928D02*
X139192214Y-28898166D01*
X139192214Y-28898166D02*
X139287452Y-28993405D01*
X139287452Y-28993405D02*
X139430309Y-29041024D01*
X139430309Y-29041024D02*
X139668404Y-29041024D01*
X138525547Y-28469595D02*
X138620785Y-28421976D01*
X138620785Y-28421976D02*
X138668404Y-28374357D01*
X138668404Y-28374357D02*
X138716023Y-28279119D01*
X138716023Y-28279119D02*
X138716023Y-28231500D01*
X138716023Y-28231500D02*
X138668404Y-28136262D01*
X138668404Y-28136262D02*
X138620785Y-28088643D01*
X138620785Y-28088643D02*
X138525547Y-28041024D01*
X138525547Y-28041024D02*
X138335071Y-28041024D01*
X138335071Y-28041024D02*
X138239833Y-28088643D01*
X138239833Y-28088643D02*
X138192214Y-28136262D01*
X138192214Y-28136262D02*
X138144595Y-28231500D01*
X138144595Y-28231500D02*
X138144595Y-28279119D01*
X138144595Y-28279119D02*
X138192214Y-28374357D01*
X138192214Y-28374357D02*
X138239833Y-28421976D01*
X138239833Y-28421976D02*
X138335071Y-28469595D01*
X138335071Y-28469595D02*
X138525547Y-28469595D01*
X138525547Y-28469595D02*
X138620785Y-28517214D01*
X138620785Y-28517214D02*
X138668404Y-28564833D01*
X138668404Y-28564833D02*
X138716023Y-28660071D01*
X138716023Y-28660071D02*
X138716023Y-28850547D01*
X138716023Y-28850547D02*
X138668404Y-28945785D01*
X138668404Y-28945785D02*
X138620785Y-28993405D01*
X138620785Y-28993405D02*
X138525547Y-29041024D01*
X138525547Y-29041024D02*
X138335071Y-29041024D01*
X138335071Y-29041024D02*
X138239833Y-28993405D01*
X138239833Y-28993405D02*
X138192214Y-28945785D01*
X138192214Y-28945785D02*
X138144595Y-28850547D01*
X138144595Y-28850547D02*
X138144595Y-28660071D01*
X138144595Y-28660071D02*
X138192214Y-28564833D01*
X138192214Y-28564833D02*
X138239833Y-28517214D01*
X138239833Y-28517214D02*
X138335071Y-28469595D01*
X254444595Y-33037899D02*
X254444595Y-32037899D01*
X254444595Y-32037899D02*
X254206500Y-32037899D01*
X254206500Y-32037899D02*
X254063643Y-32085518D01*
X254063643Y-32085518D02*
X253968405Y-32180756D01*
X253968405Y-32180756D02*
X253920786Y-32275994D01*
X253920786Y-32275994D02*
X253873167Y-32466470D01*
X253873167Y-32466470D02*
X253873167Y-32609327D01*
X253873167Y-32609327D02*
X253920786Y-32799803D01*
X253920786Y-32799803D02*
X253968405Y-32895041D01*
X253968405Y-32895041D02*
X254063643Y-32990280D01*
X254063643Y-32990280D02*
X254206500Y-33037899D01*
X254206500Y-33037899D02*
X254444595Y-33037899D01*
X252920786Y-33037899D02*
X253492214Y-33037899D01*
X253206500Y-33037899D02*
X253206500Y-32037899D01*
X253206500Y-32037899D02*
X253301738Y-32180756D01*
X253301738Y-32180756D02*
X253396976Y-32275994D01*
X253396976Y-32275994D02*
X253492214Y-32323613D01*
X252587452Y-32037899D02*
X251968405Y-32037899D01*
X251968405Y-32037899D02*
X252301738Y-32418851D01*
X252301738Y-32418851D02*
X252158881Y-32418851D01*
X252158881Y-32418851D02*
X252063643Y-32466470D01*
X252063643Y-32466470D02*
X252016024Y-32514089D01*
X252016024Y-32514089D02*
X251968405Y-32609327D01*
X251968405Y-32609327D02*
X251968405Y-32847422D01*
X251968405Y-32847422D02*
X252016024Y-32942660D01*
X252016024Y-32942660D02*
X252063643Y-32990280D01*
X252063643Y-32990280D02*
X252158881Y-33037899D01*
X252158881Y-33037899D02*
X252444595Y-33037899D01*
X252444595Y-33037899D02*
X252539833Y-32990280D01*
X252539833Y-32990280D02*
X252587452Y-32942660D01*
X134556595Y-50087899D02*
X134556595Y-49087899D01*
X134556595Y-49087899D02*
X134318500Y-49087899D01*
X134318500Y-49087899D02*
X134175643Y-49135518D01*
X134175643Y-49135518D02*
X134080405Y-49230756D01*
X134080405Y-49230756D02*
X134032786Y-49325994D01*
X134032786Y-49325994D02*
X133985167Y-49516470D01*
X133985167Y-49516470D02*
X133985167Y-49659327D01*
X133985167Y-49659327D02*
X134032786Y-49849803D01*
X134032786Y-49849803D02*
X134080405Y-49945041D01*
X134080405Y-49945041D02*
X134175643Y-50040280D01*
X134175643Y-50040280D02*
X134318500Y-50087899D01*
X134318500Y-50087899D02*
X134556595Y-50087899D01*
X133032786Y-50087899D02*
X133604214Y-50087899D01*
X133318500Y-50087899D02*
X133318500Y-49087899D01*
X133318500Y-49087899D02*
X133413738Y-49230756D01*
X133413738Y-49230756D02*
X133508976Y-49325994D01*
X133508976Y-49325994D02*
X133604214Y-49373613D01*
X132175643Y-49087899D02*
X132366119Y-49087899D01*
X132366119Y-49087899D02*
X132461357Y-49135518D01*
X132461357Y-49135518D02*
X132508976Y-49183137D01*
X132508976Y-49183137D02*
X132604214Y-49325994D01*
X132604214Y-49325994D02*
X132651833Y-49516470D01*
X132651833Y-49516470D02*
X132651833Y-49897422D01*
X132651833Y-49897422D02*
X132604214Y-49992660D01*
X132604214Y-49992660D02*
X132556595Y-50040280D01*
X132556595Y-50040280D02*
X132461357Y-50087899D01*
X132461357Y-50087899D02*
X132270881Y-50087899D01*
X132270881Y-50087899D02*
X132175643Y-50040280D01*
X132175643Y-50040280D02*
X132128024Y-49992660D01*
X132128024Y-49992660D02*
X132080405Y-49897422D01*
X132080405Y-49897422D02*
X132080405Y-49659327D01*
X132080405Y-49659327D02*
X132128024Y-49564089D01*
X132128024Y-49564089D02*
X132175643Y-49516470D01*
X132175643Y-49516470D02*
X132270881Y-49468851D01*
X132270881Y-49468851D02*
X132461357Y-49468851D01*
X132461357Y-49468851D02*
X132556595Y-49516470D01*
X132556595Y-49516470D02*
X132604214Y-49564089D01*
X132604214Y-49564089D02*
X132651833Y-49659327D01*
X177768404Y-33037899D02*
X177768404Y-32037899D01*
X177768404Y-32037899D02*
X177530309Y-32037899D01*
X177530309Y-32037899D02*
X177387452Y-32085518D01*
X177387452Y-32085518D02*
X177292214Y-32180756D01*
X177292214Y-32180756D02*
X177244595Y-32275994D01*
X177244595Y-32275994D02*
X177196976Y-32466470D01*
X177196976Y-32466470D02*
X177196976Y-32609327D01*
X177196976Y-32609327D02*
X177244595Y-32799803D01*
X177244595Y-32799803D02*
X177292214Y-32895041D01*
X177292214Y-32895041D02*
X177387452Y-32990280D01*
X177387452Y-32990280D02*
X177530309Y-33037899D01*
X177530309Y-33037899D02*
X177768404Y-33037899D01*
X176863642Y-32037899D02*
X176196976Y-32037899D01*
X176196976Y-32037899D02*
X176625547Y-33037899D01*
X44418404Y-33037899D02*
X44418404Y-32037899D01*
X44418404Y-32037899D02*
X44180309Y-32037899D01*
X44180309Y-32037899D02*
X44037452Y-32085518D01*
X44037452Y-32085518D02*
X43942214Y-32180756D01*
X43942214Y-32180756D02*
X43894595Y-32275994D01*
X43894595Y-32275994D02*
X43846976Y-32466470D01*
X43846976Y-32466470D02*
X43846976Y-32609327D01*
X43846976Y-32609327D02*
X43894595Y-32799803D01*
X43894595Y-32799803D02*
X43942214Y-32895041D01*
X43942214Y-32895041D02*
X44037452Y-32990280D01*
X44037452Y-32990280D02*
X44180309Y-33037899D01*
X44180309Y-33037899D02*
X44418404Y-33037899D01*
X43466023Y-32133137D02*
X43418404Y-32085518D01*
X43418404Y-32085518D02*
X43323166Y-32037899D01*
X43323166Y-32037899D02*
X43085071Y-32037899D01*
X43085071Y-32037899D02*
X42989833Y-32085518D01*
X42989833Y-32085518D02*
X42942214Y-32133137D01*
X42942214Y-32133137D02*
X42894595Y-32228375D01*
X42894595Y-32228375D02*
X42894595Y-32323613D01*
X42894595Y-32323613D02*
X42942214Y-32466470D01*
X42942214Y-32466470D02*
X43513642Y-33037899D01*
X43513642Y-33037899D02*
X42894595Y-33037899D01*
X273494595Y-33037899D02*
X273494595Y-32037899D01*
X273494595Y-32037899D02*
X273256500Y-32037899D01*
X273256500Y-32037899D02*
X273113643Y-32085518D01*
X273113643Y-32085518D02*
X273018405Y-32180756D01*
X273018405Y-32180756D02*
X272970786Y-32275994D01*
X272970786Y-32275994D02*
X272923167Y-32466470D01*
X272923167Y-32466470D02*
X272923167Y-32609327D01*
X272923167Y-32609327D02*
X272970786Y-32799803D01*
X272970786Y-32799803D02*
X273018405Y-32895041D01*
X273018405Y-32895041D02*
X273113643Y-32990280D01*
X273113643Y-32990280D02*
X273256500Y-33037899D01*
X273256500Y-33037899D02*
X273494595Y-33037899D01*
X271970786Y-33037899D02*
X272542214Y-33037899D01*
X272256500Y-33037899D02*
X272256500Y-32037899D01*
X272256500Y-32037899D02*
X272351738Y-32180756D01*
X272351738Y-32180756D02*
X272446976Y-32275994D01*
X272446976Y-32275994D02*
X272542214Y-32323613D01*
X271113643Y-32371232D02*
X271113643Y-33037899D01*
X271351738Y-31990280D02*
X271589833Y-32704565D01*
X271589833Y-32704565D02*
X270970786Y-32704565D01*
X191785970Y-50087899D02*
X191785970Y-49087899D01*
X191785970Y-49087899D02*
X191547875Y-49087899D01*
X191547875Y-49087899D02*
X191405018Y-49135518D01*
X191405018Y-49135518D02*
X191309780Y-49230756D01*
X191309780Y-49230756D02*
X191262161Y-49325994D01*
X191262161Y-49325994D02*
X191214542Y-49516470D01*
X191214542Y-49516470D02*
X191214542Y-49659327D01*
X191214542Y-49659327D02*
X191262161Y-49849803D01*
X191262161Y-49849803D02*
X191309780Y-49945041D01*
X191309780Y-49945041D02*
X191405018Y-50040280D01*
X191405018Y-50040280D02*
X191547875Y-50087899D01*
X191547875Y-50087899D02*
X191785970Y-50087899D01*
X190262161Y-50087899D02*
X190833589Y-50087899D01*
X190547875Y-50087899D02*
X190547875Y-49087899D01*
X190547875Y-49087899D02*
X190643113Y-49230756D01*
X190643113Y-49230756D02*
X190738351Y-49325994D01*
X190738351Y-49325994D02*
X190833589Y-49373613D01*
X189785970Y-50087899D02*
X189595494Y-50087899D01*
X189595494Y-50087899D02*
X189500256Y-50040280D01*
X189500256Y-50040280D02*
X189452637Y-49992660D01*
X189452637Y-49992660D02*
X189357399Y-49849803D01*
X189357399Y-49849803D02*
X189309780Y-49659327D01*
X189309780Y-49659327D02*
X189309780Y-49278375D01*
X189309780Y-49278375D02*
X189357399Y-49183137D01*
X189357399Y-49183137D02*
X189405018Y-49135518D01*
X189405018Y-49135518D02*
X189500256Y-49087899D01*
X189500256Y-49087899D02*
X189690732Y-49087899D01*
X189690732Y-49087899D02*
X189785970Y-49135518D01*
X189785970Y-49135518D02*
X189833589Y-49183137D01*
X189833589Y-49183137D02*
X189881208Y-49278375D01*
X189881208Y-49278375D02*
X189881208Y-49516470D01*
X189881208Y-49516470D02*
X189833589Y-49611708D01*
X189833589Y-49611708D02*
X189785970Y-49659327D01*
X189785970Y-49659327D02*
X189690732Y-49706946D01*
X189690732Y-49706946D02*
X189500256Y-49706946D01*
X189500256Y-49706946D02*
X189405018Y-49659327D01*
X189405018Y-49659327D02*
X189357399Y-49611708D01*
X189357399Y-49611708D02*
X189309780Y-49516470D01*
X153685970Y-50087899D02*
X153685970Y-49087899D01*
X153685970Y-49087899D02*
X153447875Y-49087899D01*
X153447875Y-49087899D02*
X153305018Y-49135518D01*
X153305018Y-49135518D02*
X153209780Y-49230756D01*
X153209780Y-49230756D02*
X153162161Y-49325994D01*
X153162161Y-49325994D02*
X153114542Y-49516470D01*
X153114542Y-49516470D02*
X153114542Y-49659327D01*
X153114542Y-49659327D02*
X153162161Y-49849803D01*
X153162161Y-49849803D02*
X153209780Y-49945041D01*
X153209780Y-49945041D02*
X153305018Y-50040280D01*
X153305018Y-50040280D02*
X153447875Y-50087899D01*
X153447875Y-50087899D02*
X153685970Y-50087899D01*
X152162161Y-50087899D02*
X152733589Y-50087899D01*
X152447875Y-50087899D02*
X152447875Y-49087899D01*
X152447875Y-49087899D02*
X152543113Y-49230756D01*
X152543113Y-49230756D02*
X152638351Y-49325994D01*
X152638351Y-49325994D02*
X152733589Y-49373613D01*
X151828827Y-49087899D02*
X151162161Y-49087899D01*
X151162161Y-49087899D02*
X151590732Y-50087899D01*
X167838643Y-25057899D02*
X167838643Y-25772184D01*
X167838643Y-25772184D02*
X167886262Y-25915041D01*
X167886262Y-25915041D02*
X167981500Y-26010280D01*
X167981500Y-26010280D02*
X168124357Y-26057899D01*
X168124357Y-26057899D02*
X168219595Y-26057899D01*
X166838643Y-26057899D02*
X167410071Y-26057899D01*
X167124357Y-26057899D02*
X167124357Y-25057899D01*
X167124357Y-25057899D02*
X167219595Y-25200756D01*
X167219595Y-25200756D02*
X167314833Y-25295994D01*
X167314833Y-25295994D02*
X167410071Y-25343613D01*
X32202333Y-33817214D02*
X31869000Y-33817214D01*
X31726143Y-34341024D02*
X32202333Y-34341024D01*
X32202333Y-34341024D02*
X32202333Y-33341024D01*
X32202333Y-33341024D02*
X31726143Y-33341024D01*
X31392809Y-33341024D02*
X30726143Y-34341024D01*
X30726143Y-33341024D02*
X31392809Y-34341024D01*
X30488047Y-33341024D02*
X29916619Y-33341024D01*
X30202333Y-34341024D02*
X30202333Y-33341024D01*
X29821381Y-34436262D02*
X29059476Y-34436262D01*
X28964237Y-33341024D02*
X28392809Y-33341024D01*
X28678523Y-34341024D02*
X28678523Y-33341024D01*
X27488047Y-34341024D02*
X27821380Y-33864833D01*
X28059475Y-34341024D02*
X28059475Y-33341024D01*
X28059475Y-33341024D02*
X27678523Y-33341024D01*
X27678523Y-33341024D02*
X27583285Y-33388643D01*
X27583285Y-33388643D02*
X27535666Y-33436262D01*
X27535666Y-33436262D02*
X27488047Y-33531500D01*
X27488047Y-33531500D02*
X27488047Y-33674357D01*
X27488047Y-33674357D02*
X27535666Y-33769595D01*
X27535666Y-33769595D02*
X27583285Y-33817214D01*
X27583285Y-33817214D02*
X27678523Y-33864833D01*
X27678523Y-33864833D02*
X28059475Y-33864833D01*
X26868999Y-33341024D02*
X26773761Y-33341024D01*
X26773761Y-33341024D02*
X26678523Y-33388643D01*
X26678523Y-33388643D02*
X26630904Y-33436262D01*
X26630904Y-33436262D02*
X26583285Y-33531500D01*
X26583285Y-33531500D02*
X26535666Y-33721976D01*
X26535666Y-33721976D02*
X26535666Y-33960071D01*
X26535666Y-33960071D02*
X26583285Y-34150547D01*
X26583285Y-34150547D02*
X26630904Y-34245785D01*
X26630904Y-34245785D02*
X26678523Y-34293405D01*
X26678523Y-34293405D02*
X26773761Y-34341024D01*
X26773761Y-34341024D02*
X26868999Y-34341024D01*
X26868999Y-34341024D02*
X26964237Y-34293405D01*
X26964237Y-34293405D02*
X27011856Y-34245785D01*
X27011856Y-34245785D02*
X27059475Y-34150547D01*
X27059475Y-34150547D02*
X27107094Y-33960071D01*
X27107094Y-33960071D02*
X27107094Y-33721976D01*
X27107094Y-33721976D02*
X27059475Y-33531500D01*
X27059475Y-33531500D02*
X27011856Y-33436262D01*
X27011856Y-33436262D02*
X26964237Y-33388643D01*
X26964237Y-33388643D02*
X26868999Y-33341024D01*
X36964833Y-18991089D02*
X36631500Y-18991089D01*
X36488643Y-19514899D02*
X36964833Y-19514899D01*
X36964833Y-19514899D02*
X36964833Y-18514899D01*
X36964833Y-18514899D02*
X36488643Y-18514899D01*
X36155309Y-18514899D02*
X35488643Y-19514899D01*
X35488643Y-18514899D02*
X36155309Y-19514899D01*
X35250547Y-18514899D02*
X34679119Y-18514899D01*
X34964833Y-19514899D02*
X34964833Y-18514899D01*
X34583881Y-19610137D02*
X33821976Y-19610137D01*
X33726737Y-18514899D02*
X33155309Y-18514899D01*
X33441023Y-19514899D02*
X33441023Y-18514899D01*
X32250547Y-19419660D02*
X32298166Y-19467280D01*
X32298166Y-19467280D02*
X32441023Y-19514899D01*
X32441023Y-19514899D02*
X32536261Y-19514899D01*
X32536261Y-19514899D02*
X32679118Y-19467280D01*
X32679118Y-19467280D02*
X32774356Y-19372041D01*
X32774356Y-19372041D02*
X32821975Y-19276803D01*
X32821975Y-19276803D02*
X32869594Y-19086327D01*
X32869594Y-19086327D02*
X32869594Y-18943470D01*
X32869594Y-18943470D02*
X32821975Y-18752994D01*
X32821975Y-18752994D02*
X32774356Y-18657756D01*
X32774356Y-18657756D02*
X32679118Y-18562518D01*
X32679118Y-18562518D02*
X32536261Y-18514899D01*
X32536261Y-18514899D02*
X32441023Y-18514899D01*
X32441023Y-18514899D02*
X32298166Y-18562518D01*
X32298166Y-18562518D02*
X32250547Y-18610137D01*
X31631499Y-18514899D02*
X31536261Y-18514899D01*
X31536261Y-18514899D02*
X31441023Y-18562518D01*
X31441023Y-18562518D02*
X31393404Y-18610137D01*
X31393404Y-18610137D02*
X31345785Y-18705375D01*
X31345785Y-18705375D02*
X31298166Y-18895851D01*
X31298166Y-18895851D02*
X31298166Y-19133946D01*
X31298166Y-19133946D02*
X31345785Y-19324422D01*
X31345785Y-19324422D02*
X31393404Y-19419660D01*
X31393404Y-19419660D02*
X31441023Y-19467280D01*
X31441023Y-19467280D02*
X31536261Y-19514899D01*
X31536261Y-19514899D02*
X31631499Y-19514899D01*
X31631499Y-19514899D02*
X31726737Y-19467280D01*
X31726737Y-19467280D02*
X31774356Y-19419660D01*
X31774356Y-19419660D02*
X31821975Y-19324422D01*
X31821975Y-19324422D02*
X31869594Y-19133946D01*
X31869594Y-19133946D02*
X31869594Y-18895851D01*
X31869594Y-18895851D02*
X31821975Y-18705375D01*
X31821975Y-18705375D02*
X31774356Y-18610137D01*
X31774356Y-18610137D02*
X31726737Y-18562518D01*
X31726737Y-18562518D02*
X31631499Y-18514899D01*
X151264833Y-18991089D02*
X150931500Y-18991089D01*
X150788643Y-19514899D02*
X151264833Y-19514899D01*
X151264833Y-19514899D02*
X151264833Y-18514899D01*
X151264833Y-18514899D02*
X150788643Y-18514899D01*
X150455309Y-18514899D02*
X149788643Y-19514899D01*
X149788643Y-18514899D02*
X150455309Y-19514899D01*
X149550547Y-18514899D02*
X148979119Y-18514899D01*
X149264833Y-19514899D02*
X149264833Y-18514899D01*
X148883881Y-19610137D02*
X148121976Y-19610137D01*
X148026737Y-18514899D02*
X147455309Y-18514899D01*
X147741023Y-19514899D02*
X147741023Y-18514899D01*
X146550547Y-19419660D02*
X146598166Y-19467280D01*
X146598166Y-19467280D02*
X146741023Y-19514899D01*
X146741023Y-19514899D02*
X146836261Y-19514899D01*
X146836261Y-19514899D02*
X146979118Y-19467280D01*
X146979118Y-19467280D02*
X147074356Y-19372041D01*
X147074356Y-19372041D02*
X147121975Y-19276803D01*
X147121975Y-19276803D02*
X147169594Y-19086327D01*
X147169594Y-19086327D02*
X147169594Y-18943470D01*
X147169594Y-18943470D02*
X147121975Y-18752994D01*
X147121975Y-18752994D02*
X147074356Y-18657756D01*
X147074356Y-18657756D02*
X146979118Y-18562518D01*
X146979118Y-18562518D02*
X146836261Y-18514899D01*
X146836261Y-18514899D02*
X146741023Y-18514899D01*
X146741023Y-18514899D02*
X146598166Y-18562518D01*
X146598166Y-18562518D02*
X146550547Y-18610137D01*
X146217213Y-18514899D02*
X145598166Y-18514899D01*
X145598166Y-18514899D02*
X145931499Y-18895851D01*
X145931499Y-18895851D02*
X145788642Y-18895851D01*
X145788642Y-18895851D02*
X145693404Y-18943470D01*
X145693404Y-18943470D02*
X145645785Y-18991089D01*
X145645785Y-18991089D02*
X145598166Y-19086327D01*
X145598166Y-19086327D02*
X145598166Y-19324422D01*
X145598166Y-19324422D02*
X145645785Y-19419660D01*
X145645785Y-19419660D02*
X145693404Y-19467280D01*
X145693404Y-19467280D02*
X145788642Y-19514899D01*
X145788642Y-19514899D02*
X146074356Y-19514899D01*
X146074356Y-19514899D02*
X146169594Y-19467280D01*
X146169594Y-19467280D02*
X146217213Y-19419660D01*
X75064833Y-19000464D02*
X74731500Y-19000464D01*
X74588643Y-19524274D02*
X75064833Y-19524274D01*
X75064833Y-19524274D02*
X75064833Y-18524274D01*
X75064833Y-18524274D02*
X74588643Y-18524274D01*
X74255309Y-18524274D02*
X73588643Y-19524274D01*
X73588643Y-18524274D02*
X74255309Y-19524274D01*
X73350547Y-18524274D02*
X72779119Y-18524274D01*
X73064833Y-19524274D02*
X73064833Y-18524274D01*
X72683881Y-19619512D02*
X71921976Y-19619512D01*
X71826737Y-18524274D02*
X71255309Y-18524274D01*
X71541023Y-19524274D02*
X71541023Y-18524274D01*
X70350547Y-19429035D02*
X70398166Y-19476655D01*
X70398166Y-19476655D02*
X70541023Y-19524274D01*
X70541023Y-19524274D02*
X70636261Y-19524274D01*
X70636261Y-19524274D02*
X70779118Y-19476655D01*
X70779118Y-19476655D02*
X70874356Y-19381416D01*
X70874356Y-19381416D02*
X70921975Y-19286178D01*
X70921975Y-19286178D02*
X70969594Y-19095702D01*
X70969594Y-19095702D02*
X70969594Y-18952845D01*
X70969594Y-18952845D02*
X70921975Y-18762369D01*
X70921975Y-18762369D02*
X70874356Y-18667131D01*
X70874356Y-18667131D02*
X70779118Y-18571893D01*
X70779118Y-18571893D02*
X70636261Y-18524274D01*
X70636261Y-18524274D02*
X70541023Y-18524274D01*
X70541023Y-18524274D02*
X70398166Y-18571893D01*
X70398166Y-18571893D02*
X70350547Y-18619512D01*
X69398166Y-19524274D02*
X69969594Y-19524274D01*
X69683880Y-19524274D02*
X69683880Y-18524274D01*
X69683880Y-18524274D02*
X69779118Y-18667131D01*
X69779118Y-18667131D02*
X69874356Y-18762369D01*
X69874356Y-18762369D02*
X69969594Y-18809988D01*
X170314833Y-18944214D02*
X169981500Y-18944214D01*
X169838643Y-19468024D02*
X170314833Y-19468024D01*
X170314833Y-19468024D02*
X170314833Y-18468024D01*
X170314833Y-18468024D02*
X169838643Y-18468024D01*
X169505309Y-18468024D02*
X168838643Y-19468024D01*
X168838643Y-18468024D02*
X169505309Y-19468024D01*
X168600547Y-18468024D02*
X168029119Y-18468024D01*
X168314833Y-19468024D02*
X168314833Y-18468024D01*
X167933881Y-19563262D02*
X167171976Y-19563262D01*
X167076737Y-18468024D02*
X166505309Y-18468024D01*
X166791023Y-19468024D02*
X166791023Y-18468024D01*
X165600547Y-19372785D02*
X165648166Y-19420405D01*
X165648166Y-19420405D02*
X165791023Y-19468024D01*
X165791023Y-19468024D02*
X165886261Y-19468024D01*
X165886261Y-19468024D02*
X166029118Y-19420405D01*
X166029118Y-19420405D02*
X166124356Y-19325166D01*
X166124356Y-19325166D02*
X166171975Y-19229928D01*
X166171975Y-19229928D02*
X166219594Y-19039452D01*
X166219594Y-19039452D02*
X166219594Y-18896595D01*
X166219594Y-18896595D02*
X166171975Y-18706119D01*
X166171975Y-18706119D02*
X166124356Y-18610881D01*
X166124356Y-18610881D02*
X166029118Y-18515643D01*
X166029118Y-18515643D02*
X165886261Y-18468024D01*
X165886261Y-18468024D02*
X165791023Y-18468024D01*
X165791023Y-18468024D02*
X165648166Y-18515643D01*
X165648166Y-18515643D02*
X165600547Y-18563262D01*
X164743404Y-18801357D02*
X164743404Y-19468024D01*
X164981499Y-18420405D02*
X165219594Y-19134690D01*
X165219594Y-19134690D02*
X164600547Y-19134690D01*
X157009523Y-36467214D02*
X156676190Y-36467214D01*
X156533333Y-36991024D02*
X157009523Y-36991024D01*
X157009523Y-36991024D02*
X157009523Y-35991024D01*
X157009523Y-35991024D02*
X156533333Y-35991024D01*
X156199999Y-35991024D02*
X155533333Y-36991024D01*
X155533333Y-35991024D02*
X156199999Y-36991024D01*
X155295237Y-35991024D02*
X154723809Y-35991024D01*
X155009523Y-36991024D02*
X155009523Y-35991024D01*
X154628571Y-37086262D02*
X153866666Y-37086262D01*
X153771427Y-35991024D02*
X153199999Y-35991024D01*
X153485713Y-36991024D02*
X153485713Y-35991024D01*
X152295237Y-36991024D02*
X152628570Y-36514833D01*
X152866665Y-36991024D02*
X152866665Y-35991024D01*
X152866665Y-35991024D02*
X152485713Y-35991024D01*
X152485713Y-35991024D02*
X152390475Y-36038643D01*
X152390475Y-36038643D02*
X152342856Y-36086262D01*
X152342856Y-36086262D02*
X152295237Y-36181500D01*
X152295237Y-36181500D02*
X152295237Y-36324357D01*
X152295237Y-36324357D02*
X152342856Y-36419595D01*
X152342856Y-36419595D02*
X152390475Y-36467214D01*
X152390475Y-36467214D02*
X152485713Y-36514833D01*
X152485713Y-36514833D02*
X152866665Y-36514833D01*
X151342856Y-36991024D02*
X151914284Y-36991024D01*
X151628570Y-36991024D02*
X151628570Y-35991024D01*
X151628570Y-35991024D02*
X151723808Y-36133881D01*
X151723808Y-36133881D02*
X151819046Y-36229119D01*
X151819046Y-36229119D02*
X151914284Y-36276738D01*
X216344595Y-33037899D02*
X216344595Y-32037899D01*
X216344595Y-32037899D02*
X216106500Y-32037899D01*
X216106500Y-32037899D02*
X215963643Y-32085518D01*
X215963643Y-32085518D02*
X215868405Y-32180756D01*
X215868405Y-32180756D02*
X215820786Y-32275994D01*
X215820786Y-32275994D02*
X215773167Y-32466470D01*
X215773167Y-32466470D02*
X215773167Y-32609327D01*
X215773167Y-32609327D02*
X215820786Y-32799803D01*
X215820786Y-32799803D02*
X215868405Y-32895041D01*
X215868405Y-32895041D02*
X215963643Y-32990280D01*
X215963643Y-32990280D02*
X216106500Y-33037899D01*
X216106500Y-33037899D02*
X216344595Y-33037899D01*
X214820786Y-33037899D02*
X215392214Y-33037899D01*
X215106500Y-33037899D02*
X215106500Y-32037899D01*
X215106500Y-32037899D02*
X215201738Y-32180756D01*
X215201738Y-32180756D02*
X215296976Y-32275994D01*
X215296976Y-32275994D02*
X215392214Y-32323613D01*
X213868405Y-33037899D02*
X214439833Y-33037899D01*
X214154119Y-33037899D02*
X214154119Y-32037899D01*
X214154119Y-32037899D02*
X214249357Y-32180756D01*
X214249357Y-32180756D02*
X214344595Y-32275994D01*
X214344595Y-32275994D02*
X214439833Y-32323613D01*
X227464833Y-18991089D02*
X227131500Y-18991089D01*
X226988643Y-19514899D02*
X227464833Y-19514899D01*
X227464833Y-19514899D02*
X227464833Y-18514899D01*
X227464833Y-18514899D02*
X226988643Y-18514899D01*
X226655309Y-18514899D02*
X225988643Y-19514899D01*
X225988643Y-18514899D02*
X226655309Y-19514899D01*
X225750547Y-18514899D02*
X225179119Y-18514899D01*
X225464833Y-19514899D02*
X225464833Y-18514899D01*
X225083881Y-19610137D02*
X224321976Y-19610137D01*
X224226737Y-18514899D02*
X223655309Y-18514899D01*
X223941023Y-19514899D02*
X223941023Y-18514899D01*
X222750547Y-19419660D02*
X222798166Y-19467280D01*
X222798166Y-19467280D02*
X222941023Y-19514899D01*
X222941023Y-19514899D02*
X223036261Y-19514899D01*
X223036261Y-19514899D02*
X223179118Y-19467280D01*
X223179118Y-19467280D02*
X223274356Y-19372041D01*
X223274356Y-19372041D02*
X223321975Y-19276803D01*
X223321975Y-19276803D02*
X223369594Y-19086327D01*
X223369594Y-19086327D02*
X223369594Y-18943470D01*
X223369594Y-18943470D02*
X223321975Y-18752994D01*
X223321975Y-18752994D02*
X223274356Y-18657756D01*
X223274356Y-18657756D02*
X223179118Y-18562518D01*
X223179118Y-18562518D02*
X223036261Y-18514899D01*
X223036261Y-18514899D02*
X222941023Y-18514899D01*
X222941023Y-18514899D02*
X222798166Y-18562518D01*
X222798166Y-18562518D02*
X222750547Y-18610137D01*
X221845785Y-18514899D02*
X222321975Y-18514899D01*
X222321975Y-18514899D02*
X222369594Y-18991089D01*
X222369594Y-18991089D02*
X222321975Y-18943470D01*
X222321975Y-18943470D02*
X222226737Y-18895851D01*
X222226737Y-18895851D02*
X221988642Y-18895851D01*
X221988642Y-18895851D02*
X221893404Y-18943470D01*
X221893404Y-18943470D02*
X221845785Y-18991089D01*
X221845785Y-18991089D02*
X221798166Y-19086327D01*
X221798166Y-19086327D02*
X221798166Y-19324422D01*
X221798166Y-19324422D02*
X221845785Y-19419660D01*
X221845785Y-19419660D02*
X221893404Y-19467280D01*
X221893404Y-19467280D02*
X221988642Y-19514899D01*
X221988642Y-19514899D02*
X222226737Y-19514899D01*
X222226737Y-19514899D02*
X222321975Y-19467280D01*
X222321975Y-19467280D02*
X222369594Y-19419660D01*
X158815279Y-29091024D02*
X158815279Y-28091024D01*
X158815279Y-28091024D02*
X158577184Y-28091024D01*
X158577184Y-28091024D02*
X158434327Y-28138643D01*
X158434327Y-28138643D02*
X158339089Y-28233881D01*
X158339089Y-28233881D02*
X158291470Y-28329119D01*
X158291470Y-28329119D02*
X158243851Y-28519595D01*
X158243851Y-28519595D02*
X158243851Y-28662452D01*
X158243851Y-28662452D02*
X158291470Y-28852928D01*
X158291470Y-28852928D02*
X158339089Y-28948166D01*
X158339089Y-28948166D02*
X158434327Y-29043405D01*
X158434327Y-29043405D02*
X158577184Y-29091024D01*
X158577184Y-29091024D02*
X158815279Y-29091024D01*
X157767660Y-29091024D02*
X157577184Y-29091024D01*
X157577184Y-29091024D02*
X157481946Y-29043405D01*
X157481946Y-29043405D02*
X157434327Y-28995785D01*
X157434327Y-28995785D02*
X157339089Y-28852928D01*
X157339089Y-28852928D02*
X157291470Y-28662452D01*
X157291470Y-28662452D02*
X157291470Y-28281500D01*
X157291470Y-28281500D02*
X157339089Y-28186262D01*
X157339089Y-28186262D02*
X157386708Y-28138643D01*
X157386708Y-28138643D02*
X157481946Y-28091024D01*
X157481946Y-28091024D02*
X157672422Y-28091024D01*
X157672422Y-28091024D02*
X157767660Y-28138643D01*
X157767660Y-28138643D02*
X157815279Y-28186262D01*
X157815279Y-28186262D02*
X157862898Y-28281500D01*
X157862898Y-28281500D02*
X157862898Y-28519595D01*
X157862898Y-28519595D02*
X157815279Y-28614833D01*
X157815279Y-28614833D02*
X157767660Y-28662452D01*
X157767660Y-28662452D02*
X157672422Y-28710071D01*
X157672422Y-28710071D02*
X157481946Y-28710071D01*
X157481946Y-28710071D02*
X157386708Y-28662452D01*
X157386708Y-28662452D02*
X157339089Y-28614833D01*
X157339089Y-28614833D02*
X157291470Y-28519595D01*
X197294595Y-33037899D02*
X197294595Y-32037899D01*
X197294595Y-32037899D02*
X197056500Y-32037899D01*
X197056500Y-32037899D02*
X196913643Y-32085518D01*
X196913643Y-32085518D02*
X196818405Y-32180756D01*
X196818405Y-32180756D02*
X196770786Y-32275994D01*
X196770786Y-32275994D02*
X196723167Y-32466470D01*
X196723167Y-32466470D02*
X196723167Y-32609327D01*
X196723167Y-32609327D02*
X196770786Y-32799803D01*
X196770786Y-32799803D02*
X196818405Y-32895041D01*
X196818405Y-32895041D02*
X196913643Y-32990280D01*
X196913643Y-32990280D02*
X197056500Y-33037899D01*
X197056500Y-33037899D02*
X197294595Y-33037899D01*
X195770786Y-33037899D02*
X196342214Y-33037899D01*
X196056500Y-33037899D02*
X196056500Y-32037899D01*
X196056500Y-32037899D02*
X196151738Y-32180756D01*
X196151738Y-32180756D02*
X196246976Y-32275994D01*
X196246976Y-32275994D02*
X196342214Y-32323613D01*
X195151738Y-32037899D02*
X195056500Y-32037899D01*
X195056500Y-32037899D02*
X194961262Y-32085518D01*
X194961262Y-32085518D02*
X194913643Y-32133137D01*
X194913643Y-32133137D02*
X194866024Y-32228375D01*
X194866024Y-32228375D02*
X194818405Y-32418851D01*
X194818405Y-32418851D02*
X194818405Y-32656946D01*
X194818405Y-32656946D02*
X194866024Y-32847422D01*
X194866024Y-32847422D02*
X194913643Y-32942660D01*
X194913643Y-32942660D02*
X194961262Y-32990280D01*
X194961262Y-32990280D02*
X195056500Y-33037899D01*
X195056500Y-33037899D02*
X195151738Y-33037899D01*
X195151738Y-33037899D02*
X195246976Y-32990280D01*
X195246976Y-32990280D02*
X195294595Y-32942660D01*
X195294595Y-32942660D02*
X195342214Y-32847422D01*
X195342214Y-32847422D02*
X195389833Y-32656946D01*
X195389833Y-32656946D02*
X195389833Y-32418851D01*
X195389833Y-32418851D02*
X195342214Y-32228375D01*
X195342214Y-32228375D02*
X195294595Y-32133137D01*
X195294595Y-32133137D02*
X195246976Y-32085518D01*
X195246976Y-32085518D02*
X195151738Y-32037899D01*
X127269179Y-32670071D02*
X127983464Y-32670071D01*
X127983464Y-32670071D02*
X128126321Y-32622452D01*
X128126321Y-32622452D02*
X128221560Y-32527214D01*
X128221560Y-32527214D02*
X128269179Y-32384357D01*
X128269179Y-32384357D02*
X128269179Y-32289119D01*
X127269179Y-33051024D02*
X127269179Y-33670071D01*
X127269179Y-33670071D02*
X127650131Y-33336738D01*
X127650131Y-33336738D02*
X127650131Y-33479595D01*
X127650131Y-33479595D02*
X127697750Y-33574833D01*
X127697750Y-33574833D02*
X127745369Y-33622452D01*
X127745369Y-33622452D02*
X127840607Y-33670071D01*
X127840607Y-33670071D02*
X128078702Y-33670071D01*
X128078702Y-33670071D02*
X128173940Y-33622452D01*
X128173940Y-33622452D02*
X128221560Y-33574833D01*
X128221560Y-33574833D02*
X128269179Y-33479595D01*
X128269179Y-33479595D02*
X128269179Y-33193881D01*
X128269179Y-33193881D02*
X128221560Y-33098643D01*
X128221560Y-33098643D02*
X128173940Y-33051024D01*
X284614833Y-18991089D02*
X284281500Y-18991089D01*
X284138643Y-19514899D02*
X284614833Y-19514899D01*
X284614833Y-19514899D02*
X284614833Y-18514899D01*
X284614833Y-18514899D02*
X284138643Y-18514899D01*
X283805309Y-18514899D02*
X283138643Y-19514899D01*
X283138643Y-18514899D02*
X283805309Y-19514899D01*
X282900547Y-18514899D02*
X282329119Y-18514899D01*
X282614833Y-19514899D02*
X282614833Y-18514899D01*
X282233881Y-19610137D02*
X281471976Y-19610137D01*
X281376737Y-18514899D02*
X280805309Y-18514899D01*
X281091023Y-19514899D02*
X281091023Y-18514899D01*
X279900547Y-19419660D02*
X279948166Y-19467280D01*
X279948166Y-19467280D02*
X280091023Y-19514899D01*
X280091023Y-19514899D02*
X280186261Y-19514899D01*
X280186261Y-19514899D02*
X280329118Y-19467280D01*
X280329118Y-19467280D02*
X280424356Y-19372041D01*
X280424356Y-19372041D02*
X280471975Y-19276803D01*
X280471975Y-19276803D02*
X280519594Y-19086327D01*
X280519594Y-19086327D02*
X280519594Y-18943470D01*
X280519594Y-18943470D02*
X280471975Y-18752994D01*
X280471975Y-18752994D02*
X280424356Y-18657756D01*
X280424356Y-18657756D02*
X280329118Y-18562518D01*
X280329118Y-18562518D02*
X280186261Y-18514899D01*
X280186261Y-18514899D02*
X280091023Y-18514899D01*
X280091023Y-18514899D02*
X279948166Y-18562518D01*
X279948166Y-18562518D02*
X279900547Y-18610137D01*
X279567213Y-18514899D02*
X278900547Y-18514899D01*
X278900547Y-18514899D02*
X279329118Y-19514899D01*
X94114833Y-18991089D02*
X93781500Y-18991089D01*
X93638643Y-19514899D02*
X94114833Y-19514899D01*
X94114833Y-19514899D02*
X94114833Y-18514899D01*
X94114833Y-18514899D02*
X93638643Y-18514899D01*
X93305309Y-18514899D02*
X92638643Y-19514899D01*
X92638643Y-18514899D02*
X93305309Y-19514899D01*
X92400547Y-18514899D02*
X91829119Y-18514899D01*
X92114833Y-19514899D02*
X92114833Y-18514899D01*
X91733881Y-19610137D02*
X90971976Y-19610137D01*
X90876737Y-18514899D02*
X90305309Y-18514899D01*
X90591023Y-19514899D02*
X90591023Y-18514899D01*
X89400547Y-19419660D02*
X89448166Y-19467280D01*
X89448166Y-19467280D02*
X89591023Y-19514899D01*
X89591023Y-19514899D02*
X89686261Y-19514899D01*
X89686261Y-19514899D02*
X89829118Y-19467280D01*
X89829118Y-19467280D02*
X89924356Y-19372041D01*
X89924356Y-19372041D02*
X89971975Y-19276803D01*
X89971975Y-19276803D02*
X90019594Y-19086327D01*
X90019594Y-19086327D02*
X90019594Y-18943470D01*
X90019594Y-18943470D02*
X89971975Y-18752994D01*
X89971975Y-18752994D02*
X89924356Y-18657756D01*
X89924356Y-18657756D02*
X89829118Y-18562518D01*
X89829118Y-18562518D02*
X89686261Y-18514899D01*
X89686261Y-18514899D02*
X89591023Y-18514899D01*
X89591023Y-18514899D02*
X89448166Y-18562518D01*
X89448166Y-18562518D02*
X89400547Y-18610137D01*
X89019594Y-18610137D02*
X88971975Y-18562518D01*
X88971975Y-18562518D02*
X88876737Y-18514899D01*
X88876737Y-18514899D02*
X88638642Y-18514899D01*
X88638642Y-18514899D02*
X88543404Y-18562518D01*
X88543404Y-18562518D02*
X88495785Y-18610137D01*
X88495785Y-18610137D02*
X88448166Y-18705375D01*
X88448166Y-18705375D02*
X88448166Y-18800613D01*
X88448166Y-18800613D02*
X88495785Y-18943470D01*
X88495785Y-18943470D02*
X89067213Y-19514899D01*
X89067213Y-19514899D02*
X88448166Y-19514899D01*
X144209523Y-36467214D02*
X143876190Y-36467214D01*
X143733333Y-36991024D02*
X144209523Y-36991024D01*
X144209523Y-36991024D02*
X144209523Y-35991024D01*
X144209523Y-35991024D02*
X143733333Y-35991024D01*
X143399999Y-35991024D02*
X142733333Y-36991024D01*
X142733333Y-35991024D02*
X143399999Y-36991024D01*
X142495237Y-35991024D02*
X141923809Y-35991024D01*
X142209523Y-36991024D02*
X142209523Y-35991024D01*
X141828571Y-37086262D02*
X141066666Y-37086262D01*
X140971427Y-35991024D02*
X140399999Y-35991024D01*
X140685713Y-36991024D02*
X140685713Y-35991024D01*
X139495237Y-36991024D02*
X139828570Y-36514833D01*
X140066665Y-36991024D02*
X140066665Y-35991024D01*
X140066665Y-35991024D02*
X139685713Y-35991024D01*
X139685713Y-35991024D02*
X139590475Y-36038643D01*
X139590475Y-36038643D02*
X139542856Y-36086262D01*
X139542856Y-36086262D02*
X139495237Y-36181500D01*
X139495237Y-36181500D02*
X139495237Y-36324357D01*
X139495237Y-36324357D02*
X139542856Y-36419595D01*
X139542856Y-36419595D02*
X139590475Y-36467214D01*
X139590475Y-36467214D02*
X139685713Y-36514833D01*
X139685713Y-36514833D02*
X140066665Y-36514833D01*
X138638094Y-35991024D02*
X138828570Y-35991024D01*
X138828570Y-35991024D02*
X138923808Y-36038643D01*
X138923808Y-36038643D02*
X138971427Y-36086262D01*
X138971427Y-36086262D02*
X139066665Y-36229119D01*
X139066665Y-36229119D02*
X139114284Y-36419595D01*
X139114284Y-36419595D02*
X139114284Y-36800547D01*
X139114284Y-36800547D02*
X139066665Y-36895785D01*
X139066665Y-36895785D02*
X139019046Y-36943405D01*
X139019046Y-36943405D02*
X138923808Y-36991024D01*
X138923808Y-36991024D02*
X138733332Y-36991024D01*
X138733332Y-36991024D02*
X138638094Y-36943405D01*
X138638094Y-36943405D02*
X138590475Y-36895785D01*
X138590475Y-36895785D02*
X138542856Y-36800547D01*
X138542856Y-36800547D02*
X138542856Y-36562452D01*
X138542856Y-36562452D02*
X138590475Y-36467214D01*
X138590475Y-36467214D02*
X138638094Y-36419595D01*
X138638094Y-36419595D02*
X138733332Y-36371976D01*
X138733332Y-36371976D02*
X138923808Y-36371976D01*
X138923808Y-36371976D02*
X139019046Y-36419595D01*
X139019046Y-36419595D02*
X139066665Y-36467214D01*
X139066665Y-36467214D02*
X139114284Y-36562452D01*
X41727333Y-33817214D02*
X41394000Y-33817214D01*
X41251143Y-34341024D02*
X41727333Y-34341024D01*
X41727333Y-34341024D02*
X41727333Y-33341024D01*
X41727333Y-33341024D02*
X41251143Y-33341024D01*
X40917809Y-33341024D02*
X40251143Y-34341024D01*
X40251143Y-33341024D02*
X40917809Y-34341024D01*
X40013047Y-33341024D02*
X39441619Y-33341024D01*
X39727333Y-34341024D02*
X39727333Y-33341024D01*
X39346381Y-34436262D02*
X38584476Y-34436262D01*
X38489237Y-33341024D02*
X37917809Y-33341024D01*
X38203523Y-34341024D02*
X38203523Y-33341024D01*
X37013047Y-34341024D02*
X37346380Y-33864833D01*
X37584475Y-34341024D02*
X37584475Y-33341024D01*
X37584475Y-33341024D02*
X37203523Y-33341024D01*
X37203523Y-33341024D02*
X37108285Y-33388643D01*
X37108285Y-33388643D02*
X37060666Y-33436262D01*
X37060666Y-33436262D02*
X37013047Y-33531500D01*
X37013047Y-33531500D02*
X37013047Y-33674357D01*
X37013047Y-33674357D02*
X37060666Y-33769595D01*
X37060666Y-33769595D02*
X37108285Y-33817214D01*
X37108285Y-33817214D02*
X37203523Y-33864833D01*
X37203523Y-33864833D02*
X37584475Y-33864833D01*
X36108285Y-33341024D02*
X36584475Y-33341024D01*
X36584475Y-33341024D02*
X36632094Y-33817214D01*
X36632094Y-33817214D02*
X36584475Y-33769595D01*
X36584475Y-33769595D02*
X36489237Y-33721976D01*
X36489237Y-33721976D02*
X36251142Y-33721976D01*
X36251142Y-33721976D02*
X36155904Y-33769595D01*
X36155904Y-33769595D02*
X36108285Y-33817214D01*
X36108285Y-33817214D02*
X36060666Y-33912452D01*
X36060666Y-33912452D02*
X36060666Y-34150547D01*
X36060666Y-34150547D02*
X36108285Y-34245785D01*
X36108285Y-34245785D02*
X36155904Y-34293405D01*
X36155904Y-34293405D02*
X36251142Y-34341024D01*
X36251142Y-34341024D02*
X36489237Y-34341024D01*
X36489237Y-34341024D02*
X36584475Y-34293405D01*
X36584475Y-34293405D02*
X36632094Y-34245785D01*
X25368404Y-33037899D02*
X25368404Y-32037899D01*
X25368404Y-32037899D02*
X25130309Y-32037899D01*
X25130309Y-32037899D02*
X24987452Y-32085518D01*
X24987452Y-32085518D02*
X24892214Y-32180756D01*
X24892214Y-32180756D02*
X24844595Y-32275994D01*
X24844595Y-32275994D02*
X24796976Y-32466470D01*
X24796976Y-32466470D02*
X24796976Y-32609327D01*
X24796976Y-32609327D02*
X24844595Y-32799803D01*
X24844595Y-32799803D02*
X24892214Y-32895041D01*
X24892214Y-32895041D02*
X24987452Y-32990280D01*
X24987452Y-32990280D02*
X25130309Y-33037899D01*
X25130309Y-33037899D02*
X25368404Y-33037899D01*
X23844595Y-33037899D02*
X24416023Y-33037899D01*
X24130309Y-33037899D02*
X24130309Y-32037899D01*
X24130309Y-32037899D02*
X24225547Y-32180756D01*
X24225547Y-32180756D02*
X24320785Y-32275994D01*
X24320785Y-32275994D02*
X24416023Y-32323613D01*
X172656595Y-50087899D02*
X172656595Y-49087899D01*
X172656595Y-49087899D02*
X172418500Y-49087899D01*
X172418500Y-49087899D02*
X172275643Y-49135518D01*
X172275643Y-49135518D02*
X172180405Y-49230756D01*
X172180405Y-49230756D02*
X172132786Y-49325994D01*
X172132786Y-49325994D02*
X172085167Y-49516470D01*
X172085167Y-49516470D02*
X172085167Y-49659327D01*
X172085167Y-49659327D02*
X172132786Y-49849803D01*
X172132786Y-49849803D02*
X172180405Y-49945041D01*
X172180405Y-49945041D02*
X172275643Y-50040280D01*
X172275643Y-50040280D02*
X172418500Y-50087899D01*
X172418500Y-50087899D02*
X172656595Y-50087899D01*
X171132786Y-50087899D02*
X171704214Y-50087899D01*
X171418500Y-50087899D02*
X171418500Y-49087899D01*
X171418500Y-49087899D02*
X171513738Y-49230756D01*
X171513738Y-49230756D02*
X171608976Y-49325994D01*
X171608976Y-49325994D02*
X171704214Y-49373613D01*
X170561357Y-49516470D02*
X170656595Y-49468851D01*
X170656595Y-49468851D02*
X170704214Y-49421232D01*
X170704214Y-49421232D02*
X170751833Y-49325994D01*
X170751833Y-49325994D02*
X170751833Y-49278375D01*
X170751833Y-49278375D02*
X170704214Y-49183137D01*
X170704214Y-49183137D02*
X170656595Y-49135518D01*
X170656595Y-49135518D02*
X170561357Y-49087899D01*
X170561357Y-49087899D02*
X170370881Y-49087899D01*
X170370881Y-49087899D02*
X170275643Y-49135518D01*
X170275643Y-49135518D02*
X170228024Y-49183137D01*
X170228024Y-49183137D02*
X170180405Y-49278375D01*
X170180405Y-49278375D02*
X170180405Y-49325994D01*
X170180405Y-49325994D02*
X170228024Y-49421232D01*
X170228024Y-49421232D02*
X170275643Y-49468851D01*
X170275643Y-49468851D02*
X170370881Y-49516470D01*
X170370881Y-49516470D02*
X170561357Y-49516470D01*
X170561357Y-49516470D02*
X170656595Y-49564089D01*
X170656595Y-49564089D02*
X170704214Y-49611708D01*
X170704214Y-49611708D02*
X170751833Y-49706946D01*
X170751833Y-49706946D02*
X170751833Y-49897422D01*
X170751833Y-49897422D02*
X170704214Y-49992660D01*
X170704214Y-49992660D02*
X170656595Y-50040280D01*
X170656595Y-50040280D02*
X170561357Y-50087899D01*
X170561357Y-50087899D02*
X170370881Y-50087899D01*
X170370881Y-50087899D02*
X170275643Y-50040280D01*
X170275643Y-50040280D02*
X170228024Y-49992660D01*
X170228024Y-49992660D02*
X170180405Y-49897422D01*
X170180405Y-49897422D02*
X170180405Y-49706946D01*
X170180405Y-49706946D02*
X170228024Y-49611708D01*
X170228024Y-49611708D02*
X170275643Y-49564089D01*
X170275643Y-49564089D02*
X170370881Y-49516470D01*
X148788643Y-25057899D02*
X148788643Y-25772184D01*
X148788643Y-25772184D02*
X148836262Y-25915041D01*
X148836262Y-25915041D02*
X148931500Y-26010280D01*
X148931500Y-26010280D02*
X149074357Y-26057899D01*
X149074357Y-26057899D02*
X149169595Y-26057899D01*
X148360071Y-25153137D02*
X148312452Y-25105518D01*
X148312452Y-25105518D02*
X148217214Y-25057899D01*
X148217214Y-25057899D02*
X147979119Y-25057899D01*
X147979119Y-25057899D02*
X147883881Y-25105518D01*
X147883881Y-25105518D02*
X147836262Y-25153137D01*
X147836262Y-25153137D02*
X147788643Y-25248375D01*
X147788643Y-25248375D02*
X147788643Y-25343613D01*
X147788643Y-25343613D02*
X147836262Y-25486470D01*
X147836262Y-25486470D02*
X148407690Y-26057899D01*
X148407690Y-26057899D02*
X147788643Y-26057899D01*
X161405310Y-41203405D02*
X161405310Y-42153405D01*
X161405310Y-44853405D02*
X161405310Y-45148405D01*
X161405310Y-45157405D02*
X162005310Y-45157405D01*
X162805310Y-45157405D02*
X165015310Y-45157405D01*
X172305310Y-39249405D02*
X163680310Y-39249405D01*
X172305310Y-39603405D02*
X172305310Y-39249405D01*
X172305310Y-43157405D02*
X172305310Y-42353405D01*
X172305310Y-43203405D02*
X167255310Y-43249405D01*
X163680310Y-39249406D02*
G75*
G03*
X161416311Y-41133405I-190000J-2073999D01*
G01*
X167280310Y-43253406D02*
G75*
G03*
X165020311Y-45133405I-190000J-2069999D01*
G01*
X75680310Y-22153405D02*
X75680310Y-23103405D01*
X75680310Y-25803405D02*
X75680310Y-26098405D01*
X75680310Y-26107405D02*
X76280310Y-26107405D01*
X77080310Y-26107405D02*
X79290310Y-26107405D01*
X86580310Y-20199405D02*
X77955310Y-20199405D01*
X86580310Y-20553405D02*
X86580310Y-20199405D01*
X86580310Y-24107405D02*
X86580310Y-23303405D01*
X86580310Y-24153405D02*
X81530310Y-24199405D01*
X77955310Y-20199406D02*
G75*
G03*
X75691311Y-22083405I-190000J-2073999D01*
G01*
X81555310Y-24203406D02*
G75*
G03*
X79295311Y-26083405I-190000J-2069999D01*
G01*
X123305310Y-41203405D02*
X123305310Y-42153405D01*
X123305310Y-44853405D02*
X123305310Y-45148405D01*
X123305310Y-45157405D02*
X123905310Y-45157405D01*
X124705310Y-45157405D02*
X126915310Y-45157405D01*
X134205310Y-39249405D02*
X125580310Y-39249405D01*
X134205310Y-39603405D02*
X134205310Y-39249405D01*
X134205310Y-43157405D02*
X134205310Y-42353405D01*
X134205310Y-43203405D02*
X129155310Y-43249405D01*
X125580310Y-39249406D02*
G75*
G03*
X123316311Y-41133405I-190000J-2073999D01*
G01*
X129180310Y-43253406D02*
G75*
G03*
X126920311Y-45133405I-190000J-2069999D01*
G01*
X189980310Y-22153405D02*
X189980310Y-23103405D01*
X189980310Y-25803405D02*
X189980310Y-26098405D01*
X189980310Y-26107405D02*
X190580310Y-26107405D01*
X191380310Y-26107405D02*
X193590310Y-26107405D01*
X200880310Y-20199405D02*
X192255310Y-20199405D01*
X200880310Y-20553405D02*
X200880310Y-20199405D01*
X200880310Y-24107405D02*
X200880310Y-23303405D01*
X200880310Y-24153405D02*
X195830310Y-24199405D01*
X192255310Y-20199406D02*
G75*
G03*
X189991311Y-22083405I-190000J-2073999D01*
G01*
X195855310Y-24203406D02*
G75*
G03*
X193595311Y-26083405I-190000J-2069999D01*
G01*
X56630310Y-22153405D02*
X56630310Y-23103405D01*
X56630310Y-25803405D02*
X56630310Y-26098405D01*
X56630310Y-26107405D02*
X57230310Y-26107405D01*
X58030310Y-26107405D02*
X60240310Y-26107405D01*
X67530310Y-20199405D02*
X58905310Y-20199405D01*
X67530310Y-20553405D02*
X67530310Y-20199405D01*
X67530310Y-24107405D02*
X67530310Y-23303405D01*
X67530310Y-24153405D02*
X62480310Y-24199405D01*
X58905310Y-20199406D02*
G75*
G03*
X56641311Y-22083405I-190000J-2073999D01*
G01*
X62505310Y-24203406D02*
G75*
G03*
X60245311Y-26083405I-190000J-2069999D01*
G01*
X151808435Y-22153405D02*
X151808435Y-23103405D01*
X151808435Y-25803405D02*
X151808435Y-26098405D01*
X151808435Y-26107405D02*
X152408435Y-26107405D01*
X153208435Y-26107405D02*
X155418435Y-26107405D01*
X162708435Y-20199405D02*
X154083435Y-20199405D01*
X162708435Y-20553405D02*
X162708435Y-20199405D01*
X162708435Y-24107405D02*
X162708435Y-23303405D01*
X162708435Y-24153405D02*
X157658435Y-24199405D01*
X154083435Y-20199406D02*
G75*
G03*
X151819436Y-22083405I-190000J-2073999D01*
G01*
X157683435Y-24203406D02*
G75*
G03*
X155423436Y-26083405I-190000J-2069999D01*
G01*
X228080310Y-22153405D02*
X228080310Y-23103405D01*
X228080310Y-25803405D02*
X228080310Y-26098405D01*
X228080310Y-26107405D02*
X228680310Y-26107405D01*
X229480310Y-26107405D02*
X231690310Y-26107405D01*
X238980310Y-20199405D02*
X230355310Y-20199405D01*
X238980310Y-20553405D02*
X238980310Y-20199405D01*
X238980310Y-24107405D02*
X238980310Y-23303405D01*
X238980310Y-24153405D02*
X233930310Y-24199405D01*
X230355310Y-20199406D02*
G75*
G03*
X228091311Y-22083405I-190000J-2073999D01*
G01*
X233955310Y-24203406D02*
G75*
G03*
X231695311Y-26083405I-190000J-2069999D01*
G01*
X113780310Y-22153405D02*
X113780310Y-23103405D01*
X113780310Y-25803405D02*
X113780310Y-26098405D01*
X113780310Y-26107405D02*
X114380310Y-26107405D01*
X115180310Y-26107405D02*
X117390310Y-26107405D01*
X124680310Y-20199405D02*
X116055310Y-20199405D01*
X124680310Y-20553405D02*
X124680310Y-20199405D01*
X124680310Y-24107405D02*
X124680310Y-23303405D01*
X124680310Y-24153405D02*
X119630310Y-24199405D01*
X116055310Y-20199406D02*
G75*
G03*
X113791311Y-22083405I-190000J-2073999D01*
G01*
X119655310Y-24203406D02*
G75*
G03*
X117395311Y-26083405I-190000J-2069999D01*
G01*
X209030310Y-22153405D02*
X209030310Y-23103405D01*
X209030310Y-25803405D02*
X209030310Y-26098405D01*
X209030310Y-26107405D02*
X209630310Y-26107405D01*
X210430310Y-26107405D02*
X212640310Y-26107405D01*
X219930310Y-20199405D02*
X211305310Y-20199405D01*
X219930310Y-20553405D02*
X219930310Y-20199405D01*
X219930310Y-24107405D02*
X219930310Y-23303405D01*
X219930310Y-24153405D02*
X214880310Y-24199405D01*
X211305310Y-20199406D02*
G75*
G03*
X209041311Y-22083405I-190000J-2073999D01*
G01*
X214905310Y-24203406D02*
G75*
G03*
X212645311Y-26083405I-190000J-2069999D01*
G01*
X142355310Y-41203405D02*
X142355310Y-42153405D01*
X142355310Y-44853405D02*
X142355310Y-45148405D01*
X142355310Y-45157405D02*
X142955310Y-45157405D01*
X143755310Y-45157405D02*
X145965310Y-45157405D01*
X153255310Y-39249405D02*
X144630310Y-39249405D01*
X153255310Y-39603405D02*
X153255310Y-39249405D01*
X153255310Y-43157405D02*
X153255310Y-42353405D01*
X153255310Y-43203405D02*
X148205310Y-43249405D01*
X144630310Y-39249406D02*
G75*
G03*
X142366311Y-41133405I-190000J-2073999D01*
G01*
X148230310Y-43253406D02*
G75*
G03*
X145970311Y-45133405I-190000J-2069999D01*
G01*
X247130310Y-22153405D02*
X247130310Y-23103405D01*
X247130310Y-25803405D02*
X247130310Y-26098405D01*
X247130310Y-26107405D02*
X247730310Y-26107405D01*
X248530310Y-26107405D02*
X250740310Y-26107405D01*
X258030310Y-20199405D02*
X249405310Y-20199405D01*
X258030310Y-20553405D02*
X258030310Y-20199405D01*
X258030310Y-24107405D02*
X258030310Y-23303405D01*
X258030310Y-24153405D02*
X252980310Y-24199405D01*
X249405310Y-20199406D02*
G75*
G03*
X247141311Y-22083405I-190000J-2073999D01*
G01*
X253005310Y-24203406D02*
G75*
G03*
X250745311Y-26083405I-190000J-2069999D01*
G01*
X266180310Y-22153405D02*
X266180310Y-23103405D01*
X266180310Y-25803405D02*
X266180310Y-26098405D01*
X266180310Y-26107405D02*
X266780310Y-26107405D01*
X267580310Y-26107405D02*
X269790310Y-26107405D01*
X277080310Y-20199405D02*
X268455310Y-20199405D01*
X277080310Y-20553405D02*
X277080310Y-20199405D01*
X277080310Y-24107405D02*
X277080310Y-23303405D01*
X277080310Y-24153405D02*
X272030310Y-24199405D01*
X268455310Y-20199406D02*
G75*
G03*
X266191311Y-22083405I-190000J-2073999D01*
G01*
X272055310Y-24203406D02*
G75*
G03*
X269795311Y-26083405I-190000J-2069999D01*
G01*
X18530310Y-22153405D02*
X18530310Y-23103405D01*
X18530310Y-25803405D02*
X18530310Y-26098405D01*
X18530310Y-26107405D02*
X19130310Y-26107405D01*
X19930310Y-26107405D02*
X22140310Y-26107405D01*
X29430310Y-20199405D02*
X20805310Y-20199405D01*
X29430310Y-20553405D02*
X29430310Y-20199405D01*
X29430310Y-24107405D02*
X29430310Y-23303405D01*
X29430310Y-24153405D02*
X24380310Y-24199405D01*
X20805310Y-20199406D02*
G75*
G03*
X18541311Y-22083405I-190000J-2073999D01*
G01*
X24405310Y-24203406D02*
G75*
G03*
X22145311Y-26083405I-190000J-2069999D01*
G01*
X180455310Y-41203405D02*
X180455310Y-42153405D01*
X180455310Y-44853405D02*
X180455310Y-45148405D01*
X180455310Y-45157405D02*
X181055310Y-45157405D01*
X181855310Y-45157405D02*
X184065310Y-45157405D01*
X191355310Y-39249405D02*
X182730310Y-39249405D01*
X191355310Y-39603405D02*
X191355310Y-39249405D01*
X191355310Y-43157405D02*
X191355310Y-42353405D01*
X191355310Y-43203405D02*
X186305310Y-43249405D01*
X182730310Y-39249406D02*
G75*
G03*
X180466311Y-41133405I-190000J-2073999D01*
G01*
X186330310Y-43253406D02*
G75*
G03*
X184070311Y-45133405I-190000J-2069999D01*
G01*
X285230310Y-22153405D02*
X285230310Y-23103405D01*
X285230310Y-25803405D02*
X285230310Y-26098405D01*
X285230310Y-26107405D02*
X285830310Y-26107405D01*
X286630310Y-26107405D02*
X288840310Y-26107405D01*
X296130310Y-20199405D02*
X287505310Y-20199405D01*
X296130310Y-20553405D02*
X296130310Y-20199405D01*
X296130310Y-24107405D02*
X296130310Y-23303405D01*
X296130310Y-24153405D02*
X291080310Y-24199405D01*
X287505310Y-20199406D02*
G75*
G03*
X285241311Y-22083405I-190000J-2073999D01*
G01*
X291105310Y-24203406D02*
G75*
G03*
X288845311Y-26083405I-190000J-2069999D01*
G01*
X132830310Y-22153405D02*
X132830310Y-23103405D01*
X132830310Y-25803405D02*
X132830310Y-26098405D01*
X132830310Y-26107405D02*
X133430310Y-26107405D01*
X134230310Y-26107405D02*
X136440310Y-26107405D01*
X143730310Y-20199405D02*
X135105310Y-20199405D01*
X143730310Y-20553405D02*
X143730310Y-20199405D01*
X143730310Y-24107405D02*
X143730310Y-23303405D01*
X143730310Y-24153405D02*
X138680310Y-24199405D01*
X135105310Y-20199406D02*
G75*
G03*
X132841311Y-22083405I-190000J-2073999D01*
G01*
X138705310Y-24203406D02*
G75*
G03*
X136445311Y-26083405I-190000J-2069999D01*
G01*
X37580310Y-22153405D02*
X37580310Y-23103405D01*
X37580310Y-25803405D02*
X37580310Y-26098405D01*
X37580310Y-26107405D02*
X38180310Y-26107405D01*
X38980310Y-26107405D02*
X41190310Y-26107405D01*
X48480310Y-20199405D02*
X39855310Y-20199405D01*
X48480310Y-20553405D02*
X48480310Y-20199405D01*
X48480310Y-24107405D02*
X48480310Y-23303405D01*
X48480310Y-24153405D02*
X43430310Y-24199405D01*
X39855310Y-20199406D02*
G75*
G03*
X37591311Y-22083405I-190000J-2073999D01*
G01*
X43455310Y-24203406D02*
G75*
G03*
X41195311Y-26083405I-190000J-2069999D01*
G01*
X94730310Y-22153405D02*
X94730310Y-23103405D01*
X94730310Y-25803405D02*
X94730310Y-26098405D01*
X94730310Y-26107405D02*
X95330310Y-26107405D01*
X96130310Y-26107405D02*
X98340310Y-26107405D01*
X105630310Y-20199405D02*
X97005310Y-20199405D01*
X105630310Y-20553405D02*
X105630310Y-20199405D01*
X105630310Y-24107405D02*
X105630310Y-23303405D01*
X105630310Y-24153405D02*
X100580310Y-24199405D01*
X97005310Y-20199406D02*
G75*
G03*
X94741311Y-22083405I-190000J-2073999D01*
G01*
X100605310Y-24203406D02*
G75*
G03*
X98345311Y-26083405I-190000J-2069999D01*
G01*
X170930310Y-22153405D02*
X170930310Y-23103405D01*
X170930310Y-25803405D02*
X170930310Y-26098405D01*
X170930310Y-26107405D02*
X171530310Y-26107405D01*
X172330310Y-26107405D02*
X174540310Y-26107405D01*
X181830310Y-20199405D02*
X173205310Y-20199405D01*
X181830310Y-20553405D02*
X181830310Y-20199405D01*
X181830310Y-24107405D02*
X181830310Y-23303405D01*
X181830310Y-24153405D02*
X176780310Y-24199405D01*
X173205310Y-20199406D02*
G75*
G03*
X170941311Y-22083405I-190000J-2073999D01*
G01*
X176805310Y-24203406D02*
G75*
G03*
X174545311Y-26083405I-190000J-2069999D01*
G01*
D14*
X79530310Y-29575280D02*
X83430310Y-29575280D01*
X79530310Y-31575280D02*
X83430310Y-31575280D01*
X79530310Y-31575280D02*
X79240310Y-31575280D01*
X79240310Y-31575280D02*
X79240310Y-29575280D01*
X79240310Y-29575280D02*
X79530310Y-29575280D01*
X79530310Y-29575280D02*
X79530310Y-31575280D01*
G36*
X79530310Y-31575280D02*
G01*
X79240310Y-31575280D01*
X79240310Y-29575280D01*
X79530310Y-29575280D01*
X79530310Y-31575280D01*
G37*
X82288310Y-31337280D02*
X81145310Y-30575280D01*
X82288310Y-29813280D01*
X82288310Y-31337280D01*
G36*
X82288310Y-31337280D02*
G01*
X81145310Y-30575280D01*
X82288310Y-29813280D01*
X82288310Y-31337280D01*
G37*
X263955310Y-21050280D02*
G75*
G03*
X263955310Y-21050280I-1200000J0D01*
G01*
X289080310Y-29575280D02*
X292980310Y-29575280D01*
X289080310Y-31575280D02*
X292980310Y-31575280D01*
X289080310Y-31575280D02*
X288790310Y-31575280D01*
X288790310Y-31575280D02*
X288790310Y-29575280D01*
X288790310Y-29575280D02*
X289080310Y-29575280D01*
X289080310Y-29575280D02*
X289080310Y-31575280D01*
G36*
X289080310Y-31575280D02*
G01*
X288790310Y-31575280D01*
X288790310Y-29575280D01*
X289080310Y-29575280D01*
X289080310Y-31575280D01*
G37*
X291838310Y-31337280D02*
X290695310Y-30575280D01*
X291838310Y-29813280D01*
X291838310Y-31337280D01*
G36*
X291838310Y-31337280D02*
G01*
X290695310Y-30575280D01*
X291838310Y-29813280D01*
X291838310Y-31337280D01*
G37*
X231930310Y-29575280D02*
X235830310Y-29575280D01*
X231930310Y-31575280D02*
X235830310Y-31575280D01*
X231930310Y-31575280D02*
X231640310Y-31575280D01*
X231640310Y-31575280D02*
X231640310Y-29575280D01*
X231640310Y-29575280D02*
X231930310Y-29575280D01*
X231930310Y-29575280D02*
X231930310Y-31575280D01*
G36*
X231930310Y-31575280D02*
G01*
X231640310Y-31575280D01*
X231640310Y-29575280D01*
X231930310Y-29575280D01*
X231930310Y-31575280D01*
G37*
X234688310Y-31337280D02*
X233545310Y-30575280D01*
X234688310Y-29813280D01*
X234688310Y-31337280D01*
G36*
X234688310Y-31337280D02*
G01*
X233545310Y-30575280D01*
X234688310Y-29813280D01*
X234688310Y-31337280D01*
G37*
X60480310Y-29575280D02*
X64380310Y-29575280D01*
X60480310Y-31575280D02*
X64380310Y-31575280D01*
X60480310Y-31575280D02*
X60190310Y-31575280D01*
X60190310Y-31575280D02*
X60190310Y-29575280D01*
X60190310Y-29575280D02*
X60480310Y-29575280D01*
X60480310Y-29575280D02*
X60480310Y-31575280D01*
G36*
X60480310Y-31575280D02*
G01*
X60190310Y-31575280D01*
X60190310Y-29575280D01*
X60480310Y-29575280D01*
X60480310Y-31575280D01*
G37*
X63238310Y-31337280D02*
X62095310Y-30575280D01*
X63238310Y-29813280D01*
X63238310Y-31337280D01*
G36*
X63238310Y-31337280D02*
G01*
X62095310Y-30575280D01*
X63238310Y-29813280D01*
X63238310Y-31337280D01*
G37*
X117630310Y-29575280D02*
X121530310Y-29575280D01*
X117630310Y-31575280D02*
X121530310Y-31575280D01*
X117630310Y-31575280D02*
X117340310Y-31575280D01*
X117340310Y-31575280D02*
X117340310Y-29575280D01*
X117340310Y-29575280D02*
X117630310Y-29575280D01*
X117630310Y-29575280D02*
X117630310Y-31575280D01*
G36*
X117630310Y-31575280D02*
G01*
X117340310Y-31575280D01*
X117340310Y-29575280D01*
X117630310Y-29575280D01*
X117630310Y-31575280D01*
G37*
X120388310Y-31337280D02*
X119245310Y-30575280D01*
X120388310Y-29813280D01*
X120388310Y-31337280D01*
G36*
X120388310Y-31337280D02*
G01*
X119245310Y-30575280D01*
X120388310Y-29813280D01*
X120388310Y-31337280D01*
G37*
X98580310Y-29575280D02*
X102480310Y-29575280D01*
X98580310Y-31575280D02*
X102480310Y-31575280D01*
X98580310Y-31575280D02*
X98290310Y-31575280D01*
X98290310Y-31575280D02*
X98290310Y-29575280D01*
X98290310Y-29575280D02*
X98580310Y-29575280D01*
X98580310Y-29575280D02*
X98580310Y-31575280D01*
G36*
X98580310Y-31575280D02*
G01*
X98290310Y-31575280D01*
X98290310Y-29575280D01*
X98580310Y-29575280D01*
X98580310Y-31575280D01*
G37*
X101338310Y-31337280D02*
X100195310Y-30575280D01*
X101338310Y-29813280D01*
X101338310Y-31337280D01*
G36*
X101338310Y-31337280D02*
G01*
X100195310Y-30575280D01*
X101338310Y-29813280D01*
X101338310Y-31337280D01*
G37*
X136680310Y-29575280D02*
X140580310Y-29575280D01*
X136680310Y-31575280D02*
X140580310Y-31575280D01*
X136680310Y-31575280D02*
X136390310Y-31575280D01*
X136390310Y-31575280D02*
X136390310Y-29575280D01*
X136390310Y-29575280D02*
X136680310Y-29575280D01*
X136680310Y-29575280D02*
X136680310Y-31575280D01*
G36*
X136680310Y-31575280D02*
G01*
X136390310Y-31575280D01*
X136390310Y-29575280D01*
X136680310Y-29575280D01*
X136680310Y-31575280D01*
G37*
X139438310Y-31337280D02*
X138295310Y-30575280D01*
X139438310Y-29813280D01*
X139438310Y-31337280D01*
G36*
X139438310Y-31337280D02*
G01*
X138295310Y-30575280D01*
X139438310Y-29813280D01*
X139438310Y-31337280D01*
G37*
X250980310Y-29575280D02*
X254880310Y-29575280D01*
X250980310Y-31575280D02*
X254880310Y-31575280D01*
X250980310Y-31575280D02*
X250690310Y-31575280D01*
X250690310Y-31575280D02*
X250690310Y-29575280D01*
X250690310Y-29575280D02*
X250980310Y-29575280D01*
X250980310Y-29575280D02*
X250980310Y-31575280D01*
G36*
X250980310Y-31575280D02*
G01*
X250690310Y-31575280D01*
X250690310Y-29575280D01*
X250980310Y-29575280D01*
X250980310Y-31575280D01*
G37*
X253738310Y-31337280D02*
X252595310Y-30575280D01*
X253738310Y-29813280D01*
X253738310Y-31337280D01*
G36*
X253738310Y-31337280D02*
G01*
X252595310Y-30575280D01*
X253738310Y-29813280D01*
X253738310Y-31337280D01*
G37*
X127155310Y-48625280D02*
X131055310Y-48625280D01*
X127155310Y-50625280D02*
X131055310Y-50625280D01*
X127155310Y-50625280D02*
X126865310Y-50625280D01*
X126865310Y-50625280D02*
X126865310Y-48625280D01*
X126865310Y-48625280D02*
X127155310Y-48625280D01*
X127155310Y-48625280D02*
X127155310Y-50625280D01*
G36*
X127155310Y-50625280D02*
G01*
X126865310Y-50625280D01*
X126865310Y-48625280D01*
X127155310Y-48625280D01*
X127155310Y-50625280D01*
G37*
X129913310Y-50387280D02*
X128770310Y-49625280D01*
X129913310Y-48863280D01*
X129913310Y-50387280D01*
G36*
X129913310Y-50387280D02*
G01*
X128770310Y-49625280D01*
X129913310Y-48863280D01*
X129913310Y-50387280D01*
G37*
X174780310Y-29575280D02*
X178680310Y-29575280D01*
X174780310Y-31575280D02*
X178680310Y-31575280D01*
X174780310Y-31575280D02*
X174490310Y-31575280D01*
X174490310Y-31575280D02*
X174490310Y-29575280D01*
X174490310Y-29575280D02*
X174780310Y-29575280D01*
X174780310Y-29575280D02*
X174780310Y-31575280D01*
G36*
X174780310Y-31575280D02*
G01*
X174490310Y-31575280D01*
X174490310Y-29575280D01*
X174780310Y-29575280D01*
X174780310Y-31575280D01*
G37*
X177538310Y-31337280D02*
X176395310Y-30575280D01*
X177538310Y-29813280D01*
X177538310Y-31337280D01*
G36*
X177538310Y-31337280D02*
G01*
X176395310Y-30575280D01*
X177538310Y-29813280D01*
X177538310Y-31337280D01*
G37*
X41430310Y-29575280D02*
X45330310Y-29575280D01*
X41430310Y-31575280D02*
X45330310Y-31575280D01*
X41430310Y-31575280D02*
X41140310Y-31575280D01*
X41140310Y-31575280D02*
X41140310Y-29575280D01*
X41140310Y-29575280D02*
X41430310Y-29575280D01*
X41430310Y-29575280D02*
X41430310Y-31575280D01*
G36*
X41430310Y-31575280D02*
G01*
X41140310Y-31575280D01*
X41140310Y-29575280D01*
X41430310Y-29575280D01*
X41430310Y-31575280D01*
G37*
X44188310Y-31337280D02*
X43045310Y-30575280D01*
X44188310Y-29813280D01*
X44188310Y-31337280D01*
G36*
X44188310Y-31337280D02*
G01*
X43045310Y-30575280D01*
X44188310Y-29813280D01*
X44188310Y-31337280D01*
G37*
X270030310Y-29575280D02*
X273930310Y-29575280D01*
X270030310Y-31575280D02*
X273930310Y-31575280D01*
X270030310Y-31575280D02*
X269740310Y-31575280D01*
X269740310Y-31575280D02*
X269740310Y-29575280D01*
X269740310Y-29575280D02*
X270030310Y-29575280D01*
X270030310Y-29575280D02*
X270030310Y-31575280D01*
G36*
X270030310Y-31575280D02*
G01*
X269740310Y-31575280D01*
X269740310Y-29575280D01*
X270030310Y-29575280D01*
X270030310Y-31575280D01*
G37*
X272788310Y-31337280D02*
X271645310Y-30575280D01*
X272788310Y-29813280D01*
X272788310Y-31337280D01*
G36*
X272788310Y-31337280D02*
G01*
X271645310Y-30575280D01*
X272788310Y-29813280D01*
X272788310Y-31337280D01*
G37*
X184305310Y-48625280D02*
X188205310Y-48625280D01*
X184305310Y-50625280D02*
X188205310Y-50625280D01*
X184305310Y-50625280D02*
X184015310Y-50625280D01*
X184015310Y-50625280D02*
X184015310Y-48625280D01*
X184015310Y-48625280D02*
X184305310Y-48625280D01*
X184305310Y-48625280D02*
X184305310Y-50625280D01*
G36*
X184305310Y-50625280D02*
G01*
X184015310Y-50625280D01*
X184015310Y-48625280D01*
X184305310Y-48625280D01*
X184305310Y-50625280D01*
G37*
X187063310Y-50387280D02*
X185920310Y-49625280D01*
X187063310Y-48863280D01*
X187063310Y-50387280D01*
G36*
X187063310Y-50387280D02*
G01*
X185920310Y-49625280D01*
X187063310Y-48863280D01*
X187063310Y-50387280D01*
G37*
X146205310Y-48625280D02*
X150105310Y-48625280D01*
X146205310Y-50625280D02*
X150105310Y-50625280D01*
X146205310Y-50625280D02*
X145915310Y-50625280D01*
X145915310Y-50625280D02*
X145915310Y-48625280D01*
X145915310Y-48625280D02*
X146205310Y-48625280D01*
X146205310Y-48625280D02*
X146205310Y-50625280D01*
G36*
X146205310Y-50625280D02*
G01*
X145915310Y-50625280D01*
X145915310Y-48625280D01*
X146205310Y-48625280D01*
X146205310Y-50625280D01*
G37*
X148963310Y-50387280D02*
X147820310Y-49625280D01*
X148963310Y-48863280D01*
X148963310Y-50387280D01*
G36*
X148963310Y-50387280D02*
G01*
X147820310Y-49625280D01*
X148963310Y-48863280D01*
X148963310Y-50387280D01*
G37*
X170615310Y-30290280D02*
X170615310Y-27790280D01*
X170615310Y-27790280D02*
X169565310Y-27790280D01*
X169565310Y-27790280D02*
X169565310Y-26800280D01*
X169445310Y-32260280D02*
X165565310Y-32260280D01*
X164395310Y-30290280D02*
X164395310Y-27790280D01*
X164395310Y-27790280D02*
X165445310Y-27790280D01*
X170615310Y-28790280D02*
X169565310Y-27790280D01*
X170615310Y-27790280D01*
X170615310Y-28790280D01*
G36*
X170615310Y-28790280D02*
G01*
X169565310Y-27790280D01*
X170615310Y-27790280D01*
X170615310Y-28790280D01*
G37*
X169805310Y-27790280D02*
X169565310Y-27790280D01*
X169565310Y-26800280D01*
X169805310Y-26800280D01*
X169805310Y-27790280D01*
G36*
X169805310Y-27790280D02*
G01*
X169565310Y-27790280D01*
X169565310Y-26800280D01*
X169805310Y-26800280D01*
X169805310Y-27790280D01*
G37*
X30592810Y-31765905D02*
G75*
G03*
X30592810Y-31765905I-1200000J0D01*
G01*
X35355310Y-21050280D02*
G75*
G03*
X35355310Y-21050280I-1200000J0D01*
G01*
X149655310Y-21050280D02*
G75*
G03*
X149655310Y-21050280I-1200000J0D01*
G01*
X73455310Y-21059655D02*
G75*
G03*
X73455310Y-21059655I-1200000J0D01*
G01*
X168705310Y-21003405D02*
G75*
G03*
X168705310Y-21003405I-1200000J0D01*
G01*
X150845935Y-36528405D02*
G75*
G03*
X150845935Y-36528405I-1200000J0D01*
G01*
X212880310Y-29575280D02*
X216780310Y-29575280D01*
X212880310Y-31575280D02*
X216780310Y-31575280D01*
X212880310Y-31575280D02*
X212590310Y-31575280D01*
X212590310Y-31575280D02*
X212590310Y-29575280D01*
X212590310Y-29575280D02*
X212880310Y-29575280D01*
X212880310Y-29575280D02*
X212880310Y-31575280D01*
G36*
X212880310Y-31575280D02*
G01*
X212590310Y-31575280D01*
X212590310Y-29575280D01*
X212880310Y-29575280D01*
X212880310Y-31575280D01*
G37*
X215638310Y-31337280D02*
X214495310Y-30575280D01*
X215638310Y-29813280D01*
X215638310Y-31337280D01*
G36*
X215638310Y-31337280D02*
G01*
X214495310Y-30575280D01*
X215638310Y-29813280D01*
X215638310Y-31337280D01*
G37*
X225855310Y-21050280D02*
G75*
G03*
X225855310Y-21050280I-1200000J0D01*
G01*
X155730310Y-29575280D02*
X159630310Y-29575280D01*
X155730310Y-31575280D02*
X159630310Y-31575280D01*
X155730310Y-31575280D02*
X155440310Y-31575280D01*
X155440310Y-31575280D02*
X155440310Y-29575280D01*
X155440310Y-29575280D02*
X155730310Y-29575280D01*
X155730310Y-29575280D02*
X155730310Y-31575280D01*
G36*
X155730310Y-31575280D02*
G01*
X155440310Y-31575280D01*
X155440310Y-29575280D01*
X155730310Y-29575280D01*
X155730310Y-31575280D01*
G37*
X158488310Y-31337280D02*
X157345310Y-30575280D01*
X158488310Y-29813280D01*
X158488310Y-31337280D01*
G36*
X158488310Y-31337280D02*
G01*
X157345310Y-30575280D01*
X158488310Y-29813280D01*
X158488310Y-31337280D01*
G37*
X193830310Y-29575280D02*
X197730310Y-29575280D01*
X193830310Y-31575280D02*
X197730310Y-31575280D01*
X193830310Y-31575280D02*
X193540310Y-31575280D01*
X193540310Y-31575280D02*
X193540310Y-29575280D01*
X193540310Y-29575280D02*
X193830310Y-29575280D01*
X193830310Y-29575280D02*
X193830310Y-31575280D01*
G36*
X193830310Y-31575280D02*
G01*
X193540310Y-31575280D01*
X193540310Y-29575280D01*
X193830310Y-29575280D01*
X193830310Y-31575280D01*
G37*
X196588310Y-31337280D02*
X195445310Y-30575280D01*
X196588310Y-29813280D01*
X196588310Y-31337280D01*
G36*
X196588310Y-31337280D02*
G01*
X195445310Y-30575280D01*
X196588310Y-29813280D01*
X196588310Y-31337280D01*
G37*
X132501560Y-29893405D02*
X130001560Y-29893405D01*
X130001560Y-29893405D02*
X130001560Y-30943405D01*
X130001560Y-30943405D02*
X129011560Y-30943405D01*
X134471560Y-31063405D02*
X134471560Y-34943405D01*
X132501560Y-36113405D02*
X130001560Y-36113405D01*
X130001560Y-36113405D02*
X130001560Y-35063405D01*
X130001560Y-30943405D02*
X130001560Y-29893405D01*
X131001560Y-29893405D01*
X130001560Y-30943405D01*
G36*
X130001560Y-30943405D02*
G01*
X130001560Y-29893405D01*
X131001560Y-29893405D01*
X130001560Y-30943405D01*
G37*
X130001560Y-30943405D02*
X129011560Y-30943405D01*
X129011560Y-30703405D01*
X130001560Y-30703405D01*
X130001560Y-30943405D01*
G36*
X130001560Y-30943405D02*
G01*
X129011560Y-30943405D01*
X129011560Y-30703405D01*
X130001560Y-30703405D01*
X130001560Y-30943405D01*
G37*
X283005310Y-21050280D02*
G75*
G03*
X283005310Y-21050280I-1200000J0D01*
G01*
X92505310Y-21050280D02*
G75*
G03*
X92505310Y-21050280I-1200000J0D01*
G01*
X147274060Y-36528405D02*
G75*
G03*
X147274060Y-36528405I-1200000J0D01*
G01*
X40117810Y-31765905D02*
G75*
G03*
X40117810Y-31765905I-1200000J0D01*
G01*
X22380310Y-29575280D02*
X26280310Y-29575280D01*
X22380310Y-31575280D02*
X26280310Y-31575280D01*
X22380310Y-31575280D02*
X22090310Y-31575280D01*
X22090310Y-31575280D02*
X22090310Y-29575280D01*
X22090310Y-29575280D02*
X22380310Y-29575280D01*
X22380310Y-29575280D02*
X22380310Y-31575280D01*
G36*
X22380310Y-31575280D02*
G01*
X22090310Y-31575280D01*
X22090310Y-29575280D01*
X22380310Y-29575280D01*
X22380310Y-31575280D01*
G37*
X25138310Y-31337280D02*
X23995310Y-30575280D01*
X25138310Y-29813280D01*
X25138310Y-31337280D01*
G36*
X25138310Y-31337280D02*
G01*
X23995310Y-30575280D01*
X25138310Y-29813280D01*
X25138310Y-31337280D01*
G37*
X165255310Y-48625280D02*
X169155310Y-48625280D01*
X165255310Y-50625280D02*
X169155310Y-50625280D01*
X165255310Y-50625280D02*
X164965310Y-50625280D01*
X164965310Y-50625280D02*
X164965310Y-48625280D01*
X164965310Y-48625280D02*
X165255310Y-48625280D01*
X165255310Y-48625280D02*
X165255310Y-50625280D01*
G36*
X165255310Y-50625280D02*
G01*
X164965310Y-50625280D01*
X164965310Y-48625280D01*
X165255310Y-48625280D01*
X165255310Y-50625280D01*
G37*
X168013310Y-50387280D02*
X166870310Y-49625280D01*
X168013310Y-48863280D01*
X168013310Y-50387280D01*
G36*
X168013310Y-50387280D02*
G01*
X166870310Y-49625280D01*
X168013310Y-48863280D01*
X168013310Y-50387280D01*
G37*
X151565310Y-30290280D02*
X151565310Y-27790280D01*
X151565310Y-27790280D02*
X150515310Y-27790280D01*
X150515310Y-27790280D02*
X150515310Y-26800280D01*
X150395310Y-32260280D02*
X146515310Y-32260280D01*
X145345310Y-30290280D02*
X145345310Y-27790280D01*
X145345310Y-27790280D02*
X146395310Y-27790280D01*
X151565310Y-28790280D02*
X150515310Y-27790280D01*
X151565310Y-27790280D01*
X151565310Y-28790280D01*
G36*
X151565310Y-28790280D02*
G01*
X150515310Y-27790280D01*
X151565310Y-27790280D01*
X151565310Y-28790280D01*
G37*
X150755310Y-27790280D02*
X150515310Y-27790280D01*
X150515310Y-26800280D01*
X150755310Y-26800280D01*
X150755310Y-27790280D01*
G36*
X150755310Y-27790280D02*
G01*
X150515310Y-27790280D01*
X150515310Y-26800280D01*
X150755310Y-26800280D01*
X150755310Y-27790280D01*
G37*
%LPC*%
D15*
X162425310Y-46053405D03*
D16*
X163695310Y-43513405D03*
D17*
X167505310Y-46053405D03*
D16*
X170045310Y-40973405D03*
D15*
X172585310Y-46053405D03*
D18*
X160420310Y-43513405D03*
X173347310Y-40973405D03*
D15*
X76700310Y-27003405D03*
D16*
X77970310Y-24463405D03*
D17*
X81780310Y-27003405D03*
D16*
X84320310Y-21923405D03*
D15*
X86860310Y-27003405D03*
D18*
X74695310Y-24463405D03*
X87622310Y-21923405D03*
D15*
X124325310Y-46053405D03*
D16*
X125595310Y-43513405D03*
D17*
X129405310Y-46053405D03*
D16*
X131945310Y-40973405D03*
D15*
X134485310Y-46053405D03*
D18*
X122320310Y-43513405D03*
X135247310Y-40973405D03*
D15*
X191000310Y-27003405D03*
D16*
X192270310Y-24463405D03*
D17*
X196080310Y-27003405D03*
D16*
X198620310Y-21923405D03*
D15*
X201160310Y-27003405D03*
D18*
X188995310Y-24463405D03*
X201922310Y-21923405D03*
D19*
X40632310Y-45672405D03*
D15*
X57650310Y-27003405D03*
D16*
X58920310Y-24463405D03*
D17*
X62730310Y-27003405D03*
D16*
X65270310Y-21923405D03*
D15*
X67810310Y-27003405D03*
D18*
X55645310Y-24463405D03*
X68572310Y-21923405D03*
D15*
X152828435Y-27003405D03*
D16*
X154098435Y-24463405D03*
D17*
X157908435Y-27003405D03*
D16*
X160448435Y-21923405D03*
D15*
X162988435Y-27003405D03*
D18*
X150823435Y-24463405D03*
X163750435Y-21923405D03*
D15*
X229100310Y-27003405D03*
D16*
X230370310Y-24463405D03*
D17*
X234180310Y-27003405D03*
D16*
X236720310Y-21923405D03*
D15*
X239260310Y-27003405D03*
D18*
X227095310Y-24463405D03*
X240022310Y-21923405D03*
D15*
X114800310Y-27003405D03*
D16*
X116070310Y-24463405D03*
D17*
X119880310Y-27003405D03*
D16*
X122420310Y-21923405D03*
D15*
X124960310Y-27003405D03*
D20*
X112795310Y-24463405D03*
D21*
X125722310Y-21923405D03*
D15*
X210050310Y-27003405D03*
D16*
X211320310Y-24463405D03*
D17*
X215130310Y-27003405D03*
D16*
X217670310Y-21923405D03*
D15*
X220210310Y-27003405D03*
D20*
X208045310Y-24463405D03*
D18*
X220972310Y-21923405D03*
D22*
X224655310Y-28194030D03*
D15*
X143375310Y-46053405D03*
D16*
X144645310Y-43513405D03*
D17*
X148455310Y-46053405D03*
D16*
X150995310Y-40973405D03*
D15*
X153535310Y-46053405D03*
D18*
X141370310Y-43513405D03*
X154297310Y-40973405D03*
D15*
X248150310Y-27003405D03*
D16*
X249420310Y-24463405D03*
D17*
X253230310Y-27003405D03*
D16*
X255770310Y-21923405D03*
D15*
X258310310Y-27003405D03*
D18*
X246145310Y-24463405D03*
X259072310Y-21923405D03*
D15*
X267200310Y-27003405D03*
D16*
X268470310Y-24463405D03*
D17*
X272280310Y-27003405D03*
D16*
X274820310Y-21923405D03*
D15*
X277360310Y-27003405D03*
D18*
X265195310Y-24463405D03*
X278122310Y-21923405D03*
D22*
X34155310Y-28194030D03*
X186555310Y-20561655D03*
D15*
X19550310Y-27003405D03*
D16*
X20820310Y-24463405D03*
D17*
X24630310Y-27003405D03*
D16*
X27170310Y-21923405D03*
D15*
X29710310Y-27003405D03*
D18*
X17545310Y-24463405D03*
X30472310Y-21923405D03*
D22*
X177030310Y-52006530D03*
X91305310Y-28194030D03*
X138930310Y-52006530D03*
X129405310Y-20561655D03*
D15*
X181475310Y-46053405D03*
D16*
X182745310Y-43513405D03*
D17*
X186555310Y-46053405D03*
D16*
X189095310Y-40973405D03*
D15*
X191635310Y-46053405D03*
D18*
X179470310Y-43513405D03*
X192397310Y-40973405D03*
D15*
X286250310Y-27003405D03*
D16*
X287520310Y-24463405D03*
D17*
X291330310Y-27003405D03*
D16*
X293870310Y-21923405D03*
D15*
X296410310Y-27003405D03*
D18*
X284245310Y-24463405D03*
X297172310Y-21923405D03*
D15*
X133850310Y-27003405D03*
D16*
X135120310Y-24463405D03*
D17*
X138930310Y-27003405D03*
D16*
X141470310Y-21923405D03*
D15*
X144010310Y-27003405D03*
D18*
X131845310Y-24463405D03*
X144772310Y-21923405D03*
D22*
X281805310Y-28194030D03*
D15*
X38600310Y-27003405D03*
D16*
X39870310Y-24463405D03*
D17*
X43680310Y-27003405D03*
D16*
X46220310Y-21923405D03*
D15*
X48760310Y-27003405D03*
D18*
X36595310Y-24463405D03*
X49522310Y-21923405D03*
D15*
X95750310Y-27003405D03*
D16*
X97020310Y-24463405D03*
D17*
X100830310Y-27003405D03*
D16*
X103370310Y-21923405D03*
D15*
X105910310Y-27003405D03*
D18*
X93745310Y-24463405D03*
X106672310Y-21923405D03*
D15*
X171950310Y-27003405D03*
D16*
X173220310Y-24463405D03*
D17*
X177030310Y-27003405D03*
D16*
X179570310Y-21923405D03*
D15*
X182110310Y-27003405D03*
D18*
X169945310Y-24463405D03*
D21*
X182872310Y-21923405D03*
D23*
X80130310Y-30575280D03*
X83430310Y-30575280D03*
D24*
X262755310Y-21050280D03*
D23*
X289680310Y-30575280D03*
X292980310Y-30575280D03*
X232530310Y-30575280D03*
X235830310Y-30575280D03*
X61080310Y-30575280D03*
X64380310Y-30575280D03*
X118230310Y-30575280D03*
X121530310Y-30575280D03*
X99180310Y-30575280D03*
X102480310Y-30575280D03*
X137280310Y-30575280D03*
X140580310Y-30575280D03*
X251580310Y-30575280D03*
X254880310Y-30575280D03*
X127755310Y-49625280D03*
X131055310Y-49625280D03*
X175380310Y-30575280D03*
X178680310Y-30575280D03*
X42030310Y-30575280D03*
X45330310Y-30575280D03*
X270630310Y-30575280D03*
X273930310Y-30575280D03*
X184905310Y-49625280D03*
X188205310Y-49625280D03*
X146805310Y-49625280D03*
X150105310Y-49625280D03*
D25*
X169505310Y-29375280D03*
D26*
X169005310Y-27575280D03*
D25*
X168505310Y-31275280D03*
D26*
X168005310Y-27575280D03*
X167005310Y-27575280D03*
D25*
X166505310Y-31275280D03*
D26*
X166005310Y-27575280D03*
D25*
X165505310Y-29375280D03*
D27*
X170305310Y-31450280D03*
X164705310Y-31450280D03*
D24*
X29392810Y-31765905D03*
X34155310Y-21050280D03*
X148455310Y-21050280D03*
X72255310Y-21059655D03*
X167505310Y-21003405D03*
X149645935Y-36528405D03*
D23*
X213480310Y-30575280D03*
X216780310Y-30575280D03*
D24*
X224655310Y-21050280D03*
D23*
X156330310Y-30575280D03*
X159630310Y-30575280D03*
X194430310Y-30575280D03*
X197730310Y-30575280D03*
D25*
X131586560Y-31003405D03*
D28*
X129786560Y-31503405D03*
D25*
X133486560Y-32003405D03*
D28*
X129786560Y-32503405D03*
X129786560Y-33503405D03*
D25*
X133486560Y-34003405D03*
D28*
X129786560Y-34503405D03*
D25*
X131586560Y-35003405D03*
D29*
X133661560Y-30203405D03*
X133661560Y-35803405D03*
D24*
X281805310Y-21050280D03*
X91305310Y-21050280D03*
X146074060Y-36528405D03*
X38917810Y-31765905D03*
D23*
X22980310Y-30575280D03*
X26280310Y-30575280D03*
X165855310Y-49625280D03*
X169155310Y-49625280D03*
D25*
X150455310Y-29375280D03*
D26*
X149955310Y-27575280D03*
D25*
X149455310Y-31275280D03*
D26*
X148955310Y-27575280D03*
X147955310Y-27575280D03*
D25*
X147455310Y-31275280D03*
D26*
X146955310Y-27575280D03*
D25*
X146455310Y-29375280D03*
D27*
X151255310Y-31450280D03*
X145655310Y-31450280D03*
M02*
