G04 #@! TF.GenerationSoftware,KiCad,Pcbnew,(6.0.10-0)*
G04 #@! TF.CreationDate,2023-03-16T17:34:01+09:00*
G04 #@! TF.ProjectId,Sandy_Top,53616e64-795f-4546-9f70-2e6b69636164,v.0*
G04 #@! TF.SameCoordinates,Original*
G04 #@! TF.FileFunction,AssemblyDrawing,Bot*
%FSLAX46Y46*%
G04 Gerber Fmt 4.6, Leading zero omitted, Abs format (unit mm)*
G04 Created by KiCad (PCBNEW (6.0.10-0)) date 2023-03-16 17:34:01*
%MOMM*%
%LPD*%
G01*
G04 APERTURE LIST*
%ADD10C,0.150000*%
%ADD11C,0.100000*%
G04 APERTURE END LIST*
D10*
X87804565Y-30887184D02*
X86804565Y-30887184D01*
X86804565Y-31125280D01*
X86852185Y-31268137D01*
X86947423Y-31363375D01*
X87042661Y-31410994D01*
X87233137Y-31458613D01*
X87375994Y-31458613D01*
X87566470Y-31410994D01*
X87661708Y-31363375D01*
X87756946Y-31268137D01*
X87804565Y-31125280D01*
X87804565Y-30887184D01*
X87137899Y-32315756D02*
X87804565Y-32315756D01*
X86756946Y-32077660D02*
X87471232Y-31839565D01*
X87471232Y-32458613D01*
X264374208Y-18978851D02*
X264040875Y-18978851D01*
X263898018Y-19502660D02*
X264374208Y-19502660D01*
X264374208Y-18502660D01*
X263898018Y-18502660D01*
X263564685Y-18502660D02*
X262898018Y-19502660D01*
X262898018Y-18502660D02*
X263564685Y-19502660D01*
X262659923Y-18502660D02*
X262088494Y-18502660D01*
X262374208Y-19502660D02*
X262374208Y-18502660D01*
X261993256Y-19597899D02*
X261231351Y-19597899D01*
X261136113Y-18502660D02*
X260564685Y-18502660D01*
X260850399Y-19502660D02*
X260850399Y-18502660D01*
X259659923Y-19407422D02*
X259707542Y-19455041D01*
X259850399Y-19502660D01*
X259945637Y-19502660D01*
X260088494Y-19455041D01*
X260183732Y-19359803D01*
X260231351Y-19264565D01*
X260278970Y-19074089D01*
X260278970Y-18931232D01*
X260231351Y-18740756D01*
X260183732Y-18645518D01*
X260088494Y-18550280D01*
X259945637Y-18502660D01*
X259850399Y-18502660D01*
X259707542Y-18550280D01*
X259659923Y-18597899D01*
X258802780Y-18502660D02*
X258993256Y-18502660D01*
X259088494Y-18550280D01*
X259136113Y-18597899D01*
X259231351Y-18740756D01*
X259278970Y-18931232D01*
X259278970Y-19312184D01*
X259231351Y-19407422D01*
X259183732Y-19455041D01*
X259088494Y-19502660D01*
X258898018Y-19502660D01*
X258802780Y-19455041D01*
X258755161Y-19407422D01*
X258707542Y-19312184D01*
X258707542Y-19074089D01*
X258755161Y-18978851D01*
X258802780Y-18931232D01*
X258898018Y-18883613D01*
X259088494Y-18883613D01*
X259183732Y-18931232D01*
X259231351Y-18978851D01*
X259278970Y-19074089D01*
X297354565Y-29360994D02*
X296354565Y-29360994D01*
X296354565Y-29599089D01*
X296402185Y-29741946D01*
X296497423Y-29837184D01*
X296592661Y-29884803D01*
X296783137Y-29932422D01*
X296925994Y-29932422D01*
X297116470Y-29884803D01*
X297211708Y-29837184D01*
X297306946Y-29741946D01*
X297354565Y-29599089D01*
X297354565Y-29360994D01*
X297354565Y-30884803D02*
X297354565Y-30313375D01*
X297354565Y-30599089D02*
X296354565Y-30599089D01*
X296497423Y-30503851D01*
X296592661Y-30408613D01*
X296640280Y-30313375D01*
X296354565Y-31789565D02*
X296354565Y-31313375D01*
X296830756Y-31265756D01*
X296783137Y-31313375D01*
X296735518Y-31408613D01*
X296735518Y-31646708D01*
X296783137Y-31741946D01*
X296830756Y-31789565D01*
X296925994Y-31837184D01*
X297164089Y-31837184D01*
X297259327Y-31789565D01*
X297306946Y-31741946D01*
X297354565Y-31646708D01*
X297354565Y-31408613D01*
X297306946Y-31313375D01*
X297259327Y-31265756D01*
X240204565Y-30414994D02*
X239204565Y-30414994D01*
X239204565Y-30653089D01*
X239252185Y-30795946D01*
X239347423Y-30891184D01*
X239442661Y-30938803D01*
X239633137Y-30986422D01*
X239775994Y-30986422D01*
X239966470Y-30938803D01*
X240061708Y-30891184D01*
X240156946Y-30795946D01*
X240204565Y-30653089D01*
X240204565Y-30414994D01*
X240204565Y-31938803D02*
X240204565Y-31367375D01*
X240204565Y-31653089D02*
X239204565Y-31653089D01*
X239347423Y-31557851D01*
X239442661Y-31462613D01*
X239490280Y-31367375D01*
X239299804Y-32319756D02*
X239252185Y-32367375D01*
X239204565Y-32462613D01*
X239204565Y-32700708D01*
X239252185Y-32795946D01*
X239299804Y-32843565D01*
X239395042Y-32891184D01*
X239490280Y-32891184D01*
X239633137Y-32843565D01*
X240204565Y-32272137D01*
X240204565Y-32891184D01*
X68754565Y-29837184D02*
X67754565Y-29837184D01*
X67754565Y-30075280D01*
X67802185Y-30218137D01*
X67897423Y-30313375D01*
X67992661Y-30360994D01*
X68183137Y-30408613D01*
X68325994Y-30408613D01*
X68516470Y-30360994D01*
X68611708Y-30313375D01*
X68706946Y-30218137D01*
X68754565Y-30075280D01*
X68754565Y-29837184D01*
X67754565Y-30741946D02*
X67754565Y-31360994D01*
X68135518Y-31027660D01*
X68135518Y-31170518D01*
X68183137Y-31265756D01*
X68230756Y-31313375D01*
X68325994Y-31360994D01*
X68564089Y-31360994D01*
X68659327Y-31313375D01*
X68706946Y-31265756D01*
X68754565Y-31170518D01*
X68754565Y-30884803D01*
X68706946Y-30789565D01*
X68659327Y-30741946D01*
X125904565Y-30891184D02*
X124904565Y-30891184D01*
X124904565Y-31129280D01*
X124952185Y-31272137D01*
X125047423Y-31367375D01*
X125142661Y-31414994D01*
X125333137Y-31462613D01*
X125475994Y-31462613D01*
X125666470Y-31414994D01*
X125761708Y-31367375D01*
X125856946Y-31272137D01*
X125904565Y-31129280D01*
X125904565Y-30891184D01*
X124904565Y-32319756D02*
X124904565Y-32129280D01*
X124952185Y-32034041D01*
X124999804Y-31986422D01*
X125142661Y-31891184D01*
X125333137Y-31843565D01*
X125714089Y-31843565D01*
X125809327Y-31891184D01*
X125856946Y-31938803D01*
X125904565Y-32034041D01*
X125904565Y-32224518D01*
X125856946Y-32319756D01*
X125809327Y-32367375D01*
X125714089Y-32414994D01*
X125475994Y-32414994D01*
X125380756Y-32367375D01*
X125333137Y-32319756D01*
X125285518Y-32224518D01*
X125285518Y-32034041D01*
X125333137Y-31938803D01*
X125380756Y-31891184D01*
X125475994Y-31843565D01*
X106854565Y-29837184D02*
X105854565Y-29837184D01*
X105854565Y-30075280D01*
X105902185Y-30218137D01*
X105997423Y-30313375D01*
X106092661Y-30360994D01*
X106283137Y-30408613D01*
X106425994Y-30408613D01*
X106616470Y-30360994D01*
X106711708Y-30313375D01*
X106806946Y-30218137D01*
X106854565Y-30075280D01*
X106854565Y-29837184D01*
X105854565Y-31313375D02*
X105854565Y-30837184D01*
X106330756Y-30789565D01*
X106283137Y-30837184D01*
X106235518Y-30932422D01*
X106235518Y-31170518D01*
X106283137Y-31265756D01*
X106330756Y-31313375D01*
X106425994Y-31360994D01*
X106664089Y-31360994D01*
X106759327Y-31313375D01*
X106806946Y-31265756D01*
X106854565Y-31170518D01*
X106854565Y-30932422D01*
X106806946Y-30837184D01*
X106759327Y-30789565D01*
X144954565Y-29737184D02*
X143954565Y-29737184D01*
X143954565Y-29975280D01*
X144002185Y-30118137D01*
X144097423Y-30213375D01*
X144192661Y-30260994D01*
X144383137Y-30308613D01*
X144525994Y-30308613D01*
X144716470Y-30260994D01*
X144811708Y-30213375D01*
X144906946Y-30118137D01*
X144954565Y-29975280D01*
X144954565Y-29737184D01*
X144383137Y-30880041D02*
X144335518Y-30784803D01*
X144287899Y-30737184D01*
X144192661Y-30689565D01*
X144145042Y-30689565D01*
X144049804Y-30737184D01*
X144002185Y-30784803D01*
X143954565Y-30880041D01*
X143954565Y-31070518D01*
X144002185Y-31165756D01*
X144049804Y-31213375D01*
X144145042Y-31260994D01*
X144192661Y-31260994D01*
X144287899Y-31213375D01*
X144335518Y-31165756D01*
X144383137Y-31070518D01*
X144383137Y-30880041D01*
X144430756Y-30784803D01*
X144478375Y-30737184D01*
X144573613Y-30689565D01*
X144764089Y-30689565D01*
X144859327Y-30737184D01*
X144906946Y-30784803D01*
X144954565Y-30880041D01*
X144954565Y-31070518D01*
X144906946Y-31165756D01*
X144859327Y-31213375D01*
X144764089Y-31260994D01*
X144573613Y-31260994D01*
X144478375Y-31213375D01*
X144430756Y-31165756D01*
X144383137Y-31070518D01*
X259254565Y-29360994D02*
X258254565Y-29360994D01*
X258254565Y-29599089D01*
X258302185Y-29741946D01*
X258397423Y-29837184D01*
X258492661Y-29884803D01*
X258683137Y-29932422D01*
X258825994Y-29932422D01*
X259016470Y-29884803D01*
X259111708Y-29837184D01*
X259206946Y-29741946D01*
X259254565Y-29599089D01*
X259254565Y-29360994D01*
X259254565Y-30884803D02*
X259254565Y-30313375D01*
X259254565Y-30599089D02*
X258254565Y-30599089D01*
X258397423Y-30503851D01*
X258492661Y-30408613D01*
X258540280Y-30313375D01*
X258254565Y-31218137D02*
X258254565Y-31837184D01*
X258635518Y-31503851D01*
X258635518Y-31646708D01*
X258683137Y-31741946D01*
X258730756Y-31789565D01*
X258825994Y-31837184D01*
X259064089Y-31837184D01*
X259159327Y-31789565D01*
X259206946Y-31741946D01*
X259254565Y-31646708D01*
X259254565Y-31360994D01*
X259206946Y-31265756D01*
X259159327Y-31218137D01*
X140192065Y-44839119D02*
X139192065Y-44839119D01*
X139192065Y-45077214D01*
X139239685Y-45220071D01*
X139334923Y-45315309D01*
X139430161Y-45362928D01*
X139620637Y-45410547D01*
X139763494Y-45410547D01*
X139953970Y-45362928D01*
X140049208Y-45315309D01*
X140144446Y-45220071D01*
X140192065Y-45077214D01*
X140192065Y-44839119D01*
X140192065Y-46362928D02*
X140192065Y-45791500D01*
X140192065Y-46077214D02*
X139192065Y-46077214D01*
X139334923Y-45981976D01*
X139430161Y-45886738D01*
X139477780Y-45791500D01*
X139192065Y-47220071D02*
X139192065Y-47029595D01*
X139239685Y-46934357D01*
X139287304Y-46886738D01*
X139430161Y-46791500D01*
X139620637Y-46743881D01*
X140001589Y-46743881D01*
X140096827Y-46791500D01*
X140144446Y-46839119D01*
X140192065Y-46934357D01*
X140192065Y-47124833D01*
X140144446Y-47220071D01*
X140096827Y-47267690D01*
X140001589Y-47315309D01*
X139763494Y-47315309D01*
X139668256Y-47267690D01*
X139620637Y-47220071D01*
X139573018Y-47124833D01*
X139573018Y-46934357D01*
X139620637Y-46839119D01*
X139668256Y-46791500D01*
X139763494Y-46743881D01*
X183054565Y-29837184D02*
X182054565Y-29837184D01*
X182054565Y-30075280D01*
X182102185Y-30218137D01*
X182197423Y-30313375D01*
X182292661Y-30360994D01*
X182483137Y-30408613D01*
X182625994Y-30408613D01*
X182816470Y-30360994D01*
X182911708Y-30313375D01*
X183006946Y-30218137D01*
X183054565Y-30075280D01*
X183054565Y-29837184D01*
X182054565Y-30741946D02*
X182054565Y-31408613D01*
X183054565Y-30980041D01*
X49704565Y-30887184D02*
X48704565Y-30887184D01*
X48704565Y-31125280D01*
X48752185Y-31268137D01*
X48847423Y-31363375D01*
X48942661Y-31410994D01*
X49133137Y-31458613D01*
X49275994Y-31458613D01*
X49466470Y-31410994D01*
X49561708Y-31363375D01*
X49656946Y-31268137D01*
X49704565Y-31125280D01*
X49704565Y-30887184D01*
X48799804Y-31839565D02*
X48752185Y-31887184D01*
X48704565Y-31982422D01*
X48704565Y-32220518D01*
X48752185Y-32315756D01*
X48799804Y-32363375D01*
X48895042Y-32410994D01*
X48990280Y-32410994D01*
X49133137Y-32363375D01*
X49704565Y-31791946D01*
X49704565Y-32410994D01*
X278304565Y-30410994D02*
X277304565Y-30410994D01*
X277304565Y-30649089D01*
X277352185Y-30791946D01*
X277447423Y-30887184D01*
X277542661Y-30934803D01*
X277733137Y-30982422D01*
X277875994Y-30982422D01*
X278066470Y-30934803D01*
X278161708Y-30887184D01*
X278256946Y-30791946D01*
X278304565Y-30649089D01*
X278304565Y-30410994D01*
X278304565Y-31934803D02*
X278304565Y-31363375D01*
X278304565Y-31649089D02*
X277304565Y-31649089D01*
X277447423Y-31553851D01*
X277542661Y-31458613D01*
X277590280Y-31363375D01*
X277637899Y-32791946D02*
X278304565Y-32791946D01*
X277256946Y-32553851D02*
X277971232Y-32315756D01*
X277971232Y-32934803D01*
X225417214Y-28646410D02*
X225417214Y-27646410D01*
X225417214Y-28122601D02*
X224845786Y-28122601D01*
X224845786Y-28646410D02*
X224845786Y-27646410D01*
X223893405Y-27646410D02*
X224369595Y-27646410D01*
X224417214Y-28122601D01*
X224369595Y-28074982D01*
X224274357Y-28027363D01*
X224036262Y-28027363D01*
X223941024Y-28074982D01*
X223893405Y-28122601D01*
X223845786Y-28217839D01*
X223845786Y-28455934D01*
X223893405Y-28551172D01*
X223941024Y-28598791D01*
X224036262Y-28646410D01*
X224274357Y-28646410D01*
X224369595Y-28598791D01*
X224417214Y-28551172D01*
X180673315Y-43648494D02*
X179673315Y-43648494D01*
X179673315Y-43886589D01*
X179720935Y-44029446D01*
X179816173Y-44124684D01*
X179911411Y-44172303D01*
X180101887Y-44219922D01*
X180244744Y-44219922D01*
X180435220Y-44172303D01*
X180530458Y-44124684D01*
X180625696Y-44029446D01*
X180673315Y-43886589D01*
X180673315Y-43648494D01*
X180673315Y-45172303D02*
X180673315Y-44600875D01*
X180673315Y-44886589D02*
X179673315Y-44886589D01*
X179816173Y-44791351D01*
X179911411Y-44696113D01*
X179959030Y-44600875D01*
X180673315Y-45648494D02*
X180673315Y-45838970D01*
X180625696Y-45934208D01*
X180578077Y-45981827D01*
X180435220Y-46077065D01*
X180244744Y-46124684D01*
X179863792Y-46124684D01*
X179768554Y-46077065D01*
X179720935Y-46029446D01*
X179673315Y-45934208D01*
X179673315Y-45743732D01*
X179720935Y-45648494D01*
X179768554Y-45600875D01*
X179863792Y-45553256D01*
X180101887Y-45553256D01*
X180197125Y-45600875D01*
X180244744Y-45648494D01*
X180292363Y-45743732D01*
X180292363Y-45934208D01*
X180244744Y-46029446D01*
X180197125Y-46077065D01*
X180101887Y-46124684D01*
X142573315Y-43648494D02*
X141573315Y-43648494D01*
X141573315Y-43886589D01*
X141620935Y-44029446D01*
X141716173Y-44124684D01*
X141811411Y-44172303D01*
X142001887Y-44219922D01*
X142144744Y-44219922D01*
X142335220Y-44172303D01*
X142430458Y-44124684D01*
X142525696Y-44029446D01*
X142573315Y-43886589D01*
X142573315Y-43648494D01*
X142573315Y-45172303D02*
X142573315Y-44600875D01*
X142573315Y-44886589D02*
X141573315Y-44886589D01*
X141716173Y-44791351D01*
X141811411Y-44696113D01*
X141859030Y-44600875D01*
X141573315Y-45505637D02*
X141573315Y-46172303D01*
X142573315Y-45743732D01*
X167838643Y-30027660D02*
X167838643Y-30741946D01*
X167886262Y-30884803D01*
X167981500Y-30980041D01*
X168124357Y-31027660D01*
X168219595Y-31027660D01*
X166838643Y-31027660D02*
X167410071Y-31027660D01*
X167124357Y-31027660D02*
X167124357Y-30027660D01*
X167219595Y-30170518D01*
X167314833Y-30265756D01*
X167410071Y-30313375D01*
X38155458Y-30885101D02*
X37822125Y-30885101D01*
X37679268Y-31408910D02*
X38155458Y-31408910D01*
X38155458Y-30408910D01*
X37679268Y-30408910D01*
X37345935Y-30408910D02*
X36679268Y-31408910D01*
X36679268Y-30408910D02*
X37345935Y-31408910D01*
X36441173Y-30408910D02*
X35869744Y-30408910D01*
X36155458Y-31408910D02*
X36155458Y-30408910D01*
X35774506Y-31504149D02*
X35012601Y-31504149D01*
X34917363Y-30408910D02*
X34345935Y-30408910D01*
X34631649Y-31408910D02*
X34631649Y-30408910D01*
X33441173Y-31408910D02*
X33774506Y-30932720D01*
X34012601Y-31408910D02*
X34012601Y-30408910D01*
X33631649Y-30408910D01*
X33536411Y-30456530D01*
X33488792Y-30504149D01*
X33441173Y-30599387D01*
X33441173Y-30742244D01*
X33488792Y-30837482D01*
X33536411Y-30885101D01*
X33631649Y-30932720D01*
X34012601Y-30932720D01*
X32822125Y-30408910D02*
X32726887Y-30408910D01*
X32631649Y-30456530D01*
X32584030Y-30504149D01*
X32536411Y-30599387D01*
X32488792Y-30789863D01*
X32488792Y-31027958D01*
X32536411Y-31218434D01*
X32584030Y-31313672D01*
X32631649Y-31361291D01*
X32726887Y-31408910D01*
X32822125Y-31408910D01*
X32917363Y-31361291D01*
X32964982Y-31313672D01*
X33012601Y-31218434D01*
X33060220Y-31027958D01*
X33060220Y-30789863D01*
X33012601Y-30599387D01*
X32964982Y-30504149D01*
X32917363Y-30456530D01*
X32822125Y-30408910D01*
X38155458Y-18978851D02*
X37822125Y-18978851D01*
X37679268Y-19502660D02*
X38155458Y-19502660D01*
X38155458Y-18502660D01*
X37679268Y-18502660D01*
X37345935Y-18502660D02*
X36679268Y-19502660D01*
X36679268Y-18502660D02*
X37345935Y-19502660D01*
X36441173Y-18502660D02*
X35869744Y-18502660D01*
X36155458Y-19502660D02*
X36155458Y-18502660D01*
X35774506Y-19597899D02*
X35012601Y-19597899D01*
X34917363Y-18502660D02*
X34345935Y-18502660D01*
X34631649Y-19502660D02*
X34631649Y-18502660D01*
X33441173Y-19407422D02*
X33488792Y-19455041D01*
X33631649Y-19502660D01*
X33726887Y-19502660D01*
X33869744Y-19455041D01*
X33964982Y-19359803D01*
X34012601Y-19264565D01*
X34060220Y-19074089D01*
X34060220Y-18931232D01*
X34012601Y-18740756D01*
X33964982Y-18645518D01*
X33869744Y-18550280D01*
X33726887Y-18502660D01*
X33631649Y-18502660D01*
X33488792Y-18550280D01*
X33441173Y-18597899D01*
X32822125Y-18502660D02*
X32726887Y-18502660D01*
X32631649Y-18550280D01*
X32584030Y-18597899D01*
X32536411Y-18693137D01*
X32488792Y-18883613D01*
X32488792Y-19121708D01*
X32536411Y-19312184D01*
X32584030Y-19407422D01*
X32631649Y-19455041D01*
X32726887Y-19502660D01*
X32822125Y-19502660D01*
X32917363Y-19455041D01*
X32964982Y-19407422D01*
X33012601Y-19312184D01*
X33060220Y-19121708D01*
X33060220Y-18883613D01*
X33012601Y-18693137D01*
X32964982Y-18597899D01*
X32917363Y-18550280D01*
X32822125Y-18502660D01*
X152455458Y-18978851D02*
X152122125Y-18978851D01*
X151979268Y-19502660D02*
X152455458Y-19502660D01*
X152455458Y-18502660D01*
X151979268Y-18502660D01*
X151645935Y-18502660D02*
X150979268Y-19502660D01*
X150979268Y-18502660D02*
X151645935Y-19502660D01*
X150741173Y-18502660D02*
X150169744Y-18502660D01*
X150455458Y-19502660D02*
X150455458Y-18502660D01*
X150074506Y-19597899D02*
X149312601Y-19597899D01*
X149217363Y-18502660D02*
X148645935Y-18502660D01*
X148931649Y-19502660D02*
X148931649Y-18502660D01*
X147741173Y-19407422D02*
X147788792Y-19455041D01*
X147931649Y-19502660D01*
X148026887Y-19502660D01*
X148169744Y-19455041D01*
X148264982Y-19359803D01*
X148312601Y-19264565D01*
X148360220Y-19074089D01*
X148360220Y-18931232D01*
X148312601Y-18740756D01*
X148264982Y-18645518D01*
X148169744Y-18550280D01*
X148026887Y-18502660D01*
X147931649Y-18502660D01*
X147788792Y-18550280D01*
X147741173Y-18597899D01*
X147407839Y-18502660D02*
X146788792Y-18502660D01*
X147122125Y-18883613D01*
X146979268Y-18883613D01*
X146884030Y-18931232D01*
X146836411Y-18978851D01*
X146788792Y-19074089D01*
X146788792Y-19312184D01*
X146836411Y-19407422D01*
X146884030Y-19455041D01*
X146979268Y-19502660D01*
X147264982Y-19502660D01*
X147360220Y-19455041D01*
X147407839Y-19407422D01*
X76255458Y-18988226D02*
X75922125Y-18988226D01*
X75779268Y-19512035D02*
X76255458Y-19512035D01*
X76255458Y-18512035D01*
X75779268Y-18512035D01*
X75445935Y-18512035D02*
X74779268Y-19512035D01*
X74779268Y-18512035D02*
X75445935Y-19512035D01*
X74541173Y-18512035D02*
X73969744Y-18512035D01*
X74255458Y-19512035D02*
X74255458Y-18512035D01*
X73874506Y-19607274D02*
X73112601Y-19607274D01*
X73017363Y-18512035D02*
X72445935Y-18512035D01*
X72731649Y-19512035D02*
X72731649Y-18512035D01*
X71541173Y-19416797D02*
X71588792Y-19464416D01*
X71731649Y-19512035D01*
X71826887Y-19512035D01*
X71969744Y-19464416D01*
X72064982Y-19369178D01*
X72112601Y-19273940D01*
X72160220Y-19083464D01*
X72160220Y-18940607D01*
X72112601Y-18750131D01*
X72064982Y-18654893D01*
X71969744Y-18559655D01*
X71826887Y-18512035D01*
X71731649Y-18512035D01*
X71588792Y-18559655D01*
X71541173Y-18607274D01*
X70588792Y-19512035D02*
X71160220Y-19512035D01*
X70874506Y-19512035D02*
X70874506Y-18512035D01*
X70969744Y-18654893D01*
X71064982Y-18750131D01*
X71160220Y-18797750D01*
X169124208Y-18931976D02*
X168790875Y-18931976D01*
X168648018Y-19455785D02*
X169124208Y-19455785D01*
X169124208Y-18455785D01*
X168648018Y-18455785D01*
X168314685Y-18455785D02*
X167648018Y-19455785D01*
X167648018Y-18455785D02*
X168314685Y-19455785D01*
X167409923Y-18455785D02*
X166838494Y-18455785D01*
X167124208Y-19455785D02*
X167124208Y-18455785D01*
X166743256Y-19551024D02*
X165981351Y-19551024D01*
X165886113Y-18455785D02*
X165314685Y-18455785D01*
X165600399Y-19455785D02*
X165600399Y-18455785D01*
X164409923Y-19360547D02*
X164457542Y-19408166D01*
X164600399Y-19455785D01*
X164695637Y-19455785D01*
X164838494Y-19408166D01*
X164933732Y-19312928D01*
X164981351Y-19217690D01*
X165028970Y-19027214D01*
X165028970Y-18884357D01*
X164981351Y-18693881D01*
X164933732Y-18598643D01*
X164838494Y-18503405D01*
X164695637Y-18455785D01*
X164600399Y-18455785D01*
X164457542Y-18503405D01*
X164409923Y-18551024D01*
X163552780Y-18789119D02*
X163552780Y-19455785D01*
X163790875Y-18408166D02*
X164028970Y-19122452D01*
X163409923Y-19122452D01*
X34917214Y-28646410D02*
X34917214Y-27646410D01*
X34917214Y-28122601D02*
X34345786Y-28122601D01*
X34345786Y-28646410D02*
X34345786Y-27646410D01*
X33964833Y-27646410D02*
X33345786Y-27646410D01*
X33679119Y-28027363D01*
X33536262Y-28027363D01*
X33441024Y-28074982D01*
X33393405Y-28122601D01*
X33345786Y-28217839D01*
X33345786Y-28455934D01*
X33393405Y-28551172D01*
X33441024Y-28598791D01*
X33536262Y-28646410D01*
X33821976Y-28646410D01*
X33917214Y-28598791D01*
X33964833Y-28551172D01*
X152455458Y-34456976D02*
X152122125Y-34456976D01*
X151979268Y-34980785D02*
X152455458Y-34980785D01*
X152455458Y-33980785D01*
X151979268Y-33980785D01*
X151645935Y-33980785D02*
X150979268Y-34980785D01*
X150979268Y-33980785D02*
X151645935Y-34980785D01*
X150741173Y-33980785D02*
X150169744Y-33980785D01*
X150455458Y-34980785D02*
X150455458Y-33980785D01*
X150074506Y-35076024D02*
X149312601Y-35076024D01*
X149217363Y-33980785D02*
X148645935Y-33980785D01*
X148931649Y-34980785D02*
X148931649Y-33980785D01*
X147741173Y-34980785D02*
X148074506Y-34504595D01*
X148312601Y-34980785D02*
X148312601Y-33980785D01*
X147931649Y-33980785D01*
X147836411Y-34028405D01*
X147788792Y-34076024D01*
X147741173Y-34171262D01*
X147741173Y-34314119D01*
X147788792Y-34409357D01*
X147836411Y-34456976D01*
X147931649Y-34504595D01*
X148312601Y-34504595D01*
X146788792Y-34980785D02*
X147360220Y-34980785D01*
X147074506Y-34980785D02*
X147074506Y-33980785D01*
X147169744Y-34123643D01*
X147264982Y-34218881D01*
X147360220Y-34266500D01*
X187317214Y-21014035D02*
X187317214Y-20014035D01*
X187317214Y-20490226D02*
X186745786Y-20490226D01*
X186745786Y-21014035D02*
X186745786Y-20014035D01*
X186317214Y-20109274D02*
X186269595Y-20061655D01*
X186174357Y-20014035D01*
X185936262Y-20014035D01*
X185841024Y-20061655D01*
X185793405Y-20109274D01*
X185745786Y-20204512D01*
X185745786Y-20299750D01*
X185793405Y-20442607D01*
X186364833Y-21014035D01*
X185745786Y-21014035D01*
X221154565Y-29360994D02*
X220154565Y-29360994D01*
X220154565Y-29599089D01*
X220202185Y-29741946D01*
X220297423Y-29837184D01*
X220392661Y-29884803D01*
X220583137Y-29932422D01*
X220725994Y-29932422D01*
X220916470Y-29884803D01*
X221011708Y-29837184D01*
X221106946Y-29741946D01*
X221154565Y-29599089D01*
X221154565Y-29360994D01*
X221154565Y-30884803D02*
X221154565Y-30313375D01*
X221154565Y-30599089D02*
X220154565Y-30599089D01*
X220297423Y-30503851D01*
X220392661Y-30408613D01*
X220440280Y-30313375D01*
X221154565Y-31837184D02*
X221154565Y-31265756D01*
X221154565Y-31551470D02*
X220154565Y-31551470D01*
X220297423Y-31456232D01*
X220392661Y-31360994D01*
X220440280Y-31265756D01*
X226274208Y-18978851D02*
X225940875Y-18978851D01*
X225798018Y-19502660D02*
X226274208Y-19502660D01*
X226274208Y-18502660D01*
X225798018Y-18502660D01*
X225464685Y-18502660D02*
X224798018Y-19502660D01*
X224798018Y-18502660D02*
X225464685Y-19502660D01*
X224559923Y-18502660D02*
X223988494Y-18502660D01*
X224274208Y-19502660D02*
X224274208Y-18502660D01*
X223893256Y-19597899D02*
X223131351Y-19597899D01*
X223036113Y-18502660D02*
X222464685Y-18502660D01*
X222750399Y-19502660D02*
X222750399Y-18502660D01*
X221559923Y-19407422D02*
X221607542Y-19455041D01*
X221750399Y-19502660D01*
X221845637Y-19502660D01*
X221988494Y-19455041D01*
X222083732Y-19359803D01*
X222131351Y-19264565D01*
X222178970Y-19074089D01*
X222178970Y-18931232D01*
X222131351Y-18740756D01*
X222083732Y-18645518D01*
X221988494Y-18550280D01*
X221845637Y-18502660D01*
X221750399Y-18502660D01*
X221607542Y-18550280D01*
X221559923Y-18597899D01*
X220655161Y-18502660D02*
X221131351Y-18502660D01*
X221178970Y-18978851D01*
X221131351Y-18931232D01*
X221036113Y-18883613D01*
X220798018Y-18883613D01*
X220702780Y-18931232D01*
X220655161Y-18978851D01*
X220607542Y-19074089D01*
X220607542Y-19312184D01*
X220655161Y-19407422D01*
X220702780Y-19455041D01*
X220798018Y-19502660D01*
X221036113Y-19502660D01*
X221131351Y-19455041D01*
X221178970Y-19407422D01*
X164004565Y-29837184D02*
X163004565Y-29837184D01*
X163004565Y-30075280D01*
X163052185Y-30218137D01*
X163147423Y-30313375D01*
X163242661Y-30360994D01*
X163433137Y-30408613D01*
X163575994Y-30408613D01*
X163766470Y-30360994D01*
X163861708Y-30313375D01*
X163956946Y-30218137D01*
X164004565Y-30075280D01*
X164004565Y-29837184D01*
X164004565Y-30884803D02*
X164004565Y-31075280D01*
X163956946Y-31170518D01*
X163909327Y-31218137D01*
X163766470Y-31313375D01*
X163575994Y-31360994D01*
X163195042Y-31360994D01*
X163099804Y-31313375D01*
X163052185Y-31265756D01*
X163004565Y-31170518D01*
X163004565Y-30980041D01*
X163052185Y-30884803D01*
X163099804Y-30837184D01*
X163195042Y-30789565D01*
X163433137Y-30789565D01*
X163528375Y-30837184D01*
X163575994Y-30884803D01*
X163623613Y-30980041D01*
X163623613Y-31170518D01*
X163575994Y-31265756D01*
X163528375Y-31313375D01*
X163433137Y-31360994D01*
X177792214Y-52458910D02*
X177792214Y-51458910D01*
X177792214Y-51935101D02*
X177220786Y-51935101D01*
X177220786Y-52458910D02*
X177220786Y-51458910D01*
X176601738Y-51887482D02*
X176696976Y-51839863D01*
X176744595Y-51792244D01*
X176792214Y-51697006D01*
X176792214Y-51649387D01*
X176744595Y-51554149D01*
X176696976Y-51506530D01*
X176601738Y-51458910D01*
X176411262Y-51458910D01*
X176316024Y-51506530D01*
X176268405Y-51554149D01*
X176220786Y-51649387D01*
X176220786Y-51697006D01*
X176268405Y-51792244D01*
X176316024Y-51839863D01*
X176411262Y-51887482D01*
X176601738Y-51887482D01*
X176696976Y-51935101D01*
X176744595Y-51982720D01*
X176792214Y-52077958D01*
X176792214Y-52268434D01*
X176744595Y-52363672D01*
X176696976Y-52411291D01*
X176601738Y-52458910D01*
X176411262Y-52458910D01*
X176316024Y-52411291D01*
X176268405Y-52363672D01*
X176220786Y-52268434D01*
X176220786Y-52077958D01*
X176268405Y-51982720D01*
X176316024Y-51935101D01*
X176411262Y-51887482D01*
X92067214Y-28646410D02*
X92067214Y-27646410D01*
X92067214Y-28122601D02*
X91495786Y-28122601D01*
X91495786Y-28646410D02*
X91495786Y-27646410D01*
X90591024Y-27979744D02*
X90591024Y-28646410D01*
X90829119Y-27598791D02*
X91067214Y-28313077D01*
X90448167Y-28313077D01*
X139692214Y-52458910D02*
X139692214Y-51458910D01*
X139692214Y-51935101D02*
X139120786Y-51935101D01*
X139120786Y-52458910D02*
X139120786Y-51458910D01*
X138739833Y-51458910D02*
X138073167Y-51458910D01*
X138501738Y-52458910D01*
X130167214Y-21014035D02*
X130167214Y-20014035D01*
X130167214Y-20490226D02*
X129595786Y-20490226D01*
X129595786Y-21014035D02*
X129595786Y-20014035D01*
X128595786Y-21014035D02*
X129167214Y-21014035D01*
X128881500Y-21014035D02*
X128881500Y-20014035D01*
X128976738Y-20156893D01*
X129071976Y-20252131D01*
X129167214Y-20299750D01*
X202104565Y-30414994D02*
X201104565Y-30414994D01*
X201104565Y-30653089D01*
X201152185Y-30795946D01*
X201247423Y-30891184D01*
X201342661Y-30938803D01*
X201533137Y-30986422D01*
X201675994Y-30986422D01*
X201866470Y-30938803D01*
X201961708Y-30891184D01*
X202056946Y-30795946D01*
X202104565Y-30653089D01*
X202104565Y-30414994D01*
X202104565Y-31938803D02*
X202104565Y-31367375D01*
X202104565Y-31653089D02*
X201104565Y-31653089D01*
X201247423Y-31557851D01*
X201342661Y-31462613D01*
X201390280Y-31367375D01*
X201104565Y-32557851D02*
X201104565Y-32653089D01*
X201152185Y-32748327D01*
X201199804Y-32795946D01*
X201295042Y-32843565D01*
X201485518Y-32891184D01*
X201723613Y-32891184D01*
X201914089Y-32843565D01*
X202009327Y-32795946D01*
X202056946Y-32748327D01*
X202104565Y-32653089D01*
X202104565Y-32557851D01*
X202056946Y-32462613D01*
X202009327Y-32414994D01*
X201914089Y-32367375D01*
X201723613Y-32319756D01*
X201485518Y-32319756D01*
X201295042Y-32367375D01*
X201199804Y-32414994D01*
X201152185Y-32462613D01*
X201104565Y-32557851D01*
X131238940Y-32670071D02*
X131953226Y-32670071D01*
X132096083Y-32622452D01*
X132191321Y-32527214D01*
X132238940Y-32384357D01*
X132238940Y-32289119D01*
X131334179Y-33098643D02*
X131286560Y-33146262D01*
X131238940Y-33241500D01*
X131238940Y-33479595D01*
X131286560Y-33574833D01*
X131334179Y-33622452D01*
X131429417Y-33670071D01*
X131524655Y-33670071D01*
X131667512Y-33622452D01*
X132238940Y-33051024D01*
X132238940Y-33670071D01*
X282567214Y-28646410D02*
X282567214Y-27646410D01*
X282567214Y-28122601D02*
X281995786Y-28122601D01*
X281995786Y-28646410D02*
X281995786Y-27646410D01*
X281091024Y-27646410D02*
X281281500Y-27646410D01*
X281376738Y-27694030D01*
X281424357Y-27741649D01*
X281519595Y-27884506D01*
X281567214Y-28074982D01*
X281567214Y-28455934D01*
X281519595Y-28551172D01*
X281471976Y-28598791D01*
X281376738Y-28646410D01*
X281186262Y-28646410D01*
X281091024Y-28598791D01*
X281043405Y-28551172D01*
X280995786Y-28455934D01*
X280995786Y-28217839D01*
X281043405Y-28122601D01*
X281091024Y-28074982D01*
X281186262Y-28027363D01*
X281376738Y-28027363D01*
X281471976Y-28074982D01*
X281519595Y-28122601D01*
X281567214Y-28217839D01*
X283424208Y-18978851D02*
X283090875Y-18978851D01*
X282948018Y-19502660D02*
X283424208Y-19502660D01*
X283424208Y-18502660D01*
X282948018Y-18502660D01*
X282614685Y-18502660D02*
X281948018Y-19502660D01*
X281948018Y-18502660D02*
X282614685Y-19502660D01*
X281709923Y-18502660D02*
X281138494Y-18502660D01*
X281424208Y-19502660D02*
X281424208Y-18502660D01*
X281043256Y-19597899D02*
X280281351Y-19597899D01*
X280186113Y-18502660D02*
X279614685Y-18502660D01*
X279900399Y-19502660D02*
X279900399Y-18502660D01*
X278709923Y-19407422D02*
X278757542Y-19455041D01*
X278900399Y-19502660D01*
X278995637Y-19502660D01*
X279138494Y-19455041D01*
X279233732Y-19359803D01*
X279281351Y-19264565D01*
X279328970Y-19074089D01*
X279328970Y-18931232D01*
X279281351Y-18740756D01*
X279233732Y-18645518D01*
X279138494Y-18550280D01*
X278995637Y-18502660D01*
X278900399Y-18502660D01*
X278757542Y-18550280D01*
X278709923Y-18597899D01*
X278376589Y-18502660D02*
X277709923Y-18502660D01*
X278138494Y-19502660D01*
X95305458Y-18978851D02*
X94972125Y-18978851D01*
X94829268Y-19502660D02*
X95305458Y-19502660D01*
X95305458Y-18502660D01*
X94829268Y-18502660D01*
X94495935Y-18502660D02*
X93829268Y-19502660D01*
X93829268Y-18502660D02*
X94495935Y-19502660D01*
X93591173Y-18502660D02*
X93019744Y-18502660D01*
X93305458Y-19502660D02*
X93305458Y-18502660D01*
X92924506Y-19597899D02*
X92162601Y-19597899D01*
X92067363Y-18502660D02*
X91495935Y-18502660D01*
X91781649Y-19502660D02*
X91781649Y-18502660D01*
X90591173Y-19407422D02*
X90638792Y-19455041D01*
X90781649Y-19502660D01*
X90876887Y-19502660D01*
X91019744Y-19455041D01*
X91114982Y-19359803D01*
X91162601Y-19264565D01*
X91210220Y-19074089D01*
X91210220Y-18931232D01*
X91162601Y-18740756D01*
X91114982Y-18645518D01*
X91019744Y-18550280D01*
X90876887Y-18502660D01*
X90781649Y-18502660D01*
X90638792Y-18550280D01*
X90591173Y-18597899D01*
X90210220Y-18597899D02*
X90162601Y-18550280D01*
X90067363Y-18502660D01*
X89829268Y-18502660D01*
X89734030Y-18550280D01*
X89686411Y-18597899D01*
X89638792Y-18693137D01*
X89638792Y-18788375D01*
X89686411Y-18931232D01*
X90257839Y-19502660D01*
X89638792Y-19502660D01*
X148883583Y-34456976D02*
X148550250Y-34456976D01*
X148407393Y-34980785D02*
X148883583Y-34980785D01*
X148883583Y-33980785D01*
X148407393Y-33980785D01*
X148074060Y-33980785D02*
X147407393Y-34980785D01*
X147407393Y-33980785D02*
X148074060Y-34980785D01*
X147169298Y-33980785D02*
X146597869Y-33980785D01*
X146883583Y-34980785D02*
X146883583Y-33980785D01*
X146502631Y-35076024D02*
X145740726Y-35076024D01*
X145645488Y-33980785D02*
X145074060Y-33980785D01*
X145359774Y-34980785D02*
X145359774Y-33980785D01*
X144169298Y-34980785D02*
X144502631Y-34504595D01*
X144740726Y-34980785D02*
X144740726Y-33980785D01*
X144359774Y-33980785D01*
X144264536Y-34028405D01*
X144216917Y-34076024D01*
X144169298Y-34171262D01*
X144169298Y-34314119D01*
X144216917Y-34409357D01*
X144264536Y-34456976D01*
X144359774Y-34504595D01*
X144740726Y-34504595D01*
X143312155Y-33980785D02*
X143502631Y-33980785D01*
X143597869Y-34028405D01*
X143645488Y-34076024D01*
X143740726Y-34218881D01*
X143788345Y-34409357D01*
X143788345Y-34790309D01*
X143740726Y-34885547D01*
X143693107Y-34933166D01*
X143597869Y-34980785D01*
X143407393Y-34980785D01*
X143312155Y-34933166D01*
X143264536Y-34885547D01*
X143216917Y-34790309D01*
X143216917Y-34552214D01*
X143264536Y-34456976D01*
X143312155Y-34409357D01*
X143407393Y-34361738D01*
X143597869Y-34361738D01*
X143693107Y-34409357D01*
X143740726Y-34456976D01*
X143788345Y-34552214D01*
X57205458Y-18978851D02*
X56872125Y-18978851D01*
X56729268Y-19502660D02*
X57205458Y-19502660D01*
X57205458Y-18502660D01*
X56729268Y-18502660D01*
X56395935Y-18502660D02*
X55729268Y-19502660D01*
X55729268Y-18502660D02*
X56395935Y-19502660D01*
X55491173Y-18502660D02*
X54919744Y-18502660D01*
X55205458Y-19502660D02*
X55205458Y-18502660D01*
X54824506Y-19597899D02*
X54062601Y-19597899D01*
X53967363Y-18502660D02*
X53395935Y-18502660D01*
X53681649Y-19502660D02*
X53681649Y-18502660D01*
X52491173Y-19502660D02*
X52824506Y-19026470D01*
X53062601Y-19502660D02*
X53062601Y-18502660D01*
X52681649Y-18502660D01*
X52586411Y-18550280D01*
X52538792Y-18597899D01*
X52491173Y-18693137D01*
X52491173Y-18835994D01*
X52538792Y-18931232D01*
X52586411Y-18978851D01*
X52681649Y-19026470D01*
X53062601Y-19026470D01*
X51586411Y-18502660D02*
X52062601Y-18502660D01*
X52110220Y-18978851D01*
X52062601Y-18931232D01*
X51967363Y-18883613D01*
X51729268Y-18883613D01*
X51634030Y-18931232D01*
X51586411Y-18978851D01*
X51538792Y-19074089D01*
X51538792Y-19312184D01*
X51586411Y-19407422D01*
X51634030Y-19455041D01*
X51729268Y-19502660D01*
X51967363Y-19502660D01*
X52062601Y-19455041D01*
X52110220Y-19407422D01*
X30654565Y-29837184D02*
X29654565Y-29837184D01*
X29654565Y-30075280D01*
X29702185Y-30218137D01*
X29797423Y-30313375D01*
X29892661Y-30360994D01*
X30083137Y-30408613D01*
X30225994Y-30408613D01*
X30416470Y-30360994D01*
X30511708Y-30313375D01*
X30606946Y-30218137D01*
X30654565Y-30075280D01*
X30654565Y-29837184D01*
X30654565Y-31360994D02*
X30654565Y-30789565D01*
X30654565Y-31075280D02*
X29654565Y-31075280D01*
X29797423Y-30980041D01*
X29892661Y-30884803D01*
X29940280Y-30789565D01*
X178292065Y-44839119D02*
X177292065Y-44839119D01*
X177292065Y-45077214D01*
X177339685Y-45220071D01*
X177434923Y-45315309D01*
X177530161Y-45362928D01*
X177720637Y-45410547D01*
X177863494Y-45410547D01*
X178053970Y-45362928D01*
X178149208Y-45315309D01*
X178244446Y-45220071D01*
X178292065Y-45077214D01*
X178292065Y-44839119D01*
X178292065Y-46362928D02*
X178292065Y-45791500D01*
X178292065Y-46077214D02*
X177292065Y-46077214D01*
X177434923Y-45981976D01*
X177530161Y-45886738D01*
X177577780Y-45791500D01*
X177720637Y-46934357D02*
X177673018Y-46839119D01*
X177625399Y-46791500D01*
X177530161Y-46743881D01*
X177482542Y-46743881D01*
X177387304Y-46791500D01*
X177339685Y-46839119D01*
X177292065Y-46934357D01*
X177292065Y-47124833D01*
X177339685Y-47220071D01*
X177387304Y-47267690D01*
X177482542Y-47315309D01*
X177530161Y-47315309D01*
X177625399Y-47267690D01*
X177673018Y-47220071D01*
X177720637Y-47124833D01*
X177720637Y-46934357D01*
X177768256Y-46839119D01*
X177815875Y-46791500D01*
X177911113Y-46743881D01*
X178101589Y-46743881D01*
X178196827Y-46791500D01*
X178244446Y-46839119D01*
X178292065Y-46934357D01*
X178292065Y-47124833D01*
X178244446Y-47220071D01*
X178196827Y-47267690D01*
X178101589Y-47315309D01*
X177911113Y-47315309D01*
X177815875Y-47267690D01*
X177768256Y-47220071D01*
X177720637Y-47124833D01*
X148788643Y-30027660D02*
X148788643Y-30741946D01*
X148836262Y-30884803D01*
X148931500Y-30980041D01*
X149074357Y-31027660D01*
X149169595Y-31027660D01*
X148407690Y-30027660D02*
X147788643Y-30027660D01*
X148121976Y-30408613D01*
X147979119Y-30408613D01*
X147883881Y-30456232D01*
X147836262Y-30503851D01*
X147788643Y-30599089D01*
X147788643Y-30837184D01*
X147836262Y-30932422D01*
X147883881Y-30980041D01*
X147979119Y-31027660D01*
X148264833Y-31027660D01*
X148360071Y-30980041D01*
X148407690Y-30932422D01*
D11*
X86252185Y-30225280D02*
X84452185Y-30225280D01*
X84452185Y-33025280D02*
X86252185Y-33025280D01*
X85352185Y-31975280D02*
X85752185Y-31375280D01*
X85352185Y-31375280D02*
X85352185Y-30875280D01*
X85352185Y-31975280D02*
X84802185Y-31975280D01*
X85352185Y-32375280D02*
X85352185Y-31975280D01*
X86252185Y-33025280D02*
X86252185Y-30225280D01*
X84452185Y-30225280D02*
X84452185Y-33025280D01*
X85352185Y-31975280D02*
X85902185Y-31975280D01*
X84952185Y-31375280D02*
X85352185Y-31975280D01*
X85752185Y-31375280D02*
X84952185Y-31375280D01*
X294902185Y-30925280D02*
X294352185Y-30925280D01*
X294902185Y-31325280D02*
X294902185Y-30925280D01*
X294002185Y-31975280D02*
X295802185Y-31975280D01*
X295302185Y-30325280D02*
X294502185Y-30325280D01*
X294502185Y-30325280D02*
X294902185Y-30925280D01*
X294002185Y-29175280D02*
X294002185Y-31975280D01*
X295802185Y-29175280D02*
X294002185Y-29175280D01*
X294902185Y-30325280D02*
X294902185Y-29825280D01*
X294902185Y-30925280D02*
X295302185Y-30325280D01*
X294902185Y-30925280D02*
X295452185Y-30925280D01*
X295802185Y-31975280D02*
X295802185Y-29175280D01*
X236852185Y-33029280D02*
X238652185Y-33029280D01*
X237352185Y-31379280D02*
X237752185Y-31979280D01*
X238152185Y-31379280D02*
X237352185Y-31379280D01*
X238652185Y-30229280D02*
X236852185Y-30229280D01*
X236852185Y-30229280D02*
X236852185Y-33029280D01*
X237752185Y-32379280D02*
X237752185Y-31979280D01*
X237752185Y-31979280D02*
X238152185Y-31379280D01*
X237752185Y-31979280D02*
X238302185Y-31979280D01*
X237752185Y-31379280D02*
X237752185Y-30879280D01*
X237752185Y-31979280D02*
X237202185Y-31979280D01*
X238652185Y-33029280D02*
X238652185Y-30229280D01*
X65402185Y-29175280D02*
X65402185Y-31975280D01*
X66302185Y-31325280D02*
X66302185Y-30925280D01*
X67202185Y-31975280D02*
X67202185Y-29175280D01*
X65902185Y-30325280D02*
X66302185Y-30925280D01*
X66702185Y-30325280D02*
X65902185Y-30325280D01*
X66302185Y-30925280D02*
X65752185Y-30925280D01*
X66302185Y-30325280D02*
X66302185Y-29825280D01*
X66302185Y-30925280D02*
X66852185Y-30925280D01*
X66302185Y-30925280D02*
X66702185Y-30325280D01*
X67202185Y-29175280D02*
X65402185Y-29175280D01*
X65402185Y-31975280D02*
X67202185Y-31975280D01*
X122552185Y-33029280D02*
X124352185Y-33029280D01*
X124352185Y-33029280D02*
X124352185Y-30229280D01*
X123452185Y-31979280D02*
X122902185Y-31979280D01*
X123052185Y-31379280D02*
X123452185Y-31979280D01*
X122552185Y-30229280D02*
X122552185Y-33029280D01*
X124352185Y-30229280D02*
X122552185Y-30229280D01*
X123452185Y-31979280D02*
X124002185Y-31979280D01*
X123852185Y-31379280D02*
X123052185Y-31379280D01*
X123452185Y-31379280D02*
X123452185Y-30879280D01*
X123452185Y-32379280D02*
X123452185Y-31979280D01*
X123452185Y-31979280D02*
X123852185Y-31379280D01*
X104002185Y-30325280D02*
X104402185Y-30925280D01*
X105302185Y-31975280D02*
X105302185Y-29175280D01*
X104802185Y-30325280D02*
X104002185Y-30325280D01*
X104402185Y-30925280D02*
X103852185Y-30925280D01*
X104402185Y-30925280D02*
X104802185Y-30325280D01*
X105302185Y-29175280D02*
X103502185Y-29175280D01*
X104402185Y-30325280D02*
X104402185Y-29825280D01*
X104402185Y-31325280D02*
X104402185Y-30925280D01*
X104402185Y-30925280D02*
X104952185Y-30925280D01*
X103502185Y-31975280D02*
X105302185Y-31975280D01*
X103502185Y-29175280D02*
X103502185Y-31975280D01*
X142502185Y-30225280D02*
X142502185Y-29725280D01*
X143402185Y-29075280D02*
X141602185Y-29075280D01*
X142502185Y-30825280D02*
X143052185Y-30825280D01*
X142502185Y-30825280D02*
X142902185Y-30225280D01*
X142102185Y-30225280D02*
X142502185Y-30825280D01*
X143402185Y-31875280D02*
X143402185Y-29075280D01*
X141602185Y-29075280D02*
X141602185Y-31875280D01*
X142502185Y-31225280D02*
X142502185Y-30825280D01*
X142502185Y-30825280D02*
X141952185Y-30825280D01*
X142902185Y-30225280D02*
X142102185Y-30225280D01*
X141602185Y-31875280D02*
X143402185Y-31875280D01*
X257702185Y-31975280D02*
X257702185Y-29175280D01*
X256802185Y-31325280D02*
X256802185Y-30925280D01*
X256402185Y-30325280D02*
X256802185Y-30925280D01*
X255902185Y-31975280D02*
X257702185Y-31975280D01*
X257202185Y-30325280D02*
X256402185Y-30325280D01*
X256802185Y-30325280D02*
X256802185Y-29825280D01*
X255902185Y-29175280D02*
X255902185Y-31975280D01*
X256802185Y-30925280D02*
X257352185Y-30925280D01*
X256802185Y-30925280D02*
X257202185Y-30325280D01*
X256802185Y-30925280D02*
X256252185Y-30925280D01*
X257702185Y-29175280D02*
X255902185Y-29175280D01*
X137739685Y-46403405D02*
X138139685Y-45803405D01*
X136839685Y-44653405D02*
X136839685Y-47453405D01*
X138639685Y-47453405D02*
X138639685Y-44653405D01*
X137739685Y-45803405D02*
X137739685Y-45303405D01*
X137339685Y-45803405D02*
X137739685Y-46403405D01*
X138139685Y-45803405D02*
X137339685Y-45803405D01*
X136839685Y-47453405D02*
X138639685Y-47453405D01*
X137739685Y-46803405D02*
X137739685Y-46403405D01*
X137739685Y-46403405D02*
X137189685Y-46403405D01*
X137739685Y-46403405D02*
X138289685Y-46403405D01*
X138639685Y-44653405D02*
X136839685Y-44653405D01*
X179702185Y-31975280D02*
X181502185Y-31975280D01*
X181002185Y-30325280D02*
X180202185Y-30325280D01*
X180602185Y-31325280D02*
X180602185Y-30925280D01*
X180602185Y-30925280D02*
X180052185Y-30925280D01*
X179702185Y-29175280D02*
X179702185Y-31975280D01*
X180602185Y-30325280D02*
X180602185Y-29825280D01*
X180602185Y-30925280D02*
X181152185Y-30925280D01*
X181502185Y-31975280D02*
X181502185Y-29175280D01*
X180602185Y-30925280D02*
X181002185Y-30325280D01*
X180202185Y-30325280D02*
X180602185Y-30925280D01*
X181502185Y-29175280D02*
X179702185Y-29175280D01*
X47252185Y-31975280D02*
X47802185Y-31975280D01*
X47652185Y-31375280D02*
X46852185Y-31375280D01*
X48152185Y-33025280D02*
X48152185Y-30225280D01*
X46352185Y-33025280D02*
X48152185Y-33025280D01*
X47252185Y-32375280D02*
X47252185Y-31975280D01*
X46352185Y-30225280D02*
X46352185Y-33025280D01*
X47252185Y-31375280D02*
X47252185Y-30875280D01*
X47252185Y-31975280D02*
X47652185Y-31375280D01*
X47252185Y-31975280D02*
X46702185Y-31975280D01*
X48152185Y-30225280D02*
X46352185Y-30225280D01*
X46852185Y-31375280D02*
X47252185Y-31975280D01*
X275852185Y-31975280D02*
X275302185Y-31975280D01*
X275852185Y-31975280D02*
X276402185Y-31975280D01*
X274952185Y-33025280D02*
X276752185Y-33025280D01*
X275852185Y-31375280D02*
X275852185Y-30875280D01*
X276252185Y-31375280D02*
X275452185Y-31375280D01*
X276752185Y-33025280D02*
X276752185Y-30225280D01*
X276752185Y-30225280D02*
X274952185Y-30225280D01*
X275452185Y-31375280D02*
X275852185Y-31975280D01*
X275852185Y-31975280D02*
X276252185Y-31375280D01*
X274952185Y-30225280D02*
X274952185Y-33025280D01*
X275852185Y-32375280D02*
X275852185Y-31975280D01*
X178220935Y-44612780D02*
X178220935Y-44112780D01*
X178220935Y-45212780D02*
X178620935Y-44612780D01*
X178220935Y-45212780D02*
X178770935Y-45212780D01*
X177820935Y-44612780D02*
X178220935Y-45212780D01*
X178620935Y-44612780D02*
X177820935Y-44612780D01*
X178220935Y-45212780D02*
X177670935Y-45212780D01*
X178220935Y-45612780D02*
X178220935Y-45212780D01*
X177320935Y-46262780D02*
X179120935Y-46262780D01*
X179120935Y-43462780D02*
X177320935Y-43462780D01*
X179120935Y-46262780D02*
X179120935Y-43462780D01*
X177320935Y-43462780D02*
X177320935Y-46262780D01*
X141020935Y-43462780D02*
X139220935Y-43462780D01*
X140120935Y-45612780D02*
X140120935Y-45212780D01*
X140120935Y-44612780D02*
X140120935Y-44112780D01*
X141020935Y-46262780D02*
X141020935Y-43462780D01*
X139220935Y-43462780D02*
X139220935Y-46262780D01*
X139720935Y-44612780D02*
X140120935Y-45212780D01*
X140520935Y-44612780D02*
X139720935Y-44612780D01*
X139220935Y-46262780D02*
X141020935Y-46262780D01*
X140120935Y-45212780D02*
X140520935Y-44612780D01*
X140120935Y-45212780D02*
X139570935Y-45212780D01*
X140120935Y-45212780D02*
X140670935Y-45212780D01*
X170505310Y-28900280D02*
X164505310Y-28900280D01*
X170505310Y-33150280D02*
X164505310Y-33150280D01*
X169505310Y-28900280D02*
X169005310Y-29607387D01*
X164505310Y-28900280D02*
X164505310Y-33150280D01*
X170505310Y-28900280D02*
X170505310Y-33150280D01*
X169005310Y-29607387D02*
X168505310Y-28900280D01*
X218302185Y-30325280D02*
X218702185Y-30925280D01*
X218702185Y-30325280D02*
X218702185Y-29825280D01*
X217802185Y-31975280D02*
X219602185Y-31975280D01*
X218702185Y-30925280D02*
X219252185Y-30925280D01*
X218702185Y-31325280D02*
X218702185Y-30925280D01*
X219602185Y-31975280D02*
X219602185Y-29175280D01*
X219102185Y-30325280D02*
X218302185Y-30325280D01*
X219602185Y-29175280D02*
X217802185Y-29175280D01*
X218702185Y-30925280D02*
X219102185Y-30325280D01*
X218702185Y-30925280D02*
X218152185Y-30925280D01*
X217802185Y-29175280D02*
X217802185Y-31975280D01*
X161952185Y-30325280D02*
X161152185Y-30325280D01*
X161552185Y-30925280D02*
X161002185Y-30925280D01*
X162452185Y-31975280D02*
X162452185Y-29175280D01*
X161552185Y-30325280D02*
X161552185Y-29825280D01*
X161552185Y-30925280D02*
X161952185Y-30325280D01*
X161552185Y-31325280D02*
X161552185Y-30925280D01*
X160652185Y-29175280D02*
X160652185Y-31975280D01*
X162452185Y-29175280D02*
X160652185Y-29175280D01*
X161152185Y-30325280D02*
X161552185Y-30925280D01*
X161552185Y-30925280D02*
X162102185Y-30925280D01*
X160652185Y-31975280D02*
X162452185Y-31975280D01*
X199652185Y-31379280D02*
X199652185Y-30879280D01*
X198752185Y-30229280D02*
X198752185Y-33029280D01*
X198752185Y-33029280D02*
X200552185Y-33029280D01*
X200552185Y-30229280D02*
X198752185Y-30229280D01*
X199652185Y-31979280D02*
X200202185Y-31979280D01*
X199652185Y-32379280D02*
X199652185Y-31979280D01*
X200052185Y-31379280D02*
X199252185Y-31379280D01*
X200552185Y-33029280D02*
X200552185Y-30229280D01*
X199252185Y-31379280D02*
X199652185Y-31979280D01*
X199652185Y-31979280D02*
X199102185Y-31979280D01*
X199652185Y-31979280D02*
X200052185Y-31379280D01*
X130818667Y-31503405D02*
X130111560Y-32003405D01*
X130111560Y-30003405D02*
X130111560Y-36003405D01*
X130111560Y-36003405D02*
X134361560Y-36003405D01*
X130111560Y-31003405D02*
X130818667Y-31503405D01*
X130111560Y-30003405D02*
X134361560Y-30003405D01*
X134361560Y-30003405D02*
X134361560Y-36003405D01*
X29102185Y-29175280D02*
X27302185Y-29175280D01*
X28202185Y-31325280D02*
X28202185Y-30925280D01*
X27802185Y-30325280D02*
X28202185Y-30925280D01*
X27302185Y-29175280D02*
X27302185Y-31975280D01*
X28202185Y-30925280D02*
X28602185Y-30325280D01*
X28202185Y-30325280D02*
X28202185Y-29825280D01*
X28202185Y-30925280D02*
X27652185Y-30925280D01*
X28602185Y-30325280D02*
X27802185Y-30325280D01*
X29102185Y-31975280D02*
X29102185Y-29175280D01*
X28202185Y-30925280D02*
X28752185Y-30925280D01*
X27302185Y-31975280D02*
X29102185Y-31975280D01*
X176739685Y-47453405D02*
X176739685Y-44653405D01*
X176739685Y-44653405D02*
X174939685Y-44653405D01*
X175439685Y-45803405D02*
X175839685Y-46403405D01*
X176239685Y-45803405D02*
X175439685Y-45803405D01*
X174939685Y-44653405D02*
X174939685Y-47453405D01*
X175839685Y-45803405D02*
X175839685Y-45303405D01*
X175839685Y-46403405D02*
X176389685Y-46403405D01*
X174939685Y-47453405D02*
X176739685Y-47453405D01*
X175839685Y-46803405D02*
X175839685Y-46403405D01*
X175839685Y-46403405D02*
X176239685Y-45803405D01*
X175839685Y-46403405D02*
X175289685Y-46403405D01*
X145455310Y-28900280D02*
X145455310Y-33150280D01*
X150455310Y-28900280D02*
X149955310Y-29607387D01*
X149955310Y-29607387D02*
X149455310Y-28900280D01*
X151455310Y-28900280D02*
X151455310Y-33150280D01*
X151455310Y-33150280D02*
X145455310Y-33150280D01*
X151455310Y-28900280D02*
X145455310Y-28900280D01*
M02*
