G04 #@! TF.GenerationSoftware,KiCad,Pcbnew,7.0.1-0*
G04 #@! TF.CreationDate,2023-04-11T18:10:33+09:00*
G04 #@! TF.ProjectId,Sandy_Top_with_Plate_Mid,53616e64-795f-4546-9f70-5f776974685f,v.0*
G04 #@! TF.SameCoordinates,Original*
G04 #@! TF.FileFunction,AssemblyDrawing,Top*
%FSLAX46Y46*%
G04 Gerber Fmt 4.6, Leading zero omitted, Abs format (unit mm)*
G04 Created by KiCad (PCBNEW 7.0.1-0) date 2023-04-11 18:10:33*
%MOMM*%
%LPD*%
G01*
G04 APERTURE LIST*
%ADD10C,0.150000*%
G04 APERTURE END LIST*
D10*
X223893405Y-28656649D02*
X223893405Y-27656649D01*
X223893405Y-28132839D02*
X224464833Y-28132839D01*
X224464833Y-28656649D02*
X224464833Y-27656649D01*
X225417214Y-27656649D02*
X224941024Y-27656649D01*
X224941024Y-27656649D02*
X224893405Y-28132839D01*
X224893405Y-28132839D02*
X224941024Y-28085220D01*
X224941024Y-28085220D02*
X225036262Y-28037601D01*
X225036262Y-28037601D02*
X225274357Y-28037601D01*
X225274357Y-28037601D02*
X225369595Y-28085220D01*
X225369595Y-28085220D02*
X225417214Y-28132839D01*
X225417214Y-28132839D02*
X225464833Y-28228077D01*
X225464833Y-28228077D02*
X225464833Y-28466172D01*
X225464833Y-28466172D02*
X225417214Y-28561410D01*
X225417214Y-28561410D02*
X225369595Y-28609030D01*
X225369595Y-28609030D02*
X225274357Y-28656649D01*
X225274357Y-28656649D02*
X225036262Y-28656649D01*
X225036262Y-28656649D02*
X224941024Y-28609030D01*
X224941024Y-28609030D02*
X224893405Y-28561410D01*
X33393405Y-28656649D02*
X33393405Y-27656649D01*
X33393405Y-28132839D02*
X33964833Y-28132839D01*
X33964833Y-28656649D02*
X33964833Y-27656649D01*
X34345786Y-27656649D02*
X34964833Y-27656649D01*
X34964833Y-27656649D02*
X34631500Y-28037601D01*
X34631500Y-28037601D02*
X34774357Y-28037601D01*
X34774357Y-28037601D02*
X34869595Y-28085220D01*
X34869595Y-28085220D02*
X34917214Y-28132839D01*
X34917214Y-28132839D02*
X34964833Y-28228077D01*
X34964833Y-28228077D02*
X34964833Y-28466172D01*
X34964833Y-28466172D02*
X34917214Y-28561410D01*
X34917214Y-28561410D02*
X34869595Y-28609030D01*
X34869595Y-28609030D02*
X34774357Y-28656649D01*
X34774357Y-28656649D02*
X34488643Y-28656649D01*
X34488643Y-28656649D02*
X34393405Y-28609030D01*
X34393405Y-28609030D02*
X34345786Y-28561410D01*
X185793405Y-21024274D02*
X185793405Y-20024274D01*
X185793405Y-20500464D02*
X186364833Y-20500464D01*
X186364833Y-21024274D02*
X186364833Y-20024274D01*
X186793405Y-20119512D02*
X186841024Y-20071893D01*
X186841024Y-20071893D02*
X186936262Y-20024274D01*
X186936262Y-20024274D02*
X187174357Y-20024274D01*
X187174357Y-20024274D02*
X187269595Y-20071893D01*
X187269595Y-20071893D02*
X187317214Y-20119512D01*
X187317214Y-20119512D02*
X187364833Y-20214750D01*
X187364833Y-20214750D02*
X187364833Y-20309988D01*
X187364833Y-20309988D02*
X187317214Y-20452845D01*
X187317214Y-20452845D02*
X186745786Y-21024274D01*
X186745786Y-21024274D02*
X187364833Y-21024274D01*
X176268405Y-52469149D02*
X176268405Y-51469149D01*
X176268405Y-51945339D02*
X176839833Y-51945339D01*
X176839833Y-52469149D02*
X176839833Y-51469149D01*
X177458881Y-51897720D02*
X177363643Y-51850101D01*
X177363643Y-51850101D02*
X177316024Y-51802482D01*
X177316024Y-51802482D02*
X177268405Y-51707244D01*
X177268405Y-51707244D02*
X177268405Y-51659625D01*
X177268405Y-51659625D02*
X177316024Y-51564387D01*
X177316024Y-51564387D02*
X177363643Y-51516768D01*
X177363643Y-51516768D02*
X177458881Y-51469149D01*
X177458881Y-51469149D02*
X177649357Y-51469149D01*
X177649357Y-51469149D02*
X177744595Y-51516768D01*
X177744595Y-51516768D02*
X177792214Y-51564387D01*
X177792214Y-51564387D02*
X177839833Y-51659625D01*
X177839833Y-51659625D02*
X177839833Y-51707244D01*
X177839833Y-51707244D02*
X177792214Y-51802482D01*
X177792214Y-51802482D02*
X177744595Y-51850101D01*
X177744595Y-51850101D02*
X177649357Y-51897720D01*
X177649357Y-51897720D02*
X177458881Y-51897720D01*
X177458881Y-51897720D02*
X177363643Y-51945339D01*
X177363643Y-51945339D02*
X177316024Y-51992958D01*
X177316024Y-51992958D02*
X177268405Y-52088196D01*
X177268405Y-52088196D02*
X177268405Y-52278672D01*
X177268405Y-52278672D02*
X177316024Y-52373910D01*
X177316024Y-52373910D02*
X177363643Y-52421530D01*
X177363643Y-52421530D02*
X177458881Y-52469149D01*
X177458881Y-52469149D02*
X177649357Y-52469149D01*
X177649357Y-52469149D02*
X177744595Y-52421530D01*
X177744595Y-52421530D02*
X177792214Y-52373910D01*
X177792214Y-52373910D02*
X177839833Y-52278672D01*
X177839833Y-52278672D02*
X177839833Y-52088196D01*
X177839833Y-52088196D02*
X177792214Y-51992958D01*
X177792214Y-51992958D02*
X177744595Y-51945339D01*
X177744595Y-51945339D02*
X177649357Y-51897720D01*
X90543405Y-28656649D02*
X90543405Y-27656649D01*
X90543405Y-28132839D02*
X91114833Y-28132839D01*
X91114833Y-28656649D02*
X91114833Y-27656649D01*
X92019595Y-27989982D02*
X92019595Y-28656649D01*
X91781500Y-27609030D02*
X91543405Y-28323315D01*
X91543405Y-28323315D02*
X92162452Y-28323315D01*
X138168405Y-52469149D02*
X138168405Y-51469149D01*
X138168405Y-51945339D02*
X138739833Y-51945339D01*
X138739833Y-52469149D02*
X138739833Y-51469149D01*
X139120786Y-51469149D02*
X139787452Y-51469149D01*
X139787452Y-51469149D02*
X139358881Y-52469149D01*
X128643405Y-21024274D02*
X128643405Y-20024274D01*
X128643405Y-20500464D02*
X129214833Y-20500464D01*
X129214833Y-21024274D02*
X129214833Y-20024274D01*
X130214833Y-21024274D02*
X129643405Y-21024274D01*
X129929119Y-21024274D02*
X129929119Y-20024274D01*
X129929119Y-20024274D02*
X129833881Y-20167131D01*
X129833881Y-20167131D02*
X129738643Y-20262369D01*
X129738643Y-20262369D02*
X129643405Y-20309988D01*
X281043405Y-28656649D02*
X281043405Y-27656649D01*
X281043405Y-28132839D02*
X281614833Y-28132839D01*
X281614833Y-28656649D02*
X281614833Y-27656649D01*
X282519595Y-27656649D02*
X282329119Y-27656649D01*
X282329119Y-27656649D02*
X282233881Y-27704268D01*
X282233881Y-27704268D02*
X282186262Y-27751887D01*
X282186262Y-27751887D02*
X282091024Y-27894744D01*
X282091024Y-27894744D02*
X282043405Y-28085220D01*
X282043405Y-28085220D02*
X282043405Y-28466172D01*
X282043405Y-28466172D02*
X282091024Y-28561410D01*
X282091024Y-28561410D02*
X282138643Y-28609030D01*
X282138643Y-28609030D02*
X282233881Y-28656649D01*
X282233881Y-28656649D02*
X282424357Y-28656649D01*
X282424357Y-28656649D02*
X282519595Y-28609030D01*
X282519595Y-28609030D02*
X282567214Y-28561410D01*
X282567214Y-28561410D02*
X282614833Y-28466172D01*
X282614833Y-28466172D02*
X282614833Y-28228077D01*
X282614833Y-28228077D02*
X282567214Y-28132839D01*
X282567214Y-28132839D02*
X282519595Y-28085220D01*
X282519595Y-28085220D02*
X282424357Y-28037601D01*
X282424357Y-28037601D02*
X282233881Y-28037601D01*
X282233881Y-28037601D02*
X282138643Y-28085220D01*
X282138643Y-28085220D02*
X282091024Y-28132839D01*
X282091024Y-28132839D02*
X282043405Y-28228077D01*
M02*
