G04 #@! TF.GenerationSoftware,KiCad,Pcbnew,7.0.1-0*
G04 #@! TF.CreationDate,2023-05-14T12:23:49+09:00*
G04 #@! TF.ProjectId,Sandy_Top_with_Plate_Mid,53616e64-795f-4546-9f70-5f776974685f,v.0*
G04 #@! TF.SameCoordinates,Original*
G04 #@! TF.FileFunction,Soldermask,Top*
G04 #@! TF.FilePolarity,Negative*
%FSLAX46Y46*%
G04 Gerber Fmt 4.6, Leading zero omitted, Abs format (unit mm)*
G04 Created by KiCad (PCBNEW 7.0.1-0) date 2023-05-14 12:23:49*
%MOMM*%
%LPD*%
G01*
G04 APERTURE LIST*
%ADD10C,2.150000*%
%ADD11C,3.400000*%
%ADD12C,4.387800*%
%ADD13C,6.496000*%
%ADD14C,4.800000*%
%ADD15C,2.400000*%
%ADD16O,2.100000X2.100000*%
G04 APERTURE END LIST*
D10*
X162425310Y-46053405D03*
D11*
X163695310Y-43513405D03*
D12*
X167505310Y-46053405D03*
D11*
X170045310Y-40973405D03*
D10*
X172585310Y-46053405D03*
X76700310Y-27003405D03*
D11*
X77970310Y-24463405D03*
D12*
X81780310Y-27003405D03*
D11*
X84320310Y-21923405D03*
D10*
X86860310Y-27003405D03*
X124325310Y-46053405D03*
D11*
X125595310Y-43513405D03*
D12*
X129405310Y-46053405D03*
D11*
X131945310Y-40973405D03*
D10*
X134485310Y-46053405D03*
X191000310Y-27003405D03*
D11*
X192270310Y-24463405D03*
D12*
X196080310Y-27003405D03*
D11*
X198620310Y-21923405D03*
D10*
X201160310Y-27003405D03*
D13*
X40632310Y-45672405D03*
D10*
X57650310Y-27003405D03*
D11*
X58920310Y-24463405D03*
D12*
X62730310Y-27003405D03*
D11*
X65270310Y-21923405D03*
D10*
X67810310Y-27003405D03*
X152828435Y-27003405D03*
D11*
X154098435Y-24463405D03*
D12*
X157908435Y-27003405D03*
D11*
X160448435Y-21923405D03*
D10*
X162988435Y-27003405D03*
X229100310Y-27003405D03*
D11*
X230370310Y-24463405D03*
D12*
X234180310Y-27003405D03*
D11*
X236720310Y-21923405D03*
D10*
X239260310Y-27003405D03*
X114800310Y-27003405D03*
D11*
X116070310Y-24463405D03*
D12*
X119880310Y-27003405D03*
D11*
X122420310Y-21923405D03*
D10*
X124960310Y-27003405D03*
X210050310Y-27003405D03*
D11*
X211320310Y-24463405D03*
D12*
X215130310Y-27003405D03*
D11*
X217670310Y-21923405D03*
D10*
X220210310Y-27003405D03*
D14*
X224655310Y-28194030D03*
D10*
X143375310Y-46053405D03*
D11*
X144645310Y-43513405D03*
D12*
X148455310Y-46053405D03*
D11*
X150995310Y-40973405D03*
D10*
X153535310Y-46053405D03*
X248150310Y-27003405D03*
D11*
X249420310Y-24463405D03*
D12*
X253230310Y-27003405D03*
D11*
X255770310Y-21923405D03*
D10*
X258310310Y-27003405D03*
X267200310Y-27003405D03*
D11*
X268470310Y-24463405D03*
D12*
X272280310Y-27003405D03*
D11*
X274820310Y-21923405D03*
D10*
X277360310Y-27003405D03*
D14*
X34155310Y-28194030D03*
X186555310Y-20561655D03*
D10*
X19550310Y-27003405D03*
D11*
X20820310Y-24463405D03*
D12*
X24630310Y-27003405D03*
D11*
X27170310Y-21923405D03*
D10*
X29710310Y-27003405D03*
D14*
X177030310Y-52006530D03*
X91305310Y-28194030D03*
X138930310Y-52006530D03*
X129405310Y-20561655D03*
D10*
X181475310Y-46053405D03*
D11*
X182745310Y-43513405D03*
D12*
X186555310Y-46053405D03*
D11*
X189095310Y-40973405D03*
D10*
X191635310Y-46053405D03*
X286250310Y-27003405D03*
D11*
X287520310Y-24463405D03*
D12*
X291330310Y-27003405D03*
D11*
X293870310Y-21923405D03*
D10*
X296410310Y-27003405D03*
X133850310Y-27003405D03*
D11*
X135120310Y-24463405D03*
D12*
X138930310Y-27003405D03*
D11*
X141470310Y-21923405D03*
D10*
X144010310Y-27003405D03*
D14*
X281805310Y-28194030D03*
D10*
X38600310Y-27003405D03*
D11*
X39870310Y-24463405D03*
D12*
X43680310Y-27003405D03*
D11*
X46220310Y-21923405D03*
D10*
X48760310Y-27003405D03*
X95750310Y-27003405D03*
D11*
X97020310Y-24463405D03*
D12*
X100830310Y-27003405D03*
D11*
X103370310Y-21923405D03*
D10*
X105910310Y-27003405D03*
X171950310Y-27003405D03*
D11*
X173220310Y-24463405D03*
D12*
X177030310Y-27003405D03*
D11*
X179570310Y-21923405D03*
D10*
X182110310Y-27003405D03*
D15*
X262755310Y-21050280D03*
D16*
X169505310Y-29375280D03*
X168505310Y-31275280D03*
X166505310Y-31275280D03*
X165505310Y-29375280D03*
D15*
X29392810Y-31765905D03*
X34155310Y-21050280D03*
X148455310Y-21050280D03*
X72255310Y-21059655D03*
X167505310Y-21003405D03*
X149645935Y-36528405D03*
X224655310Y-21050280D03*
D16*
X131586560Y-31003405D03*
X133486560Y-32003405D03*
X133486560Y-34003405D03*
X131586560Y-35003405D03*
D15*
X281805310Y-21050280D03*
X91305310Y-21050280D03*
X146074060Y-36528405D03*
X38917810Y-31765905D03*
D16*
X150455310Y-29375280D03*
X149455310Y-31275280D03*
X147455310Y-31275280D03*
X146455310Y-29375280D03*
M02*
