G04 #@! TF.GenerationSoftware,KiCad,Pcbnew,7.0.1-0*
G04 #@! TF.CreationDate,2023-04-11T18:10:33+09:00*
G04 #@! TF.ProjectId,Sandy_Top_with_Plate_Mid,53616e64-795f-4546-9f70-5f776974685f,v.0*
G04 #@! TF.SameCoordinates,Original*
G04 #@! TF.FileFunction,Paste,Bot*
G04 #@! TF.FilePolarity,Positive*
%FSLAX46Y46*%
G04 Gerber Fmt 4.6, Leading zero omitted, Abs format (unit mm)*
G04 Created by KiCad (PCBNEW 7.0.1-0) date 2023-04-11 18:10:33*
%MOMM*%
%LPD*%
G01*
G04 APERTURE LIST*
G04 Aperture macros list*
%AMRoundRect*
0 Rectangle with rounded corners*
0 $1 Rounding radius*
0 $2 $3 $4 $5 $6 $7 $8 $9 X,Y pos of 4 corners*
0 Add a 4 corners polygon primitive as box body*
4,1,4,$2,$3,$4,$5,$6,$7,$8,$9,$2,$3,0*
0 Add four circle primitives for the rounded corners*
1,1,$1+$1,$2,$3*
1,1,$1+$1,$4,$5*
1,1,$1+$1,$6,$7*
1,1,$1+$1,$8,$9*
0 Add four rect primitives between the rounded corners*
20,1,$1+$1,$2,$3,$4,$5,0*
20,1,$1+$1,$4,$5,$6,$7,0*
20,1,$1+$1,$6,$7,$8,$9,0*
20,1,$1+$1,$8,$9,$2,$3,0*%
%AMFreePoly0*
4,1,25,1.292426,1.292426,1.310000,1.250000,1.310000,-1.250000,1.292426,-1.292426,1.250000,-1.310000,-1.250000,-1.310000,-1.292426,-1.292426,-1.310000,-1.250000,-1.310000,0.150000,-1.308283,0.154143,-1.309396,0.158485,-1.299706,0.174850,-1.292426,0.192426,-1.288284,0.194141,-1.286000,0.198000,-0.692558,0.643081,-0.197557,1.286583,-0.193997,1.288632,-0.192426,1.292426,-0.174537,1.299836,
-0.157760,1.309495,-0.153795,1.308427,-0.150000,1.310000,1.250000,1.310000,1.292426,1.292426,1.292426,1.292426,$1*%
%AMFreePoly1*
4,1,17,1.042426,1.292426,1.060000,1.250000,1.060000,0.762996,1.304622,0.224828,1.305059,0.211926,1.310000,0.200000,1.310000,-1.250000,1.292426,-1.292426,1.250000,-1.310000,-1.250000,-1.310000,-1.292426,-1.292426,-1.310000,-1.250000,-1.310000,1.250000,-1.292426,1.292426,-1.250000,1.310000,1.000000,1.310000,1.042426,1.292426,1.042426,1.292426,$1*%
G04 Aperture macros list end*
%ADD10R,2.550000X2.500000*%
%ADD11FreePoly0,0.000000*%
%ADD12FreePoly1,0.000000*%
%ADD13R,1.200000X0.900000*%
%ADD14RoundRect,0.150000X0.150000X0.625000X-0.150000X0.625000X-0.150000X-0.625000X0.150000X-0.625000X0*%
%ADD15RoundRect,0.250000X0.350000X0.650000X-0.350000X0.650000X-0.350000X-0.650000X0.350000X-0.650000X0*%
%ADD16RoundRect,0.150000X-0.625000X0.150000X-0.625000X-0.150000X0.625000X-0.150000X0.625000X0.150000X0*%
%ADD17RoundRect,0.250000X-0.650000X0.350000X-0.650000X-0.350000X0.650000X-0.350000X0.650000X0.350000X0*%
G04 APERTURE END LIST*
D10*
X160420310Y-43513405D03*
X173347310Y-40973405D03*
X74695310Y-24463405D03*
X87622310Y-21923405D03*
X122320310Y-43513405D03*
X135247310Y-40973405D03*
X188995310Y-24463405D03*
X201922310Y-21923405D03*
X55645310Y-24463405D03*
X68572310Y-21923405D03*
X150823435Y-24463405D03*
X163750435Y-21923405D03*
X227095310Y-24463405D03*
X240022310Y-21923405D03*
D11*
X112795310Y-24463405D03*
D12*
X125722310Y-21923405D03*
D11*
X208045310Y-24463405D03*
D10*
X220972310Y-21923405D03*
X141370310Y-43513405D03*
X154297310Y-40973405D03*
X246145310Y-24463405D03*
X259072310Y-21923405D03*
X265195310Y-24463405D03*
X278122310Y-21923405D03*
X17545310Y-24463405D03*
X30472310Y-21923405D03*
X179470310Y-43513405D03*
X192397310Y-40973405D03*
X284245310Y-24463405D03*
X297172310Y-21923405D03*
X131845310Y-24463405D03*
X144772310Y-21923405D03*
X36595310Y-24463405D03*
X49522310Y-21923405D03*
X93745310Y-24463405D03*
X106672310Y-21923405D03*
X169945310Y-24463405D03*
D12*
X182872310Y-21923405D03*
D13*
X85352185Y-33275280D03*
X85352185Y-29975280D03*
X294902185Y-32225280D03*
X294902185Y-28925280D03*
X237752185Y-33279280D03*
X237752185Y-29979280D03*
X66302185Y-32225280D03*
X66302185Y-28925280D03*
X123452185Y-33279280D03*
X123452185Y-29979280D03*
X104402185Y-32225280D03*
X104402185Y-28925280D03*
X142502185Y-32125280D03*
X142502185Y-28825280D03*
X256802185Y-32225280D03*
X256802185Y-28925280D03*
X137739685Y-47703405D03*
X137739685Y-44403405D03*
X180602185Y-32225280D03*
X180602185Y-28925280D03*
X47252185Y-33275280D03*
X47252185Y-29975280D03*
X275852185Y-33275280D03*
X275852185Y-29975280D03*
X175839685Y-47703405D03*
X175839685Y-44403405D03*
X156789685Y-47703405D03*
X156789685Y-44403405D03*
D14*
X169005310Y-27575280D03*
X168005310Y-27575280D03*
X167005310Y-27575280D03*
X166005310Y-27575280D03*
D15*
X170305310Y-31450280D03*
X164705310Y-31450280D03*
D13*
X218702185Y-32225280D03*
X218702185Y-28925280D03*
X161552185Y-32225280D03*
X161552185Y-28925280D03*
X199652185Y-33279280D03*
X199652185Y-29979280D03*
D16*
X129786560Y-31503405D03*
X129786560Y-32503405D03*
X129786560Y-33503405D03*
X129786560Y-34503405D03*
D17*
X133661560Y-30203405D03*
X133661560Y-35803405D03*
D13*
X28202185Y-32225280D03*
X28202185Y-28925280D03*
X171077185Y-51275280D03*
X171077185Y-47975280D03*
D14*
X149955310Y-27575280D03*
X148955310Y-27575280D03*
X147955310Y-27575280D03*
X146955310Y-27575280D03*
D15*
X151255310Y-31450280D03*
X145655310Y-31450280D03*
M02*
