%TF.GenerationSoftware,KiCad,Pcbnew,7.0.1-0*%
%TF.CreationDate,2023-05-14T12:23:51+09:00*%
%TF.ProjectId,Sandy_Top_with_Plate_Mid,53616e64-795f-4546-9f70-5f776974685f,v.0*%
%TF.SameCoordinates,Original*%
%TF.FileFunction,Drillmap*%
%TF.FilePolarity,Positive*%
%FSLAX45Y45*%
G04 Gerber Fmt 4.5, Leading zero omitted, Abs format (unit mm)*
G04 Created by KiCad (PCBNEW 7.0.1-0) date 2023-05-14 12:23:51*
%MOMM*%
%LPD*%
G01*
G04 APERTURE LIST*
%ADD10C,0.200000*%
%ADD11C,0.040000*%
%ADD12C,0.100000*%
%ADD13C,0.220000*%
G04 APERTURE END LIST*
D10*
D11*
X1642931Y-1880240D02*
X1682931Y-1920240D01*
X1682931Y-1880240D02*
X1642931Y-1920240D01*
X1642931Y-3627840D02*
X1682931Y-3667840D01*
X1682931Y-3627840D02*
X1642931Y-3667840D01*
X1670531Y-5327841D02*
X1710531Y-5367841D01*
X1710531Y-5327841D02*
X1670531Y-5367841D01*
X2350531Y-2167841D02*
X2390531Y-2207841D01*
X2390531Y-2167841D02*
X2350531Y-2207841D01*
X2750531Y-3027840D02*
X2790531Y-3067840D01*
X2790531Y-3027840D02*
X2750531Y-3067840D01*
X3350531Y-2427841D02*
X3390531Y-2467841D01*
X3390531Y-2427841D02*
X3350531Y-2467841D01*
X3395531Y-1846903D02*
X3435531Y-1886903D01*
X3435531Y-1846903D02*
X3395531Y-1886903D01*
X3395531Y-3632840D02*
X3435531Y-3672840D01*
X3435531Y-3632840D02*
X3395531Y-3672840D01*
X3639531Y-2426341D02*
X3679531Y-2466341D01*
X3679531Y-2426341D02*
X3639531Y-2466341D01*
X4050531Y-2747841D02*
X4090531Y-2787841D01*
X4090531Y-2747841D02*
X4050531Y-2787841D01*
X4070531Y-3187840D02*
X4110531Y-3227840D01*
X4110531Y-3187840D02*
X4070531Y-3227840D01*
X4109906Y-5299716D02*
X4149906Y-5339716D01*
X4149906Y-5299716D02*
X4109906Y-5339716D01*
X4390531Y-2947840D02*
X4430531Y-2987840D01*
X4430531Y-2947840D02*
X4390531Y-2987840D01*
X4710531Y-3007840D02*
X4750531Y-3047840D01*
X4750531Y-3007840D02*
X4710531Y-3047840D01*
X5300531Y-1846903D02*
X5340531Y-1886903D01*
X5340531Y-1846903D02*
X5300531Y-1886903D01*
X5300531Y-3632840D02*
X5340531Y-3672840D01*
X5340531Y-3632840D02*
X5300531Y-3672840D01*
X6070531Y-5327841D02*
X6110531Y-5367841D01*
X6110531Y-5327841D02*
X6070531Y-5367841D01*
X6130531Y-2127841D02*
X6170531Y-2167841D01*
X6170531Y-2127841D02*
X6130531Y-2167841D01*
X7150531Y-2427841D02*
X7190531Y-2467841D01*
X7190531Y-2427841D02*
X7150531Y-2467841D01*
X7205531Y-3447840D02*
X7245531Y-3487840D01*
X7245531Y-3447840D02*
X7205531Y-3487840D01*
X7324593Y-1846903D02*
X7364593Y-1886903D01*
X7364593Y-1846903D02*
X7324593Y-1886903D01*
X7449531Y-2426341D02*
X7489531Y-2466341D01*
X7489531Y-2426341D02*
X7449531Y-2466341D01*
X7850531Y-2807840D02*
X7890531Y-2847840D01*
X7890531Y-2807840D02*
X7850531Y-2847840D01*
X8050531Y-3244870D02*
X8090531Y-3284870D01*
X8090531Y-3244870D02*
X8050531Y-3284870D01*
X8210531Y-2947840D02*
X8250531Y-2987840D01*
X8250531Y-2947840D02*
X8210531Y-2987840D01*
X8490531Y-3027840D02*
X8530531Y-3067840D01*
X8530531Y-3027840D02*
X8490531Y-3067840D01*
X9110531Y-1846903D02*
X9150531Y-1886903D01*
X9150531Y-1846903D02*
X9110531Y-1886903D01*
X9110531Y-3447840D02*
X9150531Y-3487840D01*
X9150531Y-3447840D02*
X9110531Y-3487840D01*
X9330531Y-3027840D02*
X9370531Y-3067840D01*
X9370531Y-3027840D02*
X9330531Y-3067840D01*
X9354531Y-2426341D02*
X9394531Y-2466341D01*
X9394531Y-2426341D02*
X9354531Y-2466341D01*
X9417351Y-3250810D02*
X9457351Y-3290810D01*
X9457351Y-3250810D02*
X9417351Y-3290810D01*
X10090531Y-3007840D02*
X10130531Y-3047840D01*
X10130531Y-3007840D02*
X10090531Y-3047840D01*
X10250531Y-5327841D02*
X10290531Y-5367841D01*
X10290531Y-5327841D02*
X10250531Y-5367841D01*
X10301156Y-3632840D02*
X10341156Y-3672840D01*
X10341156Y-3632840D02*
X10301156Y-3672840D01*
X10390531Y-3027840D02*
X10430531Y-3067840D01*
X10430531Y-3027840D02*
X10390531Y-3067840D01*
X11015531Y-1846903D02*
X11055531Y-1886903D01*
X11055531Y-1846903D02*
X11015531Y-1886903D01*
X11015531Y-3480440D02*
X11055531Y-3520440D01*
X11055531Y-3480440D02*
X11015531Y-3520440D01*
X11259531Y-2426341D02*
X11299531Y-2466341D01*
X11299531Y-2426341D02*
X11259531Y-2466341D01*
X11270531Y-3250810D02*
X11310531Y-3290810D01*
X11310531Y-3250810D02*
X11270531Y-3290810D01*
X11470531Y-3027840D02*
X11510531Y-3067840D01*
X11510531Y-3027840D02*
X11470531Y-3067840D01*
X11968031Y-5299716D02*
X12008031Y-5339716D01*
X12008031Y-5299716D02*
X11968031Y-5339716D01*
X12010531Y-2947840D02*
X12050531Y-2987840D01*
X12050531Y-2947840D02*
X12010531Y-2987840D01*
X12170531Y-7247840D02*
X12210531Y-7287840D01*
X12210531Y-7247840D02*
X12170531Y-7287840D01*
X12206156Y-5537841D02*
X12246156Y-5577841D01*
X12246156Y-5537841D02*
X12206156Y-5577841D01*
X12210000Y-4580000D02*
X12250000Y-4620000D01*
X12250000Y-4580000D02*
X12210000Y-4620000D01*
X12470531Y-2407841D02*
X12510531Y-2447841D01*
X12510531Y-2407841D02*
X12470531Y-2447841D01*
X12590331Y-1846903D02*
X12630331Y-1886903D01*
X12630331Y-1846903D02*
X12590331Y-1886903D01*
X12651878Y-3180134D02*
X12691878Y-3220134D01*
X12691878Y-3180134D02*
X12651878Y-3220134D01*
X12652295Y-3268770D02*
X12692295Y-3308770D01*
X12692295Y-3268770D02*
X12652295Y-3308770D01*
X12700000Y-3447840D02*
X12740000Y-3487840D01*
X12740000Y-3447840D02*
X12700000Y-3487840D01*
X12930531Y-3547840D02*
X12970531Y-3587840D01*
X12970531Y-3547840D02*
X12930531Y-3587840D01*
X13039593Y-2680341D02*
X13079593Y-2720341D01*
X13079593Y-2680341D02*
X13039593Y-2720341D01*
X13110531Y-9147841D02*
X13150531Y-9187841D01*
X13150531Y-9147841D02*
X13110531Y-9187841D01*
X13158656Y-7442840D02*
X13198656Y-7482840D01*
X13198656Y-7442840D02*
X13158656Y-7482840D01*
X13164531Y-2426341D02*
X13204531Y-2466341D01*
X13204531Y-2426341D02*
X13164531Y-2466341D01*
X13250731Y-1846903D02*
X13290731Y-1886903D01*
X13290731Y-1846903D02*
X13250731Y-1886903D01*
X13450531Y-4747841D02*
X13490531Y-4787841D01*
X13490531Y-4747841D02*
X13450531Y-4787841D01*
X13530531Y-3067840D02*
X13570531Y-3107840D01*
X13570531Y-3067840D02*
X13530531Y-3107840D01*
X13530531Y-3627840D02*
X13570531Y-3667840D01*
X13570531Y-3627840D02*
X13530531Y-3667840D01*
X13873031Y-5537841D02*
X13913031Y-5577841D01*
X13913031Y-5537841D02*
X13873031Y-5577841D01*
X13910000Y-2090000D02*
X13950000Y-2130000D01*
X13950000Y-2090000D02*
X13910000Y-2130000D01*
X13910531Y-2947840D02*
X13950531Y-2987840D01*
X13950531Y-2947840D02*
X13910531Y-2987840D01*
X14170531Y-4047840D02*
X14210531Y-4087840D01*
X14210531Y-4047840D02*
X14170531Y-4087840D01*
X14370531Y-2487841D02*
X14410531Y-2527841D01*
X14410531Y-2487841D02*
X14370531Y-2527841D01*
X14730531Y-4307841D02*
X14770531Y-4347841D01*
X14770531Y-4307841D02*
X14730531Y-4347841D01*
X14770531Y-3407840D02*
X14810531Y-3447840D01*
X14810531Y-3407840D02*
X14770531Y-3447840D01*
X14825531Y-1846903D02*
X14865531Y-1886903D01*
X14865531Y-1846903D02*
X14825531Y-1886903D01*
X14825531Y-7442840D02*
X14865531Y-7482840D01*
X14865531Y-7442840D02*
X14825531Y-7482840D01*
X14830531Y-4947841D02*
X14870531Y-4987841D01*
X14870531Y-4947841D02*
X14830531Y-4987841D01*
X14830531Y-9147841D02*
X14870531Y-9187841D01*
X14870531Y-9147841D02*
X14830531Y-9187841D01*
X14860531Y-5077841D02*
X14900531Y-5117841D01*
X14900531Y-5077841D02*
X14860531Y-5117841D01*
X14910531Y-3947840D02*
X14950531Y-3987840D01*
X14950531Y-3947840D02*
X14910531Y-3987840D01*
X15079531Y-3455040D02*
X15119531Y-3495040D01*
X15119531Y-3455040D02*
X15079531Y-3495040D01*
X15090531Y-2667841D02*
X15130531Y-2707841D01*
X15130531Y-2667841D02*
X15090531Y-2707841D01*
X15110531Y-4307841D02*
X15150531Y-4347841D01*
X15150531Y-4307841D02*
X15110531Y-4347841D01*
X15130531Y-2207841D02*
X15170531Y-2247841D01*
X15170531Y-2207841D02*
X15130531Y-2247841D01*
X15230531Y-4907841D02*
X15270531Y-4947841D01*
X15270531Y-4907841D02*
X15230531Y-4947841D01*
X15640531Y-2117841D02*
X15680531Y-2157841D01*
X15680531Y-2117841D02*
X15640531Y-2157841D01*
X15778031Y-3632840D02*
X15818031Y-3672840D01*
X15818031Y-3632840D02*
X15778031Y-3672840D01*
X15778031Y-5537841D02*
X15818031Y-5577841D01*
X15818031Y-5537841D02*
X15778031Y-5577841D01*
X16210531Y-3087840D02*
X16250531Y-3127840D01*
X16250531Y-3087840D02*
X16210531Y-3127840D01*
X16690531Y-3267840D02*
X16730531Y-3307840D01*
X16730531Y-3267840D02*
X16690531Y-3307840D01*
X16700531Y-2437841D02*
X16740531Y-2477841D01*
X16740531Y-2437841D02*
X16700531Y-2477841D01*
X16730531Y-1846903D02*
X16770531Y-1886903D01*
X16770531Y-1846903D02*
X16730531Y-1886903D01*
X16730531Y-7442840D02*
X16770531Y-7482840D01*
X16770531Y-7442840D02*
X16730531Y-7482840D01*
X16730531Y-9147841D02*
X16770531Y-9187841D01*
X16770531Y-9147841D02*
X16730531Y-9187841D01*
X16830531Y-3347840D02*
X16870531Y-3387840D01*
X16870531Y-3347840D02*
X16830531Y-3387840D01*
X17090531Y-3267840D02*
X17130531Y-3307840D01*
X17130531Y-3267840D02*
X17090531Y-3307840D01*
X17190531Y-4807841D02*
X17230531Y-4847841D01*
X17230531Y-4807841D02*
X17190531Y-4847841D01*
X17390931Y-2632716D02*
X17430931Y-2672716D01*
X17430931Y-2632716D02*
X17390931Y-2672716D01*
X17410531Y-3047840D02*
X17450531Y-3087840D01*
X17450531Y-3047840D02*
X17410531Y-3087840D01*
X17683031Y-3632840D02*
X17723031Y-3672840D01*
X17723031Y-3632840D02*
X17683031Y-3672840D01*
X17683031Y-5537841D02*
X17723031Y-5577841D01*
X17723031Y-5537841D02*
X17683031Y-5577841D01*
X17710531Y-3007840D02*
X17750531Y-3047840D01*
X17750531Y-3007840D02*
X17710531Y-3047840D01*
X17930531Y-4327841D02*
X17970531Y-4367841D01*
X17970531Y-4327841D02*
X17930531Y-4367841D01*
X18010531Y-3067840D02*
X18050531Y-3107840D01*
X18050531Y-3067840D02*
X18010531Y-3107840D01*
X18050531Y-3254090D02*
X18090531Y-3294090D01*
X18090531Y-3254090D02*
X18050531Y-3294090D01*
X18310000Y-1846903D02*
X18350000Y-1886903D01*
X18350000Y-1846903D02*
X18310000Y-1886903D01*
X18390531Y-3087840D02*
X18430531Y-3127840D01*
X18430531Y-3087840D02*
X18390531Y-3127840D01*
X18397406Y-7442840D02*
X18437406Y-7482840D01*
X18437406Y-7442840D02*
X18397406Y-7482840D01*
X18450531Y-9147841D02*
X18490531Y-9187841D01*
X18490531Y-9147841D02*
X18450531Y-9187841D01*
X18560000Y-2370000D02*
X18600000Y-2410000D01*
X18600000Y-2370000D02*
X18560000Y-2410000D01*
X18879531Y-2426340D02*
X18919531Y-2466340D01*
X18919531Y-2426340D02*
X18879531Y-2466340D01*
X18910531Y-3427840D02*
X18950531Y-3467840D01*
X18950531Y-3427840D02*
X18910531Y-3467840D01*
X18960000Y-1846903D02*
X19000000Y-1886903D01*
X19000000Y-1846903D02*
X18960000Y-1886903D01*
X19290531Y-3047840D02*
X19330531Y-3087840D01*
X19330531Y-3047840D02*
X19290531Y-3087840D01*
X19349906Y-3632840D02*
X19389906Y-3672840D01*
X19389906Y-3632840D02*
X19349906Y-3672840D01*
X19349906Y-5537841D02*
X19389906Y-5577841D01*
X19389906Y-5537841D02*
X19349906Y-5577841D01*
X19390531Y-7227840D02*
X19430531Y-7267840D01*
X19430531Y-7227840D02*
X19390531Y-7267840D01*
X19588031Y-5299716D02*
X19628031Y-5339716D01*
X19628031Y-5299716D02*
X19588031Y-5339716D01*
X19610531Y-2987840D02*
X19650531Y-3027840D01*
X19650531Y-2987840D02*
X19610531Y-3027840D01*
X19930531Y-3027840D02*
X19970531Y-3067840D01*
X19970531Y-3027840D02*
X19930531Y-3067840D01*
X19956781Y-3254090D02*
X19996781Y-3294090D01*
X19996781Y-3254090D02*
X19956781Y-3294090D01*
X20290531Y-2387841D02*
X20330531Y-2427841D01*
X20330531Y-2387841D02*
X20290531Y-2427841D01*
X20350000Y-3020000D02*
X20390000Y-3060000D01*
X20390000Y-3020000D02*
X20350000Y-3060000D01*
X20540531Y-1846903D02*
X20580531Y-1886903D01*
X20580531Y-1846903D02*
X20540531Y-1886903D01*
X20784531Y-2426341D02*
X20824531Y-2466341D01*
X20824531Y-2426341D02*
X20784531Y-2466341D01*
X21254906Y-3632840D02*
X21294906Y-3672840D01*
X21294906Y-3632840D02*
X21254906Y-3672840D01*
X21280000Y-2090000D02*
X21320000Y-2130000D01*
X21320000Y-2090000D02*
X21280000Y-2130000D01*
X21310531Y-5307841D02*
X21350531Y-5347841D01*
X21350531Y-5307841D02*
X21310531Y-5347841D01*
X21530531Y-2947840D02*
X21570531Y-2987840D01*
X21570531Y-2947840D02*
X21530531Y-2987840D01*
X21830531Y-3027840D02*
X21870531Y-3067840D01*
X21870531Y-3027840D02*
X21830531Y-3067840D01*
X22210000Y-3030000D02*
X22250000Y-3070000D01*
X22250000Y-3030000D02*
X22210000Y-3070000D01*
X22410000Y-2430000D02*
X22450000Y-2470000D01*
X22450000Y-2430000D02*
X22410000Y-2470000D01*
X22445531Y-1846903D02*
X22485531Y-1886903D01*
X22485531Y-1846903D02*
X22445531Y-1886903D01*
X22445531Y-3447840D02*
X22485531Y-3487840D01*
X22485531Y-3447840D02*
X22445531Y-3487840D01*
X22700000Y-3030000D02*
X22740000Y-3070000D01*
X22740000Y-3030000D02*
X22700000Y-3070000D01*
X23730531Y-3027840D02*
X23770531Y-3067840D01*
X23770531Y-3027840D02*
X23730531Y-3067840D01*
X23770531Y-3244870D02*
X23810531Y-3284870D01*
X23810531Y-3244870D02*
X23770531Y-3284870D01*
X24350531Y-1850000D02*
X24390531Y-1890000D01*
X24390531Y-1850000D02*
X24350531Y-1890000D01*
X24350531Y-3447840D02*
X24390531Y-3487840D01*
X24390531Y-3447840D02*
X24350531Y-3487840D01*
X24570531Y-2647841D02*
X24610531Y-2687841D01*
X24610531Y-2647841D02*
X24570531Y-2687841D01*
X24594531Y-2426341D02*
X24634531Y-2466341D01*
X24634531Y-2426341D02*
X24594531Y-2466341D01*
X25190000Y-2100000D02*
X25230000Y-2140000D01*
X25230000Y-2100000D02*
X25190000Y-2140000D01*
X25350531Y-2947840D02*
X25390531Y-2987840D01*
X25390531Y-2947840D02*
X25350531Y-2987840D01*
X25490531Y-5347841D02*
X25530531Y-5387841D01*
X25530531Y-5347841D02*
X25490531Y-5387841D01*
X25541156Y-3632840D02*
X25581156Y-3672840D01*
X25581156Y-3632840D02*
X25541156Y-3672840D01*
X25630531Y-3027840D02*
X25670531Y-3067840D01*
X25670531Y-3027840D02*
X25630531Y-3067840D01*
X26190000Y-2350000D02*
X26230000Y-2390000D01*
X26230000Y-2350000D02*
X26190000Y-2390000D01*
X26255531Y-1846903D02*
X26295531Y-1886903D01*
X26295531Y-1846903D02*
X26255531Y-1886903D01*
X26731781Y-3632840D02*
X26771781Y-3672840D01*
X26771781Y-3632840D02*
X26731781Y-3672840D01*
X26860223Y-2984870D02*
X26900223Y-3024870D01*
X26900223Y-2984870D02*
X26860223Y-3024870D01*
X27351131Y-3248440D02*
X27391131Y-3288440D01*
X27391131Y-3248440D02*
X27351131Y-3288440D01*
X27446156Y-5299716D02*
X27486156Y-5339716D01*
X27486156Y-5299716D02*
X27446156Y-5339716D01*
X27750531Y-3007840D02*
X27790531Y-3047840D01*
X27790531Y-3007840D02*
X27750531Y-3047840D01*
X28160531Y-1846903D02*
X28200531Y-1886903D01*
X28200531Y-1846903D02*
X28160531Y-1886903D01*
X28160531Y-3632840D02*
X28200531Y-3672840D01*
X28200531Y-3632840D02*
X28160531Y-3672840D01*
X29827406Y-3632840D02*
X29867406Y-3672840D01*
X29867406Y-3632840D02*
X29827406Y-3672840D01*
X29827406Y-5299716D02*
X29867406Y-5339716D01*
X29867406Y-5299716D02*
X29827406Y-5339716D01*
X29913131Y-1880240D02*
X29953131Y-1920240D01*
X29953131Y-1880240D02*
X29913131Y-1920240D01*
D12*
X2989281Y-3176590D02*
G75*
G03*
X2989281Y-3176590I-50000J0D01*
G01*
X3465531Y-2105028D02*
G75*
G03*
X3465531Y-2105028I-50000J0D01*
G01*
X3941781Y-3176590D02*
G75*
G03*
X3941781Y-3176590I-50000J0D01*
G01*
X7275531Y-2105966D02*
G75*
G03*
X7275531Y-2105966I-50000J0D01*
G01*
X9180531Y-2105028D02*
G75*
G03*
X9180531Y-2105028I-50000J0D01*
G01*
X13208656Y-3100340D02*
G75*
G03*
X13208656Y-3100340I-50000J0D01*
G01*
X13208656Y-3500340D02*
G75*
G03*
X13208656Y-3500340I-50000J0D01*
G01*
X13398656Y-3200340D02*
G75*
G03*
X13398656Y-3200340I-50000J0D01*
G01*
X13398656Y-3400340D02*
G75*
G03*
X13398656Y-3400340I-50000J0D01*
G01*
X14657406Y-3652840D02*
G75*
G03*
X14657406Y-3652840I-50000J0D01*
G01*
X14695531Y-2937528D02*
G75*
G03*
X14695531Y-2937528I-50000J0D01*
G01*
X14795531Y-3127528D02*
G75*
G03*
X14795531Y-3127528I-50000J0D01*
G01*
X14895531Y-2105028D02*
G75*
G03*
X14895531Y-2105028I-50000J0D01*
G01*
X14995531Y-3127528D02*
G75*
G03*
X14995531Y-3127528I-50000J0D01*
G01*
X15014593Y-3652840D02*
G75*
G03*
X15014593Y-3652840I-50000J0D01*
G01*
X15095531Y-2937528D02*
G75*
G03*
X15095531Y-2937528I-50000J0D01*
G01*
X16600531Y-2937528D02*
G75*
G03*
X16600531Y-2937528I-50000J0D01*
G01*
X16700531Y-3127528D02*
G75*
G03*
X16700531Y-3127528I-50000J0D01*
G01*
X16800531Y-2100341D02*
G75*
G03*
X16800531Y-2100341I-50000J0D01*
G01*
X16900531Y-3127528D02*
G75*
G03*
X16900531Y-3127528I-50000J0D01*
G01*
X17000531Y-2937528D02*
G75*
G03*
X17000531Y-2937528I-50000J0D01*
G01*
X22515531Y-2105028D02*
G75*
G03*
X22515531Y-2105028I-50000J0D01*
G01*
X26325531Y-2105028D02*
G75*
G03*
X26325531Y-2105028I-50000J0D01*
G01*
X28230531Y-2105028D02*
G75*
G03*
X28230531Y-2105028I-50000J0D01*
G01*
D13*
X3415531Y-2709403D02*
X3415531Y-2929403D01*
X3305531Y-2819403D02*
X3525531Y-2819403D01*
X9130531Y-2709403D02*
X9130531Y-2929403D01*
X9020531Y-2819403D02*
X9240531Y-2819403D01*
X12940531Y-1946165D02*
X12940531Y-2166166D01*
X12830531Y-2056165D02*
X13050531Y-2056165D01*
X13893031Y-5090653D02*
X13893031Y-5310653D01*
X13783031Y-5200653D02*
X14003031Y-5200653D01*
X17703031Y-5090653D02*
X17703031Y-5310653D01*
X17593031Y-5200653D02*
X17813031Y-5200653D01*
X18655531Y-1946165D02*
X18655531Y-2166166D01*
X18545531Y-2056165D02*
X18765531Y-2056165D01*
X22465531Y-2709403D02*
X22465531Y-2929403D01*
X22355531Y-2819403D02*
X22575531Y-2819403D01*
X28180531Y-2709403D02*
X28180531Y-2929403D01*
X28070531Y-2819403D02*
X28290531Y-2819403D01*
D10*
X1778150Y-9620360D02*
X1778150Y-9420360D01*
X1778150Y-9420360D02*
X1825769Y-9420360D01*
X1825769Y-9420360D02*
X1854340Y-9429884D01*
X1854340Y-9429884D02*
X1873388Y-9448932D01*
X1873388Y-9448932D02*
X1882912Y-9467979D01*
X1882912Y-9467979D02*
X1892436Y-9506075D01*
X1892436Y-9506075D02*
X1892436Y-9534646D01*
X1892436Y-9534646D02*
X1882912Y-9572741D01*
X1882912Y-9572741D02*
X1873388Y-9591789D01*
X1873388Y-9591789D02*
X1854340Y-9610837D01*
X1854340Y-9610837D02*
X1825769Y-9620360D01*
X1825769Y-9620360D02*
X1778150Y-9620360D01*
X1978150Y-9620360D02*
X1978150Y-9487027D01*
X1978150Y-9525122D02*
X1987674Y-9506075D01*
X1987674Y-9506075D02*
X1997198Y-9496551D01*
X1997198Y-9496551D02*
X2016245Y-9487027D01*
X2016245Y-9487027D02*
X2035293Y-9487027D01*
X2101960Y-9620360D02*
X2101960Y-9487027D01*
X2101960Y-9420360D02*
X2092436Y-9429884D01*
X2092436Y-9429884D02*
X2101960Y-9439408D01*
X2101960Y-9439408D02*
X2111483Y-9429884D01*
X2111483Y-9429884D02*
X2101960Y-9420360D01*
X2101960Y-9420360D02*
X2101960Y-9439408D01*
X2225769Y-9620360D02*
X2206721Y-9610837D01*
X2206721Y-9610837D02*
X2197198Y-9591789D01*
X2197198Y-9591789D02*
X2197198Y-9420360D01*
X2330531Y-9620360D02*
X2311483Y-9610837D01*
X2311483Y-9610837D02*
X2301960Y-9591789D01*
X2301960Y-9591789D02*
X2301960Y-9420360D01*
X2559102Y-9620360D02*
X2559102Y-9420360D01*
X2559102Y-9420360D02*
X2625769Y-9563217D01*
X2625769Y-9563217D02*
X2692436Y-9420360D01*
X2692436Y-9420360D02*
X2692436Y-9620360D01*
X2873388Y-9620360D02*
X2873388Y-9515598D01*
X2873388Y-9515598D02*
X2863864Y-9496551D01*
X2863864Y-9496551D02*
X2844817Y-9487027D01*
X2844817Y-9487027D02*
X2806721Y-9487027D01*
X2806721Y-9487027D02*
X2787674Y-9496551D01*
X2873388Y-9610837D02*
X2854340Y-9620360D01*
X2854340Y-9620360D02*
X2806721Y-9620360D01*
X2806721Y-9620360D02*
X2787674Y-9610837D01*
X2787674Y-9610837D02*
X2778150Y-9591789D01*
X2778150Y-9591789D02*
X2778150Y-9572741D01*
X2778150Y-9572741D02*
X2787674Y-9553694D01*
X2787674Y-9553694D02*
X2806721Y-9544170D01*
X2806721Y-9544170D02*
X2854340Y-9544170D01*
X2854340Y-9544170D02*
X2873388Y-9534646D01*
X2968626Y-9487027D02*
X2968626Y-9687027D01*
X2968626Y-9496551D02*
X2987674Y-9487027D01*
X2987674Y-9487027D02*
X3025769Y-9487027D01*
X3025769Y-9487027D02*
X3044817Y-9496551D01*
X3044817Y-9496551D02*
X3054340Y-9506075D01*
X3054340Y-9506075D02*
X3063864Y-9525122D01*
X3063864Y-9525122D02*
X3063864Y-9582265D01*
X3063864Y-9582265D02*
X3054340Y-9601313D01*
X3054340Y-9601313D02*
X3044817Y-9610837D01*
X3044817Y-9610837D02*
X3025769Y-9620360D01*
X3025769Y-9620360D02*
X2987674Y-9620360D01*
X2987674Y-9620360D02*
X2968626Y-9610837D01*
X3149579Y-9601313D02*
X3159102Y-9610837D01*
X3159102Y-9610837D02*
X3149579Y-9620360D01*
X3149579Y-9620360D02*
X3140055Y-9610837D01*
X3140055Y-9610837D02*
X3149579Y-9601313D01*
X3149579Y-9601313D02*
X3149579Y-9620360D01*
X3149579Y-9496551D02*
X3159102Y-9506075D01*
X3159102Y-9506075D02*
X3149579Y-9515598D01*
X3149579Y-9515598D02*
X3140055Y-9506075D01*
X3140055Y-9506075D02*
X3149579Y-9496551D01*
X3149579Y-9496551D02*
X3149579Y-9515598D01*
D11*
X1490531Y-9927837D02*
X1530531Y-9967837D01*
X1530531Y-9927837D02*
X1490531Y-9967837D01*
D10*
X1816245Y-9840360D02*
X1835293Y-9840360D01*
X1835293Y-9840360D02*
X1854340Y-9849884D01*
X1854340Y-9849884D02*
X1863864Y-9859408D01*
X1863864Y-9859408D02*
X1873388Y-9878456D01*
X1873388Y-9878456D02*
X1882912Y-9916551D01*
X1882912Y-9916551D02*
X1882912Y-9964170D01*
X1882912Y-9964170D02*
X1873388Y-10002265D01*
X1873388Y-10002265D02*
X1863864Y-10021313D01*
X1863864Y-10021313D02*
X1854340Y-10030837D01*
X1854340Y-10030837D02*
X1835293Y-10040360D01*
X1835293Y-10040360D02*
X1816245Y-10040360D01*
X1816245Y-10040360D02*
X1797198Y-10030837D01*
X1797198Y-10030837D02*
X1787674Y-10021313D01*
X1787674Y-10021313D02*
X1778150Y-10002265D01*
X1778150Y-10002265D02*
X1768626Y-9964170D01*
X1768626Y-9964170D02*
X1768626Y-9916551D01*
X1768626Y-9916551D02*
X1778150Y-9878456D01*
X1778150Y-9878456D02*
X1787674Y-9859408D01*
X1787674Y-9859408D02*
X1797198Y-9849884D01*
X1797198Y-9849884D02*
X1816245Y-9840360D01*
X1968626Y-10021313D02*
X1978150Y-10030837D01*
X1978150Y-10030837D02*
X1968626Y-10040360D01*
X1968626Y-10040360D02*
X1959102Y-10030837D01*
X1959102Y-10030837D02*
X1968626Y-10021313D01*
X1968626Y-10021313D02*
X1968626Y-10040360D01*
X2149579Y-9907027D02*
X2149579Y-10040360D01*
X2101960Y-9830837D02*
X2054340Y-9973694D01*
X2054340Y-9973694D02*
X2178150Y-9973694D01*
X2292436Y-9840360D02*
X2311483Y-9840360D01*
X2311483Y-9840360D02*
X2330531Y-9849884D01*
X2330531Y-9849884D02*
X2340055Y-9859408D01*
X2340055Y-9859408D02*
X2349579Y-9878456D01*
X2349579Y-9878456D02*
X2359102Y-9916551D01*
X2359102Y-9916551D02*
X2359102Y-9964170D01*
X2359102Y-9964170D02*
X2349579Y-10002265D01*
X2349579Y-10002265D02*
X2340055Y-10021313D01*
X2340055Y-10021313D02*
X2330531Y-10030837D01*
X2330531Y-10030837D02*
X2311483Y-10040360D01*
X2311483Y-10040360D02*
X2292436Y-10040360D01*
X2292436Y-10040360D02*
X2273388Y-10030837D01*
X2273388Y-10030837D02*
X2263864Y-10021313D01*
X2263864Y-10021313D02*
X2254341Y-10002265D01*
X2254341Y-10002265D02*
X2244817Y-9964170D01*
X2244817Y-9964170D02*
X2244817Y-9916551D01*
X2244817Y-9916551D02*
X2254341Y-9878456D01*
X2254341Y-9878456D02*
X2263864Y-9859408D01*
X2263864Y-9859408D02*
X2273388Y-9849884D01*
X2273388Y-9849884D02*
X2292436Y-9840360D01*
X2482912Y-9840360D02*
X2501960Y-9840360D01*
X2501960Y-9840360D02*
X2521007Y-9849884D01*
X2521007Y-9849884D02*
X2530531Y-9859408D01*
X2530531Y-9859408D02*
X2540055Y-9878456D01*
X2540055Y-9878456D02*
X2549579Y-9916551D01*
X2549579Y-9916551D02*
X2549579Y-9964170D01*
X2549579Y-9964170D02*
X2540055Y-10002265D01*
X2540055Y-10002265D02*
X2530531Y-10021313D01*
X2530531Y-10021313D02*
X2521007Y-10030837D01*
X2521007Y-10030837D02*
X2501960Y-10040360D01*
X2501960Y-10040360D02*
X2482912Y-10040360D01*
X2482912Y-10040360D02*
X2463864Y-10030837D01*
X2463864Y-10030837D02*
X2454341Y-10021313D01*
X2454341Y-10021313D02*
X2444817Y-10002265D01*
X2444817Y-10002265D02*
X2435293Y-9964170D01*
X2435293Y-9964170D02*
X2435293Y-9916551D01*
X2435293Y-9916551D02*
X2444817Y-9878456D01*
X2444817Y-9878456D02*
X2454341Y-9859408D01*
X2454341Y-9859408D02*
X2463864Y-9849884D01*
X2463864Y-9849884D02*
X2482912Y-9840360D01*
X2635293Y-10040360D02*
X2635293Y-9907027D01*
X2635293Y-9926075D02*
X2644817Y-9916551D01*
X2644817Y-9916551D02*
X2663864Y-9907027D01*
X2663864Y-9907027D02*
X2692436Y-9907027D01*
X2692436Y-9907027D02*
X2711483Y-9916551D01*
X2711483Y-9916551D02*
X2721007Y-9935598D01*
X2721007Y-9935598D02*
X2721007Y-10040360D01*
X2721007Y-9935598D02*
X2730531Y-9916551D01*
X2730531Y-9916551D02*
X2749579Y-9907027D01*
X2749579Y-9907027D02*
X2778150Y-9907027D01*
X2778150Y-9907027D02*
X2797198Y-9916551D01*
X2797198Y-9916551D02*
X2806721Y-9935598D01*
X2806721Y-9935598D02*
X2806721Y-10040360D01*
X2901960Y-10040360D02*
X2901960Y-9907027D01*
X2901960Y-9926075D02*
X2911483Y-9916551D01*
X2911483Y-9916551D02*
X2930531Y-9907027D01*
X2930531Y-9907027D02*
X2959102Y-9907027D01*
X2959102Y-9907027D02*
X2978150Y-9916551D01*
X2978150Y-9916551D02*
X2987674Y-9935598D01*
X2987674Y-9935598D02*
X2987674Y-10040360D01*
X2987674Y-9935598D02*
X2997198Y-9916551D01*
X2997198Y-9916551D02*
X3016245Y-9907027D01*
X3016245Y-9907027D02*
X3044817Y-9907027D01*
X3044817Y-9907027D02*
X3063864Y-9916551D01*
X3063864Y-9916551D02*
X3073388Y-9935598D01*
X3073388Y-9935598D02*
X3073388Y-10040360D01*
X3463864Y-9830837D02*
X3292436Y-10087979D01*
X3721007Y-9840360D02*
X3740055Y-9840360D01*
X3740055Y-9840360D02*
X3759103Y-9849884D01*
X3759103Y-9849884D02*
X3768626Y-9859408D01*
X3768626Y-9859408D02*
X3778150Y-9878456D01*
X3778150Y-9878456D02*
X3787674Y-9916551D01*
X3787674Y-9916551D02*
X3787674Y-9964170D01*
X3787674Y-9964170D02*
X3778150Y-10002265D01*
X3778150Y-10002265D02*
X3768626Y-10021313D01*
X3768626Y-10021313D02*
X3759103Y-10030837D01*
X3759103Y-10030837D02*
X3740055Y-10040360D01*
X3740055Y-10040360D02*
X3721007Y-10040360D01*
X3721007Y-10040360D02*
X3701960Y-10030837D01*
X3701960Y-10030837D02*
X3692436Y-10021313D01*
X3692436Y-10021313D02*
X3682912Y-10002265D01*
X3682912Y-10002265D02*
X3673388Y-9964170D01*
X3673388Y-9964170D02*
X3673388Y-9916551D01*
X3673388Y-9916551D02*
X3682912Y-9878456D01*
X3682912Y-9878456D02*
X3692436Y-9859408D01*
X3692436Y-9859408D02*
X3701960Y-9849884D01*
X3701960Y-9849884D02*
X3721007Y-9840360D01*
X3873388Y-10021313D02*
X3882912Y-10030837D01*
X3882912Y-10030837D02*
X3873388Y-10040360D01*
X3873388Y-10040360D02*
X3863864Y-10030837D01*
X3863864Y-10030837D02*
X3873388Y-10021313D01*
X3873388Y-10021313D02*
X3873388Y-10040360D01*
X4006722Y-9840360D02*
X4025769Y-9840360D01*
X4025769Y-9840360D02*
X4044817Y-9849884D01*
X4044817Y-9849884D02*
X4054341Y-9859408D01*
X4054341Y-9859408D02*
X4063864Y-9878456D01*
X4063864Y-9878456D02*
X4073388Y-9916551D01*
X4073388Y-9916551D02*
X4073388Y-9964170D01*
X4073388Y-9964170D02*
X4063864Y-10002265D01*
X4063864Y-10002265D02*
X4054341Y-10021313D01*
X4054341Y-10021313D02*
X4044817Y-10030837D01*
X4044817Y-10030837D02*
X4025769Y-10040360D01*
X4025769Y-10040360D02*
X4006722Y-10040360D01*
X4006722Y-10040360D02*
X3987674Y-10030837D01*
X3987674Y-10030837D02*
X3978150Y-10021313D01*
X3978150Y-10021313D02*
X3968626Y-10002265D01*
X3968626Y-10002265D02*
X3959103Y-9964170D01*
X3959103Y-9964170D02*
X3959103Y-9916551D01*
X3959103Y-9916551D02*
X3968626Y-9878456D01*
X3968626Y-9878456D02*
X3978150Y-9859408D01*
X3978150Y-9859408D02*
X3987674Y-9849884D01*
X3987674Y-9849884D02*
X4006722Y-9840360D01*
X4263865Y-10040360D02*
X4149579Y-10040360D01*
X4206722Y-10040360D02*
X4206722Y-9840360D01*
X4206722Y-9840360D02*
X4187674Y-9868932D01*
X4187674Y-9868932D02*
X4168626Y-9887979D01*
X4168626Y-9887979D02*
X4149579Y-9897503D01*
X4444817Y-9840360D02*
X4349579Y-9840360D01*
X4349579Y-9840360D02*
X4340055Y-9935598D01*
X4340055Y-9935598D02*
X4349579Y-9926075D01*
X4349579Y-9926075D02*
X4368626Y-9916551D01*
X4368626Y-9916551D02*
X4416246Y-9916551D01*
X4416246Y-9916551D02*
X4435293Y-9926075D01*
X4435293Y-9926075D02*
X4444817Y-9935598D01*
X4444817Y-9935598D02*
X4454341Y-9954646D01*
X4454341Y-9954646D02*
X4454341Y-10002265D01*
X4454341Y-10002265D02*
X4444817Y-10021313D01*
X4444817Y-10021313D02*
X4435293Y-10030837D01*
X4435293Y-10030837D02*
X4416246Y-10040360D01*
X4416246Y-10040360D02*
X4368626Y-10040360D01*
X4368626Y-10040360D02*
X4349579Y-10030837D01*
X4349579Y-10030837D02*
X4340055Y-10021313D01*
X4521007Y-9840360D02*
X4654341Y-9840360D01*
X4654341Y-9840360D02*
X4568626Y-10040360D01*
X4721007Y-9840360D02*
X4721007Y-9878456D01*
X4797198Y-9840360D02*
X4797198Y-9878456D01*
X5092436Y-10116551D02*
X5082912Y-10107027D01*
X5082912Y-10107027D02*
X5063865Y-10078456D01*
X5063865Y-10078456D02*
X5054341Y-10059408D01*
X5054341Y-10059408D02*
X5044817Y-10030837D01*
X5044817Y-10030837D02*
X5035293Y-9983217D01*
X5035293Y-9983217D02*
X5035293Y-9945122D01*
X5035293Y-9945122D02*
X5044817Y-9897503D01*
X5044817Y-9897503D02*
X5054341Y-9868932D01*
X5054341Y-9868932D02*
X5063865Y-9849884D01*
X5063865Y-9849884D02*
X5082912Y-9821313D01*
X5082912Y-9821313D02*
X5092436Y-9811789D01*
X5273388Y-10040360D02*
X5159103Y-10040360D01*
X5216246Y-10040360D02*
X5216246Y-9840360D01*
X5216246Y-9840360D02*
X5197198Y-9868932D01*
X5197198Y-9868932D02*
X5178150Y-9887979D01*
X5178150Y-9887979D02*
X5159103Y-9897503D01*
X5454341Y-9840360D02*
X5359103Y-9840360D01*
X5359103Y-9840360D02*
X5349579Y-9935598D01*
X5349579Y-9935598D02*
X5359103Y-9926075D01*
X5359103Y-9926075D02*
X5378150Y-9916551D01*
X5378150Y-9916551D02*
X5425769Y-9916551D01*
X5425769Y-9916551D02*
X5444817Y-9926075D01*
X5444817Y-9926075D02*
X5454341Y-9935598D01*
X5454341Y-9935598D02*
X5463865Y-9954646D01*
X5463865Y-9954646D02*
X5463865Y-10002265D01*
X5463865Y-10002265D02*
X5454341Y-10021313D01*
X5454341Y-10021313D02*
X5444817Y-10030837D01*
X5444817Y-10030837D02*
X5425769Y-10040360D01*
X5425769Y-10040360D02*
X5378150Y-10040360D01*
X5378150Y-10040360D02*
X5359103Y-10030837D01*
X5359103Y-10030837D02*
X5349579Y-10021313D01*
X5587674Y-9840360D02*
X5606722Y-9840360D01*
X5606722Y-9840360D02*
X5625769Y-9849884D01*
X5625769Y-9849884D02*
X5635293Y-9859408D01*
X5635293Y-9859408D02*
X5644817Y-9878456D01*
X5644817Y-9878456D02*
X5654341Y-9916551D01*
X5654341Y-9916551D02*
X5654341Y-9964170D01*
X5654341Y-9964170D02*
X5644817Y-10002265D01*
X5644817Y-10002265D02*
X5635293Y-10021313D01*
X5635293Y-10021313D02*
X5625769Y-10030837D01*
X5625769Y-10030837D02*
X5606722Y-10040360D01*
X5606722Y-10040360D02*
X5587674Y-10040360D01*
X5587674Y-10040360D02*
X5568627Y-10030837D01*
X5568627Y-10030837D02*
X5559103Y-10021313D01*
X5559103Y-10021313D02*
X5549579Y-10002265D01*
X5549579Y-10002265D02*
X5540055Y-9964170D01*
X5540055Y-9964170D02*
X5540055Y-9916551D01*
X5540055Y-9916551D02*
X5549579Y-9878456D01*
X5549579Y-9878456D02*
X5559103Y-9859408D01*
X5559103Y-9859408D02*
X5568627Y-9849884D01*
X5568627Y-9849884D02*
X5587674Y-9840360D01*
X5892436Y-10040360D02*
X5892436Y-9840360D01*
X5978150Y-10040360D02*
X5978150Y-9935598D01*
X5978150Y-9935598D02*
X5968627Y-9916551D01*
X5968627Y-9916551D02*
X5949579Y-9907027D01*
X5949579Y-9907027D02*
X5921007Y-9907027D01*
X5921007Y-9907027D02*
X5901960Y-9916551D01*
X5901960Y-9916551D02*
X5892436Y-9926075D01*
X6101960Y-10040360D02*
X6082912Y-10030837D01*
X6082912Y-10030837D02*
X6073388Y-10021313D01*
X6073388Y-10021313D02*
X6063865Y-10002265D01*
X6063865Y-10002265D02*
X6063865Y-9945122D01*
X6063865Y-9945122D02*
X6073388Y-9926075D01*
X6073388Y-9926075D02*
X6082912Y-9916551D01*
X6082912Y-9916551D02*
X6101960Y-9907027D01*
X6101960Y-9907027D02*
X6130531Y-9907027D01*
X6130531Y-9907027D02*
X6149579Y-9916551D01*
X6149579Y-9916551D02*
X6159103Y-9926075D01*
X6159103Y-9926075D02*
X6168627Y-9945122D01*
X6168627Y-9945122D02*
X6168627Y-10002265D01*
X6168627Y-10002265D02*
X6159103Y-10021313D01*
X6159103Y-10021313D02*
X6149579Y-10030837D01*
X6149579Y-10030837D02*
X6130531Y-10040360D01*
X6130531Y-10040360D02*
X6101960Y-10040360D01*
X6282912Y-10040360D02*
X6263865Y-10030837D01*
X6263865Y-10030837D02*
X6254341Y-10011789D01*
X6254341Y-10011789D02*
X6254341Y-9840360D01*
X6435293Y-10030837D02*
X6416246Y-10040360D01*
X6416246Y-10040360D02*
X6378150Y-10040360D01*
X6378150Y-10040360D02*
X6359103Y-10030837D01*
X6359103Y-10030837D02*
X6349579Y-10011789D01*
X6349579Y-10011789D02*
X6349579Y-9935598D01*
X6349579Y-9935598D02*
X6359103Y-9916551D01*
X6359103Y-9916551D02*
X6378150Y-9907027D01*
X6378150Y-9907027D02*
X6416246Y-9907027D01*
X6416246Y-9907027D02*
X6435293Y-9916551D01*
X6435293Y-9916551D02*
X6444817Y-9935598D01*
X6444817Y-9935598D02*
X6444817Y-9954646D01*
X6444817Y-9954646D02*
X6349579Y-9973694D01*
X6521008Y-10030837D02*
X6540055Y-10040360D01*
X6540055Y-10040360D02*
X6578150Y-10040360D01*
X6578150Y-10040360D02*
X6597198Y-10030837D01*
X6597198Y-10030837D02*
X6606722Y-10011789D01*
X6606722Y-10011789D02*
X6606722Y-10002265D01*
X6606722Y-10002265D02*
X6597198Y-9983217D01*
X6597198Y-9983217D02*
X6578150Y-9973694D01*
X6578150Y-9973694D02*
X6549579Y-9973694D01*
X6549579Y-9973694D02*
X6530531Y-9964170D01*
X6530531Y-9964170D02*
X6521008Y-9945122D01*
X6521008Y-9945122D02*
X6521008Y-9935598D01*
X6521008Y-9935598D02*
X6530531Y-9916551D01*
X6530531Y-9916551D02*
X6549579Y-9907027D01*
X6549579Y-9907027D02*
X6578150Y-9907027D01*
X6578150Y-9907027D02*
X6597198Y-9916551D01*
X6673389Y-10116551D02*
X6682912Y-10107027D01*
X6682912Y-10107027D02*
X6701960Y-10078456D01*
X6701960Y-10078456D02*
X6711484Y-10059408D01*
X6711484Y-10059408D02*
X6721008Y-10030837D01*
X6721008Y-10030837D02*
X6730531Y-9983217D01*
X6730531Y-9983217D02*
X6730531Y-9945122D01*
X6730531Y-9945122D02*
X6721008Y-9897503D01*
X6721008Y-9897503D02*
X6711484Y-9868932D01*
X6711484Y-9868932D02*
X6701960Y-9849884D01*
X6701960Y-9849884D02*
X6682912Y-9821313D01*
X6682912Y-9821313D02*
X6673389Y-9811789D01*
D12*
X1530531Y-10211837D02*
G75*
G03*
X1530531Y-10211837I-50000J0D01*
G01*
D10*
X1882912Y-10304360D02*
X1768626Y-10304360D01*
X1825769Y-10304360D02*
X1825769Y-10104360D01*
X1825769Y-10104360D02*
X1806721Y-10132932D01*
X1806721Y-10132932D02*
X1787674Y-10151979D01*
X1787674Y-10151979D02*
X1768626Y-10161503D01*
X1968626Y-10285313D02*
X1978150Y-10294837D01*
X1978150Y-10294837D02*
X1968626Y-10304360D01*
X1968626Y-10304360D02*
X1959102Y-10294837D01*
X1959102Y-10294837D02*
X1968626Y-10285313D01*
X1968626Y-10285313D02*
X1968626Y-10304360D01*
X2101960Y-10104360D02*
X2121007Y-10104360D01*
X2121007Y-10104360D02*
X2140055Y-10113884D01*
X2140055Y-10113884D02*
X2149579Y-10123408D01*
X2149579Y-10123408D02*
X2159102Y-10142456D01*
X2159102Y-10142456D02*
X2168626Y-10180551D01*
X2168626Y-10180551D02*
X2168626Y-10228170D01*
X2168626Y-10228170D02*
X2159102Y-10266265D01*
X2159102Y-10266265D02*
X2149579Y-10285313D01*
X2149579Y-10285313D02*
X2140055Y-10294837D01*
X2140055Y-10294837D02*
X2121007Y-10304360D01*
X2121007Y-10304360D02*
X2101960Y-10304360D01*
X2101960Y-10304360D02*
X2082912Y-10294837D01*
X2082912Y-10294837D02*
X2073388Y-10285313D01*
X2073388Y-10285313D02*
X2063864Y-10266265D01*
X2063864Y-10266265D02*
X2054340Y-10228170D01*
X2054340Y-10228170D02*
X2054340Y-10180551D01*
X2054340Y-10180551D02*
X2063864Y-10142456D01*
X2063864Y-10142456D02*
X2073388Y-10123408D01*
X2073388Y-10123408D02*
X2082912Y-10113884D01*
X2082912Y-10113884D02*
X2101960Y-10104360D01*
X2292436Y-10104360D02*
X2311483Y-10104360D01*
X2311483Y-10104360D02*
X2330531Y-10113884D01*
X2330531Y-10113884D02*
X2340055Y-10123408D01*
X2340055Y-10123408D02*
X2349579Y-10142456D01*
X2349579Y-10142456D02*
X2359102Y-10180551D01*
X2359102Y-10180551D02*
X2359102Y-10228170D01*
X2359102Y-10228170D02*
X2349579Y-10266265D01*
X2349579Y-10266265D02*
X2340055Y-10285313D01*
X2340055Y-10285313D02*
X2330531Y-10294837D01*
X2330531Y-10294837D02*
X2311483Y-10304360D01*
X2311483Y-10304360D02*
X2292436Y-10304360D01*
X2292436Y-10304360D02*
X2273388Y-10294837D01*
X2273388Y-10294837D02*
X2263864Y-10285313D01*
X2263864Y-10285313D02*
X2254341Y-10266265D01*
X2254341Y-10266265D02*
X2244817Y-10228170D01*
X2244817Y-10228170D02*
X2244817Y-10180551D01*
X2244817Y-10180551D02*
X2254341Y-10142456D01*
X2254341Y-10142456D02*
X2263864Y-10123408D01*
X2263864Y-10123408D02*
X2273388Y-10113884D01*
X2273388Y-10113884D02*
X2292436Y-10104360D01*
X2482912Y-10104360D02*
X2501960Y-10104360D01*
X2501960Y-10104360D02*
X2521007Y-10113884D01*
X2521007Y-10113884D02*
X2530531Y-10123408D01*
X2530531Y-10123408D02*
X2540055Y-10142456D01*
X2540055Y-10142456D02*
X2549579Y-10180551D01*
X2549579Y-10180551D02*
X2549579Y-10228170D01*
X2549579Y-10228170D02*
X2540055Y-10266265D01*
X2540055Y-10266265D02*
X2530531Y-10285313D01*
X2530531Y-10285313D02*
X2521007Y-10294837D01*
X2521007Y-10294837D02*
X2501960Y-10304360D01*
X2501960Y-10304360D02*
X2482912Y-10304360D01*
X2482912Y-10304360D02*
X2463864Y-10294837D01*
X2463864Y-10294837D02*
X2454341Y-10285313D01*
X2454341Y-10285313D02*
X2444817Y-10266265D01*
X2444817Y-10266265D02*
X2435293Y-10228170D01*
X2435293Y-10228170D02*
X2435293Y-10180551D01*
X2435293Y-10180551D02*
X2444817Y-10142456D01*
X2444817Y-10142456D02*
X2454341Y-10123408D01*
X2454341Y-10123408D02*
X2463864Y-10113884D01*
X2463864Y-10113884D02*
X2482912Y-10104360D01*
X2635293Y-10304360D02*
X2635293Y-10171027D01*
X2635293Y-10190075D02*
X2644817Y-10180551D01*
X2644817Y-10180551D02*
X2663864Y-10171027D01*
X2663864Y-10171027D02*
X2692436Y-10171027D01*
X2692436Y-10171027D02*
X2711483Y-10180551D01*
X2711483Y-10180551D02*
X2721007Y-10199598D01*
X2721007Y-10199598D02*
X2721007Y-10304360D01*
X2721007Y-10199598D02*
X2730531Y-10180551D01*
X2730531Y-10180551D02*
X2749579Y-10171027D01*
X2749579Y-10171027D02*
X2778150Y-10171027D01*
X2778150Y-10171027D02*
X2797198Y-10180551D01*
X2797198Y-10180551D02*
X2806721Y-10199598D01*
X2806721Y-10199598D02*
X2806721Y-10304360D01*
X2901960Y-10304360D02*
X2901960Y-10171027D01*
X2901960Y-10190075D02*
X2911483Y-10180551D01*
X2911483Y-10180551D02*
X2930531Y-10171027D01*
X2930531Y-10171027D02*
X2959102Y-10171027D01*
X2959102Y-10171027D02*
X2978150Y-10180551D01*
X2978150Y-10180551D02*
X2987674Y-10199598D01*
X2987674Y-10199598D02*
X2987674Y-10304360D01*
X2987674Y-10199598D02*
X2997198Y-10180551D01*
X2997198Y-10180551D02*
X3016245Y-10171027D01*
X3016245Y-10171027D02*
X3044817Y-10171027D01*
X3044817Y-10171027D02*
X3063864Y-10180551D01*
X3063864Y-10180551D02*
X3073388Y-10199598D01*
X3073388Y-10199598D02*
X3073388Y-10304360D01*
X3463864Y-10094837D02*
X3292436Y-10351979D01*
X3721007Y-10104360D02*
X3740055Y-10104360D01*
X3740055Y-10104360D02*
X3759103Y-10113884D01*
X3759103Y-10113884D02*
X3768626Y-10123408D01*
X3768626Y-10123408D02*
X3778150Y-10142456D01*
X3778150Y-10142456D02*
X3787674Y-10180551D01*
X3787674Y-10180551D02*
X3787674Y-10228170D01*
X3787674Y-10228170D02*
X3778150Y-10266265D01*
X3778150Y-10266265D02*
X3768626Y-10285313D01*
X3768626Y-10285313D02*
X3759103Y-10294837D01*
X3759103Y-10294837D02*
X3740055Y-10304360D01*
X3740055Y-10304360D02*
X3721007Y-10304360D01*
X3721007Y-10304360D02*
X3701960Y-10294837D01*
X3701960Y-10294837D02*
X3692436Y-10285313D01*
X3692436Y-10285313D02*
X3682912Y-10266265D01*
X3682912Y-10266265D02*
X3673388Y-10228170D01*
X3673388Y-10228170D02*
X3673388Y-10180551D01*
X3673388Y-10180551D02*
X3682912Y-10142456D01*
X3682912Y-10142456D02*
X3692436Y-10123408D01*
X3692436Y-10123408D02*
X3701960Y-10113884D01*
X3701960Y-10113884D02*
X3721007Y-10104360D01*
X3873388Y-10285313D02*
X3882912Y-10294837D01*
X3882912Y-10294837D02*
X3873388Y-10304360D01*
X3873388Y-10304360D02*
X3863864Y-10294837D01*
X3863864Y-10294837D02*
X3873388Y-10285313D01*
X3873388Y-10285313D02*
X3873388Y-10304360D01*
X4006722Y-10104360D02*
X4025769Y-10104360D01*
X4025769Y-10104360D02*
X4044817Y-10113884D01*
X4044817Y-10113884D02*
X4054341Y-10123408D01*
X4054341Y-10123408D02*
X4063864Y-10142456D01*
X4063864Y-10142456D02*
X4073388Y-10180551D01*
X4073388Y-10180551D02*
X4073388Y-10228170D01*
X4073388Y-10228170D02*
X4063864Y-10266265D01*
X4063864Y-10266265D02*
X4054341Y-10285313D01*
X4054341Y-10285313D02*
X4044817Y-10294837D01*
X4044817Y-10294837D02*
X4025769Y-10304360D01*
X4025769Y-10304360D02*
X4006722Y-10304360D01*
X4006722Y-10304360D02*
X3987674Y-10294837D01*
X3987674Y-10294837D02*
X3978150Y-10285313D01*
X3978150Y-10285313D02*
X3968626Y-10266265D01*
X3968626Y-10266265D02*
X3959103Y-10228170D01*
X3959103Y-10228170D02*
X3959103Y-10180551D01*
X3959103Y-10180551D02*
X3968626Y-10142456D01*
X3968626Y-10142456D02*
X3978150Y-10123408D01*
X3978150Y-10123408D02*
X3987674Y-10113884D01*
X3987674Y-10113884D02*
X4006722Y-10104360D01*
X4140055Y-10104360D02*
X4263865Y-10104360D01*
X4263865Y-10104360D02*
X4197198Y-10180551D01*
X4197198Y-10180551D02*
X4225769Y-10180551D01*
X4225769Y-10180551D02*
X4244817Y-10190075D01*
X4244817Y-10190075D02*
X4254341Y-10199598D01*
X4254341Y-10199598D02*
X4263865Y-10218646D01*
X4263865Y-10218646D02*
X4263865Y-10266265D01*
X4263865Y-10266265D02*
X4254341Y-10285313D01*
X4254341Y-10285313D02*
X4244817Y-10294837D01*
X4244817Y-10294837D02*
X4225769Y-10304360D01*
X4225769Y-10304360D02*
X4168626Y-10304360D01*
X4168626Y-10304360D02*
X4149579Y-10294837D01*
X4149579Y-10294837D02*
X4140055Y-10285313D01*
X4359103Y-10304360D02*
X4397198Y-10304360D01*
X4397198Y-10304360D02*
X4416246Y-10294837D01*
X4416246Y-10294837D02*
X4425769Y-10285313D01*
X4425769Y-10285313D02*
X4444817Y-10256741D01*
X4444817Y-10256741D02*
X4454341Y-10218646D01*
X4454341Y-10218646D02*
X4454341Y-10142456D01*
X4454341Y-10142456D02*
X4444817Y-10123408D01*
X4444817Y-10123408D02*
X4435293Y-10113884D01*
X4435293Y-10113884D02*
X4416246Y-10104360D01*
X4416246Y-10104360D02*
X4378150Y-10104360D01*
X4378150Y-10104360D02*
X4359103Y-10113884D01*
X4359103Y-10113884D02*
X4349579Y-10123408D01*
X4349579Y-10123408D02*
X4340055Y-10142456D01*
X4340055Y-10142456D02*
X4340055Y-10190075D01*
X4340055Y-10190075D02*
X4349579Y-10209122D01*
X4349579Y-10209122D02*
X4359103Y-10218646D01*
X4359103Y-10218646D02*
X4378150Y-10228170D01*
X4378150Y-10228170D02*
X4416246Y-10228170D01*
X4416246Y-10228170D02*
X4435293Y-10218646D01*
X4435293Y-10218646D02*
X4444817Y-10209122D01*
X4444817Y-10209122D02*
X4454341Y-10190075D01*
X4625769Y-10171027D02*
X4625769Y-10304360D01*
X4578150Y-10094837D02*
X4530531Y-10237694D01*
X4530531Y-10237694D02*
X4654341Y-10237694D01*
X4721007Y-10104360D02*
X4721007Y-10142456D01*
X4797198Y-10104360D02*
X4797198Y-10142456D01*
X5092436Y-10380551D02*
X5082912Y-10371027D01*
X5082912Y-10371027D02*
X5063865Y-10342456D01*
X5063865Y-10342456D02*
X5054341Y-10323408D01*
X5054341Y-10323408D02*
X5044817Y-10294837D01*
X5044817Y-10294837D02*
X5035293Y-10247217D01*
X5035293Y-10247217D02*
X5035293Y-10209122D01*
X5035293Y-10209122D02*
X5044817Y-10161503D01*
X5044817Y-10161503D02*
X5054341Y-10132932D01*
X5054341Y-10132932D02*
X5063865Y-10113884D01*
X5063865Y-10113884D02*
X5082912Y-10085313D01*
X5082912Y-10085313D02*
X5092436Y-10075789D01*
X5159103Y-10123408D02*
X5168627Y-10113884D01*
X5168627Y-10113884D02*
X5187674Y-10104360D01*
X5187674Y-10104360D02*
X5235293Y-10104360D01*
X5235293Y-10104360D02*
X5254341Y-10113884D01*
X5254341Y-10113884D02*
X5263865Y-10123408D01*
X5263865Y-10123408D02*
X5273388Y-10142456D01*
X5273388Y-10142456D02*
X5273388Y-10161503D01*
X5273388Y-10161503D02*
X5263865Y-10190075D01*
X5263865Y-10190075D02*
X5149579Y-10304360D01*
X5149579Y-10304360D02*
X5273388Y-10304360D01*
X5444817Y-10171027D02*
X5444817Y-10304360D01*
X5397198Y-10094837D02*
X5349579Y-10237694D01*
X5349579Y-10237694D02*
X5473388Y-10237694D01*
X5701960Y-10304360D02*
X5701960Y-10104360D01*
X5787674Y-10304360D02*
X5787674Y-10199598D01*
X5787674Y-10199598D02*
X5778150Y-10180551D01*
X5778150Y-10180551D02*
X5759103Y-10171027D01*
X5759103Y-10171027D02*
X5730531Y-10171027D01*
X5730531Y-10171027D02*
X5711484Y-10180551D01*
X5711484Y-10180551D02*
X5701960Y-10190075D01*
X5911484Y-10304360D02*
X5892436Y-10294837D01*
X5892436Y-10294837D02*
X5882912Y-10285313D01*
X5882912Y-10285313D02*
X5873388Y-10266265D01*
X5873388Y-10266265D02*
X5873388Y-10209122D01*
X5873388Y-10209122D02*
X5882912Y-10190075D01*
X5882912Y-10190075D02*
X5892436Y-10180551D01*
X5892436Y-10180551D02*
X5911484Y-10171027D01*
X5911484Y-10171027D02*
X5940055Y-10171027D01*
X5940055Y-10171027D02*
X5959103Y-10180551D01*
X5959103Y-10180551D02*
X5968627Y-10190075D01*
X5968627Y-10190075D02*
X5978150Y-10209122D01*
X5978150Y-10209122D02*
X5978150Y-10266265D01*
X5978150Y-10266265D02*
X5968627Y-10285313D01*
X5968627Y-10285313D02*
X5959103Y-10294837D01*
X5959103Y-10294837D02*
X5940055Y-10304360D01*
X5940055Y-10304360D02*
X5911484Y-10304360D01*
X6092436Y-10304360D02*
X6073388Y-10294837D01*
X6073388Y-10294837D02*
X6063865Y-10275789D01*
X6063865Y-10275789D02*
X6063865Y-10104360D01*
X6244817Y-10294837D02*
X6225769Y-10304360D01*
X6225769Y-10304360D02*
X6187674Y-10304360D01*
X6187674Y-10304360D02*
X6168627Y-10294837D01*
X6168627Y-10294837D02*
X6159103Y-10275789D01*
X6159103Y-10275789D02*
X6159103Y-10199598D01*
X6159103Y-10199598D02*
X6168627Y-10180551D01*
X6168627Y-10180551D02*
X6187674Y-10171027D01*
X6187674Y-10171027D02*
X6225769Y-10171027D01*
X6225769Y-10171027D02*
X6244817Y-10180551D01*
X6244817Y-10180551D02*
X6254341Y-10199598D01*
X6254341Y-10199598D02*
X6254341Y-10218646D01*
X6254341Y-10218646D02*
X6159103Y-10237694D01*
X6330531Y-10294837D02*
X6349579Y-10304360D01*
X6349579Y-10304360D02*
X6387674Y-10304360D01*
X6387674Y-10304360D02*
X6406722Y-10294837D01*
X6406722Y-10294837D02*
X6416246Y-10275789D01*
X6416246Y-10275789D02*
X6416246Y-10266265D01*
X6416246Y-10266265D02*
X6406722Y-10247217D01*
X6406722Y-10247217D02*
X6387674Y-10237694D01*
X6387674Y-10237694D02*
X6359103Y-10237694D01*
X6359103Y-10237694D02*
X6340055Y-10228170D01*
X6340055Y-10228170D02*
X6330531Y-10209122D01*
X6330531Y-10209122D02*
X6330531Y-10199598D01*
X6330531Y-10199598D02*
X6340055Y-10180551D01*
X6340055Y-10180551D02*
X6359103Y-10171027D01*
X6359103Y-10171027D02*
X6387674Y-10171027D01*
X6387674Y-10171027D02*
X6406722Y-10180551D01*
X6482912Y-10380551D02*
X6492436Y-10371027D01*
X6492436Y-10371027D02*
X6511484Y-10342456D01*
X6511484Y-10342456D02*
X6521008Y-10323408D01*
X6521008Y-10323408D02*
X6530531Y-10294837D01*
X6530531Y-10294837D02*
X6540055Y-10247217D01*
X6540055Y-10247217D02*
X6540055Y-10209122D01*
X6540055Y-10209122D02*
X6530531Y-10161503D01*
X6530531Y-10161503D02*
X6521008Y-10132932D01*
X6521008Y-10132932D02*
X6511484Y-10113884D01*
X6511484Y-10113884D02*
X6492436Y-10085313D01*
X6492436Y-10085313D02*
X6482912Y-10075789D01*
X1430531Y-10375837D02*
X1430531Y-10575837D01*
X1330531Y-10475837D02*
X1530531Y-10475837D01*
X1768626Y-10387408D02*
X1778150Y-10377884D01*
X1778150Y-10377884D02*
X1797198Y-10368360D01*
X1797198Y-10368360D02*
X1844817Y-10368360D01*
X1844817Y-10368360D02*
X1863864Y-10377884D01*
X1863864Y-10377884D02*
X1873388Y-10387408D01*
X1873388Y-10387408D02*
X1882912Y-10406456D01*
X1882912Y-10406456D02*
X1882912Y-10425503D01*
X1882912Y-10425503D02*
X1873388Y-10454075D01*
X1873388Y-10454075D02*
X1759102Y-10568360D01*
X1759102Y-10568360D02*
X1882912Y-10568360D01*
X1968626Y-10549313D02*
X1978150Y-10558837D01*
X1978150Y-10558837D02*
X1968626Y-10568360D01*
X1968626Y-10568360D02*
X1959102Y-10558837D01*
X1959102Y-10558837D02*
X1968626Y-10549313D01*
X1968626Y-10549313D02*
X1968626Y-10568360D01*
X2054340Y-10387408D02*
X2063864Y-10377884D01*
X2063864Y-10377884D02*
X2082912Y-10368360D01*
X2082912Y-10368360D02*
X2130531Y-10368360D01*
X2130531Y-10368360D02*
X2149579Y-10377884D01*
X2149579Y-10377884D02*
X2159102Y-10387408D01*
X2159102Y-10387408D02*
X2168626Y-10406456D01*
X2168626Y-10406456D02*
X2168626Y-10425503D01*
X2168626Y-10425503D02*
X2159102Y-10454075D01*
X2159102Y-10454075D02*
X2044817Y-10568360D01*
X2044817Y-10568360D02*
X2168626Y-10568360D01*
X2292436Y-10368360D02*
X2311483Y-10368360D01*
X2311483Y-10368360D02*
X2330531Y-10377884D01*
X2330531Y-10377884D02*
X2340055Y-10387408D01*
X2340055Y-10387408D02*
X2349579Y-10406456D01*
X2349579Y-10406456D02*
X2359102Y-10444551D01*
X2359102Y-10444551D02*
X2359102Y-10492170D01*
X2359102Y-10492170D02*
X2349579Y-10530265D01*
X2349579Y-10530265D02*
X2340055Y-10549313D01*
X2340055Y-10549313D02*
X2330531Y-10558837D01*
X2330531Y-10558837D02*
X2311483Y-10568360D01*
X2311483Y-10568360D02*
X2292436Y-10568360D01*
X2292436Y-10568360D02*
X2273388Y-10558837D01*
X2273388Y-10558837D02*
X2263864Y-10549313D01*
X2263864Y-10549313D02*
X2254341Y-10530265D01*
X2254341Y-10530265D02*
X2244817Y-10492170D01*
X2244817Y-10492170D02*
X2244817Y-10444551D01*
X2244817Y-10444551D02*
X2254341Y-10406456D01*
X2254341Y-10406456D02*
X2263864Y-10387408D01*
X2263864Y-10387408D02*
X2273388Y-10377884D01*
X2273388Y-10377884D02*
X2292436Y-10368360D01*
X2482912Y-10368360D02*
X2501960Y-10368360D01*
X2501960Y-10368360D02*
X2521007Y-10377884D01*
X2521007Y-10377884D02*
X2530531Y-10387408D01*
X2530531Y-10387408D02*
X2540055Y-10406456D01*
X2540055Y-10406456D02*
X2549579Y-10444551D01*
X2549579Y-10444551D02*
X2549579Y-10492170D01*
X2549579Y-10492170D02*
X2540055Y-10530265D01*
X2540055Y-10530265D02*
X2530531Y-10549313D01*
X2530531Y-10549313D02*
X2521007Y-10558837D01*
X2521007Y-10558837D02*
X2501960Y-10568360D01*
X2501960Y-10568360D02*
X2482912Y-10568360D01*
X2482912Y-10568360D02*
X2463864Y-10558837D01*
X2463864Y-10558837D02*
X2454341Y-10549313D01*
X2454341Y-10549313D02*
X2444817Y-10530265D01*
X2444817Y-10530265D02*
X2435293Y-10492170D01*
X2435293Y-10492170D02*
X2435293Y-10444551D01*
X2435293Y-10444551D02*
X2444817Y-10406456D01*
X2444817Y-10406456D02*
X2454341Y-10387408D01*
X2454341Y-10387408D02*
X2463864Y-10377884D01*
X2463864Y-10377884D02*
X2482912Y-10368360D01*
X2635293Y-10568360D02*
X2635293Y-10435027D01*
X2635293Y-10454075D02*
X2644817Y-10444551D01*
X2644817Y-10444551D02*
X2663864Y-10435027D01*
X2663864Y-10435027D02*
X2692436Y-10435027D01*
X2692436Y-10435027D02*
X2711483Y-10444551D01*
X2711483Y-10444551D02*
X2721007Y-10463598D01*
X2721007Y-10463598D02*
X2721007Y-10568360D01*
X2721007Y-10463598D02*
X2730531Y-10444551D01*
X2730531Y-10444551D02*
X2749579Y-10435027D01*
X2749579Y-10435027D02*
X2778150Y-10435027D01*
X2778150Y-10435027D02*
X2797198Y-10444551D01*
X2797198Y-10444551D02*
X2806721Y-10463598D01*
X2806721Y-10463598D02*
X2806721Y-10568360D01*
X2901960Y-10568360D02*
X2901960Y-10435027D01*
X2901960Y-10454075D02*
X2911483Y-10444551D01*
X2911483Y-10444551D02*
X2930531Y-10435027D01*
X2930531Y-10435027D02*
X2959102Y-10435027D01*
X2959102Y-10435027D02*
X2978150Y-10444551D01*
X2978150Y-10444551D02*
X2987674Y-10463598D01*
X2987674Y-10463598D02*
X2987674Y-10568360D01*
X2987674Y-10463598D02*
X2997198Y-10444551D01*
X2997198Y-10444551D02*
X3016245Y-10435027D01*
X3016245Y-10435027D02*
X3044817Y-10435027D01*
X3044817Y-10435027D02*
X3063864Y-10444551D01*
X3063864Y-10444551D02*
X3073388Y-10463598D01*
X3073388Y-10463598D02*
X3073388Y-10568360D01*
X3463864Y-10358837D02*
X3292436Y-10615979D01*
X3721007Y-10368360D02*
X3740055Y-10368360D01*
X3740055Y-10368360D02*
X3759103Y-10377884D01*
X3759103Y-10377884D02*
X3768626Y-10387408D01*
X3768626Y-10387408D02*
X3778150Y-10406456D01*
X3778150Y-10406456D02*
X3787674Y-10444551D01*
X3787674Y-10444551D02*
X3787674Y-10492170D01*
X3787674Y-10492170D02*
X3778150Y-10530265D01*
X3778150Y-10530265D02*
X3768626Y-10549313D01*
X3768626Y-10549313D02*
X3759103Y-10558837D01*
X3759103Y-10558837D02*
X3740055Y-10568360D01*
X3740055Y-10568360D02*
X3721007Y-10568360D01*
X3721007Y-10568360D02*
X3701960Y-10558837D01*
X3701960Y-10558837D02*
X3692436Y-10549313D01*
X3692436Y-10549313D02*
X3682912Y-10530265D01*
X3682912Y-10530265D02*
X3673388Y-10492170D01*
X3673388Y-10492170D02*
X3673388Y-10444551D01*
X3673388Y-10444551D02*
X3682912Y-10406456D01*
X3682912Y-10406456D02*
X3692436Y-10387408D01*
X3692436Y-10387408D02*
X3701960Y-10377884D01*
X3701960Y-10377884D02*
X3721007Y-10368360D01*
X3873388Y-10549313D02*
X3882912Y-10558837D01*
X3882912Y-10558837D02*
X3873388Y-10568360D01*
X3873388Y-10568360D02*
X3863864Y-10558837D01*
X3863864Y-10558837D02*
X3873388Y-10549313D01*
X3873388Y-10549313D02*
X3873388Y-10568360D01*
X4006722Y-10368360D02*
X4025769Y-10368360D01*
X4025769Y-10368360D02*
X4044817Y-10377884D01*
X4044817Y-10377884D02*
X4054341Y-10387408D01*
X4054341Y-10387408D02*
X4063864Y-10406456D01*
X4063864Y-10406456D02*
X4073388Y-10444551D01*
X4073388Y-10444551D02*
X4073388Y-10492170D01*
X4073388Y-10492170D02*
X4063864Y-10530265D01*
X4063864Y-10530265D02*
X4054341Y-10549313D01*
X4054341Y-10549313D02*
X4044817Y-10558837D01*
X4044817Y-10558837D02*
X4025769Y-10568360D01*
X4025769Y-10568360D02*
X4006722Y-10568360D01*
X4006722Y-10568360D02*
X3987674Y-10558837D01*
X3987674Y-10558837D02*
X3978150Y-10549313D01*
X3978150Y-10549313D02*
X3968626Y-10530265D01*
X3968626Y-10530265D02*
X3959103Y-10492170D01*
X3959103Y-10492170D02*
X3959103Y-10444551D01*
X3959103Y-10444551D02*
X3968626Y-10406456D01*
X3968626Y-10406456D02*
X3978150Y-10387408D01*
X3978150Y-10387408D02*
X3987674Y-10377884D01*
X3987674Y-10377884D02*
X4006722Y-10368360D01*
X4187674Y-10454075D02*
X4168626Y-10444551D01*
X4168626Y-10444551D02*
X4159103Y-10435027D01*
X4159103Y-10435027D02*
X4149579Y-10415979D01*
X4149579Y-10415979D02*
X4149579Y-10406456D01*
X4149579Y-10406456D02*
X4159103Y-10387408D01*
X4159103Y-10387408D02*
X4168626Y-10377884D01*
X4168626Y-10377884D02*
X4187674Y-10368360D01*
X4187674Y-10368360D02*
X4225769Y-10368360D01*
X4225769Y-10368360D02*
X4244817Y-10377884D01*
X4244817Y-10377884D02*
X4254341Y-10387408D01*
X4254341Y-10387408D02*
X4263865Y-10406456D01*
X4263865Y-10406456D02*
X4263865Y-10415979D01*
X4263865Y-10415979D02*
X4254341Y-10435027D01*
X4254341Y-10435027D02*
X4244817Y-10444551D01*
X4244817Y-10444551D02*
X4225769Y-10454075D01*
X4225769Y-10454075D02*
X4187674Y-10454075D01*
X4187674Y-10454075D02*
X4168626Y-10463598D01*
X4168626Y-10463598D02*
X4159103Y-10473122D01*
X4159103Y-10473122D02*
X4149579Y-10492170D01*
X4149579Y-10492170D02*
X4149579Y-10530265D01*
X4149579Y-10530265D02*
X4159103Y-10549313D01*
X4159103Y-10549313D02*
X4168626Y-10558837D01*
X4168626Y-10558837D02*
X4187674Y-10568360D01*
X4187674Y-10568360D02*
X4225769Y-10568360D01*
X4225769Y-10568360D02*
X4244817Y-10558837D01*
X4244817Y-10558837D02*
X4254341Y-10549313D01*
X4254341Y-10549313D02*
X4263865Y-10530265D01*
X4263865Y-10530265D02*
X4263865Y-10492170D01*
X4263865Y-10492170D02*
X4254341Y-10473122D01*
X4254341Y-10473122D02*
X4244817Y-10463598D01*
X4244817Y-10463598D02*
X4225769Y-10454075D01*
X4435293Y-10368360D02*
X4397198Y-10368360D01*
X4397198Y-10368360D02*
X4378150Y-10377884D01*
X4378150Y-10377884D02*
X4368626Y-10387408D01*
X4368626Y-10387408D02*
X4349579Y-10415979D01*
X4349579Y-10415979D02*
X4340055Y-10454075D01*
X4340055Y-10454075D02*
X4340055Y-10530265D01*
X4340055Y-10530265D02*
X4349579Y-10549313D01*
X4349579Y-10549313D02*
X4359103Y-10558837D01*
X4359103Y-10558837D02*
X4378150Y-10568360D01*
X4378150Y-10568360D02*
X4416246Y-10568360D01*
X4416246Y-10568360D02*
X4435293Y-10558837D01*
X4435293Y-10558837D02*
X4444817Y-10549313D01*
X4444817Y-10549313D02*
X4454341Y-10530265D01*
X4454341Y-10530265D02*
X4454341Y-10482646D01*
X4454341Y-10482646D02*
X4444817Y-10463598D01*
X4444817Y-10463598D02*
X4435293Y-10454075D01*
X4435293Y-10454075D02*
X4416246Y-10444551D01*
X4416246Y-10444551D02*
X4378150Y-10444551D01*
X4378150Y-10444551D02*
X4359103Y-10454075D01*
X4359103Y-10454075D02*
X4349579Y-10463598D01*
X4349579Y-10463598D02*
X4340055Y-10482646D01*
X4625769Y-10368360D02*
X4587674Y-10368360D01*
X4587674Y-10368360D02*
X4568626Y-10377884D01*
X4568626Y-10377884D02*
X4559103Y-10387408D01*
X4559103Y-10387408D02*
X4540055Y-10415979D01*
X4540055Y-10415979D02*
X4530531Y-10454075D01*
X4530531Y-10454075D02*
X4530531Y-10530265D01*
X4530531Y-10530265D02*
X4540055Y-10549313D01*
X4540055Y-10549313D02*
X4549579Y-10558837D01*
X4549579Y-10558837D02*
X4568626Y-10568360D01*
X4568626Y-10568360D02*
X4606722Y-10568360D01*
X4606722Y-10568360D02*
X4625769Y-10558837D01*
X4625769Y-10558837D02*
X4635293Y-10549313D01*
X4635293Y-10549313D02*
X4644817Y-10530265D01*
X4644817Y-10530265D02*
X4644817Y-10482646D01*
X4644817Y-10482646D02*
X4635293Y-10463598D01*
X4635293Y-10463598D02*
X4625769Y-10454075D01*
X4625769Y-10454075D02*
X4606722Y-10444551D01*
X4606722Y-10444551D02*
X4568626Y-10444551D01*
X4568626Y-10444551D02*
X4549579Y-10454075D01*
X4549579Y-10454075D02*
X4540055Y-10463598D01*
X4540055Y-10463598D02*
X4530531Y-10482646D01*
X4721007Y-10368360D02*
X4721007Y-10406456D01*
X4797198Y-10368360D02*
X4797198Y-10406456D01*
X5092436Y-10644551D02*
X5082912Y-10635027D01*
X5082912Y-10635027D02*
X5063865Y-10606456D01*
X5063865Y-10606456D02*
X5054341Y-10587408D01*
X5054341Y-10587408D02*
X5044817Y-10558837D01*
X5044817Y-10558837D02*
X5035293Y-10511217D01*
X5035293Y-10511217D02*
X5035293Y-10473122D01*
X5035293Y-10473122D02*
X5044817Y-10425503D01*
X5044817Y-10425503D02*
X5054341Y-10396932D01*
X5054341Y-10396932D02*
X5063865Y-10377884D01*
X5063865Y-10377884D02*
X5082912Y-10349313D01*
X5082912Y-10349313D02*
X5092436Y-10339789D01*
X5197198Y-10454075D02*
X5178150Y-10444551D01*
X5178150Y-10444551D02*
X5168627Y-10435027D01*
X5168627Y-10435027D02*
X5159103Y-10415979D01*
X5159103Y-10415979D02*
X5159103Y-10406456D01*
X5159103Y-10406456D02*
X5168627Y-10387408D01*
X5168627Y-10387408D02*
X5178150Y-10377884D01*
X5178150Y-10377884D02*
X5197198Y-10368360D01*
X5197198Y-10368360D02*
X5235293Y-10368360D01*
X5235293Y-10368360D02*
X5254341Y-10377884D01*
X5254341Y-10377884D02*
X5263865Y-10387408D01*
X5263865Y-10387408D02*
X5273388Y-10406456D01*
X5273388Y-10406456D02*
X5273388Y-10415979D01*
X5273388Y-10415979D02*
X5263865Y-10435027D01*
X5263865Y-10435027D02*
X5254341Y-10444551D01*
X5254341Y-10444551D02*
X5235293Y-10454075D01*
X5235293Y-10454075D02*
X5197198Y-10454075D01*
X5197198Y-10454075D02*
X5178150Y-10463598D01*
X5178150Y-10463598D02*
X5168627Y-10473122D01*
X5168627Y-10473122D02*
X5159103Y-10492170D01*
X5159103Y-10492170D02*
X5159103Y-10530265D01*
X5159103Y-10530265D02*
X5168627Y-10549313D01*
X5168627Y-10549313D02*
X5178150Y-10558837D01*
X5178150Y-10558837D02*
X5197198Y-10568360D01*
X5197198Y-10568360D02*
X5235293Y-10568360D01*
X5235293Y-10568360D02*
X5254341Y-10558837D01*
X5254341Y-10558837D02*
X5263865Y-10549313D01*
X5263865Y-10549313D02*
X5273388Y-10530265D01*
X5273388Y-10530265D02*
X5273388Y-10492170D01*
X5273388Y-10492170D02*
X5263865Y-10473122D01*
X5263865Y-10473122D02*
X5254341Y-10463598D01*
X5254341Y-10463598D02*
X5235293Y-10454075D01*
X5511484Y-10568360D02*
X5511484Y-10368360D01*
X5597198Y-10568360D02*
X5597198Y-10463598D01*
X5597198Y-10463598D02*
X5587674Y-10444551D01*
X5587674Y-10444551D02*
X5568627Y-10435027D01*
X5568627Y-10435027D02*
X5540055Y-10435027D01*
X5540055Y-10435027D02*
X5521008Y-10444551D01*
X5521008Y-10444551D02*
X5511484Y-10454075D01*
X5721007Y-10568360D02*
X5701960Y-10558837D01*
X5701960Y-10558837D02*
X5692436Y-10549313D01*
X5692436Y-10549313D02*
X5682912Y-10530265D01*
X5682912Y-10530265D02*
X5682912Y-10473122D01*
X5682912Y-10473122D02*
X5692436Y-10454075D01*
X5692436Y-10454075D02*
X5701960Y-10444551D01*
X5701960Y-10444551D02*
X5721007Y-10435027D01*
X5721007Y-10435027D02*
X5749579Y-10435027D01*
X5749579Y-10435027D02*
X5768627Y-10444551D01*
X5768627Y-10444551D02*
X5778150Y-10454075D01*
X5778150Y-10454075D02*
X5787674Y-10473122D01*
X5787674Y-10473122D02*
X5787674Y-10530265D01*
X5787674Y-10530265D02*
X5778150Y-10549313D01*
X5778150Y-10549313D02*
X5768627Y-10558837D01*
X5768627Y-10558837D02*
X5749579Y-10568360D01*
X5749579Y-10568360D02*
X5721007Y-10568360D01*
X5901960Y-10568360D02*
X5882912Y-10558837D01*
X5882912Y-10558837D02*
X5873388Y-10539789D01*
X5873388Y-10539789D02*
X5873388Y-10368360D01*
X6054341Y-10558837D02*
X6035293Y-10568360D01*
X6035293Y-10568360D02*
X5997198Y-10568360D01*
X5997198Y-10568360D02*
X5978150Y-10558837D01*
X5978150Y-10558837D02*
X5968627Y-10539789D01*
X5968627Y-10539789D02*
X5968627Y-10463598D01*
X5968627Y-10463598D02*
X5978150Y-10444551D01*
X5978150Y-10444551D02*
X5997198Y-10435027D01*
X5997198Y-10435027D02*
X6035293Y-10435027D01*
X6035293Y-10435027D02*
X6054341Y-10444551D01*
X6054341Y-10444551D02*
X6063865Y-10463598D01*
X6063865Y-10463598D02*
X6063865Y-10482646D01*
X6063865Y-10482646D02*
X5968627Y-10501694D01*
X6140055Y-10558837D02*
X6159103Y-10568360D01*
X6159103Y-10568360D02*
X6197198Y-10568360D01*
X6197198Y-10568360D02*
X6216246Y-10558837D01*
X6216246Y-10558837D02*
X6225769Y-10539789D01*
X6225769Y-10539789D02*
X6225769Y-10530265D01*
X6225769Y-10530265D02*
X6216246Y-10511217D01*
X6216246Y-10511217D02*
X6197198Y-10501694D01*
X6197198Y-10501694D02*
X6168627Y-10501694D01*
X6168627Y-10501694D02*
X6149579Y-10492170D01*
X6149579Y-10492170D02*
X6140055Y-10473122D01*
X6140055Y-10473122D02*
X6140055Y-10463598D01*
X6140055Y-10463598D02*
X6149579Y-10444551D01*
X6149579Y-10444551D02*
X6168627Y-10435027D01*
X6168627Y-10435027D02*
X6197198Y-10435027D01*
X6197198Y-10435027D02*
X6216246Y-10444551D01*
X6292436Y-10644551D02*
X6301960Y-10635027D01*
X6301960Y-10635027D02*
X6321008Y-10606456D01*
X6321008Y-10606456D02*
X6330531Y-10587408D01*
X6330531Y-10587408D02*
X6340055Y-10558837D01*
X6340055Y-10558837D02*
X6349579Y-10511217D01*
X6349579Y-10511217D02*
X6349579Y-10473122D01*
X6349579Y-10473122D02*
X6340055Y-10425503D01*
X6340055Y-10425503D02*
X6330531Y-10396932D01*
X6330531Y-10396932D02*
X6321008Y-10377884D01*
X6321008Y-10377884D02*
X6301960Y-10349313D01*
X6301960Y-10349313D02*
X6292436Y-10339789D01*
M02*
