M48
; DRILL file {KiCad 7.0.1-0} date 2023 April 11, Tuesday 18:10:35
; FORMAT={-:-/ absolute / metric / decimal}
; #@! TF.CreationDate,2023-04-11T18:10:35+09:00
; #@! TF.GenerationSoftware,Kicad,Pcbnew,7.0.1-0
; #@! TF.FileFunction,Plated,1,2,PTH
FMAT,2
METRIC
; #@! TA.AperFunction,Plated,PTH,ViaDrill
T1C0.400
; #@! TA.AperFunction,Plated,PTH,ComponentDrill
T2C1.000
; #@! TA.AperFunction,Plated,PTH,ComponentDrill
T3C2.200
%
G90
G05
T1
X16.629Y-19.002
X16.629Y-34.496
X27.043Y-25.511
X34.155Y-18.669
X34.155Y-35.004
X53.205Y-18.669
X53.205Y-35.004
X67.4Y-24.8
X72.255Y-35.004
X73.446Y-18.669
X91.305Y-18.669
X91.305Y-35.004
X110.355Y-18.669
X110.355Y-25.606
X110.355Y-35.004
X122.262Y-36.528
X122.262Y-53.197
X122.3Y-46.0
X125.705Y-31.378
X126.103Y-18.669
X126.505Y-30.578
X127.2Y-34.242
X127.505Y-30.478
X128.379Y-38.296
X129.151Y-28.273
X131.845Y-24.463
X132.707Y-18.669
X135.296Y-32.464
X135.358Y-53.197
X137.787Y-46.085
X139.3Y-21.1
X140.581Y-31.956
X142.502Y-53.197
X146.9Y-39.7
X148.455Y-18.669
X150.964Y-48.478
X150.995Y-34.75
X151.605Y-47.678
X152.805Y-28.978
X156.605Y-21.378
X157.98Y-53.197
X161.905Y-34.278
X164.965Y-33.778
X167.205Y-24.578
X167.505Y-18.669
X171.953Y-31.826
X173.255Y-35.375
X173.458Y-53.197
X174.109Y-26.527
X179.505Y-43.478
X180.602Y-53.197
X182.7Y-28.8
X183.293Y-30.166
X183.3Y-18.669
X185.0Y-29.9
X185.8Y-23.9
X189.8Y-18.669
X193.667Y-44.91
X193.699Y-36.528
X193.699Y-53.197
X201.5Y-29.5
X203.7Y-30.4
X204.2Y-24.5
X205.605Y-18.669
X205.605Y-35.478
X213.0Y-21.1
X222.3Y-30.5
X224.3Y-24.5
X224.655Y-18.669
X224.655Y-35.004
X227.2Y-30.5
X236.1Y-30.5
X241.205Y-30.978
X243.705Y-18.7
X243.705Y-35.004
X252.1Y-21.2
X262.1Y-23.7
X262.755Y-18.669
X262.755Y-35.278
X268.805Y-30.978
X272.28Y-34.115
X281.805Y-18.669
X281.805Y-35.004
X291.965Y-31.078
X299.331Y-19.002
X299.331Y-34.496
T2
X34.155Y-21.05
X38.918Y-32.957
X42.49Y-32.957
X72.255Y-21.06
X91.305Y-21.05
X131.587Y-31.003
X131.587Y-35.003
X133.487Y-32.003
X133.487Y-34.003
X146.074Y-36.528
X146.455Y-29.375
X147.455Y-31.275
X148.455Y-21.05
X149.455Y-31.275
X149.646Y-36.528
X150.455Y-29.375
X165.505Y-29.375
X166.505Y-31.275
X167.505Y-21.003
X168.505Y-31.275
X169.505Y-29.375
X224.655Y-21.05
X262.755Y-21.05
X281.805Y-21.05
T3
X34.155Y-28.194
X91.305Y-28.194
X129.405Y-20.562
X138.93Y-52.007
X177.03Y-52.007
X186.555Y-20.562
X224.655Y-28.194
X281.805Y-28.194
T0
M30
