M48
; DRILL file {KiCad (6.0.10-0)} date 
; FORMAT={-:-/ absolute / metric / decimal}
; #@! TF.CreationDate,2023-02-16T10:13:11+09:00
; #@! TF.GenerationSoftware,Kicad,Pcbnew,(6.0.10-0)
; #@! TF.FileFunction,Plated,1,2,PTH
FMAT,2
METRIC
; #@! TA.AperFunction,Plated,PTH,ViaDrill
T1C0.400
; #@! TA.AperFunction,Plated,PTH,ComponentDrill
T2C1.000
; #@! TA.AperFunction,Plated,PTH,ComponentDrill
T3C1.470
; #@! TA.AperFunction,Plated,PTH,ComponentDrill
T4C2.200
%
G90
G05
T1
X16.296Y-19.86
X16.296Y-34.147
X17.487Y-18.669
X27.043Y-25.511
X34.155Y-18.669
X34.155Y-35.004
X35.933Y-22.209
X48.958Y-34.059
X53.205Y-18.669
X53.205Y-35.004
X53.524Y-33.275
X69.874Y-19.86
X72.255Y-35.004
X74.033Y-22.209
X74.637Y-19.86
X91.305Y-18.669
X91.305Y-35.004
X110.355Y-18.669
X110.355Y-35.004
X122.262Y-36.528
X122.262Y-53.197
X122.293Y-44.91
X127.024Y-18.669
X127.119Y-38.306
X127.881Y-35.004
X131.945Y-39.068
X134.168Y-18.669
X135.247Y-32.464
X135.358Y-53.197
X137.787Y-46.085
X139.565Y-21.447
X140.581Y-32.464
X142.502Y-53.197
X143.121Y-42.275
X143.375Y-21.447
X144.899Y-48.371
X146.169Y-39.735
X148.455Y-18.669
X150.964Y-49.927
X151.249Y-27.543
X151.593Y-49.132
X153.027Y-33.988
X155.313Y-21.955
X157.345Y-22.717
X157.98Y-48.371
X157.98Y-53.197
X161.917Y-33.988
X162.425Y-21.193
X163.695Y-29.321
X165.727Y-35.766
X167.505Y-18.669
X172.077Y-31.702
X172.077Y-48.371
X173.458Y-53.197
X174.109Y-26.527
X175.125Y-35.004
X175.887Y-45.672
X180.602Y-53.197
X182.237Y-29.321
X184.174Y-18.669
X187.571Y-30.083
X191.318Y-18.669
X193.667Y-44.91
X193.699Y-36.528
X193.699Y-53.197
X205.605Y-18.669
X205.605Y-35.004
X205.859Y-30.591
X222.623Y-30.591
X224.655Y-18.669
X224.655Y-35.004
X226.687Y-30.591
X236.339Y-30.591
X239.641Y-30.591
X243.197Y-31.353
X243.705Y-19.86
X243.705Y-35.004
X262.755Y-18.669
X262.755Y-35.004
X268.851Y-31.353
X272.28Y-34.115
X281.805Y-18.669
X281.805Y-35.004
X291.965Y-31.353
X298.474Y-18.669
X299.665Y-19.86
X299.665Y-34.147
T2
X34.155Y-21.06
X34.155Y-32.957
X53.205Y-21.05
X72.255Y-21.06
X91.305Y-21.06
X131.587Y-33.338
X131.587Y-37.338
X133.487Y-34.338
X133.487Y-36.338
X146.074Y-36.528
X146.455Y-30.375
X147.455Y-32.275
X148.455Y-21.06
X149.455Y-32.275
X149.646Y-36.528
X150.455Y-30.375
X165.505Y-30.375
X166.505Y-32.275
X167.505Y-21.003
X168.505Y-32.275
X169.505Y-30.375
X224.655Y-21.05
X262.755Y-21.05
X281.805Y-21.06
T3
X20.82Y-24.463
X27.17Y-21.923
X39.87Y-24.463
X46.22Y-21.923
X58.92Y-24.463
X65.27Y-21.923
X77.97Y-24.463
X84.32Y-21.923
X97.02Y-24.463
X103.37Y-21.923
X116.07Y-24.463
X122.42Y-21.923
X125.595Y-43.513
X131.945Y-40.973
X135.12Y-24.463
X141.47Y-21.923
X144.645Y-43.513
X150.995Y-40.973
X154.098Y-24.463
X160.448Y-21.923
X163.695Y-43.513
X170.045Y-40.973
X173.22Y-24.463
X179.57Y-21.923
X182.745Y-43.513
X189.095Y-40.973
X192.27Y-24.463
X198.62Y-21.923
X211.32Y-24.463
X217.67Y-21.923
X230.37Y-24.463
X236.72Y-21.923
X249.42Y-24.463
X255.77Y-21.923
X268.47Y-24.463
X274.82Y-21.923
X287.52Y-24.463
X293.87Y-21.923
T4
X34.155Y-28.194
X91.305Y-28.194
X130.596Y-20.562
X138.93Y-52.007
X177.03Y-52.007
X187.746Y-20.562
X224.655Y-28.194
X281.805Y-28.194
T0
M30
