G04 #@! TF.GenerationSoftware,KiCad,Pcbnew,(6.0.10-0)*
G04 #@! TF.CreationDate,2023-02-16T10:13:06+09:00*
G04 #@! TF.ProjectId,Sandy_Top,53616e64-795f-4546-9f70-2e6b69636164,v.0*
G04 #@! TF.SameCoordinates,Original*
G04 #@! TF.FileFunction,Soldermask,Top*
G04 #@! TF.FilePolarity,Negative*
%FSLAX46Y46*%
G04 Gerber Fmt 4.6, Leading zero omitted, Abs format (unit mm)*
G04 Created by KiCad (PCBNEW (6.0.10-0)) date 2023-02-16 10:13:06*
%MOMM*%
%LPD*%
G01*
G04 APERTURE LIST*
%ADD10C,4.387800*%
%ADD11C,2.150000*%
%ADD12O,2.100000X2.100000*%
%ADD13C,4.800000*%
%ADD14C,2.400000*%
G04 APERTURE END LIST*
D10*
X138930310Y-27003405D03*
D11*
X133850310Y-27003405D03*
X144010310Y-27003405D03*
D10*
X167505310Y-46053405D03*
D11*
X162425310Y-46053405D03*
X172585310Y-46053405D03*
D10*
X157908435Y-27003405D03*
D11*
X152828435Y-27003405D03*
X162988435Y-27003405D03*
D10*
X148455310Y-46053405D03*
D11*
X143375310Y-46053405D03*
X153535310Y-46053405D03*
D10*
X186555310Y-46053405D03*
D11*
X181475310Y-46053405D03*
X191635310Y-46053405D03*
D10*
X129405310Y-46053405D03*
D11*
X124325310Y-46053405D03*
X134485310Y-46053405D03*
D10*
X24630310Y-27003405D03*
D11*
X19550310Y-27003405D03*
X29710310Y-27003405D03*
D10*
X291330310Y-27003405D03*
D11*
X286250310Y-27003405D03*
X296410310Y-27003405D03*
D10*
X253230310Y-27003405D03*
D11*
X248150310Y-27003405D03*
X258310310Y-27003405D03*
D10*
X234180310Y-27003405D03*
D11*
X229100310Y-27003405D03*
X239260310Y-27003405D03*
D10*
X215130310Y-27003405D03*
D11*
X210050310Y-27003405D03*
X220210310Y-27003405D03*
D10*
X196080310Y-27003405D03*
D11*
X191000310Y-27003405D03*
X201160310Y-27003405D03*
D10*
X177030310Y-27003405D03*
D11*
X171950310Y-27003405D03*
X182110310Y-27003405D03*
D10*
X119880310Y-27003405D03*
D11*
X114800310Y-27003405D03*
X124960310Y-27003405D03*
D10*
X100830310Y-27003405D03*
D11*
X95750310Y-27003405D03*
X105910310Y-27003405D03*
D10*
X81780310Y-27003405D03*
D11*
X76700310Y-27003405D03*
X86860310Y-27003405D03*
D10*
X62730310Y-27003405D03*
D11*
X57650310Y-27003405D03*
X67810310Y-27003405D03*
D10*
X43680310Y-27003405D03*
D11*
X38600310Y-27003405D03*
X48760310Y-27003405D03*
D10*
X272280310Y-27003405D03*
D11*
X267200310Y-27003405D03*
X277360310Y-27003405D03*
D12*
X165505310Y-30375280D03*
X166505310Y-32275280D03*
X168505310Y-32275280D03*
X169505310Y-30375280D03*
X131586560Y-37337780D03*
X133486560Y-36337780D03*
X133486560Y-34337780D03*
X131586560Y-33337780D03*
X146455310Y-30375280D03*
X147455310Y-32275280D03*
X149455310Y-32275280D03*
X150455310Y-30375280D03*
D13*
X177030310Y-52006530D03*
X138930310Y-52006530D03*
X281805310Y-28194030D03*
X224655310Y-28194030D03*
X91305310Y-28194030D03*
X34155310Y-28194030D03*
X187745935Y-20561655D03*
X130595935Y-20561655D03*
D14*
X146074060Y-36528405D03*
X149645935Y-36528405D03*
X53205310Y-21050280D03*
X34155310Y-32956530D03*
X281805310Y-21059655D03*
X262755310Y-21050280D03*
X224655310Y-21050280D03*
X167505310Y-21003405D03*
X148455310Y-21059655D03*
X91305310Y-21059655D03*
X72255310Y-21059655D03*
X34155310Y-21059655D03*
M02*
