G04 #@! TF.GenerationSoftware,KiCad,Pcbnew,(6.0.10-0)*
G04 #@! TF.CreationDate,2023-02-21T06:02:07+09:00*
G04 #@! TF.ProjectId,Sandy_Top,53616e64-795f-4546-9f70-2e6b69636164,v.0*
G04 #@! TF.SameCoordinates,Original*
G04 #@! TF.FileFunction,Legend,Bot*
G04 #@! TF.FilePolarity,Positive*
%FSLAX46Y46*%
G04 Gerber Fmt 4.6, Leading zero omitted, Abs format (unit mm)*
G04 Created by KiCad (PCBNEW (6.0.10-0)) date 2023-02-21 06:02:07*
%MOMM*%
%LPD*%
G01*
G04 APERTURE LIST*
G04 Aperture macros list*
%AMRoundRect*
0 Rectangle with rounded corners*
0 $1 Rounding radius*
0 $2 $3 $4 $5 $6 $7 $8 $9 X,Y pos of 4 corners*
0 Add a 4 corners polygon primitive as box body*
4,1,4,$2,$3,$4,$5,$6,$7,$8,$9,$2,$3,0*
0 Add four circle primitives for the rounded corners*
1,1,$1+$1,$2,$3*
1,1,$1+$1,$4,$5*
1,1,$1+$1,$6,$7*
1,1,$1+$1,$8,$9*
0 Add four rect primitives between the rounded corners*
20,1,$1+$1,$2,$3,$4,$5,0*
20,1,$1+$1,$4,$5,$6,$7,0*
20,1,$1+$1,$6,$7,$8,$9,0*
20,1,$1+$1,$8,$9,$2,$3,0*%
G04 Aperture macros list end*
%ADD10C,0.300000*%
%ADD11C,0.200000*%
%ADD12C,0.150000*%
%ADD13C,0.120000*%
%ADD14C,0.400000*%
%ADD15C,2.150000*%
%ADD16C,4.387800*%
%ADD17C,2.650000*%
%ADD18RoundRect,0.200000X0.600000X-0.450000X0.600000X0.450000X-0.600000X0.450000X-0.600000X-0.450000X0*%
%ADD19C,2.400000*%
%ADD20C,4.800000*%
%ADD21RoundRect,0.350000X0.150000X0.625000X-0.150000X0.625000X-0.150000X-0.625000X0.150000X-0.625000X0*%
%ADD22O,2.100000X2.100000*%
%ADD23RoundRect,0.450000X0.350000X0.650000X-0.350000X0.650000X-0.350000X-0.650000X0.350000X-0.650000X0*%
%ADD24RoundRect,0.350000X-0.625000X0.150000X-0.625000X-0.150000X0.625000X-0.150000X0.625000X0.150000X0*%
%ADD25RoundRect,0.450000X-0.650000X0.350000X-0.650000X-0.350000X0.650000X-0.350000X0.650000X0.350000X0*%
G04 APERTURE END LIST*
D10*
X297877881Y-33420976D02*
X297877881Y-34492405D01*
X297949310Y-34706690D01*
X298092167Y-34849547D01*
X298306452Y-34920976D01*
X298449310Y-34920976D01*
X296449310Y-34920976D02*
X297163595Y-34920976D01*
X297163595Y-33420976D01*
X295092167Y-34778119D02*
X295163595Y-34849547D01*
X295377881Y-34920976D01*
X295520738Y-34920976D01*
X295735024Y-34849547D01*
X295877881Y-34706690D01*
X295949310Y-34563833D01*
X296020738Y-34278119D01*
X296020738Y-34063833D01*
X295949310Y-33778119D01*
X295877881Y-33635262D01*
X295735024Y-33492405D01*
X295520738Y-33420976D01*
X295377881Y-33420976D01*
X295163595Y-33492405D01*
X295092167Y-33563833D01*
X294020738Y-33420976D02*
X294020738Y-34492405D01*
X294092167Y-34706690D01*
X294235024Y-34849547D01*
X294449310Y-34920976D01*
X294592167Y-34920976D01*
X292592167Y-34920976D02*
X293306452Y-34920976D01*
X293306452Y-33420976D01*
X291235024Y-34778119D02*
X291306452Y-34849547D01*
X291520738Y-34920976D01*
X291663595Y-34920976D01*
X291877881Y-34849547D01*
X292020738Y-34706690D01*
X292092167Y-34563833D01*
X292163595Y-34278119D01*
X292163595Y-34063833D01*
X292092167Y-33778119D01*
X292020738Y-33635262D01*
X291877881Y-33492405D01*
X291663595Y-33420976D01*
X291520738Y-33420976D01*
X291306452Y-33492405D01*
X291235024Y-33563833D01*
X290163595Y-33420976D02*
X290163595Y-34492405D01*
X290235024Y-34706690D01*
X290377881Y-34849547D01*
X290592167Y-34920976D01*
X290735024Y-34920976D01*
X288735024Y-34920976D02*
X289449310Y-34920976D01*
X289449310Y-33420976D01*
X287377881Y-34778119D02*
X287449310Y-34849547D01*
X287663595Y-34920976D01*
X287806452Y-34920976D01*
X288020738Y-34849547D01*
X288163595Y-34706690D01*
X288235024Y-34563833D01*
X288306452Y-34278119D01*
X288306452Y-34063833D01*
X288235024Y-33778119D01*
X288163595Y-33635262D01*
X288020738Y-33492405D01*
X287806452Y-33420976D01*
X287663595Y-33420976D01*
X287449310Y-33492405D01*
X287377881Y-33563833D01*
X286306452Y-33420976D02*
X286306452Y-34492405D01*
X286377881Y-34706690D01*
X286520738Y-34849547D01*
X286735024Y-34920976D01*
X286877881Y-34920976D01*
X284877881Y-34920976D02*
X285592167Y-34920976D01*
X285592167Y-33420976D01*
X283520738Y-34778119D02*
X283592167Y-34849547D01*
X283806452Y-34920976D01*
X283949310Y-34920976D01*
X284163595Y-34849547D01*
X284306452Y-34706690D01*
X284377881Y-34563833D01*
X284449310Y-34278119D01*
X284449310Y-34063833D01*
X284377881Y-33778119D01*
X284306452Y-33635262D01*
X284163595Y-33492405D01*
X283949310Y-33420976D01*
X283806452Y-33420976D01*
X283592167Y-33492405D01*
X283520738Y-33563833D01*
X191810491Y-36349833D02*
X191468229Y-36468881D01*
X191364062Y-36587928D01*
X191274777Y-36826024D01*
X191319420Y-37183166D01*
X191468229Y-37421262D01*
X191602158Y-37540309D01*
X191855134Y-37659357D01*
X192807515Y-37659357D01*
X192495015Y-35159357D01*
X191661682Y-35159357D01*
X191438467Y-35278405D01*
X191334301Y-35397452D01*
X191245015Y-35635547D01*
X191274777Y-35873643D01*
X191423586Y-36111738D01*
X191557515Y-36230785D01*
X191810491Y-36349833D01*
X192643824Y-36349833D01*
X189236086Y-37659357D02*
X189072396Y-36349833D01*
X189161682Y-36111738D01*
X189384896Y-35992690D01*
X189861086Y-35992690D01*
X190114062Y-36111738D01*
X189221205Y-37540309D02*
X189474182Y-37659357D01*
X190069420Y-37659357D01*
X190292634Y-37540309D01*
X190381920Y-37302214D01*
X190352158Y-37064119D01*
X190203348Y-36826024D01*
X189950372Y-36706976D01*
X189355134Y-36706976D01*
X189102158Y-36587928D01*
X186959301Y-37540309D02*
X187212277Y-37659357D01*
X187688467Y-37659357D01*
X187911682Y-37540309D01*
X188015848Y-37421262D01*
X188105134Y-37183166D01*
X188015848Y-36468881D01*
X187867039Y-36230785D01*
X187733110Y-36111738D01*
X187480134Y-35992690D01*
X187003943Y-35992690D01*
X186780729Y-36111738D01*
X185902753Y-37659357D02*
X185590253Y-35159357D01*
X185545610Y-36706976D02*
X184950372Y-37659357D01*
X184742039Y-35992690D02*
X185813467Y-36945071D01*
X182078348Y-37540309D02*
X181736086Y-37659357D01*
X181140848Y-37659357D01*
X180887872Y-37540309D01*
X180753943Y-37421262D01*
X180605134Y-37183166D01*
X180575372Y-36945071D01*
X180664658Y-36706976D01*
X180768824Y-36587928D01*
X180992039Y-36468881D01*
X181453348Y-36349833D01*
X181676562Y-36230785D01*
X181780729Y-36111738D01*
X181870015Y-35873643D01*
X181840253Y-35635547D01*
X181691443Y-35397452D01*
X181557515Y-35278405D01*
X181304539Y-35159357D01*
X180709301Y-35159357D01*
X180367039Y-35278405D01*
X179593229Y-37659357D02*
X179384896Y-35992690D01*
X179280729Y-35159357D02*
X179414658Y-35278405D01*
X179310491Y-35397452D01*
X179176562Y-35278405D01*
X179280729Y-35159357D01*
X179310491Y-35397452D01*
X177331324Y-37659357D02*
X177018824Y-35159357D01*
X177316443Y-37540309D02*
X177569420Y-37659357D01*
X178045610Y-37659357D01*
X178268824Y-37540309D01*
X178372991Y-37421262D01*
X178462277Y-37183166D01*
X178372991Y-36468881D01*
X178224182Y-36230785D01*
X178090253Y-36111738D01*
X177837277Y-35992690D01*
X177361086Y-35992690D01*
X177137872Y-36111738D01*
X175173586Y-37540309D02*
X175426562Y-37659357D01*
X175902753Y-37659357D01*
X176125967Y-37540309D01*
X176215253Y-37302214D01*
X176096205Y-36349833D01*
X175947396Y-36111738D01*
X175694420Y-35992690D01*
X175218229Y-35992690D01*
X174995015Y-36111738D01*
X174905729Y-36349833D01*
X174935491Y-36587928D01*
X176155729Y-36826024D01*
D11*
X172985577Y-48981190D02*
X171699863Y-48981190D01*
X172471292Y-48209762D02*
X172985577Y-50524047D01*
X171871292Y-49752619D02*
X173157006Y-49752619D01*
X172385577Y-50524047D02*
X171871292Y-48209762D01*
X171185577Y-50095476D02*
X170928435Y-50181190D01*
X170499863Y-50181190D01*
X170328435Y-50095476D01*
X170242720Y-50009762D01*
X170157006Y-49838333D01*
X170157006Y-49666905D01*
X170242720Y-49495476D01*
X170328435Y-49409762D01*
X170499863Y-49324047D01*
X170842720Y-49238333D01*
X171014149Y-49152619D01*
X171099863Y-49066905D01*
X171185577Y-48895476D01*
X171185577Y-48724047D01*
X171099863Y-48552619D01*
X171014149Y-48466905D01*
X170842720Y-48381190D01*
X170414149Y-48381190D01*
X170157006Y-48466905D01*
X168614149Y-50181190D02*
X168614149Y-49238333D01*
X168699863Y-49066905D01*
X168871292Y-48981190D01*
X169214149Y-48981190D01*
X169385577Y-49066905D01*
X168614149Y-50095476D02*
X168785577Y-50181190D01*
X169214149Y-50181190D01*
X169385577Y-50095476D01*
X169471292Y-49924047D01*
X169471292Y-49752619D01*
X169385577Y-49581190D01*
X169214149Y-49495476D01*
X168785577Y-49495476D01*
X168614149Y-49409762D01*
X167757006Y-48981190D02*
X167757006Y-50181190D01*
X167757006Y-49152619D02*
X167671292Y-49066905D01*
X167499863Y-48981190D01*
X167242720Y-48981190D01*
X167071292Y-49066905D01*
X166985577Y-49238333D01*
X166985577Y-50181190D01*
X165357006Y-50181190D02*
X165357006Y-48381190D01*
X165357006Y-50095476D02*
X165528435Y-50181190D01*
X165871292Y-50181190D01*
X166042720Y-50095476D01*
X166128435Y-50009762D01*
X166214149Y-49838333D01*
X166214149Y-49324047D01*
X166128435Y-49152619D01*
X166042720Y-49066905D01*
X165871292Y-48981190D01*
X165528435Y-48981190D01*
X165357006Y-49066905D01*
X164671292Y-48981190D02*
X164242720Y-50181190D01*
X163814149Y-48981190D02*
X164242720Y-50181190D01*
X164414149Y-50609762D01*
X164499863Y-50695476D01*
X164671292Y-50781190D01*
X163557006Y-50352619D02*
X162185577Y-50352619D01*
X161757006Y-50181190D02*
X161757006Y-48381190D01*
X161585577Y-49495476D02*
X161071292Y-50181190D01*
X161071292Y-48981190D02*
X161757006Y-49666905D01*
X160299863Y-50181190D02*
X160299863Y-48381190D01*
X160299863Y-49066905D02*
X160128435Y-48981190D01*
X159785577Y-48981190D01*
X159614149Y-49066905D01*
X159528435Y-49152619D01*
X159442720Y-49324047D01*
X159442720Y-49838333D01*
X159528435Y-50009762D01*
X159614149Y-50095476D01*
X159785577Y-50181190D01*
X160128435Y-50181190D01*
X160299863Y-50095476D01*
X157899863Y-50181190D02*
X157899863Y-48381190D01*
X157899863Y-50095476D02*
X158071292Y-50181190D01*
X158414149Y-50181190D01*
X158585577Y-50095476D01*
X158671292Y-50009762D01*
X158757006Y-49838333D01*
X158757006Y-49324047D01*
X158671292Y-49152619D01*
X158585577Y-49066905D01*
X158414149Y-48981190D01*
X158071292Y-48981190D01*
X157899863Y-49066905D01*
X155842720Y-48981190D02*
X155414149Y-50181190D01*
X154985577Y-48981190D01*
X154299863Y-50009762D02*
X154214149Y-50095476D01*
X154299863Y-50181190D01*
X154385577Y-50095476D01*
X154299863Y-50009762D01*
X154299863Y-50181190D01*
X153099863Y-48381190D02*
X152928435Y-48381190D01*
X152757006Y-48466905D01*
X152671292Y-48552619D01*
X152585577Y-48724047D01*
X152499863Y-49066905D01*
X152499863Y-49495476D01*
X152585577Y-49838333D01*
X152671292Y-50009762D01*
X152757006Y-50095476D01*
X152928435Y-50181190D01*
X153099863Y-50181190D01*
X153271292Y-50095476D01*
X153357006Y-50009762D01*
X153442720Y-49838333D01*
X153528435Y-49495476D01*
X153528435Y-49066905D01*
X153442720Y-48724047D01*
X153357006Y-48552619D01*
X153271292Y-48466905D01*
X153099863Y-48381190D01*
X151728435Y-50009762D02*
X151642720Y-50095476D01*
X151728435Y-50181190D01*
X151814149Y-50095476D01*
X151728435Y-50009762D01*
X151728435Y-50181190D01*
X149928435Y-50181190D02*
X150957006Y-50181190D01*
X150442720Y-50181190D02*
X150442720Y-48381190D01*
X150614149Y-48638333D01*
X150785577Y-48809762D01*
X150957006Y-48895476D01*
X149071292Y-50095476D02*
X149071292Y-50181190D01*
X149157006Y-50352619D01*
X149242720Y-50438333D01*
X147185577Y-48381190D02*
X146157006Y-48381190D01*
X146671292Y-50181190D02*
X146671292Y-48381190D01*
X145299863Y-50181190D02*
X145471292Y-50095476D01*
X145557006Y-50009762D01*
X145642720Y-49838333D01*
X145642720Y-49324047D01*
X145557006Y-49152619D01*
X145471292Y-49066905D01*
X145299863Y-48981190D01*
X145042720Y-48981190D01*
X144871292Y-49066905D01*
X144785577Y-49152619D01*
X144699863Y-49324047D01*
X144699863Y-49838333D01*
X144785577Y-50009762D01*
X144871292Y-50095476D01*
X145042720Y-50181190D01*
X145299863Y-50181190D01*
X143928435Y-48981190D02*
X143928435Y-50781190D01*
X143928435Y-49066905D02*
X143757006Y-48981190D01*
X143414149Y-48981190D01*
X143242720Y-49066905D01*
X143157006Y-49152619D01*
X143071292Y-49324047D01*
X143071292Y-49838333D01*
X143157006Y-50009762D01*
X143242720Y-50095476D01*
X143414149Y-50181190D01*
X143757006Y-50181190D01*
X143928435Y-50095476D01*
X172899863Y-53079190D02*
X172899863Y-51279190D01*
X172899863Y-51964905D02*
X172728435Y-51879190D01*
X172385577Y-51879190D01*
X172214149Y-51964905D01*
X172128435Y-52050619D01*
X172042720Y-52222047D01*
X172042720Y-52736333D01*
X172128435Y-52907762D01*
X172214149Y-52993476D01*
X172385577Y-53079190D01*
X172728435Y-53079190D01*
X172899863Y-52993476D01*
X171442720Y-51879190D02*
X171014149Y-53079190D01*
X170585577Y-51879190D02*
X171014149Y-53079190D01*
X171185577Y-53507762D01*
X171271292Y-53593476D01*
X171442720Y-53679190D01*
X167414149Y-52222047D02*
X167499863Y-52136333D01*
X167671292Y-52050619D01*
X167842720Y-52050619D01*
X168014149Y-52136333D01*
X168099863Y-52222047D01*
X168185577Y-52393476D01*
X168185577Y-52564905D01*
X168099863Y-52736333D01*
X168014149Y-52822047D01*
X167842720Y-52907762D01*
X167671292Y-52907762D01*
X167499863Y-52822047D01*
X167414149Y-52736333D01*
X167414149Y-52050619D02*
X167414149Y-52736333D01*
X167328435Y-52822047D01*
X167242720Y-52822047D01*
X167071292Y-52736333D01*
X166985577Y-52564905D01*
X166985577Y-52136333D01*
X167157006Y-51879190D01*
X167414149Y-51707762D01*
X167757006Y-51622047D01*
X168099863Y-51707762D01*
X168357006Y-51879190D01*
X168528435Y-52136333D01*
X168614149Y-52479190D01*
X168528435Y-52822047D01*
X168357006Y-53079190D01*
X168099863Y-53250619D01*
X167757006Y-53336333D01*
X167414149Y-53250619D01*
X167157006Y-53079190D01*
X166214149Y-51879190D02*
X166214149Y-53422047D01*
X166299863Y-53593476D01*
X166471292Y-53679190D01*
X166557006Y-53679190D01*
X166214149Y-51279190D02*
X166299863Y-51364905D01*
X166214149Y-51450619D01*
X166128435Y-51364905D01*
X166214149Y-51279190D01*
X166214149Y-51450619D01*
X165357006Y-51879190D02*
X165357006Y-53679190D01*
X165357006Y-51964905D02*
X165185577Y-51879190D01*
X164842720Y-51879190D01*
X164671292Y-51964905D01*
X164585577Y-52050619D01*
X164499863Y-52222047D01*
X164499863Y-52736333D01*
X164585577Y-52907762D01*
X164671292Y-52993476D01*
X164842720Y-53079190D01*
X165185577Y-53079190D01*
X165357006Y-52993476D01*
X163814149Y-52993476D02*
X163642720Y-53079190D01*
X163299863Y-53079190D01*
X163128435Y-52993476D01*
X163042720Y-52822047D01*
X163042720Y-52736333D01*
X163128435Y-52564905D01*
X163299863Y-52479190D01*
X163557006Y-52479190D01*
X163728435Y-52393476D01*
X163814149Y-52222047D01*
X163814149Y-52136333D01*
X163728435Y-51964905D01*
X163557006Y-51879190D01*
X163299863Y-51879190D01*
X163128435Y-51964905D01*
X162271292Y-53079190D02*
X162271292Y-51279190D01*
X162099863Y-52393476D02*
X161585577Y-53079190D01*
X161585577Y-51879190D02*
X162271292Y-52564905D01*
X160128435Y-52993476D02*
X160299863Y-53079190D01*
X160642720Y-53079190D01*
X160814149Y-52993476D01*
X160899863Y-52822047D01*
X160899863Y-52136333D01*
X160814149Y-51964905D01*
X160642720Y-51879190D01*
X160299863Y-51879190D01*
X160128435Y-51964905D01*
X160042720Y-52136333D01*
X160042720Y-52307762D01*
X160899863Y-52479190D01*
X159271292Y-51879190D02*
X159271292Y-53079190D01*
X159271292Y-52050619D02*
X159185577Y-51964905D01*
X159014149Y-51879190D01*
X158757006Y-51879190D01*
X158585577Y-51964905D01*
X158499863Y-52136333D01*
X158499863Y-53079190D01*
X157642720Y-51879190D02*
X157642720Y-53079190D01*
X157642720Y-52050619D02*
X157557006Y-51964905D01*
X157385577Y-51879190D01*
X157128435Y-51879190D01*
X156957006Y-51964905D01*
X156871292Y-52136333D01*
X156871292Y-53079190D01*
D12*
X87804565Y-30887184D02*
X86804565Y-30887184D01*
X86804565Y-31125280D01*
X86852185Y-31268137D01*
X86947423Y-31363375D01*
X87042661Y-31410994D01*
X87233137Y-31458613D01*
X87375994Y-31458613D01*
X87566470Y-31410994D01*
X87661708Y-31363375D01*
X87756946Y-31268137D01*
X87804565Y-31125280D01*
X87804565Y-30887184D01*
X87137899Y-32315756D02*
X87804565Y-32315756D01*
X86756946Y-32077660D02*
X87471232Y-31839565D01*
X87471232Y-32458613D01*
X265564833Y-18980851D02*
X265231500Y-18980851D01*
X265088643Y-19504660D02*
X265564833Y-19504660D01*
X265564833Y-18504660D01*
X265088643Y-18504660D01*
X264755310Y-18504660D02*
X264088643Y-19504660D01*
X264088643Y-18504660D02*
X264755310Y-19504660D01*
X263850548Y-18504660D02*
X263279119Y-18504660D01*
X263564833Y-19504660D02*
X263564833Y-18504660D01*
X263183881Y-19599899D02*
X262421976Y-19599899D01*
X262326738Y-18504660D02*
X261755310Y-18504660D01*
X262041024Y-19504660D02*
X262041024Y-18504660D01*
X260850548Y-19409422D02*
X260898167Y-19457041D01*
X261041024Y-19504660D01*
X261136262Y-19504660D01*
X261279119Y-19457041D01*
X261374357Y-19361803D01*
X261421976Y-19266565D01*
X261469595Y-19076089D01*
X261469595Y-18933232D01*
X261421976Y-18742756D01*
X261374357Y-18647518D01*
X261279119Y-18552280D01*
X261136262Y-18504660D01*
X261041024Y-18504660D01*
X260898167Y-18552280D01*
X260850548Y-18599899D01*
X259993405Y-18504660D02*
X260183881Y-18504660D01*
X260279119Y-18552280D01*
X260326738Y-18599899D01*
X260421976Y-18742756D01*
X260469595Y-18933232D01*
X260469595Y-19314184D01*
X260421976Y-19409422D01*
X260374357Y-19457041D01*
X260279119Y-19504660D01*
X260088643Y-19504660D01*
X259993405Y-19457041D01*
X259945786Y-19409422D01*
X259898167Y-19314184D01*
X259898167Y-19076089D01*
X259945786Y-18980851D01*
X259993405Y-18933232D01*
X260088643Y-18885613D01*
X260279119Y-18885613D01*
X260374357Y-18933232D01*
X260421976Y-18980851D01*
X260469595Y-19076089D01*
X297354565Y-29360994D02*
X296354565Y-29360994D01*
X296354565Y-29599089D01*
X296402185Y-29741946D01*
X296497423Y-29837184D01*
X296592661Y-29884803D01*
X296783137Y-29932422D01*
X296925994Y-29932422D01*
X297116470Y-29884803D01*
X297211708Y-29837184D01*
X297306946Y-29741946D01*
X297354565Y-29599089D01*
X297354565Y-29360994D01*
X297354565Y-30884803D02*
X297354565Y-30313375D01*
X297354565Y-30599089D02*
X296354565Y-30599089D01*
X296497423Y-30503851D01*
X296592661Y-30408613D01*
X296640280Y-30313375D01*
X296354565Y-31789565D02*
X296354565Y-31313375D01*
X296830756Y-31265756D01*
X296783137Y-31313375D01*
X296735518Y-31408613D01*
X296735518Y-31646708D01*
X296783137Y-31741946D01*
X296830756Y-31789565D01*
X296925994Y-31837184D01*
X297164089Y-31837184D01*
X297259327Y-31789565D01*
X297306946Y-31741946D01*
X297354565Y-31646708D01*
X297354565Y-31408613D01*
X297306946Y-31313375D01*
X297259327Y-31265756D01*
X240204565Y-30414994D02*
X239204565Y-30414994D01*
X239204565Y-30653089D01*
X239252185Y-30795946D01*
X239347423Y-30891184D01*
X239442661Y-30938803D01*
X239633137Y-30986422D01*
X239775994Y-30986422D01*
X239966470Y-30938803D01*
X240061708Y-30891184D01*
X240156946Y-30795946D01*
X240204565Y-30653089D01*
X240204565Y-30414994D01*
X240204565Y-31938803D02*
X240204565Y-31367375D01*
X240204565Y-31653089D02*
X239204565Y-31653089D01*
X239347423Y-31557851D01*
X239442661Y-31462613D01*
X239490280Y-31367375D01*
X239299804Y-32319756D02*
X239252185Y-32367375D01*
X239204565Y-32462613D01*
X239204565Y-32700708D01*
X239252185Y-32795946D01*
X239299804Y-32843565D01*
X239395042Y-32891184D01*
X239490280Y-32891184D01*
X239633137Y-32843565D01*
X240204565Y-32272137D01*
X240204565Y-32891184D01*
X68754565Y-29837184D02*
X67754565Y-29837184D01*
X67754565Y-30075280D01*
X67802185Y-30218137D01*
X67897423Y-30313375D01*
X67992661Y-30360994D01*
X68183137Y-30408613D01*
X68325994Y-30408613D01*
X68516470Y-30360994D01*
X68611708Y-30313375D01*
X68706946Y-30218137D01*
X68754565Y-30075280D01*
X68754565Y-29837184D01*
X67754565Y-30741946D02*
X67754565Y-31360994D01*
X68135518Y-31027660D01*
X68135518Y-31170518D01*
X68183137Y-31265756D01*
X68230756Y-31313375D01*
X68325994Y-31360994D01*
X68564089Y-31360994D01*
X68659327Y-31313375D01*
X68706946Y-31265756D01*
X68754565Y-31170518D01*
X68754565Y-30884803D01*
X68706946Y-30789565D01*
X68659327Y-30741946D01*
X125904565Y-30891184D02*
X124904565Y-30891184D01*
X124904565Y-31129280D01*
X124952185Y-31272137D01*
X125047423Y-31367375D01*
X125142661Y-31414994D01*
X125333137Y-31462613D01*
X125475994Y-31462613D01*
X125666470Y-31414994D01*
X125761708Y-31367375D01*
X125856946Y-31272137D01*
X125904565Y-31129280D01*
X125904565Y-30891184D01*
X124904565Y-32319756D02*
X124904565Y-32129280D01*
X124952185Y-32034041D01*
X124999804Y-31986422D01*
X125142661Y-31891184D01*
X125333137Y-31843565D01*
X125714089Y-31843565D01*
X125809327Y-31891184D01*
X125856946Y-31938803D01*
X125904565Y-32034041D01*
X125904565Y-32224518D01*
X125856946Y-32319756D01*
X125809327Y-32367375D01*
X125714089Y-32414994D01*
X125475994Y-32414994D01*
X125380756Y-32367375D01*
X125333137Y-32319756D01*
X125285518Y-32224518D01*
X125285518Y-32034041D01*
X125333137Y-31938803D01*
X125380756Y-31891184D01*
X125475994Y-31843565D01*
X106854565Y-29837184D02*
X105854565Y-29837184D01*
X105854565Y-30075280D01*
X105902185Y-30218137D01*
X105997423Y-30313375D01*
X106092661Y-30360994D01*
X106283137Y-30408613D01*
X106425994Y-30408613D01*
X106616470Y-30360994D01*
X106711708Y-30313375D01*
X106806946Y-30218137D01*
X106854565Y-30075280D01*
X106854565Y-29837184D01*
X105854565Y-31313375D02*
X105854565Y-30837184D01*
X106330756Y-30789565D01*
X106283137Y-30837184D01*
X106235518Y-30932422D01*
X106235518Y-31170518D01*
X106283137Y-31265756D01*
X106330756Y-31313375D01*
X106425994Y-31360994D01*
X106664089Y-31360994D01*
X106759327Y-31313375D01*
X106806946Y-31265756D01*
X106854565Y-31170518D01*
X106854565Y-30932422D01*
X106806946Y-30837184D01*
X106759327Y-30789565D01*
X144954565Y-29737184D02*
X143954565Y-29737184D01*
X143954565Y-29975280D01*
X144002185Y-30118137D01*
X144097423Y-30213375D01*
X144192661Y-30260994D01*
X144383137Y-30308613D01*
X144525994Y-30308613D01*
X144716470Y-30260994D01*
X144811708Y-30213375D01*
X144906946Y-30118137D01*
X144954565Y-29975280D01*
X144954565Y-29737184D01*
X144383137Y-30880041D02*
X144335518Y-30784803D01*
X144287899Y-30737184D01*
X144192661Y-30689565D01*
X144145042Y-30689565D01*
X144049804Y-30737184D01*
X144002185Y-30784803D01*
X143954565Y-30880041D01*
X143954565Y-31070518D01*
X144002185Y-31165756D01*
X144049804Y-31213375D01*
X144145042Y-31260994D01*
X144192661Y-31260994D01*
X144287899Y-31213375D01*
X144335518Y-31165756D01*
X144383137Y-31070518D01*
X144383137Y-30880041D01*
X144430756Y-30784803D01*
X144478375Y-30737184D01*
X144573613Y-30689565D01*
X144764089Y-30689565D01*
X144859327Y-30737184D01*
X144906946Y-30784803D01*
X144954565Y-30880041D01*
X144954565Y-31070518D01*
X144906946Y-31165756D01*
X144859327Y-31213375D01*
X144764089Y-31260994D01*
X144573613Y-31260994D01*
X144478375Y-31213375D01*
X144430756Y-31165756D01*
X144383137Y-31070518D01*
X259254565Y-29360994D02*
X258254565Y-29360994D01*
X258254565Y-29599089D01*
X258302185Y-29741946D01*
X258397423Y-29837184D01*
X258492661Y-29884803D01*
X258683137Y-29932422D01*
X258825994Y-29932422D01*
X259016470Y-29884803D01*
X259111708Y-29837184D01*
X259206946Y-29741946D01*
X259254565Y-29599089D01*
X259254565Y-29360994D01*
X259254565Y-30884803D02*
X259254565Y-30313375D01*
X259254565Y-30599089D02*
X258254565Y-30599089D01*
X258397423Y-30503851D01*
X258492661Y-30408613D01*
X258540280Y-30313375D01*
X258254565Y-31218137D02*
X258254565Y-31837184D01*
X258635518Y-31503851D01*
X258635518Y-31646708D01*
X258683137Y-31741946D01*
X258730756Y-31789565D01*
X258825994Y-31837184D01*
X259064089Y-31837184D01*
X259159327Y-31789565D01*
X259206946Y-31741946D01*
X259254565Y-31646708D01*
X259254565Y-31360994D01*
X259206946Y-31265756D01*
X259159327Y-31218137D01*
X138192065Y-40902119D02*
X137192065Y-40902119D01*
X137192065Y-41140214D01*
X137239685Y-41283071D01*
X137334923Y-41378309D01*
X137430161Y-41425928D01*
X137620637Y-41473547D01*
X137763494Y-41473547D01*
X137953970Y-41425928D01*
X138049208Y-41378309D01*
X138144446Y-41283071D01*
X138192065Y-41140214D01*
X138192065Y-40902119D01*
X138192065Y-42425928D02*
X138192065Y-41854500D01*
X138192065Y-42140214D02*
X137192065Y-42140214D01*
X137334923Y-42044976D01*
X137430161Y-41949738D01*
X137477780Y-41854500D01*
X137192065Y-43283071D02*
X137192065Y-43092595D01*
X137239685Y-42997357D01*
X137287304Y-42949738D01*
X137430161Y-42854500D01*
X137620637Y-42806881D01*
X138001589Y-42806881D01*
X138096827Y-42854500D01*
X138144446Y-42902119D01*
X138192065Y-42997357D01*
X138192065Y-43187833D01*
X138144446Y-43283071D01*
X138096827Y-43330690D01*
X138001589Y-43378309D01*
X137763494Y-43378309D01*
X137668256Y-43330690D01*
X137620637Y-43283071D01*
X137573018Y-43187833D01*
X137573018Y-42997357D01*
X137620637Y-42902119D01*
X137668256Y-42854500D01*
X137763494Y-42806881D01*
X183054565Y-29837184D02*
X182054565Y-29837184D01*
X182054565Y-30075280D01*
X182102185Y-30218137D01*
X182197423Y-30313375D01*
X182292661Y-30360994D01*
X182483137Y-30408613D01*
X182625994Y-30408613D01*
X182816470Y-30360994D01*
X182911708Y-30313375D01*
X183006946Y-30218137D01*
X183054565Y-30075280D01*
X183054565Y-29837184D01*
X182054565Y-30741946D02*
X182054565Y-31408613D01*
X183054565Y-30980041D01*
X49704565Y-30887184D02*
X48704565Y-30887184D01*
X48704565Y-31125280D01*
X48752185Y-31268137D01*
X48847423Y-31363375D01*
X48942661Y-31410994D01*
X49133137Y-31458613D01*
X49275994Y-31458613D01*
X49466470Y-31410994D01*
X49561708Y-31363375D01*
X49656946Y-31268137D01*
X49704565Y-31125280D01*
X49704565Y-30887184D01*
X48799804Y-31839565D02*
X48752185Y-31887184D01*
X48704565Y-31982422D01*
X48704565Y-32220518D01*
X48752185Y-32315756D01*
X48799804Y-32363375D01*
X48895042Y-32410994D01*
X48990280Y-32410994D01*
X49133137Y-32363375D01*
X49704565Y-31791946D01*
X49704565Y-32410994D01*
X278304565Y-30410994D02*
X277304565Y-30410994D01*
X277304565Y-30649089D01*
X277352185Y-30791946D01*
X277447423Y-30887184D01*
X277542661Y-30934803D01*
X277733137Y-30982422D01*
X277875994Y-30982422D01*
X278066470Y-30934803D01*
X278161708Y-30887184D01*
X278256946Y-30791946D01*
X278304565Y-30649089D01*
X278304565Y-30410994D01*
X278304565Y-31934803D02*
X278304565Y-31363375D01*
X278304565Y-31649089D02*
X277304565Y-31649089D01*
X277447423Y-31553851D01*
X277542661Y-31458613D01*
X277590280Y-31363375D01*
X277637899Y-32791946D02*
X278304565Y-32791946D01*
X277256946Y-32553851D02*
X277971232Y-32315756D01*
X277971232Y-32934803D01*
X178673315Y-39632119D02*
X177673315Y-39632119D01*
X177673315Y-39870214D01*
X177720935Y-40013071D01*
X177816173Y-40108309D01*
X177911411Y-40155928D01*
X178101887Y-40203547D01*
X178244744Y-40203547D01*
X178435220Y-40155928D01*
X178530458Y-40108309D01*
X178625696Y-40013071D01*
X178673315Y-39870214D01*
X178673315Y-39632119D01*
X178673315Y-41155928D02*
X178673315Y-40584500D01*
X178673315Y-40870214D02*
X177673315Y-40870214D01*
X177816173Y-40774976D01*
X177911411Y-40679738D01*
X177959030Y-40584500D01*
X178673315Y-41632119D02*
X178673315Y-41822595D01*
X178625696Y-41917833D01*
X178578077Y-41965452D01*
X178435220Y-42060690D01*
X178244744Y-42108309D01*
X177863792Y-42108309D01*
X177768554Y-42060690D01*
X177720935Y-42013071D01*
X177673315Y-41917833D01*
X177673315Y-41727357D01*
X177720935Y-41632119D01*
X177768554Y-41584500D01*
X177863792Y-41536881D01*
X178101887Y-41536881D01*
X178197125Y-41584500D01*
X178244744Y-41632119D01*
X178292363Y-41727357D01*
X178292363Y-41917833D01*
X178244744Y-42013071D01*
X178197125Y-42060690D01*
X178101887Y-42108309D01*
X140573315Y-39632119D02*
X139573315Y-39632119D01*
X139573315Y-39870214D01*
X139620935Y-40013071D01*
X139716173Y-40108309D01*
X139811411Y-40155928D01*
X140001887Y-40203547D01*
X140144744Y-40203547D01*
X140335220Y-40155928D01*
X140430458Y-40108309D01*
X140525696Y-40013071D01*
X140573315Y-39870214D01*
X140573315Y-39632119D01*
X140573315Y-41155928D02*
X140573315Y-40584500D01*
X140573315Y-40870214D02*
X139573315Y-40870214D01*
X139716173Y-40774976D01*
X139811411Y-40679738D01*
X139859030Y-40584500D01*
X139573315Y-41489262D02*
X139573315Y-42155928D01*
X140573315Y-41727357D01*
X167838643Y-26047660D02*
X167838643Y-26761946D01*
X167886262Y-26904803D01*
X167981500Y-27000041D01*
X168124357Y-27047660D01*
X168219595Y-27047660D01*
X167457690Y-26047660D02*
X166838643Y-26047660D01*
X167171976Y-26428613D01*
X167029119Y-26428613D01*
X166933881Y-26476232D01*
X166886262Y-26523851D01*
X166838643Y-26619089D01*
X166838643Y-26857184D01*
X166886262Y-26952422D01*
X166933881Y-27000041D01*
X167029119Y-27047660D01*
X167314833Y-27047660D01*
X167410071Y-27000041D01*
X167457690Y-26952422D01*
X41727333Y-32885101D02*
X41394000Y-32885101D01*
X41251143Y-33408910D02*
X41727333Y-33408910D01*
X41727333Y-32408910D01*
X41251143Y-32408910D01*
X40917810Y-32408910D02*
X40251143Y-33408910D01*
X40251143Y-32408910D02*
X40917810Y-33408910D01*
X40013048Y-32408910D02*
X39441619Y-32408910D01*
X39727333Y-33408910D02*
X39727333Y-32408910D01*
X39346381Y-33504149D02*
X38584476Y-33504149D01*
X38489238Y-32408910D02*
X37917810Y-32408910D01*
X38203524Y-33408910D02*
X38203524Y-32408910D01*
X37013048Y-33408910D02*
X37346381Y-32932720D01*
X37584476Y-33408910D02*
X37584476Y-32408910D01*
X37203524Y-32408910D01*
X37108286Y-32456530D01*
X37060667Y-32504149D01*
X37013048Y-32599387D01*
X37013048Y-32742244D01*
X37060667Y-32837482D01*
X37108286Y-32885101D01*
X37203524Y-32932720D01*
X37584476Y-32932720D01*
X36394000Y-32408910D02*
X36298762Y-32408910D01*
X36203524Y-32456530D01*
X36155905Y-32504149D01*
X36108286Y-32599387D01*
X36060667Y-32789863D01*
X36060667Y-33027958D01*
X36108286Y-33218434D01*
X36155905Y-33313672D01*
X36203524Y-33361291D01*
X36298762Y-33408910D01*
X36394000Y-33408910D01*
X36489238Y-33361291D01*
X36536857Y-33313672D01*
X36584476Y-33218434D01*
X36632095Y-33027958D01*
X36632095Y-32789863D01*
X36584476Y-32599387D01*
X36536857Y-32504149D01*
X36489238Y-32456530D01*
X36394000Y-32408910D01*
X36964833Y-18990226D02*
X36631500Y-18990226D01*
X36488643Y-19514035D02*
X36964833Y-19514035D01*
X36964833Y-18514035D01*
X36488643Y-18514035D01*
X36155310Y-18514035D02*
X35488643Y-19514035D01*
X35488643Y-18514035D02*
X36155310Y-19514035D01*
X35250548Y-18514035D02*
X34679119Y-18514035D01*
X34964833Y-19514035D02*
X34964833Y-18514035D01*
X34583881Y-19609274D02*
X33821976Y-19609274D01*
X33726738Y-18514035D02*
X33155310Y-18514035D01*
X33441024Y-19514035D02*
X33441024Y-18514035D01*
X32250548Y-19418797D02*
X32298167Y-19466416D01*
X32441024Y-19514035D01*
X32536262Y-19514035D01*
X32679119Y-19466416D01*
X32774357Y-19371178D01*
X32821976Y-19275940D01*
X32869595Y-19085464D01*
X32869595Y-18942607D01*
X32821976Y-18752131D01*
X32774357Y-18656893D01*
X32679119Y-18561655D01*
X32536262Y-18514035D01*
X32441024Y-18514035D01*
X32298167Y-18561655D01*
X32250548Y-18609274D01*
X31631500Y-18514035D02*
X31536262Y-18514035D01*
X31441024Y-18561655D01*
X31393405Y-18609274D01*
X31345786Y-18704512D01*
X31298167Y-18894988D01*
X31298167Y-19133083D01*
X31345786Y-19323559D01*
X31393405Y-19418797D01*
X31441024Y-19466416D01*
X31536262Y-19514035D01*
X31631500Y-19514035D01*
X31726738Y-19466416D01*
X31774357Y-19418797D01*
X31821976Y-19323559D01*
X31869595Y-19133083D01*
X31869595Y-18894988D01*
X31821976Y-18704512D01*
X31774357Y-18609274D01*
X31726738Y-18561655D01*
X31631500Y-18514035D01*
X151264833Y-18990226D02*
X150931500Y-18990226D01*
X150788643Y-19514035D02*
X151264833Y-19514035D01*
X151264833Y-18514035D01*
X150788643Y-18514035D01*
X150455310Y-18514035D02*
X149788643Y-19514035D01*
X149788643Y-18514035D02*
X150455310Y-19514035D01*
X149550548Y-18514035D02*
X148979119Y-18514035D01*
X149264833Y-19514035D02*
X149264833Y-18514035D01*
X148883881Y-19609274D02*
X148121976Y-19609274D01*
X148026738Y-18514035D02*
X147455310Y-18514035D01*
X147741024Y-19514035D02*
X147741024Y-18514035D01*
X146550548Y-19418797D02*
X146598167Y-19466416D01*
X146741024Y-19514035D01*
X146836262Y-19514035D01*
X146979119Y-19466416D01*
X147074357Y-19371178D01*
X147121976Y-19275940D01*
X147169595Y-19085464D01*
X147169595Y-18942607D01*
X147121976Y-18752131D01*
X147074357Y-18656893D01*
X146979119Y-18561655D01*
X146836262Y-18514035D01*
X146741024Y-18514035D01*
X146598167Y-18561655D01*
X146550548Y-18609274D01*
X146217214Y-18514035D02*
X145598167Y-18514035D01*
X145931500Y-18894988D01*
X145788643Y-18894988D01*
X145693405Y-18942607D01*
X145645786Y-18990226D01*
X145598167Y-19085464D01*
X145598167Y-19323559D01*
X145645786Y-19418797D01*
X145693405Y-19466416D01*
X145788643Y-19514035D01*
X146074357Y-19514035D01*
X146169595Y-19466416D01*
X146217214Y-19418797D01*
X75064833Y-18990226D02*
X74731500Y-18990226D01*
X74588643Y-19514035D02*
X75064833Y-19514035D01*
X75064833Y-18514035D01*
X74588643Y-18514035D01*
X74255310Y-18514035D02*
X73588643Y-19514035D01*
X73588643Y-18514035D02*
X74255310Y-19514035D01*
X73350548Y-18514035D02*
X72779119Y-18514035D01*
X73064833Y-19514035D02*
X73064833Y-18514035D01*
X72683881Y-19609274D02*
X71921976Y-19609274D01*
X71826738Y-18514035D02*
X71255310Y-18514035D01*
X71541024Y-19514035D02*
X71541024Y-18514035D01*
X70350548Y-19418797D02*
X70398167Y-19466416D01*
X70541024Y-19514035D01*
X70636262Y-19514035D01*
X70779119Y-19466416D01*
X70874357Y-19371178D01*
X70921976Y-19275940D01*
X70969595Y-19085464D01*
X70969595Y-18942607D01*
X70921976Y-18752131D01*
X70874357Y-18656893D01*
X70779119Y-18561655D01*
X70636262Y-18514035D01*
X70541024Y-18514035D01*
X70398167Y-18561655D01*
X70350548Y-18609274D01*
X69398167Y-19514035D02*
X69969595Y-19514035D01*
X69683881Y-19514035D02*
X69683881Y-18514035D01*
X69779119Y-18656893D01*
X69874357Y-18752131D01*
X69969595Y-18799750D01*
X170314833Y-18933976D02*
X169981500Y-18933976D01*
X169838643Y-19457785D02*
X170314833Y-19457785D01*
X170314833Y-18457785D01*
X169838643Y-18457785D01*
X169505310Y-18457785D02*
X168838643Y-19457785D01*
X168838643Y-18457785D02*
X169505310Y-19457785D01*
X168600548Y-18457785D02*
X168029119Y-18457785D01*
X168314833Y-19457785D02*
X168314833Y-18457785D01*
X167933881Y-19553024D02*
X167171976Y-19553024D01*
X167076738Y-18457785D02*
X166505310Y-18457785D01*
X166791024Y-19457785D02*
X166791024Y-18457785D01*
X165600548Y-19362547D02*
X165648167Y-19410166D01*
X165791024Y-19457785D01*
X165886262Y-19457785D01*
X166029119Y-19410166D01*
X166124357Y-19314928D01*
X166171976Y-19219690D01*
X166219595Y-19029214D01*
X166219595Y-18886357D01*
X166171976Y-18695881D01*
X166124357Y-18600643D01*
X166029119Y-18505405D01*
X165886262Y-18457785D01*
X165791024Y-18457785D01*
X165648167Y-18505405D01*
X165600548Y-18553024D01*
X164743405Y-18791119D02*
X164743405Y-19457785D01*
X164981500Y-18410166D02*
X165219595Y-19124452D01*
X164600548Y-19124452D01*
X152455458Y-34458976D02*
X152122125Y-34458976D01*
X151979268Y-34982785D02*
X152455458Y-34982785D01*
X152455458Y-33982785D01*
X151979268Y-33982785D01*
X151645935Y-33982785D02*
X150979268Y-34982785D01*
X150979268Y-33982785D02*
X151645935Y-34982785D01*
X150741173Y-33982785D02*
X150169744Y-33982785D01*
X150455458Y-34982785D02*
X150455458Y-33982785D01*
X150074506Y-35078024D02*
X149312601Y-35078024D01*
X149217363Y-33982785D02*
X148645935Y-33982785D01*
X148931649Y-34982785D02*
X148931649Y-33982785D01*
X147741173Y-34982785D02*
X148074506Y-34506595D01*
X148312601Y-34982785D02*
X148312601Y-33982785D01*
X147931649Y-33982785D01*
X147836411Y-34030405D01*
X147788792Y-34078024D01*
X147741173Y-34173262D01*
X147741173Y-34316119D01*
X147788792Y-34411357D01*
X147836411Y-34458976D01*
X147931649Y-34506595D01*
X148312601Y-34506595D01*
X146788792Y-34982785D02*
X147360220Y-34982785D01*
X147074506Y-34982785D02*
X147074506Y-33982785D01*
X147169744Y-34125643D01*
X147264982Y-34220881D01*
X147360220Y-34268500D01*
X221154565Y-29360994D02*
X220154565Y-29360994D01*
X220154565Y-29599089D01*
X220202185Y-29741946D01*
X220297423Y-29837184D01*
X220392661Y-29884803D01*
X220583137Y-29932422D01*
X220725994Y-29932422D01*
X220916470Y-29884803D01*
X221011708Y-29837184D01*
X221106946Y-29741946D01*
X221154565Y-29599089D01*
X221154565Y-29360994D01*
X221154565Y-30884803D02*
X221154565Y-30313375D01*
X221154565Y-30599089D02*
X220154565Y-30599089D01*
X220297423Y-30503851D01*
X220392661Y-30408613D01*
X220440280Y-30313375D01*
X221154565Y-31837184D02*
X221154565Y-31265756D01*
X221154565Y-31551470D02*
X220154565Y-31551470D01*
X220297423Y-31456232D01*
X220392661Y-31360994D01*
X220440280Y-31265756D01*
X227464833Y-18980851D02*
X227131500Y-18980851D01*
X226988643Y-19504660D02*
X227464833Y-19504660D01*
X227464833Y-18504660D01*
X226988643Y-18504660D01*
X226655310Y-18504660D02*
X225988643Y-19504660D01*
X225988643Y-18504660D02*
X226655310Y-19504660D01*
X225750548Y-18504660D02*
X225179119Y-18504660D01*
X225464833Y-19504660D02*
X225464833Y-18504660D01*
X225083881Y-19599899D02*
X224321976Y-19599899D01*
X224226738Y-18504660D02*
X223655310Y-18504660D01*
X223941024Y-19504660D02*
X223941024Y-18504660D01*
X222750548Y-19409422D02*
X222798167Y-19457041D01*
X222941024Y-19504660D01*
X223036262Y-19504660D01*
X223179119Y-19457041D01*
X223274357Y-19361803D01*
X223321976Y-19266565D01*
X223369595Y-19076089D01*
X223369595Y-18933232D01*
X223321976Y-18742756D01*
X223274357Y-18647518D01*
X223179119Y-18552280D01*
X223036262Y-18504660D01*
X222941024Y-18504660D01*
X222798167Y-18552280D01*
X222750548Y-18599899D01*
X221845786Y-18504660D02*
X222321976Y-18504660D01*
X222369595Y-18980851D01*
X222321976Y-18933232D01*
X222226738Y-18885613D01*
X221988643Y-18885613D01*
X221893405Y-18933232D01*
X221845786Y-18980851D01*
X221798167Y-19076089D01*
X221798167Y-19314184D01*
X221845786Y-19409422D01*
X221893405Y-19457041D01*
X221988643Y-19504660D01*
X222226738Y-19504660D01*
X222321976Y-19457041D01*
X222369595Y-19409422D01*
X164004565Y-29837184D02*
X163004565Y-29837184D01*
X163004565Y-30075280D01*
X163052185Y-30218137D01*
X163147423Y-30313375D01*
X163242661Y-30360994D01*
X163433137Y-30408613D01*
X163575994Y-30408613D01*
X163766470Y-30360994D01*
X163861708Y-30313375D01*
X163956946Y-30218137D01*
X164004565Y-30075280D01*
X164004565Y-29837184D01*
X164004565Y-30884803D02*
X164004565Y-31075280D01*
X163956946Y-31170518D01*
X163909327Y-31218137D01*
X163766470Y-31313375D01*
X163575994Y-31360994D01*
X163195042Y-31360994D01*
X163099804Y-31313375D01*
X163052185Y-31265756D01*
X163004565Y-31170518D01*
X163004565Y-30980041D01*
X163052185Y-30884803D01*
X163099804Y-30837184D01*
X163195042Y-30789565D01*
X163433137Y-30789565D01*
X163528375Y-30837184D01*
X163575994Y-30884803D01*
X163623613Y-30980041D01*
X163623613Y-31170518D01*
X163575994Y-31265756D01*
X163528375Y-31313375D01*
X163433137Y-31360994D01*
X202104565Y-30414994D02*
X201104565Y-30414994D01*
X201104565Y-30653089D01*
X201152185Y-30795946D01*
X201247423Y-30891184D01*
X201342661Y-30938803D01*
X201533137Y-30986422D01*
X201675994Y-30986422D01*
X201866470Y-30938803D01*
X201961708Y-30891184D01*
X202056946Y-30795946D01*
X202104565Y-30653089D01*
X202104565Y-30414994D01*
X202104565Y-31938803D02*
X202104565Y-31367375D01*
X202104565Y-31653089D02*
X201104565Y-31653089D01*
X201247423Y-31557851D01*
X201342661Y-31462613D01*
X201390280Y-31367375D01*
X201104565Y-32557851D02*
X201104565Y-32653089D01*
X201152185Y-32748327D01*
X201199804Y-32795946D01*
X201295042Y-32843565D01*
X201485518Y-32891184D01*
X201723613Y-32891184D01*
X201914089Y-32843565D01*
X202009327Y-32795946D01*
X202056946Y-32748327D01*
X202104565Y-32653089D01*
X202104565Y-32557851D01*
X202056946Y-32462613D01*
X202009327Y-32414994D01*
X201914089Y-32367375D01*
X201723613Y-32319756D01*
X201485518Y-32319756D01*
X201295042Y-32367375D01*
X201199804Y-32414994D01*
X201152185Y-32462613D01*
X201104565Y-32557851D01*
X127258940Y-35004446D02*
X127973226Y-35004446D01*
X128116083Y-34956827D01*
X128211321Y-34861589D01*
X128258940Y-34718732D01*
X128258940Y-34623494D01*
X127354179Y-35433018D02*
X127306560Y-35480637D01*
X127258940Y-35575875D01*
X127258940Y-35813970D01*
X127306560Y-35909208D01*
X127354179Y-35956827D01*
X127449417Y-36004446D01*
X127544655Y-36004446D01*
X127687512Y-35956827D01*
X128258940Y-35385399D01*
X128258940Y-36004446D01*
X284614833Y-18990226D02*
X284281500Y-18990226D01*
X284138643Y-19514035D02*
X284614833Y-19514035D01*
X284614833Y-18514035D01*
X284138643Y-18514035D01*
X283805310Y-18514035D02*
X283138643Y-19514035D01*
X283138643Y-18514035D02*
X283805310Y-19514035D01*
X282900548Y-18514035D02*
X282329119Y-18514035D01*
X282614833Y-19514035D02*
X282614833Y-18514035D01*
X282233881Y-19609274D02*
X281471976Y-19609274D01*
X281376738Y-18514035D02*
X280805310Y-18514035D01*
X281091024Y-19514035D02*
X281091024Y-18514035D01*
X279900548Y-19418797D02*
X279948167Y-19466416D01*
X280091024Y-19514035D01*
X280186262Y-19514035D01*
X280329119Y-19466416D01*
X280424357Y-19371178D01*
X280471976Y-19275940D01*
X280519595Y-19085464D01*
X280519595Y-18942607D01*
X280471976Y-18752131D01*
X280424357Y-18656893D01*
X280329119Y-18561655D01*
X280186262Y-18514035D01*
X280091024Y-18514035D01*
X279948167Y-18561655D01*
X279900548Y-18609274D01*
X279567214Y-18514035D02*
X278900548Y-18514035D01*
X279329119Y-19514035D01*
X94114833Y-18990226D02*
X93781500Y-18990226D01*
X93638643Y-19514035D02*
X94114833Y-19514035D01*
X94114833Y-18514035D01*
X93638643Y-18514035D01*
X93305310Y-18514035D02*
X92638643Y-19514035D01*
X92638643Y-18514035D02*
X93305310Y-19514035D01*
X92400548Y-18514035D02*
X91829119Y-18514035D01*
X92114833Y-19514035D02*
X92114833Y-18514035D01*
X91733881Y-19609274D02*
X90971976Y-19609274D01*
X90876738Y-18514035D02*
X90305310Y-18514035D01*
X90591024Y-19514035D02*
X90591024Y-18514035D01*
X89400548Y-19418797D02*
X89448167Y-19466416D01*
X89591024Y-19514035D01*
X89686262Y-19514035D01*
X89829119Y-19466416D01*
X89924357Y-19371178D01*
X89971976Y-19275940D01*
X90019595Y-19085464D01*
X90019595Y-18942607D01*
X89971976Y-18752131D01*
X89924357Y-18656893D01*
X89829119Y-18561655D01*
X89686262Y-18514035D01*
X89591024Y-18514035D01*
X89448167Y-18561655D01*
X89400548Y-18609274D01*
X89019595Y-18609274D02*
X88971976Y-18561655D01*
X88876738Y-18514035D01*
X88638643Y-18514035D01*
X88543405Y-18561655D01*
X88495786Y-18609274D01*
X88448167Y-18704512D01*
X88448167Y-18799750D01*
X88495786Y-18942607D01*
X89067214Y-19514035D01*
X88448167Y-19514035D01*
X148883583Y-38838226D02*
X148550250Y-38838226D01*
X148407393Y-39362035D02*
X148883583Y-39362035D01*
X148883583Y-38362035D01*
X148407393Y-38362035D01*
X148074060Y-38362035D02*
X147407393Y-39362035D01*
X147407393Y-38362035D02*
X148074060Y-39362035D01*
X147169298Y-38362035D02*
X146597869Y-38362035D01*
X146883583Y-39362035D02*
X146883583Y-38362035D01*
X146502631Y-39457274D02*
X145740726Y-39457274D01*
X145645488Y-38362035D02*
X145074060Y-38362035D01*
X145359774Y-39362035D02*
X145359774Y-38362035D01*
X144169298Y-39362035D02*
X144502631Y-38885845D01*
X144740726Y-39362035D02*
X144740726Y-38362035D01*
X144359774Y-38362035D01*
X144264536Y-38409655D01*
X144216917Y-38457274D01*
X144169298Y-38552512D01*
X144169298Y-38695369D01*
X144216917Y-38790607D01*
X144264536Y-38838226D01*
X144359774Y-38885845D01*
X144740726Y-38885845D01*
X143312155Y-38362035D02*
X143502631Y-38362035D01*
X143597869Y-38409655D01*
X143645488Y-38457274D01*
X143740726Y-38600131D01*
X143788345Y-38790607D01*
X143788345Y-39171559D01*
X143740726Y-39266797D01*
X143693107Y-39314416D01*
X143597869Y-39362035D01*
X143407393Y-39362035D01*
X143312155Y-39314416D01*
X143264536Y-39266797D01*
X143216917Y-39171559D01*
X143216917Y-38933464D01*
X143264536Y-38838226D01*
X143312155Y-38790607D01*
X143407393Y-38742988D01*
X143597869Y-38742988D01*
X143693107Y-38790607D01*
X143740726Y-38838226D01*
X143788345Y-38933464D01*
X56014833Y-18980851D02*
X55681500Y-18980851D01*
X55538643Y-19504660D02*
X56014833Y-19504660D01*
X56014833Y-18504660D01*
X55538643Y-18504660D01*
X55205310Y-18504660D02*
X54538643Y-19504660D01*
X54538643Y-18504660D02*
X55205310Y-19504660D01*
X54300548Y-18504660D02*
X53729119Y-18504660D01*
X54014833Y-19504660D02*
X54014833Y-18504660D01*
X53633881Y-19599899D02*
X52871976Y-19599899D01*
X52776738Y-18504660D02*
X52205310Y-18504660D01*
X52491024Y-19504660D02*
X52491024Y-18504660D01*
X51300548Y-19504660D02*
X51633881Y-19028470D01*
X51871976Y-19504660D02*
X51871976Y-18504660D01*
X51491024Y-18504660D01*
X51395786Y-18552280D01*
X51348167Y-18599899D01*
X51300548Y-18695137D01*
X51300548Y-18837994D01*
X51348167Y-18933232D01*
X51395786Y-18980851D01*
X51491024Y-19028470D01*
X51871976Y-19028470D01*
X50395786Y-18504660D02*
X50871976Y-18504660D01*
X50919595Y-18980851D01*
X50871976Y-18933232D01*
X50776738Y-18885613D01*
X50538643Y-18885613D01*
X50443405Y-18933232D01*
X50395786Y-18980851D01*
X50348167Y-19076089D01*
X50348167Y-19314184D01*
X50395786Y-19409422D01*
X50443405Y-19457041D01*
X50538643Y-19504660D01*
X50776738Y-19504660D01*
X50871976Y-19457041D01*
X50919595Y-19409422D01*
X30654565Y-29837184D02*
X29654565Y-29837184D01*
X29654565Y-30075280D01*
X29702185Y-30218137D01*
X29797423Y-30313375D01*
X29892661Y-30360994D01*
X30083137Y-30408613D01*
X30225994Y-30408613D01*
X30416470Y-30360994D01*
X30511708Y-30313375D01*
X30606946Y-30218137D01*
X30654565Y-30075280D01*
X30654565Y-29837184D01*
X30654565Y-31360994D02*
X30654565Y-30789565D01*
X30654565Y-31075280D02*
X29654565Y-31075280D01*
X29797423Y-30980041D01*
X29892661Y-30884803D01*
X29940280Y-30789565D01*
X176292065Y-40902119D02*
X175292065Y-40902119D01*
X175292065Y-41140214D01*
X175339685Y-41283071D01*
X175434923Y-41378309D01*
X175530161Y-41425928D01*
X175720637Y-41473547D01*
X175863494Y-41473547D01*
X176053970Y-41425928D01*
X176149208Y-41378309D01*
X176244446Y-41283071D01*
X176292065Y-41140214D01*
X176292065Y-40902119D01*
X176292065Y-42425928D02*
X176292065Y-41854500D01*
X176292065Y-42140214D02*
X175292065Y-42140214D01*
X175434923Y-42044976D01*
X175530161Y-41949738D01*
X175577780Y-41854500D01*
X175720637Y-42997357D02*
X175673018Y-42902119D01*
X175625399Y-42854500D01*
X175530161Y-42806881D01*
X175482542Y-42806881D01*
X175387304Y-42854500D01*
X175339685Y-42902119D01*
X175292065Y-42997357D01*
X175292065Y-43187833D01*
X175339685Y-43283071D01*
X175387304Y-43330690D01*
X175482542Y-43378309D01*
X175530161Y-43378309D01*
X175625399Y-43330690D01*
X175673018Y-43283071D01*
X175720637Y-43187833D01*
X175720637Y-42997357D01*
X175768256Y-42902119D01*
X175815875Y-42854500D01*
X175911113Y-42806881D01*
X176101589Y-42806881D01*
X176196827Y-42854500D01*
X176244446Y-42902119D01*
X176292065Y-42997357D01*
X176292065Y-43187833D01*
X176244446Y-43283071D01*
X176196827Y-43330690D01*
X176101589Y-43378309D01*
X175911113Y-43378309D01*
X175815875Y-43330690D01*
X175768256Y-43283071D01*
X175720637Y-43187833D01*
X148788643Y-26047660D02*
X148788643Y-26761946D01*
X148836262Y-26904803D01*
X148931500Y-27000041D01*
X149074357Y-27047660D01*
X149169595Y-27047660D01*
X147788643Y-27047660D02*
X148360071Y-27047660D01*
X148074357Y-27047660D02*
X148074357Y-26047660D01*
X148169595Y-26190518D01*
X148264833Y-26285756D01*
X148360071Y-26333375D01*
D13*
X86352185Y-33875280D02*
X86352185Y-29975280D01*
X84352185Y-33875280D02*
X84352185Y-29975280D01*
X86352185Y-33875280D02*
X84352185Y-33875280D01*
X84352185Y-33875280D02*
X84352185Y-34165280D01*
X84352185Y-34165280D02*
X86352185Y-34165280D01*
X86352185Y-34165280D02*
X86352185Y-33875280D01*
G36*
X86352185Y-33875280D02*
G01*
X84352185Y-33875280D01*
X84352185Y-34165280D01*
X86352185Y-34165280D01*
X86352185Y-33875280D01*
G37*
G36*
X85352185Y-32260280D02*
G01*
X84590185Y-31117280D01*
X86114185Y-31117280D01*
X85352185Y-32260280D01*
G37*
X85352185Y-32260280D02*
X84590185Y-31117280D01*
X86114185Y-31117280D01*
X85352185Y-32260280D01*
X263955310Y-21050280D02*
G75*
G03*
X263955310Y-21050280I-1200000J0D01*
G01*
X293902185Y-32825280D02*
X293902185Y-28925280D01*
X295902185Y-32825280D02*
X295902185Y-28925280D01*
X295902185Y-32825280D02*
X293902185Y-32825280D01*
X293902185Y-32825280D02*
X293902185Y-33115280D01*
X293902185Y-33115280D02*
X295902185Y-33115280D01*
X295902185Y-33115280D02*
X295902185Y-32825280D01*
G36*
X295902185Y-32825280D02*
G01*
X293902185Y-32825280D01*
X293902185Y-33115280D01*
X295902185Y-33115280D01*
X295902185Y-32825280D01*
G37*
G36*
X294902185Y-31210280D02*
G01*
X294140185Y-30067280D01*
X295664185Y-30067280D01*
X294902185Y-31210280D01*
G37*
X294902185Y-31210280D02*
X294140185Y-30067280D01*
X295664185Y-30067280D01*
X294902185Y-31210280D01*
X238752185Y-33879280D02*
X238752185Y-29979280D01*
X236752185Y-33879280D02*
X236752185Y-29979280D01*
X238752185Y-33879280D02*
X236752185Y-33879280D01*
X236752185Y-33879280D02*
X236752185Y-34169280D01*
X236752185Y-34169280D02*
X238752185Y-34169280D01*
X238752185Y-34169280D02*
X238752185Y-33879280D01*
G36*
X238752185Y-33879280D02*
G01*
X236752185Y-33879280D01*
X236752185Y-34169280D01*
X238752185Y-34169280D01*
X238752185Y-33879280D01*
G37*
G36*
X237752185Y-32264280D02*
G01*
X236990185Y-31121280D01*
X238514185Y-31121280D01*
X237752185Y-32264280D01*
G37*
X237752185Y-32264280D02*
X236990185Y-31121280D01*
X238514185Y-31121280D01*
X237752185Y-32264280D01*
G36*
X156103838Y-34105236D02*
G01*
X156134929Y-34112411D01*
X156153935Y-34127593D01*
X156160377Y-34150486D01*
X156158983Y-34156808D01*
X156152428Y-34176396D01*
X156141121Y-34206796D01*
X156125751Y-34246250D01*
X156107004Y-34293005D01*
X156085567Y-34345305D01*
X156062129Y-34401395D01*
X156044907Y-34442553D01*
X156023424Y-34494914D01*
X156004715Y-34541697D01*
X155989410Y-34581263D01*
X155978141Y-34611971D01*
X155971539Y-34632179D01*
X155970236Y-34640247D01*
X155975236Y-34640488D01*
X155993909Y-34639042D01*
X156025074Y-34635734D01*
X156067389Y-34630732D01*
X156119510Y-34624206D01*
X156180092Y-34616325D01*
X156247791Y-34607259D01*
X156321265Y-34597176D01*
X156399168Y-34586246D01*
X156491116Y-34573351D01*
X156575490Y-34561816D01*
X156650080Y-34551938D01*
X156714045Y-34543820D01*
X156766546Y-34537567D01*
X156806740Y-34533282D01*
X156833787Y-34531070D01*
X156846846Y-34531032D01*
X156869161Y-34538252D01*
X156889209Y-34549719D01*
X156896236Y-34555952D01*
X156902573Y-34568036D01*
X156899082Y-34585112D01*
X156887830Y-34602856D01*
X156865477Y-34619270D01*
X156853260Y-34622944D01*
X156825821Y-34628681D01*
X156783827Y-34636195D01*
X156727452Y-34645458D01*
X156656873Y-34656442D01*
X156572264Y-34669120D01*
X156473801Y-34683463D01*
X156361658Y-34699444D01*
X156277956Y-34711303D01*
X156189452Y-34723973D01*
X156113917Y-34734973D01*
X156050309Y-34744473D01*
X155997588Y-34752643D01*
X155954712Y-34759657D01*
X155920639Y-34765684D01*
X155894329Y-34770897D01*
X155874739Y-34775467D01*
X155860829Y-34779564D01*
X155851558Y-34783360D01*
X155848988Y-34784694D01*
X155831288Y-34794353D01*
X155803064Y-34810157D01*
X155766270Y-34830996D01*
X155722861Y-34855759D01*
X155674793Y-34883335D01*
X155624021Y-34912614D01*
X155614800Y-34917944D01*
X155562858Y-34947897D01*
X155512863Y-34976621D01*
X155467021Y-35002855D01*
X155427538Y-35025340D01*
X155396620Y-35042815D01*
X155376472Y-35054020D01*
X155355686Y-35064919D01*
X155329828Y-35075951D01*
X155306709Y-35081317D01*
X155280487Y-35082764D01*
X155273065Y-35082731D01*
X155248634Y-35080990D01*
X155232314Y-35075441D01*
X155218600Y-35064457D01*
X155216941Y-35062768D01*
X155205055Y-35048504D01*
X155200188Y-35038620D01*
X155201618Y-35032584D01*
X155207952Y-35023459D01*
X155220292Y-35011914D01*
X155239661Y-34997266D01*
X155267081Y-34978835D01*
X155303577Y-34955938D01*
X155350171Y-34927894D01*
X155407885Y-34894021D01*
X155477742Y-34853637D01*
X155480518Y-34852040D01*
X155536239Y-34819921D01*
X155588399Y-34789730D01*
X155635423Y-34762387D01*
X155675734Y-34738816D01*
X155707756Y-34719937D01*
X155729912Y-34706672D01*
X155740626Y-34699942D01*
X155741295Y-34699442D01*
X155748570Y-34691147D01*
X155758213Y-34675455D01*
X155770741Y-34651270D01*
X155786673Y-34617498D01*
X155806528Y-34573044D01*
X155830824Y-34516812D01*
X155860079Y-34447708D01*
X155877227Y-34406975D01*
X155901048Y-34350594D01*
X155923228Y-34298319D01*
X155942938Y-34252098D01*
X155959347Y-34213877D01*
X155971623Y-34185601D01*
X155978937Y-34169219D01*
X155994135Y-34142560D01*
X156016571Y-34120675D01*
X156046300Y-34108696D01*
X156086540Y-34104692D01*
X156103838Y-34105236D01*
G37*
G36*
X164053660Y-38764559D02*
G01*
X164007958Y-38822382D01*
X163954462Y-38889626D01*
X163892645Y-38967053D01*
X163821978Y-39055427D01*
X163752760Y-39141806D01*
X163679045Y-39233364D01*
X163614472Y-39313044D01*
X163559036Y-39380849D01*
X163512734Y-39436785D01*
X163475562Y-39480858D01*
X163447514Y-39513073D01*
X163428586Y-39533435D01*
X163418774Y-39541950D01*
X163406604Y-39546622D01*
X163377536Y-39552142D01*
X163345578Y-39553227D01*
X163316470Y-39549873D01*
X163295950Y-39542073D01*
X163290807Y-39538166D01*
X163282260Y-39528360D01*
X163279313Y-39516476D01*
X163282666Y-39500967D01*
X163293020Y-39480287D01*
X163311075Y-39452888D01*
X163337532Y-39417225D01*
X163373091Y-39371751D01*
X163378796Y-39364543D01*
X163406735Y-39328909D01*
X163430911Y-39297531D01*
X163449921Y-39272272D01*
X163462357Y-39254995D01*
X163466815Y-39247560D01*
X163465845Y-39246489D01*
X163454871Y-39238896D01*
X163432779Y-39224994D01*
X163400940Y-39205604D01*
X163360724Y-39181549D01*
X163313502Y-39153652D01*
X163260645Y-39122733D01*
X163203523Y-39089617D01*
X162940232Y-38937628D01*
X162721639Y-38995172D01*
X162716651Y-38996484D01*
X162651036Y-39013555D01*
X162598105Y-39026871D01*
X162556230Y-39036778D01*
X162523781Y-39043622D01*
X162499130Y-39047747D01*
X162480647Y-39049499D01*
X162466703Y-39049224D01*
X162443542Y-39044989D01*
X162418218Y-39033058D01*
X162404671Y-39016420D01*
X162403548Y-38997329D01*
X162415501Y-38978033D01*
X162441179Y-38960785D01*
X162442971Y-38960059D01*
X162458267Y-38955130D01*
X162486831Y-38946701D01*
X162527701Y-38935037D01*
X162579914Y-38920401D01*
X162642509Y-38903057D01*
X162705895Y-38885639D01*
X163149358Y-38885639D01*
X163150181Y-38887311D01*
X163160859Y-38895739D01*
X163182330Y-38910158D01*
X163213087Y-38929628D01*
X163251628Y-38953205D01*
X163296449Y-38979947D01*
X163346046Y-39008912D01*
X163370358Y-39022940D01*
X163418758Y-39050705D01*
X163462274Y-39075454D01*
X163499290Y-39096281D01*
X163528189Y-39112279D01*
X163547356Y-39122543D01*
X163555173Y-39126166D01*
X163560839Y-39124536D01*
X163573731Y-39116789D01*
X163574820Y-39115805D01*
X163584309Y-39105272D01*
X163601212Y-39085272D01*
X163624229Y-39057426D01*
X163652063Y-39023358D01*
X163683412Y-38984690D01*
X163716978Y-38943047D01*
X163751462Y-38900050D01*
X163785563Y-38857322D01*
X163817984Y-38816487D01*
X163847424Y-38779168D01*
X163872584Y-38746988D01*
X163892165Y-38721569D01*
X163904868Y-38704535D01*
X163909393Y-38697509D01*
X163908135Y-38694789D01*
X163898391Y-38688460D01*
X163897593Y-38688384D01*
X163885639Y-38690328D01*
X163861269Y-38695694D01*
X163826163Y-38704037D01*
X163782004Y-38714917D01*
X163730474Y-38727889D01*
X163673255Y-38742511D01*
X163612028Y-38758341D01*
X163548475Y-38774935D01*
X163484279Y-38791851D01*
X163421120Y-38808646D01*
X163360682Y-38824878D01*
X163304646Y-38840104D01*
X163254693Y-38853880D01*
X163212506Y-38865764D01*
X163179767Y-38875314D01*
X163158157Y-38882086D01*
X163149358Y-38885639D01*
X162705895Y-38885639D01*
X162714523Y-38883268D01*
X162794994Y-38861298D01*
X162882960Y-38837411D01*
X162977459Y-38811871D01*
X163077529Y-38784942D01*
X163182206Y-38756887D01*
X163290530Y-38727970D01*
X163396220Y-38699814D01*
X163514148Y-38668426D01*
X163619046Y-38640571D01*
X163711726Y-38616069D01*
X163792996Y-38594739D01*
X163863668Y-38576399D01*
X163924553Y-38560868D01*
X163976460Y-38547965D01*
X164020202Y-38537509D01*
X164056587Y-38529320D01*
X164086427Y-38523214D01*
X164110533Y-38519013D01*
X164129715Y-38516534D01*
X164144783Y-38515596D01*
X164156548Y-38516018D01*
X164165821Y-38517620D01*
X164173413Y-38520219D01*
X164180133Y-38523635D01*
X164186793Y-38527686D01*
X164192985Y-38531765D01*
X164198170Y-38536380D01*
X164201368Y-38542013D01*
X164202052Y-38549428D01*
X164199694Y-38559389D01*
X164193766Y-38572660D01*
X164183740Y-38590004D01*
X164169088Y-38612186D01*
X164149281Y-38639968D01*
X164123793Y-38674115D01*
X164105828Y-38697509D01*
X164092095Y-38715391D01*
X164053660Y-38764559D01*
G37*
G36*
X166253568Y-39000953D02*
G01*
X166319075Y-39008225D01*
X166393638Y-39022345D01*
X166476289Y-39043271D01*
X166560210Y-39069886D01*
X166647133Y-39104637D01*
X166724405Y-39143605D01*
X166790266Y-39185893D01*
X166842960Y-39230602D01*
X166848416Y-39236130D01*
X166885259Y-39278368D01*
X166909830Y-39317861D01*
X166923510Y-39357360D01*
X166927677Y-39399618D01*
X166925477Y-39430432D01*
X166914225Y-39469310D01*
X166891895Y-39505260D01*
X166856785Y-39541700D01*
X166821477Y-39569586D01*
X166756538Y-39606750D01*
X166681582Y-39635245D01*
X166598370Y-39654452D01*
X166508664Y-39663754D01*
X166508346Y-39663769D01*
X166429228Y-39663992D01*
X166353141Y-39656943D01*
X166277371Y-39641940D01*
X166199203Y-39618302D01*
X166115924Y-39585350D01*
X166024818Y-39542401D01*
X166010370Y-39535188D01*
X165947207Y-39505039D01*
X165892975Y-39482051D01*
X165844708Y-39465301D01*
X165799436Y-39453866D01*
X165754191Y-39446823D01*
X165706006Y-39443249D01*
X165700033Y-39443014D01*
X165634622Y-39443513D01*
X165577760Y-39450830D01*
X165524557Y-39465931D01*
X165470120Y-39489781D01*
X165420136Y-39518672D01*
X165378872Y-39552021D01*
X165352056Y-39586831D01*
X165339867Y-39622864D01*
X165342483Y-39659882D01*
X165344000Y-39664900D01*
X165361533Y-39698648D01*
X165391646Y-39734987D01*
X165432748Y-39772591D01*
X165483250Y-39810133D01*
X165541560Y-39846286D01*
X165606086Y-39879723D01*
X165644201Y-39897117D01*
X165707063Y-39922506D01*
X165767410Y-39941773D01*
X165829597Y-39956023D01*
X165897979Y-39966362D01*
X165976913Y-39973898D01*
X165985677Y-39974587D01*
X166023639Y-39978127D01*
X166056362Y-39982037D01*
X166080600Y-39985888D01*
X166093108Y-39989251D01*
X166102724Y-39998911D01*
X166107335Y-40021694D01*
X166102935Y-40044490D01*
X166087291Y-40063125D01*
X166058575Y-40077736D01*
X166044423Y-40080695D01*
X166015178Y-40083063D01*
X165974285Y-40084054D01*
X165923548Y-40083591D01*
X165901557Y-40083016D01*
X165851071Y-40080639D01*
X165807974Y-40076534D01*
X165766751Y-40070072D01*
X165721885Y-40060625D01*
X165629737Y-40036562D01*
X165532189Y-40004114D01*
X165443024Y-39966790D01*
X165363339Y-39925238D01*
X165294232Y-39880106D01*
X165236802Y-39832043D01*
X165192146Y-39781697D01*
X165161363Y-39729716D01*
X165145964Y-39684691D01*
X165142328Y-39640735D01*
X165150780Y-39594299D01*
X165151944Y-39590375D01*
X165160291Y-39567616D01*
X165171696Y-39547718D01*
X165188986Y-39526529D01*
X165214983Y-39499896D01*
X165240837Y-39476617D01*
X165305214Y-39431676D01*
X165379772Y-39394158D01*
X165462246Y-39364661D01*
X165550373Y-39343781D01*
X165641888Y-39332116D01*
X165734529Y-39330262D01*
X165826029Y-39338816D01*
X165849247Y-39342601D01*
X165911315Y-39355075D01*
X165970018Y-39371024D01*
X166029252Y-39391757D01*
X166092909Y-39418584D01*
X166164885Y-39452816D01*
X166221479Y-39480519D01*
X166268556Y-39502598D01*
X166307523Y-39519443D01*
X166340946Y-39532016D01*
X166371389Y-39541281D01*
X166401417Y-39548202D01*
X166433594Y-39553742D01*
X166451380Y-39555934D01*
X166510500Y-39556625D01*
X166568673Y-39548118D01*
X166622647Y-39531337D01*
X166669168Y-39507207D01*
X166704984Y-39476651D01*
X166717579Y-39461398D01*
X166731106Y-39438572D01*
X166734858Y-39416528D01*
X166730339Y-39390135D01*
X166718929Y-39363435D01*
X166692774Y-39327972D01*
X166655116Y-39291814D01*
X166607705Y-39256399D01*
X166552291Y-39223160D01*
X166490625Y-39193535D01*
X166476901Y-39187775D01*
X166434831Y-39171453D01*
X166393235Y-39157785D01*
X166348267Y-39145706D01*
X166296079Y-39134148D01*
X166232823Y-39122045D01*
X166228321Y-39121218D01*
X166190606Y-39113587D01*
X166157316Y-39105686D01*
X166131912Y-39098403D01*
X166117858Y-39092621D01*
X166111876Y-39087742D01*
X166101160Y-39068227D01*
X166101372Y-39045908D01*
X166112961Y-39026804D01*
X166121050Y-39020673D01*
X166153588Y-39007133D01*
X166198084Y-39000575D01*
X166253568Y-39000953D01*
G37*
G36*
X159492908Y-36661148D02*
G01*
X159492085Y-36661667D01*
X159479790Y-36669023D01*
X159455841Y-36683080D01*
X159421398Y-36703168D01*
X159377622Y-36728619D01*
X159325675Y-36758761D01*
X159266717Y-36792926D01*
X159201908Y-36830442D01*
X159132410Y-36870640D01*
X159059383Y-36912850D01*
X158983988Y-36956402D01*
X158907385Y-37000626D01*
X158830736Y-37044853D01*
X158755202Y-37088411D01*
X158681942Y-37130631D01*
X158612118Y-37170844D01*
X158546890Y-37208379D01*
X158487419Y-37242566D01*
X158434867Y-37272735D01*
X158390393Y-37298217D01*
X158355159Y-37318341D01*
X158330324Y-37332437D01*
X158317051Y-37339835D01*
X158299167Y-37348000D01*
X158274254Y-37353462D01*
X158242036Y-37353675D01*
X158232447Y-37353038D01*
X158220409Y-37351442D01*
X158207642Y-37348297D01*
X158192618Y-37342853D01*
X158173807Y-37334358D01*
X158149679Y-37322062D01*
X158118706Y-37305215D01*
X158079358Y-37283065D01*
X158030106Y-37254862D01*
X157969421Y-37219856D01*
X157928539Y-37196073D01*
X157875346Y-37164640D01*
X157826154Y-37135031D01*
X157782774Y-37108362D01*
X157747015Y-37085750D01*
X157720686Y-37068309D01*
X157705596Y-37057155D01*
X157683945Y-37036338D01*
X157652315Y-36992125D01*
X157634035Y-36941845D01*
X157628484Y-36884099D01*
X157630235Y-36860037D01*
X157814243Y-36860037D01*
X157819031Y-36908238D01*
X157838254Y-36952609D01*
X157871931Y-36993316D01*
X157880645Y-37000276D01*
X157902311Y-37015168D01*
X157933380Y-37035126D01*
X157971739Y-37058828D01*
X158015275Y-37084953D01*
X158061877Y-37112177D01*
X158097878Y-37132897D01*
X158141513Y-37157934D01*
X158180204Y-37180051D01*
X158211941Y-37198100D01*
X158234711Y-37210935D01*
X158246503Y-37217410D01*
X158249636Y-37218777D01*
X158254273Y-37219638D01*
X158260495Y-37219101D01*
X158269179Y-37216694D01*
X158281200Y-37211947D01*
X158297437Y-37204390D01*
X158318766Y-37193553D01*
X158346065Y-37178964D01*
X158380209Y-37160154D01*
X158422077Y-37136651D01*
X158472545Y-37107986D01*
X158532490Y-37073688D01*
X158602790Y-37033286D01*
X158684320Y-36986310D01*
X158777959Y-36932289D01*
X158802720Y-36917998D01*
X158882043Y-36872197D01*
X158957260Y-36828737D01*
X159027385Y-36788189D01*
X159091428Y-36751128D01*
X159148401Y-36718124D01*
X159197318Y-36689751D01*
X159237189Y-36666582D01*
X159267026Y-36649188D01*
X159285843Y-36638143D01*
X159292650Y-36634019D01*
X159292466Y-36633621D01*
X159284103Y-36627655D01*
X159264676Y-36615458D01*
X159235778Y-36597983D01*
X159199004Y-36576188D01*
X159155949Y-36551028D01*
X159108207Y-36523458D01*
X159090677Y-36513402D01*
X159028444Y-36478027D01*
X158976368Y-36449411D01*
X158932255Y-36426839D01*
X158893910Y-36409593D01*
X158859140Y-36396960D01*
X158825750Y-36388221D01*
X158791547Y-36382663D01*
X158754337Y-36379568D01*
X158711926Y-36378222D01*
X158662119Y-36377908D01*
X158637925Y-36377946D01*
X158588447Y-36378595D01*
X158548712Y-36380262D01*
X158515008Y-36383232D01*
X158483623Y-36387795D01*
X158450845Y-36394235D01*
X158447109Y-36395044D01*
X158341845Y-36422266D01*
X158242471Y-36456391D01*
X158150281Y-36496639D01*
X158066566Y-36542226D01*
X157992617Y-36592373D01*
X157929728Y-36646297D01*
X157879189Y-36703218D01*
X157842292Y-36762353D01*
X157823867Y-36807839D01*
X157814243Y-36860037D01*
X157630235Y-36860037D01*
X157631774Y-36838901D01*
X157643430Y-36790578D01*
X157664897Y-36742443D01*
X157697630Y-36690423D01*
X157750637Y-36625872D01*
X157818104Y-36562757D01*
X157897335Y-36503492D01*
X157986783Y-36448851D01*
X158084900Y-36399610D01*
X158190138Y-36356544D01*
X158300950Y-36320427D01*
X158415787Y-36292034D01*
X158533103Y-36272141D01*
X158536061Y-36271758D01*
X158635675Y-36262781D01*
X158732814Y-36261333D01*
X158825257Y-36267185D01*
X158910783Y-36280104D01*
X158987170Y-36299859D01*
X159052196Y-36326218D01*
X159052486Y-36326365D01*
X159071253Y-36336329D01*
X159099669Y-36352008D01*
X159135840Y-36372312D01*
X159177876Y-36396146D01*
X159223884Y-36422419D01*
X159271972Y-36450039D01*
X159320248Y-36477912D01*
X159366821Y-36504948D01*
X159409798Y-36530053D01*
X159447288Y-36552136D01*
X159477397Y-36570103D01*
X159498236Y-36582863D01*
X159507911Y-36589323D01*
X159516577Y-36602017D01*
X159521038Y-36621729D01*
X159520143Y-36630949D01*
X159518497Y-36634019D01*
X159512062Y-36646023D01*
X159492908Y-36661148D01*
G37*
G36*
X160667015Y-36945112D02*
G01*
X160667584Y-36991973D01*
X160668345Y-37039364D01*
X160669194Y-37079669D01*
X160670082Y-37110908D01*
X160670959Y-37131103D01*
X160671777Y-37138275D01*
X160676123Y-37136153D01*
X160691608Y-37127606D01*
X160716194Y-37113658D01*
X160747702Y-37095547D01*
X160783953Y-37074512D01*
X160811109Y-37058936D01*
X160845875Y-37039761D01*
X160875161Y-37024491D01*
X160896503Y-37014397D01*
X160907442Y-37010749D01*
X160910232Y-37011831D01*
X160924993Y-37019394D01*
X160951565Y-37033813D01*
X160989188Y-37054657D01*
X161037102Y-37081493D01*
X161094546Y-37113888D01*
X161160761Y-37151412D01*
X161234985Y-37193632D01*
X161316459Y-37240115D01*
X161404423Y-37290430D01*
X161498115Y-37344145D01*
X161596776Y-37400827D01*
X161699646Y-37460045D01*
X161805963Y-37521367D01*
X161864838Y-37555355D01*
X161969111Y-37615540D01*
X162069389Y-37673407D01*
X162164924Y-37728524D01*
X162254965Y-37780457D01*
X162338763Y-37828776D01*
X162415567Y-37873048D01*
X162484628Y-37912841D01*
X162545196Y-37947722D01*
X162596521Y-37977261D01*
X162637853Y-38001025D01*
X162668444Y-38018581D01*
X162687542Y-38029497D01*
X162694398Y-38033343D01*
X162697782Y-38031852D01*
X162712900Y-38023786D01*
X162739029Y-38009321D01*
X162774988Y-37989127D01*
X162819597Y-37963871D01*
X162871676Y-37934223D01*
X162930044Y-37900852D01*
X162993522Y-37864426D01*
X163060930Y-37825615D01*
X163105181Y-37800125D01*
X163170714Y-37762496D01*
X163231809Y-37727556D01*
X163287246Y-37695995D01*
X163335803Y-37668503D01*
X163376261Y-37645771D01*
X163407399Y-37628489D01*
X163427996Y-37617347D01*
X163436832Y-37613035D01*
X163439027Y-37613558D01*
X163453134Y-37620123D01*
X163479665Y-37633979D01*
X163518262Y-37654922D01*
X163568565Y-37682749D01*
X163630215Y-37717257D01*
X163702852Y-37758243D01*
X163786118Y-37805504D01*
X163879653Y-37858837D01*
X163983098Y-37918039D01*
X164096094Y-37982906D01*
X164218282Y-38053237D01*
X164349302Y-38128827D01*
X164420335Y-38169839D01*
X164525179Y-38230324D01*
X164626000Y-38288430D01*
X164722051Y-38343730D01*
X164812586Y-38395795D01*
X164896858Y-38444199D01*
X164974120Y-38488512D01*
X165043624Y-38528308D01*
X165104624Y-38563157D01*
X165156373Y-38592633D01*
X165198123Y-38616307D01*
X165229129Y-38633751D01*
X165248642Y-38644537D01*
X165255917Y-38648238D01*
X165259289Y-38646814D01*
X165274499Y-38638831D01*
X165300735Y-38624417D01*
X165336798Y-38604253D01*
X165381486Y-38579017D01*
X165433599Y-38549387D01*
X165491938Y-38516043D01*
X165555302Y-38479664D01*
X165622491Y-38440927D01*
X165664289Y-38416826D01*
X165729488Y-38379420D01*
X165790243Y-38344791D01*
X165845336Y-38313621D01*
X165893551Y-38286591D01*
X165933669Y-38264381D01*
X165964472Y-38247674D01*
X165984744Y-38237150D01*
X165993266Y-38233490D01*
X165994936Y-38234152D01*
X166007842Y-38240895D01*
X166032791Y-38254612D01*
X166069122Y-38274924D01*
X166116170Y-38301453D01*
X166173273Y-38333819D01*
X166239767Y-38371643D01*
X166314990Y-38414546D01*
X166398278Y-38462150D01*
X166488967Y-38514076D01*
X166586396Y-38569945D01*
X166689900Y-38629377D01*
X166798816Y-38691995D01*
X166912481Y-38757418D01*
X167030232Y-38825269D01*
X167151407Y-38895168D01*
X168297845Y-39556846D01*
X168297783Y-39578951D01*
X168296043Y-40195460D01*
X168295930Y-40235443D01*
X168294015Y-40914041D01*
X167153791Y-41575872D01*
X167107080Y-41602977D01*
X166987454Y-41672323D01*
X166871447Y-41739471D01*
X166759727Y-41804040D01*
X166652962Y-41865646D01*
X166551820Y-41923907D01*
X166456967Y-41978442D01*
X166369071Y-42028868D01*
X166288801Y-42074803D01*
X166216822Y-42115865D01*
X166153805Y-42151671D01*
X166130837Y-42164649D01*
X166100414Y-42181839D01*
X166057319Y-42205988D01*
X166025187Y-42223734D01*
X166004685Y-42234696D01*
X165996481Y-42238491D01*
X165996367Y-42238488D01*
X165987133Y-42234538D01*
X165965571Y-42223367D01*
X165932275Y-42205312D01*
X165887843Y-42180712D01*
X165832868Y-42149906D01*
X165767948Y-42113231D01*
X165693678Y-42071028D01*
X165610653Y-42023632D01*
X165519468Y-41971385D01*
X165420720Y-41914622D01*
X165315004Y-41853684D01*
X165202916Y-41788908D01*
X165085052Y-41720634D01*
X165017425Y-41681428D01*
X164912801Y-41620825D01*
X164812170Y-41562595D01*
X164716279Y-41507169D01*
X164625878Y-41454977D01*
X164541714Y-41406450D01*
X164464536Y-41362017D01*
X164395093Y-41322108D01*
X164334131Y-41287156D01*
X164282401Y-41257588D01*
X164240649Y-41233837D01*
X164209625Y-41216332D01*
X164190076Y-41205503D01*
X164182752Y-41201781D01*
X164179285Y-41203220D01*
X164163948Y-41211240D01*
X164137602Y-41225705D01*
X164101447Y-41245934D01*
X164056684Y-41271247D01*
X164004512Y-41300964D01*
X163946133Y-41334407D01*
X163882746Y-41370894D01*
X163815552Y-41409746D01*
X163804869Y-41415934D01*
X163723472Y-41462941D01*
X163654059Y-41502721D01*
X163595837Y-41535706D01*
X163584547Y-41541990D01*
X163548016Y-41562324D01*
X163509802Y-41583005D01*
X163480404Y-41598180D01*
X163459029Y-41608276D01*
X163444885Y-41613725D01*
X163437181Y-41614955D01*
X163434528Y-41613897D01*
X163419810Y-41606326D01*
X163393267Y-41591860D01*
X163355665Y-41570937D01*
X163307773Y-41543995D01*
X163250358Y-41511473D01*
X163184189Y-41473810D01*
X163110034Y-41431442D01*
X163028660Y-41384809D01*
X162940834Y-41334350D01*
X162847326Y-41280502D01*
X162748903Y-41223703D01*
X162646333Y-41164393D01*
X162540382Y-41103009D01*
X162486801Y-41071944D01*
X162382751Y-41011668D01*
X162282612Y-40953720D01*
X162187141Y-40898536D01*
X162097091Y-40846549D01*
X162013219Y-40798194D01*
X161936278Y-40753904D01*
X161867024Y-40714114D01*
X161806212Y-40679256D01*
X161754598Y-40649767D01*
X161712935Y-40626079D01*
X161681979Y-40608626D01*
X161662485Y-40597843D01*
X161655208Y-40594163D01*
X161651250Y-40595920D01*
X161635344Y-40604399D01*
X161608483Y-40619291D01*
X161571856Y-40639920D01*
X161526653Y-40665608D01*
X161474064Y-40695679D01*
X161415280Y-40729456D01*
X161351490Y-40766261D01*
X161283885Y-40805417D01*
X161237696Y-40832163D01*
X161172302Y-40869832D01*
X161111402Y-40904681D01*
X161056205Y-40936030D01*
X161047553Y-40940899D01*
X161007919Y-40963202D01*
X160967753Y-40985517D01*
X160936914Y-41002296D01*
X160916611Y-41012862D01*
X160908052Y-41016535D01*
X160907329Y-41016273D01*
X160896651Y-41010670D01*
X160874012Y-40998120D01*
X160840213Y-40979087D01*
X160796056Y-40954033D01*
X160742344Y-40923422D01*
X160679877Y-40887716D01*
X160609458Y-40847380D01*
X160531887Y-40802877D01*
X160447968Y-40754668D01*
X160358501Y-40703219D01*
X160264289Y-40648991D01*
X160166133Y-40592448D01*
X160064835Y-40534053D01*
X159961197Y-40474270D01*
X159856020Y-40413560D01*
X159750107Y-40352389D01*
X159644258Y-40291218D01*
X159539276Y-40230511D01*
X159435962Y-40170731D01*
X159335119Y-40112341D01*
X159237547Y-40055805D01*
X159144049Y-40001585D01*
X159055427Y-39950145D01*
X158972482Y-39901948D01*
X158896015Y-39857457D01*
X158826830Y-39817135D01*
X158765727Y-39781445D01*
X158713508Y-39750851D01*
X158670974Y-39725816D01*
X158638929Y-39706802D01*
X158618173Y-39694274D01*
X158609508Y-39688693D01*
X158609392Y-39688595D01*
X158605878Y-39683416D01*
X158603173Y-39673513D01*
X158601178Y-39657175D01*
X158599797Y-39632687D01*
X158598932Y-39598336D01*
X158598484Y-39552411D01*
X158598356Y-39493197D01*
X158598356Y-39306956D01*
X158487710Y-39371236D01*
X158459531Y-39387322D01*
X158424504Y-39406483D01*
X158394937Y-39421709D01*
X158373299Y-39431740D01*
X158362060Y-39435318D01*
X158360322Y-39434682D01*
X158347223Y-39427976D01*
X158322091Y-39414265D01*
X158285592Y-39393930D01*
X158238391Y-39367353D01*
X158181153Y-39334913D01*
X158114544Y-39296992D01*
X158039227Y-39253970D01*
X157955870Y-39206228D01*
X157865136Y-39154148D01*
X157767691Y-39098108D01*
X157664200Y-39038492D01*
X157555329Y-38975678D01*
X157441742Y-38910049D01*
X157324104Y-38841984D01*
X157203082Y-38771865D01*
X156059107Y-38108610D01*
X156055356Y-37687304D01*
X156053223Y-37447711D01*
X156108011Y-37447711D01*
X156108155Y-38072208D01*
X157215251Y-38713585D01*
X157235071Y-38725067D01*
X157353484Y-38793657D01*
X157468307Y-38860151D01*
X157578869Y-38924162D01*
X157684499Y-38985302D01*
X157784526Y-39043183D01*
X157878281Y-39097418D01*
X157965092Y-39147620D01*
X158044289Y-39193399D01*
X158115200Y-39234369D01*
X158177155Y-39270141D01*
X158229484Y-39300329D01*
X158271516Y-39324544D01*
X158302579Y-39342398D01*
X158322004Y-39353505D01*
X158329119Y-39357476D01*
X158329285Y-39357389D01*
X158330392Y-39348411D01*
X158331374Y-39325360D01*
X158332225Y-39289049D01*
X158332939Y-39240292D01*
X158333508Y-39179903D01*
X158333927Y-39108696D01*
X158334189Y-39027485D01*
X158334249Y-38972379D01*
X158389848Y-38972379D01*
X158389973Y-39053926D01*
X158390220Y-39128153D01*
X158390583Y-39193963D01*
X158391055Y-39250259D01*
X158391629Y-39295943D01*
X158392298Y-39329917D01*
X158393057Y-39351084D01*
X158393898Y-39358345D01*
X158396697Y-39357263D01*
X158410654Y-39350084D01*
X158433913Y-39337302D01*
X158464095Y-39320238D01*
X158498818Y-39300209D01*
X158598069Y-39242439D01*
X158598213Y-38790900D01*
X158598243Y-38725572D01*
X158652110Y-38725572D01*
X158652183Y-38811775D01*
X158652383Y-38911255D01*
X158652699Y-39024873D01*
X158654618Y-39652017D01*
X159641062Y-40223748D01*
X159654913Y-40231776D01*
X159769203Y-40298016D01*
X159881296Y-40362981D01*
X159990363Y-40426192D01*
X160095575Y-40487166D01*
X160196103Y-40545424D01*
X160291115Y-40600485D01*
X160379784Y-40651868D01*
X160461280Y-40699092D01*
X160534772Y-40741677D01*
X160599432Y-40779143D01*
X160654430Y-40811007D01*
X160698936Y-40836790D01*
X160732121Y-40856011D01*
X160753156Y-40868189D01*
X160878805Y-40940899D01*
X160878805Y-40555150D01*
X160932849Y-40555150D01*
X160932975Y-40636682D01*
X160933222Y-40710885D01*
X160933585Y-40776662D01*
X160934057Y-40832917D01*
X160934630Y-40878554D01*
X160935300Y-40912476D01*
X160936058Y-40933588D01*
X160936899Y-40940794D01*
X160937616Y-40940507D01*
X160948151Y-40934861D01*
X160970070Y-40922543D01*
X161002129Y-40904271D01*
X161043082Y-40880761D01*
X161091682Y-40852729D01*
X161146685Y-40820892D01*
X161206844Y-40785967D01*
X161270913Y-40748669D01*
X161599258Y-40557274D01*
X161137606Y-40290030D01*
X161135658Y-39933142D01*
X161135652Y-39932063D01*
X161135146Y-39860564D01*
X161134455Y-39793882D01*
X161133611Y-39733474D01*
X161132644Y-39680794D01*
X161131584Y-39637297D01*
X161130463Y-39604438D01*
X161129310Y-39583672D01*
X161128157Y-39576454D01*
X161126331Y-39577073D01*
X161113740Y-39583397D01*
X161091658Y-39595456D01*
X161062540Y-39611895D01*
X161028835Y-39631359D01*
X160935066Y-39686065D01*
X160933148Y-40313794D01*
X160932989Y-40374480D01*
X160932852Y-40467384D01*
X160932849Y-40555150D01*
X160878805Y-40555150D01*
X160878805Y-39684617D01*
X159774924Y-39047196D01*
X159759247Y-39038144D01*
X159640778Y-38969734D01*
X159525846Y-38903365D01*
X159415126Y-38839427D01*
X159309294Y-38778309D01*
X159209026Y-38720402D01*
X159114996Y-38666096D01*
X159027881Y-38615781D01*
X158948355Y-38569847D01*
X158877093Y-38528685D01*
X158814772Y-38492684D01*
X158762067Y-38462234D01*
X158719653Y-38437726D01*
X158688206Y-38419549D01*
X158668400Y-38408095D01*
X158660911Y-38403752D01*
X158660877Y-38403732D01*
X158659051Y-38404670D01*
X158657467Y-38410249D01*
X158656113Y-38421332D01*
X158654977Y-38438784D01*
X158654049Y-38463466D01*
X158653315Y-38496244D01*
X158652766Y-38537980D01*
X158652390Y-38589537D01*
X158652175Y-38651780D01*
X158652110Y-38725572D01*
X158598243Y-38725572D01*
X158598250Y-38710993D01*
X158598337Y-38629113D01*
X158598507Y-38560137D01*
X158598792Y-38502926D01*
X158599229Y-38456341D01*
X158599852Y-38419244D01*
X158600697Y-38390496D01*
X158601797Y-38368958D01*
X158602781Y-38358016D01*
X158697827Y-38358016D01*
X158698004Y-38358155D01*
X158706728Y-38363539D01*
X158727705Y-38375980D01*
X158760257Y-38395085D01*
X158803710Y-38420462D01*
X158857387Y-38451720D01*
X158920610Y-38488467D01*
X158992705Y-38530309D01*
X159072994Y-38576856D01*
X159160802Y-38627714D01*
X159255452Y-38682493D01*
X159356268Y-38740799D01*
X159462573Y-38802241D01*
X159573691Y-38866426D01*
X159688946Y-38932963D01*
X159807662Y-39001459D01*
X159821921Y-39009684D01*
X159940099Y-39077838D01*
X160054665Y-39143887D01*
X160164948Y-39207446D01*
X160270278Y-39268129D01*
X160369986Y-39325551D01*
X160463400Y-39379327D01*
X160549851Y-39429071D01*
X160628669Y-39474398D01*
X160699183Y-39514922D01*
X160760725Y-39550259D01*
X160812623Y-39580022D01*
X160854207Y-39603827D01*
X160884808Y-39621288D01*
X160903755Y-39632020D01*
X160910379Y-39635637D01*
X160914835Y-39633209D01*
X160930413Y-39624319D01*
X160955090Y-39610087D01*
X160986711Y-39591758D01*
X161023121Y-39570574D01*
X161133680Y-39506139D01*
X161134106Y-39444284D01*
X161187885Y-39444284D01*
X161187972Y-39535165D01*
X161188198Y-39630489D01*
X161190117Y-40254836D01*
X161711545Y-40557274D01*
X162274080Y-40883555D01*
X162389170Y-40950302D01*
X162504046Y-41016906D01*
X162614987Y-41081213D01*
X162721297Y-41142819D01*
X162822283Y-41201321D01*
X162917247Y-41256319D01*
X163005495Y-41307408D01*
X163086330Y-41354186D01*
X163159058Y-41396252D01*
X163222983Y-41433202D01*
X163277409Y-41464634D01*
X163321641Y-41490146D01*
X163354983Y-41509334D01*
X163376740Y-41521797D01*
X163386217Y-41527133D01*
X163414390Y-41541990D01*
X163412479Y-40916034D01*
X163466815Y-40916034D01*
X163466840Y-40974852D01*
X163466983Y-41067688D01*
X163467246Y-41155410D01*
X163467617Y-41236919D01*
X163468088Y-41311116D01*
X163468648Y-41376903D01*
X163469287Y-41433181D01*
X163469996Y-41478851D01*
X163470764Y-41512814D01*
X163471583Y-41533972D01*
X163472441Y-41541226D01*
X163472764Y-41541145D01*
X163482132Y-41536473D01*
X163502626Y-41525244D01*
X163532736Y-41508335D01*
X163570956Y-41486621D01*
X163615775Y-41460978D01*
X163665684Y-41432283D01*
X163719175Y-41401412D01*
X163774739Y-41369241D01*
X163830866Y-41336645D01*
X163886049Y-41304502D01*
X163938778Y-41273687D01*
X163987544Y-41245076D01*
X164030838Y-41219545D01*
X164067151Y-41197971D01*
X164094975Y-41181230D01*
X164112800Y-41170197D01*
X164119118Y-41165749D01*
X164117487Y-41164198D01*
X164105250Y-41156007D01*
X164082341Y-41141771D01*
X164050313Y-41122421D01*
X164010717Y-41098891D01*
X163965105Y-41072114D01*
X163915028Y-41043023D01*
X163890992Y-41029102D01*
X163841699Y-41000376D01*
X163796969Y-40974075D01*
X163758493Y-40951207D01*
X163727960Y-40932779D01*
X163707061Y-40919801D01*
X163697485Y-40913279D01*
X163696946Y-40912784D01*
X163694026Y-40909018D01*
X163691593Y-40902953D01*
X163689604Y-40893318D01*
X163688014Y-40878843D01*
X163686779Y-40858257D01*
X163685856Y-40830290D01*
X163685199Y-40793672D01*
X163684765Y-40747132D01*
X163684509Y-40689401D01*
X163684388Y-40619207D01*
X163684358Y-40535281D01*
X163684356Y-40526341D01*
X163684255Y-40454295D01*
X163684001Y-40387192D01*
X163683611Y-40326470D01*
X163683102Y-40273567D01*
X163682489Y-40229918D01*
X163681790Y-40196961D01*
X163681020Y-40176133D01*
X163680196Y-40168871D01*
X163676600Y-40170419D01*
X163661827Y-40178257D01*
X163637860Y-40191587D01*
X163606969Y-40209140D01*
X163571425Y-40229649D01*
X163466815Y-40290426D01*
X163466815Y-40916034D01*
X163412479Y-40916034D01*
X163410554Y-40285318D01*
X162304086Y-39646115D01*
X162285110Y-39635154D01*
X162166696Y-39566768D01*
X162051882Y-39500494D01*
X161941337Y-39436717D01*
X161835732Y-39375822D01*
X161735739Y-39318196D01*
X161642028Y-39264223D01*
X161555268Y-39214290D01*
X161476132Y-39168782D01*
X161405289Y-39128085D01*
X161343410Y-39092584D01*
X161291166Y-39062666D01*
X161249227Y-39038715D01*
X161218265Y-39021119D01*
X161198948Y-39010261D01*
X161191949Y-39006528D01*
X161191433Y-39009160D01*
X161190639Y-39024903D01*
X161189932Y-39053888D01*
X161189318Y-39095015D01*
X161188805Y-39147184D01*
X161188398Y-39209295D01*
X161188105Y-39280249D01*
X161187932Y-39358945D01*
X161187885Y-39444284D01*
X161134106Y-39444284D01*
X161135643Y-39220919D01*
X161137481Y-38953836D01*
X161224134Y-38953836D01*
X161224266Y-38953977D01*
X161232452Y-38959143D01*
X161252871Y-38971358D01*
X161284857Y-38990234D01*
X161327742Y-39015384D01*
X161380859Y-39046420D01*
X161443541Y-39082955D01*
X161515119Y-39124600D01*
X161594928Y-39170968D01*
X161682299Y-39221671D01*
X161776565Y-39276321D01*
X161877059Y-39334531D01*
X161983114Y-39395913D01*
X162094062Y-39460079D01*
X162209236Y-39526642D01*
X162327969Y-39595213D01*
X162344402Y-39604700D01*
X162462810Y-39673038D01*
X162577655Y-39739289D01*
X162688264Y-39803064D01*
X162793964Y-39863977D01*
X162894081Y-39921641D01*
X162987942Y-39975669D01*
X163074874Y-40025673D01*
X163154203Y-40071266D01*
X163225256Y-40112063D01*
X163287359Y-40147674D01*
X163339839Y-40177714D01*
X163382023Y-40201796D01*
X163413237Y-40219532D01*
X163432808Y-40230535D01*
X163440063Y-40234418D01*
X163447883Y-40231805D01*
X163466704Y-40222695D01*
X163494170Y-40208198D01*
X163528074Y-40189481D01*
X163566209Y-40167710D01*
X163684358Y-40099217D01*
X163684358Y-40066377D01*
X163738360Y-40066377D01*
X163738467Y-40157231D01*
X163738700Y-40252519D01*
X163740619Y-40876274D01*
X164239729Y-41165749D01*
X164832084Y-41509304D01*
X164836601Y-41511923D01*
X164954808Y-41580476D01*
X165069653Y-41647070D01*
X165180448Y-41711307D01*
X165286508Y-41772788D01*
X165387145Y-41831117D01*
X165481673Y-41885896D01*
X165569404Y-41936726D01*
X165649652Y-41983211D01*
X165721731Y-42024951D01*
X165784953Y-42061549D01*
X165838632Y-42092608D01*
X165882080Y-42117729D01*
X165914612Y-42136516D01*
X165935540Y-42148569D01*
X165944178Y-42153491D01*
X165964807Y-42164649D01*
X165964697Y-41777910D01*
X166018850Y-41777910D01*
X166018976Y-41859444D01*
X166019223Y-41933653D01*
X166019586Y-41999439D01*
X166020057Y-42055705D01*
X166020631Y-42101356D01*
X166021301Y-42135294D01*
X166022059Y-42156422D01*
X166022900Y-42163645D01*
X166023211Y-42163516D01*
X166032427Y-42158456D01*
X166053831Y-42146320D01*
X166086755Y-42127494D01*
X166130528Y-42102363D01*
X166184482Y-42071316D01*
X166247948Y-42034737D01*
X166320256Y-41993014D01*
X166400738Y-41946532D01*
X166488723Y-41895679D01*
X166583544Y-41840840D01*
X166684531Y-41782403D01*
X166791015Y-41720753D01*
X166902327Y-41656277D01*
X167017797Y-41589362D01*
X167136756Y-41520393D01*
X168244944Y-40877761D01*
X168245100Y-40253263D01*
X168245102Y-40195460D01*
X168245054Y-40102648D01*
X168244944Y-40014932D01*
X168244778Y-39933413D01*
X168244561Y-39859192D01*
X168244296Y-39793370D01*
X168243989Y-39737047D01*
X168243644Y-39691325D01*
X168243267Y-39657303D01*
X168242861Y-39636083D01*
X168242431Y-39628765D01*
X168242169Y-39628885D01*
X168233221Y-39633876D01*
X168212069Y-39645918D01*
X168179380Y-39664625D01*
X168135823Y-39689615D01*
X168082064Y-39720501D01*
X168018773Y-39756899D01*
X167946616Y-39798426D01*
X167866261Y-39844695D01*
X167778377Y-39895324D01*
X167683630Y-39949928D01*
X167582690Y-40008121D01*
X167476222Y-40069520D01*
X167364896Y-40133740D01*
X167249378Y-40200396D01*
X167130337Y-40269105D01*
X166021068Y-40909445D01*
X166019149Y-41536854D01*
X166018991Y-41597249D01*
X166018853Y-41690146D01*
X166018850Y-41777910D01*
X165964697Y-41777910D01*
X165964628Y-41536208D01*
X165964448Y-40907767D01*
X164855701Y-40268266D01*
X164835079Y-40256372D01*
X164716574Y-40188044D01*
X164601684Y-40121832D01*
X164491079Y-40058123D01*
X164385428Y-39997301D01*
X164285403Y-39939750D01*
X164191671Y-39885854D01*
X164104905Y-39836000D01*
X164025772Y-39790570D01*
X163954944Y-39749949D01*
X163893089Y-39714523D01*
X163840878Y-39684676D01*
X163798981Y-39660792D01*
X163768066Y-39643255D01*
X163748806Y-39632452D01*
X163741868Y-39628765D01*
X163741410Y-39631382D01*
X163740701Y-39647105D01*
X163740075Y-39676073D01*
X163739537Y-39717187D01*
X163739093Y-39769344D01*
X163738747Y-39831442D01*
X163738506Y-39902382D01*
X163738375Y-39981060D01*
X163738360Y-40066377D01*
X163684358Y-40066377D01*
X163684358Y-39576255D01*
X163774613Y-39576255D01*
X163774725Y-39576372D01*
X163782773Y-39581412D01*
X163803065Y-39593504D01*
X163834933Y-39612258D01*
X163877708Y-39637288D01*
X163930722Y-39668206D01*
X163993308Y-39704623D01*
X164064796Y-39746153D01*
X164144519Y-39792407D01*
X164231807Y-39842998D01*
X164325994Y-39897538D01*
X164426410Y-39955638D01*
X164532387Y-40016912D01*
X164643257Y-40080972D01*
X164758352Y-40147430D01*
X164877003Y-40215897D01*
X164891450Y-40224231D01*
X165009859Y-40292520D01*
X165124731Y-40358743D01*
X165235392Y-40422511D01*
X165341166Y-40483437D01*
X165441377Y-40541132D01*
X165535350Y-40595207D01*
X165622410Y-40645276D01*
X165701881Y-40690948D01*
X165773087Y-40731837D01*
X165835353Y-40767554D01*
X165888004Y-40797711D01*
X165930363Y-40821919D01*
X165961757Y-40839790D01*
X165981508Y-40850936D01*
X165988942Y-40854969D01*
X165993493Y-40852905D01*
X166010259Y-40843927D01*
X166038555Y-40828272D01*
X166077566Y-40806409D01*
X166126475Y-40778809D01*
X166184466Y-40745939D01*
X166250725Y-40708268D01*
X166324435Y-40666267D01*
X166404779Y-40620405D01*
X166490944Y-40571150D01*
X166582112Y-40518972D01*
X166677467Y-40464340D01*
X166776194Y-40407723D01*
X166877478Y-40349590D01*
X166980501Y-40290411D01*
X167084449Y-40230656D01*
X167188506Y-40170792D01*
X167291855Y-40111289D01*
X167393681Y-40052617D01*
X167493168Y-39995245D01*
X167589500Y-39939642D01*
X167681861Y-39886277D01*
X167769436Y-39835619D01*
X167851409Y-39788138D01*
X167926963Y-39744302D01*
X167995283Y-39704582D01*
X168055554Y-39669446D01*
X168106959Y-39639363D01*
X168148682Y-39614803D01*
X168179908Y-39596235D01*
X168199820Y-39584127D01*
X168207604Y-39578951D01*
X168202536Y-39575101D01*
X168185273Y-39564206D01*
X168156566Y-39546762D01*
X168117226Y-39523236D01*
X168068065Y-39494098D01*
X168009892Y-39459815D01*
X167943520Y-39420857D01*
X167869759Y-39377692D01*
X167789419Y-39330790D01*
X167703313Y-39280617D01*
X167612250Y-39227644D01*
X167517042Y-39172338D01*
X167418500Y-39115169D01*
X167317435Y-39056605D01*
X167214657Y-38997115D01*
X167110978Y-38937166D01*
X167007208Y-38877229D01*
X166904159Y-38817771D01*
X166802641Y-38759262D01*
X166703466Y-38702169D01*
X166607444Y-38646962D01*
X166515386Y-38594109D01*
X166428104Y-38544078D01*
X166346407Y-38497339D01*
X166271108Y-38454360D01*
X166203017Y-38415610D01*
X166142944Y-38381557D01*
X166091702Y-38352669D01*
X166050101Y-38329417D01*
X166018951Y-38312267D01*
X165999065Y-38301689D01*
X165991252Y-38298152D01*
X165985260Y-38301155D01*
X165967008Y-38311201D01*
X165937353Y-38327855D01*
X165897106Y-38350650D01*
X165847082Y-38379114D01*
X165788095Y-38412779D01*
X165720959Y-38451176D01*
X165646488Y-38493835D01*
X165565495Y-38540288D01*
X165478794Y-38590064D01*
X165387200Y-38642695D01*
X165314373Y-38684573D01*
X165291525Y-38697711D01*
X165192585Y-38754643D01*
X165091192Y-38813021D01*
X164988161Y-38872377D01*
X164884306Y-38932242D01*
X164780440Y-38992145D01*
X164677377Y-39051618D01*
X164575931Y-39110191D01*
X164476917Y-39167395D01*
X164381147Y-39222761D01*
X164289436Y-39275820D01*
X164202598Y-39326102D01*
X164121447Y-39373137D01*
X164046795Y-39416458D01*
X163979459Y-39455594D01*
X163920250Y-39490076D01*
X163869983Y-39519435D01*
X163829472Y-39543202D01*
X163799531Y-39560907D01*
X163780973Y-39572081D01*
X163774613Y-39576255D01*
X163684358Y-39576255D01*
X163684358Y-39561440D01*
X163712488Y-39543960D01*
X163713671Y-39543240D01*
X163726630Y-39535601D01*
X163751526Y-39521083D01*
X163787492Y-39500190D01*
X163833662Y-39473421D01*
X163889170Y-39441278D01*
X163953149Y-39404262D01*
X164024732Y-39362874D01*
X164103053Y-39317615D01*
X164187245Y-39268988D01*
X164276443Y-39217492D01*
X164369779Y-39163628D01*
X164466387Y-39107899D01*
X164493148Y-39092462D01*
X164588177Y-39037589D01*
X164679264Y-38984912D01*
X164765584Y-38934910D01*
X164846315Y-38888063D01*
X164920631Y-38844853D01*
X164987709Y-38805760D01*
X165046726Y-38771265D01*
X165096858Y-38741848D01*
X165137280Y-38717989D01*
X165167169Y-38700171D01*
X165185701Y-38688872D01*
X165192052Y-38684573D01*
X165190585Y-38683455D01*
X165178267Y-38675792D01*
X165154054Y-38661289D01*
X165118699Y-38640383D01*
X165072950Y-38613510D01*
X165017558Y-38581108D01*
X164953274Y-38543614D01*
X164880849Y-38501464D01*
X164801033Y-38455096D01*
X164714576Y-38404946D01*
X164622229Y-38351453D01*
X164524743Y-38295051D01*
X164422868Y-38236180D01*
X164317354Y-38175275D01*
X163442758Y-37670722D01*
X162753031Y-38068435D01*
X162333577Y-38310302D01*
X162312311Y-38322565D01*
X162193856Y-38390898D01*
X162079071Y-38457158D01*
X161968623Y-38520956D01*
X161863178Y-38581906D01*
X161763404Y-38639622D01*
X161669966Y-38693716D01*
X161583530Y-38743804D01*
X161504765Y-38789497D01*
X161434335Y-38830409D01*
X161372908Y-38866154D01*
X161321149Y-38896344D01*
X161279726Y-38920595D01*
X161249305Y-38938518D01*
X161230552Y-38949727D01*
X161224134Y-38953836D01*
X161137481Y-38953836D01*
X161137606Y-38935698D01*
X161885842Y-38503953D01*
X161931618Y-38477533D01*
X162027457Y-38422171D01*
X162119220Y-38369102D01*
X162206094Y-38318799D01*
X162287268Y-38271734D01*
X162361931Y-38228379D01*
X162429271Y-38189206D01*
X162488478Y-38154687D01*
X162538740Y-38125295D01*
X162579246Y-38101502D01*
X162609185Y-38083779D01*
X162627745Y-38072600D01*
X162634115Y-38068435D01*
X162634054Y-38068333D01*
X162626483Y-38063314D01*
X162606904Y-38051429D01*
X162576240Y-38033209D01*
X162535414Y-38009187D01*
X162485351Y-37979894D01*
X162426973Y-37945863D01*
X162361206Y-37907626D01*
X162288971Y-37865713D01*
X162211194Y-37820658D01*
X162128798Y-37772991D01*
X162042706Y-37723246D01*
X161953843Y-37671954D01*
X161863131Y-37619646D01*
X161771495Y-37566856D01*
X161679859Y-37514113D01*
X161589145Y-37461952D01*
X161500279Y-37410903D01*
X161414183Y-37361498D01*
X161331780Y-37314270D01*
X161253996Y-37269750D01*
X161181754Y-37228470D01*
X161115976Y-37190962D01*
X161057588Y-37157759D01*
X161007513Y-37129391D01*
X160966673Y-37106391D01*
X160935994Y-37089291D01*
X160916399Y-37078622D01*
X160908811Y-37074917D01*
X160908523Y-37074981D01*
X160899193Y-37079626D01*
X160877645Y-37091345D01*
X160844553Y-37109753D01*
X160800595Y-37134463D01*
X160746445Y-37165091D01*
X160682779Y-37201250D01*
X160610273Y-37242554D01*
X160529602Y-37288619D01*
X160441441Y-37339058D01*
X160346468Y-37393485D01*
X160245356Y-37451514D01*
X160138782Y-37512761D01*
X160027421Y-37576839D01*
X159911950Y-37643362D01*
X159793043Y-37711946D01*
X159700814Y-37765186D01*
X159561439Y-37845703D01*
X159434367Y-37919199D01*
X159319155Y-37985935D01*
X159215356Y-38046176D01*
X159122524Y-38100182D01*
X159040215Y-38148219D01*
X158967983Y-38190547D01*
X158905381Y-38227430D01*
X158851965Y-38259132D01*
X158807290Y-38285913D01*
X158770908Y-38308039D01*
X158742376Y-38325770D01*
X158721247Y-38339371D01*
X158707077Y-38349103D01*
X158699418Y-38355231D01*
X158697827Y-38358016D01*
X158602781Y-38358016D01*
X158603188Y-38353491D01*
X158604905Y-38342956D01*
X158606983Y-38336216D01*
X158609456Y-38332129D01*
X158612360Y-38329559D01*
X158613732Y-38328698D01*
X158626138Y-38321349D01*
X158650572Y-38307067D01*
X158686318Y-38286269D01*
X158732660Y-38259367D01*
X158788880Y-38226777D01*
X158854264Y-38188914D01*
X158928093Y-38146191D01*
X159009652Y-38099023D01*
X159098224Y-38047826D01*
X159193093Y-37993013D01*
X159293541Y-37934998D01*
X159398854Y-37874197D01*
X159508313Y-37811025D01*
X159621202Y-37745894D01*
X160616041Y-37172031D01*
X160616147Y-36996976D01*
X160616254Y-36821921D01*
X160569369Y-36848330D01*
X160561007Y-36853099D01*
X160539463Y-36865467D01*
X160506226Y-36884588D01*
X160462016Y-36910048D01*
X160407552Y-36941432D01*
X160343555Y-36978324D01*
X160270742Y-37020310D01*
X160189835Y-37066974D01*
X160101553Y-37117901D01*
X160006615Y-37172677D01*
X159905741Y-37230885D01*
X159799650Y-37292113D01*
X159689063Y-37355943D01*
X159574698Y-37421962D01*
X159457276Y-37489754D01*
X158392066Y-38104770D01*
X158390148Y-38731741D01*
X158389990Y-38791720D01*
X158389851Y-38884611D01*
X158389849Y-38937083D01*
X158389848Y-38972379D01*
X158334249Y-38972379D01*
X158334288Y-38937083D01*
X158334218Y-38838305D01*
X158333972Y-38731965D01*
X158332054Y-38103939D01*
X157222649Y-37463576D01*
X157200987Y-37451072D01*
X157082525Y-37382707D01*
X156967708Y-37316462D01*
X156857203Y-37252723D01*
X156751679Y-37191873D01*
X156651803Y-37134298D01*
X156558242Y-37080382D01*
X156471664Y-37030509D01*
X156392737Y-36985063D01*
X156322129Y-36944430D01*
X156260507Y-36908993D01*
X156208539Y-36879137D01*
X156166892Y-36855247D01*
X156136234Y-36837706D01*
X156117232Y-36826900D01*
X156110555Y-36823213D01*
X156110307Y-36825885D01*
X156109911Y-36841694D01*
X156109540Y-36870744D01*
X156109199Y-36911934D01*
X156108891Y-36964162D01*
X156108622Y-37026329D01*
X156108396Y-37097333D01*
X156108217Y-37176074D01*
X156108091Y-37261451D01*
X156108020Y-37352363D01*
X156108011Y-37447711D01*
X156053223Y-37447711D01*
X156051605Y-37265999D01*
X155935332Y-37333266D01*
X155901773Y-37352403D01*
X155866899Y-37371654D01*
X155837973Y-37386931D01*
X155817314Y-37397014D01*
X155807247Y-37400679D01*
X155802787Y-37398525D01*
X155786102Y-37389411D01*
X155757856Y-37373591D01*
X155718856Y-37351527D01*
X155669904Y-37323684D01*
X155611805Y-37290527D01*
X155545364Y-37252519D01*
X155471385Y-37210125D01*
X155390671Y-37163809D01*
X155304028Y-37114035D01*
X155212260Y-37061267D01*
X155116170Y-37005970D01*
X155016563Y-36948607D01*
X154914243Y-36889644D01*
X154810015Y-36829543D01*
X154704683Y-36768770D01*
X154599051Y-36707789D01*
X154493924Y-36647063D01*
X154390104Y-36587057D01*
X154288398Y-36528235D01*
X154189609Y-36471061D01*
X154094542Y-36416000D01*
X154004000Y-36363516D01*
X153918788Y-36314073D01*
X153839710Y-36268134D01*
X153767571Y-36226166D01*
X153703175Y-36188630D01*
X153647325Y-36155993D01*
X153600827Y-36128717D01*
X153564484Y-36107267D01*
X153539102Y-36092108D01*
X153525483Y-36083703D01*
X153497352Y-36065351D01*
X153497352Y-36034021D01*
X153549863Y-36034021D01*
X154556936Y-36617541D01*
X154591846Y-36637769D01*
X154706512Y-36704210D01*
X154818594Y-36769154D01*
X154927292Y-36832138D01*
X155031807Y-36892699D01*
X155131338Y-36950373D01*
X155225086Y-37004696D01*
X155312252Y-37055206D01*
X155392035Y-37101439D01*
X155463635Y-37142931D01*
X155526253Y-37179219D01*
X155579089Y-37209839D01*
X155621342Y-37234328D01*
X155652215Y-37252223D01*
X155670905Y-37263059D01*
X155777801Y-37325057D01*
X155777801Y-36939427D01*
X155831845Y-36939427D01*
X155831971Y-37020966D01*
X155832218Y-37095174D01*
X155832581Y-37160957D01*
X155833053Y-37217218D01*
X155833626Y-37262860D01*
X155834296Y-37296788D01*
X155835054Y-37317905D01*
X155835888Y-37325057D01*
X155835895Y-37325116D01*
X155839971Y-37323306D01*
X155855329Y-37315005D01*
X155879743Y-37301163D01*
X155910924Y-37283081D01*
X155946584Y-37262064D01*
X156051605Y-37199708D01*
X156055356Y-36976199D01*
X156058788Y-36771694D01*
X156145612Y-36771694D01*
X156145773Y-36771871D01*
X156154144Y-36777224D01*
X156174742Y-36789617D01*
X156206901Y-36808663D01*
X156249952Y-36833973D01*
X156303230Y-36865160D01*
X156366067Y-36901836D01*
X156437797Y-36943614D01*
X156517754Y-36990104D01*
X156605269Y-37040921D01*
X156699677Y-37095675D01*
X156800310Y-37153980D01*
X156906502Y-37215447D01*
X157017585Y-37279689D01*
X157132894Y-37346318D01*
X157251762Y-37414945D01*
X157270488Y-37425752D01*
X157388917Y-37494072D01*
X157503747Y-37560276D01*
X157614308Y-37623978D01*
X157719929Y-37684795D01*
X157819939Y-37742341D01*
X157913668Y-37796231D01*
X158000444Y-37846080D01*
X158079596Y-37891503D01*
X158150454Y-37932115D01*
X158212347Y-37967531D01*
X158264604Y-37997365D01*
X158306555Y-38021234D01*
X158337527Y-38038752D01*
X158356851Y-38049533D01*
X158363856Y-38053194D01*
X158370748Y-38049809D01*
X158389811Y-38039365D01*
X158420188Y-38022327D01*
X158461071Y-37999164D01*
X158511647Y-37970345D01*
X158571107Y-37936339D01*
X158638640Y-37897616D01*
X158713435Y-37854646D01*
X158794683Y-37807898D01*
X158881572Y-37757840D01*
X158973292Y-37704944D01*
X159069032Y-37649678D01*
X159167982Y-37592512D01*
X159269332Y-37533915D01*
X159372271Y-37474356D01*
X159475988Y-37414305D01*
X159579672Y-37354232D01*
X159682515Y-37294606D01*
X159783704Y-37235896D01*
X159882429Y-37178572D01*
X159977880Y-37123103D01*
X160069247Y-37069959D01*
X160155718Y-37019609D01*
X160236483Y-36972522D01*
X160310733Y-36929169D01*
X160377655Y-36890018D01*
X160436440Y-36855539D01*
X160486278Y-36826201D01*
X160526357Y-36802474D01*
X160555867Y-36784827D01*
X160573998Y-36773730D01*
X160579939Y-36769652D01*
X160575668Y-36766971D01*
X160559213Y-36757212D01*
X160531196Y-36740804D01*
X160492435Y-36718221D01*
X160443748Y-36689934D01*
X160385955Y-36656414D01*
X160319874Y-36618134D01*
X160246322Y-36575566D01*
X160166119Y-36529181D01*
X160080082Y-36479451D01*
X159989031Y-36426848D01*
X159893782Y-36371844D01*
X159795156Y-36314911D01*
X159693970Y-36256521D01*
X159591042Y-36197145D01*
X159487191Y-36137255D01*
X159383235Y-36077324D01*
X159279993Y-36017822D01*
X159178283Y-35959223D01*
X159078924Y-35901997D01*
X158982733Y-35846617D01*
X158890529Y-35793554D01*
X158803131Y-35743281D01*
X158721356Y-35696269D01*
X158646024Y-35652990D01*
X158577953Y-35613916D01*
X158517960Y-35579518D01*
X158466865Y-35550270D01*
X158425486Y-35526641D01*
X158394641Y-35509105D01*
X158375148Y-35498133D01*
X158367826Y-35494198D01*
X158361654Y-35497066D01*
X158343226Y-35506965D01*
X158313385Y-35523473D01*
X158272947Y-35546120D01*
X158222726Y-35574439D01*
X158179657Y-35598832D01*
X158163537Y-35607962D01*
X158096195Y-35646219D01*
X158021514Y-35688743D01*
X157940308Y-35735066D01*
X157853393Y-35784718D01*
X157761584Y-35837232D01*
X157665694Y-35892140D01*
X157566538Y-35948973D01*
X157464932Y-36007262D01*
X157361689Y-36066540D01*
X157257625Y-36126339D01*
X157153553Y-36186188D01*
X157050290Y-36245622D01*
X156948649Y-36304170D01*
X156849444Y-36361366D01*
X156753492Y-36416740D01*
X156661605Y-36469824D01*
X156574600Y-36520150D01*
X156493290Y-36567249D01*
X156418491Y-36610654D01*
X156351016Y-36649896D01*
X156291681Y-36684506D01*
X156241301Y-36714016D01*
X156200689Y-36737958D01*
X156170660Y-36755864D01*
X156152030Y-36767266D01*
X156145612Y-36771694D01*
X156058788Y-36771694D01*
X156059107Y-36752691D01*
X157058678Y-36175761D01*
X158058250Y-35598832D01*
X158058250Y-35193770D01*
X158058214Y-35123386D01*
X158058041Y-35042658D01*
X158057705Y-34975211D01*
X158057184Y-34920064D01*
X158056454Y-34876237D01*
X158055493Y-34842748D01*
X158054277Y-34818618D01*
X158052784Y-34802866D01*
X158050990Y-34794511D01*
X158048873Y-34792571D01*
X158048644Y-34792682D01*
X158039663Y-34797703D01*
X158018451Y-34809792D01*
X157985682Y-34828561D01*
X157942033Y-34853621D01*
X157888177Y-34884583D01*
X157824791Y-34921058D01*
X157752548Y-34962657D01*
X157672124Y-35008992D01*
X157584194Y-35059674D01*
X157489432Y-35114314D01*
X157388515Y-35172522D01*
X157282115Y-35233911D01*
X157170910Y-35298091D01*
X157055573Y-35364673D01*
X156936779Y-35433269D01*
X155834062Y-36070102D01*
X155832144Y-36697957D01*
X155831985Y-36758745D01*
X155831847Y-36851655D01*
X155831845Y-36939427D01*
X155777801Y-36939427D01*
X155777801Y-36068691D01*
X154699906Y-35446380D01*
X154592404Y-35384314D01*
X154477341Y-35317885D01*
X154366098Y-35253661D01*
X154259379Y-35192050D01*
X154157891Y-35133460D01*
X154062339Y-35078296D01*
X153973429Y-35026968D01*
X153891867Y-34979882D01*
X153818358Y-34937446D01*
X153753607Y-34900067D01*
X153698321Y-34868153D01*
X153653206Y-34842110D01*
X153618966Y-34822347D01*
X153596308Y-34809271D01*
X153585937Y-34803288D01*
X153549863Y-34782507D01*
X153549863Y-36034021D01*
X153497352Y-36034021D01*
X153497352Y-34742129D01*
X153596751Y-34742129D01*
X153596933Y-34742271D01*
X153605683Y-34747661D01*
X153626684Y-34760108D01*
X153659261Y-34779219D01*
X153702737Y-34804602D01*
X153756436Y-34835865D01*
X153819682Y-34872615D01*
X153891797Y-34914462D01*
X153972106Y-34961013D01*
X154059933Y-35011875D01*
X154154602Y-35066657D01*
X154255435Y-35124967D01*
X154361756Y-35186413D01*
X154472891Y-35250602D01*
X154588161Y-35317143D01*
X154706890Y-35385644D01*
X154721364Y-35393992D01*
X154839546Y-35462146D01*
X154954112Y-35528194D01*
X155064392Y-35591752D01*
X155169716Y-35652433D01*
X155269414Y-35709853D01*
X155362817Y-35763627D01*
X155449253Y-35813369D01*
X155528055Y-35858694D01*
X155598551Y-35899216D01*
X155660072Y-35934550D01*
X155711948Y-35964312D01*
X155753510Y-35988115D01*
X155784087Y-36005574D01*
X155803009Y-36016305D01*
X155809608Y-36019921D01*
X155813338Y-36017862D01*
X155829109Y-36008866D01*
X155856455Y-35993163D01*
X155894560Y-35971225D01*
X155942605Y-35943525D01*
X155999774Y-35910536D01*
X156065250Y-35872731D01*
X156138216Y-35830583D01*
X156217855Y-35784564D01*
X156303350Y-35735147D01*
X156393884Y-35682805D01*
X156488639Y-35628012D01*
X156586800Y-35571239D01*
X156687549Y-35512959D01*
X156790068Y-35453645D01*
X156893541Y-35393771D01*
X156997151Y-35333809D01*
X157100081Y-35274231D01*
X157201514Y-35215511D01*
X157300632Y-35158121D01*
X157396619Y-35102534D01*
X157488659Y-35049223D01*
X157575933Y-34998660D01*
X157657624Y-34951320D01*
X157732917Y-34907673D01*
X157800993Y-34868194D01*
X157861036Y-34833354D01*
X157912229Y-34803627D01*
X157953754Y-34779486D01*
X157984796Y-34761403D01*
X158004535Y-34749851D01*
X158012157Y-34745304D01*
X158013125Y-34744515D01*
X158014128Y-34742581D01*
X158013419Y-34739886D01*
X158010434Y-34736095D01*
X158004610Y-34730871D01*
X157995380Y-34723878D01*
X157982182Y-34714779D01*
X157964449Y-34703237D01*
X157941619Y-34688917D01*
X157913126Y-34671483D01*
X157878406Y-34650596D01*
X157836895Y-34625923D01*
X157788027Y-34597124D01*
X157731240Y-34563866D01*
X157665967Y-34525810D01*
X157591645Y-34482622D01*
X157507709Y-34433963D01*
X157413594Y-34379498D01*
X157308737Y-34318891D01*
X157192573Y-34251805D01*
X157064537Y-34177904D01*
X156924065Y-34096851D01*
X156907871Y-34087508D01*
X156789379Y-34019190D01*
X156674410Y-33952974D01*
X156563642Y-33889247D01*
X156457750Y-33828395D01*
X156357410Y-33770804D01*
X156263297Y-33716860D01*
X156176089Y-33666949D01*
X156096461Y-33621459D01*
X156025089Y-33580774D01*
X155962650Y-33545282D01*
X155909818Y-33515369D01*
X155867270Y-33491420D01*
X155835683Y-33473822D01*
X155815732Y-33462962D01*
X155808092Y-33459225D01*
X155807800Y-33459289D01*
X155798441Y-33463930D01*
X155776863Y-33475645D01*
X155743742Y-33494048D01*
X155699755Y-33518753D01*
X155645576Y-33549375D01*
X155581882Y-33585528D01*
X155509349Y-33626827D01*
X155428652Y-33672885D01*
X155340468Y-33723317D01*
X155245471Y-33777737D01*
X155144339Y-33835759D01*
X155037746Y-33896999D01*
X154926370Y-33961070D01*
X154810885Y-34027586D01*
X154691967Y-34096162D01*
X154597848Y-34150484D01*
X154458665Y-34230877D01*
X154331780Y-34304253D01*
X154216746Y-34370875D01*
X154113118Y-34431007D01*
X154020449Y-34484911D01*
X153938292Y-34532851D01*
X153866202Y-34575090D01*
X153803732Y-34611892D01*
X153750436Y-34643519D01*
X153705868Y-34670234D01*
X153669581Y-34692302D01*
X153641130Y-34709984D01*
X153620068Y-34723545D01*
X153605948Y-34733247D01*
X153598324Y-34739354D01*
X153596751Y-34742129D01*
X153497352Y-34742129D01*
X153497352Y-34723012D01*
X153525483Y-34704893D01*
X153533335Y-34700008D01*
X153555663Y-34686611D01*
X153589187Y-34666827D01*
X153633100Y-34641117D01*
X153686596Y-34609945D01*
X153748868Y-34573773D01*
X153819112Y-34533065D01*
X153896519Y-34488284D01*
X153980284Y-34439892D01*
X154069601Y-34388352D01*
X154163662Y-34334127D01*
X154261663Y-34277680D01*
X154362795Y-34219475D01*
X154466254Y-34159973D01*
X154571233Y-34099638D01*
X154676925Y-34038933D01*
X154782524Y-33978321D01*
X154887225Y-33918264D01*
X154990219Y-33859226D01*
X155090702Y-33801669D01*
X155187866Y-33746056D01*
X155280906Y-33692851D01*
X155369015Y-33642516D01*
X155451387Y-33595514D01*
X155527215Y-33552308D01*
X155595693Y-33513360D01*
X155656016Y-33479135D01*
X155707375Y-33450094D01*
X155748966Y-33426702D01*
X155779982Y-33409419D01*
X155799616Y-33398710D01*
X155807062Y-33395038D01*
X155807882Y-33395328D01*
X155818861Y-33401016D01*
X155841803Y-33413618D01*
X155875905Y-33432673D01*
X155920362Y-33457718D01*
X155974372Y-33488292D01*
X156037131Y-33523933D01*
X156107834Y-33564180D01*
X156185679Y-33608570D01*
X156269862Y-33656643D01*
X156359579Y-33707935D01*
X156454027Y-33761987D01*
X156552402Y-33818334D01*
X156653900Y-33876517D01*
X156757718Y-33936074D01*
X156863052Y-33996541D01*
X156969098Y-34057459D01*
X157075054Y-34118365D01*
X157180115Y-34178797D01*
X157283478Y-34238293D01*
X157384338Y-34296393D01*
X157481894Y-34352633D01*
X157575340Y-34406553D01*
X157663874Y-34457691D01*
X157746691Y-34505585D01*
X157822989Y-34549773D01*
X157891962Y-34589793D01*
X157952809Y-34625184D01*
X158004725Y-34655484D01*
X158046907Y-34680231D01*
X158078551Y-34698964D01*
X158098853Y-34711220D01*
X158107010Y-34716539D01*
X158108465Y-34722798D01*
X158110106Y-34742581D01*
X158110195Y-34743657D01*
X158111840Y-34778501D01*
X158113384Y-34826770D01*
X158114813Y-34887901D01*
X158116113Y-34961332D01*
X158117267Y-35046503D01*
X158118262Y-35142851D01*
X158122013Y-35562161D01*
X158238150Y-35495049D01*
X158271784Y-35475821D01*
X158306076Y-35456688D01*
X158334178Y-35441522D01*
X158353840Y-35431536D01*
X158362815Y-35427938D01*
X158364384Y-35428620D01*
X158377032Y-35435407D01*
X158401726Y-35449164D01*
X158437803Y-35469512D01*
X158484604Y-35496072D01*
X158541467Y-35528465D01*
X158607733Y-35566313D01*
X158682739Y-35609237D01*
X158765826Y-35656859D01*
X158856332Y-35708800D01*
X158953597Y-35764681D01*
X159056960Y-35824124D01*
X159165760Y-35886751D01*
X159279337Y-35952182D01*
X159397030Y-36020039D01*
X159518178Y-36089943D01*
X160665013Y-36751949D01*
X160665196Y-36769652D01*
X160665738Y-36821921D01*
X160667015Y-36945112D01*
G37*
G36*
X161248116Y-37711517D02*
G01*
X161274053Y-37720606D01*
X161292112Y-37734745D01*
X161298888Y-37752943D01*
X161295061Y-37769578D01*
X161282010Y-37788345D01*
X161277311Y-37791644D01*
X161260095Y-37802412D01*
X161231681Y-37819566D01*
X161193163Y-37842464D01*
X161145640Y-37870463D01*
X161090206Y-37902919D01*
X161027958Y-37939190D01*
X160959992Y-37978632D01*
X160887405Y-38020603D01*
X160811292Y-38064459D01*
X160758108Y-38095057D01*
X160685057Y-38137108D01*
X160616599Y-38176541D01*
X160553784Y-38212749D01*
X160497665Y-38245124D01*
X160449294Y-38273060D01*
X160409723Y-38295949D01*
X160380003Y-38313183D01*
X160361187Y-38324156D01*
X160354327Y-38328261D01*
X160354030Y-38328565D01*
X160355586Y-38335394D01*
X160355630Y-38335419D01*
X160364165Y-38334916D01*
X160386551Y-38332482D01*
X160421820Y-38328243D01*
X160469007Y-38322327D01*
X160527145Y-38314860D01*
X160595270Y-38305969D01*
X160672415Y-38295781D01*
X160757614Y-38284423D01*
X160849902Y-38272021D01*
X160948311Y-38258702D01*
X161051878Y-38244594D01*
X161159635Y-38229822D01*
X161959300Y-38119867D01*
X161987289Y-38133545D01*
X162001599Y-38142476D01*
X162016175Y-38161023D01*
X162017513Y-38181374D01*
X162004928Y-38200915D01*
X162002086Y-38202926D01*
X161987338Y-38212121D01*
X161961305Y-38227793D01*
X161925119Y-38249287D01*
X161879911Y-38275947D01*
X161826810Y-38307117D01*
X161766949Y-38342143D01*
X161701458Y-38380369D01*
X161631467Y-38421140D01*
X161558107Y-38463799D01*
X161482511Y-38507693D01*
X161405807Y-38552164D01*
X161329127Y-38596559D01*
X161253602Y-38640221D01*
X161180364Y-38682495D01*
X161110541Y-38722725D01*
X161045266Y-38760257D01*
X160985670Y-38794434D01*
X160932882Y-38824602D01*
X160888035Y-38850104D01*
X160852258Y-38870286D01*
X160826683Y-38884492D01*
X160812440Y-38892067D01*
X160792185Y-38900092D01*
X160757571Y-38907021D01*
X160723680Y-38906969D01*
X160694783Y-38900107D01*
X160675150Y-38886604D01*
X160665570Y-38872954D01*
X160661263Y-38862902D01*
X160661292Y-38862210D01*
X160663711Y-38855915D01*
X160670571Y-38847713D01*
X160682657Y-38837109D01*
X160700757Y-38823610D01*
X160725656Y-38806724D01*
X160758141Y-38785956D01*
X160798996Y-38760814D01*
X160849010Y-38730804D01*
X160908967Y-38695432D01*
X160979653Y-38654207D01*
X161061856Y-38606633D01*
X161156360Y-38552219D01*
X161200059Y-38527103D01*
X161284250Y-38478702D01*
X161356702Y-38437016D01*
X161418282Y-38401529D01*
X161469857Y-38371727D01*
X161512293Y-38347093D01*
X161546457Y-38327113D01*
X161573214Y-38311272D01*
X161593432Y-38299054D01*
X161607977Y-38289943D01*
X161617716Y-38283426D01*
X161623514Y-38278986D01*
X161626238Y-38276108D01*
X161626755Y-38274277D01*
X161625932Y-38272977D01*
X161625815Y-38272942D01*
X161616685Y-38273721D01*
X161593756Y-38276478D01*
X161557989Y-38281082D01*
X161510343Y-38287401D01*
X161451777Y-38295303D01*
X161383253Y-38304658D01*
X161305729Y-38315333D01*
X161220165Y-38327197D01*
X161127521Y-38340118D01*
X161028757Y-38353965D01*
X160924832Y-38368607D01*
X160816706Y-38383911D01*
X160808535Y-38385069D01*
X160700329Y-38400346D01*
X160596163Y-38414928D01*
X160497019Y-38428684D01*
X160403879Y-38441483D01*
X160317727Y-38453194D01*
X160239545Y-38463686D01*
X160170316Y-38472829D01*
X160111024Y-38480491D01*
X160062650Y-38486541D01*
X160026178Y-38490848D01*
X160002591Y-38493281D01*
X159992871Y-38493710D01*
X159976782Y-38487872D01*
X159956474Y-38472403D01*
X159946624Y-38452823D01*
X159948415Y-38432293D01*
X159963031Y-38413974D01*
X159971747Y-38408410D01*
X159992536Y-38395904D01*
X160024084Y-38377252D01*
X160065260Y-38353106D01*
X160114934Y-38324115D01*
X160171975Y-38290932D01*
X160235254Y-38254208D01*
X160303640Y-38214593D01*
X160376003Y-38172740D01*
X160451213Y-38129299D01*
X160528139Y-38084922D01*
X160605652Y-38040260D01*
X160682620Y-37995963D01*
X160757914Y-37952684D01*
X160830404Y-37911074D01*
X160898958Y-37871783D01*
X160962448Y-37835463D01*
X161019742Y-37802765D01*
X161069711Y-37774340D01*
X161111224Y-37750840D01*
X161143152Y-37732916D01*
X161164362Y-37721219D01*
X161173727Y-37716400D01*
X161186222Y-37712470D01*
X161217704Y-37708474D01*
X161248116Y-37711517D01*
G37*
X65302185Y-32825280D02*
X65302185Y-28925280D01*
X67302185Y-32825280D02*
X67302185Y-28925280D01*
X67302185Y-32825280D02*
X65302185Y-32825280D01*
X65302185Y-32825280D02*
X65302185Y-33115280D01*
X65302185Y-33115280D02*
X67302185Y-33115280D01*
X67302185Y-33115280D02*
X67302185Y-32825280D01*
G36*
X67302185Y-32825280D02*
G01*
X65302185Y-32825280D01*
X65302185Y-33115280D01*
X67302185Y-33115280D01*
X67302185Y-32825280D01*
G37*
G36*
X66302185Y-31210280D02*
G01*
X65540185Y-30067280D01*
X67064185Y-30067280D01*
X66302185Y-31210280D01*
G37*
X66302185Y-31210280D02*
X65540185Y-30067280D01*
X67064185Y-30067280D01*
X66302185Y-31210280D01*
X124452185Y-33879280D02*
X124452185Y-29979280D01*
X122452185Y-33879280D02*
X122452185Y-29979280D01*
X124452185Y-33879280D02*
X122452185Y-33879280D01*
X122452185Y-33879280D02*
X122452185Y-34169280D01*
X122452185Y-34169280D02*
X124452185Y-34169280D01*
X124452185Y-34169280D02*
X124452185Y-33879280D01*
G36*
X124452185Y-33879280D02*
G01*
X122452185Y-33879280D01*
X122452185Y-34169280D01*
X124452185Y-34169280D01*
X124452185Y-33879280D01*
G37*
G36*
X123452185Y-32264280D02*
G01*
X122690185Y-31121280D01*
X124214185Y-31121280D01*
X123452185Y-32264280D01*
G37*
X123452185Y-32264280D02*
X122690185Y-31121280D01*
X124214185Y-31121280D01*
X123452185Y-32264280D01*
X105402185Y-32825280D02*
X105402185Y-28925280D01*
X103402185Y-32825280D02*
X103402185Y-28925280D01*
X105402185Y-32825280D02*
X103402185Y-32825280D01*
X103402185Y-32825280D02*
X103402185Y-33115280D01*
X103402185Y-33115280D02*
X105402185Y-33115280D01*
X105402185Y-33115280D02*
X105402185Y-32825280D01*
G36*
X105402185Y-32825280D02*
G01*
X103402185Y-32825280D01*
X103402185Y-33115280D01*
X105402185Y-33115280D01*
X105402185Y-32825280D01*
G37*
G36*
X104402185Y-31210280D02*
G01*
X103640185Y-30067280D01*
X105164185Y-30067280D01*
X104402185Y-31210280D01*
G37*
X104402185Y-31210280D02*
X103640185Y-30067280D01*
X105164185Y-30067280D01*
X104402185Y-31210280D01*
X141502185Y-32725280D02*
X141502185Y-28825280D01*
X143502185Y-32725280D02*
X143502185Y-28825280D01*
X143502185Y-32725280D02*
X141502185Y-32725280D01*
X141502185Y-32725280D02*
X141502185Y-33015280D01*
X141502185Y-33015280D02*
X143502185Y-33015280D01*
X143502185Y-33015280D02*
X143502185Y-32725280D01*
G36*
X143502185Y-32725280D02*
G01*
X141502185Y-32725280D01*
X141502185Y-33015280D01*
X143502185Y-33015280D01*
X143502185Y-32725280D01*
G37*
G36*
X142502185Y-31110280D02*
G01*
X141740185Y-29967280D01*
X143264185Y-29967280D01*
X142502185Y-31110280D01*
G37*
X142502185Y-31110280D02*
X141740185Y-29967280D01*
X143264185Y-29967280D01*
X142502185Y-31110280D01*
X257802185Y-32825280D02*
X257802185Y-28925280D01*
X255802185Y-32825280D02*
X255802185Y-28925280D01*
X257802185Y-32825280D02*
X255802185Y-32825280D01*
X255802185Y-32825280D02*
X255802185Y-33115280D01*
X255802185Y-33115280D02*
X257802185Y-33115280D01*
X257802185Y-33115280D02*
X257802185Y-32825280D01*
G36*
X257802185Y-32825280D02*
G01*
X255802185Y-32825280D01*
X255802185Y-33115280D01*
X257802185Y-33115280D01*
X257802185Y-32825280D01*
G37*
G36*
X256802185Y-31210280D02*
G01*
X256040185Y-30067280D01*
X257564185Y-30067280D01*
X256802185Y-31210280D01*
G37*
X256802185Y-31210280D02*
X256040185Y-30067280D01*
X257564185Y-30067280D01*
X256802185Y-31210280D01*
X138739685Y-48303405D02*
X138739685Y-44403405D01*
X136739685Y-48303405D02*
X136739685Y-44403405D01*
X138739685Y-48303405D02*
X136739685Y-48303405D01*
X136739685Y-48303405D02*
X136739685Y-48593405D01*
X136739685Y-48593405D02*
X138739685Y-48593405D01*
X138739685Y-48593405D02*
X138739685Y-48303405D01*
G36*
X138739685Y-48303405D02*
G01*
X136739685Y-48303405D01*
X136739685Y-48593405D01*
X138739685Y-48593405D01*
X138739685Y-48303405D01*
G37*
G36*
X137739685Y-46688405D02*
G01*
X136977685Y-45545405D01*
X138501685Y-45545405D01*
X137739685Y-46688405D01*
G37*
X137739685Y-46688405D02*
X136977685Y-45545405D01*
X138501685Y-45545405D01*
X137739685Y-46688405D01*
X181602185Y-32825280D02*
X181602185Y-28925280D01*
X179602185Y-32825280D02*
X179602185Y-28925280D01*
X181602185Y-32825280D02*
X179602185Y-32825280D01*
X179602185Y-32825280D02*
X179602185Y-33115280D01*
X179602185Y-33115280D02*
X181602185Y-33115280D01*
X181602185Y-33115280D02*
X181602185Y-32825280D01*
G36*
X181602185Y-32825280D02*
G01*
X179602185Y-32825280D01*
X179602185Y-33115280D01*
X181602185Y-33115280D01*
X181602185Y-32825280D01*
G37*
G36*
X180602185Y-31210280D02*
G01*
X179840185Y-30067280D01*
X181364185Y-30067280D01*
X180602185Y-31210280D01*
G37*
X180602185Y-31210280D02*
X179840185Y-30067280D01*
X181364185Y-30067280D01*
X180602185Y-31210280D01*
X48252185Y-33875280D02*
X48252185Y-29975280D01*
X46252185Y-33875280D02*
X46252185Y-29975280D01*
X48252185Y-33875280D02*
X46252185Y-33875280D01*
X46252185Y-33875280D02*
X46252185Y-34165280D01*
X46252185Y-34165280D02*
X48252185Y-34165280D01*
X48252185Y-34165280D02*
X48252185Y-33875280D01*
G36*
X48252185Y-33875280D02*
G01*
X46252185Y-33875280D01*
X46252185Y-34165280D01*
X48252185Y-34165280D01*
X48252185Y-33875280D01*
G37*
G36*
X47252185Y-32260280D02*
G01*
X46490185Y-31117280D01*
X48014185Y-31117280D01*
X47252185Y-32260280D01*
G37*
X47252185Y-32260280D02*
X46490185Y-31117280D01*
X48014185Y-31117280D01*
X47252185Y-32260280D01*
X274852185Y-33875280D02*
X274852185Y-29975280D01*
X276852185Y-33875280D02*
X276852185Y-29975280D01*
X276852185Y-33875280D02*
X274852185Y-33875280D01*
X274852185Y-33875280D02*
X274852185Y-34165280D01*
X274852185Y-34165280D02*
X276852185Y-34165280D01*
X276852185Y-34165280D02*
X276852185Y-33875280D01*
G36*
X276852185Y-33875280D02*
G01*
X274852185Y-33875280D01*
X274852185Y-34165280D01*
X276852185Y-34165280D01*
X276852185Y-33875280D01*
G37*
G36*
X275852185Y-32260280D02*
G01*
X275090185Y-31117280D01*
X276614185Y-31117280D01*
X275852185Y-32260280D01*
G37*
X275852185Y-32260280D02*
X275090185Y-31117280D01*
X276614185Y-31117280D01*
X275852185Y-32260280D01*
D14*
X226941310Y-26765424D02*
G75*
G03*
X222369310Y-26765424I-2286000J-1435606D01*
G01*
D13*
X177220935Y-47112780D02*
X177220935Y-43212780D01*
X179220935Y-47112780D02*
X179220935Y-43212780D01*
X179220935Y-47112780D02*
X177220935Y-47112780D01*
X177220935Y-47112780D02*
X177220935Y-47402780D01*
X177220935Y-47402780D02*
X179220935Y-47402780D01*
X179220935Y-47402780D02*
X179220935Y-47112780D01*
G36*
X179220935Y-47112780D02*
G01*
X177220935Y-47112780D01*
X177220935Y-47402780D01*
X179220935Y-47402780D01*
X179220935Y-47112780D01*
G37*
G36*
X178220935Y-45497780D02*
G01*
X177458935Y-44354780D01*
X178982935Y-44354780D01*
X178220935Y-45497780D01*
G37*
X178220935Y-45497780D02*
X177458935Y-44354780D01*
X178982935Y-44354780D01*
X178220935Y-45497780D01*
X141120935Y-47112780D02*
X141120935Y-43212780D01*
X139120935Y-47112780D02*
X139120935Y-43212780D01*
X141120935Y-47112780D02*
X139120935Y-47112780D01*
X139120935Y-47112780D02*
X139120935Y-47402780D01*
X139120935Y-47402780D02*
X141120935Y-47402780D01*
X141120935Y-47402780D02*
X141120935Y-47112780D01*
G36*
X141120935Y-47112780D02*
G01*
X139120935Y-47112780D01*
X139120935Y-47402780D01*
X141120935Y-47402780D01*
X141120935Y-47112780D01*
G37*
G36*
X140120935Y-45497780D02*
G01*
X139358935Y-44354780D01*
X140882935Y-44354780D01*
X140120935Y-45497780D01*
G37*
X140120935Y-45497780D02*
X139358935Y-44354780D01*
X140882935Y-44354780D01*
X140120935Y-45497780D01*
X169565310Y-28790280D02*
X169565310Y-27800280D01*
X169445310Y-33260280D02*
X165565310Y-33260280D01*
X164395310Y-28790280D02*
X165445310Y-28790280D01*
X170615310Y-28790280D02*
X169565310Y-28790280D01*
X164395310Y-31290280D02*
X164395310Y-28790280D01*
X170615310Y-31290280D02*
X170615310Y-28790280D01*
G36*
X169805310Y-28790280D02*
G01*
X169565310Y-28790280D01*
X169565310Y-27800280D01*
X169805310Y-27800280D01*
X169805310Y-28790280D01*
G37*
X169805310Y-28790280D02*
X169565310Y-28790280D01*
X169565310Y-27800280D01*
X169805310Y-27800280D01*
X169805310Y-28790280D01*
G36*
X170615310Y-29790280D02*
G01*
X169565310Y-28790280D01*
X170615310Y-28790280D01*
X170615310Y-29790280D01*
G37*
X170615310Y-29790280D02*
X169565310Y-28790280D01*
X170615310Y-28790280D01*
X170615310Y-29790280D01*
X35355310Y-32956530D02*
G75*
G03*
X35355310Y-32956530I-1200000J0D01*
G01*
X35355310Y-21059655D02*
G75*
G03*
X35355310Y-21059655I-1200000J0D01*
G01*
X149655310Y-21059655D02*
G75*
G03*
X149655310Y-21059655I-1200000J0D01*
G01*
X73455310Y-21059655D02*
G75*
G03*
X73455310Y-21059655I-1200000J0D01*
G01*
X168705310Y-21003405D02*
G75*
G03*
X168705310Y-21003405I-1200000J0D01*
G01*
D14*
X36441310Y-26765424D02*
G75*
G03*
X31869310Y-26765424I-2286000J-1435606D01*
G01*
D13*
X150845935Y-36528405D02*
G75*
G03*
X150845935Y-36528405I-1200000J0D01*
G01*
D14*
X185459935Y-21990261D02*
G75*
G03*
X190031935Y-21990261I2286000J1435606D01*
G01*
D13*
X217702185Y-32825280D02*
X217702185Y-28925280D01*
X219702185Y-32825280D02*
X219702185Y-28925280D01*
X219702185Y-32825280D02*
X217702185Y-32825280D01*
X217702185Y-32825280D02*
X217702185Y-33115280D01*
X217702185Y-33115280D02*
X219702185Y-33115280D01*
X219702185Y-33115280D02*
X219702185Y-32825280D01*
G36*
X219702185Y-32825280D02*
G01*
X217702185Y-32825280D01*
X217702185Y-33115280D01*
X219702185Y-33115280D01*
X219702185Y-32825280D01*
G37*
G36*
X218702185Y-31210280D02*
G01*
X217940185Y-30067280D01*
X219464185Y-30067280D01*
X218702185Y-31210280D01*
G37*
X218702185Y-31210280D02*
X217940185Y-30067280D01*
X219464185Y-30067280D01*
X218702185Y-31210280D01*
X225855310Y-21050280D02*
G75*
G03*
X225855310Y-21050280I-1200000J0D01*
G01*
X160552185Y-32825280D02*
X160552185Y-28925280D01*
X162552185Y-32825280D02*
X162552185Y-28925280D01*
X162552185Y-32825280D02*
X160552185Y-32825280D01*
X160552185Y-32825280D02*
X160552185Y-33115280D01*
X160552185Y-33115280D02*
X162552185Y-33115280D01*
X162552185Y-33115280D02*
X162552185Y-32825280D01*
G36*
X162552185Y-32825280D02*
G01*
X160552185Y-32825280D01*
X160552185Y-33115280D01*
X162552185Y-33115280D01*
X162552185Y-32825280D01*
G37*
G36*
X161552185Y-31210280D02*
G01*
X160790185Y-30067280D01*
X162314185Y-30067280D01*
X161552185Y-31210280D01*
G37*
X161552185Y-31210280D02*
X160790185Y-30067280D01*
X162314185Y-30067280D01*
X161552185Y-31210280D01*
D14*
X179316310Y-50577924D02*
G75*
G03*
X174744310Y-50577924I-2286000J-1435606D01*
G01*
X93591310Y-26765424D02*
G75*
G03*
X89019310Y-26765424I-2286000J-1435606D01*
G01*
X141216310Y-50577924D02*
G75*
G03*
X136644310Y-50577924I-2286000J-1435606D01*
G01*
X128309935Y-21990261D02*
G75*
G03*
X132881935Y-21990261I2286000J1435606D01*
G01*
D13*
X200652185Y-33879280D02*
X200652185Y-29979280D01*
X198652185Y-33879280D02*
X198652185Y-29979280D01*
X200652185Y-33879280D02*
X198652185Y-33879280D01*
X198652185Y-33879280D02*
X198652185Y-34169280D01*
X198652185Y-34169280D02*
X200652185Y-34169280D01*
X200652185Y-34169280D02*
X200652185Y-33879280D01*
G36*
X200652185Y-33879280D02*
G01*
X198652185Y-33879280D01*
X198652185Y-34169280D01*
X200652185Y-34169280D01*
X200652185Y-33879280D01*
G37*
G36*
X199652185Y-32264280D02*
G01*
X198890185Y-31121280D01*
X200414185Y-31121280D01*
X199652185Y-32264280D01*
G37*
X199652185Y-32264280D02*
X198890185Y-31121280D01*
X200414185Y-31121280D01*
X199652185Y-32264280D01*
X130001560Y-32227780D02*
X130001560Y-33277780D01*
X130001560Y-38447780D02*
X130001560Y-37397780D01*
X132501560Y-38447780D02*
X130001560Y-38447780D01*
X134471560Y-33397780D02*
X134471560Y-37277780D01*
X132501560Y-32227780D02*
X130001560Y-32227780D01*
X130001560Y-33277780D02*
X129011560Y-33277780D01*
G36*
X130001560Y-33277780D02*
G01*
X129011560Y-33277780D01*
X129011560Y-33037780D01*
X130001560Y-33037780D01*
X130001560Y-33277780D01*
G37*
X130001560Y-33277780D02*
X129011560Y-33277780D01*
X129011560Y-33037780D01*
X130001560Y-33037780D01*
X130001560Y-33277780D01*
G36*
X130001560Y-33277780D02*
G01*
X130001560Y-32227780D01*
X131001560Y-32227780D01*
X130001560Y-33277780D01*
G37*
X130001560Y-33277780D02*
X130001560Y-32227780D01*
X131001560Y-32227780D01*
X130001560Y-33277780D01*
D14*
X284091310Y-26765424D02*
G75*
G03*
X279519310Y-26765424I-2286000J-1435606D01*
G01*
D13*
X283005310Y-21059655D02*
G75*
G03*
X283005310Y-21059655I-1200000J0D01*
G01*
X92505310Y-21059655D02*
G75*
G03*
X92505310Y-21059655I-1200000J0D01*
G01*
X147274060Y-36528405D02*
G75*
G03*
X147274060Y-36528405I-1200000J0D01*
G01*
X54405310Y-21050280D02*
G75*
G03*
X54405310Y-21050280I-1200000J0D01*
G01*
X27202185Y-32825280D02*
X27202185Y-28925280D01*
X29202185Y-32825280D02*
X29202185Y-28925280D01*
X29202185Y-32825280D02*
X27202185Y-32825280D01*
X27202185Y-32825280D02*
X27202185Y-33115280D01*
X27202185Y-33115280D02*
X29202185Y-33115280D01*
X29202185Y-33115280D02*
X29202185Y-32825280D01*
G36*
X29202185Y-32825280D02*
G01*
X27202185Y-32825280D01*
X27202185Y-33115280D01*
X29202185Y-33115280D01*
X29202185Y-32825280D01*
G37*
G36*
X28202185Y-31210280D02*
G01*
X27440185Y-30067280D01*
X28964185Y-30067280D01*
X28202185Y-31210280D01*
G37*
X28202185Y-31210280D02*
X27440185Y-30067280D01*
X28964185Y-30067280D01*
X28202185Y-31210280D01*
X174839685Y-48303405D02*
X174839685Y-44403405D01*
X176839685Y-48303405D02*
X176839685Y-44403405D01*
X176839685Y-48303405D02*
X174839685Y-48303405D01*
X174839685Y-48303405D02*
X174839685Y-48593405D01*
X174839685Y-48593405D02*
X176839685Y-48593405D01*
X176839685Y-48593405D02*
X176839685Y-48303405D01*
G36*
X176839685Y-48303405D02*
G01*
X174839685Y-48303405D01*
X174839685Y-48593405D01*
X176839685Y-48593405D01*
X176839685Y-48303405D01*
G37*
G36*
X175839685Y-46688405D02*
G01*
X175077685Y-45545405D01*
X176601685Y-45545405D01*
X175839685Y-46688405D01*
G37*
X175839685Y-46688405D02*
X175077685Y-45545405D01*
X176601685Y-45545405D01*
X175839685Y-46688405D01*
X145345310Y-31290280D02*
X145345310Y-28790280D01*
X151565310Y-31290280D02*
X151565310Y-28790280D01*
X151565310Y-28790280D02*
X150515310Y-28790280D01*
X145345310Y-28790280D02*
X146395310Y-28790280D01*
X150515310Y-28790280D02*
X150515310Y-27800280D01*
X150395310Y-33260280D02*
X146515310Y-33260280D01*
G36*
X151565310Y-29790280D02*
G01*
X150515310Y-28790280D01*
X151565310Y-28790280D01*
X151565310Y-29790280D01*
G37*
X151565310Y-29790280D02*
X150515310Y-28790280D01*
X151565310Y-28790280D01*
X151565310Y-29790280D01*
G36*
X150755310Y-28790280D02*
G01*
X150515310Y-28790280D01*
X150515310Y-27800280D01*
X150755310Y-27800280D01*
X150755310Y-28790280D01*
G37*
X150755310Y-28790280D02*
X150515310Y-28790280D01*
X150515310Y-27800280D01*
X150755310Y-27800280D01*
X150755310Y-28790280D01*
%LPC*%
D15*
X172585310Y-46053405D03*
D16*
X167505310Y-46053405D03*
D15*
X162425310Y-46053405D03*
D17*
X163695310Y-43513405D03*
X170045310Y-40973405D03*
D15*
X76700310Y-27003405D03*
X86860310Y-27003405D03*
D16*
X81780310Y-27003405D03*
D17*
X77970310Y-24463405D03*
X84320310Y-21923405D03*
D15*
X124325310Y-46053405D03*
D16*
X129405310Y-46053405D03*
D15*
X134485310Y-46053405D03*
D17*
X125595310Y-43513405D03*
X131945310Y-40973405D03*
D16*
X196080310Y-27003405D03*
D15*
X201160310Y-27003405D03*
X191000310Y-27003405D03*
D17*
X192270310Y-24463405D03*
X198620310Y-21923405D03*
D16*
X62730310Y-27003405D03*
D15*
X67810310Y-27003405D03*
X57650310Y-27003405D03*
D17*
X58920310Y-24463405D03*
X65270310Y-21923405D03*
D16*
X157908435Y-27003405D03*
D15*
X152828435Y-27003405D03*
X162988435Y-27003405D03*
D17*
X154098435Y-24463405D03*
X160448435Y-21923405D03*
D16*
X234180310Y-27003405D03*
D15*
X229100310Y-27003405D03*
X239260310Y-27003405D03*
D17*
X230370310Y-24463405D03*
X236720310Y-21923405D03*
D15*
X124960310Y-27003405D03*
X114800310Y-27003405D03*
D16*
X119880310Y-27003405D03*
D17*
X116070310Y-24463405D03*
X122420310Y-21923405D03*
D16*
X215130310Y-27003405D03*
D15*
X210050310Y-27003405D03*
X220210310Y-27003405D03*
D17*
X211320310Y-24463405D03*
X217670310Y-21923405D03*
D16*
X148455310Y-46053405D03*
D15*
X153535310Y-46053405D03*
X143375310Y-46053405D03*
D17*
X144645310Y-43513405D03*
X150995310Y-40973405D03*
D16*
X253230310Y-27003405D03*
D15*
X248150310Y-27003405D03*
X258310310Y-27003405D03*
D17*
X249420310Y-24463405D03*
X255770310Y-21923405D03*
D15*
X277360310Y-27003405D03*
D16*
X272280310Y-27003405D03*
D15*
X267200310Y-27003405D03*
D17*
X268470310Y-24463405D03*
X274820310Y-21923405D03*
D15*
X19550310Y-27003405D03*
D16*
X24630310Y-27003405D03*
D15*
X29710310Y-27003405D03*
D17*
X20820310Y-24463405D03*
X27170310Y-21923405D03*
D15*
X181475310Y-46053405D03*
X191635310Y-46053405D03*
D16*
X186555310Y-46053405D03*
D17*
X182745310Y-43513405D03*
X189095310Y-40973405D03*
D15*
X296410310Y-27003405D03*
X286250310Y-27003405D03*
D16*
X291330310Y-27003405D03*
D17*
X287520310Y-24463405D03*
X293870310Y-21923405D03*
D16*
X138930310Y-27003405D03*
D15*
X144010310Y-27003405D03*
X133850310Y-27003405D03*
D17*
X135120310Y-24463405D03*
X141470310Y-21923405D03*
D15*
X48760310Y-27003405D03*
X38600310Y-27003405D03*
D16*
X43680310Y-27003405D03*
D17*
X39870310Y-24463405D03*
X46220310Y-21923405D03*
D16*
X100830310Y-27003405D03*
D15*
X95750310Y-27003405D03*
X105910310Y-27003405D03*
D17*
X97020310Y-24463405D03*
X103370310Y-21923405D03*
D15*
X182110310Y-27003405D03*
X171950310Y-27003405D03*
D16*
X177030310Y-27003405D03*
D17*
X173220310Y-24463405D03*
X179570310Y-21923405D03*
D18*
X85352185Y-33275280D03*
X85352185Y-29975280D03*
D19*
X262755310Y-21050280D03*
D18*
X294902185Y-32225280D03*
X294902185Y-28925280D03*
X237752185Y-33279280D03*
X237752185Y-29979280D03*
X66302185Y-32225280D03*
X66302185Y-28925280D03*
X123452185Y-33279280D03*
X123452185Y-29979280D03*
X104402185Y-32225280D03*
X104402185Y-28925280D03*
X142502185Y-32125280D03*
X142502185Y-28825280D03*
X256802185Y-32225280D03*
X256802185Y-28925280D03*
X137739685Y-47703405D03*
X137739685Y-44403405D03*
X180602185Y-32225280D03*
X180602185Y-28925280D03*
X47252185Y-33275280D03*
X47252185Y-29975280D03*
X275852185Y-33275280D03*
X275852185Y-29975280D03*
D20*
X224655310Y-28194030D03*
D18*
X178220935Y-46512780D03*
X178220935Y-43212780D03*
X140120935Y-46512780D03*
X140120935Y-43212780D03*
D21*
X169005310Y-28575280D03*
D22*
X169505310Y-30375280D03*
D21*
X168005310Y-28575280D03*
D22*
X168505310Y-32275280D03*
D21*
X167005310Y-28575280D03*
D22*
X166505310Y-32275280D03*
D21*
X166005310Y-28575280D03*
D22*
X165505310Y-30375280D03*
D23*
X170305310Y-32450280D03*
X164705310Y-32450280D03*
D19*
X34155310Y-32956530D03*
X34155310Y-21059655D03*
X148455310Y-21059655D03*
X72255310Y-21059655D03*
X167505310Y-21003405D03*
D20*
X34155310Y-28194030D03*
D19*
X149645935Y-36528405D03*
D20*
X187745935Y-20561655D03*
D18*
X218702185Y-32225280D03*
X218702185Y-28925280D03*
D19*
X224655310Y-21050280D03*
D18*
X161552185Y-32225280D03*
X161552185Y-28925280D03*
D20*
X177030310Y-52006530D03*
X91305310Y-28194030D03*
X138930310Y-52006530D03*
X130595935Y-20561655D03*
D18*
X199652185Y-33279280D03*
X199652185Y-29979280D03*
D24*
X129786560Y-33837780D03*
D22*
X131586560Y-33337780D03*
X133486560Y-34337780D03*
D24*
X129786560Y-34837780D03*
X129786560Y-35837780D03*
D22*
X133486560Y-36337780D03*
D24*
X129786560Y-36837780D03*
D22*
X131586560Y-37337780D03*
D25*
X133661560Y-38137780D03*
X133661560Y-32537780D03*
D20*
X281805310Y-28194030D03*
D19*
X281805310Y-21059655D03*
X91305310Y-21059655D03*
X146074060Y-36528405D03*
X53205310Y-21050280D03*
D18*
X28202185Y-32225280D03*
X28202185Y-28925280D03*
X175839685Y-47703405D03*
X175839685Y-44403405D03*
D21*
X149955310Y-28575280D03*
D22*
X150455310Y-30375280D03*
D21*
X148955310Y-28575280D03*
D22*
X149455310Y-32275280D03*
D21*
X147955310Y-28575280D03*
D22*
X147455310Y-32275280D03*
X146455310Y-30375280D03*
D21*
X146955310Y-28575280D03*
D23*
X145655310Y-32450280D03*
X151255310Y-32450280D03*
M02*
