G04 #@! TF.GenerationSoftware,KiCad,Pcbnew,(6.0.10-0)*
G04 #@! TF.CreationDate,2023-03-16T17:34:01+09:00*
G04 #@! TF.ProjectId,Sandy_Top,53616e64-795f-4546-9f70-2e6b69636164,v.0*
G04 #@! TF.SameCoordinates,Original*
G04 #@! TF.FileFunction,Soldermask,Bot*
G04 #@! TF.FilePolarity,Negative*
%FSLAX46Y46*%
G04 Gerber Fmt 4.6, Leading zero omitted, Abs format (unit mm)*
G04 Created by KiCad (PCBNEW (6.0.10-0)) date 2023-03-16 17:34:01*
%MOMM*%
%LPD*%
G01*
G04 APERTURE LIST*
G04 Aperture macros list*
%AMRoundRect*
0 Rectangle with rounded corners*
0 $1 Rounding radius*
0 $2 $3 $4 $5 $6 $7 $8 $9 X,Y pos of 4 corners*
0 Add a 4 corners polygon primitive as box body*
4,1,4,$2,$3,$4,$5,$6,$7,$8,$9,$2,$3,0*
0 Add four circle primitives for the rounded corners*
1,1,$1+$1,$2,$3*
1,1,$1+$1,$4,$5*
1,1,$1+$1,$6,$7*
1,1,$1+$1,$8,$9*
0 Add four rect primitives between the rounded corners*
20,1,$1+$1,$2,$3,$4,$5,0*
20,1,$1+$1,$4,$5,$6,$7,0*
20,1,$1+$1,$6,$7,$8,$9,0*
20,1,$1+$1,$8,$9,$2,$3,0*%
G04 Aperture macros list end*
%ADD10C,4.387800*%
%ADD11C,2.150000*%
%ADD12C,2.650000*%
%ADD13RoundRect,0.200000X0.600000X-0.450000X0.600000X0.450000X-0.600000X0.450000X-0.600000X-0.450000X0*%
%ADD14C,2.400000*%
%ADD15C,4.800000*%
%ADD16RoundRect,0.350000X0.150000X0.625000X-0.150000X0.625000X-0.150000X-0.625000X0.150000X-0.625000X0*%
%ADD17O,2.100000X2.100000*%
%ADD18RoundRect,0.450000X0.350000X0.650000X-0.350000X0.650000X-0.350000X-0.650000X0.350000X-0.650000X0*%
%ADD19RoundRect,0.350000X-0.625000X0.150000X-0.625000X-0.150000X0.625000X-0.150000X0.625000X0.150000X0*%
%ADD20RoundRect,0.450000X-0.650000X0.350000X-0.650000X-0.350000X0.650000X-0.350000X0.650000X0.350000X0*%
G04 APERTURE END LIST*
D10*
X167505310Y-46053405D03*
D11*
X162425310Y-46053405D03*
X172585310Y-46053405D03*
D12*
X163695310Y-43513405D03*
X170045310Y-40973405D03*
D11*
X86860310Y-27003405D03*
D10*
X81780310Y-27003405D03*
D11*
X76700310Y-27003405D03*
D12*
X77970310Y-24463405D03*
X84320310Y-21923405D03*
D11*
X134485310Y-46053405D03*
D10*
X129405310Y-46053405D03*
D11*
X124325310Y-46053405D03*
D12*
X125595310Y-43513405D03*
X131945310Y-40973405D03*
D10*
X196080310Y-27003405D03*
D11*
X191000310Y-27003405D03*
X201160310Y-27003405D03*
D12*
X192270310Y-24463405D03*
X198620310Y-21923405D03*
D10*
X62730310Y-27003405D03*
D11*
X57650310Y-27003405D03*
X67810310Y-27003405D03*
D12*
X58920310Y-24463405D03*
X65270310Y-21923405D03*
D11*
X162988435Y-27003405D03*
X152828435Y-27003405D03*
D10*
X157908435Y-27003405D03*
D12*
X154098435Y-24463405D03*
X160448435Y-21923405D03*
D11*
X239260310Y-27003405D03*
D10*
X234180310Y-27003405D03*
D11*
X229100310Y-27003405D03*
D12*
X230370310Y-24463405D03*
X236720310Y-21923405D03*
D11*
X124960310Y-27003405D03*
D10*
X119880310Y-27003405D03*
D11*
X114800310Y-27003405D03*
D12*
X116070310Y-24463405D03*
X122420310Y-21923405D03*
D10*
X215130310Y-27003405D03*
D11*
X220210310Y-27003405D03*
X210050310Y-27003405D03*
D12*
X211320310Y-24463405D03*
X217670310Y-21923405D03*
D11*
X143375310Y-46053405D03*
X153535310Y-46053405D03*
D10*
X148455310Y-46053405D03*
D12*
X144645310Y-43513405D03*
X150995310Y-40973405D03*
D10*
X253230310Y-27003405D03*
D11*
X258310310Y-27003405D03*
X248150310Y-27003405D03*
D12*
X249420310Y-24463405D03*
X255770310Y-21923405D03*
D11*
X267200310Y-27003405D03*
X277360310Y-27003405D03*
D10*
X272280310Y-27003405D03*
D12*
X268470310Y-24463405D03*
X274820310Y-21923405D03*
D11*
X29710310Y-27003405D03*
X19550310Y-27003405D03*
D10*
X24630310Y-27003405D03*
D12*
X20820310Y-24463405D03*
X27170310Y-21923405D03*
D11*
X191635310Y-46053405D03*
X181475310Y-46053405D03*
D10*
X186555310Y-46053405D03*
D12*
X182745310Y-43513405D03*
X189095310Y-40973405D03*
D11*
X286250310Y-27003405D03*
X296410310Y-27003405D03*
D10*
X291330310Y-27003405D03*
D12*
X287520310Y-24463405D03*
X293870310Y-21923405D03*
D11*
X133850310Y-27003405D03*
D10*
X138930310Y-27003405D03*
D11*
X144010310Y-27003405D03*
D12*
X135120310Y-24463405D03*
X141470310Y-21923405D03*
D11*
X38600310Y-27003405D03*
D10*
X43680310Y-27003405D03*
D11*
X48760310Y-27003405D03*
D12*
X39870310Y-24463405D03*
X46220310Y-21923405D03*
D10*
X100830310Y-27003405D03*
D11*
X95750310Y-27003405D03*
X105910310Y-27003405D03*
D12*
X97020310Y-24463405D03*
X103370310Y-21923405D03*
D11*
X171950310Y-27003405D03*
X182110310Y-27003405D03*
D10*
X177030310Y-27003405D03*
D12*
X173220310Y-24463405D03*
X179570310Y-21923405D03*
D13*
X85352185Y-33275280D03*
X85352185Y-29975280D03*
D14*
X261564685Y-21050280D03*
D13*
X294902185Y-32225280D03*
X294902185Y-28925280D03*
X237752185Y-33279280D03*
X237752185Y-29979280D03*
X66302185Y-32225280D03*
X66302185Y-28925280D03*
X123452185Y-33279280D03*
X123452185Y-29979280D03*
X104402185Y-32225280D03*
X104402185Y-28925280D03*
X142502185Y-32125280D03*
X142502185Y-28825280D03*
X256802185Y-32225280D03*
X256802185Y-28925280D03*
X137739685Y-47703405D03*
X137739685Y-44403405D03*
X180602185Y-32225280D03*
X180602185Y-28925280D03*
X47252185Y-33275280D03*
X47252185Y-29975280D03*
X275852185Y-33275280D03*
X275852185Y-29975280D03*
D15*
X224655310Y-28194030D03*
D13*
X178220935Y-46512780D03*
X178220935Y-43212780D03*
X140120935Y-46512780D03*
X140120935Y-43212780D03*
D16*
X169005310Y-28575280D03*
D17*
X169505310Y-30375280D03*
D16*
X168005310Y-28575280D03*
D17*
X168505310Y-32275280D03*
D16*
X167005310Y-28575280D03*
D17*
X166505310Y-32275280D03*
D16*
X166005310Y-28575280D03*
D17*
X165505310Y-30375280D03*
D18*
X170305310Y-32450280D03*
X164705310Y-32450280D03*
D14*
X35345935Y-32956530D03*
X35345935Y-21050280D03*
X149645935Y-21050280D03*
X73445935Y-21059655D03*
X166314685Y-21003405D03*
D15*
X34155310Y-28194030D03*
D14*
X149645935Y-36528405D03*
D15*
X186555310Y-20561655D03*
D13*
X218702185Y-32225280D03*
X218702185Y-28925280D03*
D14*
X223464685Y-21050280D03*
D13*
X161552185Y-32225280D03*
X161552185Y-28925280D03*
D15*
X177030310Y-52006530D03*
X91305310Y-28194030D03*
X138930310Y-52006530D03*
X129405310Y-20561655D03*
D13*
X199652185Y-33279280D03*
X199652185Y-29979280D03*
D19*
X129786560Y-31503405D03*
D17*
X131586560Y-31003405D03*
X133486560Y-32003405D03*
D19*
X129786560Y-32503405D03*
X129786560Y-33503405D03*
D17*
X133486560Y-34003405D03*
D19*
X129786560Y-34503405D03*
D17*
X131586560Y-35003405D03*
D20*
X133661560Y-30203405D03*
X133661560Y-35803405D03*
D15*
X281805310Y-28194030D03*
D14*
X280614685Y-21050280D03*
X92495935Y-21050280D03*
X146074060Y-36528405D03*
X54395935Y-21050280D03*
D13*
X28202185Y-32225280D03*
X28202185Y-28925280D03*
X175839685Y-47703405D03*
X175839685Y-44403405D03*
D17*
X150455310Y-30375280D03*
D16*
X149955310Y-28575280D03*
X148955310Y-28575280D03*
D17*
X149455310Y-32275280D03*
D16*
X147955310Y-28575280D03*
D17*
X147455310Y-32275280D03*
D16*
X146955310Y-28575280D03*
D17*
X146455310Y-30375280D03*
D18*
X151255310Y-32450280D03*
X145655310Y-32450280D03*
M02*
