G04 #@! TF.GenerationSoftware,KiCad,Pcbnew,(6.0.10-0)*
G04 #@! TF.CreationDate,2023-02-16T10:13:06+09:00*
G04 #@! TF.ProjectId,Sandy_Top,53616e64-795f-4546-9f70-2e6b69636164,v.0*
G04 #@! TF.SameCoordinates,Original*
G04 #@! TF.FileFunction,Legend,Bot*
G04 #@! TF.FilePolarity,Positive*
%FSLAX46Y46*%
G04 Gerber Fmt 4.6, Leading zero omitted, Abs format (unit mm)*
G04 Created by KiCad (PCBNEW (6.0.10-0)) date 2023-02-16 10:13:06*
%MOMM*%
%LPD*%
G01*
G04 APERTURE LIST*
G04 Aperture macros list*
%AMRoundRect*
0 Rectangle with rounded corners*
0 $1 Rounding radius*
0 $2 $3 $4 $5 $6 $7 $8 $9 X,Y pos of 4 corners*
0 Add a 4 corners polygon primitive as box body*
4,1,4,$2,$3,$4,$5,$6,$7,$8,$9,$2,$3,0*
0 Add four circle primitives for the rounded corners*
1,1,$1+$1,$2,$3*
1,1,$1+$1,$4,$5*
1,1,$1+$1,$6,$7*
1,1,$1+$1,$8,$9*
0 Add four rect primitives between the rounded corners*
20,1,$1+$1,$2,$3,$4,$5,0*
20,1,$1+$1,$4,$5,$6,$7,0*
20,1,$1+$1,$6,$7,$8,$9,0*
20,1,$1+$1,$8,$9,$2,$3,0*%
G04 Aperture macros list end*
%ADD10C,0.300000*%
%ADD11C,0.200000*%
%ADD12C,0.150000*%
%ADD13C,0.120000*%
%ADD14C,2.650000*%
%ADD15C,4.387800*%
%ADD16C,2.150000*%
%ADD17RoundRect,0.450000X0.350000X0.650000X-0.350000X0.650000X-0.350000X-0.650000X0.350000X-0.650000X0*%
%ADD18RoundRect,0.350000X0.150000X0.625000X-0.150000X0.625000X-0.150000X-0.625000X0.150000X-0.625000X0*%
%ADD19O,2.100000X2.100000*%
%ADD20RoundRect,0.450000X-0.650000X0.350000X-0.650000X-0.350000X0.650000X-0.350000X0.650000X0.350000X0*%
%ADD21RoundRect,0.350000X-0.625000X0.150000X-0.625000X-0.150000X0.625000X-0.150000X0.625000X0.150000X0*%
%ADD22C,4.800000*%
%ADD23C,2.400000*%
%ADD24RoundRect,0.200000X0.600000X-0.450000X0.600000X0.450000X-0.600000X0.450000X-0.600000X-0.450000X0*%
G04 APERTURE END LIST*
D10*
X295877631Y-59519476D02*
X295877631Y-60590905D01*
X295949060Y-60805190D01*
X296091917Y-60948047D01*
X296306202Y-61019476D01*
X296449060Y-61019476D01*
X294449060Y-61019476D02*
X295163345Y-61019476D01*
X295163345Y-59519476D01*
X293091917Y-60876619D02*
X293163345Y-60948047D01*
X293377631Y-61019476D01*
X293520488Y-61019476D01*
X293734774Y-60948047D01*
X293877631Y-60805190D01*
X293949060Y-60662333D01*
X294020488Y-60376619D01*
X294020488Y-60162333D01*
X293949060Y-59876619D01*
X293877631Y-59733762D01*
X293734774Y-59590905D01*
X293520488Y-59519476D01*
X293377631Y-59519476D01*
X293163345Y-59590905D01*
X293091917Y-59662333D01*
X292020488Y-59519476D02*
X292020488Y-60590905D01*
X292091917Y-60805190D01*
X292234774Y-60948047D01*
X292449060Y-61019476D01*
X292591917Y-61019476D01*
X290591917Y-61019476D02*
X291306202Y-61019476D01*
X291306202Y-59519476D01*
X289234774Y-60876619D02*
X289306202Y-60948047D01*
X289520488Y-61019476D01*
X289663345Y-61019476D01*
X289877631Y-60948047D01*
X290020488Y-60805190D01*
X290091917Y-60662333D01*
X290163345Y-60376619D01*
X290163345Y-60162333D01*
X290091917Y-59876619D01*
X290020488Y-59733762D01*
X289877631Y-59590905D01*
X289663345Y-59519476D01*
X289520488Y-59519476D01*
X289306202Y-59590905D01*
X289234774Y-59662333D01*
X288163345Y-59519476D02*
X288163345Y-60590905D01*
X288234774Y-60805190D01*
X288377631Y-60948047D01*
X288591917Y-61019476D01*
X288734774Y-61019476D01*
X286734774Y-61019476D02*
X287449060Y-61019476D01*
X287449060Y-59519476D01*
X285377631Y-60876619D02*
X285449060Y-60948047D01*
X285663345Y-61019476D01*
X285806202Y-61019476D01*
X286020488Y-60948047D01*
X286163345Y-60805190D01*
X286234774Y-60662333D01*
X286306202Y-60376619D01*
X286306202Y-60162333D01*
X286234774Y-59876619D01*
X286163345Y-59733762D01*
X286020488Y-59590905D01*
X285806202Y-59519476D01*
X285663345Y-59519476D01*
X285449060Y-59590905D01*
X285377631Y-59662333D01*
X284306202Y-59519476D02*
X284306202Y-60590905D01*
X284377631Y-60805190D01*
X284520488Y-60948047D01*
X284734774Y-61019476D01*
X284877631Y-61019476D01*
X282877631Y-61019476D02*
X283591917Y-61019476D01*
X283591917Y-59519476D01*
X281520488Y-60876619D02*
X281591917Y-60948047D01*
X281806202Y-61019476D01*
X281949060Y-61019476D01*
X282163345Y-60948047D01*
X282306202Y-60805190D01*
X282377631Y-60662333D01*
X282449060Y-60376619D01*
X282449060Y-60162333D01*
X282377631Y-59876619D01*
X282306202Y-59733762D01*
X282163345Y-59590905D01*
X281949060Y-59519476D01*
X281806202Y-59519476D01*
X281591917Y-59590905D01*
X281520488Y-59662333D01*
D11*
X172985577Y-48981190D02*
X171699863Y-48981190D01*
X172471292Y-48209762D02*
X172985577Y-50524047D01*
X171871292Y-49752619D02*
X173157006Y-49752619D01*
X172385577Y-50524047D02*
X171871292Y-48209762D01*
X171185577Y-50095476D02*
X170928435Y-50181190D01*
X170499863Y-50181190D01*
X170328435Y-50095476D01*
X170242720Y-50009762D01*
X170157006Y-49838333D01*
X170157006Y-49666905D01*
X170242720Y-49495476D01*
X170328435Y-49409762D01*
X170499863Y-49324047D01*
X170842720Y-49238333D01*
X171014149Y-49152619D01*
X171099863Y-49066905D01*
X171185577Y-48895476D01*
X171185577Y-48724047D01*
X171099863Y-48552619D01*
X171014149Y-48466905D01*
X170842720Y-48381190D01*
X170414149Y-48381190D01*
X170157006Y-48466905D01*
X168614149Y-50181190D02*
X168614149Y-49238333D01*
X168699863Y-49066905D01*
X168871292Y-48981190D01*
X169214149Y-48981190D01*
X169385577Y-49066905D01*
X168614149Y-50095476D02*
X168785577Y-50181190D01*
X169214149Y-50181190D01*
X169385577Y-50095476D01*
X169471292Y-49924047D01*
X169471292Y-49752619D01*
X169385577Y-49581190D01*
X169214149Y-49495476D01*
X168785577Y-49495476D01*
X168614149Y-49409762D01*
X167757006Y-48981190D02*
X167757006Y-50181190D01*
X167757006Y-49152619D02*
X167671292Y-49066905D01*
X167499863Y-48981190D01*
X167242720Y-48981190D01*
X167071292Y-49066905D01*
X166985577Y-49238333D01*
X166985577Y-50181190D01*
X165357006Y-50181190D02*
X165357006Y-48381190D01*
X165357006Y-50095476D02*
X165528435Y-50181190D01*
X165871292Y-50181190D01*
X166042720Y-50095476D01*
X166128435Y-50009762D01*
X166214149Y-49838333D01*
X166214149Y-49324047D01*
X166128435Y-49152619D01*
X166042720Y-49066905D01*
X165871292Y-48981190D01*
X165528435Y-48981190D01*
X165357006Y-49066905D01*
X164671292Y-48981190D02*
X164242720Y-50181190D01*
X163814149Y-48981190D02*
X164242720Y-50181190D01*
X164414149Y-50609762D01*
X164499863Y-50695476D01*
X164671292Y-50781190D01*
X163557006Y-50352619D02*
X162185577Y-50352619D01*
X161757006Y-50181190D02*
X161757006Y-48381190D01*
X161585577Y-49495476D02*
X161071292Y-50181190D01*
X161071292Y-48981190D02*
X161757006Y-49666905D01*
X160299863Y-50181190D02*
X160299863Y-48381190D01*
X160299863Y-49066905D02*
X160128435Y-48981190D01*
X159785577Y-48981190D01*
X159614149Y-49066905D01*
X159528435Y-49152619D01*
X159442720Y-49324047D01*
X159442720Y-49838333D01*
X159528435Y-50009762D01*
X159614149Y-50095476D01*
X159785577Y-50181190D01*
X160128435Y-50181190D01*
X160299863Y-50095476D01*
X157899863Y-50181190D02*
X157899863Y-48381190D01*
X157899863Y-50095476D02*
X158071292Y-50181190D01*
X158414149Y-50181190D01*
X158585577Y-50095476D01*
X158671292Y-50009762D01*
X158757006Y-49838333D01*
X158757006Y-49324047D01*
X158671292Y-49152619D01*
X158585577Y-49066905D01*
X158414149Y-48981190D01*
X158071292Y-48981190D01*
X157899863Y-49066905D01*
X155842720Y-48981190D02*
X155414149Y-50181190D01*
X154985577Y-48981190D01*
X154299863Y-50009762D02*
X154214149Y-50095476D01*
X154299863Y-50181190D01*
X154385577Y-50095476D01*
X154299863Y-50009762D01*
X154299863Y-50181190D01*
X153099863Y-48381190D02*
X152928435Y-48381190D01*
X152757006Y-48466905D01*
X152671292Y-48552619D01*
X152585577Y-48724047D01*
X152499863Y-49066905D01*
X152499863Y-49495476D01*
X152585577Y-49838333D01*
X152671292Y-50009762D01*
X152757006Y-50095476D01*
X152928435Y-50181190D01*
X153099863Y-50181190D01*
X153271292Y-50095476D01*
X153357006Y-50009762D01*
X153442720Y-49838333D01*
X153528435Y-49495476D01*
X153528435Y-49066905D01*
X153442720Y-48724047D01*
X153357006Y-48552619D01*
X153271292Y-48466905D01*
X153099863Y-48381190D01*
X151728435Y-50009762D02*
X151642720Y-50095476D01*
X151728435Y-50181190D01*
X151814149Y-50095476D01*
X151728435Y-50009762D01*
X151728435Y-50181190D01*
X149928435Y-50181190D02*
X150957006Y-50181190D01*
X150442720Y-50181190D02*
X150442720Y-48381190D01*
X150614149Y-48638333D01*
X150785577Y-48809762D01*
X150957006Y-48895476D01*
X149071292Y-50095476D02*
X149071292Y-50181190D01*
X149157006Y-50352619D01*
X149242720Y-50438333D01*
X147185577Y-48381190D02*
X146157006Y-48381190D01*
X146671292Y-50181190D02*
X146671292Y-48381190D01*
X145299863Y-50181190D02*
X145471292Y-50095476D01*
X145557006Y-50009762D01*
X145642720Y-49838333D01*
X145642720Y-49324047D01*
X145557006Y-49152619D01*
X145471292Y-49066905D01*
X145299863Y-48981190D01*
X145042720Y-48981190D01*
X144871292Y-49066905D01*
X144785577Y-49152619D01*
X144699863Y-49324047D01*
X144699863Y-49838333D01*
X144785577Y-50009762D01*
X144871292Y-50095476D01*
X145042720Y-50181190D01*
X145299863Y-50181190D01*
X143928435Y-48981190D02*
X143928435Y-50781190D01*
X143928435Y-49066905D02*
X143757006Y-48981190D01*
X143414149Y-48981190D01*
X143242720Y-49066905D01*
X143157006Y-49152619D01*
X143071292Y-49324047D01*
X143071292Y-49838333D01*
X143157006Y-50009762D01*
X143242720Y-50095476D01*
X143414149Y-50181190D01*
X143757006Y-50181190D01*
X143928435Y-50095476D01*
X172899863Y-53079190D02*
X172899863Y-51279190D01*
X172899863Y-51964905D02*
X172728435Y-51879190D01*
X172385577Y-51879190D01*
X172214149Y-51964905D01*
X172128435Y-52050619D01*
X172042720Y-52222047D01*
X172042720Y-52736333D01*
X172128435Y-52907762D01*
X172214149Y-52993476D01*
X172385577Y-53079190D01*
X172728435Y-53079190D01*
X172899863Y-52993476D01*
X171442720Y-51879190D02*
X171014149Y-53079190D01*
X170585577Y-51879190D02*
X171014149Y-53079190D01*
X171185577Y-53507762D01*
X171271292Y-53593476D01*
X171442720Y-53679190D01*
X167414149Y-52222047D02*
X167499863Y-52136333D01*
X167671292Y-52050619D01*
X167842720Y-52050619D01*
X168014149Y-52136333D01*
X168099863Y-52222047D01*
X168185577Y-52393476D01*
X168185577Y-52564905D01*
X168099863Y-52736333D01*
X168014149Y-52822047D01*
X167842720Y-52907762D01*
X167671292Y-52907762D01*
X167499863Y-52822047D01*
X167414149Y-52736333D01*
X167414149Y-52050619D02*
X167414149Y-52736333D01*
X167328435Y-52822047D01*
X167242720Y-52822047D01*
X167071292Y-52736333D01*
X166985577Y-52564905D01*
X166985577Y-52136333D01*
X167157006Y-51879190D01*
X167414149Y-51707762D01*
X167757006Y-51622047D01*
X168099863Y-51707762D01*
X168357006Y-51879190D01*
X168528435Y-52136333D01*
X168614149Y-52479190D01*
X168528435Y-52822047D01*
X168357006Y-53079190D01*
X168099863Y-53250619D01*
X167757006Y-53336333D01*
X167414149Y-53250619D01*
X167157006Y-53079190D01*
X166214149Y-51879190D02*
X166214149Y-53422047D01*
X166299863Y-53593476D01*
X166471292Y-53679190D01*
X166557006Y-53679190D01*
X166214149Y-51279190D02*
X166299863Y-51364905D01*
X166214149Y-51450619D01*
X166128435Y-51364905D01*
X166214149Y-51279190D01*
X166214149Y-51450619D01*
X165357006Y-51879190D02*
X165357006Y-53679190D01*
X165357006Y-51964905D02*
X165185577Y-51879190D01*
X164842720Y-51879190D01*
X164671292Y-51964905D01*
X164585577Y-52050619D01*
X164499863Y-52222047D01*
X164499863Y-52736333D01*
X164585577Y-52907762D01*
X164671292Y-52993476D01*
X164842720Y-53079190D01*
X165185577Y-53079190D01*
X165357006Y-52993476D01*
X163814149Y-52993476D02*
X163642720Y-53079190D01*
X163299863Y-53079190D01*
X163128435Y-52993476D01*
X163042720Y-52822047D01*
X163042720Y-52736333D01*
X163128435Y-52564905D01*
X163299863Y-52479190D01*
X163557006Y-52479190D01*
X163728435Y-52393476D01*
X163814149Y-52222047D01*
X163814149Y-52136333D01*
X163728435Y-51964905D01*
X163557006Y-51879190D01*
X163299863Y-51879190D01*
X163128435Y-51964905D01*
X162271292Y-53079190D02*
X162271292Y-51279190D01*
X162099863Y-52393476D02*
X161585577Y-53079190D01*
X161585577Y-51879190D02*
X162271292Y-52564905D01*
X160128435Y-52993476D02*
X160299863Y-53079190D01*
X160642720Y-53079190D01*
X160814149Y-52993476D01*
X160899863Y-52822047D01*
X160899863Y-52136333D01*
X160814149Y-51964905D01*
X160642720Y-51879190D01*
X160299863Y-51879190D01*
X160128435Y-51964905D01*
X160042720Y-52136333D01*
X160042720Y-52307762D01*
X160899863Y-52479190D01*
X159271292Y-51879190D02*
X159271292Y-53079190D01*
X159271292Y-52050619D02*
X159185577Y-51964905D01*
X159014149Y-51879190D01*
X158757006Y-51879190D01*
X158585577Y-51964905D01*
X158499863Y-52136333D01*
X158499863Y-53079190D01*
X157642720Y-51879190D02*
X157642720Y-53079190D01*
X157642720Y-52050619D02*
X157557006Y-51964905D01*
X157385577Y-51879190D01*
X157128435Y-51879190D01*
X156957006Y-51964905D01*
X156871292Y-52136333D01*
X156871292Y-53079190D01*
D12*
X167838643Y-26047660D02*
X167838643Y-26761946D01*
X167886262Y-26904803D01*
X167981500Y-27000041D01*
X168124357Y-27047660D01*
X168219595Y-27047660D01*
X167457690Y-26047660D02*
X166838643Y-26047660D01*
X167171976Y-26428613D01*
X167029119Y-26428613D01*
X166933881Y-26476232D01*
X166886262Y-26523851D01*
X166838643Y-26619089D01*
X166838643Y-26857184D01*
X166886262Y-26952422D01*
X166933881Y-27000041D01*
X167029119Y-27047660D01*
X167314833Y-27047660D01*
X167410071Y-27000041D01*
X167457690Y-26952422D01*
X127258940Y-35004446D02*
X127973226Y-35004446D01*
X128116083Y-34956827D01*
X128211321Y-34861589D01*
X128258940Y-34718732D01*
X128258940Y-34623494D01*
X127354179Y-35433018D02*
X127306560Y-35480637D01*
X127258940Y-35575875D01*
X127258940Y-35813970D01*
X127306560Y-35909208D01*
X127354179Y-35956827D01*
X127449417Y-36004446D01*
X127544655Y-36004446D01*
X127687512Y-35956827D01*
X128258940Y-35385399D01*
X128258940Y-36004446D01*
X148788643Y-26047660D02*
X148788643Y-26761946D01*
X148836262Y-26904803D01*
X148931500Y-27000041D01*
X149074357Y-27047660D01*
X149169595Y-27047660D01*
X147788643Y-27047660D02*
X148360071Y-27047660D01*
X148074357Y-27047660D02*
X148074357Y-26047660D01*
X148169595Y-26190518D01*
X148264833Y-26285756D01*
X148360071Y-26333375D01*
X148883583Y-38838226D02*
X148550250Y-38838226D01*
X148407393Y-39362035D02*
X148883583Y-39362035D01*
X148883583Y-38362035D01*
X148407393Y-38362035D01*
X148074060Y-38362035D02*
X147407393Y-39362035D01*
X147407393Y-38362035D02*
X148074060Y-39362035D01*
X147169298Y-38362035D02*
X146597869Y-38362035D01*
X146883583Y-39362035D02*
X146883583Y-38362035D01*
X146502631Y-39457274D02*
X145740726Y-39457274D01*
X145645488Y-38362035D02*
X145074060Y-38362035D01*
X145359774Y-39362035D02*
X145359774Y-38362035D01*
X144169298Y-39362035D02*
X144502631Y-38885845D01*
X144740726Y-39362035D02*
X144740726Y-38362035D01*
X144359774Y-38362035D01*
X144264536Y-38409655D01*
X144216917Y-38457274D01*
X144169298Y-38552512D01*
X144169298Y-38695369D01*
X144216917Y-38790607D01*
X144264536Y-38838226D01*
X144359774Y-38885845D01*
X144740726Y-38885845D01*
X143312155Y-38362035D02*
X143502631Y-38362035D01*
X143597869Y-38409655D01*
X143645488Y-38457274D01*
X143740726Y-38600131D01*
X143788345Y-38790607D01*
X143788345Y-39171559D01*
X143740726Y-39266797D01*
X143693107Y-39314416D01*
X143597869Y-39362035D01*
X143407393Y-39362035D01*
X143312155Y-39314416D01*
X143264536Y-39266797D01*
X143216917Y-39171559D01*
X143216917Y-38933464D01*
X143264536Y-38838226D01*
X143312155Y-38790607D01*
X143407393Y-38742988D01*
X143597869Y-38742988D01*
X143693107Y-38790607D01*
X143740726Y-38838226D01*
X143788345Y-38933464D01*
X152455458Y-34458976D02*
X152122125Y-34458976D01*
X151979268Y-34982785D02*
X152455458Y-34982785D01*
X152455458Y-33982785D01*
X151979268Y-33982785D01*
X151645935Y-33982785D02*
X150979268Y-34982785D01*
X150979268Y-33982785D02*
X151645935Y-34982785D01*
X150741173Y-33982785D02*
X150169744Y-33982785D01*
X150455458Y-34982785D02*
X150455458Y-33982785D01*
X150074506Y-35078024D02*
X149312601Y-35078024D01*
X149217363Y-33982785D02*
X148645935Y-33982785D01*
X148931649Y-34982785D02*
X148931649Y-33982785D01*
X147741173Y-34982785D02*
X148074506Y-34506595D01*
X148312601Y-34982785D02*
X148312601Y-33982785D01*
X147931649Y-33982785D01*
X147836411Y-34030405D01*
X147788792Y-34078024D01*
X147741173Y-34173262D01*
X147741173Y-34316119D01*
X147788792Y-34411357D01*
X147836411Y-34458976D01*
X147931649Y-34506595D01*
X148312601Y-34506595D01*
X146788792Y-34982785D02*
X147360220Y-34982785D01*
X147074506Y-34982785D02*
X147074506Y-33982785D01*
X147169744Y-34125643D01*
X147264982Y-34220881D01*
X147360220Y-34268500D01*
X56014833Y-18980851D02*
X55681500Y-18980851D01*
X55538643Y-19504660D02*
X56014833Y-19504660D01*
X56014833Y-18504660D01*
X55538643Y-18504660D01*
X55205310Y-18504660D02*
X54538643Y-19504660D01*
X54538643Y-18504660D02*
X55205310Y-19504660D01*
X54300548Y-18504660D02*
X53729119Y-18504660D01*
X54014833Y-19504660D02*
X54014833Y-18504660D01*
X53633881Y-19599899D02*
X52871976Y-19599899D01*
X52776738Y-18504660D02*
X52205310Y-18504660D01*
X52491024Y-19504660D02*
X52491024Y-18504660D01*
X51300548Y-19504660D02*
X51633881Y-19028470D01*
X51871976Y-19504660D02*
X51871976Y-18504660D01*
X51491024Y-18504660D01*
X51395786Y-18552280D01*
X51348167Y-18599899D01*
X51300548Y-18695137D01*
X51300548Y-18837994D01*
X51348167Y-18933232D01*
X51395786Y-18980851D01*
X51491024Y-19028470D01*
X51871976Y-19028470D01*
X50395786Y-18504660D02*
X50871976Y-18504660D01*
X50919595Y-18980851D01*
X50871976Y-18933232D01*
X50776738Y-18885613D01*
X50538643Y-18885613D01*
X50443405Y-18933232D01*
X50395786Y-18980851D01*
X50348167Y-19076089D01*
X50348167Y-19314184D01*
X50395786Y-19409422D01*
X50443405Y-19457041D01*
X50538643Y-19504660D01*
X50776738Y-19504660D01*
X50871976Y-19457041D01*
X50919595Y-19409422D01*
X41727333Y-32885101D02*
X41394000Y-32885101D01*
X41251143Y-33408910D02*
X41727333Y-33408910D01*
X41727333Y-32408910D01*
X41251143Y-32408910D01*
X40917810Y-32408910D02*
X40251143Y-33408910D01*
X40251143Y-32408910D02*
X40917810Y-33408910D01*
X40013048Y-32408910D02*
X39441619Y-32408910D01*
X39727333Y-33408910D02*
X39727333Y-32408910D01*
X39346381Y-33504149D02*
X38584476Y-33504149D01*
X38489238Y-32408910D02*
X37917810Y-32408910D01*
X38203524Y-33408910D02*
X38203524Y-32408910D01*
X37013048Y-33408910D02*
X37346381Y-32932720D01*
X37584476Y-33408910D02*
X37584476Y-32408910D01*
X37203524Y-32408910D01*
X37108286Y-32456530D01*
X37060667Y-32504149D01*
X37013048Y-32599387D01*
X37013048Y-32742244D01*
X37060667Y-32837482D01*
X37108286Y-32885101D01*
X37203524Y-32932720D01*
X37584476Y-32932720D01*
X36394000Y-32408910D02*
X36298762Y-32408910D01*
X36203524Y-32456530D01*
X36155905Y-32504149D01*
X36108286Y-32599387D01*
X36060667Y-32789863D01*
X36060667Y-33027958D01*
X36108286Y-33218434D01*
X36155905Y-33313672D01*
X36203524Y-33361291D01*
X36298762Y-33408910D01*
X36394000Y-33408910D01*
X36489238Y-33361291D01*
X36536857Y-33313672D01*
X36584476Y-33218434D01*
X36632095Y-33027958D01*
X36632095Y-32789863D01*
X36584476Y-32599387D01*
X36536857Y-32504149D01*
X36489238Y-32456530D01*
X36394000Y-32408910D01*
X284614833Y-18990226D02*
X284281500Y-18990226D01*
X284138643Y-19514035D02*
X284614833Y-19514035D01*
X284614833Y-18514035D01*
X284138643Y-18514035D01*
X283805310Y-18514035D02*
X283138643Y-19514035D01*
X283138643Y-18514035D02*
X283805310Y-19514035D01*
X282900548Y-18514035D02*
X282329119Y-18514035D01*
X282614833Y-19514035D02*
X282614833Y-18514035D01*
X282233881Y-19609274D02*
X281471976Y-19609274D01*
X281376738Y-18514035D02*
X280805310Y-18514035D01*
X281091024Y-19514035D02*
X281091024Y-18514035D01*
X279900548Y-19418797D02*
X279948167Y-19466416D01*
X280091024Y-19514035D01*
X280186262Y-19514035D01*
X280329119Y-19466416D01*
X280424357Y-19371178D01*
X280471976Y-19275940D01*
X280519595Y-19085464D01*
X280519595Y-18942607D01*
X280471976Y-18752131D01*
X280424357Y-18656893D01*
X280329119Y-18561655D01*
X280186262Y-18514035D01*
X280091024Y-18514035D01*
X279948167Y-18561655D01*
X279900548Y-18609274D01*
X279567214Y-18514035D02*
X278900548Y-18514035D01*
X279329119Y-19514035D01*
X265564833Y-18980851D02*
X265231500Y-18980851D01*
X265088643Y-19504660D02*
X265564833Y-19504660D01*
X265564833Y-18504660D01*
X265088643Y-18504660D01*
X264755310Y-18504660D02*
X264088643Y-19504660D01*
X264088643Y-18504660D02*
X264755310Y-19504660D01*
X263850548Y-18504660D02*
X263279119Y-18504660D01*
X263564833Y-19504660D02*
X263564833Y-18504660D01*
X263183881Y-19599899D02*
X262421976Y-19599899D01*
X262326738Y-18504660D02*
X261755310Y-18504660D01*
X262041024Y-19504660D02*
X262041024Y-18504660D01*
X260850548Y-19409422D02*
X260898167Y-19457041D01*
X261041024Y-19504660D01*
X261136262Y-19504660D01*
X261279119Y-19457041D01*
X261374357Y-19361803D01*
X261421976Y-19266565D01*
X261469595Y-19076089D01*
X261469595Y-18933232D01*
X261421976Y-18742756D01*
X261374357Y-18647518D01*
X261279119Y-18552280D01*
X261136262Y-18504660D01*
X261041024Y-18504660D01*
X260898167Y-18552280D01*
X260850548Y-18599899D01*
X259993405Y-18504660D02*
X260183881Y-18504660D01*
X260279119Y-18552280D01*
X260326738Y-18599899D01*
X260421976Y-18742756D01*
X260469595Y-18933232D01*
X260469595Y-19314184D01*
X260421976Y-19409422D01*
X260374357Y-19457041D01*
X260279119Y-19504660D01*
X260088643Y-19504660D01*
X259993405Y-19457041D01*
X259945786Y-19409422D01*
X259898167Y-19314184D01*
X259898167Y-19076089D01*
X259945786Y-18980851D01*
X259993405Y-18933232D01*
X260088643Y-18885613D01*
X260279119Y-18885613D01*
X260374357Y-18933232D01*
X260421976Y-18980851D01*
X260469595Y-19076089D01*
X227464833Y-18980851D02*
X227131500Y-18980851D01*
X226988643Y-19504660D02*
X227464833Y-19504660D01*
X227464833Y-18504660D01*
X226988643Y-18504660D01*
X226655310Y-18504660D02*
X225988643Y-19504660D01*
X225988643Y-18504660D02*
X226655310Y-19504660D01*
X225750548Y-18504660D02*
X225179119Y-18504660D01*
X225464833Y-19504660D02*
X225464833Y-18504660D01*
X225083881Y-19599899D02*
X224321976Y-19599899D01*
X224226738Y-18504660D02*
X223655310Y-18504660D01*
X223941024Y-19504660D02*
X223941024Y-18504660D01*
X222750548Y-19409422D02*
X222798167Y-19457041D01*
X222941024Y-19504660D01*
X223036262Y-19504660D01*
X223179119Y-19457041D01*
X223274357Y-19361803D01*
X223321976Y-19266565D01*
X223369595Y-19076089D01*
X223369595Y-18933232D01*
X223321976Y-18742756D01*
X223274357Y-18647518D01*
X223179119Y-18552280D01*
X223036262Y-18504660D01*
X222941024Y-18504660D01*
X222798167Y-18552280D01*
X222750548Y-18599899D01*
X221845786Y-18504660D02*
X222321976Y-18504660D01*
X222369595Y-18980851D01*
X222321976Y-18933232D01*
X222226738Y-18885613D01*
X221988643Y-18885613D01*
X221893405Y-18933232D01*
X221845786Y-18980851D01*
X221798167Y-19076089D01*
X221798167Y-19314184D01*
X221845786Y-19409422D01*
X221893405Y-19457041D01*
X221988643Y-19504660D01*
X222226738Y-19504660D01*
X222321976Y-19457041D01*
X222369595Y-19409422D01*
X170314833Y-18933976D02*
X169981500Y-18933976D01*
X169838643Y-19457785D02*
X170314833Y-19457785D01*
X170314833Y-18457785D01*
X169838643Y-18457785D01*
X169505310Y-18457785D02*
X168838643Y-19457785D01*
X168838643Y-18457785D02*
X169505310Y-19457785D01*
X168600548Y-18457785D02*
X168029119Y-18457785D01*
X168314833Y-19457785D02*
X168314833Y-18457785D01*
X167933881Y-19553024D02*
X167171976Y-19553024D01*
X167076738Y-18457785D02*
X166505310Y-18457785D01*
X166791024Y-19457785D02*
X166791024Y-18457785D01*
X165600548Y-19362547D02*
X165648167Y-19410166D01*
X165791024Y-19457785D01*
X165886262Y-19457785D01*
X166029119Y-19410166D01*
X166124357Y-19314928D01*
X166171976Y-19219690D01*
X166219595Y-19029214D01*
X166219595Y-18886357D01*
X166171976Y-18695881D01*
X166124357Y-18600643D01*
X166029119Y-18505405D01*
X165886262Y-18457785D01*
X165791024Y-18457785D01*
X165648167Y-18505405D01*
X165600548Y-18553024D01*
X164743405Y-18791119D02*
X164743405Y-19457785D01*
X164981500Y-18410166D02*
X165219595Y-19124452D01*
X164600548Y-19124452D01*
X151264833Y-18990226D02*
X150931500Y-18990226D01*
X150788643Y-19514035D02*
X151264833Y-19514035D01*
X151264833Y-18514035D01*
X150788643Y-18514035D01*
X150455310Y-18514035D02*
X149788643Y-19514035D01*
X149788643Y-18514035D02*
X150455310Y-19514035D01*
X149550548Y-18514035D02*
X148979119Y-18514035D01*
X149264833Y-19514035D02*
X149264833Y-18514035D01*
X148883881Y-19609274D02*
X148121976Y-19609274D01*
X148026738Y-18514035D02*
X147455310Y-18514035D01*
X147741024Y-19514035D02*
X147741024Y-18514035D01*
X146550548Y-19418797D02*
X146598167Y-19466416D01*
X146741024Y-19514035D01*
X146836262Y-19514035D01*
X146979119Y-19466416D01*
X147074357Y-19371178D01*
X147121976Y-19275940D01*
X147169595Y-19085464D01*
X147169595Y-18942607D01*
X147121976Y-18752131D01*
X147074357Y-18656893D01*
X146979119Y-18561655D01*
X146836262Y-18514035D01*
X146741024Y-18514035D01*
X146598167Y-18561655D01*
X146550548Y-18609274D01*
X146217214Y-18514035D02*
X145598167Y-18514035D01*
X145931500Y-18894988D01*
X145788643Y-18894988D01*
X145693405Y-18942607D01*
X145645786Y-18990226D01*
X145598167Y-19085464D01*
X145598167Y-19323559D01*
X145645786Y-19418797D01*
X145693405Y-19466416D01*
X145788643Y-19514035D01*
X146074357Y-19514035D01*
X146169595Y-19466416D01*
X146217214Y-19418797D01*
X94114833Y-18990226D02*
X93781500Y-18990226D01*
X93638643Y-19514035D02*
X94114833Y-19514035D01*
X94114833Y-18514035D01*
X93638643Y-18514035D01*
X93305310Y-18514035D02*
X92638643Y-19514035D01*
X92638643Y-18514035D02*
X93305310Y-19514035D01*
X92400548Y-18514035D02*
X91829119Y-18514035D01*
X92114833Y-19514035D02*
X92114833Y-18514035D01*
X91733881Y-19609274D02*
X90971976Y-19609274D01*
X90876738Y-18514035D02*
X90305310Y-18514035D01*
X90591024Y-19514035D02*
X90591024Y-18514035D01*
X89400548Y-19418797D02*
X89448167Y-19466416D01*
X89591024Y-19514035D01*
X89686262Y-19514035D01*
X89829119Y-19466416D01*
X89924357Y-19371178D01*
X89971976Y-19275940D01*
X90019595Y-19085464D01*
X90019595Y-18942607D01*
X89971976Y-18752131D01*
X89924357Y-18656893D01*
X89829119Y-18561655D01*
X89686262Y-18514035D01*
X89591024Y-18514035D01*
X89448167Y-18561655D01*
X89400548Y-18609274D01*
X89019595Y-18609274D02*
X88971976Y-18561655D01*
X88876738Y-18514035D01*
X88638643Y-18514035D01*
X88543405Y-18561655D01*
X88495786Y-18609274D01*
X88448167Y-18704512D01*
X88448167Y-18799750D01*
X88495786Y-18942607D01*
X89067214Y-19514035D01*
X88448167Y-19514035D01*
X75064833Y-18990226D02*
X74731500Y-18990226D01*
X74588643Y-19514035D02*
X75064833Y-19514035D01*
X75064833Y-18514035D01*
X74588643Y-18514035D01*
X74255310Y-18514035D02*
X73588643Y-19514035D01*
X73588643Y-18514035D02*
X74255310Y-19514035D01*
X73350548Y-18514035D02*
X72779119Y-18514035D01*
X73064833Y-19514035D02*
X73064833Y-18514035D01*
X72683881Y-19609274D02*
X71921976Y-19609274D01*
X71826738Y-18514035D02*
X71255310Y-18514035D01*
X71541024Y-19514035D02*
X71541024Y-18514035D01*
X70350548Y-19418797D02*
X70398167Y-19466416D01*
X70541024Y-19514035D01*
X70636262Y-19514035D01*
X70779119Y-19466416D01*
X70874357Y-19371178D01*
X70921976Y-19275940D01*
X70969595Y-19085464D01*
X70969595Y-18942607D01*
X70921976Y-18752131D01*
X70874357Y-18656893D01*
X70779119Y-18561655D01*
X70636262Y-18514035D01*
X70541024Y-18514035D01*
X70398167Y-18561655D01*
X70350548Y-18609274D01*
X69398167Y-19514035D02*
X69969595Y-19514035D01*
X69683881Y-19514035D02*
X69683881Y-18514035D01*
X69779119Y-18656893D01*
X69874357Y-18752131D01*
X69969595Y-18799750D01*
X36964833Y-18990226D02*
X36631500Y-18990226D01*
X36488643Y-19514035D02*
X36964833Y-19514035D01*
X36964833Y-18514035D01*
X36488643Y-18514035D01*
X36155310Y-18514035D02*
X35488643Y-19514035D01*
X35488643Y-18514035D02*
X36155310Y-19514035D01*
X35250548Y-18514035D02*
X34679119Y-18514035D01*
X34964833Y-19514035D02*
X34964833Y-18514035D01*
X34583881Y-19609274D02*
X33821976Y-19609274D01*
X33726738Y-18514035D02*
X33155310Y-18514035D01*
X33441024Y-19514035D02*
X33441024Y-18514035D01*
X32250548Y-19418797D02*
X32298167Y-19466416D01*
X32441024Y-19514035D01*
X32536262Y-19514035D01*
X32679119Y-19466416D01*
X32774357Y-19371178D01*
X32821976Y-19275940D01*
X32869595Y-19085464D01*
X32869595Y-18942607D01*
X32821976Y-18752131D01*
X32774357Y-18656893D01*
X32679119Y-18561655D01*
X32536262Y-18514035D01*
X32441024Y-18514035D01*
X32298167Y-18561655D01*
X32250548Y-18609274D01*
X31631500Y-18514035D02*
X31536262Y-18514035D01*
X31441024Y-18561655D01*
X31393405Y-18609274D01*
X31345786Y-18704512D01*
X31298167Y-18894988D01*
X31298167Y-19133083D01*
X31345786Y-19323559D01*
X31393405Y-19418797D01*
X31441024Y-19466416D01*
X31536262Y-19514035D01*
X31631500Y-19514035D01*
X31726738Y-19466416D01*
X31774357Y-19418797D01*
X31821976Y-19323559D01*
X31869595Y-19133083D01*
X31869595Y-18894988D01*
X31821976Y-18704512D01*
X31774357Y-18609274D01*
X31726738Y-18561655D01*
X31631500Y-18514035D01*
X178673315Y-39632119D02*
X177673315Y-39632119D01*
X177673315Y-39870214D01*
X177720935Y-40013071D01*
X177816173Y-40108309D01*
X177911411Y-40155928D01*
X178101887Y-40203547D01*
X178244744Y-40203547D01*
X178435220Y-40155928D01*
X178530458Y-40108309D01*
X178625696Y-40013071D01*
X178673315Y-39870214D01*
X178673315Y-39632119D01*
X178673315Y-41155928D02*
X178673315Y-40584500D01*
X178673315Y-40870214D02*
X177673315Y-40870214D01*
X177816173Y-40774976D01*
X177911411Y-40679738D01*
X177959030Y-40584500D01*
X178673315Y-41632119D02*
X178673315Y-41822595D01*
X178625696Y-41917833D01*
X178578077Y-41965452D01*
X178435220Y-42060690D01*
X178244744Y-42108309D01*
X177863792Y-42108309D01*
X177768554Y-42060690D01*
X177720935Y-42013071D01*
X177673315Y-41917833D01*
X177673315Y-41727357D01*
X177720935Y-41632119D01*
X177768554Y-41584500D01*
X177863792Y-41536881D01*
X178101887Y-41536881D01*
X178197125Y-41584500D01*
X178244744Y-41632119D01*
X178292363Y-41727357D01*
X178292363Y-41917833D01*
X178244744Y-42013071D01*
X178197125Y-42060690D01*
X178101887Y-42108309D01*
X176292065Y-40902119D02*
X175292065Y-40902119D01*
X175292065Y-41140214D01*
X175339685Y-41283071D01*
X175434923Y-41378309D01*
X175530161Y-41425928D01*
X175720637Y-41473547D01*
X175863494Y-41473547D01*
X176053970Y-41425928D01*
X176149208Y-41378309D01*
X176244446Y-41283071D01*
X176292065Y-41140214D01*
X176292065Y-40902119D01*
X176292065Y-42425928D02*
X176292065Y-41854500D01*
X176292065Y-42140214D02*
X175292065Y-42140214D01*
X175434923Y-42044976D01*
X175530161Y-41949738D01*
X175577780Y-41854500D01*
X175720637Y-42997357D02*
X175673018Y-42902119D01*
X175625399Y-42854500D01*
X175530161Y-42806881D01*
X175482542Y-42806881D01*
X175387304Y-42854500D01*
X175339685Y-42902119D01*
X175292065Y-42997357D01*
X175292065Y-43187833D01*
X175339685Y-43283071D01*
X175387304Y-43330690D01*
X175482542Y-43378309D01*
X175530161Y-43378309D01*
X175625399Y-43330690D01*
X175673018Y-43283071D01*
X175720637Y-43187833D01*
X175720637Y-42997357D01*
X175768256Y-42902119D01*
X175815875Y-42854500D01*
X175911113Y-42806881D01*
X176101589Y-42806881D01*
X176196827Y-42854500D01*
X176244446Y-42902119D01*
X176292065Y-42997357D01*
X176292065Y-43187833D01*
X176244446Y-43283071D01*
X176196827Y-43330690D01*
X176101589Y-43378309D01*
X175911113Y-43378309D01*
X175815875Y-43330690D01*
X175768256Y-43283071D01*
X175720637Y-43187833D01*
X140573315Y-39632119D02*
X139573315Y-39632119D01*
X139573315Y-39870214D01*
X139620935Y-40013071D01*
X139716173Y-40108309D01*
X139811411Y-40155928D01*
X140001887Y-40203547D01*
X140144744Y-40203547D01*
X140335220Y-40155928D01*
X140430458Y-40108309D01*
X140525696Y-40013071D01*
X140573315Y-39870214D01*
X140573315Y-39632119D01*
X140573315Y-41155928D02*
X140573315Y-40584500D01*
X140573315Y-40870214D02*
X139573315Y-40870214D01*
X139716173Y-40774976D01*
X139811411Y-40679738D01*
X139859030Y-40584500D01*
X139573315Y-41489262D02*
X139573315Y-42155928D01*
X140573315Y-41727357D01*
X138192065Y-40902119D02*
X137192065Y-40902119D01*
X137192065Y-41140214D01*
X137239685Y-41283071D01*
X137334923Y-41378309D01*
X137430161Y-41425928D01*
X137620637Y-41473547D01*
X137763494Y-41473547D01*
X137953970Y-41425928D01*
X138049208Y-41378309D01*
X138144446Y-41283071D01*
X138192065Y-41140214D01*
X138192065Y-40902119D01*
X138192065Y-42425928D02*
X138192065Y-41854500D01*
X138192065Y-42140214D02*
X137192065Y-42140214D01*
X137334923Y-42044976D01*
X137430161Y-41949738D01*
X137477780Y-41854500D01*
X137192065Y-43283071D02*
X137192065Y-43092595D01*
X137239685Y-42997357D01*
X137287304Y-42949738D01*
X137430161Y-42854500D01*
X137620637Y-42806881D01*
X138001589Y-42806881D01*
X138096827Y-42854500D01*
X138144446Y-42902119D01*
X138192065Y-42997357D01*
X138192065Y-43187833D01*
X138144446Y-43283071D01*
X138096827Y-43330690D01*
X138001589Y-43378309D01*
X137763494Y-43378309D01*
X137668256Y-43330690D01*
X137620637Y-43283071D01*
X137573018Y-43187833D01*
X137573018Y-42997357D01*
X137620637Y-42902119D01*
X137668256Y-42854500D01*
X137763494Y-42806881D01*
X297354565Y-29360994D02*
X296354565Y-29360994D01*
X296354565Y-29599089D01*
X296402185Y-29741946D01*
X296497423Y-29837184D01*
X296592661Y-29884803D01*
X296783137Y-29932422D01*
X296925994Y-29932422D01*
X297116470Y-29884803D01*
X297211708Y-29837184D01*
X297306946Y-29741946D01*
X297354565Y-29599089D01*
X297354565Y-29360994D01*
X297354565Y-30884803D02*
X297354565Y-30313375D01*
X297354565Y-30599089D02*
X296354565Y-30599089D01*
X296497423Y-30503851D01*
X296592661Y-30408613D01*
X296640280Y-30313375D01*
X296354565Y-31789565D02*
X296354565Y-31313375D01*
X296830756Y-31265756D01*
X296783137Y-31313375D01*
X296735518Y-31408613D01*
X296735518Y-31646708D01*
X296783137Y-31741946D01*
X296830756Y-31789565D01*
X296925994Y-31837184D01*
X297164089Y-31837184D01*
X297259327Y-31789565D01*
X297306946Y-31741946D01*
X297354565Y-31646708D01*
X297354565Y-31408613D01*
X297306946Y-31313375D01*
X297259327Y-31265756D01*
X278304565Y-30410994D02*
X277304565Y-30410994D01*
X277304565Y-30649089D01*
X277352185Y-30791946D01*
X277447423Y-30887184D01*
X277542661Y-30934803D01*
X277733137Y-30982422D01*
X277875994Y-30982422D01*
X278066470Y-30934803D01*
X278161708Y-30887184D01*
X278256946Y-30791946D01*
X278304565Y-30649089D01*
X278304565Y-30410994D01*
X278304565Y-31934803D02*
X278304565Y-31363375D01*
X278304565Y-31649089D02*
X277304565Y-31649089D01*
X277447423Y-31553851D01*
X277542661Y-31458613D01*
X277590280Y-31363375D01*
X277637899Y-32791946D02*
X278304565Y-32791946D01*
X277256946Y-32553851D02*
X277971232Y-32315756D01*
X277971232Y-32934803D01*
X259254565Y-29360994D02*
X258254565Y-29360994D01*
X258254565Y-29599089D01*
X258302185Y-29741946D01*
X258397423Y-29837184D01*
X258492661Y-29884803D01*
X258683137Y-29932422D01*
X258825994Y-29932422D01*
X259016470Y-29884803D01*
X259111708Y-29837184D01*
X259206946Y-29741946D01*
X259254565Y-29599089D01*
X259254565Y-29360994D01*
X259254565Y-30884803D02*
X259254565Y-30313375D01*
X259254565Y-30599089D02*
X258254565Y-30599089D01*
X258397423Y-30503851D01*
X258492661Y-30408613D01*
X258540280Y-30313375D01*
X258254565Y-31218137D02*
X258254565Y-31837184D01*
X258635518Y-31503851D01*
X258635518Y-31646708D01*
X258683137Y-31741946D01*
X258730756Y-31789565D01*
X258825994Y-31837184D01*
X259064089Y-31837184D01*
X259159327Y-31789565D01*
X259206946Y-31741946D01*
X259254565Y-31646708D01*
X259254565Y-31360994D01*
X259206946Y-31265756D01*
X259159327Y-31218137D01*
X240204565Y-30414994D02*
X239204565Y-30414994D01*
X239204565Y-30653089D01*
X239252185Y-30795946D01*
X239347423Y-30891184D01*
X239442661Y-30938803D01*
X239633137Y-30986422D01*
X239775994Y-30986422D01*
X239966470Y-30938803D01*
X240061708Y-30891184D01*
X240156946Y-30795946D01*
X240204565Y-30653089D01*
X240204565Y-30414994D01*
X240204565Y-31938803D02*
X240204565Y-31367375D01*
X240204565Y-31653089D02*
X239204565Y-31653089D01*
X239347423Y-31557851D01*
X239442661Y-31462613D01*
X239490280Y-31367375D01*
X239299804Y-32319756D02*
X239252185Y-32367375D01*
X239204565Y-32462613D01*
X239204565Y-32700708D01*
X239252185Y-32795946D01*
X239299804Y-32843565D01*
X239395042Y-32891184D01*
X239490280Y-32891184D01*
X239633137Y-32843565D01*
X240204565Y-32272137D01*
X240204565Y-32891184D01*
X221154565Y-29360994D02*
X220154565Y-29360994D01*
X220154565Y-29599089D01*
X220202185Y-29741946D01*
X220297423Y-29837184D01*
X220392661Y-29884803D01*
X220583137Y-29932422D01*
X220725994Y-29932422D01*
X220916470Y-29884803D01*
X221011708Y-29837184D01*
X221106946Y-29741946D01*
X221154565Y-29599089D01*
X221154565Y-29360994D01*
X221154565Y-30884803D02*
X221154565Y-30313375D01*
X221154565Y-30599089D02*
X220154565Y-30599089D01*
X220297423Y-30503851D01*
X220392661Y-30408613D01*
X220440280Y-30313375D01*
X221154565Y-31837184D02*
X221154565Y-31265756D01*
X221154565Y-31551470D02*
X220154565Y-31551470D01*
X220297423Y-31456232D01*
X220392661Y-31360994D01*
X220440280Y-31265756D01*
X202104565Y-30414994D02*
X201104565Y-30414994D01*
X201104565Y-30653089D01*
X201152185Y-30795946D01*
X201247423Y-30891184D01*
X201342661Y-30938803D01*
X201533137Y-30986422D01*
X201675994Y-30986422D01*
X201866470Y-30938803D01*
X201961708Y-30891184D01*
X202056946Y-30795946D01*
X202104565Y-30653089D01*
X202104565Y-30414994D01*
X202104565Y-31938803D02*
X202104565Y-31367375D01*
X202104565Y-31653089D02*
X201104565Y-31653089D01*
X201247423Y-31557851D01*
X201342661Y-31462613D01*
X201390280Y-31367375D01*
X201104565Y-32557851D02*
X201104565Y-32653089D01*
X201152185Y-32748327D01*
X201199804Y-32795946D01*
X201295042Y-32843565D01*
X201485518Y-32891184D01*
X201723613Y-32891184D01*
X201914089Y-32843565D01*
X202009327Y-32795946D01*
X202056946Y-32748327D01*
X202104565Y-32653089D01*
X202104565Y-32557851D01*
X202056946Y-32462613D01*
X202009327Y-32414994D01*
X201914089Y-32367375D01*
X201723613Y-32319756D01*
X201485518Y-32319756D01*
X201295042Y-32367375D01*
X201199804Y-32414994D01*
X201152185Y-32462613D01*
X201104565Y-32557851D01*
X164004565Y-29837184D02*
X163004565Y-29837184D01*
X163004565Y-30075280D01*
X163052185Y-30218137D01*
X163147423Y-30313375D01*
X163242661Y-30360994D01*
X163433137Y-30408613D01*
X163575994Y-30408613D01*
X163766470Y-30360994D01*
X163861708Y-30313375D01*
X163956946Y-30218137D01*
X164004565Y-30075280D01*
X164004565Y-29837184D01*
X164004565Y-30884803D02*
X164004565Y-31075280D01*
X163956946Y-31170518D01*
X163909327Y-31218137D01*
X163766470Y-31313375D01*
X163575994Y-31360994D01*
X163195042Y-31360994D01*
X163099804Y-31313375D01*
X163052185Y-31265756D01*
X163004565Y-31170518D01*
X163004565Y-30980041D01*
X163052185Y-30884803D01*
X163099804Y-30837184D01*
X163195042Y-30789565D01*
X163433137Y-30789565D01*
X163528375Y-30837184D01*
X163575994Y-30884803D01*
X163623613Y-30980041D01*
X163623613Y-31170518D01*
X163575994Y-31265756D01*
X163528375Y-31313375D01*
X163433137Y-31360994D01*
X144954565Y-29737184D02*
X143954565Y-29737184D01*
X143954565Y-29975280D01*
X144002185Y-30118137D01*
X144097423Y-30213375D01*
X144192661Y-30260994D01*
X144383137Y-30308613D01*
X144525994Y-30308613D01*
X144716470Y-30260994D01*
X144811708Y-30213375D01*
X144906946Y-30118137D01*
X144954565Y-29975280D01*
X144954565Y-29737184D01*
X144383137Y-30880041D02*
X144335518Y-30784803D01*
X144287899Y-30737184D01*
X144192661Y-30689565D01*
X144145042Y-30689565D01*
X144049804Y-30737184D01*
X144002185Y-30784803D01*
X143954565Y-30880041D01*
X143954565Y-31070518D01*
X144002185Y-31165756D01*
X144049804Y-31213375D01*
X144145042Y-31260994D01*
X144192661Y-31260994D01*
X144287899Y-31213375D01*
X144335518Y-31165756D01*
X144383137Y-31070518D01*
X144383137Y-30880041D01*
X144430756Y-30784803D01*
X144478375Y-30737184D01*
X144573613Y-30689565D01*
X144764089Y-30689565D01*
X144859327Y-30737184D01*
X144906946Y-30784803D01*
X144954565Y-30880041D01*
X144954565Y-31070518D01*
X144906946Y-31165756D01*
X144859327Y-31213375D01*
X144764089Y-31260994D01*
X144573613Y-31260994D01*
X144478375Y-31213375D01*
X144430756Y-31165756D01*
X144383137Y-31070518D01*
X183054565Y-29837184D02*
X182054565Y-29837184D01*
X182054565Y-30075280D01*
X182102185Y-30218137D01*
X182197423Y-30313375D01*
X182292661Y-30360994D01*
X182483137Y-30408613D01*
X182625994Y-30408613D01*
X182816470Y-30360994D01*
X182911708Y-30313375D01*
X183006946Y-30218137D01*
X183054565Y-30075280D01*
X183054565Y-29837184D01*
X182054565Y-30741946D02*
X182054565Y-31408613D01*
X183054565Y-30980041D01*
X125904565Y-30891184D02*
X124904565Y-30891184D01*
X124904565Y-31129280D01*
X124952185Y-31272137D01*
X125047423Y-31367375D01*
X125142661Y-31414994D01*
X125333137Y-31462613D01*
X125475994Y-31462613D01*
X125666470Y-31414994D01*
X125761708Y-31367375D01*
X125856946Y-31272137D01*
X125904565Y-31129280D01*
X125904565Y-30891184D01*
X124904565Y-32319756D02*
X124904565Y-32129280D01*
X124952185Y-32034041D01*
X124999804Y-31986422D01*
X125142661Y-31891184D01*
X125333137Y-31843565D01*
X125714089Y-31843565D01*
X125809327Y-31891184D01*
X125856946Y-31938803D01*
X125904565Y-32034041D01*
X125904565Y-32224518D01*
X125856946Y-32319756D01*
X125809327Y-32367375D01*
X125714089Y-32414994D01*
X125475994Y-32414994D01*
X125380756Y-32367375D01*
X125333137Y-32319756D01*
X125285518Y-32224518D01*
X125285518Y-32034041D01*
X125333137Y-31938803D01*
X125380756Y-31891184D01*
X125475994Y-31843565D01*
X106854565Y-29837184D02*
X105854565Y-29837184D01*
X105854565Y-30075280D01*
X105902185Y-30218137D01*
X105997423Y-30313375D01*
X106092661Y-30360994D01*
X106283137Y-30408613D01*
X106425994Y-30408613D01*
X106616470Y-30360994D01*
X106711708Y-30313375D01*
X106806946Y-30218137D01*
X106854565Y-30075280D01*
X106854565Y-29837184D01*
X105854565Y-31313375D02*
X105854565Y-30837184D01*
X106330756Y-30789565D01*
X106283137Y-30837184D01*
X106235518Y-30932422D01*
X106235518Y-31170518D01*
X106283137Y-31265756D01*
X106330756Y-31313375D01*
X106425994Y-31360994D01*
X106664089Y-31360994D01*
X106759327Y-31313375D01*
X106806946Y-31265756D01*
X106854565Y-31170518D01*
X106854565Y-30932422D01*
X106806946Y-30837184D01*
X106759327Y-30789565D01*
X87804565Y-30887184D02*
X86804565Y-30887184D01*
X86804565Y-31125280D01*
X86852185Y-31268137D01*
X86947423Y-31363375D01*
X87042661Y-31410994D01*
X87233137Y-31458613D01*
X87375994Y-31458613D01*
X87566470Y-31410994D01*
X87661708Y-31363375D01*
X87756946Y-31268137D01*
X87804565Y-31125280D01*
X87804565Y-30887184D01*
X87137899Y-32315756D02*
X87804565Y-32315756D01*
X86756946Y-32077660D02*
X87471232Y-31839565D01*
X87471232Y-32458613D01*
X68754565Y-29837184D02*
X67754565Y-29837184D01*
X67754565Y-30075280D01*
X67802185Y-30218137D01*
X67897423Y-30313375D01*
X67992661Y-30360994D01*
X68183137Y-30408613D01*
X68325994Y-30408613D01*
X68516470Y-30360994D01*
X68611708Y-30313375D01*
X68706946Y-30218137D01*
X68754565Y-30075280D01*
X68754565Y-29837184D01*
X67754565Y-30741946D02*
X67754565Y-31360994D01*
X68135518Y-31027660D01*
X68135518Y-31170518D01*
X68183137Y-31265756D01*
X68230756Y-31313375D01*
X68325994Y-31360994D01*
X68564089Y-31360994D01*
X68659327Y-31313375D01*
X68706946Y-31265756D01*
X68754565Y-31170518D01*
X68754565Y-30884803D01*
X68706946Y-30789565D01*
X68659327Y-30741946D01*
X49704565Y-30887184D02*
X48704565Y-30887184D01*
X48704565Y-31125280D01*
X48752185Y-31268137D01*
X48847423Y-31363375D01*
X48942661Y-31410994D01*
X49133137Y-31458613D01*
X49275994Y-31458613D01*
X49466470Y-31410994D01*
X49561708Y-31363375D01*
X49656946Y-31268137D01*
X49704565Y-31125280D01*
X49704565Y-30887184D01*
X48799804Y-31839565D02*
X48752185Y-31887184D01*
X48704565Y-31982422D01*
X48704565Y-32220518D01*
X48752185Y-32315756D01*
X48799804Y-32363375D01*
X48895042Y-32410994D01*
X48990280Y-32410994D01*
X49133137Y-32363375D01*
X49704565Y-31791946D01*
X49704565Y-32410994D01*
X30654565Y-29837184D02*
X29654565Y-29837184D01*
X29654565Y-30075280D01*
X29702185Y-30218137D01*
X29797423Y-30313375D01*
X29892661Y-30360994D01*
X30083137Y-30408613D01*
X30225994Y-30408613D01*
X30416470Y-30360994D01*
X30511708Y-30313375D01*
X30606946Y-30218137D01*
X30654565Y-30075280D01*
X30654565Y-29837184D01*
X30654565Y-31360994D02*
X30654565Y-30789565D01*
X30654565Y-31075280D02*
X29654565Y-31075280D01*
X29797423Y-30980041D01*
X29892661Y-30884803D01*
X29940280Y-30789565D01*
D13*
X169565310Y-28790280D02*
X169565310Y-27800280D01*
X164395310Y-28790280D02*
X165445310Y-28790280D01*
X170615310Y-28790280D02*
X169565310Y-28790280D01*
X164395310Y-31290280D02*
X164395310Y-28790280D01*
X170615310Y-31290280D02*
X170615310Y-28790280D01*
X169445310Y-33260280D02*
X165565310Y-33260280D01*
X130001560Y-33277780D02*
X129011560Y-33277780D01*
X130001560Y-38447780D02*
X130001560Y-37397780D01*
X130001560Y-32227780D02*
X130001560Y-33277780D01*
X132501560Y-38447780D02*
X130001560Y-38447780D01*
X132501560Y-32227780D02*
X130001560Y-32227780D01*
X134471560Y-33397780D02*
X134471560Y-37277780D01*
X150515310Y-28790280D02*
X150515310Y-27800280D01*
X145345310Y-28790280D02*
X146395310Y-28790280D01*
X151565310Y-28790280D02*
X150515310Y-28790280D01*
X145345310Y-31290280D02*
X145345310Y-28790280D01*
X151565310Y-31290280D02*
X151565310Y-28790280D01*
X150395310Y-33260280D02*
X146515310Y-33260280D01*
D11*
X178730310Y-50306530D02*
G75*
G03*
X175330310Y-50306530I-1700000J-1700000D01*
G01*
X140630310Y-50306530D02*
G75*
G03*
X137230310Y-50306530I-1700000J-1700000D01*
G01*
X283505310Y-26494030D02*
G75*
G03*
X280105310Y-26494030I-1700000J-1700000D01*
G01*
X226355310Y-26494030D02*
G75*
G03*
X222955310Y-26494030I-1700000J-1700000D01*
G01*
X93005310Y-26494030D02*
G75*
G03*
X89605310Y-26494030I-1700000J-1700000D01*
G01*
X35855310Y-26494030D02*
G75*
G03*
X32455310Y-26494030I-1700000J-1700000D01*
G01*
X189445935Y-18861655D02*
G75*
G03*
X186045935Y-18861655I-1700000J-1700000D01*
G01*
X132295935Y-18861655D02*
G75*
G03*
X128895935Y-18861655I-1700000J-1700000D01*
G01*
D13*
X147274060Y-36528405D02*
G75*
G03*
X147274060Y-36528405I-1200000J0D01*
G01*
X150845935Y-36528405D02*
G75*
G03*
X150845935Y-36528405I-1200000J0D01*
G01*
X54405310Y-21050280D02*
G75*
G03*
X54405310Y-21050280I-1200000J0D01*
G01*
X35355310Y-32956530D02*
G75*
G03*
X35355310Y-32956530I-1200000J0D01*
G01*
X283005310Y-21059655D02*
G75*
G03*
X283005310Y-21059655I-1200000J0D01*
G01*
X263955310Y-21050280D02*
G75*
G03*
X263955310Y-21050280I-1200000J0D01*
G01*
X225855310Y-21050280D02*
G75*
G03*
X225855310Y-21050280I-1200000J0D01*
G01*
X168705310Y-21003405D02*
G75*
G03*
X168705310Y-21003405I-1200000J0D01*
G01*
X149655310Y-21059655D02*
G75*
G03*
X149655310Y-21059655I-1200000J0D01*
G01*
X92505310Y-21059655D02*
G75*
G03*
X92505310Y-21059655I-1200000J0D01*
G01*
X73455310Y-21059655D02*
G75*
G03*
X73455310Y-21059655I-1200000J0D01*
G01*
X35355310Y-21059655D02*
G75*
G03*
X35355310Y-21059655I-1200000J0D01*
G01*
X177220935Y-47112780D02*
X177220935Y-43212780D01*
X179220935Y-47112780D02*
X177220935Y-47112780D01*
X179220935Y-47112780D02*
X179220935Y-43212780D01*
X174839685Y-48303405D02*
X174839685Y-44403405D01*
X176839685Y-48303405D02*
X174839685Y-48303405D01*
X176839685Y-48303405D02*
X176839685Y-44403405D01*
X139120935Y-47112780D02*
X139120935Y-43212780D01*
X141120935Y-47112780D02*
X139120935Y-47112780D01*
X141120935Y-47112780D02*
X141120935Y-43212780D01*
X138739685Y-48303405D02*
X138739685Y-44403405D01*
X138739685Y-48303405D02*
X136739685Y-48303405D01*
X136739685Y-48303405D02*
X136739685Y-44403405D01*
X293902185Y-32825280D02*
X293902185Y-28925280D01*
X295902185Y-32825280D02*
X293902185Y-32825280D01*
X295902185Y-32825280D02*
X295902185Y-28925280D01*
X274852185Y-33875280D02*
X274852185Y-29975280D01*
X276852185Y-33875280D02*
X274852185Y-33875280D01*
X276852185Y-33875280D02*
X276852185Y-29975280D01*
X255802185Y-32825280D02*
X255802185Y-28925280D01*
X257802185Y-32825280D02*
X255802185Y-32825280D01*
X257802185Y-32825280D02*
X257802185Y-28925280D01*
X236752185Y-33879280D02*
X236752185Y-29979280D01*
X238752185Y-33879280D02*
X236752185Y-33879280D01*
X238752185Y-33879280D02*
X238752185Y-29979280D01*
X217702185Y-32825280D02*
X217702185Y-28925280D01*
X219702185Y-32825280D02*
X217702185Y-32825280D01*
X219702185Y-32825280D02*
X219702185Y-28925280D01*
X200652185Y-33879280D02*
X200652185Y-29979280D01*
X200652185Y-33879280D02*
X198652185Y-33879280D01*
X198652185Y-33879280D02*
X198652185Y-29979280D01*
X162552185Y-32825280D02*
X162552185Y-28925280D01*
X162552185Y-32825280D02*
X160552185Y-32825280D01*
X160552185Y-32825280D02*
X160552185Y-28925280D01*
X143502185Y-32725280D02*
X143502185Y-28825280D01*
X143502185Y-32725280D02*
X141502185Y-32725280D01*
X141502185Y-32725280D02*
X141502185Y-28825280D01*
X179602185Y-32825280D02*
X179602185Y-28925280D01*
X181602185Y-32825280D02*
X179602185Y-32825280D01*
X181602185Y-32825280D02*
X181602185Y-28925280D01*
X122452185Y-33879280D02*
X122452185Y-29979280D01*
X124452185Y-33879280D02*
X122452185Y-33879280D01*
X124452185Y-33879280D02*
X124452185Y-29979280D01*
X105402185Y-32825280D02*
X105402185Y-28925280D01*
X105402185Y-32825280D02*
X103402185Y-32825280D01*
X103402185Y-32825280D02*
X103402185Y-28925280D01*
X84352185Y-33875280D02*
X84352185Y-29975280D01*
X86352185Y-33875280D02*
X84352185Y-33875280D01*
X86352185Y-33875280D02*
X86352185Y-29975280D01*
X67302185Y-32825280D02*
X67302185Y-28925280D01*
X67302185Y-32825280D02*
X65302185Y-32825280D01*
X65302185Y-32825280D02*
X65302185Y-28925280D01*
X46252185Y-33875280D02*
X46252185Y-29975280D01*
X48252185Y-33875280D02*
X46252185Y-33875280D01*
X48252185Y-33875280D02*
X48252185Y-29975280D01*
X27202185Y-32825280D02*
X27202185Y-28925280D01*
X29202185Y-32825280D02*
X27202185Y-32825280D01*
X29202185Y-32825280D02*
X29202185Y-28925280D01*
%LPC*%
D14*
X141470310Y-21923405D03*
D15*
X138930310Y-27003405D03*
D14*
X135120310Y-24463405D03*
D16*
X133850310Y-27003405D03*
X144010310Y-27003405D03*
D14*
X170045310Y-40973405D03*
D15*
X167505310Y-46053405D03*
D14*
X163695310Y-43513405D03*
D16*
X162425310Y-46053405D03*
X172585310Y-46053405D03*
D14*
X160448435Y-21923405D03*
D15*
X157908435Y-27003405D03*
D14*
X154098435Y-24463405D03*
D16*
X152828435Y-27003405D03*
X162988435Y-27003405D03*
D14*
X150995310Y-40973405D03*
D15*
X148455310Y-46053405D03*
D14*
X144645310Y-43513405D03*
D16*
X143375310Y-46053405D03*
X153535310Y-46053405D03*
D14*
X189095310Y-40973405D03*
D15*
X186555310Y-46053405D03*
D14*
X182745310Y-43513405D03*
D16*
X181475310Y-46053405D03*
X191635310Y-46053405D03*
D14*
X131945310Y-40973405D03*
D15*
X129405310Y-46053405D03*
D14*
X125595310Y-43513405D03*
D16*
X124325310Y-46053405D03*
X134485310Y-46053405D03*
D14*
X27170310Y-21923405D03*
D15*
X24630310Y-27003405D03*
D14*
X20820310Y-24463405D03*
D16*
X19550310Y-27003405D03*
X29710310Y-27003405D03*
D14*
X293870310Y-21923405D03*
D15*
X291330310Y-27003405D03*
D14*
X287520310Y-24463405D03*
D16*
X286250310Y-27003405D03*
X296410310Y-27003405D03*
D14*
X255770310Y-21923405D03*
D15*
X253230310Y-27003405D03*
D14*
X249420310Y-24463405D03*
D16*
X248150310Y-27003405D03*
X258310310Y-27003405D03*
D14*
X236720310Y-21923405D03*
D15*
X234180310Y-27003405D03*
D14*
X230370310Y-24463405D03*
D16*
X229100310Y-27003405D03*
X239260310Y-27003405D03*
D14*
X217670310Y-21923405D03*
D15*
X215130310Y-27003405D03*
D14*
X211320310Y-24463405D03*
D16*
X210050310Y-27003405D03*
X220210310Y-27003405D03*
D14*
X198620310Y-21923405D03*
D15*
X196080310Y-27003405D03*
D14*
X192270310Y-24463405D03*
D16*
X191000310Y-27003405D03*
X201160310Y-27003405D03*
D14*
X179570310Y-21923405D03*
D15*
X177030310Y-27003405D03*
D14*
X173220310Y-24463405D03*
D16*
X171950310Y-27003405D03*
X182110310Y-27003405D03*
D14*
X122420310Y-21923405D03*
D15*
X119880310Y-27003405D03*
D14*
X116070310Y-24463405D03*
D16*
X114800310Y-27003405D03*
X124960310Y-27003405D03*
D14*
X103370310Y-21923405D03*
D15*
X100830310Y-27003405D03*
D14*
X97020310Y-24463405D03*
D16*
X95750310Y-27003405D03*
X105910310Y-27003405D03*
D14*
X84320310Y-21923405D03*
D15*
X81780310Y-27003405D03*
D14*
X77970310Y-24463405D03*
D16*
X76700310Y-27003405D03*
X86860310Y-27003405D03*
D14*
X65270310Y-21923405D03*
D15*
X62730310Y-27003405D03*
D14*
X58920310Y-24463405D03*
D16*
X57650310Y-27003405D03*
X67810310Y-27003405D03*
D14*
X46220310Y-21923405D03*
D15*
X43680310Y-27003405D03*
D14*
X39870310Y-24463405D03*
D16*
X38600310Y-27003405D03*
X48760310Y-27003405D03*
D14*
X274820310Y-21923405D03*
D15*
X272280310Y-27003405D03*
D14*
X268470310Y-24463405D03*
D16*
X267200310Y-27003405D03*
X277360310Y-27003405D03*
D17*
X170305310Y-32450280D03*
X164705310Y-32450280D03*
D18*
X166005310Y-28575280D03*
D19*
X165505310Y-30375280D03*
X166505310Y-32275280D03*
D18*
X167005310Y-28575280D03*
X168005310Y-28575280D03*
D19*
X168505310Y-32275280D03*
X169505310Y-30375280D03*
D18*
X169005310Y-28575280D03*
D20*
X133661560Y-32537780D03*
X133661560Y-38137780D03*
D21*
X129786560Y-36837780D03*
D19*
X131586560Y-37337780D03*
X133486560Y-36337780D03*
D21*
X129786560Y-35837780D03*
X129786560Y-34837780D03*
D19*
X133486560Y-34337780D03*
X131586560Y-33337780D03*
D21*
X129786560Y-33837780D03*
D17*
X151255310Y-32450280D03*
X145655310Y-32450280D03*
D18*
X146955310Y-28575280D03*
D19*
X146455310Y-30375280D03*
X147455310Y-32275280D03*
D18*
X147955310Y-28575280D03*
X148955310Y-28575280D03*
D19*
X149455310Y-32275280D03*
X150455310Y-30375280D03*
D18*
X149955310Y-28575280D03*
D22*
X177030310Y-52006530D03*
X138930310Y-52006530D03*
X281805310Y-28194030D03*
X224655310Y-28194030D03*
X91305310Y-28194030D03*
X34155310Y-28194030D03*
X187745935Y-20561655D03*
X130595935Y-20561655D03*
D23*
X146074060Y-36528405D03*
X149645935Y-36528405D03*
X53205310Y-21050280D03*
X34155310Y-32956530D03*
X281805310Y-21059655D03*
X262755310Y-21050280D03*
X224655310Y-21050280D03*
X167505310Y-21003405D03*
X148455310Y-21059655D03*
X91305310Y-21059655D03*
X72255310Y-21059655D03*
X34155310Y-21059655D03*
D24*
X178220935Y-43212780D03*
X178220935Y-46512780D03*
X175839685Y-44403405D03*
X175839685Y-47703405D03*
X140120935Y-43212780D03*
X140120935Y-46512780D03*
X137739685Y-47703405D03*
X137739685Y-44403405D03*
X294902185Y-28925280D03*
X294902185Y-32225280D03*
X275852185Y-29975280D03*
X275852185Y-33275280D03*
X256802185Y-28925280D03*
X256802185Y-32225280D03*
X237752185Y-29979280D03*
X237752185Y-33279280D03*
X218702185Y-28925280D03*
X218702185Y-32225280D03*
X199652185Y-33279280D03*
X199652185Y-29979280D03*
X161552185Y-32225280D03*
X161552185Y-28925280D03*
X142502185Y-32125280D03*
X142502185Y-28825280D03*
X180602185Y-28925280D03*
X180602185Y-32225280D03*
X123452185Y-29979280D03*
X123452185Y-33279280D03*
X104402185Y-32225280D03*
X104402185Y-28925280D03*
X85352185Y-29975280D03*
X85352185Y-33275280D03*
X66302185Y-32225280D03*
X66302185Y-28925280D03*
X47252185Y-29975280D03*
X47252185Y-33275280D03*
X28202185Y-28925280D03*
X28202185Y-32225280D03*
M02*
