G04 #@! TF.GenerationSoftware,KiCad,Pcbnew,(6.0.10-0)*
G04 #@! TF.CreationDate,2023-02-22T14:57:57+09:00*
G04 #@! TF.ProjectId,Sandy_Top,53616e64-795f-4546-9f70-2e6b69636164,v.0*
G04 #@! TF.SameCoordinates,Original*
G04 #@! TF.FileFunction,Legend,Bot*
G04 #@! TF.FilePolarity,Positive*
%FSLAX46Y46*%
G04 Gerber Fmt 4.6, Leading zero omitted, Abs format (unit mm)*
G04 Created by KiCad (PCBNEW (6.0.10-0)) date 2023-02-22 14:57:57*
%MOMM*%
%LPD*%
G01*
G04 APERTURE LIST*
G04 Aperture macros list*
%AMRoundRect*
0 Rectangle with rounded corners*
0 $1 Rounding radius*
0 $2 $3 $4 $5 $6 $7 $8 $9 X,Y pos of 4 corners*
0 Add a 4 corners polygon primitive as box body*
4,1,4,$2,$3,$4,$5,$6,$7,$8,$9,$2,$3,0*
0 Add four circle primitives for the rounded corners*
1,1,$1+$1,$2,$3*
1,1,$1+$1,$4,$5*
1,1,$1+$1,$6,$7*
1,1,$1+$1,$8,$9*
0 Add four rect primitives between the rounded corners*
20,1,$1+$1,$2,$3,$4,$5,0*
20,1,$1+$1,$4,$5,$6,$7,0*
20,1,$1+$1,$6,$7,$8,$9,0*
20,1,$1+$1,$8,$9,$2,$3,0*%
G04 Aperture macros list end*
%ADD10C,0.150000*%
%ADD11C,0.300000*%
%ADD12C,0.400000*%
%ADD13C,0.200000*%
%ADD14C,0.120000*%
%ADD15C,2.150000*%
%ADD16C,4.387800*%
%ADD17C,2.650000*%
%ADD18RoundRect,0.200000X0.600000X-0.450000X0.600000X0.450000X-0.600000X0.450000X-0.600000X-0.450000X0*%
%ADD19C,2.400000*%
%ADD20C,4.800000*%
%ADD21RoundRect,0.350000X0.150000X0.625000X-0.150000X0.625000X-0.150000X-0.625000X0.150000X-0.625000X0*%
%ADD22O,2.100000X2.100000*%
%ADD23RoundRect,0.450000X0.350000X0.650000X-0.350000X0.650000X-0.350000X-0.650000X0.350000X-0.650000X0*%
%ADD24RoundRect,0.350000X-0.625000X0.150000X-0.625000X-0.150000X0.625000X-0.150000X0.625000X0.150000X0*%
%ADD25RoundRect,0.450000X-0.650000X0.350000X-0.650000X-0.350000X0.650000X-0.350000X0.650000X0.350000X0*%
G04 APERTURE END LIST*
D10*
X171610667Y-29308762D02*
X171610667Y-29994476D01*
X172810667Y-29651619D02*
X171610667Y-29651619D01*
X172810667Y-30565905D02*
X172753524Y-30451619D01*
X172696381Y-30394476D01*
X172582095Y-30337333D01*
X172239238Y-30337333D01*
X172124952Y-30394476D01*
X172067810Y-30451619D01*
X172010667Y-30565905D01*
X172010667Y-30737333D01*
X172067810Y-30851619D01*
X172124952Y-30908762D01*
X172239238Y-30965905D01*
X172582095Y-30965905D01*
X172696381Y-30908762D01*
X172753524Y-30851619D01*
X172810667Y-30737333D01*
X172810667Y-30565905D01*
X172010667Y-31480190D02*
X173210667Y-31480190D01*
X172067810Y-31480190D02*
X172010667Y-31594476D01*
X172010667Y-31823047D01*
X172067810Y-31937333D01*
X172124952Y-31994476D01*
X172239238Y-32051619D01*
X172582095Y-32051619D01*
X172696381Y-31994476D01*
X172753524Y-31937333D01*
X172810667Y-31823047D01*
X172810667Y-31594476D01*
X172753524Y-31480190D01*
X172810667Y-34108762D02*
X172810667Y-33423047D01*
X172810667Y-33765905D02*
X171610667Y-33765905D01*
X171782095Y-33651619D01*
X171896381Y-33537333D01*
X171953524Y-33423047D01*
X152560667Y-29308762D02*
X152560667Y-29994476D01*
X153760667Y-29651619D02*
X152560667Y-29651619D01*
X153760667Y-30565905D02*
X153703524Y-30451619D01*
X153646381Y-30394476D01*
X153532095Y-30337333D01*
X153189238Y-30337333D01*
X153074952Y-30394476D01*
X153017810Y-30451619D01*
X152960667Y-30565905D01*
X152960667Y-30737333D01*
X153017810Y-30851619D01*
X153074952Y-30908762D01*
X153189238Y-30965905D01*
X153532095Y-30965905D01*
X153646381Y-30908762D01*
X153703524Y-30851619D01*
X153760667Y-30737333D01*
X153760667Y-30565905D01*
X152960667Y-31480190D02*
X154160667Y-31480190D01*
X153017810Y-31480190D02*
X152960667Y-31594476D01*
X152960667Y-31823047D01*
X153017810Y-31937333D01*
X153074952Y-31994476D01*
X153189238Y-32051619D01*
X153532095Y-32051619D01*
X153646381Y-31994476D01*
X153703524Y-31937333D01*
X153760667Y-31823047D01*
X153760667Y-31594476D01*
X153703524Y-31480190D01*
X152560667Y-33365905D02*
X152560667Y-34108762D01*
X153017810Y-33708762D01*
X153017810Y-33880190D01*
X153074952Y-33994476D01*
X153132095Y-34051619D01*
X153246381Y-34108762D01*
X153532095Y-34108762D01*
X153646381Y-34051619D01*
X153703524Y-33994476D01*
X153760667Y-33880190D01*
X153760667Y-33537333D01*
X153703524Y-33423047D01*
X153646381Y-33365905D01*
X134243702Y-29918137D02*
X133557988Y-29918137D01*
X133900845Y-31118137D02*
X133900845Y-29918137D01*
X132986560Y-31118137D02*
X133100845Y-31060994D01*
X133157988Y-31003851D01*
X133215131Y-30889565D01*
X133215131Y-30546708D01*
X133157988Y-30432422D01*
X133100845Y-30375280D01*
X132986560Y-30318137D01*
X132815131Y-30318137D01*
X132700845Y-30375280D01*
X132643702Y-30432422D01*
X132586560Y-30546708D01*
X132586560Y-30889565D01*
X132643702Y-31003851D01*
X132700845Y-31060994D01*
X132815131Y-31118137D01*
X132986560Y-31118137D01*
X132072274Y-30318137D02*
X132072274Y-31518137D01*
X132072274Y-30375280D02*
X131957988Y-30318137D01*
X131729417Y-30318137D01*
X131615131Y-30375280D01*
X131557988Y-30432422D01*
X131500845Y-30546708D01*
X131500845Y-30889565D01*
X131557988Y-31003851D01*
X131615131Y-31060994D01*
X131729417Y-31118137D01*
X131957988Y-31118137D01*
X132072274Y-31060994D01*
X130129417Y-30032422D02*
X130072274Y-29975280D01*
X129957988Y-29918137D01*
X129672274Y-29918137D01*
X129557988Y-29975280D01*
X129500845Y-30032422D01*
X129443702Y-30146708D01*
X129443702Y-30260994D01*
X129500845Y-30432422D01*
X130186560Y-31118137D01*
X129443702Y-31118137D01*
D11*
X292797881Y-33420976D02*
X292797881Y-34492405D01*
X292869310Y-34706690D01*
X293012167Y-34849547D01*
X293226452Y-34920976D01*
X293369310Y-34920976D01*
X291369310Y-34920976D02*
X292083595Y-34920976D01*
X292083595Y-33420976D01*
X290012167Y-34778119D02*
X290083595Y-34849547D01*
X290297881Y-34920976D01*
X290440738Y-34920976D01*
X290655024Y-34849547D01*
X290797881Y-34706690D01*
X290869310Y-34563833D01*
X290940738Y-34278119D01*
X290940738Y-34063833D01*
X290869310Y-33778119D01*
X290797881Y-33635262D01*
X290655024Y-33492405D01*
X290440738Y-33420976D01*
X290297881Y-33420976D01*
X290083595Y-33492405D01*
X290012167Y-33563833D01*
X288940738Y-33420976D02*
X288940738Y-34492405D01*
X289012167Y-34706690D01*
X289155024Y-34849547D01*
X289369310Y-34920976D01*
X289512167Y-34920976D01*
X287512167Y-34920976D02*
X288226452Y-34920976D01*
X288226452Y-33420976D01*
X286155024Y-34778119D02*
X286226452Y-34849547D01*
X286440738Y-34920976D01*
X286583595Y-34920976D01*
X286797881Y-34849547D01*
X286940738Y-34706690D01*
X287012167Y-34563833D01*
X287083595Y-34278119D01*
X287083595Y-34063833D01*
X287012167Y-33778119D01*
X286940738Y-33635262D01*
X286797881Y-33492405D01*
X286583595Y-33420976D01*
X286440738Y-33420976D01*
X286226452Y-33492405D01*
X286155024Y-33563833D01*
X285083595Y-33420976D02*
X285083595Y-34492405D01*
X285155024Y-34706690D01*
X285297881Y-34849547D01*
X285512167Y-34920976D01*
X285655024Y-34920976D01*
X283655024Y-34920976D02*
X284369310Y-34920976D01*
X284369310Y-33420976D01*
X282297881Y-34778119D02*
X282369310Y-34849547D01*
X282583595Y-34920976D01*
X282726452Y-34920976D01*
X282940738Y-34849547D01*
X283083595Y-34706690D01*
X283155024Y-34563833D01*
X283226452Y-34278119D01*
X283226452Y-34063833D01*
X283155024Y-33778119D01*
X283083595Y-33635262D01*
X282940738Y-33492405D01*
X282726452Y-33420976D01*
X282583595Y-33420976D01*
X282369310Y-33492405D01*
X282297881Y-33563833D01*
X281226452Y-33420976D02*
X281226452Y-34492405D01*
X281297881Y-34706690D01*
X281440738Y-34849547D01*
X281655024Y-34920976D01*
X281797881Y-34920976D01*
X279797881Y-34920976D02*
X280512167Y-34920976D01*
X280512167Y-33420976D01*
X278440738Y-34778119D02*
X278512167Y-34849547D01*
X278726452Y-34920976D01*
X278869310Y-34920976D01*
X279083595Y-34849547D01*
X279226452Y-34706690D01*
X279297881Y-34563833D01*
X279369310Y-34278119D01*
X279369310Y-34063833D01*
X279297881Y-33778119D01*
X279226452Y-33635262D01*
X279083595Y-33492405D01*
X278869310Y-33420976D01*
X278726452Y-33420976D01*
X278512167Y-33492405D01*
X278440738Y-33563833D01*
D12*
X172554491Y-36846708D02*
X172212229Y-36965756D01*
X172108062Y-37084803D01*
X172018777Y-37322899D01*
X172063420Y-37680041D01*
X172212229Y-37918137D01*
X172346158Y-38037184D01*
X172599134Y-38156232D01*
X173551515Y-38156232D01*
X173239015Y-35656232D01*
X172405682Y-35656232D01*
X172182467Y-35775280D01*
X172078301Y-35894327D01*
X171989015Y-36132422D01*
X172018777Y-36370518D01*
X172167586Y-36608613D01*
X172301515Y-36727660D01*
X172554491Y-36846708D01*
X173387824Y-36846708D01*
X169980086Y-38156232D02*
X169816396Y-36846708D01*
X169905682Y-36608613D01*
X170128896Y-36489565D01*
X170605086Y-36489565D01*
X170858062Y-36608613D01*
X169965205Y-38037184D02*
X170218182Y-38156232D01*
X170813420Y-38156232D01*
X171036634Y-38037184D01*
X171125920Y-37799089D01*
X171096158Y-37560994D01*
X170947348Y-37322899D01*
X170694372Y-37203851D01*
X170099134Y-37203851D01*
X169846158Y-37084803D01*
X167703301Y-38037184D02*
X167956277Y-38156232D01*
X168432467Y-38156232D01*
X168655682Y-38037184D01*
X168759848Y-37918137D01*
X168849134Y-37680041D01*
X168759848Y-36965756D01*
X168611039Y-36727660D01*
X168477110Y-36608613D01*
X168224134Y-36489565D01*
X167747943Y-36489565D01*
X167524729Y-36608613D01*
X166646753Y-38156232D02*
X166334253Y-35656232D01*
X166289610Y-37203851D02*
X165694372Y-38156232D01*
X165486039Y-36489565D02*
X166557467Y-37441946D01*
X162822348Y-38037184D02*
X162480086Y-38156232D01*
X161884848Y-38156232D01*
X161631872Y-38037184D01*
X161497943Y-37918137D01*
X161349134Y-37680041D01*
X161319372Y-37441946D01*
X161408658Y-37203851D01*
X161512824Y-37084803D01*
X161736039Y-36965756D01*
X162197348Y-36846708D01*
X162420562Y-36727660D01*
X162524729Y-36608613D01*
X162614015Y-36370518D01*
X162584253Y-36132422D01*
X162435443Y-35894327D01*
X162301515Y-35775280D01*
X162048539Y-35656232D01*
X161453301Y-35656232D01*
X161111039Y-35775280D01*
X160337229Y-38156232D02*
X160128896Y-36489565D01*
X160024729Y-35656232D02*
X160158658Y-35775280D01*
X160054491Y-35894327D01*
X159920562Y-35775280D01*
X160024729Y-35656232D01*
X160054491Y-35894327D01*
X158075324Y-38156232D02*
X157762824Y-35656232D01*
X158060443Y-38037184D02*
X158313420Y-38156232D01*
X158789610Y-38156232D01*
X159012824Y-38037184D01*
X159116991Y-37918137D01*
X159206277Y-37680041D01*
X159116991Y-36965756D01*
X158968182Y-36727660D01*
X158834253Y-36608613D01*
X158581277Y-36489565D01*
X158105086Y-36489565D01*
X157881872Y-36608613D01*
X155917586Y-38037184D02*
X156170562Y-38156232D01*
X156646753Y-38156232D01*
X156869967Y-38037184D01*
X156959253Y-37799089D01*
X156840205Y-36846708D01*
X156691396Y-36608613D01*
X156438420Y-36489565D01*
X155962229Y-36489565D01*
X155739015Y-36608613D01*
X155649729Y-36846708D01*
X155679491Y-37084803D01*
X156899729Y-37322899D01*
D13*
X172985577Y-48981190D02*
X171699863Y-48981190D01*
X172471292Y-48209762D02*
X172985577Y-50524047D01*
X171871292Y-49752619D02*
X173157006Y-49752619D01*
X172385577Y-50524047D02*
X171871292Y-48209762D01*
X171185577Y-50095476D02*
X170928435Y-50181190D01*
X170499863Y-50181190D01*
X170328435Y-50095476D01*
X170242720Y-50009762D01*
X170157006Y-49838333D01*
X170157006Y-49666905D01*
X170242720Y-49495476D01*
X170328435Y-49409762D01*
X170499863Y-49324047D01*
X170842720Y-49238333D01*
X171014149Y-49152619D01*
X171099863Y-49066905D01*
X171185577Y-48895476D01*
X171185577Y-48724047D01*
X171099863Y-48552619D01*
X171014149Y-48466905D01*
X170842720Y-48381190D01*
X170414149Y-48381190D01*
X170157006Y-48466905D01*
X168614149Y-50181190D02*
X168614149Y-49238333D01*
X168699863Y-49066905D01*
X168871292Y-48981190D01*
X169214149Y-48981190D01*
X169385577Y-49066905D01*
X168614149Y-50095476D02*
X168785577Y-50181190D01*
X169214149Y-50181190D01*
X169385577Y-50095476D01*
X169471292Y-49924047D01*
X169471292Y-49752619D01*
X169385577Y-49581190D01*
X169214149Y-49495476D01*
X168785577Y-49495476D01*
X168614149Y-49409762D01*
X167757006Y-48981190D02*
X167757006Y-50181190D01*
X167757006Y-49152619D02*
X167671292Y-49066905D01*
X167499863Y-48981190D01*
X167242720Y-48981190D01*
X167071292Y-49066905D01*
X166985577Y-49238333D01*
X166985577Y-50181190D01*
X165357006Y-50181190D02*
X165357006Y-48381190D01*
X165357006Y-50095476D02*
X165528435Y-50181190D01*
X165871292Y-50181190D01*
X166042720Y-50095476D01*
X166128435Y-50009762D01*
X166214149Y-49838333D01*
X166214149Y-49324047D01*
X166128435Y-49152619D01*
X166042720Y-49066905D01*
X165871292Y-48981190D01*
X165528435Y-48981190D01*
X165357006Y-49066905D01*
X164671292Y-48981190D02*
X164242720Y-50181190D01*
X163814149Y-48981190D02*
X164242720Y-50181190D01*
X164414149Y-50609762D01*
X164499863Y-50695476D01*
X164671292Y-50781190D01*
X163557006Y-50352619D02*
X162185577Y-50352619D01*
X161757006Y-50181190D02*
X161757006Y-48381190D01*
X161585577Y-49495476D02*
X161071292Y-50181190D01*
X161071292Y-48981190D02*
X161757006Y-49666905D01*
X160299863Y-50181190D02*
X160299863Y-48381190D01*
X160299863Y-49066905D02*
X160128435Y-48981190D01*
X159785577Y-48981190D01*
X159614149Y-49066905D01*
X159528435Y-49152619D01*
X159442720Y-49324047D01*
X159442720Y-49838333D01*
X159528435Y-50009762D01*
X159614149Y-50095476D01*
X159785577Y-50181190D01*
X160128435Y-50181190D01*
X160299863Y-50095476D01*
X157899863Y-50181190D02*
X157899863Y-48381190D01*
X157899863Y-50095476D02*
X158071292Y-50181190D01*
X158414149Y-50181190D01*
X158585577Y-50095476D01*
X158671292Y-50009762D01*
X158757006Y-49838333D01*
X158757006Y-49324047D01*
X158671292Y-49152619D01*
X158585577Y-49066905D01*
X158414149Y-48981190D01*
X158071292Y-48981190D01*
X157899863Y-49066905D01*
X155842720Y-48981190D02*
X155414149Y-50181190D01*
X154985577Y-48981190D01*
X154299863Y-50009762D02*
X154214149Y-50095476D01*
X154299863Y-50181190D01*
X154385577Y-50095476D01*
X154299863Y-50009762D01*
X154299863Y-50181190D01*
X153099863Y-48381190D02*
X152928435Y-48381190D01*
X152757006Y-48466905D01*
X152671292Y-48552619D01*
X152585577Y-48724047D01*
X152499863Y-49066905D01*
X152499863Y-49495476D01*
X152585577Y-49838333D01*
X152671292Y-50009762D01*
X152757006Y-50095476D01*
X152928435Y-50181190D01*
X153099863Y-50181190D01*
X153271292Y-50095476D01*
X153357006Y-50009762D01*
X153442720Y-49838333D01*
X153528435Y-49495476D01*
X153528435Y-49066905D01*
X153442720Y-48724047D01*
X153357006Y-48552619D01*
X153271292Y-48466905D01*
X153099863Y-48381190D01*
X151728435Y-50009762D02*
X151642720Y-50095476D01*
X151728435Y-50181190D01*
X151814149Y-50095476D01*
X151728435Y-50009762D01*
X151728435Y-50181190D01*
X149928435Y-50181190D02*
X150957006Y-50181190D01*
X150442720Y-50181190D02*
X150442720Y-48381190D01*
X150614149Y-48638333D01*
X150785577Y-48809762D01*
X150957006Y-48895476D01*
X149071292Y-50095476D02*
X149071292Y-50181190D01*
X149157006Y-50352619D01*
X149242720Y-50438333D01*
X147185577Y-48381190D02*
X146157006Y-48381190D01*
X146671292Y-50181190D02*
X146671292Y-48381190D01*
X145299863Y-50181190D02*
X145471292Y-50095476D01*
X145557006Y-50009762D01*
X145642720Y-49838333D01*
X145642720Y-49324047D01*
X145557006Y-49152619D01*
X145471292Y-49066905D01*
X145299863Y-48981190D01*
X145042720Y-48981190D01*
X144871292Y-49066905D01*
X144785577Y-49152619D01*
X144699863Y-49324047D01*
X144699863Y-49838333D01*
X144785577Y-50009762D01*
X144871292Y-50095476D01*
X145042720Y-50181190D01*
X145299863Y-50181190D01*
X143928435Y-48981190D02*
X143928435Y-50781190D01*
X143928435Y-49066905D02*
X143757006Y-48981190D01*
X143414149Y-48981190D01*
X143242720Y-49066905D01*
X143157006Y-49152619D01*
X143071292Y-49324047D01*
X143071292Y-49838333D01*
X143157006Y-50009762D01*
X143242720Y-50095476D01*
X143414149Y-50181190D01*
X143757006Y-50181190D01*
X143928435Y-50095476D01*
X172899863Y-53079190D02*
X172899863Y-51279190D01*
X172899863Y-51964905D02*
X172728435Y-51879190D01*
X172385577Y-51879190D01*
X172214149Y-51964905D01*
X172128435Y-52050619D01*
X172042720Y-52222047D01*
X172042720Y-52736333D01*
X172128435Y-52907762D01*
X172214149Y-52993476D01*
X172385577Y-53079190D01*
X172728435Y-53079190D01*
X172899863Y-52993476D01*
X171442720Y-51879190D02*
X171014149Y-53079190D01*
X170585577Y-51879190D02*
X171014149Y-53079190D01*
X171185577Y-53507762D01*
X171271292Y-53593476D01*
X171442720Y-53679190D01*
X167414149Y-52222047D02*
X167499863Y-52136333D01*
X167671292Y-52050619D01*
X167842720Y-52050619D01*
X168014149Y-52136333D01*
X168099863Y-52222047D01*
X168185577Y-52393476D01*
X168185577Y-52564905D01*
X168099863Y-52736333D01*
X168014149Y-52822047D01*
X167842720Y-52907762D01*
X167671292Y-52907762D01*
X167499863Y-52822047D01*
X167414149Y-52736333D01*
X167414149Y-52050619D02*
X167414149Y-52736333D01*
X167328435Y-52822047D01*
X167242720Y-52822047D01*
X167071292Y-52736333D01*
X166985577Y-52564905D01*
X166985577Y-52136333D01*
X167157006Y-51879190D01*
X167414149Y-51707762D01*
X167757006Y-51622047D01*
X168099863Y-51707762D01*
X168357006Y-51879190D01*
X168528435Y-52136333D01*
X168614149Y-52479190D01*
X168528435Y-52822047D01*
X168357006Y-53079190D01*
X168099863Y-53250619D01*
X167757006Y-53336333D01*
X167414149Y-53250619D01*
X167157006Y-53079190D01*
X166214149Y-51879190D02*
X166214149Y-53422047D01*
X166299863Y-53593476D01*
X166471292Y-53679190D01*
X166557006Y-53679190D01*
X166214149Y-51279190D02*
X166299863Y-51364905D01*
X166214149Y-51450619D01*
X166128435Y-51364905D01*
X166214149Y-51279190D01*
X166214149Y-51450619D01*
X165357006Y-51879190D02*
X165357006Y-53679190D01*
X165357006Y-51964905D02*
X165185577Y-51879190D01*
X164842720Y-51879190D01*
X164671292Y-51964905D01*
X164585577Y-52050619D01*
X164499863Y-52222047D01*
X164499863Y-52736333D01*
X164585577Y-52907762D01*
X164671292Y-52993476D01*
X164842720Y-53079190D01*
X165185577Y-53079190D01*
X165357006Y-52993476D01*
X163814149Y-52993476D02*
X163642720Y-53079190D01*
X163299863Y-53079190D01*
X163128435Y-52993476D01*
X163042720Y-52822047D01*
X163042720Y-52736333D01*
X163128435Y-52564905D01*
X163299863Y-52479190D01*
X163557006Y-52479190D01*
X163728435Y-52393476D01*
X163814149Y-52222047D01*
X163814149Y-52136333D01*
X163728435Y-51964905D01*
X163557006Y-51879190D01*
X163299863Y-51879190D01*
X163128435Y-51964905D01*
X162271292Y-53079190D02*
X162271292Y-51279190D01*
X162099863Y-52393476D02*
X161585577Y-53079190D01*
X161585577Y-51879190D02*
X162271292Y-52564905D01*
X160128435Y-52993476D02*
X160299863Y-53079190D01*
X160642720Y-53079190D01*
X160814149Y-52993476D01*
X160899863Y-52822047D01*
X160899863Y-52136333D01*
X160814149Y-51964905D01*
X160642720Y-51879190D01*
X160299863Y-51879190D01*
X160128435Y-51964905D01*
X160042720Y-52136333D01*
X160042720Y-52307762D01*
X160899863Y-52479190D01*
X159271292Y-51879190D02*
X159271292Y-53079190D01*
X159271292Y-52050619D02*
X159185577Y-51964905D01*
X159014149Y-51879190D01*
X158757006Y-51879190D01*
X158585577Y-51964905D01*
X158499863Y-52136333D01*
X158499863Y-53079190D01*
X157642720Y-51879190D02*
X157642720Y-53079190D01*
X157642720Y-52050619D02*
X157557006Y-51964905D01*
X157385577Y-51879190D01*
X157128435Y-51879190D01*
X156957006Y-51964905D01*
X156871292Y-52136333D01*
X156871292Y-53079190D01*
D10*
X87804565Y-30887184D02*
X86804565Y-30887184D01*
X86804565Y-31125280D01*
X86852185Y-31268137D01*
X86947423Y-31363375D01*
X87042661Y-31410994D01*
X87233137Y-31458613D01*
X87375994Y-31458613D01*
X87566470Y-31410994D01*
X87661708Y-31363375D01*
X87756946Y-31268137D01*
X87804565Y-31125280D01*
X87804565Y-30887184D01*
X87137899Y-32315756D02*
X87804565Y-32315756D01*
X86756946Y-32077660D02*
X87471232Y-31839565D01*
X87471232Y-32458613D01*
X264374208Y-18980851D02*
X264040875Y-18980851D01*
X263898018Y-19504660D02*
X264374208Y-19504660D01*
X264374208Y-18504660D01*
X263898018Y-18504660D01*
X263564685Y-18504660D02*
X262898018Y-19504660D01*
X262898018Y-18504660D02*
X263564685Y-19504660D01*
X262659923Y-18504660D02*
X262088494Y-18504660D01*
X262374208Y-19504660D02*
X262374208Y-18504660D01*
X261993256Y-19599899D02*
X261231351Y-19599899D01*
X261136113Y-18504660D02*
X260564685Y-18504660D01*
X260850399Y-19504660D02*
X260850399Y-18504660D01*
X259659923Y-19409422D02*
X259707542Y-19457041D01*
X259850399Y-19504660D01*
X259945637Y-19504660D01*
X260088494Y-19457041D01*
X260183732Y-19361803D01*
X260231351Y-19266565D01*
X260278970Y-19076089D01*
X260278970Y-18933232D01*
X260231351Y-18742756D01*
X260183732Y-18647518D01*
X260088494Y-18552280D01*
X259945637Y-18504660D01*
X259850399Y-18504660D01*
X259707542Y-18552280D01*
X259659923Y-18599899D01*
X258802780Y-18504660D02*
X258993256Y-18504660D01*
X259088494Y-18552280D01*
X259136113Y-18599899D01*
X259231351Y-18742756D01*
X259278970Y-18933232D01*
X259278970Y-19314184D01*
X259231351Y-19409422D01*
X259183732Y-19457041D01*
X259088494Y-19504660D01*
X258898018Y-19504660D01*
X258802780Y-19457041D01*
X258755161Y-19409422D01*
X258707542Y-19314184D01*
X258707542Y-19076089D01*
X258755161Y-18980851D01*
X258802780Y-18933232D01*
X258898018Y-18885613D01*
X259088494Y-18885613D01*
X259183732Y-18933232D01*
X259231351Y-18980851D01*
X259278970Y-19076089D01*
X297354565Y-29360994D02*
X296354565Y-29360994D01*
X296354565Y-29599089D01*
X296402185Y-29741946D01*
X296497423Y-29837184D01*
X296592661Y-29884803D01*
X296783137Y-29932422D01*
X296925994Y-29932422D01*
X297116470Y-29884803D01*
X297211708Y-29837184D01*
X297306946Y-29741946D01*
X297354565Y-29599089D01*
X297354565Y-29360994D01*
X297354565Y-30884803D02*
X297354565Y-30313375D01*
X297354565Y-30599089D02*
X296354565Y-30599089D01*
X296497423Y-30503851D01*
X296592661Y-30408613D01*
X296640280Y-30313375D01*
X296354565Y-31789565D02*
X296354565Y-31313375D01*
X296830756Y-31265756D01*
X296783137Y-31313375D01*
X296735518Y-31408613D01*
X296735518Y-31646708D01*
X296783137Y-31741946D01*
X296830756Y-31789565D01*
X296925994Y-31837184D01*
X297164089Y-31837184D01*
X297259327Y-31789565D01*
X297306946Y-31741946D01*
X297354565Y-31646708D01*
X297354565Y-31408613D01*
X297306946Y-31313375D01*
X297259327Y-31265756D01*
X240204565Y-30414994D02*
X239204565Y-30414994D01*
X239204565Y-30653089D01*
X239252185Y-30795946D01*
X239347423Y-30891184D01*
X239442661Y-30938803D01*
X239633137Y-30986422D01*
X239775994Y-30986422D01*
X239966470Y-30938803D01*
X240061708Y-30891184D01*
X240156946Y-30795946D01*
X240204565Y-30653089D01*
X240204565Y-30414994D01*
X240204565Y-31938803D02*
X240204565Y-31367375D01*
X240204565Y-31653089D02*
X239204565Y-31653089D01*
X239347423Y-31557851D01*
X239442661Y-31462613D01*
X239490280Y-31367375D01*
X239299804Y-32319756D02*
X239252185Y-32367375D01*
X239204565Y-32462613D01*
X239204565Y-32700708D01*
X239252185Y-32795946D01*
X239299804Y-32843565D01*
X239395042Y-32891184D01*
X239490280Y-32891184D01*
X239633137Y-32843565D01*
X240204565Y-32272137D01*
X240204565Y-32891184D01*
X68754565Y-29837184D02*
X67754565Y-29837184D01*
X67754565Y-30075280D01*
X67802185Y-30218137D01*
X67897423Y-30313375D01*
X67992661Y-30360994D01*
X68183137Y-30408613D01*
X68325994Y-30408613D01*
X68516470Y-30360994D01*
X68611708Y-30313375D01*
X68706946Y-30218137D01*
X68754565Y-30075280D01*
X68754565Y-29837184D01*
X67754565Y-30741946D02*
X67754565Y-31360994D01*
X68135518Y-31027660D01*
X68135518Y-31170518D01*
X68183137Y-31265756D01*
X68230756Y-31313375D01*
X68325994Y-31360994D01*
X68564089Y-31360994D01*
X68659327Y-31313375D01*
X68706946Y-31265756D01*
X68754565Y-31170518D01*
X68754565Y-30884803D01*
X68706946Y-30789565D01*
X68659327Y-30741946D01*
X125904565Y-30891184D02*
X124904565Y-30891184D01*
X124904565Y-31129280D01*
X124952185Y-31272137D01*
X125047423Y-31367375D01*
X125142661Y-31414994D01*
X125333137Y-31462613D01*
X125475994Y-31462613D01*
X125666470Y-31414994D01*
X125761708Y-31367375D01*
X125856946Y-31272137D01*
X125904565Y-31129280D01*
X125904565Y-30891184D01*
X124904565Y-32319756D02*
X124904565Y-32129280D01*
X124952185Y-32034041D01*
X124999804Y-31986422D01*
X125142661Y-31891184D01*
X125333137Y-31843565D01*
X125714089Y-31843565D01*
X125809327Y-31891184D01*
X125856946Y-31938803D01*
X125904565Y-32034041D01*
X125904565Y-32224518D01*
X125856946Y-32319756D01*
X125809327Y-32367375D01*
X125714089Y-32414994D01*
X125475994Y-32414994D01*
X125380756Y-32367375D01*
X125333137Y-32319756D01*
X125285518Y-32224518D01*
X125285518Y-32034041D01*
X125333137Y-31938803D01*
X125380756Y-31891184D01*
X125475994Y-31843565D01*
X106854565Y-29837184D02*
X105854565Y-29837184D01*
X105854565Y-30075280D01*
X105902185Y-30218137D01*
X105997423Y-30313375D01*
X106092661Y-30360994D01*
X106283137Y-30408613D01*
X106425994Y-30408613D01*
X106616470Y-30360994D01*
X106711708Y-30313375D01*
X106806946Y-30218137D01*
X106854565Y-30075280D01*
X106854565Y-29837184D01*
X105854565Y-31313375D02*
X105854565Y-30837184D01*
X106330756Y-30789565D01*
X106283137Y-30837184D01*
X106235518Y-30932422D01*
X106235518Y-31170518D01*
X106283137Y-31265756D01*
X106330756Y-31313375D01*
X106425994Y-31360994D01*
X106664089Y-31360994D01*
X106759327Y-31313375D01*
X106806946Y-31265756D01*
X106854565Y-31170518D01*
X106854565Y-30932422D01*
X106806946Y-30837184D01*
X106759327Y-30789565D01*
X144954565Y-29737184D02*
X143954565Y-29737184D01*
X143954565Y-29975280D01*
X144002185Y-30118137D01*
X144097423Y-30213375D01*
X144192661Y-30260994D01*
X144383137Y-30308613D01*
X144525994Y-30308613D01*
X144716470Y-30260994D01*
X144811708Y-30213375D01*
X144906946Y-30118137D01*
X144954565Y-29975280D01*
X144954565Y-29737184D01*
X144383137Y-30880041D02*
X144335518Y-30784803D01*
X144287899Y-30737184D01*
X144192661Y-30689565D01*
X144145042Y-30689565D01*
X144049804Y-30737184D01*
X144002185Y-30784803D01*
X143954565Y-30880041D01*
X143954565Y-31070518D01*
X144002185Y-31165756D01*
X144049804Y-31213375D01*
X144145042Y-31260994D01*
X144192661Y-31260994D01*
X144287899Y-31213375D01*
X144335518Y-31165756D01*
X144383137Y-31070518D01*
X144383137Y-30880041D01*
X144430756Y-30784803D01*
X144478375Y-30737184D01*
X144573613Y-30689565D01*
X144764089Y-30689565D01*
X144859327Y-30737184D01*
X144906946Y-30784803D01*
X144954565Y-30880041D01*
X144954565Y-31070518D01*
X144906946Y-31165756D01*
X144859327Y-31213375D01*
X144764089Y-31260994D01*
X144573613Y-31260994D01*
X144478375Y-31213375D01*
X144430756Y-31165756D01*
X144383137Y-31070518D01*
X259254565Y-29360994D02*
X258254565Y-29360994D01*
X258254565Y-29599089D01*
X258302185Y-29741946D01*
X258397423Y-29837184D01*
X258492661Y-29884803D01*
X258683137Y-29932422D01*
X258825994Y-29932422D01*
X259016470Y-29884803D01*
X259111708Y-29837184D01*
X259206946Y-29741946D01*
X259254565Y-29599089D01*
X259254565Y-29360994D01*
X259254565Y-30884803D02*
X259254565Y-30313375D01*
X259254565Y-30599089D02*
X258254565Y-30599089D01*
X258397423Y-30503851D01*
X258492661Y-30408613D01*
X258540280Y-30313375D01*
X258254565Y-31218137D02*
X258254565Y-31837184D01*
X258635518Y-31503851D01*
X258635518Y-31646708D01*
X258683137Y-31741946D01*
X258730756Y-31789565D01*
X258825994Y-31837184D01*
X259064089Y-31837184D01*
X259159327Y-31789565D01*
X259206946Y-31741946D01*
X259254565Y-31646708D01*
X259254565Y-31360994D01*
X259206946Y-31265756D01*
X259159327Y-31218137D01*
X138192065Y-40902119D02*
X137192065Y-40902119D01*
X137192065Y-41140214D01*
X137239685Y-41283071D01*
X137334923Y-41378309D01*
X137430161Y-41425928D01*
X137620637Y-41473547D01*
X137763494Y-41473547D01*
X137953970Y-41425928D01*
X138049208Y-41378309D01*
X138144446Y-41283071D01*
X138192065Y-41140214D01*
X138192065Y-40902119D01*
X138192065Y-42425928D02*
X138192065Y-41854500D01*
X138192065Y-42140214D02*
X137192065Y-42140214D01*
X137334923Y-42044976D01*
X137430161Y-41949738D01*
X137477780Y-41854500D01*
X137192065Y-43283071D02*
X137192065Y-43092595D01*
X137239685Y-42997357D01*
X137287304Y-42949738D01*
X137430161Y-42854500D01*
X137620637Y-42806881D01*
X138001589Y-42806881D01*
X138096827Y-42854500D01*
X138144446Y-42902119D01*
X138192065Y-42997357D01*
X138192065Y-43187833D01*
X138144446Y-43283071D01*
X138096827Y-43330690D01*
X138001589Y-43378309D01*
X137763494Y-43378309D01*
X137668256Y-43330690D01*
X137620637Y-43283071D01*
X137573018Y-43187833D01*
X137573018Y-42997357D01*
X137620637Y-42902119D01*
X137668256Y-42854500D01*
X137763494Y-42806881D01*
X183054565Y-29837184D02*
X182054565Y-29837184D01*
X182054565Y-30075280D01*
X182102185Y-30218137D01*
X182197423Y-30313375D01*
X182292661Y-30360994D01*
X182483137Y-30408613D01*
X182625994Y-30408613D01*
X182816470Y-30360994D01*
X182911708Y-30313375D01*
X183006946Y-30218137D01*
X183054565Y-30075280D01*
X183054565Y-29837184D01*
X182054565Y-30741946D02*
X182054565Y-31408613D01*
X183054565Y-30980041D01*
X49704565Y-30887184D02*
X48704565Y-30887184D01*
X48704565Y-31125280D01*
X48752185Y-31268137D01*
X48847423Y-31363375D01*
X48942661Y-31410994D01*
X49133137Y-31458613D01*
X49275994Y-31458613D01*
X49466470Y-31410994D01*
X49561708Y-31363375D01*
X49656946Y-31268137D01*
X49704565Y-31125280D01*
X49704565Y-30887184D01*
X48799804Y-31839565D02*
X48752185Y-31887184D01*
X48704565Y-31982422D01*
X48704565Y-32220518D01*
X48752185Y-32315756D01*
X48799804Y-32363375D01*
X48895042Y-32410994D01*
X48990280Y-32410994D01*
X49133137Y-32363375D01*
X49704565Y-31791946D01*
X49704565Y-32410994D01*
X278304565Y-30410994D02*
X277304565Y-30410994D01*
X277304565Y-30649089D01*
X277352185Y-30791946D01*
X277447423Y-30887184D01*
X277542661Y-30934803D01*
X277733137Y-30982422D01*
X277875994Y-30982422D01*
X278066470Y-30934803D01*
X278161708Y-30887184D01*
X278256946Y-30791946D01*
X278304565Y-30649089D01*
X278304565Y-30410994D01*
X278304565Y-31934803D02*
X278304565Y-31363375D01*
X278304565Y-31649089D02*
X277304565Y-31649089D01*
X277447423Y-31553851D01*
X277542661Y-31458613D01*
X277590280Y-31363375D01*
X277637899Y-32791946D02*
X278304565Y-32791946D01*
X277256946Y-32553851D02*
X277971232Y-32315756D01*
X277971232Y-32934803D01*
X178673315Y-39632119D02*
X177673315Y-39632119D01*
X177673315Y-39870214D01*
X177720935Y-40013071D01*
X177816173Y-40108309D01*
X177911411Y-40155928D01*
X178101887Y-40203547D01*
X178244744Y-40203547D01*
X178435220Y-40155928D01*
X178530458Y-40108309D01*
X178625696Y-40013071D01*
X178673315Y-39870214D01*
X178673315Y-39632119D01*
X178673315Y-41155928D02*
X178673315Y-40584500D01*
X178673315Y-40870214D02*
X177673315Y-40870214D01*
X177816173Y-40774976D01*
X177911411Y-40679738D01*
X177959030Y-40584500D01*
X178673315Y-41632119D02*
X178673315Y-41822595D01*
X178625696Y-41917833D01*
X178578077Y-41965452D01*
X178435220Y-42060690D01*
X178244744Y-42108309D01*
X177863792Y-42108309D01*
X177768554Y-42060690D01*
X177720935Y-42013071D01*
X177673315Y-41917833D01*
X177673315Y-41727357D01*
X177720935Y-41632119D01*
X177768554Y-41584500D01*
X177863792Y-41536881D01*
X178101887Y-41536881D01*
X178197125Y-41584500D01*
X178244744Y-41632119D01*
X178292363Y-41727357D01*
X178292363Y-41917833D01*
X178244744Y-42013071D01*
X178197125Y-42060690D01*
X178101887Y-42108309D01*
X140573315Y-39632119D02*
X139573315Y-39632119D01*
X139573315Y-39870214D01*
X139620935Y-40013071D01*
X139716173Y-40108309D01*
X139811411Y-40155928D01*
X140001887Y-40203547D01*
X140144744Y-40203547D01*
X140335220Y-40155928D01*
X140430458Y-40108309D01*
X140525696Y-40013071D01*
X140573315Y-39870214D01*
X140573315Y-39632119D01*
X140573315Y-41155928D02*
X140573315Y-40584500D01*
X140573315Y-40870214D02*
X139573315Y-40870214D01*
X139716173Y-40774976D01*
X139811411Y-40679738D01*
X139859030Y-40584500D01*
X139573315Y-41489262D02*
X139573315Y-42155928D01*
X140573315Y-41727357D01*
X167838643Y-26047660D02*
X167838643Y-26761946D01*
X167886262Y-26904803D01*
X167981500Y-27000041D01*
X168124357Y-27047660D01*
X168219595Y-27047660D01*
X166838643Y-27047660D02*
X167410071Y-27047660D01*
X167124357Y-27047660D02*
X167124357Y-26047660D01*
X167219595Y-26190518D01*
X167314833Y-26285756D01*
X167410071Y-26333375D01*
X42917958Y-32885101D02*
X42584625Y-32885101D01*
X42441768Y-33408910D02*
X42917958Y-33408910D01*
X42917958Y-32408910D01*
X42441768Y-32408910D01*
X42108435Y-32408910D02*
X41441768Y-33408910D01*
X41441768Y-32408910D02*
X42108435Y-33408910D01*
X41203673Y-32408910D02*
X40632244Y-32408910D01*
X40917958Y-33408910D02*
X40917958Y-32408910D01*
X40537006Y-33504149D02*
X39775101Y-33504149D01*
X39679863Y-32408910D02*
X39108435Y-32408910D01*
X39394149Y-33408910D02*
X39394149Y-32408910D01*
X38203673Y-33408910D02*
X38537006Y-32932720D01*
X38775101Y-33408910D02*
X38775101Y-32408910D01*
X38394149Y-32408910D01*
X38298911Y-32456530D01*
X38251292Y-32504149D01*
X38203673Y-32599387D01*
X38203673Y-32742244D01*
X38251292Y-32837482D01*
X38298911Y-32885101D01*
X38394149Y-32932720D01*
X38775101Y-32932720D01*
X37584625Y-32408910D02*
X37489387Y-32408910D01*
X37394149Y-32456530D01*
X37346530Y-32504149D01*
X37298911Y-32599387D01*
X37251292Y-32789863D01*
X37251292Y-33027958D01*
X37298911Y-33218434D01*
X37346530Y-33313672D01*
X37394149Y-33361291D01*
X37489387Y-33408910D01*
X37584625Y-33408910D01*
X37679863Y-33361291D01*
X37727482Y-33313672D01*
X37775101Y-33218434D01*
X37822720Y-33027958D01*
X37822720Y-32789863D01*
X37775101Y-32599387D01*
X37727482Y-32504149D01*
X37679863Y-32456530D01*
X37584625Y-32408910D01*
X38155458Y-18980851D02*
X37822125Y-18980851D01*
X37679268Y-19504660D02*
X38155458Y-19504660D01*
X38155458Y-18504660D01*
X37679268Y-18504660D01*
X37345935Y-18504660D02*
X36679268Y-19504660D01*
X36679268Y-18504660D02*
X37345935Y-19504660D01*
X36441173Y-18504660D02*
X35869744Y-18504660D01*
X36155458Y-19504660D02*
X36155458Y-18504660D01*
X35774506Y-19599899D02*
X35012601Y-19599899D01*
X34917363Y-18504660D02*
X34345935Y-18504660D01*
X34631649Y-19504660D02*
X34631649Y-18504660D01*
X33441173Y-19409422D02*
X33488792Y-19457041D01*
X33631649Y-19504660D01*
X33726887Y-19504660D01*
X33869744Y-19457041D01*
X33964982Y-19361803D01*
X34012601Y-19266565D01*
X34060220Y-19076089D01*
X34060220Y-18933232D01*
X34012601Y-18742756D01*
X33964982Y-18647518D01*
X33869744Y-18552280D01*
X33726887Y-18504660D01*
X33631649Y-18504660D01*
X33488792Y-18552280D01*
X33441173Y-18599899D01*
X32822125Y-18504660D02*
X32726887Y-18504660D01*
X32631649Y-18552280D01*
X32584030Y-18599899D01*
X32536411Y-18695137D01*
X32488792Y-18885613D01*
X32488792Y-19123708D01*
X32536411Y-19314184D01*
X32584030Y-19409422D01*
X32631649Y-19457041D01*
X32726887Y-19504660D01*
X32822125Y-19504660D01*
X32917363Y-19457041D01*
X32964982Y-19409422D01*
X33012601Y-19314184D01*
X33060220Y-19123708D01*
X33060220Y-18885613D01*
X33012601Y-18695137D01*
X32964982Y-18599899D01*
X32917363Y-18552280D01*
X32822125Y-18504660D01*
X152455458Y-18980851D02*
X152122125Y-18980851D01*
X151979268Y-19504660D02*
X152455458Y-19504660D01*
X152455458Y-18504660D01*
X151979268Y-18504660D01*
X151645935Y-18504660D02*
X150979268Y-19504660D01*
X150979268Y-18504660D02*
X151645935Y-19504660D01*
X150741173Y-18504660D02*
X150169744Y-18504660D01*
X150455458Y-19504660D02*
X150455458Y-18504660D01*
X150074506Y-19599899D02*
X149312601Y-19599899D01*
X149217363Y-18504660D02*
X148645935Y-18504660D01*
X148931649Y-19504660D02*
X148931649Y-18504660D01*
X147741173Y-19409422D02*
X147788792Y-19457041D01*
X147931649Y-19504660D01*
X148026887Y-19504660D01*
X148169744Y-19457041D01*
X148264982Y-19361803D01*
X148312601Y-19266565D01*
X148360220Y-19076089D01*
X148360220Y-18933232D01*
X148312601Y-18742756D01*
X148264982Y-18647518D01*
X148169744Y-18552280D01*
X148026887Y-18504660D01*
X147931649Y-18504660D01*
X147788792Y-18552280D01*
X147741173Y-18599899D01*
X147407839Y-18504660D02*
X146788792Y-18504660D01*
X147122125Y-18885613D01*
X146979268Y-18885613D01*
X146884030Y-18933232D01*
X146836411Y-18980851D01*
X146788792Y-19076089D01*
X146788792Y-19314184D01*
X146836411Y-19409422D01*
X146884030Y-19457041D01*
X146979268Y-19504660D01*
X147264982Y-19504660D01*
X147360220Y-19457041D01*
X147407839Y-19409422D01*
X76255458Y-18990226D02*
X75922125Y-18990226D01*
X75779268Y-19514035D02*
X76255458Y-19514035D01*
X76255458Y-18514035D01*
X75779268Y-18514035D01*
X75445935Y-18514035D02*
X74779268Y-19514035D01*
X74779268Y-18514035D02*
X75445935Y-19514035D01*
X74541173Y-18514035D02*
X73969744Y-18514035D01*
X74255458Y-19514035D02*
X74255458Y-18514035D01*
X73874506Y-19609274D02*
X73112601Y-19609274D01*
X73017363Y-18514035D02*
X72445935Y-18514035D01*
X72731649Y-19514035D02*
X72731649Y-18514035D01*
X71541173Y-19418797D02*
X71588792Y-19466416D01*
X71731649Y-19514035D01*
X71826887Y-19514035D01*
X71969744Y-19466416D01*
X72064982Y-19371178D01*
X72112601Y-19275940D01*
X72160220Y-19085464D01*
X72160220Y-18942607D01*
X72112601Y-18752131D01*
X72064982Y-18656893D01*
X71969744Y-18561655D01*
X71826887Y-18514035D01*
X71731649Y-18514035D01*
X71588792Y-18561655D01*
X71541173Y-18609274D01*
X70588792Y-19514035D02*
X71160220Y-19514035D01*
X70874506Y-19514035D02*
X70874506Y-18514035D01*
X70969744Y-18656893D01*
X71064982Y-18752131D01*
X71160220Y-18799750D01*
X169124208Y-18933976D02*
X168790875Y-18933976D01*
X168648018Y-19457785D02*
X169124208Y-19457785D01*
X169124208Y-18457785D01*
X168648018Y-18457785D01*
X168314685Y-18457785D02*
X167648018Y-19457785D01*
X167648018Y-18457785D02*
X168314685Y-19457785D01*
X167409923Y-18457785D02*
X166838494Y-18457785D01*
X167124208Y-19457785D02*
X167124208Y-18457785D01*
X166743256Y-19553024D02*
X165981351Y-19553024D01*
X165886113Y-18457785D02*
X165314685Y-18457785D01*
X165600399Y-19457785D02*
X165600399Y-18457785D01*
X164409923Y-19362547D02*
X164457542Y-19410166D01*
X164600399Y-19457785D01*
X164695637Y-19457785D01*
X164838494Y-19410166D01*
X164933732Y-19314928D01*
X164981351Y-19219690D01*
X165028970Y-19029214D01*
X165028970Y-18886357D01*
X164981351Y-18695881D01*
X164933732Y-18600643D01*
X164838494Y-18505405D01*
X164695637Y-18457785D01*
X164600399Y-18457785D01*
X164457542Y-18505405D01*
X164409923Y-18553024D01*
X163552780Y-18791119D02*
X163552780Y-19457785D01*
X163790875Y-18410166D02*
X164028970Y-19124452D01*
X163409923Y-19124452D01*
X154566833Y-38742976D02*
X154233500Y-38742976D01*
X154090643Y-39266785D02*
X154566833Y-39266785D01*
X154566833Y-38266785D01*
X154090643Y-38266785D01*
X153757310Y-38266785D02*
X153090643Y-39266785D01*
X153090643Y-38266785D02*
X153757310Y-39266785D01*
X152852548Y-38266785D02*
X152281119Y-38266785D01*
X152566833Y-39266785D02*
X152566833Y-38266785D01*
X152185881Y-39362024D02*
X151423976Y-39362024D01*
X151328738Y-38266785D02*
X150757310Y-38266785D01*
X151043024Y-39266785D02*
X151043024Y-38266785D01*
X149852548Y-39266785D02*
X150185881Y-38790595D01*
X150423976Y-39266785D02*
X150423976Y-38266785D01*
X150043024Y-38266785D01*
X149947786Y-38314405D01*
X149900167Y-38362024D01*
X149852548Y-38457262D01*
X149852548Y-38600119D01*
X149900167Y-38695357D01*
X149947786Y-38742976D01*
X150043024Y-38790595D01*
X150423976Y-38790595D01*
X148900167Y-39266785D02*
X149471595Y-39266785D01*
X149185881Y-39266785D02*
X149185881Y-38266785D01*
X149281119Y-38409643D01*
X149376357Y-38504881D01*
X149471595Y-38552500D01*
X221154565Y-29360994D02*
X220154565Y-29360994D01*
X220154565Y-29599089D01*
X220202185Y-29741946D01*
X220297423Y-29837184D01*
X220392661Y-29884803D01*
X220583137Y-29932422D01*
X220725994Y-29932422D01*
X220916470Y-29884803D01*
X221011708Y-29837184D01*
X221106946Y-29741946D01*
X221154565Y-29599089D01*
X221154565Y-29360994D01*
X221154565Y-30884803D02*
X221154565Y-30313375D01*
X221154565Y-30599089D02*
X220154565Y-30599089D01*
X220297423Y-30503851D01*
X220392661Y-30408613D01*
X220440280Y-30313375D01*
X221154565Y-31837184D02*
X221154565Y-31265756D01*
X221154565Y-31551470D02*
X220154565Y-31551470D01*
X220297423Y-31456232D01*
X220392661Y-31360994D01*
X220440280Y-31265756D01*
X226274208Y-18980851D02*
X225940875Y-18980851D01*
X225798018Y-19504660D02*
X226274208Y-19504660D01*
X226274208Y-18504660D01*
X225798018Y-18504660D01*
X225464685Y-18504660D02*
X224798018Y-19504660D01*
X224798018Y-18504660D02*
X225464685Y-19504660D01*
X224559923Y-18504660D02*
X223988494Y-18504660D01*
X224274208Y-19504660D02*
X224274208Y-18504660D01*
X223893256Y-19599899D02*
X223131351Y-19599899D01*
X223036113Y-18504660D02*
X222464685Y-18504660D01*
X222750399Y-19504660D02*
X222750399Y-18504660D01*
X221559923Y-19409422D02*
X221607542Y-19457041D01*
X221750399Y-19504660D01*
X221845637Y-19504660D01*
X221988494Y-19457041D01*
X222083732Y-19361803D01*
X222131351Y-19266565D01*
X222178970Y-19076089D01*
X222178970Y-18933232D01*
X222131351Y-18742756D01*
X222083732Y-18647518D01*
X221988494Y-18552280D01*
X221845637Y-18504660D01*
X221750399Y-18504660D01*
X221607542Y-18552280D01*
X221559923Y-18599899D01*
X220655161Y-18504660D02*
X221131351Y-18504660D01*
X221178970Y-18980851D01*
X221131351Y-18933232D01*
X221036113Y-18885613D01*
X220798018Y-18885613D01*
X220702780Y-18933232D01*
X220655161Y-18980851D01*
X220607542Y-19076089D01*
X220607542Y-19314184D01*
X220655161Y-19409422D01*
X220702780Y-19457041D01*
X220798018Y-19504660D01*
X221036113Y-19504660D01*
X221131351Y-19457041D01*
X221178970Y-19409422D01*
X164004565Y-29837184D02*
X163004565Y-29837184D01*
X163004565Y-30075280D01*
X163052185Y-30218137D01*
X163147423Y-30313375D01*
X163242661Y-30360994D01*
X163433137Y-30408613D01*
X163575994Y-30408613D01*
X163766470Y-30360994D01*
X163861708Y-30313375D01*
X163956946Y-30218137D01*
X164004565Y-30075280D01*
X164004565Y-29837184D01*
X164004565Y-30884803D02*
X164004565Y-31075280D01*
X163956946Y-31170518D01*
X163909327Y-31218137D01*
X163766470Y-31313375D01*
X163575994Y-31360994D01*
X163195042Y-31360994D01*
X163099804Y-31313375D01*
X163052185Y-31265756D01*
X163004565Y-31170518D01*
X163004565Y-30980041D01*
X163052185Y-30884803D01*
X163099804Y-30837184D01*
X163195042Y-30789565D01*
X163433137Y-30789565D01*
X163528375Y-30837184D01*
X163575994Y-30884803D01*
X163623613Y-30980041D01*
X163623613Y-31170518D01*
X163575994Y-31265756D01*
X163528375Y-31313375D01*
X163433137Y-31360994D01*
X202104565Y-30414994D02*
X201104565Y-30414994D01*
X201104565Y-30653089D01*
X201152185Y-30795946D01*
X201247423Y-30891184D01*
X201342661Y-30938803D01*
X201533137Y-30986422D01*
X201675994Y-30986422D01*
X201866470Y-30938803D01*
X201961708Y-30891184D01*
X202056946Y-30795946D01*
X202104565Y-30653089D01*
X202104565Y-30414994D01*
X202104565Y-31938803D02*
X202104565Y-31367375D01*
X202104565Y-31653089D02*
X201104565Y-31653089D01*
X201247423Y-31557851D01*
X201342661Y-31462613D01*
X201390280Y-31367375D01*
X201104565Y-32557851D02*
X201104565Y-32653089D01*
X201152185Y-32748327D01*
X201199804Y-32795946D01*
X201295042Y-32843565D01*
X201485518Y-32891184D01*
X201723613Y-32891184D01*
X201914089Y-32843565D01*
X202009327Y-32795946D01*
X202056946Y-32748327D01*
X202104565Y-32653089D01*
X202104565Y-32557851D01*
X202056946Y-32462613D01*
X202009327Y-32414994D01*
X201914089Y-32367375D01*
X201723613Y-32319756D01*
X201485518Y-32319756D01*
X201295042Y-32367375D01*
X201199804Y-32414994D01*
X201152185Y-32462613D01*
X201104565Y-32557851D01*
X127258940Y-35004446D02*
X127973226Y-35004446D01*
X128116083Y-34956827D01*
X128211321Y-34861589D01*
X128258940Y-34718732D01*
X128258940Y-34623494D01*
X127354179Y-35433018D02*
X127306560Y-35480637D01*
X127258940Y-35575875D01*
X127258940Y-35813970D01*
X127306560Y-35909208D01*
X127354179Y-35956827D01*
X127449417Y-36004446D01*
X127544655Y-36004446D01*
X127687512Y-35956827D01*
X128258940Y-35385399D01*
X128258940Y-36004446D01*
X283424208Y-18980851D02*
X283090875Y-18980851D01*
X282948018Y-19504660D02*
X283424208Y-19504660D01*
X283424208Y-18504660D01*
X282948018Y-18504660D01*
X282614685Y-18504660D02*
X281948018Y-19504660D01*
X281948018Y-18504660D02*
X282614685Y-19504660D01*
X281709923Y-18504660D02*
X281138494Y-18504660D01*
X281424208Y-19504660D02*
X281424208Y-18504660D01*
X281043256Y-19599899D02*
X280281351Y-19599899D01*
X280186113Y-18504660D02*
X279614685Y-18504660D01*
X279900399Y-19504660D02*
X279900399Y-18504660D01*
X278709923Y-19409422D02*
X278757542Y-19457041D01*
X278900399Y-19504660D01*
X278995637Y-19504660D01*
X279138494Y-19457041D01*
X279233732Y-19361803D01*
X279281351Y-19266565D01*
X279328970Y-19076089D01*
X279328970Y-18933232D01*
X279281351Y-18742756D01*
X279233732Y-18647518D01*
X279138494Y-18552280D01*
X278995637Y-18504660D01*
X278900399Y-18504660D01*
X278757542Y-18552280D01*
X278709923Y-18599899D01*
X278376589Y-18504660D02*
X277709923Y-18504660D01*
X278138494Y-19504660D01*
X95305458Y-18980851D02*
X94972125Y-18980851D01*
X94829268Y-19504660D02*
X95305458Y-19504660D01*
X95305458Y-18504660D01*
X94829268Y-18504660D01*
X94495935Y-18504660D02*
X93829268Y-19504660D01*
X93829268Y-18504660D02*
X94495935Y-19504660D01*
X93591173Y-18504660D02*
X93019744Y-18504660D01*
X93305458Y-19504660D02*
X93305458Y-18504660D01*
X92924506Y-19599899D02*
X92162601Y-19599899D01*
X92067363Y-18504660D02*
X91495935Y-18504660D01*
X91781649Y-19504660D02*
X91781649Y-18504660D01*
X90591173Y-19409422D02*
X90638792Y-19457041D01*
X90781649Y-19504660D01*
X90876887Y-19504660D01*
X91019744Y-19457041D01*
X91114982Y-19361803D01*
X91162601Y-19266565D01*
X91210220Y-19076089D01*
X91210220Y-18933232D01*
X91162601Y-18742756D01*
X91114982Y-18647518D01*
X91019744Y-18552280D01*
X90876887Y-18504660D01*
X90781649Y-18504660D01*
X90638792Y-18552280D01*
X90591173Y-18599899D01*
X90210220Y-18599899D02*
X90162601Y-18552280D01*
X90067363Y-18504660D01*
X89829268Y-18504660D01*
X89734030Y-18552280D01*
X89686411Y-18599899D01*
X89638792Y-18695137D01*
X89638792Y-18790375D01*
X89686411Y-18933232D01*
X90257839Y-19504660D01*
X89638792Y-19504660D01*
X146692833Y-38742976D02*
X146359500Y-38742976D01*
X146216643Y-39266785D02*
X146692833Y-39266785D01*
X146692833Y-38266785D01*
X146216643Y-38266785D01*
X145883310Y-38266785D02*
X145216643Y-39266785D01*
X145216643Y-38266785D02*
X145883310Y-39266785D01*
X144978548Y-38266785D02*
X144407119Y-38266785D01*
X144692833Y-39266785D02*
X144692833Y-38266785D01*
X144311881Y-39362024D02*
X143549976Y-39362024D01*
X143454738Y-38266785D02*
X142883310Y-38266785D01*
X143169024Y-39266785D02*
X143169024Y-38266785D01*
X141978548Y-39266785D02*
X142311881Y-38790595D01*
X142549976Y-39266785D02*
X142549976Y-38266785D01*
X142169024Y-38266785D01*
X142073786Y-38314405D01*
X142026167Y-38362024D01*
X141978548Y-38457262D01*
X141978548Y-38600119D01*
X142026167Y-38695357D01*
X142073786Y-38742976D01*
X142169024Y-38790595D01*
X142549976Y-38790595D01*
X141121405Y-38266785D02*
X141311881Y-38266785D01*
X141407119Y-38314405D01*
X141454738Y-38362024D01*
X141549976Y-38504881D01*
X141597595Y-38695357D01*
X141597595Y-39076309D01*
X141549976Y-39171547D01*
X141502357Y-39219166D01*
X141407119Y-39266785D01*
X141216643Y-39266785D01*
X141121405Y-39219166D01*
X141073786Y-39171547D01*
X141026167Y-39076309D01*
X141026167Y-38838214D01*
X141073786Y-38742976D01*
X141121405Y-38695357D01*
X141216643Y-38647738D01*
X141407119Y-38647738D01*
X141502357Y-38695357D01*
X141549976Y-38742976D01*
X141597595Y-38838214D01*
X57205458Y-18980851D02*
X56872125Y-18980851D01*
X56729268Y-19504660D02*
X57205458Y-19504660D01*
X57205458Y-18504660D01*
X56729268Y-18504660D01*
X56395935Y-18504660D02*
X55729268Y-19504660D01*
X55729268Y-18504660D02*
X56395935Y-19504660D01*
X55491173Y-18504660D02*
X54919744Y-18504660D01*
X55205458Y-19504660D02*
X55205458Y-18504660D01*
X54824506Y-19599899D02*
X54062601Y-19599899D01*
X53967363Y-18504660D02*
X53395935Y-18504660D01*
X53681649Y-19504660D02*
X53681649Y-18504660D01*
X52491173Y-19504660D02*
X52824506Y-19028470D01*
X53062601Y-19504660D02*
X53062601Y-18504660D01*
X52681649Y-18504660D01*
X52586411Y-18552280D01*
X52538792Y-18599899D01*
X52491173Y-18695137D01*
X52491173Y-18837994D01*
X52538792Y-18933232D01*
X52586411Y-18980851D01*
X52681649Y-19028470D01*
X53062601Y-19028470D01*
X51586411Y-18504660D02*
X52062601Y-18504660D01*
X52110220Y-18980851D01*
X52062601Y-18933232D01*
X51967363Y-18885613D01*
X51729268Y-18885613D01*
X51634030Y-18933232D01*
X51586411Y-18980851D01*
X51538792Y-19076089D01*
X51538792Y-19314184D01*
X51586411Y-19409422D01*
X51634030Y-19457041D01*
X51729268Y-19504660D01*
X51967363Y-19504660D01*
X52062601Y-19457041D01*
X52110220Y-19409422D01*
X30654565Y-29837184D02*
X29654565Y-29837184D01*
X29654565Y-30075280D01*
X29702185Y-30218137D01*
X29797423Y-30313375D01*
X29892661Y-30360994D01*
X30083137Y-30408613D01*
X30225994Y-30408613D01*
X30416470Y-30360994D01*
X30511708Y-30313375D01*
X30606946Y-30218137D01*
X30654565Y-30075280D01*
X30654565Y-29837184D01*
X30654565Y-31360994D02*
X30654565Y-30789565D01*
X30654565Y-31075280D02*
X29654565Y-31075280D01*
X29797423Y-30980041D01*
X29892661Y-30884803D01*
X29940280Y-30789565D01*
X176292065Y-40902119D02*
X175292065Y-40902119D01*
X175292065Y-41140214D01*
X175339685Y-41283071D01*
X175434923Y-41378309D01*
X175530161Y-41425928D01*
X175720637Y-41473547D01*
X175863494Y-41473547D01*
X176053970Y-41425928D01*
X176149208Y-41378309D01*
X176244446Y-41283071D01*
X176292065Y-41140214D01*
X176292065Y-40902119D01*
X176292065Y-42425928D02*
X176292065Y-41854500D01*
X176292065Y-42140214D02*
X175292065Y-42140214D01*
X175434923Y-42044976D01*
X175530161Y-41949738D01*
X175577780Y-41854500D01*
X175720637Y-42997357D02*
X175673018Y-42902119D01*
X175625399Y-42854500D01*
X175530161Y-42806881D01*
X175482542Y-42806881D01*
X175387304Y-42854500D01*
X175339685Y-42902119D01*
X175292065Y-42997357D01*
X175292065Y-43187833D01*
X175339685Y-43283071D01*
X175387304Y-43330690D01*
X175482542Y-43378309D01*
X175530161Y-43378309D01*
X175625399Y-43330690D01*
X175673018Y-43283071D01*
X175720637Y-43187833D01*
X175720637Y-42997357D01*
X175768256Y-42902119D01*
X175815875Y-42854500D01*
X175911113Y-42806881D01*
X176101589Y-42806881D01*
X176196827Y-42854500D01*
X176244446Y-42902119D01*
X176292065Y-42997357D01*
X176292065Y-43187833D01*
X176244446Y-43283071D01*
X176196827Y-43330690D01*
X176101589Y-43378309D01*
X175911113Y-43378309D01*
X175815875Y-43330690D01*
X175768256Y-43283071D01*
X175720637Y-43187833D01*
X148788643Y-26047660D02*
X148788643Y-26761946D01*
X148836262Y-26904803D01*
X148931500Y-27000041D01*
X149074357Y-27047660D01*
X149169595Y-27047660D01*
X148407690Y-26047660D02*
X147788643Y-26047660D01*
X148121976Y-26428613D01*
X147979119Y-26428613D01*
X147883881Y-26476232D01*
X147836262Y-26523851D01*
X147788643Y-26619089D01*
X147788643Y-26857184D01*
X147836262Y-26952422D01*
X147883881Y-27000041D01*
X147979119Y-27047660D01*
X148264833Y-27047660D01*
X148360071Y-27000041D01*
X148407690Y-26952422D01*
D14*
X86352185Y-33875280D02*
X86352185Y-29975280D01*
X84352185Y-33875280D02*
X84352185Y-29975280D01*
X86352185Y-33875280D02*
X84352185Y-33875280D01*
X84352185Y-33875280D02*
X84352185Y-34165280D01*
X84352185Y-34165280D02*
X86352185Y-34165280D01*
X86352185Y-34165280D02*
X86352185Y-33875280D01*
G36*
X86352185Y-33875280D02*
G01*
X84352185Y-33875280D01*
X84352185Y-34165280D01*
X86352185Y-34165280D01*
X86352185Y-33875280D01*
G37*
G36*
X85352185Y-32260280D02*
G01*
X84590185Y-31117280D01*
X86114185Y-31117280D01*
X85352185Y-32260280D01*
G37*
X85352185Y-32260280D02*
X84590185Y-31117280D01*
X86114185Y-31117280D01*
X85352185Y-32260280D01*
X262764685Y-21050280D02*
G75*
G03*
X262764685Y-21050280I-1200000J0D01*
G01*
X293902185Y-32825280D02*
X293902185Y-28925280D01*
X295902185Y-32825280D02*
X295902185Y-28925280D01*
X295902185Y-32825280D02*
X293902185Y-32825280D01*
X293902185Y-32825280D02*
X293902185Y-33115280D01*
X293902185Y-33115280D02*
X295902185Y-33115280D01*
X295902185Y-33115280D02*
X295902185Y-32825280D01*
G36*
X295902185Y-32825280D02*
G01*
X293902185Y-32825280D01*
X293902185Y-33115280D01*
X295902185Y-33115280D01*
X295902185Y-32825280D01*
G37*
G36*
X294902185Y-31210280D02*
G01*
X294140185Y-30067280D01*
X295664185Y-30067280D01*
X294902185Y-31210280D01*
G37*
X294902185Y-31210280D02*
X294140185Y-30067280D01*
X295664185Y-30067280D01*
X294902185Y-31210280D01*
X238752185Y-33879280D02*
X238752185Y-29979280D01*
X236752185Y-33879280D02*
X236752185Y-29979280D01*
X238752185Y-33879280D02*
X236752185Y-33879280D01*
X236752185Y-33879280D02*
X236752185Y-34169280D01*
X236752185Y-34169280D02*
X238752185Y-34169280D01*
X238752185Y-34169280D02*
X238752185Y-33879280D01*
G36*
X238752185Y-33879280D02*
G01*
X236752185Y-33879280D01*
X236752185Y-34169280D01*
X238752185Y-34169280D01*
X238752185Y-33879280D01*
G37*
G36*
X237752185Y-32264280D02*
G01*
X236990185Y-31121280D01*
X238514185Y-31121280D01*
X237752185Y-32264280D01*
G37*
X237752185Y-32264280D02*
X236990185Y-31121280D01*
X238514185Y-31121280D01*
X237752185Y-32264280D01*
X65302185Y-32825280D02*
X65302185Y-28925280D01*
X67302185Y-32825280D02*
X67302185Y-28925280D01*
X67302185Y-32825280D02*
X65302185Y-32825280D01*
X65302185Y-32825280D02*
X65302185Y-33115280D01*
X65302185Y-33115280D02*
X67302185Y-33115280D01*
X67302185Y-33115280D02*
X67302185Y-32825280D01*
G36*
X67302185Y-32825280D02*
G01*
X65302185Y-32825280D01*
X65302185Y-33115280D01*
X67302185Y-33115280D01*
X67302185Y-32825280D01*
G37*
G36*
X66302185Y-31210280D02*
G01*
X65540185Y-30067280D01*
X67064185Y-30067280D01*
X66302185Y-31210280D01*
G37*
X66302185Y-31210280D02*
X65540185Y-30067280D01*
X67064185Y-30067280D01*
X66302185Y-31210280D01*
X124452185Y-33879280D02*
X124452185Y-29979280D01*
X122452185Y-33879280D02*
X122452185Y-29979280D01*
X124452185Y-33879280D02*
X122452185Y-33879280D01*
X122452185Y-33879280D02*
X122452185Y-34169280D01*
X122452185Y-34169280D02*
X124452185Y-34169280D01*
X124452185Y-34169280D02*
X124452185Y-33879280D01*
G36*
X124452185Y-33879280D02*
G01*
X122452185Y-33879280D01*
X122452185Y-34169280D01*
X124452185Y-34169280D01*
X124452185Y-33879280D01*
G37*
G36*
X123452185Y-32264280D02*
G01*
X122690185Y-31121280D01*
X124214185Y-31121280D01*
X123452185Y-32264280D01*
G37*
X123452185Y-32264280D02*
X122690185Y-31121280D01*
X124214185Y-31121280D01*
X123452185Y-32264280D01*
X105402185Y-32825280D02*
X105402185Y-28925280D01*
X103402185Y-32825280D02*
X103402185Y-28925280D01*
X105402185Y-32825280D02*
X103402185Y-32825280D01*
X103402185Y-32825280D02*
X103402185Y-33115280D01*
X103402185Y-33115280D02*
X105402185Y-33115280D01*
X105402185Y-33115280D02*
X105402185Y-32825280D01*
G36*
X105402185Y-32825280D02*
G01*
X103402185Y-32825280D01*
X103402185Y-33115280D01*
X105402185Y-33115280D01*
X105402185Y-32825280D01*
G37*
G36*
X104402185Y-31210280D02*
G01*
X103640185Y-30067280D01*
X105164185Y-30067280D01*
X104402185Y-31210280D01*
G37*
X104402185Y-31210280D02*
X103640185Y-30067280D01*
X105164185Y-30067280D01*
X104402185Y-31210280D01*
X141502185Y-32725280D02*
X141502185Y-28825280D01*
X143502185Y-32725280D02*
X143502185Y-28825280D01*
X143502185Y-32725280D02*
X141502185Y-32725280D01*
X141502185Y-32725280D02*
X141502185Y-33015280D01*
X141502185Y-33015280D02*
X143502185Y-33015280D01*
X143502185Y-33015280D02*
X143502185Y-32725280D01*
G36*
X143502185Y-32725280D02*
G01*
X141502185Y-32725280D01*
X141502185Y-33015280D01*
X143502185Y-33015280D01*
X143502185Y-32725280D01*
G37*
G36*
X142502185Y-31110280D02*
G01*
X141740185Y-29967280D01*
X143264185Y-29967280D01*
X142502185Y-31110280D01*
G37*
X142502185Y-31110280D02*
X141740185Y-29967280D01*
X143264185Y-29967280D01*
X142502185Y-31110280D01*
X257802185Y-32825280D02*
X257802185Y-28925280D01*
X255802185Y-32825280D02*
X255802185Y-28925280D01*
X257802185Y-32825280D02*
X255802185Y-32825280D01*
X255802185Y-32825280D02*
X255802185Y-33115280D01*
X255802185Y-33115280D02*
X257802185Y-33115280D01*
X257802185Y-33115280D02*
X257802185Y-32825280D01*
G36*
X257802185Y-32825280D02*
G01*
X255802185Y-32825280D01*
X255802185Y-33115280D01*
X257802185Y-33115280D01*
X257802185Y-32825280D01*
G37*
G36*
X256802185Y-31210280D02*
G01*
X256040185Y-30067280D01*
X257564185Y-30067280D01*
X256802185Y-31210280D01*
G37*
X256802185Y-31210280D02*
X256040185Y-30067280D01*
X257564185Y-30067280D01*
X256802185Y-31210280D01*
X138739685Y-48303405D02*
X138739685Y-44403405D01*
X136739685Y-48303405D02*
X136739685Y-44403405D01*
X138739685Y-48303405D02*
X136739685Y-48303405D01*
X136739685Y-48303405D02*
X136739685Y-48593405D01*
X136739685Y-48593405D02*
X138739685Y-48593405D01*
X138739685Y-48593405D02*
X138739685Y-48303405D01*
G36*
X138739685Y-48303405D02*
G01*
X136739685Y-48303405D01*
X136739685Y-48593405D01*
X138739685Y-48593405D01*
X138739685Y-48303405D01*
G37*
G36*
X137739685Y-46688405D02*
G01*
X136977685Y-45545405D01*
X138501685Y-45545405D01*
X137739685Y-46688405D01*
G37*
X137739685Y-46688405D02*
X136977685Y-45545405D01*
X138501685Y-45545405D01*
X137739685Y-46688405D01*
X181602185Y-32825280D02*
X181602185Y-28925280D01*
X179602185Y-32825280D02*
X179602185Y-28925280D01*
X181602185Y-32825280D02*
X179602185Y-32825280D01*
X179602185Y-32825280D02*
X179602185Y-33115280D01*
X179602185Y-33115280D02*
X181602185Y-33115280D01*
X181602185Y-33115280D02*
X181602185Y-32825280D01*
G36*
X181602185Y-32825280D02*
G01*
X179602185Y-32825280D01*
X179602185Y-33115280D01*
X181602185Y-33115280D01*
X181602185Y-32825280D01*
G37*
G36*
X180602185Y-31210280D02*
G01*
X179840185Y-30067280D01*
X181364185Y-30067280D01*
X180602185Y-31210280D01*
G37*
X180602185Y-31210280D02*
X179840185Y-30067280D01*
X181364185Y-30067280D01*
X180602185Y-31210280D01*
X48252185Y-33875280D02*
X48252185Y-29975280D01*
X46252185Y-33875280D02*
X46252185Y-29975280D01*
X48252185Y-33875280D02*
X46252185Y-33875280D01*
X46252185Y-33875280D02*
X46252185Y-34165280D01*
X46252185Y-34165280D02*
X48252185Y-34165280D01*
X48252185Y-34165280D02*
X48252185Y-33875280D01*
G36*
X48252185Y-33875280D02*
G01*
X46252185Y-33875280D01*
X46252185Y-34165280D01*
X48252185Y-34165280D01*
X48252185Y-33875280D01*
G37*
G36*
X47252185Y-32260280D02*
G01*
X46490185Y-31117280D01*
X48014185Y-31117280D01*
X47252185Y-32260280D01*
G37*
X47252185Y-32260280D02*
X46490185Y-31117280D01*
X48014185Y-31117280D01*
X47252185Y-32260280D01*
X274852185Y-33875280D02*
X274852185Y-29975280D01*
X276852185Y-33875280D02*
X276852185Y-29975280D01*
X276852185Y-33875280D02*
X274852185Y-33875280D01*
X274852185Y-33875280D02*
X274852185Y-34165280D01*
X274852185Y-34165280D02*
X276852185Y-34165280D01*
X276852185Y-34165280D02*
X276852185Y-33875280D01*
G36*
X276852185Y-33875280D02*
G01*
X274852185Y-33875280D01*
X274852185Y-34165280D01*
X276852185Y-34165280D01*
X276852185Y-33875280D01*
G37*
G36*
X275852185Y-32260280D02*
G01*
X275090185Y-31117280D01*
X276614185Y-31117280D01*
X275852185Y-32260280D01*
G37*
X275852185Y-32260280D02*
X275090185Y-31117280D01*
X276614185Y-31117280D01*
X275852185Y-32260280D01*
D12*
X226941310Y-26765424D02*
G75*
G03*
X222369310Y-26765424I-2286000J-1435606D01*
G01*
D14*
X177220935Y-47112780D02*
X177220935Y-43212780D01*
X179220935Y-47112780D02*
X179220935Y-43212780D01*
X179220935Y-47112780D02*
X177220935Y-47112780D01*
X177220935Y-47112780D02*
X177220935Y-47402780D01*
X177220935Y-47402780D02*
X179220935Y-47402780D01*
X179220935Y-47402780D02*
X179220935Y-47112780D01*
G36*
X179220935Y-47112780D02*
G01*
X177220935Y-47112780D01*
X177220935Y-47402780D01*
X179220935Y-47402780D01*
X179220935Y-47112780D01*
G37*
G36*
X178220935Y-45497780D02*
G01*
X177458935Y-44354780D01*
X178982935Y-44354780D01*
X178220935Y-45497780D01*
G37*
X178220935Y-45497780D02*
X177458935Y-44354780D01*
X178982935Y-44354780D01*
X178220935Y-45497780D01*
X141120935Y-47112780D02*
X141120935Y-43212780D01*
X139120935Y-47112780D02*
X139120935Y-43212780D01*
X141120935Y-47112780D02*
X139120935Y-47112780D01*
X139120935Y-47112780D02*
X139120935Y-47402780D01*
X139120935Y-47402780D02*
X141120935Y-47402780D01*
X141120935Y-47402780D02*
X141120935Y-47112780D01*
G36*
X141120935Y-47112780D02*
G01*
X139120935Y-47112780D01*
X139120935Y-47402780D01*
X141120935Y-47402780D01*
X141120935Y-47112780D01*
G37*
G36*
X140120935Y-45497780D02*
G01*
X139358935Y-44354780D01*
X140882935Y-44354780D01*
X140120935Y-45497780D01*
G37*
X140120935Y-45497780D02*
X139358935Y-44354780D01*
X140882935Y-44354780D01*
X140120935Y-45497780D01*
X169565310Y-28790280D02*
X169565310Y-27800280D01*
X169445310Y-33260280D02*
X165565310Y-33260280D01*
X164395310Y-28790280D02*
X165445310Y-28790280D01*
X170615310Y-28790280D02*
X169565310Y-28790280D01*
X164395310Y-31290280D02*
X164395310Y-28790280D01*
X170615310Y-31290280D02*
X170615310Y-28790280D01*
G36*
X169805310Y-28790280D02*
G01*
X169565310Y-28790280D01*
X169565310Y-27800280D01*
X169805310Y-27800280D01*
X169805310Y-28790280D01*
G37*
X169805310Y-28790280D02*
X169565310Y-28790280D01*
X169565310Y-27800280D01*
X169805310Y-27800280D01*
X169805310Y-28790280D01*
G36*
X170615310Y-29790280D02*
G01*
X169565310Y-28790280D01*
X170615310Y-28790280D01*
X170615310Y-29790280D01*
G37*
X170615310Y-29790280D02*
X169565310Y-28790280D01*
X170615310Y-28790280D01*
X170615310Y-29790280D01*
X36545935Y-32956530D02*
G75*
G03*
X36545935Y-32956530I-1200000J0D01*
G01*
X36545935Y-21050280D02*
G75*
G03*
X36545935Y-21050280I-1200000J0D01*
G01*
X150845935Y-21050280D02*
G75*
G03*
X150845935Y-21050280I-1200000J0D01*
G01*
X74645935Y-21059655D02*
G75*
G03*
X74645935Y-21059655I-1200000J0D01*
G01*
X167514685Y-21003405D02*
G75*
G03*
X167514685Y-21003405I-1200000J0D01*
G01*
D12*
X36441310Y-26765424D02*
G75*
G03*
X31869310Y-26765424I-2286000J-1435606D01*
G01*
D14*
X150845935Y-36528405D02*
G75*
G03*
X150845935Y-36528405I-1200000J0D01*
G01*
D12*
X184269310Y-21990261D02*
G75*
G03*
X188841310Y-21990261I2286000J1435606D01*
G01*
D14*
X217702185Y-32825280D02*
X217702185Y-28925280D01*
X219702185Y-32825280D02*
X219702185Y-28925280D01*
X219702185Y-32825280D02*
X217702185Y-32825280D01*
X217702185Y-32825280D02*
X217702185Y-33115280D01*
X217702185Y-33115280D02*
X219702185Y-33115280D01*
X219702185Y-33115280D02*
X219702185Y-32825280D01*
G36*
X219702185Y-32825280D02*
G01*
X217702185Y-32825280D01*
X217702185Y-33115280D01*
X219702185Y-33115280D01*
X219702185Y-32825280D01*
G37*
G36*
X218702185Y-31210280D02*
G01*
X217940185Y-30067280D01*
X219464185Y-30067280D01*
X218702185Y-31210280D01*
G37*
X218702185Y-31210280D02*
X217940185Y-30067280D01*
X219464185Y-30067280D01*
X218702185Y-31210280D01*
X224664685Y-21050280D02*
G75*
G03*
X224664685Y-21050280I-1200000J0D01*
G01*
X160552185Y-32825280D02*
X160552185Y-28925280D01*
X162552185Y-32825280D02*
X162552185Y-28925280D01*
X162552185Y-32825280D02*
X160552185Y-32825280D01*
X160552185Y-32825280D02*
X160552185Y-33115280D01*
X160552185Y-33115280D02*
X162552185Y-33115280D01*
X162552185Y-33115280D02*
X162552185Y-32825280D01*
G36*
X162552185Y-32825280D02*
G01*
X160552185Y-32825280D01*
X160552185Y-33115280D01*
X162552185Y-33115280D01*
X162552185Y-32825280D01*
G37*
G36*
X161552185Y-31210280D02*
G01*
X160790185Y-30067280D01*
X162314185Y-30067280D01*
X161552185Y-31210280D01*
G37*
X161552185Y-31210280D02*
X160790185Y-30067280D01*
X162314185Y-30067280D01*
X161552185Y-31210280D01*
D12*
X179316310Y-50577924D02*
G75*
G03*
X174744310Y-50577924I-2286000J-1435606D01*
G01*
X93591310Y-26765424D02*
G75*
G03*
X89019310Y-26765424I-2286000J-1435606D01*
G01*
X141216310Y-50577924D02*
G75*
G03*
X136644310Y-50577924I-2286000J-1435606D01*
G01*
X127119310Y-21990261D02*
G75*
G03*
X131691310Y-21990261I2286000J1435606D01*
G01*
D14*
X200652185Y-33879280D02*
X200652185Y-29979280D01*
X198652185Y-33879280D02*
X198652185Y-29979280D01*
X200652185Y-33879280D02*
X198652185Y-33879280D01*
X198652185Y-33879280D02*
X198652185Y-34169280D01*
X198652185Y-34169280D02*
X200652185Y-34169280D01*
X200652185Y-34169280D02*
X200652185Y-33879280D01*
G36*
X200652185Y-33879280D02*
G01*
X198652185Y-33879280D01*
X198652185Y-34169280D01*
X200652185Y-34169280D01*
X200652185Y-33879280D01*
G37*
G36*
X199652185Y-32264280D02*
G01*
X198890185Y-31121280D01*
X200414185Y-31121280D01*
X199652185Y-32264280D01*
G37*
X199652185Y-32264280D02*
X198890185Y-31121280D01*
X200414185Y-31121280D01*
X199652185Y-32264280D01*
X130001560Y-32227780D02*
X130001560Y-33277780D01*
X130001560Y-38447780D02*
X130001560Y-37397780D01*
X132501560Y-38447780D02*
X130001560Y-38447780D01*
X134471560Y-33397780D02*
X134471560Y-37277780D01*
X132501560Y-32227780D02*
X130001560Y-32227780D01*
X130001560Y-33277780D02*
X129011560Y-33277780D01*
G36*
X130001560Y-33277780D02*
G01*
X129011560Y-33277780D01*
X129011560Y-33037780D01*
X130001560Y-33037780D01*
X130001560Y-33277780D01*
G37*
X130001560Y-33277780D02*
X129011560Y-33277780D01*
X129011560Y-33037780D01*
X130001560Y-33037780D01*
X130001560Y-33277780D01*
G36*
X130001560Y-33277780D02*
G01*
X130001560Y-32227780D01*
X131001560Y-32227780D01*
X130001560Y-33277780D01*
G37*
X130001560Y-33277780D02*
X130001560Y-32227780D01*
X131001560Y-32227780D01*
X130001560Y-33277780D01*
D12*
X284091310Y-26765424D02*
G75*
G03*
X279519310Y-26765424I-2286000J-1435606D01*
G01*
D14*
X281814685Y-21050280D02*
G75*
G03*
X281814685Y-21050280I-1200000J0D01*
G01*
X93695935Y-21050280D02*
G75*
G03*
X93695935Y-21050280I-1200000J0D01*
G01*
X147274060Y-36528405D02*
G75*
G03*
X147274060Y-36528405I-1200000J0D01*
G01*
X55595935Y-21050280D02*
G75*
G03*
X55595935Y-21050280I-1200000J0D01*
G01*
X27202185Y-32825280D02*
X27202185Y-28925280D01*
X29202185Y-32825280D02*
X29202185Y-28925280D01*
X29202185Y-32825280D02*
X27202185Y-32825280D01*
X27202185Y-32825280D02*
X27202185Y-33115280D01*
X27202185Y-33115280D02*
X29202185Y-33115280D01*
X29202185Y-33115280D02*
X29202185Y-32825280D01*
G36*
X29202185Y-32825280D02*
G01*
X27202185Y-32825280D01*
X27202185Y-33115280D01*
X29202185Y-33115280D01*
X29202185Y-32825280D01*
G37*
G36*
X28202185Y-31210280D02*
G01*
X27440185Y-30067280D01*
X28964185Y-30067280D01*
X28202185Y-31210280D01*
G37*
X28202185Y-31210280D02*
X27440185Y-30067280D01*
X28964185Y-30067280D01*
X28202185Y-31210280D01*
X174839685Y-48303405D02*
X174839685Y-44403405D01*
X176839685Y-48303405D02*
X176839685Y-44403405D01*
X176839685Y-48303405D02*
X174839685Y-48303405D01*
X174839685Y-48303405D02*
X174839685Y-48593405D01*
X174839685Y-48593405D02*
X176839685Y-48593405D01*
X176839685Y-48593405D02*
X176839685Y-48303405D01*
G36*
X176839685Y-48303405D02*
G01*
X174839685Y-48303405D01*
X174839685Y-48593405D01*
X176839685Y-48593405D01*
X176839685Y-48303405D01*
G37*
G36*
X175839685Y-46688405D02*
G01*
X175077685Y-45545405D01*
X176601685Y-45545405D01*
X175839685Y-46688405D01*
G37*
X175839685Y-46688405D02*
X175077685Y-45545405D01*
X176601685Y-45545405D01*
X175839685Y-46688405D01*
X145345310Y-31290280D02*
X145345310Y-28790280D01*
X151565310Y-31290280D02*
X151565310Y-28790280D01*
X151565310Y-28790280D02*
X150515310Y-28790280D01*
X145345310Y-28790280D02*
X146395310Y-28790280D01*
X150515310Y-28790280D02*
X150515310Y-27800280D01*
X150395310Y-33260280D02*
X146515310Y-33260280D01*
G36*
X151565310Y-29790280D02*
G01*
X150515310Y-28790280D01*
X151565310Y-28790280D01*
X151565310Y-29790280D01*
G37*
X151565310Y-29790280D02*
X150515310Y-28790280D01*
X151565310Y-28790280D01*
X151565310Y-29790280D01*
G36*
X150755310Y-28790280D02*
G01*
X150515310Y-28790280D01*
X150515310Y-27800280D01*
X150755310Y-27800280D01*
X150755310Y-28790280D01*
G37*
X150755310Y-28790280D02*
X150515310Y-28790280D01*
X150515310Y-27800280D01*
X150755310Y-27800280D01*
X150755310Y-28790280D01*
%LPC*%
D15*
X172585310Y-46053405D03*
D16*
X167505310Y-46053405D03*
D15*
X162425310Y-46053405D03*
D17*
X163695310Y-43513405D03*
X170045310Y-40973405D03*
D15*
X76700310Y-27003405D03*
X86860310Y-27003405D03*
D16*
X81780310Y-27003405D03*
D17*
X77970310Y-24463405D03*
X84320310Y-21923405D03*
D15*
X124325310Y-46053405D03*
D16*
X129405310Y-46053405D03*
D15*
X134485310Y-46053405D03*
D17*
X125595310Y-43513405D03*
X131945310Y-40973405D03*
D16*
X196080310Y-27003405D03*
D15*
X201160310Y-27003405D03*
X191000310Y-27003405D03*
D17*
X192270310Y-24463405D03*
X198620310Y-21923405D03*
D16*
X62730310Y-27003405D03*
D15*
X67810310Y-27003405D03*
X57650310Y-27003405D03*
D17*
X58920310Y-24463405D03*
X65270310Y-21923405D03*
D16*
X157908435Y-27003405D03*
D15*
X152828435Y-27003405D03*
X162988435Y-27003405D03*
D17*
X154098435Y-24463405D03*
X160448435Y-21923405D03*
D16*
X234180310Y-27003405D03*
D15*
X229100310Y-27003405D03*
X239260310Y-27003405D03*
D17*
X230370310Y-24463405D03*
X236720310Y-21923405D03*
D15*
X124960310Y-27003405D03*
X114800310Y-27003405D03*
D16*
X119880310Y-27003405D03*
D17*
X116070310Y-24463405D03*
X122420310Y-21923405D03*
D16*
X215130310Y-27003405D03*
D15*
X210050310Y-27003405D03*
X220210310Y-27003405D03*
D17*
X211320310Y-24463405D03*
X217670310Y-21923405D03*
D16*
X148455310Y-46053405D03*
D15*
X153535310Y-46053405D03*
X143375310Y-46053405D03*
D17*
X144645310Y-43513405D03*
X150995310Y-40973405D03*
D16*
X253230310Y-27003405D03*
D15*
X248150310Y-27003405D03*
X258310310Y-27003405D03*
D17*
X249420310Y-24463405D03*
X255770310Y-21923405D03*
D15*
X277360310Y-27003405D03*
D16*
X272280310Y-27003405D03*
D15*
X267200310Y-27003405D03*
D17*
X268470310Y-24463405D03*
X274820310Y-21923405D03*
D15*
X19550310Y-27003405D03*
D16*
X24630310Y-27003405D03*
D15*
X29710310Y-27003405D03*
D17*
X20820310Y-24463405D03*
X27170310Y-21923405D03*
D15*
X181475310Y-46053405D03*
X191635310Y-46053405D03*
D16*
X186555310Y-46053405D03*
D17*
X182745310Y-43513405D03*
X189095310Y-40973405D03*
D15*
X296410310Y-27003405D03*
X286250310Y-27003405D03*
D16*
X291330310Y-27003405D03*
D17*
X287520310Y-24463405D03*
X293870310Y-21923405D03*
D16*
X138930310Y-27003405D03*
D15*
X144010310Y-27003405D03*
X133850310Y-27003405D03*
D17*
X135120310Y-24463405D03*
X141470310Y-21923405D03*
D15*
X48760310Y-27003405D03*
X38600310Y-27003405D03*
D16*
X43680310Y-27003405D03*
D17*
X39870310Y-24463405D03*
X46220310Y-21923405D03*
D16*
X100830310Y-27003405D03*
D15*
X95750310Y-27003405D03*
X105910310Y-27003405D03*
D17*
X97020310Y-24463405D03*
X103370310Y-21923405D03*
D15*
X182110310Y-27003405D03*
X171950310Y-27003405D03*
D16*
X177030310Y-27003405D03*
D17*
X173220310Y-24463405D03*
X179570310Y-21923405D03*
D18*
X85352185Y-33275280D03*
X85352185Y-29975280D03*
D19*
X261564685Y-21050280D03*
D18*
X294902185Y-32225280D03*
X294902185Y-28925280D03*
X237752185Y-33279280D03*
X237752185Y-29979280D03*
X66302185Y-32225280D03*
X66302185Y-28925280D03*
X123452185Y-33279280D03*
X123452185Y-29979280D03*
X104402185Y-32225280D03*
X104402185Y-28925280D03*
X142502185Y-32125280D03*
X142502185Y-28825280D03*
X256802185Y-32225280D03*
X256802185Y-28925280D03*
X137739685Y-47703405D03*
X137739685Y-44403405D03*
X180602185Y-32225280D03*
X180602185Y-28925280D03*
X47252185Y-33275280D03*
X47252185Y-29975280D03*
X275852185Y-33275280D03*
X275852185Y-29975280D03*
D20*
X224655310Y-28194030D03*
D18*
X178220935Y-46512780D03*
X178220935Y-43212780D03*
X140120935Y-46512780D03*
X140120935Y-43212780D03*
D21*
X169005310Y-28575280D03*
D22*
X169505310Y-30375280D03*
D21*
X168005310Y-28575280D03*
D22*
X168505310Y-32275280D03*
D21*
X167005310Y-28575280D03*
D22*
X166505310Y-32275280D03*
D21*
X166005310Y-28575280D03*
D22*
X165505310Y-30375280D03*
D23*
X170305310Y-32450280D03*
X164705310Y-32450280D03*
D19*
X35345935Y-32956530D03*
X35345935Y-21050280D03*
X149645935Y-21050280D03*
X73445935Y-21059655D03*
X166314685Y-21003405D03*
D20*
X34155310Y-28194030D03*
D19*
X149645935Y-36528405D03*
D20*
X186555310Y-20561655D03*
D18*
X218702185Y-32225280D03*
X218702185Y-28925280D03*
D19*
X223464685Y-21050280D03*
D18*
X161552185Y-32225280D03*
X161552185Y-28925280D03*
D20*
X177030310Y-52006530D03*
X91305310Y-28194030D03*
X138930310Y-52006530D03*
X129405310Y-20561655D03*
D18*
X199652185Y-33279280D03*
X199652185Y-29979280D03*
D24*
X129786560Y-33837780D03*
D22*
X131586560Y-33337780D03*
X133486560Y-34337780D03*
D24*
X129786560Y-34837780D03*
X129786560Y-35837780D03*
D22*
X133486560Y-36337780D03*
D24*
X129786560Y-36837780D03*
D22*
X131586560Y-37337780D03*
D25*
X133661560Y-38137780D03*
X133661560Y-32537780D03*
D20*
X281805310Y-28194030D03*
D19*
X280614685Y-21050280D03*
X92495935Y-21050280D03*
X146074060Y-36528405D03*
X54395935Y-21050280D03*
D18*
X28202185Y-32225280D03*
X28202185Y-28925280D03*
X175839685Y-47703405D03*
X175839685Y-44403405D03*
D21*
X149955310Y-28575280D03*
D22*
X150455310Y-30375280D03*
D21*
X148955310Y-28575280D03*
D22*
X149455310Y-32275280D03*
D21*
X147955310Y-28575280D03*
D22*
X147455310Y-32275280D03*
X146455310Y-30375280D03*
D21*
X146955310Y-28575280D03*
D23*
X145655310Y-32450280D03*
X151255310Y-32450280D03*
M02*
