%TF.GenerationSoftware,KiCad,Pcbnew,(6.0.10-0)*%
%TF.CreationDate,2023-03-16T17:34:04+09:00*%
%TF.ProjectId,Sandy_Top,53616e64-795f-4546-9f70-2e6b69636164,v.0*%
%TF.SameCoordinates,Original*%
%TF.FileFunction,Drillmap*%
%TF.FilePolarity,Positive*%
%FSLAX45Y45*%
G04 Gerber Fmt 4.5, Leading zero omitted, Abs format (unit mm)*
G04 Created by KiCad (PCBNEW (6.0.10-0)) date 2023-03-16 17:34:04*
%MOMM*%
%LPD*%
G01*
G04 APERTURE LIST*
%ADD10C,0.200000*%
%ADD11C,0.040000*%
%ADD12C,0.100000*%
%ADD13C,0.147000*%
%ADD14C,0.220000*%
G04 APERTURE END LIST*
D10*
D11*
X1642931Y-1880240D02*
X1682931Y-1920240D01*
X1682931Y-1880240D02*
X1642931Y-1920240D01*
X1642931Y-3429640D02*
X1682931Y-3469640D01*
X1682931Y-3429640D02*
X1642931Y-3469640D01*
X2684331Y-2531116D02*
X2724331Y-2571116D01*
X2724331Y-2531116D02*
X2684331Y-2571116D01*
X3395531Y-1846903D02*
X3435531Y-1886903D01*
X3435531Y-1846903D02*
X3395531Y-1886903D01*
X3395531Y-3480440D02*
X3435531Y-3520440D01*
X3435531Y-3480440D02*
X3395531Y-3520440D01*
X3633656Y-2323153D02*
X3673656Y-2363153D01*
X3673656Y-2323153D02*
X3633656Y-2363153D01*
X5300531Y-1846903D02*
X5340531Y-1886903D01*
X5340531Y-1846903D02*
X5300531Y-1886903D01*
X5300531Y-3480440D02*
X5340531Y-3520440D01*
X5340531Y-3480440D02*
X5300531Y-3520440D01*
X5427531Y-3307528D02*
X5467531Y-3347528D01*
X5467531Y-3307528D02*
X5427531Y-3347528D01*
X6729281Y-2323153D02*
X6769281Y-2363153D01*
X6769281Y-2323153D02*
X6729281Y-2363153D01*
X7205531Y-3480440D02*
X7245531Y-3520440D01*
X7245531Y-3480440D02*
X7205531Y-3520440D01*
X7324593Y-1846903D02*
X7364593Y-1886903D01*
X7364593Y-1846903D02*
X7324593Y-1886903D01*
X7443656Y-2323153D02*
X7483656Y-2363153D01*
X7483656Y-2323153D02*
X7443656Y-2363153D01*
X9110531Y-1846903D02*
X9150531Y-1886903D01*
X9150531Y-1846903D02*
X9110531Y-1886903D01*
X9110531Y-3480440D02*
X9150531Y-3520440D01*
X9150531Y-3480440D02*
X9110531Y-3520440D01*
X11015531Y-1846903D02*
X11055531Y-1886903D01*
X11055531Y-1846903D02*
X11015531Y-1886903D01*
X11015531Y-2540641D02*
X11055531Y-2580641D01*
X11055531Y-2540641D02*
X11015531Y-2580641D01*
X11015531Y-3480440D02*
X11055531Y-3520440D01*
X11055531Y-3480440D02*
X11015531Y-3520440D01*
X12206156Y-3632840D02*
X12246156Y-3672840D01*
X12246156Y-3632840D02*
X12206156Y-3672840D01*
X12206156Y-5299716D02*
X12246156Y-5339716D01*
X12246156Y-5299716D02*
X12206156Y-5339716D01*
X12209331Y-4471041D02*
X12249331Y-4511041D01*
X12249331Y-4471041D02*
X12209331Y-4511041D01*
X12488731Y-3124840D02*
X12528731Y-3164840D01*
X12528731Y-3124840D02*
X12488731Y-3164840D01*
X12590331Y-1846903D02*
X12630331Y-1886903D01*
X12630331Y-1846903D02*
X12590331Y-1886903D01*
X12590331Y-3404240D02*
X12630331Y-3444240D01*
X12630331Y-3404240D02*
X12590331Y-3444240D01*
X12595295Y-3143310D02*
X12635295Y-3183310D01*
X12635295Y-3143310D02*
X12595295Y-3183310D01*
X12793531Y-3785240D02*
X12833531Y-3825240D01*
X12833531Y-3785240D02*
X12793531Y-3825240D01*
X12895131Y-2807340D02*
X12935131Y-2847340D01*
X12935131Y-2807340D02*
X12895131Y-2847340D01*
X13250731Y-1846903D02*
X13290731Y-1886903D01*
X13290731Y-1846903D02*
X13250731Y-1886903D01*
X13504731Y-3226440D02*
X13544731Y-3266440D01*
X13544731Y-3226440D02*
X13504731Y-3266440D01*
X13504731Y-3912240D02*
X13544731Y-3952240D01*
X13544731Y-3912240D02*
X13504731Y-3952240D01*
X13515843Y-5299716D02*
X13555843Y-5339716D01*
X13555843Y-5299716D02*
X13515843Y-5339716D01*
X13758731Y-4588516D02*
X13798731Y-4628516D01*
X13798731Y-4588516D02*
X13758731Y-4628516D01*
X13936531Y-2124716D02*
X13976531Y-2164716D01*
X13976531Y-2124716D02*
X13936531Y-2164716D01*
X14038131Y-3175640D02*
X14078131Y-3215640D01*
X14078131Y-3175640D02*
X14038131Y-3215640D01*
X14161956Y-3683640D02*
X14201956Y-3723640D01*
X14201956Y-3683640D02*
X14161956Y-3723640D01*
X14230218Y-5299716D02*
X14270218Y-5339716D01*
X14270218Y-5299716D02*
X14230218Y-5339716D01*
X14292131Y-4207516D02*
X14332131Y-4247516D01*
X14332131Y-4207516D02*
X14292131Y-4247516D01*
X14317531Y-2124716D02*
X14357531Y-2164716D01*
X14357531Y-2124716D02*
X14317531Y-2164716D01*
X14469931Y-4817116D02*
X14509931Y-4857116D01*
X14509931Y-4817116D02*
X14469931Y-4857116D01*
X14596931Y-3953515D02*
X14636931Y-3993515D01*
X14636931Y-3953515D02*
X14596931Y-3993515D01*
X14825531Y-1846903D02*
X14865531Y-1886903D01*
X14865531Y-1846903D02*
X14825531Y-1886903D01*
X15076356Y-4972691D02*
X15116356Y-5012691D01*
X15116356Y-4972691D02*
X15076356Y-5012691D01*
X15079531Y-3455040D02*
X15119531Y-3495040D01*
X15119531Y-3455040D02*
X15079531Y-3495040D01*
X15104931Y-2734316D02*
X15144931Y-2774316D01*
X15144931Y-2734316D02*
X15104931Y-2774316D01*
X15139326Y-4893229D02*
X15179326Y-4933229D01*
X15179326Y-4893229D02*
X15139326Y-4933229D01*
X15511331Y-2175516D02*
X15551331Y-2215516D01*
X15551331Y-2175516D02*
X15511331Y-2215516D01*
X15714531Y-2251716D02*
X15754531Y-2291716D01*
X15754531Y-2251716D02*
X15714531Y-2291716D01*
X15778031Y-4817116D02*
X15818031Y-4857116D01*
X15818031Y-4817116D02*
X15778031Y-4857116D01*
X15778031Y-5299716D02*
X15818031Y-5339716D01*
X15818031Y-5299716D02*
X15778031Y-5339716D01*
X16171731Y-3378840D02*
X16211731Y-3418840D01*
X16211731Y-3378840D02*
X16171731Y-3418840D01*
X16222531Y-2099316D02*
X16262531Y-2139316D01*
X16262531Y-2099316D02*
X16222531Y-2139316D01*
X16349531Y-2912115D02*
X16389531Y-2952115D01*
X16389531Y-2912115D02*
X16349531Y-2952115D01*
X16552731Y-3556640D02*
X16592731Y-3596640D01*
X16592731Y-3556640D02*
X16552731Y-3596640D01*
X16730531Y-1846903D02*
X16770531Y-1886903D01*
X16770531Y-1846903D02*
X16730531Y-1886903D01*
X17060731Y-2489841D02*
X17100731Y-2529841D01*
X17100731Y-2489841D02*
X17060731Y-2529841D01*
X17134550Y-3203422D02*
X17174550Y-3243422D01*
X17174550Y-3203422D02*
X17134550Y-3243422D01*
X17187731Y-4817116D02*
X17227731Y-4857116D01*
X17227731Y-4817116D02*
X17187731Y-4857116D01*
X17325844Y-5299716D02*
X17365844Y-5339716D01*
X17365844Y-5299716D02*
X17325844Y-5339716D01*
X17390931Y-2632716D02*
X17430931Y-2672716D01*
X17430931Y-2632716D02*
X17390931Y-2672716D01*
X17492531Y-3480440D02*
X17532531Y-3520440D01*
X17532531Y-3480440D02*
X17492531Y-3520440D01*
X17568731Y-4547241D02*
X17608731Y-4587241D01*
X17608731Y-4547241D02*
X17568731Y-4587241D01*
X18040219Y-5299716D02*
X18080219Y-5339716D01*
X18080219Y-5299716D02*
X18040219Y-5339716D01*
X18203731Y-2912115D02*
X18243731Y-2952115D01*
X18243731Y-2912115D02*
X18203731Y-2952115D01*
X18330731Y-1846903D02*
X18370731Y-1886903D01*
X18370731Y-1846903D02*
X18330731Y-1886903D01*
X18737131Y-2988315D02*
X18777131Y-3028315D01*
X18777131Y-2988315D02*
X18737131Y-3028315D01*
X18940331Y-1846903D02*
X18980331Y-1886903D01*
X18980331Y-1846903D02*
X18940331Y-1886903D01*
X19346731Y-4471041D02*
X19386731Y-4511041D01*
X19386731Y-4471041D02*
X19346731Y-4511041D01*
X19349906Y-3632840D02*
X19389906Y-3672840D01*
X19389906Y-3632840D02*
X19349906Y-3672840D01*
X19349906Y-5299716D02*
X19389906Y-5339716D01*
X19389906Y-5299716D02*
X19349906Y-5339716D01*
X20540531Y-1846903D02*
X20580531Y-1886903D01*
X20580531Y-1846903D02*
X20540531Y-1886903D01*
X20540531Y-3480440D02*
X20580531Y-3520440D01*
X20580531Y-3480440D02*
X20540531Y-3520440D01*
X20565931Y-3039115D02*
X20605931Y-3079115D01*
X20605931Y-3039115D02*
X20565931Y-3079115D01*
X22242331Y-3039115D02*
X22282331Y-3079115D01*
X22282331Y-3039115D02*
X22242331Y-3079115D01*
X22445531Y-1846903D02*
X22485531Y-1886903D01*
X22485531Y-1846903D02*
X22445531Y-1886903D01*
X22445531Y-3480440D02*
X22485531Y-3520440D01*
X22485531Y-3480440D02*
X22445531Y-3520440D01*
X22648731Y-3039115D02*
X22688731Y-3079115D01*
X22688731Y-3039115D02*
X22648731Y-3079115D01*
X23613931Y-3039115D02*
X23653931Y-3079115D01*
X23653931Y-3039115D02*
X23613931Y-3079115D01*
X23944131Y-3039115D02*
X23984131Y-3079115D01*
X23984131Y-3039115D02*
X23944131Y-3079115D01*
X24299731Y-3115315D02*
X24339731Y-3155315D01*
X24339731Y-3115315D02*
X24299731Y-3155315D01*
X24350531Y-1965965D02*
X24390531Y-2005965D01*
X24390531Y-1965965D02*
X24350531Y-2005965D01*
X24350531Y-3480440D02*
X24390531Y-3520440D01*
X24390531Y-3480440D02*
X24350531Y-3520440D01*
X26255531Y-1846903D02*
X26295531Y-1886903D01*
X26295531Y-1846903D02*
X26255531Y-1886903D01*
X26255531Y-3480440D02*
X26295531Y-3520440D01*
X26295531Y-3480440D02*
X26255531Y-3520440D01*
X26865131Y-3115315D02*
X26905131Y-3155315D01*
X26905131Y-3115315D02*
X26865131Y-3155315D01*
X27208031Y-3391540D02*
X27248031Y-3431540D01*
X27248031Y-3391540D02*
X27208031Y-3431540D01*
X28160531Y-1846903D02*
X28200531Y-1886903D01*
X28200531Y-1846903D02*
X28160531Y-1886903D01*
X28160531Y-3480440D02*
X28200531Y-3520440D01*
X28200531Y-3480440D02*
X28160531Y-3520440D01*
X29176531Y-3115315D02*
X29216531Y-3155315D01*
X29216531Y-3115315D02*
X29176531Y-3155315D01*
X29913131Y-1880240D02*
X29953131Y-1920240D01*
X29953131Y-1880240D02*
X29913131Y-1920240D01*
X29913131Y-3429640D02*
X29953131Y-3469640D01*
X29953131Y-3429640D02*
X29913131Y-3469640D01*
D12*
X3584593Y-2105028D02*
G75*
G03*
X3584593Y-2105028I-50000J0D01*
G01*
X3584593Y-3295653D02*
G75*
G03*
X3584593Y-3295653I-50000J0D01*
G01*
X5489594Y-2105028D02*
G75*
G03*
X5489594Y-2105028I-50000J0D01*
G01*
X7394593Y-2105966D02*
G75*
G03*
X7394593Y-2105966I-50000J0D01*
G01*
X9299594Y-2105028D02*
G75*
G03*
X9299594Y-2105028I-50000J0D01*
G01*
X13208656Y-3100340D02*
G75*
G03*
X13208656Y-3100340I-50000J0D01*
G01*
X13208656Y-3500340D02*
G75*
G03*
X13208656Y-3500340I-50000J0D01*
G01*
X13398656Y-3200340D02*
G75*
G03*
X13398656Y-3200340I-50000J0D01*
G01*
X13398656Y-3400340D02*
G75*
G03*
X13398656Y-3400340I-50000J0D01*
G01*
X14657406Y-3652840D02*
G75*
G03*
X14657406Y-3652840I-50000J0D01*
G01*
X14695531Y-3037528D02*
G75*
G03*
X14695531Y-3037528I-50000J0D01*
G01*
X14795531Y-3227528D02*
G75*
G03*
X14795531Y-3227528I-50000J0D01*
G01*
X14995531Y-3227528D02*
G75*
G03*
X14995531Y-3227528I-50000J0D01*
G01*
X15014593Y-2105028D02*
G75*
G03*
X15014593Y-2105028I-50000J0D01*
G01*
X15014593Y-3652840D02*
G75*
G03*
X15014593Y-3652840I-50000J0D01*
G01*
X15095531Y-3037528D02*
G75*
G03*
X15095531Y-3037528I-50000J0D01*
G01*
X16600531Y-3037528D02*
G75*
G03*
X16600531Y-3037528I-50000J0D01*
G01*
X16681468Y-2100341D02*
G75*
G03*
X16681468Y-2100341I-50000J0D01*
G01*
X16700531Y-3227528D02*
G75*
G03*
X16700531Y-3227528I-50000J0D01*
G01*
X16900531Y-3227528D02*
G75*
G03*
X16900531Y-3227528I-50000J0D01*
G01*
X17000531Y-3037528D02*
G75*
G03*
X17000531Y-3037528I-50000J0D01*
G01*
X22396468Y-2105028D02*
G75*
G03*
X22396468Y-2105028I-50000J0D01*
G01*
X26206468Y-2105028D02*
G75*
G03*
X26206468Y-2105028I-50000J0D01*
G01*
X28111468Y-2105028D02*
G75*
G03*
X28111468Y-2105028I-50000J0D01*
G01*
D13*
X2082031Y-2372841D02*
X2082031Y-2519841D01*
X2008531Y-2446341D02*
X2155531Y-2446341D01*
X2717031Y-2118841D02*
X2717031Y-2265841D01*
X2643531Y-2192341D02*
X2790531Y-2192341D01*
X3987031Y-2372841D02*
X3987031Y-2519841D01*
X3913531Y-2446341D02*
X4060531Y-2446341D01*
X4622031Y-2118841D02*
X4622031Y-2265841D01*
X4548531Y-2192341D02*
X4695531Y-2192341D01*
X5892031Y-2372841D02*
X5892031Y-2519841D01*
X5818531Y-2446341D02*
X5965531Y-2446341D01*
X6527031Y-2118841D02*
X6527031Y-2265841D01*
X6453531Y-2192341D02*
X6600531Y-2192341D01*
X7797031Y-2372841D02*
X7797031Y-2519841D01*
X7723531Y-2446341D02*
X7870531Y-2446341D01*
X8432031Y-2118841D02*
X8432031Y-2265841D01*
X8358531Y-2192341D02*
X8505531Y-2192341D01*
X9702031Y-2372841D02*
X9702031Y-2519841D01*
X9628531Y-2446341D02*
X9775531Y-2446341D01*
X10337031Y-2118841D02*
X10337031Y-2265841D01*
X10263531Y-2192341D02*
X10410531Y-2192341D01*
X11607031Y-2372841D02*
X11607031Y-2519841D01*
X11533531Y-2446341D02*
X11680531Y-2446341D01*
X12242031Y-2118841D02*
X12242031Y-2265841D01*
X12168531Y-2192341D02*
X12315531Y-2192341D01*
X12559531Y-4277841D02*
X12559531Y-4424841D01*
X12486031Y-4351341D02*
X12633031Y-4351341D01*
X13194531Y-4023840D02*
X13194531Y-4170840D01*
X13121031Y-4097340D02*
X13268031Y-4097340D01*
X13512031Y-2372841D02*
X13512031Y-2519841D01*
X13438531Y-2446341D02*
X13585531Y-2446341D01*
X14147031Y-2118841D02*
X14147031Y-2265841D01*
X14073531Y-2192341D02*
X14220531Y-2192341D01*
X14464531Y-4277841D02*
X14464531Y-4424841D01*
X14391031Y-4351341D02*
X14538031Y-4351341D01*
X15099531Y-4023840D02*
X15099531Y-4170840D01*
X15026031Y-4097340D02*
X15173031Y-4097340D01*
X15409843Y-2372841D02*
X15409843Y-2519841D01*
X15336343Y-2446341D02*
X15483343Y-2446341D01*
X16044843Y-2118841D02*
X16044843Y-2265841D01*
X15971343Y-2192341D02*
X16118343Y-2192341D01*
X16369531Y-4277841D02*
X16369531Y-4424841D01*
X16296031Y-4351341D02*
X16443031Y-4351341D01*
X17004531Y-4023840D02*
X17004531Y-4170840D01*
X16931031Y-4097340D02*
X17078031Y-4097340D01*
X17322031Y-2372841D02*
X17322031Y-2519841D01*
X17248531Y-2446341D02*
X17395531Y-2446341D01*
X17957031Y-2118841D02*
X17957031Y-2265841D01*
X17883531Y-2192341D02*
X18030531Y-2192341D01*
X18274531Y-4277841D02*
X18274531Y-4424841D01*
X18201031Y-4351341D02*
X18348031Y-4351341D01*
X18909531Y-4023840D02*
X18909531Y-4170840D01*
X18836031Y-4097340D02*
X18983031Y-4097340D01*
X19227031Y-2372841D02*
X19227031Y-2519841D01*
X19153531Y-2446341D02*
X19300531Y-2446341D01*
X19862031Y-2118841D02*
X19862031Y-2265841D01*
X19788531Y-2192341D02*
X19935531Y-2192341D01*
X21132031Y-2372841D02*
X21132031Y-2519841D01*
X21058531Y-2446341D02*
X21205531Y-2446341D01*
X21767031Y-2118841D02*
X21767031Y-2265841D01*
X21693531Y-2192341D02*
X21840531Y-2192341D01*
X23037031Y-2372841D02*
X23037031Y-2519841D01*
X22963531Y-2446341D02*
X23110531Y-2446341D01*
X23672031Y-2118841D02*
X23672031Y-2265841D01*
X23598531Y-2192341D02*
X23745531Y-2192341D01*
X24942031Y-2372841D02*
X24942031Y-2519841D01*
X24868531Y-2446341D02*
X25015531Y-2446341D01*
X25577031Y-2118841D02*
X25577031Y-2265841D01*
X25503531Y-2192341D02*
X25650531Y-2192341D01*
X26847031Y-2372841D02*
X26847031Y-2519841D01*
X26773531Y-2446341D02*
X26920531Y-2446341D01*
X27482031Y-2118841D02*
X27482031Y-2265841D01*
X27408531Y-2192341D02*
X27555531Y-2192341D01*
X28752031Y-2372841D02*
X28752031Y-2519841D01*
X28678531Y-2446341D02*
X28825531Y-2446341D01*
X29387031Y-2118841D02*
X29387031Y-2265841D01*
X29313531Y-2192341D02*
X29460531Y-2192341D01*
D14*
X3493313Y-2897185D02*
X3493313Y-2741621D01*
X3337748Y-2741621D01*
X3337748Y-2897185D01*
X3493313Y-2897185D01*
X9208314Y-2897185D02*
X9208314Y-2741621D01*
X9052749Y-2741621D01*
X9052749Y-2897185D01*
X9208314Y-2897185D01*
X13018313Y-2133948D02*
X13018313Y-1978383D01*
X12862748Y-1978383D01*
X12862748Y-2133948D01*
X13018313Y-2133948D01*
X13970813Y-5278436D02*
X13970813Y-5122871D01*
X13815248Y-5122871D01*
X13815248Y-5278436D01*
X13970813Y-5278436D01*
X17780814Y-5278436D02*
X17780814Y-5122871D01*
X17625249Y-5122871D01*
X17625249Y-5278436D01*
X17780814Y-5278436D01*
X18733314Y-2133948D02*
X18733314Y-1978383D01*
X18577749Y-1978383D01*
X18577749Y-2133948D01*
X18733314Y-2133948D01*
X22543313Y-2897185D02*
X22543313Y-2741621D01*
X22387748Y-2741621D01*
X22387748Y-2897185D01*
X22543313Y-2897185D01*
X28258313Y-2897185D02*
X28258313Y-2741621D01*
X28102748Y-2741621D01*
X28102748Y-2897185D01*
X28258313Y-2897185D01*
D10*
X1788150Y-5803313D02*
X1788150Y-5603313D01*
X1835769Y-5603313D01*
X1864340Y-5612836D01*
X1883388Y-5631884D01*
X1892912Y-5650932D01*
X1902436Y-5689027D01*
X1902436Y-5717598D01*
X1892912Y-5755694D01*
X1883388Y-5774741D01*
X1864340Y-5793789D01*
X1835769Y-5803313D01*
X1788150Y-5803313D01*
X1988150Y-5803313D02*
X1988150Y-5669979D01*
X1988150Y-5708074D02*
X1997674Y-5689027D01*
X2007198Y-5679503D01*
X2026245Y-5669979D01*
X2045293Y-5669979D01*
X2111960Y-5803313D02*
X2111960Y-5669979D01*
X2111960Y-5603313D02*
X2102436Y-5612836D01*
X2111960Y-5622360D01*
X2121483Y-5612836D01*
X2111960Y-5603313D01*
X2111960Y-5622360D01*
X2235769Y-5803313D02*
X2216721Y-5793789D01*
X2207198Y-5774741D01*
X2207198Y-5603313D01*
X2340531Y-5803313D02*
X2321483Y-5793789D01*
X2311960Y-5774741D01*
X2311960Y-5603313D01*
X2569102Y-5803313D02*
X2569102Y-5603313D01*
X2635769Y-5746170D01*
X2702436Y-5603313D01*
X2702436Y-5803313D01*
X2883388Y-5803313D02*
X2883388Y-5698551D01*
X2873864Y-5679503D01*
X2854817Y-5669979D01*
X2816721Y-5669979D01*
X2797674Y-5679503D01*
X2883388Y-5793789D02*
X2864340Y-5803313D01*
X2816721Y-5803313D01*
X2797674Y-5793789D01*
X2788150Y-5774741D01*
X2788150Y-5755694D01*
X2797674Y-5736646D01*
X2816721Y-5727122D01*
X2864340Y-5727122D01*
X2883388Y-5717598D01*
X2978626Y-5669979D02*
X2978626Y-5869979D01*
X2978626Y-5679503D02*
X2997674Y-5669979D01*
X3035769Y-5669979D01*
X3054817Y-5679503D01*
X3064340Y-5689027D01*
X3073864Y-5708074D01*
X3073864Y-5765217D01*
X3064340Y-5784265D01*
X3054817Y-5793789D01*
X3035769Y-5803313D01*
X2997674Y-5803313D01*
X2978626Y-5793789D01*
X3159579Y-5784265D02*
X3169102Y-5793789D01*
X3159579Y-5803313D01*
X3150055Y-5793789D01*
X3159579Y-5784265D01*
X3159579Y-5803313D01*
X3159579Y-5679503D02*
X3169102Y-5689027D01*
X3159579Y-5698551D01*
X3150055Y-5689027D01*
X3159579Y-5679503D01*
X3159579Y-5698551D01*
D11*
X1490531Y-6112836D02*
X1530531Y-6152836D01*
X1530531Y-6112836D02*
X1490531Y-6152836D01*
D10*
X1826245Y-6023313D02*
X1845293Y-6023313D01*
X1864340Y-6032836D01*
X1873864Y-6042360D01*
X1883388Y-6061408D01*
X1892912Y-6099503D01*
X1892912Y-6147122D01*
X1883388Y-6185217D01*
X1873864Y-6204265D01*
X1864340Y-6213789D01*
X1845293Y-6223313D01*
X1826245Y-6223313D01*
X1807198Y-6213789D01*
X1797674Y-6204265D01*
X1788150Y-6185217D01*
X1778626Y-6147122D01*
X1778626Y-6099503D01*
X1788150Y-6061408D01*
X1797674Y-6042360D01*
X1807198Y-6032836D01*
X1826245Y-6023313D01*
X1978626Y-6204265D02*
X1988150Y-6213789D01*
X1978626Y-6223313D01*
X1969102Y-6213789D01*
X1978626Y-6204265D01*
X1978626Y-6223313D01*
X2159579Y-6089979D02*
X2159579Y-6223313D01*
X2111960Y-6013789D02*
X2064340Y-6156646D01*
X2188150Y-6156646D01*
X2302436Y-6023313D02*
X2321483Y-6023313D01*
X2340531Y-6032836D01*
X2350055Y-6042360D01*
X2359579Y-6061408D01*
X2369102Y-6099503D01*
X2369102Y-6147122D01*
X2359579Y-6185217D01*
X2350055Y-6204265D01*
X2340531Y-6213789D01*
X2321483Y-6223313D01*
X2302436Y-6223313D01*
X2283388Y-6213789D01*
X2273864Y-6204265D01*
X2264341Y-6185217D01*
X2254817Y-6147122D01*
X2254817Y-6099503D01*
X2264341Y-6061408D01*
X2273864Y-6042360D01*
X2283388Y-6032836D01*
X2302436Y-6023313D01*
X2492912Y-6023313D02*
X2511960Y-6023313D01*
X2531007Y-6032836D01*
X2540531Y-6042360D01*
X2550055Y-6061408D01*
X2559579Y-6099503D01*
X2559579Y-6147122D01*
X2550055Y-6185217D01*
X2540531Y-6204265D01*
X2531007Y-6213789D01*
X2511960Y-6223313D01*
X2492912Y-6223313D01*
X2473864Y-6213789D01*
X2464341Y-6204265D01*
X2454817Y-6185217D01*
X2445293Y-6147122D01*
X2445293Y-6099503D01*
X2454817Y-6061408D01*
X2464341Y-6042360D01*
X2473864Y-6032836D01*
X2492912Y-6023313D01*
X2645293Y-6223313D02*
X2645293Y-6089979D01*
X2645293Y-6109027D02*
X2654817Y-6099503D01*
X2673864Y-6089979D01*
X2702436Y-6089979D01*
X2721483Y-6099503D01*
X2731007Y-6118551D01*
X2731007Y-6223313D01*
X2731007Y-6118551D02*
X2740531Y-6099503D01*
X2759579Y-6089979D01*
X2788150Y-6089979D01*
X2807198Y-6099503D01*
X2816721Y-6118551D01*
X2816721Y-6223313D01*
X2911959Y-6223313D02*
X2911959Y-6089979D01*
X2911959Y-6109027D02*
X2921483Y-6099503D01*
X2940531Y-6089979D01*
X2969102Y-6089979D01*
X2988150Y-6099503D01*
X2997674Y-6118551D01*
X2997674Y-6223313D01*
X2997674Y-6118551D02*
X3007198Y-6099503D01*
X3026245Y-6089979D01*
X3054817Y-6089979D01*
X3073864Y-6099503D01*
X3083388Y-6118551D01*
X3083388Y-6223313D01*
X3473864Y-6013789D02*
X3302436Y-6270932D01*
X3731007Y-6023313D02*
X3750055Y-6023313D01*
X3769102Y-6032836D01*
X3778626Y-6042360D01*
X3788150Y-6061408D01*
X3797674Y-6099503D01*
X3797674Y-6147122D01*
X3788150Y-6185217D01*
X3778626Y-6204265D01*
X3769102Y-6213789D01*
X3750055Y-6223313D01*
X3731007Y-6223313D01*
X3711959Y-6213789D01*
X3702436Y-6204265D01*
X3692912Y-6185217D01*
X3683388Y-6147122D01*
X3683388Y-6099503D01*
X3692912Y-6061408D01*
X3702436Y-6042360D01*
X3711959Y-6032836D01*
X3731007Y-6023313D01*
X3883388Y-6204265D02*
X3892912Y-6213789D01*
X3883388Y-6223313D01*
X3873864Y-6213789D01*
X3883388Y-6204265D01*
X3883388Y-6223313D01*
X4016721Y-6023313D02*
X4035769Y-6023313D01*
X4054817Y-6032836D01*
X4064340Y-6042360D01*
X4073864Y-6061408D01*
X4083388Y-6099503D01*
X4083388Y-6147122D01*
X4073864Y-6185217D01*
X4064340Y-6204265D01*
X4054817Y-6213789D01*
X4035769Y-6223313D01*
X4016721Y-6223313D01*
X3997674Y-6213789D01*
X3988150Y-6204265D01*
X3978626Y-6185217D01*
X3969102Y-6147122D01*
X3969102Y-6099503D01*
X3978626Y-6061408D01*
X3988150Y-6042360D01*
X3997674Y-6032836D01*
X4016721Y-6023313D01*
X4273864Y-6223313D02*
X4159579Y-6223313D01*
X4216721Y-6223313D02*
X4216721Y-6023313D01*
X4197674Y-6051884D01*
X4178626Y-6070932D01*
X4159579Y-6080455D01*
X4454817Y-6023313D02*
X4359579Y-6023313D01*
X4350055Y-6118551D01*
X4359579Y-6109027D01*
X4378626Y-6099503D01*
X4426245Y-6099503D01*
X4445293Y-6109027D01*
X4454817Y-6118551D01*
X4464341Y-6137598D01*
X4464341Y-6185217D01*
X4454817Y-6204265D01*
X4445293Y-6213789D01*
X4426245Y-6223313D01*
X4378626Y-6223313D01*
X4359579Y-6213789D01*
X4350055Y-6204265D01*
X4531007Y-6023313D02*
X4664341Y-6023313D01*
X4578626Y-6223313D01*
X4731007Y-6023313D02*
X4731007Y-6061408D01*
X4807198Y-6023313D02*
X4807198Y-6061408D01*
X5102436Y-6299503D02*
X5092912Y-6289979D01*
X5073864Y-6261408D01*
X5064341Y-6242360D01*
X5054817Y-6213789D01*
X5045293Y-6166170D01*
X5045293Y-6128074D01*
X5054817Y-6080455D01*
X5064341Y-6051884D01*
X5073864Y-6032836D01*
X5092912Y-6004265D01*
X5102436Y-5994741D01*
X5188150Y-6223313D02*
X5226245Y-6223313D01*
X5245293Y-6213789D01*
X5254817Y-6204265D01*
X5273864Y-6175694D01*
X5283388Y-6137598D01*
X5283388Y-6061408D01*
X5273864Y-6042360D01*
X5264341Y-6032836D01*
X5245293Y-6023313D01*
X5207198Y-6023313D01*
X5188150Y-6032836D01*
X5178626Y-6042360D01*
X5169102Y-6061408D01*
X5169102Y-6109027D01*
X5178626Y-6128074D01*
X5188150Y-6137598D01*
X5207198Y-6147122D01*
X5245293Y-6147122D01*
X5264341Y-6137598D01*
X5273864Y-6128074D01*
X5283388Y-6109027D01*
X5407198Y-6023313D02*
X5426245Y-6023313D01*
X5445293Y-6032836D01*
X5454817Y-6042360D01*
X5464341Y-6061408D01*
X5473864Y-6099503D01*
X5473864Y-6147122D01*
X5464341Y-6185217D01*
X5454817Y-6204265D01*
X5445293Y-6213789D01*
X5426245Y-6223313D01*
X5407198Y-6223313D01*
X5388150Y-6213789D01*
X5378626Y-6204265D01*
X5369102Y-6185217D01*
X5359579Y-6147122D01*
X5359579Y-6099503D01*
X5369102Y-6061408D01*
X5378626Y-6042360D01*
X5388150Y-6032836D01*
X5407198Y-6023313D01*
X5711959Y-6223313D02*
X5711959Y-6023313D01*
X5797674Y-6223313D02*
X5797674Y-6118551D01*
X5788150Y-6099503D01*
X5769102Y-6089979D01*
X5740531Y-6089979D01*
X5721483Y-6099503D01*
X5711959Y-6109027D01*
X5921483Y-6223313D02*
X5902436Y-6213789D01*
X5892912Y-6204265D01*
X5883388Y-6185217D01*
X5883388Y-6128074D01*
X5892912Y-6109027D01*
X5902436Y-6099503D01*
X5921483Y-6089979D01*
X5950055Y-6089979D01*
X5969102Y-6099503D01*
X5978626Y-6109027D01*
X5988150Y-6128074D01*
X5988150Y-6185217D01*
X5978626Y-6204265D01*
X5969102Y-6213789D01*
X5950055Y-6223313D01*
X5921483Y-6223313D01*
X6102436Y-6223313D02*
X6083388Y-6213789D01*
X6073864Y-6194741D01*
X6073864Y-6023313D01*
X6254817Y-6213789D02*
X6235769Y-6223313D01*
X6197674Y-6223313D01*
X6178626Y-6213789D01*
X6169102Y-6194741D01*
X6169102Y-6118551D01*
X6178626Y-6099503D01*
X6197674Y-6089979D01*
X6235769Y-6089979D01*
X6254817Y-6099503D01*
X6264340Y-6118551D01*
X6264340Y-6137598D01*
X6169102Y-6156646D01*
X6340531Y-6213789D02*
X6359579Y-6223313D01*
X6397674Y-6223313D01*
X6416721Y-6213789D01*
X6426245Y-6194741D01*
X6426245Y-6185217D01*
X6416721Y-6166170D01*
X6397674Y-6156646D01*
X6369102Y-6156646D01*
X6350055Y-6147122D01*
X6340531Y-6128074D01*
X6340531Y-6118551D01*
X6350055Y-6099503D01*
X6369102Y-6089979D01*
X6397674Y-6089979D01*
X6416721Y-6099503D01*
X6492912Y-6299503D02*
X6502436Y-6289979D01*
X6521483Y-6261408D01*
X6531007Y-6242360D01*
X6540531Y-6213789D01*
X6550055Y-6166170D01*
X6550055Y-6128074D01*
X6540531Y-6080455D01*
X6531007Y-6051884D01*
X6521483Y-6032836D01*
X6502436Y-6004265D01*
X6492912Y-5994741D01*
D12*
X1530531Y-6396836D02*
G75*
G03*
X1530531Y-6396836I-50000J0D01*
G01*
D10*
X1892912Y-6487313D02*
X1778626Y-6487313D01*
X1835769Y-6487313D02*
X1835769Y-6287313D01*
X1816721Y-6315884D01*
X1797674Y-6334932D01*
X1778626Y-6344455D01*
X1978626Y-6468265D02*
X1988150Y-6477789D01*
X1978626Y-6487313D01*
X1969102Y-6477789D01*
X1978626Y-6468265D01*
X1978626Y-6487313D01*
X2111960Y-6287313D02*
X2131007Y-6287313D01*
X2150055Y-6296836D01*
X2159579Y-6306360D01*
X2169102Y-6325408D01*
X2178626Y-6363503D01*
X2178626Y-6411122D01*
X2169102Y-6449217D01*
X2159579Y-6468265D01*
X2150055Y-6477789D01*
X2131007Y-6487313D01*
X2111960Y-6487313D01*
X2092912Y-6477789D01*
X2083388Y-6468265D01*
X2073864Y-6449217D01*
X2064340Y-6411122D01*
X2064340Y-6363503D01*
X2073864Y-6325408D01*
X2083388Y-6306360D01*
X2092912Y-6296836D01*
X2111960Y-6287313D01*
X2302436Y-6287313D02*
X2321483Y-6287313D01*
X2340531Y-6296836D01*
X2350055Y-6306360D01*
X2359579Y-6325408D01*
X2369102Y-6363503D01*
X2369102Y-6411122D01*
X2359579Y-6449217D01*
X2350055Y-6468265D01*
X2340531Y-6477789D01*
X2321483Y-6487313D01*
X2302436Y-6487313D01*
X2283388Y-6477789D01*
X2273864Y-6468265D01*
X2264341Y-6449217D01*
X2254817Y-6411122D01*
X2254817Y-6363503D01*
X2264341Y-6325408D01*
X2273864Y-6306360D01*
X2283388Y-6296836D01*
X2302436Y-6287313D01*
X2492912Y-6287313D02*
X2511960Y-6287313D01*
X2531007Y-6296836D01*
X2540531Y-6306360D01*
X2550055Y-6325408D01*
X2559579Y-6363503D01*
X2559579Y-6411122D01*
X2550055Y-6449217D01*
X2540531Y-6468265D01*
X2531007Y-6477789D01*
X2511960Y-6487313D01*
X2492912Y-6487313D01*
X2473864Y-6477789D01*
X2464341Y-6468265D01*
X2454817Y-6449217D01*
X2445293Y-6411122D01*
X2445293Y-6363503D01*
X2454817Y-6325408D01*
X2464341Y-6306360D01*
X2473864Y-6296836D01*
X2492912Y-6287313D01*
X2645293Y-6487313D02*
X2645293Y-6353979D01*
X2645293Y-6373027D02*
X2654817Y-6363503D01*
X2673864Y-6353979D01*
X2702436Y-6353979D01*
X2721483Y-6363503D01*
X2731007Y-6382551D01*
X2731007Y-6487313D01*
X2731007Y-6382551D02*
X2740531Y-6363503D01*
X2759579Y-6353979D01*
X2788150Y-6353979D01*
X2807198Y-6363503D01*
X2816721Y-6382551D01*
X2816721Y-6487313D01*
X2911959Y-6487313D02*
X2911959Y-6353979D01*
X2911959Y-6373027D02*
X2921483Y-6363503D01*
X2940531Y-6353979D01*
X2969102Y-6353979D01*
X2988150Y-6363503D01*
X2997674Y-6382551D01*
X2997674Y-6487313D01*
X2997674Y-6382551D02*
X3007198Y-6363503D01*
X3026245Y-6353979D01*
X3054817Y-6353979D01*
X3073864Y-6363503D01*
X3083388Y-6382551D01*
X3083388Y-6487313D01*
X3473864Y-6277789D02*
X3302436Y-6534932D01*
X3731007Y-6287313D02*
X3750055Y-6287313D01*
X3769102Y-6296836D01*
X3778626Y-6306360D01*
X3788150Y-6325408D01*
X3797674Y-6363503D01*
X3797674Y-6411122D01*
X3788150Y-6449217D01*
X3778626Y-6468265D01*
X3769102Y-6477789D01*
X3750055Y-6487313D01*
X3731007Y-6487313D01*
X3711959Y-6477789D01*
X3702436Y-6468265D01*
X3692912Y-6449217D01*
X3683388Y-6411122D01*
X3683388Y-6363503D01*
X3692912Y-6325408D01*
X3702436Y-6306360D01*
X3711959Y-6296836D01*
X3731007Y-6287313D01*
X3883388Y-6468265D02*
X3892912Y-6477789D01*
X3883388Y-6487313D01*
X3873864Y-6477789D01*
X3883388Y-6468265D01*
X3883388Y-6487313D01*
X4016721Y-6287313D02*
X4035769Y-6287313D01*
X4054817Y-6296836D01*
X4064340Y-6306360D01*
X4073864Y-6325408D01*
X4083388Y-6363503D01*
X4083388Y-6411122D01*
X4073864Y-6449217D01*
X4064340Y-6468265D01*
X4054817Y-6477789D01*
X4035769Y-6487313D01*
X4016721Y-6487313D01*
X3997674Y-6477789D01*
X3988150Y-6468265D01*
X3978626Y-6449217D01*
X3969102Y-6411122D01*
X3969102Y-6363503D01*
X3978626Y-6325408D01*
X3988150Y-6306360D01*
X3997674Y-6296836D01*
X4016721Y-6287313D01*
X4150055Y-6287313D02*
X4273864Y-6287313D01*
X4207198Y-6363503D01*
X4235769Y-6363503D01*
X4254817Y-6373027D01*
X4264341Y-6382551D01*
X4273864Y-6401598D01*
X4273864Y-6449217D01*
X4264341Y-6468265D01*
X4254817Y-6477789D01*
X4235769Y-6487313D01*
X4178626Y-6487313D01*
X4159579Y-6477789D01*
X4150055Y-6468265D01*
X4369102Y-6487313D02*
X4407198Y-6487313D01*
X4426245Y-6477789D01*
X4435769Y-6468265D01*
X4454817Y-6439694D01*
X4464341Y-6401598D01*
X4464341Y-6325408D01*
X4454817Y-6306360D01*
X4445293Y-6296836D01*
X4426245Y-6287313D01*
X4388150Y-6287313D01*
X4369102Y-6296836D01*
X4359579Y-6306360D01*
X4350055Y-6325408D01*
X4350055Y-6373027D01*
X4359579Y-6392074D01*
X4369102Y-6401598D01*
X4388150Y-6411122D01*
X4426245Y-6411122D01*
X4445293Y-6401598D01*
X4454817Y-6392074D01*
X4464341Y-6373027D01*
X4635769Y-6353979D02*
X4635769Y-6487313D01*
X4588150Y-6277789D02*
X4540531Y-6420646D01*
X4664341Y-6420646D01*
X4731007Y-6287313D02*
X4731007Y-6325408D01*
X4807198Y-6287313D02*
X4807198Y-6325408D01*
X5102436Y-6563503D02*
X5092912Y-6553979D01*
X5073864Y-6525408D01*
X5064341Y-6506360D01*
X5054817Y-6477789D01*
X5045293Y-6430170D01*
X5045293Y-6392074D01*
X5054817Y-6344455D01*
X5064341Y-6315884D01*
X5073864Y-6296836D01*
X5092912Y-6268265D01*
X5102436Y-6258741D01*
X5169102Y-6306360D02*
X5178626Y-6296836D01*
X5197674Y-6287313D01*
X5245293Y-6287313D01*
X5264341Y-6296836D01*
X5273864Y-6306360D01*
X5283388Y-6325408D01*
X5283388Y-6344455D01*
X5273864Y-6373027D01*
X5159579Y-6487313D01*
X5283388Y-6487313D01*
X5454817Y-6353979D02*
X5454817Y-6487313D01*
X5407198Y-6277789D02*
X5359579Y-6420646D01*
X5483388Y-6420646D01*
X5711959Y-6487313D02*
X5711959Y-6287313D01*
X5797674Y-6487313D02*
X5797674Y-6382551D01*
X5788150Y-6363503D01*
X5769102Y-6353979D01*
X5740531Y-6353979D01*
X5721483Y-6363503D01*
X5711959Y-6373027D01*
X5921483Y-6487313D02*
X5902436Y-6477789D01*
X5892912Y-6468265D01*
X5883388Y-6449217D01*
X5883388Y-6392074D01*
X5892912Y-6373027D01*
X5902436Y-6363503D01*
X5921483Y-6353979D01*
X5950055Y-6353979D01*
X5969102Y-6363503D01*
X5978626Y-6373027D01*
X5988150Y-6392074D01*
X5988150Y-6449217D01*
X5978626Y-6468265D01*
X5969102Y-6477789D01*
X5950055Y-6487313D01*
X5921483Y-6487313D01*
X6102436Y-6487313D02*
X6083388Y-6477789D01*
X6073864Y-6458741D01*
X6073864Y-6287313D01*
X6254817Y-6477789D02*
X6235769Y-6487313D01*
X6197674Y-6487313D01*
X6178626Y-6477789D01*
X6169102Y-6458741D01*
X6169102Y-6382551D01*
X6178626Y-6363503D01*
X6197674Y-6353979D01*
X6235769Y-6353979D01*
X6254817Y-6363503D01*
X6264340Y-6382551D01*
X6264340Y-6401598D01*
X6169102Y-6420646D01*
X6340531Y-6477789D02*
X6359579Y-6487313D01*
X6397674Y-6487313D01*
X6416721Y-6477789D01*
X6426245Y-6458741D01*
X6426245Y-6449217D01*
X6416721Y-6430170D01*
X6397674Y-6420646D01*
X6369102Y-6420646D01*
X6350055Y-6411122D01*
X6340531Y-6392074D01*
X6340531Y-6382551D01*
X6350055Y-6363503D01*
X6369102Y-6353979D01*
X6397674Y-6353979D01*
X6416721Y-6363503D01*
X6492912Y-6563503D02*
X6502436Y-6553979D01*
X6521483Y-6525408D01*
X6531007Y-6506360D01*
X6540531Y-6477789D01*
X6550055Y-6430170D01*
X6550055Y-6392074D01*
X6540531Y-6344455D01*
X6531007Y-6315884D01*
X6521483Y-6296836D01*
X6502436Y-6268265D01*
X6492912Y-6258741D01*
D13*
X1457031Y-6587336D02*
X1457031Y-6734336D01*
X1383531Y-6660836D02*
X1530531Y-6660836D01*
D10*
X1892912Y-6751313D02*
X1778626Y-6751313D01*
X1835769Y-6751313D02*
X1835769Y-6551313D01*
X1816721Y-6579884D01*
X1797674Y-6598932D01*
X1778626Y-6608455D01*
X1978626Y-6732265D02*
X1988150Y-6741789D01*
X1978626Y-6751313D01*
X1969102Y-6741789D01*
X1978626Y-6732265D01*
X1978626Y-6751313D01*
X2159579Y-6617979D02*
X2159579Y-6751313D01*
X2111960Y-6541789D02*
X2064340Y-6684646D01*
X2188150Y-6684646D01*
X2245293Y-6551313D02*
X2378626Y-6551313D01*
X2292912Y-6751313D01*
X2492912Y-6551313D02*
X2511960Y-6551313D01*
X2531007Y-6560836D01*
X2540531Y-6570360D01*
X2550055Y-6589408D01*
X2559579Y-6627503D01*
X2559579Y-6675122D01*
X2550055Y-6713217D01*
X2540531Y-6732265D01*
X2531007Y-6741789D01*
X2511960Y-6751313D01*
X2492912Y-6751313D01*
X2473864Y-6741789D01*
X2464341Y-6732265D01*
X2454817Y-6713217D01*
X2445293Y-6675122D01*
X2445293Y-6627503D01*
X2454817Y-6589408D01*
X2464341Y-6570360D01*
X2473864Y-6560836D01*
X2492912Y-6551313D01*
X2645293Y-6751313D02*
X2645293Y-6617979D01*
X2645293Y-6637027D02*
X2654817Y-6627503D01*
X2673864Y-6617979D01*
X2702436Y-6617979D01*
X2721483Y-6627503D01*
X2731007Y-6646551D01*
X2731007Y-6751313D01*
X2731007Y-6646551D02*
X2740531Y-6627503D01*
X2759579Y-6617979D01*
X2788150Y-6617979D01*
X2807198Y-6627503D01*
X2816721Y-6646551D01*
X2816721Y-6751313D01*
X2911959Y-6751313D02*
X2911959Y-6617979D01*
X2911959Y-6637027D02*
X2921483Y-6627503D01*
X2940531Y-6617979D01*
X2969102Y-6617979D01*
X2988150Y-6627503D01*
X2997674Y-6646551D01*
X2997674Y-6751313D01*
X2997674Y-6646551D02*
X3007198Y-6627503D01*
X3026245Y-6617979D01*
X3054817Y-6617979D01*
X3073864Y-6627503D01*
X3083388Y-6646551D01*
X3083388Y-6751313D01*
X3473864Y-6541789D02*
X3302436Y-6798932D01*
X3731007Y-6551313D02*
X3750055Y-6551313D01*
X3769102Y-6560836D01*
X3778626Y-6570360D01*
X3788150Y-6589408D01*
X3797674Y-6627503D01*
X3797674Y-6675122D01*
X3788150Y-6713217D01*
X3778626Y-6732265D01*
X3769102Y-6741789D01*
X3750055Y-6751313D01*
X3731007Y-6751313D01*
X3711959Y-6741789D01*
X3702436Y-6732265D01*
X3692912Y-6713217D01*
X3683388Y-6675122D01*
X3683388Y-6627503D01*
X3692912Y-6589408D01*
X3702436Y-6570360D01*
X3711959Y-6560836D01*
X3731007Y-6551313D01*
X3883388Y-6732265D02*
X3892912Y-6741789D01*
X3883388Y-6751313D01*
X3873864Y-6741789D01*
X3883388Y-6732265D01*
X3883388Y-6751313D01*
X4016721Y-6551313D02*
X4035769Y-6551313D01*
X4054817Y-6560836D01*
X4064340Y-6570360D01*
X4073864Y-6589408D01*
X4083388Y-6627503D01*
X4083388Y-6675122D01*
X4073864Y-6713217D01*
X4064340Y-6732265D01*
X4054817Y-6741789D01*
X4035769Y-6751313D01*
X4016721Y-6751313D01*
X3997674Y-6741789D01*
X3988150Y-6732265D01*
X3978626Y-6713217D01*
X3969102Y-6675122D01*
X3969102Y-6627503D01*
X3978626Y-6589408D01*
X3988150Y-6570360D01*
X3997674Y-6560836D01*
X4016721Y-6551313D01*
X4264341Y-6551313D02*
X4169102Y-6551313D01*
X4159579Y-6646551D01*
X4169102Y-6637027D01*
X4188150Y-6627503D01*
X4235769Y-6627503D01*
X4254817Y-6637027D01*
X4264341Y-6646551D01*
X4273864Y-6665598D01*
X4273864Y-6713217D01*
X4264341Y-6732265D01*
X4254817Y-6741789D01*
X4235769Y-6751313D01*
X4188150Y-6751313D01*
X4169102Y-6741789D01*
X4159579Y-6732265D01*
X4340531Y-6551313D02*
X4473864Y-6551313D01*
X4388150Y-6751313D01*
X4559579Y-6751313D02*
X4597674Y-6751313D01*
X4616721Y-6741789D01*
X4626245Y-6732265D01*
X4645293Y-6703694D01*
X4654817Y-6665598D01*
X4654817Y-6589408D01*
X4645293Y-6570360D01*
X4635769Y-6560836D01*
X4616721Y-6551313D01*
X4578626Y-6551313D01*
X4559579Y-6560836D01*
X4550055Y-6570360D01*
X4540531Y-6589408D01*
X4540531Y-6637027D01*
X4550055Y-6656074D01*
X4559579Y-6665598D01*
X4578626Y-6675122D01*
X4616721Y-6675122D01*
X4635769Y-6665598D01*
X4645293Y-6656074D01*
X4654817Y-6637027D01*
X4731007Y-6551313D02*
X4731007Y-6589408D01*
X4807198Y-6551313D02*
X4807198Y-6589408D01*
X5102436Y-6827503D02*
X5092912Y-6817979D01*
X5073864Y-6789408D01*
X5064341Y-6770360D01*
X5054817Y-6741789D01*
X5045293Y-6694170D01*
X5045293Y-6656074D01*
X5054817Y-6608455D01*
X5064341Y-6579884D01*
X5073864Y-6560836D01*
X5092912Y-6532265D01*
X5102436Y-6522741D01*
X5159579Y-6551313D02*
X5283388Y-6551313D01*
X5216721Y-6627503D01*
X5245293Y-6627503D01*
X5264341Y-6637027D01*
X5273864Y-6646551D01*
X5283388Y-6665598D01*
X5283388Y-6713217D01*
X5273864Y-6732265D01*
X5264341Y-6741789D01*
X5245293Y-6751313D01*
X5188150Y-6751313D01*
X5169102Y-6741789D01*
X5159579Y-6732265D01*
X5397674Y-6637027D02*
X5378626Y-6627503D01*
X5369102Y-6617979D01*
X5359579Y-6598932D01*
X5359579Y-6589408D01*
X5369102Y-6570360D01*
X5378626Y-6560836D01*
X5397674Y-6551313D01*
X5435769Y-6551313D01*
X5454817Y-6560836D01*
X5464341Y-6570360D01*
X5473864Y-6589408D01*
X5473864Y-6598932D01*
X5464341Y-6617979D01*
X5454817Y-6627503D01*
X5435769Y-6637027D01*
X5397674Y-6637027D01*
X5378626Y-6646551D01*
X5369102Y-6656074D01*
X5359579Y-6675122D01*
X5359579Y-6713217D01*
X5369102Y-6732265D01*
X5378626Y-6741789D01*
X5397674Y-6751313D01*
X5435769Y-6751313D01*
X5454817Y-6741789D01*
X5464341Y-6732265D01*
X5473864Y-6713217D01*
X5473864Y-6675122D01*
X5464341Y-6656074D01*
X5454817Y-6646551D01*
X5435769Y-6637027D01*
X5711959Y-6751313D02*
X5711959Y-6551313D01*
X5797674Y-6751313D02*
X5797674Y-6646551D01*
X5788150Y-6627503D01*
X5769102Y-6617979D01*
X5740531Y-6617979D01*
X5721483Y-6627503D01*
X5711959Y-6637027D01*
X5921483Y-6751313D02*
X5902436Y-6741789D01*
X5892912Y-6732265D01*
X5883388Y-6713217D01*
X5883388Y-6656074D01*
X5892912Y-6637027D01*
X5902436Y-6627503D01*
X5921483Y-6617979D01*
X5950055Y-6617979D01*
X5969102Y-6627503D01*
X5978626Y-6637027D01*
X5988150Y-6656074D01*
X5988150Y-6713217D01*
X5978626Y-6732265D01*
X5969102Y-6741789D01*
X5950055Y-6751313D01*
X5921483Y-6751313D01*
X6102436Y-6751313D02*
X6083388Y-6741789D01*
X6073864Y-6722741D01*
X6073864Y-6551313D01*
X6254817Y-6741789D02*
X6235769Y-6751313D01*
X6197674Y-6751313D01*
X6178626Y-6741789D01*
X6169102Y-6722741D01*
X6169102Y-6646551D01*
X6178626Y-6627503D01*
X6197674Y-6617979D01*
X6235769Y-6617979D01*
X6254817Y-6627503D01*
X6264340Y-6646551D01*
X6264340Y-6665598D01*
X6169102Y-6684646D01*
X6340531Y-6741789D02*
X6359579Y-6751313D01*
X6397674Y-6751313D01*
X6416721Y-6741789D01*
X6426245Y-6722741D01*
X6426245Y-6713217D01*
X6416721Y-6694170D01*
X6397674Y-6684646D01*
X6369102Y-6684646D01*
X6350055Y-6675122D01*
X6340531Y-6656074D01*
X6340531Y-6646551D01*
X6350055Y-6627503D01*
X6369102Y-6617979D01*
X6397674Y-6617979D01*
X6416721Y-6627503D01*
X6492912Y-6827503D02*
X6502436Y-6817979D01*
X6521483Y-6789408D01*
X6531007Y-6770360D01*
X6540531Y-6741789D01*
X6550055Y-6694170D01*
X6550055Y-6656074D01*
X6540531Y-6608455D01*
X6531007Y-6579884D01*
X6521483Y-6560836D01*
X6502436Y-6532265D01*
X6492912Y-6522741D01*
X1501242Y-6998548D02*
X1501242Y-6857125D01*
X1359820Y-6857125D01*
X1359820Y-6998548D01*
X1501242Y-6998548D01*
X1778626Y-6837360D02*
X1788150Y-6827836D01*
X1807198Y-6818313D01*
X1854817Y-6818313D01*
X1873864Y-6827836D01*
X1883388Y-6837360D01*
X1892912Y-6856408D01*
X1892912Y-6875455D01*
X1883388Y-6904027D01*
X1769102Y-7018313D01*
X1892912Y-7018313D01*
X1978626Y-6999265D02*
X1988150Y-7008789D01*
X1978626Y-7018313D01*
X1969102Y-7008789D01*
X1978626Y-6999265D01*
X1978626Y-7018313D01*
X2064340Y-6837360D02*
X2073864Y-6827836D01*
X2092912Y-6818313D01*
X2140531Y-6818313D01*
X2159579Y-6827836D01*
X2169102Y-6837360D01*
X2178626Y-6856408D01*
X2178626Y-6875455D01*
X2169102Y-6904027D01*
X2054817Y-7018313D01*
X2178626Y-7018313D01*
X2302436Y-6818313D02*
X2321483Y-6818313D01*
X2340531Y-6827836D01*
X2350055Y-6837360D01*
X2359579Y-6856408D01*
X2369102Y-6894503D01*
X2369102Y-6942122D01*
X2359579Y-6980217D01*
X2350055Y-6999265D01*
X2340531Y-7008789D01*
X2321483Y-7018313D01*
X2302436Y-7018313D01*
X2283388Y-7008789D01*
X2273864Y-6999265D01*
X2264341Y-6980217D01*
X2254817Y-6942122D01*
X2254817Y-6894503D01*
X2264341Y-6856408D01*
X2273864Y-6837360D01*
X2283388Y-6827836D01*
X2302436Y-6818313D01*
X2492912Y-6818313D02*
X2511960Y-6818313D01*
X2531007Y-6827836D01*
X2540531Y-6837360D01*
X2550055Y-6856408D01*
X2559579Y-6894503D01*
X2559579Y-6942122D01*
X2550055Y-6980217D01*
X2540531Y-6999265D01*
X2531007Y-7008789D01*
X2511960Y-7018313D01*
X2492912Y-7018313D01*
X2473864Y-7008789D01*
X2464341Y-6999265D01*
X2454817Y-6980217D01*
X2445293Y-6942122D01*
X2445293Y-6894503D01*
X2454817Y-6856408D01*
X2464341Y-6837360D01*
X2473864Y-6827836D01*
X2492912Y-6818313D01*
X2645293Y-7018313D02*
X2645293Y-6884979D01*
X2645293Y-6904027D02*
X2654817Y-6894503D01*
X2673864Y-6884979D01*
X2702436Y-6884979D01*
X2721483Y-6894503D01*
X2731007Y-6913551D01*
X2731007Y-7018313D01*
X2731007Y-6913551D02*
X2740531Y-6894503D01*
X2759579Y-6884979D01*
X2788150Y-6884979D01*
X2807198Y-6894503D01*
X2816721Y-6913551D01*
X2816721Y-7018313D01*
X2911959Y-7018313D02*
X2911959Y-6884979D01*
X2911959Y-6904027D02*
X2921483Y-6894503D01*
X2940531Y-6884979D01*
X2969102Y-6884979D01*
X2988150Y-6894503D01*
X2997674Y-6913551D01*
X2997674Y-7018313D01*
X2997674Y-6913551D02*
X3007198Y-6894503D01*
X3026245Y-6884979D01*
X3054817Y-6884979D01*
X3073864Y-6894503D01*
X3083388Y-6913551D01*
X3083388Y-7018313D01*
X3473864Y-6808789D02*
X3302436Y-7065932D01*
X3731007Y-6818313D02*
X3750055Y-6818313D01*
X3769102Y-6827836D01*
X3778626Y-6837360D01*
X3788150Y-6856408D01*
X3797674Y-6894503D01*
X3797674Y-6942122D01*
X3788150Y-6980217D01*
X3778626Y-6999265D01*
X3769102Y-7008789D01*
X3750055Y-7018313D01*
X3731007Y-7018313D01*
X3711959Y-7008789D01*
X3702436Y-6999265D01*
X3692912Y-6980217D01*
X3683388Y-6942122D01*
X3683388Y-6894503D01*
X3692912Y-6856408D01*
X3702436Y-6837360D01*
X3711959Y-6827836D01*
X3731007Y-6818313D01*
X3883388Y-6999265D02*
X3892912Y-7008789D01*
X3883388Y-7018313D01*
X3873864Y-7008789D01*
X3883388Y-6999265D01*
X3883388Y-7018313D01*
X4016721Y-6818313D02*
X4035769Y-6818313D01*
X4054817Y-6827836D01*
X4064340Y-6837360D01*
X4073864Y-6856408D01*
X4083388Y-6894503D01*
X4083388Y-6942122D01*
X4073864Y-6980217D01*
X4064340Y-6999265D01*
X4054817Y-7008789D01*
X4035769Y-7018313D01*
X4016721Y-7018313D01*
X3997674Y-7008789D01*
X3988150Y-6999265D01*
X3978626Y-6980217D01*
X3969102Y-6942122D01*
X3969102Y-6894503D01*
X3978626Y-6856408D01*
X3988150Y-6837360D01*
X3997674Y-6827836D01*
X4016721Y-6818313D01*
X4197674Y-6904027D02*
X4178626Y-6894503D01*
X4169102Y-6884979D01*
X4159579Y-6865932D01*
X4159579Y-6856408D01*
X4169102Y-6837360D01*
X4178626Y-6827836D01*
X4197674Y-6818313D01*
X4235769Y-6818313D01*
X4254817Y-6827836D01*
X4264341Y-6837360D01*
X4273864Y-6856408D01*
X4273864Y-6865932D01*
X4264341Y-6884979D01*
X4254817Y-6894503D01*
X4235769Y-6904027D01*
X4197674Y-6904027D01*
X4178626Y-6913551D01*
X4169102Y-6923074D01*
X4159579Y-6942122D01*
X4159579Y-6980217D01*
X4169102Y-6999265D01*
X4178626Y-7008789D01*
X4197674Y-7018313D01*
X4235769Y-7018313D01*
X4254817Y-7008789D01*
X4264341Y-6999265D01*
X4273864Y-6980217D01*
X4273864Y-6942122D01*
X4264341Y-6923074D01*
X4254817Y-6913551D01*
X4235769Y-6904027D01*
X4445293Y-6818313D02*
X4407198Y-6818313D01*
X4388150Y-6827836D01*
X4378626Y-6837360D01*
X4359579Y-6865932D01*
X4350055Y-6904027D01*
X4350055Y-6980217D01*
X4359579Y-6999265D01*
X4369102Y-7008789D01*
X4388150Y-7018313D01*
X4426245Y-7018313D01*
X4445293Y-7008789D01*
X4454817Y-6999265D01*
X4464341Y-6980217D01*
X4464341Y-6932598D01*
X4454817Y-6913551D01*
X4445293Y-6904027D01*
X4426245Y-6894503D01*
X4388150Y-6894503D01*
X4369102Y-6904027D01*
X4359579Y-6913551D01*
X4350055Y-6932598D01*
X4635769Y-6818313D02*
X4597674Y-6818313D01*
X4578626Y-6827836D01*
X4569102Y-6837360D01*
X4550055Y-6865932D01*
X4540531Y-6904027D01*
X4540531Y-6980217D01*
X4550055Y-6999265D01*
X4559579Y-7008789D01*
X4578626Y-7018313D01*
X4616721Y-7018313D01*
X4635769Y-7008789D01*
X4645293Y-6999265D01*
X4654817Y-6980217D01*
X4654817Y-6932598D01*
X4645293Y-6913551D01*
X4635769Y-6904027D01*
X4616721Y-6894503D01*
X4578626Y-6894503D01*
X4559579Y-6904027D01*
X4550055Y-6913551D01*
X4540531Y-6932598D01*
X4731007Y-6818313D02*
X4731007Y-6856408D01*
X4807198Y-6818313D02*
X4807198Y-6856408D01*
X5102436Y-7094503D02*
X5092912Y-7084979D01*
X5073864Y-7056408D01*
X5064341Y-7037360D01*
X5054817Y-7008789D01*
X5045293Y-6961170D01*
X5045293Y-6923074D01*
X5054817Y-6875455D01*
X5064341Y-6846884D01*
X5073864Y-6827836D01*
X5092912Y-6799265D01*
X5102436Y-6789741D01*
X5207198Y-6904027D02*
X5188150Y-6894503D01*
X5178626Y-6884979D01*
X5169102Y-6865932D01*
X5169102Y-6856408D01*
X5178626Y-6837360D01*
X5188150Y-6827836D01*
X5207198Y-6818313D01*
X5245293Y-6818313D01*
X5264341Y-6827836D01*
X5273864Y-6837360D01*
X5283388Y-6856408D01*
X5283388Y-6865932D01*
X5273864Y-6884979D01*
X5264341Y-6894503D01*
X5245293Y-6904027D01*
X5207198Y-6904027D01*
X5188150Y-6913551D01*
X5178626Y-6923074D01*
X5169102Y-6942122D01*
X5169102Y-6980217D01*
X5178626Y-6999265D01*
X5188150Y-7008789D01*
X5207198Y-7018313D01*
X5245293Y-7018313D01*
X5264341Y-7008789D01*
X5273864Y-6999265D01*
X5283388Y-6980217D01*
X5283388Y-6942122D01*
X5273864Y-6923074D01*
X5264341Y-6913551D01*
X5245293Y-6904027D01*
X5521483Y-7018313D02*
X5521483Y-6818313D01*
X5607198Y-7018313D02*
X5607198Y-6913551D01*
X5597674Y-6894503D01*
X5578626Y-6884979D01*
X5550055Y-6884979D01*
X5531007Y-6894503D01*
X5521483Y-6904027D01*
X5731007Y-7018313D02*
X5711959Y-7008789D01*
X5702436Y-6999265D01*
X5692912Y-6980217D01*
X5692912Y-6923074D01*
X5702436Y-6904027D01*
X5711959Y-6894503D01*
X5731007Y-6884979D01*
X5759579Y-6884979D01*
X5778626Y-6894503D01*
X5788150Y-6904027D01*
X5797674Y-6923074D01*
X5797674Y-6980217D01*
X5788150Y-6999265D01*
X5778626Y-7008789D01*
X5759579Y-7018313D01*
X5731007Y-7018313D01*
X5911959Y-7018313D02*
X5892912Y-7008789D01*
X5883388Y-6989741D01*
X5883388Y-6818313D01*
X6064340Y-7008789D02*
X6045293Y-7018313D01*
X6007198Y-7018313D01*
X5988150Y-7008789D01*
X5978626Y-6989741D01*
X5978626Y-6913551D01*
X5988150Y-6894503D01*
X6007198Y-6884979D01*
X6045293Y-6884979D01*
X6064340Y-6894503D01*
X6073864Y-6913551D01*
X6073864Y-6932598D01*
X5978626Y-6951646D01*
X6150055Y-7008789D02*
X6169102Y-7018313D01*
X6207198Y-7018313D01*
X6226245Y-7008789D01*
X6235769Y-6989741D01*
X6235769Y-6980217D01*
X6226245Y-6961170D01*
X6207198Y-6951646D01*
X6178626Y-6951646D01*
X6159579Y-6942122D01*
X6150055Y-6923074D01*
X6150055Y-6913551D01*
X6159579Y-6894503D01*
X6178626Y-6884979D01*
X6207198Y-6884979D01*
X6226245Y-6894503D01*
X6302436Y-7094503D02*
X6311959Y-7084979D01*
X6331007Y-7056408D01*
X6340531Y-7037360D01*
X6350055Y-7008789D01*
X6359579Y-6961170D01*
X6359579Y-6923074D01*
X6350055Y-6875455D01*
X6340531Y-6846884D01*
X6331007Y-6827836D01*
X6311959Y-6799265D01*
X6302436Y-6789741D01*
M02*
