%TF.GenerationSoftware,KiCad,Pcbnew,(6.0.10-0)*%
%TF.CreationDate,2023-02-16T10:13:10+09:00*%
%TF.ProjectId,Sandy_Top,53616e64-795f-4546-9f70-2e6b69636164,v.0*%
%TF.SameCoordinates,Original*%
%TF.FileFunction,Drillmap*%
%TF.FilePolarity,Positive*%
%FSLAX45Y45*%
G04 Gerber Fmt 4.5, Leading zero omitted, Abs format (unit mm)*
G04 Created by KiCad (PCBNEW (6.0.10-0)) date 2023-02-16 10:13:10*
%MOMM*%
%LPD*%
G01*
G04 APERTURE LIST*
%ADD10C,0.200000*%
%ADD11C,0.175000*%
%ADD12C,0.398780*%
G04 APERTURE END LIST*
D10*
D11*
X1867531Y-2612841D02*
X2042531Y-2787841D01*
X2042531Y-2612841D02*
X1867531Y-2787841D01*
X2883531Y-2612841D02*
X3058531Y-2787841D01*
X3058531Y-2612841D02*
X2883531Y-2787841D01*
X3772531Y-2612841D02*
X3947531Y-2787841D01*
X3947531Y-2612841D02*
X3772531Y-2787841D01*
X4788531Y-2612841D02*
X4963531Y-2787841D01*
X4963531Y-2612841D02*
X4788531Y-2787841D01*
X5677531Y-2612841D02*
X5852531Y-2787841D01*
X5852531Y-2612841D02*
X5677531Y-2787841D01*
X6693531Y-2612841D02*
X6868531Y-2787841D01*
X6868531Y-2612841D02*
X6693531Y-2787841D01*
X7582531Y-2612841D02*
X7757531Y-2787841D01*
X7757531Y-2612841D02*
X7582531Y-2787841D01*
X8598531Y-2612841D02*
X8773531Y-2787841D01*
X8773531Y-2612841D02*
X8598531Y-2787841D01*
X9487531Y-2612841D02*
X9662531Y-2787841D01*
X9662531Y-2612841D02*
X9487531Y-2787841D01*
X10503531Y-2612841D02*
X10678531Y-2787841D01*
X10678531Y-2612841D02*
X10503531Y-2787841D01*
X11392531Y-2612841D02*
X11567531Y-2787841D01*
X11567531Y-2612841D02*
X11392531Y-2787841D01*
X12345031Y-4517841D02*
X12520031Y-4692841D01*
X12520031Y-4517841D02*
X12345031Y-4692841D01*
X12408531Y-2612841D02*
X12583531Y-2787841D01*
X12583531Y-2612841D02*
X12408531Y-2787841D01*
X13297531Y-2612841D02*
X13472531Y-2787841D01*
X13472531Y-2612841D02*
X13297531Y-2787841D01*
X13361031Y-4517841D02*
X13536031Y-4692841D01*
X13536031Y-4517841D02*
X13361031Y-4692841D01*
X14250031Y-4517841D02*
X14425031Y-4692841D01*
X14425031Y-4517841D02*
X14250031Y-4692841D01*
X14313531Y-2612841D02*
X14488531Y-2787841D01*
X14488531Y-2612841D02*
X14313531Y-2787841D01*
X15195343Y-2612841D02*
X15370343Y-2787841D01*
X15370343Y-2612841D02*
X15195343Y-2787841D01*
X15266031Y-4517841D02*
X15441031Y-4692841D01*
X15441031Y-4517841D02*
X15266031Y-4692841D01*
X16155031Y-4517841D02*
X16330031Y-4692841D01*
X16330031Y-4517841D02*
X16155031Y-4692841D01*
X16211343Y-2612841D02*
X16386343Y-2787841D01*
X16386343Y-2612841D02*
X16211343Y-2787841D01*
X17107531Y-2612841D02*
X17282531Y-2787841D01*
X17282531Y-2612841D02*
X17107531Y-2787841D01*
X17171031Y-4517841D02*
X17346031Y-4692841D01*
X17346031Y-4517841D02*
X17171031Y-4692841D01*
X18060031Y-4517841D02*
X18235031Y-4692841D01*
X18235031Y-4517841D02*
X18060031Y-4692841D01*
X18123531Y-2612841D02*
X18298531Y-2787841D01*
X18298531Y-2612841D02*
X18123531Y-2787841D01*
X19012531Y-2612841D02*
X19187531Y-2787841D01*
X19187531Y-2612841D02*
X19012531Y-2787841D01*
X19076031Y-4517841D02*
X19251031Y-4692841D01*
X19251031Y-4517841D02*
X19076031Y-4692841D01*
X20028531Y-2612841D02*
X20203531Y-2787841D01*
X20203531Y-2612841D02*
X20028531Y-2787841D01*
X20917531Y-2612841D02*
X21092531Y-2787841D01*
X21092531Y-2612841D02*
X20917531Y-2787841D01*
X21933531Y-2612841D02*
X22108531Y-2787841D01*
X22108531Y-2612841D02*
X21933531Y-2787841D01*
X22822531Y-2612841D02*
X22997531Y-2787841D01*
X22997531Y-2612841D02*
X22822531Y-2787841D01*
X23838531Y-2612841D02*
X24013531Y-2787841D01*
X24013531Y-2612841D02*
X23838531Y-2787841D01*
X24727531Y-2612841D02*
X24902531Y-2787841D01*
X24902531Y-2612841D02*
X24727531Y-2787841D01*
X25743531Y-2612841D02*
X25918531Y-2787841D01*
X25918531Y-2612841D02*
X25743531Y-2787841D01*
X26632531Y-2612841D02*
X26807531Y-2787841D01*
X26807531Y-2612841D02*
X26632531Y-2787841D01*
X27648531Y-2612841D02*
X27823531Y-2787841D01*
X27823531Y-2612841D02*
X27648531Y-2787841D01*
X28537531Y-2612841D02*
X28712531Y-2787841D01*
X28712531Y-2612841D02*
X28537531Y-2787841D01*
X29553531Y-2612841D02*
X29728531Y-2787841D01*
X29728531Y-2612841D02*
X29553531Y-2787841D01*
D12*
X2662421Y-2700341D02*
G75*
G03*
X2662421Y-2700341I-199390J0D01*
G01*
X4567421Y-2700341D02*
G75*
G03*
X4567421Y-2700341I-199390J0D01*
G01*
X6472421Y-2700341D02*
G75*
G03*
X6472421Y-2700341I-199390J0D01*
G01*
X8377421Y-2700341D02*
G75*
G03*
X8377421Y-2700341I-199390J0D01*
G01*
X10282421Y-2700341D02*
G75*
G03*
X10282421Y-2700341I-199390J0D01*
G01*
X12187421Y-2700341D02*
G75*
G03*
X12187421Y-2700341I-199390J0D01*
G01*
X13139921Y-4605341D02*
G75*
G03*
X13139921Y-4605341I-199390J0D01*
G01*
X14092421Y-2700341D02*
G75*
G03*
X14092421Y-2700341I-199390J0D01*
G01*
X15044921Y-4605341D02*
G75*
G03*
X15044921Y-4605341I-199390J0D01*
G01*
X15990233Y-2700341D02*
G75*
G03*
X15990233Y-2700341I-199390J0D01*
G01*
X16949921Y-4605341D02*
G75*
G03*
X16949921Y-4605341I-199390J0D01*
G01*
X17902421Y-2700341D02*
G75*
G03*
X17902421Y-2700341I-199390J0D01*
G01*
X18854921Y-4605341D02*
G75*
G03*
X18854921Y-4605341I-199390J0D01*
G01*
X19807421Y-2700341D02*
G75*
G03*
X19807421Y-2700341I-199390J0D01*
G01*
X21712421Y-2700341D02*
G75*
G03*
X21712421Y-2700341I-199390J0D01*
G01*
X23617421Y-2700341D02*
G75*
G03*
X23617421Y-2700341I-199390J0D01*
G01*
X25522421Y-2700341D02*
G75*
G03*
X25522421Y-2700341I-199390J0D01*
G01*
X27427421Y-2700341D02*
G75*
G03*
X27427421Y-2700341I-199390J0D01*
G01*
X29332421Y-2700341D02*
G75*
G03*
X29332421Y-2700341I-199390J0D01*
G01*
D10*
X1788150Y-5803313D02*
X1788150Y-5603313D01*
X1835769Y-5603313D01*
X1864340Y-5612836D01*
X1883388Y-5631884D01*
X1892912Y-5650932D01*
X1902436Y-5689027D01*
X1902436Y-5717598D01*
X1892912Y-5755694D01*
X1883388Y-5774741D01*
X1864340Y-5793789D01*
X1835769Y-5803313D01*
X1788150Y-5803313D01*
X1988150Y-5803313D02*
X1988150Y-5669979D01*
X1988150Y-5708074D02*
X1997674Y-5689027D01*
X2007198Y-5679503D01*
X2026245Y-5669979D01*
X2045293Y-5669979D01*
X2111960Y-5803313D02*
X2111960Y-5669979D01*
X2111960Y-5603313D02*
X2102436Y-5612836D01*
X2111960Y-5622360D01*
X2121483Y-5612836D01*
X2111960Y-5603313D01*
X2111960Y-5622360D01*
X2235769Y-5803313D02*
X2216721Y-5793789D01*
X2207198Y-5774741D01*
X2207198Y-5603313D01*
X2340531Y-5803313D02*
X2321483Y-5793789D01*
X2311960Y-5774741D01*
X2311960Y-5603313D01*
X2569102Y-5803313D02*
X2569102Y-5603313D01*
X2635769Y-5746170D01*
X2702436Y-5603313D01*
X2702436Y-5803313D01*
X2883388Y-5803313D02*
X2883388Y-5698551D01*
X2873864Y-5679503D01*
X2854817Y-5669979D01*
X2816721Y-5669979D01*
X2797674Y-5679503D01*
X2883388Y-5793789D02*
X2864340Y-5803313D01*
X2816721Y-5803313D01*
X2797674Y-5793789D01*
X2788150Y-5774741D01*
X2788150Y-5755694D01*
X2797674Y-5736646D01*
X2816721Y-5727122D01*
X2864340Y-5727122D01*
X2883388Y-5717598D01*
X2978626Y-5669979D02*
X2978626Y-5869979D01*
X2978626Y-5679503D02*
X2997674Y-5669979D01*
X3035769Y-5669979D01*
X3054817Y-5679503D01*
X3064340Y-5689027D01*
X3073864Y-5708074D01*
X3073864Y-5765217D01*
X3064340Y-5784265D01*
X3054817Y-5793789D01*
X3035769Y-5803313D01*
X2997674Y-5803313D01*
X2978626Y-5793789D01*
X3159579Y-5784265D02*
X3169102Y-5793789D01*
X3159579Y-5803313D01*
X3150055Y-5793789D01*
X3159579Y-5784265D01*
X3159579Y-5803313D01*
X3159579Y-5679503D02*
X3169102Y-5689027D01*
X3159579Y-5698551D01*
X3150055Y-5689027D01*
X3159579Y-5679503D01*
X3159579Y-5698551D01*
D11*
X1355531Y-6045336D02*
X1530531Y-6220336D01*
X1530531Y-6045336D02*
X1355531Y-6220336D01*
D10*
X1892912Y-6223313D02*
X1778626Y-6223313D01*
X1835769Y-6223313D02*
X1835769Y-6023313D01*
X1816721Y-6051884D01*
X1797674Y-6070932D01*
X1778626Y-6080455D01*
X1978626Y-6204265D02*
X1988150Y-6213789D01*
X1978626Y-6223313D01*
X1969102Y-6213789D01*
X1978626Y-6204265D01*
X1978626Y-6223313D01*
X2054817Y-6023313D02*
X2188150Y-6023313D01*
X2102436Y-6223313D01*
X2359579Y-6023313D02*
X2264341Y-6023313D01*
X2254817Y-6118551D01*
X2264341Y-6109027D01*
X2283388Y-6099503D01*
X2331007Y-6099503D01*
X2350055Y-6109027D01*
X2359579Y-6118551D01*
X2369102Y-6137598D01*
X2369102Y-6185217D01*
X2359579Y-6204265D01*
X2350055Y-6213789D01*
X2331007Y-6223313D01*
X2283388Y-6223313D01*
X2264341Y-6213789D01*
X2254817Y-6204265D01*
X2492912Y-6023313D02*
X2511960Y-6023313D01*
X2531007Y-6032836D01*
X2540531Y-6042360D01*
X2550055Y-6061408D01*
X2559579Y-6099503D01*
X2559579Y-6147122D01*
X2550055Y-6185217D01*
X2540531Y-6204265D01*
X2531007Y-6213789D01*
X2511960Y-6223313D01*
X2492912Y-6223313D01*
X2473864Y-6213789D01*
X2464341Y-6204265D01*
X2454817Y-6185217D01*
X2445293Y-6147122D01*
X2445293Y-6099503D01*
X2454817Y-6061408D01*
X2464341Y-6042360D01*
X2473864Y-6032836D01*
X2492912Y-6023313D01*
X2645293Y-6223313D02*
X2645293Y-6089979D01*
X2645293Y-6109027D02*
X2654817Y-6099503D01*
X2673864Y-6089979D01*
X2702436Y-6089979D01*
X2721483Y-6099503D01*
X2731007Y-6118551D01*
X2731007Y-6223313D01*
X2731007Y-6118551D02*
X2740531Y-6099503D01*
X2759579Y-6089979D01*
X2788150Y-6089979D01*
X2807198Y-6099503D01*
X2816721Y-6118551D01*
X2816721Y-6223313D01*
X2911959Y-6223313D02*
X2911959Y-6089979D01*
X2911959Y-6109027D02*
X2921483Y-6099503D01*
X2940531Y-6089979D01*
X2969102Y-6089979D01*
X2988150Y-6099503D01*
X2997674Y-6118551D01*
X2997674Y-6223313D01*
X2997674Y-6118551D02*
X3007198Y-6099503D01*
X3026245Y-6089979D01*
X3054817Y-6089979D01*
X3073864Y-6099503D01*
X3083388Y-6118551D01*
X3083388Y-6223313D01*
X3473864Y-6013789D02*
X3302436Y-6270932D01*
X3731007Y-6023313D02*
X3750055Y-6023313D01*
X3769102Y-6032836D01*
X3778626Y-6042360D01*
X3788150Y-6061408D01*
X3797674Y-6099503D01*
X3797674Y-6147122D01*
X3788150Y-6185217D01*
X3778626Y-6204265D01*
X3769102Y-6213789D01*
X3750055Y-6223313D01*
X3731007Y-6223313D01*
X3711959Y-6213789D01*
X3702436Y-6204265D01*
X3692912Y-6185217D01*
X3683388Y-6147122D01*
X3683388Y-6099503D01*
X3692912Y-6061408D01*
X3702436Y-6042360D01*
X3711959Y-6032836D01*
X3731007Y-6023313D01*
X3883388Y-6204265D02*
X3892912Y-6213789D01*
X3883388Y-6223313D01*
X3873864Y-6213789D01*
X3883388Y-6204265D01*
X3883388Y-6223313D01*
X4016721Y-6023313D02*
X4035769Y-6023313D01*
X4054817Y-6032836D01*
X4064340Y-6042360D01*
X4073864Y-6061408D01*
X4083388Y-6099503D01*
X4083388Y-6147122D01*
X4073864Y-6185217D01*
X4064340Y-6204265D01*
X4054817Y-6213789D01*
X4035769Y-6223313D01*
X4016721Y-6223313D01*
X3997674Y-6213789D01*
X3988150Y-6204265D01*
X3978626Y-6185217D01*
X3969102Y-6147122D01*
X3969102Y-6099503D01*
X3978626Y-6061408D01*
X3988150Y-6042360D01*
X3997674Y-6032836D01*
X4016721Y-6023313D01*
X4254817Y-6023313D02*
X4216721Y-6023313D01*
X4197674Y-6032836D01*
X4188150Y-6042360D01*
X4169102Y-6070932D01*
X4159579Y-6109027D01*
X4159579Y-6185217D01*
X4169102Y-6204265D01*
X4178626Y-6213789D01*
X4197674Y-6223313D01*
X4235769Y-6223313D01*
X4254817Y-6213789D01*
X4264341Y-6204265D01*
X4273864Y-6185217D01*
X4273864Y-6137598D01*
X4264341Y-6118551D01*
X4254817Y-6109027D01*
X4235769Y-6099503D01*
X4197674Y-6099503D01*
X4178626Y-6109027D01*
X4169102Y-6118551D01*
X4159579Y-6137598D01*
X4388150Y-6109027D02*
X4369102Y-6099503D01*
X4359579Y-6089979D01*
X4350055Y-6070932D01*
X4350055Y-6061408D01*
X4359579Y-6042360D01*
X4369102Y-6032836D01*
X4388150Y-6023313D01*
X4426245Y-6023313D01*
X4445293Y-6032836D01*
X4454817Y-6042360D01*
X4464341Y-6061408D01*
X4464341Y-6070932D01*
X4454817Y-6089979D01*
X4445293Y-6099503D01*
X4426245Y-6109027D01*
X4388150Y-6109027D01*
X4369102Y-6118551D01*
X4359579Y-6128074D01*
X4350055Y-6147122D01*
X4350055Y-6185217D01*
X4359579Y-6204265D01*
X4369102Y-6213789D01*
X4388150Y-6223313D01*
X4426245Y-6223313D01*
X4445293Y-6213789D01*
X4454817Y-6204265D01*
X4464341Y-6185217D01*
X4464341Y-6147122D01*
X4454817Y-6128074D01*
X4445293Y-6118551D01*
X4426245Y-6109027D01*
X4559579Y-6223313D02*
X4597674Y-6223313D01*
X4616721Y-6213789D01*
X4626245Y-6204265D01*
X4645293Y-6175694D01*
X4654817Y-6137598D01*
X4654817Y-6061408D01*
X4645293Y-6042360D01*
X4635769Y-6032836D01*
X4616721Y-6023313D01*
X4578626Y-6023313D01*
X4559579Y-6032836D01*
X4550055Y-6042360D01*
X4540531Y-6061408D01*
X4540531Y-6109027D01*
X4550055Y-6128074D01*
X4559579Y-6137598D01*
X4578626Y-6147122D01*
X4616721Y-6147122D01*
X4635769Y-6137598D01*
X4645293Y-6128074D01*
X4654817Y-6109027D01*
X4731007Y-6023313D02*
X4731007Y-6061408D01*
X4807198Y-6023313D02*
X4807198Y-6061408D01*
X5102436Y-6299503D02*
X5092912Y-6289979D01*
X5073864Y-6261408D01*
X5064341Y-6242360D01*
X5054817Y-6213789D01*
X5045293Y-6166170D01*
X5045293Y-6128074D01*
X5054817Y-6080455D01*
X5064341Y-6051884D01*
X5073864Y-6032836D01*
X5092912Y-6004265D01*
X5102436Y-5994741D01*
X5159579Y-6023313D02*
X5283388Y-6023313D01*
X5216721Y-6099503D01*
X5245293Y-6099503D01*
X5264341Y-6109027D01*
X5273864Y-6118551D01*
X5283388Y-6137598D01*
X5283388Y-6185217D01*
X5273864Y-6204265D01*
X5264341Y-6213789D01*
X5245293Y-6223313D01*
X5188150Y-6223313D01*
X5169102Y-6213789D01*
X5159579Y-6204265D01*
X5397674Y-6109027D02*
X5378626Y-6099503D01*
X5369102Y-6089979D01*
X5359579Y-6070932D01*
X5359579Y-6061408D01*
X5369102Y-6042360D01*
X5378626Y-6032836D01*
X5397674Y-6023313D01*
X5435769Y-6023313D01*
X5454817Y-6032836D01*
X5464341Y-6042360D01*
X5473864Y-6061408D01*
X5473864Y-6070932D01*
X5464341Y-6089979D01*
X5454817Y-6099503D01*
X5435769Y-6109027D01*
X5397674Y-6109027D01*
X5378626Y-6118551D01*
X5369102Y-6128074D01*
X5359579Y-6147122D01*
X5359579Y-6185217D01*
X5369102Y-6204265D01*
X5378626Y-6213789D01*
X5397674Y-6223313D01*
X5435769Y-6223313D01*
X5454817Y-6213789D01*
X5464341Y-6204265D01*
X5473864Y-6185217D01*
X5473864Y-6147122D01*
X5464341Y-6128074D01*
X5454817Y-6118551D01*
X5435769Y-6109027D01*
X5711959Y-6223313D02*
X5711959Y-6023313D01*
X5797674Y-6223313D02*
X5797674Y-6118551D01*
X5788150Y-6099503D01*
X5769102Y-6089979D01*
X5740531Y-6089979D01*
X5721483Y-6099503D01*
X5711959Y-6109027D01*
X5921483Y-6223313D02*
X5902436Y-6213789D01*
X5892912Y-6204265D01*
X5883388Y-6185217D01*
X5883388Y-6128074D01*
X5892912Y-6109027D01*
X5902436Y-6099503D01*
X5921483Y-6089979D01*
X5950055Y-6089979D01*
X5969102Y-6099503D01*
X5978626Y-6109027D01*
X5988150Y-6128074D01*
X5988150Y-6185217D01*
X5978626Y-6204265D01*
X5969102Y-6213789D01*
X5950055Y-6223313D01*
X5921483Y-6223313D01*
X6102436Y-6223313D02*
X6083388Y-6213789D01*
X6073864Y-6194741D01*
X6073864Y-6023313D01*
X6254817Y-6213789D02*
X6235769Y-6223313D01*
X6197674Y-6223313D01*
X6178626Y-6213789D01*
X6169102Y-6194741D01*
X6169102Y-6118551D01*
X6178626Y-6099503D01*
X6197674Y-6089979D01*
X6235769Y-6089979D01*
X6254817Y-6099503D01*
X6264340Y-6118551D01*
X6264340Y-6137598D01*
X6169102Y-6156646D01*
X6340531Y-6213789D02*
X6359579Y-6223313D01*
X6397674Y-6223313D01*
X6416721Y-6213789D01*
X6426245Y-6194741D01*
X6426245Y-6185217D01*
X6416721Y-6166170D01*
X6397674Y-6156646D01*
X6369102Y-6156646D01*
X6350055Y-6147122D01*
X6340531Y-6128074D01*
X6340531Y-6118551D01*
X6350055Y-6099503D01*
X6369102Y-6089979D01*
X6397674Y-6089979D01*
X6416721Y-6099503D01*
X6492912Y-6299503D02*
X6502436Y-6289979D01*
X6521483Y-6261408D01*
X6531007Y-6242360D01*
X6540531Y-6213789D01*
X6550055Y-6166170D01*
X6550055Y-6128074D01*
X6540531Y-6080455D01*
X6531007Y-6051884D01*
X6521483Y-6032836D01*
X6502436Y-6004265D01*
X6492912Y-5994741D01*
X6854817Y-6299503D02*
X6845293Y-6289979D01*
X6826245Y-6261408D01*
X6816721Y-6242360D01*
X6807198Y-6213789D01*
X6797674Y-6166170D01*
X6797674Y-6128074D01*
X6807198Y-6080455D01*
X6816721Y-6051884D01*
X6826245Y-6032836D01*
X6845293Y-6004265D01*
X6854817Y-5994741D01*
X6931007Y-6089979D02*
X6931007Y-6223313D01*
X6931007Y-6109027D02*
X6940531Y-6099503D01*
X6959579Y-6089979D01*
X6988150Y-6089979D01*
X7007198Y-6099503D01*
X7016721Y-6118551D01*
X7016721Y-6223313D01*
X7140531Y-6223313D02*
X7121483Y-6213789D01*
X7111959Y-6204265D01*
X7102436Y-6185217D01*
X7102436Y-6128074D01*
X7111959Y-6109027D01*
X7121483Y-6099503D01*
X7140531Y-6089979D01*
X7169102Y-6089979D01*
X7188150Y-6099503D01*
X7197674Y-6109027D01*
X7207198Y-6128074D01*
X7207198Y-6185217D01*
X7197674Y-6204265D01*
X7188150Y-6213789D01*
X7169102Y-6223313D01*
X7140531Y-6223313D01*
X7264340Y-6089979D02*
X7340531Y-6089979D01*
X7292912Y-6023313D02*
X7292912Y-6194741D01*
X7302436Y-6213789D01*
X7321483Y-6223313D01*
X7340531Y-6223313D01*
X7559579Y-6089979D02*
X7559579Y-6289979D01*
X7559579Y-6099503D02*
X7578626Y-6089979D01*
X7616721Y-6089979D01*
X7635769Y-6099503D01*
X7645293Y-6109027D01*
X7654817Y-6128074D01*
X7654817Y-6185217D01*
X7645293Y-6204265D01*
X7635769Y-6213789D01*
X7616721Y-6223313D01*
X7578626Y-6223313D01*
X7559579Y-6213789D01*
X7769102Y-6223313D02*
X7750055Y-6213789D01*
X7740531Y-6194741D01*
X7740531Y-6023313D01*
X7931007Y-6223313D02*
X7931007Y-6118551D01*
X7921483Y-6099503D01*
X7902436Y-6089979D01*
X7864340Y-6089979D01*
X7845293Y-6099503D01*
X7931007Y-6213789D02*
X7911959Y-6223313D01*
X7864340Y-6223313D01*
X7845293Y-6213789D01*
X7835769Y-6194741D01*
X7835769Y-6175694D01*
X7845293Y-6156646D01*
X7864340Y-6147122D01*
X7911959Y-6147122D01*
X7931007Y-6137598D01*
X7997674Y-6089979D02*
X8073864Y-6089979D01*
X8026245Y-6023313D02*
X8026245Y-6194741D01*
X8035769Y-6213789D01*
X8054817Y-6223313D01*
X8073864Y-6223313D01*
X8216721Y-6213789D02*
X8197674Y-6223313D01*
X8159579Y-6223313D01*
X8140531Y-6213789D01*
X8131007Y-6194741D01*
X8131007Y-6118551D01*
X8140531Y-6099503D01*
X8159579Y-6089979D01*
X8197674Y-6089979D01*
X8216721Y-6099503D01*
X8226245Y-6118551D01*
X8226245Y-6137598D01*
X8131007Y-6156646D01*
X8397674Y-6223313D02*
X8397674Y-6023313D01*
X8397674Y-6213789D02*
X8378626Y-6223313D01*
X8340531Y-6223313D01*
X8321483Y-6213789D01*
X8311959Y-6204265D01*
X8302436Y-6185217D01*
X8302436Y-6128074D01*
X8311959Y-6109027D01*
X8321483Y-6099503D01*
X8340531Y-6089979D01*
X8378626Y-6089979D01*
X8397674Y-6099503D01*
X8473864Y-6299503D02*
X8483388Y-6289979D01*
X8502436Y-6261408D01*
X8511960Y-6242360D01*
X8521483Y-6213789D01*
X8531007Y-6166170D01*
X8531007Y-6128074D01*
X8521483Y-6080455D01*
X8511960Y-6051884D01*
X8502436Y-6032836D01*
X8483388Y-6004265D01*
X8473864Y-5994741D01*
X1530531Y-6427836D02*
G75*
G03*
X1530531Y-6427836I-100000J0D01*
G01*
X1769102Y-6318313D02*
X1892912Y-6318313D01*
X1826245Y-6394503D01*
X1854817Y-6394503D01*
X1873864Y-6404027D01*
X1883388Y-6413551D01*
X1892912Y-6432598D01*
X1892912Y-6480217D01*
X1883388Y-6499265D01*
X1873864Y-6508789D01*
X1854817Y-6518313D01*
X1797674Y-6518313D01*
X1778626Y-6508789D01*
X1769102Y-6499265D01*
X1978626Y-6499265D02*
X1988150Y-6508789D01*
X1978626Y-6518313D01*
X1969102Y-6508789D01*
X1978626Y-6499265D01*
X1978626Y-6518313D01*
X2083388Y-6518313D02*
X2121483Y-6518313D01*
X2140531Y-6508789D01*
X2150055Y-6499265D01*
X2169102Y-6470694D01*
X2178626Y-6432598D01*
X2178626Y-6356408D01*
X2169102Y-6337360D01*
X2159579Y-6327836D01*
X2140531Y-6318313D01*
X2102436Y-6318313D01*
X2083388Y-6327836D01*
X2073864Y-6337360D01*
X2064340Y-6356408D01*
X2064340Y-6404027D01*
X2073864Y-6423074D01*
X2083388Y-6432598D01*
X2102436Y-6442122D01*
X2140531Y-6442122D01*
X2159579Y-6432598D01*
X2169102Y-6423074D01*
X2178626Y-6404027D01*
X2292912Y-6404027D02*
X2273864Y-6394503D01*
X2264341Y-6384979D01*
X2254817Y-6365932D01*
X2254817Y-6356408D01*
X2264341Y-6337360D01*
X2273864Y-6327836D01*
X2292912Y-6318313D01*
X2331007Y-6318313D01*
X2350055Y-6327836D01*
X2359579Y-6337360D01*
X2369102Y-6356408D01*
X2369102Y-6365932D01*
X2359579Y-6384979D01*
X2350055Y-6394503D01*
X2331007Y-6404027D01*
X2292912Y-6404027D01*
X2273864Y-6413551D01*
X2264341Y-6423074D01*
X2254817Y-6442122D01*
X2254817Y-6480217D01*
X2264341Y-6499265D01*
X2273864Y-6508789D01*
X2292912Y-6518313D01*
X2331007Y-6518313D01*
X2350055Y-6508789D01*
X2359579Y-6499265D01*
X2369102Y-6480217D01*
X2369102Y-6442122D01*
X2359579Y-6423074D01*
X2350055Y-6413551D01*
X2331007Y-6404027D01*
X2483388Y-6404027D02*
X2464341Y-6394503D01*
X2454817Y-6384979D01*
X2445293Y-6365932D01*
X2445293Y-6356408D01*
X2454817Y-6337360D01*
X2464341Y-6327836D01*
X2483388Y-6318313D01*
X2521483Y-6318313D01*
X2540531Y-6327836D01*
X2550055Y-6337360D01*
X2559579Y-6356408D01*
X2559579Y-6365932D01*
X2550055Y-6384979D01*
X2540531Y-6394503D01*
X2521483Y-6404027D01*
X2483388Y-6404027D01*
X2464341Y-6413551D01*
X2454817Y-6423074D01*
X2445293Y-6442122D01*
X2445293Y-6480217D01*
X2454817Y-6499265D01*
X2464341Y-6508789D01*
X2483388Y-6518313D01*
X2521483Y-6518313D01*
X2540531Y-6508789D01*
X2550055Y-6499265D01*
X2559579Y-6480217D01*
X2559579Y-6442122D01*
X2550055Y-6423074D01*
X2540531Y-6413551D01*
X2521483Y-6404027D01*
X2645293Y-6518313D02*
X2645293Y-6384979D01*
X2645293Y-6404027D02*
X2654817Y-6394503D01*
X2673864Y-6384979D01*
X2702436Y-6384979D01*
X2721483Y-6394503D01*
X2731007Y-6413551D01*
X2731007Y-6518313D01*
X2731007Y-6413551D02*
X2740531Y-6394503D01*
X2759579Y-6384979D01*
X2788150Y-6384979D01*
X2807198Y-6394503D01*
X2816721Y-6413551D01*
X2816721Y-6518313D01*
X2911959Y-6518313D02*
X2911959Y-6384979D01*
X2911959Y-6404027D02*
X2921483Y-6394503D01*
X2940531Y-6384979D01*
X2969102Y-6384979D01*
X2988150Y-6394503D01*
X2997674Y-6413551D01*
X2997674Y-6518313D01*
X2997674Y-6413551D02*
X3007198Y-6394503D01*
X3026245Y-6384979D01*
X3054817Y-6384979D01*
X3073864Y-6394503D01*
X3083388Y-6413551D01*
X3083388Y-6518313D01*
X3473864Y-6308789D02*
X3302436Y-6565932D01*
X3731007Y-6318313D02*
X3750055Y-6318313D01*
X3769102Y-6327836D01*
X3778626Y-6337360D01*
X3788150Y-6356408D01*
X3797674Y-6394503D01*
X3797674Y-6442122D01*
X3788150Y-6480217D01*
X3778626Y-6499265D01*
X3769102Y-6508789D01*
X3750055Y-6518313D01*
X3731007Y-6518313D01*
X3711959Y-6508789D01*
X3702436Y-6499265D01*
X3692912Y-6480217D01*
X3683388Y-6442122D01*
X3683388Y-6394503D01*
X3692912Y-6356408D01*
X3702436Y-6337360D01*
X3711959Y-6327836D01*
X3731007Y-6318313D01*
X3883388Y-6499265D02*
X3892912Y-6508789D01*
X3883388Y-6518313D01*
X3873864Y-6508789D01*
X3883388Y-6499265D01*
X3883388Y-6518313D01*
X4083388Y-6518313D02*
X3969102Y-6518313D01*
X4026245Y-6518313D02*
X4026245Y-6318313D01*
X4007198Y-6346884D01*
X3988150Y-6365932D01*
X3969102Y-6375455D01*
X4264341Y-6318313D02*
X4169102Y-6318313D01*
X4159579Y-6413551D01*
X4169102Y-6404027D01*
X4188150Y-6394503D01*
X4235769Y-6394503D01*
X4254817Y-6404027D01*
X4264341Y-6413551D01*
X4273864Y-6432598D01*
X4273864Y-6480217D01*
X4264341Y-6499265D01*
X4254817Y-6508789D01*
X4235769Y-6518313D01*
X4188150Y-6518313D01*
X4169102Y-6508789D01*
X4159579Y-6499265D01*
X4340531Y-6318313D02*
X4473864Y-6318313D01*
X4388150Y-6518313D01*
X4588150Y-6318313D02*
X4607198Y-6318313D01*
X4626245Y-6327836D01*
X4635769Y-6337360D01*
X4645293Y-6356408D01*
X4654817Y-6394503D01*
X4654817Y-6442122D01*
X4645293Y-6480217D01*
X4635769Y-6499265D01*
X4626245Y-6508789D01*
X4607198Y-6518313D01*
X4588150Y-6518313D01*
X4569102Y-6508789D01*
X4559579Y-6499265D01*
X4550055Y-6480217D01*
X4540531Y-6442122D01*
X4540531Y-6394503D01*
X4550055Y-6356408D01*
X4559579Y-6337360D01*
X4569102Y-6327836D01*
X4588150Y-6318313D01*
X4731007Y-6318313D02*
X4731007Y-6356408D01*
X4807198Y-6318313D02*
X4807198Y-6356408D01*
X5102436Y-6594503D02*
X5092912Y-6584979D01*
X5073864Y-6556408D01*
X5064341Y-6537360D01*
X5054817Y-6508789D01*
X5045293Y-6461170D01*
X5045293Y-6423074D01*
X5054817Y-6375455D01*
X5064341Y-6346884D01*
X5073864Y-6327836D01*
X5092912Y-6299265D01*
X5102436Y-6289741D01*
X5283388Y-6518313D02*
X5169102Y-6518313D01*
X5226245Y-6518313D02*
X5226245Y-6318313D01*
X5207198Y-6346884D01*
X5188150Y-6365932D01*
X5169102Y-6375455D01*
X5378626Y-6518313D02*
X5416721Y-6518313D01*
X5435769Y-6508789D01*
X5445293Y-6499265D01*
X5464341Y-6470694D01*
X5473864Y-6432598D01*
X5473864Y-6356408D01*
X5464341Y-6337360D01*
X5454817Y-6327836D01*
X5435769Y-6318313D01*
X5397674Y-6318313D01*
X5378626Y-6327836D01*
X5369102Y-6337360D01*
X5359579Y-6356408D01*
X5359579Y-6404027D01*
X5369102Y-6423074D01*
X5378626Y-6432598D01*
X5397674Y-6442122D01*
X5435769Y-6442122D01*
X5454817Y-6432598D01*
X5464341Y-6423074D01*
X5473864Y-6404027D01*
X5711959Y-6518313D02*
X5711959Y-6318313D01*
X5797674Y-6518313D02*
X5797674Y-6413551D01*
X5788150Y-6394503D01*
X5769102Y-6384979D01*
X5740531Y-6384979D01*
X5721483Y-6394503D01*
X5711959Y-6404027D01*
X5921483Y-6518313D02*
X5902436Y-6508789D01*
X5892912Y-6499265D01*
X5883388Y-6480217D01*
X5883388Y-6423074D01*
X5892912Y-6404027D01*
X5902436Y-6394503D01*
X5921483Y-6384979D01*
X5950055Y-6384979D01*
X5969102Y-6394503D01*
X5978626Y-6404027D01*
X5988150Y-6423074D01*
X5988150Y-6480217D01*
X5978626Y-6499265D01*
X5969102Y-6508789D01*
X5950055Y-6518313D01*
X5921483Y-6518313D01*
X6102436Y-6518313D02*
X6083388Y-6508789D01*
X6073864Y-6489741D01*
X6073864Y-6318313D01*
X6254817Y-6508789D02*
X6235769Y-6518313D01*
X6197674Y-6518313D01*
X6178626Y-6508789D01*
X6169102Y-6489741D01*
X6169102Y-6413551D01*
X6178626Y-6394503D01*
X6197674Y-6384979D01*
X6235769Y-6384979D01*
X6254817Y-6394503D01*
X6264340Y-6413551D01*
X6264340Y-6432598D01*
X6169102Y-6451646D01*
X6340531Y-6508789D02*
X6359579Y-6518313D01*
X6397674Y-6518313D01*
X6416721Y-6508789D01*
X6426245Y-6489741D01*
X6426245Y-6480217D01*
X6416721Y-6461170D01*
X6397674Y-6451646D01*
X6369102Y-6451646D01*
X6350055Y-6442122D01*
X6340531Y-6423074D01*
X6340531Y-6413551D01*
X6350055Y-6394503D01*
X6369102Y-6384979D01*
X6397674Y-6384979D01*
X6416721Y-6394503D01*
X6492912Y-6594503D02*
X6502436Y-6584979D01*
X6521483Y-6556408D01*
X6531007Y-6537360D01*
X6540531Y-6508789D01*
X6550055Y-6461170D01*
X6550055Y-6423074D01*
X6540531Y-6375455D01*
X6531007Y-6346884D01*
X6521483Y-6327836D01*
X6502436Y-6299265D01*
X6492912Y-6289741D01*
X6854817Y-6594503D02*
X6845293Y-6584979D01*
X6826245Y-6556408D01*
X6816721Y-6537360D01*
X6807198Y-6508789D01*
X6797674Y-6461170D01*
X6797674Y-6423074D01*
X6807198Y-6375455D01*
X6816721Y-6346884D01*
X6826245Y-6327836D01*
X6845293Y-6299265D01*
X6854817Y-6289741D01*
X6931007Y-6384979D02*
X6931007Y-6518313D01*
X6931007Y-6404027D02*
X6940531Y-6394503D01*
X6959579Y-6384979D01*
X6988150Y-6384979D01*
X7007198Y-6394503D01*
X7016721Y-6413551D01*
X7016721Y-6518313D01*
X7140531Y-6518313D02*
X7121483Y-6508789D01*
X7111959Y-6499265D01*
X7102436Y-6480217D01*
X7102436Y-6423074D01*
X7111959Y-6404027D01*
X7121483Y-6394503D01*
X7140531Y-6384979D01*
X7169102Y-6384979D01*
X7188150Y-6394503D01*
X7197674Y-6404027D01*
X7207198Y-6423074D01*
X7207198Y-6480217D01*
X7197674Y-6499265D01*
X7188150Y-6508789D01*
X7169102Y-6518313D01*
X7140531Y-6518313D01*
X7264340Y-6384979D02*
X7340531Y-6384979D01*
X7292912Y-6318313D02*
X7292912Y-6489741D01*
X7302436Y-6508789D01*
X7321483Y-6518313D01*
X7340531Y-6518313D01*
X7559579Y-6384979D02*
X7559579Y-6584979D01*
X7559579Y-6394503D02*
X7578626Y-6384979D01*
X7616721Y-6384979D01*
X7635769Y-6394503D01*
X7645293Y-6404027D01*
X7654817Y-6423074D01*
X7654817Y-6480217D01*
X7645293Y-6499265D01*
X7635769Y-6508789D01*
X7616721Y-6518313D01*
X7578626Y-6518313D01*
X7559579Y-6508789D01*
X7769102Y-6518313D02*
X7750055Y-6508789D01*
X7740531Y-6489741D01*
X7740531Y-6318313D01*
X7931007Y-6518313D02*
X7931007Y-6413551D01*
X7921483Y-6394503D01*
X7902436Y-6384979D01*
X7864340Y-6384979D01*
X7845293Y-6394503D01*
X7931007Y-6508789D02*
X7911959Y-6518313D01*
X7864340Y-6518313D01*
X7845293Y-6508789D01*
X7835769Y-6489741D01*
X7835769Y-6470694D01*
X7845293Y-6451646D01*
X7864340Y-6442122D01*
X7911959Y-6442122D01*
X7931007Y-6432598D01*
X7997674Y-6384979D02*
X8073864Y-6384979D01*
X8026245Y-6318313D02*
X8026245Y-6489741D01*
X8035769Y-6508789D01*
X8054817Y-6518313D01*
X8073864Y-6518313D01*
X8216721Y-6508789D02*
X8197674Y-6518313D01*
X8159579Y-6518313D01*
X8140531Y-6508789D01*
X8131007Y-6489741D01*
X8131007Y-6413551D01*
X8140531Y-6394503D01*
X8159579Y-6384979D01*
X8197674Y-6384979D01*
X8216721Y-6394503D01*
X8226245Y-6413551D01*
X8226245Y-6432598D01*
X8131007Y-6451646D01*
X8397674Y-6518313D02*
X8397674Y-6318313D01*
X8397674Y-6508789D02*
X8378626Y-6518313D01*
X8340531Y-6518313D01*
X8321483Y-6508789D01*
X8311959Y-6499265D01*
X8302436Y-6480217D01*
X8302436Y-6423074D01*
X8311959Y-6404027D01*
X8321483Y-6394503D01*
X8340531Y-6384979D01*
X8378626Y-6384979D01*
X8397674Y-6394503D01*
X8473864Y-6594503D02*
X8483388Y-6584979D01*
X8502436Y-6556408D01*
X8511960Y-6537360D01*
X8521483Y-6508789D01*
X8531007Y-6461170D01*
X8531007Y-6423074D01*
X8521483Y-6375455D01*
X8511960Y-6346884D01*
X8502436Y-6327836D01*
X8483388Y-6299265D01*
X8473864Y-6289741D01*
M02*
