M48
; DRILL file {KiCad (6.0.10-0)} date 
; FORMAT={-:-/ absolute / metric / decimal}
; #@! TF.CreationDate,2023-03-16T17:34:05+09:00
; #@! TF.GenerationSoftware,Kicad,Pcbnew,(6.0.10-0)
; #@! TF.FileFunction,NonPlated,1,2,NPTH
FMAT,2
METRIC
; #@! TA.AperFunction,NonPlated,NPTH,ComponentDrill
T1C1.750
; #@! TA.AperFunction,NonPlated,NPTH,ComponentDrill
T2C3.988
%
G90
G05
T1
X19.55Y-27.003
X29.71Y-27.003
X38.6Y-27.003
X48.76Y-27.003
X57.65Y-27.003
X67.81Y-27.003
X76.7Y-27.003
X86.86Y-27.003
X95.75Y-27.003
X105.91Y-27.003
X114.8Y-27.003
X124.325Y-46.053
X124.96Y-27.003
X133.85Y-27.003
X134.485Y-46.053
X143.375Y-46.053
X144.01Y-27.003
X152.828Y-27.003
X153.535Y-46.053
X162.425Y-46.053
X162.988Y-27.003
X171.95Y-27.003
X172.585Y-46.053
X181.475Y-46.053
X182.11Y-27.003
X191.0Y-27.003
X191.635Y-46.053
X201.16Y-27.003
X210.05Y-27.003
X220.21Y-27.003
X229.1Y-27.003
X239.26Y-27.003
X248.15Y-27.003
X258.31Y-27.003
X267.2Y-27.003
X277.36Y-27.003
X286.25Y-27.003
X296.41Y-27.003
T2
X24.63Y-27.003
X43.68Y-27.003
X62.73Y-27.003
X81.78Y-27.003
X100.83Y-27.003
X119.88Y-27.003
X129.405Y-46.053
X138.93Y-27.003
X148.455Y-46.053
X157.908Y-27.003
X167.505Y-46.053
X177.03Y-27.003
X186.555Y-46.053
X196.08Y-27.003
X215.13Y-27.003
X234.18Y-27.003
X253.23Y-27.003
X272.28Y-27.003
X291.33Y-27.003
T0
M30
