M48
; DRILL file {KiCad (6.0.10-0)} date 
; FORMAT={-:-/ absolute / metric / decimal}
; #@! TF.CreationDate,2023-02-22T14:57:37+09:00
; #@! TF.GenerationSoftware,Kicad,Pcbnew,(6.0.10-0)
; #@! TF.FileFunction,Plated,1,2,PTH
FMAT,2
METRIC
; #@! TA.AperFunction,Plated,PTH,ViaDrill
T1C0.400
; #@! TA.AperFunction,Plated,PTH,ComponentDrill
T2C1.000
; #@! TA.AperFunction,Plated,PTH,ComponentDrill
T3C1.470
; #@! TA.AperFunction,Plated,PTH,ComponentDrill
T4C2.200
%
G90
G05
T1
X22.249Y-40.1
X23.44Y-28.194
X23.44Y-52.007
X28.202Y-22.241
X28.202Y-56.769
X40.108Y-22.241
X40.108Y-35.37
X41.632Y-52.546
X47.252Y-56.769
X54.84Y-51.118
X55.817Y-54.798
X56.11Y-39.592
X56.618Y-54.847
X57.38Y-30.575
X57.634Y-52.134
X57.841Y-36.264
X58.396Y-36.894
X59.158Y-22.241
X59.158Y-35.274
X59.92Y-24.956
X66.302Y-41.291
X66.302Y-56.769
X69.874Y-37.91
X78.208Y-23.432
X78.208Y-35.37
X88.924Y-37.91
X97.258Y-22.241
X97.258Y-35.37
X105.593Y-37.91
X107.418Y-27.242
X109.165Y-40.1
X109.165Y-56.769
X110.974Y-35.37
X113.514Y-27.242
X116.308Y-22.241
X118.086Y-35.37
X118.086Y-38.164
X118.848Y-27.242
X119.864Y-53.15
X122.262Y-56.769
X126.722Y-44.006
X128.215Y-59.15
X128.215Y-75.819
X129.965Y-61.623
X130.532Y-61.055
X131.167Y-51.276
X131.675Y-60.42
X132.056Y-22.241
X132.977Y-32.957
X132.977Y-41.291
X132.977Y-49.625
X135.358Y-75.819
X136.549Y-29.385
X136.549Y-53.197
X136.628Y-27.242
X137.74Y-81.772
X137.74Y-94.869
X138.66Y-22.241
X147.042Y-62.802
X148.455Y-53.197
X148.82Y-73.882
X148.82Y-75.914
X149.328Y-82.01
X150.837Y-61.532
X151.233Y-76.422
X152.63Y-65.627
X152.63Y-70.961
X152.884Y-79.566
X154.408Y-29.385
X154.408Y-78.708
X154.408Y-95.472
X156.059Y-76.549
X157.964Y-67.374
X157.964Y-69.564
X159.933Y-80.225
X159.996Y-75.914
X159.996Y-92.932
X160.362Y-22.241
X161.901Y-95.472
X162.79Y-71.85
X163.806Y-27.242
X163.933Y-61.532
X167.108Y-67.374
X167.489Y-72.866
X167.505Y-22.241
X167.933Y-80.225
X171.807Y-76.549
X172.442Y-65.596
X173.458Y-29.385
X173.458Y-95.472
X174.855Y-79.851
X174.914Y-65.05
X174.982Y-91.916
X175.617Y-71.596
X175.793Y-93.997
X176.506Y-76.676
X176.755Y-92.947
X177.03Y-61.532
X179.412Y-53.197
X179.42Y-80.746
X179.427Y-74.898
X180.062Y-73.897
X182.545Y-76.01
X183.919Y-80.469
X183.999Y-71.596
X185.142Y-62.706
X187.682Y-84.931
X189.206Y-63.849
X189.206Y-22.241
X190.127Y-94.869
X190.476Y-63.849
X190.984Y-80.74
X191.318Y-29.385
X191.318Y-53.197
X191.746Y-76.422
X192.0Y-63.722
X193.778Y-27.242
X194.89Y-32.957
X194.952Y-41.291
X194.952Y-49.625
X195.048Y-65.596
X195.81Y-22.241
X198.858Y-56.706
X199.652Y-59.15
X199.652Y-75.819
X200.89Y-41.624
X203.176Y-35.878
X203.176Y-38.164
X203.43Y-52.8
X204.137Y-45.855
X204.192Y-50.61
X204.446Y-44.006
X204.47Y-47.744
X204.954Y-53.912
X205.605Y-56.769
X209.272Y-45.784
X211.558Y-22.241
X211.558Y-35.878
X213.59Y-36.29
X213.59Y-51.88
X214.098Y-46.546
X215.184Y-35.991
X215.932Y-36.282
X216.638Y-47.816
X217.908Y-37.243
X218.702Y-33.973
X218.702Y-40.1
X218.702Y-56.769
X222.226Y-36.227
X223.465Y-38.068
X225.782Y-34.703
X227.052Y-34.449
X230.608Y-22.241
X240.006Y-38.068
X240.26Y-34.449
X249.658Y-23.432
X256.802Y-38.068
X257.532Y-34.449
X259.784Y-35.499
X261.565Y-41.291
X261.565Y-56.769
X262.104Y-53.435
X262.118Y-36.214
X268.2Y-42.736
X268.708Y-22.241
X268.708Y-30.575
X268.708Y-52.896
X269.216Y-45.53
X269.47Y-40.608
X273.28Y-44.26
X281.805Y-56.769
X284.71Y-40.608
X286.234Y-46.292
X287.758Y-22.241
X293.092Y-44.514
X294.108Y-52.229
X299.665Y-22.241
X299.665Y-56.769
X304.427Y-28.194
X304.427Y-52.007
X305.618Y-40.1
T2
X55.587Y-34.147
X55.587Y-37.719
X102.021Y-24.622
X105.593Y-24.622
X109.165Y-24.622
X128.015Y-45.244
X128.015Y-49.244
X129.915Y-46.244
X129.915Y-48.244
X182.983Y-24.622
X186.555Y-24.622
X197.952Y-35.528
X197.952Y-37.528
X197.952Y-46.244
X197.952Y-48.244
X199.852Y-34.528
X199.852Y-38.528
X199.852Y-45.244
X199.852Y-49.244
X200.843Y-24.622
X204.415Y-24.622
X218.702Y-24.622
X222.274Y-24.622
X225.846Y-24.622
T3
X31.536Y-47.085
X33.917Y-47.085
X37.886Y-44.545
X40.267Y-44.545
X55.348Y-47.085
X61.698Y-44.545
X112.498Y-47.085
X118.848Y-44.545
X131.548Y-66.16
X137.898Y-63.62
X141.073Y-85.185
X147.423Y-82.645
X150.598Y-66.135
X156.948Y-63.595
X160.123Y-85.185
X166.473Y-82.645
X169.648Y-66.135
X175.998Y-63.595
X179.173Y-85.185
X185.523Y-82.645
X188.698Y-66.135
X195.048Y-63.595
X207.748Y-47.085
X214.098Y-44.545
X264.898Y-47.085
X271.248Y-44.545
X288.711Y-47.085
X295.061Y-44.545
T4
X24.63Y-24.134
X24.63Y-55.588
X40.108Y-31.766
X78.208Y-31.766
X97.258Y-31.766
X125.833Y-55.578
X135.358Y-24.134
X138.93Y-78.2
X144.883Y-55.578
X163.933Y-24.134
X182.983Y-55.578
X188.937Y-78.2
X192.508Y-24.134
X202.033Y-55.625
X230.608Y-31.766
X249.658Y-31.766
X287.758Y-31.766
X303.237Y-24.134
X303.237Y-55.588
T0
M30
