G04 #@! TF.GenerationSoftware,KiCad,Pcbnew,(6.0.10-0)*
G04 #@! TF.CreationDate,2023-02-16T14:01:50+09:00*
G04 #@! TF.ProjectId,Sandy_Middle,53616e64-795f-44d6-9964-646c652e6b69,v.0*
G04 #@! TF.SameCoordinates,Original*
G04 #@! TF.FileFunction,AssemblyDrawing,Top*
%FSLAX46Y46*%
G04 Gerber Fmt 4.6, Leading zero omitted, Abs format (unit mm)*
G04 Created by KiCad (PCBNEW (6.0.10-0)) date 2023-02-16 14:01:50*
%MOMM*%
%LPD*%
G01*
G04 APERTURE LIST*
%ADD10C,0.150000*%
%ADD11C,0.127000*%
G04 APERTURE END LIST*
D10*
X192460964Y-24585910D02*
X192460964Y-23585910D01*
X192460964Y-24062101D02*
X193032393Y-24062101D01*
X193032393Y-24585910D02*
X193032393Y-23585910D01*
X194032393Y-24585910D02*
X193460964Y-24585910D01*
X193746679Y-24585910D02*
X193746679Y-23585910D01*
X193651440Y-23728768D01*
X193556202Y-23824006D01*
X193460964Y-23871625D01*
X194365726Y-23585910D02*
X194984774Y-23585910D01*
X194651440Y-23966863D01*
X194794298Y-23966863D01*
X194889536Y-24014482D01*
X194937155Y-24062101D01*
X194984774Y-24157339D01*
X194984774Y-24395434D01*
X194937155Y-24490672D01*
X194889536Y-24538291D01*
X194794298Y-24585910D01*
X194508583Y-24585910D01*
X194413345Y-24538291D01*
X194365726Y-24490672D01*
X143645339Y-56030785D02*
X143645339Y-55030785D01*
X143645339Y-55506976D02*
X144216768Y-55506976D01*
X144216768Y-56030785D02*
X144216768Y-55030785D01*
X145216768Y-56030785D02*
X144645339Y-56030785D01*
X144931054Y-56030785D02*
X144931054Y-55030785D01*
X144835815Y-55173643D01*
X144740577Y-55268881D01*
X144645339Y-55316500D01*
X145788196Y-55459357D02*
X145692958Y-55411738D01*
X145645339Y-55364119D01*
X145597720Y-55268881D01*
X145597720Y-55221262D01*
X145645339Y-55126024D01*
X145692958Y-55078405D01*
X145788196Y-55030785D01*
X145978673Y-55030785D01*
X146073911Y-55078405D01*
X146121530Y-55126024D01*
X146169149Y-55221262D01*
X146169149Y-55268881D01*
X146121530Y-55364119D01*
X146073911Y-55411738D01*
X145978673Y-55459357D01*
X145788196Y-55459357D01*
X145692958Y-55506976D01*
X145645339Y-55554595D01*
X145597720Y-55649833D01*
X145597720Y-55840309D01*
X145645339Y-55935547D01*
X145692958Y-55983166D01*
X145788196Y-56030785D01*
X145978673Y-56030785D01*
X146073911Y-55983166D01*
X146121530Y-55935547D01*
X146169149Y-55840309D01*
X146169149Y-55649833D01*
X146121530Y-55554595D01*
X146073911Y-55506976D01*
X145978673Y-55459357D01*
X38870339Y-32218285D02*
X38870339Y-31218285D01*
X38870339Y-31694476D02*
X39441768Y-31694476D01*
X39441768Y-32218285D02*
X39441768Y-31218285D01*
X40441768Y-32218285D02*
X39870339Y-32218285D01*
X40156054Y-32218285D02*
X40156054Y-31218285D01*
X40060815Y-31361143D01*
X39965577Y-31456381D01*
X39870339Y-31504000D01*
X41298911Y-31551619D02*
X41298911Y-32218285D01*
X41060815Y-31170666D02*
X40822720Y-31884952D01*
X41441768Y-31884952D01*
X135310964Y-24585910D02*
X135310964Y-23585910D01*
X135310964Y-24062101D02*
X135882393Y-24062101D01*
X135882393Y-24585910D02*
X135882393Y-23585910D01*
X136882393Y-24585910D02*
X136310964Y-24585910D01*
X136596679Y-24585910D02*
X136596679Y-23585910D01*
X136501440Y-23728768D01*
X136406202Y-23824006D01*
X136310964Y-23871625D01*
X137263345Y-23681149D02*
X137310964Y-23633530D01*
X137406202Y-23585910D01*
X137644298Y-23585910D01*
X137739536Y-23633530D01*
X137787155Y-23681149D01*
X137834774Y-23776387D01*
X137834774Y-23871625D01*
X137787155Y-24014482D01*
X137215726Y-24585910D01*
X137834774Y-24585910D01*
X96020339Y-32218285D02*
X96020339Y-31218285D01*
X96020339Y-31694476D02*
X96591768Y-31694476D01*
X96591768Y-32218285D02*
X96591768Y-31218285D01*
X97591768Y-32218285D02*
X97020339Y-32218285D01*
X97306054Y-32218285D02*
X97306054Y-31218285D01*
X97210815Y-31361143D01*
X97115577Y-31456381D01*
X97020339Y-31504000D01*
X98496530Y-31218285D02*
X98020339Y-31218285D01*
X97972720Y-31694476D01*
X98020339Y-31646857D01*
X98115577Y-31599238D01*
X98353673Y-31599238D01*
X98448911Y-31646857D01*
X98496530Y-31694476D01*
X98544149Y-31789714D01*
X98544149Y-32027809D01*
X98496530Y-32123047D01*
X98448911Y-32170666D01*
X98353673Y-32218285D01*
X98115577Y-32218285D01*
X98020339Y-32170666D01*
X97972720Y-32123047D01*
X181745339Y-56030785D02*
X181745339Y-55030785D01*
X181745339Y-55506976D02*
X182316768Y-55506976D01*
X182316768Y-56030785D02*
X182316768Y-55030785D01*
X183316768Y-56030785D02*
X182745339Y-56030785D01*
X183031054Y-56030785D02*
X183031054Y-55030785D01*
X182935815Y-55173643D01*
X182840577Y-55268881D01*
X182745339Y-55316500D01*
X183792958Y-56030785D02*
X183983435Y-56030785D01*
X184078673Y-55983166D01*
X184126292Y-55935547D01*
X184221530Y-55792690D01*
X184269149Y-55602214D01*
X184269149Y-55221262D01*
X184221530Y-55126024D01*
X184173911Y-55078405D01*
X184078673Y-55030785D01*
X183888196Y-55030785D01*
X183792958Y-55078405D01*
X183745339Y-55126024D01*
X183697720Y-55221262D01*
X183697720Y-55459357D01*
X183745339Y-55554595D01*
X183792958Y-55602214D01*
X183888196Y-55649833D01*
X184078673Y-55649833D01*
X184173911Y-55602214D01*
X184221530Y-55554595D01*
X184269149Y-55459357D01*
X229370339Y-32218285D02*
X229370339Y-31218285D01*
X229370339Y-31694476D02*
X229941768Y-31694476D01*
X229941768Y-32218285D02*
X229941768Y-31218285D01*
X230941768Y-32218285D02*
X230370339Y-32218285D01*
X230656054Y-32218285D02*
X230656054Y-31218285D01*
X230560815Y-31361143D01*
X230465577Y-31456381D01*
X230370339Y-31504000D01*
X231798911Y-31218285D02*
X231608435Y-31218285D01*
X231513196Y-31265905D01*
X231465577Y-31313524D01*
X231370339Y-31456381D01*
X231322720Y-31646857D01*
X231322720Y-32027809D01*
X231370339Y-32123047D01*
X231417958Y-32170666D01*
X231513196Y-32218285D01*
X231703673Y-32218285D01*
X231798911Y-32170666D01*
X231846530Y-32123047D01*
X231894149Y-32027809D01*
X231894149Y-31789714D01*
X231846530Y-31694476D01*
X231798911Y-31646857D01*
X231703673Y-31599238D01*
X231513196Y-31599238D01*
X231417958Y-31646857D01*
X231370339Y-31694476D01*
X231322720Y-31789714D01*
X286520339Y-32218285D02*
X286520339Y-31218285D01*
X286520339Y-31694476D02*
X287091768Y-31694476D01*
X287091768Y-32218285D02*
X287091768Y-31218285D01*
X288091768Y-32218285D02*
X287520339Y-32218285D01*
X287806054Y-32218285D02*
X287806054Y-31218285D01*
X287710815Y-31361143D01*
X287615577Y-31456381D01*
X287520339Y-31504000D01*
X288425101Y-31218285D02*
X289091768Y-31218285D01*
X288663196Y-32218285D01*
D11*
X157733435Y-81525280D02*
X170133435Y-81525280D01*
X170133435Y-93925280D02*
X157733435Y-93925280D01*
X157733435Y-93925280D02*
X157733435Y-81525280D01*
X170133435Y-81525280D02*
X170133435Y-93925280D01*
M02*
