%TF.GenerationSoftware,KiCad,Pcbnew,7.0.1-0*%
%TF.CreationDate,2023-05-14T12:25:02+09:00*%
%TF.ProjectId,Sandy_Middle,53616e64-795f-44d6-9964-646c652e6b69,v.0*%
%TF.SameCoordinates,Original*%
%TF.FileFunction,Drillmap*%
%TF.FilePolarity,Positive*%
%FSLAX45Y45*%
G04 Gerber Fmt 4.5, Leading zero omitted, Abs format (unit mm)*
G04 Created by KiCad (PCBNEW 7.0.1-0) date 2023-05-14 12:25:02*
%MOMM*%
%LPD*%
G01*
G04 APERTURE LIST*
%ADD10C,0.200000*%
%ADD11C,0.040000*%
%ADD12C,0.100000*%
%ADD13C,0.220000*%
G04 APERTURE END LIST*
D10*
D11*
X2204906Y-2799403D02*
X2244906Y-2839403D01*
X2244906Y-2799403D02*
X2204906Y-2839403D01*
X2204906Y-3990028D02*
X2244906Y-4030028D01*
X2244906Y-3990028D02*
X2204906Y-4030028D01*
X2204906Y-5180653D02*
X2244906Y-5220653D01*
X2244906Y-5180653D02*
X2204906Y-5220653D01*
X2800218Y-2204091D02*
X2840218Y-2244091D01*
X2840218Y-2204091D02*
X2800218Y-2244091D01*
X2800218Y-5656903D02*
X2840218Y-5696903D01*
X2840218Y-5656903D02*
X2800218Y-5696903D01*
X3990843Y-2204091D02*
X4030843Y-2244091D01*
X4030843Y-2204091D02*
X3990843Y-2244091D01*
X3990843Y-3870965D02*
X4030843Y-3910965D01*
X4030843Y-3870965D02*
X3990843Y-3910965D01*
X3990843Y-5180653D02*
X4030843Y-5220653D01*
X4030843Y-5180653D02*
X3990843Y-5220653D01*
X4109906Y-4109090D02*
X4149906Y-4149090D01*
X4149906Y-4109090D02*
X4109906Y-4149090D01*
X4705219Y-5656903D02*
X4745219Y-5696903D01*
X4745219Y-5656903D02*
X4705219Y-5696903D01*
X5062406Y-3990028D02*
X5102406Y-4030028D01*
X5102406Y-3990028D02*
X5062406Y-4030028D01*
X5181469Y-5180653D02*
X5221469Y-5220653D01*
X5221469Y-5180653D02*
X5181469Y-5220653D01*
X5185844Y-3685028D02*
X5225844Y-3725028D01*
X5225844Y-3685028D02*
X5185844Y-3725028D01*
X5187344Y-4688528D02*
X5227344Y-4728528D01*
X5227344Y-4688528D02*
X5187344Y-4728528D01*
X5300531Y-3990028D02*
X5340531Y-4030028D01*
X5340531Y-3990028D02*
X5300531Y-4030028D01*
X5805843Y-3805028D02*
X5845843Y-3845028D01*
X5845843Y-3805028D02*
X5805843Y-3845028D01*
X5895843Y-2204091D02*
X5935843Y-2244091D01*
X5935843Y-2204091D02*
X5895843Y-2244091D01*
X5895843Y-3415028D02*
X5935843Y-3455028D01*
X5935843Y-3415028D02*
X5895843Y-3455028D01*
X6610218Y-4109090D02*
X6650218Y-4149090D01*
X6650218Y-4109090D02*
X6610218Y-4149090D01*
X6610218Y-5656903D02*
X6650218Y-5696903D01*
X6650218Y-5656903D02*
X6610218Y-5696903D01*
X6967406Y-3770953D02*
X7007406Y-3810953D01*
X7007406Y-3770953D02*
X6967406Y-3810953D01*
X7785843Y-2205028D02*
X7825843Y-2245028D01*
X7825843Y-2205028D02*
X7785843Y-2245028D01*
X8695844Y-3415028D02*
X8735844Y-3455028D01*
X8735844Y-3415028D02*
X8695844Y-3455028D01*
X8872406Y-3770953D02*
X8912406Y-3810953D01*
X8912406Y-3770953D02*
X8872406Y-3810953D01*
X9025844Y-3485028D02*
X9065844Y-3525028D01*
X9065844Y-3485028D02*
X9025844Y-3525028D01*
X9705844Y-2204091D02*
X9745844Y-2244091D01*
X9745844Y-2204091D02*
X9705844Y-2244091D01*
X9965844Y-2545028D02*
X10005844Y-2585028D01*
X10005844Y-2545028D02*
X9965844Y-2585028D01*
X10465844Y-3785028D02*
X10505844Y-3825028D01*
X10505844Y-3785028D02*
X10465844Y-3825028D01*
X10595844Y-2685028D02*
X10635844Y-2725028D01*
X10635844Y-2685028D02*
X10595844Y-2725028D01*
X10765844Y-3165028D02*
X10805844Y-3205028D01*
X10805844Y-3165028D02*
X10765844Y-3205028D01*
X10785844Y-4045028D02*
X10825844Y-4085028D01*
X10825844Y-4045028D02*
X10785844Y-4085028D01*
X10865844Y-4925028D02*
X10905844Y-4965028D01*
X10905844Y-4925028D02*
X10865844Y-4965028D01*
X10896469Y-5656903D02*
X10936469Y-5696903D01*
X10936469Y-5656903D02*
X10896469Y-5696903D01*
X10902344Y-4688528D02*
X10942344Y-4728528D01*
X10942344Y-4688528D02*
X10902344Y-4728528D01*
X11005844Y-3215028D02*
X11045844Y-3255028D01*
X11045844Y-3215028D02*
X11005844Y-3255028D01*
X11105844Y-3025028D02*
X11145844Y-3065028D01*
X11145844Y-3025028D02*
X11105844Y-3065028D01*
X11305843Y-2665028D02*
X11345843Y-2705028D01*
X11345843Y-2665028D02*
X11305843Y-2705028D01*
X11565843Y-4365028D02*
X11605843Y-4405028D01*
X11605843Y-4365028D02*
X11565843Y-4405028D01*
X11610843Y-2204091D02*
X11650843Y-2244091D01*
X11650843Y-2204091D02*
X11610843Y-2244091D01*
X11721148Y-3674290D02*
X11761148Y-3714290D01*
X11761148Y-3674290D02*
X11721148Y-3714290D01*
X11785843Y-3606179D02*
X11825843Y-3646179D01*
X11825843Y-3606179D02*
X11785843Y-3646179D01*
X11825843Y-3485028D02*
X11865843Y-3525028D01*
X11865843Y-3485028D02*
X11825843Y-3525028D01*
X11845843Y-4185028D02*
X11885843Y-4225028D01*
X11885843Y-4185028D02*
X11845843Y-4225028D01*
X11915843Y-2665028D02*
X11955843Y-2705028D01*
X11955843Y-2665028D02*
X11915843Y-2705028D01*
X12206156Y-5656903D02*
X12246156Y-5696903D01*
X12246156Y-5656903D02*
X12206156Y-5696903D01*
X12425843Y-4785028D02*
X12465843Y-4825028D01*
X12465843Y-4785028D02*
X12425843Y-4825028D01*
X12445843Y-2885028D02*
X12485843Y-2925028D01*
X12485843Y-2885028D02*
X12445843Y-2925028D01*
X12665843Y-4305028D02*
X12705843Y-4345028D01*
X12705843Y-4305028D02*
X12665843Y-4345028D01*
X12745843Y-3005028D02*
X12785843Y-3045028D01*
X12785843Y-3005028D02*
X12745843Y-3045028D01*
X12801468Y-5895028D02*
X12841468Y-5935028D01*
X12841468Y-5895028D02*
X12801468Y-5935028D01*
X12801468Y-7561903D02*
X12841468Y-7601903D01*
X12841468Y-7561903D02*
X12801468Y-7601903D01*
X12807343Y-6596032D02*
X12847343Y-6636032D01*
X12847343Y-6596032D02*
X12807343Y-6636032D01*
X13005843Y-5775965D02*
X13045843Y-5815965D01*
X13045843Y-5775965D02*
X13005843Y-5815965D01*
X13105843Y-6025028D02*
X13145843Y-6065028D01*
X13145843Y-6025028D02*
X13105843Y-6065028D01*
X13185643Y-2204091D02*
X13225643Y-2244091D01*
X13225643Y-2204091D02*
X13185643Y-2244091D01*
X13275843Y-5040028D02*
X13315843Y-5080028D01*
X13315843Y-5040028D02*
X13275843Y-5080028D01*
X13277718Y-3275653D02*
X13317718Y-3315653D01*
X13317718Y-3275653D02*
X13277718Y-3315653D01*
X13277718Y-4109090D02*
X13317718Y-4149090D01*
X13317718Y-4109090D02*
X13277718Y-4149090D01*
X13625843Y-6025028D02*
X13665843Y-6065028D01*
X13665843Y-6025028D02*
X13625843Y-6065028D01*
X13634906Y-5299716D02*
X13674906Y-5339716D01*
X13674906Y-5299716D02*
X13634906Y-5339716D01*
X13665843Y-2985028D02*
X13705843Y-3025028D01*
X13705843Y-2985028D02*
X13665843Y-3025028D01*
X13753968Y-8157215D02*
X13793968Y-8197215D01*
X13793968Y-8157215D02*
X13753968Y-8197215D01*
X13753968Y-9225028D02*
X13793968Y-9265028D01*
X13793968Y-9225028D02*
X13753968Y-9265028D01*
X13765843Y-8505028D02*
X13805843Y-8545028D01*
X13805843Y-8505028D02*
X13765843Y-8545028D01*
X13846043Y-2204091D02*
X13886043Y-2244091D01*
X13886043Y-2204091D02*
X13846043Y-2244091D01*
X13945843Y-6645028D02*
X13985843Y-6685028D01*
X13985843Y-6645028D02*
X13945843Y-6685028D01*
X14145843Y-7365028D02*
X14185843Y-7405028D01*
X14185843Y-7365028D02*
X14145843Y-7405028D01*
X14210544Y-7445028D02*
X14250544Y-7485028D01*
X14250544Y-7445028D02*
X14210544Y-7485028D01*
X14715843Y-6595028D02*
X14755843Y-6635028D01*
X14755843Y-6595028D02*
X14715843Y-6635028D01*
X14775973Y-7306745D02*
X14815973Y-7346745D01*
X14815973Y-7306745D02*
X14775973Y-7346745D01*
X14785843Y-5299716D02*
X14825843Y-5339716D01*
X14825843Y-5299716D02*
X14785843Y-5339716D01*
X14862043Y-7571428D02*
X14902043Y-7611428D01*
X14902043Y-7571428D02*
X14862043Y-7611428D01*
X14945843Y-2665028D02*
X14985843Y-2705028D01*
X14985843Y-2665028D02*
X14945843Y-2705028D01*
X15063656Y-6133153D02*
X15103656Y-6173153D01*
X15103656Y-6133153D02*
X15063656Y-6173153D01*
X15243043Y-7076128D02*
X15283043Y-7116128D01*
X15283043Y-7076128D02*
X15243043Y-7116128D01*
X15268443Y-7936553D02*
X15308443Y-7976553D01*
X15308443Y-7936553D02*
X15268443Y-7976553D01*
X15420843Y-9225028D02*
X15460843Y-9265028D01*
X15460843Y-9225028D02*
X15420843Y-9265028D01*
X15465843Y-2985028D02*
X15505843Y-3025028D01*
X15505843Y-2985028D02*
X15465843Y-3025028D01*
X15715061Y-6717353D02*
X15755061Y-6757353D01*
X15755061Y-6717353D02*
X15715061Y-6757353D01*
X16016156Y-2204091D02*
X16056156Y-2244091D01*
X16056156Y-2204091D02*
X16016156Y-2244091D01*
X16185843Y-7605028D02*
X16225843Y-7645028D01*
X16225843Y-7605028D02*
X16185843Y-7645028D01*
X16225843Y-8245028D02*
X16265843Y-8285028D01*
X16265843Y-8245028D02*
X16225843Y-8285028D01*
X16305843Y-7865028D02*
X16345843Y-7905028D01*
X16345843Y-7865028D02*
X16305843Y-7905028D01*
X16373343Y-6133153D02*
X16413343Y-6173153D01*
X16413343Y-6133153D02*
X16373343Y-6173153D01*
X16730531Y-2204091D02*
X16770531Y-2244091D01*
X16770531Y-2204091D02*
X16730531Y-2244091D01*
X17085844Y-7605028D02*
X17125844Y-7645028D01*
X17125844Y-7605028D02*
X17085844Y-7645028D01*
X17224244Y-6539553D02*
X17264244Y-6579553D01*
X17264244Y-6539553D02*
X17224244Y-6579553D01*
X17325844Y-9225028D02*
X17365844Y-9265028D01*
X17365844Y-9225028D02*
X17325844Y-9265028D01*
X17377581Y-2985028D02*
X17417581Y-3025028D01*
X17417581Y-2985028D02*
X17377581Y-3025028D01*
X17445844Y-7755028D02*
X17485844Y-7795028D01*
X17485844Y-7755028D02*
X17445844Y-7795028D01*
X17525844Y-7826070D02*
X17565844Y-7866070D01*
X17565844Y-7826070D02*
X17525844Y-7866070D01*
X17578814Y-8505028D02*
X17618814Y-8545028D01*
X17618814Y-8505028D02*
X17578814Y-8545028D01*
X17677076Y-7436260D02*
X17717076Y-7476260D01*
X17717076Y-7436260D02*
X17677076Y-7476260D01*
X17683031Y-6133153D02*
X17723031Y-6173153D01*
X17723031Y-6133153D02*
X17683031Y-6173153D01*
X17825844Y-2665028D02*
X17865844Y-2705028D01*
X17865844Y-2665028D02*
X17825844Y-2705028D01*
X17845843Y-7369715D02*
X17885843Y-7409715D01*
X17885843Y-7369715D02*
X17845843Y-7409715D01*
X17945844Y-5325028D02*
X17985844Y-5365028D01*
X17985844Y-5325028D02*
X17945844Y-5365028D01*
X18234512Y-7572058D02*
X18274512Y-7612058D01*
X18274512Y-7572058D02*
X18234512Y-7612058D01*
X18276210Y-6748073D02*
X18316210Y-6788073D01*
X18316210Y-6748073D02*
X18276210Y-6788073D01*
X18379944Y-7139628D02*
X18419944Y-7179628D01*
X18419944Y-7139628D02*
X18379944Y-7179628D01*
X18645844Y-8505028D02*
X18685844Y-8545028D01*
X18685844Y-8505028D02*
X18645844Y-8545028D01*
X18900644Y-2204091D02*
X18940644Y-2244091D01*
X18940644Y-2204091D02*
X18900644Y-2244091D01*
X18985844Y-9225028D02*
X19025844Y-9265028D01*
X19025844Y-9225028D02*
X18985844Y-9265028D01*
X19078444Y-8054028D02*
X19118444Y-8094028D01*
X19118444Y-8054028D02*
X19078444Y-8094028D01*
X19111781Y-5299716D02*
X19151781Y-5339716D01*
X19151781Y-5299716D02*
X19111781Y-5339716D01*
X19154644Y-7622228D02*
X19194644Y-7662228D01*
X19194644Y-7622228D02*
X19154644Y-7662228D01*
X19180044Y-6352228D02*
X19220044Y-6392228D01*
X19220044Y-6352228D02*
X19180044Y-6392228D01*
X19195844Y-5915028D02*
X19235844Y-5955028D01*
X19235844Y-5915028D02*
X19195844Y-5955028D01*
X19205844Y-3005028D02*
X19245844Y-3045028D01*
X19245844Y-3005028D02*
X19205844Y-3045028D01*
X19305844Y-5895028D02*
X19345844Y-5935028D01*
X19345844Y-5895028D02*
X19305844Y-5935028D01*
X19319125Y-2786747D02*
X19359125Y-2826747D01*
X19359125Y-2786747D02*
X19319125Y-2826747D01*
X19445844Y-5085028D02*
X19485844Y-5125028D01*
X19485844Y-5085028D02*
X19445844Y-5125028D01*
X19465844Y-4165028D02*
X19505844Y-4205028D01*
X19505844Y-4165028D02*
X19465844Y-4205028D01*
X19561044Y-2204091D02*
X19601044Y-2244091D01*
X19601044Y-2204091D02*
X19561044Y-2244091D01*
X19691490Y-5193274D02*
X19731490Y-5233274D01*
X19731490Y-5193274D02*
X19691490Y-5233274D01*
X19860844Y-5565028D02*
X19900844Y-5605028D01*
X19900844Y-5565028D02*
X19860844Y-5605028D01*
X19925844Y-3582840D02*
X19965844Y-3622840D01*
X19965844Y-3582840D02*
X19925844Y-3622840D01*
X19945219Y-5895028D02*
X19985219Y-5935028D01*
X19985219Y-5895028D02*
X19945219Y-5935028D01*
X19945219Y-7561903D02*
X19985219Y-7601903D01*
X19985219Y-7561903D02*
X19945219Y-7601903D01*
X20065844Y-4025028D02*
X20105844Y-4065028D01*
X20105844Y-4025028D02*
X20065844Y-4065028D01*
X20265844Y-3565028D02*
X20305844Y-3605028D01*
X20305844Y-3565028D02*
X20265844Y-3605028D01*
X20405844Y-4925028D02*
X20445844Y-4965028D01*
X20445844Y-4925028D02*
X20405844Y-4965028D01*
X20427344Y-4688528D02*
X20467344Y-4728528D01*
X20467344Y-4688528D02*
X20427344Y-4728528D01*
X20540531Y-5656903D02*
X20580531Y-5696903D01*
X20580531Y-5656903D02*
X20540531Y-5696903D01*
X20585844Y-4285028D02*
X20625844Y-4325028D01*
X20625844Y-4285028D02*
X20585844Y-4325028D01*
X20805844Y-3685028D02*
X20845844Y-3725028D01*
X20845844Y-3685028D02*
X20805844Y-3725028D01*
X20845844Y-2685028D02*
X20885844Y-2725028D01*
X20885844Y-2685028D02*
X20845844Y-2725028D01*
X20868814Y-4105028D02*
X20908814Y-4145028D01*
X20908814Y-4105028D02*
X20868814Y-4145028D01*
X20945844Y-4165028D02*
X20985844Y-4205028D01*
X20985844Y-4165028D02*
X20945844Y-4205028D01*
X21016781Y-4109090D02*
X21056781Y-4149090D01*
X21056781Y-4109090D02*
X21016781Y-4149090D01*
X21085844Y-3037528D02*
X21125844Y-3077528D01*
X21125844Y-3037528D02*
X21085844Y-3077528D01*
X21135844Y-2204091D02*
X21175844Y-2244091D01*
X21175844Y-2204091D02*
X21135844Y-2244091D01*
X21145844Y-3545028D02*
X21185844Y-3585028D01*
X21185844Y-3545028D02*
X21145844Y-3585028D01*
X21425844Y-2685028D02*
X21465844Y-2725028D01*
X21465844Y-2685028D02*
X21425844Y-2725028D01*
X21625844Y-3037528D02*
X21665844Y-3077528D01*
X21665844Y-3037528D02*
X21625844Y-3077528D01*
X21645844Y-2895387D02*
X21685844Y-2935387D01*
X21685844Y-2895387D02*
X21645844Y-2935387D01*
X21850219Y-3990028D02*
X21890219Y-4030028D01*
X21890219Y-3990028D02*
X21850219Y-4030028D01*
X21850219Y-5656903D02*
X21890219Y-5696903D01*
X21890219Y-5656903D02*
X21850219Y-5696903D01*
X22305844Y-2705028D02*
X22345844Y-2745028D01*
X22345844Y-2705028D02*
X22305844Y-2745028D01*
X22326469Y-3786828D02*
X22366469Y-3826828D01*
X22366469Y-3786828D02*
X22326469Y-3826828D01*
X23040843Y-2204091D02*
X23080843Y-2244091D01*
X23080843Y-2204091D02*
X23040843Y-2244091D01*
X23980643Y-3786828D02*
X24020643Y-3826828D01*
X24020643Y-3786828D02*
X23980643Y-3826828D01*
X23993343Y-3037528D02*
X24033343Y-3077528D01*
X24033343Y-3037528D02*
X23993343Y-3077528D01*
X24005843Y-2605028D02*
X24045843Y-2645028D01*
X24045843Y-2605028D02*
X24005843Y-2645028D01*
X24945843Y-2205028D02*
X24985843Y-2245028D01*
X24985843Y-2205028D02*
X24945843Y-2245028D01*
X25660218Y-3786828D02*
X25700218Y-3826828D01*
X25700218Y-3786828D02*
X25660218Y-3826828D01*
X25898343Y-3037528D02*
X25938343Y-3077528D01*
X25938343Y-3037528D02*
X25898343Y-3077528D01*
X26017406Y-4466278D02*
X26057406Y-4506278D01*
X26057406Y-4466278D02*
X26017406Y-4506278D01*
X26017406Y-4942528D02*
X26057406Y-4982528D01*
X26057406Y-4942528D02*
X26017406Y-4982528D01*
X26136468Y-5656903D02*
X26176468Y-5696903D01*
X26176468Y-5656903D02*
X26136468Y-5696903D01*
X26145843Y-2729358D02*
X26185843Y-2769358D01*
X26185843Y-2729358D02*
X26145843Y-2769358D01*
X26145843Y-4685028D02*
X26185843Y-4725028D01*
X26185843Y-4685028D02*
X26145843Y-4725028D01*
X26205843Y-2825028D02*
X26245843Y-2865028D01*
X26245843Y-2825028D02*
X26205843Y-2865028D01*
X26205843Y-4109090D02*
X26245843Y-4149090D01*
X26245843Y-4109090D02*
X26205843Y-4149090D01*
X26345843Y-2785028D02*
X26385843Y-2825028D01*
X26385843Y-2785028D02*
X26345843Y-2825028D01*
X26850843Y-2204091D02*
X26890843Y-2244091D01*
X26890843Y-2204091D02*
X26850843Y-2244091D01*
X27446156Y-3990028D02*
X27486156Y-4030028D01*
X27486156Y-3990028D02*
X27446156Y-4030028D01*
X27625843Y-5145028D02*
X27665843Y-5185028D01*
X27665843Y-5145028D02*
X27625843Y-5185028D01*
X27922406Y-2799403D02*
X27962406Y-2839403D01*
X27962406Y-2799403D02*
X27922406Y-2839403D01*
X27922406Y-3037528D02*
X27962406Y-3077528D01*
X27962406Y-3037528D02*
X27922406Y-3077528D01*
X28279593Y-5656903D02*
X28319593Y-5696903D01*
X28319593Y-5656903D02*
X28279593Y-5696903D01*
X28755843Y-2204091D02*
X28795843Y-2244091D01*
X28795843Y-2204091D02*
X28755843Y-2244091D01*
X28874906Y-3990028D02*
X28914906Y-4030028D01*
X28914906Y-3990028D02*
X28874906Y-4030028D01*
X29945843Y-2205028D02*
X29985843Y-2245028D01*
X29985843Y-2205028D02*
X29945843Y-2245028D01*
X29946468Y-5656903D02*
X29986468Y-5696903D01*
X29986468Y-5656903D02*
X29946468Y-5696903D01*
X30422718Y-2799403D02*
X30462718Y-2839403D01*
X30462718Y-2799403D02*
X30422718Y-2839403D01*
X30422718Y-5180653D02*
X30462718Y-5220653D01*
X30462718Y-5180653D02*
X30422718Y-5220653D01*
X30445843Y-3990028D02*
X30485843Y-4030028D01*
X30485843Y-3990028D02*
X30445843Y-4030028D01*
D12*
X5013344Y-3771903D02*
G75*
G03*
X5013344Y-3771903I-50000J0D01*
G01*
X5608656Y-3771903D02*
G75*
G03*
X5608656Y-3771903I-50000J0D01*
G01*
X10252094Y-2462216D02*
G75*
G03*
X10252094Y-2462216I-50000J0D01*
G01*
X10609281Y-2462216D02*
G75*
G03*
X10609281Y-2462216I-50000J0D01*
G01*
X10966469Y-2462216D02*
G75*
G03*
X10966469Y-2462216I-50000J0D01*
G01*
X12851468Y-4524403D02*
G75*
G03*
X12851468Y-4524403I-50000J0D01*
G01*
X12851468Y-4924403D02*
G75*
G03*
X12851468Y-4924403I-50000J0D01*
G01*
X13041468Y-4624403D02*
G75*
G03*
X13041468Y-4624403I-50000J0D01*
G01*
X13041468Y-4824403D02*
G75*
G03*
X13041468Y-4824403I-50000J0D01*
G01*
X18348344Y-2462216D02*
G75*
G03*
X18348344Y-2462216I-50000J0D01*
G01*
X18705531Y-2462216D02*
G75*
G03*
X18705531Y-2462216I-50000J0D01*
G01*
X19765844Y-3552840D02*
G75*
G03*
X19765844Y-3552840I-50000J0D01*
G01*
X19765844Y-3752840D02*
G75*
G03*
X19765844Y-3752840I-50000J0D01*
G01*
X19765844Y-4624403D02*
G75*
G03*
X19765844Y-4624403I-50000J0D01*
G01*
X19765844Y-4824403D02*
G75*
G03*
X19765844Y-4824403I-50000J0D01*
G01*
X19955844Y-3452840D02*
G75*
G03*
X19955844Y-3452840I-50000J0D01*
G01*
X19955844Y-3852840D02*
G75*
G03*
X19955844Y-3852840I-50000J0D01*
G01*
X19955844Y-4524403D02*
G75*
G03*
X19955844Y-4524403I-50000J0D01*
G01*
X19955844Y-4924403D02*
G75*
G03*
X19955844Y-4924403I-50000J0D01*
G01*
X20134281Y-2462216D02*
G75*
G03*
X20134281Y-2462216I-50000J0D01*
G01*
X20491469Y-2462216D02*
G75*
G03*
X20491469Y-2462216I-50000J0D01*
G01*
X21920219Y-2462216D02*
G75*
G03*
X21920219Y-2462216I-50000J0D01*
G01*
X22277406Y-2462216D02*
G75*
G03*
X22277406Y-2462216I-50000J0D01*
G01*
X22634593Y-2462216D02*
G75*
G03*
X22634593Y-2462216I-50000J0D01*
G01*
D13*
X2463031Y-2303353D02*
X2463031Y-2523353D01*
X2353031Y-2413353D02*
X2573031Y-2413353D01*
X2463031Y-5448778D02*
X2463031Y-5668778D01*
X2353031Y-5558778D02*
X2573031Y-5558778D01*
X4010843Y-3066590D02*
X4010843Y-3286590D01*
X3900843Y-3176590D02*
X4120843Y-3176590D01*
X7820843Y-3066590D02*
X7820843Y-3286590D01*
X7710843Y-3176590D02*
X7930843Y-3176590D01*
X9725844Y-3066590D02*
X9725844Y-3286590D01*
X9615844Y-3176590D02*
X9835844Y-3176590D01*
X12583343Y-5447841D02*
X12583343Y-5667840D01*
X12473343Y-5557841D02*
X12693343Y-5557841D01*
X13535843Y-2303353D02*
X13535843Y-2523353D01*
X13425843Y-2413353D02*
X13645843Y-2413353D01*
X13893031Y-7710028D02*
X13893031Y-7930028D01*
X13783031Y-7820028D02*
X14003031Y-7820028D01*
X14488343Y-5447841D02*
X14488343Y-5667840D01*
X14378343Y-5557841D02*
X14598343Y-5557841D01*
X16393343Y-2303353D02*
X16393343Y-2523353D01*
X16283343Y-2413353D02*
X16503343Y-2413353D01*
X18298344Y-5447841D02*
X18298344Y-5667840D01*
X18188344Y-5557841D02*
X18408344Y-5557841D01*
X18893656Y-7710028D02*
X18893656Y-7930028D01*
X18783656Y-7820028D02*
X19003656Y-7820028D01*
X19250844Y-2303353D02*
X19250844Y-2523353D01*
X19140844Y-2413353D02*
X19360844Y-2413353D01*
X20203344Y-5452528D02*
X20203344Y-5672528D01*
X20093344Y-5562528D02*
X20313344Y-5562528D01*
X23060843Y-3066590D02*
X23060843Y-3286590D01*
X22950843Y-3176590D02*
X23170843Y-3176590D01*
X24965843Y-3066590D02*
X24965843Y-3286590D01*
X24855843Y-3176590D02*
X25075843Y-3176590D01*
X28775843Y-3066590D02*
X28775843Y-3286590D01*
X28665843Y-3176590D02*
X28885843Y-3176590D01*
X30323656Y-2303353D02*
X30323656Y-2523353D01*
X30213656Y-2413353D02*
X30433656Y-2413353D01*
X30323656Y-5448778D02*
X30323656Y-5668778D01*
X30213656Y-5558778D02*
X30433656Y-5558778D01*
D10*
X2373463Y-9800052D02*
X2373463Y-9600052D01*
X2373463Y-9600052D02*
X2421082Y-9600052D01*
X2421082Y-9600052D02*
X2449653Y-9609576D01*
X2449653Y-9609576D02*
X2468701Y-9628623D01*
X2468701Y-9628623D02*
X2478224Y-9647671D01*
X2478224Y-9647671D02*
X2487748Y-9685766D01*
X2487748Y-9685766D02*
X2487748Y-9714338D01*
X2487748Y-9714338D02*
X2478224Y-9752433D01*
X2478224Y-9752433D02*
X2468701Y-9771480D01*
X2468701Y-9771480D02*
X2449653Y-9790528D01*
X2449653Y-9790528D02*
X2421082Y-9800052D01*
X2421082Y-9800052D02*
X2373463Y-9800052D01*
X2573463Y-9800052D02*
X2573463Y-9666718D01*
X2573463Y-9704814D02*
X2582986Y-9685766D01*
X2582986Y-9685766D02*
X2592510Y-9676242D01*
X2592510Y-9676242D02*
X2611558Y-9666718D01*
X2611558Y-9666718D02*
X2630605Y-9666718D01*
X2697272Y-9800052D02*
X2697272Y-9666718D01*
X2697272Y-9600052D02*
X2687748Y-9609576D01*
X2687748Y-9609576D02*
X2697272Y-9619099D01*
X2697272Y-9619099D02*
X2706796Y-9609576D01*
X2706796Y-9609576D02*
X2697272Y-9600052D01*
X2697272Y-9600052D02*
X2697272Y-9619099D01*
X2821081Y-9800052D02*
X2802034Y-9790528D01*
X2802034Y-9790528D02*
X2792510Y-9771480D01*
X2792510Y-9771480D02*
X2792510Y-9600052D01*
X2925843Y-9800052D02*
X2906796Y-9790528D01*
X2906796Y-9790528D02*
X2897272Y-9771480D01*
X2897272Y-9771480D02*
X2897272Y-9600052D01*
X3154415Y-9800052D02*
X3154415Y-9600052D01*
X3154415Y-9600052D02*
X3221082Y-9742909D01*
X3221082Y-9742909D02*
X3287748Y-9600052D01*
X3287748Y-9600052D02*
X3287748Y-9800052D01*
X3468701Y-9800052D02*
X3468701Y-9695290D01*
X3468701Y-9695290D02*
X3459177Y-9676242D01*
X3459177Y-9676242D02*
X3440129Y-9666718D01*
X3440129Y-9666718D02*
X3402034Y-9666718D01*
X3402034Y-9666718D02*
X3382986Y-9676242D01*
X3468701Y-9790528D02*
X3449653Y-9800052D01*
X3449653Y-9800052D02*
X3402034Y-9800052D01*
X3402034Y-9800052D02*
X3382986Y-9790528D01*
X3382986Y-9790528D02*
X3373462Y-9771480D01*
X3373462Y-9771480D02*
X3373462Y-9752433D01*
X3373462Y-9752433D02*
X3382986Y-9733385D01*
X3382986Y-9733385D02*
X3402034Y-9723861D01*
X3402034Y-9723861D02*
X3449653Y-9723861D01*
X3449653Y-9723861D02*
X3468701Y-9714338D01*
X3563939Y-9666718D02*
X3563939Y-9866718D01*
X3563939Y-9676242D02*
X3582986Y-9666718D01*
X3582986Y-9666718D02*
X3621082Y-9666718D01*
X3621082Y-9666718D02*
X3640129Y-9676242D01*
X3640129Y-9676242D02*
X3649653Y-9685766D01*
X3649653Y-9685766D02*
X3659177Y-9704814D01*
X3659177Y-9704814D02*
X3659177Y-9761957D01*
X3659177Y-9761957D02*
X3649653Y-9781004D01*
X3649653Y-9781004D02*
X3640129Y-9790528D01*
X3640129Y-9790528D02*
X3621082Y-9800052D01*
X3621082Y-9800052D02*
X3582986Y-9800052D01*
X3582986Y-9800052D02*
X3563939Y-9790528D01*
X3744891Y-9781004D02*
X3754415Y-9790528D01*
X3754415Y-9790528D02*
X3744891Y-9800052D01*
X3744891Y-9800052D02*
X3735367Y-9790528D01*
X3735367Y-9790528D02*
X3744891Y-9781004D01*
X3744891Y-9781004D02*
X3744891Y-9800052D01*
X3744891Y-9676242D02*
X3754415Y-9685766D01*
X3754415Y-9685766D02*
X3744891Y-9695290D01*
X3744891Y-9695290D02*
X3735367Y-9685766D01*
X3735367Y-9685766D02*
X3744891Y-9676242D01*
X3744891Y-9676242D02*
X3744891Y-9695290D01*
D11*
X2085843Y-10107528D02*
X2125844Y-10147528D01*
X2125844Y-10107528D02*
X2085843Y-10147528D01*
D10*
X2411558Y-10020052D02*
X2430605Y-10020052D01*
X2430605Y-10020052D02*
X2449653Y-10029576D01*
X2449653Y-10029576D02*
X2459177Y-10039099D01*
X2459177Y-10039099D02*
X2468701Y-10058147D01*
X2468701Y-10058147D02*
X2478224Y-10096242D01*
X2478224Y-10096242D02*
X2478224Y-10143861D01*
X2478224Y-10143861D02*
X2468701Y-10181957D01*
X2468701Y-10181957D02*
X2459177Y-10201004D01*
X2459177Y-10201004D02*
X2449653Y-10210528D01*
X2449653Y-10210528D02*
X2430605Y-10220052D01*
X2430605Y-10220052D02*
X2411558Y-10220052D01*
X2411558Y-10220052D02*
X2392510Y-10210528D01*
X2392510Y-10210528D02*
X2382986Y-10201004D01*
X2382986Y-10201004D02*
X2373463Y-10181957D01*
X2373463Y-10181957D02*
X2363939Y-10143861D01*
X2363939Y-10143861D02*
X2363939Y-10096242D01*
X2363939Y-10096242D02*
X2373463Y-10058147D01*
X2373463Y-10058147D02*
X2382986Y-10039099D01*
X2382986Y-10039099D02*
X2392510Y-10029576D01*
X2392510Y-10029576D02*
X2411558Y-10020052D01*
X2563939Y-10201004D02*
X2573463Y-10210528D01*
X2573463Y-10210528D02*
X2563939Y-10220052D01*
X2563939Y-10220052D02*
X2554415Y-10210528D01*
X2554415Y-10210528D02*
X2563939Y-10201004D01*
X2563939Y-10201004D02*
X2563939Y-10220052D01*
X2744891Y-10086718D02*
X2744891Y-10220052D01*
X2697272Y-10010528D02*
X2649653Y-10153385D01*
X2649653Y-10153385D02*
X2773463Y-10153385D01*
X2887748Y-10020052D02*
X2906796Y-10020052D01*
X2906796Y-10020052D02*
X2925843Y-10029576D01*
X2925843Y-10029576D02*
X2935367Y-10039099D01*
X2935367Y-10039099D02*
X2944891Y-10058147D01*
X2944891Y-10058147D02*
X2954415Y-10096242D01*
X2954415Y-10096242D02*
X2954415Y-10143861D01*
X2954415Y-10143861D02*
X2944891Y-10181957D01*
X2944891Y-10181957D02*
X2935367Y-10201004D01*
X2935367Y-10201004D02*
X2925843Y-10210528D01*
X2925843Y-10210528D02*
X2906796Y-10220052D01*
X2906796Y-10220052D02*
X2887748Y-10220052D01*
X2887748Y-10220052D02*
X2868701Y-10210528D01*
X2868701Y-10210528D02*
X2859177Y-10201004D01*
X2859177Y-10201004D02*
X2849653Y-10181957D01*
X2849653Y-10181957D02*
X2840129Y-10143861D01*
X2840129Y-10143861D02*
X2840129Y-10096242D01*
X2840129Y-10096242D02*
X2849653Y-10058147D01*
X2849653Y-10058147D02*
X2859177Y-10039099D01*
X2859177Y-10039099D02*
X2868701Y-10029576D01*
X2868701Y-10029576D02*
X2887748Y-10020052D01*
X3078224Y-10020052D02*
X3097272Y-10020052D01*
X3097272Y-10020052D02*
X3116320Y-10029576D01*
X3116320Y-10029576D02*
X3125843Y-10039099D01*
X3125843Y-10039099D02*
X3135367Y-10058147D01*
X3135367Y-10058147D02*
X3144891Y-10096242D01*
X3144891Y-10096242D02*
X3144891Y-10143861D01*
X3144891Y-10143861D02*
X3135367Y-10181957D01*
X3135367Y-10181957D02*
X3125843Y-10201004D01*
X3125843Y-10201004D02*
X3116320Y-10210528D01*
X3116320Y-10210528D02*
X3097272Y-10220052D01*
X3097272Y-10220052D02*
X3078224Y-10220052D01*
X3078224Y-10220052D02*
X3059177Y-10210528D01*
X3059177Y-10210528D02*
X3049653Y-10201004D01*
X3049653Y-10201004D02*
X3040129Y-10181957D01*
X3040129Y-10181957D02*
X3030605Y-10143861D01*
X3030605Y-10143861D02*
X3030605Y-10096242D01*
X3030605Y-10096242D02*
X3040129Y-10058147D01*
X3040129Y-10058147D02*
X3049653Y-10039099D01*
X3049653Y-10039099D02*
X3059177Y-10029576D01*
X3059177Y-10029576D02*
X3078224Y-10020052D01*
X3230605Y-10220052D02*
X3230605Y-10086718D01*
X3230605Y-10105766D02*
X3240129Y-10096242D01*
X3240129Y-10096242D02*
X3259177Y-10086718D01*
X3259177Y-10086718D02*
X3287748Y-10086718D01*
X3287748Y-10086718D02*
X3306796Y-10096242D01*
X3306796Y-10096242D02*
X3316320Y-10115290D01*
X3316320Y-10115290D02*
X3316320Y-10220052D01*
X3316320Y-10115290D02*
X3325843Y-10096242D01*
X3325843Y-10096242D02*
X3344891Y-10086718D01*
X3344891Y-10086718D02*
X3373462Y-10086718D01*
X3373462Y-10086718D02*
X3392510Y-10096242D01*
X3392510Y-10096242D02*
X3402034Y-10115290D01*
X3402034Y-10115290D02*
X3402034Y-10220052D01*
X3497272Y-10220052D02*
X3497272Y-10086718D01*
X3497272Y-10105766D02*
X3506796Y-10096242D01*
X3506796Y-10096242D02*
X3525843Y-10086718D01*
X3525843Y-10086718D02*
X3554415Y-10086718D01*
X3554415Y-10086718D02*
X3573463Y-10096242D01*
X3573463Y-10096242D02*
X3582986Y-10115290D01*
X3582986Y-10115290D02*
X3582986Y-10220052D01*
X3582986Y-10115290D02*
X3592510Y-10096242D01*
X3592510Y-10096242D02*
X3611558Y-10086718D01*
X3611558Y-10086718D02*
X3640129Y-10086718D01*
X3640129Y-10086718D02*
X3659177Y-10096242D01*
X3659177Y-10096242D02*
X3668701Y-10115290D01*
X3668701Y-10115290D02*
X3668701Y-10220052D01*
X4059177Y-10010528D02*
X3887748Y-10267671D01*
X4316320Y-10020052D02*
X4335368Y-10020052D01*
X4335368Y-10020052D02*
X4354415Y-10029576D01*
X4354415Y-10029576D02*
X4363939Y-10039099D01*
X4363939Y-10039099D02*
X4373463Y-10058147D01*
X4373463Y-10058147D02*
X4382987Y-10096242D01*
X4382987Y-10096242D02*
X4382987Y-10143861D01*
X4382987Y-10143861D02*
X4373463Y-10181957D01*
X4373463Y-10181957D02*
X4363939Y-10201004D01*
X4363939Y-10201004D02*
X4354415Y-10210528D01*
X4354415Y-10210528D02*
X4335368Y-10220052D01*
X4335368Y-10220052D02*
X4316320Y-10220052D01*
X4316320Y-10220052D02*
X4297272Y-10210528D01*
X4297272Y-10210528D02*
X4287748Y-10201004D01*
X4287748Y-10201004D02*
X4278225Y-10181957D01*
X4278225Y-10181957D02*
X4268701Y-10143861D01*
X4268701Y-10143861D02*
X4268701Y-10096242D01*
X4268701Y-10096242D02*
X4278225Y-10058147D01*
X4278225Y-10058147D02*
X4287748Y-10039099D01*
X4287748Y-10039099D02*
X4297272Y-10029576D01*
X4297272Y-10029576D02*
X4316320Y-10020052D01*
X4468701Y-10201004D02*
X4478225Y-10210528D01*
X4478225Y-10210528D02*
X4468701Y-10220052D01*
X4468701Y-10220052D02*
X4459177Y-10210528D01*
X4459177Y-10210528D02*
X4468701Y-10201004D01*
X4468701Y-10201004D02*
X4468701Y-10220052D01*
X4602034Y-10020052D02*
X4621082Y-10020052D01*
X4621082Y-10020052D02*
X4640129Y-10029576D01*
X4640129Y-10029576D02*
X4649653Y-10039099D01*
X4649653Y-10039099D02*
X4659177Y-10058147D01*
X4659177Y-10058147D02*
X4668701Y-10096242D01*
X4668701Y-10096242D02*
X4668701Y-10143861D01*
X4668701Y-10143861D02*
X4659177Y-10181957D01*
X4659177Y-10181957D02*
X4649653Y-10201004D01*
X4649653Y-10201004D02*
X4640129Y-10210528D01*
X4640129Y-10210528D02*
X4621082Y-10220052D01*
X4621082Y-10220052D02*
X4602034Y-10220052D01*
X4602034Y-10220052D02*
X4582987Y-10210528D01*
X4582987Y-10210528D02*
X4573463Y-10201004D01*
X4573463Y-10201004D02*
X4563939Y-10181957D01*
X4563939Y-10181957D02*
X4554415Y-10143861D01*
X4554415Y-10143861D02*
X4554415Y-10096242D01*
X4554415Y-10096242D02*
X4563939Y-10058147D01*
X4563939Y-10058147D02*
X4573463Y-10039099D01*
X4573463Y-10039099D02*
X4582987Y-10029576D01*
X4582987Y-10029576D02*
X4602034Y-10020052D01*
X4859177Y-10220052D02*
X4744891Y-10220052D01*
X4802034Y-10220052D02*
X4802034Y-10020052D01*
X4802034Y-10020052D02*
X4782987Y-10048623D01*
X4782987Y-10048623D02*
X4763939Y-10067671D01*
X4763939Y-10067671D02*
X4744891Y-10077195D01*
X5040129Y-10020052D02*
X4944891Y-10020052D01*
X4944891Y-10020052D02*
X4935368Y-10115290D01*
X4935368Y-10115290D02*
X4944891Y-10105766D01*
X4944891Y-10105766D02*
X4963939Y-10096242D01*
X4963939Y-10096242D02*
X5011558Y-10096242D01*
X5011558Y-10096242D02*
X5030606Y-10105766D01*
X5030606Y-10105766D02*
X5040129Y-10115290D01*
X5040129Y-10115290D02*
X5049653Y-10134338D01*
X5049653Y-10134338D02*
X5049653Y-10181957D01*
X5049653Y-10181957D02*
X5040129Y-10201004D01*
X5040129Y-10201004D02*
X5030606Y-10210528D01*
X5030606Y-10210528D02*
X5011558Y-10220052D01*
X5011558Y-10220052D02*
X4963939Y-10220052D01*
X4963939Y-10220052D02*
X4944891Y-10210528D01*
X4944891Y-10210528D02*
X4935368Y-10201004D01*
X5116320Y-10020052D02*
X5249653Y-10020052D01*
X5249653Y-10020052D02*
X5163939Y-10220052D01*
X5316320Y-10020052D02*
X5316320Y-10058147D01*
X5392510Y-10020052D02*
X5392510Y-10058147D01*
X5687749Y-10296242D02*
X5678225Y-10286718D01*
X5678225Y-10286718D02*
X5659177Y-10258147D01*
X5659177Y-10258147D02*
X5649653Y-10239099D01*
X5649653Y-10239099D02*
X5640129Y-10210528D01*
X5640129Y-10210528D02*
X5630606Y-10162909D01*
X5630606Y-10162909D02*
X5630606Y-10124814D01*
X5630606Y-10124814D02*
X5640129Y-10077195D01*
X5640129Y-10077195D02*
X5649653Y-10048623D01*
X5649653Y-10048623D02*
X5659177Y-10029576D01*
X5659177Y-10029576D02*
X5678225Y-10001004D01*
X5678225Y-10001004D02*
X5687749Y-9991480D01*
X5868701Y-10220052D02*
X5754415Y-10220052D01*
X5811558Y-10220052D02*
X5811558Y-10020052D01*
X5811558Y-10020052D02*
X5792510Y-10048623D01*
X5792510Y-10048623D02*
X5773463Y-10067671D01*
X5773463Y-10067671D02*
X5754415Y-10077195D01*
X6040129Y-10020052D02*
X6002034Y-10020052D01*
X6002034Y-10020052D02*
X5982987Y-10029576D01*
X5982987Y-10029576D02*
X5973463Y-10039099D01*
X5973463Y-10039099D02*
X5954415Y-10067671D01*
X5954415Y-10067671D02*
X5944891Y-10105766D01*
X5944891Y-10105766D02*
X5944891Y-10181957D01*
X5944891Y-10181957D02*
X5954415Y-10201004D01*
X5954415Y-10201004D02*
X5963939Y-10210528D01*
X5963939Y-10210528D02*
X5982987Y-10220052D01*
X5982987Y-10220052D02*
X6021082Y-10220052D01*
X6021082Y-10220052D02*
X6040129Y-10210528D01*
X6040129Y-10210528D02*
X6049653Y-10201004D01*
X6049653Y-10201004D02*
X6059177Y-10181957D01*
X6059177Y-10181957D02*
X6059177Y-10134338D01*
X6059177Y-10134338D02*
X6049653Y-10115290D01*
X6049653Y-10115290D02*
X6040129Y-10105766D01*
X6040129Y-10105766D02*
X6021082Y-10096242D01*
X6021082Y-10096242D02*
X5982987Y-10096242D01*
X5982987Y-10096242D02*
X5963939Y-10105766D01*
X5963939Y-10105766D02*
X5954415Y-10115290D01*
X5954415Y-10115290D02*
X5944891Y-10134338D01*
X6173463Y-10105766D02*
X6154415Y-10096242D01*
X6154415Y-10096242D02*
X6144891Y-10086718D01*
X6144891Y-10086718D02*
X6135368Y-10067671D01*
X6135368Y-10067671D02*
X6135368Y-10058147D01*
X6135368Y-10058147D02*
X6144891Y-10039099D01*
X6144891Y-10039099D02*
X6154415Y-10029576D01*
X6154415Y-10029576D02*
X6173463Y-10020052D01*
X6173463Y-10020052D02*
X6211558Y-10020052D01*
X6211558Y-10020052D02*
X6230606Y-10029576D01*
X6230606Y-10029576D02*
X6240129Y-10039099D01*
X6240129Y-10039099D02*
X6249653Y-10058147D01*
X6249653Y-10058147D02*
X6249653Y-10067671D01*
X6249653Y-10067671D02*
X6240129Y-10086718D01*
X6240129Y-10086718D02*
X6230606Y-10096242D01*
X6230606Y-10096242D02*
X6211558Y-10105766D01*
X6211558Y-10105766D02*
X6173463Y-10105766D01*
X6173463Y-10105766D02*
X6154415Y-10115290D01*
X6154415Y-10115290D02*
X6144891Y-10124814D01*
X6144891Y-10124814D02*
X6135368Y-10143861D01*
X6135368Y-10143861D02*
X6135368Y-10181957D01*
X6135368Y-10181957D02*
X6144891Y-10201004D01*
X6144891Y-10201004D02*
X6154415Y-10210528D01*
X6154415Y-10210528D02*
X6173463Y-10220052D01*
X6173463Y-10220052D02*
X6211558Y-10220052D01*
X6211558Y-10220052D02*
X6230606Y-10210528D01*
X6230606Y-10210528D02*
X6240129Y-10201004D01*
X6240129Y-10201004D02*
X6249653Y-10181957D01*
X6249653Y-10181957D02*
X6249653Y-10143861D01*
X6249653Y-10143861D02*
X6240129Y-10124814D01*
X6240129Y-10124814D02*
X6230606Y-10115290D01*
X6230606Y-10115290D02*
X6211558Y-10105766D01*
X6487749Y-10220052D02*
X6487749Y-10020052D01*
X6573463Y-10220052D02*
X6573463Y-10115290D01*
X6573463Y-10115290D02*
X6563939Y-10096242D01*
X6563939Y-10096242D02*
X6544891Y-10086718D01*
X6544891Y-10086718D02*
X6516320Y-10086718D01*
X6516320Y-10086718D02*
X6497272Y-10096242D01*
X6497272Y-10096242D02*
X6487749Y-10105766D01*
X6697272Y-10220052D02*
X6678225Y-10210528D01*
X6678225Y-10210528D02*
X6668701Y-10201004D01*
X6668701Y-10201004D02*
X6659177Y-10181957D01*
X6659177Y-10181957D02*
X6659177Y-10124814D01*
X6659177Y-10124814D02*
X6668701Y-10105766D01*
X6668701Y-10105766D02*
X6678225Y-10096242D01*
X6678225Y-10096242D02*
X6697272Y-10086718D01*
X6697272Y-10086718D02*
X6725844Y-10086718D01*
X6725844Y-10086718D02*
X6744891Y-10096242D01*
X6744891Y-10096242D02*
X6754415Y-10105766D01*
X6754415Y-10105766D02*
X6763939Y-10124814D01*
X6763939Y-10124814D02*
X6763939Y-10181957D01*
X6763939Y-10181957D02*
X6754415Y-10201004D01*
X6754415Y-10201004D02*
X6744891Y-10210528D01*
X6744891Y-10210528D02*
X6725844Y-10220052D01*
X6725844Y-10220052D02*
X6697272Y-10220052D01*
X6878225Y-10220052D02*
X6859177Y-10210528D01*
X6859177Y-10210528D02*
X6849653Y-10191480D01*
X6849653Y-10191480D02*
X6849653Y-10020052D01*
X7030606Y-10210528D02*
X7011558Y-10220052D01*
X7011558Y-10220052D02*
X6973463Y-10220052D01*
X6973463Y-10220052D02*
X6954415Y-10210528D01*
X6954415Y-10210528D02*
X6944891Y-10191480D01*
X6944891Y-10191480D02*
X6944891Y-10115290D01*
X6944891Y-10115290D02*
X6954415Y-10096242D01*
X6954415Y-10096242D02*
X6973463Y-10086718D01*
X6973463Y-10086718D02*
X7011558Y-10086718D01*
X7011558Y-10086718D02*
X7030606Y-10096242D01*
X7030606Y-10096242D02*
X7040130Y-10115290D01*
X7040130Y-10115290D02*
X7040130Y-10134338D01*
X7040130Y-10134338D02*
X6944891Y-10153385D01*
X7116320Y-10210528D02*
X7135368Y-10220052D01*
X7135368Y-10220052D02*
X7173463Y-10220052D01*
X7173463Y-10220052D02*
X7192511Y-10210528D01*
X7192511Y-10210528D02*
X7202034Y-10191480D01*
X7202034Y-10191480D02*
X7202034Y-10181957D01*
X7202034Y-10181957D02*
X7192511Y-10162909D01*
X7192511Y-10162909D02*
X7173463Y-10153385D01*
X7173463Y-10153385D02*
X7144891Y-10153385D01*
X7144891Y-10153385D02*
X7125844Y-10143861D01*
X7125844Y-10143861D02*
X7116320Y-10124814D01*
X7116320Y-10124814D02*
X7116320Y-10115290D01*
X7116320Y-10115290D02*
X7125844Y-10096242D01*
X7125844Y-10096242D02*
X7144891Y-10086718D01*
X7144891Y-10086718D02*
X7173463Y-10086718D01*
X7173463Y-10086718D02*
X7192511Y-10096242D01*
X7268701Y-10296242D02*
X7278225Y-10286718D01*
X7278225Y-10286718D02*
X7297272Y-10258147D01*
X7297272Y-10258147D02*
X7306796Y-10239099D01*
X7306796Y-10239099D02*
X7316320Y-10210528D01*
X7316320Y-10210528D02*
X7325844Y-10162909D01*
X7325844Y-10162909D02*
X7325844Y-10124814D01*
X7325844Y-10124814D02*
X7316320Y-10077195D01*
X7316320Y-10077195D02*
X7306796Y-10048623D01*
X7306796Y-10048623D02*
X7297272Y-10029576D01*
X7297272Y-10029576D02*
X7278225Y-10001004D01*
X7278225Y-10001004D02*
X7268701Y-9991480D01*
D12*
X2125844Y-10391528D02*
G75*
G03*
X2125844Y-10391528I-50000J0D01*
G01*
D10*
X2478224Y-10484052D02*
X2363939Y-10484052D01*
X2421082Y-10484052D02*
X2421082Y-10284052D01*
X2421082Y-10284052D02*
X2402034Y-10312623D01*
X2402034Y-10312623D02*
X2382986Y-10331671D01*
X2382986Y-10331671D02*
X2363939Y-10341195D01*
X2563939Y-10465004D02*
X2573463Y-10474528D01*
X2573463Y-10474528D02*
X2563939Y-10484052D01*
X2563939Y-10484052D02*
X2554415Y-10474528D01*
X2554415Y-10474528D02*
X2563939Y-10465004D01*
X2563939Y-10465004D02*
X2563939Y-10484052D01*
X2697272Y-10284052D02*
X2716320Y-10284052D01*
X2716320Y-10284052D02*
X2735367Y-10293576D01*
X2735367Y-10293576D02*
X2744891Y-10303099D01*
X2744891Y-10303099D02*
X2754415Y-10322147D01*
X2754415Y-10322147D02*
X2763939Y-10360242D01*
X2763939Y-10360242D02*
X2763939Y-10407861D01*
X2763939Y-10407861D02*
X2754415Y-10445957D01*
X2754415Y-10445957D02*
X2744891Y-10465004D01*
X2744891Y-10465004D02*
X2735367Y-10474528D01*
X2735367Y-10474528D02*
X2716320Y-10484052D01*
X2716320Y-10484052D02*
X2697272Y-10484052D01*
X2697272Y-10484052D02*
X2678224Y-10474528D01*
X2678224Y-10474528D02*
X2668701Y-10465004D01*
X2668701Y-10465004D02*
X2659177Y-10445957D01*
X2659177Y-10445957D02*
X2649653Y-10407861D01*
X2649653Y-10407861D02*
X2649653Y-10360242D01*
X2649653Y-10360242D02*
X2659177Y-10322147D01*
X2659177Y-10322147D02*
X2668701Y-10303099D01*
X2668701Y-10303099D02*
X2678224Y-10293576D01*
X2678224Y-10293576D02*
X2697272Y-10284052D01*
X2887748Y-10284052D02*
X2906796Y-10284052D01*
X2906796Y-10284052D02*
X2925843Y-10293576D01*
X2925843Y-10293576D02*
X2935367Y-10303099D01*
X2935367Y-10303099D02*
X2944891Y-10322147D01*
X2944891Y-10322147D02*
X2954415Y-10360242D01*
X2954415Y-10360242D02*
X2954415Y-10407861D01*
X2954415Y-10407861D02*
X2944891Y-10445957D01*
X2944891Y-10445957D02*
X2935367Y-10465004D01*
X2935367Y-10465004D02*
X2925843Y-10474528D01*
X2925843Y-10474528D02*
X2906796Y-10484052D01*
X2906796Y-10484052D02*
X2887748Y-10484052D01*
X2887748Y-10484052D02*
X2868701Y-10474528D01*
X2868701Y-10474528D02*
X2859177Y-10465004D01*
X2859177Y-10465004D02*
X2849653Y-10445957D01*
X2849653Y-10445957D02*
X2840129Y-10407861D01*
X2840129Y-10407861D02*
X2840129Y-10360242D01*
X2840129Y-10360242D02*
X2849653Y-10322147D01*
X2849653Y-10322147D02*
X2859177Y-10303099D01*
X2859177Y-10303099D02*
X2868701Y-10293576D01*
X2868701Y-10293576D02*
X2887748Y-10284052D01*
X3078224Y-10284052D02*
X3097272Y-10284052D01*
X3097272Y-10284052D02*
X3116320Y-10293576D01*
X3116320Y-10293576D02*
X3125843Y-10303099D01*
X3125843Y-10303099D02*
X3135367Y-10322147D01*
X3135367Y-10322147D02*
X3144891Y-10360242D01*
X3144891Y-10360242D02*
X3144891Y-10407861D01*
X3144891Y-10407861D02*
X3135367Y-10445957D01*
X3135367Y-10445957D02*
X3125843Y-10465004D01*
X3125843Y-10465004D02*
X3116320Y-10474528D01*
X3116320Y-10474528D02*
X3097272Y-10484052D01*
X3097272Y-10484052D02*
X3078224Y-10484052D01*
X3078224Y-10484052D02*
X3059177Y-10474528D01*
X3059177Y-10474528D02*
X3049653Y-10465004D01*
X3049653Y-10465004D02*
X3040129Y-10445957D01*
X3040129Y-10445957D02*
X3030605Y-10407861D01*
X3030605Y-10407861D02*
X3030605Y-10360242D01*
X3030605Y-10360242D02*
X3040129Y-10322147D01*
X3040129Y-10322147D02*
X3049653Y-10303099D01*
X3049653Y-10303099D02*
X3059177Y-10293576D01*
X3059177Y-10293576D02*
X3078224Y-10284052D01*
X3230605Y-10484052D02*
X3230605Y-10350718D01*
X3230605Y-10369766D02*
X3240129Y-10360242D01*
X3240129Y-10360242D02*
X3259177Y-10350718D01*
X3259177Y-10350718D02*
X3287748Y-10350718D01*
X3287748Y-10350718D02*
X3306796Y-10360242D01*
X3306796Y-10360242D02*
X3316320Y-10379290D01*
X3316320Y-10379290D02*
X3316320Y-10484052D01*
X3316320Y-10379290D02*
X3325843Y-10360242D01*
X3325843Y-10360242D02*
X3344891Y-10350718D01*
X3344891Y-10350718D02*
X3373462Y-10350718D01*
X3373462Y-10350718D02*
X3392510Y-10360242D01*
X3392510Y-10360242D02*
X3402034Y-10379290D01*
X3402034Y-10379290D02*
X3402034Y-10484052D01*
X3497272Y-10484052D02*
X3497272Y-10350718D01*
X3497272Y-10369766D02*
X3506796Y-10360242D01*
X3506796Y-10360242D02*
X3525843Y-10350718D01*
X3525843Y-10350718D02*
X3554415Y-10350718D01*
X3554415Y-10350718D02*
X3573463Y-10360242D01*
X3573463Y-10360242D02*
X3582986Y-10379290D01*
X3582986Y-10379290D02*
X3582986Y-10484052D01*
X3582986Y-10379290D02*
X3592510Y-10360242D01*
X3592510Y-10360242D02*
X3611558Y-10350718D01*
X3611558Y-10350718D02*
X3640129Y-10350718D01*
X3640129Y-10350718D02*
X3659177Y-10360242D01*
X3659177Y-10360242D02*
X3668701Y-10379290D01*
X3668701Y-10379290D02*
X3668701Y-10484052D01*
X4059177Y-10274528D02*
X3887748Y-10531671D01*
X4316320Y-10284052D02*
X4335368Y-10284052D01*
X4335368Y-10284052D02*
X4354415Y-10293576D01*
X4354415Y-10293576D02*
X4363939Y-10303099D01*
X4363939Y-10303099D02*
X4373463Y-10322147D01*
X4373463Y-10322147D02*
X4382987Y-10360242D01*
X4382987Y-10360242D02*
X4382987Y-10407861D01*
X4382987Y-10407861D02*
X4373463Y-10445957D01*
X4373463Y-10445957D02*
X4363939Y-10465004D01*
X4363939Y-10465004D02*
X4354415Y-10474528D01*
X4354415Y-10474528D02*
X4335368Y-10484052D01*
X4335368Y-10484052D02*
X4316320Y-10484052D01*
X4316320Y-10484052D02*
X4297272Y-10474528D01*
X4297272Y-10474528D02*
X4287748Y-10465004D01*
X4287748Y-10465004D02*
X4278225Y-10445957D01*
X4278225Y-10445957D02*
X4268701Y-10407861D01*
X4268701Y-10407861D02*
X4268701Y-10360242D01*
X4268701Y-10360242D02*
X4278225Y-10322147D01*
X4278225Y-10322147D02*
X4287748Y-10303099D01*
X4287748Y-10303099D02*
X4297272Y-10293576D01*
X4297272Y-10293576D02*
X4316320Y-10284052D01*
X4468701Y-10465004D02*
X4478225Y-10474528D01*
X4478225Y-10474528D02*
X4468701Y-10484052D01*
X4468701Y-10484052D02*
X4459177Y-10474528D01*
X4459177Y-10474528D02*
X4468701Y-10465004D01*
X4468701Y-10465004D02*
X4468701Y-10484052D01*
X4602034Y-10284052D02*
X4621082Y-10284052D01*
X4621082Y-10284052D02*
X4640129Y-10293576D01*
X4640129Y-10293576D02*
X4649653Y-10303099D01*
X4649653Y-10303099D02*
X4659177Y-10322147D01*
X4659177Y-10322147D02*
X4668701Y-10360242D01*
X4668701Y-10360242D02*
X4668701Y-10407861D01*
X4668701Y-10407861D02*
X4659177Y-10445957D01*
X4659177Y-10445957D02*
X4649653Y-10465004D01*
X4649653Y-10465004D02*
X4640129Y-10474528D01*
X4640129Y-10474528D02*
X4621082Y-10484052D01*
X4621082Y-10484052D02*
X4602034Y-10484052D01*
X4602034Y-10484052D02*
X4582987Y-10474528D01*
X4582987Y-10474528D02*
X4573463Y-10465004D01*
X4573463Y-10465004D02*
X4563939Y-10445957D01*
X4563939Y-10445957D02*
X4554415Y-10407861D01*
X4554415Y-10407861D02*
X4554415Y-10360242D01*
X4554415Y-10360242D02*
X4563939Y-10322147D01*
X4563939Y-10322147D02*
X4573463Y-10303099D01*
X4573463Y-10303099D02*
X4582987Y-10293576D01*
X4582987Y-10293576D02*
X4602034Y-10284052D01*
X4735368Y-10284052D02*
X4859177Y-10284052D01*
X4859177Y-10284052D02*
X4792510Y-10360242D01*
X4792510Y-10360242D02*
X4821082Y-10360242D01*
X4821082Y-10360242D02*
X4840129Y-10369766D01*
X4840129Y-10369766D02*
X4849653Y-10379290D01*
X4849653Y-10379290D02*
X4859177Y-10398338D01*
X4859177Y-10398338D02*
X4859177Y-10445957D01*
X4859177Y-10445957D02*
X4849653Y-10465004D01*
X4849653Y-10465004D02*
X4840129Y-10474528D01*
X4840129Y-10474528D02*
X4821082Y-10484052D01*
X4821082Y-10484052D02*
X4763939Y-10484052D01*
X4763939Y-10484052D02*
X4744891Y-10474528D01*
X4744891Y-10474528D02*
X4735368Y-10465004D01*
X4954415Y-10484052D02*
X4992510Y-10484052D01*
X4992510Y-10484052D02*
X5011558Y-10474528D01*
X5011558Y-10474528D02*
X5021082Y-10465004D01*
X5021082Y-10465004D02*
X5040129Y-10436433D01*
X5040129Y-10436433D02*
X5049653Y-10398338D01*
X5049653Y-10398338D02*
X5049653Y-10322147D01*
X5049653Y-10322147D02*
X5040129Y-10303099D01*
X5040129Y-10303099D02*
X5030606Y-10293576D01*
X5030606Y-10293576D02*
X5011558Y-10284052D01*
X5011558Y-10284052D02*
X4973463Y-10284052D01*
X4973463Y-10284052D02*
X4954415Y-10293576D01*
X4954415Y-10293576D02*
X4944891Y-10303099D01*
X4944891Y-10303099D02*
X4935368Y-10322147D01*
X4935368Y-10322147D02*
X4935368Y-10369766D01*
X4935368Y-10369766D02*
X4944891Y-10388814D01*
X4944891Y-10388814D02*
X4954415Y-10398338D01*
X4954415Y-10398338D02*
X4973463Y-10407861D01*
X4973463Y-10407861D02*
X5011558Y-10407861D01*
X5011558Y-10407861D02*
X5030606Y-10398338D01*
X5030606Y-10398338D02*
X5040129Y-10388814D01*
X5040129Y-10388814D02*
X5049653Y-10369766D01*
X5221082Y-10350718D02*
X5221082Y-10484052D01*
X5173463Y-10274528D02*
X5125844Y-10417385D01*
X5125844Y-10417385D02*
X5249653Y-10417385D01*
X5316320Y-10284052D02*
X5316320Y-10322147D01*
X5392510Y-10284052D02*
X5392510Y-10322147D01*
X5687749Y-10560242D02*
X5678225Y-10550718D01*
X5678225Y-10550718D02*
X5659177Y-10522147D01*
X5659177Y-10522147D02*
X5649653Y-10503099D01*
X5649653Y-10503099D02*
X5640129Y-10474528D01*
X5640129Y-10474528D02*
X5630606Y-10426909D01*
X5630606Y-10426909D02*
X5630606Y-10388814D01*
X5630606Y-10388814D02*
X5640129Y-10341195D01*
X5640129Y-10341195D02*
X5649653Y-10312623D01*
X5649653Y-10312623D02*
X5659177Y-10293576D01*
X5659177Y-10293576D02*
X5678225Y-10265004D01*
X5678225Y-10265004D02*
X5687749Y-10255480D01*
X5754415Y-10303099D02*
X5763939Y-10293576D01*
X5763939Y-10293576D02*
X5782987Y-10284052D01*
X5782987Y-10284052D02*
X5830606Y-10284052D01*
X5830606Y-10284052D02*
X5849653Y-10293576D01*
X5849653Y-10293576D02*
X5859177Y-10303099D01*
X5859177Y-10303099D02*
X5868701Y-10322147D01*
X5868701Y-10322147D02*
X5868701Y-10341195D01*
X5868701Y-10341195D02*
X5859177Y-10369766D01*
X5859177Y-10369766D02*
X5744891Y-10484052D01*
X5744891Y-10484052D02*
X5868701Y-10484052D01*
X6040129Y-10350718D02*
X6040129Y-10484052D01*
X5992510Y-10274528D02*
X5944891Y-10417385D01*
X5944891Y-10417385D02*
X6068701Y-10417385D01*
X6297272Y-10484052D02*
X6297272Y-10284052D01*
X6382987Y-10484052D02*
X6382987Y-10379290D01*
X6382987Y-10379290D02*
X6373463Y-10360242D01*
X6373463Y-10360242D02*
X6354415Y-10350718D01*
X6354415Y-10350718D02*
X6325844Y-10350718D01*
X6325844Y-10350718D02*
X6306796Y-10360242D01*
X6306796Y-10360242D02*
X6297272Y-10369766D01*
X6506796Y-10484052D02*
X6487749Y-10474528D01*
X6487749Y-10474528D02*
X6478225Y-10465004D01*
X6478225Y-10465004D02*
X6468701Y-10445957D01*
X6468701Y-10445957D02*
X6468701Y-10388814D01*
X6468701Y-10388814D02*
X6478225Y-10369766D01*
X6478225Y-10369766D02*
X6487749Y-10360242D01*
X6487749Y-10360242D02*
X6506796Y-10350718D01*
X6506796Y-10350718D02*
X6535368Y-10350718D01*
X6535368Y-10350718D02*
X6554415Y-10360242D01*
X6554415Y-10360242D02*
X6563939Y-10369766D01*
X6563939Y-10369766D02*
X6573463Y-10388814D01*
X6573463Y-10388814D02*
X6573463Y-10445957D01*
X6573463Y-10445957D02*
X6563939Y-10465004D01*
X6563939Y-10465004D02*
X6554415Y-10474528D01*
X6554415Y-10474528D02*
X6535368Y-10484052D01*
X6535368Y-10484052D02*
X6506796Y-10484052D01*
X6687749Y-10484052D02*
X6668701Y-10474528D01*
X6668701Y-10474528D02*
X6659177Y-10455480D01*
X6659177Y-10455480D02*
X6659177Y-10284052D01*
X6840130Y-10474528D02*
X6821082Y-10484052D01*
X6821082Y-10484052D02*
X6782987Y-10484052D01*
X6782987Y-10484052D02*
X6763939Y-10474528D01*
X6763939Y-10474528D02*
X6754415Y-10455480D01*
X6754415Y-10455480D02*
X6754415Y-10379290D01*
X6754415Y-10379290D02*
X6763939Y-10360242D01*
X6763939Y-10360242D02*
X6782987Y-10350718D01*
X6782987Y-10350718D02*
X6821082Y-10350718D01*
X6821082Y-10350718D02*
X6840130Y-10360242D01*
X6840130Y-10360242D02*
X6849653Y-10379290D01*
X6849653Y-10379290D02*
X6849653Y-10398338D01*
X6849653Y-10398338D02*
X6754415Y-10417385D01*
X6925844Y-10474528D02*
X6944891Y-10484052D01*
X6944891Y-10484052D02*
X6982987Y-10484052D01*
X6982987Y-10484052D02*
X7002034Y-10474528D01*
X7002034Y-10474528D02*
X7011558Y-10455480D01*
X7011558Y-10455480D02*
X7011558Y-10445957D01*
X7011558Y-10445957D02*
X7002034Y-10426909D01*
X7002034Y-10426909D02*
X6982987Y-10417385D01*
X6982987Y-10417385D02*
X6954415Y-10417385D01*
X6954415Y-10417385D02*
X6935368Y-10407861D01*
X6935368Y-10407861D02*
X6925844Y-10388814D01*
X6925844Y-10388814D02*
X6925844Y-10379290D01*
X6925844Y-10379290D02*
X6935368Y-10360242D01*
X6935368Y-10360242D02*
X6954415Y-10350718D01*
X6954415Y-10350718D02*
X6982987Y-10350718D01*
X6982987Y-10350718D02*
X7002034Y-10360242D01*
X7078225Y-10560242D02*
X7087749Y-10550718D01*
X7087749Y-10550718D02*
X7106796Y-10522147D01*
X7106796Y-10522147D02*
X7116320Y-10503099D01*
X7116320Y-10503099D02*
X7125844Y-10474528D01*
X7125844Y-10474528D02*
X7135368Y-10426909D01*
X7135368Y-10426909D02*
X7135368Y-10388814D01*
X7135368Y-10388814D02*
X7125844Y-10341195D01*
X7125844Y-10341195D02*
X7116320Y-10312623D01*
X7116320Y-10312623D02*
X7106796Y-10293576D01*
X7106796Y-10293576D02*
X7087749Y-10265004D01*
X7087749Y-10265004D02*
X7078225Y-10255480D01*
X2025843Y-10555528D02*
X2025843Y-10755528D01*
X1925843Y-10655528D02*
X2125844Y-10655528D01*
X2363939Y-10567099D02*
X2373463Y-10557576D01*
X2373463Y-10557576D02*
X2392510Y-10548052D01*
X2392510Y-10548052D02*
X2440129Y-10548052D01*
X2440129Y-10548052D02*
X2459177Y-10557576D01*
X2459177Y-10557576D02*
X2468701Y-10567099D01*
X2468701Y-10567099D02*
X2478224Y-10586147D01*
X2478224Y-10586147D02*
X2478224Y-10605195D01*
X2478224Y-10605195D02*
X2468701Y-10633766D01*
X2468701Y-10633766D02*
X2354415Y-10748052D01*
X2354415Y-10748052D02*
X2478224Y-10748052D01*
X2563939Y-10729004D02*
X2573463Y-10738528D01*
X2573463Y-10738528D02*
X2563939Y-10748052D01*
X2563939Y-10748052D02*
X2554415Y-10738528D01*
X2554415Y-10738528D02*
X2563939Y-10729004D01*
X2563939Y-10729004D02*
X2563939Y-10748052D01*
X2649653Y-10567099D02*
X2659177Y-10557576D01*
X2659177Y-10557576D02*
X2678224Y-10548052D01*
X2678224Y-10548052D02*
X2725844Y-10548052D01*
X2725844Y-10548052D02*
X2744891Y-10557576D01*
X2744891Y-10557576D02*
X2754415Y-10567099D01*
X2754415Y-10567099D02*
X2763939Y-10586147D01*
X2763939Y-10586147D02*
X2763939Y-10605195D01*
X2763939Y-10605195D02*
X2754415Y-10633766D01*
X2754415Y-10633766D02*
X2640129Y-10748052D01*
X2640129Y-10748052D02*
X2763939Y-10748052D01*
X2887748Y-10548052D02*
X2906796Y-10548052D01*
X2906796Y-10548052D02*
X2925843Y-10557576D01*
X2925843Y-10557576D02*
X2935367Y-10567099D01*
X2935367Y-10567099D02*
X2944891Y-10586147D01*
X2944891Y-10586147D02*
X2954415Y-10624242D01*
X2954415Y-10624242D02*
X2954415Y-10671861D01*
X2954415Y-10671861D02*
X2944891Y-10709957D01*
X2944891Y-10709957D02*
X2935367Y-10729004D01*
X2935367Y-10729004D02*
X2925843Y-10738528D01*
X2925843Y-10738528D02*
X2906796Y-10748052D01*
X2906796Y-10748052D02*
X2887748Y-10748052D01*
X2887748Y-10748052D02*
X2868701Y-10738528D01*
X2868701Y-10738528D02*
X2859177Y-10729004D01*
X2859177Y-10729004D02*
X2849653Y-10709957D01*
X2849653Y-10709957D02*
X2840129Y-10671861D01*
X2840129Y-10671861D02*
X2840129Y-10624242D01*
X2840129Y-10624242D02*
X2849653Y-10586147D01*
X2849653Y-10586147D02*
X2859177Y-10567099D01*
X2859177Y-10567099D02*
X2868701Y-10557576D01*
X2868701Y-10557576D02*
X2887748Y-10548052D01*
X3078224Y-10548052D02*
X3097272Y-10548052D01*
X3097272Y-10548052D02*
X3116320Y-10557576D01*
X3116320Y-10557576D02*
X3125843Y-10567099D01*
X3125843Y-10567099D02*
X3135367Y-10586147D01*
X3135367Y-10586147D02*
X3144891Y-10624242D01*
X3144891Y-10624242D02*
X3144891Y-10671861D01*
X3144891Y-10671861D02*
X3135367Y-10709957D01*
X3135367Y-10709957D02*
X3125843Y-10729004D01*
X3125843Y-10729004D02*
X3116320Y-10738528D01*
X3116320Y-10738528D02*
X3097272Y-10748052D01*
X3097272Y-10748052D02*
X3078224Y-10748052D01*
X3078224Y-10748052D02*
X3059177Y-10738528D01*
X3059177Y-10738528D02*
X3049653Y-10729004D01*
X3049653Y-10729004D02*
X3040129Y-10709957D01*
X3040129Y-10709957D02*
X3030605Y-10671861D01*
X3030605Y-10671861D02*
X3030605Y-10624242D01*
X3030605Y-10624242D02*
X3040129Y-10586147D01*
X3040129Y-10586147D02*
X3049653Y-10567099D01*
X3049653Y-10567099D02*
X3059177Y-10557576D01*
X3059177Y-10557576D02*
X3078224Y-10548052D01*
X3230605Y-10748052D02*
X3230605Y-10614718D01*
X3230605Y-10633766D02*
X3240129Y-10624242D01*
X3240129Y-10624242D02*
X3259177Y-10614718D01*
X3259177Y-10614718D02*
X3287748Y-10614718D01*
X3287748Y-10614718D02*
X3306796Y-10624242D01*
X3306796Y-10624242D02*
X3316320Y-10643290D01*
X3316320Y-10643290D02*
X3316320Y-10748052D01*
X3316320Y-10643290D02*
X3325843Y-10624242D01*
X3325843Y-10624242D02*
X3344891Y-10614718D01*
X3344891Y-10614718D02*
X3373462Y-10614718D01*
X3373462Y-10614718D02*
X3392510Y-10624242D01*
X3392510Y-10624242D02*
X3402034Y-10643290D01*
X3402034Y-10643290D02*
X3402034Y-10748052D01*
X3497272Y-10748052D02*
X3497272Y-10614718D01*
X3497272Y-10633766D02*
X3506796Y-10624242D01*
X3506796Y-10624242D02*
X3525843Y-10614718D01*
X3525843Y-10614718D02*
X3554415Y-10614718D01*
X3554415Y-10614718D02*
X3573463Y-10624242D01*
X3573463Y-10624242D02*
X3582986Y-10643290D01*
X3582986Y-10643290D02*
X3582986Y-10748052D01*
X3582986Y-10643290D02*
X3592510Y-10624242D01*
X3592510Y-10624242D02*
X3611558Y-10614718D01*
X3611558Y-10614718D02*
X3640129Y-10614718D01*
X3640129Y-10614718D02*
X3659177Y-10624242D01*
X3659177Y-10624242D02*
X3668701Y-10643290D01*
X3668701Y-10643290D02*
X3668701Y-10748052D01*
X4059177Y-10538528D02*
X3887748Y-10795671D01*
X4316320Y-10548052D02*
X4335368Y-10548052D01*
X4335368Y-10548052D02*
X4354415Y-10557576D01*
X4354415Y-10557576D02*
X4363939Y-10567099D01*
X4363939Y-10567099D02*
X4373463Y-10586147D01*
X4373463Y-10586147D02*
X4382987Y-10624242D01*
X4382987Y-10624242D02*
X4382987Y-10671861D01*
X4382987Y-10671861D02*
X4373463Y-10709957D01*
X4373463Y-10709957D02*
X4363939Y-10729004D01*
X4363939Y-10729004D02*
X4354415Y-10738528D01*
X4354415Y-10738528D02*
X4335368Y-10748052D01*
X4335368Y-10748052D02*
X4316320Y-10748052D01*
X4316320Y-10748052D02*
X4297272Y-10738528D01*
X4297272Y-10738528D02*
X4287748Y-10729004D01*
X4287748Y-10729004D02*
X4278225Y-10709957D01*
X4278225Y-10709957D02*
X4268701Y-10671861D01*
X4268701Y-10671861D02*
X4268701Y-10624242D01*
X4268701Y-10624242D02*
X4278225Y-10586147D01*
X4278225Y-10586147D02*
X4287748Y-10567099D01*
X4287748Y-10567099D02*
X4297272Y-10557576D01*
X4297272Y-10557576D02*
X4316320Y-10548052D01*
X4468701Y-10729004D02*
X4478225Y-10738528D01*
X4478225Y-10738528D02*
X4468701Y-10748052D01*
X4468701Y-10748052D02*
X4459177Y-10738528D01*
X4459177Y-10738528D02*
X4468701Y-10729004D01*
X4468701Y-10729004D02*
X4468701Y-10748052D01*
X4602034Y-10548052D02*
X4621082Y-10548052D01*
X4621082Y-10548052D02*
X4640129Y-10557576D01*
X4640129Y-10557576D02*
X4649653Y-10567099D01*
X4649653Y-10567099D02*
X4659177Y-10586147D01*
X4659177Y-10586147D02*
X4668701Y-10624242D01*
X4668701Y-10624242D02*
X4668701Y-10671861D01*
X4668701Y-10671861D02*
X4659177Y-10709957D01*
X4659177Y-10709957D02*
X4649653Y-10729004D01*
X4649653Y-10729004D02*
X4640129Y-10738528D01*
X4640129Y-10738528D02*
X4621082Y-10748052D01*
X4621082Y-10748052D02*
X4602034Y-10748052D01*
X4602034Y-10748052D02*
X4582987Y-10738528D01*
X4582987Y-10738528D02*
X4573463Y-10729004D01*
X4573463Y-10729004D02*
X4563939Y-10709957D01*
X4563939Y-10709957D02*
X4554415Y-10671861D01*
X4554415Y-10671861D02*
X4554415Y-10624242D01*
X4554415Y-10624242D02*
X4563939Y-10586147D01*
X4563939Y-10586147D02*
X4573463Y-10567099D01*
X4573463Y-10567099D02*
X4582987Y-10557576D01*
X4582987Y-10557576D02*
X4602034Y-10548052D01*
X4782987Y-10633766D02*
X4763939Y-10624242D01*
X4763939Y-10624242D02*
X4754415Y-10614718D01*
X4754415Y-10614718D02*
X4744891Y-10595671D01*
X4744891Y-10595671D02*
X4744891Y-10586147D01*
X4744891Y-10586147D02*
X4754415Y-10567099D01*
X4754415Y-10567099D02*
X4763939Y-10557576D01*
X4763939Y-10557576D02*
X4782987Y-10548052D01*
X4782987Y-10548052D02*
X4821082Y-10548052D01*
X4821082Y-10548052D02*
X4840129Y-10557576D01*
X4840129Y-10557576D02*
X4849653Y-10567099D01*
X4849653Y-10567099D02*
X4859177Y-10586147D01*
X4859177Y-10586147D02*
X4859177Y-10595671D01*
X4859177Y-10595671D02*
X4849653Y-10614718D01*
X4849653Y-10614718D02*
X4840129Y-10624242D01*
X4840129Y-10624242D02*
X4821082Y-10633766D01*
X4821082Y-10633766D02*
X4782987Y-10633766D01*
X4782987Y-10633766D02*
X4763939Y-10643290D01*
X4763939Y-10643290D02*
X4754415Y-10652814D01*
X4754415Y-10652814D02*
X4744891Y-10671861D01*
X4744891Y-10671861D02*
X4744891Y-10709957D01*
X4744891Y-10709957D02*
X4754415Y-10729004D01*
X4754415Y-10729004D02*
X4763939Y-10738528D01*
X4763939Y-10738528D02*
X4782987Y-10748052D01*
X4782987Y-10748052D02*
X4821082Y-10748052D01*
X4821082Y-10748052D02*
X4840129Y-10738528D01*
X4840129Y-10738528D02*
X4849653Y-10729004D01*
X4849653Y-10729004D02*
X4859177Y-10709957D01*
X4859177Y-10709957D02*
X4859177Y-10671861D01*
X4859177Y-10671861D02*
X4849653Y-10652814D01*
X4849653Y-10652814D02*
X4840129Y-10643290D01*
X4840129Y-10643290D02*
X4821082Y-10633766D01*
X5030606Y-10548052D02*
X4992510Y-10548052D01*
X4992510Y-10548052D02*
X4973463Y-10557576D01*
X4973463Y-10557576D02*
X4963939Y-10567099D01*
X4963939Y-10567099D02*
X4944891Y-10595671D01*
X4944891Y-10595671D02*
X4935368Y-10633766D01*
X4935368Y-10633766D02*
X4935368Y-10709957D01*
X4935368Y-10709957D02*
X4944891Y-10729004D01*
X4944891Y-10729004D02*
X4954415Y-10738528D01*
X4954415Y-10738528D02*
X4973463Y-10748052D01*
X4973463Y-10748052D02*
X5011558Y-10748052D01*
X5011558Y-10748052D02*
X5030606Y-10738528D01*
X5030606Y-10738528D02*
X5040129Y-10729004D01*
X5040129Y-10729004D02*
X5049653Y-10709957D01*
X5049653Y-10709957D02*
X5049653Y-10662338D01*
X5049653Y-10662338D02*
X5040129Y-10643290D01*
X5040129Y-10643290D02*
X5030606Y-10633766D01*
X5030606Y-10633766D02*
X5011558Y-10624242D01*
X5011558Y-10624242D02*
X4973463Y-10624242D01*
X4973463Y-10624242D02*
X4954415Y-10633766D01*
X4954415Y-10633766D02*
X4944891Y-10643290D01*
X4944891Y-10643290D02*
X4935368Y-10662338D01*
X5221082Y-10548052D02*
X5182987Y-10548052D01*
X5182987Y-10548052D02*
X5163939Y-10557576D01*
X5163939Y-10557576D02*
X5154415Y-10567099D01*
X5154415Y-10567099D02*
X5135368Y-10595671D01*
X5135368Y-10595671D02*
X5125844Y-10633766D01*
X5125844Y-10633766D02*
X5125844Y-10709957D01*
X5125844Y-10709957D02*
X5135368Y-10729004D01*
X5135368Y-10729004D02*
X5144891Y-10738528D01*
X5144891Y-10738528D02*
X5163939Y-10748052D01*
X5163939Y-10748052D02*
X5202034Y-10748052D01*
X5202034Y-10748052D02*
X5221082Y-10738528D01*
X5221082Y-10738528D02*
X5230606Y-10729004D01*
X5230606Y-10729004D02*
X5240129Y-10709957D01*
X5240129Y-10709957D02*
X5240129Y-10662338D01*
X5240129Y-10662338D02*
X5230606Y-10643290D01*
X5230606Y-10643290D02*
X5221082Y-10633766D01*
X5221082Y-10633766D02*
X5202034Y-10624242D01*
X5202034Y-10624242D02*
X5163939Y-10624242D01*
X5163939Y-10624242D02*
X5144891Y-10633766D01*
X5144891Y-10633766D02*
X5135368Y-10643290D01*
X5135368Y-10643290D02*
X5125844Y-10662338D01*
X5316320Y-10548052D02*
X5316320Y-10586147D01*
X5392510Y-10548052D02*
X5392510Y-10586147D01*
X5687749Y-10824242D02*
X5678225Y-10814718D01*
X5678225Y-10814718D02*
X5659177Y-10786147D01*
X5659177Y-10786147D02*
X5649653Y-10767099D01*
X5649653Y-10767099D02*
X5640129Y-10738528D01*
X5640129Y-10738528D02*
X5630606Y-10690909D01*
X5630606Y-10690909D02*
X5630606Y-10652814D01*
X5630606Y-10652814D02*
X5640129Y-10605195D01*
X5640129Y-10605195D02*
X5649653Y-10576623D01*
X5649653Y-10576623D02*
X5659177Y-10557576D01*
X5659177Y-10557576D02*
X5678225Y-10529004D01*
X5678225Y-10529004D02*
X5687749Y-10519480D01*
X5868701Y-10748052D02*
X5754415Y-10748052D01*
X5811558Y-10748052D02*
X5811558Y-10548052D01*
X5811558Y-10548052D02*
X5792510Y-10576623D01*
X5792510Y-10576623D02*
X5773463Y-10595671D01*
X5773463Y-10595671D02*
X5754415Y-10605195D01*
X5963939Y-10748052D02*
X6002034Y-10748052D01*
X6002034Y-10748052D02*
X6021082Y-10738528D01*
X6021082Y-10738528D02*
X6030606Y-10729004D01*
X6030606Y-10729004D02*
X6049653Y-10700433D01*
X6049653Y-10700433D02*
X6059177Y-10662338D01*
X6059177Y-10662338D02*
X6059177Y-10586147D01*
X6059177Y-10586147D02*
X6049653Y-10567099D01*
X6049653Y-10567099D02*
X6040129Y-10557576D01*
X6040129Y-10557576D02*
X6021082Y-10548052D01*
X6021082Y-10548052D02*
X5982987Y-10548052D01*
X5982987Y-10548052D02*
X5963939Y-10557576D01*
X5963939Y-10557576D02*
X5954415Y-10567099D01*
X5954415Y-10567099D02*
X5944891Y-10586147D01*
X5944891Y-10586147D02*
X5944891Y-10633766D01*
X5944891Y-10633766D02*
X5954415Y-10652814D01*
X5954415Y-10652814D02*
X5963939Y-10662338D01*
X5963939Y-10662338D02*
X5982987Y-10671861D01*
X5982987Y-10671861D02*
X6021082Y-10671861D01*
X6021082Y-10671861D02*
X6040129Y-10662338D01*
X6040129Y-10662338D02*
X6049653Y-10652814D01*
X6049653Y-10652814D02*
X6059177Y-10633766D01*
X6297272Y-10748052D02*
X6297272Y-10548052D01*
X6382987Y-10748052D02*
X6382987Y-10643290D01*
X6382987Y-10643290D02*
X6373463Y-10624242D01*
X6373463Y-10624242D02*
X6354415Y-10614718D01*
X6354415Y-10614718D02*
X6325844Y-10614718D01*
X6325844Y-10614718D02*
X6306796Y-10624242D01*
X6306796Y-10624242D02*
X6297272Y-10633766D01*
X6506796Y-10748052D02*
X6487749Y-10738528D01*
X6487749Y-10738528D02*
X6478225Y-10729004D01*
X6478225Y-10729004D02*
X6468701Y-10709957D01*
X6468701Y-10709957D02*
X6468701Y-10652814D01*
X6468701Y-10652814D02*
X6478225Y-10633766D01*
X6478225Y-10633766D02*
X6487749Y-10624242D01*
X6487749Y-10624242D02*
X6506796Y-10614718D01*
X6506796Y-10614718D02*
X6535368Y-10614718D01*
X6535368Y-10614718D02*
X6554415Y-10624242D01*
X6554415Y-10624242D02*
X6563939Y-10633766D01*
X6563939Y-10633766D02*
X6573463Y-10652814D01*
X6573463Y-10652814D02*
X6573463Y-10709957D01*
X6573463Y-10709957D02*
X6563939Y-10729004D01*
X6563939Y-10729004D02*
X6554415Y-10738528D01*
X6554415Y-10738528D02*
X6535368Y-10748052D01*
X6535368Y-10748052D02*
X6506796Y-10748052D01*
X6687749Y-10748052D02*
X6668701Y-10738528D01*
X6668701Y-10738528D02*
X6659177Y-10719480D01*
X6659177Y-10719480D02*
X6659177Y-10548052D01*
X6840130Y-10738528D02*
X6821082Y-10748052D01*
X6821082Y-10748052D02*
X6782987Y-10748052D01*
X6782987Y-10748052D02*
X6763939Y-10738528D01*
X6763939Y-10738528D02*
X6754415Y-10719480D01*
X6754415Y-10719480D02*
X6754415Y-10643290D01*
X6754415Y-10643290D02*
X6763939Y-10624242D01*
X6763939Y-10624242D02*
X6782987Y-10614718D01*
X6782987Y-10614718D02*
X6821082Y-10614718D01*
X6821082Y-10614718D02*
X6840130Y-10624242D01*
X6840130Y-10624242D02*
X6849653Y-10643290D01*
X6849653Y-10643290D02*
X6849653Y-10662338D01*
X6849653Y-10662338D02*
X6754415Y-10681385D01*
X6925844Y-10738528D02*
X6944891Y-10748052D01*
X6944891Y-10748052D02*
X6982987Y-10748052D01*
X6982987Y-10748052D02*
X7002034Y-10738528D01*
X7002034Y-10738528D02*
X7011558Y-10719480D01*
X7011558Y-10719480D02*
X7011558Y-10709957D01*
X7011558Y-10709957D02*
X7002034Y-10690909D01*
X7002034Y-10690909D02*
X6982987Y-10681385D01*
X6982987Y-10681385D02*
X6954415Y-10681385D01*
X6954415Y-10681385D02*
X6935368Y-10671861D01*
X6935368Y-10671861D02*
X6925844Y-10652814D01*
X6925844Y-10652814D02*
X6925844Y-10643290D01*
X6925844Y-10643290D02*
X6935368Y-10624242D01*
X6935368Y-10624242D02*
X6954415Y-10614718D01*
X6954415Y-10614718D02*
X6982987Y-10614718D01*
X6982987Y-10614718D02*
X7002034Y-10624242D01*
X7078225Y-10824242D02*
X7087749Y-10814718D01*
X7087749Y-10814718D02*
X7106796Y-10786147D01*
X7106796Y-10786147D02*
X7116320Y-10767099D01*
X7116320Y-10767099D02*
X7125844Y-10738528D01*
X7125844Y-10738528D02*
X7135368Y-10690909D01*
X7135368Y-10690909D02*
X7135368Y-10652814D01*
X7135368Y-10652814D02*
X7125844Y-10605195D01*
X7125844Y-10605195D02*
X7116320Y-10576623D01*
X7116320Y-10576623D02*
X7106796Y-10557576D01*
X7106796Y-10557576D02*
X7087749Y-10529004D01*
X7087749Y-10529004D02*
X7078225Y-10519480D01*
M02*
