G04 #@! TF.GenerationSoftware,KiCad,Pcbnew,(6.0.10-0)*
G04 #@! TF.CreationDate,2023-02-16T14:01:50+09:00*
G04 #@! TF.ProjectId,Sandy_Middle,53616e64-795f-44d6-9964-646c652e6b69,v.0*
G04 #@! TF.SameCoordinates,Original*
G04 #@! TF.FileFunction,Legend,Bot*
G04 #@! TF.FilePolarity,Positive*
%FSLAX46Y46*%
G04 Gerber Fmt 4.6, Leading zero omitted, Abs format (unit mm)*
G04 Created by KiCad (PCBNEW (6.0.10-0)) date 2023-02-16 14:01:50*
%MOMM*%
%LPD*%
G01*
G04 APERTURE LIST*
G04 Aperture macros list*
%AMRoundRect*
0 Rectangle with rounded corners*
0 $1 Rounding radius*
0 $2 $3 $4 $5 $6 $7 $8 $9 X,Y pos of 4 corners*
0 Add a 4 corners polygon primitive as box body*
4,1,4,$2,$3,$4,$5,$6,$7,$8,$9,$2,$3,0*
0 Add four circle primitives for the rounded corners*
1,1,$1+$1,$2,$3*
1,1,$1+$1,$4,$5*
1,1,$1+$1,$6,$7*
1,1,$1+$1,$8,$9*
0 Add four rect primitives between the rounded corners*
20,1,$1+$1,$2,$3,$4,$5,0*
20,1,$1+$1,$4,$5,$6,$7,0*
20,1,$1+$1,$6,$7,$8,$9,0*
20,1,$1+$1,$8,$9,$2,$3,0*%
G04 Aperture macros list end*
%ADD10C,0.200000*%
%ADD11C,0.150000*%
%ADD12C,0.120000*%
%ADD13O,1.850000X4.400000*%
%ADD14C,2.000000*%
%ADD15C,4.800000*%
%ADD16C,2.150000*%
%ADD17C,4.387800*%
%ADD18C,2.650000*%
%ADD19C,6.496000*%
%ADD20O,8.781998X5.734000*%
%ADD21RoundRect,0.350000X0.625000X-0.150000X0.625000X0.150000X-0.625000X0.150000X-0.625000X-0.150000X0*%
%ADD22O,2.100000X2.100000*%
%ADD23RoundRect,0.450000X0.650000X-0.350000X0.650000X0.350000X-0.650000X0.350000X-0.650000X-0.350000X0*%
%ADD24RoundRect,0.200000X0.600000X-0.450000X0.600000X0.450000X-0.600000X0.450000X-0.600000X-0.450000X0*%
%ADD25C,2.400000*%
%ADD26RoundRect,0.350000X-0.625000X0.150000X-0.625000X-0.150000X0.625000X-0.150000X0.625000X0.150000X0*%
%ADD27RoundRect,0.450000X-0.650000X0.350000X-0.650000X-0.350000X0.650000X-0.350000X0.650000X0.350000X0*%
G04 APERTURE END LIST*
D10*
X59828577Y-24930565D02*
X58542863Y-24930565D01*
X59314292Y-24159137D02*
X59828577Y-26473422D01*
X58714292Y-25701994D02*
X60000006Y-25701994D01*
X59228577Y-26473422D02*
X58714292Y-24159137D01*
X58028577Y-26044851D02*
X57771435Y-26130565D01*
X57342863Y-26130565D01*
X57171435Y-26044851D01*
X57085720Y-25959137D01*
X57000006Y-25787708D01*
X57000006Y-25616280D01*
X57085720Y-25444851D01*
X57171435Y-25359137D01*
X57342863Y-25273422D01*
X57685720Y-25187708D01*
X57857149Y-25101994D01*
X57942863Y-25016280D01*
X58028577Y-24844851D01*
X58028577Y-24673422D01*
X57942863Y-24501994D01*
X57857149Y-24416280D01*
X57685720Y-24330565D01*
X57257149Y-24330565D01*
X57000006Y-24416280D01*
X55457149Y-26130565D02*
X55457149Y-25187708D01*
X55542863Y-25016280D01*
X55714292Y-24930565D01*
X56057149Y-24930565D01*
X56228577Y-25016280D01*
X55457149Y-26044851D02*
X55628577Y-26130565D01*
X56057149Y-26130565D01*
X56228577Y-26044851D01*
X56314292Y-25873422D01*
X56314292Y-25701994D01*
X56228577Y-25530565D01*
X56057149Y-25444851D01*
X55628577Y-25444851D01*
X55457149Y-25359137D01*
X54600006Y-24930565D02*
X54600006Y-26130565D01*
X54600006Y-25101994D02*
X54514292Y-25016280D01*
X54342863Y-24930565D01*
X54085720Y-24930565D01*
X53914292Y-25016280D01*
X53828577Y-25187708D01*
X53828577Y-26130565D01*
X52200006Y-26130565D02*
X52200006Y-24330565D01*
X52200006Y-26044851D02*
X52371435Y-26130565D01*
X52714292Y-26130565D01*
X52885720Y-26044851D01*
X52971435Y-25959137D01*
X53057149Y-25787708D01*
X53057149Y-25273422D01*
X52971435Y-25101994D01*
X52885720Y-25016280D01*
X52714292Y-24930565D01*
X52371435Y-24930565D01*
X52200006Y-25016280D01*
X51514292Y-24930565D02*
X51085720Y-26130565D01*
X50657149Y-24930565D02*
X51085720Y-26130565D01*
X51257149Y-26559137D01*
X51342863Y-26644851D01*
X51514292Y-26730565D01*
X50400006Y-26301994D02*
X49028577Y-26301994D01*
X48600006Y-26130565D02*
X48600006Y-24330565D01*
X48428577Y-25444851D02*
X47914292Y-26130565D01*
X47914292Y-24930565D02*
X48600006Y-25616280D01*
X47142863Y-26130565D02*
X47142863Y-24330565D01*
X47142863Y-25016280D02*
X46971435Y-24930565D01*
X46628577Y-24930565D01*
X46457149Y-25016280D01*
X46371435Y-25101994D01*
X46285720Y-25273422D01*
X46285720Y-25787708D01*
X46371435Y-25959137D01*
X46457149Y-26044851D01*
X46628577Y-26130565D01*
X46971435Y-26130565D01*
X47142863Y-26044851D01*
X44742863Y-26130565D02*
X44742863Y-24330565D01*
X44742863Y-26044851D02*
X44914292Y-26130565D01*
X45257149Y-26130565D01*
X45428577Y-26044851D01*
X45514292Y-25959137D01*
X45600006Y-25787708D01*
X45600006Y-25273422D01*
X45514292Y-25101994D01*
X45428577Y-25016280D01*
X45257149Y-24930565D01*
X44914292Y-24930565D01*
X44742863Y-25016280D01*
X42685720Y-24930565D02*
X42257149Y-26130565D01*
X41828577Y-24930565D01*
X41142863Y-25959137D02*
X41057149Y-26044851D01*
X41142863Y-26130565D01*
X41228577Y-26044851D01*
X41142863Y-25959137D01*
X41142863Y-26130565D01*
X39942863Y-24330565D02*
X39771435Y-24330565D01*
X39600006Y-24416280D01*
X39514292Y-24501994D01*
X39428577Y-24673422D01*
X39342863Y-25016280D01*
X39342863Y-25444851D01*
X39428577Y-25787708D01*
X39514292Y-25959137D01*
X39600006Y-26044851D01*
X39771435Y-26130565D01*
X39942863Y-26130565D01*
X40114292Y-26044851D01*
X40200006Y-25959137D01*
X40285720Y-25787708D01*
X40371435Y-25444851D01*
X40371435Y-25016280D01*
X40285720Y-24673422D01*
X40200006Y-24501994D01*
X40114292Y-24416280D01*
X39942863Y-24330565D01*
X38571435Y-25959137D02*
X38485720Y-26044851D01*
X38571435Y-26130565D01*
X38657149Y-26044851D01*
X38571435Y-25959137D01*
X38571435Y-26130565D01*
X36771435Y-26130565D02*
X37800006Y-26130565D01*
X37285720Y-26130565D02*
X37285720Y-24330565D01*
X37457149Y-24587708D01*
X37628577Y-24759137D01*
X37800006Y-24844851D01*
X35914292Y-26044851D02*
X35914292Y-26130565D01*
X36000006Y-26301994D01*
X36085720Y-26387708D01*
X33771435Y-26130565D02*
X33771435Y-24330565D01*
X33171435Y-25616280D01*
X32571435Y-24330565D01*
X32571435Y-26130565D01*
X31714292Y-26130565D02*
X31714292Y-24930565D01*
X31714292Y-24330565D02*
X31800006Y-24416280D01*
X31714292Y-24501994D01*
X31628577Y-24416280D01*
X31714292Y-24330565D01*
X31714292Y-24501994D01*
X30085720Y-26130565D02*
X30085720Y-24330565D01*
X30085720Y-26044851D02*
X30257149Y-26130565D01*
X30600006Y-26130565D01*
X30771435Y-26044851D01*
X30857149Y-25959137D01*
X30942863Y-25787708D01*
X30942863Y-25273422D01*
X30857149Y-25101994D01*
X30771435Y-25016280D01*
X30600006Y-24930565D01*
X30257149Y-24930565D01*
X30085720Y-25016280D01*
X59742863Y-29028565D02*
X59742863Y-27228565D01*
X59742863Y-27914280D02*
X59571435Y-27828565D01*
X59228577Y-27828565D01*
X59057149Y-27914280D01*
X58971435Y-27999994D01*
X58885720Y-28171422D01*
X58885720Y-28685708D01*
X58971435Y-28857137D01*
X59057149Y-28942851D01*
X59228577Y-29028565D01*
X59571435Y-29028565D01*
X59742863Y-28942851D01*
X58285720Y-27828565D02*
X57857149Y-29028565D01*
X57428577Y-27828565D02*
X57857149Y-29028565D01*
X58028577Y-29457137D01*
X58114292Y-29542851D01*
X58285720Y-29628565D01*
X54257149Y-28171422D02*
X54342863Y-28085708D01*
X54514292Y-27999994D01*
X54685720Y-27999994D01*
X54857149Y-28085708D01*
X54942863Y-28171422D01*
X55028577Y-28342851D01*
X55028577Y-28514280D01*
X54942863Y-28685708D01*
X54857149Y-28771422D01*
X54685720Y-28857137D01*
X54514292Y-28857137D01*
X54342863Y-28771422D01*
X54257149Y-28685708D01*
X54257149Y-27999994D02*
X54257149Y-28685708D01*
X54171435Y-28771422D01*
X54085720Y-28771422D01*
X53914292Y-28685708D01*
X53828577Y-28514280D01*
X53828577Y-28085708D01*
X54000006Y-27828565D01*
X54257149Y-27657137D01*
X54600006Y-27571422D01*
X54942863Y-27657137D01*
X55200006Y-27828565D01*
X55371435Y-28085708D01*
X55457149Y-28428565D01*
X55371435Y-28771422D01*
X55200006Y-29028565D01*
X54942863Y-29199994D01*
X54600006Y-29285708D01*
X54257149Y-29199994D01*
X54000006Y-29028565D01*
X53057149Y-27828565D02*
X53057149Y-29371422D01*
X53142863Y-29542851D01*
X53314292Y-29628565D01*
X53400006Y-29628565D01*
X53057149Y-27228565D02*
X53142863Y-27314280D01*
X53057149Y-27399994D01*
X52971435Y-27314280D01*
X53057149Y-27228565D01*
X53057149Y-27399994D01*
X52200006Y-27828565D02*
X52200006Y-29628565D01*
X52200006Y-27914280D02*
X52028577Y-27828565D01*
X51685720Y-27828565D01*
X51514292Y-27914280D01*
X51428577Y-27999994D01*
X51342863Y-28171422D01*
X51342863Y-28685708D01*
X51428577Y-28857137D01*
X51514292Y-28942851D01*
X51685720Y-29028565D01*
X52028577Y-29028565D01*
X52200006Y-28942851D01*
X50657149Y-28942851D02*
X50485720Y-29028565D01*
X50142863Y-29028565D01*
X49971435Y-28942851D01*
X49885720Y-28771422D01*
X49885720Y-28685708D01*
X49971435Y-28514280D01*
X50142863Y-28428565D01*
X50400006Y-28428565D01*
X50571435Y-28342851D01*
X50657149Y-28171422D01*
X50657149Y-28085708D01*
X50571435Y-27914280D01*
X50400006Y-27828565D01*
X50142863Y-27828565D01*
X49971435Y-27914280D01*
X49114292Y-29028565D02*
X49114292Y-27228565D01*
X48942863Y-28342851D02*
X48428577Y-29028565D01*
X48428577Y-27828565D02*
X49114292Y-28514280D01*
X46971435Y-28942851D02*
X47142863Y-29028565D01*
X47485720Y-29028565D01*
X47657149Y-28942851D01*
X47742863Y-28771422D01*
X47742863Y-28085708D01*
X47657149Y-27914280D01*
X47485720Y-27828565D01*
X47142863Y-27828565D01*
X46971435Y-27914280D01*
X46885720Y-28085708D01*
X46885720Y-28257137D01*
X47742863Y-28428565D01*
X46114292Y-27828565D02*
X46114292Y-29028565D01*
X46114292Y-27999994D02*
X46028577Y-27914280D01*
X45857149Y-27828565D01*
X45600006Y-27828565D01*
X45428577Y-27914280D01*
X45342863Y-28085708D01*
X45342863Y-29028565D01*
X44485720Y-27828565D02*
X44485720Y-29028565D01*
X44485720Y-27999994D02*
X44400006Y-27914280D01*
X44228577Y-27828565D01*
X43971435Y-27828565D01*
X43800006Y-27914280D01*
X43714292Y-28085708D01*
X43714292Y-29028565D01*
D11*
X203084565Y-46910696D02*
X203798851Y-46910696D01*
X203941708Y-46863077D01*
X204036946Y-46767839D01*
X204084565Y-46624982D01*
X204084565Y-46529744D01*
X203084565Y-47291649D02*
X203084565Y-47910696D01*
X203465518Y-47577363D01*
X203465518Y-47720220D01*
X203513137Y-47815458D01*
X203560756Y-47863077D01*
X203655994Y-47910696D01*
X203894089Y-47910696D01*
X203989327Y-47863077D01*
X204036946Y-47815458D01*
X204084565Y-47720220D01*
X204084565Y-47434506D01*
X204036946Y-47339268D01*
X203989327Y-47291649D01*
X54610815Y-52459059D02*
X53610815Y-52459059D01*
X53610815Y-52697155D01*
X53658435Y-52840012D01*
X53753673Y-52935250D01*
X53848911Y-52982869D01*
X54039387Y-53030488D01*
X54182244Y-53030488D01*
X54372720Y-52982869D01*
X54467958Y-52935250D01*
X54563196Y-52840012D01*
X54610815Y-52697155D01*
X54610815Y-52459059D01*
X54610815Y-53982869D02*
X54610815Y-53411440D01*
X54610815Y-53697155D02*
X53610815Y-53697155D01*
X53753673Y-53601916D01*
X53848911Y-53506678D01*
X53896530Y-53411440D01*
X185983435Y-26548726D02*
X185650101Y-26548726D01*
X185507244Y-27072535D02*
X185983435Y-27072535D01*
X185983435Y-26072535D01*
X185507244Y-26072535D01*
X185173911Y-26072535D02*
X184507244Y-27072535D01*
X184507244Y-26072535D02*
X185173911Y-27072535D01*
X184269149Y-26072535D02*
X183697720Y-26072535D01*
X183983435Y-27072535D02*
X183983435Y-26072535D01*
X183602482Y-27167774D02*
X182840577Y-27167774D01*
X182602482Y-27072535D02*
X182602482Y-26072535D01*
X182269149Y-26786821D01*
X181935815Y-26072535D01*
X181935815Y-27072535D01*
X180888196Y-27072535D02*
X181221530Y-26596345D01*
X181459625Y-27072535D02*
X181459625Y-26072535D01*
X181078673Y-26072535D01*
X180983435Y-26120155D01*
X180935815Y-26167774D01*
X180888196Y-26263012D01*
X180888196Y-26405869D01*
X180935815Y-26501107D01*
X180983435Y-26548726D01*
X181078673Y-26596345D01*
X181459625Y-26596345D01*
X180316768Y-26501107D02*
X180412006Y-26453488D01*
X180459625Y-26405869D01*
X180507244Y-26310631D01*
X180507244Y-26263012D01*
X180459625Y-26167774D01*
X180412006Y-26120155D01*
X180316768Y-26072535D01*
X180126292Y-26072535D01*
X180031054Y-26120155D01*
X179983435Y-26167774D01*
X179935815Y-26263012D01*
X179935815Y-26310631D01*
X179983435Y-26405869D01*
X180031054Y-26453488D01*
X180126292Y-26501107D01*
X180316768Y-26501107D01*
X180412006Y-26548726D01*
X180459625Y-26596345D01*
X180507244Y-26691583D01*
X180507244Y-26882059D01*
X180459625Y-26977297D01*
X180412006Y-27024916D01*
X180316768Y-27072535D01*
X180126292Y-27072535D01*
X180031054Y-27024916D01*
X179983435Y-26977297D01*
X179935815Y-26882059D01*
X179935815Y-26691583D01*
X179983435Y-26596345D01*
X180031054Y-26548726D01*
X180126292Y-26501107D01*
X105020935Y-26548726D02*
X104687601Y-26548726D01*
X104544744Y-27072535D02*
X105020935Y-27072535D01*
X105020935Y-26072535D01*
X104544744Y-26072535D01*
X104211411Y-26072535D02*
X103544744Y-27072535D01*
X103544744Y-26072535D02*
X104211411Y-27072535D01*
X103306649Y-26072535D02*
X102735220Y-26072535D01*
X103020935Y-27072535D02*
X103020935Y-26072535D01*
X102639982Y-27167774D02*
X101878077Y-27167774D01*
X101639982Y-27072535D02*
X101639982Y-26072535D01*
X101306649Y-26786821D01*
X100973315Y-26072535D01*
X100973315Y-27072535D01*
X99925696Y-26977297D02*
X99973315Y-27024916D01*
X100116173Y-27072535D01*
X100211411Y-27072535D01*
X100354268Y-27024916D01*
X100449506Y-26929678D01*
X100497125Y-26834440D01*
X100544744Y-26643964D01*
X100544744Y-26501107D01*
X100497125Y-26310631D01*
X100449506Y-26215393D01*
X100354268Y-26120155D01*
X100211411Y-26072535D01*
X100116173Y-26072535D01*
X99973315Y-26120155D01*
X99925696Y-26167774D01*
X99306649Y-26072535D02*
X99211411Y-26072535D01*
X99116173Y-26120155D01*
X99068554Y-26167774D01*
X99020935Y-26263012D01*
X98973315Y-26453488D01*
X98973315Y-26691583D01*
X99020935Y-26882059D01*
X99068554Y-26977297D01*
X99116173Y-27024916D01*
X99211411Y-27072535D01*
X99306649Y-27072535D01*
X99401887Y-27024916D01*
X99449506Y-26977297D01*
X99497125Y-26882059D01*
X99544744Y-26691583D01*
X99544744Y-26453488D01*
X99497125Y-26263012D01*
X99449506Y-26167774D01*
X99401887Y-26120155D01*
X99306649Y-26072535D01*
X217582690Y-52459059D02*
X216582690Y-52459059D01*
X216582690Y-52697155D01*
X216630310Y-52840012D01*
X216725548Y-52935250D01*
X216820786Y-52982869D01*
X217011262Y-53030488D01*
X217154119Y-53030488D01*
X217344595Y-52982869D01*
X217439833Y-52935250D01*
X217535071Y-52840012D01*
X217582690Y-52697155D01*
X217582690Y-52459059D01*
X216916024Y-53887631D02*
X217582690Y-53887631D01*
X216535071Y-53649535D02*
X217249357Y-53411440D01*
X217249357Y-54030488D01*
X298545190Y-52459059D02*
X297545190Y-52459059D01*
X297545190Y-52697155D01*
X297592810Y-52840012D01*
X297688048Y-52935250D01*
X297783286Y-52982869D01*
X297973762Y-53030488D01*
X298116619Y-53030488D01*
X298307095Y-52982869D01*
X298402333Y-52935250D01*
X298497571Y-52840012D01*
X298545190Y-52697155D01*
X298545190Y-52459059D01*
X297545190Y-53887631D02*
X297545190Y-53697155D01*
X297592810Y-53601916D01*
X297640429Y-53554297D01*
X297783286Y-53459059D01*
X297973762Y-53411440D01*
X298354714Y-53411440D01*
X298449952Y-53459059D01*
X298497571Y-53506678D01*
X298545190Y-53601916D01*
X298545190Y-53792393D01*
X298497571Y-53887631D01*
X298449952Y-53935250D01*
X298354714Y-53982869D01*
X298116619Y-53982869D01*
X298021381Y-53935250D01*
X297973762Y-53887631D01*
X297926143Y-53792393D01*
X297926143Y-53601916D01*
X297973762Y-53506678D01*
X298021381Y-53459059D01*
X298116619Y-53411440D01*
X175870190Y-76985994D02*
X174870190Y-76985994D01*
X174870190Y-77224089D01*
X174917810Y-77366946D01*
X175013048Y-77462184D01*
X175108286Y-77509803D01*
X175298762Y-77557422D01*
X175441619Y-77557422D01*
X175632095Y-77509803D01*
X175727333Y-77462184D01*
X175822571Y-77366946D01*
X175870190Y-77224089D01*
X175870190Y-76985994D01*
X175870190Y-78509803D02*
X175870190Y-77938375D01*
X175870190Y-78224089D02*
X174870190Y-78224089D01*
X175013048Y-78128851D01*
X175108286Y-78033613D01*
X175155905Y-77938375D01*
X175203524Y-79366946D02*
X175870190Y-79366946D01*
X174822571Y-79128851D02*
X175536857Y-78890756D01*
X175536857Y-79509803D01*
X189007690Y-90082869D02*
X188007690Y-90082869D01*
X188007690Y-90320964D01*
X188055310Y-90463821D01*
X188150548Y-90559059D01*
X188245786Y-90606678D01*
X188436262Y-90654297D01*
X188579119Y-90654297D01*
X188769595Y-90606678D01*
X188864833Y-90559059D01*
X188960071Y-90463821D01*
X189007690Y-90320964D01*
X189007690Y-90082869D01*
X189007690Y-91606678D02*
X189007690Y-91035250D01*
X189007690Y-91320964D02*
X188007690Y-91320964D01*
X188150548Y-91225726D01*
X188245786Y-91130488D01*
X188293405Y-91035250D01*
X188007690Y-91940012D02*
X188007690Y-92559059D01*
X188388643Y-92225726D01*
X188388643Y-92368583D01*
X188436262Y-92463821D01*
X188483881Y-92511440D01*
X188579119Y-92559059D01*
X188817214Y-92559059D01*
X188912452Y-92511440D01*
X188960071Y-92463821D01*
X189007690Y-92368583D01*
X189007690Y-92082869D01*
X188960071Y-91987631D01*
X188912452Y-91940012D01*
X179482690Y-91132869D02*
X178482690Y-91132869D01*
X178482690Y-91370964D01*
X178530310Y-91513821D01*
X178625548Y-91609059D01*
X178720786Y-91656678D01*
X178911262Y-91704297D01*
X179054119Y-91704297D01*
X179244595Y-91656678D01*
X179339833Y-91609059D01*
X179435071Y-91513821D01*
X179482690Y-91370964D01*
X179482690Y-91132869D01*
X179482690Y-92656678D02*
X179482690Y-92085250D01*
X179482690Y-92370964D02*
X178482690Y-92370964D01*
X178625548Y-92275726D01*
X178720786Y-92180488D01*
X178768405Y-92085250D01*
X178577929Y-93037631D02*
X178530310Y-93085250D01*
X178482690Y-93180488D01*
X178482690Y-93418583D01*
X178530310Y-93513821D01*
X178577929Y-93561440D01*
X178673167Y-93609059D01*
X178768405Y-93609059D01*
X178911262Y-93561440D01*
X179482690Y-92990012D01*
X179482690Y-93609059D01*
X169972690Y-72036994D02*
X168972690Y-72036994D01*
X168972690Y-72275089D01*
X169020310Y-72417946D01*
X169115548Y-72513184D01*
X169210786Y-72560803D01*
X169401262Y-72608422D01*
X169544119Y-72608422D01*
X169734595Y-72560803D01*
X169829833Y-72513184D01*
X169925071Y-72417946D01*
X169972690Y-72275089D01*
X169972690Y-72036994D01*
X169972690Y-73560803D02*
X169972690Y-72989375D01*
X169972690Y-73275089D02*
X168972690Y-73275089D01*
X169115548Y-73179851D01*
X169210786Y-73084613D01*
X169258405Y-72989375D01*
X168972690Y-74417946D02*
X168972690Y-74227470D01*
X169020310Y-74132232D01*
X169067929Y-74084613D01*
X169210786Y-73989375D01*
X169401262Y-73941756D01*
X169782214Y-73941756D01*
X169877452Y-73989375D01*
X169925071Y-74036994D01*
X169972690Y-74132232D01*
X169972690Y-74322708D01*
X169925071Y-74417946D01*
X169877452Y-74465565D01*
X169782214Y-74513184D01*
X169544119Y-74513184D01*
X169448881Y-74465565D01*
X169401262Y-74417946D01*
X169353643Y-74322708D01*
X169353643Y-74132232D01*
X169401262Y-74036994D01*
X169448881Y-73989375D01*
X169544119Y-73941756D01*
X156860815Y-76985994D02*
X155860815Y-76985994D01*
X155860815Y-77224089D01*
X155908435Y-77366946D01*
X156003673Y-77462184D01*
X156098911Y-77509803D01*
X156289387Y-77557422D01*
X156432244Y-77557422D01*
X156622720Y-77509803D01*
X156717958Y-77462184D01*
X156813196Y-77366946D01*
X156860815Y-77224089D01*
X156860815Y-76985994D01*
X156860815Y-78509803D02*
X156860815Y-77938375D01*
X156860815Y-78224089D02*
X155860815Y-78224089D01*
X156003673Y-78128851D01*
X156098911Y-78033613D01*
X156146530Y-77938375D01*
X156289387Y-79081232D02*
X156241768Y-78985994D01*
X156194149Y-78938375D01*
X156098911Y-78890756D01*
X156051292Y-78890756D01*
X155956054Y-78938375D01*
X155908435Y-78985994D01*
X155860815Y-79081232D01*
X155860815Y-79271708D01*
X155908435Y-79366946D01*
X155956054Y-79414565D01*
X156051292Y-79462184D01*
X156098911Y-79462184D01*
X156194149Y-79414565D01*
X156241768Y-79366946D01*
X156289387Y-79271708D01*
X156289387Y-79081232D01*
X156337006Y-78985994D01*
X156384625Y-78938375D01*
X156479863Y-78890756D01*
X156670339Y-78890756D01*
X156765577Y-78938375D01*
X156813196Y-78985994D01*
X156860815Y-79081232D01*
X156860815Y-79271708D01*
X156813196Y-79366946D01*
X156765577Y-79414565D01*
X156670339Y-79462184D01*
X156479863Y-79462184D01*
X156384625Y-79414565D01*
X156337006Y-79366946D01*
X156289387Y-79271708D01*
X198532690Y-71032869D02*
X197532690Y-71032869D01*
X197532690Y-71270964D01*
X197580310Y-71413821D01*
X197675548Y-71509059D01*
X197770786Y-71556678D01*
X197961262Y-71604297D01*
X198104119Y-71604297D01*
X198294595Y-71556678D01*
X198389833Y-71509059D01*
X198485071Y-71413821D01*
X198532690Y-71270964D01*
X198532690Y-71032869D01*
X198532690Y-72556678D02*
X198532690Y-71985250D01*
X198532690Y-72270964D02*
X197532690Y-72270964D01*
X197675548Y-72175726D01*
X197770786Y-72080488D01*
X197818405Y-71985250D01*
X197532690Y-73175726D02*
X197532690Y-73270964D01*
X197580310Y-73366202D01*
X197627929Y-73413821D01*
X197723167Y-73461440D01*
X197913643Y-73509059D01*
X198151738Y-73509059D01*
X198342214Y-73461440D01*
X198437452Y-73413821D01*
X198485071Y-73366202D01*
X198532690Y-73270964D01*
X198532690Y-73175726D01*
X198485071Y-73080488D01*
X198437452Y-73032869D01*
X198342214Y-72985250D01*
X198151738Y-72937631D01*
X197913643Y-72937631D01*
X197723167Y-72985250D01*
X197627929Y-73032869D01*
X197580310Y-73080488D01*
X197532690Y-73175726D01*
X122332690Y-52459059D02*
X121332690Y-52459059D01*
X121332690Y-52697155D01*
X121380310Y-52840012D01*
X121475548Y-52935250D01*
X121570786Y-52982869D01*
X121761262Y-53030488D01*
X121904119Y-53030488D01*
X122094595Y-52982869D01*
X122189833Y-52935250D01*
X122285071Y-52840012D01*
X122332690Y-52697155D01*
X122332690Y-52459059D01*
X121332690Y-53363821D02*
X121332690Y-53982869D01*
X121713643Y-53649535D01*
X121713643Y-53792393D01*
X121761262Y-53887631D01*
X121808881Y-53935250D01*
X121904119Y-53982869D01*
X122142214Y-53982869D01*
X122237452Y-53935250D01*
X122285071Y-53887631D01*
X122332690Y-53792393D01*
X122332690Y-53506678D01*
X122285071Y-53411440D01*
X122237452Y-53363821D01*
X28820935Y-43217476D02*
X28487601Y-43217476D01*
X28344744Y-43741285D02*
X28820935Y-43741285D01*
X28820935Y-42741285D01*
X28344744Y-42741285D01*
X28011411Y-42741285D02*
X27344744Y-43741285D01*
X27344744Y-42741285D02*
X28011411Y-43741285D01*
X27106649Y-42741285D02*
X26535220Y-42741285D01*
X26820935Y-43741285D02*
X26820935Y-42741285D01*
X26439982Y-43836524D02*
X25678077Y-43836524D01*
X25439982Y-43741285D02*
X25439982Y-42741285D01*
X25106649Y-43455571D01*
X24773315Y-42741285D01*
X24773315Y-43741285D01*
X23725696Y-43741285D02*
X24059030Y-43265095D01*
X24297125Y-43741285D02*
X24297125Y-42741285D01*
X23916173Y-42741285D01*
X23820935Y-42788905D01*
X23773315Y-42836524D01*
X23725696Y-42931762D01*
X23725696Y-43074619D01*
X23773315Y-43169857D01*
X23820935Y-43217476D01*
X23916173Y-43265095D01*
X24297125Y-43265095D01*
X22868554Y-42741285D02*
X23059030Y-42741285D01*
X23154268Y-42788905D01*
X23201887Y-42836524D01*
X23297125Y-42979381D01*
X23344744Y-43169857D01*
X23344744Y-43550809D01*
X23297125Y-43646047D01*
X23249506Y-43693666D01*
X23154268Y-43741285D01*
X22963792Y-43741285D01*
X22868554Y-43693666D01*
X22820935Y-43646047D01*
X22773315Y-43550809D01*
X22773315Y-43312714D01*
X22820935Y-43217476D01*
X22868554Y-43169857D01*
X22963792Y-43122238D01*
X23154268Y-43122238D01*
X23249506Y-43169857D01*
X23297125Y-43217476D01*
X23344744Y-43312714D01*
X141382690Y-72509184D02*
X140382690Y-72509184D01*
X140382690Y-72747280D01*
X140430310Y-72890137D01*
X140525548Y-72985375D01*
X140620786Y-73032994D01*
X140811262Y-73080613D01*
X140954119Y-73080613D01*
X141144595Y-73032994D01*
X141239833Y-72985375D01*
X141335071Y-72890137D01*
X141382690Y-72747280D01*
X141382690Y-72509184D01*
X140382690Y-73413946D02*
X140382690Y-74080613D01*
X141382690Y-73652041D01*
X150907690Y-90082869D02*
X149907690Y-90082869D01*
X149907690Y-90320964D01*
X149955310Y-90463821D01*
X150050548Y-90559059D01*
X150145786Y-90606678D01*
X150336262Y-90654297D01*
X150479119Y-90654297D01*
X150669595Y-90606678D01*
X150764833Y-90559059D01*
X150860071Y-90463821D01*
X150907690Y-90320964D01*
X150907690Y-90082869D01*
X150907690Y-91606678D02*
X150907690Y-91035250D01*
X150907690Y-91320964D02*
X149907690Y-91320964D01*
X150050548Y-91225726D01*
X150145786Y-91130488D01*
X150193405Y-91035250D01*
X150907690Y-92559059D02*
X150907690Y-91987631D01*
X150907690Y-92273345D02*
X149907690Y-92273345D01*
X150050548Y-92178107D01*
X150145786Y-92082869D01*
X150193405Y-91987631D01*
X108592810Y-22552726D02*
X108259476Y-22552726D01*
X108116619Y-23076535D02*
X108592810Y-23076535D01*
X108592810Y-22076535D01*
X108116619Y-22076535D01*
X107783286Y-22076535D02*
X107116619Y-23076535D01*
X107116619Y-22076535D02*
X107783286Y-23076535D01*
X106878524Y-22076535D02*
X106307095Y-22076535D01*
X106592810Y-23076535D02*
X106592810Y-22076535D01*
X106211857Y-23171774D02*
X105449952Y-23171774D01*
X105211857Y-23076535D02*
X105211857Y-22076535D01*
X104878524Y-22790821D01*
X104545190Y-22076535D01*
X104545190Y-23076535D01*
X103497571Y-22981297D02*
X103545190Y-23028916D01*
X103688048Y-23076535D01*
X103783286Y-23076535D01*
X103926143Y-23028916D01*
X104021381Y-22933678D01*
X104069000Y-22838440D01*
X104116619Y-22647964D01*
X104116619Y-22505107D01*
X104069000Y-22314631D01*
X104021381Y-22219393D01*
X103926143Y-22124155D01*
X103783286Y-22076535D01*
X103688048Y-22076535D01*
X103545190Y-22124155D01*
X103497571Y-22171774D01*
X103116619Y-22171774D02*
X103069000Y-22124155D01*
X102973762Y-22076535D01*
X102735667Y-22076535D01*
X102640429Y-22124155D01*
X102592810Y-22171774D01*
X102545190Y-22267012D01*
X102545190Y-22362250D01*
X102592810Y-22505107D01*
X103164238Y-23076535D01*
X102545190Y-23076535D01*
X28820935Y-35649601D02*
X28487601Y-35649601D01*
X28344744Y-36173410D02*
X28820935Y-36173410D01*
X28820935Y-35173410D01*
X28344744Y-35173410D01*
X28011411Y-35173410D02*
X27344744Y-36173410D01*
X27344744Y-35173410D02*
X28011411Y-36173410D01*
X27106649Y-35173410D02*
X26535220Y-35173410D01*
X26820935Y-36173410D02*
X26820935Y-35173410D01*
X26439982Y-36268649D02*
X25678077Y-36268649D01*
X25439982Y-36173410D02*
X25439982Y-35173410D01*
X25106649Y-35887696D01*
X24773315Y-35173410D01*
X24773315Y-36173410D01*
X23725696Y-36173410D02*
X24059030Y-35697220D01*
X24297125Y-36173410D02*
X24297125Y-35173410D01*
X23916173Y-35173410D01*
X23820935Y-35221030D01*
X23773315Y-35268649D01*
X23725696Y-35363887D01*
X23725696Y-35506744D01*
X23773315Y-35601982D01*
X23820935Y-35649601D01*
X23916173Y-35697220D01*
X24297125Y-35697220D01*
X22773315Y-36173410D02*
X23344744Y-36173410D01*
X23059030Y-36173410D02*
X23059030Y-35173410D01*
X23154268Y-35316268D01*
X23249506Y-35411506D01*
X23344744Y-35459125D01*
X221702185Y-26548726D02*
X221368851Y-26548726D01*
X221225994Y-27072535D02*
X221702185Y-27072535D01*
X221702185Y-26072535D01*
X221225994Y-26072535D01*
X220892661Y-26072535D02*
X220225994Y-27072535D01*
X220225994Y-26072535D02*
X220892661Y-27072535D01*
X219987899Y-26072535D02*
X219416470Y-26072535D01*
X219702185Y-27072535D02*
X219702185Y-26072535D01*
X219321232Y-27167774D02*
X218559327Y-27167774D01*
X218321232Y-27072535D02*
X218321232Y-26072535D01*
X217987899Y-26786821D01*
X217654565Y-26072535D01*
X217654565Y-27072535D01*
X216606946Y-26977297D02*
X216654565Y-27024916D01*
X216797423Y-27072535D01*
X216892661Y-27072535D01*
X217035518Y-27024916D01*
X217130756Y-26929678D01*
X217178375Y-26834440D01*
X217225994Y-26643964D01*
X217225994Y-26501107D01*
X217178375Y-26310631D01*
X217130756Y-26215393D01*
X217035518Y-26120155D01*
X216892661Y-26072535D01*
X216797423Y-26072535D01*
X216654565Y-26120155D01*
X216606946Y-26167774D01*
X215749804Y-26405869D02*
X215749804Y-27072535D01*
X215987899Y-26024916D02*
X216225994Y-26739202D01*
X215606946Y-26739202D01*
X274732690Y-52459059D02*
X273732690Y-52459059D01*
X273732690Y-52697155D01*
X273780310Y-52840012D01*
X273875548Y-52935250D01*
X273970786Y-52982869D01*
X274161262Y-53030488D01*
X274304119Y-53030488D01*
X274494595Y-52982869D01*
X274589833Y-52935250D01*
X274685071Y-52840012D01*
X274732690Y-52697155D01*
X274732690Y-52459059D01*
X273732690Y-53935250D02*
X273732690Y-53459059D01*
X274208881Y-53411440D01*
X274161262Y-53459059D01*
X274113643Y-53554297D01*
X274113643Y-53792393D01*
X274161262Y-53887631D01*
X274208881Y-53935250D01*
X274304119Y-53982869D01*
X274542214Y-53982869D01*
X274637452Y-53935250D01*
X274685071Y-53887631D01*
X274732690Y-53792393D01*
X274732690Y-53554297D01*
X274685071Y-53459059D01*
X274637452Y-53411440D01*
X165195190Y-71015994D02*
X164195190Y-71015994D01*
X164195190Y-71254089D01*
X164242810Y-71396946D01*
X164338048Y-71492184D01*
X164433286Y-71539803D01*
X164623762Y-71587422D01*
X164766619Y-71587422D01*
X164957095Y-71539803D01*
X165052333Y-71492184D01*
X165147571Y-71396946D01*
X165195190Y-71254089D01*
X165195190Y-71015994D01*
X165195190Y-72539803D02*
X165195190Y-71968375D01*
X165195190Y-72254089D02*
X164195190Y-72254089D01*
X164338048Y-72158851D01*
X164433286Y-72063613D01*
X164480905Y-71968375D01*
X164195190Y-73444565D02*
X164195190Y-72968375D01*
X164671381Y-72920756D01*
X164623762Y-72968375D01*
X164576143Y-73063613D01*
X164576143Y-73301708D01*
X164623762Y-73396946D01*
X164671381Y-73444565D01*
X164766619Y-73492184D01*
X165004714Y-73492184D01*
X165099952Y-73444565D01*
X165147571Y-73396946D01*
X165195190Y-73301708D01*
X165195190Y-73063613D01*
X165147571Y-72968375D01*
X165099952Y-72920756D01*
X123687065Y-46910696D02*
X124401351Y-46910696D01*
X124544208Y-46863077D01*
X124639446Y-46767839D01*
X124687065Y-46624982D01*
X124687065Y-46529744D01*
X124687065Y-47910696D02*
X124687065Y-47339268D01*
X124687065Y-47624982D02*
X123687065Y-47624982D01*
X123829923Y-47529744D01*
X123925161Y-47434506D01*
X123972780Y-47339268D01*
X160432690Y-71492184D02*
X159432690Y-71492184D01*
X159432690Y-71730280D01*
X159480310Y-71873137D01*
X159575548Y-71968375D01*
X159670786Y-72015994D01*
X159861262Y-72063613D01*
X160004119Y-72063613D01*
X160194595Y-72015994D01*
X160289833Y-71968375D01*
X160385071Y-71873137D01*
X160432690Y-71730280D01*
X160432690Y-71492184D01*
X159861262Y-72635041D02*
X159813643Y-72539803D01*
X159766024Y-72492184D01*
X159670786Y-72444565D01*
X159623167Y-72444565D01*
X159527929Y-72492184D01*
X159480310Y-72539803D01*
X159432690Y-72635041D01*
X159432690Y-72825518D01*
X159480310Y-72920756D01*
X159527929Y-72968375D01*
X159623167Y-73015994D01*
X159670786Y-73015994D01*
X159766024Y-72968375D01*
X159813643Y-72920756D01*
X159861262Y-72825518D01*
X159861262Y-72635041D01*
X159908881Y-72539803D01*
X159956500Y-72492184D01*
X160051738Y-72444565D01*
X160242214Y-72444565D01*
X160337452Y-72492184D01*
X160385071Y-72539803D01*
X160432690Y-72635041D01*
X160432690Y-72825518D01*
X160385071Y-72920756D01*
X160337452Y-72968375D01*
X160242214Y-73015994D01*
X160051738Y-73015994D01*
X159956500Y-72968375D01*
X159908881Y-72920756D01*
X159861262Y-72825518D01*
X203084565Y-36195071D02*
X203798851Y-36195071D01*
X203941708Y-36147452D01*
X204036946Y-36052214D01*
X204084565Y-35909357D01*
X204084565Y-35814119D01*
X203179804Y-36623643D02*
X203132185Y-36671262D01*
X203084565Y-36766500D01*
X203084565Y-37004595D01*
X203132185Y-37099833D01*
X203179804Y-37147452D01*
X203275042Y-37195071D01*
X203370280Y-37195071D01*
X203513137Y-37147452D01*
X204084565Y-36576024D01*
X204084565Y-37195071D01*
X189555310Y-22538976D02*
X189221976Y-22538976D01*
X189079119Y-23062785D02*
X189555310Y-23062785D01*
X189555310Y-22062785D01*
X189079119Y-22062785D01*
X188745786Y-22062785D02*
X188079119Y-23062785D01*
X188079119Y-22062785D02*
X188745786Y-23062785D01*
X187841024Y-22062785D02*
X187269595Y-22062785D01*
X187555310Y-23062785D02*
X187555310Y-22062785D01*
X187174357Y-23158024D02*
X186412452Y-23158024D01*
X186174357Y-23062785D02*
X186174357Y-22062785D01*
X185841024Y-22777071D01*
X185507690Y-22062785D01*
X185507690Y-23062785D01*
X184460071Y-23062785D02*
X184793405Y-22586595D01*
X185031500Y-23062785D02*
X185031500Y-22062785D01*
X184650548Y-22062785D01*
X184555310Y-22110405D01*
X184507690Y-22158024D01*
X184460071Y-22253262D01*
X184460071Y-22396119D01*
X184507690Y-22491357D01*
X184555310Y-22538976D01*
X184650548Y-22586595D01*
X185031500Y-22586595D01*
X184126738Y-22062785D02*
X183507690Y-22062785D01*
X183841024Y-22443738D01*
X183698167Y-22443738D01*
X183602929Y-22491357D01*
X183555310Y-22538976D01*
X183507690Y-22634214D01*
X183507690Y-22872309D01*
X183555310Y-22967547D01*
X183602929Y-23015166D01*
X183698167Y-23062785D01*
X183983881Y-23062785D01*
X184079119Y-23015166D01*
X184126738Y-22967547D01*
X207414685Y-22552726D02*
X207081351Y-22552726D01*
X206938494Y-23076535D02*
X207414685Y-23076535D01*
X207414685Y-22076535D01*
X206938494Y-22076535D01*
X206605161Y-22076535D02*
X205938494Y-23076535D01*
X205938494Y-22076535D02*
X206605161Y-23076535D01*
X205700399Y-22076535D02*
X205128970Y-22076535D01*
X205414685Y-23076535D02*
X205414685Y-22076535D01*
X205033732Y-23171774D02*
X204271827Y-23171774D01*
X204033732Y-23076535D02*
X204033732Y-22076535D01*
X203700399Y-22790821D01*
X203367065Y-22076535D01*
X203367065Y-23076535D01*
X202319446Y-23076535D02*
X202652780Y-22600345D01*
X202890875Y-23076535D02*
X202890875Y-22076535D01*
X202509923Y-22076535D01*
X202414685Y-22124155D01*
X202367065Y-22171774D01*
X202319446Y-22267012D01*
X202319446Y-22409869D01*
X202367065Y-22505107D01*
X202414685Y-22552726D01*
X202509923Y-22600345D01*
X202890875Y-22600345D01*
X201938494Y-22171774D02*
X201890875Y-22124155D01*
X201795637Y-22076535D01*
X201557542Y-22076535D01*
X201462304Y-22124155D01*
X201414685Y-22171774D01*
X201367065Y-22267012D01*
X201367065Y-22362250D01*
X201414685Y-22505107D01*
X201986113Y-23076535D01*
X201367065Y-23076535D01*
X228845935Y-26548726D02*
X228512601Y-26548726D01*
X228369744Y-27072535D02*
X228845935Y-27072535D01*
X228845935Y-26072535D01*
X228369744Y-26072535D01*
X228036411Y-26072535D02*
X227369744Y-27072535D01*
X227369744Y-26072535D02*
X228036411Y-27072535D01*
X227131649Y-26072535D02*
X226560220Y-26072535D01*
X226845935Y-27072535D02*
X226845935Y-26072535D01*
X226464982Y-27167774D02*
X225703077Y-27167774D01*
X225464982Y-27072535D02*
X225464982Y-26072535D01*
X225131649Y-26786821D01*
X224798315Y-26072535D01*
X224798315Y-27072535D01*
X223750696Y-26977297D02*
X223798315Y-27024916D01*
X223941173Y-27072535D01*
X224036411Y-27072535D01*
X224179268Y-27024916D01*
X224274506Y-26929678D01*
X224322125Y-26834440D01*
X224369744Y-26643964D01*
X224369744Y-26501107D01*
X224322125Y-26310631D01*
X224274506Y-26215393D01*
X224179268Y-26120155D01*
X224036411Y-26072535D01*
X223941173Y-26072535D01*
X223798315Y-26120155D01*
X223750696Y-26167774D01*
X223417363Y-26072535D02*
X222750696Y-26072535D01*
X223179268Y-27072535D01*
X65182690Y-52459059D02*
X64182690Y-52459059D01*
X64182690Y-52697155D01*
X64230310Y-52840012D01*
X64325548Y-52935250D01*
X64420786Y-52982869D01*
X64611262Y-53030488D01*
X64754119Y-53030488D01*
X64944595Y-52982869D01*
X65039833Y-52935250D01*
X65135071Y-52840012D01*
X65182690Y-52697155D01*
X65182690Y-52459059D01*
X64277929Y-53411440D02*
X64230310Y-53459059D01*
X64182690Y-53554297D01*
X64182690Y-53792393D01*
X64230310Y-53887631D01*
X64277929Y-53935250D01*
X64373167Y-53982869D01*
X64468405Y-53982869D01*
X64611262Y-53935250D01*
X65182690Y-53363821D01*
X65182690Y-53982869D01*
X179482690Y-72513184D02*
X178482690Y-72513184D01*
X178482690Y-72751280D01*
X178530310Y-72894137D01*
X178625548Y-72989375D01*
X178720786Y-73036994D01*
X178911262Y-73084613D01*
X179054119Y-73084613D01*
X179244595Y-73036994D01*
X179339833Y-72989375D01*
X179435071Y-72894137D01*
X179482690Y-72751280D01*
X179482690Y-72513184D01*
X179482690Y-73560803D02*
X179482690Y-73751280D01*
X179435071Y-73846518D01*
X179387452Y-73894137D01*
X179244595Y-73989375D01*
X179054119Y-74036994D01*
X178673167Y-74036994D01*
X178577929Y-73989375D01*
X178530310Y-73941756D01*
X178482690Y-73846518D01*
X178482690Y-73656041D01*
X178530310Y-73560803D01*
X178577929Y-73513184D01*
X178673167Y-73465565D01*
X178911262Y-73465565D01*
X179006500Y-73513184D01*
X179054119Y-73560803D01*
X179101738Y-73656041D01*
X179101738Y-73846518D01*
X179054119Y-73941756D01*
X179006500Y-73989375D01*
X178911262Y-74036994D01*
X112164685Y-26548726D02*
X111831351Y-26548726D01*
X111688494Y-27072535D02*
X112164685Y-27072535D01*
X112164685Y-26072535D01*
X111688494Y-26072535D01*
X111355161Y-26072535D02*
X110688494Y-27072535D01*
X110688494Y-26072535D02*
X111355161Y-27072535D01*
X110450399Y-26072535D02*
X109878970Y-26072535D01*
X110164685Y-27072535D02*
X110164685Y-26072535D01*
X109783732Y-27167774D02*
X109021827Y-27167774D01*
X108783732Y-27072535D02*
X108783732Y-26072535D01*
X108450399Y-26786821D01*
X108117065Y-26072535D01*
X108117065Y-27072535D01*
X107069446Y-26977297D02*
X107117065Y-27024916D01*
X107259923Y-27072535D01*
X107355161Y-27072535D01*
X107498018Y-27024916D01*
X107593256Y-26929678D01*
X107640875Y-26834440D01*
X107688494Y-26643964D01*
X107688494Y-26501107D01*
X107640875Y-26310631D01*
X107593256Y-26215393D01*
X107498018Y-26120155D01*
X107355161Y-26072535D01*
X107259923Y-26072535D01*
X107117065Y-26120155D01*
X107069446Y-26167774D01*
X106736113Y-26072535D02*
X106117065Y-26072535D01*
X106450399Y-26453488D01*
X106307542Y-26453488D01*
X106212304Y-26501107D01*
X106164685Y-26548726D01*
X106117065Y-26643964D01*
X106117065Y-26882059D01*
X106164685Y-26977297D01*
X106212304Y-27024916D01*
X106307542Y-27072535D01*
X106593256Y-27072535D01*
X106688494Y-27024916D01*
X106736113Y-26977297D01*
X203842810Y-26548726D02*
X203509476Y-26548726D01*
X203366619Y-27072535D02*
X203842810Y-27072535D01*
X203842810Y-26072535D01*
X203366619Y-26072535D01*
X203033286Y-26072535D02*
X202366619Y-27072535D01*
X202366619Y-26072535D02*
X203033286Y-27072535D01*
X202128524Y-26072535D02*
X201557095Y-26072535D01*
X201842810Y-27072535D02*
X201842810Y-26072535D01*
X201461857Y-27167774D02*
X200699952Y-27167774D01*
X200461857Y-27072535D02*
X200461857Y-26072535D01*
X200128524Y-26786821D01*
X199795190Y-26072535D01*
X199795190Y-27072535D01*
X198747571Y-27072535D02*
X199080905Y-26596345D01*
X199319000Y-27072535D02*
X199319000Y-26072535D01*
X198938048Y-26072535D01*
X198842810Y-26120155D01*
X198795190Y-26167774D01*
X198747571Y-26263012D01*
X198747571Y-26405869D01*
X198795190Y-26501107D01*
X198842810Y-26548726D01*
X198938048Y-26596345D01*
X199319000Y-26596345D01*
X198414238Y-26072535D02*
X197747571Y-26072535D01*
X198176143Y-27072535D01*
X175401440Y-91132869D02*
X174401440Y-91132869D01*
X174401440Y-91370964D01*
X174449060Y-91513821D01*
X174544298Y-91609059D01*
X174639536Y-91656678D01*
X174830012Y-91704297D01*
X174972869Y-91704297D01*
X175163345Y-91656678D01*
X175258583Y-91609059D01*
X175353821Y-91513821D01*
X175401440Y-91370964D01*
X175401440Y-91132869D01*
X175401440Y-92656678D02*
X175401440Y-92085250D01*
X175401440Y-92370964D02*
X174401440Y-92370964D01*
X174544298Y-92275726D01*
X174639536Y-92180488D01*
X174687155Y-92085250D01*
X174401440Y-92990012D02*
X174401440Y-93656678D01*
X175401440Y-93228107D01*
X225274060Y-22552726D02*
X224940726Y-22552726D01*
X224797869Y-23076535D02*
X225274060Y-23076535D01*
X225274060Y-22076535D01*
X224797869Y-22076535D01*
X224464536Y-22076535D02*
X223797869Y-23076535D01*
X223797869Y-22076535D02*
X224464536Y-23076535D01*
X223559774Y-22076535D02*
X222988345Y-22076535D01*
X223274060Y-23076535D02*
X223274060Y-22076535D01*
X222893107Y-23171774D02*
X222131202Y-23171774D01*
X221893107Y-23076535D02*
X221893107Y-22076535D01*
X221559774Y-22790821D01*
X221226440Y-22076535D01*
X221226440Y-23076535D01*
X220178821Y-22981297D02*
X220226440Y-23028916D01*
X220369298Y-23076535D01*
X220464536Y-23076535D01*
X220607393Y-23028916D01*
X220702631Y-22933678D01*
X220750250Y-22838440D01*
X220797869Y-22647964D01*
X220797869Y-22505107D01*
X220750250Y-22314631D01*
X220702631Y-22219393D01*
X220607393Y-22124155D01*
X220464536Y-22076535D01*
X220369298Y-22076535D01*
X220226440Y-22124155D01*
X220178821Y-22171774D01*
X219321679Y-22076535D02*
X219512155Y-22076535D01*
X219607393Y-22124155D01*
X219655012Y-22171774D01*
X219750250Y-22314631D01*
X219797869Y-22505107D01*
X219797869Y-22886059D01*
X219750250Y-22981297D01*
X219702631Y-23028916D01*
X219607393Y-23076535D01*
X219416917Y-23076535D01*
X219321679Y-23028916D01*
X219274060Y-22981297D01*
X219226440Y-22886059D01*
X219226440Y-22647964D01*
X219274060Y-22552726D01*
X219321679Y-22505107D01*
X219416917Y-22457488D01*
X219607393Y-22457488D01*
X219702631Y-22505107D01*
X219750250Y-22552726D01*
X219797869Y-22647964D01*
D10*
X79908435Y-30065905D02*
G75*
G03*
X76508435Y-30065905I-1700000J-1700000D01*
G01*
D12*
X198937185Y-44134030D02*
X201437185Y-44134030D01*
X201437185Y-50354030D02*
X201437185Y-49304030D01*
X198937185Y-50354030D02*
X201437185Y-50354030D01*
X196967185Y-49184030D02*
X196967185Y-45304030D01*
X201437185Y-44134030D02*
X201437185Y-45184030D01*
X201437185Y-49304030D02*
X202427185Y-49304030D01*
X53158435Y-55447155D02*
X53158435Y-51547155D01*
X53158435Y-55447155D02*
X51158435Y-55447155D01*
X51158435Y-55447155D02*
X51158435Y-51547155D01*
X184183435Y-24622155D02*
G75*
G03*
X184183435Y-24622155I-1200000J0D01*
G01*
D10*
X301536560Y-25833530D02*
G75*
G03*
X304936560Y-25833530I1700000J1700000D01*
G01*
D12*
X103220935Y-24622155D02*
G75*
G03*
X103220935Y-24622155I-1200000J0D01*
G01*
X216130310Y-55447155D02*
X216130310Y-51547155D01*
X216130310Y-55447155D02*
X214130310Y-55447155D01*
X214130310Y-55447155D02*
X214130310Y-51547155D01*
X297092810Y-55447155D02*
X295092810Y-55447155D01*
X297092810Y-55447155D02*
X297092810Y-51547155D01*
X295092810Y-55447155D02*
X295092810Y-51547155D01*
X172417810Y-80450280D02*
X172417810Y-76550280D01*
X174417810Y-80450280D02*
X172417810Y-80450280D01*
X174417810Y-80450280D02*
X174417810Y-76550280D01*
D10*
X203733435Y-53925280D02*
G75*
G03*
X200333435Y-53925280I-1700000J-1700000D01*
G01*
D12*
X187555310Y-93547155D02*
X187555310Y-89647155D01*
X185555310Y-93547155D02*
X185555310Y-89647155D01*
X187555310Y-93547155D02*
X185555310Y-93547155D01*
D10*
X304936560Y-53887780D02*
G75*
G03*
X301536560Y-53887780I-1700000J-1700000D01*
G01*
X140630310Y-76500280D02*
G75*
G03*
X137230310Y-76500280I-1700000J-1700000D01*
G01*
D12*
X178030310Y-94597155D02*
X178030310Y-90697155D01*
X178030310Y-94597155D02*
X176030310Y-94597155D01*
X176030310Y-94597155D02*
X176030310Y-90697155D01*
X166505310Y-75501280D02*
X166505310Y-71601280D01*
X168505310Y-75501280D02*
X168505310Y-71601280D01*
X168505310Y-75501280D02*
X166505310Y-75501280D01*
X153408435Y-80450280D02*
X153408435Y-76550280D01*
X155408435Y-80450280D02*
X155408435Y-76550280D01*
X155408435Y-80450280D02*
X153408435Y-80450280D01*
X197080310Y-74497155D02*
X195080310Y-74497155D01*
X197080310Y-74497155D02*
X197080310Y-70597155D01*
X195080310Y-74497155D02*
X195080310Y-70597155D01*
X120880310Y-55447155D02*
X118880310Y-55447155D01*
X118880310Y-55447155D02*
X118880310Y-51547155D01*
X120880310Y-55447155D02*
X120880310Y-51547155D01*
X27020935Y-41290905D02*
G75*
G03*
X27020935Y-41290905I-1200000J0D01*
G01*
D10*
X251358435Y-30065905D02*
G75*
G03*
X247958435Y-30065905I-1700000J-1700000D01*
G01*
D12*
X139930310Y-75497280D02*
X137930310Y-75497280D01*
X139930310Y-75497280D02*
X139930310Y-71597280D01*
X137930310Y-75497280D02*
X137930310Y-71597280D01*
D10*
X190636560Y-76500280D02*
G75*
G03*
X187236560Y-76500280I-1700000J-1700000D01*
G01*
D12*
X147455310Y-93547155D02*
X147455310Y-89647155D01*
X149455310Y-93547155D02*
X147455310Y-93547155D01*
X149455310Y-93547155D02*
X149455310Y-89647155D01*
X106792810Y-24622155D02*
G75*
G03*
X106792810Y-24622155I-1200000J0D01*
G01*
D10*
X26330310Y-53887780D02*
G75*
G03*
X22930310Y-53887780I-1700000J-1700000D01*
G01*
D12*
X27020935Y-37719030D02*
G75*
G03*
X27020935Y-37719030I-1200000J0D01*
G01*
X219902185Y-24622155D02*
G75*
G03*
X219902185Y-24622155I-1200000J0D01*
G01*
X273280310Y-55447155D02*
X271280310Y-55447155D01*
X273280310Y-55447155D02*
X273280310Y-51547155D01*
X271280310Y-55447155D02*
X271280310Y-51547155D01*
X163742810Y-74480280D02*
X163742810Y-70580280D01*
X161742810Y-74480280D02*
X161742810Y-70580280D01*
X163742810Y-74480280D02*
X161742810Y-74480280D01*
D10*
X162233435Y-25833530D02*
G75*
G03*
X165633435Y-25833530I1700000J1700000D01*
G01*
X127533435Y-53878405D02*
G75*
G03*
X124133435Y-53878405I-1700000J-1700000D01*
G01*
X22930310Y-25833530D02*
G75*
G03*
X26330310Y-25833530I1700000J1700000D01*
G01*
D12*
X128929685Y-44134030D02*
X126429685Y-44134030D01*
X128929685Y-50354030D02*
X126429685Y-50354030D01*
X126429685Y-44134030D02*
X126429685Y-45184030D01*
X130899685Y-45304030D02*
X130899685Y-49184030D01*
X126429685Y-45184030D02*
X125439685Y-45184030D01*
X126429685Y-50354030D02*
X126429685Y-49304030D01*
X156980310Y-74480280D02*
X156980310Y-70580280D01*
X158980310Y-74480280D02*
X156980310Y-74480280D01*
X158980310Y-74480280D02*
X158980310Y-70580280D01*
X198937185Y-33418405D02*
X201437185Y-33418405D01*
X201437185Y-33418405D02*
X201437185Y-34468405D01*
X196967185Y-38468405D02*
X196967185Y-34588405D01*
X198937185Y-39638405D02*
X201437185Y-39638405D01*
X201437185Y-38588405D02*
X202427185Y-38588405D01*
X201437185Y-39638405D02*
X201437185Y-38588405D01*
X187755310Y-24622155D02*
G75*
G03*
X187755310Y-24622155I-1200000J0D01*
G01*
X205614685Y-24622155D02*
G75*
G03*
X205614685Y-24622155I-1200000J0D01*
G01*
X227045935Y-24622155D02*
G75*
G03*
X227045935Y-24622155I-1200000J0D01*
G01*
X63730310Y-55447155D02*
X61730310Y-55447155D01*
X63730310Y-55447155D02*
X63730310Y-51547155D01*
X61730310Y-55447155D02*
X61730310Y-51547155D01*
X176030310Y-75501280D02*
X176030310Y-71601280D01*
X178030310Y-75501280D02*
X178030310Y-71601280D01*
X178030310Y-75501280D02*
X176030310Y-75501280D01*
X110364685Y-24622155D02*
G75*
G03*
X110364685Y-24622155I-1200000J0D01*
G01*
X202042810Y-24622155D02*
G75*
G03*
X202042810Y-24622155I-1200000J0D01*
G01*
X171949060Y-94597155D02*
X171949060Y-90697155D01*
X173949060Y-94597155D02*
X171949060Y-94597155D01*
X173949060Y-94597155D02*
X173949060Y-90697155D01*
X223474060Y-24622155D02*
G75*
G03*
X223474060Y-24622155I-1200000J0D01*
G01*
%LPC*%
D13*
X158408435Y-91225280D03*
D14*
X166933435Y-90725280D03*
D13*
X169458435Y-87725280D03*
X158408435Y-84225280D03*
D15*
X193699060Y-24133530D03*
D16*
X177903435Y-87725280D03*
X188063435Y-87725280D03*
D17*
X182983435Y-87725280D03*
D18*
X179173435Y-85185280D03*
X185523435Y-82645280D03*
D19*
X46585435Y-49244280D03*
D20*
X281408435Y-49251780D03*
D17*
X211558435Y-49625280D03*
D16*
X206478435Y-49625280D03*
X216638435Y-49625280D03*
D18*
X207748435Y-47085280D03*
X214098435Y-44545280D03*
D16*
X187428435Y-68675280D03*
D17*
X192508435Y-68675280D03*
D16*
X197588435Y-68675280D03*
D18*
X188698435Y-66135280D03*
X195048435Y-63595280D03*
D16*
X130278435Y-68700320D03*
X140438435Y-68700320D03*
D17*
X135358435Y-68700320D03*
D18*
X131548435Y-66160320D03*
X137898435Y-63620320D03*
D16*
X178538435Y-68675280D03*
X168378435Y-68675280D03*
D17*
X173458435Y-68675280D03*
D18*
X169648435Y-66135280D03*
X175998435Y-63595280D03*
D17*
X154408435Y-68675280D03*
D16*
X149328435Y-68675280D03*
X159488435Y-68675280D03*
D18*
X150598435Y-66135280D03*
X156948435Y-63595280D03*
D17*
X37727185Y-49625280D03*
D16*
X32647185Y-49625280D03*
X42807185Y-49625280D03*
D18*
X41537185Y-52165280D03*
X35187185Y-54705280D03*
D16*
X273788435Y-49625280D03*
X263628435Y-49625280D03*
D17*
X268708435Y-49625280D03*
D18*
X264898435Y-47085280D03*
X271248435Y-44545280D03*
D15*
X144883435Y-55578405D03*
X40108435Y-31765905D03*
X136549060Y-24133530D03*
D17*
X116308435Y-49625280D03*
D16*
X121388435Y-49625280D03*
X111228435Y-49625280D03*
D18*
X112498435Y-47085280D03*
X118848435Y-44545280D03*
D15*
X97258435Y-31765905D03*
D17*
X144883435Y-87725280D03*
D16*
X149963435Y-87725280D03*
X139803435Y-87725280D03*
D18*
X141073435Y-85185280D03*
X147423435Y-82645280D03*
D15*
X182983435Y-55578405D03*
X230608435Y-31765905D03*
D16*
X169013435Y-87725280D03*
X158853435Y-87725280D03*
D17*
X163933435Y-87725280D03*
D18*
X160123435Y-85185280D03*
X166473435Y-82645280D03*
D17*
X35345935Y-49625280D03*
D16*
X40425935Y-49625280D03*
X30265935Y-49625280D03*
D18*
X31535935Y-47085280D03*
X37885935Y-44545280D03*
D17*
X59158435Y-49625280D03*
D16*
X54078435Y-49625280D03*
X64238435Y-49625280D03*
D18*
X55348435Y-47085280D03*
X61698435Y-44545280D03*
D16*
X287440935Y-49625280D03*
X297600935Y-49625280D03*
D17*
X292520935Y-49625280D03*
D18*
X288710935Y-47085280D03*
X295060935Y-44545280D03*
D15*
X287758435Y-31765905D03*
X78208435Y-31765905D03*
D21*
X201652185Y-48744030D03*
D22*
X199852185Y-49244030D03*
X197952185Y-48244030D03*
D21*
X201652185Y-47744030D03*
D22*
X197952185Y-46244030D03*
D21*
X201652185Y-46744030D03*
D22*
X199852185Y-45244030D03*
D21*
X201652185Y-45744030D03*
D23*
X197777185Y-50044030D03*
X197777185Y-44444030D03*
D24*
X52158435Y-54847155D03*
X52158435Y-51547155D03*
D25*
X182983435Y-24622155D03*
D15*
X303236560Y-24133530D03*
D25*
X102020935Y-24622155D03*
D24*
X215130310Y-54847155D03*
X215130310Y-51547155D03*
X296092810Y-54847155D03*
X296092810Y-51547155D03*
X173417810Y-79850280D03*
X173417810Y-76550280D03*
D15*
X202033435Y-55625280D03*
D24*
X186555310Y-92947155D03*
X186555310Y-89647155D03*
D15*
X303236560Y-55587780D03*
X138930310Y-78200280D03*
D24*
X177030310Y-93997155D03*
X177030310Y-90697155D03*
X167505310Y-74901280D03*
X167505310Y-71601280D03*
X154408435Y-79850280D03*
X154408435Y-76550280D03*
X196080310Y-73897155D03*
X196080310Y-70597155D03*
X119880310Y-54847155D03*
X119880310Y-51547155D03*
D25*
X25820935Y-41290905D03*
D15*
X249658435Y-31765905D03*
D24*
X138930310Y-74897280D03*
X138930310Y-71597280D03*
D15*
X188936560Y-78200280D03*
D24*
X148455310Y-92947155D03*
X148455310Y-89647155D03*
D25*
X105592810Y-24622155D03*
D15*
X24630310Y-55587780D03*
D25*
X25820935Y-37719030D03*
X218702185Y-24622155D03*
D24*
X272280310Y-54847155D03*
X272280310Y-51547155D03*
X162742810Y-73880280D03*
X162742810Y-70580280D03*
D15*
X163933435Y-24133530D03*
X125833435Y-55578405D03*
X24630310Y-24133530D03*
D26*
X126214685Y-45744030D03*
D22*
X128014685Y-45244030D03*
X129914685Y-46244030D03*
D26*
X126214685Y-46744030D03*
X126214685Y-47744030D03*
D22*
X129914685Y-48244030D03*
X128014685Y-49244030D03*
D26*
X126214685Y-48744030D03*
D27*
X130089685Y-50044030D03*
X130089685Y-44444030D03*
D24*
X157980310Y-73880280D03*
X157980310Y-70580280D03*
D21*
X201652185Y-38028405D03*
D22*
X199852185Y-38528405D03*
X197952185Y-37528405D03*
D21*
X201652185Y-37028405D03*
D22*
X197952185Y-35528405D03*
D21*
X201652185Y-36028405D03*
X201652185Y-35028405D03*
D22*
X199852185Y-34528405D03*
D23*
X197777185Y-33728405D03*
X197777185Y-39328405D03*
D25*
X186555310Y-24622155D03*
X204414685Y-24622155D03*
X225845935Y-24622155D03*
D24*
X62730310Y-54847155D03*
X62730310Y-51547155D03*
X177030310Y-74901280D03*
X177030310Y-71601280D03*
D25*
X109164685Y-24622155D03*
X200842810Y-24622155D03*
D24*
X172949060Y-93997155D03*
X172949060Y-90697155D03*
D25*
X222274060Y-24622155D03*
M02*
