G04 #@! TF.GenerationSoftware,KiCad,Pcbnew,7.0.1-0*
G04 #@! TF.CreationDate,2023-04-15T21:18:13+09:00*
G04 #@! TF.ProjectId,Sandy_Middle,53616e64-795f-44d6-9964-646c652e6b69,v.0*
G04 #@! TF.SameCoordinates,Original*
G04 #@! TF.FileFunction,AssemblyDrawing,Bot*
%FSLAX46Y46*%
G04 Gerber Fmt 4.6, Leading zero omitted, Abs format (unit mm)*
G04 Created by KiCad (PCBNEW 7.0.1-0) date 2023-04-15 21:18:13*
%MOMM*%
%LPD*%
G01*
G04 APERTURE LIST*
%ADD10C,0.150000*%
%ADD11C,0.100000*%
G04 APERTURE END LIST*
D10*
X199114804Y-46910696D02*
X199829089Y-46910696D01*
X199829089Y-46910696D02*
X199971946Y-46863077D01*
X199971946Y-46863077D02*
X200067185Y-46767839D01*
X200067185Y-46767839D02*
X200114804Y-46624982D01*
X200114804Y-46624982D02*
X200114804Y-46529744D01*
X199210042Y-47339268D02*
X199162423Y-47386887D01*
X199162423Y-47386887D02*
X199114804Y-47482125D01*
X199114804Y-47482125D02*
X199114804Y-47720220D01*
X199114804Y-47720220D02*
X199162423Y-47815458D01*
X199162423Y-47815458D02*
X199210042Y-47863077D01*
X199210042Y-47863077D02*
X199305280Y-47910696D01*
X199305280Y-47910696D02*
X199400518Y-47910696D01*
X199400518Y-47910696D02*
X199543375Y-47863077D01*
X199543375Y-47863077D02*
X200114804Y-47291649D01*
X200114804Y-47291649D02*
X200114804Y-47910696D01*
X41380429Y-52459060D02*
X40380429Y-52459060D01*
X40380429Y-52459060D02*
X40380429Y-52697155D01*
X40380429Y-52697155D02*
X40428048Y-52840012D01*
X40428048Y-52840012D02*
X40523286Y-52935250D01*
X40523286Y-52935250D02*
X40618524Y-52982869D01*
X40618524Y-52982869D02*
X40809000Y-53030488D01*
X40809000Y-53030488D02*
X40951857Y-53030488D01*
X40951857Y-53030488D02*
X41142333Y-52982869D01*
X41142333Y-52982869D02*
X41237571Y-52935250D01*
X41237571Y-52935250D02*
X41332810Y-52840012D01*
X41332810Y-52840012D02*
X41380429Y-52697155D01*
X41380429Y-52697155D02*
X41380429Y-52459060D01*
X41380429Y-53982869D02*
X41380429Y-53411441D01*
X41380429Y-53697155D02*
X40380429Y-53697155D01*
X40380429Y-53697155D02*
X40523286Y-53601917D01*
X40523286Y-53601917D02*
X40618524Y-53506679D01*
X40618524Y-53506679D02*
X40666143Y-53411441D01*
X185983434Y-26560964D02*
X185650101Y-26560964D01*
X185507244Y-27084774D02*
X185983434Y-27084774D01*
X185983434Y-27084774D02*
X185983434Y-26084774D01*
X185983434Y-26084774D02*
X185507244Y-26084774D01*
X185173910Y-26084774D02*
X184507244Y-27084774D01*
X184507244Y-26084774D02*
X185173910Y-27084774D01*
X184269148Y-26084774D02*
X183697720Y-26084774D01*
X183983434Y-27084774D02*
X183983434Y-26084774D01*
X183602482Y-27180012D02*
X182840577Y-27180012D01*
X182602481Y-27084774D02*
X182602481Y-26084774D01*
X182602481Y-26084774D02*
X182269148Y-26799059D01*
X182269148Y-26799059D02*
X181935815Y-26084774D01*
X181935815Y-26084774D02*
X181935815Y-27084774D01*
X180888196Y-27084774D02*
X181221529Y-26608583D01*
X181459624Y-27084774D02*
X181459624Y-26084774D01*
X181459624Y-26084774D02*
X181078672Y-26084774D01*
X181078672Y-26084774D02*
X180983434Y-26132393D01*
X180983434Y-26132393D02*
X180935815Y-26180012D01*
X180935815Y-26180012D02*
X180888196Y-26275250D01*
X180888196Y-26275250D02*
X180888196Y-26418107D01*
X180888196Y-26418107D02*
X180935815Y-26513345D01*
X180935815Y-26513345D02*
X180983434Y-26560964D01*
X180983434Y-26560964D02*
X181078672Y-26608583D01*
X181078672Y-26608583D02*
X181459624Y-26608583D01*
X180316767Y-26513345D02*
X180412005Y-26465726D01*
X180412005Y-26465726D02*
X180459624Y-26418107D01*
X180459624Y-26418107D02*
X180507243Y-26322869D01*
X180507243Y-26322869D02*
X180507243Y-26275250D01*
X180507243Y-26275250D02*
X180459624Y-26180012D01*
X180459624Y-26180012D02*
X180412005Y-26132393D01*
X180412005Y-26132393D02*
X180316767Y-26084774D01*
X180316767Y-26084774D02*
X180126291Y-26084774D01*
X180126291Y-26084774D02*
X180031053Y-26132393D01*
X180031053Y-26132393D02*
X179983434Y-26180012D01*
X179983434Y-26180012D02*
X179935815Y-26275250D01*
X179935815Y-26275250D02*
X179935815Y-26322869D01*
X179935815Y-26322869D02*
X179983434Y-26418107D01*
X179983434Y-26418107D02*
X180031053Y-26465726D01*
X180031053Y-26465726D02*
X180126291Y-26513345D01*
X180126291Y-26513345D02*
X180316767Y-26513345D01*
X180316767Y-26513345D02*
X180412005Y-26560964D01*
X180412005Y-26560964D02*
X180459624Y-26608583D01*
X180459624Y-26608583D02*
X180507243Y-26703821D01*
X180507243Y-26703821D02*
X180507243Y-26894297D01*
X180507243Y-26894297D02*
X180459624Y-26989535D01*
X180459624Y-26989535D02*
X180412005Y-27037155D01*
X180412005Y-27037155D02*
X180316767Y-27084774D01*
X180316767Y-27084774D02*
X180126291Y-27084774D01*
X180126291Y-27084774D02*
X180031053Y-27037155D01*
X180031053Y-27037155D02*
X179983434Y-26989535D01*
X179983434Y-26989535D02*
X179935815Y-26894297D01*
X179935815Y-26894297D02*
X179935815Y-26703821D01*
X179935815Y-26703821D02*
X179983434Y-26608583D01*
X179983434Y-26608583D02*
X180031053Y-26560964D01*
X180031053Y-26560964D02*
X180126291Y-26513345D01*
X193746529Y-24596149D02*
X193746529Y-23596149D01*
X193746529Y-24072339D02*
X193175101Y-24072339D01*
X193175101Y-24596149D02*
X193175101Y-23596149D01*
X192175101Y-24596149D02*
X192746529Y-24596149D01*
X192460815Y-24596149D02*
X192460815Y-23596149D01*
X192460815Y-23596149D02*
X192556053Y-23739006D01*
X192556053Y-23739006D02*
X192651291Y-23834244D01*
X192651291Y-23834244D02*
X192746529Y-23881863D01*
X191841767Y-23596149D02*
X191222720Y-23596149D01*
X191222720Y-23596149D02*
X191556053Y-23977101D01*
X191556053Y-23977101D02*
X191413196Y-23977101D01*
X191413196Y-23977101D02*
X191317958Y-24024720D01*
X191317958Y-24024720D02*
X191270339Y-24072339D01*
X191270339Y-24072339D02*
X191222720Y-24167577D01*
X191222720Y-24167577D02*
X191222720Y-24405672D01*
X191222720Y-24405672D02*
X191270339Y-24500910D01*
X191270339Y-24500910D02*
X191317958Y-24548530D01*
X191317958Y-24548530D02*
X191413196Y-24596149D01*
X191413196Y-24596149D02*
X191698910Y-24596149D01*
X191698910Y-24596149D02*
X191794148Y-24548530D01*
X191794148Y-24548530D02*
X191841767Y-24500910D01*
X105020934Y-26560964D02*
X104687601Y-26560964D01*
X104544744Y-27084774D02*
X105020934Y-27084774D01*
X105020934Y-27084774D02*
X105020934Y-26084774D01*
X105020934Y-26084774D02*
X104544744Y-26084774D01*
X104211410Y-26084774D02*
X103544744Y-27084774D01*
X103544744Y-26084774D02*
X104211410Y-27084774D01*
X103306648Y-26084774D02*
X102735220Y-26084774D01*
X103020934Y-27084774D02*
X103020934Y-26084774D01*
X102639982Y-27180012D02*
X101878077Y-27180012D01*
X101639981Y-27084774D02*
X101639981Y-26084774D01*
X101639981Y-26084774D02*
X101306648Y-26799059D01*
X101306648Y-26799059D02*
X100973315Y-26084774D01*
X100973315Y-26084774D02*
X100973315Y-27084774D01*
X99925696Y-26989535D02*
X99973315Y-27037155D01*
X99973315Y-27037155D02*
X100116172Y-27084774D01*
X100116172Y-27084774D02*
X100211410Y-27084774D01*
X100211410Y-27084774D02*
X100354267Y-27037155D01*
X100354267Y-27037155D02*
X100449505Y-26941916D01*
X100449505Y-26941916D02*
X100497124Y-26846678D01*
X100497124Y-26846678D02*
X100544743Y-26656202D01*
X100544743Y-26656202D02*
X100544743Y-26513345D01*
X100544743Y-26513345D02*
X100497124Y-26322869D01*
X100497124Y-26322869D02*
X100449505Y-26227631D01*
X100449505Y-26227631D02*
X100354267Y-26132393D01*
X100354267Y-26132393D02*
X100211410Y-26084774D01*
X100211410Y-26084774D02*
X100116172Y-26084774D01*
X100116172Y-26084774D02*
X99973315Y-26132393D01*
X99973315Y-26132393D02*
X99925696Y-26180012D01*
X99306648Y-26084774D02*
X99211410Y-26084774D01*
X99211410Y-26084774D02*
X99116172Y-26132393D01*
X99116172Y-26132393D02*
X99068553Y-26180012D01*
X99068553Y-26180012D02*
X99020934Y-26275250D01*
X99020934Y-26275250D02*
X98973315Y-26465726D01*
X98973315Y-26465726D02*
X98973315Y-26703821D01*
X98973315Y-26703821D02*
X99020934Y-26894297D01*
X99020934Y-26894297D02*
X99068553Y-26989535D01*
X99068553Y-26989535D02*
X99116172Y-27037155D01*
X99116172Y-27037155D02*
X99211410Y-27084774D01*
X99211410Y-27084774D02*
X99306648Y-27084774D01*
X99306648Y-27084774D02*
X99401886Y-27037155D01*
X99401886Y-27037155D02*
X99449505Y-26989535D01*
X99449505Y-26989535D02*
X99497124Y-26894297D01*
X99497124Y-26894297D02*
X99544743Y-26703821D01*
X99544743Y-26703821D02*
X99544743Y-26465726D01*
X99544743Y-26465726D02*
X99497124Y-26275250D01*
X99497124Y-26275250D02*
X99449505Y-26180012D01*
X99449505Y-26180012D02*
X99401886Y-26132393D01*
X99401886Y-26132393D02*
X99306648Y-26084774D01*
X217592929Y-52459060D02*
X216592929Y-52459060D01*
X216592929Y-52459060D02*
X216592929Y-52697155D01*
X216592929Y-52697155D02*
X216640548Y-52840012D01*
X216640548Y-52840012D02*
X216735786Y-52935250D01*
X216735786Y-52935250D02*
X216831024Y-52982869D01*
X216831024Y-52982869D02*
X217021500Y-53030488D01*
X217021500Y-53030488D02*
X217164357Y-53030488D01*
X217164357Y-53030488D02*
X217354833Y-52982869D01*
X217354833Y-52982869D02*
X217450071Y-52935250D01*
X217450071Y-52935250D02*
X217545310Y-52840012D01*
X217545310Y-52840012D02*
X217592929Y-52697155D01*
X217592929Y-52697155D02*
X217592929Y-52459060D01*
X216926262Y-53887631D02*
X217592929Y-53887631D01*
X216545310Y-53649536D02*
X217259595Y-53411441D01*
X217259595Y-53411441D02*
X217259595Y-54030488D01*
X278314804Y-52459060D02*
X277314804Y-52459060D01*
X277314804Y-52459060D02*
X277314804Y-52697155D01*
X277314804Y-52697155D02*
X277362423Y-52840012D01*
X277362423Y-52840012D02*
X277457661Y-52935250D01*
X277457661Y-52935250D02*
X277552899Y-52982869D01*
X277552899Y-52982869D02*
X277743375Y-53030488D01*
X277743375Y-53030488D02*
X277886232Y-53030488D01*
X277886232Y-53030488D02*
X278076708Y-52982869D01*
X278076708Y-52982869D02*
X278171946Y-52935250D01*
X278171946Y-52935250D02*
X278267185Y-52840012D01*
X278267185Y-52840012D02*
X278314804Y-52697155D01*
X278314804Y-52697155D02*
X278314804Y-52459060D01*
X277314804Y-53887631D02*
X277314804Y-53697155D01*
X277314804Y-53697155D02*
X277362423Y-53601917D01*
X277362423Y-53601917D02*
X277410042Y-53554298D01*
X277410042Y-53554298D02*
X277552899Y-53459060D01*
X277552899Y-53459060D02*
X277743375Y-53411441D01*
X277743375Y-53411441D02*
X278124327Y-53411441D01*
X278124327Y-53411441D02*
X278219565Y-53459060D01*
X278219565Y-53459060D02*
X278267185Y-53506679D01*
X278267185Y-53506679D02*
X278314804Y-53601917D01*
X278314804Y-53601917D02*
X278314804Y-53792393D01*
X278314804Y-53792393D02*
X278267185Y-53887631D01*
X278267185Y-53887631D02*
X278219565Y-53935250D01*
X278219565Y-53935250D02*
X278124327Y-53982869D01*
X278124327Y-53982869D02*
X277886232Y-53982869D01*
X277886232Y-53982869D02*
X277790994Y-53935250D01*
X277790994Y-53935250D02*
X277743375Y-53887631D01*
X277743375Y-53887631D02*
X277695756Y-53792393D01*
X277695756Y-53792393D02*
X277695756Y-53601917D01*
X277695756Y-53601917D02*
X277743375Y-53506679D01*
X277743375Y-53506679D02*
X277790994Y-53459060D01*
X277790994Y-53459060D02*
X277886232Y-53411441D01*
X177111679Y-76985994D02*
X176111679Y-76985994D01*
X176111679Y-76985994D02*
X176111679Y-77224089D01*
X176111679Y-77224089D02*
X176159298Y-77366946D01*
X176159298Y-77366946D02*
X176254536Y-77462184D01*
X176254536Y-77462184D02*
X176349774Y-77509803D01*
X176349774Y-77509803D02*
X176540250Y-77557422D01*
X176540250Y-77557422D02*
X176683107Y-77557422D01*
X176683107Y-77557422D02*
X176873583Y-77509803D01*
X176873583Y-77509803D02*
X176968821Y-77462184D01*
X176968821Y-77462184D02*
X177064060Y-77366946D01*
X177064060Y-77366946D02*
X177111679Y-77224089D01*
X177111679Y-77224089D02*
X177111679Y-76985994D01*
X177111679Y-78509803D02*
X177111679Y-77938375D01*
X177111679Y-78224089D02*
X176111679Y-78224089D01*
X176111679Y-78224089D02*
X176254536Y-78128851D01*
X176254536Y-78128851D02*
X176349774Y-78033613D01*
X176349774Y-78033613D02*
X176397393Y-77938375D01*
X176111679Y-78843137D02*
X176111679Y-79462184D01*
X176111679Y-79462184D02*
X176492631Y-79128851D01*
X176492631Y-79128851D02*
X176492631Y-79271708D01*
X176492631Y-79271708D02*
X176540250Y-79366946D01*
X176540250Y-79366946D02*
X176587869Y-79414565D01*
X176587869Y-79414565D02*
X176683107Y-79462184D01*
X176683107Y-79462184D02*
X176921202Y-79462184D01*
X176921202Y-79462184D02*
X177016440Y-79414565D01*
X177016440Y-79414565D02*
X177064060Y-79366946D01*
X177064060Y-79366946D02*
X177111679Y-79271708D01*
X177111679Y-79271708D02*
X177111679Y-78985994D01*
X177111679Y-78985994D02*
X177064060Y-78890756D01*
X177064060Y-78890756D02*
X177016440Y-78843137D01*
X159252304Y-78176619D02*
X158252304Y-78176619D01*
X158252304Y-78176619D02*
X158252304Y-78414714D01*
X158252304Y-78414714D02*
X158299923Y-78557571D01*
X158299923Y-78557571D02*
X158395161Y-78652809D01*
X158395161Y-78652809D02*
X158490399Y-78700428D01*
X158490399Y-78700428D02*
X158680875Y-78748047D01*
X158680875Y-78748047D02*
X158823732Y-78748047D01*
X158823732Y-78748047D02*
X159014208Y-78700428D01*
X159014208Y-78700428D02*
X159109446Y-78652809D01*
X159109446Y-78652809D02*
X159204685Y-78557571D01*
X159204685Y-78557571D02*
X159252304Y-78414714D01*
X159252304Y-78414714D02*
X159252304Y-78176619D01*
X159252304Y-79700428D02*
X159252304Y-79129000D01*
X159252304Y-79414714D02*
X158252304Y-79414714D01*
X158252304Y-79414714D02*
X158395161Y-79319476D01*
X158395161Y-79319476D02*
X158490399Y-79224238D01*
X158490399Y-79224238D02*
X158538018Y-79129000D01*
X158347542Y-80081381D02*
X158299923Y-80129000D01*
X158299923Y-80129000D02*
X158252304Y-80224238D01*
X158252304Y-80224238D02*
X158252304Y-80462333D01*
X158252304Y-80462333D02*
X158299923Y-80557571D01*
X158299923Y-80557571D02*
X158347542Y-80605190D01*
X158347542Y-80605190D02*
X158442780Y-80652809D01*
X158442780Y-80652809D02*
X158538018Y-80652809D01*
X158538018Y-80652809D02*
X158680875Y-80605190D01*
X158680875Y-80605190D02*
X159252304Y-80033762D01*
X159252304Y-80033762D02*
X159252304Y-80652809D01*
X198542929Y-71032869D02*
X197542929Y-71032869D01*
X197542929Y-71032869D02*
X197542929Y-71270964D01*
X197542929Y-71270964D02*
X197590548Y-71413821D01*
X197590548Y-71413821D02*
X197685786Y-71509059D01*
X197685786Y-71509059D02*
X197781024Y-71556678D01*
X197781024Y-71556678D02*
X197971500Y-71604297D01*
X197971500Y-71604297D02*
X198114357Y-71604297D01*
X198114357Y-71604297D02*
X198304833Y-71556678D01*
X198304833Y-71556678D02*
X198400071Y-71509059D01*
X198400071Y-71509059D02*
X198495310Y-71413821D01*
X198495310Y-71413821D02*
X198542929Y-71270964D01*
X198542929Y-71270964D02*
X198542929Y-71032869D01*
X198542929Y-72556678D02*
X198542929Y-71985250D01*
X198542929Y-72270964D02*
X197542929Y-72270964D01*
X197542929Y-72270964D02*
X197685786Y-72175726D01*
X197685786Y-72175726D02*
X197781024Y-72080488D01*
X197781024Y-72080488D02*
X197828643Y-71985250D01*
X197542929Y-73175726D02*
X197542929Y-73270964D01*
X197542929Y-73270964D02*
X197590548Y-73366202D01*
X197590548Y-73366202D02*
X197638167Y-73413821D01*
X197638167Y-73413821D02*
X197733405Y-73461440D01*
X197733405Y-73461440D02*
X197923881Y-73509059D01*
X197923881Y-73509059D02*
X198161976Y-73509059D01*
X198161976Y-73509059D02*
X198352452Y-73461440D01*
X198352452Y-73461440D02*
X198447690Y-73413821D01*
X198447690Y-73413821D02*
X198495310Y-73366202D01*
X198495310Y-73366202D02*
X198542929Y-73270964D01*
X198542929Y-73270964D02*
X198542929Y-73175726D01*
X198542929Y-73175726D02*
X198495310Y-73080488D01*
X198495310Y-73080488D02*
X198447690Y-73032869D01*
X198447690Y-73032869D02*
X198352452Y-72985250D01*
X198352452Y-72985250D02*
X198161976Y-72937631D01*
X198161976Y-72937631D02*
X197923881Y-72937631D01*
X197923881Y-72937631D02*
X197733405Y-72985250D01*
X197733405Y-72985250D02*
X197638167Y-73032869D01*
X197638167Y-73032869D02*
X197590548Y-73080488D01*
X197590548Y-73080488D02*
X197542929Y-73175726D01*
X122342929Y-52459060D02*
X121342929Y-52459060D01*
X121342929Y-52459060D02*
X121342929Y-52697155D01*
X121342929Y-52697155D02*
X121390548Y-52840012D01*
X121390548Y-52840012D02*
X121485786Y-52935250D01*
X121485786Y-52935250D02*
X121581024Y-52982869D01*
X121581024Y-52982869D02*
X121771500Y-53030488D01*
X121771500Y-53030488D02*
X121914357Y-53030488D01*
X121914357Y-53030488D02*
X122104833Y-52982869D01*
X122104833Y-52982869D02*
X122200071Y-52935250D01*
X122200071Y-52935250D02*
X122295310Y-52840012D01*
X122295310Y-52840012D02*
X122342929Y-52697155D01*
X122342929Y-52697155D02*
X122342929Y-52459060D01*
X121342929Y-53363822D02*
X121342929Y-53982869D01*
X121342929Y-53982869D02*
X121723881Y-53649536D01*
X121723881Y-53649536D02*
X121723881Y-53792393D01*
X121723881Y-53792393D02*
X121771500Y-53887631D01*
X121771500Y-53887631D02*
X121819119Y-53935250D01*
X121819119Y-53935250D02*
X121914357Y-53982869D01*
X121914357Y-53982869D02*
X122152452Y-53982869D01*
X122152452Y-53982869D02*
X122247690Y-53935250D01*
X122247690Y-53935250D02*
X122295310Y-53887631D01*
X122295310Y-53887631D02*
X122342929Y-53792393D01*
X122342929Y-53792393D02*
X122342929Y-53506679D01*
X122342929Y-53506679D02*
X122295310Y-53411441D01*
X122295310Y-53411441D02*
X122247690Y-53363822D01*
X58586559Y-39657839D02*
X58253226Y-39657839D01*
X58110369Y-40181649D02*
X58586559Y-40181649D01*
X58586559Y-40181649D02*
X58586559Y-39181649D01*
X58586559Y-39181649D02*
X58110369Y-39181649D01*
X57777035Y-39181649D02*
X57110369Y-40181649D01*
X57110369Y-39181649D02*
X57777035Y-40181649D01*
X56872273Y-39181649D02*
X56300845Y-39181649D01*
X56586559Y-40181649D02*
X56586559Y-39181649D01*
X56205607Y-40276887D02*
X55443702Y-40276887D01*
X55205606Y-40181649D02*
X55205606Y-39181649D01*
X55205606Y-39181649D02*
X54872273Y-39895934D01*
X54872273Y-39895934D02*
X54538940Y-39181649D01*
X54538940Y-39181649D02*
X54538940Y-40181649D01*
X53491321Y-40181649D02*
X53824654Y-39705458D01*
X54062749Y-40181649D02*
X54062749Y-39181649D01*
X54062749Y-39181649D02*
X53681797Y-39181649D01*
X53681797Y-39181649D02*
X53586559Y-39229268D01*
X53586559Y-39229268D02*
X53538940Y-39276887D01*
X53538940Y-39276887D02*
X53491321Y-39372125D01*
X53491321Y-39372125D02*
X53491321Y-39514982D01*
X53491321Y-39514982D02*
X53538940Y-39610220D01*
X53538940Y-39610220D02*
X53586559Y-39657839D01*
X53586559Y-39657839D02*
X53681797Y-39705458D01*
X53681797Y-39705458D02*
X54062749Y-39705458D01*
X52634178Y-39181649D02*
X52824654Y-39181649D01*
X52824654Y-39181649D02*
X52919892Y-39229268D01*
X52919892Y-39229268D02*
X52967511Y-39276887D01*
X52967511Y-39276887D02*
X53062749Y-39419744D01*
X53062749Y-39419744D02*
X53110368Y-39610220D01*
X53110368Y-39610220D02*
X53110368Y-39991172D01*
X53110368Y-39991172D02*
X53062749Y-40086410D01*
X53062749Y-40086410D02*
X53015130Y-40134030D01*
X53015130Y-40134030D02*
X52919892Y-40181649D01*
X52919892Y-40181649D02*
X52729416Y-40181649D01*
X52729416Y-40181649D02*
X52634178Y-40134030D01*
X52634178Y-40134030D02*
X52586559Y-40086410D01*
X52586559Y-40086410D02*
X52538940Y-39991172D01*
X52538940Y-39991172D02*
X52538940Y-39753077D01*
X52538940Y-39753077D02*
X52586559Y-39657839D01*
X52586559Y-39657839D02*
X52634178Y-39610220D01*
X52634178Y-39610220D02*
X52729416Y-39562601D01*
X52729416Y-39562601D02*
X52919892Y-39562601D01*
X52919892Y-39562601D02*
X53015130Y-39610220D01*
X53015130Y-39610220D02*
X53062749Y-39657839D01*
X53062749Y-39657839D02*
X53110368Y-39753077D01*
X144964804Y-72509185D02*
X143964804Y-72509185D01*
X143964804Y-72509185D02*
X143964804Y-72747280D01*
X143964804Y-72747280D02*
X144012423Y-72890137D01*
X144012423Y-72890137D02*
X144107661Y-72985375D01*
X144107661Y-72985375D02*
X144202899Y-73032994D01*
X144202899Y-73032994D02*
X144393375Y-73080613D01*
X144393375Y-73080613D02*
X144536232Y-73080613D01*
X144536232Y-73080613D02*
X144726708Y-73032994D01*
X144726708Y-73032994D02*
X144821946Y-72985375D01*
X144821946Y-72985375D02*
X144917185Y-72890137D01*
X144917185Y-72890137D02*
X144964804Y-72747280D01*
X144964804Y-72747280D02*
X144964804Y-72509185D01*
X143964804Y-73413947D02*
X143964804Y-74080613D01*
X143964804Y-74080613D02*
X144964804Y-73652042D01*
X146121529Y-56041024D02*
X146121529Y-55041024D01*
X146121529Y-55517214D02*
X145550101Y-55517214D01*
X145550101Y-56041024D02*
X145550101Y-55041024D01*
X144550101Y-56041024D02*
X145121529Y-56041024D01*
X144835815Y-56041024D02*
X144835815Y-55041024D01*
X144835815Y-55041024D02*
X144931053Y-55183881D01*
X144931053Y-55183881D02*
X145026291Y-55279119D01*
X145026291Y-55279119D02*
X145121529Y-55326738D01*
X143978672Y-55469595D02*
X144073910Y-55421976D01*
X144073910Y-55421976D02*
X144121529Y-55374357D01*
X144121529Y-55374357D02*
X144169148Y-55279119D01*
X144169148Y-55279119D02*
X144169148Y-55231500D01*
X144169148Y-55231500D02*
X144121529Y-55136262D01*
X144121529Y-55136262D02*
X144073910Y-55088643D01*
X144073910Y-55088643D02*
X143978672Y-55041024D01*
X143978672Y-55041024D02*
X143788196Y-55041024D01*
X143788196Y-55041024D02*
X143692958Y-55088643D01*
X143692958Y-55088643D02*
X143645339Y-55136262D01*
X143645339Y-55136262D02*
X143597720Y-55231500D01*
X143597720Y-55231500D02*
X143597720Y-55279119D01*
X143597720Y-55279119D02*
X143645339Y-55374357D01*
X143645339Y-55374357D02*
X143692958Y-55421976D01*
X143692958Y-55421976D02*
X143788196Y-55469595D01*
X143788196Y-55469595D02*
X143978672Y-55469595D01*
X143978672Y-55469595D02*
X144073910Y-55517214D01*
X144073910Y-55517214D02*
X144121529Y-55564833D01*
X144121529Y-55564833D02*
X144169148Y-55660071D01*
X144169148Y-55660071D02*
X144169148Y-55850547D01*
X144169148Y-55850547D02*
X144121529Y-55945785D01*
X144121529Y-55945785D02*
X144073910Y-55993405D01*
X144073910Y-55993405D02*
X143978672Y-56041024D01*
X143978672Y-56041024D02*
X143788196Y-56041024D01*
X143788196Y-56041024D02*
X143692958Y-55993405D01*
X143692958Y-55993405D02*
X143645339Y-55945785D01*
X143645339Y-55945785D02*
X143597720Y-55850547D01*
X143597720Y-55850547D02*
X143597720Y-55660071D01*
X143597720Y-55660071D02*
X143645339Y-55564833D01*
X143645339Y-55564833D02*
X143692958Y-55517214D01*
X143692958Y-55517214D02*
X143788196Y-55469595D01*
X41346529Y-32228524D02*
X41346529Y-31228524D01*
X41346529Y-31704714D02*
X40775101Y-31704714D01*
X40775101Y-32228524D02*
X40775101Y-31228524D01*
X39775101Y-32228524D02*
X40346529Y-32228524D01*
X40060815Y-32228524D02*
X40060815Y-31228524D01*
X40060815Y-31228524D02*
X40156053Y-31371381D01*
X40156053Y-31371381D02*
X40251291Y-31466619D01*
X40251291Y-31466619D02*
X40346529Y-31514238D01*
X38917958Y-31561857D02*
X38917958Y-32228524D01*
X39156053Y-31180905D02*
X39394148Y-31895190D01*
X39394148Y-31895190D02*
X38775101Y-31895190D01*
X156871054Y-76985994D02*
X155871054Y-76985994D01*
X155871054Y-76985994D02*
X155871054Y-77224089D01*
X155871054Y-77224089D02*
X155918673Y-77366946D01*
X155918673Y-77366946D02*
X156013911Y-77462184D01*
X156013911Y-77462184D02*
X156109149Y-77509803D01*
X156109149Y-77509803D02*
X156299625Y-77557422D01*
X156299625Y-77557422D02*
X156442482Y-77557422D01*
X156442482Y-77557422D02*
X156632958Y-77509803D01*
X156632958Y-77509803D02*
X156728196Y-77462184D01*
X156728196Y-77462184D02*
X156823435Y-77366946D01*
X156823435Y-77366946D02*
X156871054Y-77224089D01*
X156871054Y-77224089D02*
X156871054Y-76985994D01*
X156871054Y-78509803D02*
X156871054Y-77938375D01*
X156871054Y-78224089D02*
X155871054Y-78224089D01*
X155871054Y-78224089D02*
X156013911Y-78128851D01*
X156013911Y-78128851D02*
X156109149Y-78033613D01*
X156109149Y-78033613D02*
X156156768Y-77938375D01*
X156871054Y-79462184D02*
X156871054Y-78890756D01*
X156871054Y-79176470D02*
X155871054Y-79176470D01*
X155871054Y-79176470D02*
X156013911Y-79081232D01*
X156013911Y-79081232D02*
X156109149Y-78985994D01*
X156109149Y-78985994D02*
X156156768Y-78890756D01*
X108592809Y-22560964D02*
X108259476Y-22560964D01*
X108116619Y-23084774D02*
X108592809Y-23084774D01*
X108592809Y-23084774D02*
X108592809Y-22084774D01*
X108592809Y-22084774D02*
X108116619Y-22084774D01*
X107783285Y-22084774D02*
X107116619Y-23084774D01*
X107116619Y-22084774D02*
X107783285Y-23084774D01*
X106878523Y-22084774D02*
X106307095Y-22084774D01*
X106592809Y-23084774D02*
X106592809Y-22084774D01*
X106211857Y-23180012D02*
X105449952Y-23180012D01*
X105211856Y-23084774D02*
X105211856Y-22084774D01*
X105211856Y-22084774D02*
X104878523Y-22799059D01*
X104878523Y-22799059D02*
X104545190Y-22084774D01*
X104545190Y-22084774D02*
X104545190Y-23084774D01*
X103497571Y-22989535D02*
X103545190Y-23037155D01*
X103545190Y-23037155D02*
X103688047Y-23084774D01*
X103688047Y-23084774D02*
X103783285Y-23084774D01*
X103783285Y-23084774D02*
X103926142Y-23037155D01*
X103926142Y-23037155D02*
X104021380Y-22941916D01*
X104021380Y-22941916D02*
X104068999Y-22846678D01*
X104068999Y-22846678D02*
X104116618Y-22656202D01*
X104116618Y-22656202D02*
X104116618Y-22513345D01*
X104116618Y-22513345D02*
X104068999Y-22322869D01*
X104068999Y-22322869D02*
X104021380Y-22227631D01*
X104021380Y-22227631D02*
X103926142Y-22132393D01*
X103926142Y-22132393D02*
X103783285Y-22084774D01*
X103783285Y-22084774D02*
X103688047Y-22084774D01*
X103688047Y-22084774D02*
X103545190Y-22132393D01*
X103545190Y-22132393D02*
X103497571Y-22180012D01*
X103116618Y-22180012D02*
X103068999Y-22132393D01*
X103068999Y-22132393D02*
X102973761Y-22084774D01*
X102973761Y-22084774D02*
X102735666Y-22084774D01*
X102735666Y-22084774D02*
X102640428Y-22132393D01*
X102640428Y-22132393D02*
X102592809Y-22180012D01*
X102592809Y-22180012D02*
X102545190Y-22275250D01*
X102545190Y-22275250D02*
X102545190Y-22370488D01*
X102545190Y-22370488D02*
X102592809Y-22513345D01*
X102592809Y-22513345D02*
X103164237Y-23084774D01*
X103164237Y-23084774D02*
X102545190Y-23084774D01*
X136596529Y-24596149D02*
X136596529Y-23596149D01*
X136596529Y-24072339D02*
X136025101Y-24072339D01*
X136025101Y-24596149D02*
X136025101Y-23596149D01*
X135025101Y-24596149D02*
X135596529Y-24596149D01*
X135310815Y-24596149D02*
X135310815Y-23596149D01*
X135310815Y-23596149D02*
X135406053Y-23739006D01*
X135406053Y-23739006D02*
X135501291Y-23834244D01*
X135501291Y-23834244D02*
X135596529Y-23881863D01*
X134644148Y-23691387D02*
X134596529Y-23643768D01*
X134596529Y-23643768D02*
X134501291Y-23596149D01*
X134501291Y-23596149D02*
X134263196Y-23596149D01*
X134263196Y-23596149D02*
X134167958Y-23643768D01*
X134167958Y-23643768D02*
X134120339Y-23691387D01*
X134120339Y-23691387D02*
X134072720Y-23786625D01*
X134072720Y-23786625D02*
X134072720Y-23881863D01*
X134072720Y-23881863D02*
X134120339Y-24024720D01*
X134120339Y-24024720D02*
X134691767Y-24596149D01*
X134691767Y-24596149D02*
X134072720Y-24596149D01*
X55014684Y-35657839D02*
X54681351Y-35657839D01*
X54538494Y-36181649D02*
X55014684Y-36181649D01*
X55014684Y-36181649D02*
X55014684Y-35181649D01*
X55014684Y-35181649D02*
X54538494Y-35181649D01*
X54205160Y-35181649D02*
X53538494Y-36181649D01*
X53538494Y-35181649D02*
X54205160Y-36181649D01*
X53300398Y-35181649D02*
X52728970Y-35181649D01*
X53014684Y-36181649D02*
X53014684Y-35181649D01*
X52633732Y-36276887D02*
X51871827Y-36276887D01*
X51633731Y-36181649D02*
X51633731Y-35181649D01*
X51633731Y-35181649D02*
X51300398Y-35895934D01*
X51300398Y-35895934D02*
X50967065Y-35181649D01*
X50967065Y-35181649D02*
X50967065Y-36181649D01*
X49919446Y-36181649D02*
X50252779Y-35705458D01*
X50490874Y-36181649D02*
X50490874Y-35181649D01*
X50490874Y-35181649D02*
X50109922Y-35181649D01*
X50109922Y-35181649D02*
X50014684Y-35229268D01*
X50014684Y-35229268D02*
X49967065Y-35276887D01*
X49967065Y-35276887D02*
X49919446Y-35372125D01*
X49919446Y-35372125D02*
X49919446Y-35514982D01*
X49919446Y-35514982D02*
X49967065Y-35610220D01*
X49967065Y-35610220D02*
X50014684Y-35657839D01*
X50014684Y-35657839D02*
X50109922Y-35705458D01*
X50109922Y-35705458D02*
X50490874Y-35705458D01*
X48967065Y-36181649D02*
X49538493Y-36181649D01*
X49252779Y-36181649D02*
X49252779Y-35181649D01*
X49252779Y-35181649D02*
X49348017Y-35324506D01*
X49348017Y-35324506D02*
X49443255Y-35419744D01*
X49443255Y-35419744D02*
X49538493Y-35467363D01*
X221702184Y-26560964D02*
X221368851Y-26560964D01*
X221225994Y-27084774D02*
X221702184Y-27084774D01*
X221702184Y-27084774D02*
X221702184Y-26084774D01*
X221702184Y-26084774D02*
X221225994Y-26084774D01*
X220892660Y-26084774D02*
X220225994Y-27084774D01*
X220225994Y-26084774D02*
X220892660Y-27084774D01*
X219987898Y-26084774D02*
X219416470Y-26084774D01*
X219702184Y-27084774D02*
X219702184Y-26084774D01*
X219321232Y-27180012D02*
X218559327Y-27180012D01*
X218321231Y-27084774D02*
X218321231Y-26084774D01*
X218321231Y-26084774D02*
X217987898Y-26799059D01*
X217987898Y-26799059D02*
X217654565Y-26084774D01*
X217654565Y-26084774D02*
X217654565Y-27084774D01*
X216606946Y-26989535D02*
X216654565Y-27037155D01*
X216654565Y-27037155D02*
X216797422Y-27084774D01*
X216797422Y-27084774D02*
X216892660Y-27084774D01*
X216892660Y-27084774D02*
X217035517Y-27037155D01*
X217035517Y-27037155D02*
X217130755Y-26941916D01*
X217130755Y-26941916D02*
X217178374Y-26846678D01*
X217178374Y-26846678D02*
X217225993Y-26656202D01*
X217225993Y-26656202D02*
X217225993Y-26513345D01*
X217225993Y-26513345D02*
X217178374Y-26322869D01*
X217178374Y-26322869D02*
X217130755Y-26227631D01*
X217130755Y-26227631D02*
X217035517Y-26132393D01*
X217035517Y-26132393D02*
X216892660Y-26084774D01*
X216892660Y-26084774D02*
X216797422Y-26084774D01*
X216797422Y-26084774D02*
X216654565Y-26132393D01*
X216654565Y-26132393D02*
X216606946Y-26180012D01*
X215749803Y-26418107D02*
X215749803Y-27084774D01*
X215987898Y-26037155D02*
X216225993Y-26751440D01*
X216225993Y-26751440D02*
X215606946Y-26751440D01*
X274742929Y-52459060D02*
X273742929Y-52459060D01*
X273742929Y-52459060D02*
X273742929Y-52697155D01*
X273742929Y-52697155D02*
X273790548Y-52840012D01*
X273790548Y-52840012D02*
X273885786Y-52935250D01*
X273885786Y-52935250D02*
X273981024Y-52982869D01*
X273981024Y-52982869D02*
X274171500Y-53030488D01*
X274171500Y-53030488D02*
X274314357Y-53030488D01*
X274314357Y-53030488D02*
X274504833Y-52982869D01*
X274504833Y-52982869D02*
X274600071Y-52935250D01*
X274600071Y-52935250D02*
X274695310Y-52840012D01*
X274695310Y-52840012D02*
X274742929Y-52697155D01*
X274742929Y-52697155D02*
X274742929Y-52459060D01*
X273742929Y-53935250D02*
X273742929Y-53459060D01*
X273742929Y-53459060D02*
X274219119Y-53411441D01*
X274219119Y-53411441D02*
X274171500Y-53459060D01*
X274171500Y-53459060D02*
X274123881Y-53554298D01*
X274123881Y-53554298D02*
X274123881Y-53792393D01*
X274123881Y-53792393D02*
X274171500Y-53887631D01*
X274171500Y-53887631D02*
X274219119Y-53935250D01*
X274219119Y-53935250D02*
X274314357Y-53982869D01*
X274314357Y-53982869D02*
X274552452Y-53982869D01*
X274552452Y-53982869D02*
X274647690Y-53935250D01*
X274647690Y-53935250D02*
X274695310Y-53887631D01*
X274695310Y-53887631D02*
X274742929Y-53792393D01*
X274742929Y-53792393D02*
X274742929Y-53554298D01*
X274742929Y-53554298D02*
X274695310Y-53459060D01*
X274695310Y-53459060D02*
X274647690Y-53411441D01*
X98496529Y-32228524D02*
X98496529Y-31228524D01*
X98496529Y-31704714D02*
X97925101Y-31704714D01*
X97925101Y-32228524D02*
X97925101Y-31228524D01*
X96925101Y-32228524D02*
X97496529Y-32228524D01*
X97210815Y-32228524D02*
X97210815Y-31228524D01*
X97210815Y-31228524D02*
X97306053Y-31371381D01*
X97306053Y-31371381D02*
X97401291Y-31466619D01*
X97401291Y-31466619D02*
X97496529Y-31514238D01*
X96020339Y-31228524D02*
X96496529Y-31228524D01*
X96496529Y-31228524D02*
X96544148Y-31704714D01*
X96544148Y-31704714D02*
X96496529Y-31657095D01*
X96496529Y-31657095D02*
X96401291Y-31609476D01*
X96401291Y-31609476D02*
X96163196Y-31609476D01*
X96163196Y-31609476D02*
X96067958Y-31657095D01*
X96067958Y-31657095D02*
X96020339Y-31704714D01*
X96020339Y-31704714D02*
X95972720Y-31799952D01*
X95972720Y-31799952D02*
X95972720Y-32038047D01*
X95972720Y-32038047D02*
X96020339Y-32133285D01*
X96020339Y-32133285D02*
X96067958Y-32180905D01*
X96067958Y-32180905D02*
X96163196Y-32228524D01*
X96163196Y-32228524D02*
X96401291Y-32228524D01*
X96401291Y-32228524D02*
X96496529Y-32180905D01*
X96496529Y-32180905D02*
X96544148Y-32133285D01*
X184221529Y-56041024D02*
X184221529Y-55041024D01*
X184221529Y-55517214D02*
X183650101Y-55517214D01*
X183650101Y-56041024D02*
X183650101Y-55041024D01*
X182650101Y-56041024D02*
X183221529Y-56041024D01*
X182935815Y-56041024D02*
X182935815Y-55041024D01*
X182935815Y-55041024D02*
X183031053Y-55183881D01*
X183031053Y-55183881D02*
X183126291Y-55279119D01*
X183126291Y-55279119D02*
X183221529Y-55326738D01*
X182173910Y-56041024D02*
X181983434Y-56041024D01*
X181983434Y-56041024D02*
X181888196Y-55993405D01*
X181888196Y-55993405D02*
X181840577Y-55945785D01*
X181840577Y-55945785D02*
X181745339Y-55802928D01*
X181745339Y-55802928D02*
X181697720Y-55612452D01*
X181697720Y-55612452D02*
X181697720Y-55231500D01*
X181697720Y-55231500D02*
X181745339Y-55136262D01*
X181745339Y-55136262D02*
X181792958Y-55088643D01*
X181792958Y-55088643D02*
X181888196Y-55041024D01*
X181888196Y-55041024D02*
X182078672Y-55041024D01*
X182078672Y-55041024D02*
X182173910Y-55088643D01*
X182173910Y-55088643D02*
X182221529Y-55136262D01*
X182221529Y-55136262D02*
X182269148Y-55231500D01*
X182269148Y-55231500D02*
X182269148Y-55469595D01*
X182269148Y-55469595D02*
X182221529Y-55564833D01*
X182221529Y-55564833D02*
X182173910Y-55612452D01*
X182173910Y-55612452D02*
X182078672Y-55660071D01*
X182078672Y-55660071D02*
X181888196Y-55660071D01*
X181888196Y-55660071D02*
X181792958Y-55612452D01*
X181792958Y-55612452D02*
X181745339Y-55564833D01*
X181745339Y-55564833D02*
X181697720Y-55469595D01*
X127677304Y-46910696D02*
X128391589Y-46910696D01*
X128391589Y-46910696D02*
X128534446Y-46863077D01*
X128534446Y-46863077D02*
X128629685Y-46767839D01*
X128629685Y-46767839D02*
X128677304Y-46624982D01*
X128677304Y-46624982D02*
X128677304Y-46529744D01*
X127677304Y-47291649D02*
X127677304Y-47910696D01*
X127677304Y-47910696D02*
X128058256Y-47577363D01*
X128058256Y-47577363D02*
X128058256Y-47720220D01*
X128058256Y-47720220D02*
X128105875Y-47815458D01*
X128105875Y-47815458D02*
X128153494Y-47863077D01*
X128153494Y-47863077D02*
X128248732Y-47910696D01*
X128248732Y-47910696D02*
X128486827Y-47910696D01*
X128486827Y-47910696D02*
X128582065Y-47863077D01*
X128582065Y-47863077D02*
X128629685Y-47815458D01*
X128629685Y-47815458D02*
X128677304Y-47720220D01*
X128677304Y-47720220D02*
X128677304Y-47434506D01*
X128677304Y-47434506D02*
X128629685Y-47339268D01*
X128629685Y-47339268D02*
X128582065Y-47291649D01*
X231846529Y-32228524D02*
X231846529Y-31228524D01*
X231846529Y-31704714D02*
X231275101Y-31704714D01*
X231275101Y-32228524D02*
X231275101Y-31228524D01*
X230275101Y-32228524D02*
X230846529Y-32228524D01*
X230560815Y-32228524D02*
X230560815Y-31228524D01*
X230560815Y-31228524D02*
X230656053Y-31371381D01*
X230656053Y-31371381D02*
X230751291Y-31466619D01*
X230751291Y-31466619D02*
X230846529Y-31514238D01*
X229417958Y-31228524D02*
X229608434Y-31228524D01*
X229608434Y-31228524D02*
X229703672Y-31276143D01*
X229703672Y-31276143D02*
X229751291Y-31323762D01*
X229751291Y-31323762D02*
X229846529Y-31466619D01*
X229846529Y-31466619D02*
X229894148Y-31657095D01*
X229894148Y-31657095D02*
X229894148Y-32038047D01*
X229894148Y-32038047D02*
X229846529Y-32133285D01*
X229846529Y-32133285D02*
X229798910Y-32180905D01*
X229798910Y-32180905D02*
X229703672Y-32228524D01*
X229703672Y-32228524D02*
X229513196Y-32228524D01*
X229513196Y-32228524D02*
X229417958Y-32180905D01*
X229417958Y-32180905D02*
X229370339Y-32133285D01*
X229370339Y-32133285D02*
X229322720Y-32038047D01*
X229322720Y-32038047D02*
X229322720Y-31799952D01*
X229322720Y-31799952D02*
X229370339Y-31704714D01*
X229370339Y-31704714D02*
X229417958Y-31657095D01*
X229417958Y-31657095D02*
X229513196Y-31609476D01*
X229513196Y-31609476D02*
X229703672Y-31609476D01*
X229703672Y-31609476D02*
X229798910Y-31657095D01*
X229798910Y-31657095D02*
X229846529Y-31704714D01*
X229846529Y-31704714D02*
X229894148Y-31799952D01*
X160442929Y-71492185D02*
X159442929Y-71492185D01*
X159442929Y-71492185D02*
X159442929Y-71730280D01*
X159442929Y-71730280D02*
X159490548Y-71873137D01*
X159490548Y-71873137D02*
X159585786Y-71968375D01*
X159585786Y-71968375D02*
X159681024Y-72015994D01*
X159681024Y-72015994D02*
X159871500Y-72063613D01*
X159871500Y-72063613D02*
X160014357Y-72063613D01*
X160014357Y-72063613D02*
X160204833Y-72015994D01*
X160204833Y-72015994D02*
X160300071Y-71968375D01*
X160300071Y-71968375D02*
X160395310Y-71873137D01*
X160395310Y-71873137D02*
X160442929Y-71730280D01*
X160442929Y-71730280D02*
X160442929Y-71492185D01*
X159871500Y-72635042D02*
X159823881Y-72539804D01*
X159823881Y-72539804D02*
X159776262Y-72492185D01*
X159776262Y-72492185D02*
X159681024Y-72444566D01*
X159681024Y-72444566D02*
X159633405Y-72444566D01*
X159633405Y-72444566D02*
X159538167Y-72492185D01*
X159538167Y-72492185D02*
X159490548Y-72539804D01*
X159490548Y-72539804D02*
X159442929Y-72635042D01*
X159442929Y-72635042D02*
X159442929Y-72825518D01*
X159442929Y-72825518D02*
X159490548Y-72920756D01*
X159490548Y-72920756D02*
X159538167Y-72968375D01*
X159538167Y-72968375D02*
X159633405Y-73015994D01*
X159633405Y-73015994D02*
X159681024Y-73015994D01*
X159681024Y-73015994D02*
X159776262Y-72968375D01*
X159776262Y-72968375D02*
X159823881Y-72920756D01*
X159823881Y-72920756D02*
X159871500Y-72825518D01*
X159871500Y-72825518D02*
X159871500Y-72635042D01*
X159871500Y-72635042D02*
X159919119Y-72539804D01*
X159919119Y-72539804D02*
X159966738Y-72492185D01*
X159966738Y-72492185D02*
X160061976Y-72444566D01*
X160061976Y-72444566D02*
X160252452Y-72444566D01*
X160252452Y-72444566D02*
X160347690Y-72492185D01*
X160347690Y-72492185D02*
X160395310Y-72539804D01*
X160395310Y-72539804D02*
X160442929Y-72635042D01*
X160442929Y-72635042D02*
X160442929Y-72825518D01*
X160442929Y-72825518D02*
X160395310Y-72920756D01*
X160395310Y-72920756D02*
X160347690Y-72968375D01*
X160347690Y-72968375D02*
X160252452Y-73015994D01*
X160252452Y-73015994D02*
X160061976Y-73015994D01*
X160061976Y-73015994D02*
X159966738Y-72968375D01*
X159966738Y-72968375D02*
X159919119Y-72920756D01*
X159919119Y-72920756D02*
X159871500Y-72825518D01*
X199114804Y-36195071D02*
X199829089Y-36195071D01*
X199829089Y-36195071D02*
X199971946Y-36147452D01*
X199971946Y-36147452D02*
X200067185Y-36052214D01*
X200067185Y-36052214D02*
X200114804Y-35909357D01*
X200114804Y-35909357D02*
X200114804Y-35814119D01*
X200114804Y-37195071D02*
X200114804Y-36623643D01*
X200114804Y-36909357D02*
X199114804Y-36909357D01*
X199114804Y-36909357D02*
X199257661Y-36814119D01*
X199257661Y-36814119D02*
X199352899Y-36718881D01*
X199352899Y-36718881D02*
X199400518Y-36623643D01*
X189555309Y-22549214D02*
X189221976Y-22549214D01*
X189079119Y-23073024D02*
X189555309Y-23073024D01*
X189555309Y-23073024D02*
X189555309Y-22073024D01*
X189555309Y-22073024D02*
X189079119Y-22073024D01*
X188745785Y-22073024D02*
X188079119Y-23073024D01*
X188079119Y-22073024D02*
X188745785Y-23073024D01*
X187841023Y-22073024D02*
X187269595Y-22073024D01*
X187555309Y-23073024D02*
X187555309Y-22073024D01*
X187174357Y-23168262D02*
X186412452Y-23168262D01*
X186174356Y-23073024D02*
X186174356Y-22073024D01*
X186174356Y-22073024D02*
X185841023Y-22787309D01*
X185841023Y-22787309D02*
X185507690Y-22073024D01*
X185507690Y-22073024D02*
X185507690Y-23073024D01*
X184460071Y-23073024D02*
X184793404Y-22596833D01*
X185031499Y-23073024D02*
X185031499Y-22073024D01*
X185031499Y-22073024D02*
X184650547Y-22073024D01*
X184650547Y-22073024D02*
X184555309Y-22120643D01*
X184555309Y-22120643D02*
X184507690Y-22168262D01*
X184507690Y-22168262D02*
X184460071Y-22263500D01*
X184460071Y-22263500D02*
X184460071Y-22406357D01*
X184460071Y-22406357D02*
X184507690Y-22501595D01*
X184507690Y-22501595D02*
X184555309Y-22549214D01*
X184555309Y-22549214D02*
X184650547Y-22596833D01*
X184650547Y-22596833D02*
X185031499Y-22596833D01*
X184126737Y-22073024D02*
X183507690Y-22073024D01*
X183507690Y-22073024D02*
X183841023Y-22453976D01*
X183841023Y-22453976D02*
X183698166Y-22453976D01*
X183698166Y-22453976D02*
X183602928Y-22501595D01*
X183602928Y-22501595D02*
X183555309Y-22549214D01*
X183555309Y-22549214D02*
X183507690Y-22644452D01*
X183507690Y-22644452D02*
X183507690Y-22882547D01*
X183507690Y-22882547D02*
X183555309Y-22977785D01*
X183555309Y-22977785D02*
X183602928Y-23025405D01*
X183602928Y-23025405D02*
X183698166Y-23073024D01*
X183698166Y-23073024D02*
X183983880Y-23073024D01*
X183983880Y-23073024D02*
X184079118Y-23025405D01*
X184079118Y-23025405D02*
X184126737Y-22977785D01*
X207414684Y-22560964D02*
X207081351Y-22560964D01*
X206938494Y-23084774D02*
X207414684Y-23084774D01*
X207414684Y-23084774D02*
X207414684Y-22084774D01*
X207414684Y-22084774D02*
X206938494Y-22084774D01*
X206605160Y-22084774D02*
X205938494Y-23084774D01*
X205938494Y-22084774D02*
X206605160Y-23084774D01*
X205700398Y-22084774D02*
X205128970Y-22084774D01*
X205414684Y-23084774D02*
X205414684Y-22084774D01*
X205033732Y-23180012D02*
X204271827Y-23180012D01*
X204033731Y-23084774D02*
X204033731Y-22084774D01*
X204033731Y-22084774D02*
X203700398Y-22799059D01*
X203700398Y-22799059D02*
X203367065Y-22084774D01*
X203367065Y-22084774D02*
X203367065Y-23084774D01*
X202319446Y-23084774D02*
X202652779Y-22608583D01*
X202890874Y-23084774D02*
X202890874Y-22084774D01*
X202890874Y-22084774D02*
X202509922Y-22084774D01*
X202509922Y-22084774D02*
X202414684Y-22132393D01*
X202414684Y-22132393D02*
X202367065Y-22180012D01*
X202367065Y-22180012D02*
X202319446Y-22275250D01*
X202319446Y-22275250D02*
X202319446Y-22418107D01*
X202319446Y-22418107D02*
X202367065Y-22513345D01*
X202367065Y-22513345D02*
X202414684Y-22560964D01*
X202414684Y-22560964D02*
X202509922Y-22608583D01*
X202509922Y-22608583D02*
X202890874Y-22608583D01*
X201938493Y-22180012D02*
X201890874Y-22132393D01*
X201890874Y-22132393D02*
X201795636Y-22084774D01*
X201795636Y-22084774D02*
X201557541Y-22084774D01*
X201557541Y-22084774D02*
X201462303Y-22132393D01*
X201462303Y-22132393D02*
X201414684Y-22180012D01*
X201414684Y-22180012D02*
X201367065Y-22275250D01*
X201367065Y-22275250D02*
X201367065Y-22370488D01*
X201367065Y-22370488D02*
X201414684Y-22513345D01*
X201414684Y-22513345D02*
X201986112Y-23084774D01*
X201986112Y-23084774D02*
X201367065Y-23084774D01*
X228845934Y-26560964D02*
X228512601Y-26560964D01*
X228369744Y-27084774D02*
X228845934Y-27084774D01*
X228845934Y-27084774D02*
X228845934Y-26084774D01*
X228845934Y-26084774D02*
X228369744Y-26084774D01*
X228036410Y-26084774D02*
X227369744Y-27084774D01*
X227369744Y-26084774D02*
X228036410Y-27084774D01*
X227131648Y-26084774D02*
X226560220Y-26084774D01*
X226845934Y-27084774D02*
X226845934Y-26084774D01*
X226464982Y-27180012D02*
X225703077Y-27180012D01*
X225464981Y-27084774D02*
X225464981Y-26084774D01*
X225464981Y-26084774D02*
X225131648Y-26799059D01*
X225131648Y-26799059D02*
X224798315Y-26084774D01*
X224798315Y-26084774D02*
X224798315Y-27084774D01*
X223750696Y-26989535D02*
X223798315Y-27037155D01*
X223798315Y-27037155D02*
X223941172Y-27084774D01*
X223941172Y-27084774D02*
X224036410Y-27084774D01*
X224036410Y-27084774D02*
X224179267Y-27037155D01*
X224179267Y-27037155D02*
X224274505Y-26941916D01*
X224274505Y-26941916D02*
X224322124Y-26846678D01*
X224322124Y-26846678D02*
X224369743Y-26656202D01*
X224369743Y-26656202D02*
X224369743Y-26513345D01*
X224369743Y-26513345D02*
X224322124Y-26322869D01*
X224322124Y-26322869D02*
X224274505Y-26227631D01*
X224274505Y-26227631D02*
X224179267Y-26132393D01*
X224179267Y-26132393D02*
X224036410Y-26084774D01*
X224036410Y-26084774D02*
X223941172Y-26084774D01*
X223941172Y-26084774D02*
X223798315Y-26132393D01*
X223798315Y-26132393D02*
X223750696Y-26180012D01*
X223417362Y-26084774D02*
X222750696Y-26084774D01*
X222750696Y-26084774D02*
X223179267Y-27084774D01*
X65192929Y-52459060D02*
X64192929Y-52459060D01*
X64192929Y-52459060D02*
X64192929Y-52697155D01*
X64192929Y-52697155D02*
X64240548Y-52840012D01*
X64240548Y-52840012D02*
X64335786Y-52935250D01*
X64335786Y-52935250D02*
X64431024Y-52982869D01*
X64431024Y-52982869D02*
X64621500Y-53030488D01*
X64621500Y-53030488D02*
X64764357Y-53030488D01*
X64764357Y-53030488D02*
X64954833Y-52982869D01*
X64954833Y-52982869D02*
X65050071Y-52935250D01*
X65050071Y-52935250D02*
X65145310Y-52840012D01*
X65145310Y-52840012D02*
X65192929Y-52697155D01*
X65192929Y-52697155D02*
X65192929Y-52459060D01*
X64288167Y-53411441D02*
X64240548Y-53459060D01*
X64240548Y-53459060D02*
X64192929Y-53554298D01*
X64192929Y-53554298D02*
X64192929Y-53792393D01*
X64192929Y-53792393D02*
X64240548Y-53887631D01*
X64240548Y-53887631D02*
X64288167Y-53935250D01*
X64288167Y-53935250D02*
X64383405Y-53982869D01*
X64383405Y-53982869D02*
X64478643Y-53982869D01*
X64478643Y-53982869D02*
X64621500Y-53935250D01*
X64621500Y-53935250D02*
X65192929Y-53363822D01*
X65192929Y-53363822D02*
X65192929Y-53982869D01*
X179492929Y-72513185D02*
X178492929Y-72513185D01*
X178492929Y-72513185D02*
X178492929Y-72751280D01*
X178492929Y-72751280D02*
X178540548Y-72894137D01*
X178540548Y-72894137D02*
X178635786Y-72989375D01*
X178635786Y-72989375D02*
X178731024Y-73036994D01*
X178731024Y-73036994D02*
X178921500Y-73084613D01*
X178921500Y-73084613D02*
X179064357Y-73084613D01*
X179064357Y-73084613D02*
X179254833Y-73036994D01*
X179254833Y-73036994D02*
X179350071Y-72989375D01*
X179350071Y-72989375D02*
X179445310Y-72894137D01*
X179445310Y-72894137D02*
X179492929Y-72751280D01*
X179492929Y-72751280D02*
X179492929Y-72513185D01*
X179492929Y-73560804D02*
X179492929Y-73751280D01*
X179492929Y-73751280D02*
X179445310Y-73846518D01*
X179445310Y-73846518D02*
X179397690Y-73894137D01*
X179397690Y-73894137D02*
X179254833Y-73989375D01*
X179254833Y-73989375D02*
X179064357Y-74036994D01*
X179064357Y-74036994D02*
X178683405Y-74036994D01*
X178683405Y-74036994D02*
X178588167Y-73989375D01*
X178588167Y-73989375D02*
X178540548Y-73941756D01*
X178540548Y-73941756D02*
X178492929Y-73846518D01*
X178492929Y-73846518D02*
X178492929Y-73656042D01*
X178492929Y-73656042D02*
X178540548Y-73560804D01*
X178540548Y-73560804D02*
X178588167Y-73513185D01*
X178588167Y-73513185D02*
X178683405Y-73465566D01*
X178683405Y-73465566D02*
X178921500Y-73465566D01*
X178921500Y-73465566D02*
X179016738Y-73513185D01*
X179016738Y-73513185D02*
X179064357Y-73560804D01*
X179064357Y-73560804D02*
X179111976Y-73656042D01*
X179111976Y-73656042D02*
X179111976Y-73846518D01*
X179111976Y-73846518D02*
X179064357Y-73941756D01*
X179064357Y-73941756D02*
X179016738Y-73989375D01*
X179016738Y-73989375D02*
X178921500Y-74036994D01*
X112164684Y-26560964D02*
X111831351Y-26560964D01*
X111688494Y-27084774D02*
X112164684Y-27084774D01*
X112164684Y-27084774D02*
X112164684Y-26084774D01*
X112164684Y-26084774D02*
X111688494Y-26084774D01*
X111355160Y-26084774D02*
X110688494Y-27084774D01*
X110688494Y-26084774D02*
X111355160Y-27084774D01*
X110450398Y-26084774D02*
X109878970Y-26084774D01*
X110164684Y-27084774D02*
X110164684Y-26084774D01*
X109783732Y-27180012D02*
X109021827Y-27180012D01*
X108783731Y-27084774D02*
X108783731Y-26084774D01*
X108783731Y-26084774D02*
X108450398Y-26799059D01*
X108450398Y-26799059D02*
X108117065Y-26084774D01*
X108117065Y-26084774D02*
X108117065Y-27084774D01*
X107069446Y-26989535D02*
X107117065Y-27037155D01*
X107117065Y-27037155D02*
X107259922Y-27084774D01*
X107259922Y-27084774D02*
X107355160Y-27084774D01*
X107355160Y-27084774D02*
X107498017Y-27037155D01*
X107498017Y-27037155D02*
X107593255Y-26941916D01*
X107593255Y-26941916D02*
X107640874Y-26846678D01*
X107640874Y-26846678D02*
X107688493Y-26656202D01*
X107688493Y-26656202D02*
X107688493Y-26513345D01*
X107688493Y-26513345D02*
X107640874Y-26322869D01*
X107640874Y-26322869D02*
X107593255Y-26227631D01*
X107593255Y-26227631D02*
X107498017Y-26132393D01*
X107498017Y-26132393D02*
X107355160Y-26084774D01*
X107355160Y-26084774D02*
X107259922Y-26084774D01*
X107259922Y-26084774D02*
X107117065Y-26132393D01*
X107117065Y-26132393D02*
X107069446Y-26180012D01*
X106736112Y-26084774D02*
X106117065Y-26084774D01*
X106117065Y-26084774D02*
X106450398Y-26465726D01*
X106450398Y-26465726D02*
X106307541Y-26465726D01*
X106307541Y-26465726D02*
X106212303Y-26513345D01*
X106212303Y-26513345D02*
X106164684Y-26560964D01*
X106164684Y-26560964D02*
X106117065Y-26656202D01*
X106117065Y-26656202D02*
X106117065Y-26894297D01*
X106117065Y-26894297D02*
X106164684Y-26989535D01*
X106164684Y-26989535D02*
X106212303Y-27037155D01*
X106212303Y-27037155D02*
X106307541Y-27084774D01*
X106307541Y-27084774D02*
X106593255Y-27084774D01*
X106593255Y-27084774D02*
X106688493Y-27037155D01*
X106688493Y-27037155D02*
X106736112Y-26989535D01*
X203842809Y-26560964D02*
X203509476Y-26560964D01*
X203366619Y-27084774D02*
X203842809Y-27084774D01*
X203842809Y-27084774D02*
X203842809Y-26084774D01*
X203842809Y-26084774D02*
X203366619Y-26084774D01*
X203033285Y-26084774D02*
X202366619Y-27084774D01*
X202366619Y-26084774D02*
X203033285Y-27084774D01*
X202128523Y-26084774D02*
X201557095Y-26084774D01*
X201842809Y-27084774D02*
X201842809Y-26084774D01*
X201461857Y-27180012D02*
X200699952Y-27180012D01*
X200461856Y-27084774D02*
X200461856Y-26084774D01*
X200461856Y-26084774D02*
X200128523Y-26799059D01*
X200128523Y-26799059D02*
X199795190Y-26084774D01*
X199795190Y-26084774D02*
X199795190Y-27084774D01*
X198747571Y-27084774D02*
X199080904Y-26608583D01*
X199318999Y-27084774D02*
X199318999Y-26084774D01*
X199318999Y-26084774D02*
X198938047Y-26084774D01*
X198938047Y-26084774D02*
X198842809Y-26132393D01*
X198842809Y-26132393D02*
X198795190Y-26180012D01*
X198795190Y-26180012D02*
X198747571Y-26275250D01*
X198747571Y-26275250D02*
X198747571Y-26418107D01*
X198747571Y-26418107D02*
X198795190Y-26513345D01*
X198795190Y-26513345D02*
X198842809Y-26560964D01*
X198842809Y-26560964D02*
X198938047Y-26608583D01*
X198938047Y-26608583D02*
X199318999Y-26608583D01*
X198414237Y-26084774D02*
X197747571Y-26084774D01*
X197747571Y-26084774D02*
X198176142Y-27084774D01*
X288996529Y-32228524D02*
X288996529Y-31228524D01*
X288996529Y-31704714D02*
X288425101Y-31704714D01*
X288425101Y-32228524D02*
X288425101Y-31228524D01*
X287425101Y-32228524D02*
X287996529Y-32228524D01*
X287710815Y-32228524D02*
X287710815Y-31228524D01*
X287710815Y-31228524D02*
X287806053Y-31371381D01*
X287806053Y-31371381D02*
X287901291Y-31466619D01*
X287901291Y-31466619D02*
X287996529Y-31514238D01*
X287091767Y-31228524D02*
X286425101Y-31228524D01*
X286425101Y-31228524D02*
X286853672Y-32228524D01*
X225274059Y-22560964D02*
X224940726Y-22560964D01*
X224797869Y-23084774D02*
X225274059Y-23084774D01*
X225274059Y-23084774D02*
X225274059Y-22084774D01*
X225274059Y-22084774D02*
X224797869Y-22084774D01*
X224464535Y-22084774D02*
X223797869Y-23084774D01*
X223797869Y-22084774D02*
X224464535Y-23084774D01*
X223559773Y-22084774D02*
X222988345Y-22084774D01*
X223274059Y-23084774D02*
X223274059Y-22084774D01*
X222893107Y-23180012D02*
X222131202Y-23180012D01*
X221893106Y-23084774D02*
X221893106Y-22084774D01*
X221893106Y-22084774D02*
X221559773Y-22799059D01*
X221559773Y-22799059D02*
X221226440Y-22084774D01*
X221226440Y-22084774D02*
X221226440Y-23084774D01*
X220178821Y-22989535D02*
X220226440Y-23037155D01*
X220226440Y-23037155D02*
X220369297Y-23084774D01*
X220369297Y-23084774D02*
X220464535Y-23084774D01*
X220464535Y-23084774D02*
X220607392Y-23037155D01*
X220607392Y-23037155D02*
X220702630Y-22941916D01*
X220702630Y-22941916D02*
X220750249Y-22846678D01*
X220750249Y-22846678D02*
X220797868Y-22656202D01*
X220797868Y-22656202D02*
X220797868Y-22513345D01*
X220797868Y-22513345D02*
X220750249Y-22322869D01*
X220750249Y-22322869D02*
X220702630Y-22227631D01*
X220702630Y-22227631D02*
X220607392Y-22132393D01*
X220607392Y-22132393D02*
X220464535Y-22084774D01*
X220464535Y-22084774D02*
X220369297Y-22084774D01*
X220369297Y-22084774D02*
X220226440Y-22132393D01*
X220226440Y-22132393D02*
X220178821Y-22180012D01*
X219321678Y-22084774D02*
X219512154Y-22084774D01*
X219512154Y-22084774D02*
X219607392Y-22132393D01*
X219607392Y-22132393D02*
X219655011Y-22180012D01*
X219655011Y-22180012D02*
X219750249Y-22322869D01*
X219750249Y-22322869D02*
X219797868Y-22513345D01*
X219797868Y-22513345D02*
X219797868Y-22894297D01*
X219797868Y-22894297D02*
X219750249Y-22989535D01*
X219750249Y-22989535D02*
X219702630Y-23037155D01*
X219702630Y-23037155D02*
X219607392Y-23084774D01*
X219607392Y-23084774D02*
X219416916Y-23084774D01*
X219416916Y-23084774D02*
X219321678Y-23037155D01*
X219321678Y-23037155D02*
X219274059Y-22989535D01*
X219274059Y-22989535D02*
X219226440Y-22894297D01*
X219226440Y-22894297D02*
X219226440Y-22656202D01*
X219226440Y-22656202D02*
X219274059Y-22560964D01*
X219274059Y-22560964D02*
X219321678Y-22513345D01*
X219321678Y-22513345D02*
X219416916Y-22465726D01*
X219416916Y-22465726D02*
X219607392Y-22465726D01*
X219607392Y-22465726D02*
X219702630Y-22513345D01*
X219702630Y-22513345D02*
X219750249Y-22560964D01*
X219750249Y-22560964D02*
X219797868Y-22656202D01*
D11*
X197077185Y-50244030D02*
X197077185Y-44244030D01*
X201327185Y-50244030D02*
X197077185Y-50244030D01*
X201327185Y-50244030D02*
X201327185Y-44244030D01*
X201327185Y-49244030D02*
X200620078Y-48744030D01*
X200620078Y-48744030D02*
X201327185Y-48244030D01*
X201327185Y-44244030D02*
X197077185Y-44244030D01*
X38017810Y-54597155D02*
X39817810Y-54597155D01*
X39817810Y-54597155D02*
X39817810Y-51797155D01*
X38917810Y-53947155D02*
X38917810Y-53547155D01*
X38917810Y-53547155D02*
X38367810Y-53547155D01*
X38917810Y-53547155D02*
X39467810Y-53547155D01*
X38917810Y-53547155D02*
X39317810Y-52947155D01*
X38517810Y-52947155D02*
X38917810Y-53547155D01*
X38917810Y-52947155D02*
X38917810Y-52447155D01*
X39317810Y-52947155D02*
X38517810Y-52947155D01*
X38017810Y-51797155D02*
X38017810Y-54597155D01*
X39817810Y-51797155D02*
X38017810Y-51797155D01*
X214230310Y-54597155D02*
X216030310Y-54597155D01*
X216030310Y-54597155D02*
X216030310Y-51797155D01*
X215130310Y-53947155D02*
X215130310Y-53547155D01*
X215130310Y-53547155D02*
X214580310Y-53547155D01*
X215130310Y-53547155D02*
X215680310Y-53547155D01*
X215130310Y-53547155D02*
X215530310Y-52947155D01*
X214730310Y-52947155D02*
X215130310Y-53547155D01*
X215130310Y-52947155D02*
X215130310Y-52447155D01*
X215530310Y-52947155D02*
X214730310Y-52947155D01*
X214230310Y-51797155D02*
X214230310Y-54597155D01*
X216030310Y-51797155D02*
X214230310Y-51797155D01*
X274952185Y-54597155D02*
X276752185Y-54597155D01*
X276752185Y-54597155D02*
X276752185Y-51797155D01*
X275852185Y-53947155D02*
X275852185Y-53547155D01*
X275852185Y-53547155D02*
X275302185Y-53547155D01*
X275852185Y-53547155D02*
X276402185Y-53547155D01*
X275852185Y-53547155D02*
X276252185Y-52947155D01*
X275452185Y-52947155D02*
X275852185Y-53547155D01*
X275852185Y-52947155D02*
X275852185Y-52447155D01*
X276252185Y-52947155D02*
X275452185Y-52947155D01*
X274952185Y-51797155D02*
X274952185Y-54597155D01*
X276752185Y-51797155D02*
X274952185Y-51797155D01*
X173749060Y-79600280D02*
X175549060Y-79600280D01*
X175549060Y-79600280D02*
X175549060Y-76800280D01*
X174649060Y-78950280D02*
X174649060Y-78550280D01*
X174649060Y-78550280D02*
X174099060Y-78550280D01*
X174649060Y-78550280D02*
X175199060Y-78550280D01*
X174649060Y-78550280D02*
X175049060Y-77950280D01*
X174249060Y-77950280D02*
X174649060Y-78550280D01*
X174649060Y-77950280D02*
X174649060Y-77450280D01*
X175049060Y-77950280D02*
X174249060Y-77950280D01*
X173749060Y-76800280D02*
X173749060Y-79600280D01*
X175549060Y-76800280D02*
X173749060Y-76800280D01*
X155889685Y-80790905D02*
X157689685Y-80790905D01*
X157689685Y-80790905D02*
X157689685Y-77990905D01*
X156789685Y-80140905D02*
X156789685Y-79740905D01*
X156789685Y-79740905D02*
X156239685Y-79740905D01*
X156789685Y-79740905D02*
X157339685Y-79740905D01*
X156789685Y-79740905D02*
X157189685Y-79140905D01*
X156389685Y-79140905D02*
X156789685Y-79740905D01*
X156789685Y-79140905D02*
X156789685Y-78640905D01*
X157189685Y-79140905D02*
X156389685Y-79140905D01*
X155889685Y-77990905D02*
X155889685Y-80790905D01*
X157689685Y-77990905D02*
X155889685Y-77990905D01*
X195180310Y-73647155D02*
X196980310Y-73647155D01*
X196980310Y-73647155D02*
X196980310Y-70847155D01*
X196080310Y-72997155D02*
X196080310Y-72597155D01*
X196080310Y-72597155D02*
X195530310Y-72597155D01*
X196080310Y-72597155D02*
X196630310Y-72597155D01*
X196080310Y-72597155D02*
X196480310Y-71997155D01*
X195680310Y-71997155D02*
X196080310Y-72597155D01*
X196080310Y-71997155D02*
X196080310Y-71497155D01*
X196480310Y-71997155D02*
X195680310Y-71997155D01*
X195180310Y-70847155D02*
X195180310Y-73647155D01*
X196980310Y-70847155D02*
X195180310Y-70847155D01*
X118980310Y-54597155D02*
X120780310Y-54597155D01*
X120780310Y-54597155D02*
X120780310Y-51797155D01*
X119880310Y-53947155D02*
X119880310Y-53547155D01*
X119880310Y-53547155D02*
X119330310Y-53547155D01*
X119880310Y-53547155D02*
X120430310Y-53547155D01*
X119880310Y-53547155D02*
X120280310Y-52947155D01*
X119480310Y-52947155D02*
X119880310Y-53547155D01*
X119880310Y-52947155D02*
X119880310Y-52447155D01*
X120280310Y-52947155D02*
X119480310Y-52947155D01*
X118980310Y-51797155D02*
X118980310Y-54597155D01*
X120780310Y-51797155D02*
X118980310Y-51797155D01*
X141602185Y-74647280D02*
X143402185Y-74647280D01*
X143402185Y-74647280D02*
X143402185Y-71847280D01*
X142502185Y-73997280D02*
X142502185Y-73597280D01*
X142502185Y-73597280D02*
X141952185Y-73597280D01*
X142502185Y-73597280D02*
X143052185Y-73597280D01*
X142502185Y-73597280D02*
X142902185Y-72997280D01*
X142102185Y-72997280D02*
X142502185Y-73597280D01*
X142502185Y-72997280D02*
X142502185Y-72497280D01*
X142902185Y-72997280D02*
X142102185Y-72997280D01*
X141602185Y-71847280D02*
X141602185Y-74647280D01*
X143402185Y-71847280D02*
X141602185Y-71847280D01*
X153508435Y-79600280D02*
X155308435Y-79600280D01*
X155308435Y-79600280D02*
X155308435Y-76800280D01*
X154408435Y-78950280D02*
X154408435Y-78550280D01*
X154408435Y-78550280D02*
X153858435Y-78550280D01*
X154408435Y-78550280D02*
X154958435Y-78550280D01*
X154408435Y-78550280D02*
X154808435Y-77950280D01*
X154008435Y-77950280D02*
X154408435Y-78550280D01*
X154408435Y-77950280D02*
X154408435Y-77450280D01*
X154808435Y-77950280D02*
X154008435Y-77950280D01*
X153508435Y-76800280D02*
X153508435Y-79600280D01*
X155308435Y-76800280D02*
X153508435Y-76800280D01*
X271380310Y-54597155D02*
X273180310Y-54597155D01*
X273180310Y-54597155D02*
X273180310Y-51797155D01*
X272280310Y-53947155D02*
X272280310Y-53547155D01*
X272280310Y-53547155D02*
X271730310Y-53547155D01*
X272280310Y-53547155D02*
X272830310Y-53547155D01*
X272280310Y-53547155D02*
X272680310Y-52947155D01*
X271880310Y-52947155D02*
X272280310Y-53547155D01*
X272280310Y-52947155D02*
X272280310Y-52447155D01*
X272680310Y-52947155D02*
X271880310Y-52947155D01*
X271380310Y-51797155D02*
X271380310Y-54597155D01*
X273180310Y-51797155D02*
X271380310Y-51797155D01*
X130789685Y-44244030D02*
X130789685Y-50244030D01*
X126539685Y-44244030D02*
X130789685Y-44244030D01*
X126539685Y-44244030D02*
X126539685Y-50244030D01*
X126539685Y-45244030D02*
X127246792Y-45744030D01*
X127246792Y-45744030D02*
X126539685Y-46244030D01*
X126539685Y-50244030D02*
X130789685Y-50244030D01*
X157080310Y-73630280D02*
X158880310Y-73630280D01*
X158880310Y-73630280D02*
X158880310Y-70830280D01*
X157980310Y-72980280D02*
X157980310Y-72580280D01*
X157980310Y-72580280D02*
X157430310Y-72580280D01*
X157980310Y-72580280D02*
X158530310Y-72580280D01*
X157980310Y-72580280D02*
X158380310Y-71980280D01*
X157580310Y-71980280D02*
X157980310Y-72580280D01*
X157980310Y-71980280D02*
X157980310Y-71480280D01*
X158380310Y-71980280D02*
X157580310Y-71980280D01*
X157080310Y-70830280D02*
X157080310Y-73630280D01*
X158880310Y-70830280D02*
X157080310Y-70830280D01*
X197077185Y-39528405D02*
X197077185Y-33528405D01*
X201327185Y-39528405D02*
X197077185Y-39528405D01*
X201327185Y-39528405D02*
X201327185Y-33528405D01*
X201327185Y-38528405D02*
X200620078Y-38028405D01*
X200620078Y-38028405D02*
X201327185Y-37528405D01*
X201327185Y-33528405D02*
X197077185Y-33528405D01*
X61830310Y-54597155D02*
X63630310Y-54597155D01*
X63630310Y-54597155D02*
X63630310Y-51797155D01*
X62730310Y-53947155D02*
X62730310Y-53547155D01*
X62730310Y-53547155D02*
X62180310Y-53547155D01*
X62730310Y-53547155D02*
X63280310Y-53547155D01*
X62730310Y-53547155D02*
X63130310Y-52947155D01*
X62330310Y-52947155D02*
X62730310Y-53547155D01*
X62730310Y-52947155D02*
X62730310Y-52447155D01*
X63130310Y-52947155D02*
X62330310Y-52947155D01*
X61830310Y-51797155D02*
X61830310Y-54597155D01*
X63630310Y-51797155D02*
X61830310Y-51797155D01*
X176130310Y-74651280D02*
X177930310Y-74651280D01*
X177930310Y-74651280D02*
X177930310Y-71851280D01*
X177030310Y-74001280D02*
X177030310Y-73601280D01*
X177030310Y-73601280D02*
X176480310Y-73601280D01*
X177030310Y-73601280D02*
X177580310Y-73601280D01*
X177030310Y-73601280D02*
X177430310Y-73001280D01*
X176630310Y-73001280D02*
X177030310Y-73601280D01*
X177030310Y-73001280D02*
X177030310Y-72501280D01*
X177430310Y-73001280D02*
X176630310Y-73001280D01*
X176130310Y-71851280D02*
X176130310Y-74651280D01*
X177930310Y-71851280D02*
X176130310Y-71851280D01*
M02*
