%TF.GenerationSoftware,KiCad,Pcbnew,(6.0.10-0)*%
%TF.CreationDate,2023-03-16T17:33:29+09:00*%
%TF.ProjectId,Sandy_Middle,53616e64-795f-44d6-9964-646c652e6b69,v.0*%
%TF.SameCoordinates,Original*%
%TF.FileFunction,Drillmap*%
%TF.FilePolarity,Positive*%
%FSLAX45Y45*%
G04 Gerber Fmt 4.5, Leading zero omitted, Abs format (unit mm)*
G04 Created by KiCad (PCBNEW (6.0.10-0)) date 2023-03-16 17:33:29*
%MOMM*%
%LPD*%
G01*
G04 APERTURE LIST*
%ADD10C,0.200000*%
%ADD11C,0.040000*%
%ADD12C,0.100000*%
%ADD13C,0.147000*%
%ADD14C,0.220000*%
G04 APERTURE END LIST*
D10*
D11*
X2204906Y-3990028D02*
X2244906Y-4030028D01*
X2244906Y-3990028D02*
X2204906Y-4030028D01*
X2323969Y-2799403D02*
X2363969Y-2839403D01*
X2363969Y-2799403D02*
X2323969Y-2839403D01*
X2323969Y-5180653D02*
X2363969Y-5220653D01*
X2363969Y-5180653D02*
X2323969Y-5220653D01*
X2800218Y-2204091D02*
X2840218Y-2244091D01*
X2840218Y-2204091D02*
X2800218Y-2244091D01*
X2800218Y-5656903D02*
X2840218Y-5696903D01*
X2840218Y-5656903D02*
X2800218Y-5696903D01*
X3990843Y-2204091D02*
X4030843Y-2244091D01*
X4030843Y-2204091D02*
X3990843Y-2244091D01*
X3990843Y-3516953D02*
X4030843Y-3556953D01*
X4030843Y-3516953D02*
X3990843Y-3556953D01*
X4143243Y-5234628D02*
X4183243Y-5274628D01*
X4183243Y-5234628D02*
X4143243Y-5274628D01*
X4705219Y-5656903D02*
X4745219Y-5696903D01*
X4745219Y-5656903D02*
X4705219Y-5696903D01*
X5464044Y-5091753D02*
X5504044Y-5131753D01*
X5504044Y-5091753D02*
X5464044Y-5131753D01*
X5561723Y-5459813D02*
X5601723Y-5499813D01*
X5601723Y-5459813D02*
X5561723Y-5499813D01*
X5591044Y-3939228D02*
X5631043Y-3979228D01*
X5631043Y-3939228D02*
X5591044Y-3979228D01*
X5641843Y-5464716D02*
X5681843Y-5504716D01*
X5681843Y-5464716D02*
X5641843Y-5504716D01*
X5718043Y-3037528D02*
X5758043Y-3077528D01*
X5758043Y-3037528D02*
X5718043Y-3077528D01*
X5743443Y-5193353D02*
X5783443Y-5233353D01*
X5783443Y-5193353D02*
X5743443Y-5233353D01*
X5764109Y-3606383D02*
X5804109Y-3646383D01*
X5804109Y-3606383D02*
X5764109Y-3646383D01*
X5819643Y-3669353D02*
X5859643Y-3709353D01*
X5859643Y-3669353D02*
X5819643Y-3709353D01*
X5895843Y-2204091D02*
X5935843Y-2244091D01*
X5935843Y-2204091D02*
X5895843Y-2244091D01*
X5895843Y-3507428D02*
X5935843Y-3547428D01*
X5935843Y-3507428D02*
X5895843Y-3547428D01*
X5972043Y-2475553D02*
X6012043Y-2515553D01*
X6012043Y-2475553D02*
X5972043Y-2515553D01*
X6610218Y-4109090D02*
X6650218Y-4149090D01*
X6650218Y-4109090D02*
X6610218Y-4149090D01*
X6610218Y-5656903D02*
X6650218Y-5696903D01*
X6650218Y-5656903D02*
X6610218Y-5696903D01*
X6967406Y-3770953D02*
X7007406Y-3810953D01*
X7007406Y-3770953D02*
X6967406Y-3810953D01*
X7800843Y-2323153D02*
X7840843Y-2363153D01*
X7840843Y-2323153D02*
X7800843Y-2363153D01*
X7800843Y-3516953D02*
X7840843Y-3556953D01*
X7840843Y-3516953D02*
X7800843Y-3556953D01*
X8872406Y-3770953D02*
X8912406Y-3810953D01*
X8912406Y-3770953D02*
X8872406Y-3810953D01*
X9705844Y-2204091D02*
X9745844Y-2244091D01*
X9745844Y-2204091D02*
X9705844Y-2244091D01*
X9705844Y-3516953D02*
X9745844Y-3556953D01*
X9745844Y-3516953D02*
X9705844Y-3556953D01*
X10539281Y-3770953D02*
X10579281Y-3810953D01*
X10579281Y-3770953D02*
X10539281Y-3810953D01*
X10721844Y-2704153D02*
X10761844Y-2744153D01*
X10761844Y-2704153D02*
X10721844Y-2744153D01*
X10896469Y-3990028D02*
X10936469Y-4030028D01*
X10936469Y-3990028D02*
X10896469Y-4030028D01*
X10896469Y-5656903D02*
X10936469Y-5696903D01*
X10936469Y-5656903D02*
X10896469Y-5696903D01*
X11077444Y-3516953D02*
X11117444Y-3556953D01*
X11117444Y-3516953D02*
X11077444Y-3556953D01*
X11331443Y-2704153D02*
X11371443Y-2744153D01*
X11371443Y-2704153D02*
X11331443Y-2744153D01*
X11610843Y-2204091D02*
X11650843Y-2244091D01*
X11650843Y-2204091D02*
X11610843Y-2244091D01*
X11788643Y-3516953D02*
X11828643Y-3556953D01*
X11828643Y-3516953D02*
X11788643Y-3556953D01*
X11788643Y-3796353D02*
X11828643Y-3836353D01*
X11828643Y-3796353D02*
X11788643Y-3836353D01*
X11864843Y-2704153D02*
X11904843Y-2744153D01*
X11904843Y-2704153D02*
X11864843Y-2744153D01*
X11966443Y-5294953D02*
X12006443Y-5334953D01*
X12006443Y-5294953D02*
X11966443Y-5334953D01*
X12206156Y-5656903D02*
X12246156Y-5696903D01*
X12246156Y-5656903D02*
X12206156Y-5696903D01*
X12652243Y-4380553D02*
X12692243Y-4420553D01*
X12692243Y-4380553D02*
X12652243Y-4420553D01*
X12801468Y-5895028D02*
X12841468Y-5935028D01*
X12841468Y-5895028D02*
X12801468Y-5935028D01*
X12801468Y-7561903D02*
X12841468Y-7601903D01*
X12841468Y-7561903D02*
X12801468Y-7601903D01*
X12976484Y-6142288D02*
X13016484Y-6182288D01*
X13016484Y-6142288D02*
X12976484Y-6182288D01*
X13033243Y-6085528D02*
X13073243Y-6125528D01*
X13073243Y-6085528D02*
X13033243Y-6125528D01*
X13096743Y-5107628D02*
X13136743Y-5147628D01*
X13136743Y-5107628D02*
X13096743Y-5147628D01*
X13147543Y-6022028D02*
X13187543Y-6062028D01*
X13187543Y-6022028D02*
X13147543Y-6062028D01*
X13185643Y-2204091D02*
X13225643Y-2244091D01*
X13225643Y-2204091D02*
X13185643Y-2244091D01*
X13277718Y-3275653D02*
X13317718Y-3315653D01*
X13317718Y-3275653D02*
X13277718Y-3315653D01*
X13277718Y-4109090D02*
X13317718Y-4149090D01*
X13317718Y-4109090D02*
X13277718Y-4149090D01*
X13277718Y-4942528D02*
X13317718Y-4982528D01*
X13317718Y-4942528D02*
X13277718Y-4982528D01*
X13515843Y-7561903D02*
X13555843Y-7601903D01*
X13555843Y-7561903D02*
X13515843Y-7601903D01*
X13634906Y-2918465D02*
X13674906Y-2958465D01*
X13674906Y-2918465D02*
X13634906Y-2958465D01*
X13634906Y-5299716D02*
X13674906Y-5339716D01*
X13674906Y-5299716D02*
X13634906Y-5339716D01*
X13642843Y-2704153D02*
X13682843Y-2744153D01*
X13682843Y-2704153D02*
X13642843Y-2744153D01*
X13753968Y-8157215D02*
X13793968Y-8197215D01*
X13793968Y-8157215D02*
X13753968Y-8197215D01*
X13753968Y-9466903D02*
X13793968Y-9506903D01*
X13793968Y-9466903D02*
X13753968Y-9506903D01*
X13846043Y-2204091D02*
X13886043Y-2244091D01*
X13886043Y-2204091D02*
X13846043Y-2244091D01*
X14684243Y-6260153D02*
X14724243Y-6300153D01*
X14724243Y-6260153D02*
X14684243Y-6300153D01*
X14825531Y-5299716D02*
X14865531Y-5339716D01*
X14865531Y-5299716D02*
X14825531Y-5339716D01*
X14862043Y-7368228D02*
X14902043Y-7408228D01*
X14902043Y-7368228D02*
X14862043Y-7408228D01*
X14862043Y-7571428D02*
X14902043Y-7611428D01*
X14902043Y-7571428D02*
X14862043Y-7611428D01*
X14912843Y-8181028D02*
X14952843Y-8221028D01*
X14952843Y-8181028D02*
X14912843Y-8221028D01*
X15063656Y-6133153D02*
X15103656Y-6173153D01*
X15103656Y-6133153D02*
X15063656Y-6173153D01*
X15103343Y-7622228D02*
X15143343Y-7662228D01*
X15143343Y-7622228D02*
X15103343Y-7662228D01*
X15243043Y-6542728D02*
X15283043Y-6582728D01*
X15283043Y-6542728D02*
X15243043Y-6582728D01*
X15243043Y-7076128D02*
X15283043Y-7116128D01*
X15283043Y-7076128D02*
X15243043Y-7116128D01*
X15268443Y-7936553D02*
X15308443Y-7976553D01*
X15308443Y-7936553D02*
X15268443Y-7976553D01*
X15420843Y-2918465D02*
X15460843Y-2958465D01*
X15460843Y-2918465D02*
X15420843Y-2958465D01*
X15420843Y-7850828D02*
X15460843Y-7890828D01*
X15460843Y-7850828D02*
X15420843Y-7890828D01*
X15420843Y-9527228D02*
X15460843Y-9567228D01*
X15460843Y-9527228D02*
X15420843Y-9567228D01*
X15585943Y-7634928D02*
X15625943Y-7674928D01*
X15625943Y-7634928D02*
X15585943Y-7674928D01*
X15776443Y-6717353D02*
X15816443Y-6757353D01*
X15816443Y-6717353D02*
X15776443Y-6757353D01*
X15776443Y-6936428D02*
X15816443Y-6976428D01*
X15816443Y-6936428D02*
X15776443Y-6976428D01*
X15973343Y-8002528D02*
X16013343Y-8042528D01*
X16013343Y-8002528D02*
X15973343Y-8042528D01*
X15979643Y-7571428D02*
X16019643Y-7611428D01*
X16019643Y-7571428D02*
X15979643Y-7611428D01*
X15979643Y-9273228D02*
X16019643Y-9313228D01*
X16019643Y-9273228D02*
X15979643Y-9313228D01*
X16016156Y-2204091D02*
X16056156Y-2244091D01*
X16056156Y-2204091D02*
X16016156Y-2244091D01*
X16170143Y-9527228D02*
X16210143Y-9567228D01*
X16210143Y-9527228D02*
X16170143Y-9567228D01*
X16259043Y-7165028D02*
X16299043Y-7205028D01*
X16299043Y-7165028D02*
X16259043Y-7205028D01*
X16360643Y-2704153D02*
X16400643Y-2744153D01*
X16400643Y-2704153D02*
X16360643Y-2744153D01*
X16373343Y-6133153D02*
X16413343Y-6173153D01*
X16413343Y-6133153D02*
X16373343Y-6173153D01*
X16690843Y-6717353D02*
X16730843Y-6757353D01*
X16730843Y-6717353D02*
X16690843Y-6757353D01*
X16728943Y-7266628D02*
X16768943Y-7306628D01*
X16768943Y-7266628D02*
X16728943Y-7306628D01*
X16730531Y-2204091D02*
X16770531Y-2244091D01*
X16770531Y-2204091D02*
X16730531Y-2244091D01*
X16773343Y-8002528D02*
X16813344Y-8042528D01*
X16813344Y-8002528D02*
X16773343Y-8042528D01*
X17160744Y-7634928D02*
X17200744Y-7674928D01*
X17200744Y-7634928D02*
X17160744Y-7674928D01*
X17224244Y-6539553D02*
X17264244Y-6579553D01*
X17264244Y-6539553D02*
X17224244Y-6579553D01*
X17325844Y-2918465D02*
X17365844Y-2958465D01*
X17365844Y-2918465D02*
X17325844Y-2958465D01*
X17325844Y-9527228D02*
X17365844Y-9567228D01*
X17365844Y-9527228D02*
X17325844Y-9567228D01*
X17465544Y-7965128D02*
X17505544Y-8005128D01*
X17505544Y-7965128D02*
X17465544Y-8005128D01*
X17471364Y-6485048D02*
X17511364Y-6525048D01*
X17511364Y-6485048D02*
X17471364Y-6525048D01*
X17478244Y-9171628D02*
X17518244Y-9211628D01*
X17518244Y-9171628D02*
X17478244Y-9211628D01*
X17541744Y-7139628D02*
X17581744Y-7179628D01*
X17581744Y-7139628D02*
X17541744Y-7179628D01*
X17559331Y-9379716D02*
X17599331Y-9419716D01*
X17599331Y-9379716D02*
X17559331Y-9419716D01*
X17630644Y-7647628D02*
X17670644Y-7687628D01*
X17670644Y-7647628D02*
X17630644Y-7687628D01*
X17655514Y-9274716D02*
X17695514Y-9314716D01*
X17695514Y-9274716D02*
X17655514Y-9314716D01*
X17683031Y-6133153D02*
X17723031Y-6173153D01*
X17723031Y-6133153D02*
X17683031Y-6173153D01*
X17921156Y-5299716D02*
X17961156Y-5339716D01*
X17961156Y-5299716D02*
X17921156Y-5339716D01*
X17922047Y-8054572D02*
X17962047Y-8094572D01*
X17962047Y-8054572D02*
X17922047Y-8094572D01*
X17922667Y-7469751D02*
X17962667Y-7509751D01*
X17962667Y-7469751D02*
X17922667Y-7509751D01*
X17986244Y-7369715D02*
X18026244Y-7409715D01*
X18026244Y-7369715D02*
X17986244Y-7409715D01*
X18234512Y-7580954D02*
X18274512Y-7620954D01*
X18274512Y-7580954D02*
X18234512Y-7620954D01*
X18371855Y-8026858D02*
X18411855Y-8066858D01*
X18411855Y-8026858D02*
X18371855Y-8066858D01*
X18379944Y-7139628D02*
X18419944Y-7179628D01*
X18419944Y-7139628D02*
X18379944Y-7179628D01*
X18494244Y-6250628D02*
X18534244Y-6290628D01*
X18534244Y-6250628D02*
X18494244Y-6290628D01*
X18748244Y-8473128D02*
X18788244Y-8513128D01*
X18788244Y-8473128D02*
X18748244Y-8513128D01*
X18900643Y-6364928D02*
X18940643Y-6404928D01*
X18940643Y-6364928D02*
X18900643Y-6404928D01*
X18900644Y-2204091D02*
X18940644Y-2244091D01*
X18940644Y-2204091D02*
X18900644Y-2244091D01*
X18992719Y-9466903D02*
X19032719Y-9506903D01*
X19032719Y-9466903D02*
X18992719Y-9506903D01*
X19027644Y-6364928D02*
X19067644Y-6404928D01*
X19067644Y-6364928D02*
X19027644Y-6404928D01*
X19078444Y-8054028D02*
X19118444Y-8094028D01*
X19118444Y-8054028D02*
X19078444Y-8094028D01*
X19111781Y-2918465D02*
X19151781Y-2958465D01*
X19151781Y-2918465D02*
X19111781Y-2958465D01*
X19111781Y-5299716D02*
X19151781Y-5339716D01*
X19151781Y-5299716D02*
X19111781Y-5339716D01*
X19154644Y-7622228D02*
X19194644Y-7662228D01*
X19194644Y-7622228D02*
X19154644Y-7662228D01*
X19180044Y-6352228D02*
X19220044Y-6392228D01*
X19220044Y-6352228D02*
X19180044Y-6392228D01*
X19357844Y-2704153D02*
X19397844Y-2744153D01*
X19397844Y-2704153D02*
X19357844Y-2744153D01*
X19468969Y-3275653D02*
X19508969Y-3315653D01*
X19508969Y-3275653D02*
X19468969Y-3315653D01*
X19475219Y-4109090D02*
X19515219Y-4149090D01*
X19515219Y-4109090D02*
X19475219Y-4149090D01*
X19475219Y-4942528D02*
X19515219Y-4982528D01*
X19515219Y-4942528D02*
X19475219Y-4982528D01*
X19484844Y-6539553D02*
X19524844Y-6579553D01*
X19524844Y-6539553D02*
X19484844Y-6579553D01*
X19561044Y-2204091D02*
X19601044Y-2244091D01*
X19601044Y-2204091D02*
X19561044Y-2244091D01*
X19865844Y-5650553D02*
X19905844Y-5690553D01*
X19905844Y-5650553D02*
X19865844Y-5690553D01*
X19945219Y-5895028D02*
X19985219Y-5935028D01*
X19985219Y-5895028D02*
X19945219Y-5935028D01*
X19945219Y-7561903D02*
X19985219Y-7601903D01*
X19985219Y-7561903D02*
X19945219Y-7601903D01*
X20069044Y-4142428D02*
X20109044Y-4182428D01*
X20109044Y-4142428D02*
X20069044Y-4182428D01*
X20297644Y-3567753D02*
X20337644Y-3607753D01*
X20337644Y-3567753D02*
X20297644Y-3607753D01*
X20297644Y-3796353D02*
X20337644Y-3836353D01*
X20337644Y-3796353D02*
X20297644Y-3836353D01*
X20323044Y-5260028D02*
X20363044Y-5300028D01*
X20363044Y-5260028D02*
X20323044Y-5300028D01*
X20393669Y-4565478D02*
X20433669Y-4605478D01*
X20433669Y-4565478D02*
X20393669Y-4605478D01*
X20399244Y-5040953D02*
X20439244Y-5080953D01*
X20439244Y-5040953D02*
X20399244Y-5080953D01*
X20424644Y-4380553D02*
X20464644Y-4420553D01*
X20464644Y-4380553D02*
X20424644Y-4420553D01*
X20427019Y-4754403D02*
X20467019Y-4794403D01*
X20467019Y-4754403D02*
X20427019Y-4794403D01*
X20475444Y-5371153D02*
X20515444Y-5411153D01*
X20515444Y-5371153D02*
X20475444Y-5411153D01*
X20540531Y-5656903D02*
X20580531Y-5696903D01*
X20580531Y-5656903D02*
X20540531Y-5696903D01*
X20907244Y-4558353D02*
X20947244Y-4598353D01*
X20947244Y-4558353D02*
X20907244Y-4598353D01*
X21135844Y-2204091D02*
X21175844Y-2244091D01*
X21175844Y-2204091D02*
X21135844Y-2244091D01*
X21135844Y-3567753D02*
X21175844Y-3607753D01*
X21175844Y-3567753D02*
X21135844Y-3607753D01*
X21339044Y-3609028D02*
X21379044Y-3649028D01*
X21379044Y-3609028D02*
X21339044Y-3649028D01*
X21339044Y-5167953D02*
X21379044Y-5207953D01*
X21379044Y-5167953D02*
X21339044Y-5207953D01*
X21389844Y-4634553D02*
X21429844Y-4674553D01*
X21429844Y-4634553D02*
X21389844Y-4674553D01*
X21498381Y-3579135D02*
X21538381Y-3619135D01*
X21538381Y-3579135D02*
X21498381Y-3619135D01*
X21573194Y-3608228D02*
X21613194Y-3648228D01*
X21613194Y-3608228D02*
X21573194Y-3648228D01*
X21643844Y-4761553D02*
X21683844Y-4801553D01*
X21683844Y-4761553D02*
X21643844Y-4801553D01*
X21770844Y-3704278D02*
X21810844Y-3744278D01*
X21810844Y-3704278D02*
X21770844Y-3744278D01*
X21850219Y-3377253D02*
X21890219Y-3417253D01*
X21890219Y-3377253D02*
X21850219Y-3417253D01*
X21850219Y-3990028D02*
X21890219Y-4030028D01*
X21890219Y-3990028D02*
X21850219Y-4030028D01*
X21850219Y-5656903D02*
X21890219Y-5696903D01*
X21890219Y-5656903D02*
X21850219Y-5696903D01*
X22202644Y-3602678D02*
X22242644Y-3642678D01*
X22242644Y-3602678D02*
X22202644Y-3642678D01*
X22326469Y-3786828D02*
X22366469Y-3826828D01*
X22366469Y-3786828D02*
X22326469Y-3826828D01*
X22558243Y-3450278D02*
X22598243Y-3490278D01*
X22598243Y-3450278D02*
X22558243Y-3490278D01*
X22685243Y-3424878D02*
X22725243Y-3464878D01*
X22725243Y-3424878D02*
X22685243Y-3464878D01*
X23040843Y-2204091D02*
X23080843Y-2244091D01*
X23080843Y-2204091D02*
X23040843Y-2244091D01*
X23980643Y-3786828D02*
X24020643Y-3826828D01*
X24020643Y-3786828D02*
X23980643Y-3826828D01*
X24006043Y-3424878D02*
X24046043Y-3464878D01*
X24046043Y-3424878D02*
X24006043Y-3464878D01*
X24945843Y-2323153D02*
X24985843Y-2363153D01*
X24985843Y-2323153D02*
X24945843Y-2363153D01*
X25660218Y-3786828D02*
X25700218Y-3826828D01*
X25700218Y-3786828D02*
X25660218Y-3826828D01*
X25733243Y-3424878D02*
X25773243Y-3464878D01*
X25773243Y-3424878D02*
X25733243Y-3464878D01*
X25958403Y-3529918D02*
X25998403Y-3569918D01*
X25998403Y-3529918D02*
X25958403Y-3569918D01*
X26136468Y-4109090D02*
X26176468Y-4149090D01*
X26176468Y-4109090D02*
X26136468Y-4149090D01*
X26136468Y-5656903D02*
X26176468Y-5696903D01*
X26176468Y-5656903D02*
X26136468Y-5696903D01*
X26190443Y-5323528D02*
X26230443Y-5363528D01*
X26230443Y-5323528D02*
X26190443Y-5363528D01*
X26191766Y-3601355D02*
X26231766Y-3641355D01*
X26231766Y-3601355D02*
X26191766Y-3641355D01*
X26800043Y-4253553D02*
X26840043Y-4293553D01*
X26840043Y-4253553D02*
X26800043Y-4293553D01*
X26850843Y-2204091D02*
X26890843Y-2244091D01*
X26890843Y-2204091D02*
X26850843Y-2244091D01*
X26850843Y-3037528D02*
X26890843Y-3077528D01*
X26890843Y-3037528D02*
X26850843Y-3077528D01*
X26850843Y-5269553D02*
X26890843Y-5309553D01*
X26890843Y-5269553D02*
X26850843Y-5309553D01*
X26901643Y-4532953D02*
X26941643Y-4572953D01*
X26941643Y-4532953D02*
X26901643Y-4572953D01*
X26927043Y-4040828D02*
X26967043Y-4080828D01*
X26967043Y-4040828D02*
X26927043Y-4080828D01*
X27308043Y-4405953D02*
X27348043Y-4445953D01*
X27348043Y-4405953D02*
X27308043Y-4445953D01*
X28160531Y-5656903D02*
X28200531Y-5696903D01*
X28200531Y-5656903D02*
X28160531Y-5696903D01*
X28451043Y-4040828D02*
X28491043Y-4080828D01*
X28491043Y-4040828D02*
X28451043Y-4080828D01*
X28603443Y-4609153D02*
X28643443Y-4649153D01*
X28643443Y-4609153D02*
X28603443Y-4649153D01*
X28755843Y-2204091D02*
X28795843Y-2244091D01*
X28795843Y-2204091D02*
X28755843Y-2244091D01*
X29289243Y-4431353D02*
X29329243Y-4471353D01*
X29329243Y-4431353D02*
X29289243Y-4471353D01*
X29390843Y-5202878D02*
X29430843Y-5242878D01*
X29430843Y-5202878D02*
X29390843Y-5242878D01*
X29946468Y-2204091D02*
X29986468Y-2244091D01*
X29986468Y-2204091D02*
X29946468Y-2244091D01*
X29946468Y-5656903D02*
X29986468Y-5696903D01*
X29986468Y-5656903D02*
X29946468Y-5696903D01*
X30422718Y-2799403D02*
X30462718Y-2839403D01*
X30462718Y-2799403D02*
X30422718Y-2839403D01*
X30422718Y-5180653D02*
X30462718Y-5220653D01*
X30462718Y-5180653D02*
X30422718Y-5220653D01*
X30541781Y-3990028D02*
X30581781Y-4030028D01*
X30581781Y-3990028D02*
X30541781Y-4030028D01*
D12*
X5608656Y-3414715D02*
G75*
G03*
X5608656Y-3414715I-50000J0D01*
G01*
X5608656Y-3771903D02*
G75*
G03*
X5608656Y-3771903I-50000J0D01*
G01*
X10252094Y-2462216D02*
G75*
G03*
X10252094Y-2462216I-50000J0D01*
G01*
X10609281Y-2462216D02*
G75*
G03*
X10609281Y-2462216I-50000J0D01*
G01*
X10966469Y-2462216D02*
G75*
G03*
X10966469Y-2462216I-50000J0D01*
G01*
X12851468Y-4524403D02*
G75*
G03*
X12851468Y-4524403I-50000J0D01*
G01*
X12851468Y-4924403D02*
G75*
G03*
X12851468Y-4924403I-50000J0D01*
G01*
X13041468Y-4624403D02*
G75*
G03*
X13041468Y-4624403I-50000J0D01*
G01*
X13041468Y-4824403D02*
G75*
G03*
X13041468Y-4824403I-50000J0D01*
G01*
X18348344Y-2462216D02*
G75*
G03*
X18348344Y-2462216I-50000J0D01*
G01*
X18705531Y-2462216D02*
G75*
G03*
X18705531Y-2462216I-50000J0D01*
G01*
X19845219Y-3552840D02*
G75*
G03*
X19845219Y-3552840I-50000J0D01*
G01*
X19845219Y-3752840D02*
G75*
G03*
X19845219Y-3752840I-50000J0D01*
G01*
X19845219Y-4624403D02*
G75*
G03*
X19845219Y-4624403I-50000J0D01*
G01*
X19845219Y-4824403D02*
G75*
G03*
X19845219Y-4824403I-50000J0D01*
G01*
X20035219Y-3452840D02*
G75*
G03*
X20035219Y-3452840I-50000J0D01*
G01*
X20035219Y-3852840D02*
G75*
G03*
X20035219Y-3852840I-50000J0D01*
G01*
X20035219Y-4524403D02*
G75*
G03*
X20035219Y-4524403I-50000J0D01*
G01*
X20035219Y-4924403D02*
G75*
G03*
X20035219Y-4924403I-50000J0D01*
G01*
X20134281Y-2462216D02*
G75*
G03*
X20134281Y-2462216I-50000J0D01*
G01*
X20491469Y-2462216D02*
G75*
G03*
X20491469Y-2462216I-50000J0D01*
G01*
X21920219Y-2462216D02*
G75*
G03*
X21920219Y-2462216I-50000J0D01*
G01*
X22277406Y-2462216D02*
G75*
G03*
X22277406Y-2462216I-50000J0D01*
G01*
X22634593Y-2462216D02*
G75*
G03*
X22634593Y-2462216I-50000J0D01*
G01*
D13*
X3153593Y-4635028D02*
X3153593Y-4782028D01*
X3080093Y-4708528D02*
X3227093Y-4708528D01*
X3391718Y-4635028D02*
X3391718Y-4782028D01*
X3318218Y-4708528D02*
X3465218Y-4708528D01*
X3788593Y-4381028D02*
X3788593Y-4528028D01*
X3715093Y-4454528D02*
X3862093Y-4454528D01*
X4026718Y-4381028D02*
X4026718Y-4528028D01*
X3953218Y-4454528D02*
X4100218Y-4454528D01*
X5534844Y-4635028D02*
X5534844Y-4782028D01*
X5461344Y-4708528D02*
X5608343Y-4708528D01*
X6169843Y-4381028D02*
X6169843Y-4528028D01*
X6096343Y-4454528D02*
X6243343Y-4454528D01*
X11249843Y-4635028D02*
X11249843Y-4782028D01*
X11176344Y-4708528D02*
X11323343Y-4708528D01*
X11884843Y-4381028D02*
X11884843Y-4528028D01*
X11811343Y-4454528D02*
X11958343Y-4454528D01*
X13154843Y-6542532D02*
X13154843Y-6689532D01*
X13081343Y-6616032D02*
X13228343Y-6616032D01*
X13789843Y-6288532D02*
X13789843Y-6435532D01*
X13716343Y-6362032D02*
X13863343Y-6362032D01*
X14107343Y-8445028D02*
X14107343Y-8592028D01*
X14033843Y-8518528D02*
X14180843Y-8518528D01*
X14742343Y-8191028D02*
X14742343Y-8338028D01*
X14668843Y-8264528D02*
X14815843Y-8264528D01*
X15059843Y-6540028D02*
X15059843Y-6687028D01*
X14986343Y-6613528D02*
X15133343Y-6613528D01*
X15694843Y-6286028D02*
X15694843Y-6433028D01*
X15621343Y-6359528D02*
X15768343Y-6359528D01*
X16012343Y-8445028D02*
X16012343Y-8592028D01*
X15938843Y-8518528D02*
X16085843Y-8518528D01*
X16647343Y-8191028D02*
X16647343Y-8338028D01*
X16573843Y-8264528D02*
X16720843Y-8264528D01*
X16964844Y-6540028D02*
X16964844Y-6687028D01*
X16891344Y-6613528D02*
X17038344Y-6613528D01*
X17599844Y-6286028D02*
X17599844Y-6433028D01*
X17526344Y-6359528D02*
X17673344Y-6359528D01*
X17917344Y-8445028D02*
X17917344Y-8592028D01*
X17843844Y-8518528D02*
X17990844Y-8518528D01*
X18552344Y-8191028D02*
X18552344Y-8338028D01*
X18478844Y-8264528D02*
X18625844Y-8264528D01*
X18869844Y-6540028D02*
X18869844Y-6687028D01*
X18796344Y-6613528D02*
X18943344Y-6613528D01*
X19504844Y-6286028D02*
X19504844Y-6433028D01*
X19431344Y-6359528D02*
X19578344Y-6359528D01*
X20774844Y-4635028D02*
X20774844Y-4782028D01*
X20701344Y-4708528D02*
X20848344Y-4708528D01*
X21409844Y-4381028D02*
X21409844Y-4528028D01*
X21336344Y-4454528D02*
X21483344Y-4454528D01*
X26489843Y-4635028D02*
X26489843Y-4782028D01*
X26416343Y-4708528D02*
X26563343Y-4708528D01*
X27124843Y-4381028D02*
X27124843Y-4528028D01*
X27051343Y-4454528D02*
X27198343Y-4454528D01*
X28871093Y-4635028D02*
X28871093Y-4782028D01*
X28797593Y-4708528D02*
X28944593Y-4708528D01*
X29506093Y-4381028D02*
X29506093Y-4528028D01*
X29432593Y-4454528D02*
X29579593Y-4454528D01*
D14*
X2540814Y-2491136D02*
X2540814Y-2335571D01*
X2385249Y-2335571D01*
X2385249Y-2491136D01*
X2540814Y-2491136D01*
X2540814Y-5636560D02*
X2540814Y-5480996D01*
X2385249Y-5480996D01*
X2385249Y-5636560D01*
X2540814Y-5636560D01*
X4088626Y-3254373D02*
X4088626Y-3098808D01*
X3933061Y-3098808D01*
X3933061Y-3254373D01*
X4088626Y-3254373D01*
X7898626Y-3254373D02*
X7898626Y-3098808D01*
X7743061Y-3098808D01*
X7743061Y-3254373D01*
X7898626Y-3254373D01*
X9803626Y-3254373D02*
X9803626Y-3098808D01*
X9648061Y-3098808D01*
X9648061Y-3254373D01*
X9803626Y-3254373D01*
X12661126Y-5635623D02*
X12661126Y-5480058D01*
X12505561Y-5480058D01*
X12505561Y-5635623D01*
X12661126Y-5635623D01*
X13613626Y-2491136D02*
X13613626Y-2335571D01*
X13458061Y-2335571D01*
X13458061Y-2491136D01*
X13613626Y-2491136D01*
X13970813Y-7897810D02*
X13970813Y-7742245D01*
X13815248Y-7742245D01*
X13815248Y-7897810D01*
X13970813Y-7897810D01*
X14566126Y-5635623D02*
X14566126Y-5480058D01*
X14410561Y-5480058D01*
X14410561Y-5635623D01*
X14566126Y-5635623D01*
X16471126Y-2491136D02*
X16471126Y-2335571D01*
X16315561Y-2335571D01*
X16315561Y-2491136D01*
X16471126Y-2491136D01*
X18376126Y-5635623D02*
X18376126Y-5480058D01*
X18220561Y-5480058D01*
X18220561Y-5635623D01*
X18376126Y-5635623D01*
X18971439Y-7897810D02*
X18971439Y-7742245D01*
X18815874Y-7742245D01*
X18815874Y-7897810D01*
X18971439Y-7897810D01*
X19328626Y-2491136D02*
X19328626Y-2335571D01*
X19173061Y-2335571D01*
X19173061Y-2491136D01*
X19328626Y-2491136D01*
X20281126Y-5640310D02*
X20281126Y-5484746D01*
X20125561Y-5484746D01*
X20125561Y-5640310D01*
X20281126Y-5640310D01*
X23138626Y-3254373D02*
X23138626Y-3098808D01*
X22983061Y-3098808D01*
X22983061Y-3254373D01*
X23138626Y-3254373D01*
X25043626Y-3254373D02*
X25043626Y-3098808D01*
X24888061Y-3098808D01*
X24888061Y-3254373D01*
X25043626Y-3254373D01*
X28853626Y-3254373D02*
X28853626Y-3098808D01*
X28698061Y-3098808D01*
X28698061Y-3254373D01*
X28853626Y-3254373D01*
X30401438Y-2491136D02*
X30401438Y-2335571D01*
X30245873Y-2335571D01*
X30245873Y-2491136D01*
X30401438Y-2491136D01*
X30401438Y-5636560D02*
X30401438Y-5480996D01*
X30245873Y-5480996D01*
X30245873Y-5636560D01*
X30401438Y-5636560D01*
D10*
X2383463Y-9975500D02*
X2383463Y-9775500D01*
X2431082Y-9775500D01*
X2459653Y-9785024D01*
X2478701Y-9804072D01*
X2488224Y-9823119D01*
X2497748Y-9861214D01*
X2497748Y-9889786D01*
X2488224Y-9927881D01*
X2478701Y-9946929D01*
X2459653Y-9965976D01*
X2431082Y-9975500D01*
X2383463Y-9975500D01*
X2583463Y-9975500D02*
X2583463Y-9842167D01*
X2583463Y-9880262D02*
X2592986Y-9861214D01*
X2602510Y-9851691D01*
X2621558Y-9842167D01*
X2640605Y-9842167D01*
X2707272Y-9975500D02*
X2707272Y-9842167D01*
X2707272Y-9775500D02*
X2697748Y-9785024D01*
X2707272Y-9794548D01*
X2716796Y-9785024D01*
X2707272Y-9775500D01*
X2707272Y-9794548D01*
X2831081Y-9975500D02*
X2812034Y-9965976D01*
X2802510Y-9946929D01*
X2802510Y-9775500D01*
X2935843Y-9975500D02*
X2916796Y-9965976D01*
X2907272Y-9946929D01*
X2907272Y-9775500D01*
X3164415Y-9975500D02*
X3164415Y-9775500D01*
X3231081Y-9918357D01*
X3297748Y-9775500D01*
X3297748Y-9975500D01*
X3478701Y-9975500D02*
X3478701Y-9870738D01*
X3469177Y-9851691D01*
X3450129Y-9842167D01*
X3412034Y-9842167D01*
X3392986Y-9851691D01*
X3478701Y-9965976D02*
X3459653Y-9975500D01*
X3412034Y-9975500D01*
X3392986Y-9965976D01*
X3383462Y-9946929D01*
X3383462Y-9927881D01*
X3392986Y-9908834D01*
X3412034Y-9899310D01*
X3459653Y-9899310D01*
X3478701Y-9889786D01*
X3573939Y-9842167D02*
X3573939Y-10042167D01*
X3573939Y-9851691D02*
X3592986Y-9842167D01*
X3631081Y-9842167D01*
X3650129Y-9851691D01*
X3659653Y-9861214D01*
X3669177Y-9880262D01*
X3669177Y-9937405D01*
X3659653Y-9956453D01*
X3650129Y-9965976D01*
X3631081Y-9975500D01*
X3592986Y-9975500D01*
X3573939Y-9965976D01*
X3754891Y-9956453D02*
X3764415Y-9965976D01*
X3754891Y-9975500D01*
X3745367Y-9965976D01*
X3754891Y-9956453D01*
X3754891Y-9975500D01*
X3754891Y-9851691D02*
X3764415Y-9861214D01*
X3754891Y-9870738D01*
X3745367Y-9861214D01*
X3754891Y-9851691D01*
X3754891Y-9870738D01*
D11*
X2085843Y-10285024D02*
X2125844Y-10325024D01*
X2125844Y-10285024D02*
X2085843Y-10325024D01*
D10*
X2421558Y-10195500D02*
X2440605Y-10195500D01*
X2459653Y-10205024D01*
X2469177Y-10214548D01*
X2478701Y-10233595D01*
X2488224Y-10271691D01*
X2488224Y-10319310D01*
X2478701Y-10357405D01*
X2469177Y-10376453D01*
X2459653Y-10385976D01*
X2440605Y-10395500D01*
X2421558Y-10395500D01*
X2402510Y-10385976D01*
X2392986Y-10376453D01*
X2383463Y-10357405D01*
X2373939Y-10319310D01*
X2373939Y-10271691D01*
X2383463Y-10233595D01*
X2392986Y-10214548D01*
X2402510Y-10205024D01*
X2421558Y-10195500D01*
X2573939Y-10376453D02*
X2583463Y-10385976D01*
X2573939Y-10395500D01*
X2564415Y-10385976D01*
X2573939Y-10376453D01*
X2573939Y-10395500D01*
X2754891Y-10262167D02*
X2754891Y-10395500D01*
X2707272Y-10185976D02*
X2659653Y-10328834D01*
X2783463Y-10328834D01*
X2897748Y-10195500D02*
X2916796Y-10195500D01*
X2935843Y-10205024D01*
X2945367Y-10214548D01*
X2954891Y-10233595D01*
X2964415Y-10271691D01*
X2964415Y-10319310D01*
X2954891Y-10357405D01*
X2945367Y-10376453D01*
X2935843Y-10385976D01*
X2916796Y-10395500D01*
X2897748Y-10395500D01*
X2878701Y-10385976D01*
X2869177Y-10376453D01*
X2859653Y-10357405D01*
X2850129Y-10319310D01*
X2850129Y-10271691D01*
X2859653Y-10233595D01*
X2869177Y-10214548D01*
X2878701Y-10205024D01*
X2897748Y-10195500D01*
X3088224Y-10195500D02*
X3107272Y-10195500D01*
X3126320Y-10205024D01*
X3135843Y-10214548D01*
X3145367Y-10233595D01*
X3154891Y-10271691D01*
X3154891Y-10319310D01*
X3145367Y-10357405D01*
X3135843Y-10376453D01*
X3126320Y-10385976D01*
X3107272Y-10395500D01*
X3088224Y-10395500D01*
X3069177Y-10385976D01*
X3059653Y-10376453D01*
X3050129Y-10357405D01*
X3040605Y-10319310D01*
X3040605Y-10271691D01*
X3050129Y-10233595D01*
X3059653Y-10214548D01*
X3069177Y-10205024D01*
X3088224Y-10195500D01*
X3240605Y-10395500D02*
X3240605Y-10262167D01*
X3240605Y-10281214D02*
X3250129Y-10271691D01*
X3269177Y-10262167D01*
X3297748Y-10262167D01*
X3316796Y-10271691D01*
X3326320Y-10290738D01*
X3326320Y-10395500D01*
X3326320Y-10290738D02*
X3335843Y-10271691D01*
X3354891Y-10262167D01*
X3383462Y-10262167D01*
X3402510Y-10271691D01*
X3412034Y-10290738D01*
X3412034Y-10395500D01*
X3507272Y-10395500D02*
X3507272Y-10262167D01*
X3507272Y-10281214D02*
X3516796Y-10271691D01*
X3535843Y-10262167D01*
X3564415Y-10262167D01*
X3583462Y-10271691D01*
X3592986Y-10290738D01*
X3592986Y-10395500D01*
X3592986Y-10290738D02*
X3602510Y-10271691D01*
X3621558Y-10262167D01*
X3650129Y-10262167D01*
X3669177Y-10271691D01*
X3678701Y-10290738D01*
X3678701Y-10395500D01*
X4069177Y-10185976D02*
X3897748Y-10443119D01*
X4326320Y-10195500D02*
X4345367Y-10195500D01*
X4364415Y-10205024D01*
X4373939Y-10214548D01*
X4383463Y-10233595D01*
X4392986Y-10271691D01*
X4392986Y-10319310D01*
X4383463Y-10357405D01*
X4373939Y-10376453D01*
X4364415Y-10385976D01*
X4345367Y-10395500D01*
X4326320Y-10395500D01*
X4307272Y-10385976D01*
X4297748Y-10376453D01*
X4288224Y-10357405D01*
X4278701Y-10319310D01*
X4278701Y-10271691D01*
X4288224Y-10233595D01*
X4297748Y-10214548D01*
X4307272Y-10205024D01*
X4326320Y-10195500D01*
X4478701Y-10376453D02*
X4488224Y-10385976D01*
X4478701Y-10395500D01*
X4469177Y-10385976D01*
X4478701Y-10376453D01*
X4478701Y-10395500D01*
X4612034Y-10195500D02*
X4631082Y-10195500D01*
X4650129Y-10205024D01*
X4659653Y-10214548D01*
X4669177Y-10233595D01*
X4678701Y-10271691D01*
X4678701Y-10319310D01*
X4669177Y-10357405D01*
X4659653Y-10376453D01*
X4650129Y-10385976D01*
X4631082Y-10395500D01*
X4612034Y-10395500D01*
X4592986Y-10385976D01*
X4583463Y-10376453D01*
X4573939Y-10357405D01*
X4564415Y-10319310D01*
X4564415Y-10271691D01*
X4573939Y-10233595D01*
X4583463Y-10214548D01*
X4592986Y-10205024D01*
X4612034Y-10195500D01*
X4869177Y-10395500D02*
X4754891Y-10395500D01*
X4812034Y-10395500D02*
X4812034Y-10195500D01*
X4792986Y-10224072D01*
X4773939Y-10243119D01*
X4754891Y-10252643D01*
X5050129Y-10195500D02*
X4954891Y-10195500D01*
X4945367Y-10290738D01*
X4954891Y-10281214D01*
X4973939Y-10271691D01*
X5021558Y-10271691D01*
X5040605Y-10281214D01*
X5050129Y-10290738D01*
X5059653Y-10309786D01*
X5059653Y-10357405D01*
X5050129Y-10376453D01*
X5040605Y-10385976D01*
X5021558Y-10395500D01*
X4973939Y-10395500D01*
X4954891Y-10385976D01*
X4945367Y-10376453D01*
X5126320Y-10195500D02*
X5259653Y-10195500D01*
X5173939Y-10395500D01*
X5326320Y-10195500D02*
X5326320Y-10233595D01*
X5402510Y-10195500D02*
X5402510Y-10233595D01*
X5697748Y-10471691D02*
X5688224Y-10462167D01*
X5669177Y-10433595D01*
X5659653Y-10414548D01*
X5650129Y-10385976D01*
X5640605Y-10338357D01*
X5640605Y-10300262D01*
X5650129Y-10252643D01*
X5659653Y-10224072D01*
X5669177Y-10205024D01*
X5688224Y-10176453D01*
X5697748Y-10166929D01*
X5878701Y-10395500D02*
X5764415Y-10395500D01*
X5821558Y-10395500D02*
X5821558Y-10195500D01*
X5802510Y-10224072D01*
X5783462Y-10243119D01*
X5764415Y-10252643D01*
X5992986Y-10281214D02*
X5973939Y-10271691D01*
X5964415Y-10262167D01*
X5954891Y-10243119D01*
X5954891Y-10233595D01*
X5964415Y-10214548D01*
X5973939Y-10205024D01*
X5992986Y-10195500D01*
X6031081Y-10195500D01*
X6050129Y-10205024D01*
X6059653Y-10214548D01*
X6069177Y-10233595D01*
X6069177Y-10243119D01*
X6059653Y-10262167D01*
X6050129Y-10271691D01*
X6031081Y-10281214D01*
X5992986Y-10281214D01*
X5973939Y-10290738D01*
X5964415Y-10300262D01*
X5954891Y-10319310D01*
X5954891Y-10357405D01*
X5964415Y-10376453D01*
X5973939Y-10385976D01*
X5992986Y-10395500D01*
X6031081Y-10395500D01*
X6050129Y-10385976D01*
X6059653Y-10376453D01*
X6069177Y-10357405D01*
X6069177Y-10319310D01*
X6059653Y-10300262D01*
X6050129Y-10290738D01*
X6031081Y-10281214D01*
X6259653Y-10395500D02*
X6145367Y-10395500D01*
X6202510Y-10395500D02*
X6202510Y-10195500D01*
X6183462Y-10224072D01*
X6164415Y-10243119D01*
X6145367Y-10252643D01*
X6497748Y-10395500D02*
X6497748Y-10195500D01*
X6583462Y-10395500D02*
X6583462Y-10290738D01*
X6573939Y-10271691D01*
X6554891Y-10262167D01*
X6526320Y-10262167D01*
X6507272Y-10271691D01*
X6497748Y-10281214D01*
X6707272Y-10395500D02*
X6688224Y-10385976D01*
X6678701Y-10376453D01*
X6669177Y-10357405D01*
X6669177Y-10300262D01*
X6678701Y-10281214D01*
X6688224Y-10271691D01*
X6707272Y-10262167D01*
X6735843Y-10262167D01*
X6754891Y-10271691D01*
X6764415Y-10281214D01*
X6773939Y-10300262D01*
X6773939Y-10357405D01*
X6764415Y-10376453D01*
X6754891Y-10385976D01*
X6735843Y-10395500D01*
X6707272Y-10395500D01*
X6888224Y-10395500D02*
X6869177Y-10385976D01*
X6859653Y-10366929D01*
X6859653Y-10195500D01*
X7040605Y-10385976D02*
X7021558Y-10395500D01*
X6983462Y-10395500D01*
X6964415Y-10385976D01*
X6954891Y-10366929D01*
X6954891Y-10290738D01*
X6964415Y-10271691D01*
X6983462Y-10262167D01*
X7021558Y-10262167D01*
X7040605Y-10271691D01*
X7050129Y-10290738D01*
X7050129Y-10309786D01*
X6954891Y-10328834D01*
X7126320Y-10385976D02*
X7145367Y-10395500D01*
X7183462Y-10395500D01*
X7202510Y-10385976D01*
X7212034Y-10366929D01*
X7212034Y-10357405D01*
X7202510Y-10338357D01*
X7183462Y-10328834D01*
X7154891Y-10328834D01*
X7135843Y-10319310D01*
X7126320Y-10300262D01*
X7126320Y-10290738D01*
X7135843Y-10271691D01*
X7154891Y-10262167D01*
X7183462Y-10262167D01*
X7202510Y-10271691D01*
X7278701Y-10471691D02*
X7288224Y-10462167D01*
X7307272Y-10433595D01*
X7316796Y-10414548D01*
X7326320Y-10385976D01*
X7335843Y-10338357D01*
X7335843Y-10300262D01*
X7326320Y-10252643D01*
X7316796Y-10224072D01*
X7307272Y-10205024D01*
X7288224Y-10176453D01*
X7278701Y-10166929D01*
D12*
X2125844Y-10569024D02*
G75*
G03*
X2125844Y-10569024I-50000J0D01*
G01*
D10*
X2488224Y-10659500D02*
X2373939Y-10659500D01*
X2431082Y-10659500D02*
X2431082Y-10459500D01*
X2412034Y-10488072D01*
X2392986Y-10507119D01*
X2373939Y-10516643D01*
X2573939Y-10640453D02*
X2583463Y-10649976D01*
X2573939Y-10659500D01*
X2564415Y-10649976D01*
X2573939Y-10640453D01*
X2573939Y-10659500D01*
X2707272Y-10459500D02*
X2726320Y-10459500D01*
X2745367Y-10469024D01*
X2754891Y-10478548D01*
X2764415Y-10497595D01*
X2773939Y-10535691D01*
X2773939Y-10583310D01*
X2764415Y-10621405D01*
X2754891Y-10640453D01*
X2745367Y-10649976D01*
X2726320Y-10659500D01*
X2707272Y-10659500D01*
X2688224Y-10649976D01*
X2678701Y-10640453D01*
X2669177Y-10621405D01*
X2659653Y-10583310D01*
X2659653Y-10535691D01*
X2669177Y-10497595D01*
X2678701Y-10478548D01*
X2688224Y-10469024D01*
X2707272Y-10459500D01*
X2897748Y-10459500D02*
X2916796Y-10459500D01*
X2935843Y-10469024D01*
X2945367Y-10478548D01*
X2954891Y-10497595D01*
X2964415Y-10535691D01*
X2964415Y-10583310D01*
X2954891Y-10621405D01*
X2945367Y-10640453D01*
X2935843Y-10649976D01*
X2916796Y-10659500D01*
X2897748Y-10659500D01*
X2878701Y-10649976D01*
X2869177Y-10640453D01*
X2859653Y-10621405D01*
X2850129Y-10583310D01*
X2850129Y-10535691D01*
X2859653Y-10497595D01*
X2869177Y-10478548D01*
X2878701Y-10469024D01*
X2897748Y-10459500D01*
X3088224Y-10459500D02*
X3107272Y-10459500D01*
X3126320Y-10469024D01*
X3135843Y-10478548D01*
X3145367Y-10497595D01*
X3154891Y-10535691D01*
X3154891Y-10583310D01*
X3145367Y-10621405D01*
X3135843Y-10640453D01*
X3126320Y-10649976D01*
X3107272Y-10659500D01*
X3088224Y-10659500D01*
X3069177Y-10649976D01*
X3059653Y-10640453D01*
X3050129Y-10621405D01*
X3040605Y-10583310D01*
X3040605Y-10535691D01*
X3050129Y-10497595D01*
X3059653Y-10478548D01*
X3069177Y-10469024D01*
X3088224Y-10459500D01*
X3240605Y-10659500D02*
X3240605Y-10526167D01*
X3240605Y-10545214D02*
X3250129Y-10535691D01*
X3269177Y-10526167D01*
X3297748Y-10526167D01*
X3316796Y-10535691D01*
X3326320Y-10554738D01*
X3326320Y-10659500D01*
X3326320Y-10554738D02*
X3335843Y-10535691D01*
X3354891Y-10526167D01*
X3383462Y-10526167D01*
X3402510Y-10535691D01*
X3412034Y-10554738D01*
X3412034Y-10659500D01*
X3507272Y-10659500D02*
X3507272Y-10526167D01*
X3507272Y-10545214D02*
X3516796Y-10535691D01*
X3535843Y-10526167D01*
X3564415Y-10526167D01*
X3583462Y-10535691D01*
X3592986Y-10554738D01*
X3592986Y-10659500D01*
X3592986Y-10554738D02*
X3602510Y-10535691D01*
X3621558Y-10526167D01*
X3650129Y-10526167D01*
X3669177Y-10535691D01*
X3678701Y-10554738D01*
X3678701Y-10659500D01*
X4069177Y-10449976D02*
X3897748Y-10707119D01*
X4326320Y-10459500D02*
X4345367Y-10459500D01*
X4364415Y-10469024D01*
X4373939Y-10478548D01*
X4383463Y-10497595D01*
X4392986Y-10535691D01*
X4392986Y-10583310D01*
X4383463Y-10621405D01*
X4373939Y-10640453D01*
X4364415Y-10649976D01*
X4345367Y-10659500D01*
X4326320Y-10659500D01*
X4307272Y-10649976D01*
X4297748Y-10640453D01*
X4288224Y-10621405D01*
X4278701Y-10583310D01*
X4278701Y-10535691D01*
X4288224Y-10497595D01*
X4297748Y-10478548D01*
X4307272Y-10469024D01*
X4326320Y-10459500D01*
X4478701Y-10640453D02*
X4488224Y-10649976D01*
X4478701Y-10659500D01*
X4469177Y-10649976D01*
X4478701Y-10640453D01*
X4478701Y-10659500D01*
X4612034Y-10459500D02*
X4631082Y-10459500D01*
X4650129Y-10469024D01*
X4659653Y-10478548D01*
X4669177Y-10497595D01*
X4678701Y-10535691D01*
X4678701Y-10583310D01*
X4669177Y-10621405D01*
X4659653Y-10640453D01*
X4650129Y-10649976D01*
X4631082Y-10659500D01*
X4612034Y-10659500D01*
X4592986Y-10649976D01*
X4583463Y-10640453D01*
X4573939Y-10621405D01*
X4564415Y-10583310D01*
X4564415Y-10535691D01*
X4573939Y-10497595D01*
X4583463Y-10478548D01*
X4592986Y-10469024D01*
X4612034Y-10459500D01*
X4745367Y-10459500D02*
X4869177Y-10459500D01*
X4802510Y-10535691D01*
X4831082Y-10535691D01*
X4850129Y-10545214D01*
X4859653Y-10554738D01*
X4869177Y-10573786D01*
X4869177Y-10621405D01*
X4859653Y-10640453D01*
X4850129Y-10649976D01*
X4831082Y-10659500D01*
X4773939Y-10659500D01*
X4754891Y-10649976D01*
X4745367Y-10640453D01*
X4964415Y-10659500D02*
X5002510Y-10659500D01*
X5021558Y-10649976D01*
X5031082Y-10640453D01*
X5050129Y-10611881D01*
X5059653Y-10573786D01*
X5059653Y-10497595D01*
X5050129Y-10478548D01*
X5040605Y-10469024D01*
X5021558Y-10459500D01*
X4983463Y-10459500D01*
X4964415Y-10469024D01*
X4954891Y-10478548D01*
X4945367Y-10497595D01*
X4945367Y-10545214D01*
X4954891Y-10564262D01*
X4964415Y-10573786D01*
X4983463Y-10583310D01*
X5021558Y-10583310D01*
X5040605Y-10573786D01*
X5050129Y-10564262D01*
X5059653Y-10545214D01*
X5231082Y-10526167D02*
X5231082Y-10659500D01*
X5183463Y-10449976D02*
X5135843Y-10592834D01*
X5259653Y-10592834D01*
X5326320Y-10459500D02*
X5326320Y-10497595D01*
X5402510Y-10459500D02*
X5402510Y-10497595D01*
X5697748Y-10735691D02*
X5688224Y-10726167D01*
X5669177Y-10697595D01*
X5659653Y-10678548D01*
X5650129Y-10649976D01*
X5640605Y-10602357D01*
X5640605Y-10564262D01*
X5650129Y-10516643D01*
X5659653Y-10488072D01*
X5669177Y-10469024D01*
X5688224Y-10440453D01*
X5697748Y-10430929D01*
X5764415Y-10478548D02*
X5773939Y-10469024D01*
X5792986Y-10459500D01*
X5840605Y-10459500D01*
X5859653Y-10469024D01*
X5869177Y-10478548D01*
X5878701Y-10497595D01*
X5878701Y-10516643D01*
X5869177Y-10545214D01*
X5754891Y-10659500D01*
X5878701Y-10659500D01*
X6050129Y-10526167D02*
X6050129Y-10659500D01*
X6002510Y-10449976D02*
X5954891Y-10592834D01*
X6078701Y-10592834D01*
X6307272Y-10659500D02*
X6307272Y-10459500D01*
X6392986Y-10659500D02*
X6392986Y-10554738D01*
X6383462Y-10535691D01*
X6364415Y-10526167D01*
X6335843Y-10526167D01*
X6316796Y-10535691D01*
X6307272Y-10545214D01*
X6516796Y-10659500D02*
X6497748Y-10649976D01*
X6488224Y-10640453D01*
X6478701Y-10621405D01*
X6478701Y-10564262D01*
X6488224Y-10545214D01*
X6497748Y-10535691D01*
X6516796Y-10526167D01*
X6545367Y-10526167D01*
X6564415Y-10535691D01*
X6573939Y-10545214D01*
X6583462Y-10564262D01*
X6583462Y-10621405D01*
X6573939Y-10640453D01*
X6564415Y-10649976D01*
X6545367Y-10659500D01*
X6516796Y-10659500D01*
X6697748Y-10659500D02*
X6678701Y-10649976D01*
X6669177Y-10630929D01*
X6669177Y-10459500D01*
X6850129Y-10649976D02*
X6831081Y-10659500D01*
X6792986Y-10659500D01*
X6773939Y-10649976D01*
X6764415Y-10630929D01*
X6764415Y-10554738D01*
X6773939Y-10535691D01*
X6792986Y-10526167D01*
X6831081Y-10526167D01*
X6850129Y-10535691D01*
X6859653Y-10554738D01*
X6859653Y-10573786D01*
X6764415Y-10592834D01*
X6935843Y-10649976D02*
X6954891Y-10659500D01*
X6992986Y-10659500D01*
X7012034Y-10649976D01*
X7021558Y-10630929D01*
X7021558Y-10621405D01*
X7012034Y-10602357D01*
X6992986Y-10592834D01*
X6964415Y-10592834D01*
X6945367Y-10583310D01*
X6935843Y-10564262D01*
X6935843Y-10554738D01*
X6945367Y-10535691D01*
X6964415Y-10526167D01*
X6992986Y-10526167D01*
X7012034Y-10535691D01*
X7088224Y-10735691D02*
X7097748Y-10726167D01*
X7116796Y-10697595D01*
X7126320Y-10678548D01*
X7135843Y-10649976D01*
X7145367Y-10602357D01*
X7145367Y-10564262D01*
X7135843Y-10516643D01*
X7126320Y-10488072D01*
X7116796Y-10469024D01*
X7097748Y-10440453D01*
X7088224Y-10430929D01*
D13*
X2052343Y-10759524D02*
X2052343Y-10906524D01*
X1978843Y-10833024D02*
X2125844Y-10833024D01*
D10*
X2488224Y-10923500D02*
X2373939Y-10923500D01*
X2431082Y-10923500D02*
X2431082Y-10723500D01*
X2412034Y-10752072D01*
X2392986Y-10771119D01*
X2373939Y-10780643D01*
X2573939Y-10904453D02*
X2583463Y-10913976D01*
X2573939Y-10923500D01*
X2564415Y-10913976D01*
X2573939Y-10904453D01*
X2573939Y-10923500D01*
X2754891Y-10790167D02*
X2754891Y-10923500D01*
X2707272Y-10713976D02*
X2659653Y-10856834D01*
X2783463Y-10856834D01*
X2840605Y-10723500D02*
X2973939Y-10723500D01*
X2888224Y-10923500D01*
X3088224Y-10723500D02*
X3107272Y-10723500D01*
X3126320Y-10733024D01*
X3135843Y-10742548D01*
X3145367Y-10761595D01*
X3154891Y-10799691D01*
X3154891Y-10847310D01*
X3145367Y-10885405D01*
X3135843Y-10904453D01*
X3126320Y-10913976D01*
X3107272Y-10923500D01*
X3088224Y-10923500D01*
X3069177Y-10913976D01*
X3059653Y-10904453D01*
X3050129Y-10885405D01*
X3040605Y-10847310D01*
X3040605Y-10799691D01*
X3050129Y-10761595D01*
X3059653Y-10742548D01*
X3069177Y-10733024D01*
X3088224Y-10723500D01*
X3240605Y-10923500D02*
X3240605Y-10790167D01*
X3240605Y-10809214D02*
X3250129Y-10799691D01*
X3269177Y-10790167D01*
X3297748Y-10790167D01*
X3316796Y-10799691D01*
X3326320Y-10818738D01*
X3326320Y-10923500D01*
X3326320Y-10818738D02*
X3335843Y-10799691D01*
X3354891Y-10790167D01*
X3383462Y-10790167D01*
X3402510Y-10799691D01*
X3412034Y-10818738D01*
X3412034Y-10923500D01*
X3507272Y-10923500D02*
X3507272Y-10790167D01*
X3507272Y-10809214D02*
X3516796Y-10799691D01*
X3535843Y-10790167D01*
X3564415Y-10790167D01*
X3583462Y-10799691D01*
X3592986Y-10818738D01*
X3592986Y-10923500D01*
X3592986Y-10818738D02*
X3602510Y-10799691D01*
X3621558Y-10790167D01*
X3650129Y-10790167D01*
X3669177Y-10799691D01*
X3678701Y-10818738D01*
X3678701Y-10923500D01*
X4069177Y-10713976D02*
X3897748Y-10971119D01*
X4326320Y-10723500D02*
X4345367Y-10723500D01*
X4364415Y-10733024D01*
X4373939Y-10742548D01*
X4383463Y-10761595D01*
X4392986Y-10799691D01*
X4392986Y-10847310D01*
X4383463Y-10885405D01*
X4373939Y-10904453D01*
X4364415Y-10913976D01*
X4345367Y-10923500D01*
X4326320Y-10923500D01*
X4307272Y-10913976D01*
X4297748Y-10904453D01*
X4288224Y-10885405D01*
X4278701Y-10847310D01*
X4278701Y-10799691D01*
X4288224Y-10761595D01*
X4297748Y-10742548D01*
X4307272Y-10733024D01*
X4326320Y-10723500D01*
X4478701Y-10904453D02*
X4488224Y-10913976D01*
X4478701Y-10923500D01*
X4469177Y-10913976D01*
X4478701Y-10904453D01*
X4478701Y-10923500D01*
X4612034Y-10723500D02*
X4631082Y-10723500D01*
X4650129Y-10733024D01*
X4659653Y-10742548D01*
X4669177Y-10761595D01*
X4678701Y-10799691D01*
X4678701Y-10847310D01*
X4669177Y-10885405D01*
X4659653Y-10904453D01*
X4650129Y-10913976D01*
X4631082Y-10923500D01*
X4612034Y-10923500D01*
X4592986Y-10913976D01*
X4583463Y-10904453D01*
X4573939Y-10885405D01*
X4564415Y-10847310D01*
X4564415Y-10799691D01*
X4573939Y-10761595D01*
X4583463Y-10742548D01*
X4592986Y-10733024D01*
X4612034Y-10723500D01*
X4859653Y-10723500D02*
X4764415Y-10723500D01*
X4754891Y-10818738D01*
X4764415Y-10809214D01*
X4783463Y-10799691D01*
X4831082Y-10799691D01*
X4850129Y-10809214D01*
X4859653Y-10818738D01*
X4869177Y-10837786D01*
X4869177Y-10885405D01*
X4859653Y-10904453D01*
X4850129Y-10913976D01*
X4831082Y-10923500D01*
X4783463Y-10923500D01*
X4764415Y-10913976D01*
X4754891Y-10904453D01*
X4935843Y-10723500D02*
X5069177Y-10723500D01*
X4983463Y-10923500D01*
X5154891Y-10923500D02*
X5192986Y-10923500D01*
X5212034Y-10913976D01*
X5221558Y-10904453D01*
X5240605Y-10875881D01*
X5250129Y-10837786D01*
X5250129Y-10761595D01*
X5240605Y-10742548D01*
X5231082Y-10733024D01*
X5212034Y-10723500D01*
X5173939Y-10723500D01*
X5154891Y-10733024D01*
X5145367Y-10742548D01*
X5135843Y-10761595D01*
X5135843Y-10809214D01*
X5145367Y-10828262D01*
X5154891Y-10837786D01*
X5173939Y-10847310D01*
X5212034Y-10847310D01*
X5231082Y-10837786D01*
X5240605Y-10828262D01*
X5250129Y-10809214D01*
X5326320Y-10723500D02*
X5326320Y-10761595D01*
X5402510Y-10723500D02*
X5402510Y-10761595D01*
X5697748Y-10999691D02*
X5688224Y-10990167D01*
X5669177Y-10961595D01*
X5659653Y-10942548D01*
X5650129Y-10913976D01*
X5640605Y-10866357D01*
X5640605Y-10828262D01*
X5650129Y-10780643D01*
X5659653Y-10752072D01*
X5669177Y-10733024D01*
X5688224Y-10704453D01*
X5697748Y-10694929D01*
X5764415Y-10742548D02*
X5773939Y-10733024D01*
X5792986Y-10723500D01*
X5840605Y-10723500D01*
X5859653Y-10733024D01*
X5869177Y-10742548D01*
X5878701Y-10761595D01*
X5878701Y-10780643D01*
X5869177Y-10809214D01*
X5754891Y-10923500D01*
X5878701Y-10923500D01*
X5992986Y-10809214D02*
X5973939Y-10799691D01*
X5964415Y-10790167D01*
X5954891Y-10771119D01*
X5954891Y-10761595D01*
X5964415Y-10742548D01*
X5973939Y-10733024D01*
X5992986Y-10723500D01*
X6031081Y-10723500D01*
X6050129Y-10733024D01*
X6059653Y-10742548D01*
X6069177Y-10761595D01*
X6069177Y-10771119D01*
X6059653Y-10790167D01*
X6050129Y-10799691D01*
X6031081Y-10809214D01*
X5992986Y-10809214D01*
X5973939Y-10818738D01*
X5964415Y-10828262D01*
X5954891Y-10847310D01*
X5954891Y-10885405D01*
X5964415Y-10904453D01*
X5973939Y-10913976D01*
X5992986Y-10923500D01*
X6031081Y-10923500D01*
X6050129Y-10913976D01*
X6059653Y-10904453D01*
X6069177Y-10885405D01*
X6069177Y-10847310D01*
X6059653Y-10828262D01*
X6050129Y-10818738D01*
X6031081Y-10809214D01*
X6307272Y-10923500D02*
X6307272Y-10723500D01*
X6392986Y-10923500D02*
X6392986Y-10818738D01*
X6383462Y-10799691D01*
X6364415Y-10790167D01*
X6335843Y-10790167D01*
X6316796Y-10799691D01*
X6307272Y-10809214D01*
X6516796Y-10923500D02*
X6497748Y-10913976D01*
X6488224Y-10904453D01*
X6478701Y-10885405D01*
X6478701Y-10828262D01*
X6488224Y-10809214D01*
X6497748Y-10799691D01*
X6516796Y-10790167D01*
X6545367Y-10790167D01*
X6564415Y-10799691D01*
X6573939Y-10809214D01*
X6583462Y-10828262D01*
X6583462Y-10885405D01*
X6573939Y-10904453D01*
X6564415Y-10913976D01*
X6545367Y-10923500D01*
X6516796Y-10923500D01*
X6697748Y-10923500D02*
X6678701Y-10913976D01*
X6669177Y-10894929D01*
X6669177Y-10723500D01*
X6850129Y-10913976D02*
X6831081Y-10923500D01*
X6792986Y-10923500D01*
X6773939Y-10913976D01*
X6764415Y-10894929D01*
X6764415Y-10818738D01*
X6773939Y-10799691D01*
X6792986Y-10790167D01*
X6831081Y-10790167D01*
X6850129Y-10799691D01*
X6859653Y-10818738D01*
X6859653Y-10837786D01*
X6764415Y-10856834D01*
X6935843Y-10913976D02*
X6954891Y-10923500D01*
X6992986Y-10923500D01*
X7012034Y-10913976D01*
X7021558Y-10894929D01*
X7021558Y-10885405D01*
X7012034Y-10866357D01*
X6992986Y-10856834D01*
X6964415Y-10856834D01*
X6945367Y-10847310D01*
X6935843Y-10828262D01*
X6935843Y-10818738D01*
X6945367Y-10799691D01*
X6964415Y-10790167D01*
X6992986Y-10790167D01*
X7012034Y-10799691D01*
X7088224Y-10999691D02*
X7097748Y-10990167D01*
X7116796Y-10961595D01*
X7126320Y-10942548D01*
X7135843Y-10913976D01*
X7145367Y-10866357D01*
X7145367Y-10828262D01*
X7135843Y-10780643D01*
X7126320Y-10752072D01*
X7116796Y-10733024D01*
X7097748Y-10704453D01*
X7088224Y-10694929D01*
X2096555Y-11170735D02*
X2096555Y-11029313D01*
X1955132Y-11029313D01*
X1955132Y-11170735D01*
X2096555Y-11170735D01*
X2373939Y-11009548D02*
X2383463Y-11000024D01*
X2402510Y-10990500D01*
X2450129Y-10990500D01*
X2469177Y-11000024D01*
X2478701Y-11009548D01*
X2488224Y-11028595D01*
X2488224Y-11047643D01*
X2478701Y-11076214D01*
X2364415Y-11190500D01*
X2488224Y-11190500D01*
X2573939Y-11171453D02*
X2583463Y-11180976D01*
X2573939Y-11190500D01*
X2564415Y-11180976D01*
X2573939Y-11171453D01*
X2573939Y-11190500D01*
X2659653Y-11009548D02*
X2669177Y-11000024D01*
X2688224Y-10990500D01*
X2735844Y-10990500D01*
X2754891Y-11000024D01*
X2764415Y-11009548D01*
X2773939Y-11028595D01*
X2773939Y-11047643D01*
X2764415Y-11076214D01*
X2650129Y-11190500D01*
X2773939Y-11190500D01*
X2897748Y-10990500D02*
X2916796Y-10990500D01*
X2935843Y-11000024D01*
X2945367Y-11009548D01*
X2954891Y-11028595D01*
X2964415Y-11066691D01*
X2964415Y-11114310D01*
X2954891Y-11152405D01*
X2945367Y-11171453D01*
X2935843Y-11180976D01*
X2916796Y-11190500D01*
X2897748Y-11190500D01*
X2878701Y-11180976D01*
X2869177Y-11171453D01*
X2859653Y-11152405D01*
X2850129Y-11114310D01*
X2850129Y-11066691D01*
X2859653Y-11028595D01*
X2869177Y-11009548D01*
X2878701Y-11000024D01*
X2897748Y-10990500D01*
X3088224Y-10990500D02*
X3107272Y-10990500D01*
X3126320Y-11000024D01*
X3135843Y-11009548D01*
X3145367Y-11028595D01*
X3154891Y-11066691D01*
X3154891Y-11114310D01*
X3145367Y-11152405D01*
X3135843Y-11171453D01*
X3126320Y-11180976D01*
X3107272Y-11190500D01*
X3088224Y-11190500D01*
X3069177Y-11180976D01*
X3059653Y-11171453D01*
X3050129Y-11152405D01*
X3040605Y-11114310D01*
X3040605Y-11066691D01*
X3050129Y-11028595D01*
X3059653Y-11009548D01*
X3069177Y-11000024D01*
X3088224Y-10990500D01*
X3240605Y-11190500D02*
X3240605Y-11057167D01*
X3240605Y-11076214D02*
X3250129Y-11066691D01*
X3269177Y-11057167D01*
X3297748Y-11057167D01*
X3316796Y-11066691D01*
X3326320Y-11085738D01*
X3326320Y-11190500D01*
X3326320Y-11085738D02*
X3335843Y-11066691D01*
X3354891Y-11057167D01*
X3383462Y-11057167D01*
X3402510Y-11066691D01*
X3412034Y-11085738D01*
X3412034Y-11190500D01*
X3507272Y-11190500D02*
X3507272Y-11057167D01*
X3507272Y-11076214D02*
X3516796Y-11066691D01*
X3535843Y-11057167D01*
X3564415Y-11057167D01*
X3583462Y-11066691D01*
X3592986Y-11085738D01*
X3592986Y-11190500D01*
X3592986Y-11085738D02*
X3602510Y-11066691D01*
X3621558Y-11057167D01*
X3650129Y-11057167D01*
X3669177Y-11066691D01*
X3678701Y-11085738D01*
X3678701Y-11190500D01*
X4069177Y-10980976D02*
X3897748Y-11238119D01*
X4326320Y-10990500D02*
X4345367Y-10990500D01*
X4364415Y-11000024D01*
X4373939Y-11009548D01*
X4383463Y-11028595D01*
X4392986Y-11066691D01*
X4392986Y-11114310D01*
X4383463Y-11152405D01*
X4373939Y-11171453D01*
X4364415Y-11180976D01*
X4345367Y-11190500D01*
X4326320Y-11190500D01*
X4307272Y-11180976D01*
X4297748Y-11171453D01*
X4288224Y-11152405D01*
X4278701Y-11114310D01*
X4278701Y-11066691D01*
X4288224Y-11028595D01*
X4297748Y-11009548D01*
X4307272Y-11000024D01*
X4326320Y-10990500D01*
X4478701Y-11171453D02*
X4488224Y-11180976D01*
X4478701Y-11190500D01*
X4469177Y-11180976D01*
X4478701Y-11171453D01*
X4478701Y-11190500D01*
X4612034Y-10990500D02*
X4631082Y-10990500D01*
X4650129Y-11000024D01*
X4659653Y-11009548D01*
X4669177Y-11028595D01*
X4678701Y-11066691D01*
X4678701Y-11114310D01*
X4669177Y-11152405D01*
X4659653Y-11171453D01*
X4650129Y-11180976D01*
X4631082Y-11190500D01*
X4612034Y-11190500D01*
X4592986Y-11180976D01*
X4583463Y-11171453D01*
X4573939Y-11152405D01*
X4564415Y-11114310D01*
X4564415Y-11066691D01*
X4573939Y-11028595D01*
X4583463Y-11009548D01*
X4592986Y-11000024D01*
X4612034Y-10990500D01*
X4792986Y-11076214D02*
X4773939Y-11066691D01*
X4764415Y-11057167D01*
X4754891Y-11038119D01*
X4754891Y-11028595D01*
X4764415Y-11009548D01*
X4773939Y-11000024D01*
X4792986Y-10990500D01*
X4831082Y-10990500D01*
X4850129Y-11000024D01*
X4859653Y-11009548D01*
X4869177Y-11028595D01*
X4869177Y-11038119D01*
X4859653Y-11057167D01*
X4850129Y-11066691D01*
X4831082Y-11076214D01*
X4792986Y-11076214D01*
X4773939Y-11085738D01*
X4764415Y-11095262D01*
X4754891Y-11114310D01*
X4754891Y-11152405D01*
X4764415Y-11171453D01*
X4773939Y-11180976D01*
X4792986Y-11190500D01*
X4831082Y-11190500D01*
X4850129Y-11180976D01*
X4859653Y-11171453D01*
X4869177Y-11152405D01*
X4869177Y-11114310D01*
X4859653Y-11095262D01*
X4850129Y-11085738D01*
X4831082Y-11076214D01*
X5040605Y-10990500D02*
X5002510Y-10990500D01*
X4983463Y-11000024D01*
X4973939Y-11009548D01*
X4954891Y-11038119D01*
X4945367Y-11076214D01*
X4945367Y-11152405D01*
X4954891Y-11171453D01*
X4964415Y-11180976D01*
X4983463Y-11190500D01*
X5021558Y-11190500D01*
X5040605Y-11180976D01*
X5050129Y-11171453D01*
X5059653Y-11152405D01*
X5059653Y-11104786D01*
X5050129Y-11085738D01*
X5040605Y-11076214D01*
X5021558Y-11066691D01*
X4983463Y-11066691D01*
X4964415Y-11076214D01*
X4954891Y-11085738D01*
X4945367Y-11104786D01*
X5231082Y-10990500D02*
X5192986Y-10990500D01*
X5173939Y-11000024D01*
X5164415Y-11009548D01*
X5145367Y-11038119D01*
X5135843Y-11076214D01*
X5135843Y-11152405D01*
X5145367Y-11171453D01*
X5154891Y-11180976D01*
X5173939Y-11190500D01*
X5212034Y-11190500D01*
X5231082Y-11180976D01*
X5240605Y-11171453D01*
X5250129Y-11152405D01*
X5250129Y-11104786D01*
X5240605Y-11085738D01*
X5231082Y-11076214D01*
X5212034Y-11066691D01*
X5173939Y-11066691D01*
X5154891Y-11076214D01*
X5145367Y-11085738D01*
X5135843Y-11104786D01*
X5326320Y-10990500D02*
X5326320Y-11028595D01*
X5402510Y-10990500D02*
X5402510Y-11028595D01*
X5697748Y-11266691D02*
X5688224Y-11257167D01*
X5669177Y-11228595D01*
X5659653Y-11209548D01*
X5650129Y-11180976D01*
X5640605Y-11133357D01*
X5640605Y-11095262D01*
X5650129Y-11047643D01*
X5659653Y-11019072D01*
X5669177Y-11000024D01*
X5688224Y-10971453D01*
X5697748Y-10961929D01*
X5878701Y-11190500D02*
X5764415Y-11190500D01*
X5821558Y-11190500D02*
X5821558Y-10990500D01*
X5802510Y-11019072D01*
X5783462Y-11038119D01*
X5764415Y-11047643D01*
X5973939Y-11190500D02*
X6012034Y-11190500D01*
X6031081Y-11180976D01*
X6040605Y-11171453D01*
X6059653Y-11142881D01*
X6069177Y-11104786D01*
X6069177Y-11028595D01*
X6059653Y-11009548D01*
X6050129Y-11000024D01*
X6031081Y-10990500D01*
X5992986Y-10990500D01*
X5973939Y-11000024D01*
X5964415Y-11009548D01*
X5954891Y-11028595D01*
X5954891Y-11076214D01*
X5964415Y-11095262D01*
X5973939Y-11104786D01*
X5992986Y-11114310D01*
X6031081Y-11114310D01*
X6050129Y-11104786D01*
X6059653Y-11095262D01*
X6069177Y-11076214D01*
X6307272Y-11190500D02*
X6307272Y-10990500D01*
X6392986Y-11190500D02*
X6392986Y-11085738D01*
X6383462Y-11066691D01*
X6364415Y-11057167D01*
X6335843Y-11057167D01*
X6316796Y-11066691D01*
X6307272Y-11076214D01*
X6516796Y-11190500D02*
X6497748Y-11180976D01*
X6488224Y-11171453D01*
X6478701Y-11152405D01*
X6478701Y-11095262D01*
X6488224Y-11076214D01*
X6497748Y-11066691D01*
X6516796Y-11057167D01*
X6545367Y-11057167D01*
X6564415Y-11066691D01*
X6573939Y-11076214D01*
X6583462Y-11095262D01*
X6583462Y-11152405D01*
X6573939Y-11171453D01*
X6564415Y-11180976D01*
X6545367Y-11190500D01*
X6516796Y-11190500D01*
X6697748Y-11190500D02*
X6678701Y-11180976D01*
X6669177Y-11161929D01*
X6669177Y-10990500D01*
X6850129Y-11180976D02*
X6831081Y-11190500D01*
X6792986Y-11190500D01*
X6773939Y-11180976D01*
X6764415Y-11161929D01*
X6764415Y-11085738D01*
X6773939Y-11066691D01*
X6792986Y-11057167D01*
X6831081Y-11057167D01*
X6850129Y-11066691D01*
X6859653Y-11085738D01*
X6859653Y-11104786D01*
X6764415Y-11123834D01*
X6935843Y-11180976D02*
X6954891Y-11190500D01*
X6992986Y-11190500D01*
X7012034Y-11180976D01*
X7021558Y-11161929D01*
X7021558Y-11152405D01*
X7012034Y-11133357D01*
X6992986Y-11123834D01*
X6964415Y-11123834D01*
X6945367Y-11114310D01*
X6935843Y-11095262D01*
X6935843Y-11085738D01*
X6945367Y-11066691D01*
X6964415Y-11057167D01*
X6992986Y-11057167D01*
X7012034Y-11066691D01*
X7088224Y-11266691D02*
X7097748Y-11257167D01*
X7116796Y-11228595D01*
X7126320Y-11209548D01*
X7135843Y-11180976D01*
X7145367Y-11133357D01*
X7145367Y-11095262D01*
X7135843Y-11047643D01*
X7126320Y-11019072D01*
X7116796Y-11000024D01*
X7097748Y-10971453D01*
X7088224Y-10961929D01*
M02*
