M48
; DRILL file {KiCad 7.0.1-0} date 2023 May 14, Sunday 12:25:02
; FORMAT={-:-/ absolute / metric / decimal}
; #@! TF.CreationDate,2023-05-14T12:25:02+09:00
; #@! TF.GenerationSoftware,Kicad,Pcbnew,7.0.1-0
; #@! TF.FileFunction,Plated,1,2,PTH
FMAT,2
METRIC
; #@! TA.AperFunction,Plated,PTH,ViaDrill
T1C0.400
; #@! TA.AperFunction,Plated,PTH,ComponentDrill
T2C1.000
; #@! TA.AperFunction,Plated,PTH,ComponentDrill
T3C2.200
%
G90
G05
T1
X22.249Y-28.194
X22.249Y-40.1
X22.249Y-52.007
X28.202Y-22.241
X28.202Y-56.769
X40.108Y-22.241
X40.108Y-38.91
X40.108Y-52.007
X41.299Y-41.291
X47.252Y-56.769
X50.824Y-40.1
X52.015Y-52.007
X52.058Y-37.05
X52.073Y-47.085
X53.205Y-40.1
X58.258Y-38.25
X59.158Y-22.241
X59.158Y-34.35
X66.302Y-41.291
X66.302Y-56.769
X69.874Y-37.91
X78.058Y-22.25
X87.158Y-34.35
X88.924Y-37.91
X90.458Y-35.05
X97.258Y-22.241
X99.858Y-25.65
X104.858Y-38.05
X106.158Y-27.05
X107.858Y-31.85
X108.058Y-40.65
X108.858Y-49.45
X109.165Y-56.769
X109.223Y-47.085
X110.258Y-32.35
X111.258Y-30.45
X113.258Y-26.85
X115.858Y-43.85
X116.308Y-22.241
X117.411Y-36.943
X118.058Y-36.262
X118.458Y-35.05
X118.658Y-42.05
X119.358Y-26.85
X122.262Y-56.769
X124.458Y-48.05
X124.658Y-29.05
X126.858Y-43.25
X127.658Y-30.25
X128.215Y-59.15
X128.215Y-75.819
X128.273Y-66.16
X130.258Y-57.96
X131.258Y-60.45
X132.056Y-22.241
X132.958Y-50.6
X132.977Y-32.957
X132.977Y-41.291
X136.458Y-60.45
X136.549Y-53.197
X136.858Y-30.05
X137.74Y-81.772
X137.74Y-92.45
X137.858Y-85.25
X138.66Y-22.241
X139.658Y-66.65
X141.658Y-73.85
X142.305Y-74.65
X147.358Y-66.15
X147.96Y-73.267
X148.058Y-53.197
X148.82Y-75.914
X149.658Y-26.85
X150.837Y-61.532
X152.63Y-70.961
X152.884Y-79.566
X154.408Y-92.45
X154.858Y-30.05
X157.351Y-67.374
X160.362Y-22.241
X162.058Y-76.25
X162.458Y-82.65
X163.258Y-78.85
X163.933Y-61.532
X167.505Y-22.241
X171.058Y-76.25
X172.442Y-65.596
X173.458Y-92.45
X173.976Y-30.05
X174.658Y-77.75
X175.458Y-78.461
X175.988Y-85.25
X176.971Y-74.563
X177.03Y-61.532
X178.458Y-26.85
X178.658Y-73.897
X179.658Y-53.45
X182.545Y-75.921
X182.962Y-67.681
X183.999Y-71.596
X186.658Y-85.25
X189.206Y-22.241
X190.058Y-92.45
X190.984Y-80.74
X191.318Y-53.197
X191.746Y-76.422
X192.0Y-63.722
X192.158Y-59.35
X192.258Y-30.25
X193.258Y-59.15
X193.391Y-28.067
X194.658Y-51.05
X194.858Y-41.85
X195.81Y-22.241
X197.115Y-52.133
X198.808Y-55.85
X199.458Y-36.028
X199.652Y-59.15
X199.652Y-75.819
X200.858Y-40.45
X202.858Y-35.85
X204.258Y-49.45
X204.473Y-47.085
X205.605Y-56.769
X206.058Y-43.05
X208.258Y-37.05
X208.658Y-27.05
X208.888Y-41.25
X209.658Y-41.85
X210.368Y-41.291
X211.058Y-30.575
X211.558Y-22.241
X211.658Y-35.65
X214.458Y-27.05
X216.458Y-30.575
X216.658Y-29.154
X218.702Y-40.1
X218.702Y-56.769
X223.258Y-27.25
X223.465Y-38.068
X230.608Y-22.241
X240.006Y-38.068
X240.133Y-30.575
X240.258Y-26.25
X249.658Y-22.25
X256.802Y-38.068
X259.183Y-30.575
X260.374Y-44.863
X260.374Y-49.625
X261.565Y-56.769
X261.658Y-27.494
X261.658Y-47.05
X262.258Y-28.45
X262.258Y-41.291
X263.658Y-28.05
X268.708Y-22.241
X274.662Y-40.1
X276.458Y-51.65
X279.424Y-28.194
X279.424Y-30.575
X282.996Y-56.769
X287.758Y-22.241
X288.949Y-40.1
X299.658Y-22.25
X299.665Y-56.769
X304.427Y-28.194
X304.427Y-52.007
X304.658Y-40.1
T2
X49.633Y-37.719
X55.587Y-37.719
X102.021Y-24.622
X105.593Y-24.622
X109.165Y-24.622
X128.015Y-45.244
X128.015Y-49.244
X129.915Y-46.244
X129.915Y-48.244
X182.983Y-24.622
X186.555Y-24.622
X197.158Y-35.528
X197.158Y-37.528
X197.158Y-46.244
X197.158Y-48.244
X199.058Y-34.528
X199.058Y-38.528
X199.058Y-45.244
X199.058Y-49.244
X200.843Y-24.622
X204.415Y-24.622
X218.702Y-24.622
X222.274Y-24.622
X225.846Y-24.622
T3
X24.63Y-24.134
X24.63Y-55.588
X40.108Y-31.766
X78.208Y-31.766
X97.258Y-31.766
X125.833Y-55.578
X135.358Y-24.134
X138.93Y-78.2
X144.883Y-55.578
X163.933Y-24.134
X182.983Y-55.578
X188.937Y-78.2
X192.508Y-24.134
X202.033Y-55.625
X230.608Y-31.766
X249.658Y-31.766
X287.758Y-31.766
X303.237Y-24.134
X303.237Y-55.588
T0
M30
