G04 #@! TF.GenerationSoftware,KiCad,Pcbnew,7.0.1-0*
G04 #@! TF.CreationDate,2023-05-14T12:25:00+09:00*
G04 #@! TF.ProjectId,Sandy_Middle,53616e64-795f-44d6-9964-646c652e6b69,v.0*
G04 #@! TF.SameCoordinates,Original*
G04 #@! TF.FileFunction,Legend,Top*
G04 #@! TF.FilePolarity,Positive*
%FSLAX46Y46*%
G04 Gerber Fmt 4.6, Leading zero omitted, Abs format (unit mm)*
G04 Created by KiCad (PCBNEW 7.0.1-0) date 2023-05-14 12:25:00*
%MOMM*%
%LPD*%
G01*
G04 APERTURE LIST*
%ADD10C,0.400000*%
%ADD11C,0.120000*%
%ADD12C,4.800000*%
%ADD13C,2.150000*%
%ADD14C,3.400000*%
%ADD15C,4.387800*%
%ADD16C,6.496000*%
%ADD17O,2.100000X2.100000*%
%ADD18C,2.400000*%
G04 APERTURE END LIST*
D10*
X80494435Y-30337299D02*
G75*
G03*
X75922435Y-30337299I-2286000J-1435606D01*
G01*
X300950560Y-25562136D02*
G75*
G03*
X305522560Y-25562136I2286000J1435606D01*
G01*
X204319435Y-54196674D02*
G75*
G03*
X199747435Y-54196674I-2286000J-1435606D01*
G01*
X305522560Y-54159174D02*
G75*
G03*
X300950560Y-54159174I-2286000J-1435606D01*
G01*
X141216310Y-76771674D02*
G75*
G03*
X136644310Y-76771674I-2286000J-1435606D01*
G01*
X251944435Y-30337299D02*
G75*
G03*
X247372435Y-30337299I-2286000J-1435606D01*
G01*
X191222560Y-76771674D02*
G75*
G03*
X186650560Y-76771674I-2286000J-1435606D01*
G01*
X26916310Y-54159174D02*
G75*
G03*
X22344310Y-54159174I-2286000J-1435606D01*
G01*
X161647435Y-25562136D02*
G75*
G03*
X166219435Y-25562136I2286000J1435606D01*
G01*
X128119435Y-54149799D02*
G75*
G03*
X123547435Y-54149799I-2286000J-1435606D01*
G01*
X22344310Y-25562136D02*
G75*
G03*
X26916310Y-25562136I2286000J1435606D01*
G01*
D11*
X200643435Y-50354030D02*
X199643435Y-50354030D01*
X200643435Y-49304030D01*
X200643435Y-50354030D01*
G36*
X200643435Y-50354030D02*
G01*
X199643435Y-50354030D01*
X200643435Y-49304030D01*
X200643435Y-50354030D01*
G37*
X126429685Y-45184030D02*
X126429685Y-44134030D01*
X127429685Y-44134030D01*
X126429685Y-45184030D01*
G36*
X126429685Y-45184030D02*
G01*
X126429685Y-44134030D01*
X127429685Y-44134030D01*
X126429685Y-45184030D01*
G37*
X200643435Y-39638405D02*
X199643435Y-39638405D01*
X200643435Y-38588405D01*
X200643435Y-39638405D01*
G36*
X200643435Y-39638405D02*
G01*
X199643435Y-39638405D01*
X200643435Y-38588405D01*
X200643435Y-39638405D01*
G37*
%LPC*%
D12*
X78208435Y-31765905D03*
X303236560Y-24133530D03*
D13*
X177903435Y-87725280D03*
D14*
X179173435Y-85185280D03*
D15*
X182983435Y-87725280D03*
D14*
X185523435Y-82645280D03*
D13*
X188063435Y-87725280D03*
D12*
X202033435Y-55625280D03*
D16*
X46585435Y-49244280D03*
D13*
X206478435Y-49625280D03*
D14*
X207748435Y-47085280D03*
D15*
X211558435Y-49625280D03*
D14*
X214098435Y-44545280D03*
D13*
X216638435Y-49625280D03*
X187428435Y-68675280D03*
D14*
X188698435Y-66135280D03*
D15*
X192508435Y-68675280D03*
D14*
X195048435Y-63595280D03*
D13*
X197588435Y-68675280D03*
X130278435Y-68700320D03*
D14*
X131548435Y-66160320D03*
D15*
X135358435Y-68700320D03*
D14*
X137898435Y-63620320D03*
D13*
X140438435Y-68700320D03*
D12*
X303236560Y-55587780D03*
D13*
X168378435Y-68675280D03*
D14*
X169648435Y-66135280D03*
D15*
X173458435Y-68675280D03*
D14*
X175998435Y-63595280D03*
D13*
X178538435Y-68675280D03*
D12*
X138930310Y-78200280D03*
D13*
X149328435Y-68675280D03*
D14*
X150598435Y-66135280D03*
D15*
X154408435Y-68675280D03*
D14*
X156948435Y-63595280D03*
D13*
X159488435Y-68675280D03*
X263628435Y-49625280D03*
D14*
X264898435Y-47085280D03*
D15*
X268708435Y-49625280D03*
D14*
X271248435Y-44545280D03*
D13*
X273788435Y-49625280D03*
D12*
X249658435Y-31765905D03*
X188936560Y-78200280D03*
X24630310Y-55587780D03*
D13*
X111228435Y-49625280D03*
D14*
X112498435Y-47085280D03*
D15*
X116308435Y-49625280D03*
D14*
X118848435Y-44545280D03*
D13*
X121388435Y-49625280D03*
D12*
X163933435Y-24133530D03*
X125833435Y-55578405D03*
X24630310Y-24133530D03*
D13*
X139803435Y-87725280D03*
D14*
X141073435Y-85185280D03*
D15*
X144883435Y-87725280D03*
D14*
X147423435Y-82645280D03*
D13*
X149963435Y-87725280D03*
X158853435Y-87725280D03*
D14*
X160123435Y-85185280D03*
D15*
X163933435Y-87725280D03*
D14*
X166473435Y-82645280D03*
D13*
X169013435Y-87725280D03*
X30265935Y-49625280D03*
D14*
X31535935Y-47085280D03*
D15*
X35345935Y-49625280D03*
D14*
X37885935Y-44545280D03*
D13*
X40425935Y-49625280D03*
X54078435Y-49625280D03*
D14*
X55348435Y-47085280D03*
D15*
X59158435Y-49625280D03*
D14*
X61698435Y-44545280D03*
D13*
X64238435Y-49625280D03*
X287440935Y-49625280D03*
D14*
X288710935Y-47085280D03*
D15*
X292520935Y-49625280D03*
D14*
X295060935Y-44545280D03*
D13*
X297600935Y-49625280D03*
D17*
X199058435Y-49244030D03*
X197158435Y-48244030D03*
X197158435Y-46244030D03*
X199058435Y-45244030D03*
D18*
X182983435Y-24622155D03*
D12*
X192508435Y-24133530D03*
D18*
X102020935Y-24622155D03*
X55586560Y-37719030D03*
D12*
X144883435Y-55578405D03*
X40108435Y-31765905D03*
D18*
X105592810Y-24622155D03*
D12*
X135358435Y-24133530D03*
D18*
X49633435Y-37719030D03*
X218702185Y-24622155D03*
D12*
X97258435Y-31765905D03*
X182983435Y-55578405D03*
D17*
X128014685Y-45244030D03*
X129914685Y-46244030D03*
X129914685Y-48244030D03*
X128014685Y-49244030D03*
D12*
X230608435Y-31765905D03*
D17*
X199058435Y-38528405D03*
X197158435Y-37528405D03*
X197158435Y-35528405D03*
X199058435Y-34528405D03*
D18*
X186555310Y-24622155D03*
X204414685Y-24622155D03*
X225845935Y-24622155D03*
X109164685Y-24622155D03*
X200842810Y-24622155D03*
D12*
X287758435Y-31765905D03*
D18*
X222274060Y-24622155D03*
M02*
