G04 #@! TF.GenerationSoftware,KiCad,Pcbnew,7.0.1-0*
G04 #@! TF.CreationDate,2023-04-11T07:51:07+09:00*
G04 #@! TF.ProjectId,Sandy_Middle,53616e64-795f-44d6-9964-646c652e6b69,v.0*
G04 #@! TF.SameCoordinates,Original*
G04 #@! TF.FileFunction,Soldermask,Top*
G04 #@! TF.FilePolarity,Negative*
%FSLAX46Y46*%
G04 Gerber Fmt 4.6, Leading zero omitted, Abs format (unit mm)*
G04 Created by KiCad (PCBNEW 7.0.1-0) date 2023-04-11 07:51:07*
%MOMM*%
%LPD*%
G01*
G04 APERTURE LIST*
%ADD10C,4.800000*%
%ADD11C,2.150000*%
%ADD12C,3.400000*%
%ADD13C,4.387800*%
%ADD14C,6.496000*%
%ADD15O,8.781998X5.734000*%
%ADD16O,2.100000X2.100000*%
%ADD17C,2.400000*%
G04 APERTURE END LIST*
D10*
X78208435Y-31765905D03*
X303236560Y-24133530D03*
D11*
X177903435Y-87725280D03*
D12*
X179173435Y-85185280D03*
D13*
X182983435Y-87725280D03*
D12*
X185523435Y-82645280D03*
D11*
X188063435Y-87725280D03*
D10*
X202033435Y-55625280D03*
D14*
X46585435Y-49244280D03*
D15*
X281408435Y-49251780D03*
D11*
X206478435Y-49625280D03*
D12*
X207748435Y-47085280D03*
D13*
X211558435Y-49625280D03*
D12*
X214098435Y-44545280D03*
D11*
X216638435Y-49625280D03*
X187428435Y-68675280D03*
D12*
X188698435Y-66135280D03*
D13*
X192508435Y-68675280D03*
D12*
X195048435Y-63595280D03*
D11*
X197588435Y-68675280D03*
X130278435Y-68700320D03*
D12*
X131548435Y-66160320D03*
D13*
X135358435Y-68700320D03*
D12*
X137898435Y-63620320D03*
D11*
X140438435Y-68700320D03*
D10*
X303236560Y-55587780D03*
D11*
X168378435Y-68675280D03*
D12*
X169648435Y-66135280D03*
D13*
X173458435Y-68675280D03*
D12*
X175998435Y-63595280D03*
D11*
X178538435Y-68675280D03*
D10*
X138930310Y-78200280D03*
D11*
X149328435Y-68675280D03*
D12*
X150598435Y-66135280D03*
D13*
X154408435Y-68675280D03*
D12*
X156948435Y-63595280D03*
D11*
X159488435Y-68675280D03*
X263628435Y-49625280D03*
D12*
X264898435Y-47085280D03*
D13*
X268708435Y-49625280D03*
D12*
X271248435Y-44545280D03*
D11*
X273788435Y-49625280D03*
D10*
X249658435Y-31765905D03*
X188936560Y-78200280D03*
X24630310Y-55587780D03*
D11*
X111228435Y-49625280D03*
D12*
X112498435Y-47085280D03*
D13*
X116308435Y-49625280D03*
D12*
X118848435Y-44545280D03*
D11*
X121388435Y-49625280D03*
D10*
X163933435Y-24133530D03*
X125833435Y-55578405D03*
X24630310Y-24133530D03*
D11*
X139803435Y-87725280D03*
D12*
X141073435Y-85185280D03*
D13*
X144883435Y-87725280D03*
D12*
X147423435Y-82645280D03*
D11*
X149963435Y-87725280D03*
X158853435Y-87725280D03*
D12*
X160123435Y-85185280D03*
D13*
X163933435Y-87725280D03*
D12*
X166473435Y-82645280D03*
D11*
X169013435Y-87725280D03*
X30265935Y-49625280D03*
D12*
X31535935Y-47085280D03*
D13*
X35345935Y-49625280D03*
D12*
X37885935Y-44545280D03*
D11*
X40425935Y-49625280D03*
X54078435Y-49625280D03*
D12*
X55348435Y-47085280D03*
D13*
X59158435Y-49625280D03*
D12*
X61698435Y-44545280D03*
D11*
X64238435Y-49625280D03*
X297600935Y-49625280D03*
D12*
X296330935Y-52165280D03*
D13*
X292520935Y-49625280D03*
D12*
X289980935Y-54705280D03*
D11*
X287440935Y-49625280D03*
D16*
X199852185Y-49244030D03*
X197952185Y-48244030D03*
X197952185Y-46244030D03*
X199852185Y-45244030D03*
D17*
X182983435Y-24622155D03*
D10*
X192508435Y-24133530D03*
D17*
X102020935Y-24622155D03*
X55586560Y-37719030D03*
D10*
X144883435Y-55578405D03*
X40108435Y-31765905D03*
D17*
X105592810Y-24622155D03*
D10*
X135358435Y-24133530D03*
D17*
X52014685Y-37719030D03*
X218702185Y-24622155D03*
D10*
X97258435Y-31765905D03*
X182983435Y-55578405D03*
D16*
X128014685Y-45244030D03*
X129914685Y-46244030D03*
X129914685Y-48244030D03*
X128014685Y-49244030D03*
D10*
X230608435Y-31765905D03*
D16*
X199852185Y-38528405D03*
X197952185Y-37528405D03*
X197952185Y-35528405D03*
X199852185Y-34528405D03*
D17*
X186555310Y-24622155D03*
X204414685Y-24622155D03*
X225845935Y-24622155D03*
X109164685Y-24622155D03*
X200842810Y-24622155D03*
D10*
X287758435Y-31765905D03*
D17*
X222274060Y-24622155D03*
M02*
