G04 #@! TF.GenerationSoftware,KiCad,Pcbnew,(6.0.10-0)*
G04 #@! TF.CreationDate,2023-02-21T06:01:42+09:00*
G04 #@! TF.ProjectId,Sandy_Middle,53616e64-795f-44d6-9964-646c652e6b69,v.0*
G04 #@! TF.SameCoordinates,Original*
G04 #@! TF.FileFunction,Soldermask,Bot*
G04 #@! TF.FilePolarity,Negative*
%FSLAX46Y46*%
G04 Gerber Fmt 4.6, Leading zero omitted, Abs format (unit mm)*
G04 Created by KiCad (PCBNEW (6.0.10-0)) date 2023-02-21 06:01:42*
%MOMM*%
%LPD*%
G01*
G04 APERTURE LIST*
G04 Aperture macros list*
%AMRoundRect*
0 Rectangle with rounded corners*
0 $1 Rounding radius*
0 $2 $3 $4 $5 $6 $7 $8 $9 X,Y pos of 4 corners*
0 Add a 4 corners polygon primitive as box body*
4,1,4,$2,$3,$4,$5,$6,$7,$8,$9,$2,$3,0*
0 Add four circle primitives for the rounded corners*
1,1,$1+$1,$2,$3*
1,1,$1+$1,$4,$5*
1,1,$1+$1,$6,$7*
1,1,$1+$1,$8,$9*
0 Add four rect primitives between the rounded corners*
20,1,$1+$1,$2,$3,$4,$5,0*
20,1,$1+$1,$4,$5,$6,$7,0*
20,1,$1+$1,$6,$7,$8,$9,0*
20,1,$1+$1,$8,$9,$2,$3,0*%
G04 Aperture macros list end*
%ADD10C,1.000000*%
%ADD11C,4.800000*%
%ADD12C,2.150000*%
%ADD13C,4.387800*%
%ADD14C,2.650000*%
%ADD15O,8.781998X5.734000*%
%ADD16C,1.000000*%
%ADD17C,6.496000*%
%ADD18O,1.850000X4.400000*%
%ADD19C,2.000000*%
%ADD20RoundRect,0.350000X0.625000X-0.150000X0.625000X0.150000X-0.625000X0.150000X-0.625000X-0.150000X0*%
%ADD21O,2.100000X2.100000*%
%ADD22RoundRect,0.450000X0.650000X-0.350000X0.650000X0.350000X-0.650000X0.350000X-0.650000X-0.350000X0*%
%ADD23RoundRect,0.200000X0.600000X-0.450000X0.600000X0.450000X-0.600000X0.450000X-0.600000X-0.450000X0*%
%ADD24C,2.400000*%
%ADD25RoundRect,0.350000X-0.625000X0.150000X-0.625000X-0.150000X0.625000X-0.150000X0.625000X0.150000X0*%
%ADD26RoundRect,0.450000X-0.650000X0.350000X-0.650000X-0.350000X0.650000X-0.350000X0.650000X0.350000X0*%
G04 APERTURE END LIST*
D10*
X305362971Y-60221812D02*
X303562971Y-60221812D01*
X303562971Y-60221812D02*
X303562971Y-69521812D01*
X303562971Y-69521812D02*
X305362971Y-69521812D01*
X305362971Y-69521812D02*
X305362971Y-60221812D01*
G36*
X305362971Y-60221812D02*
G01*
X303562971Y-60221812D01*
X303562971Y-69521812D01*
X305362971Y-69521812D01*
X305362971Y-60221812D01*
G37*
X22503899Y-60221812D02*
X24303899Y-60221812D01*
X24303899Y-60221812D02*
X24303899Y-69521812D01*
X24303899Y-69521812D02*
X22503899Y-69521812D01*
X22503899Y-69521812D02*
X22503899Y-60221812D01*
G36*
X22503899Y-60221812D02*
G01*
X24303899Y-60221812D01*
X24303899Y-69521812D01*
X22503899Y-69521812D01*
X22503899Y-60221812D01*
G37*
D11*
X193699060Y-24133530D03*
D12*
X188063435Y-87725280D03*
X177903435Y-87725280D03*
D13*
X182983435Y-87725280D03*
D14*
X179173435Y-85185280D03*
X185523435Y-82645280D03*
D15*
X281408435Y-49251780D03*
D16*
X22603899Y-58921812D03*
D17*
X46585435Y-49244280D03*
D16*
X24203899Y-58921812D03*
X303662971Y-58921812D03*
X305262971Y-58921812D03*
D12*
X216638435Y-49625280D03*
X206478435Y-49625280D03*
D13*
X211558435Y-49625280D03*
D14*
X207748435Y-47085280D03*
X214098435Y-44545280D03*
D12*
X197588435Y-68675280D03*
D13*
X192508435Y-68675280D03*
D12*
X187428435Y-68675280D03*
D14*
X188698435Y-66135280D03*
X195048435Y-63595280D03*
D13*
X135358435Y-68700320D03*
D12*
X140438435Y-68700320D03*
X130278435Y-68700320D03*
D14*
X131548435Y-66160320D03*
X137898435Y-63620320D03*
D13*
X173458435Y-68675280D03*
D12*
X168378435Y-68675280D03*
X178538435Y-68675280D03*
D14*
X169648435Y-66135280D03*
X175998435Y-63595280D03*
D12*
X159488435Y-68675280D03*
X149328435Y-68675280D03*
D13*
X154408435Y-68675280D03*
D14*
X150598435Y-66135280D03*
X156948435Y-63595280D03*
D13*
X37727185Y-49625280D03*
D12*
X42807185Y-49625280D03*
X32647185Y-49625280D03*
D14*
X33917185Y-47085280D03*
X40267185Y-44545280D03*
D12*
X263628435Y-49625280D03*
D13*
X268708435Y-49625280D03*
D12*
X273788435Y-49625280D03*
D14*
X264898435Y-47085280D03*
X271248435Y-44545280D03*
D11*
X144883435Y-55578405D03*
X40108435Y-31765905D03*
X136549060Y-24133530D03*
D13*
X116308435Y-49625280D03*
D12*
X111228435Y-49625280D03*
X121388435Y-49625280D03*
D14*
X112498435Y-47085280D03*
X118848435Y-44545280D03*
D11*
X97258435Y-31765905D03*
D12*
X149963435Y-87725280D03*
D13*
X144883435Y-87725280D03*
D12*
X139803435Y-87725280D03*
D14*
X141073435Y-85185280D03*
X147423435Y-82645280D03*
D11*
X182983435Y-55578405D03*
X230608435Y-31765905D03*
D13*
X163933435Y-87725280D03*
D12*
X169013435Y-87725280D03*
X158853435Y-87725280D03*
D14*
X160123435Y-85185280D03*
X166473435Y-82645280D03*
D13*
X35345935Y-49625280D03*
D12*
X30265935Y-49625280D03*
X40425935Y-49625280D03*
D14*
X31535935Y-47085280D03*
X37885935Y-44545280D03*
D12*
X64238435Y-49625280D03*
X54078435Y-49625280D03*
D13*
X59158435Y-49625280D03*
D14*
X55348435Y-47085280D03*
X61698435Y-44545280D03*
D18*
X158408435Y-91225280D03*
X169458435Y-87725280D03*
D19*
X166933435Y-90725280D03*
D18*
X158408435Y-84225280D03*
D13*
X292520935Y-49625280D03*
D12*
X297600935Y-49625280D03*
X287440935Y-49625280D03*
D14*
X288710935Y-47085280D03*
X295060935Y-44545280D03*
D11*
X287758435Y-31765905D03*
X78208435Y-31765905D03*
D20*
X201652185Y-48744030D03*
D21*
X199852185Y-49244030D03*
D20*
X201652185Y-47744030D03*
D21*
X197952185Y-48244030D03*
D20*
X201652185Y-46744030D03*
D21*
X197952185Y-46244030D03*
X199852185Y-45244030D03*
D20*
X201652185Y-45744030D03*
D22*
X197777185Y-44444030D03*
X197777185Y-50044030D03*
D23*
X52158435Y-54847155D03*
X52158435Y-51547155D03*
D24*
X182983435Y-24622155D03*
D11*
X303236560Y-24133530D03*
D24*
X102020935Y-24622155D03*
D23*
X215130310Y-54847155D03*
X215130310Y-51547155D03*
X296092810Y-54847155D03*
X296092810Y-51547155D03*
X173417810Y-79850280D03*
X173417810Y-76550280D03*
D11*
X202033435Y-55625280D03*
D23*
X186555310Y-92947155D03*
X186555310Y-89647155D03*
D11*
X303236560Y-55587780D03*
X138930310Y-78200280D03*
D23*
X177030310Y-93997155D03*
X177030310Y-90697155D03*
X167505310Y-74901280D03*
X167505310Y-71601280D03*
X154408435Y-79850280D03*
X154408435Y-76550280D03*
X196080310Y-73897155D03*
X196080310Y-70597155D03*
X119880310Y-54847155D03*
X119880310Y-51547155D03*
D24*
X25820935Y-41290905D03*
D11*
X249658435Y-31765905D03*
D23*
X142502185Y-74897280D03*
X142502185Y-71597280D03*
D11*
X188936560Y-78200280D03*
D23*
X148455310Y-92947155D03*
X148455310Y-89647155D03*
D24*
X105592810Y-24622155D03*
D11*
X24630310Y-55587780D03*
D24*
X25820935Y-37719030D03*
X218702185Y-24622155D03*
D23*
X272280310Y-54847155D03*
X272280310Y-51547155D03*
X162742810Y-73880280D03*
X162742810Y-70580280D03*
D11*
X163933435Y-24133530D03*
X125833435Y-55578405D03*
X24630310Y-24133530D03*
D25*
X126214685Y-45744030D03*
D21*
X128014685Y-45244030D03*
X129914685Y-46244030D03*
D25*
X126214685Y-46744030D03*
D21*
X129914685Y-48244030D03*
D25*
X126214685Y-47744030D03*
D21*
X128014685Y-49244030D03*
D25*
X126214685Y-48744030D03*
D26*
X130089685Y-50044030D03*
X130089685Y-44444030D03*
D23*
X157980310Y-73880280D03*
X157980310Y-70580280D03*
D20*
X201652185Y-38028405D03*
D21*
X199852185Y-38528405D03*
X197952185Y-37528405D03*
D20*
X201652185Y-37028405D03*
X201652185Y-36028405D03*
D21*
X197952185Y-35528405D03*
D20*
X201652185Y-35028405D03*
D21*
X199852185Y-34528405D03*
D22*
X197777185Y-33728405D03*
X197777185Y-39328405D03*
D24*
X186555310Y-24622155D03*
X204414685Y-24622155D03*
X225845935Y-24622155D03*
D23*
X62730310Y-54847155D03*
X62730310Y-51547155D03*
X177030310Y-74901280D03*
X177030310Y-71601280D03*
D24*
X109164685Y-24622155D03*
X200842810Y-24622155D03*
D23*
X172949060Y-93997155D03*
X172949060Y-90697155D03*
D24*
X222274060Y-24622155D03*
M02*
