G04 #@! TF.GenerationSoftware,KiCad,Pcbnew,7.0.1-0*
G04 #@! TF.CreationDate,2023-04-15T21:18:13+09:00*
G04 #@! TF.ProjectId,Sandy_Middle,53616e64-795f-44d6-9964-646c652e6b69,v.0*
G04 #@! TF.SameCoordinates,Original*
G04 #@! TF.FileFunction,Legend,Bot*
G04 #@! TF.FilePolarity,Positive*
%FSLAX46Y46*%
G04 Gerber Fmt 4.6, Leading zero omitted, Abs format (unit mm)*
G04 Created by KiCad (PCBNEW 7.0.1-0) date 2023-04-15 21:18:13*
%MOMM*%
%LPD*%
G01*
G04 APERTURE LIST*
G04 Aperture macros list*
%AMRoundRect*
0 Rectangle with rounded corners*
0 $1 Rounding radius*
0 $2 $3 $4 $5 $6 $7 $8 $9 X,Y pos of 4 corners*
0 Add a 4 corners polygon primitive as box body*
4,1,4,$2,$3,$4,$5,$6,$7,$8,$9,$2,$3,0*
0 Add four circle primitives for the rounded corners*
1,1,$1+$1,$2,$3*
1,1,$1+$1,$4,$5*
1,1,$1+$1,$6,$7*
1,1,$1+$1,$8,$9*
0 Add four rect primitives between the rounded corners*
20,1,$1+$1,$2,$3,$4,$5,0*
20,1,$1+$1,$4,$5,$6,$7,0*
20,1,$1+$1,$6,$7,$8,$9,0*
20,1,$1+$1,$8,$9,$2,$3,0*%
G04 Aperture macros list end*
%ADD10C,0.200000*%
%ADD11C,0.300000*%
%ADD12C,0.400000*%
%ADD13C,0.150000*%
%ADD14C,0.120000*%
%ADD15C,4.800000*%
%ADD16C,2.150000*%
%ADD17C,3.400000*%
%ADD18C,4.387800*%
%ADD19RoundRect,0.200000X-1.275000X-1.250000X1.275000X-1.250000X1.275000X1.250000X-1.275000X1.250000X0*%
%ADD20C,6.496000*%
%ADD21O,2.100000X2.100000*%
%ADD22RoundRect,0.350000X0.625000X-0.150000X0.625000X0.150000X-0.625000X0.150000X-0.625000X-0.150000X0*%
%ADD23RoundRect,0.450000X0.650000X-0.350000X0.650000X0.350000X-0.650000X0.350000X-0.650000X-0.350000X0*%
%ADD24RoundRect,0.200000X0.600000X-0.450000X0.600000X0.450000X-0.600000X0.450000X-0.600000X-0.450000X0*%
%ADD25C,2.400000*%
%ADD26RoundRect,0.350000X-0.625000X0.150000X-0.625000X-0.150000X0.625000X-0.150000X0.625000X0.150000X0*%
%ADD27RoundRect,0.450000X-0.650000X0.350000X-0.650000X-0.350000X0.650000X-0.350000X0.650000X0.350000X0*%
G04 APERTURE END LIST*
D10*
G36*
X195403292Y-47181921D02*
G01*
X195403292Y-47363279D01*
X195363963Y-47441935D01*
X195329770Y-47476129D01*
X195251114Y-47515457D01*
X194955470Y-47515457D01*
X194876814Y-47476129D01*
X194842619Y-47441933D01*
X194803292Y-47363279D01*
X194803292Y-47181921D01*
X194822238Y-47144029D01*
X195384346Y-47144029D01*
X195403292Y-47181921D01*
G37*
G36*
X196579864Y-50388317D02*
G01*
X193937006Y-50388317D01*
X193937006Y-49516004D01*
X194600131Y-49516004D01*
X194624526Y-49569423D01*
X194673929Y-49601172D01*
X195895724Y-49601172D01*
X195917276Y-49604452D01*
X195937935Y-49595221D01*
X195959639Y-49588849D01*
X195964338Y-49583425D01*
X195970893Y-49580497D01*
X195983281Y-49561563D01*
X195998096Y-49544467D01*
X195999117Y-49537362D01*
X196003047Y-49531357D01*
X196003233Y-49508733D01*
X196006453Y-49486340D01*
X196003471Y-49479811D01*
X196003531Y-49472633D01*
X195991455Y-49453498D01*
X195982058Y-49432921D01*
X195976019Y-49429040D01*
X195972189Y-49422971D01*
X195951689Y-49413404D01*
X195932655Y-49401172D01*
X195925477Y-49401172D01*
X195282620Y-49101172D01*
X195938726Y-48794989D01*
X195959639Y-48788849D01*
X195974453Y-48771752D01*
X195991430Y-48756795D01*
X195993395Y-48749891D01*
X195998096Y-48744467D01*
X196001315Y-48722074D01*
X196007511Y-48700314D01*
X196005431Y-48693442D01*
X196006453Y-48686340D01*
X195997056Y-48665764D01*
X195990503Y-48644106D01*
X195985039Y-48639450D01*
X195982058Y-48632921D01*
X195963026Y-48620690D01*
X195945806Y-48606015D01*
X195938692Y-48605051D01*
X195932655Y-48601172D01*
X195910036Y-48601172D01*
X195887612Y-48598136D01*
X195881106Y-48601172D01*
X194688913Y-48601172D01*
X194646945Y-48613495D01*
X194608488Y-48657877D01*
X194600131Y-48716004D01*
X194624526Y-48769423D01*
X194673929Y-48801172D01*
X195452535Y-48801172D01*
X195004589Y-49010213D01*
X194978548Y-49021848D01*
X194969884Y-49035087D01*
X194958011Y-49045549D01*
X194954137Y-49059152D01*
X194946394Y-49070987D01*
X194946263Y-49086809D01*
X194941930Y-49102030D01*
X194946026Y-49115568D01*
X194945910Y-49129711D01*
X194954355Y-49143092D01*
X194958938Y-49158238D01*
X194969703Y-49167412D01*
X194977252Y-49179373D01*
X194991589Y-49186063D01*
X195003635Y-49196329D01*
X195017653Y-49198226D01*
X195452536Y-49401172D01*
X194688913Y-49401172D01*
X194646945Y-49413495D01*
X194608488Y-49457877D01*
X194600131Y-49516004D01*
X193937006Y-49516004D01*
X193937006Y-48144575D01*
X194600131Y-48144575D01*
X194624526Y-48197994D01*
X194673929Y-48229743D01*
X195517671Y-48229743D01*
X195559639Y-48217420D01*
X195598096Y-48173038D01*
X195605390Y-48122308D01*
X195685049Y-48122308D01*
X195687455Y-48133370D01*
X195685845Y-48144575D01*
X195690547Y-48154872D01*
X195691355Y-48166165D01*
X195695915Y-48172257D01*
X195697533Y-48179691D01*
X195705536Y-48187694D01*
X195710240Y-48197994D01*
X195719763Y-48204114D01*
X195726548Y-48213177D01*
X195733678Y-48215836D01*
X195770377Y-48252535D01*
X195783691Y-48270320D01*
X195804503Y-48278082D01*
X195823995Y-48288726D01*
X195831583Y-48288183D01*
X195838714Y-48290843D01*
X195860421Y-48286120D01*
X195882571Y-48284536D01*
X195888661Y-48279976D01*
X195896097Y-48278359D01*
X195911802Y-48262653D01*
X195929582Y-48249344D01*
X195932241Y-48242214D01*
X195955953Y-48218502D01*
X195959639Y-48217420D01*
X195971828Y-48203352D01*
X195986725Y-48192201D01*
X195990680Y-48181595D01*
X195998096Y-48173038D01*
X195999707Y-48161831D01*
X196005132Y-48151897D01*
X196004589Y-48144306D01*
X196007248Y-48137178D01*
X196004841Y-48126117D01*
X196006453Y-48114911D01*
X196001749Y-48104611D01*
X196000942Y-48093321D01*
X195996382Y-48087230D01*
X195994765Y-48079795D01*
X195986761Y-48071791D01*
X195982058Y-48061492D01*
X195972532Y-48055370D01*
X195965750Y-48046310D01*
X195958620Y-48043650D01*
X195921916Y-48006946D01*
X195908607Y-47989167D01*
X195887800Y-47981406D01*
X195868303Y-47970760D01*
X195860712Y-47971302D01*
X195853584Y-47968644D01*
X195831884Y-47973364D01*
X195809727Y-47974949D01*
X195803634Y-47979509D01*
X195796201Y-47981127D01*
X195780499Y-47996828D01*
X195762715Y-48010142D01*
X195760055Y-48017272D01*
X195736344Y-48040983D01*
X195732659Y-48042066D01*
X195720471Y-48056131D01*
X195705572Y-48067285D01*
X195701615Y-48077892D01*
X195694202Y-48086448D01*
X195692590Y-48097654D01*
X195687166Y-48107589D01*
X195687708Y-48115177D01*
X195685049Y-48122308D01*
X195605390Y-48122308D01*
X195606453Y-48114911D01*
X195582058Y-48061492D01*
X195532655Y-48029743D01*
X194688913Y-48029743D01*
X194646945Y-48042066D01*
X194608488Y-48086448D01*
X194600131Y-48144575D01*
X193937006Y-48144575D01*
X193937006Y-47169502D01*
X194599672Y-47169502D01*
X194603292Y-47178230D01*
X194603292Y-47381502D01*
X194600718Y-47405345D01*
X194609856Y-47423622D01*
X194615615Y-47443233D01*
X194622755Y-47449420D01*
X194665384Y-47534677D01*
X194668961Y-47551118D01*
X194688438Y-47570596D01*
X194707214Y-47590780D01*
X194709105Y-47591263D01*
X194738001Y-47620160D01*
X194746593Y-47634625D01*
X194771220Y-47646938D01*
X194795423Y-47660154D01*
X194797372Y-47660014D01*
X194882321Y-47702489D01*
X194902500Y-47715457D01*
X194922936Y-47715457D01*
X194943051Y-47719077D01*
X194951779Y-47715457D01*
X195269335Y-47715457D01*
X195293178Y-47718031D01*
X195311454Y-47708892D01*
X195331067Y-47703134D01*
X195337254Y-47695992D01*
X195422513Y-47653363D01*
X195438954Y-47649787D01*
X195458425Y-47630315D01*
X195478615Y-47611535D01*
X195479099Y-47609641D01*
X195507992Y-47580748D01*
X195522460Y-47572156D01*
X195534783Y-47547509D01*
X195547989Y-47523325D01*
X195547849Y-47521376D01*
X195590324Y-47436427D01*
X195603292Y-47416249D01*
X195603292Y-47395813D01*
X195606912Y-47375698D01*
X195603292Y-47366970D01*
X195603292Y-47163699D01*
X195605416Y-47144029D01*
X195917671Y-47144029D01*
X195959639Y-47131706D01*
X195998096Y-47087324D01*
X196006453Y-47029197D01*
X195982058Y-46975778D01*
X195932655Y-46944029D01*
X195458732Y-46944029D01*
X195442475Y-46939872D01*
X195429967Y-46944029D01*
X194762217Y-46944029D01*
X194734615Y-46943055D01*
X194732975Y-46944029D01*
X194688913Y-46944029D01*
X194646945Y-46956352D01*
X194608488Y-47000734D01*
X194600131Y-47058861D01*
X194619742Y-47101805D01*
X194616257Y-47108775D01*
X194603292Y-47128951D01*
X194603292Y-47149386D01*
X194599672Y-47169502D01*
X193937006Y-47169502D01*
X193937006Y-45650446D01*
X194601452Y-45650446D01*
X194603292Y-45676175D01*
X194603292Y-45686979D01*
X194604313Y-45690457D01*
X194605641Y-45709022D01*
X194612425Y-45718085D01*
X194615615Y-45728947D01*
X194629680Y-45741134D01*
X194640834Y-45756034D01*
X194651441Y-45759990D01*
X194659997Y-45767404D01*
X194678417Y-45770052D01*
X194695857Y-45776557D01*
X194706919Y-45774150D01*
X194718124Y-45775761D01*
X194735054Y-45768029D01*
X194753240Y-45764073D01*
X194761243Y-45756069D01*
X194771543Y-45751366D01*
X194781606Y-45735706D01*
X195443023Y-45074289D01*
X195576662Y-45029743D01*
X195651114Y-45029743D01*
X195729770Y-45069071D01*
X195763963Y-45103264D01*
X195803292Y-45181921D01*
X195803292Y-45420422D01*
X195763963Y-45499078D01*
X195708128Y-45554914D01*
X195687166Y-45593303D01*
X195691355Y-45651879D01*
X195726548Y-45698891D01*
X195781571Y-45719414D01*
X195838954Y-45706930D01*
X195907992Y-45637891D01*
X195922460Y-45629299D01*
X195934783Y-45604652D01*
X195947989Y-45580468D01*
X195947849Y-45578519D01*
X195990324Y-45493570D01*
X196003292Y-45473392D01*
X196003292Y-45452956D01*
X196006912Y-45432841D01*
X196003292Y-45424113D01*
X196003292Y-45163699D01*
X196005866Y-45139856D01*
X195996727Y-45121579D01*
X195990969Y-45101967D01*
X195983827Y-45095778D01*
X195941198Y-45010520D01*
X195937622Y-44994081D01*
X195918150Y-44974609D01*
X195899370Y-44954420D01*
X195897476Y-44953935D01*
X195868584Y-44925043D01*
X195859991Y-44910575D01*
X195835346Y-44898252D01*
X195811160Y-44885046D01*
X195809211Y-44885185D01*
X195724260Y-44842710D01*
X195704083Y-44829743D01*
X195683647Y-44829743D01*
X195663532Y-44826123D01*
X195654804Y-44829743D01*
X195572975Y-44829743D01*
X195556668Y-44825589D01*
X195530526Y-44834302D01*
X195504088Y-44842066D01*
X195502808Y-44843542D01*
X195362493Y-44890314D01*
X195339058Y-44895413D01*
X195324608Y-44909862D01*
X195307825Y-44921527D01*
X195304213Y-44930257D01*
X194803292Y-45431179D01*
X194803292Y-44915364D01*
X194790969Y-44873396D01*
X194746587Y-44834939D01*
X194688460Y-44826582D01*
X194635041Y-44850977D01*
X194603292Y-44900380D01*
X194603292Y-45647076D01*
X194601452Y-45650446D01*
X193937006Y-45650446D01*
X193937006Y-44099744D01*
X196579864Y-44099744D01*
X196579864Y-50388317D01*
G37*
D11*
X276787006Y-56312208D02*
X276787006Y-57383637D01*
X276787006Y-57383637D02*
X276858435Y-57597922D01*
X276858435Y-57597922D02*
X277001292Y-57740780D01*
X277001292Y-57740780D02*
X277215578Y-57812208D01*
X277215578Y-57812208D02*
X277358435Y-57812208D01*
X275358435Y-57812208D02*
X276072721Y-57812208D01*
X276072721Y-57812208D02*
X276072721Y-56312208D01*
X274001292Y-57669351D02*
X274072720Y-57740780D01*
X274072720Y-57740780D02*
X274287006Y-57812208D01*
X274287006Y-57812208D02*
X274429863Y-57812208D01*
X274429863Y-57812208D02*
X274644149Y-57740780D01*
X274644149Y-57740780D02*
X274787006Y-57597922D01*
X274787006Y-57597922D02*
X274858435Y-57455065D01*
X274858435Y-57455065D02*
X274929863Y-57169351D01*
X274929863Y-57169351D02*
X274929863Y-56955065D01*
X274929863Y-56955065D02*
X274858435Y-56669351D01*
X274858435Y-56669351D02*
X274787006Y-56526494D01*
X274787006Y-56526494D02*
X274644149Y-56383637D01*
X274644149Y-56383637D02*
X274429863Y-56312208D01*
X274429863Y-56312208D02*
X274287006Y-56312208D01*
X274287006Y-56312208D02*
X274072720Y-56383637D01*
X274072720Y-56383637D02*
X274001292Y-56455065D01*
X272929863Y-56312208D02*
X272929863Y-57383637D01*
X272929863Y-57383637D02*
X273001292Y-57597922D01*
X273001292Y-57597922D02*
X273144149Y-57740780D01*
X273144149Y-57740780D02*
X273358435Y-57812208D01*
X273358435Y-57812208D02*
X273501292Y-57812208D01*
X271501292Y-57812208D02*
X272215578Y-57812208D01*
X272215578Y-57812208D02*
X272215578Y-56312208D01*
X270144149Y-57669351D02*
X270215577Y-57740780D01*
X270215577Y-57740780D02*
X270429863Y-57812208D01*
X270429863Y-57812208D02*
X270572720Y-57812208D01*
X270572720Y-57812208D02*
X270787006Y-57740780D01*
X270787006Y-57740780D02*
X270929863Y-57597922D01*
X270929863Y-57597922D02*
X271001292Y-57455065D01*
X271001292Y-57455065D02*
X271072720Y-57169351D01*
X271072720Y-57169351D02*
X271072720Y-56955065D01*
X271072720Y-56955065D02*
X271001292Y-56669351D01*
X271001292Y-56669351D02*
X270929863Y-56526494D01*
X270929863Y-56526494D02*
X270787006Y-56383637D01*
X270787006Y-56383637D02*
X270572720Y-56312208D01*
X270572720Y-56312208D02*
X270429863Y-56312208D01*
X270429863Y-56312208D02*
X270215577Y-56383637D01*
X270215577Y-56383637D02*
X270144149Y-56455065D01*
X269072720Y-56312208D02*
X269072720Y-57383637D01*
X269072720Y-57383637D02*
X269144149Y-57597922D01*
X269144149Y-57597922D02*
X269287006Y-57740780D01*
X269287006Y-57740780D02*
X269501292Y-57812208D01*
X269501292Y-57812208D02*
X269644149Y-57812208D01*
X267644149Y-57812208D02*
X268358435Y-57812208D01*
X268358435Y-57812208D02*
X268358435Y-56312208D01*
X266287006Y-57669351D02*
X266358434Y-57740780D01*
X266358434Y-57740780D02*
X266572720Y-57812208D01*
X266572720Y-57812208D02*
X266715577Y-57812208D01*
X266715577Y-57812208D02*
X266929863Y-57740780D01*
X266929863Y-57740780D02*
X267072720Y-57597922D01*
X267072720Y-57597922D02*
X267144149Y-57455065D01*
X267144149Y-57455065D02*
X267215577Y-57169351D01*
X267215577Y-57169351D02*
X267215577Y-56955065D01*
X267215577Y-56955065D02*
X267144149Y-56669351D01*
X267144149Y-56669351D02*
X267072720Y-56526494D01*
X267072720Y-56526494D02*
X266929863Y-56383637D01*
X266929863Y-56383637D02*
X266715577Y-56312208D01*
X266715577Y-56312208D02*
X266572720Y-56312208D01*
X266572720Y-56312208D02*
X266358434Y-56383637D01*
X266358434Y-56383637D02*
X266287006Y-56455065D01*
X265215577Y-56312208D02*
X265215577Y-57383637D01*
X265215577Y-57383637D02*
X265287006Y-57597922D01*
X265287006Y-57597922D02*
X265429863Y-57740780D01*
X265429863Y-57740780D02*
X265644149Y-57812208D01*
X265644149Y-57812208D02*
X265787006Y-57812208D01*
X263787006Y-57812208D02*
X264501292Y-57812208D01*
X264501292Y-57812208D02*
X264501292Y-56312208D01*
X262429863Y-57669351D02*
X262501291Y-57740780D01*
X262501291Y-57740780D02*
X262715577Y-57812208D01*
X262715577Y-57812208D02*
X262858434Y-57812208D01*
X262858434Y-57812208D02*
X263072720Y-57740780D01*
X263072720Y-57740780D02*
X263215577Y-57597922D01*
X263215577Y-57597922D02*
X263287006Y-57455065D01*
X263287006Y-57455065D02*
X263358434Y-57169351D01*
X263358434Y-57169351D02*
X263358434Y-56955065D01*
X263358434Y-56955065D02*
X263287006Y-56669351D01*
X263287006Y-56669351D02*
X263215577Y-56526494D01*
X263215577Y-56526494D02*
X263072720Y-56383637D01*
X263072720Y-56383637D02*
X262858434Y-56312208D01*
X262858434Y-56312208D02*
X262715577Y-56312208D01*
X262715577Y-56312208D02*
X262501291Y-56383637D01*
X262501291Y-56383637D02*
X262429863Y-56455065D01*
D10*
G36*
X132940056Y-47011930D02*
G01*
X132974249Y-47046123D01*
X133013577Y-47124780D01*
X133013577Y-47306138D01*
X132994631Y-47344031D01*
X132432523Y-47344031D01*
X132413577Y-47306139D01*
X132413577Y-47124780D01*
X132452905Y-47046124D01*
X132487098Y-47011930D01*
X132565756Y-46972602D01*
X132861400Y-46972602D01*
X132940056Y-47011930D01*
G37*
G36*
X133879864Y-50388316D02*
G01*
X131237006Y-50388316D01*
X131237006Y-49529437D01*
X131813436Y-49529437D01*
X131813577Y-49558593D01*
X131813577Y-49572695D01*
X131813646Y-49572931D01*
X131813720Y-49588162D01*
X131821747Y-49600521D01*
X131825900Y-49614663D01*
X131837411Y-49624637D01*
X131845707Y-49637410D01*
X131859142Y-49643467D01*
X131870282Y-49653120D01*
X131885357Y-49655287D01*
X131899243Y-49661548D01*
X131913821Y-49659379D01*
X131928409Y-49661477D01*
X131942264Y-49655149D01*
X131957330Y-49652909D01*
X131968420Y-49643204D01*
X131981828Y-49637082D01*
X131990063Y-49624267D01*
X132278795Y-49371626D01*
X132283043Y-49386092D01*
X132290184Y-49392279D01*
X132332812Y-49477537D01*
X132336390Y-49493980D01*
X132355868Y-49513457D01*
X132374642Y-49533640D01*
X132376534Y-49534124D01*
X132405430Y-49563018D01*
X132414022Y-49577484D01*
X132438646Y-49589796D01*
X132462853Y-49603014D01*
X132464803Y-49602874D01*
X132549750Y-49645348D01*
X132569929Y-49658316D01*
X132590365Y-49658316D01*
X132610480Y-49661936D01*
X132619208Y-49658316D01*
X132879621Y-49658316D01*
X132903464Y-49660890D01*
X132921740Y-49651751D01*
X132941353Y-49645993D01*
X132947540Y-49638851D01*
X133032797Y-49596223D01*
X133049239Y-49592647D01*
X133068717Y-49573169D01*
X133088901Y-49554394D01*
X133089384Y-49552502D01*
X133118279Y-49523607D01*
X133132747Y-49515015D01*
X133145067Y-49490373D01*
X133158275Y-49466185D01*
X133158135Y-49464236D01*
X133200610Y-49379284D01*
X133213577Y-49359108D01*
X133213577Y-49338672D01*
X133217197Y-49318556D01*
X133213577Y-49309828D01*
X133213577Y-48992270D01*
X133216151Y-48968430D01*
X133207012Y-48950152D01*
X133201254Y-48930541D01*
X133194113Y-48924353D01*
X133151484Y-48839092D01*
X133147908Y-48822654D01*
X133128437Y-48803183D01*
X133109657Y-48782994D01*
X133107763Y-48782509D01*
X133059835Y-48734581D01*
X133021446Y-48713619D01*
X132962870Y-48717808D01*
X132915858Y-48753001D01*
X132895335Y-48808024D01*
X132907819Y-48865407D01*
X132974248Y-48931836D01*
X133013577Y-49010495D01*
X133013577Y-49306138D01*
X132974250Y-49384794D01*
X132940054Y-49418988D01*
X132861400Y-49458316D01*
X132622899Y-49458316D01*
X132544241Y-49418987D01*
X132510047Y-49384794D01*
X132470720Y-49306139D01*
X132470720Y-49187417D01*
X132470861Y-49187195D01*
X132470720Y-49158039D01*
X132470720Y-49143937D01*
X132470650Y-49143700D01*
X132470577Y-49128470D01*
X132462549Y-49116110D01*
X132458397Y-49101969D01*
X132446885Y-49091994D01*
X132438590Y-49079222D01*
X132425154Y-49073164D01*
X132414015Y-49063512D01*
X132398939Y-49061344D01*
X132385054Y-49055084D01*
X132370475Y-49057252D01*
X132355888Y-49055155D01*
X132342032Y-49061482D01*
X132326967Y-49063723D01*
X132315876Y-49073427D01*
X132302469Y-49079550D01*
X132294233Y-49092364D01*
X132013577Y-49337939D01*
X132013577Y-48801080D01*
X132001254Y-48759112D01*
X131956872Y-48720655D01*
X131898745Y-48712298D01*
X131845326Y-48736693D01*
X131813577Y-48786096D01*
X131813577Y-49529215D01*
X131813436Y-49529437D01*
X131237006Y-49529437D01*
X131237006Y-47458863D01*
X131810416Y-47458863D01*
X131834811Y-47512282D01*
X131884214Y-47544031D01*
X132358134Y-47544031D01*
X132374394Y-47548189D01*
X132386905Y-47544031D01*
X133054669Y-47544031D01*
X133082256Y-47545004D01*
X133083894Y-47544031D01*
X133127956Y-47544031D01*
X133169924Y-47531708D01*
X133208381Y-47487326D01*
X133216738Y-47429199D01*
X133197126Y-47386253D01*
X133200610Y-47379284D01*
X133213577Y-47359108D01*
X133213577Y-47338672D01*
X133217197Y-47318556D01*
X133213577Y-47309828D01*
X133213577Y-47106558D01*
X133216151Y-47082715D01*
X133207012Y-47064438D01*
X133201254Y-47044826D01*
X133194112Y-47038638D01*
X133151484Y-46953381D01*
X133147908Y-46936940D01*
X133128428Y-46917460D01*
X133109657Y-46897280D01*
X133107763Y-46896795D01*
X133078870Y-46867902D01*
X133070277Y-46853434D01*
X133045632Y-46841111D01*
X133021446Y-46827905D01*
X133019497Y-46828044D01*
X132934546Y-46785569D01*
X132914369Y-46772602D01*
X132893933Y-46772602D01*
X132873818Y-46768982D01*
X132865090Y-46772602D01*
X132547534Y-46772602D01*
X132523691Y-46770028D01*
X132505414Y-46779166D01*
X132485802Y-46784925D01*
X132479613Y-46792066D01*
X132394356Y-46834695D01*
X132377915Y-46838272D01*
X132358440Y-46857746D01*
X132338254Y-46876523D01*
X132337769Y-46878417D01*
X132308877Y-46907309D01*
X132294409Y-46915903D01*
X132282084Y-46940551D01*
X132268880Y-46964734D01*
X132269019Y-46966682D01*
X132226542Y-47051634D01*
X132213577Y-47071810D01*
X132213577Y-47092245D01*
X132209957Y-47112361D01*
X132213577Y-47121089D01*
X132213577Y-47324360D01*
X132211453Y-47344031D01*
X131899198Y-47344031D01*
X131857230Y-47356354D01*
X131818773Y-47400736D01*
X131810416Y-47458863D01*
X131237006Y-47458863D01*
X131237006Y-46350881D01*
X131809620Y-46350881D01*
X131812026Y-46361943D01*
X131810416Y-46373148D01*
X131815118Y-46383445D01*
X131815926Y-46394738D01*
X131820486Y-46400830D01*
X131822104Y-46408264D01*
X131830107Y-46416267D01*
X131834811Y-46426567D01*
X131844334Y-46432687D01*
X131851119Y-46441750D01*
X131858249Y-46444409D01*
X131894948Y-46481108D01*
X131908262Y-46498893D01*
X131929074Y-46506655D01*
X131948566Y-46517299D01*
X131956154Y-46516756D01*
X131963285Y-46519416D01*
X131984992Y-46514693D01*
X132007142Y-46513109D01*
X132013232Y-46508549D01*
X132020668Y-46506932D01*
X132036373Y-46491226D01*
X132054153Y-46477917D01*
X132056812Y-46470787D01*
X132080524Y-46447075D01*
X132084210Y-46445993D01*
X132096399Y-46431925D01*
X132111296Y-46420774D01*
X132115251Y-46410168D01*
X132122667Y-46401611D01*
X132124278Y-46390404D01*
X132129703Y-46380470D01*
X132129179Y-46373148D01*
X132210416Y-46373148D01*
X132234811Y-46426567D01*
X132284214Y-46458316D01*
X133127956Y-46458316D01*
X133169924Y-46445993D01*
X133208381Y-46401611D01*
X133216738Y-46343484D01*
X133192343Y-46290065D01*
X133142940Y-46258316D01*
X132299198Y-46258316D01*
X132257230Y-46270639D01*
X132218773Y-46315021D01*
X132210416Y-46373148D01*
X132129179Y-46373148D01*
X132129160Y-46372879D01*
X132131819Y-46365751D01*
X132129412Y-46354690D01*
X132131024Y-46343484D01*
X132126320Y-46333184D01*
X132125513Y-46321894D01*
X132120953Y-46315803D01*
X132119336Y-46308368D01*
X132111332Y-46300364D01*
X132106629Y-46290065D01*
X132097103Y-46283943D01*
X132090321Y-46274883D01*
X132083191Y-46272223D01*
X132046487Y-46235519D01*
X132033178Y-46217740D01*
X132012371Y-46209979D01*
X131992874Y-46199333D01*
X131985283Y-46199875D01*
X131978155Y-46197217D01*
X131956455Y-46201937D01*
X131934298Y-46203522D01*
X131928205Y-46208082D01*
X131920772Y-46209700D01*
X131905070Y-46225401D01*
X131887286Y-46238715D01*
X131884626Y-46245845D01*
X131860915Y-46269556D01*
X131857230Y-46270639D01*
X131845042Y-46284704D01*
X131830143Y-46295858D01*
X131826186Y-46306465D01*
X131818773Y-46315021D01*
X131817161Y-46326227D01*
X131811737Y-46336162D01*
X131812279Y-46343750D01*
X131809620Y-46350881D01*
X131237006Y-46350881D01*
X131237006Y-45787745D01*
X131809358Y-45787745D01*
X131811437Y-45794616D01*
X131810416Y-45801719D01*
X131819812Y-45822294D01*
X131826366Y-45843953D01*
X131831829Y-45848608D01*
X131834811Y-45855138D01*
X131853842Y-45867368D01*
X131871063Y-45882044D01*
X131878176Y-45883007D01*
X131884214Y-45886887D01*
X131906833Y-45886887D01*
X131929257Y-45889923D01*
X131935763Y-45886887D01*
X133127956Y-45886887D01*
X133169924Y-45874564D01*
X133208381Y-45830182D01*
X133216738Y-45772055D01*
X133192343Y-45718636D01*
X133142940Y-45686887D01*
X132364334Y-45686887D01*
X132812243Y-45477863D01*
X132838321Y-45466212D01*
X132846985Y-45452970D01*
X132858858Y-45442510D01*
X132862731Y-45428906D01*
X132870475Y-45417072D01*
X132870605Y-45401249D01*
X132874939Y-45386029D01*
X132870842Y-45372490D01*
X132870959Y-45358348D01*
X132862513Y-45344966D01*
X132857931Y-45329821D01*
X132847165Y-45320646D01*
X132839617Y-45308686D01*
X132825279Y-45301995D01*
X132813234Y-45291730D01*
X132799215Y-45289832D01*
X132364334Y-45086887D01*
X133127956Y-45086887D01*
X133169924Y-45074564D01*
X133208381Y-45030182D01*
X133216738Y-44972055D01*
X133192343Y-44918636D01*
X133142940Y-44886887D01*
X131921146Y-44886887D01*
X131899594Y-44883607D01*
X131878937Y-44892835D01*
X131857230Y-44899210D01*
X131852529Y-44904635D01*
X131845976Y-44907563D01*
X131833588Y-44926493D01*
X131818773Y-44943592D01*
X131817751Y-44950696D01*
X131813822Y-44956702D01*
X131813635Y-44979325D01*
X131810416Y-45001719D01*
X131813397Y-45008247D01*
X131813338Y-45015426D01*
X131825413Y-45034560D01*
X131834811Y-45055138D01*
X131840849Y-45059018D01*
X131844680Y-45065088D01*
X131865179Y-45074654D01*
X131884214Y-45086887D01*
X131891392Y-45086887D01*
X132534249Y-45386886D01*
X131878142Y-45693069D01*
X131857230Y-45699210D01*
X131842415Y-45716306D01*
X131825439Y-45731264D01*
X131823473Y-45738167D01*
X131818773Y-45743592D01*
X131815553Y-45765984D01*
X131809358Y-45787745D01*
X131237006Y-45787745D01*
X131237006Y-44099743D01*
X133879864Y-44099743D01*
X133879864Y-50388316D01*
G37*
D12*
G36*
X70640360Y-30572512D02*
G01*
X69768766Y-30572512D01*
X69531776Y-30460987D01*
X69414135Y-30356416D01*
X69274185Y-30132497D01*
X69232197Y-29796598D01*
X69309257Y-29591104D01*
X69375447Y-29515458D01*
X69689066Y-29406373D01*
X69697789Y-29407730D01*
X69712796Y-29401083D01*
X70493931Y-29401083D01*
X70640360Y-30572512D01*
G37*
G36*
X70443931Y-29001083D02*
G01*
X69715195Y-29001083D01*
X69478204Y-28889558D01*
X69360563Y-28784987D01*
X69220612Y-28561068D01*
X69196483Y-28368027D01*
X69273543Y-28162533D01*
X69350472Y-28074615D01*
X69541916Y-27972512D01*
X70315359Y-27972512D01*
X70443931Y-29001083D01*
G37*
G36*
X66683191Y-29829655D02*
G01*
X66726465Y-29829655D01*
X66769217Y-29836302D01*
X66784224Y-29829655D01*
X67411494Y-29829655D01*
X67621363Y-29928416D01*
X67745360Y-30126811D01*
X67769491Y-30319853D01*
X67706166Y-30488721D01*
X67549059Y-30572512D01*
X66929481Y-30572512D01*
X66765998Y-30495579D01*
X66682720Y-29829352D01*
X66683191Y-29829655D01*
G37*
G36*
X53202056Y-29084036D02*
G01*
X53319697Y-29188607D01*
X53459647Y-29412525D01*
X53555206Y-30176995D01*
X53478145Y-30382490D01*
X53401218Y-30470408D01*
X53209774Y-30572512D01*
X52733053Y-30572512D01*
X52569571Y-30495579D01*
X52386009Y-29027090D01*
X52488345Y-28972512D01*
X52965066Y-28972512D01*
X53202056Y-29084036D01*
G37*
G36*
X50621364Y-29071274D02*
G01*
X50745361Y-29269668D01*
X50777069Y-29523334D01*
X49725973Y-29318242D01*
X49714340Y-29225170D01*
X49777665Y-29056302D01*
X49934773Y-28972512D01*
X50411494Y-28972512D01*
X50621364Y-29071274D01*
G37*
G36*
X72979417Y-32413226D02*
G01*
X48093704Y-32413226D01*
X48093704Y-29167618D01*
X49304034Y-29167618D01*
X49308860Y-29206227D01*
X49306016Y-29245030D01*
X49316007Y-29263404D01*
X49341225Y-29465153D01*
X49337304Y-29476400D01*
X49348413Y-29522662D01*
X49350598Y-29540135D01*
X49355095Y-29550483D01*
X49364730Y-29590603D01*
X49378093Y-29603403D01*
X49385466Y-29620369D01*
X49419748Y-29643305D01*
X49449547Y-29671849D01*
X49467710Y-29675393D01*
X49483083Y-29685678D01*
X49524320Y-29686438D01*
X50829286Y-29941067D01*
X50876634Y-30319852D01*
X50813309Y-30488721D01*
X50656202Y-30572512D01*
X50179481Y-30572512D01*
X49890344Y-30436448D01*
X49803900Y-30423008D01*
X49696513Y-30470573D01*
X49631888Y-30568646D01*
X49630543Y-30686087D01*
X49692907Y-30785614D01*
X50037711Y-30947874D01*
X50076048Y-30972512D01*
X50119323Y-30972512D01*
X50162075Y-30979159D01*
X50177082Y-30972512D01*
X50698077Y-30972512D01*
X50748503Y-30976618D01*
X50782227Y-30958631D01*
X50818895Y-30947865D01*
X50833054Y-30931523D01*
X51030532Y-30826202D01*
X51046556Y-30825085D01*
X51081514Y-30799011D01*
X51093548Y-30792594D01*
X51104443Y-30781911D01*
X51140705Y-30754866D01*
X51145752Y-30741406D01*
X51156013Y-30731346D01*
X51166060Y-30687251D01*
X51265372Y-30422419D01*
X51286942Y-30377405D01*
X51282115Y-30338790D01*
X51284959Y-30299992D01*
X51274968Y-30281619D01*
X51214035Y-29794153D01*
X51217956Y-29782909D01*
X51206848Y-29736658D01*
X51138501Y-29189886D01*
X51139069Y-29144882D01*
X51115835Y-29107708D01*
X51098366Y-29067510D01*
X51085210Y-29058708D01*
X50960430Y-28859061D01*
X50960432Y-28858937D01*
X50929349Y-28809332D01*
X50914133Y-28784986D01*
X50914045Y-28784907D01*
X50898068Y-28759410D01*
X50871056Y-28746698D01*
X50848745Y-28726868D01*
X50819021Y-28722211D01*
X50553263Y-28597149D01*
X50514927Y-28572512D01*
X50471652Y-28572512D01*
X50428900Y-28565865D01*
X50413893Y-28572512D01*
X49892897Y-28572512D01*
X49842471Y-28568406D01*
X49808745Y-28586392D01*
X49772080Y-28597159D01*
X49757921Y-28613499D01*
X49560442Y-28718821D01*
X49544419Y-28719939D01*
X49509460Y-28746012D01*
X49497427Y-28752430D01*
X49486531Y-28763112D01*
X49450270Y-28790158D01*
X49445222Y-28803617D01*
X49434962Y-28813678D01*
X49424914Y-28857773D01*
X49325599Y-29122612D01*
X49304034Y-29167618D01*
X48093704Y-29167618D01*
X48093704Y-27739047D01*
X51821891Y-27739047D01*
X51967666Y-28905253D01*
X51962440Y-28928192D01*
X51974806Y-28962372D01*
X52184631Y-30640968D01*
X52184115Y-30686087D01*
X52191805Y-30698360D01*
X52207742Y-30825851D01*
X52242610Y-30906085D01*
X52340227Y-30971394D01*
X52457658Y-30973561D01*
X52539101Y-30923318D01*
X52591283Y-30947874D01*
X52629620Y-30972512D01*
X52672895Y-30972512D01*
X52715647Y-30979159D01*
X52730654Y-30972512D01*
X53251649Y-30972512D01*
X53302075Y-30976618D01*
X53335799Y-30958631D01*
X53372467Y-30947865D01*
X53386626Y-30931523D01*
X53603222Y-30816006D01*
X53639476Y-30805551D01*
X53673120Y-30767100D01*
X53709585Y-30731346D01*
X53711408Y-30723341D01*
X53789193Y-30634445D01*
X53819277Y-30612008D01*
X53837281Y-30563996D01*
X53858807Y-30517457D01*
X53857706Y-30509529D01*
X53943947Y-30279552D01*
X53965513Y-30234547D01*
X53960686Y-30195938D01*
X53963531Y-30157136D01*
X53953539Y-30138761D01*
X53852787Y-29332743D01*
X53853355Y-29287739D01*
X53830121Y-29250565D01*
X53812652Y-29210367D01*
X53799496Y-29201565D01*
X53658900Y-28976612D01*
X53650823Y-28947759D01*
X53628420Y-28927845D01*
X53628419Y-28927843D01*
X53607234Y-28909013D01*
X53467618Y-28784909D01*
X53451640Y-28759410D01*
X53408369Y-28739047D01*
X54643319Y-28739047D01*
X54904170Y-30825850D01*
X54939038Y-30906084D01*
X55036655Y-30971394D01*
X55154086Y-30973560D01*
X55254045Y-30911895D01*
X55304798Y-30805976D01*
X55043948Y-28719173D01*
X55009080Y-28638939D01*
X54911463Y-28573630D01*
X54794032Y-28571464D01*
X54694073Y-28633128D01*
X54643319Y-28739047D01*
X53408369Y-28739047D01*
X53398167Y-28734246D01*
X53345615Y-28709439D01*
X53345486Y-28709455D01*
X53106835Y-28597149D01*
X53068499Y-28572512D01*
X53025224Y-28572512D01*
X52982472Y-28565865D01*
X52967465Y-28572512D01*
X52446469Y-28572512D01*
X52396043Y-28568406D01*
X52362317Y-28586392D01*
X52332034Y-28595285D01*
X52246715Y-27912733D01*
X54390633Y-27912733D01*
X54402820Y-27956267D01*
X54409037Y-28001042D01*
X54418413Y-28011968D01*
X54422295Y-28025836D01*
X54456085Y-28055872D01*
X54485521Y-28090176D01*
X54499315Y-28094299D01*
X54593929Y-28178400D01*
X54599752Y-28191798D01*
X54625813Y-28209234D01*
X54646235Y-28233033D01*
X54673619Y-28241218D01*
X54697369Y-28257107D01*
X54713189Y-28257398D01*
X54727502Y-28264155D01*
X54743398Y-28262074D01*
X54758765Y-28266667D01*
X54786229Y-28258746D01*
X54814800Y-28259274D01*
X54828269Y-28250964D01*
X54843959Y-28248911D01*
X54856206Y-28238566D01*
X54871618Y-28234122D01*
X54890439Y-28212611D01*
X54914759Y-28197609D01*
X54921597Y-28183336D01*
X54933687Y-28173126D01*
X54938397Y-28157801D01*
X55025357Y-28058419D01*
X55058687Y-28030269D01*
X55071970Y-27987060D01*
X55090948Y-27946030D01*
X55088967Y-27931768D01*
X55093199Y-27918005D01*
X55087003Y-27895874D01*
X55802245Y-27895874D01*
X55824650Y-28011168D01*
X55905830Y-28096046D01*
X56020013Y-28123561D01*
X56454278Y-27972512D01*
X57090066Y-27972512D01*
X57327056Y-28084036D01*
X57444697Y-28188607D01*
X57584648Y-28412526D01*
X57608777Y-28605566D01*
X57531717Y-28811061D01*
X57454789Y-28898978D01*
X57240275Y-29013386D01*
X56742423Y-29141865D01*
X56717473Y-29139834D01*
X56686700Y-29156245D01*
X56681957Y-29157470D01*
X56661422Y-29169727D01*
X56416321Y-29300446D01*
X56380071Y-29310901D01*
X56346433Y-29349343D01*
X56309962Y-29385105D01*
X56308137Y-29393111D01*
X56230355Y-29482005D01*
X56200269Y-29504445D01*
X56182260Y-29552467D01*
X56160740Y-29598995D01*
X56161840Y-29606921D01*
X56075601Y-29836896D01*
X56054035Y-29881904D01*
X56058861Y-29920513D01*
X56056017Y-29959317D01*
X56066008Y-29977691D01*
X56095331Y-30212277D01*
X56094764Y-30257284D01*
X56117999Y-30294460D01*
X56135467Y-30334655D01*
X56148621Y-30343455D01*
X56289217Y-30568409D01*
X56297295Y-30597264D01*
X56319697Y-30617177D01*
X56319699Y-30617180D01*
X56333444Y-30629397D01*
X56480500Y-30760114D01*
X56496479Y-30785614D01*
X56549951Y-30810777D01*
X56602504Y-30835585D01*
X56602632Y-30835568D01*
X56841283Y-30947874D01*
X56879620Y-30972512D01*
X56922895Y-30972512D01*
X56965647Y-30979159D01*
X56980654Y-30972512D01*
X57628874Y-30972512D01*
X57662870Y-30980704D01*
X57713711Y-30963019D01*
X57765324Y-30947865D01*
X57768793Y-30943861D01*
X58156208Y-30809108D01*
X58227391Y-30758253D01*
X58270874Y-30649149D01*
X58248469Y-30533856D01*
X58167290Y-30448978D01*
X58053107Y-30421463D01*
X57618842Y-30572512D01*
X56983053Y-30572512D01*
X56746064Y-30460988D01*
X56628420Y-30356416D01*
X56488470Y-30132496D01*
X56464341Y-29939455D01*
X56541400Y-29733962D01*
X56618330Y-29646042D01*
X56832844Y-29531635D01*
X57330695Y-29403157D01*
X57355646Y-29405189D01*
X57386418Y-29388777D01*
X57391162Y-29387553D01*
X57411700Y-29375293D01*
X57656793Y-29244576D01*
X57693047Y-29234122D01*
X57726691Y-29195671D01*
X57763156Y-29159917D01*
X57764979Y-29151912D01*
X57842761Y-29063019D01*
X57872848Y-29040580D01*
X57890855Y-28992558D01*
X57912377Y-28946030D01*
X57911276Y-28938104D01*
X57974361Y-28769876D01*
X61033490Y-28769876D01*
X61065152Y-28882979D01*
X61947070Y-29666906D01*
X61307077Y-30690896D01*
X61283490Y-30775139D01*
X61317997Y-30887405D01*
X61407722Y-30963194D01*
X61524177Y-30978443D01*
X61630391Y-30928311D01*
X62250304Y-29936448D01*
X62338509Y-30014852D01*
X62439884Y-30825851D01*
X62474752Y-30906085D01*
X62572369Y-30971394D01*
X62689800Y-30973561D01*
X62789759Y-30911896D01*
X62840513Y-30805977D01*
X62731406Y-29933127D01*
X62736056Y-29918004D01*
X62724240Y-29875796D01*
X62605789Y-28928192D01*
X63462439Y-28928192D01*
X63502399Y-29038636D01*
X63595725Y-29109943D01*
X63712788Y-29119475D01*
X63988344Y-28972512D01*
X64465065Y-28972512D01*
X64702055Y-29084036D01*
X64819696Y-29188607D01*
X64959646Y-29412525D01*
X65055205Y-30176995D01*
X64978144Y-30382490D01*
X64901217Y-30470408D01*
X64709773Y-30572512D01*
X64233052Y-30572512D01*
X63943915Y-30436448D01*
X63857471Y-30423008D01*
X63750084Y-30470573D01*
X63685459Y-30568646D01*
X63684114Y-30686087D01*
X63746478Y-30785614D01*
X64091282Y-30947874D01*
X64129619Y-30972512D01*
X64172894Y-30972512D01*
X64215646Y-30979159D01*
X64230653Y-30972512D01*
X64751648Y-30972512D01*
X64802074Y-30976618D01*
X64835798Y-30958631D01*
X64872466Y-30947865D01*
X64886625Y-30931523D01*
X65103221Y-30816006D01*
X65139475Y-30805551D01*
X65173119Y-30767100D01*
X65209584Y-30731346D01*
X65211407Y-30723341D01*
X65289192Y-30634445D01*
X65319276Y-30612008D01*
X65337280Y-30563996D01*
X65358806Y-30517457D01*
X65357705Y-30509529D01*
X65443946Y-30279552D01*
X65465512Y-30234547D01*
X65460685Y-30195938D01*
X65463530Y-30157136D01*
X65453538Y-30138761D01*
X65352786Y-29332743D01*
X65353354Y-29287739D01*
X65330120Y-29250565D01*
X65312651Y-29210367D01*
X65299495Y-29201565D01*
X65278278Y-29167618D01*
X66196890Y-29167618D01*
X66201716Y-29206231D01*
X66198873Y-29245030D01*
X66208863Y-29263402D01*
X66238201Y-29498110D01*
X66237685Y-29543229D01*
X66245375Y-29555502D01*
X66381059Y-30640969D01*
X66380543Y-30686087D01*
X66388233Y-30698360D01*
X66404170Y-30825851D01*
X66439038Y-30906084D01*
X66536655Y-30971394D01*
X66654086Y-30973560D01*
X66735528Y-30923317D01*
X66787711Y-30947874D01*
X66826048Y-30972512D01*
X66869323Y-30972512D01*
X66912075Y-30979159D01*
X66927082Y-30972512D01*
X67590934Y-30972512D01*
X67641360Y-30976618D01*
X67675084Y-30958631D01*
X67711752Y-30947865D01*
X67725911Y-30931523D01*
X67923389Y-30826202D01*
X67939413Y-30825085D01*
X67974371Y-30799011D01*
X67986405Y-30792594D01*
X67997300Y-30781911D01*
X68033562Y-30754866D01*
X68038609Y-30741406D01*
X68048870Y-30731346D01*
X68058917Y-30687251D01*
X68158228Y-30422420D01*
X68179799Y-30377404D01*
X68174972Y-30338790D01*
X68177816Y-30299992D01*
X68167825Y-30281618D01*
X68138500Y-30047028D01*
X68139068Y-30002025D01*
X68115834Y-29964850D01*
X68098365Y-29924653D01*
X68085209Y-29915851D01*
X67960430Y-29716205D01*
X67960432Y-29716080D01*
X67929323Y-29666433D01*
X67914133Y-29642129D01*
X67914045Y-29642050D01*
X67898068Y-29616553D01*
X67871054Y-29603840D01*
X67848745Y-29584012D01*
X67819024Y-29579355D01*
X67553263Y-29454292D01*
X67514927Y-29429655D01*
X67471652Y-29429655D01*
X67428900Y-29423008D01*
X67413893Y-29429655D01*
X66786624Y-29429655D01*
X66623141Y-29352721D01*
X66607197Y-29225170D01*
X66670522Y-29056302D01*
X66827630Y-28972512D01*
X67304351Y-28972512D01*
X67593488Y-29108576D01*
X67679932Y-29122016D01*
X67787319Y-29074451D01*
X67851945Y-28976379D01*
X67853289Y-28858937D01*
X67790925Y-28759410D01*
X67446120Y-28597149D01*
X67407784Y-28572512D01*
X67364509Y-28572512D01*
X67321757Y-28565865D01*
X67306750Y-28572512D01*
X66785754Y-28572512D01*
X66735328Y-28568406D01*
X66701602Y-28586392D01*
X66664937Y-28597159D01*
X66650778Y-28613499D01*
X66453299Y-28718821D01*
X66437276Y-28719939D01*
X66402317Y-28746012D01*
X66390284Y-28752430D01*
X66379388Y-28763112D01*
X66343127Y-28790158D01*
X66338079Y-28803617D01*
X66327819Y-28813678D01*
X66317771Y-28857773D01*
X66218458Y-29122606D01*
X66196890Y-29167618D01*
X65278278Y-29167618D01*
X65158899Y-28976612D01*
X65150822Y-28947759D01*
X65128419Y-28927845D01*
X65128418Y-28927843D01*
X65107233Y-28909013D01*
X64967617Y-28784909D01*
X64951639Y-28759410D01*
X64898166Y-28734246D01*
X64845614Y-28709439D01*
X64845485Y-28709455D01*
X64606834Y-28597149D01*
X64568498Y-28572512D01*
X64525223Y-28572512D01*
X64482471Y-28565865D01*
X64467464Y-28572512D01*
X63946468Y-28572512D01*
X63896042Y-28568406D01*
X63862316Y-28586392D01*
X63825651Y-28597159D01*
X63811492Y-28613499D01*
X63550998Y-28752430D01*
X63488533Y-28813678D01*
X63462439Y-28928192D01*
X62605789Y-28928192D01*
X62528575Y-28310475D01*
X68786177Y-28310475D01*
X68791003Y-28349084D01*
X68788159Y-28387887D01*
X68798150Y-28406261D01*
X68827473Y-28640849D01*
X68826906Y-28685856D01*
X68850141Y-28723031D01*
X68867609Y-28763227D01*
X68880763Y-28772027D01*
X69021360Y-28996982D01*
X69029438Y-29025836D01*
X69051840Y-29045749D01*
X69051842Y-29045752D01*
X69066052Y-29058382D01*
X69179257Y-29159009D01*
X69147928Y-29168044D01*
X69124575Y-29194732D01*
X69095728Y-29215342D01*
X69086681Y-29238040D01*
X68998213Y-29339146D01*
X68968127Y-29361586D01*
X68950119Y-29409606D01*
X68928598Y-29456136D01*
X68929698Y-29464062D01*
X68843458Y-29694037D01*
X68821890Y-29739048D01*
X68826716Y-29777661D01*
X68823873Y-29816459D01*
X68833863Y-29834832D01*
X68881045Y-30212279D01*
X68880478Y-30257284D01*
X68903711Y-30294458D01*
X68921181Y-30334656D01*
X68934336Y-30343457D01*
X69074930Y-30568408D01*
X69083008Y-30597263D01*
X69105411Y-30617177D01*
X69105413Y-30617180D01*
X69118645Y-30628940D01*
X69266213Y-30760113D01*
X69282192Y-30785614D01*
X69335511Y-30810705D01*
X69388216Y-30835585D01*
X69388345Y-30835568D01*
X69626997Y-30947874D01*
X69665334Y-30972512D01*
X69708609Y-30972512D01*
X69751361Y-30979159D01*
X69766368Y-30972512D01*
X70865097Y-30972512D01*
X70921943Y-30973561D01*
X70949051Y-30956837D01*
X70979609Y-30947865D01*
X70997998Y-30926642D01*
X71021902Y-30911896D01*
X71035666Y-30883170D01*
X71056522Y-30859102D01*
X71060518Y-30831307D01*
X71072656Y-30805977D01*
X71068704Y-30774368D01*
X71073237Y-30742847D01*
X71061571Y-30717303D01*
X70872275Y-29202938D01*
X70876808Y-29171418D01*
X70865142Y-29145874D01*
X70693704Y-27774370D01*
X70698237Y-27742847D01*
X70674604Y-27691097D01*
X70651937Y-27638939D01*
X70650276Y-27637828D01*
X70649447Y-27636011D01*
X70601584Y-27605251D01*
X70554320Y-27573630D01*
X70552323Y-27573593D01*
X70550641Y-27572512D01*
X70493707Y-27572512D01*
X70436889Y-27571464D01*
X70435190Y-27572512D01*
X69500040Y-27572512D01*
X69449614Y-27568406D01*
X69415888Y-27586392D01*
X69379223Y-27597159D01*
X69365064Y-27613499D01*
X69148466Y-27729018D01*
X69112214Y-27739473D01*
X69078569Y-27777923D01*
X69042105Y-27813678D01*
X69040281Y-27821682D01*
X68962499Y-27910575D01*
X68932413Y-27933015D01*
X68914404Y-27981036D01*
X68892884Y-28027565D01*
X68893984Y-28035490D01*
X68807742Y-28265469D01*
X68786177Y-28310475D01*
X62528575Y-28310475D01*
X62454662Y-27719173D01*
X62419794Y-27638939D01*
X62322177Y-27573630D01*
X62204746Y-27571464D01*
X62104787Y-27633128D01*
X62054033Y-27739047D01*
X62263249Y-29412772D01*
X61353298Y-28603927D01*
X61274186Y-28566582D01*
X61157730Y-28581826D01*
X61068001Y-28657612D01*
X61033490Y-28769876D01*
X57974361Y-28769876D01*
X57997518Y-28708124D01*
X58019084Y-28663119D01*
X58014257Y-28624509D01*
X58017102Y-28585708D01*
X58007111Y-28567333D01*
X57977787Y-28332744D01*
X57978355Y-28287739D01*
X57955120Y-28250564D01*
X57937652Y-28210368D01*
X57924497Y-28201566D01*
X57783900Y-27976612D01*
X57775823Y-27947759D01*
X57753420Y-27927845D01*
X57753419Y-27927843D01*
X57732234Y-27909013D01*
X57592618Y-27784909D01*
X57576640Y-27759410D01*
X57523167Y-27734246D01*
X57470615Y-27709439D01*
X57470486Y-27709455D01*
X57231835Y-27597149D01*
X57193499Y-27572512D01*
X57150224Y-27572512D01*
X57107472Y-27565865D01*
X57092465Y-27572512D01*
X56444246Y-27572512D01*
X56410250Y-27564320D01*
X56359413Y-27582002D01*
X56307795Y-27597159D01*
X56304325Y-27601163D01*
X55916912Y-27735916D01*
X55845729Y-27786771D01*
X55802245Y-27895874D01*
X55087003Y-27895874D01*
X55081011Y-27874470D01*
X55074795Y-27829696D01*
X55065418Y-27818769D01*
X55061537Y-27804902D01*
X55027746Y-27774865D01*
X54998311Y-27740562D01*
X54984516Y-27736438D01*
X54889902Y-27652337D01*
X54884080Y-27638940D01*
X54858017Y-27621503D01*
X54837597Y-27597705D01*
X54810214Y-27589520D01*
X54786463Y-27573630D01*
X54770641Y-27573338D01*
X54756329Y-27566582D01*
X54740430Y-27568663D01*
X54725067Y-27564071D01*
X54697603Y-27571990D01*
X54669032Y-27571464D01*
X54655564Y-27579771D01*
X54639873Y-27581826D01*
X54627623Y-27592172D01*
X54612214Y-27596616D01*
X54593394Y-27618124D01*
X54569073Y-27633128D01*
X54562233Y-27647400D01*
X54550144Y-27657612D01*
X54545432Y-27672937D01*
X54458477Y-27772314D01*
X54425144Y-27800469D01*
X54411860Y-27843681D01*
X54392884Y-27884708D01*
X54394864Y-27898969D01*
X54390633Y-27912733D01*
X52246715Y-27912733D01*
X52222520Y-27719173D01*
X52187652Y-27638939D01*
X52090035Y-27573630D01*
X51972604Y-27571464D01*
X51872645Y-27633128D01*
X51821891Y-27739047D01*
X48093704Y-27739047D01*
X48093704Y-26356084D01*
X72979417Y-26356084D01*
X72979417Y-32413226D01*
G37*
D10*
G36*
X195453292Y-36466296D02*
G01*
X195453292Y-36647654D01*
X195413963Y-36726310D01*
X195379770Y-36760504D01*
X195301114Y-36799832D01*
X195005470Y-36799832D01*
X194926814Y-36760504D01*
X194892619Y-36726308D01*
X194853292Y-36647654D01*
X194853292Y-36466296D01*
X194872238Y-36428404D01*
X195434346Y-36428404D01*
X195453292Y-36466296D01*
G37*
G36*
X196629864Y-39672692D02*
G01*
X193987006Y-39672692D01*
X193987006Y-38800379D01*
X194650131Y-38800379D01*
X194674526Y-38853798D01*
X194723929Y-38885547D01*
X195945724Y-38885547D01*
X195967276Y-38888827D01*
X195987935Y-38879596D01*
X196009639Y-38873224D01*
X196014338Y-38867800D01*
X196020893Y-38864872D01*
X196033281Y-38845938D01*
X196048096Y-38828842D01*
X196049117Y-38821737D01*
X196053047Y-38815732D01*
X196053233Y-38793108D01*
X196056453Y-38770715D01*
X196053471Y-38764186D01*
X196053531Y-38757008D01*
X196041455Y-38737873D01*
X196032058Y-38717296D01*
X196026019Y-38713415D01*
X196022189Y-38707346D01*
X196001689Y-38697779D01*
X195982655Y-38685547D01*
X195975477Y-38685547D01*
X195332620Y-38385547D01*
X195988726Y-38079364D01*
X196009639Y-38073224D01*
X196024453Y-38056127D01*
X196041430Y-38041170D01*
X196043395Y-38034266D01*
X196048096Y-38028842D01*
X196051315Y-38006449D01*
X196057511Y-37984689D01*
X196055431Y-37977817D01*
X196056453Y-37970715D01*
X196047056Y-37950139D01*
X196040503Y-37928481D01*
X196035039Y-37923825D01*
X196032058Y-37917296D01*
X196013026Y-37905065D01*
X195995806Y-37890390D01*
X195988692Y-37889426D01*
X195982655Y-37885547D01*
X195960036Y-37885547D01*
X195937612Y-37882511D01*
X195931106Y-37885547D01*
X194738913Y-37885547D01*
X194696945Y-37897870D01*
X194658488Y-37942252D01*
X194650131Y-38000379D01*
X194674526Y-38053798D01*
X194723929Y-38085547D01*
X195502535Y-38085547D01*
X195054589Y-38294588D01*
X195028548Y-38306223D01*
X195019884Y-38319462D01*
X195008011Y-38329924D01*
X195004137Y-38343527D01*
X194996394Y-38355362D01*
X194996263Y-38371184D01*
X194991930Y-38386405D01*
X194996026Y-38399943D01*
X194995910Y-38414086D01*
X195004355Y-38427467D01*
X195008938Y-38442613D01*
X195019703Y-38451787D01*
X195027252Y-38463748D01*
X195041589Y-38470438D01*
X195053635Y-38480704D01*
X195067653Y-38482601D01*
X195502536Y-38685547D01*
X194738913Y-38685547D01*
X194696945Y-38697870D01*
X194658488Y-38742252D01*
X194650131Y-38800379D01*
X193987006Y-38800379D01*
X193987006Y-37428950D01*
X194650131Y-37428950D01*
X194674526Y-37482369D01*
X194723929Y-37514118D01*
X195567671Y-37514118D01*
X195609639Y-37501795D01*
X195648096Y-37457413D01*
X195655390Y-37406683D01*
X195735049Y-37406683D01*
X195737455Y-37417745D01*
X195735845Y-37428950D01*
X195740547Y-37439247D01*
X195741355Y-37450540D01*
X195745915Y-37456632D01*
X195747533Y-37464066D01*
X195755536Y-37472069D01*
X195760240Y-37482369D01*
X195769763Y-37488489D01*
X195776548Y-37497552D01*
X195783678Y-37500211D01*
X195820377Y-37536910D01*
X195833691Y-37554695D01*
X195854503Y-37562457D01*
X195873995Y-37573101D01*
X195881583Y-37572558D01*
X195888714Y-37575218D01*
X195910421Y-37570495D01*
X195932571Y-37568911D01*
X195938661Y-37564351D01*
X195946097Y-37562734D01*
X195961802Y-37547028D01*
X195979582Y-37533719D01*
X195982241Y-37526589D01*
X196005953Y-37502877D01*
X196009639Y-37501795D01*
X196021828Y-37487727D01*
X196036725Y-37476576D01*
X196040680Y-37465970D01*
X196048096Y-37457413D01*
X196049707Y-37446206D01*
X196055132Y-37436272D01*
X196054589Y-37428681D01*
X196057248Y-37421553D01*
X196054841Y-37410492D01*
X196056453Y-37399286D01*
X196051749Y-37388986D01*
X196050942Y-37377696D01*
X196046382Y-37371605D01*
X196044765Y-37364170D01*
X196036761Y-37356166D01*
X196032058Y-37345867D01*
X196022532Y-37339745D01*
X196015750Y-37330685D01*
X196008620Y-37328025D01*
X195971916Y-37291321D01*
X195958607Y-37273542D01*
X195937800Y-37265781D01*
X195918303Y-37255135D01*
X195910712Y-37255677D01*
X195903584Y-37253019D01*
X195881884Y-37257739D01*
X195859727Y-37259324D01*
X195853634Y-37263884D01*
X195846201Y-37265502D01*
X195830499Y-37281203D01*
X195812715Y-37294517D01*
X195810055Y-37301647D01*
X195786344Y-37325358D01*
X195782659Y-37326441D01*
X195770471Y-37340506D01*
X195755572Y-37351660D01*
X195751615Y-37362267D01*
X195744202Y-37370823D01*
X195742590Y-37382029D01*
X195737166Y-37391964D01*
X195737708Y-37399552D01*
X195735049Y-37406683D01*
X195655390Y-37406683D01*
X195656453Y-37399286D01*
X195632058Y-37345867D01*
X195582655Y-37314118D01*
X194738913Y-37314118D01*
X194696945Y-37326441D01*
X194658488Y-37370823D01*
X194650131Y-37428950D01*
X193987006Y-37428950D01*
X193987006Y-36453877D01*
X194649672Y-36453877D01*
X194653292Y-36462605D01*
X194653292Y-36665877D01*
X194650718Y-36689720D01*
X194659856Y-36707997D01*
X194665615Y-36727608D01*
X194672755Y-36733795D01*
X194715384Y-36819052D01*
X194718961Y-36835493D01*
X194738438Y-36854971D01*
X194757214Y-36875155D01*
X194759105Y-36875638D01*
X194788001Y-36904535D01*
X194796593Y-36919000D01*
X194821220Y-36931313D01*
X194845423Y-36944529D01*
X194847372Y-36944389D01*
X194932321Y-36986864D01*
X194952500Y-36999832D01*
X194972936Y-36999832D01*
X194993051Y-37003452D01*
X195001779Y-36999832D01*
X195319335Y-36999832D01*
X195343178Y-37002406D01*
X195361454Y-36993267D01*
X195381067Y-36987509D01*
X195387254Y-36980367D01*
X195472513Y-36937738D01*
X195488954Y-36934162D01*
X195508425Y-36914690D01*
X195528615Y-36895910D01*
X195529099Y-36894016D01*
X195557992Y-36865123D01*
X195572460Y-36856531D01*
X195584783Y-36831884D01*
X195597989Y-36807700D01*
X195597849Y-36805751D01*
X195640324Y-36720802D01*
X195653292Y-36700624D01*
X195653292Y-36680188D01*
X195656912Y-36660073D01*
X195653292Y-36651345D01*
X195653292Y-36448074D01*
X195655416Y-36428404D01*
X195967671Y-36428404D01*
X196009639Y-36416081D01*
X196048096Y-36371699D01*
X196056453Y-36313572D01*
X196032058Y-36260153D01*
X195982655Y-36228404D01*
X195508732Y-36228404D01*
X195492475Y-36224247D01*
X195479967Y-36228404D01*
X194812217Y-36228404D01*
X194784615Y-36227430D01*
X194782975Y-36228404D01*
X194738913Y-36228404D01*
X194696945Y-36240727D01*
X194658488Y-36285109D01*
X194650131Y-36343236D01*
X194669742Y-36386180D01*
X194666257Y-36393150D01*
X194653292Y-36413326D01*
X194653292Y-36433761D01*
X194649672Y-36453877D01*
X193987006Y-36453877D01*
X193987006Y-34571807D01*
X194650131Y-34571807D01*
X194653292Y-34578729D01*
X194653292Y-34914211D01*
X194665615Y-34956179D01*
X194709997Y-34994636D01*
X194768124Y-35002993D01*
X194821543Y-34978598D01*
X194853292Y-34929195D01*
X194853292Y-34656975D01*
X195654726Y-34656975D01*
X195605731Y-34705969D01*
X195591265Y-34714562D01*
X195578944Y-34739203D01*
X195565737Y-34763392D01*
X195565876Y-34765340D01*
X195514562Y-34867972D01*
X195506815Y-34911021D01*
X195529314Y-34965266D01*
X195577567Y-34998735D01*
X195636256Y-35000805D01*
X195686747Y-34970816D01*
X195749761Y-34844783D01*
X195845571Y-34748973D01*
X195996083Y-34648632D01*
X196009639Y-34644652D01*
X196020013Y-34632678D01*
X196020726Y-34632204D01*
X196029414Y-34621830D01*
X196048096Y-34600270D01*
X196048225Y-34599368D01*
X196048810Y-34598671D01*
X196052392Y-34570385D01*
X196056453Y-34542143D01*
X196056074Y-34541314D01*
X196056189Y-34540411D01*
X196043910Y-34514678D01*
X196032058Y-34488724D01*
X196031291Y-34488231D01*
X196030900Y-34487411D01*
X196006660Y-34472402D01*
X195982655Y-34456975D01*
X195981745Y-34456975D01*
X195980970Y-34456495D01*
X195952415Y-34456975D01*
X194853292Y-34456975D01*
X194853292Y-34199739D01*
X194840969Y-34157771D01*
X194796587Y-34119314D01*
X194738460Y-34110957D01*
X194685041Y-34135352D01*
X194653292Y-34184755D01*
X194653292Y-34549821D01*
X194650131Y-34571807D01*
X193987006Y-34571807D01*
X193987006Y-33384119D01*
X196629864Y-33384119D01*
X196629864Y-39672692D01*
G37*
X297956577Y-23669994D02*
X296670863Y-23669994D01*
X297442292Y-22898565D02*
X297956577Y-25212851D01*
X296842292Y-24441422D02*
X298128006Y-24441422D01*
X297356577Y-25212851D02*
X296842292Y-22898565D01*
X296156577Y-24784280D02*
X295899435Y-24869994D01*
X295899435Y-24869994D02*
X295470863Y-24869994D01*
X295470863Y-24869994D02*
X295299435Y-24784280D01*
X295299435Y-24784280D02*
X295213720Y-24698565D01*
X295213720Y-24698565D02*
X295128006Y-24527137D01*
X295128006Y-24527137D02*
X295128006Y-24355708D01*
X295128006Y-24355708D02*
X295213720Y-24184280D01*
X295213720Y-24184280D02*
X295299435Y-24098565D01*
X295299435Y-24098565D02*
X295470863Y-24012851D01*
X295470863Y-24012851D02*
X295813720Y-23927137D01*
X295813720Y-23927137D02*
X295985149Y-23841422D01*
X295985149Y-23841422D02*
X296070863Y-23755708D01*
X296070863Y-23755708D02*
X296156577Y-23584280D01*
X296156577Y-23584280D02*
X296156577Y-23412851D01*
X296156577Y-23412851D02*
X296070863Y-23241422D01*
X296070863Y-23241422D02*
X295985149Y-23155708D01*
X295985149Y-23155708D02*
X295813720Y-23069994D01*
X295813720Y-23069994D02*
X295385149Y-23069994D01*
X295385149Y-23069994D02*
X295128006Y-23155708D01*
X293585149Y-24869994D02*
X293585149Y-23927137D01*
X293585149Y-23927137D02*
X293670863Y-23755708D01*
X293670863Y-23755708D02*
X293842291Y-23669994D01*
X293842291Y-23669994D02*
X294185149Y-23669994D01*
X294185149Y-23669994D02*
X294356577Y-23755708D01*
X293585149Y-24784280D02*
X293756577Y-24869994D01*
X293756577Y-24869994D02*
X294185149Y-24869994D01*
X294185149Y-24869994D02*
X294356577Y-24784280D01*
X294356577Y-24784280D02*
X294442291Y-24612851D01*
X294442291Y-24612851D02*
X294442291Y-24441422D01*
X294442291Y-24441422D02*
X294356577Y-24269994D01*
X294356577Y-24269994D02*
X294185149Y-24184280D01*
X294185149Y-24184280D02*
X293756577Y-24184280D01*
X293756577Y-24184280D02*
X293585149Y-24098565D01*
X292728006Y-23669994D02*
X292728006Y-24869994D01*
X292728006Y-23841422D02*
X292642292Y-23755708D01*
X292642292Y-23755708D02*
X292470863Y-23669994D01*
X292470863Y-23669994D02*
X292213720Y-23669994D01*
X292213720Y-23669994D02*
X292042292Y-23755708D01*
X292042292Y-23755708D02*
X291956578Y-23927137D01*
X291956578Y-23927137D02*
X291956578Y-24869994D01*
X290328007Y-24869994D02*
X290328007Y-23069994D01*
X290328007Y-24784280D02*
X290499435Y-24869994D01*
X290499435Y-24869994D02*
X290842292Y-24869994D01*
X290842292Y-24869994D02*
X291013721Y-24784280D01*
X291013721Y-24784280D02*
X291099435Y-24698565D01*
X291099435Y-24698565D02*
X291185149Y-24527137D01*
X291185149Y-24527137D02*
X291185149Y-24012851D01*
X291185149Y-24012851D02*
X291099435Y-23841422D01*
X291099435Y-23841422D02*
X291013721Y-23755708D01*
X291013721Y-23755708D02*
X290842292Y-23669994D01*
X290842292Y-23669994D02*
X290499435Y-23669994D01*
X290499435Y-23669994D02*
X290328007Y-23755708D01*
X289642293Y-23669994D02*
X289213721Y-24869994D01*
X288785150Y-23669994D02*
X289213721Y-24869994D01*
X289213721Y-24869994D02*
X289385150Y-25298565D01*
X289385150Y-25298565D02*
X289470864Y-25384280D01*
X289470864Y-25384280D02*
X289642293Y-25469994D01*
X288528007Y-25041422D02*
X287156578Y-25041422D01*
X286728006Y-24869994D02*
X286728006Y-23069994D01*
X286556578Y-24184280D02*
X286042292Y-24869994D01*
X286042292Y-23669994D02*
X286728006Y-24355708D01*
X285270863Y-24869994D02*
X285270863Y-23069994D01*
X285270863Y-23755708D02*
X285099435Y-23669994D01*
X285099435Y-23669994D02*
X284756577Y-23669994D01*
X284756577Y-23669994D02*
X284585149Y-23755708D01*
X284585149Y-23755708D02*
X284499435Y-23841422D01*
X284499435Y-23841422D02*
X284413720Y-24012851D01*
X284413720Y-24012851D02*
X284413720Y-24527137D01*
X284413720Y-24527137D02*
X284499435Y-24698565D01*
X284499435Y-24698565D02*
X284585149Y-24784280D01*
X284585149Y-24784280D02*
X284756577Y-24869994D01*
X284756577Y-24869994D02*
X285099435Y-24869994D01*
X285099435Y-24869994D02*
X285270863Y-24784280D01*
X282870864Y-24869994D02*
X282870864Y-23069994D01*
X282870864Y-24784280D02*
X283042292Y-24869994D01*
X283042292Y-24869994D02*
X283385149Y-24869994D01*
X283385149Y-24869994D02*
X283556578Y-24784280D01*
X283556578Y-24784280D02*
X283642292Y-24698565D01*
X283642292Y-24698565D02*
X283728006Y-24527137D01*
X283728006Y-24527137D02*
X283728006Y-24012851D01*
X283728006Y-24012851D02*
X283642292Y-23841422D01*
X283642292Y-23841422D02*
X283556578Y-23755708D01*
X283556578Y-23755708D02*
X283385149Y-23669994D01*
X283385149Y-23669994D02*
X283042292Y-23669994D01*
X283042292Y-23669994D02*
X282870864Y-23755708D01*
X280642292Y-24869994D02*
X280642292Y-23069994D01*
X280642292Y-23069994D02*
X280213721Y-23069994D01*
X280213721Y-23069994D02*
X279956578Y-23155708D01*
X279956578Y-23155708D02*
X279785149Y-23327137D01*
X279785149Y-23327137D02*
X279699435Y-23498565D01*
X279699435Y-23498565D02*
X279613721Y-23841422D01*
X279613721Y-23841422D02*
X279613721Y-24098565D01*
X279613721Y-24098565D02*
X279699435Y-24441422D01*
X279699435Y-24441422D02*
X279785149Y-24612851D01*
X279785149Y-24612851D02*
X279956578Y-24784280D01*
X279956578Y-24784280D02*
X280213721Y-24869994D01*
X280213721Y-24869994D02*
X280642292Y-24869994D01*
X278842292Y-24869994D02*
X278842292Y-23069994D01*
X278842292Y-23069994D02*
X277813721Y-24869994D01*
X277813721Y-24869994D02*
X277813721Y-23069994D01*
X276613721Y-23069994D02*
X276442292Y-23069994D01*
X276442292Y-23069994D02*
X276270864Y-23155708D01*
X276270864Y-23155708D02*
X276185150Y-23241422D01*
X276185150Y-23241422D02*
X276099435Y-23412851D01*
X276099435Y-23412851D02*
X276013721Y-23755708D01*
X276013721Y-23755708D02*
X276013721Y-24184280D01*
X276013721Y-24184280D02*
X276099435Y-24527137D01*
X276099435Y-24527137D02*
X276185150Y-24698565D01*
X276185150Y-24698565D02*
X276270864Y-24784280D01*
X276270864Y-24784280D02*
X276442292Y-24869994D01*
X276442292Y-24869994D02*
X276613721Y-24869994D01*
X276613721Y-24869994D02*
X276785150Y-24784280D01*
X276785150Y-24784280D02*
X276870864Y-24698565D01*
X276870864Y-24698565D02*
X276956578Y-24527137D01*
X276956578Y-24527137D02*
X277042292Y-24184280D01*
X277042292Y-24184280D02*
X277042292Y-23755708D01*
X277042292Y-23755708D02*
X276956578Y-23412851D01*
X276956578Y-23412851D02*
X276870864Y-23241422D01*
X276870864Y-23241422D02*
X276785150Y-23155708D01*
X276785150Y-23155708D02*
X276613721Y-23069994D01*
X274899435Y-23069994D02*
X274728006Y-23069994D01*
X274728006Y-23069994D02*
X274556578Y-23155708D01*
X274556578Y-23155708D02*
X274470864Y-23241422D01*
X274470864Y-23241422D02*
X274385149Y-23412851D01*
X274385149Y-23412851D02*
X274299435Y-23755708D01*
X274299435Y-23755708D02*
X274299435Y-24184280D01*
X274299435Y-24184280D02*
X274385149Y-24527137D01*
X274385149Y-24527137D02*
X274470864Y-24698565D01*
X274470864Y-24698565D02*
X274556578Y-24784280D01*
X274556578Y-24784280D02*
X274728006Y-24869994D01*
X274728006Y-24869994D02*
X274899435Y-24869994D01*
X274899435Y-24869994D02*
X275070864Y-24784280D01*
X275070864Y-24784280D02*
X275156578Y-24698565D01*
X275156578Y-24698565D02*
X275242292Y-24527137D01*
X275242292Y-24527137D02*
X275328006Y-24184280D01*
X275328006Y-24184280D02*
X275328006Y-23755708D01*
X275328006Y-23755708D02*
X275242292Y-23412851D01*
X275242292Y-23412851D02*
X275156578Y-23241422D01*
X275156578Y-23241422D02*
X275070864Y-23155708D01*
X275070864Y-23155708D02*
X274899435Y-23069994D01*
X273613720Y-23241422D02*
X273528006Y-23155708D01*
X273528006Y-23155708D02*
X273356578Y-23069994D01*
X273356578Y-23069994D02*
X272928006Y-23069994D01*
X272928006Y-23069994D02*
X272756578Y-23155708D01*
X272756578Y-23155708D02*
X272670863Y-23241422D01*
X272670863Y-23241422D02*
X272585149Y-23412851D01*
X272585149Y-23412851D02*
X272585149Y-23584280D01*
X272585149Y-23584280D02*
X272670863Y-23841422D01*
X272670863Y-23841422D02*
X273699435Y-24869994D01*
X273699435Y-24869994D02*
X272585149Y-24869994D01*
X271470863Y-23069994D02*
X271299434Y-23069994D01*
X271299434Y-23069994D02*
X271128006Y-23155708D01*
X271128006Y-23155708D02*
X271042292Y-23241422D01*
X271042292Y-23241422D02*
X270956577Y-23412851D01*
X270956577Y-23412851D02*
X270870863Y-23755708D01*
X270870863Y-23755708D02*
X270870863Y-24184280D01*
X270870863Y-24184280D02*
X270956577Y-24527137D01*
X270956577Y-24527137D02*
X271042292Y-24698565D01*
X271042292Y-24698565D02*
X271128006Y-24784280D01*
X271128006Y-24784280D02*
X271299434Y-24869994D01*
X271299434Y-24869994D02*
X271470863Y-24869994D01*
X271470863Y-24869994D02*
X271642292Y-24784280D01*
X271642292Y-24784280D02*
X271728006Y-24698565D01*
X271728006Y-24698565D02*
X271813720Y-24527137D01*
X271813720Y-24527137D02*
X271899434Y-24184280D01*
X271899434Y-24184280D02*
X271899434Y-23755708D01*
X271899434Y-23755708D02*
X271813720Y-23412851D01*
X271813720Y-23412851D02*
X271728006Y-23241422D01*
X271728006Y-23241422D02*
X271642292Y-23155708D01*
X271642292Y-23155708D02*
X271470863Y-23069994D01*
X270013720Y-24784280D02*
X270013720Y-24869994D01*
X270013720Y-24869994D02*
X270099434Y-25041422D01*
X270099434Y-25041422D02*
X270185148Y-25127137D01*
X267870862Y-24869994D02*
X267870862Y-23069994D01*
X267870862Y-23069994D02*
X267270862Y-24355708D01*
X267270862Y-24355708D02*
X266670862Y-23069994D01*
X266670862Y-23069994D02*
X266670862Y-24869994D01*
X265813719Y-24869994D02*
X265813719Y-23669994D01*
X265813719Y-23069994D02*
X265899433Y-23155708D01*
X265899433Y-23155708D02*
X265813719Y-23241422D01*
X265813719Y-23241422D02*
X265728005Y-23155708D01*
X265728005Y-23155708D02*
X265813719Y-23069994D01*
X265813719Y-23069994D02*
X265813719Y-23241422D01*
X264185148Y-24869994D02*
X264185148Y-23069994D01*
X264185148Y-24784280D02*
X264356576Y-24869994D01*
X264356576Y-24869994D02*
X264699433Y-24869994D01*
X264699433Y-24869994D02*
X264870862Y-24784280D01*
X264870862Y-24784280D02*
X264956576Y-24698565D01*
X264956576Y-24698565D02*
X265042290Y-24527137D01*
X265042290Y-24527137D02*
X265042290Y-24012851D01*
X265042290Y-24012851D02*
X264956576Y-23841422D01*
X264956576Y-23841422D02*
X264870862Y-23755708D01*
X264870862Y-23755708D02*
X264699433Y-23669994D01*
X264699433Y-23669994D02*
X264356576Y-23669994D01*
X264356576Y-23669994D02*
X264185148Y-23755708D01*
X297870863Y-27785994D02*
X297870863Y-25985994D01*
X297870863Y-26671708D02*
X297699435Y-26585994D01*
X297699435Y-26585994D02*
X297356577Y-26585994D01*
X297356577Y-26585994D02*
X297185149Y-26671708D01*
X297185149Y-26671708D02*
X297099435Y-26757422D01*
X297099435Y-26757422D02*
X297013720Y-26928851D01*
X297013720Y-26928851D02*
X297013720Y-27443137D01*
X297013720Y-27443137D02*
X297099435Y-27614565D01*
X297099435Y-27614565D02*
X297185149Y-27700280D01*
X297185149Y-27700280D02*
X297356577Y-27785994D01*
X297356577Y-27785994D02*
X297699435Y-27785994D01*
X297699435Y-27785994D02*
X297870863Y-27700280D01*
X296413721Y-26585994D02*
X295985149Y-27785994D01*
X295556578Y-26585994D02*
X295985149Y-27785994D01*
X295985149Y-27785994D02*
X296156578Y-28214565D01*
X296156578Y-28214565D02*
X296242292Y-28300280D01*
X296242292Y-28300280D02*
X296413721Y-28385994D01*
X292385148Y-26928851D02*
X292470863Y-26843137D01*
X292470863Y-26843137D02*
X292642291Y-26757422D01*
X292642291Y-26757422D02*
X292813720Y-26757422D01*
X292813720Y-26757422D02*
X292985148Y-26843137D01*
X292985148Y-26843137D02*
X293070863Y-26928851D01*
X293070863Y-26928851D02*
X293156577Y-27100280D01*
X293156577Y-27100280D02*
X293156577Y-27271708D01*
X293156577Y-27271708D02*
X293070863Y-27443137D01*
X293070863Y-27443137D02*
X292985148Y-27528851D01*
X292985148Y-27528851D02*
X292813720Y-27614565D01*
X292813720Y-27614565D02*
X292642291Y-27614565D01*
X292642291Y-27614565D02*
X292470863Y-27528851D01*
X292470863Y-27528851D02*
X292385148Y-27443137D01*
X292385148Y-26757422D02*
X292385148Y-27443137D01*
X292385148Y-27443137D02*
X292299434Y-27528851D01*
X292299434Y-27528851D02*
X292213720Y-27528851D01*
X292213720Y-27528851D02*
X292042291Y-27443137D01*
X292042291Y-27443137D02*
X291956577Y-27271708D01*
X291956577Y-27271708D02*
X291956577Y-26843137D01*
X291956577Y-26843137D02*
X292128006Y-26585994D01*
X292128006Y-26585994D02*
X292385148Y-26414565D01*
X292385148Y-26414565D02*
X292728006Y-26328851D01*
X292728006Y-26328851D02*
X293070863Y-26414565D01*
X293070863Y-26414565D02*
X293328006Y-26585994D01*
X293328006Y-26585994D02*
X293499434Y-26843137D01*
X293499434Y-26843137D02*
X293585148Y-27185994D01*
X293585148Y-27185994D02*
X293499434Y-27528851D01*
X293499434Y-27528851D02*
X293328006Y-27785994D01*
X293328006Y-27785994D02*
X293070863Y-27957422D01*
X293070863Y-27957422D02*
X292728006Y-28043137D01*
X292728006Y-28043137D02*
X292385148Y-27957422D01*
X292385148Y-27957422D02*
X292128006Y-27785994D01*
X291185148Y-26585994D02*
X291185148Y-28128851D01*
X291185148Y-28128851D02*
X291270862Y-28300280D01*
X291270862Y-28300280D02*
X291442291Y-28385994D01*
X291442291Y-28385994D02*
X291528005Y-28385994D01*
X291185148Y-25985994D02*
X291270862Y-26071708D01*
X291270862Y-26071708D02*
X291185148Y-26157422D01*
X291185148Y-26157422D02*
X291099434Y-26071708D01*
X291099434Y-26071708D02*
X291185148Y-25985994D01*
X291185148Y-25985994D02*
X291185148Y-26157422D01*
X290328005Y-26585994D02*
X290328005Y-28385994D01*
X290328005Y-26671708D02*
X290156577Y-26585994D01*
X290156577Y-26585994D02*
X289813719Y-26585994D01*
X289813719Y-26585994D02*
X289642291Y-26671708D01*
X289642291Y-26671708D02*
X289556577Y-26757422D01*
X289556577Y-26757422D02*
X289470862Y-26928851D01*
X289470862Y-26928851D02*
X289470862Y-27443137D01*
X289470862Y-27443137D02*
X289556577Y-27614565D01*
X289556577Y-27614565D02*
X289642291Y-27700280D01*
X289642291Y-27700280D02*
X289813719Y-27785994D01*
X289813719Y-27785994D02*
X290156577Y-27785994D01*
X290156577Y-27785994D02*
X290328005Y-27700280D01*
X288785148Y-27700280D02*
X288613720Y-27785994D01*
X288613720Y-27785994D02*
X288270863Y-27785994D01*
X288270863Y-27785994D02*
X288099434Y-27700280D01*
X288099434Y-27700280D02*
X288013720Y-27528851D01*
X288013720Y-27528851D02*
X288013720Y-27443137D01*
X288013720Y-27443137D02*
X288099434Y-27271708D01*
X288099434Y-27271708D02*
X288270863Y-27185994D01*
X288270863Y-27185994D02*
X288528006Y-27185994D01*
X288528006Y-27185994D02*
X288699434Y-27100280D01*
X288699434Y-27100280D02*
X288785148Y-26928851D01*
X288785148Y-26928851D02*
X288785148Y-26843137D01*
X288785148Y-26843137D02*
X288699434Y-26671708D01*
X288699434Y-26671708D02*
X288528006Y-26585994D01*
X288528006Y-26585994D02*
X288270863Y-26585994D01*
X288270863Y-26585994D02*
X288099434Y-26671708D01*
X287242291Y-27785994D02*
X287242291Y-25985994D01*
X287070863Y-27100280D02*
X286556577Y-27785994D01*
X286556577Y-26585994D02*
X287242291Y-27271708D01*
X285099434Y-27700280D02*
X285270862Y-27785994D01*
X285270862Y-27785994D02*
X285613720Y-27785994D01*
X285613720Y-27785994D02*
X285785148Y-27700280D01*
X285785148Y-27700280D02*
X285870862Y-27528851D01*
X285870862Y-27528851D02*
X285870862Y-26843137D01*
X285870862Y-26843137D02*
X285785148Y-26671708D01*
X285785148Y-26671708D02*
X285613720Y-26585994D01*
X285613720Y-26585994D02*
X285270862Y-26585994D01*
X285270862Y-26585994D02*
X285099434Y-26671708D01*
X285099434Y-26671708D02*
X285013720Y-26843137D01*
X285013720Y-26843137D02*
X285013720Y-27014565D01*
X285013720Y-27014565D02*
X285870862Y-27185994D01*
X284242291Y-26585994D02*
X284242291Y-27785994D01*
X284242291Y-26757422D02*
X284156577Y-26671708D01*
X284156577Y-26671708D02*
X283985148Y-26585994D01*
X283985148Y-26585994D02*
X283728005Y-26585994D01*
X283728005Y-26585994D02*
X283556577Y-26671708D01*
X283556577Y-26671708D02*
X283470863Y-26843137D01*
X283470863Y-26843137D02*
X283470863Y-27785994D01*
X282613720Y-26585994D02*
X282613720Y-27785994D01*
X282613720Y-26757422D02*
X282528006Y-26671708D01*
X282528006Y-26671708D02*
X282356577Y-26585994D01*
X282356577Y-26585994D02*
X282099434Y-26585994D01*
X282099434Y-26585994D02*
X281928006Y-26671708D01*
X281928006Y-26671708D02*
X281842292Y-26843137D01*
X281842292Y-26843137D02*
X281842292Y-27785994D01*
D13*
X203094804Y-44216946D02*
X203809089Y-44216946D01*
X203809089Y-44216946D02*
X203951946Y-44169327D01*
X203951946Y-44169327D02*
X204047185Y-44074089D01*
X204047185Y-44074089D02*
X204094804Y-43931232D01*
X204094804Y-43931232D02*
X204094804Y-43835994D01*
X203190042Y-44645518D02*
X203142423Y-44693137D01*
X203142423Y-44693137D02*
X203094804Y-44788375D01*
X203094804Y-44788375D02*
X203094804Y-45026470D01*
X203094804Y-45026470D02*
X203142423Y-45121708D01*
X203142423Y-45121708D02*
X203190042Y-45169327D01*
X203190042Y-45169327D02*
X203285280Y-45216946D01*
X203285280Y-45216946D02*
X203380518Y-45216946D01*
X203380518Y-45216946D02*
X203523375Y-45169327D01*
X203523375Y-45169327D02*
X204094804Y-44597899D01*
X204094804Y-44597899D02*
X204094804Y-45216946D01*
X41380429Y-52459060D02*
X40380429Y-52459060D01*
X40380429Y-52459060D02*
X40380429Y-52697155D01*
X40380429Y-52697155D02*
X40428048Y-52840012D01*
X40428048Y-52840012D02*
X40523286Y-52935250D01*
X40523286Y-52935250D02*
X40618524Y-52982869D01*
X40618524Y-52982869D02*
X40809000Y-53030488D01*
X40809000Y-53030488D02*
X40951857Y-53030488D01*
X40951857Y-53030488D02*
X41142333Y-52982869D01*
X41142333Y-52982869D02*
X41237571Y-52935250D01*
X41237571Y-52935250D02*
X41332810Y-52840012D01*
X41332810Y-52840012D02*
X41380429Y-52697155D01*
X41380429Y-52697155D02*
X41380429Y-52459060D01*
X41380429Y-53982869D02*
X41380429Y-53411441D01*
X41380429Y-53697155D02*
X40380429Y-53697155D01*
X40380429Y-53697155D02*
X40523286Y-53601917D01*
X40523286Y-53601917D02*
X40618524Y-53506679D01*
X40618524Y-53506679D02*
X40666143Y-53411441D01*
X185983434Y-26558964D02*
X185650101Y-26558964D01*
X185507244Y-27082774D02*
X185983434Y-27082774D01*
X185983434Y-27082774D02*
X185983434Y-26082774D01*
X185983434Y-26082774D02*
X185507244Y-26082774D01*
X185173910Y-26082774D02*
X184507244Y-27082774D01*
X184507244Y-26082774D02*
X185173910Y-27082774D01*
X184269148Y-26082774D02*
X183697720Y-26082774D01*
X183983434Y-27082774D02*
X183983434Y-26082774D01*
X183602482Y-27178012D02*
X182840577Y-27178012D01*
X182602481Y-27082774D02*
X182602481Y-26082774D01*
X182602481Y-26082774D02*
X182269148Y-26797059D01*
X182269148Y-26797059D02*
X181935815Y-26082774D01*
X181935815Y-26082774D02*
X181935815Y-27082774D01*
X180888196Y-27082774D02*
X181221529Y-26606583D01*
X181459624Y-27082774D02*
X181459624Y-26082774D01*
X181459624Y-26082774D02*
X181078672Y-26082774D01*
X181078672Y-26082774D02*
X180983434Y-26130393D01*
X180983434Y-26130393D02*
X180935815Y-26178012D01*
X180935815Y-26178012D02*
X180888196Y-26273250D01*
X180888196Y-26273250D02*
X180888196Y-26416107D01*
X180888196Y-26416107D02*
X180935815Y-26511345D01*
X180935815Y-26511345D02*
X180983434Y-26558964D01*
X180983434Y-26558964D02*
X181078672Y-26606583D01*
X181078672Y-26606583D02*
X181459624Y-26606583D01*
X180316767Y-26511345D02*
X180412005Y-26463726D01*
X180412005Y-26463726D02*
X180459624Y-26416107D01*
X180459624Y-26416107D02*
X180507243Y-26320869D01*
X180507243Y-26320869D02*
X180507243Y-26273250D01*
X180507243Y-26273250D02*
X180459624Y-26178012D01*
X180459624Y-26178012D02*
X180412005Y-26130393D01*
X180412005Y-26130393D02*
X180316767Y-26082774D01*
X180316767Y-26082774D02*
X180126291Y-26082774D01*
X180126291Y-26082774D02*
X180031053Y-26130393D01*
X180031053Y-26130393D02*
X179983434Y-26178012D01*
X179983434Y-26178012D02*
X179935815Y-26273250D01*
X179935815Y-26273250D02*
X179935815Y-26320869D01*
X179935815Y-26320869D02*
X179983434Y-26416107D01*
X179983434Y-26416107D02*
X180031053Y-26463726D01*
X180031053Y-26463726D02*
X180126291Y-26511345D01*
X180126291Y-26511345D02*
X180316767Y-26511345D01*
X180316767Y-26511345D02*
X180412005Y-26558964D01*
X180412005Y-26558964D02*
X180459624Y-26606583D01*
X180459624Y-26606583D02*
X180507243Y-26701821D01*
X180507243Y-26701821D02*
X180507243Y-26892297D01*
X180507243Y-26892297D02*
X180459624Y-26987535D01*
X180459624Y-26987535D02*
X180412005Y-27035155D01*
X180412005Y-27035155D02*
X180316767Y-27082774D01*
X180316767Y-27082774D02*
X180126291Y-27082774D01*
X180126291Y-27082774D02*
X180031053Y-27035155D01*
X180031053Y-27035155D02*
X179983434Y-26987535D01*
X179983434Y-26987535D02*
X179935815Y-26892297D01*
X179935815Y-26892297D02*
X179935815Y-26701821D01*
X179935815Y-26701821D02*
X179983434Y-26606583D01*
X179983434Y-26606583D02*
X180031053Y-26558964D01*
X180031053Y-26558964D02*
X180126291Y-26511345D01*
X105020934Y-26558964D02*
X104687601Y-26558964D01*
X104544744Y-27082774D02*
X105020934Y-27082774D01*
X105020934Y-27082774D02*
X105020934Y-26082774D01*
X105020934Y-26082774D02*
X104544744Y-26082774D01*
X104211410Y-26082774D02*
X103544744Y-27082774D01*
X103544744Y-26082774D02*
X104211410Y-27082774D01*
X103306648Y-26082774D02*
X102735220Y-26082774D01*
X103020934Y-27082774D02*
X103020934Y-26082774D01*
X102639982Y-27178012D02*
X101878077Y-27178012D01*
X101639981Y-27082774D02*
X101639981Y-26082774D01*
X101639981Y-26082774D02*
X101306648Y-26797059D01*
X101306648Y-26797059D02*
X100973315Y-26082774D01*
X100973315Y-26082774D02*
X100973315Y-27082774D01*
X99925696Y-26987535D02*
X99973315Y-27035155D01*
X99973315Y-27035155D02*
X100116172Y-27082774D01*
X100116172Y-27082774D02*
X100211410Y-27082774D01*
X100211410Y-27082774D02*
X100354267Y-27035155D01*
X100354267Y-27035155D02*
X100449505Y-26939916D01*
X100449505Y-26939916D02*
X100497124Y-26844678D01*
X100497124Y-26844678D02*
X100544743Y-26654202D01*
X100544743Y-26654202D02*
X100544743Y-26511345D01*
X100544743Y-26511345D02*
X100497124Y-26320869D01*
X100497124Y-26320869D02*
X100449505Y-26225631D01*
X100449505Y-26225631D02*
X100354267Y-26130393D01*
X100354267Y-26130393D02*
X100211410Y-26082774D01*
X100211410Y-26082774D02*
X100116172Y-26082774D01*
X100116172Y-26082774D02*
X99973315Y-26130393D01*
X99973315Y-26130393D02*
X99925696Y-26178012D01*
X99306648Y-26082774D02*
X99211410Y-26082774D01*
X99211410Y-26082774D02*
X99116172Y-26130393D01*
X99116172Y-26130393D02*
X99068553Y-26178012D01*
X99068553Y-26178012D02*
X99020934Y-26273250D01*
X99020934Y-26273250D02*
X98973315Y-26463726D01*
X98973315Y-26463726D02*
X98973315Y-26701821D01*
X98973315Y-26701821D02*
X99020934Y-26892297D01*
X99020934Y-26892297D02*
X99068553Y-26987535D01*
X99068553Y-26987535D02*
X99116172Y-27035155D01*
X99116172Y-27035155D02*
X99211410Y-27082774D01*
X99211410Y-27082774D02*
X99306648Y-27082774D01*
X99306648Y-27082774D02*
X99401886Y-27035155D01*
X99401886Y-27035155D02*
X99449505Y-26987535D01*
X99449505Y-26987535D02*
X99497124Y-26892297D01*
X99497124Y-26892297D02*
X99544743Y-26701821D01*
X99544743Y-26701821D02*
X99544743Y-26463726D01*
X99544743Y-26463726D02*
X99497124Y-26273250D01*
X99497124Y-26273250D02*
X99449505Y-26178012D01*
X99449505Y-26178012D02*
X99401886Y-26130393D01*
X99401886Y-26130393D02*
X99306648Y-26082774D01*
X217592929Y-52459060D02*
X216592929Y-52459060D01*
X216592929Y-52459060D02*
X216592929Y-52697155D01*
X216592929Y-52697155D02*
X216640548Y-52840012D01*
X216640548Y-52840012D02*
X216735786Y-52935250D01*
X216735786Y-52935250D02*
X216831024Y-52982869D01*
X216831024Y-52982869D02*
X217021500Y-53030488D01*
X217021500Y-53030488D02*
X217164357Y-53030488D01*
X217164357Y-53030488D02*
X217354833Y-52982869D01*
X217354833Y-52982869D02*
X217450071Y-52935250D01*
X217450071Y-52935250D02*
X217545310Y-52840012D01*
X217545310Y-52840012D02*
X217592929Y-52697155D01*
X217592929Y-52697155D02*
X217592929Y-52459060D01*
X216926262Y-53887631D02*
X217592929Y-53887631D01*
X216545310Y-53649536D02*
X217259595Y-53411441D01*
X217259595Y-53411441D02*
X217259595Y-54030488D01*
X278314804Y-52459060D02*
X277314804Y-52459060D01*
X277314804Y-52459060D02*
X277314804Y-52697155D01*
X277314804Y-52697155D02*
X277362423Y-52840012D01*
X277362423Y-52840012D02*
X277457661Y-52935250D01*
X277457661Y-52935250D02*
X277552899Y-52982869D01*
X277552899Y-52982869D02*
X277743375Y-53030488D01*
X277743375Y-53030488D02*
X277886232Y-53030488D01*
X277886232Y-53030488D02*
X278076708Y-52982869D01*
X278076708Y-52982869D02*
X278171946Y-52935250D01*
X278171946Y-52935250D02*
X278267185Y-52840012D01*
X278267185Y-52840012D02*
X278314804Y-52697155D01*
X278314804Y-52697155D02*
X278314804Y-52459060D01*
X277314804Y-53887631D02*
X277314804Y-53697155D01*
X277314804Y-53697155D02*
X277362423Y-53601917D01*
X277362423Y-53601917D02*
X277410042Y-53554298D01*
X277410042Y-53554298D02*
X277552899Y-53459060D01*
X277552899Y-53459060D02*
X277743375Y-53411441D01*
X277743375Y-53411441D02*
X278124327Y-53411441D01*
X278124327Y-53411441D02*
X278219565Y-53459060D01*
X278219565Y-53459060D02*
X278267185Y-53506679D01*
X278267185Y-53506679D02*
X278314804Y-53601917D01*
X278314804Y-53601917D02*
X278314804Y-53792393D01*
X278314804Y-53792393D02*
X278267185Y-53887631D01*
X278267185Y-53887631D02*
X278219565Y-53935250D01*
X278219565Y-53935250D02*
X278124327Y-53982869D01*
X278124327Y-53982869D02*
X277886232Y-53982869D01*
X277886232Y-53982869D02*
X277790994Y-53935250D01*
X277790994Y-53935250D02*
X277743375Y-53887631D01*
X277743375Y-53887631D02*
X277695756Y-53792393D01*
X277695756Y-53792393D02*
X277695756Y-53601917D01*
X277695756Y-53601917D02*
X277743375Y-53506679D01*
X277743375Y-53506679D02*
X277790994Y-53459060D01*
X277790994Y-53459060D02*
X277886232Y-53411441D01*
X177111679Y-76985994D02*
X176111679Y-76985994D01*
X176111679Y-76985994D02*
X176111679Y-77224089D01*
X176111679Y-77224089D02*
X176159298Y-77366946D01*
X176159298Y-77366946D02*
X176254536Y-77462184D01*
X176254536Y-77462184D02*
X176349774Y-77509803D01*
X176349774Y-77509803D02*
X176540250Y-77557422D01*
X176540250Y-77557422D02*
X176683107Y-77557422D01*
X176683107Y-77557422D02*
X176873583Y-77509803D01*
X176873583Y-77509803D02*
X176968821Y-77462184D01*
X176968821Y-77462184D02*
X177064060Y-77366946D01*
X177064060Y-77366946D02*
X177111679Y-77224089D01*
X177111679Y-77224089D02*
X177111679Y-76985994D01*
X177111679Y-78509803D02*
X177111679Y-77938375D01*
X177111679Y-78224089D02*
X176111679Y-78224089D01*
X176111679Y-78224089D02*
X176254536Y-78128851D01*
X176254536Y-78128851D02*
X176349774Y-78033613D01*
X176349774Y-78033613D02*
X176397393Y-77938375D01*
X176111679Y-78843137D02*
X176111679Y-79462184D01*
X176111679Y-79462184D02*
X176492631Y-79128851D01*
X176492631Y-79128851D02*
X176492631Y-79271708D01*
X176492631Y-79271708D02*
X176540250Y-79366946D01*
X176540250Y-79366946D02*
X176587869Y-79414565D01*
X176587869Y-79414565D02*
X176683107Y-79462184D01*
X176683107Y-79462184D02*
X176921202Y-79462184D01*
X176921202Y-79462184D02*
X177016440Y-79414565D01*
X177016440Y-79414565D02*
X177064060Y-79366946D01*
X177064060Y-79366946D02*
X177111679Y-79271708D01*
X177111679Y-79271708D02*
X177111679Y-78985994D01*
X177111679Y-78985994D02*
X177064060Y-78890756D01*
X177064060Y-78890756D02*
X177016440Y-78843137D01*
X159252304Y-78176619D02*
X158252304Y-78176619D01*
X158252304Y-78176619D02*
X158252304Y-78414714D01*
X158252304Y-78414714D02*
X158299923Y-78557571D01*
X158299923Y-78557571D02*
X158395161Y-78652809D01*
X158395161Y-78652809D02*
X158490399Y-78700428D01*
X158490399Y-78700428D02*
X158680875Y-78748047D01*
X158680875Y-78748047D02*
X158823732Y-78748047D01*
X158823732Y-78748047D02*
X159014208Y-78700428D01*
X159014208Y-78700428D02*
X159109446Y-78652809D01*
X159109446Y-78652809D02*
X159204685Y-78557571D01*
X159204685Y-78557571D02*
X159252304Y-78414714D01*
X159252304Y-78414714D02*
X159252304Y-78176619D01*
X159252304Y-79700428D02*
X159252304Y-79129000D01*
X159252304Y-79414714D02*
X158252304Y-79414714D01*
X158252304Y-79414714D02*
X158395161Y-79319476D01*
X158395161Y-79319476D02*
X158490399Y-79224238D01*
X158490399Y-79224238D02*
X158538018Y-79129000D01*
X158347542Y-80081381D02*
X158299923Y-80129000D01*
X158299923Y-80129000D02*
X158252304Y-80224238D01*
X158252304Y-80224238D02*
X158252304Y-80462333D01*
X158252304Y-80462333D02*
X158299923Y-80557571D01*
X158299923Y-80557571D02*
X158347542Y-80605190D01*
X158347542Y-80605190D02*
X158442780Y-80652809D01*
X158442780Y-80652809D02*
X158538018Y-80652809D01*
X158538018Y-80652809D02*
X158680875Y-80605190D01*
X158680875Y-80605190D02*
X159252304Y-80033762D01*
X159252304Y-80033762D02*
X159252304Y-80652809D01*
X198542929Y-71032869D02*
X197542929Y-71032869D01*
X197542929Y-71032869D02*
X197542929Y-71270964D01*
X197542929Y-71270964D02*
X197590548Y-71413821D01*
X197590548Y-71413821D02*
X197685786Y-71509059D01*
X197685786Y-71509059D02*
X197781024Y-71556678D01*
X197781024Y-71556678D02*
X197971500Y-71604297D01*
X197971500Y-71604297D02*
X198114357Y-71604297D01*
X198114357Y-71604297D02*
X198304833Y-71556678D01*
X198304833Y-71556678D02*
X198400071Y-71509059D01*
X198400071Y-71509059D02*
X198495310Y-71413821D01*
X198495310Y-71413821D02*
X198542929Y-71270964D01*
X198542929Y-71270964D02*
X198542929Y-71032869D01*
X198542929Y-72556678D02*
X198542929Y-71985250D01*
X198542929Y-72270964D02*
X197542929Y-72270964D01*
X197542929Y-72270964D02*
X197685786Y-72175726D01*
X197685786Y-72175726D02*
X197781024Y-72080488D01*
X197781024Y-72080488D02*
X197828643Y-71985250D01*
X197542929Y-73175726D02*
X197542929Y-73270964D01*
X197542929Y-73270964D02*
X197590548Y-73366202D01*
X197590548Y-73366202D02*
X197638167Y-73413821D01*
X197638167Y-73413821D02*
X197733405Y-73461440D01*
X197733405Y-73461440D02*
X197923881Y-73509059D01*
X197923881Y-73509059D02*
X198161976Y-73509059D01*
X198161976Y-73509059D02*
X198352452Y-73461440D01*
X198352452Y-73461440D02*
X198447690Y-73413821D01*
X198447690Y-73413821D02*
X198495310Y-73366202D01*
X198495310Y-73366202D02*
X198542929Y-73270964D01*
X198542929Y-73270964D02*
X198542929Y-73175726D01*
X198542929Y-73175726D02*
X198495310Y-73080488D01*
X198495310Y-73080488D02*
X198447690Y-73032869D01*
X198447690Y-73032869D02*
X198352452Y-72985250D01*
X198352452Y-72985250D02*
X198161976Y-72937631D01*
X198161976Y-72937631D02*
X197923881Y-72937631D01*
X197923881Y-72937631D02*
X197733405Y-72985250D01*
X197733405Y-72985250D02*
X197638167Y-73032869D01*
X197638167Y-73032869D02*
X197590548Y-73080488D01*
X197590548Y-73080488D02*
X197542929Y-73175726D01*
X122342929Y-52459060D02*
X121342929Y-52459060D01*
X121342929Y-52459060D02*
X121342929Y-52697155D01*
X121342929Y-52697155D02*
X121390548Y-52840012D01*
X121390548Y-52840012D02*
X121485786Y-52935250D01*
X121485786Y-52935250D02*
X121581024Y-52982869D01*
X121581024Y-52982869D02*
X121771500Y-53030488D01*
X121771500Y-53030488D02*
X121914357Y-53030488D01*
X121914357Y-53030488D02*
X122104833Y-52982869D01*
X122104833Y-52982869D02*
X122200071Y-52935250D01*
X122200071Y-52935250D02*
X122295310Y-52840012D01*
X122295310Y-52840012D02*
X122342929Y-52697155D01*
X122342929Y-52697155D02*
X122342929Y-52459060D01*
X121342929Y-53363822D02*
X121342929Y-53982869D01*
X121342929Y-53982869D02*
X121723881Y-53649536D01*
X121723881Y-53649536D02*
X121723881Y-53792393D01*
X121723881Y-53792393D02*
X121771500Y-53887631D01*
X121771500Y-53887631D02*
X121819119Y-53935250D01*
X121819119Y-53935250D02*
X121914357Y-53982869D01*
X121914357Y-53982869D02*
X122152452Y-53982869D01*
X122152452Y-53982869D02*
X122247690Y-53935250D01*
X122247690Y-53935250D02*
X122295310Y-53887631D01*
X122295310Y-53887631D02*
X122342929Y-53792393D01*
X122342929Y-53792393D02*
X122342929Y-53506679D01*
X122342929Y-53506679D02*
X122295310Y-53411441D01*
X122295310Y-53411441D02*
X122247690Y-53363822D01*
X58586559Y-39655839D02*
X58253226Y-39655839D01*
X58110369Y-40179649D02*
X58586559Y-40179649D01*
X58586559Y-40179649D02*
X58586559Y-39179649D01*
X58586559Y-39179649D02*
X58110369Y-39179649D01*
X57777035Y-39179649D02*
X57110369Y-40179649D01*
X57110369Y-39179649D02*
X57777035Y-40179649D01*
X56872273Y-39179649D02*
X56300845Y-39179649D01*
X56586559Y-40179649D02*
X56586559Y-39179649D01*
X56205607Y-40274887D02*
X55443702Y-40274887D01*
X55205606Y-40179649D02*
X55205606Y-39179649D01*
X55205606Y-39179649D02*
X54872273Y-39893934D01*
X54872273Y-39893934D02*
X54538940Y-39179649D01*
X54538940Y-39179649D02*
X54538940Y-40179649D01*
X53491321Y-40179649D02*
X53824654Y-39703458D01*
X54062749Y-40179649D02*
X54062749Y-39179649D01*
X54062749Y-39179649D02*
X53681797Y-39179649D01*
X53681797Y-39179649D02*
X53586559Y-39227268D01*
X53586559Y-39227268D02*
X53538940Y-39274887D01*
X53538940Y-39274887D02*
X53491321Y-39370125D01*
X53491321Y-39370125D02*
X53491321Y-39512982D01*
X53491321Y-39512982D02*
X53538940Y-39608220D01*
X53538940Y-39608220D02*
X53586559Y-39655839D01*
X53586559Y-39655839D02*
X53681797Y-39703458D01*
X53681797Y-39703458D02*
X54062749Y-39703458D01*
X52634178Y-39179649D02*
X52824654Y-39179649D01*
X52824654Y-39179649D02*
X52919892Y-39227268D01*
X52919892Y-39227268D02*
X52967511Y-39274887D01*
X52967511Y-39274887D02*
X53062749Y-39417744D01*
X53062749Y-39417744D02*
X53110368Y-39608220D01*
X53110368Y-39608220D02*
X53110368Y-39989172D01*
X53110368Y-39989172D02*
X53062749Y-40084410D01*
X53062749Y-40084410D02*
X53015130Y-40132030D01*
X53015130Y-40132030D02*
X52919892Y-40179649D01*
X52919892Y-40179649D02*
X52729416Y-40179649D01*
X52729416Y-40179649D02*
X52634178Y-40132030D01*
X52634178Y-40132030D02*
X52586559Y-40084410D01*
X52586559Y-40084410D02*
X52538940Y-39989172D01*
X52538940Y-39989172D02*
X52538940Y-39751077D01*
X52538940Y-39751077D02*
X52586559Y-39655839D01*
X52586559Y-39655839D02*
X52634178Y-39608220D01*
X52634178Y-39608220D02*
X52729416Y-39560601D01*
X52729416Y-39560601D02*
X52919892Y-39560601D01*
X52919892Y-39560601D02*
X53015130Y-39608220D01*
X53015130Y-39608220D02*
X53062749Y-39655839D01*
X53062749Y-39655839D02*
X53110368Y-39751077D01*
X144964804Y-72509185D02*
X143964804Y-72509185D01*
X143964804Y-72509185D02*
X143964804Y-72747280D01*
X143964804Y-72747280D02*
X144012423Y-72890137D01*
X144012423Y-72890137D02*
X144107661Y-72985375D01*
X144107661Y-72985375D02*
X144202899Y-73032994D01*
X144202899Y-73032994D02*
X144393375Y-73080613D01*
X144393375Y-73080613D02*
X144536232Y-73080613D01*
X144536232Y-73080613D02*
X144726708Y-73032994D01*
X144726708Y-73032994D02*
X144821946Y-72985375D01*
X144821946Y-72985375D02*
X144917185Y-72890137D01*
X144917185Y-72890137D02*
X144964804Y-72747280D01*
X144964804Y-72747280D02*
X144964804Y-72509185D01*
X143964804Y-73413947D02*
X143964804Y-74080613D01*
X143964804Y-74080613D02*
X144964804Y-73652042D01*
X152921054Y-76985994D02*
X151921054Y-76985994D01*
X151921054Y-76985994D02*
X151921054Y-77224089D01*
X151921054Y-77224089D02*
X151968673Y-77366946D01*
X151968673Y-77366946D02*
X152063911Y-77462184D01*
X152063911Y-77462184D02*
X152159149Y-77509803D01*
X152159149Y-77509803D02*
X152349625Y-77557422D01*
X152349625Y-77557422D02*
X152492482Y-77557422D01*
X152492482Y-77557422D02*
X152682958Y-77509803D01*
X152682958Y-77509803D02*
X152778196Y-77462184D01*
X152778196Y-77462184D02*
X152873435Y-77366946D01*
X152873435Y-77366946D02*
X152921054Y-77224089D01*
X152921054Y-77224089D02*
X152921054Y-76985994D01*
X152921054Y-78509803D02*
X152921054Y-77938375D01*
X152921054Y-78224089D02*
X151921054Y-78224089D01*
X151921054Y-78224089D02*
X152063911Y-78128851D01*
X152063911Y-78128851D02*
X152159149Y-78033613D01*
X152159149Y-78033613D02*
X152206768Y-77938375D01*
X152921054Y-79462184D02*
X152921054Y-78890756D01*
X152921054Y-79176470D02*
X151921054Y-79176470D01*
X151921054Y-79176470D02*
X152063911Y-79081232D01*
X152063911Y-79081232D02*
X152159149Y-78985994D01*
X152159149Y-78985994D02*
X152206768Y-78890756D01*
X108592809Y-22562964D02*
X108259476Y-22562964D01*
X108116619Y-23086774D02*
X108592809Y-23086774D01*
X108592809Y-23086774D02*
X108592809Y-22086774D01*
X108592809Y-22086774D02*
X108116619Y-22086774D01*
X107783285Y-22086774D02*
X107116619Y-23086774D01*
X107116619Y-22086774D02*
X107783285Y-23086774D01*
X106878523Y-22086774D02*
X106307095Y-22086774D01*
X106592809Y-23086774D02*
X106592809Y-22086774D01*
X106211857Y-23182012D02*
X105449952Y-23182012D01*
X105211856Y-23086774D02*
X105211856Y-22086774D01*
X105211856Y-22086774D02*
X104878523Y-22801059D01*
X104878523Y-22801059D02*
X104545190Y-22086774D01*
X104545190Y-22086774D02*
X104545190Y-23086774D01*
X103497571Y-22991535D02*
X103545190Y-23039155D01*
X103545190Y-23039155D02*
X103688047Y-23086774D01*
X103688047Y-23086774D02*
X103783285Y-23086774D01*
X103783285Y-23086774D02*
X103926142Y-23039155D01*
X103926142Y-23039155D02*
X104021380Y-22943916D01*
X104021380Y-22943916D02*
X104068999Y-22848678D01*
X104068999Y-22848678D02*
X104116618Y-22658202D01*
X104116618Y-22658202D02*
X104116618Y-22515345D01*
X104116618Y-22515345D02*
X104068999Y-22324869D01*
X104068999Y-22324869D02*
X104021380Y-22229631D01*
X104021380Y-22229631D02*
X103926142Y-22134393D01*
X103926142Y-22134393D02*
X103783285Y-22086774D01*
X103783285Y-22086774D02*
X103688047Y-22086774D01*
X103688047Y-22086774D02*
X103545190Y-22134393D01*
X103545190Y-22134393D02*
X103497571Y-22182012D01*
X103116618Y-22182012D02*
X103068999Y-22134393D01*
X103068999Y-22134393D02*
X102973761Y-22086774D01*
X102973761Y-22086774D02*
X102735666Y-22086774D01*
X102735666Y-22086774D02*
X102640428Y-22134393D01*
X102640428Y-22134393D02*
X102592809Y-22182012D01*
X102592809Y-22182012D02*
X102545190Y-22277250D01*
X102545190Y-22277250D02*
X102545190Y-22372488D01*
X102545190Y-22372488D02*
X102592809Y-22515345D01*
X102592809Y-22515345D02*
X103164237Y-23086774D01*
X103164237Y-23086774D02*
X102545190Y-23086774D01*
X55014684Y-35659839D02*
X54681351Y-35659839D01*
X54538494Y-36183649D02*
X55014684Y-36183649D01*
X55014684Y-36183649D02*
X55014684Y-35183649D01*
X55014684Y-35183649D02*
X54538494Y-35183649D01*
X54205160Y-35183649D02*
X53538494Y-36183649D01*
X53538494Y-35183649D02*
X54205160Y-36183649D01*
X53300398Y-35183649D02*
X52728970Y-35183649D01*
X53014684Y-36183649D02*
X53014684Y-35183649D01*
X52633732Y-36278887D02*
X51871827Y-36278887D01*
X51633731Y-36183649D02*
X51633731Y-35183649D01*
X51633731Y-35183649D02*
X51300398Y-35897934D01*
X51300398Y-35897934D02*
X50967065Y-35183649D01*
X50967065Y-35183649D02*
X50967065Y-36183649D01*
X49919446Y-36183649D02*
X50252779Y-35707458D01*
X50490874Y-36183649D02*
X50490874Y-35183649D01*
X50490874Y-35183649D02*
X50109922Y-35183649D01*
X50109922Y-35183649D02*
X50014684Y-35231268D01*
X50014684Y-35231268D02*
X49967065Y-35278887D01*
X49967065Y-35278887D02*
X49919446Y-35374125D01*
X49919446Y-35374125D02*
X49919446Y-35516982D01*
X49919446Y-35516982D02*
X49967065Y-35612220D01*
X49967065Y-35612220D02*
X50014684Y-35659839D01*
X50014684Y-35659839D02*
X50109922Y-35707458D01*
X50109922Y-35707458D02*
X50490874Y-35707458D01*
X48967065Y-36183649D02*
X49538493Y-36183649D01*
X49252779Y-36183649D02*
X49252779Y-35183649D01*
X49252779Y-35183649D02*
X49348017Y-35326506D01*
X49348017Y-35326506D02*
X49443255Y-35421744D01*
X49443255Y-35421744D02*
X49538493Y-35469363D01*
X221702184Y-26558964D02*
X221368851Y-26558964D01*
X221225994Y-27082774D02*
X221702184Y-27082774D01*
X221702184Y-27082774D02*
X221702184Y-26082774D01*
X221702184Y-26082774D02*
X221225994Y-26082774D01*
X220892660Y-26082774D02*
X220225994Y-27082774D01*
X220225994Y-26082774D02*
X220892660Y-27082774D01*
X219987898Y-26082774D02*
X219416470Y-26082774D01*
X219702184Y-27082774D02*
X219702184Y-26082774D01*
X219321232Y-27178012D02*
X218559327Y-27178012D01*
X218321231Y-27082774D02*
X218321231Y-26082774D01*
X218321231Y-26082774D02*
X217987898Y-26797059D01*
X217987898Y-26797059D02*
X217654565Y-26082774D01*
X217654565Y-26082774D02*
X217654565Y-27082774D01*
X216606946Y-26987535D02*
X216654565Y-27035155D01*
X216654565Y-27035155D02*
X216797422Y-27082774D01*
X216797422Y-27082774D02*
X216892660Y-27082774D01*
X216892660Y-27082774D02*
X217035517Y-27035155D01*
X217035517Y-27035155D02*
X217130755Y-26939916D01*
X217130755Y-26939916D02*
X217178374Y-26844678D01*
X217178374Y-26844678D02*
X217225993Y-26654202D01*
X217225993Y-26654202D02*
X217225993Y-26511345D01*
X217225993Y-26511345D02*
X217178374Y-26320869D01*
X217178374Y-26320869D02*
X217130755Y-26225631D01*
X217130755Y-26225631D02*
X217035517Y-26130393D01*
X217035517Y-26130393D02*
X216892660Y-26082774D01*
X216892660Y-26082774D02*
X216797422Y-26082774D01*
X216797422Y-26082774D02*
X216654565Y-26130393D01*
X216654565Y-26130393D02*
X216606946Y-26178012D01*
X215749803Y-26416107D02*
X215749803Y-27082774D01*
X215987898Y-26035155D02*
X216225993Y-26749440D01*
X216225993Y-26749440D02*
X215606946Y-26749440D01*
X270721054Y-52459060D02*
X269721054Y-52459060D01*
X269721054Y-52459060D02*
X269721054Y-52697155D01*
X269721054Y-52697155D02*
X269768673Y-52840012D01*
X269768673Y-52840012D02*
X269863911Y-52935250D01*
X269863911Y-52935250D02*
X269959149Y-52982869D01*
X269959149Y-52982869D02*
X270149625Y-53030488D01*
X270149625Y-53030488D02*
X270292482Y-53030488D01*
X270292482Y-53030488D02*
X270482958Y-52982869D01*
X270482958Y-52982869D02*
X270578196Y-52935250D01*
X270578196Y-52935250D02*
X270673435Y-52840012D01*
X270673435Y-52840012D02*
X270721054Y-52697155D01*
X270721054Y-52697155D02*
X270721054Y-52459060D01*
X269721054Y-53935250D02*
X269721054Y-53459060D01*
X269721054Y-53459060D02*
X270197244Y-53411441D01*
X270197244Y-53411441D02*
X270149625Y-53459060D01*
X270149625Y-53459060D02*
X270102006Y-53554298D01*
X270102006Y-53554298D02*
X270102006Y-53792393D01*
X270102006Y-53792393D02*
X270149625Y-53887631D01*
X270149625Y-53887631D02*
X270197244Y-53935250D01*
X270197244Y-53935250D02*
X270292482Y-53982869D01*
X270292482Y-53982869D02*
X270530577Y-53982869D01*
X270530577Y-53982869D02*
X270625815Y-53935250D01*
X270625815Y-53935250D02*
X270673435Y-53887631D01*
X270673435Y-53887631D02*
X270721054Y-53792393D01*
X270721054Y-53792393D02*
X270721054Y-53554298D01*
X270721054Y-53554298D02*
X270673435Y-53459060D01*
X270673435Y-53459060D02*
X270625815Y-53411441D01*
X123697304Y-46910696D02*
X124411589Y-46910696D01*
X124411589Y-46910696D02*
X124554446Y-46863077D01*
X124554446Y-46863077D02*
X124649685Y-46767839D01*
X124649685Y-46767839D02*
X124697304Y-46624982D01*
X124697304Y-46624982D02*
X124697304Y-46529744D01*
X123697304Y-47291649D02*
X123697304Y-47910696D01*
X123697304Y-47910696D02*
X124078256Y-47577363D01*
X124078256Y-47577363D02*
X124078256Y-47720220D01*
X124078256Y-47720220D02*
X124125875Y-47815458D01*
X124125875Y-47815458D02*
X124173494Y-47863077D01*
X124173494Y-47863077D02*
X124268732Y-47910696D01*
X124268732Y-47910696D02*
X124506827Y-47910696D01*
X124506827Y-47910696D02*
X124602065Y-47863077D01*
X124602065Y-47863077D02*
X124649685Y-47815458D01*
X124649685Y-47815458D02*
X124697304Y-47720220D01*
X124697304Y-47720220D02*
X124697304Y-47434506D01*
X124697304Y-47434506D02*
X124649685Y-47339268D01*
X124649685Y-47339268D02*
X124602065Y-47291649D01*
X160442929Y-71492185D02*
X159442929Y-71492185D01*
X159442929Y-71492185D02*
X159442929Y-71730280D01*
X159442929Y-71730280D02*
X159490548Y-71873137D01*
X159490548Y-71873137D02*
X159585786Y-71968375D01*
X159585786Y-71968375D02*
X159681024Y-72015994D01*
X159681024Y-72015994D02*
X159871500Y-72063613D01*
X159871500Y-72063613D02*
X160014357Y-72063613D01*
X160014357Y-72063613D02*
X160204833Y-72015994D01*
X160204833Y-72015994D02*
X160300071Y-71968375D01*
X160300071Y-71968375D02*
X160395310Y-71873137D01*
X160395310Y-71873137D02*
X160442929Y-71730280D01*
X160442929Y-71730280D02*
X160442929Y-71492185D01*
X159871500Y-72635042D02*
X159823881Y-72539804D01*
X159823881Y-72539804D02*
X159776262Y-72492185D01*
X159776262Y-72492185D02*
X159681024Y-72444566D01*
X159681024Y-72444566D02*
X159633405Y-72444566D01*
X159633405Y-72444566D02*
X159538167Y-72492185D01*
X159538167Y-72492185D02*
X159490548Y-72539804D01*
X159490548Y-72539804D02*
X159442929Y-72635042D01*
X159442929Y-72635042D02*
X159442929Y-72825518D01*
X159442929Y-72825518D02*
X159490548Y-72920756D01*
X159490548Y-72920756D02*
X159538167Y-72968375D01*
X159538167Y-72968375D02*
X159633405Y-73015994D01*
X159633405Y-73015994D02*
X159681024Y-73015994D01*
X159681024Y-73015994D02*
X159776262Y-72968375D01*
X159776262Y-72968375D02*
X159823881Y-72920756D01*
X159823881Y-72920756D02*
X159871500Y-72825518D01*
X159871500Y-72825518D02*
X159871500Y-72635042D01*
X159871500Y-72635042D02*
X159919119Y-72539804D01*
X159919119Y-72539804D02*
X159966738Y-72492185D01*
X159966738Y-72492185D02*
X160061976Y-72444566D01*
X160061976Y-72444566D02*
X160252452Y-72444566D01*
X160252452Y-72444566D02*
X160347690Y-72492185D01*
X160347690Y-72492185D02*
X160395310Y-72539804D01*
X160395310Y-72539804D02*
X160442929Y-72635042D01*
X160442929Y-72635042D02*
X160442929Y-72825518D01*
X160442929Y-72825518D02*
X160395310Y-72920756D01*
X160395310Y-72920756D02*
X160347690Y-72968375D01*
X160347690Y-72968375D02*
X160252452Y-73015994D01*
X160252452Y-73015994D02*
X160061976Y-73015994D01*
X160061976Y-73015994D02*
X159966738Y-72968375D01*
X159966738Y-72968375D02*
X159919119Y-72920756D01*
X159919119Y-72920756D02*
X159871500Y-72825518D01*
X203094804Y-36195071D02*
X203809089Y-36195071D01*
X203809089Y-36195071D02*
X203951946Y-36147452D01*
X203951946Y-36147452D02*
X204047185Y-36052214D01*
X204047185Y-36052214D02*
X204094804Y-35909357D01*
X204094804Y-35909357D02*
X204094804Y-35814119D01*
X204094804Y-37195071D02*
X204094804Y-36623643D01*
X204094804Y-36909357D02*
X203094804Y-36909357D01*
X203094804Y-36909357D02*
X203237661Y-36814119D01*
X203237661Y-36814119D02*
X203332899Y-36718881D01*
X203332899Y-36718881D02*
X203380518Y-36623643D01*
X189555309Y-22549214D02*
X189221976Y-22549214D01*
X189079119Y-23073024D02*
X189555309Y-23073024D01*
X189555309Y-23073024D02*
X189555309Y-22073024D01*
X189555309Y-22073024D02*
X189079119Y-22073024D01*
X188745785Y-22073024D02*
X188079119Y-23073024D01*
X188079119Y-22073024D02*
X188745785Y-23073024D01*
X187841023Y-22073024D02*
X187269595Y-22073024D01*
X187555309Y-23073024D02*
X187555309Y-22073024D01*
X187174357Y-23168262D02*
X186412452Y-23168262D01*
X186174356Y-23073024D02*
X186174356Y-22073024D01*
X186174356Y-22073024D02*
X185841023Y-22787309D01*
X185841023Y-22787309D02*
X185507690Y-22073024D01*
X185507690Y-22073024D02*
X185507690Y-23073024D01*
X184460071Y-23073024D02*
X184793404Y-22596833D01*
X185031499Y-23073024D02*
X185031499Y-22073024D01*
X185031499Y-22073024D02*
X184650547Y-22073024D01*
X184650547Y-22073024D02*
X184555309Y-22120643D01*
X184555309Y-22120643D02*
X184507690Y-22168262D01*
X184507690Y-22168262D02*
X184460071Y-22263500D01*
X184460071Y-22263500D02*
X184460071Y-22406357D01*
X184460071Y-22406357D02*
X184507690Y-22501595D01*
X184507690Y-22501595D02*
X184555309Y-22549214D01*
X184555309Y-22549214D02*
X184650547Y-22596833D01*
X184650547Y-22596833D02*
X185031499Y-22596833D01*
X184126737Y-22073024D02*
X183507690Y-22073024D01*
X183507690Y-22073024D02*
X183841023Y-22453976D01*
X183841023Y-22453976D02*
X183698166Y-22453976D01*
X183698166Y-22453976D02*
X183602928Y-22501595D01*
X183602928Y-22501595D02*
X183555309Y-22549214D01*
X183555309Y-22549214D02*
X183507690Y-22644452D01*
X183507690Y-22644452D02*
X183507690Y-22882547D01*
X183507690Y-22882547D02*
X183555309Y-22977785D01*
X183555309Y-22977785D02*
X183602928Y-23025405D01*
X183602928Y-23025405D02*
X183698166Y-23073024D01*
X183698166Y-23073024D02*
X183983880Y-23073024D01*
X183983880Y-23073024D02*
X184079118Y-23025405D01*
X184079118Y-23025405D02*
X184126737Y-22977785D01*
X207414684Y-22562964D02*
X207081351Y-22562964D01*
X206938494Y-23086774D02*
X207414684Y-23086774D01*
X207414684Y-23086774D02*
X207414684Y-22086774D01*
X207414684Y-22086774D02*
X206938494Y-22086774D01*
X206605160Y-22086774D02*
X205938494Y-23086774D01*
X205938494Y-22086774D02*
X206605160Y-23086774D01*
X205700398Y-22086774D02*
X205128970Y-22086774D01*
X205414684Y-23086774D02*
X205414684Y-22086774D01*
X205033732Y-23182012D02*
X204271827Y-23182012D01*
X204033731Y-23086774D02*
X204033731Y-22086774D01*
X204033731Y-22086774D02*
X203700398Y-22801059D01*
X203700398Y-22801059D02*
X203367065Y-22086774D01*
X203367065Y-22086774D02*
X203367065Y-23086774D01*
X202319446Y-23086774D02*
X202652779Y-22610583D01*
X202890874Y-23086774D02*
X202890874Y-22086774D01*
X202890874Y-22086774D02*
X202509922Y-22086774D01*
X202509922Y-22086774D02*
X202414684Y-22134393D01*
X202414684Y-22134393D02*
X202367065Y-22182012D01*
X202367065Y-22182012D02*
X202319446Y-22277250D01*
X202319446Y-22277250D02*
X202319446Y-22420107D01*
X202319446Y-22420107D02*
X202367065Y-22515345D01*
X202367065Y-22515345D02*
X202414684Y-22562964D01*
X202414684Y-22562964D02*
X202509922Y-22610583D01*
X202509922Y-22610583D02*
X202890874Y-22610583D01*
X201938493Y-22182012D02*
X201890874Y-22134393D01*
X201890874Y-22134393D02*
X201795636Y-22086774D01*
X201795636Y-22086774D02*
X201557541Y-22086774D01*
X201557541Y-22086774D02*
X201462303Y-22134393D01*
X201462303Y-22134393D02*
X201414684Y-22182012D01*
X201414684Y-22182012D02*
X201367065Y-22277250D01*
X201367065Y-22277250D02*
X201367065Y-22372488D01*
X201367065Y-22372488D02*
X201414684Y-22515345D01*
X201414684Y-22515345D02*
X201986112Y-23086774D01*
X201986112Y-23086774D02*
X201367065Y-23086774D01*
X228845934Y-26558964D02*
X228512601Y-26558964D01*
X228369744Y-27082774D02*
X228845934Y-27082774D01*
X228845934Y-27082774D02*
X228845934Y-26082774D01*
X228845934Y-26082774D02*
X228369744Y-26082774D01*
X228036410Y-26082774D02*
X227369744Y-27082774D01*
X227369744Y-26082774D02*
X228036410Y-27082774D01*
X227131648Y-26082774D02*
X226560220Y-26082774D01*
X226845934Y-27082774D02*
X226845934Y-26082774D01*
X226464982Y-27178012D02*
X225703077Y-27178012D01*
X225464981Y-27082774D02*
X225464981Y-26082774D01*
X225464981Y-26082774D02*
X225131648Y-26797059D01*
X225131648Y-26797059D02*
X224798315Y-26082774D01*
X224798315Y-26082774D02*
X224798315Y-27082774D01*
X223750696Y-26987535D02*
X223798315Y-27035155D01*
X223798315Y-27035155D02*
X223941172Y-27082774D01*
X223941172Y-27082774D02*
X224036410Y-27082774D01*
X224036410Y-27082774D02*
X224179267Y-27035155D01*
X224179267Y-27035155D02*
X224274505Y-26939916D01*
X224274505Y-26939916D02*
X224322124Y-26844678D01*
X224322124Y-26844678D02*
X224369743Y-26654202D01*
X224369743Y-26654202D02*
X224369743Y-26511345D01*
X224369743Y-26511345D02*
X224322124Y-26320869D01*
X224322124Y-26320869D02*
X224274505Y-26225631D01*
X224274505Y-26225631D02*
X224179267Y-26130393D01*
X224179267Y-26130393D02*
X224036410Y-26082774D01*
X224036410Y-26082774D02*
X223941172Y-26082774D01*
X223941172Y-26082774D02*
X223798315Y-26130393D01*
X223798315Y-26130393D02*
X223750696Y-26178012D01*
X223417362Y-26082774D02*
X222750696Y-26082774D01*
X222750696Y-26082774D02*
X223179267Y-27082774D01*
X65192929Y-52459060D02*
X64192929Y-52459060D01*
X64192929Y-52459060D02*
X64192929Y-52697155D01*
X64192929Y-52697155D02*
X64240548Y-52840012D01*
X64240548Y-52840012D02*
X64335786Y-52935250D01*
X64335786Y-52935250D02*
X64431024Y-52982869D01*
X64431024Y-52982869D02*
X64621500Y-53030488D01*
X64621500Y-53030488D02*
X64764357Y-53030488D01*
X64764357Y-53030488D02*
X64954833Y-52982869D01*
X64954833Y-52982869D02*
X65050071Y-52935250D01*
X65050071Y-52935250D02*
X65145310Y-52840012D01*
X65145310Y-52840012D02*
X65192929Y-52697155D01*
X65192929Y-52697155D02*
X65192929Y-52459060D01*
X64288167Y-53411441D02*
X64240548Y-53459060D01*
X64240548Y-53459060D02*
X64192929Y-53554298D01*
X64192929Y-53554298D02*
X64192929Y-53792393D01*
X64192929Y-53792393D02*
X64240548Y-53887631D01*
X64240548Y-53887631D02*
X64288167Y-53935250D01*
X64288167Y-53935250D02*
X64383405Y-53982869D01*
X64383405Y-53982869D02*
X64478643Y-53982869D01*
X64478643Y-53982869D02*
X64621500Y-53935250D01*
X64621500Y-53935250D02*
X65192929Y-53363822D01*
X65192929Y-53363822D02*
X65192929Y-53982869D01*
X179492929Y-72513185D02*
X178492929Y-72513185D01*
X178492929Y-72513185D02*
X178492929Y-72751280D01*
X178492929Y-72751280D02*
X178540548Y-72894137D01*
X178540548Y-72894137D02*
X178635786Y-72989375D01*
X178635786Y-72989375D02*
X178731024Y-73036994D01*
X178731024Y-73036994D02*
X178921500Y-73084613D01*
X178921500Y-73084613D02*
X179064357Y-73084613D01*
X179064357Y-73084613D02*
X179254833Y-73036994D01*
X179254833Y-73036994D02*
X179350071Y-72989375D01*
X179350071Y-72989375D02*
X179445310Y-72894137D01*
X179445310Y-72894137D02*
X179492929Y-72751280D01*
X179492929Y-72751280D02*
X179492929Y-72513185D01*
X179492929Y-73560804D02*
X179492929Y-73751280D01*
X179492929Y-73751280D02*
X179445310Y-73846518D01*
X179445310Y-73846518D02*
X179397690Y-73894137D01*
X179397690Y-73894137D02*
X179254833Y-73989375D01*
X179254833Y-73989375D02*
X179064357Y-74036994D01*
X179064357Y-74036994D02*
X178683405Y-74036994D01*
X178683405Y-74036994D02*
X178588167Y-73989375D01*
X178588167Y-73989375D02*
X178540548Y-73941756D01*
X178540548Y-73941756D02*
X178492929Y-73846518D01*
X178492929Y-73846518D02*
X178492929Y-73656042D01*
X178492929Y-73656042D02*
X178540548Y-73560804D01*
X178540548Y-73560804D02*
X178588167Y-73513185D01*
X178588167Y-73513185D02*
X178683405Y-73465566D01*
X178683405Y-73465566D02*
X178921500Y-73465566D01*
X178921500Y-73465566D02*
X179016738Y-73513185D01*
X179016738Y-73513185D02*
X179064357Y-73560804D01*
X179064357Y-73560804D02*
X179111976Y-73656042D01*
X179111976Y-73656042D02*
X179111976Y-73846518D01*
X179111976Y-73846518D02*
X179064357Y-73941756D01*
X179064357Y-73941756D02*
X179016738Y-73989375D01*
X179016738Y-73989375D02*
X178921500Y-74036994D01*
X112164684Y-26558964D02*
X111831351Y-26558964D01*
X111688494Y-27082774D02*
X112164684Y-27082774D01*
X112164684Y-27082774D02*
X112164684Y-26082774D01*
X112164684Y-26082774D02*
X111688494Y-26082774D01*
X111355160Y-26082774D02*
X110688494Y-27082774D01*
X110688494Y-26082774D02*
X111355160Y-27082774D01*
X110450398Y-26082774D02*
X109878970Y-26082774D01*
X110164684Y-27082774D02*
X110164684Y-26082774D01*
X109783732Y-27178012D02*
X109021827Y-27178012D01*
X108783731Y-27082774D02*
X108783731Y-26082774D01*
X108783731Y-26082774D02*
X108450398Y-26797059D01*
X108450398Y-26797059D02*
X108117065Y-26082774D01*
X108117065Y-26082774D02*
X108117065Y-27082774D01*
X107069446Y-26987535D02*
X107117065Y-27035155D01*
X107117065Y-27035155D02*
X107259922Y-27082774D01*
X107259922Y-27082774D02*
X107355160Y-27082774D01*
X107355160Y-27082774D02*
X107498017Y-27035155D01*
X107498017Y-27035155D02*
X107593255Y-26939916D01*
X107593255Y-26939916D02*
X107640874Y-26844678D01*
X107640874Y-26844678D02*
X107688493Y-26654202D01*
X107688493Y-26654202D02*
X107688493Y-26511345D01*
X107688493Y-26511345D02*
X107640874Y-26320869D01*
X107640874Y-26320869D02*
X107593255Y-26225631D01*
X107593255Y-26225631D02*
X107498017Y-26130393D01*
X107498017Y-26130393D02*
X107355160Y-26082774D01*
X107355160Y-26082774D02*
X107259922Y-26082774D01*
X107259922Y-26082774D02*
X107117065Y-26130393D01*
X107117065Y-26130393D02*
X107069446Y-26178012D01*
X106736112Y-26082774D02*
X106117065Y-26082774D01*
X106117065Y-26082774D02*
X106450398Y-26463726D01*
X106450398Y-26463726D02*
X106307541Y-26463726D01*
X106307541Y-26463726D02*
X106212303Y-26511345D01*
X106212303Y-26511345D02*
X106164684Y-26558964D01*
X106164684Y-26558964D02*
X106117065Y-26654202D01*
X106117065Y-26654202D02*
X106117065Y-26892297D01*
X106117065Y-26892297D02*
X106164684Y-26987535D01*
X106164684Y-26987535D02*
X106212303Y-27035155D01*
X106212303Y-27035155D02*
X106307541Y-27082774D01*
X106307541Y-27082774D02*
X106593255Y-27082774D01*
X106593255Y-27082774D02*
X106688493Y-27035155D01*
X106688493Y-27035155D02*
X106736112Y-26987535D01*
X203842809Y-26558964D02*
X203509476Y-26558964D01*
X203366619Y-27082774D02*
X203842809Y-27082774D01*
X203842809Y-27082774D02*
X203842809Y-26082774D01*
X203842809Y-26082774D02*
X203366619Y-26082774D01*
X203033285Y-26082774D02*
X202366619Y-27082774D01*
X202366619Y-26082774D02*
X203033285Y-27082774D01*
X202128523Y-26082774D02*
X201557095Y-26082774D01*
X201842809Y-27082774D02*
X201842809Y-26082774D01*
X201461857Y-27178012D02*
X200699952Y-27178012D01*
X200461856Y-27082774D02*
X200461856Y-26082774D01*
X200461856Y-26082774D02*
X200128523Y-26797059D01*
X200128523Y-26797059D02*
X199795190Y-26082774D01*
X199795190Y-26082774D02*
X199795190Y-27082774D01*
X198747571Y-27082774D02*
X199080904Y-26606583D01*
X199318999Y-27082774D02*
X199318999Y-26082774D01*
X199318999Y-26082774D02*
X198938047Y-26082774D01*
X198938047Y-26082774D02*
X198842809Y-26130393D01*
X198842809Y-26130393D02*
X198795190Y-26178012D01*
X198795190Y-26178012D02*
X198747571Y-26273250D01*
X198747571Y-26273250D02*
X198747571Y-26416107D01*
X198747571Y-26416107D02*
X198795190Y-26511345D01*
X198795190Y-26511345D02*
X198842809Y-26558964D01*
X198842809Y-26558964D02*
X198938047Y-26606583D01*
X198938047Y-26606583D02*
X199318999Y-26606583D01*
X198414237Y-26082774D02*
X197747571Y-26082774D01*
X197747571Y-26082774D02*
X198176142Y-27082774D01*
X225274059Y-22562964D02*
X224940726Y-22562964D01*
X224797869Y-23086774D02*
X225274059Y-23086774D01*
X225274059Y-23086774D02*
X225274059Y-22086774D01*
X225274059Y-22086774D02*
X224797869Y-22086774D01*
X224464535Y-22086774D02*
X223797869Y-23086774D01*
X223797869Y-22086774D02*
X224464535Y-23086774D01*
X223559773Y-22086774D02*
X222988345Y-22086774D01*
X223274059Y-23086774D02*
X223274059Y-22086774D01*
X222893107Y-23182012D02*
X222131202Y-23182012D01*
X221893106Y-23086774D02*
X221893106Y-22086774D01*
X221893106Y-22086774D02*
X221559773Y-22801059D01*
X221559773Y-22801059D02*
X221226440Y-22086774D01*
X221226440Y-22086774D02*
X221226440Y-23086774D01*
X220178821Y-22991535D02*
X220226440Y-23039155D01*
X220226440Y-23039155D02*
X220369297Y-23086774D01*
X220369297Y-23086774D02*
X220464535Y-23086774D01*
X220464535Y-23086774D02*
X220607392Y-23039155D01*
X220607392Y-23039155D02*
X220702630Y-22943916D01*
X220702630Y-22943916D02*
X220750249Y-22848678D01*
X220750249Y-22848678D02*
X220797868Y-22658202D01*
X220797868Y-22658202D02*
X220797868Y-22515345D01*
X220797868Y-22515345D02*
X220750249Y-22324869D01*
X220750249Y-22324869D02*
X220702630Y-22229631D01*
X220702630Y-22229631D02*
X220607392Y-22134393D01*
X220607392Y-22134393D02*
X220464535Y-22086774D01*
X220464535Y-22086774D02*
X220369297Y-22086774D01*
X220369297Y-22086774D02*
X220226440Y-22134393D01*
X220226440Y-22134393D02*
X220178821Y-22182012D01*
X219321678Y-22086774D02*
X219512154Y-22086774D01*
X219512154Y-22086774D02*
X219607392Y-22134393D01*
X219607392Y-22134393D02*
X219655011Y-22182012D01*
X219655011Y-22182012D02*
X219750249Y-22324869D01*
X219750249Y-22324869D02*
X219797868Y-22515345D01*
X219797868Y-22515345D02*
X219797868Y-22896297D01*
X219797868Y-22896297D02*
X219750249Y-22991535D01*
X219750249Y-22991535D02*
X219702630Y-23039155D01*
X219702630Y-23039155D02*
X219607392Y-23086774D01*
X219607392Y-23086774D02*
X219416916Y-23086774D01*
X219416916Y-23086774D02*
X219321678Y-23039155D01*
X219321678Y-23039155D02*
X219274059Y-22991535D01*
X219274059Y-22991535D02*
X219226440Y-22896297D01*
X219226440Y-22896297D02*
X219226440Y-22658202D01*
X219226440Y-22658202D02*
X219274059Y-22562964D01*
X219274059Y-22562964D02*
X219321678Y-22515345D01*
X219321678Y-22515345D02*
X219416916Y-22467726D01*
X219416916Y-22467726D02*
X219607392Y-22467726D01*
X219607392Y-22467726D02*
X219702630Y-22515345D01*
X219702630Y-22515345D02*
X219750249Y-22562964D01*
X219750249Y-22562964D02*
X219797868Y-22658202D01*
X176883435Y-82875280D02*
X176883435Y-83825280D01*
X176883435Y-86525280D02*
X176883435Y-86820280D01*
X176883435Y-86829280D02*
X177483435Y-86829280D01*
X178283435Y-86829280D02*
X180493435Y-86829280D01*
X187783435Y-80921280D02*
X179158435Y-80921280D01*
X187783435Y-81275280D02*
X187783435Y-80921280D01*
X187783435Y-84829280D02*
X187783435Y-84025280D01*
X187783435Y-84875280D02*
X182733435Y-84921280D01*
X179158435Y-80921281D02*
G75*
G03*
X176894436Y-82805280I-190000J-2073999D01*
G01*
X182758435Y-84925281D02*
G75*
G03*
X180498436Y-86805280I-190000J-2069999D01*
G01*
X205458435Y-44775280D02*
X205458435Y-45725280D01*
X205458435Y-48425280D02*
X205458435Y-48720280D01*
X205458435Y-48729280D02*
X206058435Y-48729280D01*
X206858435Y-48729280D02*
X209068435Y-48729280D01*
X216358435Y-42821280D02*
X207733435Y-42821280D01*
X216358435Y-43175280D02*
X216358435Y-42821280D01*
X216358435Y-46729280D02*
X216358435Y-45925280D01*
X216358435Y-46775280D02*
X211308435Y-46821280D01*
X207733435Y-42821281D02*
G75*
G03*
X205469436Y-44705280I-190000J-2073999D01*
G01*
X211333435Y-46825281D02*
G75*
G03*
X209073436Y-48705280I-190000J-2069999D01*
G01*
X186408435Y-63825280D02*
X186408435Y-64775280D01*
X186408435Y-67475280D02*
X186408435Y-67770280D01*
X186408435Y-67779280D02*
X187008435Y-67779280D01*
X187808435Y-67779280D02*
X190018435Y-67779280D01*
X197308435Y-61871280D02*
X188683435Y-61871280D01*
X197308435Y-62225280D02*
X197308435Y-61871280D01*
X197308435Y-65779280D02*
X197308435Y-64975280D01*
X197308435Y-65825280D02*
X192258435Y-65871280D01*
X188683435Y-61871281D02*
G75*
G03*
X186419436Y-63755280I-190000J-2073999D01*
G01*
X192283435Y-65875281D02*
G75*
G03*
X190023436Y-67755280I-190000J-2069999D01*
G01*
X129258435Y-63850320D02*
X129258435Y-64800320D01*
X129258435Y-67500320D02*
X129258435Y-67795320D01*
X129258435Y-67804320D02*
X129858435Y-67804320D01*
X130658435Y-67804320D02*
X132868435Y-67804320D01*
X140158435Y-61896320D02*
X131533435Y-61896320D01*
X140158435Y-62250320D02*
X140158435Y-61896320D01*
X140158435Y-65804320D02*
X140158435Y-65000320D01*
X140158435Y-65850320D02*
X135108435Y-65896320D01*
X131533435Y-61896321D02*
G75*
G03*
X129269436Y-63780320I-190000J-2073999D01*
G01*
X135133435Y-65900321D02*
G75*
G03*
X132873436Y-67780320I-190000J-2069999D01*
G01*
X167358435Y-63825280D02*
X167358435Y-64775280D01*
X167358435Y-67475280D02*
X167358435Y-67770280D01*
X167358435Y-67779280D02*
X167958435Y-67779280D01*
X168758435Y-67779280D02*
X170968435Y-67779280D01*
X178258435Y-61871280D02*
X169633435Y-61871280D01*
X178258435Y-62225280D02*
X178258435Y-61871280D01*
X178258435Y-65779280D02*
X178258435Y-64975280D01*
X178258435Y-65825280D02*
X173208435Y-65871280D01*
X169633435Y-61871281D02*
G75*
G03*
X167369436Y-63755280I-190000J-2073999D01*
G01*
X173233435Y-65875281D02*
G75*
G03*
X170973436Y-67755280I-190000J-2069999D01*
G01*
X148308435Y-63825280D02*
X148308435Y-64775280D01*
X148308435Y-67475280D02*
X148308435Y-67770280D01*
X148308435Y-67779280D02*
X148908435Y-67779280D01*
X149708435Y-67779280D02*
X151918435Y-67779280D01*
X159208435Y-61871280D02*
X150583435Y-61871280D01*
X159208435Y-62225280D02*
X159208435Y-61871280D01*
X159208435Y-65779280D02*
X159208435Y-64975280D01*
X159208435Y-65825280D02*
X154158435Y-65871280D01*
X150583435Y-61871281D02*
G75*
G03*
X148319436Y-63755280I-190000J-2073999D01*
G01*
X154183435Y-65875281D02*
G75*
G03*
X151923436Y-67755280I-190000J-2069999D01*
G01*
X262608435Y-44775280D02*
X262608435Y-45725280D01*
X262608435Y-48425280D02*
X262608435Y-48720280D01*
X262608435Y-48729280D02*
X263208435Y-48729280D01*
X264008435Y-48729280D02*
X266218435Y-48729280D01*
X273508435Y-42821280D02*
X264883435Y-42821280D01*
X273508435Y-43175280D02*
X273508435Y-42821280D01*
X273508435Y-46729280D02*
X273508435Y-45925280D01*
X273508435Y-46775280D02*
X268458435Y-46821280D01*
X264883435Y-42821281D02*
G75*
G03*
X262619436Y-44705280I-190000J-2073999D01*
G01*
X268483435Y-46825281D02*
G75*
G03*
X266223436Y-48705280I-190000J-2069999D01*
G01*
X110208435Y-44775280D02*
X110208435Y-45725280D01*
X110208435Y-48425280D02*
X110208435Y-48720280D01*
X110208435Y-48729280D02*
X110808435Y-48729280D01*
X111608435Y-48729280D02*
X113818435Y-48729280D01*
X121108435Y-42821280D02*
X112483435Y-42821280D01*
X121108435Y-43175280D02*
X121108435Y-42821280D01*
X121108435Y-46729280D02*
X121108435Y-45925280D01*
X121108435Y-46775280D02*
X116058435Y-46821280D01*
X112483435Y-42821281D02*
G75*
G03*
X110219436Y-44705280I-190000J-2073999D01*
G01*
X116083435Y-46825281D02*
G75*
G03*
X113823436Y-48705280I-190000J-2069999D01*
G01*
X138783435Y-82875280D02*
X138783435Y-83825280D01*
X138783435Y-86525280D02*
X138783435Y-86820280D01*
X138783435Y-86829280D02*
X139383435Y-86829280D01*
X140183435Y-86829280D02*
X142393435Y-86829280D01*
X149683435Y-80921280D02*
X141058435Y-80921280D01*
X149683435Y-81275280D02*
X149683435Y-80921280D01*
X149683435Y-84829280D02*
X149683435Y-84025280D01*
X149683435Y-84875280D02*
X144633435Y-84921280D01*
X141058435Y-80921281D02*
G75*
G03*
X138794436Y-82805280I-190000J-2073999D01*
G01*
X144658435Y-84925281D02*
G75*
G03*
X142398436Y-86805280I-190000J-2069999D01*
G01*
X157833435Y-82875280D02*
X157833435Y-83825280D01*
X157833435Y-86525280D02*
X157833435Y-86820280D01*
X157833435Y-86829280D02*
X158433435Y-86829280D01*
X159233435Y-86829280D02*
X161443435Y-86829280D01*
X168733435Y-80921280D02*
X160108435Y-80921280D01*
X168733435Y-81275280D02*
X168733435Y-80921280D01*
X168733435Y-84829280D02*
X168733435Y-84025280D01*
X168733435Y-84875280D02*
X163683435Y-84921280D01*
X160108435Y-80921281D02*
G75*
G03*
X157844436Y-82805280I-190000J-2073999D01*
G01*
X163708435Y-84925281D02*
G75*
G03*
X161448436Y-86805280I-190000J-2069999D01*
G01*
X29245935Y-44775280D02*
X29245935Y-45725280D01*
X29245935Y-48425280D02*
X29245935Y-48720280D01*
X29245935Y-48729280D02*
X29845935Y-48729280D01*
X30645935Y-48729280D02*
X32855935Y-48729280D01*
X40145935Y-42821280D02*
X31520935Y-42821280D01*
X40145935Y-43175280D02*
X40145935Y-42821280D01*
X40145935Y-46729280D02*
X40145935Y-45925280D01*
X40145935Y-46775280D02*
X35095935Y-46821280D01*
X31520935Y-42821281D02*
G75*
G03*
X29256936Y-44705280I-190000J-2073999D01*
G01*
X35120935Y-46825281D02*
G75*
G03*
X32860936Y-48705280I-190000J-2069999D01*
G01*
X53058435Y-44775280D02*
X53058435Y-45725280D01*
X53058435Y-48425280D02*
X53058435Y-48720280D01*
X53058435Y-48729280D02*
X53658435Y-48729280D01*
X54458435Y-48729280D02*
X56668435Y-48729280D01*
X63958435Y-42821280D02*
X55333435Y-42821280D01*
X63958435Y-43175280D02*
X63958435Y-42821280D01*
X63958435Y-46729280D02*
X63958435Y-45925280D01*
X63958435Y-46775280D02*
X58908435Y-46821280D01*
X55333435Y-42821281D02*
G75*
G03*
X53069436Y-44705280I-190000J-2073999D01*
G01*
X58933435Y-46825281D02*
G75*
G03*
X56673436Y-48705280I-190000J-2069999D01*
G01*
X286420935Y-44775280D02*
X286420935Y-45725280D01*
X286420935Y-48425280D02*
X286420935Y-48720280D01*
X286420935Y-48729280D02*
X287020935Y-48729280D01*
X287820935Y-48729280D02*
X290030935Y-48729280D01*
X297320935Y-42821280D02*
X288695935Y-42821280D01*
X297320935Y-43175280D02*
X297320935Y-42821280D01*
X297320935Y-46729280D02*
X297320935Y-45925280D01*
X297320935Y-46775280D02*
X292270935Y-46821280D01*
X288695935Y-42821281D02*
G75*
G03*
X286431936Y-44705280I-190000J-2073999D01*
G01*
X292295935Y-46825281D02*
G75*
G03*
X290035936Y-48705280I-190000J-2069999D01*
G01*
D14*
X198937185Y-50354030D02*
X201437185Y-50354030D01*
X201437185Y-50354030D02*
X201437185Y-49304030D01*
X201437185Y-49304030D02*
X202427185Y-49304030D01*
X196967185Y-49184030D02*
X196967185Y-45304030D01*
X198937185Y-44134030D02*
X201437185Y-44134030D01*
X201437185Y-44134030D02*
X201437185Y-45184030D01*
X201437185Y-50354030D02*
X200437185Y-50354030D01*
X201437185Y-49304030D01*
X201437185Y-50354030D01*
G36*
X201437185Y-50354030D02*
G01*
X200437185Y-50354030D01*
X201437185Y-49304030D01*
X201437185Y-50354030D01*
G37*
X202427185Y-49544030D02*
X201437185Y-49544030D01*
X201437185Y-49304030D01*
X202427185Y-49304030D01*
X202427185Y-49544030D01*
G36*
X202427185Y-49544030D02*
G01*
X201437185Y-49544030D01*
X201437185Y-49304030D01*
X202427185Y-49304030D01*
X202427185Y-49544030D01*
G37*
X37917810Y-55447155D02*
X37917810Y-51547155D01*
X39917810Y-55447155D02*
X39917810Y-51547155D01*
X39917810Y-55447155D02*
X37917810Y-55447155D01*
X37917810Y-55447155D02*
X37917810Y-55737155D01*
X37917810Y-55737155D02*
X39917810Y-55737155D01*
X39917810Y-55737155D02*
X39917810Y-55447155D01*
G36*
X39917810Y-55447155D02*
G01*
X37917810Y-55447155D01*
X37917810Y-55737155D01*
X39917810Y-55737155D01*
X39917810Y-55447155D01*
G37*
X38917810Y-53832155D02*
X38155810Y-52689155D01*
X39679810Y-52689155D01*
X38917810Y-53832155D01*
G36*
X38917810Y-53832155D02*
G01*
X38155810Y-52689155D01*
X39679810Y-52689155D01*
X38917810Y-53832155D01*
G37*
X184183435Y-24622155D02*
G75*
G03*
X184183435Y-24622155I-1200000J0D01*
G01*
D12*
X190222435Y-25562136D02*
G75*
G03*
X194794435Y-25562136I2286000J1435606D01*
G01*
D14*
X103220935Y-24622155D02*
G75*
G03*
X103220935Y-24622155I-1200000J0D01*
G01*
X214130310Y-55447155D02*
X214130310Y-51547155D01*
X216130310Y-55447155D02*
X216130310Y-51547155D01*
X216130310Y-55447155D02*
X214130310Y-55447155D01*
X214130310Y-55447155D02*
X214130310Y-55737155D01*
X214130310Y-55737155D02*
X216130310Y-55737155D01*
X216130310Y-55737155D02*
X216130310Y-55447155D01*
G36*
X216130310Y-55447155D02*
G01*
X214130310Y-55447155D01*
X214130310Y-55737155D01*
X216130310Y-55737155D01*
X216130310Y-55447155D01*
G37*
X215130310Y-53832155D02*
X214368310Y-52689155D01*
X215892310Y-52689155D01*
X215130310Y-53832155D01*
G36*
X215130310Y-53832155D02*
G01*
X214368310Y-52689155D01*
X215892310Y-52689155D01*
X215130310Y-53832155D01*
G37*
X274852185Y-55447155D02*
X274852185Y-51547155D01*
X276852185Y-55447155D02*
X276852185Y-51547155D01*
X276852185Y-55447155D02*
X274852185Y-55447155D01*
X274852185Y-55447155D02*
X274852185Y-55737155D01*
X274852185Y-55737155D02*
X276852185Y-55737155D01*
X276852185Y-55737155D02*
X276852185Y-55447155D01*
G36*
X276852185Y-55447155D02*
G01*
X274852185Y-55447155D01*
X274852185Y-55737155D01*
X276852185Y-55737155D01*
X276852185Y-55447155D01*
G37*
X275852185Y-53832155D02*
X275090185Y-52689155D01*
X276614185Y-52689155D01*
X275852185Y-53832155D01*
G36*
X275852185Y-53832155D02*
G01*
X275090185Y-52689155D01*
X276614185Y-52689155D01*
X275852185Y-53832155D01*
G37*
X173649060Y-80450280D02*
X173649060Y-76550280D01*
X175649060Y-80450280D02*
X175649060Y-76550280D01*
X175649060Y-80450280D02*
X173649060Y-80450280D01*
X173649060Y-80450280D02*
X173649060Y-80740280D01*
X173649060Y-80740280D02*
X175649060Y-80740280D01*
X175649060Y-80740280D02*
X175649060Y-80450280D01*
G36*
X175649060Y-80450280D02*
G01*
X173649060Y-80450280D01*
X173649060Y-80740280D01*
X175649060Y-80740280D01*
X175649060Y-80450280D01*
G37*
X174649060Y-78835280D02*
X173887060Y-77692280D01*
X175411060Y-77692280D01*
X174649060Y-78835280D01*
G36*
X174649060Y-78835280D02*
G01*
X173887060Y-77692280D01*
X175411060Y-77692280D01*
X174649060Y-78835280D01*
G37*
X155789685Y-81640905D02*
X155789685Y-77740905D01*
X157789685Y-81640905D02*
X157789685Y-77740905D01*
X157789685Y-81640905D02*
X155789685Y-81640905D01*
X155789685Y-81640905D02*
X155789685Y-81930905D01*
X155789685Y-81930905D02*
X157789685Y-81930905D01*
X157789685Y-81930905D02*
X157789685Y-81640905D01*
G36*
X157789685Y-81640905D02*
G01*
X155789685Y-81640905D01*
X155789685Y-81930905D01*
X157789685Y-81930905D01*
X157789685Y-81640905D01*
G37*
X156789685Y-80025905D02*
X156027685Y-78882905D01*
X157551685Y-78882905D01*
X156789685Y-80025905D01*
G36*
X156789685Y-80025905D02*
G01*
X156027685Y-78882905D01*
X157551685Y-78882905D01*
X156789685Y-80025905D01*
G37*
X195080310Y-74497155D02*
X195080310Y-70597155D01*
X197080310Y-74497155D02*
X197080310Y-70597155D01*
X197080310Y-74497155D02*
X195080310Y-74497155D01*
X195080310Y-74497155D02*
X195080310Y-74787155D01*
X195080310Y-74787155D02*
X197080310Y-74787155D01*
X197080310Y-74787155D02*
X197080310Y-74497155D01*
G36*
X197080310Y-74497155D02*
G01*
X195080310Y-74497155D01*
X195080310Y-74787155D01*
X197080310Y-74787155D01*
X197080310Y-74497155D01*
G37*
X196080310Y-72882155D02*
X195318310Y-71739155D01*
X196842310Y-71739155D01*
X196080310Y-72882155D01*
G36*
X196080310Y-72882155D02*
G01*
X195318310Y-71739155D01*
X196842310Y-71739155D01*
X196080310Y-72882155D01*
G37*
X118880310Y-55447155D02*
X118880310Y-51547155D01*
X120880310Y-55447155D02*
X120880310Y-51547155D01*
X120880310Y-55447155D02*
X118880310Y-55447155D01*
X118880310Y-55447155D02*
X118880310Y-55737155D01*
X118880310Y-55737155D02*
X120880310Y-55737155D01*
X120880310Y-55737155D02*
X120880310Y-55447155D01*
G36*
X120880310Y-55447155D02*
G01*
X118880310Y-55447155D01*
X118880310Y-55737155D01*
X120880310Y-55737155D01*
X120880310Y-55447155D01*
G37*
X119880310Y-53832155D02*
X119118310Y-52689155D01*
X120642310Y-52689155D01*
X119880310Y-53832155D01*
G36*
X119880310Y-53832155D02*
G01*
X119118310Y-52689155D01*
X120642310Y-52689155D01*
X119880310Y-53832155D01*
G37*
X56786560Y-37719030D02*
G75*
G03*
X56786560Y-37719030I-1200000J0D01*
G01*
X141502185Y-75497280D02*
X141502185Y-71597280D01*
X143502185Y-75497280D02*
X143502185Y-71597280D01*
X143502185Y-75497280D02*
X141502185Y-75497280D01*
X141502185Y-75497280D02*
X141502185Y-75787280D01*
X141502185Y-75787280D02*
X143502185Y-75787280D01*
X143502185Y-75787280D02*
X143502185Y-75497280D01*
G36*
X143502185Y-75497280D02*
G01*
X141502185Y-75497280D01*
X141502185Y-75787280D01*
X143502185Y-75787280D01*
X143502185Y-75497280D01*
G37*
X142502185Y-73882280D02*
X141740185Y-72739280D01*
X143264185Y-72739280D01*
X142502185Y-73882280D01*
G36*
X142502185Y-73882280D02*
G01*
X141740185Y-72739280D01*
X143264185Y-72739280D01*
X142502185Y-73882280D01*
G37*
D12*
X147169435Y-54149799D02*
G75*
G03*
X142597435Y-54149799I-2286000J-1435606D01*
G01*
X42394435Y-30337299D02*
G75*
G03*
X37822435Y-30337299I-2286000J-1435606D01*
G01*
D14*
X153408435Y-80450280D02*
X153408435Y-76550280D01*
X155408435Y-80450280D02*
X155408435Y-76550280D01*
X155408435Y-80450280D02*
X153408435Y-80450280D01*
X153408435Y-80450280D02*
X153408435Y-80740280D01*
X153408435Y-80740280D02*
X155408435Y-80740280D01*
X155408435Y-80740280D02*
X155408435Y-80450280D01*
G36*
X155408435Y-80450280D02*
G01*
X153408435Y-80450280D01*
X153408435Y-80740280D01*
X155408435Y-80740280D01*
X155408435Y-80450280D01*
G37*
X154408435Y-78835280D02*
X153646435Y-77692280D01*
X155170435Y-77692280D01*
X154408435Y-78835280D01*
G36*
X154408435Y-78835280D02*
G01*
X153646435Y-77692280D01*
X155170435Y-77692280D01*
X154408435Y-78835280D01*
G37*
X106792810Y-24622155D02*
G75*
G03*
X106792810Y-24622155I-1200000J0D01*
G01*
D12*
X133072435Y-25562136D02*
G75*
G03*
X137644435Y-25562136I2286000J1435606D01*
G01*
D14*
X53214685Y-37719030D02*
G75*
G03*
X53214685Y-37719030I-1200000J0D01*
G01*
X219902185Y-24622155D02*
G75*
G03*
X219902185Y-24622155I-1200000J0D01*
G01*
X271280310Y-55447155D02*
X271280310Y-51547155D01*
X273280310Y-55447155D02*
X273280310Y-51547155D01*
X273280310Y-55447155D02*
X271280310Y-55447155D01*
X271280310Y-55447155D02*
X271280310Y-55737155D01*
X271280310Y-55737155D02*
X273280310Y-55737155D01*
X273280310Y-55737155D02*
X273280310Y-55447155D01*
G36*
X273280310Y-55447155D02*
G01*
X271280310Y-55447155D01*
X271280310Y-55737155D01*
X273280310Y-55737155D01*
X273280310Y-55447155D01*
G37*
X272280310Y-53832155D02*
X271518310Y-52689155D01*
X273042310Y-52689155D01*
X272280310Y-53832155D01*
G36*
X272280310Y-53832155D02*
G01*
X271518310Y-52689155D01*
X273042310Y-52689155D01*
X272280310Y-53832155D01*
G37*
D12*
X99544435Y-30337299D02*
G75*
G03*
X94972435Y-30337299I-2286000J-1435606D01*
G01*
X185269435Y-54149799D02*
G75*
G03*
X180697435Y-54149799I-2286000J-1435606D01*
G01*
D14*
X128929685Y-44134030D02*
X126429685Y-44134030D01*
X126429685Y-44134030D02*
X126429685Y-45184030D01*
X126429685Y-45184030D02*
X125439685Y-45184030D01*
X130899685Y-45304030D02*
X130899685Y-49184030D01*
X128929685Y-50354030D02*
X126429685Y-50354030D01*
X126429685Y-50354030D02*
X126429685Y-49304030D01*
X126429685Y-45184030D02*
X126429685Y-44134030D01*
X127429685Y-44134030D01*
X126429685Y-45184030D01*
G36*
X126429685Y-45184030D02*
G01*
X126429685Y-44134030D01*
X127429685Y-44134030D01*
X126429685Y-45184030D01*
G37*
X126429685Y-45184030D02*
X125439685Y-45184030D01*
X125439685Y-44944030D01*
X126429685Y-44944030D01*
X126429685Y-45184030D01*
G36*
X126429685Y-45184030D02*
G01*
X125439685Y-45184030D01*
X125439685Y-44944030D01*
X126429685Y-44944030D01*
X126429685Y-45184030D01*
G37*
D12*
X232894435Y-30337299D02*
G75*
G03*
X228322435Y-30337299I-2286000J-1435606D01*
G01*
D14*
X156980310Y-74480280D02*
X156980310Y-70580280D01*
X158980310Y-74480280D02*
X158980310Y-70580280D01*
X158980310Y-74480280D02*
X156980310Y-74480280D01*
X156980310Y-74480280D02*
X156980310Y-74770280D01*
X156980310Y-74770280D02*
X158980310Y-74770280D01*
X158980310Y-74770280D02*
X158980310Y-74480280D01*
G36*
X158980310Y-74480280D02*
G01*
X156980310Y-74480280D01*
X156980310Y-74770280D01*
X158980310Y-74770280D01*
X158980310Y-74480280D01*
G37*
X157980310Y-72865280D02*
X157218310Y-71722280D01*
X158742310Y-71722280D01*
X157980310Y-72865280D01*
G36*
X157980310Y-72865280D02*
G01*
X157218310Y-71722280D01*
X158742310Y-71722280D01*
X157980310Y-72865280D01*
G37*
X198937185Y-39638405D02*
X201437185Y-39638405D01*
X201437185Y-39638405D02*
X201437185Y-38588405D01*
X201437185Y-38588405D02*
X202427185Y-38588405D01*
X196967185Y-38468405D02*
X196967185Y-34588405D01*
X198937185Y-33418405D02*
X201437185Y-33418405D01*
X201437185Y-33418405D02*
X201437185Y-34468405D01*
X201437185Y-39638405D02*
X200437185Y-39638405D01*
X201437185Y-38588405D01*
X201437185Y-39638405D01*
G36*
X201437185Y-39638405D02*
G01*
X200437185Y-39638405D01*
X201437185Y-38588405D01*
X201437185Y-39638405D01*
G37*
X202427185Y-38828405D02*
X201437185Y-38828405D01*
X201437185Y-38588405D01*
X202427185Y-38588405D01*
X202427185Y-38828405D01*
G36*
X202427185Y-38828405D02*
G01*
X201437185Y-38828405D01*
X201437185Y-38588405D01*
X202427185Y-38588405D01*
X202427185Y-38828405D01*
G37*
X187755310Y-24622155D02*
G75*
G03*
X187755310Y-24622155I-1200000J0D01*
G01*
X205614685Y-24622155D02*
G75*
G03*
X205614685Y-24622155I-1200000J0D01*
G01*
X227045935Y-24622155D02*
G75*
G03*
X227045935Y-24622155I-1200000J0D01*
G01*
X61730310Y-55447155D02*
X61730310Y-51547155D01*
X63730310Y-55447155D02*
X63730310Y-51547155D01*
X63730310Y-55447155D02*
X61730310Y-55447155D01*
X61730310Y-55447155D02*
X61730310Y-55737155D01*
X61730310Y-55737155D02*
X63730310Y-55737155D01*
X63730310Y-55737155D02*
X63730310Y-55447155D01*
G36*
X63730310Y-55447155D02*
G01*
X61730310Y-55447155D01*
X61730310Y-55737155D01*
X63730310Y-55737155D01*
X63730310Y-55447155D01*
G37*
X62730310Y-53832155D02*
X61968310Y-52689155D01*
X63492310Y-52689155D01*
X62730310Y-53832155D01*
G36*
X62730310Y-53832155D02*
G01*
X61968310Y-52689155D01*
X63492310Y-52689155D01*
X62730310Y-53832155D01*
G37*
X176030310Y-75501280D02*
X176030310Y-71601280D01*
X178030310Y-75501280D02*
X178030310Y-71601280D01*
X178030310Y-75501280D02*
X176030310Y-75501280D01*
X176030310Y-75501280D02*
X176030310Y-75791280D01*
X176030310Y-75791280D02*
X178030310Y-75791280D01*
X178030310Y-75791280D02*
X178030310Y-75501280D01*
G36*
X178030310Y-75501280D02*
G01*
X176030310Y-75501280D01*
X176030310Y-75791280D01*
X178030310Y-75791280D01*
X178030310Y-75501280D01*
G37*
X177030310Y-73886280D02*
X176268310Y-72743280D01*
X177792310Y-72743280D01*
X177030310Y-73886280D01*
G36*
X177030310Y-73886280D02*
G01*
X176268310Y-72743280D01*
X177792310Y-72743280D01*
X177030310Y-73886280D01*
G37*
X110364685Y-24622155D02*
G75*
G03*
X110364685Y-24622155I-1200000J0D01*
G01*
X202042810Y-24622155D02*
G75*
G03*
X202042810Y-24622155I-1200000J0D01*
G01*
D12*
X290044435Y-30337299D02*
G75*
G03*
X285472435Y-30337299I-2286000J-1435606D01*
G01*
D14*
X223474060Y-24622155D02*
G75*
G03*
X223474060Y-24622155I-1200000J0D01*
G01*
%LPC*%
D15*
X78208435Y-31765905D03*
X303236560Y-24133530D03*
D16*
X177903435Y-87725280D03*
D17*
X179173435Y-85185280D03*
D18*
X182983435Y-87725280D03*
D17*
X185523435Y-82645280D03*
D16*
X188063435Y-87725280D03*
D19*
X175898435Y-85185280D03*
X188825435Y-82645280D03*
D15*
X202033435Y-55625280D03*
D20*
X46585435Y-49244280D03*
D16*
X206478435Y-49625280D03*
D17*
X207748435Y-47085280D03*
D18*
X211558435Y-49625280D03*
D17*
X214098435Y-44545280D03*
D16*
X216638435Y-49625280D03*
D19*
X204473435Y-47085280D03*
X217400435Y-44545280D03*
D16*
X187428435Y-68675280D03*
D17*
X188698435Y-66135280D03*
D18*
X192508435Y-68675280D03*
D17*
X195048435Y-63595280D03*
D16*
X197588435Y-68675280D03*
D19*
X185423435Y-66135280D03*
X198350435Y-63595280D03*
D16*
X130278435Y-68700320D03*
D17*
X131548435Y-66160320D03*
D18*
X135358435Y-68700320D03*
D17*
X137898435Y-63620320D03*
D16*
X140438435Y-68700320D03*
D19*
X128273435Y-66160320D03*
X141200435Y-63620320D03*
D15*
X303236560Y-55587780D03*
D16*
X168378435Y-68675280D03*
D17*
X169648435Y-66135280D03*
D18*
X173458435Y-68675280D03*
D17*
X175998435Y-63595280D03*
D16*
X178538435Y-68675280D03*
D19*
X166373435Y-66135280D03*
X179300435Y-63595280D03*
D15*
X138930310Y-78200280D03*
D16*
X149328435Y-68675280D03*
D17*
X150598435Y-66135280D03*
D18*
X154408435Y-68675280D03*
D17*
X156948435Y-63595280D03*
D16*
X159488435Y-68675280D03*
D19*
X147323435Y-66135280D03*
X160250435Y-63595280D03*
D16*
X263628435Y-49625280D03*
D17*
X264898435Y-47085280D03*
D18*
X268708435Y-49625280D03*
D17*
X271248435Y-44545280D03*
D16*
X273788435Y-49625280D03*
D19*
X261623435Y-47085280D03*
X274550435Y-44545280D03*
D15*
X249658435Y-31765905D03*
X188936560Y-78200280D03*
X24630310Y-55587780D03*
D16*
X111228435Y-49625280D03*
D17*
X112498435Y-47085280D03*
D18*
X116308435Y-49625280D03*
D17*
X118848435Y-44545280D03*
D16*
X121388435Y-49625280D03*
D19*
X109223435Y-47085280D03*
X122150435Y-44545280D03*
D15*
X163933435Y-24133530D03*
X125833435Y-55578405D03*
X24630310Y-24133530D03*
D16*
X139803435Y-87725280D03*
D17*
X141073435Y-85185280D03*
D18*
X144883435Y-87725280D03*
D17*
X147423435Y-82645280D03*
D16*
X149963435Y-87725280D03*
D19*
X137798435Y-85185280D03*
X150725435Y-82645280D03*
D16*
X158853435Y-87725280D03*
D17*
X160123435Y-85185280D03*
D18*
X163933435Y-87725280D03*
D17*
X166473435Y-82645280D03*
D16*
X169013435Y-87725280D03*
D19*
X156848435Y-85185280D03*
X169775435Y-82645280D03*
D16*
X30265935Y-49625280D03*
D17*
X31535935Y-47085280D03*
D18*
X35345935Y-49625280D03*
D17*
X37885935Y-44545280D03*
D16*
X40425935Y-49625280D03*
D19*
X28260935Y-47085280D03*
X41187935Y-44545280D03*
D16*
X54078435Y-49625280D03*
D17*
X55348435Y-47085280D03*
D18*
X59158435Y-49625280D03*
D17*
X61698435Y-44545280D03*
D16*
X64238435Y-49625280D03*
D19*
X52073435Y-47085280D03*
X65000435Y-44545280D03*
D16*
X287440935Y-49625280D03*
D17*
X288710935Y-47085280D03*
D18*
X292520935Y-49625280D03*
D17*
X295060935Y-44545280D03*
D16*
X297600935Y-49625280D03*
D19*
X285435935Y-47085280D03*
X298362935Y-44545280D03*
D21*
X199852185Y-49244030D03*
D22*
X201652185Y-48744030D03*
D21*
X197952185Y-48244030D03*
D22*
X201652185Y-47744030D03*
X201652185Y-46744030D03*
D21*
X197952185Y-46244030D03*
D22*
X201652185Y-45744030D03*
D21*
X199852185Y-45244030D03*
D23*
X197777185Y-50044030D03*
X197777185Y-44444030D03*
D24*
X38917810Y-54847155D03*
X38917810Y-51547155D03*
D25*
X182983435Y-24622155D03*
D15*
X192508435Y-24133530D03*
D25*
X102020935Y-24622155D03*
D24*
X215130310Y-54847155D03*
X215130310Y-51547155D03*
X275852185Y-54847155D03*
X275852185Y-51547155D03*
X174649060Y-79850280D03*
X174649060Y-76550280D03*
X156789685Y-81040905D03*
X156789685Y-77740905D03*
X196080310Y-73897155D03*
X196080310Y-70597155D03*
X119880310Y-54847155D03*
X119880310Y-51547155D03*
D25*
X55586560Y-37719030D03*
D24*
X142502185Y-74897280D03*
X142502185Y-71597280D03*
D15*
X144883435Y-55578405D03*
X40108435Y-31765905D03*
D24*
X154408435Y-79850280D03*
X154408435Y-76550280D03*
D25*
X105592810Y-24622155D03*
D15*
X135358435Y-24133530D03*
D25*
X52014685Y-37719030D03*
X218702185Y-24622155D03*
D24*
X272280310Y-54847155D03*
X272280310Y-51547155D03*
D15*
X97258435Y-31765905D03*
X182983435Y-55578405D03*
D21*
X128014685Y-45244030D03*
D26*
X126214685Y-45744030D03*
D21*
X129914685Y-46244030D03*
D26*
X126214685Y-46744030D03*
X126214685Y-47744030D03*
D21*
X129914685Y-48244030D03*
D26*
X126214685Y-48744030D03*
D21*
X128014685Y-49244030D03*
D27*
X130089685Y-44444030D03*
X130089685Y-50044030D03*
D15*
X230608435Y-31765905D03*
D24*
X157980310Y-73880280D03*
X157980310Y-70580280D03*
D21*
X199852185Y-38528405D03*
D22*
X201652185Y-38028405D03*
D21*
X197952185Y-37528405D03*
D22*
X201652185Y-37028405D03*
X201652185Y-36028405D03*
D21*
X197952185Y-35528405D03*
D22*
X201652185Y-35028405D03*
D21*
X199852185Y-34528405D03*
D23*
X197777185Y-39328405D03*
X197777185Y-33728405D03*
D25*
X186555310Y-24622155D03*
X204414685Y-24622155D03*
X225845935Y-24622155D03*
D24*
X62730310Y-54847155D03*
X62730310Y-51547155D03*
X177030310Y-74901280D03*
X177030310Y-71601280D03*
D25*
X109164685Y-24622155D03*
X200842810Y-24622155D03*
D15*
X287758435Y-31765905D03*
D25*
X222274060Y-24622155D03*
M02*
