M48
; DRILL file {KiCad (6.0.10-0)} date 
; FORMAT={-:-/ absolute / metric / decimal}
; #@! TF.CreationDate,2023-03-16T17:33:30+09:00
; #@! TF.GenerationSoftware,Kicad,Pcbnew,(6.0.10-0)
; #@! TF.FileFunction,NonPlated,1,2,NPTH
FMAT,2
METRIC
; #@! TA.AperFunction,NonPlated,NPTH,ComponentDrill
T1C1.000
; #@! TA.AperFunction,NonPlated,NPTH,ComponentDrill
T2C1.450
; #@! TA.AperFunction,NonPlated,NPTH,ComponentDrill
T3C1.600
; #@! TA.AperFunction,NonPlated,NPTH,ComponentDrill
T4C1.750
; #@! TA.AperFunction,NonPlated,NPTH,ComponentDrill
T5C3.988
; #@! TA.AperFunction,NonPlated,NPTH,ComponentDrill
T6C5.334
; #@! TA.AperFunction,NonPlated,NPTH,ComponentDrill
T7C6.096
%
G90
G05
T1
X22.562Y-58.922
X24.162Y-58.922
X25.762Y-58.922
X302.104Y-58.922
X303.704Y-58.922
X305.304Y-58.922
T3
X166.933Y-90.725
T4
X30.266Y-49.625
X32.647Y-49.625
X40.426Y-49.625
X42.807Y-49.625
X54.078Y-49.625
X64.238Y-49.625
X111.228Y-49.625
X121.388Y-49.625
X130.278Y-68.7
X139.803Y-87.725
X140.438Y-68.7
X149.328Y-68.675
X149.963Y-87.725
X158.853Y-87.725
X159.488Y-68.675
X168.378Y-68.675
X169.013Y-87.725
X177.903Y-87.725
X178.538Y-68.675
X187.428Y-68.675
X188.063Y-87.725
X197.588Y-68.675
X206.478Y-49.625
X216.638Y-49.625
X263.628Y-49.625
X273.788Y-49.625
X287.441Y-49.625
X297.601Y-49.625
T5
X35.346Y-49.625
X37.727Y-49.625
X59.158Y-49.625
X116.308Y-49.625
X135.358Y-68.7
X144.883Y-87.725
X154.408Y-68.675
X163.933Y-87.725
X173.458Y-68.675
X182.983Y-87.725
X192.508Y-68.675
X211.558Y-49.625
X268.708Y-49.625
X292.521Y-49.625
T7
X46.585Y-49.244
T2
X158.408Y-82.95G85X158.408Y-85.5
G05
X158.408Y-89.95G85X158.408Y-92.5
G05
X169.458Y-86.45G85X169.458Y-89.0
G05
T6
X279.884Y-49.252G85X282.932Y-49.252
G05
T0
M30
