G04 #@! TF.GenerationSoftware,KiCad,Pcbnew,(6.0.10-0)*
G04 #@! TF.CreationDate,2023-02-21T06:01:42+09:00*
G04 #@! TF.ProjectId,Sandy_Middle,53616e64-795f-44d6-9964-646c652e6b69,v.0*
G04 #@! TF.SameCoordinates,Original*
G04 #@! TF.FileFunction,Legend,Bot*
G04 #@! TF.FilePolarity,Positive*
%FSLAX46Y46*%
G04 Gerber Fmt 4.6, Leading zero omitted, Abs format (unit mm)*
G04 Created by KiCad (PCBNEW (6.0.10-0)) date 2023-02-21 06:01:42*
%MOMM*%
%LPD*%
G01*
G04 APERTURE LIST*
G04 Aperture macros list*
%AMRoundRect*
0 Rectangle with rounded corners*
0 $1 Rounding radius*
0 $2 $3 $4 $5 $6 $7 $8 $9 X,Y pos of 4 corners*
0 Add a 4 corners polygon primitive as box body*
4,1,4,$2,$3,$4,$5,$6,$7,$8,$9,$2,$3,0*
0 Add four circle primitives for the rounded corners*
1,1,$1+$1,$2,$3*
1,1,$1+$1,$4,$5*
1,1,$1+$1,$6,$7*
1,1,$1+$1,$8,$9*
0 Add four rect primitives between the rounded corners*
20,1,$1+$1,$2,$3,$4,$5,0*
20,1,$1+$1,$4,$5,$6,$7,0*
20,1,$1+$1,$6,$7,$8,$9,0*
20,1,$1+$1,$8,$9,$2,$3,0*%
G04 Aperture macros list end*
%ADD10C,0.300000*%
%ADD11C,0.400000*%
%ADD12C,0.200000*%
%ADD13C,0.150000*%
%ADD14C,0.120000*%
%ADD15C,1.000000*%
%ADD16C,4.800000*%
%ADD17C,2.150000*%
%ADD18C,4.387800*%
%ADD19C,2.650000*%
%ADD20O,8.781998X5.734000*%
%ADD21C,1.000000*%
%ADD22C,6.496000*%
%ADD23O,1.850000X4.400000*%
%ADD24C,2.000000*%
%ADD25RoundRect,0.350000X0.625000X-0.150000X0.625000X0.150000X-0.625000X0.150000X-0.625000X-0.150000X0*%
%ADD26O,2.100000X2.100000*%
%ADD27RoundRect,0.450000X0.650000X-0.350000X0.650000X0.350000X-0.650000X0.350000X-0.650000X-0.350000X0*%
%ADD28RoundRect,0.200000X0.600000X-0.450000X0.600000X0.450000X-0.600000X0.450000X-0.600000X-0.450000X0*%
%ADD29C,2.400000*%
%ADD30RoundRect,0.350000X-0.625000X0.150000X-0.625000X-0.150000X0.625000X-0.150000X0.625000X0.150000X0*%
%ADD31RoundRect,0.450000X-0.650000X0.350000X-0.650000X-0.350000X0.650000X-0.350000X0.650000X0.350000X0*%
G04 APERTURE END LIST*
D10*
X289861006Y-56296851D02*
X289861006Y-57368280D01*
X289932435Y-57582565D01*
X290075292Y-57725422D01*
X290289577Y-57796851D01*
X290432435Y-57796851D01*
X288432435Y-57796851D02*
X289146720Y-57796851D01*
X289146720Y-56296851D01*
X287075292Y-57653994D02*
X287146720Y-57725422D01*
X287361006Y-57796851D01*
X287503863Y-57796851D01*
X287718149Y-57725422D01*
X287861006Y-57582565D01*
X287932435Y-57439708D01*
X288003863Y-57153994D01*
X288003863Y-56939708D01*
X287932435Y-56653994D01*
X287861006Y-56511137D01*
X287718149Y-56368280D01*
X287503863Y-56296851D01*
X287361006Y-56296851D01*
X287146720Y-56368280D01*
X287075292Y-56439708D01*
X286003863Y-56296851D02*
X286003863Y-57368280D01*
X286075292Y-57582565D01*
X286218149Y-57725422D01*
X286432435Y-57796851D01*
X286575292Y-57796851D01*
X284575292Y-57796851D02*
X285289577Y-57796851D01*
X285289577Y-56296851D01*
X283218149Y-57653994D02*
X283289577Y-57725422D01*
X283503863Y-57796851D01*
X283646720Y-57796851D01*
X283861006Y-57725422D01*
X284003863Y-57582565D01*
X284075292Y-57439708D01*
X284146720Y-57153994D01*
X284146720Y-56939708D01*
X284075292Y-56653994D01*
X284003863Y-56511137D01*
X283861006Y-56368280D01*
X283646720Y-56296851D01*
X283503863Y-56296851D01*
X283289577Y-56368280D01*
X283218149Y-56439708D01*
X282146720Y-56296851D02*
X282146720Y-57368280D01*
X282218149Y-57582565D01*
X282361006Y-57725422D01*
X282575292Y-57796851D01*
X282718149Y-57796851D01*
X280718149Y-57796851D02*
X281432435Y-57796851D01*
X281432435Y-56296851D01*
X279361006Y-57653994D02*
X279432435Y-57725422D01*
X279646720Y-57796851D01*
X279789577Y-57796851D01*
X280003863Y-57725422D01*
X280146720Y-57582565D01*
X280218149Y-57439708D01*
X280289577Y-57153994D01*
X280289577Y-56939708D01*
X280218149Y-56653994D01*
X280146720Y-56511137D01*
X280003863Y-56368280D01*
X279789577Y-56296851D01*
X279646720Y-56296851D01*
X279432435Y-56368280D01*
X279361006Y-56439708D01*
X278289577Y-56296851D02*
X278289577Y-57368280D01*
X278361006Y-57582565D01*
X278503863Y-57725422D01*
X278718149Y-57796851D01*
X278861006Y-57796851D01*
X276861006Y-57796851D02*
X277575292Y-57796851D01*
X277575292Y-56296851D01*
X275503863Y-57653994D02*
X275575292Y-57725422D01*
X275789577Y-57796851D01*
X275932435Y-57796851D01*
X276146720Y-57725422D01*
X276289577Y-57582565D01*
X276361006Y-57439708D01*
X276432435Y-57153994D01*
X276432435Y-56939708D01*
X276361006Y-56653994D01*
X276289577Y-56511137D01*
X276146720Y-56368280D01*
X275932435Y-56296851D01*
X275789577Y-56296851D01*
X275575292Y-56368280D01*
X275503863Y-56439708D01*
D11*
X49767452Y-25598494D02*
X49356738Y-25741351D01*
X49231738Y-25884208D01*
X49124595Y-26169922D01*
X49178167Y-26598494D01*
X49356738Y-26884208D01*
X49517452Y-27027065D01*
X49821024Y-27169922D01*
X50963881Y-27169922D01*
X50588881Y-24169922D01*
X49588881Y-24169922D01*
X49321024Y-24312780D01*
X49196024Y-24455637D01*
X49088881Y-24741351D01*
X49124595Y-25027065D01*
X49303167Y-25312780D01*
X49463881Y-25455637D01*
X49767452Y-25598494D01*
X50767452Y-25598494D01*
X46678167Y-27169922D02*
X46481738Y-25598494D01*
X46588881Y-25312780D01*
X46856738Y-25169922D01*
X47428167Y-25169922D01*
X47731738Y-25312780D01*
X46660310Y-27027065D02*
X46963881Y-27169922D01*
X47678167Y-27169922D01*
X47946024Y-27027065D01*
X48053167Y-26741351D01*
X48017452Y-26455637D01*
X47838881Y-26169922D01*
X47535310Y-26027065D01*
X46821024Y-26027065D01*
X46517452Y-25884208D01*
X43946024Y-27027065D02*
X44249595Y-27169922D01*
X44821024Y-27169922D01*
X45088881Y-27027065D01*
X45213881Y-26884208D01*
X45321024Y-26598494D01*
X45213881Y-25741351D01*
X45035310Y-25455637D01*
X44874595Y-25312780D01*
X44571024Y-25169922D01*
X43999595Y-25169922D01*
X43731738Y-25312780D01*
X42678167Y-27169922D02*
X42303167Y-24169922D01*
X42249595Y-26027065D02*
X41535310Y-27169922D01*
X41285310Y-25169922D02*
X42571024Y-26312780D01*
X38088881Y-27027065D02*
X37678167Y-27169922D01*
X36963881Y-27169922D01*
X36660310Y-27027065D01*
X36499595Y-26884208D01*
X36321024Y-26598494D01*
X36285310Y-26312780D01*
X36392452Y-26027065D01*
X36517452Y-25884208D01*
X36785310Y-25741351D01*
X37338881Y-25598494D01*
X37606738Y-25455637D01*
X37731738Y-25312780D01*
X37838881Y-25027065D01*
X37803167Y-24741351D01*
X37624595Y-24455637D01*
X37463881Y-24312780D01*
X37160310Y-24169922D01*
X36446024Y-24169922D01*
X36035310Y-24312780D01*
X35106738Y-27169922D02*
X34856738Y-25169922D01*
X34731738Y-24169922D02*
X34892452Y-24312780D01*
X34767452Y-24455637D01*
X34606738Y-24312780D01*
X34731738Y-24169922D01*
X34767452Y-24455637D01*
X32392452Y-27169922D02*
X32017452Y-24169922D01*
X32374595Y-27027065D02*
X32678167Y-27169922D01*
X33249595Y-27169922D01*
X33517452Y-27027065D01*
X33642452Y-26884208D01*
X33749595Y-26598494D01*
X33642452Y-25741351D01*
X33463881Y-25455637D01*
X33303167Y-25312780D01*
X32999595Y-25169922D01*
X32428167Y-25169922D01*
X32160310Y-25312780D01*
X29803167Y-27027065D02*
X30106738Y-27169922D01*
X30678167Y-27169922D01*
X30946024Y-27027065D01*
X31053167Y-26741351D01*
X30910310Y-25598494D01*
X30731738Y-25312780D01*
X30428167Y-25169922D01*
X29856738Y-25169922D01*
X29588881Y-25312780D01*
X29481738Y-25598494D01*
X29517452Y-25884208D01*
X30981738Y-26169922D01*
D12*
X282860577Y-27892037D02*
X281574863Y-27892037D01*
X282346292Y-27120609D02*
X282860577Y-29434894D01*
X281746292Y-28663466D02*
X283032006Y-28663466D01*
X282260577Y-29434894D02*
X281746292Y-27120609D01*
X281060577Y-29006323D02*
X280803435Y-29092037D01*
X280374863Y-29092037D01*
X280203435Y-29006323D01*
X280117720Y-28920609D01*
X280032006Y-28749180D01*
X280032006Y-28577752D01*
X280117720Y-28406323D01*
X280203435Y-28320609D01*
X280374863Y-28234894D01*
X280717720Y-28149180D01*
X280889149Y-28063466D01*
X280974863Y-27977752D01*
X281060577Y-27806323D01*
X281060577Y-27634894D01*
X280974863Y-27463466D01*
X280889149Y-27377752D01*
X280717720Y-27292037D01*
X280289149Y-27292037D01*
X280032006Y-27377752D01*
X278489149Y-29092037D02*
X278489149Y-28149180D01*
X278574863Y-27977752D01*
X278746292Y-27892037D01*
X279089149Y-27892037D01*
X279260577Y-27977752D01*
X278489149Y-29006323D02*
X278660577Y-29092037D01*
X279089149Y-29092037D01*
X279260577Y-29006323D01*
X279346292Y-28834894D01*
X279346292Y-28663466D01*
X279260577Y-28492037D01*
X279089149Y-28406323D01*
X278660577Y-28406323D01*
X278489149Y-28320609D01*
X277632006Y-27892037D02*
X277632006Y-29092037D01*
X277632006Y-28063466D02*
X277546292Y-27977752D01*
X277374863Y-27892037D01*
X277117720Y-27892037D01*
X276946292Y-27977752D01*
X276860577Y-28149180D01*
X276860577Y-29092037D01*
X275232006Y-29092037D02*
X275232006Y-27292037D01*
X275232006Y-29006323D02*
X275403435Y-29092037D01*
X275746292Y-29092037D01*
X275917720Y-29006323D01*
X276003435Y-28920609D01*
X276089149Y-28749180D01*
X276089149Y-28234894D01*
X276003435Y-28063466D01*
X275917720Y-27977752D01*
X275746292Y-27892037D01*
X275403435Y-27892037D01*
X275232006Y-27977752D01*
X274546292Y-27892037D02*
X274117720Y-29092037D01*
X273689149Y-27892037D02*
X274117720Y-29092037D01*
X274289149Y-29520609D01*
X274374863Y-29606323D01*
X274546292Y-29692037D01*
X273432006Y-29263466D02*
X272060577Y-29263466D01*
X271632006Y-29092037D02*
X271632006Y-27292037D01*
X271460577Y-28406323D02*
X270946292Y-29092037D01*
X270946292Y-27892037D02*
X271632006Y-28577752D01*
X270174863Y-29092037D02*
X270174863Y-27292037D01*
X270174863Y-27977752D02*
X270003435Y-27892037D01*
X269660577Y-27892037D01*
X269489149Y-27977752D01*
X269403435Y-28063466D01*
X269317720Y-28234894D01*
X269317720Y-28749180D01*
X269403435Y-28920609D01*
X269489149Y-29006323D01*
X269660577Y-29092037D01*
X270003435Y-29092037D01*
X270174863Y-29006323D01*
X267774863Y-29092037D02*
X267774863Y-27292037D01*
X267774863Y-29006323D02*
X267946292Y-29092037D01*
X268289149Y-29092037D01*
X268460577Y-29006323D01*
X268546292Y-28920609D01*
X268632006Y-28749180D01*
X268632006Y-28234894D01*
X268546292Y-28063466D01*
X268460577Y-27977752D01*
X268289149Y-27892037D01*
X267946292Y-27892037D01*
X267774863Y-27977752D01*
X265717720Y-27892037D02*
X265289149Y-29092037D01*
X264860577Y-27892037D01*
X264174863Y-28920609D02*
X264089149Y-29006323D01*
X264174863Y-29092037D01*
X264260577Y-29006323D01*
X264174863Y-28920609D01*
X264174863Y-29092037D01*
X262974863Y-27292037D02*
X262803435Y-27292037D01*
X262632006Y-27377752D01*
X262546292Y-27463466D01*
X262460577Y-27634894D01*
X262374863Y-27977752D01*
X262374863Y-28406323D01*
X262460577Y-28749180D01*
X262546292Y-28920609D01*
X262632006Y-29006323D01*
X262803435Y-29092037D01*
X262974863Y-29092037D01*
X263146292Y-29006323D01*
X263232006Y-28920609D01*
X263317720Y-28749180D01*
X263403435Y-28406323D01*
X263403435Y-27977752D01*
X263317720Y-27634894D01*
X263232006Y-27463466D01*
X263146292Y-27377752D01*
X262974863Y-27292037D01*
X261603435Y-28920609D02*
X261517720Y-29006323D01*
X261603435Y-29092037D01*
X261689149Y-29006323D01*
X261603435Y-28920609D01*
X261603435Y-29092037D01*
X259803435Y-29092037D02*
X260832006Y-29092037D01*
X260317720Y-29092037D02*
X260317720Y-27292037D01*
X260489149Y-27549180D01*
X260660577Y-27720609D01*
X260832006Y-27806323D01*
X258946292Y-29006323D02*
X258946292Y-29092037D01*
X259032006Y-29263466D01*
X259117720Y-29349180D01*
X256803435Y-29092037D02*
X256803435Y-27292037D01*
X256203435Y-28577752D01*
X255603435Y-27292037D01*
X255603435Y-29092037D01*
X254746292Y-29092037D02*
X254746292Y-27892037D01*
X254746292Y-27292037D02*
X254832006Y-27377752D01*
X254746292Y-27463466D01*
X254660577Y-27377752D01*
X254746292Y-27292037D01*
X254746292Y-27463466D01*
X253117720Y-29092037D02*
X253117720Y-27292037D01*
X253117720Y-29006323D02*
X253289149Y-29092037D01*
X253632006Y-29092037D01*
X253803435Y-29006323D01*
X253889149Y-28920609D01*
X253974863Y-28749180D01*
X253974863Y-28234894D01*
X253889149Y-28063466D01*
X253803435Y-27977752D01*
X253632006Y-27892037D01*
X253289149Y-27892037D01*
X253117720Y-27977752D01*
X282774863Y-31990037D02*
X282774863Y-30190037D01*
X282774863Y-30875752D02*
X282603435Y-30790037D01*
X282260577Y-30790037D01*
X282089149Y-30875752D01*
X282003435Y-30961466D01*
X281917720Y-31132894D01*
X281917720Y-31647180D01*
X282003435Y-31818609D01*
X282089149Y-31904323D01*
X282260577Y-31990037D01*
X282603435Y-31990037D01*
X282774863Y-31904323D01*
X281317720Y-30790037D02*
X280889149Y-31990037D01*
X280460577Y-30790037D02*
X280889149Y-31990037D01*
X281060577Y-32418609D01*
X281146292Y-32504323D01*
X281317720Y-32590037D01*
X277289149Y-31132894D02*
X277374863Y-31047180D01*
X277546292Y-30961466D01*
X277717720Y-30961466D01*
X277889149Y-31047180D01*
X277974863Y-31132894D01*
X278060577Y-31304323D01*
X278060577Y-31475752D01*
X277974863Y-31647180D01*
X277889149Y-31732894D01*
X277717720Y-31818609D01*
X277546292Y-31818609D01*
X277374863Y-31732894D01*
X277289149Y-31647180D01*
X277289149Y-30961466D02*
X277289149Y-31647180D01*
X277203435Y-31732894D01*
X277117720Y-31732894D01*
X276946292Y-31647180D01*
X276860577Y-31475752D01*
X276860577Y-31047180D01*
X277032006Y-30790037D01*
X277289149Y-30618609D01*
X277632006Y-30532894D01*
X277974863Y-30618609D01*
X278232006Y-30790037D01*
X278403435Y-31047180D01*
X278489149Y-31390037D01*
X278403435Y-31732894D01*
X278232006Y-31990037D01*
X277974863Y-32161466D01*
X277632006Y-32247180D01*
X277289149Y-32161466D01*
X277032006Y-31990037D01*
X276089149Y-30790037D02*
X276089149Y-32332894D01*
X276174863Y-32504323D01*
X276346292Y-32590037D01*
X276432006Y-32590037D01*
X276089149Y-30190037D02*
X276174863Y-30275752D01*
X276089149Y-30361466D01*
X276003435Y-30275752D01*
X276089149Y-30190037D01*
X276089149Y-30361466D01*
X275232006Y-30790037D02*
X275232006Y-32590037D01*
X275232006Y-30875752D02*
X275060577Y-30790037D01*
X274717720Y-30790037D01*
X274546292Y-30875752D01*
X274460577Y-30961466D01*
X274374863Y-31132894D01*
X274374863Y-31647180D01*
X274460577Y-31818609D01*
X274546292Y-31904323D01*
X274717720Y-31990037D01*
X275060577Y-31990037D01*
X275232006Y-31904323D01*
X273689149Y-31904323D02*
X273517720Y-31990037D01*
X273174863Y-31990037D01*
X273003435Y-31904323D01*
X272917720Y-31732894D01*
X272917720Y-31647180D01*
X273003435Y-31475752D01*
X273174863Y-31390037D01*
X273432006Y-31390037D01*
X273603435Y-31304323D01*
X273689149Y-31132894D01*
X273689149Y-31047180D01*
X273603435Y-30875752D01*
X273432006Y-30790037D01*
X273174863Y-30790037D01*
X273003435Y-30875752D01*
X272146292Y-31990037D02*
X272146292Y-30190037D01*
X271974863Y-31304323D02*
X271460577Y-31990037D01*
X271460577Y-30790037D02*
X272146292Y-31475752D01*
X270003435Y-31904323D02*
X270174863Y-31990037D01*
X270517720Y-31990037D01*
X270689149Y-31904323D01*
X270774863Y-31732894D01*
X270774863Y-31047180D01*
X270689149Y-30875752D01*
X270517720Y-30790037D01*
X270174863Y-30790037D01*
X270003435Y-30875752D01*
X269917720Y-31047180D01*
X269917720Y-31218609D01*
X270774863Y-31390037D01*
X269146292Y-30790037D02*
X269146292Y-31990037D01*
X269146292Y-30961466D02*
X269060577Y-30875752D01*
X268889149Y-30790037D01*
X268632006Y-30790037D01*
X268460577Y-30875752D01*
X268374863Y-31047180D01*
X268374863Y-31990037D01*
X267517720Y-30790037D02*
X267517720Y-31990037D01*
X267517720Y-30961466D02*
X267432006Y-30875752D01*
X267260577Y-30790037D01*
X267003435Y-30790037D01*
X266832006Y-30875752D01*
X266746292Y-31047180D01*
X266746292Y-31990037D01*
D13*
X40274952Y-53649535D02*
X40846381Y-53649535D01*
X40560667Y-53649535D02*
X40560667Y-52649535D01*
X40655905Y-52792393D01*
X40751143Y-52887631D01*
X40846381Y-52935250D01*
X39846381Y-53554297D02*
X39798762Y-53601916D01*
X39846381Y-53649535D01*
X39894000Y-53601916D01*
X39846381Y-53554297D01*
X39846381Y-53649535D01*
X39417810Y-52744774D02*
X39370190Y-52697155D01*
X39274952Y-52649535D01*
X39036857Y-52649535D01*
X38941619Y-52697155D01*
X38894000Y-52744774D01*
X38846381Y-52840012D01*
X38846381Y-52935250D01*
X38894000Y-53078107D01*
X39465429Y-53649535D01*
X38846381Y-53649535D01*
X37941619Y-52649535D02*
X38417810Y-52649535D01*
X38465429Y-53125726D01*
X38417810Y-53078107D01*
X38322571Y-53030488D01*
X38084476Y-53030488D01*
X37989238Y-53078107D01*
X37941619Y-53125726D01*
X37894000Y-53220964D01*
X37894000Y-53459059D01*
X37941619Y-53554297D01*
X37989238Y-53601916D01*
X38084476Y-53649535D01*
X38322571Y-53649535D01*
X38417810Y-53601916D01*
X38465429Y-53554297D01*
X37036857Y-52982869D02*
X37036857Y-53649535D01*
X37465429Y-52982869D02*
X37465429Y-53506678D01*
X37417810Y-53601916D01*
X37322571Y-53649535D01*
X37179714Y-53649535D01*
X37084476Y-53601916D01*
X37036857Y-53554297D01*
X35036262Y-53649535D02*
X35607690Y-53649535D01*
X35321976Y-53649535D02*
X35321976Y-52649535D01*
X35417214Y-52792393D01*
X35512452Y-52887631D01*
X35607690Y-52935250D01*
X34607690Y-53554297D02*
X34560071Y-53601916D01*
X34607690Y-53649535D01*
X34655310Y-53601916D01*
X34607690Y-53554297D01*
X34607690Y-53649535D01*
X33655310Y-52649535D02*
X34131500Y-52649535D01*
X34179119Y-53125726D01*
X34131500Y-53078107D01*
X34036262Y-53030488D01*
X33798167Y-53030488D01*
X33702929Y-53078107D01*
X33655310Y-53125726D01*
X33607690Y-53220964D01*
X33607690Y-53459059D01*
X33655310Y-53554297D01*
X33702929Y-53601916D01*
X33798167Y-53649535D01*
X34036262Y-53649535D01*
X34131500Y-53601916D01*
X34179119Y-53554297D01*
X32750548Y-52982869D02*
X32750548Y-53649535D01*
X33179119Y-52982869D02*
X33179119Y-53506678D01*
X33131500Y-53601916D01*
X33036262Y-53649535D01*
X32893405Y-53649535D01*
X32798167Y-53601916D01*
X32750548Y-53554297D01*
X203084565Y-46910696D02*
X203798851Y-46910696D01*
X203941708Y-46863077D01*
X204036946Y-46767839D01*
X204084565Y-46624982D01*
X204084565Y-46529744D01*
X203084565Y-47291649D02*
X203084565Y-47910696D01*
X203465518Y-47577363D01*
X203465518Y-47720220D01*
X203513137Y-47815458D01*
X203560756Y-47863077D01*
X203655994Y-47910696D01*
X203894089Y-47910696D01*
X203989327Y-47863077D01*
X204036946Y-47815458D01*
X204084565Y-47720220D01*
X204084565Y-47434506D01*
X204036946Y-47339268D01*
X203989327Y-47291649D01*
X54610815Y-52459059D02*
X53610815Y-52459059D01*
X53610815Y-52697155D01*
X53658435Y-52840012D01*
X53753673Y-52935250D01*
X53848911Y-52982869D01*
X54039387Y-53030488D01*
X54182244Y-53030488D01*
X54372720Y-52982869D01*
X54467958Y-52935250D01*
X54563196Y-52840012D01*
X54610815Y-52697155D01*
X54610815Y-52459059D01*
X54610815Y-53982869D02*
X54610815Y-53411440D01*
X54610815Y-53697155D02*
X53610815Y-53697155D01*
X53753673Y-53601916D01*
X53848911Y-53506678D01*
X53896530Y-53411440D01*
X185983435Y-26548726D02*
X185650101Y-26548726D01*
X185507244Y-27072535D02*
X185983435Y-27072535D01*
X185983435Y-26072535D01*
X185507244Y-26072535D01*
X185173911Y-26072535D02*
X184507244Y-27072535D01*
X184507244Y-26072535D02*
X185173911Y-27072535D01*
X184269149Y-26072535D02*
X183697720Y-26072535D01*
X183983435Y-27072535D02*
X183983435Y-26072535D01*
X183602482Y-27167774D02*
X182840577Y-27167774D01*
X182602482Y-27072535D02*
X182602482Y-26072535D01*
X182269149Y-26786821D01*
X181935815Y-26072535D01*
X181935815Y-27072535D01*
X180888196Y-27072535D02*
X181221530Y-26596345D01*
X181459625Y-27072535D02*
X181459625Y-26072535D01*
X181078673Y-26072535D01*
X180983435Y-26120155D01*
X180935815Y-26167774D01*
X180888196Y-26263012D01*
X180888196Y-26405869D01*
X180935815Y-26501107D01*
X180983435Y-26548726D01*
X181078673Y-26596345D01*
X181459625Y-26596345D01*
X180316768Y-26501107D02*
X180412006Y-26453488D01*
X180459625Y-26405869D01*
X180507244Y-26310631D01*
X180507244Y-26263012D01*
X180459625Y-26167774D01*
X180412006Y-26120155D01*
X180316768Y-26072535D01*
X180126292Y-26072535D01*
X180031054Y-26120155D01*
X179983435Y-26167774D01*
X179935815Y-26263012D01*
X179935815Y-26310631D01*
X179983435Y-26405869D01*
X180031054Y-26453488D01*
X180126292Y-26501107D01*
X180316768Y-26501107D01*
X180412006Y-26548726D01*
X180459625Y-26596345D01*
X180507244Y-26691583D01*
X180507244Y-26882059D01*
X180459625Y-26977297D01*
X180412006Y-27024916D01*
X180316768Y-27072535D01*
X180126292Y-27072535D01*
X180031054Y-27024916D01*
X179983435Y-26977297D01*
X179935815Y-26882059D01*
X179935815Y-26691583D01*
X179983435Y-26596345D01*
X180031054Y-26548726D01*
X180126292Y-26501107D01*
X105020935Y-26548726D02*
X104687601Y-26548726D01*
X104544744Y-27072535D02*
X105020935Y-27072535D01*
X105020935Y-26072535D01*
X104544744Y-26072535D01*
X104211411Y-26072535D02*
X103544744Y-27072535D01*
X103544744Y-26072535D02*
X104211411Y-27072535D01*
X103306649Y-26072535D02*
X102735220Y-26072535D01*
X103020935Y-27072535D02*
X103020935Y-26072535D01*
X102639982Y-27167774D02*
X101878077Y-27167774D01*
X101639982Y-27072535D02*
X101639982Y-26072535D01*
X101306649Y-26786821D01*
X100973315Y-26072535D01*
X100973315Y-27072535D01*
X99925696Y-26977297D02*
X99973315Y-27024916D01*
X100116173Y-27072535D01*
X100211411Y-27072535D01*
X100354268Y-27024916D01*
X100449506Y-26929678D01*
X100497125Y-26834440D01*
X100544744Y-26643964D01*
X100544744Y-26501107D01*
X100497125Y-26310631D01*
X100449506Y-26215393D01*
X100354268Y-26120155D01*
X100211411Y-26072535D01*
X100116173Y-26072535D01*
X99973315Y-26120155D01*
X99925696Y-26167774D01*
X99306649Y-26072535D02*
X99211411Y-26072535D01*
X99116173Y-26120155D01*
X99068554Y-26167774D01*
X99020935Y-26263012D01*
X98973315Y-26453488D01*
X98973315Y-26691583D01*
X99020935Y-26882059D01*
X99068554Y-26977297D01*
X99116173Y-27024916D01*
X99211411Y-27072535D01*
X99306649Y-27072535D01*
X99401887Y-27024916D01*
X99449506Y-26977297D01*
X99497125Y-26882059D01*
X99544744Y-26691583D01*
X99544744Y-26453488D01*
X99497125Y-26263012D01*
X99449506Y-26167774D01*
X99401887Y-26120155D01*
X99306649Y-26072535D01*
X217582690Y-52459059D02*
X216582690Y-52459059D01*
X216582690Y-52697155D01*
X216630310Y-52840012D01*
X216725548Y-52935250D01*
X216820786Y-52982869D01*
X217011262Y-53030488D01*
X217154119Y-53030488D01*
X217344595Y-52982869D01*
X217439833Y-52935250D01*
X217535071Y-52840012D01*
X217582690Y-52697155D01*
X217582690Y-52459059D01*
X216916024Y-53887631D02*
X217582690Y-53887631D01*
X216535071Y-53649535D02*
X217249357Y-53411440D01*
X217249357Y-54030488D01*
X298545190Y-52459059D02*
X297545190Y-52459059D01*
X297545190Y-52697155D01*
X297592810Y-52840012D01*
X297688048Y-52935250D01*
X297783286Y-52982869D01*
X297973762Y-53030488D01*
X298116619Y-53030488D01*
X298307095Y-52982869D01*
X298402333Y-52935250D01*
X298497571Y-52840012D01*
X298545190Y-52697155D01*
X298545190Y-52459059D01*
X297545190Y-53887631D02*
X297545190Y-53697155D01*
X297592810Y-53601916D01*
X297640429Y-53554297D01*
X297783286Y-53459059D01*
X297973762Y-53411440D01*
X298354714Y-53411440D01*
X298449952Y-53459059D01*
X298497571Y-53506678D01*
X298545190Y-53601916D01*
X298545190Y-53792393D01*
X298497571Y-53887631D01*
X298449952Y-53935250D01*
X298354714Y-53982869D01*
X298116619Y-53982869D01*
X298021381Y-53935250D01*
X297973762Y-53887631D01*
X297926143Y-53792393D01*
X297926143Y-53601916D01*
X297973762Y-53506678D01*
X298021381Y-53459059D01*
X298116619Y-53411440D01*
X175870190Y-76985994D02*
X174870190Y-76985994D01*
X174870190Y-77224089D01*
X174917810Y-77366946D01*
X175013048Y-77462184D01*
X175108286Y-77509803D01*
X175298762Y-77557422D01*
X175441619Y-77557422D01*
X175632095Y-77509803D01*
X175727333Y-77462184D01*
X175822571Y-77366946D01*
X175870190Y-77224089D01*
X175870190Y-76985994D01*
X175870190Y-78509803D02*
X175870190Y-77938375D01*
X175870190Y-78224089D02*
X174870190Y-78224089D01*
X175013048Y-78128851D01*
X175108286Y-78033613D01*
X175155905Y-77938375D01*
X175203524Y-79366946D02*
X175870190Y-79366946D01*
X174822571Y-79128851D02*
X175536857Y-78890756D01*
X175536857Y-79509803D01*
X189007690Y-90082869D02*
X188007690Y-90082869D01*
X188007690Y-90320964D01*
X188055310Y-90463821D01*
X188150548Y-90559059D01*
X188245786Y-90606678D01*
X188436262Y-90654297D01*
X188579119Y-90654297D01*
X188769595Y-90606678D01*
X188864833Y-90559059D01*
X188960071Y-90463821D01*
X189007690Y-90320964D01*
X189007690Y-90082869D01*
X189007690Y-91606678D02*
X189007690Y-91035250D01*
X189007690Y-91320964D02*
X188007690Y-91320964D01*
X188150548Y-91225726D01*
X188245786Y-91130488D01*
X188293405Y-91035250D01*
X188007690Y-91940012D02*
X188007690Y-92559059D01*
X188388643Y-92225726D01*
X188388643Y-92368583D01*
X188436262Y-92463821D01*
X188483881Y-92511440D01*
X188579119Y-92559059D01*
X188817214Y-92559059D01*
X188912452Y-92511440D01*
X188960071Y-92463821D01*
X189007690Y-92368583D01*
X189007690Y-92082869D01*
X188960071Y-91987631D01*
X188912452Y-91940012D01*
X179482690Y-91132869D02*
X178482690Y-91132869D01*
X178482690Y-91370964D01*
X178530310Y-91513821D01*
X178625548Y-91609059D01*
X178720786Y-91656678D01*
X178911262Y-91704297D01*
X179054119Y-91704297D01*
X179244595Y-91656678D01*
X179339833Y-91609059D01*
X179435071Y-91513821D01*
X179482690Y-91370964D01*
X179482690Y-91132869D01*
X179482690Y-92656678D02*
X179482690Y-92085250D01*
X179482690Y-92370964D02*
X178482690Y-92370964D01*
X178625548Y-92275726D01*
X178720786Y-92180488D01*
X178768405Y-92085250D01*
X178577929Y-93037631D02*
X178530310Y-93085250D01*
X178482690Y-93180488D01*
X178482690Y-93418583D01*
X178530310Y-93513821D01*
X178577929Y-93561440D01*
X178673167Y-93609059D01*
X178768405Y-93609059D01*
X178911262Y-93561440D01*
X179482690Y-92990012D01*
X179482690Y-93609059D01*
X169957690Y-72036994D02*
X168957690Y-72036994D01*
X168957690Y-72275089D01*
X169005310Y-72417946D01*
X169100548Y-72513184D01*
X169195786Y-72560803D01*
X169386262Y-72608422D01*
X169529119Y-72608422D01*
X169719595Y-72560803D01*
X169814833Y-72513184D01*
X169910071Y-72417946D01*
X169957690Y-72275089D01*
X169957690Y-72036994D01*
X169957690Y-73560803D02*
X169957690Y-72989375D01*
X169957690Y-73275089D02*
X168957690Y-73275089D01*
X169100548Y-73179851D01*
X169195786Y-73084613D01*
X169243405Y-72989375D01*
X168957690Y-74417946D02*
X168957690Y-74227470D01*
X169005310Y-74132232D01*
X169052929Y-74084613D01*
X169195786Y-73989375D01*
X169386262Y-73941756D01*
X169767214Y-73941756D01*
X169862452Y-73989375D01*
X169910071Y-74036994D01*
X169957690Y-74132232D01*
X169957690Y-74322708D01*
X169910071Y-74417946D01*
X169862452Y-74465565D01*
X169767214Y-74513184D01*
X169529119Y-74513184D01*
X169433881Y-74465565D01*
X169386262Y-74417946D01*
X169338643Y-74322708D01*
X169338643Y-74132232D01*
X169386262Y-74036994D01*
X169433881Y-73989375D01*
X169529119Y-73941756D01*
X156860815Y-76985994D02*
X155860815Y-76985994D01*
X155860815Y-77224089D01*
X155908435Y-77366946D01*
X156003673Y-77462184D01*
X156098911Y-77509803D01*
X156289387Y-77557422D01*
X156432244Y-77557422D01*
X156622720Y-77509803D01*
X156717958Y-77462184D01*
X156813196Y-77366946D01*
X156860815Y-77224089D01*
X156860815Y-76985994D01*
X156860815Y-78509803D02*
X156860815Y-77938375D01*
X156860815Y-78224089D02*
X155860815Y-78224089D01*
X156003673Y-78128851D01*
X156098911Y-78033613D01*
X156146530Y-77938375D01*
X156289387Y-79081232D02*
X156241768Y-78985994D01*
X156194149Y-78938375D01*
X156098911Y-78890756D01*
X156051292Y-78890756D01*
X155956054Y-78938375D01*
X155908435Y-78985994D01*
X155860815Y-79081232D01*
X155860815Y-79271708D01*
X155908435Y-79366946D01*
X155956054Y-79414565D01*
X156051292Y-79462184D01*
X156098911Y-79462184D01*
X156194149Y-79414565D01*
X156241768Y-79366946D01*
X156289387Y-79271708D01*
X156289387Y-79081232D01*
X156337006Y-78985994D01*
X156384625Y-78938375D01*
X156479863Y-78890756D01*
X156670339Y-78890756D01*
X156765577Y-78938375D01*
X156813196Y-78985994D01*
X156860815Y-79081232D01*
X156860815Y-79271708D01*
X156813196Y-79366946D01*
X156765577Y-79414565D01*
X156670339Y-79462184D01*
X156479863Y-79462184D01*
X156384625Y-79414565D01*
X156337006Y-79366946D01*
X156289387Y-79271708D01*
X198532690Y-71032869D02*
X197532690Y-71032869D01*
X197532690Y-71270964D01*
X197580310Y-71413821D01*
X197675548Y-71509059D01*
X197770786Y-71556678D01*
X197961262Y-71604297D01*
X198104119Y-71604297D01*
X198294595Y-71556678D01*
X198389833Y-71509059D01*
X198485071Y-71413821D01*
X198532690Y-71270964D01*
X198532690Y-71032869D01*
X198532690Y-72556678D02*
X198532690Y-71985250D01*
X198532690Y-72270964D02*
X197532690Y-72270964D01*
X197675548Y-72175726D01*
X197770786Y-72080488D01*
X197818405Y-71985250D01*
X197532690Y-73175726D02*
X197532690Y-73270964D01*
X197580310Y-73366202D01*
X197627929Y-73413821D01*
X197723167Y-73461440D01*
X197913643Y-73509059D01*
X198151738Y-73509059D01*
X198342214Y-73461440D01*
X198437452Y-73413821D01*
X198485071Y-73366202D01*
X198532690Y-73270964D01*
X198532690Y-73175726D01*
X198485071Y-73080488D01*
X198437452Y-73032869D01*
X198342214Y-72985250D01*
X198151738Y-72937631D01*
X197913643Y-72937631D01*
X197723167Y-72985250D01*
X197627929Y-73032869D01*
X197580310Y-73080488D01*
X197532690Y-73175726D01*
X122332690Y-52459059D02*
X121332690Y-52459059D01*
X121332690Y-52697155D01*
X121380310Y-52840012D01*
X121475548Y-52935250D01*
X121570786Y-52982869D01*
X121761262Y-53030488D01*
X121904119Y-53030488D01*
X122094595Y-52982869D01*
X122189833Y-52935250D01*
X122285071Y-52840012D01*
X122332690Y-52697155D01*
X122332690Y-52459059D01*
X121332690Y-53363821D02*
X121332690Y-53982869D01*
X121713643Y-53649535D01*
X121713643Y-53792393D01*
X121761262Y-53887631D01*
X121808881Y-53935250D01*
X121904119Y-53982869D01*
X122142214Y-53982869D01*
X122237452Y-53935250D01*
X122285071Y-53887631D01*
X122332690Y-53792393D01*
X122332690Y-53506678D01*
X122285071Y-53411440D01*
X122237452Y-53363821D01*
X28820935Y-43217476D02*
X28487601Y-43217476D01*
X28344744Y-43741285D02*
X28820935Y-43741285D01*
X28820935Y-42741285D01*
X28344744Y-42741285D01*
X28011411Y-42741285D02*
X27344744Y-43741285D01*
X27344744Y-42741285D02*
X28011411Y-43741285D01*
X27106649Y-42741285D02*
X26535220Y-42741285D01*
X26820935Y-43741285D02*
X26820935Y-42741285D01*
X26439982Y-43836524D02*
X25678077Y-43836524D01*
X25439982Y-43741285D02*
X25439982Y-42741285D01*
X25106649Y-43455571D01*
X24773315Y-42741285D01*
X24773315Y-43741285D01*
X23725696Y-43741285D02*
X24059030Y-43265095D01*
X24297125Y-43741285D02*
X24297125Y-42741285D01*
X23916173Y-42741285D01*
X23820935Y-42788905D01*
X23773315Y-42836524D01*
X23725696Y-42931762D01*
X23725696Y-43074619D01*
X23773315Y-43169857D01*
X23820935Y-43217476D01*
X23916173Y-43265095D01*
X24297125Y-43265095D01*
X22868554Y-42741285D02*
X23059030Y-42741285D01*
X23154268Y-42788905D01*
X23201887Y-42836524D01*
X23297125Y-42979381D01*
X23344744Y-43169857D01*
X23344744Y-43550809D01*
X23297125Y-43646047D01*
X23249506Y-43693666D01*
X23154268Y-43741285D01*
X22963792Y-43741285D01*
X22868554Y-43693666D01*
X22820935Y-43646047D01*
X22773315Y-43550809D01*
X22773315Y-43312714D01*
X22820935Y-43217476D01*
X22868554Y-43169857D01*
X22963792Y-43122238D01*
X23154268Y-43122238D01*
X23249506Y-43169857D01*
X23297125Y-43217476D01*
X23344744Y-43312714D01*
X144954565Y-72509184D02*
X143954565Y-72509184D01*
X143954565Y-72747280D01*
X144002185Y-72890137D01*
X144097423Y-72985375D01*
X144192661Y-73032994D01*
X144383137Y-73080613D01*
X144525994Y-73080613D01*
X144716470Y-73032994D01*
X144811708Y-72985375D01*
X144906946Y-72890137D01*
X144954565Y-72747280D01*
X144954565Y-72509184D01*
X143954565Y-73413946D02*
X143954565Y-74080613D01*
X144954565Y-73652041D01*
X150907690Y-90082869D02*
X149907690Y-90082869D01*
X149907690Y-90320964D01*
X149955310Y-90463821D01*
X150050548Y-90559059D01*
X150145786Y-90606678D01*
X150336262Y-90654297D01*
X150479119Y-90654297D01*
X150669595Y-90606678D01*
X150764833Y-90559059D01*
X150860071Y-90463821D01*
X150907690Y-90320964D01*
X150907690Y-90082869D01*
X150907690Y-91606678D02*
X150907690Y-91035250D01*
X150907690Y-91320964D02*
X149907690Y-91320964D01*
X150050548Y-91225726D01*
X150145786Y-91130488D01*
X150193405Y-91035250D01*
X150907690Y-92559059D02*
X150907690Y-91987631D01*
X150907690Y-92273345D02*
X149907690Y-92273345D01*
X150050548Y-92178107D01*
X150145786Y-92082869D01*
X150193405Y-91987631D01*
X108592810Y-22552726D02*
X108259476Y-22552726D01*
X108116619Y-23076535D02*
X108592810Y-23076535D01*
X108592810Y-22076535D01*
X108116619Y-22076535D01*
X107783286Y-22076535D02*
X107116619Y-23076535D01*
X107116619Y-22076535D02*
X107783286Y-23076535D01*
X106878524Y-22076535D02*
X106307095Y-22076535D01*
X106592810Y-23076535D02*
X106592810Y-22076535D01*
X106211857Y-23171774D02*
X105449952Y-23171774D01*
X105211857Y-23076535D02*
X105211857Y-22076535D01*
X104878524Y-22790821D01*
X104545190Y-22076535D01*
X104545190Y-23076535D01*
X103497571Y-22981297D02*
X103545190Y-23028916D01*
X103688048Y-23076535D01*
X103783286Y-23076535D01*
X103926143Y-23028916D01*
X104021381Y-22933678D01*
X104069000Y-22838440D01*
X104116619Y-22647964D01*
X104116619Y-22505107D01*
X104069000Y-22314631D01*
X104021381Y-22219393D01*
X103926143Y-22124155D01*
X103783286Y-22076535D01*
X103688048Y-22076535D01*
X103545190Y-22124155D01*
X103497571Y-22171774D01*
X103116619Y-22171774D02*
X103069000Y-22124155D01*
X102973762Y-22076535D01*
X102735667Y-22076535D01*
X102640429Y-22124155D01*
X102592810Y-22171774D01*
X102545190Y-22267012D01*
X102545190Y-22362250D01*
X102592810Y-22505107D01*
X103164238Y-23076535D01*
X102545190Y-23076535D01*
X28820935Y-35649601D02*
X28487601Y-35649601D01*
X28344744Y-36173410D02*
X28820935Y-36173410D01*
X28820935Y-35173410D01*
X28344744Y-35173410D01*
X28011411Y-35173410D02*
X27344744Y-36173410D01*
X27344744Y-35173410D02*
X28011411Y-36173410D01*
X27106649Y-35173410D02*
X26535220Y-35173410D01*
X26820935Y-36173410D02*
X26820935Y-35173410D01*
X26439982Y-36268649D02*
X25678077Y-36268649D01*
X25439982Y-36173410D02*
X25439982Y-35173410D01*
X25106649Y-35887696D01*
X24773315Y-35173410D01*
X24773315Y-36173410D01*
X23725696Y-36173410D02*
X24059030Y-35697220D01*
X24297125Y-36173410D02*
X24297125Y-35173410D01*
X23916173Y-35173410D01*
X23820935Y-35221030D01*
X23773315Y-35268649D01*
X23725696Y-35363887D01*
X23725696Y-35506744D01*
X23773315Y-35601982D01*
X23820935Y-35649601D01*
X23916173Y-35697220D01*
X24297125Y-35697220D01*
X22773315Y-36173410D02*
X23344744Y-36173410D01*
X23059030Y-36173410D02*
X23059030Y-35173410D01*
X23154268Y-35316268D01*
X23249506Y-35411506D01*
X23344744Y-35459125D01*
X221702185Y-26548726D02*
X221368851Y-26548726D01*
X221225994Y-27072535D02*
X221702185Y-27072535D01*
X221702185Y-26072535D01*
X221225994Y-26072535D01*
X220892661Y-26072535D02*
X220225994Y-27072535D01*
X220225994Y-26072535D02*
X220892661Y-27072535D01*
X219987899Y-26072535D02*
X219416470Y-26072535D01*
X219702185Y-27072535D02*
X219702185Y-26072535D01*
X219321232Y-27167774D02*
X218559327Y-27167774D01*
X218321232Y-27072535D02*
X218321232Y-26072535D01*
X217987899Y-26786821D01*
X217654565Y-26072535D01*
X217654565Y-27072535D01*
X216606946Y-26977297D02*
X216654565Y-27024916D01*
X216797423Y-27072535D01*
X216892661Y-27072535D01*
X217035518Y-27024916D01*
X217130756Y-26929678D01*
X217178375Y-26834440D01*
X217225994Y-26643964D01*
X217225994Y-26501107D01*
X217178375Y-26310631D01*
X217130756Y-26215393D01*
X217035518Y-26120155D01*
X216892661Y-26072535D01*
X216797423Y-26072535D01*
X216654565Y-26120155D01*
X216606946Y-26167774D01*
X215749804Y-26405869D02*
X215749804Y-27072535D01*
X215987899Y-26024916D02*
X216225994Y-26739202D01*
X215606946Y-26739202D01*
X274732690Y-52459059D02*
X273732690Y-52459059D01*
X273732690Y-52697155D01*
X273780310Y-52840012D01*
X273875548Y-52935250D01*
X273970786Y-52982869D01*
X274161262Y-53030488D01*
X274304119Y-53030488D01*
X274494595Y-52982869D01*
X274589833Y-52935250D01*
X274685071Y-52840012D01*
X274732690Y-52697155D01*
X274732690Y-52459059D01*
X273732690Y-53935250D02*
X273732690Y-53459059D01*
X274208881Y-53411440D01*
X274161262Y-53459059D01*
X274113643Y-53554297D01*
X274113643Y-53792393D01*
X274161262Y-53887631D01*
X274208881Y-53935250D01*
X274304119Y-53982869D01*
X274542214Y-53982869D01*
X274637452Y-53935250D01*
X274685071Y-53887631D01*
X274732690Y-53792393D01*
X274732690Y-53554297D01*
X274685071Y-53459059D01*
X274637452Y-53411440D01*
X165195190Y-71015994D02*
X164195190Y-71015994D01*
X164195190Y-71254089D01*
X164242810Y-71396946D01*
X164338048Y-71492184D01*
X164433286Y-71539803D01*
X164623762Y-71587422D01*
X164766619Y-71587422D01*
X164957095Y-71539803D01*
X165052333Y-71492184D01*
X165147571Y-71396946D01*
X165195190Y-71254089D01*
X165195190Y-71015994D01*
X165195190Y-72539803D02*
X165195190Y-71968375D01*
X165195190Y-72254089D02*
X164195190Y-72254089D01*
X164338048Y-72158851D01*
X164433286Y-72063613D01*
X164480905Y-71968375D01*
X164195190Y-73444565D02*
X164195190Y-72968375D01*
X164671381Y-72920756D01*
X164623762Y-72968375D01*
X164576143Y-73063613D01*
X164576143Y-73301708D01*
X164623762Y-73396946D01*
X164671381Y-73444565D01*
X164766619Y-73492184D01*
X165004714Y-73492184D01*
X165099952Y-73444565D01*
X165147571Y-73396946D01*
X165195190Y-73301708D01*
X165195190Y-73063613D01*
X165147571Y-72968375D01*
X165099952Y-72920756D01*
X123687065Y-46910696D02*
X124401351Y-46910696D01*
X124544208Y-46863077D01*
X124639446Y-46767839D01*
X124687065Y-46624982D01*
X124687065Y-46529744D01*
X124687065Y-47910696D02*
X124687065Y-47339268D01*
X124687065Y-47624982D02*
X123687065Y-47624982D01*
X123829923Y-47529744D01*
X123925161Y-47434506D01*
X123972780Y-47339268D01*
X160432690Y-71492184D02*
X159432690Y-71492184D01*
X159432690Y-71730280D01*
X159480310Y-71873137D01*
X159575548Y-71968375D01*
X159670786Y-72015994D01*
X159861262Y-72063613D01*
X160004119Y-72063613D01*
X160194595Y-72015994D01*
X160289833Y-71968375D01*
X160385071Y-71873137D01*
X160432690Y-71730280D01*
X160432690Y-71492184D01*
X159861262Y-72635041D02*
X159813643Y-72539803D01*
X159766024Y-72492184D01*
X159670786Y-72444565D01*
X159623167Y-72444565D01*
X159527929Y-72492184D01*
X159480310Y-72539803D01*
X159432690Y-72635041D01*
X159432690Y-72825518D01*
X159480310Y-72920756D01*
X159527929Y-72968375D01*
X159623167Y-73015994D01*
X159670786Y-73015994D01*
X159766024Y-72968375D01*
X159813643Y-72920756D01*
X159861262Y-72825518D01*
X159861262Y-72635041D01*
X159908881Y-72539803D01*
X159956500Y-72492184D01*
X160051738Y-72444565D01*
X160242214Y-72444565D01*
X160337452Y-72492184D01*
X160385071Y-72539803D01*
X160432690Y-72635041D01*
X160432690Y-72825518D01*
X160385071Y-72920756D01*
X160337452Y-72968375D01*
X160242214Y-73015994D01*
X160051738Y-73015994D01*
X159956500Y-72968375D01*
X159908881Y-72920756D01*
X159861262Y-72825518D01*
X203084565Y-36195071D02*
X203798851Y-36195071D01*
X203941708Y-36147452D01*
X204036946Y-36052214D01*
X204084565Y-35909357D01*
X204084565Y-35814119D01*
X203179804Y-36623643D02*
X203132185Y-36671262D01*
X203084565Y-36766500D01*
X203084565Y-37004595D01*
X203132185Y-37099833D01*
X203179804Y-37147452D01*
X203275042Y-37195071D01*
X203370280Y-37195071D01*
X203513137Y-37147452D01*
X204084565Y-36576024D01*
X204084565Y-37195071D01*
X189555310Y-22538976D02*
X189221976Y-22538976D01*
X189079119Y-23062785D02*
X189555310Y-23062785D01*
X189555310Y-22062785D01*
X189079119Y-22062785D01*
X188745786Y-22062785D02*
X188079119Y-23062785D01*
X188079119Y-22062785D02*
X188745786Y-23062785D01*
X187841024Y-22062785D02*
X187269595Y-22062785D01*
X187555310Y-23062785D02*
X187555310Y-22062785D01*
X187174357Y-23158024D02*
X186412452Y-23158024D01*
X186174357Y-23062785D02*
X186174357Y-22062785D01*
X185841024Y-22777071D01*
X185507690Y-22062785D01*
X185507690Y-23062785D01*
X184460071Y-23062785D02*
X184793405Y-22586595D01*
X185031500Y-23062785D02*
X185031500Y-22062785D01*
X184650548Y-22062785D01*
X184555310Y-22110405D01*
X184507690Y-22158024D01*
X184460071Y-22253262D01*
X184460071Y-22396119D01*
X184507690Y-22491357D01*
X184555310Y-22538976D01*
X184650548Y-22586595D01*
X185031500Y-22586595D01*
X184126738Y-22062785D02*
X183507690Y-22062785D01*
X183841024Y-22443738D01*
X183698167Y-22443738D01*
X183602929Y-22491357D01*
X183555310Y-22538976D01*
X183507690Y-22634214D01*
X183507690Y-22872309D01*
X183555310Y-22967547D01*
X183602929Y-23015166D01*
X183698167Y-23062785D01*
X183983881Y-23062785D01*
X184079119Y-23015166D01*
X184126738Y-22967547D01*
X207414685Y-22552726D02*
X207081351Y-22552726D01*
X206938494Y-23076535D02*
X207414685Y-23076535D01*
X207414685Y-22076535D01*
X206938494Y-22076535D01*
X206605161Y-22076535D02*
X205938494Y-23076535D01*
X205938494Y-22076535D02*
X206605161Y-23076535D01*
X205700399Y-22076535D02*
X205128970Y-22076535D01*
X205414685Y-23076535D02*
X205414685Y-22076535D01*
X205033732Y-23171774D02*
X204271827Y-23171774D01*
X204033732Y-23076535D02*
X204033732Y-22076535D01*
X203700399Y-22790821D01*
X203367065Y-22076535D01*
X203367065Y-23076535D01*
X202319446Y-23076535D02*
X202652780Y-22600345D01*
X202890875Y-23076535D02*
X202890875Y-22076535D01*
X202509923Y-22076535D01*
X202414685Y-22124155D01*
X202367065Y-22171774D01*
X202319446Y-22267012D01*
X202319446Y-22409869D01*
X202367065Y-22505107D01*
X202414685Y-22552726D01*
X202509923Y-22600345D01*
X202890875Y-22600345D01*
X201938494Y-22171774D02*
X201890875Y-22124155D01*
X201795637Y-22076535D01*
X201557542Y-22076535D01*
X201462304Y-22124155D01*
X201414685Y-22171774D01*
X201367065Y-22267012D01*
X201367065Y-22362250D01*
X201414685Y-22505107D01*
X201986113Y-23076535D01*
X201367065Y-23076535D01*
X228845935Y-26548726D02*
X228512601Y-26548726D01*
X228369744Y-27072535D02*
X228845935Y-27072535D01*
X228845935Y-26072535D01*
X228369744Y-26072535D01*
X228036411Y-26072535D02*
X227369744Y-27072535D01*
X227369744Y-26072535D02*
X228036411Y-27072535D01*
X227131649Y-26072535D02*
X226560220Y-26072535D01*
X226845935Y-27072535D02*
X226845935Y-26072535D01*
X226464982Y-27167774D02*
X225703077Y-27167774D01*
X225464982Y-27072535D02*
X225464982Y-26072535D01*
X225131649Y-26786821D01*
X224798315Y-26072535D01*
X224798315Y-27072535D01*
X223750696Y-26977297D02*
X223798315Y-27024916D01*
X223941173Y-27072535D01*
X224036411Y-27072535D01*
X224179268Y-27024916D01*
X224274506Y-26929678D01*
X224322125Y-26834440D01*
X224369744Y-26643964D01*
X224369744Y-26501107D01*
X224322125Y-26310631D01*
X224274506Y-26215393D01*
X224179268Y-26120155D01*
X224036411Y-26072535D01*
X223941173Y-26072535D01*
X223798315Y-26120155D01*
X223750696Y-26167774D01*
X223417363Y-26072535D02*
X222750696Y-26072535D01*
X223179268Y-27072535D01*
X65182690Y-52459059D02*
X64182690Y-52459059D01*
X64182690Y-52697155D01*
X64230310Y-52840012D01*
X64325548Y-52935250D01*
X64420786Y-52982869D01*
X64611262Y-53030488D01*
X64754119Y-53030488D01*
X64944595Y-52982869D01*
X65039833Y-52935250D01*
X65135071Y-52840012D01*
X65182690Y-52697155D01*
X65182690Y-52459059D01*
X64277929Y-53411440D02*
X64230310Y-53459059D01*
X64182690Y-53554297D01*
X64182690Y-53792393D01*
X64230310Y-53887631D01*
X64277929Y-53935250D01*
X64373167Y-53982869D01*
X64468405Y-53982869D01*
X64611262Y-53935250D01*
X65182690Y-53363821D01*
X65182690Y-53982869D01*
X179482690Y-72513184D02*
X178482690Y-72513184D01*
X178482690Y-72751280D01*
X178530310Y-72894137D01*
X178625548Y-72989375D01*
X178720786Y-73036994D01*
X178911262Y-73084613D01*
X179054119Y-73084613D01*
X179244595Y-73036994D01*
X179339833Y-72989375D01*
X179435071Y-72894137D01*
X179482690Y-72751280D01*
X179482690Y-72513184D01*
X179482690Y-73560803D02*
X179482690Y-73751280D01*
X179435071Y-73846518D01*
X179387452Y-73894137D01*
X179244595Y-73989375D01*
X179054119Y-74036994D01*
X178673167Y-74036994D01*
X178577929Y-73989375D01*
X178530310Y-73941756D01*
X178482690Y-73846518D01*
X178482690Y-73656041D01*
X178530310Y-73560803D01*
X178577929Y-73513184D01*
X178673167Y-73465565D01*
X178911262Y-73465565D01*
X179006500Y-73513184D01*
X179054119Y-73560803D01*
X179101738Y-73656041D01*
X179101738Y-73846518D01*
X179054119Y-73941756D01*
X179006500Y-73989375D01*
X178911262Y-74036994D01*
X112164685Y-26548726D02*
X111831351Y-26548726D01*
X111688494Y-27072535D02*
X112164685Y-27072535D01*
X112164685Y-26072535D01*
X111688494Y-26072535D01*
X111355161Y-26072535D02*
X110688494Y-27072535D01*
X110688494Y-26072535D02*
X111355161Y-27072535D01*
X110450399Y-26072535D02*
X109878970Y-26072535D01*
X110164685Y-27072535D02*
X110164685Y-26072535D01*
X109783732Y-27167774D02*
X109021827Y-27167774D01*
X108783732Y-27072535D02*
X108783732Y-26072535D01*
X108450399Y-26786821D01*
X108117065Y-26072535D01*
X108117065Y-27072535D01*
X107069446Y-26977297D02*
X107117065Y-27024916D01*
X107259923Y-27072535D01*
X107355161Y-27072535D01*
X107498018Y-27024916D01*
X107593256Y-26929678D01*
X107640875Y-26834440D01*
X107688494Y-26643964D01*
X107688494Y-26501107D01*
X107640875Y-26310631D01*
X107593256Y-26215393D01*
X107498018Y-26120155D01*
X107355161Y-26072535D01*
X107259923Y-26072535D01*
X107117065Y-26120155D01*
X107069446Y-26167774D01*
X106736113Y-26072535D02*
X106117065Y-26072535D01*
X106450399Y-26453488D01*
X106307542Y-26453488D01*
X106212304Y-26501107D01*
X106164685Y-26548726D01*
X106117065Y-26643964D01*
X106117065Y-26882059D01*
X106164685Y-26977297D01*
X106212304Y-27024916D01*
X106307542Y-27072535D01*
X106593256Y-27072535D01*
X106688494Y-27024916D01*
X106736113Y-26977297D01*
X203842810Y-26548726D02*
X203509476Y-26548726D01*
X203366619Y-27072535D02*
X203842810Y-27072535D01*
X203842810Y-26072535D01*
X203366619Y-26072535D01*
X203033286Y-26072535D02*
X202366619Y-27072535D01*
X202366619Y-26072535D02*
X203033286Y-27072535D01*
X202128524Y-26072535D02*
X201557095Y-26072535D01*
X201842810Y-27072535D02*
X201842810Y-26072535D01*
X201461857Y-27167774D02*
X200699952Y-27167774D01*
X200461857Y-27072535D02*
X200461857Y-26072535D01*
X200128524Y-26786821D01*
X199795190Y-26072535D01*
X199795190Y-27072535D01*
X198747571Y-27072535D02*
X199080905Y-26596345D01*
X199319000Y-27072535D02*
X199319000Y-26072535D01*
X198938048Y-26072535D01*
X198842810Y-26120155D01*
X198795190Y-26167774D01*
X198747571Y-26263012D01*
X198747571Y-26405869D01*
X198795190Y-26501107D01*
X198842810Y-26548726D01*
X198938048Y-26596345D01*
X199319000Y-26596345D01*
X198414238Y-26072535D02*
X197747571Y-26072535D01*
X198176143Y-27072535D01*
X175401440Y-91132869D02*
X174401440Y-91132869D01*
X174401440Y-91370964D01*
X174449060Y-91513821D01*
X174544298Y-91609059D01*
X174639536Y-91656678D01*
X174830012Y-91704297D01*
X174972869Y-91704297D01*
X175163345Y-91656678D01*
X175258583Y-91609059D01*
X175353821Y-91513821D01*
X175401440Y-91370964D01*
X175401440Y-91132869D01*
X175401440Y-92656678D02*
X175401440Y-92085250D01*
X175401440Y-92370964D02*
X174401440Y-92370964D01*
X174544298Y-92275726D01*
X174639536Y-92180488D01*
X174687155Y-92085250D01*
X174401440Y-92990012D02*
X174401440Y-93656678D01*
X175401440Y-93228107D01*
X225274060Y-22552726D02*
X224940726Y-22552726D01*
X224797869Y-23076535D02*
X225274060Y-23076535D01*
X225274060Y-22076535D01*
X224797869Y-22076535D01*
X224464536Y-22076535D02*
X223797869Y-23076535D01*
X223797869Y-22076535D02*
X224464536Y-23076535D01*
X223559774Y-22076535D02*
X222988345Y-22076535D01*
X223274060Y-23076535D02*
X223274060Y-22076535D01*
X222893107Y-23171774D02*
X222131202Y-23171774D01*
X221893107Y-23076535D02*
X221893107Y-22076535D01*
X221559774Y-22790821D01*
X221226440Y-22076535D01*
X221226440Y-23076535D01*
X220178821Y-22981297D02*
X220226440Y-23028916D01*
X220369298Y-23076535D01*
X220464536Y-23076535D01*
X220607393Y-23028916D01*
X220702631Y-22933678D01*
X220750250Y-22838440D01*
X220797869Y-22647964D01*
X220797869Y-22505107D01*
X220750250Y-22314631D01*
X220702631Y-22219393D01*
X220607393Y-22124155D01*
X220464536Y-22076535D01*
X220369298Y-22076535D01*
X220226440Y-22124155D01*
X220178821Y-22171774D01*
X219321679Y-22076535D02*
X219512155Y-22076535D01*
X219607393Y-22124155D01*
X219655012Y-22171774D01*
X219750250Y-22314631D01*
X219797869Y-22505107D01*
X219797869Y-22886059D01*
X219750250Y-22981297D01*
X219702631Y-23028916D01*
X219607393Y-23076535D01*
X219416917Y-23076535D01*
X219321679Y-23028916D01*
X219274060Y-22981297D01*
X219226440Y-22886059D01*
X219226440Y-22647964D01*
X219274060Y-22552726D01*
X219321679Y-22505107D01*
X219416917Y-22457488D01*
X219607393Y-22457488D01*
X219702631Y-22505107D01*
X219750250Y-22552726D01*
X219797869Y-22647964D01*
D14*
X303649368Y-71469338D02*
X305205003Y-73024973D01*
X303649368Y-73024973D02*
X305205003Y-71469338D01*
X22661867Y-71469338D02*
X24217502Y-73024973D01*
X22661867Y-73024973D02*
X24217502Y-71469338D01*
X25339684Y-72247155D02*
G75*
G03*
X25339684Y-72247155I-1900000J0D01*
G01*
X24539684Y-72247155D02*
G75*
G03*
X24539684Y-72247155I-1100000J0D01*
G01*
X305527185Y-72247155D02*
G75*
G03*
X305527185Y-72247155I-1100000J0D01*
G01*
X306327185Y-72247155D02*
G75*
G03*
X306327185Y-72247155I-1900000J0D01*
G01*
D11*
X80494435Y-30337299D02*
G75*
G03*
X75922435Y-30337299I-2286000J-1435606D01*
G01*
D14*
X201437185Y-49304030D02*
X202427185Y-49304030D01*
X198937185Y-44134030D02*
X201437185Y-44134030D01*
X198937185Y-50354030D02*
X201437185Y-50354030D01*
X201437185Y-44134030D02*
X201437185Y-45184030D01*
X196967185Y-49184030D02*
X196967185Y-45304030D01*
X201437185Y-50354030D02*
X201437185Y-49304030D01*
G36*
X201437185Y-50354030D02*
G01*
X200437185Y-50354030D01*
X201437185Y-49304030D01*
X201437185Y-50354030D01*
G37*
X201437185Y-50354030D02*
X200437185Y-50354030D01*
X201437185Y-49304030D01*
X201437185Y-50354030D01*
G36*
X202427185Y-49544030D02*
G01*
X201437185Y-49544030D01*
X201437185Y-49304030D01*
X202427185Y-49304030D01*
X202427185Y-49544030D01*
G37*
X202427185Y-49544030D02*
X201437185Y-49544030D01*
X201437185Y-49304030D01*
X202427185Y-49304030D01*
X202427185Y-49544030D01*
X53158435Y-55447155D02*
X53158435Y-51547155D01*
X51158435Y-55447155D02*
X51158435Y-51547155D01*
X53158435Y-55447155D02*
X51158435Y-55447155D01*
X51158435Y-55447155D02*
X51158435Y-55737155D01*
X51158435Y-55737155D02*
X53158435Y-55737155D01*
X53158435Y-55737155D02*
X53158435Y-55447155D01*
G36*
X53158435Y-55447155D02*
G01*
X51158435Y-55447155D01*
X51158435Y-55737155D01*
X53158435Y-55737155D01*
X53158435Y-55447155D01*
G37*
G36*
X52158435Y-53832155D02*
G01*
X51396435Y-52689155D01*
X52920435Y-52689155D01*
X52158435Y-53832155D01*
G37*
X52158435Y-53832155D02*
X51396435Y-52689155D01*
X52920435Y-52689155D01*
X52158435Y-53832155D01*
X184183435Y-24622155D02*
G75*
G03*
X184183435Y-24622155I-1200000J0D01*
G01*
D11*
X300950560Y-25562136D02*
G75*
G03*
X305522560Y-25562136I2286000J1435606D01*
G01*
D14*
X103220935Y-24622155D02*
G75*
G03*
X103220935Y-24622155I-1200000J0D01*
G01*
X216130310Y-55447155D02*
X216130310Y-51547155D01*
X214130310Y-55447155D02*
X214130310Y-51547155D01*
X216130310Y-55447155D02*
X214130310Y-55447155D01*
X214130310Y-55447155D02*
X214130310Y-55737155D01*
X214130310Y-55737155D02*
X216130310Y-55737155D01*
X216130310Y-55737155D02*
X216130310Y-55447155D01*
G36*
X216130310Y-55447155D02*
G01*
X214130310Y-55447155D01*
X214130310Y-55737155D01*
X216130310Y-55737155D01*
X216130310Y-55447155D01*
G37*
G36*
X215130310Y-53832155D02*
G01*
X214368310Y-52689155D01*
X215892310Y-52689155D01*
X215130310Y-53832155D01*
G37*
X215130310Y-53832155D02*
X214368310Y-52689155D01*
X215892310Y-52689155D01*
X215130310Y-53832155D01*
X297092810Y-55447155D02*
X297092810Y-51547155D01*
X295092810Y-55447155D02*
X295092810Y-51547155D01*
X297092810Y-55447155D02*
X295092810Y-55447155D01*
X295092810Y-55447155D02*
X295092810Y-55737155D01*
X295092810Y-55737155D02*
X297092810Y-55737155D01*
X297092810Y-55737155D02*
X297092810Y-55447155D01*
G36*
X297092810Y-55447155D02*
G01*
X295092810Y-55447155D01*
X295092810Y-55737155D01*
X297092810Y-55737155D01*
X297092810Y-55447155D01*
G37*
G36*
X296092810Y-53832155D02*
G01*
X295330810Y-52689155D01*
X296854810Y-52689155D01*
X296092810Y-53832155D01*
G37*
X296092810Y-53832155D02*
X295330810Y-52689155D01*
X296854810Y-52689155D01*
X296092810Y-53832155D01*
X172417810Y-80450280D02*
X172417810Y-76550280D01*
X174417810Y-80450280D02*
X174417810Y-76550280D01*
X174417810Y-80450280D02*
X172417810Y-80450280D01*
X172417810Y-80450280D02*
X172417810Y-80740280D01*
X172417810Y-80740280D02*
X174417810Y-80740280D01*
X174417810Y-80740280D02*
X174417810Y-80450280D01*
G36*
X174417810Y-80450280D02*
G01*
X172417810Y-80450280D01*
X172417810Y-80740280D01*
X174417810Y-80740280D01*
X174417810Y-80450280D01*
G37*
G36*
X173417810Y-78835280D02*
G01*
X172655810Y-77692280D01*
X174179810Y-77692280D01*
X173417810Y-78835280D01*
G37*
X173417810Y-78835280D02*
X172655810Y-77692280D01*
X174179810Y-77692280D01*
X173417810Y-78835280D01*
D11*
X204319435Y-54196674D02*
G75*
G03*
X199747435Y-54196674I-2286000J-1435606D01*
G01*
D14*
X185555310Y-93547155D02*
X185555310Y-89647155D01*
X187555310Y-93547155D02*
X187555310Y-89647155D01*
X187555310Y-93547155D02*
X185555310Y-93547155D01*
X185555310Y-93547155D02*
X185555310Y-93837155D01*
X185555310Y-93837155D02*
X187555310Y-93837155D01*
X187555310Y-93837155D02*
X187555310Y-93547155D01*
G36*
X187555310Y-93547155D02*
G01*
X185555310Y-93547155D01*
X185555310Y-93837155D01*
X187555310Y-93837155D01*
X187555310Y-93547155D01*
G37*
G36*
X186555310Y-91932155D02*
G01*
X185793310Y-90789155D01*
X187317310Y-90789155D01*
X186555310Y-91932155D01*
G37*
X186555310Y-91932155D02*
X185793310Y-90789155D01*
X187317310Y-90789155D01*
X186555310Y-91932155D01*
D11*
X305522560Y-54159174D02*
G75*
G03*
X300950560Y-54159174I-2286000J-1435606D01*
G01*
X141216310Y-76771674D02*
G75*
G03*
X136644310Y-76771674I-2286000J-1435606D01*
G01*
D14*
X176030310Y-94597155D02*
X176030310Y-90697155D01*
X178030310Y-94597155D02*
X178030310Y-90697155D01*
X178030310Y-94597155D02*
X176030310Y-94597155D01*
X176030310Y-94597155D02*
X176030310Y-94887155D01*
X176030310Y-94887155D02*
X178030310Y-94887155D01*
X178030310Y-94887155D02*
X178030310Y-94597155D01*
G36*
X178030310Y-94597155D02*
G01*
X176030310Y-94597155D01*
X176030310Y-94887155D01*
X178030310Y-94887155D01*
X178030310Y-94597155D01*
G37*
G36*
X177030310Y-92982155D02*
G01*
X176268310Y-91839155D01*
X177792310Y-91839155D01*
X177030310Y-92982155D01*
G37*
X177030310Y-92982155D02*
X176268310Y-91839155D01*
X177792310Y-91839155D01*
X177030310Y-92982155D01*
X166505310Y-75501280D02*
X166505310Y-71601280D01*
X168505310Y-75501280D02*
X168505310Y-71601280D01*
X168505310Y-75501280D02*
X166505310Y-75501280D01*
X166505310Y-75501280D02*
X166505310Y-75791280D01*
X166505310Y-75791280D02*
X168505310Y-75791280D01*
X168505310Y-75791280D02*
X168505310Y-75501280D01*
G36*
X168505310Y-75501280D02*
G01*
X166505310Y-75501280D01*
X166505310Y-75791280D01*
X168505310Y-75791280D01*
X168505310Y-75501280D01*
G37*
G36*
X167505310Y-73886280D02*
G01*
X166743310Y-72743280D01*
X168267310Y-72743280D01*
X167505310Y-73886280D01*
G37*
X167505310Y-73886280D02*
X166743310Y-72743280D01*
X168267310Y-72743280D01*
X167505310Y-73886280D01*
X153408435Y-80450280D02*
X153408435Y-76550280D01*
X155408435Y-80450280D02*
X155408435Y-76550280D01*
X155408435Y-80450280D02*
X153408435Y-80450280D01*
X153408435Y-80450280D02*
X153408435Y-80740280D01*
X153408435Y-80740280D02*
X155408435Y-80740280D01*
X155408435Y-80740280D02*
X155408435Y-80450280D01*
G36*
X155408435Y-80450280D02*
G01*
X153408435Y-80450280D01*
X153408435Y-80740280D01*
X155408435Y-80740280D01*
X155408435Y-80450280D01*
G37*
G36*
X154408435Y-78835280D02*
G01*
X153646435Y-77692280D01*
X155170435Y-77692280D01*
X154408435Y-78835280D01*
G37*
X154408435Y-78835280D02*
X153646435Y-77692280D01*
X155170435Y-77692280D01*
X154408435Y-78835280D01*
X197080310Y-74497155D02*
X197080310Y-70597155D01*
X195080310Y-74497155D02*
X195080310Y-70597155D01*
X197080310Y-74497155D02*
X195080310Y-74497155D01*
X195080310Y-74497155D02*
X195080310Y-74787155D01*
X195080310Y-74787155D02*
X197080310Y-74787155D01*
X197080310Y-74787155D02*
X197080310Y-74497155D01*
G36*
X197080310Y-74497155D02*
G01*
X195080310Y-74497155D01*
X195080310Y-74787155D01*
X197080310Y-74787155D01*
X197080310Y-74497155D01*
G37*
G36*
X196080310Y-72882155D02*
G01*
X195318310Y-71739155D01*
X196842310Y-71739155D01*
X196080310Y-72882155D01*
G37*
X196080310Y-72882155D02*
X195318310Y-71739155D01*
X196842310Y-71739155D01*
X196080310Y-72882155D01*
X120880310Y-55447155D02*
X120880310Y-51547155D01*
X118880310Y-55447155D02*
X118880310Y-51547155D01*
X120880310Y-55447155D02*
X118880310Y-55447155D01*
X118880310Y-55447155D02*
X118880310Y-55737155D01*
X118880310Y-55737155D02*
X120880310Y-55737155D01*
X120880310Y-55737155D02*
X120880310Y-55447155D01*
G36*
X120880310Y-55447155D02*
G01*
X118880310Y-55447155D01*
X118880310Y-55737155D01*
X120880310Y-55737155D01*
X120880310Y-55447155D01*
G37*
G36*
X119880310Y-53832155D02*
G01*
X119118310Y-52689155D01*
X120642310Y-52689155D01*
X119880310Y-53832155D01*
G37*
X119880310Y-53832155D02*
X119118310Y-52689155D01*
X120642310Y-52689155D01*
X119880310Y-53832155D01*
X27020935Y-41290905D02*
G75*
G03*
X27020935Y-41290905I-1200000J0D01*
G01*
D11*
X251944435Y-30337299D02*
G75*
G03*
X247372435Y-30337299I-2286000J-1435606D01*
G01*
D14*
X141502185Y-75497280D02*
X141502185Y-71597280D01*
X143502185Y-75497280D02*
X143502185Y-71597280D01*
X143502185Y-75497280D02*
X141502185Y-75497280D01*
X141502185Y-75497280D02*
X141502185Y-75787280D01*
X141502185Y-75787280D02*
X143502185Y-75787280D01*
X143502185Y-75787280D02*
X143502185Y-75497280D01*
G36*
X143502185Y-75497280D02*
G01*
X141502185Y-75497280D01*
X141502185Y-75787280D01*
X143502185Y-75787280D01*
X143502185Y-75497280D01*
G37*
G36*
X142502185Y-73882280D02*
G01*
X141740185Y-72739280D01*
X143264185Y-72739280D01*
X142502185Y-73882280D01*
G37*
X142502185Y-73882280D02*
X141740185Y-72739280D01*
X143264185Y-72739280D01*
X142502185Y-73882280D01*
D11*
X191222560Y-76771674D02*
G75*
G03*
X186650560Y-76771674I-2286000J-1435606D01*
G01*
D14*
X147455310Y-93547155D02*
X147455310Y-89647155D01*
X149455310Y-93547155D02*
X149455310Y-89647155D01*
X149455310Y-93547155D02*
X147455310Y-93547155D01*
X147455310Y-93547155D02*
X147455310Y-93837155D01*
X147455310Y-93837155D02*
X149455310Y-93837155D01*
X149455310Y-93837155D02*
X149455310Y-93547155D01*
G36*
X149455310Y-93547155D02*
G01*
X147455310Y-93547155D01*
X147455310Y-93837155D01*
X149455310Y-93837155D01*
X149455310Y-93547155D01*
G37*
G36*
X148455310Y-91932155D02*
G01*
X147693310Y-90789155D01*
X149217310Y-90789155D01*
X148455310Y-91932155D01*
G37*
X148455310Y-91932155D02*
X147693310Y-90789155D01*
X149217310Y-90789155D01*
X148455310Y-91932155D01*
X106792810Y-24622155D02*
G75*
G03*
X106792810Y-24622155I-1200000J0D01*
G01*
D11*
X26916310Y-54159174D02*
G75*
G03*
X22344310Y-54159174I-2286000J-1435606D01*
G01*
D14*
X27020935Y-37719030D02*
G75*
G03*
X27020935Y-37719030I-1200000J0D01*
G01*
X219902185Y-24622155D02*
G75*
G03*
X219902185Y-24622155I-1200000J0D01*
G01*
X273280310Y-55447155D02*
X273280310Y-51547155D01*
X271280310Y-55447155D02*
X271280310Y-51547155D01*
X273280310Y-55447155D02*
X271280310Y-55447155D01*
X271280310Y-55447155D02*
X271280310Y-55737155D01*
X271280310Y-55737155D02*
X273280310Y-55737155D01*
X273280310Y-55737155D02*
X273280310Y-55447155D01*
G36*
X273280310Y-55447155D02*
G01*
X271280310Y-55447155D01*
X271280310Y-55737155D01*
X273280310Y-55737155D01*
X273280310Y-55447155D01*
G37*
G36*
X272280310Y-53832155D02*
G01*
X271518310Y-52689155D01*
X273042310Y-52689155D01*
X272280310Y-53832155D01*
G37*
X272280310Y-53832155D02*
X271518310Y-52689155D01*
X273042310Y-52689155D01*
X272280310Y-53832155D01*
X161742810Y-74480280D02*
X161742810Y-70580280D01*
X163742810Y-74480280D02*
X163742810Y-70580280D01*
X163742810Y-74480280D02*
X161742810Y-74480280D01*
X161742810Y-74480280D02*
X161742810Y-74770280D01*
X161742810Y-74770280D02*
X163742810Y-74770280D01*
X163742810Y-74770280D02*
X163742810Y-74480280D01*
G36*
X163742810Y-74480280D02*
G01*
X161742810Y-74480280D01*
X161742810Y-74770280D01*
X163742810Y-74770280D01*
X163742810Y-74480280D01*
G37*
G36*
X162742810Y-72865280D02*
G01*
X161980810Y-71722280D01*
X163504810Y-71722280D01*
X162742810Y-72865280D01*
G37*
X162742810Y-72865280D02*
X161980810Y-71722280D01*
X163504810Y-71722280D01*
X162742810Y-72865280D01*
D11*
X161647435Y-25562136D02*
G75*
G03*
X166219435Y-25562136I2286000J1435606D01*
G01*
X128119435Y-54149799D02*
G75*
G03*
X123547435Y-54149799I-2286000J-1435606D01*
G01*
X22344310Y-25562136D02*
G75*
G03*
X26916310Y-25562136I2286000J1435606D01*
G01*
D14*
X126429685Y-44134030D02*
X126429685Y-45184030D01*
X128929685Y-44134030D02*
X126429685Y-44134030D01*
X126429685Y-50354030D02*
X126429685Y-49304030D01*
X126429685Y-45184030D02*
X125439685Y-45184030D01*
X128929685Y-50354030D02*
X126429685Y-50354030D01*
X130899685Y-45304030D02*
X130899685Y-49184030D01*
G36*
X126429685Y-45184030D02*
G01*
X126429685Y-44134030D01*
X127429685Y-44134030D01*
X126429685Y-45184030D01*
G37*
X126429685Y-45184030D02*
X126429685Y-44134030D01*
X127429685Y-44134030D01*
X126429685Y-45184030D01*
G36*
X126429685Y-45184030D02*
G01*
X125439685Y-45184030D01*
X125439685Y-44944030D01*
X126429685Y-44944030D01*
X126429685Y-45184030D01*
G37*
X126429685Y-45184030D02*
X125439685Y-45184030D01*
X125439685Y-44944030D01*
X126429685Y-44944030D01*
X126429685Y-45184030D01*
X156980310Y-74480280D02*
X156980310Y-70580280D01*
X158980310Y-74480280D02*
X158980310Y-70580280D01*
X158980310Y-74480280D02*
X156980310Y-74480280D01*
X156980310Y-74480280D02*
X156980310Y-74770280D01*
X156980310Y-74770280D02*
X158980310Y-74770280D01*
X158980310Y-74770280D02*
X158980310Y-74480280D01*
G36*
X158980310Y-74480280D02*
G01*
X156980310Y-74480280D01*
X156980310Y-74770280D01*
X158980310Y-74770280D01*
X158980310Y-74480280D01*
G37*
G36*
X157980310Y-72865280D02*
G01*
X157218310Y-71722280D01*
X158742310Y-71722280D01*
X157980310Y-72865280D01*
G37*
X157980310Y-72865280D02*
X157218310Y-71722280D01*
X158742310Y-71722280D01*
X157980310Y-72865280D01*
X198937185Y-39638405D02*
X201437185Y-39638405D01*
X201437185Y-33418405D02*
X201437185Y-34468405D01*
X198937185Y-33418405D02*
X201437185Y-33418405D01*
X196967185Y-38468405D02*
X196967185Y-34588405D01*
X201437185Y-38588405D02*
X202427185Y-38588405D01*
X201437185Y-39638405D02*
X201437185Y-38588405D01*
G36*
X201437185Y-39638405D02*
G01*
X200437185Y-39638405D01*
X201437185Y-38588405D01*
X201437185Y-39638405D01*
G37*
X201437185Y-39638405D02*
X200437185Y-39638405D01*
X201437185Y-38588405D01*
X201437185Y-39638405D01*
G36*
X202427185Y-38828405D02*
G01*
X201437185Y-38828405D01*
X201437185Y-38588405D01*
X202427185Y-38588405D01*
X202427185Y-38828405D01*
G37*
X202427185Y-38828405D02*
X201437185Y-38828405D01*
X201437185Y-38588405D01*
X202427185Y-38588405D01*
X202427185Y-38828405D01*
G36*
X295459753Y-28300407D02*
G01*
X295494329Y-28312527D01*
X295518403Y-28331384D01*
X295527435Y-28355652D01*
X295522334Y-28377837D01*
X295504935Y-28402865D01*
X295498672Y-28407264D01*
X295475722Y-28421624D01*
X295437843Y-28444501D01*
X295386497Y-28475038D01*
X295323145Y-28512377D01*
X295249247Y-28555660D01*
X295166266Y-28604031D01*
X295075663Y-28656630D01*
X294978899Y-28712602D01*
X294877435Y-28771089D01*
X294806537Y-28811895D01*
X294709156Y-28867973D01*
X294617896Y-28920561D01*
X294534159Y-28968847D01*
X294459349Y-29012023D01*
X294394866Y-29049278D01*
X294342115Y-29079802D01*
X294302497Y-29102786D01*
X294277414Y-29117420D01*
X294268269Y-29122894D01*
X294267873Y-29123300D01*
X294269947Y-29132406D01*
X294270005Y-29132440D01*
X294281384Y-29131770D01*
X294311225Y-29128523D01*
X294358241Y-29122871D01*
X294421145Y-29114981D01*
X294498648Y-29105023D01*
X294589463Y-29093166D01*
X294692302Y-29079579D01*
X294805879Y-29064432D01*
X294928905Y-29047892D01*
X295060092Y-29030131D01*
X295198153Y-29011316D01*
X295341801Y-28991617D01*
X296407811Y-28844981D01*
X296445123Y-28863222D01*
X296464199Y-28875132D01*
X296483630Y-28899867D01*
X296485413Y-28927007D01*
X296468636Y-28953066D01*
X296464848Y-28955748D01*
X296445188Y-28968011D01*
X296410485Y-28988911D01*
X296362246Y-29017575D01*
X296301980Y-29053128D01*
X296231193Y-29094697D01*
X296151394Y-29141408D01*
X296064089Y-29192386D01*
X295970786Y-29246757D01*
X295872993Y-29303648D01*
X295772217Y-29362184D01*
X295669966Y-29421491D01*
X295567746Y-29480695D01*
X295467067Y-29538922D01*
X295369434Y-29595299D01*
X295276356Y-29648950D01*
X295189340Y-29699002D01*
X295109893Y-29744580D01*
X295039524Y-29784812D01*
X294979739Y-29818822D01*
X294932046Y-29845736D01*
X294897952Y-29864681D01*
X294878966Y-29874783D01*
X294851965Y-29885486D01*
X294805822Y-29894726D01*
X294760643Y-29894657D01*
X294722120Y-29885505D01*
X294695948Y-29867498D01*
X294683178Y-29849294D01*
X294677435Y-29835889D01*
X294677475Y-29834966D01*
X294680699Y-29826572D01*
X294689844Y-29815633D01*
X294705956Y-29801492D01*
X294730085Y-29783490D01*
X294763277Y-29760970D01*
X294806581Y-29733275D01*
X294861045Y-29699745D01*
X294927716Y-29659724D01*
X295007643Y-29612553D01*
X295101873Y-29557574D01*
X295211455Y-29494130D01*
X295337435Y-29421563D01*
X295395690Y-29388069D01*
X295507922Y-29323522D01*
X295604505Y-29267929D01*
X295686596Y-29220604D01*
X295755349Y-29180860D01*
X295811919Y-29148009D01*
X295857462Y-29121364D01*
X295893132Y-29100238D01*
X295920084Y-29083943D01*
X295939473Y-29071794D01*
X295952455Y-29063102D01*
X295960185Y-29057181D01*
X295963817Y-29053343D01*
X295964506Y-29050901D01*
X295963408Y-29049168D01*
X295963253Y-29049121D01*
X295951081Y-29050160D01*
X295920515Y-29053836D01*
X295872835Y-29059976D01*
X295809319Y-29068403D01*
X295731248Y-29078942D01*
X295639900Y-29091417D01*
X295536555Y-29105653D01*
X295422492Y-29121475D01*
X295298991Y-29138707D01*
X295167331Y-29157173D01*
X295028792Y-29176699D01*
X294884652Y-29197108D01*
X294873760Y-29198654D01*
X294729514Y-29219026D01*
X294590653Y-29238473D01*
X294458487Y-29256817D01*
X294334325Y-29273886D01*
X294219478Y-29289504D01*
X294115256Y-29303497D01*
X294022970Y-29315689D01*
X293943928Y-29325907D01*
X293879443Y-29333975D01*
X293830823Y-29339719D01*
X293799379Y-29342965D01*
X293786422Y-29343536D01*
X293764974Y-29335751D01*
X293737902Y-29315122D01*
X293724772Y-29289009D01*
X293727160Y-29261630D01*
X293746643Y-29237201D01*
X293758262Y-29229780D01*
X293785976Y-29213103D01*
X293828031Y-29188229D01*
X293882922Y-29156027D01*
X293949141Y-29117365D01*
X294025181Y-29073112D01*
X294109536Y-29024137D01*
X294200700Y-28971308D01*
X294297165Y-28915492D01*
X294397425Y-28857560D01*
X294499973Y-28798379D01*
X294603302Y-28738817D01*
X294705907Y-28679744D01*
X294806279Y-28622027D01*
X294902912Y-28566535D01*
X294994301Y-28514137D01*
X295078937Y-28465700D01*
X295155315Y-28422094D01*
X295221927Y-28384188D01*
X295277266Y-28352848D01*
X295319828Y-28328944D01*
X295348103Y-28313345D01*
X295360586Y-28306919D01*
X295377243Y-28301678D01*
X295419211Y-28296349D01*
X295459753Y-28300407D01*
G37*
G36*
X288602066Y-23491086D02*
G01*
X288643512Y-23500653D01*
X288668848Y-23520900D01*
X288677435Y-23551430D01*
X288675578Y-23559861D01*
X288666839Y-23585985D01*
X288651767Y-23626525D01*
X288631277Y-23679142D01*
X288606286Y-23741494D01*
X288577710Y-23811240D01*
X288546464Y-23886041D01*
X288523507Y-23940930D01*
X288494868Y-24010758D01*
X288469927Y-24073148D01*
X288449525Y-24125914D01*
X288434502Y-24166865D01*
X288425702Y-24193814D01*
X288423964Y-24204573D01*
X288430630Y-24204895D01*
X288455522Y-24202967D01*
X288497068Y-24198555D01*
X288553477Y-24191884D01*
X288622957Y-24183182D01*
X288703717Y-24172672D01*
X288793965Y-24160581D01*
X288891911Y-24147135D01*
X288995762Y-24132558D01*
X289118335Y-24115362D01*
X289230811Y-24099978D01*
X289330245Y-24086805D01*
X289415515Y-24075979D01*
X289485502Y-24067640D01*
X289539084Y-24061926D01*
X289575139Y-24058975D01*
X289592548Y-24058926D01*
X289622295Y-24068554D01*
X289649020Y-24083847D01*
X289658388Y-24092158D01*
X289666836Y-24108273D01*
X289662182Y-24131046D01*
X289647182Y-24154709D01*
X289617384Y-24176599D01*
X289601099Y-24181499D01*
X289564520Y-24189149D01*
X289508539Y-24199170D01*
X289433388Y-24211523D01*
X289339301Y-24226172D01*
X289226511Y-24243079D01*
X289095252Y-24262206D01*
X288945758Y-24283518D01*
X288834177Y-24299333D01*
X288716195Y-24316231D01*
X288615501Y-24330900D01*
X288530708Y-24343569D01*
X288460427Y-24354465D01*
X288403270Y-24363818D01*
X288357849Y-24371857D01*
X288322775Y-24378808D01*
X288296661Y-24384902D01*
X288278118Y-24390366D01*
X288265758Y-24395429D01*
X288262333Y-24397208D01*
X288238738Y-24410089D01*
X288201112Y-24431165D01*
X288152063Y-24458956D01*
X288094196Y-24491980D01*
X288030118Y-24528755D01*
X287962435Y-24567802D01*
X287950143Y-24574909D01*
X287880901Y-24614855D01*
X287814254Y-24653161D01*
X287753143Y-24688147D01*
X287700510Y-24718132D01*
X287659294Y-24741436D01*
X287632435Y-24756380D01*
X287604726Y-24770914D01*
X287570255Y-24785627D01*
X287539436Y-24792782D01*
X287504481Y-24794713D01*
X287494587Y-24794669D01*
X287462018Y-24792347D01*
X287440262Y-24784947D01*
X287421981Y-24770299D01*
X287419769Y-24768046D01*
X287403924Y-24749024D01*
X287397435Y-24735843D01*
X287399342Y-24727793D01*
X287407786Y-24715623D01*
X287424236Y-24700227D01*
X287450056Y-24680693D01*
X287486610Y-24656113D01*
X287535261Y-24625578D01*
X287597373Y-24588179D01*
X287674310Y-24543006D01*
X287767435Y-24489150D01*
X287771136Y-24487020D01*
X287845416Y-24444187D01*
X287914949Y-24403923D01*
X287977635Y-24367460D01*
X288031373Y-24336025D01*
X288074060Y-24310848D01*
X288103596Y-24293158D01*
X288117879Y-24284183D01*
X288118769Y-24283516D01*
X288128468Y-24272454D01*
X288141323Y-24251527D01*
X288158024Y-24219275D01*
X288179262Y-24174236D01*
X288205730Y-24114952D01*
X288238118Y-24039961D01*
X288277118Y-23947804D01*
X288299977Y-23893483D01*
X288331732Y-23818294D01*
X288361300Y-23748581D01*
X288387575Y-23686940D01*
X288409448Y-23635968D01*
X288425814Y-23598260D01*
X288435564Y-23576413D01*
X288455824Y-23540861D01*
X288485732Y-23511674D01*
X288525363Y-23495699D01*
X288579007Y-23490360D01*
X288602066Y-23491086D01*
G37*
G36*
X299199741Y-29704739D02*
G01*
X299138817Y-29781852D01*
X299067504Y-29871528D01*
X298985097Y-29974784D01*
X298890893Y-30092640D01*
X298798621Y-30207834D01*
X298700353Y-30329936D01*
X298614272Y-30436196D01*
X298540373Y-30526621D01*
X298478650Y-30601217D01*
X298429096Y-30659993D01*
X298391706Y-30702955D01*
X298366473Y-30730110D01*
X298353393Y-30741465D01*
X298337170Y-30747695D01*
X298298420Y-30755056D01*
X298255819Y-30756504D01*
X298217015Y-30752031D01*
X298189661Y-30741628D01*
X298182804Y-30736418D01*
X298171410Y-30723342D01*
X298167482Y-30707493D01*
X298171952Y-30686811D01*
X298185754Y-30659231D01*
X298209823Y-30622693D01*
X298245092Y-30575132D01*
X298292495Y-30514488D01*
X298300100Y-30504876D01*
X298337344Y-30457354D01*
X298369574Y-30415509D01*
X298394915Y-30381824D01*
X298411493Y-30358782D01*
X298417435Y-30348868D01*
X298416142Y-30347439D01*
X298401513Y-30337313D01*
X298372063Y-30318773D01*
X298329619Y-30292915D01*
X298276008Y-30260836D01*
X298213058Y-30223632D01*
X298142596Y-30182399D01*
X298066449Y-30138236D01*
X297715463Y-29935543D01*
X297424063Y-30012284D01*
X297417414Y-30014034D01*
X297329944Y-30036799D01*
X297259383Y-30054558D01*
X297203561Y-30067770D01*
X297160304Y-30076896D01*
X297127442Y-30082398D01*
X297102803Y-30084734D01*
X297084215Y-30084367D01*
X297053340Y-30078720D01*
X297019582Y-30062808D01*
X297001522Y-30040621D01*
X297000026Y-30015160D01*
X297015960Y-29989428D01*
X297050190Y-29966426D01*
X297052579Y-29965458D01*
X297072970Y-29958884D01*
X297111048Y-29947644D01*
X297165530Y-29932088D01*
X297235134Y-29912570D01*
X297318578Y-29889439D01*
X297403075Y-29866211D01*
X297994243Y-29866211D01*
X297995339Y-29868441D01*
X298009575Y-29879680D01*
X298038196Y-29898910D01*
X298079198Y-29924874D01*
X298130576Y-29956317D01*
X298190326Y-29991980D01*
X298256443Y-30030607D01*
X298288852Y-30049315D01*
X298353372Y-30086342D01*
X298411382Y-30119347D01*
X298460727Y-30147122D01*
X298499252Y-30168458D01*
X298524803Y-30182146D01*
X298535223Y-30186977D01*
X298542777Y-30184804D01*
X298559962Y-30174472D01*
X298561414Y-30173159D01*
X298574063Y-30159113D01*
X298596596Y-30132441D01*
X298627280Y-30095306D01*
X298664384Y-30049873D01*
X298706175Y-29998306D01*
X298750921Y-29942770D01*
X298796890Y-29885429D01*
X298842350Y-29828448D01*
X298885569Y-29773991D01*
X298924814Y-29724222D01*
X298958355Y-29681307D01*
X298984458Y-29647408D01*
X299001391Y-29624692D01*
X299007423Y-29615322D01*
X299005747Y-29611695D01*
X298992757Y-29603254D01*
X298991693Y-29603153D01*
X298975758Y-29605745D01*
X298943270Y-29612901D01*
X298896472Y-29624028D01*
X298837605Y-29638536D01*
X298768912Y-29655836D01*
X298692634Y-29675336D01*
X298611014Y-29696447D01*
X298526294Y-29718577D01*
X298440716Y-29741136D01*
X298356521Y-29763534D01*
X298275953Y-29785181D01*
X298201252Y-29805485D01*
X298134662Y-29823857D01*
X298078424Y-29839706D01*
X298034780Y-29852442D01*
X298005973Y-29861473D01*
X297994243Y-29866211D01*
X297403075Y-29866211D01*
X297414577Y-29863049D01*
X297521851Y-29833750D01*
X297639116Y-29801895D01*
X297765090Y-29767835D01*
X297898489Y-29731922D01*
X298038032Y-29694508D01*
X298182435Y-29655944D01*
X298323327Y-29618396D01*
X298480534Y-29576536D01*
X298620371Y-29539390D01*
X298743919Y-29506714D01*
X298852258Y-29478268D01*
X298946469Y-29453809D01*
X299027632Y-29433098D01*
X299096829Y-29415891D01*
X299155139Y-29401947D01*
X299203644Y-29391025D01*
X299243423Y-29382883D01*
X299275557Y-29377280D01*
X299301128Y-29373974D01*
X299321215Y-29372723D01*
X299336899Y-29373286D01*
X299349260Y-29375422D01*
X299359380Y-29378888D01*
X299368339Y-29383444D01*
X299377217Y-29388847D01*
X299385472Y-29394287D01*
X299392383Y-29400441D01*
X299396647Y-29407953D01*
X299397559Y-29417842D01*
X299394415Y-29431126D01*
X299386513Y-29448824D01*
X299373147Y-29471954D01*
X299353615Y-29501535D01*
X299327212Y-29538586D01*
X299293234Y-29584124D01*
X299269285Y-29615322D01*
X299250979Y-29639169D01*
X299199741Y-29704739D01*
G37*
G36*
X294685104Y-27278332D02*
G01*
X294685862Y-27340826D01*
X294686877Y-27404027D01*
X294688009Y-27457777D01*
X294689192Y-27499437D01*
X294690361Y-27526369D01*
X294691452Y-27535933D01*
X294697245Y-27533104D01*
X294717888Y-27521705D01*
X294750663Y-27503104D01*
X294792666Y-27478952D01*
X294840991Y-27450900D01*
X294877192Y-27430127D01*
X294923537Y-27404556D01*
X294962577Y-27384192D01*
X294991028Y-27370730D01*
X295005610Y-27365866D01*
X295009330Y-27367308D01*
X295029006Y-27377394D01*
X295064429Y-27396624D01*
X295114583Y-27424421D01*
X295178456Y-27460209D01*
X295255033Y-27503412D01*
X295343302Y-27553453D01*
X295442249Y-27609757D01*
X295550859Y-27671747D01*
X295668121Y-27738847D01*
X295793019Y-27810481D01*
X295924542Y-27886073D01*
X296061674Y-27965045D01*
X296203402Y-28046823D01*
X296281887Y-28092149D01*
X296420890Y-28172413D01*
X296554568Y-28249584D01*
X296681923Y-28323087D01*
X296801954Y-28392345D01*
X296913662Y-28456783D01*
X297016047Y-28515824D01*
X297108110Y-28568891D01*
X297188852Y-28615410D01*
X297257272Y-28654802D01*
X297312371Y-28686493D01*
X297353150Y-28709906D01*
X297378610Y-28724464D01*
X297387749Y-28729592D01*
X297392260Y-28727604D01*
X297412414Y-28716847D01*
X297447245Y-28697557D01*
X297495181Y-28670626D01*
X297554648Y-28636945D01*
X297624073Y-28597407D01*
X297701882Y-28552903D01*
X297786503Y-28504326D01*
X297876362Y-28452567D01*
X297935352Y-28418574D01*
X298022712Y-28368393D01*
X298104156Y-28321796D01*
X298178057Y-28279707D01*
X298242788Y-28243044D01*
X298296721Y-28212728D01*
X298338230Y-28189681D01*
X298365688Y-28174822D01*
X298377467Y-28169072D01*
X298380393Y-28169769D01*
X298399198Y-28178525D01*
X298434566Y-28197002D01*
X298486018Y-28224931D01*
X298553075Y-28262041D01*
X298635259Y-28308061D01*
X298732090Y-28362720D01*
X298843089Y-28425747D01*
X298967778Y-28496872D01*
X299105678Y-28575823D01*
X299256310Y-28662331D01*
X299419195Y-28756123D01*
X299593854Y-28856930D01*
X299688546Y-28911623D01*
X299828309Y-28992285D01*
X299962711Y-29069775D01*
X300090755Y-29143523D01*
X300211444Y-29212958D01*
X300323784Y-29277508D01*
X300426780Y-29336605D01*
X300519434Y-29389676D01*
X300600751Y-29436151D01*
X300669736Y-29475459D01*
X300725392Y-29507031D01*
X300766725Y-29530294D01*
X300792738Y-29544679D01*
X300802435Y-29549614D01*
X300806931Y-29547716D01*
X300827207Y-29537069D01*
X300862181Y-29517847D01*
X300910255Y-29490956D01*
X300969827Y-29457301D01*
X301039299Y-29417787D01*
X301117068Y-29373320D01*
X301201537Y-29324804D01*
X301291104Y-29273145D01*
X301346824Y-29241004D01*
X301433739Y-29191119D01*
X301514730Y-29144939D01*
X301588173Y-29103370D01*
X301652447Y-29067323D01*
X301705926Y-29037704D01*
X301746990Y-29015423D01*
X301774013Y-29001388D01*
X301785373Y-28996508D01*
X301787600Y-28997390D01*
X301804804Y-29006383D01*
X301838064Y-29024676D01*
X301886495Y-29051765D01*
X301949214Y-29087143D01*
X302025336Y-29130306D01*
X302113978Y-29180748D01*
X302214255Y-29237964D01*
X302325283Y-29301448D01*
X302446179Y-29370696D01*
X302576058Y-29445203D01*
X302714036Y-29524461D01*
X302859229Y-29607968D01*
X303010753Y-29695217D01*
X303167724Y-29785702D01*
X303329257Y-29878919D01*
X304857541Y-30761330D01*
X304857458Y-30790809D01*
X304855138Y-31612984D01*
X304854988Y-31666305D01*
X304852435Y-32571279D01*
X303332435Y-33453895D01*
X303270167Y-33490042D01*
X303110697Y-33582521D01*
X302956051Y-33672070D01*
X302807121Y-33758178D01*
X302664796Y-33840336D01*
X302529965Y-33918033D01*
X302403520Y-33990761D01*
X302286349Y-34058009D01*
X302179342Y-34119268D01*
X302083391Y-34174027D01*
X301999383Y-34221778D01*
X301968764Y-34239086D01*
X301928210Y-34262010D01*
X301870761Y-34294215D01*
X301827927Y-34317881D01*
X301800596Y-34332500D01*
X301789660Y-34337561D01*
X301789508Y-34337557D01*
X301777199Y-34332290D01*
X301748454Y-34317391D01*
X301704069Y-34293313D01*
X301644837Y-34260507D01*
X301571553Y-34219424D01*
X301485009Y-34170515D01*
X301386002Y-34114232D01*
X301275323Y-34051026D01*
X301153768Y-33981349D01*
X301022130Y-33905651D01*
X300881203Y-33824384D01*
X300731782Y-33737999D01*
X300574660Y-33646948D01*
X300484509Y-33594665D01*
X300345038Y-33513844D01*
X300210889Y-33436189D01*
X300083060Y-33362273D01*
X299962549Y-33292670D01*
X299850353Y-33227954D01*
X299747469Y-33168698D01*
X299654896Y-33115477D01*
X299573630Y-33068864D01*
X299504669Y-33029433D01*
X299449011Y-32997759D01*
X299407654Y-32974414D01*
X299381594Y-32959973D01*
X299371830Y-32955009D01*
X299367209Y-32956927D01*
X299346764Y-32967623D01*
X299311643Y-32986913D01*
X299263446Y-33013890D01*
X299203773Y-33047648D01*
X299134224Y-33087279D01*
X299056400Y-33131878D01*
X298971901Y-33180537D01*
X298882326Y-33232350D01*
X298868086Y-33240603D01*
X298759577Y-33303290D01*
X298667045Y-33356342D01*
X298589432Y-33400330D01*
X298574382Y-33408710D01*
X298525682Y-33435827D01*
X298474741Y-33463408D01*
X298435551Y-33483644D01*
X298407057Y-33497109D01*
X298388202Y-33504375D01*
X298377931Y-33506016D01*
X298374395Y-33504605D01*
X298354775Y-33494508D01*
X298319390Y-33475217D01*
X298269264Y-33447314D01*
X298205421Y-33411384D01*
X298128883Y-33368013D01*
X298040676Y-33317785D01*
X297941821Y-33261284D01*
X297833343Y-33199095D01*
X297716266Y-33131802D01*
X297591613Y-33059990D01*
X297460408Y-32984244D01*
X297323674Y-32905148D01*
X297182435Y-32823287D01*
X297111008Y-32781859D01*
X296972301Y-32701474D01*
X296838810Y-32624196D01*
X296711539Y-32550603D01*
X296591497Y-32481273D01*
X296479689Y-32416787D01*
X296377121Y-32357722D01*
X296284801Y-32304657D01*
X296203735Y-32258172D01*
X296134929Y-32218845D01*
X296079389Y-32187254D01*
X296038123Y-32163980D01*
X296012136Y-32149599D01*
X296002435Y-32144692D01*
X295997159Y-32147035D01*
X295975956Y-32158342D01*
X295940147Y-32178202D01*
X295891321Y-32205713D01*
X295831062Y-32239971D01*
X295760957Y-32280074D01*
X295682594Y-32325118D01*
X295597558Y-32374201D01*
X295507435Y-32426419D01*
X295445862Y-32462088D01*
X295358687Y-32512323D01*
X295277503Y-32558797D01*
X295203922Y-32600604D01*
X295192388Y-32607097D01*
X295139553Y-32636840D01*
X295086008Y-32666599D01*
X295044898Y-32688977D01*
X295017833Y-32703067D01*
X295006423Y-32707966D01*
X295005459Y-32707616D01*
X294991225Y-32700144D01*
X294961045Y-32683407D01*
X294915989Y-32658024D01*
X294857125Y-32624612D01*
X294785523Y-32583790D01*
X294702250Y-32536173D01*
X294608376Y-32482381D01*
X294504969Y-32423032D01*
X294393099Y-32358741D01*
X294273833Y-32290128D01*
X294148242Y-32217810D01*
X294017393Y-32142405D01*
X293882356Y-32064530D01*
X293744199Y-31984802D01*
X293603990Y-31903841D01*
X293462800Y-31822263D01*
X293321696Y-31740686D01*
X293181747Y-31659727D01*
X293044023Y-31580005D01*
X292909592Y-31502137D01*
X292779522Y-31426740D01*
X292654883Y-31354433D01*
X292536743Y-31285832D01*
X292426171Y-31221557D01*
X292324236Y-31162224D01*
X292232007Y-31108451D01*
X292150552Y-31060855D01*
X292080940Y-31020055D01*
X292024240Y-30986668D01*
X291981522Y-30961311D01*
X291953852Y-30944603D01*
X291942302Y-30937161D01*
X291942147Y-30937030D01*
X291937462Y-30930123D01*
X291933856Y-30916917D01*
X291931197Y-30895128D01*
X291929356Y-30862471D01*
X291928202Y-30816661D01*
X291927605Y-30755415D01*
X291927435Y-30676448D01*
X291927435Y-30428077D01*
X291779935Y-30513801D01*
X291742371Y-30535253D01*
X291695678Y-30560806D01*
X291656264Y-30581111D01*
X291627418Y-30594490D01*
X291612435Y-30599261D01*
X291610119Y-30598412D01*
X291592657Y-30589469D01*
X291559154Y-30571184D01*
X291510499Y-30544066D01*
X291447576Y-30508622D01*
X291371274Y-30465361D01*
X291282478Y-30414790D01*
X291182077Y-30357416D01*
X291070955Y-30293748D01*
X290950000Y-30224293D01*
X290820099Y-30149560D01*
X290682139Y-30070055D01*
X290537006Y-29986287D01*
X290385586Y-29898764D01*
X290228767Y-29807994D01*
X290067435Y-29714483D01*
X288542435Y-28829968D01*
X288534592Y-27948596D01*
X288607628Y-27948596D01*
X288607821Y-28781424D01*
X290083658Y-29636760D01*
X290110080Y-29652073D01*
X290267933Y-29743544D01*
X290420999Y-29832220D01*
X290568386Y-29917585D01*
X290709198Y-29999121D01*
X290842542Y-30076312D01*
X290967524Y-30148639D01*
X291083249Y-30215587D01*
X291188824Y-30276638D01*
X291283354Y-30331276D01*
X291365944Y-30378982D01*
X291435702Y-30419240D01*
X291491733Y-30451533D01*
X291533143Y-30475344D01*
X291559037Y-30490155D01*
X291568522Y-30495451D01*
X291568744Y-30495335D01*
X291570220Y-30483362D01*
X291571529Y-30452621D01*
X291572664Y-30404197D01*
X291573615Y-30339175D01*
X291574373Y-30258641D01*
X291574932Y-30163679D01*
X291575281Y-30055376D01*
X291575362Y-29981888D01*
X291649479Y-29981888D01*
X291649646Y-30090638D01*
X291649975Y-30189627D01*
X291650459Y-30277391D01*
X291651088Y-30352467D01*
X291651853Y-30413391D01*
X291652745Y-30458699D01*
X291653757Y-30486926D01*
X291654878Y-30496610D01*
X291658610Y-30495167D01*
X291677215Y-30485593D01*
X291708221Y-30468547D01*
X291748455Y-30445790D01*
X291794744Y-30419080D01*
X291927053Y-30342038D01*
X291927244Y-29739868D01*
X291927284Y-29652746D01*
X291999092Y-29652746D01*
X291999190Y-29767707D01*
X291999457Y-29900372D01*
X291999878Y-30051893D01*
X292002435Y-30888250D01*
X293317435Y-31650708D01*
X293335900Y-31661414D01*
X293488256Y-31749751D01*
X293637685Y-31836389D01*
X293783079Y-31920686D01*
X293923334Y-32002001D01*
X294057344Y-32079694D01*
X294184003Y-32153123D01*
X294302205Y-32221647D01*
X294410844Y-32284625D01*
X294508815Y-32341416D01*
X294595011Y-32391380D01*
X294668327Y-32433874D01*
X294727657Y-32468258D01*
X294771895Y-32493891D01*
X294799935Y-32510131D01*
X294967435Y-32607097D01*
X294967435Y-32092664D01*
X295039479Y-32092664D01*
X295039647Y-32201395D01*
X295039977Y-32300352D01*
X295040461Y-32388072D01*
X295041089Y-32463093D01*
X295041854Y-32523954D01*
X295042746Y-32569193D01*
X295043757Y-32597348D01*
X295044878Y-32606957D01*
X295045835Y-32606575D01*
X295059878Y-32599045D01*
X295089098Y-32582619D01*
X295131835Y-32558251D01*
X295186427Y-32526897D01*
X295251215Y-32489514D01*
X295324538Y-32447056D01*
X295404734Y-32400480D01*
X295490143Y-32350741D01*
X295927850Y-32095497D01*
X295620143Y-31917300D01*
X295312435Y-31739102D01*
X295309839Y-31263157D01*
X295309831Y-31261718D01*
X295309155Y-31166367D01*
X295308235Y-31077440D01*
X295307109Y-30996880D01*
X295305820Y-30926626D01*
X295304407Y-30868619D01*
X295302912Y-30824798D01*
X295301376Y-30797105D01*
X295299839Y-30787479D01*
X295297405Y-30788305D01*
X295280619Y-30796738D01*
X295251184Y-30812820D01*
X295212366Y-30834743D01*
X295167435Y-30860701D01*
X295042435Y-30933656D01*
X295039878Y-31770793D01*
X295039666Y-31851724D01*
X295039483Y-31975619D01*
X295039479Y-32092664D01*
X294967435Y-32092664D01*
X294967435Y-30931725D01*
X293495883Y-30081663D01*
X293474985Y-30069591D01*
X293317057Y-29978360D01*
X293163844Y-29889851D01*
X293016247Y-29804582D01*
X292875166Y-29723076D01*
X292741501Y-29645851D01*
X292616153Y-29573429D01*
X292500022Y-29506330D01*
X292394008Y-29445072D01*
X292299011Y-29390178D01*
X292215933Y-29342167D01*
X292145674Y-29301560D01*
X292089133Y-29268876D01*
X292047211Y-29244636D01*
X292020808Y-29229360D01*
X292010826Y-29223569D01*
X292010779Y-29223542D01*
X292008346Y-29224793D01*
X292006234Y-29232233D01*
X292004429Y-29247014D01*
X292002915Y-29270287D01*
X292001677Y-29303203D01*
X292000699Y-29346915D01*
X291999967Y-29402574D01*
X291999466Y-29471331D01*
X291999179Y-29554338D01*
X291999092Y-29652746D01*
X291927284Y-29652746D01*
X291927293Y-29633303D01*
X291927410Y-29524109D01*
X291927636Y-29432123D01*
X291928017Y-29355826D01*
X291928599Y-29293701D01*
X291929430Y-29244229D01*
X291930555Y-29205891D01*
X291932022Y-29177168D01*
X291933334Y-29162575D01*
X292060037Y-29162575D01*
X292060273Y-29162761D01*
X292071903Y-29169941D01*
X292099866Y-29186531D01*
X292143261Y-29212010D01*
X292201186Y-29245853D01*
X292272741Y-29287539D01*
X292357023Y-29336544D01*
X292453130Y-29392345D01*
X292560161Y-29454419D01*
X292677216Y-29522244D01*
X292803391Y-29595296D01*
X292937785Y-29673053D01*
X293079497Y-29754992D01*
X293227626Y-29840589D01*
X293381269Y-29929322D01*
X293539525Y-30020668D01*
X293558533Y-30031637D01*
X293716074Y-30122527D01*
X293868798Y-30210609D01*
X294015813Y-30295371D01*
X294156226Y-30376298D01*
X294289143Y-30452876D01*
X294413670Y-30524591D01*
X294528916Y-30590929D01*
X294633986Y-30651377D01*
X294727987Y-30705421D01*
X294810026Y-30752545D01*
X294879209Y-30792238D01*
X294934644Y-30823984D01*
X294975437Y-30847270D01*
X295000695Y-30861582D01*
X295009525Y-30866406D01*
X295015466Y-30863167D01*
X295036232Y-30851311D01*
X295069128Y-30832332D01*
X295111281Y-30807888D01*
X295159818Y-30779637D01*
X295307201Y-30693708D01*
X295307769Y-30611218D01*
X295379461Y-30611218D01*
X295379576Y-30732416D01*
X295379878Y-30859540D01*
X295382435Y-31692166D01*
X296077536Y-32095497D01*
X296827435Y-32530624D01*
X296980859Y-32619637D01*
X297133996Y-32708460D01*
X297281888Y-32794219D01*
X297423608Y-32876377D01*
X297558229Y-32954396D01*
X297684823Y-33027740D01*
X297802463Y-33095872D01*
X297910222Y-33158256D01*
X298007174Y-33214354D01*
X298092390Y-33263631D01*
X298164944Y-33305548D01*
X298223908Y-33339570D01*
X298268356Y-33365160D01*
X298297360Y-33381781D01*
X298309993Y-33388896D01*
X298347550Y-33408710D01*
X298345003Y-32573937D01*
X298417435Y-32573937D01*
X298417469Y-32652377D01*
X298417660Y-32776183D01*
X298418010Y-32893168D01*
X298418505Y-33001868D01*
X298419132Y-33100818D01*
X298419879Y-33188551D01*
X298420731Y-33263603D01*
X298421676Y-33324508D01*
X298422701Y-33369801D01*
X298423791Y-33398017D01*
X298424935Y-33407691D01*
X298425367Y-33407584D01*
X298437854Y-33401353D01*
X298465174Y-33386378D01*
X298505314Y-33363828D01*
X298556263Y-33334870D01*
X298616009Y-33300673D01*
X298682542Y-33262405D01*
X298753849Y-33221236D01*
X298827920Y-33178332D01*
X298902742Y-33134863D01*
X298976304Y-33091997D01*
X299046596Y-33050902D01*
X299111604Y-33012746D01*
X299169318Y-32978699D01*
X299217726Y-32949928D01*
X299254818Y-32927601D01*
X299278580Y-32912888D01*
X299287002Y-32906956D01*
X299284827Y-32904888D01*
X299268514Y-32893965D01*
X299237975Y-32874979D01*
X299195280Y-32849174D01*
X299142495Y-32817795D01*
X299081691Y-32782085D01*
X299014935Y-32743290D01*
X298982893Y-32724725D01*
X298917182Y-32686416D01*
X298857554Y-32651341D01*
X298806263Y-32620844D01*
X298765560Y-32596269D01*
X298737700Y-32578961D01*
X298724935Y-32570264D01*
X298724217Y-32569603D01*
X298720324Y-32564581D01*
X298717081Y-32556493D01*
X298714429Y-32543644D01*
X298712310Y-32524339D01*
X298710664Y-32496886D01*
X298709432Y-32459590D01*
X298708557Y-32410756D01*
X298707978Y-32348691D01*
X298707637Y-32271701D01*
X298707476Y-32178091D01*
X298707435Y-32066167D01*
X298707434Y-32054245D01*
X298707298Y-31958164D01*
X298706959Y-31868676D01*
X298706440Y-31787698D01*
X298705761Y-31717146D01*
X298704945Y-31658936D01*
X298704012Y-31614985D01*
X298702986Y-31587209D01*
X298701888Y-31577524D01*
X298697093Y-31579589D01*
X298677401Y-31590041D01*
X298645451Y-31607818D01*
X298604271Y-31631227D01*
X298556888Y-31658577D01*
X298417435Y-31739630D01*
X298417435Y-32573937D01*
X298345003Y-32573937D01*
X298344993Y-32570763D01*
X298342435Y-31732817D01*
X296867435Y-30880379D01*
X296842140Y-30865761D01*
X296684285Y-30774562D01*
X296531229Y-30686179D01*
X296383865Y-30601126D01*
X296243087Y-30519917D01*
X296109789Y-30443067D01*
X295984865Y-30371089D01*
X295869208Y-30304498D01*
X295763714Y-30243809D01*
X295669275Y-30189536D01*
X295586787Y-30142193D01*
X295517142Y-30102294D01*
X295461234Y-30070353D01*
X295419959Y-30046886D01*
X295394208Y-30032406D01*
X295384878Y-30027428D01*
X295384190Y-30030938D01*
X295383131Y-30051933D01*
X295382189Y-30090587D01*
X295381371Y-30145434D01*
X295380687Y-30215006D01*
X295380145Y-30297838D01*
X295379754Y-30392461D01*
X295379523Y-30497410D01*
X295379461Y-30611218D01*
X295307769Y-30611218D01*
X295312269Y-29957159D01*
X295427784Y-29957159D01*
X295427959Y-29957347D01*
X295438871Y-29964235D01*
X295466092Y-29980525D01*
X295508731Y-30005699D01*
X295565900Y-30039239D01*
X295636709Y-30080629D01*
X295720268Y-30129351D01*
X295815687Y-30184889D01*
X295922077Y-30246725D01*
X296038549Y-30314342D01*
X296164213Y-30387224D01*
X296298179Y-30464852D01*
X296439557Y-30546711D01*
X296587459Y-30632282D01*
X296740994Y-30721050D01*
X296899273Y-30812496D01*
X296921180Y-30825147D01*
X297079026Y-30916284D01*
X297232122Y-31004635D01*
X297379572Y-31089686D01*
X297520478Y-31170919D01*
X297653941Y-31247819D01*
X297779065Y-31319870D01*
X297894951Y-31386556D01*
X298000702Y-31447359D01*
X298095420Y-31501765D01*
X298178208Y-31549256D01*
X298248168Y-31589318D01*
X298304402Y-31621433D01*
X298346013Y-31645085D01*
X298372102Y-31659759D01*
X298381773Y-31664938D01*
X298392198Y-31661453D01*
X298417288Y-31649304D01*
X298453901Y-31629970D01*
X298499098Y-31605009D01*
X298549935Y-31575976D01*
X298707435Y-31484633D01*
X298707435Y-31440839D01*
X298779425Y-31440839D01*
X298779567Y-31562001D01*
X298779878Y-31689077D01*
X298782435Y-32520914D01*
X299447784Y-32906956D01*
X300237435Y-33365119D01*
X300243457Y-33368613D01*
X300401035Y-33460035D01*
X300554132Y-33548844D01*
X300701830Y-33634510D01*
X300843215Y-33716502D01*
X300977372Y-33794289D01*
X301103384Y-33867342D01*
X301220336Y-33935129D01*
X301327312Y-33997120D01*
X301423398Y-34052784D01*
X301507678Y-34101592D01*
X301579235Y-34143012D01*
X301637155Y-34176514D01*
X301680522Y-34201567D01*
X301708421Y-34217641D01*
X301719935Y-34224206D01*
X301747435Y-34239086D01*
X301747289Y-33723331D01*
X301819479Y-33723331D01*
X301819647Y-33832065D01*
X301819976Y-33931030D01*
X301820460Y-34018762D01*
X301821089Y-34093798D01*
X301821854Y-34154678D01*
X301822746Y-34199937D01*
X301823757Y-34228114D01*
X301824878Y-34237746D01*
X301825293Y-34237574D01*
X301837578Y-34230827D01*
X301866112Y-34214642D01*
X301910001Y-34189535D01*
X301968354Y-34156022D01*
X302040278Y-34114616D01*
X302124883Y-34065835D01*
X302221275Y-34010193D01*
X302328562Y-33948206D01*
X302445854Y-33880388D01*
X302572257Y-33807256D01*
X302706880Y-33729324D01*
X302848830Y-33647108D01*
X302997216Y-33561123D01*
X303151146Y-33471885D01*
X303309728Y-33379908D01*
X304787020Y-32522897D01*
X304787228Y-31690069D01*
X304787231Y-31612984D01*
X304787166Y-31489209D01*
X304787020Y-31372231D01*
X304786799Y-31263518D01*
X304786509Y-31164538D01*
X304786156Y-31076758D01*
X304785747Y-31001646D01*
X304785287Y-30940671D01*
X304784784Y-30895299D01*
X304784243Y-30867000D01*
X304783671Y-30857241D01*
X304783320Y-30857401D01*
X304771392Y-30864057D01*
X304743195Y-30880116D01*
X304699619Y-30905064D01*
X304641554Y-30938390D01*
X304569890Y-30979579D01*
X304485518Y-31028120D01*
X304389328Y-31083500D01*
X304282210Y-31145205D01*
X304165053Y-31212724D01*
X304038750Y-31285542D01*
X303904188Y-31363149D01*
X303762259Y-31445030D01*
X303613853Y-31530674D01*
X303459861Y-31619566D01*
X303301171Y-31711196D01*
X301822435Y-32565150D01*
X301819878Y-33401861D01*
X301819667Y-33482404D01*
X301819483Y-33606290D01*
X301819479Y-33723331D01*
X301747289Y-33723331D01*
X301747197Y-33400999D01*
X301746958Y-32562912D01*
X300268919Y-31710077D01*
X300241429Y-31694215D01*
X300083453Y-31603093D01*
X299930296Y-31514794D01*
X299782852Y-31429831D01*
X299642012Y-31348719D01*
X299508671Y-31271969D01*
X299383721Y-31200094D01*
X299268055Y-31133608D01*
X299162565Y-31073023D01*
X299068146Y-31018852D01*
X298985689Y-30971608D01*
X298916088Y-30931803D01*
X298860236Y-30899951D01*
X298819025Y-30876565D01*
X298793349Y-30862157D01*
X298784100Y-30857241D01*
X298783490Y-30860731D01*
X298782546Y-30881699D01*
X298781711Y-30920331D01*
X298780994Y-30975160D01*
X298780401Y-31044716D01*
X298779941Y-31127531D01*
X298779619Y-31222135D01*
X298779445Y-31327061D01*
X298779425Y-31440839D01*
X298707435Y-31440839D01*
X298707435Y-30787213D01*
X298827752Y-30787213D01*
X298827902Y-30787370D01*
X298838630Y-30794092D01*
X298865681Y-30810216D01*
X298908162Y-30835227D01*
X298965185Y-30868607D01*
X299035857Y-30909839D01*
X299119288Y-30958405D01*
X299214587Y-31013789D01*
X299320863Y-31075473D01*
X299437225Y-31142941D01*
X299562782Y-31215675D01*
X299696644Y-31293158D01*
X299837919Y-31374873D01*
X299985716Y-31460302D01*
X300139146Y-31548930D01*
X300297316Y-31640238D01*
X300316575Y-31651352D01*
X300474422Y-31742422D01*
X300627555Y-31830736D01*
X300775074Y-31915778D01*
X300916078Y-31997028D01*
X301049667Y-32073969D01*
X301174940Y-32146084D01*
X301290996Y-32212855D01*
X301396937Y-32273764D01*
X301491859Y-32328294D01*
X301574865Y-32375925D01*
X301645052Y-32416142D01*
X301701520Y-32448426D01*
X301743370Y-32472259D01*
X301769700Y-32487123D01*
X301779610Y-32492502D01*
X301785677Y-32489748D01*
X301808027Y-32477776D01*
X301845748Y-32456898D01*
X301897751Y-32427743D01*
X301962950Y-32390934D01*
X302040257Y-32347099D01*
X302128585Y-32296862D01*
X302226845Y-32240850D01*
X302333951Y-32179688D01*
X302448814Y-32114001D01*
X302570347Y-32044417D01*
X302697462Y-31971560D01*
X302829073Y-31896056D01*
X302964091Y-31818530D01*
X303101429Y-31739610D01*
X303239999Y-31659920D01*
X303378713Y-31580086D01*
X303516485Y-31500733D01*
X303652226Y-31422489D01*
X303784849Y-31345977D01*
X303913267Y-31271825D01*
X304036391Y-31200657D01*
X304153135Y-31133100D01*
X304262410Y-31069780D01*
X304363129Y-31011321D01*
X304454205Y-30958350D01*
X304534550Y-30911493D01*
X304603076Y-30871374D01*
X304658696Y-30838621D01*
X304700322Y-30813859D01*
X304726867Y-30797713D01*
X304737243Y-30790809D01*
X304730487Y-30785674D01*
X304707474Y-30771146D01*
X304669206Y-30747882D01*
X304616763Y-30716508D01*
X304551228Y-30677649D01*
X304473680Y-30631930D01*
X304385201Y-30579976D01*
X304286872Y-30522412D01*
X304179773Y-30459862D01*
X304064987Y-30392952D01*
X303943594Y-30322307D01*
X303816676Y-30248552D01*
X303685312Y-30172312D01*
X303550585Y-30094211D01*
X303413575Y-30014875D01*
X303275363Y-29934928D01*
X303137031Y-29854996D01*
X302999659Y-29775703D01*
X302864329Y-29697675D01*
X302732121Y-29621536D01*
X302604117Y-29547912D01*
X302481397Y-29477428D01*
X302365043Y-29410707D01*
X302256136Y-29348376D01*
X302155757Y-29291059D01*
X302064986Y-29239382D01*
X301984906Y-29193969D01*
X301916596Y-29155445D01*
X301861139Y-29124435D01*
X301819614Y-29101565D01*
X301793104Y-29087458D01*
X301782689Y-29082741D01*
X301774701Y-29086745D01*
X301750371Y-29100142D01*
X301710838Y-29122353D01*
X301657186Y-29152751D01*
X301590501Y-29190711D01*
X301511867Y-29235607D01*
X301422370Y-29286813D01*
X301323094Y-29343703D01*
X301215125Y-29405652D01*
X301099546Y-29472033D01*
X300977444Y-29542222D01*
X300880360Y-29598071D01*
X300849904Y-29615591D01*
X300718009Y-29691515D01*
X300582845Y-29769368D01*
X300445498Y-29848526D01*
X300307051Y-29928360D01*
X300168590Y-30008247D01*
X300031200Y-30087560D01*
X299895966Y-30165673D01*
X299763973Y-30241960D01*
X299636305Y-30315796D01*
X299514048Y-30386555D01*
X299398287Y-30453610D01*
X299290106Y-30516337D01*
X299190591Y-30574109D01*
X299100826Y-30626301D01*
X299021896Y-30672286D01*
X298954887Y-30711439D01*
X298900883Y-30743134D01*
X298860969Y-30766745D01*
X298836231Y-30781647D01*
X298827752Y-30787213D01*
X298707435Y-30787213D01*
X298707435Y-30767456D01*
X298744935Y-30744145D01*
X298746512Y-30743185D01*
X298763787Y-30732997D01*
X298796975Y-30713637D01*
X298844921Y-30685774D01*
X298906469Y-30650075D01*
X298980465Y-30607209D01*
X299065753Y-30557844D01*
X299161178Y-30502650D01*
X299265586Y-30442293D01*
X299377820Y-30377443D01*
X299496727Y-30308768D01*
X299621150Y-30236937D01*
X299749935Y-30162617D01*
X299785611Y-30142029D01*
X299912291Y-30068852D01*
X300033716Y-29998601D01*
X300148787Y-29931918D01*
X300256406Y-29869444D01*
X300355475Y-29811819D01*
X300444896Y-29759685D01*
X300523569Y-29713682D01*
X300590398Y-29674452D01*
X300644284Y-29642634D01*
X300684128Y-29618871D01*
X300708833Y-29603803D01*
X300717299Y-29598071D01*
X300715343Y-29596580D01*
X300698922Y-29586361D01*
X300666645Y-29567019D01*
X300619514Y-29539138D01*
X300558527Y-29503301D01*
X300484686Y-29460090D01*
X300398991Y-29410087D01*
X300302443Y-29353877D01*
X300196043Y-29292040D01*
X300080790Y-29225161D01*
X299957685Y-29153822D01*
X299827729Y-29078606D01*
X299691922Y-29000095D01*
X299551265Y-28918873D01*
X298385366Y-28246003D01*
X297465911Y-28776391D01*
X296906749Y-29098944D01*
X296878400Y-29115298D01*
X296720491Y-29206427D01*
X296567474Y-29294790D01*
X296420239Y-29379871D01*
X296279674Y-29461154D01*
X296146668Y-29538123D01*
X296022108Y-29610264D01*
X295906884Y-29677060D01*
X295801884Y-29737996D01*
X295707996Y-29792556D01*
X295626109Y-29840226D01*
X295557111Y-29880488D01*
X295501892Y-29912828D01*
X295461338Y-29936730D01*
X295436339Y-29951679D01*
X295427784Y-29957159D01*
X295312269Y-29957159D01*
X295312435Y-29932970D01*
X296309887Y-29357197D01*
X296370909Y-29321963D01*
X296498670Y-29248132D01*
X296620996Y-29177360D01*
X296736805Y-29110276D01*
X296845016Y-29047510D01*
X296944547Y-28989692D01*
X297034316Y-28937451D01*
X297113243Y-28891417D01*
X297180246Y-28852220D01*
X297234243Y-28820489D01*
X297274154Y-28796854D01*
X297298895Y-28781945D01*
X297307387Y-28776391D01*
X297307306Y-28776255D01*
X297297214Y-28769562D01*
X297271113Y-28753712D01*
X297230236Y-28729414D01*
X297175812Y-28697378D01*
X297109074Y-28658314D01*
X297031253Y-28612930D01*
X296943580Y-28561937D01*
X296847287Y-28506042D01*
X296743604Y-28445956D01*
X296633764Y-28382389D01*
X296518998Y-28316049D01*
X296400537Y-28247646D01*
X296279612Y-28177888D01*
X296157454Y-28107487D01*
X296035297Y-28037150D01*
X295914369Y-27967588D01*
X295795903Y-27899509D01*
X295681131Y-27833623D01*
X295571283Y-27770640D01*
X295467592Y-27711268D01*
X295371287Y-27656218D01*
X295283601Y-27606197D01*
X295205766Y-27561917D01*
X295139011Y-27524086D01*
X295084570Y-27493413D01*
X295043672Y-27470608D01*
X295017551Y-27456381D01*
X295007435Y-27451440D01*
X295007051Y-27451525D01*
X294994613Y-27457719D01*
X294965888Y-27473348D01*
X294921775Y-27497896D01*
X294863176Y-27530850D01*
X294790990Y-27571695D01*
X294706119Y-27619917D01*
X294609463Y-27675000D01*
X294501922Y-27736432D01*
X294384398Y-27803696D01*
X294257792Y-27876280D01*
X294123003Y-27953668D01*
X293980932Y-28035347D01*
X293832480Y-28120801D01*
X293678548Y-28209516D01*
X293520037Y-28300978D01*
X293397089Y-28371979D01*
X293211292Y-28479357D01*
X293041897Y-28577370D01*
X292888311Y-28666370D01*
X292749939Y-28746706D01*
X292626189Y-28818729D01*
X292516465Y-28882790D01*
X292420173Y-28939239D01*
X292336721Y-28988427D01*
X292265514Y-29030703D01*
X292205958Y-29066420D01*
X292157459Y-29095926D01*
X292119424Y-29119573D01*
X292091258Y-29137710D01*
X292072367Y-29150690D01*
X292062158Y-29158861D01*
X292060037Y-29162575D01*
X291933334Y-29162575D01*
X291933876Y-29156541D01*
X291936165Y-29142492D01*
X291938935Y-29133502D01*
X291942232Y-29128053D01*
X291946103Y-29124626D01*
X291947932Y-29123477D01*
X291964470Y-29113676D01*
X291997042Y-29094630D01*
X292044694Y-29066893D01*
X292106471Y-29031018D01*
X292181417Y-28987556D01*
X292268578Y-28937061D01*
X292366998Y-28880086D01*
X292475722Y-28817184D01*
X292593795Y-28748907D01*
X292720261Y-28675808D01*
X292854166Y-28598441D01*
X292994555Y-28517357D01*
X293140471Y-28433110D01*
X293290961Y-28346252D01*
X294617152Y-27580951D01*
X294617294Y-27347498D01*
X294617435Y-27114046D01*
X294554935Y-27149264D01*
X294543788Y-27155624D01*
X294515068Y-27172118D01*
X294470761Y-27197618D01*
X294411826Y-27231572D01*
X294339222Y-27273425D01*
X294253908Y-27322624D01*
X294156844Y-27378616D01*
X294048990Y-27440846D01*
X293931303Y-27508763D01*
X293804744Y-27581811D01*
X293670272Y-27659439D01*
X293528845Y-27741091D01*
X293381425Y-27826215D01*
X293228968Y-27914257D01*
X293072435Y-28004664D01*
X291652435Y-28824847D01*
X291649878Y-29660973D01*
X291649668Y-29740961D01*
X291649484Y-29864841D01*
X291649481Y-29934817D01*
X291649479Y-29981888D01*
X291575362Y-29981888D01*
X291575414Y-29934817D01*
X291575320Y-29803087D01*
X291574993Y-29661272D01*
X291572435Y-28823740D01*
X290093520Y-27969754D01*
X290064643Y-27953079D01*
X289906724Y-27861907D01*
X289753665Y-27773563D01*
X289606355Y-27688560D01*
X289465683Y-27607412D01*
X289332541Y-27530630D01*
X289207818Y-27458727D01*
X289092404Y-27392217D01*
X288987189Y-27331611D01*
X288893063Y-27277423D01*
X288810916Y-27230164D01*
X288741639Y-27190349D01*
X288686120Y-27158489D01*
X288645251Y-27135097D01*
X288619921Y-27120685D01*
X288611020Y-27115768D01*
X288610689Y-27119332D01*
X288610161Y-27140415D01*
X288609667Y-27179156D01*
X288609212Y-27234086D01*
X288608802Y-27303737D01*
X288608443Y-27386642D01*
X288608142Y-27481333D01*
X288607903Y-27586342D01*
X288607735Y-27700200D01*
X288607641Y-27821441D01*
X288607628Y-27948596D01*
X288534592Y-27948596D01*
X288532435Y-27706266D01*
X288377435Y-27795972D01*
X288332699Y-27821494D01*
X288286210Y-27847166D01*
X288247648Y-27867540D01*
X288220109Y-27880986D01*
X288206688Y-27885875D01*
X288200744Y-27883001D01*
X288178501Y-27870848D01*
X288140848Y-27849750D01*
X288088857Y-27820326D01*
X288023601Y-27783195D01*
X287946151Y-27738976D01*
X287857581Y-27688289D01*
X287758961Y-27631753D01*
X287651364Y-27569986D01*
X287535863Y-27503607D01*
X287413528Y-27433236D01*
X287285434Y-27359492D01*
X287152651Y-27282994D01*
X287016252Y-27204360D01*
X286877308Y-27124210D01*
X286736893Y-27043164D01*
X286596078Y-26961839D01*
X286455935Y-26880855D01*
X286317537Y-26800831D01*
X286181956Y-26722387D01*
X286050263Y-26646140D01*
X285923531Y-26572711D01*
X285802833Y-26502718D01*
X285689239Y-26436781D01*
X285583823Y-26375518D01*
X285487656Y-26319548D01*
X285401811Y-26269491D01*
X285327360Y-26225966D01*
X285265375Y-26189591D01*
X285216927Y-26160986D01*
X285183090Y-26140770D01*
X285164935Y-26129561D01*
X285127435Y-26105086D01*
X285127435Y-26063305D01*
X285197435Y-26063305D01*
X286539935Y-26841486D01*
X286586473Y-26868461D01*
X286739331Y-26957066D01*
X286888744Y-27043675D01*
X287033646Y-27127670D01*
X287172972Y-27208434D01*
X287305654Y-27285348D01*
X287430627Y-27357794D01*
X287546825Y-27425154D01*
X287653181Y-27486809D01*
X287748629Y-27542143D01*
X287832104Y-27590536D01*
X287902537Y-27631371D01*
X287958865Y-27664030D01*
X288000020Y-27687894D01*
X288024935Y-27702346D01*
X288167435Y-27785026D01*
X288167435Y-27270751D01*
X288239480Y-27270751D01*
X288239647Y-27379490D01*
X288239977Y-27478455D01*
X288240461Y-27566182D01*
X288241090Y-27641211D01*
X288241854Y-27702080D01*
X288242747Y-27747326D01*
X288243758Y-27775488D01*
X288244869Y-27785026D01*
X288244878Y-27785104D01*
X288250312Y-27782690D01*
X288270785Y-27771621D01*
X288303331Y-27753160D01*
X288344897Y-27729047D01*
X288392435Y-27701018D01*
X288532435Y-27617860D01*
X288542010Y-27047062D01*
X288657754Y-27047062D01*
X288657967Y-27047298D01*
X288669127Y-27054438D01*
X288696586Y-27070965D01*
X288739455Y-27096364D01*
X288796846Y-27130118D01*
X288867869Y-27171709D01*
X288951636Y-27220620D01*
X289047257Y-27276334D01*
X289153844Y-27338334D01*
X289270508Y-27406103D01*
X289396361Y-27479123D01*
X289530512Y-27556878D01*
X289672073Y-27638850D01*
X289820156Y-27724523D01*
X289973871Y-27813378D01*
X290132329Y-27904900D01*
X290157293Y-27919312D01*
X290315167Y-28010423D01*
X290468244Y-28098712D01*
X290615629Y-28183666D01*
X290756430Y-28264771D01*
X290889750Y-28341514D01*
X291014697Y-28413381D01*
X291130376Y-28479859D01*
X291235891Y-28540435D01*
X291330350Y-28594595D01*
X291412858Y-28641826D01*
X291482520Y-28681613D01*
X291538443Y-28713444D01*
X291579731Y-28736806D01*
X291605492Y-28751184D01*
X291614829Y-28756066D01*
X291624017Y-28751551D01*
X291649429Y-28737624D01*
X291689925Y-28714902D01*
X291744424Y-28684012D01*
X291811846Y-28645578D01*
X291891110Y-28600228D01*
X291981136Y-28548588D01*
X292080844Y-28491283D01*
X292189153Y-28428940D01*
X292304982Y-28362184D01*
X292427251Y-28291641D01*
X292554879Y-28217939D01*
X292686787Y-28141702D01*
X292821893Y-28063557D01*
X292959118Y-27984130D01*
X293097380Y-27904047D01*
X293235599Y-27823933D01*
X293372695Y-27744416D01*
X293507587Y-27666121D01*
X293639195Y-27589674D01*
X293766438Y-27515700D01*
X293888236Y-27444828D01*
X294003508Y-27377681D01*
X294111175Y-27314887D01*
X294210154Y-27257071D01*
X294299366Y-27204859D01*
X294377731Y-27158878D01*
X294444168Y-27119753D01*
X294497596Y-27088111D01*
X294536936Y-27064577D01*
X294561105Y-27049778D01*
X294569025Y-27044340D01*
X294563332Y-27040764D01*
X294541396Y-27027749D01*
X294504047Y-27005868D01*
X294452376Y-26975751D01*
X294387474Y-26938028D01*
X294310431Y-26893326D01*
X294222340Y-26842276D01*
X294124291Y-26785507D01*
X294017374Y-26723648D01*
X293902681Y-26657329D01*
X293781303Y-26587178D01*
X293654330Y-26513825D01*
X293522854Y-26437899D01*
X293387965Y-26360030D01*
X293250755Y-26280846D01*
X293112315Y-26200978D01*
X292973734Y-26121053D01*
X292836105Y-26041703D01*
X292700519Y-25963555D01*
X292568065Y-25887239D01*
X292439836Y-25813384D01*
X292316922Y-25742620D01*
X292200414Y-25675576D01*
X292091403Y-25612880D01*
X291990980Y-25555164D01*
X291900236Y-25503055D01*
X291820262Y-25457182D01*
X291752148Y-25418176D01*
X291696987Y-25386666D01*
X291655868Y-25363280D01*
X291629882Y-25348648D01*
X291620122Y-25343399D01*
X291611894Y-25347225D01*
X291587328Y-25360426D01*
X291547548Y-25382440D01*
X291493641Y-25412643D01*
X291426694Y-25450409D01*
X291369279Y-25482939D01*
X291347790Y-25495114D01*
X291258018Y-25546134D01*
X291158463Y-25602844D01*
X291050210Y-25664619D01*
X290934347Y-25730836D01*
X290811958Y-25800869D01*
X290684130Y-25874093D01*
X290551948Y-25949885D01*
X290416500Y-26027620D01*
X290278870Y-26106673D01*
X290140145Y-26186419D01*
X290001411Y-26266235D01*
X289863753Y-26345495D01*
X289728258Y-26423575D01*
X289596012Y-26499851D01*
X289468100Y-26573697D01*
X289345609Y-26644490D01*
X289229625Y-26711604D01*
X289121233Y-26774416D01*
X289021520Y-26832300D01*
X288931572Y-26884633D01*
X288852474Y-26930789D01*
X288785313Y-26970144D01*
X288731174Y-27002073D01*
X288691144Y-27025952D01*
X288666309Y-27041157D01*
X288657754Y-27047062D01*
X288542010Y-27047062D01*
X288542435Y-27021720D01*
X289874935Y-26252330D01*
X291207435Y-25482939D01*
X291207435Y-24942749D01*
X291207387Y-24848886D01*
X291207156Y-24741227D01*
X291206709Y-24651280D01*
X291206014Y-24577736D01*
X291205041Y-24519289D01*
X291203759Y-24474629D01*
X291202139Y-24442449D01*
X291200148Y-24421442D01*
X291197757Y-24410299D01*
X291194935Y-24407713D01*
X291194630Y-24407861D01*
X291182657Y-24414556D01*
X291154380Y-24430678D01*
X291110697Y-24455708D01*
X291052509Y-24489128D01*
X290980716Y-24530419D01*
X290896218Y-24579062D01*
X290799913Y-24634539D01*
X290692702Y-24696331D01*
X290575485Y-24763920D01*
X290449161Y-24836787D01*
X290314630Y-24914414D01*
X290172793Y-24996281D01*
X290024548Y-25081871D01*
X289870796Y-25170665D01*
X289712435Y-25262144D01*
X288242435Y-26111422D01*
X288239878Y-26948727D01*
X288239666Y-27029793D01*
X288239483Y-27153698D01*
X288239480Y-27270751D01*
X288167435Y-27270751D01*
X288167435Y-26109540D01*
X286730525Y-25279629D01*
X286587216Y-25196859D01*
X286433830Y-25108269D01*
X286285535Y-25022621D01*
X286143271Y-24940456D01*
X286007981Y-24862320D01*
X285880603Y-24788755D01*
X285762080Y-24720303D01*
X285653351Y-24657510D01*
X285555358Y-24600917D01*
X285469041Y-24551069D01*
X285395342Y-24508508D01*
X285335199Y-24473778D01*
X285289555Y-24447422D01*
X285259350Y-24429983D01*
X285245525Y-24422005D01*
X285197435Y-24394292D01*
X285197435Y-26063305D01*
X285127435Y-26063305D01*
X285127435Y-24340443D01*
X285259941Y-24340443D01*
X285260183Y-24340632D01*
X285271848Y-24347821D01*
X285299844Y-24364420D01*
X285343272Y-24389906D01*
X285401228Y-24423757D01*
X285472813Y-24465449D01*
X285557123Y-24514459D01*
X285653258Y-24570266D01*
X285760316Y-24632346D01*
X285877396Y-24700175D01*
X286003595Y-24773233D01*
X286138013Y-24850995D01*
X286279747Y-24932938D01*
X286427897Y-25018541D01*
X286581560Y-25107280D01*
X286739835Y-25198632D01*
X286759129Y-25209765D01*
X286916675Y-25300655D01*
X287069400Y-25388736D01*
X287216411Y-25473496D01*
X287356815Y-25554421D01*
X287489720Y-25630997D01*
X287614232Y-25702709D01*
X287729458Y-25769044D01*
X287834506Y-25829489D01*
X287928482Y-25883529D01*
X288010494Y-25930651D01*
X288079649Y-25970341D01*
X288135053Y-26002085D01*
X288175815Y-26025368D01*
X288201040Y-26039679D01*
X288209835Y-26044501D01*
X288214808Y-26041756D01*
X288235832Y-26029759D01*
X288272287Y-26008817D01*
X288323083Y-25979560D01*
X288387130Y-25942620D01*
X288463341Y-25898626D01*
X288550625Y-25848209D01*
X288647894Y-25792000D01*
X288754058Y-25730630D01*
X288868029Y-25664728D01*
X288988717Y-25594925D01*
X289115033Y-25521853D01*
X289245888Y-25446140D01*
X289380193Y-25368419D01*
X289516859Y-25289319D01*
X289654796Y-25209471D01*
X289792915Y-25129505D01*
X289930128Y-25050052D01*
X290065345Y-24971743D01*
X290197477Y-24895208D01*
X290325435Y-24821077D01*
X290448130Y-24749982D01*
X290564472Y-24682552D01*
X290673373Y-24619419D01*
X290773743Y-24561212D01*
X290864493Y-24508563D01*
X290944535Y-24462101D01*
X291012779Y-24422457D01*
X291068135Y-24390263D01*
X291109515Y-24366147D01*
X291135830Y-24350742D01*
X291145990Y-24344677D01*
X291147281Y-24343626D01*
X291148617Y-24341046D01*
X291147672Y-24337452D01*
X291143694Y-24332397D01*
X291135929Y-24325430D01*
X291123625Y-24316103D01*
X291106031Y-24303969D01*
X291082392Y-24288577D01*
X291051958Y-24269480D01*
X291013975Y-24246229D01*
X290967691Y-24218376D01*
X290912353Y-24185471D01*
X290847209Y-24147066D01*
X290771507Y-24102712D01*
X290684494Y-24051962D01*
X290585417Y-23994365D01*
X290473525Y-23929474D01*
X290348064Y-23856841D01*
X290208282Y-23776015D01*
X290053427Y-23686549D01*
X289882746Y-23587995D01*
X289695486Y-23479903D01*
X289673899Y-23467444D01*
X289515940Y-23376335D01*
X289362679Y-23288030D01*
X289215017Y-23203043D01*
X289073855Y-23121891D01*
X288940094Y-23045088D01*
X288814636Y-22973148D01*
X288698382Y-22906588D01*
X288592232Y-22845922D01*
X288497088Y-22791665D01*
X288413852Y-22744333D01*
X288343423Y-22704441D01*
X288286704Y-22672503D01*
X288244596Y-22649035D01*
X288217999Y-22634551D01*
X288207816Y-22629568D01*
X288207426Y-22629653D01*
X288194949Y-22635842D01*
X288166185Y-22651465D01*
X288122033Y-22676007D01*
X288063394Y-22708954D01*
X287991170Y-22749792D01*
X287906262Y-22798005D01*
X287809570Y-22853081D01*
X287701995Y-22914503D01*
X287584439Y-22981759D01*
X287457802Y-23054334D01*
X287322985Y-23131713D01*
X287180890Y-23213381D01*
X287032417Y-23298826D01*
X286878467Y-23387532D01*
X286719941Y-23478985D01*
X286594474Y-23551428D01*
X286408933Y-23658640D01*
X286239786Y-23756494D01*
X286086439Y-23845341D01*
X285948295Y-23925532D01*
X285824760Y-23997419D01*
X285715239Y-24061351D01*
X285619138Y-24117681D01*
X285535862Y-24166760D01*
X285464814Y-24208937D01*
X285405402Y-24244565D01*
X285357029Y-24273994D01*
X285319101Y-24297575D01*
X285291023Y-24315660D01*
X285272201Y-24328598D01*
X285262038Y-24336743D01*
X285259941Y-24340443D01*
X285127435Y-24340443D01*
X285127435Y-24314949D01*
X285164935Y-24290785D01*
X285175404Y-24284270D01*
X285205168Y-24266405D01*
X285249857Y-24240020D01*
X285308396Y-24205734D01*
X285379710Y-24164163D01*
X285462724Y-24115925D01*
X285556364Y-24061637D01*
X285659553Y-24001916D01*
X285771218Y-23937381D01*
X285890283Y-23868647D01*
X286015674Y-23796333D01*
X286146315Y-23721056D01*
X286281132Y-23643434D01*
X286419051Y-23564082D01*
X286558995Y-23483620D01*
X286699890Y-23402664D01*
X286840661Y-23321832D01*
X286980234Y-23241740D01*
X287117533Y-23163007D01*
X287251483Y-23086249D01*
X287381010Y-23012085D01*
X287505039Y-22941130D01*
X287622494Y-22874003D01*
X287732302Y-22811322D01*
X287833386Y-22753702D01*
X287924673Y-22701762D01*
X288005087Y-22656120D01*
X288073553Y-22617391D01*
X288128996Y-22586195D01*
X288170342Y-22563147D01*
X288196516Y-22548865D01*
X288206442Y-22543968D01*
X288207535Y-22544356D01*
X288222171Y-22551941D01*
X288252754Y-22568747D01*
X288298214Y-22594158D01*
X288357479Y-22627558D01*
X288429478Y-22668331D01*
X288513140Y-22715862D01*
X288607393Y-22769535D01*
X288711166Y-22828734D01*
X288823387Y-22892843D01*
X288942987Y-22961247D01*
X289068892Y-23033329D01*
X289200033Y-23108475D01*
X289335337Y-23186067D01*
X289473733Y-23265491D01*
X289614151Y-23346131D01*
X289755519Y-23427370D01*
X289896765Y-23508594D01*
X290036819Y-23589185D01*
X290174609Y-23668530D01*
X290309063Y-23746011D01*
X290439112Y-23821013D01*
X290563682Y-23892921D01*
X290681704Y-23961118D01*
X290792105Y-24024989D01*
X290893815Y-24083918D01*
X290985762Y-24137288D01*
X291066875Y-24184486D01*
X291136083Y-24224894D01*
X291192314Y-24257896D01*
X291234497Y-24282878D01*
X291261562Y-24299223D01*
X291272435Y-24306316D01*
X291274376Y-24314663D01*
X291276563Y-24341046D01*
X291276682Y-24342481D01*
X291278874Y-24388949D01*
X291280933Y-24453320D01*
X291282838Y-24534844D01*
X291284570Y-24632772D01*
X291286109Y-24746355D01*
X291287435Y-24874844D01*
X291292435Y-25434034D01*
X291447255Y-25344535D01*
X291492092Y-25318892D01*
X291537806Y-25293376D01*
X291575267Y-25273152D01*
X291601478Y-25259833D01*
X291613442Y-25255035D01*
X291615533Y-25255944D01*
X291632395Y-25264996D01*
X291665313Y-25283343D01*
X291713407Y-25310478D01*
X291775795Y-25345898D01*
X291851598Y-25389097D01*
X291939935Y-25439571D01*
X292039923Y-25496815D01*
X292150684Y-25560323D01*
X292271335Y-25629591D01*
X292400996Y-25704114D01*
X292538786Y-25783388D01*
X292683825Y-25866906D01*
X292835231Y-25954164D01*
X292992124Y-26044658D01*
X293153622Y-26137883D01*
X294682435Y-27020730D01*
X294682680Y-27044340D01*
X294683402Y-27114046D01*
X294685104Y-27278332D01*
G37*
G36*
X293119935Y-26899640D02*
G01*
X293118840Y-26900332D01*
X293102449Y-26910141D01*
X293070522Y-26928887D01*
X293024608Y-26955677D01*
X292966252Y-26989618D01*
X292897003Y-27029816D01*
X292818407Y-27075377D01*
X292732012Y-27125409D01*
X292639366Y-27179017D01*
X292542016Y-27235308D01*
X292441509Y-27293389D01*
X292339393Y-27352366D01*
X292237214Y-27411346D01*
X292136521Y-27469435D01*
X292038861Y-27525740D01*
X291945780Y-27579368D01*
X291858827Y-27629424D01*
X291779548Y-27675016D01*
X291709492Y-27715249D01*
X291650205Y-27749231D01*
X291603235Y-27776068D01*
X291570130Y-27794867D01*
X291552435Y-27804734D01*
X291528595Y-27815621D01*
X291495384Y-27822907D01*
X291452435Y-27823191D01*
X291439652Y-27822340D01*
X291423605Y-27820212D01*
X291406586Y-27816018D01*
X291386557Y-27808758D01*
X291361480Y-27797429D01*
X291329316Y-27781032D01*
X291288027Y-27758564D01*
X291235574Y-27729025D01*
X291169918Y-27691414D01*
X291089021Y-27644729D01*
X291034522Y-27613013D01*
X290963611Y-27571094D01*
X290898035Y-27531608D01*
X290840206Y-27496042D01*
X290792537Y-27465886D01*
X290757438Y-27442627D01*
X290737323Y-27427753D01*
X290708460Y-27399991D01*
X290666295Y-27341029D01*
X290641927Y-27273975D01*
X290634526Y-27196966D01*
X290636861Y-27164877D01*
X290882157Y-27164877D01*
X290888540Y-27229158D01*
X290914165Y-27288330D01*
X290959059Y-27342617D01*
X290970676Y-27351898D01*
X290999558Y-27371758D01*
X291040974Y-27398375D01*
X291092109Y-27429984D01*
X291150147Y-27464823D01*
X291212270Y-27501130D01*
X291260262Y-27528762D01*
X291318431Y-27562151D01*
X291370009Y-27591646D01*
X291412316Y-27615716D01*
X291442670Y-27632833D01*
X291458389Y-27641468D01*
X291462566Y-27643291D01*
X291468748Y-27644439D01*
X291477043Y-27643722D01*
X291488618Y-27640513D01*
X291504644Y-27634183D01*
X291526289Y-27624105D01*
X291554722Y-27609652D01*
X291591113Y-27590197D01*
X291636630Y-27565111D01*
X291692443Y-27533768D01*
X291759720Y-27495541D01*
X291839631Y-27449800D01*
X291933345Y-27395921D01*
X292042031Y-27333273D01*
X292166858Y-27261231D01*
X292199867Y-27242173D01*
X292305610Y-27181093D01*
X292405880Y-27123135D01*
X292499360Y-27069061D01*
X292584734Y-27019636D01*
X292660684Y-26975622D01*
X292725893Y-26937784D01*
X292779044Y-26906886D01*
X292818820Y-26883690D01*
X292843903Y-26868960D01*
X292852977Y-26863460D01*
X292852733Y-26862929D01*
X292841585Y-26854974D01*
X292815686Y-26838707D01*
X292777164Y-26815403D01*
X292728142Y-26786337D01*
X292670746Y-26752783D01*
X292607102Y-26716017D01*
X292583734Y-26702605D01*
X292500773Y-26655429D01*
X292431352Y-26617268D01*
X292372545Y-26587165D01*
X292321429Y-26564167D01*
X292275078Y-26547318D01*
X292230567Y-26535665D01*
X292184972Y-26528253D01*
X292135369Y-26524126D01*
X292078831Y-26522330D01*
X292012435Y-26521911D01*
X291980183Y-26521962D01*
X291914225Y-26522828D01*
X291861256Y-26525050D01*
X291816326Y-26529012D01*
X291774487Y-26535096D01*
X291730792Y-26543685D01*
X291725812Y-26544764D01*
X291585487Y-26581067D01*
X291453015Y-26626577D01*
X291330119Y-26680250D01*
X291218521Y-26741046D01*
X291119942Y-26807921D01*
X291036106Y-26879835D01*
X290968734Y-26955743D01*
X290919548Y-27034606D01*
X290894986Y-27095266D01*
X290882157Y-27164877D01*
X290636861Y-27164877D01*
X290638912Y-27136689D01*
X290654451Y-27072246D01*
X290683068Y-27008054D01*
X290726703Y-26938681D01*
X290797366Y-26852595D01*
X290887303Y-26768425D01*
X290992924Y-26689389D01*
X291112164Y-26616521D01*
X291242961Y-26550853D01*
X291383251Y-26493420D01*
X291530971Y-26445254D01*
X291684058Y-26407390D01*
X291840448Y-26380860D01*
X291844392Y-26380351D01*
X291977184Y-26368378D01*
X292106677Y-26366448D01*
X292229910Y-26374251D01*
X292343922Y-26391480D01*
X292445751Y-26417825D01*
X292532435Y-26452978D01*
X292532822Y-26453174D01*
X292557840Y-26466461D01*
X292595720Y-26487372D01*
X292643939Y-26514448D01*
X292699976Y-26546233D01*
X292761307Y-26581271D01*
X292825412Y-26618105D01*
X292889768Y-26655277D01*
X292951853Y-26691332D01*
X293009145Y-26724812D01*
X293059121Y-26754261D01*
X293099259Y-26778222D01*
X293127038Y-26795239D01*
X293139935Y-26803854D01*
X293151489Y-26820782D01*
X293157435Y-26847070D01*
X293156242Y-26859366D01*
X293154048Y-26863460D01*
X293145469Y-26879469D01*
X293119935Y-26899640D01*
G37*
G36*
X302132375Y-30019994D02*
G01*
X302219701Y-30029691D01*
X302319098Y-30048522D01*
X302429277Y-30076429D01*
X302541150Y-30111923D01*
X302657025Y-30158266D01*
X302760034Y-30210234D01*
X302847832Y-30266628D01*
X302918076Y-30326252D01*
X302925349Y-30333625D01*
X302974463Y-30389953D01*
X303007219Y-30442620D01*
X303025455Y-30495296D01*
X303031010Y-30551651D01*
X303028078Y-30592745D01*
X303013077Y-30644592D01*
X302983311Y-30692535D01*
X302936507Y-30741131D01*
X302889438Y-30778320D01*
X302802870Y-30827882D01*
X302702948Y-30865883D01*
X302592020Y-30891497D01*
X302472435Y-30903903D01*
X302472012Y-30903922D01*
X302366542Y-30904220D01*
X302265112Y-30894819D01*
X302164105Y-30874811D01*
X302059902Y-30843288D01*
X301948885Y-30799343D01*
X301827435Y-30742066D01*
X301808175Y-30732447D01*
X301723973Y-30692240D01*
X301651679Y-30661584D01*
X301587335Y-30639246D01*
X301526985Y-30623997D01*
X301466671Y-30614605D01*
X301402435Y-30609838D01*
X301394473Y-30609524D01*
X301307276Y-30610189D01*
X301231475Y-30619947D01*
X301160551Y-30640086D01*
X301087983Y-30671892D01*
X301021351Y-30710421D01*
X300966343Y-30754896D01*
X300930595Y-30801318D01*
X300914346Y-30849372D01*
X300917834Y-30898739D01*
X300919857Y-30905430D01*
X300943228Y-30950436D01*
X300983371Y-30998898D01*
X301038164Y-31049047D01*
X301105487Y-31099113D01*
X301183217Y-31147326D01*
X301269236Y-31191918D01*
X301320046Y-31215114D01*
X301403845Y-31248973D01*
X301484291Y-31274666D01*
X301567191Y-31293670D01*
X301658350Y-31307459D01*
X301763575Y-31317508D01*
X301775257Y-31318427D01*
X301825864Y-31323149D01*
X301869485Y-31328363D01*
X301901796Y-31333499D01*
X301918471Y-31337984D01*
X301931290Y-31350867D01*
X301937435Y-31381249D01*
X301931570Y-31411649D01*
X301910715Y-31436502D01*
X301872435Y-31455986D01*
X301853570Y-31459934D01*
X301814584Y-31463091D01*
X301760071Y-31464412D01*
X301692435Y-31463794D01*
X301663119Y-31463028D01*
X301595817Y-31459858D01*
X301538367Y-31454383D01*
X301483414Y-31445766D01*
X301423604Y-31433167D01*
X301300764Y-31401078D01*
X301170726Y-31357805D01*
X301051862Y-31308030D01*
X300945637Y-31252616D01*
X300853512Y-31192428D01*
X300776954Y-31128332D01*
X300717424Y-31061191D01*
X300676388Y-30991869D01*
X300655860Y-30931824D01*
X300651013Y-30873204D01*
X300662280Y-30811277D01*
X300663832Y-30806044D01*
X300674959Y-30775692D01*
X300690163Y-30749157D01*
X300713211Y-30720899D01*
X300747867Y-30685382D01*
X300782333Y-30654337D01*
X300868152Y-30594403D01*
X300967543Y-30544370D01*
X301077487Y-30505033D01*
X301194966Y-30477188D01*
X301316963Y-30461632D01*
X301440459Y-30459159D01*
X301562435Y-30470567D01*
X301593386Y-30475614D01*
X301676127Y-30492249D01*
X301754383Y-30513518D01*
X301833345Y-30541168D01*
X301918205Y-30576944D01*
X302014154Y-30622596D01*
X302089597Y-30659541D01*
X302152355Y-30688985D01*
X302204301Y-30711449D01*
X302248856Y-30728217D01*
X302289438Y-30740573D01*
X302329468Y-30749803D01*
X302372362Y-30757190D01*
X302396072Y-30760113D01*
X302474883Y-30761035D01*
X302552432Y-30749690D01*
X302624383Y-30727312D01*
X302686399Y-30695131D01*
X302734144Y-30654382D01*
X302750934Y-30634041D01*
X302768967Y-30603600D01*
X302773968Y-30574203D01*
X302767944Y-30539005D01*
X302752734Y-30503398D01*
X302717868Y-30456104D01*
X302667667Y-30407885D01*
X302604464Y-30360655D01*
X302530594Y-30316328D01*
X302448388Y-30276820D01*
X302430094Y-30269139D01*
X302374011Y-30247371D01*
X302318561Y-30229144D01*
X302258616Y-30213036D01*
X302189045Y-30197622D01*
X302104720Y-30181481D01*
X302098719Y-30180378D01*
X302048442Y-30170202D01*
X302004064Y-30159666D01*
X301970199Y-30149952D01*
X301951463Y-30142242D01*
X301943489Y-30135735D01*
X301929204Y-30109710D01*
X301929487Y-30079946D01*
X301944935Y-30054468D01*
X301955719Y-30046291D01*
X301999095Y-30028236D01*
X302058410Y-30019489D01*
X302132375Y-30019994D01*
G37*
X187755310Y-24622155D02*
G75*
G03*
X187755310Y-24622155I-1200000J0D01*
G01*
X205614685Y-24622155D02*
G75*
G03*
X205614685Y-24622155I-1200000J0D01*
G01*
X227045935Y-24622155D02*
G75*
G03*
X227045935Y-24622155I-1200000J0D01*
G01*
X63730310Y-55447155D02*
X63730310Y-51547155D01*
X61730310Y-55447155D02*
X61730310Y-51547155D01*
X63730310Y-55447155D02*
X61730310Y-55447155D01*
X61730310Y-55447155D02*
X61730310Y-55737155D01*
X61730310Y-55737155D02*
X63730310Y-55737155D01*
X63730310Y-55737155D02*
X63730310Y-55447155D01*
G36*
X63730310Y-55447155D02*
G01*
X61730310Y-55447155D01*
X61730310Y-55737155D01*
X63730310Y-55737155D01*
X63730310Y-55447155D01*
G37*
G36*
X62730310Y-53832155D02*
G01*
X61968310Y-52689155D01*
X63492310Y-52689155D01*
X62730310Y-53832155D01*
G37*
X62730310Y-53832155D02*
X61968310Y-52689155D01*
X63492310Y-52689155D01*
X62730310Y-53832155D01*
X176030310Y-75501280D02*
X176030310Y-71601280D01*
X178030310Y-75501280D02*
X178030310Y-71601280D01*
X178030310Y-75501280D02*
X176030310Y-75501280D01*
X176030310Y-75501280D02*
X176030310Y-75791280D01*
X176030310Y-75791280D02*
X178030310Y-75791280D01*
X178030310Y-75791280D02*
X178030310Y-75501280D01*
G36*
X178030310Y-75501280D02*
G01*
X176030310Y-75501280D01*
X176030310Y-75791280D01*
X178030310Y-75791280D01*
X178030310Y-75501280D01*
G37*
G36*
X177030310Y-73886280D02*
G01*
X176268310Y-72743280D01*
X177792310Y-72743280D01*
X177030310Y-73886280D01*
G37*
X177030310Y-73886280D02*
X176268310Y-72743280D01*
X177792310Y-72743280D01*
X177030310Y-73886280D01*
X110364685Y-24622155D02*
G75*
G03*
X110364685Y-24622155I-1200000J0D01*
G01*
X202042810Y-24622155D02*
G75*
G03*
X202042810Y-24622155I-1200000J0D01*
G01*
X173949060Y-94597155D02*
X173949060Y-90697155D01*
X171949060Y-94597155D02*
X171949060Y-90697155D01*
X173949060Y-94597155D02*
X171949060Y-94597155D01*
X171949060Y-94597155D02*
X171949060Y-94887155D01*
X171949060Y-94887155D02*
X173949060Y-94887155D01*
X173949060Y-94887155D02*
X173949060Y-94597155D01*
G36*
X173949060Y-94597155D02*
G01*
X171949060Y-94597155D01*
X171949060Y-94887155D01*
X173949060Y-94887155D01*
X173949060Y-94597155D01*
G37*
G36*
X172949060Y-92982155D02*
G01*
X172187060Y-91839155D01*
X173711060Y-91839155D01*
X172949060Y-92982155D01*
G37*
X172949060Y-92982155D02*
X172187060Y-91839155D01*
X173711060Y-91839155D01*
X172949060Y-92982155D01*
X223474060Y-24622155D02*
G75*
G03*
X223474060Y-24622155I-1200000J0D01*
G01*
%LPC*%
D15*
X305362971Y-60221812D02*
X303562971Y-60221812D01*
X303562971Y-60221812D02*
X303562971Y-69521812D01*
X303562971Y-69521812D02*
X305362971Y-69521812D01*
X305362971Y-69521812D02*
X305362971Y-60221812D01*
G36*
X305362971Y-60221812D02*
G01*
X303562971Y-60221812D01*
X303562971Y-69521812D01*
X305362971Y-69521812D01*
X305362971Y-60221812D01*
G37*
X22503899Y-60221812D02*
X24303899Y-60221812D01*
X24303899Y-60221812D02*
X24303899Y-69521812D01*
X24303899Y-69521812D02*
X22503899Y-69521812D01*
X22503899Y-69521812D02*
X22503899Y-60221812D01*
G36*
X22503899Y-60221812D02*
G01*
X24303899Y-60221812D01*
X24303899Y-69521812D01*
X22503899Y-69521812D01*
X22503899Y-60221812D01*
G37*
D16*
X193699060Y-24133530D03*
D17*
X188063435Y-87725280D03*
X177903435Y-87725280D03*
D18*
X182983435Y-87725280D03*
D19*
X179173435Y-85185280D03*
X185523435Y-82645280D03*
D20*
X281408435Y-49251780D03*
D21*
X22603899Y-58921812D03*
D22*
X46585435Y-49244280D03*
D21*
X24203899Y-58921812D03*
X303662971Y-58921812D03*
X305262971Y-58921812D03*
D17*
X216638435Y-49625280D03*
X206478435Y-49625280D03*
D18*
X211558435Y-49625280D03*
D19*
X207748435Y-47085280D03*
X214098435Y-44545280D03*
D17*
X197588435Y-68675280D03*
D18*
X192508435Y-68675280D03*
D17*
X187428435Y-68675280D03*
D19*
X188698435Y-66135280D03*
X195048435Y-63595280D03*
D18*
X135358435Y-68700320D03*
D17*
X140438435Y-68700320D03*
X130278435Y-68700320D03*
D19*
X131548435Y-66160320D03*
X137898435Y-63620320D03*
D18*
X173458435Y-68675280D03*
D17*
X168378435Y-68675280D03*
X178538435Y-68675280D03*
D19*
X169648435Y-66135280D03*
X175998435Y-63595280D03*
D17*
X159488435Y-68675280D03*
X149328435Y-68675280D03*
D18*
X154408435Y-68675280D03*
D19*
X150598435Y-66135280D03*
X156948435Y-63595280D03*
D18*
X37727185Y-49625280D03*
D17*
X42807185Y-49625280D03*
X32647185Y-49625280D03*
D19*
X33917185Y-47085280D03*
X40267185Y-44545280D03*
D17*
X263628435Y-49625280D03*
D18*
X268708435Y-49625280D03*
D17*
X273788435Y-49625280D03*
D19*
X264898435Y-47085280D03*
X271248435Y-44545280D03*
D16*
X144883435Y-55578405D03*
X40108435Y-31765905D03*
X136549060Y-24133530D03*
D18*
X116308435Y-49625280D03*
D17*
X111228435Y-49625280D03*
X121388435Y-49625280D03*
D19*
X112498435Y-47085280D03*
X118848435Y-44545280D03*
D16*
X97258435Y-31765905D03*
D17*
X149963435Y-87725280D03*
D18*
X144883435Y-87725280D03*
D17*
X139803435Y-87725280D03*
D19*
X141073435Y-85185280D03*
X147423435Y-82645280D03*
D16*
X182983435Y-55578405D03*
X230608435Y-31765905D03*
D18*
X163933435Y-87725280D03*
D17*
X169013435Y-87725280D03*
X158853435Y-87725280D03*
D19*
X160123435Y-85185280D03*
X166473435Y-82645280D03*
D18*
X35345935Y-49625280D03*
D17*
X30265935Y-49625280D03*
X40425935Y-49625280D03*
D19*
X31535935Y-47085280D03*
X37885935Y-44545280D03*
D17*
X64238435Y-49625280D03*
X54078435Y-49625280D03*
D18*
X59158435Y-49625280D03*
D19*
X55348435Y-47085280D03*
X61698435Y-44545280D03*
D23*
X158408435Y-91225280D03*
X169458435Y-87725280D03*
D24*
X166933435Y-90725280D03*
D23*
X158408435Y-84225280D03*
D18*
X292520935Y-49625280D03*
D17*
X297600935Y-49625280D03*
X287440935Y-49625280D03*
D19*
X288710935Y-47085280D03*
X295060935Y-44545280D03*
D16*
X287758435Y-31765905D03*
X78208435Y-31765905D03*
D25*
X201652185Y-48744030D03*
D26*
X199852185Y-49244030D03*
D25*
X201652185Y-47744030D03*
D26*
X197952185Y-48244030D03*
D25*
X201652185Y-46744030D03*
D26*
X197952185Y-46244030D03*
X199852185Y-45244030D03*
D25*
X201652185Y-45744030D03*
D27*
X197777185Y-44444030D03*
X197777185Y-50044030D03*
D28*
X52158435Y-54847155D03*
X52158435Y-51547155D03*
D29*
X182983435Y-24622155D03*
D16*
X303236560Y-24133530D03*
D29*
X102020935Y-24622155D03*
D28*
X215130310Y-54847155D03*
X215130310Y-51547155D03*
X296092810Y-54847155D03*
X296092810Y-51547155D03*
X173417810Y-79850280D03*
X173417810Y-76550280D03*
D16*
X202033435Y-55625280D03*
D28*
X186555310Y-92947155D03*
X186555310Y-89647155D03*
D16*
X303236560Y-55587780D03*
X138930310Y-78200280D03*
D28*
X177030310Y-93997155D03*
X177030310Y-90697155D03*
X167505310Y-74901280D03*
X167505310Y-71601280D03*
X154408435Y-79850280D03*
X154408435Y-76550280D03*
X196080310Y-73897155D03*
X196080310Y-70597155D03*
X119880310Y-54847155D03*
X119880310Y-51547155D03*
D29*
X25820935Y-41290905D03*
D16*
X249658435Y-31765905D03*
D28*
X142502185Y-74897280D03*
X142502185Y-71597280D03*
D16*
X188936560Y-78200280D03*
D28*
X148455310Y-92947155D03*
X148455310Y-89647155D03*
D29*
X105592810Y-24622155D03*
D16*
X24630310Y-55587780D03*
D29*
X25820935Y-37719030D03*
X218702185Y-24622155D03*
D28*
X272280310Y-54847155D03*
X272280310Y-51547155D03*
X162742810Y-73880280D03*
X162742810Y-70580280D03*
D16*
X163933435Y-24133530D03*
X125833435Y-55578405D03*
X24630310Y-24133530D03*
D30*
X126214685Y-45744030D03*
D26*
X128014685Y-45244030D03*
X129914685Y-46244030D03*
D30*
X126214685Y-46744030D03*
D26*
X129914685Y-48244030D03*
D30*
X126214685Y-47744030D03*
D26*
X128014685Y-49244030D03*
D30*
X126214685Y-48744030D03*
D31*
X130089685Y-50044030D03*
X130089685Y-44444030D03*
D28*
X157980310Y-73880280D03*
X157980310Y-70580280D03*
D25*
X201652185Y-38028405D03*
D26*
X199852185Y-38528405D03*
X197952185Y-37528405D03*
D25*
X201652185Y-37028405D03*
X201652185Y-36028405D03*
D26*
X197952185Y-35528405D03*
D25*
X201652185Y-35028405D03*
D26*
X199852185Y-34528405D03*
D27*
X197777185Y-33728405D03*
X197777185Y-39328405D03*
D29*
X186555310Y-24622155D03*
X204414685Y-24622155D03*
X225845935Y-24622155D03*
D28*
X62730310Y-54847155D03*
X62730310Y-51547155D03*
X177030310Y-74901280D03*
X177030310Y-71601280D03*
D29*
X109164685Y-24622155D03*
X200842810Y-24622155D03*
D28*
X172949060Y-93997155D03*
X172949060Y-90697155D03*
D29*
X222274060Y-24622155D03*
M02*
