G04 #@! TF.GenerationSoftware,KiCad,Pcbnew,(6.0.10-0)*
G04 #@! TF.CreationDate,2023-02-21T06:01:42+09:00*
G04 #@! TF.ProjectId,Sandy_Middle,53616e64-795f-44d6-9964-646c652e6b69,v.0*
G04 #@! TF.SameCoordinates,Original*
G04 #@! TF.FileFunction,Soldermask,Top*
G04 #@! TF.FilePolarity,Negative*
%FSLAX46Y46*%
G04 Gerber Fmt 4.6, Leading zero omitted, Abs format (unit mm)*
G04 Created by KiCad (PCBNEW (6.0.10-0)) date 2023-02-21 06:01:42*
%MOMM*%
%LPD*%
G01*
G04 APERTURE LIST*
G04 Aperture macros list*
%AMRoundRect*
0 Rectangle with rounded corners*
0 $1 Rounding radius*
0 $2 $3 $4 $5 $6 $7 $8 $9 X,Y pos of 4 corners*
0 Add a 4 corners polygon primitive as box body*
4,1,4,$2,$3,$4,$5,$6,$7,$8,$9,$2,$3,0*
0 Add four circle primitives for the rounded corners*
1,1,$1+$1,$2,$3*
1,1,$1+$1,$4,$5*
1,1,$1+$1,$6,$7*
1,1,$1+$1,$8,$9*
0 Add four rect primitives between the rounded corners*
20,1,$1+$1,$2,$3,$4,$5,0*
20,1,$1+$1,$4,$5,$6,$7,0*
20,1,$1+$1,$6,$7,$8,$9,0*
20,1,$1+$1,$8,$9,$2,$3,0*%
G04 Aperture macros list end*
%ADD10C,1.000000*%
%ADD11C,4.800000*%
%ADD12C,2.150000*%
%ADD13C,4.387800*%
%ADD14O,8.781998X5.734000*%
%ADD15C,1.000000*%
%ADD16C,6.496000*%
%ADD17O,1.850000X4.400000*%
%ADD18C,2.000000*%
%ADD19RoundRect,0.200000X-0.950000X1.000000X-0.950000X-1.000000X0.950000X-1.000000X0.950000X1.000000X0*%
%ADD20O,2.100000X2.100000*%
%ADD21C,2.400000*%
G04 APERTURE END LIST*
D10*
X22503899Y-60221812D02*
X24303899Y-60221812D01*
X24303899Y-60221812D02*
X24303899Y-69521812D01*
X24303899Y-69521812D02*
X22503899Y-69521812D01*
X22503899Y-69521812D02*
X22503899Y-60221812D01*
G36*
X22503899Y-60221812D02*
G01*
X24303899Y-60221812D01*
X24303899Y-69521812D01*
X22503899Y-69521812D01*
X22503899Y-60221812D01*
G37*
X305362971Y-60221812D02*
X303562971Y-60221812D01*
X303562971Y-60221812D02*
X303562971Y-69521812D01*
X303562971Y-69521812D02*
X305362971Y-69521812D01*
X305362971Y-69521812D02*
X305362971Y-60221812D01*
G36*
X305362971Y-60221812D02*
G01*
X303562971Y-60221812D01*
X303562971Y-69521812D01*
X305362971Y-69521812D01*
X305362971Y-60221812D01*
G37*
D11*
X193699060Y-24133530D03*
D12*
X188063435Y-87725280D03*
X177903435Y-87725280D03*
D13*
X182983435Y-87725280D03*
D14*
X281408435Y-49251780D03*
D15*
X22603899Y-58921812D03*
D16*
X46585435Y-49244280D03*
D15*
X24203899Y-58921812D03*
X303662971Y-58921812D03*
X305262971Y-58921812D03*
D12*
X216638435Y-49625280D03*
X206478435Y-49625280D03*
D13*
X211558435Y-49625280D03*
D12*
X197588435Y-68675280D03*
D13*
X192508435Y-68675280D03*
D12*
X187428435Y-68675280D03*
D13*
X135358435Y-68700320D03*
D12*
X140438435Y-68700320D03*
X130278435Y-68700320D03*
D13*
X173458435Y-68675280D03*
D12*
X168378435Y-68675280D03*
X178538435Y-68675280D03*
X159488435Y-68675280D03*
X149328435Y-68675280D03*
D13*
X154408435Y-68675280D03*
X37727185Y-49625280D03*
D12*
X42807185Y-49625280D03*
X32647185Y-49625280D03*
X263628435Y-49625280D03*
D13*
X268708435Y-49625280D03*
D12*
X273788435Y-49625280D03*
D11*
X144883435Y-55578405D03*
X40108435Y-31765905D03*
X136549060Y-24133530D03*
D13*
X116308435Y-49625280D03*
D12*
X111228435Y-49625280D03*
X121388435Y-49625280D03*
D11*
X97258435Y-31765905D03*
D12*
X149963435Y-87725280D03*
D13*
X144883435Y-87725280D03*
D12*
X139803435Y-87725280D03*
D11*
X182983435Y-55578405D03*
X230608435Y-31765905D03*
D13*
X163933435Y-87725280D03*
D12*
X169013435Y-87725280D03*
X158853435Y-87725280D03*
D13*
X35345935Y-49625280D03*
D12*
X30265935Y-49625280D03*
X40425935Y-49625280D03*
X64238435Y-49625280D03*
X54078435Y-49625280D03*
D13*
X59158435Y-49625280D03*
D17*
X158408435Y-91225280D03*
X169458435Y-87725280D03*
D18*
X166933435Y-90725280D03*
D17*
X158408435Y-84225280D03*
D19*
X167933435Y-80225280D03*
X163933435Y-80225280D03*
X159933435Y-80225280D03*
X167933435Y-95225280D03*
X163933435Y-95225280D03*
X159933435Y-95225280D03*
D13*
X292520935Y-49625280D03*
D12*
X297600935Y-49625280D03*
X287440935Y-49625280D03*
D11*
X287758435Y-31765905D03*
X78208435Y-31765905D03*
D20*
X199852185Y-49244030D03*
X197952185Y-48244030D03*
X197952185Y-46244030D03*
X199852185Y-45244030D03*
D21*
X182983435Y-24622155D03*
D11*
X303236560Y-24133530D03*
D21*
X102020935Y-24622155D03*
D11*
X202033435Y-55625280D03*
X303236560Y-55587780D03*
X138930310Y-78200280D03*
D21*
X25820935Y-41290905D03*
D11*
X249658435Y-31765905D03*
X188936560Y-78200280D03*
D21*
X105592810Y-24622155D03*
D11*
X24630310Y-55587780D03*
D21*
X25820935Y-37719030D03*
X218702185Y-24622155D03*
D11*
X163933435Y-24133530D03*
X125833435Y-55578405D03*
X24630310Y-24133530D03*
D20*
X128014685Y-45244030D03*
X129914685Y-46244030D03*
X129914685Y-48244030D03*
X128014685Y-49244030D03*
X199852185Y-38528405D03*
X197952185Y-37528405D03*
X197952185Y-35528405D03*
X199852185Y-34528405D03*
D21*
X186555310Y-24622155D03*
X204414685Y-24622155D03*
X225845935Y-24622155D03*
X109164685Y-24622155D03*
X200842810Y-24622155D03*
X222274060Y-24622155D03*
M02*
