%TF.GenerationSoftware,KiCad,Pcbnew,7.0.1-0*%
%TF.CreationDate,2023-05-14T12:25:02+09:00*%
%TF.ProjectId,Sandy_Middle,53616e64-795f-44d6-9964-646c652e6b69,v.0*%
%TF.SameCoordinates,Original*%
%TF.FileFunction,Drillmap*%
%TF.FilePolarity,Positive*%
%FSLAX45Y45*%
G04 Gerber Fmt 4.5, Leading zero omitted, Abs format (unit mm)*
G04 Created by KiCad (PCBNEW 7.0.1-0) date 2023-05-14 12:25:02*
%MOMM*%
%LPD*%
G01*
G04 APERTURE LIST*
%ADD10C,0.200000*%
%ADD11C,0.175000*%
%ADD12C,0.300000*%
%ADD13C,0.398780*%
%ADD14C,0.609600*%
G04 APERTURE END LIST*
D10*
D11*
X2939093Y-4875028D02*
X3114093Y-5050028D01*
X3114093Y-4875028D02*
X2939093Y-5050028D01*
X3955093Y-4875028D02*
X4130093Y-5050028D01*
X4130093Y-4875028D02*
X3955093Y-5050028D01*
X5320344Y-4875028D02*
X5495344Y-5050028D01*
X5495344Y-4875028D02*
X5320344Y-5050028D01*
X6336343Y-4875028D02*
X6511343Y-5050028D01*
X6511343Y-4875028D02*
X6336343Y-5050028D01*
X11035344Y-4875028D02*
X11210343Y-5050028D01*
X11210343Y-4875028D02*
X11035344Y-5050028D01*
X12051343Y-4875028D02*
X12226343Y-5050028D01*
X12226343Y-4875028D02*
X12051343Y-5050028D01*
X12940343Y-6782532D02*
X13115343Y-6957532D01*
X13115343Y-6782532D02*
X12940343Y-6957532D01*
X13892843Y-8685028D02*
X14067843Y-8860028D01*
X14067843Y-8685028D02*
X13892843Y-8860028D01*
X13956343Y-6782532D02*
X14131343Y-6957532D01*
X14131343Y-6782532D02*
X13956343Y-6957532D01*
X14845343Y-6780028D02*
X15020343Y-6955028D01*
X15020343Y-6780028D02*
X14845343Y-6955028D01*
X14908843Y-8685028D02*
X15083843Y-8860028D01*
X15083843Y-8685028D02*
X14908843Y-8860028D01*
X15797843Y-8685028D02*
X15972843Y-8860028D01*
X15972843Y-8685028D02*
X15797843Y-8860028D01*
X15861343Y-6780028D02*
X16036343Y-6955028D01*
X16036343Y-6780028D02*
X15861343Y-6955028D01*
X16750343Y-6780028D02*
X16925344Y-6955028D01*
X16925344Y-6780028D02*
X16750343Y-6955028D01*
X16813844Y-8685028D02*
X16988844Y-8860028D01*
X16988844Y-8685028D02*
X16813844Y-8860028D01*
X17702844Y-8685028D02*
X17877844Y-8860028D01*
X17877844Y-8685028D02*
X17702844Y-8860028D01*
X17766344Y-6780028D02*
X17941344Y-6955028D01*
X17941344Y-6780028D02*
X17766344Y-6955028D01*
X18655344Y-6780028D02*
X18830344Y-6955028D01*
X18830344Y-6780028D02*
X18655344Y-6955028D01*
X18718844Y-8685028D02*
X18893844Y-8860028D01*
X18893844Y-8685028D02*
X18718844Y-8860028D01*
X19671344Y-6780028D02*
X19846344Y-6955028D01*
X19846344Y-6780028D02*
X19671344Y-6955028D01*
X20560344Y-4875028D02*
X20735344Y-5050028D01*
X20735344Y-4875028D02*
X20560344Y-5050028D01*
X21576344Y-4875028D02*
X21751344Y-5050028D01*
X21751344Y-4875028D02*
X21576344Y-5050028D01*
X26275343Y-4875028D02*
X26450343Y-5050028D01*
X26450343Y-4875028D02*
X26275343Y-5050028D01*
X27291343Y-4875028D02*
X27466343Y-5050028D01*
X27466343Y-4875028D02*
X27291343Y-5050028D01*
X28656593Y-4875028D02*
X28831593Y-5050028D01*
X28831593Y-4875028D02*
X28656593Y-5050028D01*
X29672593Y-4875028D02*
X29847593Y-5050028D01*
X29847593Y-4875028D02*
X29672593Y-5050028D01*
D12*
X3303593Y-4708528D02*
G75*
G03*
X3303593Y-4708528I-150000J0D01*
G01*
X3938593Y-4454528D02*
G75*
G03*
X3938593Y-4454528I-150000J0D01*
G01*
X5684843Y-4708528D02*
G75*
G03*
X5684843Y-4708528I-150000J0D01*
G01*
X6319843Y-4454528D02*
G75*
G03*
X6319843Y-4454528I-150000J0D01*
G01*
X11399843Y-4708528D02*
G75*
G03*
X11399843Y-4708528I-150000J0D01*
G01*
X12034843Y-4454528D02*
G75*
G03*
X12034843Y-4454528I-150000J0D01*
G01*
X13304843Y-6616032D02*
G75*
G03*
X13304843Y-6616032I-150000J0D01*
G01*
X13939843Y-6362032D02*
G75*
G03*
X13939843Y-6362032I-150000J0D01*
G01*
X14257343Y-8518528D02*
G75*
G03*
X14257343Y-8518528I-150000J0D01*
G01*
X14892343Y-8264528D02*
G75*
G03*
X14892343Y-8264528I-150000J0D01*
G01*
X15209843Y-6613528D02*
G75*
G03*
X15209843Y-6613528I-150000J0D01*
G01*
X15844843Y-6359528D02*
G75*
G03*
X15844843Y-6359528I-150000J0D01*
G01*
X16162343Y-8518528D02*
G75*
G03*
X16162343Y-8518528I-150000J0D01*
G01*
X16797344Y-8264528D02*
G75*
G03*
X16797344Y-8264528I-150000J0D01*
G01*
X17114844Y-6613528D02*
G75*
G03*
X17114844Y-6613528I-150000J0D01*
G01*
X17749844Y-6359528D02*
G75*
G03*
X17749844Y-6359528I-150000J0D01*
G01*
X18067344Y-8518528D02*
G75*
G03*
X18067344Y-8518528I-150000J0D01*
G01*
X18702344Y-8264528D02*
G75*
G03*
X18702344Y-8264528I-150000J0D01*
G01*
X19019844Y-6613528D02*
G75*
G03*
X19019844Y-6613528I-150000J0D01*
G01*
X19654844Y-6359528D02*
G75*
G03*
X19654844Y-6359528I-150000J0D01*
G01*
X20924844Y-4708528D02*
G75*
G03*
X20924844Y-4708528I-150000J0D01*
G01*
X21559844Y-4454528D02*
G75*
G03*
X21559844Y-4454528I-150000J0D01*
G01*
X26639843Y-4708528D02*
G75*
G03*
X26639843Y-4708528I-150000J0D01*
G01*
X27274843Y-4454528D02*
G75*
G03*
X27274843Y-4454528I-150000J0D01*
G01*
X29021093Y-4708528D02*
G75*
G03*
X29021093Y-4708528I-150000J0D01*
G01*
X29656093Y-4454528D02*
G75*
G03*
X29656093Y-4454528I-150000J0D01*
G01*
D13*
X3534593Y-4763138D02*
X3534593Y-5161918D01*
X3335203Y-4962528D02*
X3733983Y-4962528D01*
X5915843Y-4763138D02*
X5915843Y-5161918D01*
X5716453Y-4962528D02*
X6115233Y-4962528D01*
X11630843Y-4763138D02*
X11630843Y-5161918D01*
X11431453Y-4962528D02*
X11830233Y-4962528D01*
X13535843Y-6670642D02*
X13535843Y-7069422D01*
X13336453Y-6870032D02*
X13735233Y-6870032D01*
X14488343Y-8573138D02*
X14488343Y-8971918D01*
X14288953Y-8772528D02*
X14687733Y-8772528D01*
X15440843Y-6668138D02*
X15440843Y-7066918D01*
X15241453Y-6867528D02*
X15640233Y-6867528D01*
X16393343Y-8573138D02*
X16393343Y-8971918D01*
X16193953Y-8772528D02*
X16592733Y-8772528D01*
X17345844Y-6668138D02*
X17345844Y-7066918D01*
X17146454Y-6867528D02*
X17545234Y-6867528D01*
X18298344Y-8573138D02*
X18298344Y-8971918D01*
X18098954Y-8772528D02*
X18497734Y-8772528D01*
X19250844Y-6668138D02*
X19250844Y-7066918D01*
X19051454Y-6867528D02*
X19450234Y-6867528D01*
X21155844Y-4763138D02*
X21155844Y-5161918D01*
X20956454Y-4962528D02*
X21355234Y-4962528D01*
X26870843Y-4763138D02*
X26870843Y-5161918D01*
X26671453Y-4962528D02*
X27070233Y-4962528D01*
X29252093Y-4763138D02*
X29252093Y-5161918D01*
X29052703Y-4962528D02*
X29451483Y-4962528D01*
D14*
X4874072Y-5139956D02*
X4874072Y-4708900D01*
X4443015Y-4708900D01*
X4443015Y-5139956D01*
X4874072Y-5139956D01*
D10*
X2373463Y-9800052D02*
X2373463Y-9600052D01*
X2373463Y-9600052D02*
X2421082Y-9600052D01*
X2421082Y-9600052D02*
X2449653Y-9609576D01*
X2449653Y-9609576D02*
X2468701Y-9628623D01*
X2468701Y-9628623D02*
X2478224Y-9647671D01*
X2478224Y-9647671D02*
X2487748Y-9685766D01*
X2487748Y-9685766D02*
X2487748Y-9714338D01*
X2487748Y-9714338D02*
X2478224Y-9752433D01*
X2478224Y-9752433D02*
X2468701Y-9771480D01*
X2468701Y-9771480D02*
X2449653Y-9790528D01*
X2449653Y-9790528D02*
X2421082Y-9800052D01*
X2421082Y-9800052D02*
X2373463Y-9800052D01*
X2573463Y-9800052D02*
X2573463Y-9666718D01*
X2573463Y-9704814D02*
X2582986Y-9685766D01*
X2582986Y-9685766D02*
X2592510Y-9676242D01*
X2592510Y-9676242D02*
X2611558Y-9666718D01*
X2611558Y-9666718D02*
X2630605Y-9666718D01*
X2697272Y-9800052D02*
X2697272Y-9666718D01*
X2697272Y-9600052D02*
X2687748Y-9609576D01*
X2687748Y-9609576D02*
X2697272Y-9619099D01*
X2697272Y-9619099D02*
X2706796Y-9609576D01*
X2706796Y-9609576D02*
X2697272Y-9600052D01*
X2697272Y-9600052D02*
X2697272Y-9619099D01*
X2821081Y-9800052D02*
X2802034Y-9790528D01*
X2802034Y-9790528D02*
X2792510Y-9771480D01*
X2792510Y-9771480D02*
X2792510Y-9600052D01*
X2925843Y-9800052D02*
X2906796Y-9790528D01*
X2906796Y-9790528D02*
X2897272Y-9771480D01*
X2897272Y-9771480D02*
X2897272Y-9600052D01*
X3154415Y-9800052D02*
X3154415Y-9600052D01*
X3154415Y-9600052D02*
X3221082Y-9742909D01*
X3221082Y-9742909D02*
X3287748Y-9600052D01*
X3287748Y-9600052D02*
X3287748Y-9800052D01*
X3468701Y-9800052D02*
X3468701Y-9695290D01*
X3468701Y-9695290D02*
X3459177Y-9676242D01*
X3459177Y-9676242D02*
X3440129Y-9666718D01*
X3440129Y-9666718D02*
X3402034Y-9666718D01*
X3402034Y-9666718D02*
X3382986Y-9676242D01*
X3468701Y-9790528D02*
X3449653Y-9800052D01*
X3449653Y-9800052D02*
X3402034Y-9800052D01*
X3402034Y-9800052D02*
X3382986Y-9790528D01*
X3382986Y-9790528D02*
X3373462Y-9771480D01*
X3373462Y-9771480D02*
X3373462Y-9752433D01*
X3373462Y-9752433D02*
X3382986Y-9733385D01*
X3382986Y-9733385D02*
X3402034Y-9723861D01*
X3402034Y-9723861D02*
X3449653Y-9723861D01*
X3449653Y-9723861D02*
X3468701Y-9714338D01*
X3563939Y-9666718D02*
X3563939Y-9866718D01*
X3563939Y-9676242D02*
X3582986Y-9666718D01*
X3582986Y-9666718D02*
X3621082Y-9666718D01*
X3621082Y-9666718D02*
X3640129Y-9676242D01*
X3640129Y-9676242D02*
X3649653Y-9685766D01*
X3649653Y-9685766D02*
X3659177Y-9704814D01*
X3659177Y-9704814D02*
X3659177Y-9761957D01*
X3659177Y-9761957D02*
X3649653Y-9781004D01*
X3649653Y-9781004D02*
X3640129Y-9790528D01*
X3640129Y-9790528D02*
X3621082Y-9800052D01*
X3621082Y-9800052D02*
X3582986Y-9800052D01*
X3582986Y-9800052D02*
X3563939Y-9790528D01*
X3744891Y-9781004D02*
X3754415Y-9790528D01*
X3754415Y-9790528D02*
X3744891Y-9800052D01*
X3744891Y-9800052D02*
X3735367Y-9790528D01*
X3735367Y-9790528D02*
X3744891Y-9781004D01*
X3744891Y-9781004D02*
X3744891Y-9800052D01*
X3744891Y-9676242D02*
X3754415Y-9685766D01*
X3754415Y-9685766D02*
X3744891Y-9695290D01*
X3744891Y-9695290D02*
X3735367Y-9685766D01*
X3735367Y-9685766D02*
X3744891Y-9676242D01*
X3744891Y-9676242D02*
X3744891Y-9695290D01*
D11*
X1950843Y-10040028D02*
X2125844Y-10215028D01*
X2125844Y-10040028D02*
X1950843Y-10215028D01*
D10*
X2478224Y-10220052D02*
X2363939Y-10220052D01*
X2421082Y-10220052D02*
X2421082Y-10020052D01*
X2421082Y-10020052D02*
X2402034Y-10048623D01*
X2402034Y-10048623D02*
X2382986Y-10067671D01*
X2382986Y-10067671D02*
X2363939Y-10077195D01*
X2563939Y-10201004D02*
X2573463Y-10210528D01*
X2573463Y-10210528D02*
X2563939Y-10220052D01*
X2563939Y-10220052D02*
X2554415Y-10210528D01*
X2554415Y-10210528D02*
X2563939Y-10201004D01*
X2563939Y-10201004D02*
X2563939Y-10220052D01*
X2640129Y-10020052D02*
X2773463Y-10020052D01*
X2773463Y-10020052D02*
X2687748Y-10220052D01*
X2944891Y-10020052D02*
X2849653Y-10020052D01*
X2849653Y-10020052D02*
X2840129Y-10115290D01*
X2840129Y-10115290D02*
X2849653Y-10105766D01*
X2849653Y-10105766D02*
X2868701Y-10096242D01*
X2868701Y-10096242D02*
X2916320Y-10096242D01*
X2916320Y-10096242D02*
X2935367Y-10105766D01*
X2935367Y-10105766D02*
X2944891Y-10115290D01*
X2944891Y-10115290D02*
X2954415Y-10134338D01*
X2954415Y-10134338D02*
X2954415Y-10181957D01*
X2954415Y-10181957D02*
X2944891Y-10201004D01*
X2944891Y-10201004D02*
X2935367Y-10210528D01*
X2935367Y-10210528D02*
X2916320Y-10220052D01*
X2916320Y-10220052D02*
X2868701Y-10220052D01*
X2868701Y-10220052D02*
X2849653Y-10210528D01*
X2849653Y-10210528D02*
X2840129Y-10201004D01*
X3078224Y-10020052D02*
X3097272Y-10020052D01*
X3097272Y-10020052D02*
X3116320Y-10029576D01*
X3116320Y-10029576D02*
X3125843Y-10039099D01*
X3125843Y-10039099D02*
X3135367Y-10058147D01*
X3135367Y-10058147D02*
X3144891Y-10096242D01*
X3144891Y-10096242D02*
X3144891Y-10143861D01*
X3144891Y-10143861D02*
X3135367Y-10181957D01*
X3135367Y-10181957D02*
X3125843Y-10201004D01*
X3125843Y-10201004D02*
X3116320Y-10210528D01*
X3116320Y-10210528D02*
X3097272Y-10220052D01*
X3097272Y-10220052D02*
X3078224Y-10220052D01*
X3078224Y-10220052D02*
X3059177Y-10210528D01*
X3059177Y-10210528D02*
X3049653Y-10201004D01*
X3049653Y-10201004D02*
X3040129Y-10181957D01*
X3040129Y-10181957D02*
X3030605Y-10143861D01*
X3030605Y-10143861D02*
X3030605Y-10096242D01*
X3030605Y-10096242D02*
X3040129Y-10058147D01*
X3040129Y-10058147D02*
X3049653Y-10039099D01*
X3049653Y-10039099D02*
X3059177Y-10029576D01*
X3059177Y-10029576D02*
X3078224Y-10020052D01*
X3230605Y-10220052D02*
X3230605Y-10086718D01*
X3230605Y-10105766D02*
X3240129Y-10096242D01*
X3240129Y-10096242D02*
X3259177Y-10086718D01*
X3259177Y-10086718D02*
X3287748Y-10086718D01*
X3287748Y-10086718D02*
X3306796Y-10096242D01*
X3306796Y-10096242D02*
X3316320Y-10115290D01*
X3316320Y-10115290D02*
X3316320Y-10220052D01*
X3316320Y-10115290D02*
X3325843Y-10096242D01*
X3325843Y-10096242D02*
X3344891Y-10086718D01*
X3344891Y-10086718D02*
X3373462Y-10086718D01*
X3373462Y-10086718D02*
X3392510Y-10096242D01*
X3392510Y-10096242D02*
X3402034Y-10115290D01*
X3402034Y-10115290D02*
X3402034Y-10220052D01*
X3497272Y-10220052D02*
X3497272Y-10086718D01*
X3497272Y-10105766D02*
X3506796Y-10096242D01*
X3506796Y-10096242D02*
X3525843Y-10086718D01*
X3525843Y-10086718D02*
X3554415Y-10086718D01*
X3554415Y-10086718D02*
X3573463Y-10096242D01*
X3573463Y-10096242D02*
X3582986Y-10115290D01*
X3582986Y-10115290D02*
X3582986Y-10220052D01*
X3582986Y-10115290D02*
X3592510Y-10096242D01*
X3592510Y-10096242D02*
X3611558Y-10086718D01*
X3611558Y-10086718D02*
X3640129Y-10086718D01*
X3640129Y-10086718D02*
X3659177Y-10096242D01*
X3659177Y-10096242D02*
X3668701Y-10115290D01*
X3668701Y-10115290D02*
X3668701Y-10220052D01*
X4059177Y-10010528D02*
X3887748Y-10267671D01*
X4316320Y-10020052D02*
X4335368Y-10020052D01*
X4335368Y-10020052D02*
X4354415Y-10029576D01*
X4354415Y-10029576D02*
X4363939Y-10039099D01*
X4363939Y-10039099D02*
X4373463Y-10058147D01*
X4373463Y-10058147D02*
X4382987Y-10096242D01*
X4382987Y-10096242D02*
X4382987Y-10143861D01*
X4382987Y-10143861D02*
X4373463Y-10181957D01*
X4373463Y-10181957D02*
X4363939Y-10201004D01*
X4363939Y-10201004D02*
X4354415Y-10210528D01*
X4354415Y-10210528D02*
X4335368Y-10220052D01*
X4335368Y-10220052D02*
X4316320Y-10220052D01*
X4316320Y-10220052D02*
X4297272Y-10210528D01*
X4297272Y-10210528D02*
X4287748Y-10201004D01*
X4287748Y-10201004D02*
X4278225Y-10181957D01*
X4278225Y-10181957D02*
X4268701Y-10143861D01*
X4268701Y-10143861D02*
X4268701Y-10096242D01*
X4268701Y-10096242D02*
X4278225Y-10058147D01*
X4278225Y-10058147D02*
X4287748Y-10039099D01*
X4287748Y-10039099D02*
X4297272Y-10029576D01*
X4297272Y-10029576D02*
X4316320Y-10020052D01*
X4468701Y-10201004D02*
X4478225Y-10210528D01*
X4478225Y-10210528D02*
X4468701Y-10220052D01*
X4468701Y-10220052D02*
X4459177Y-10210528D01*
X4459177Y-10210528D02*
X4468701Y-10201004D01*
X4468701Y-10201004D02*
X4468701Y-10220052D01*
X4602034Y-10020052D02*
X4621082Y-10020052D01*
X4621082Y-10020052D02*
X4640129Y-10029576D01*
X4640129Y-10029576D02*
X4649653Y-10039099D01*
X4649653Y-10039099D02*
X4659177Y-10058147D01*
X4659177Y-10058147D02*
X4668701Y-10096242D01*
X4668701Y-10096242D02*
X4668701Y-10143861D01*
X4668701Y-10143861D02*
X4659177Y-10181957D01*
X4659177Y-10181957D02*
X4649653Y-10201004D01*
X4649653Y-10201004D02*
X4640129Y-10210528D01*
X4640129Y-10210528D02*
X4621082Y-10220052D01*
X4621082Y-10220052D02*
X4602034Y-10220052D01*
X4602034Y-10220052D02*
X4582987Y-10210528D01*
X4582987Y-10210528D02*
X4573463Y-10201004D01*
X4573463Y-10201004D02*
X4563939Y-10181957D01*
X4563939Y-10181957D02*
X4554415Y-10143861D01*
X4554415Y-10143861D02*
X4554415Y-10096242D01*
X4554415Y-10096242D02*
X4563939Y-10058147D01*
X4563939Y-10058147D02*
X4573463Y-10039099D01*
X4573463Y-10039099D02*
X4582987Y-10029576D01*
X4582987Y-10029576D02*
X4602034Y-10020052D01*
X4840129Y-10020052D02*
X4802034Y-10020052D01*
X4802034Y-10020052D02*
X4782987Y-10029576D01*
X4782987Y-10029576D02*
X4773463Y-10039099D01*
X4773463Y-10039099D02*
X4754415Y-10067671D01*
X4754415Y-10067671D02*
X4744891Y-10105766D01*
X4744891Y-10105766D02*
X4744891Y-10181957D01*
X4744891Y-10181957D02*
X4754415Y-10201004D01*
X4754415Y-10201004D02*
X4763939Y-10210528D01*
X4763939Y-10210528D02*
X4782987Y-10220052D01*
X4782987Y-10220052D02*
X4821082Y-10220052D01*
X4821082Y-10220052D02*
X4840129Y-10210528D01*
X4840129Y-10210528D02*
X4849653Y-10201004D01*
X4849653Y-10201004D02*
X4859177Y-10181957D01*
X4859177Y-10181957D02*
X4859177Y-10134338D01*
X4859177Y-10134338D02*
X4849653Y-10115290D01*
X4849653Y-10115290D02*
X4840129Y-10105766D01*
X4840129Y-10105766D02*
X4821082Y-10096242D01*
X4821082Y-10096242D02*
X4782987Y-10096242D01*
X4782987Y-10096242D02*
X4763939Y-10105766D01*
X4763939Y-10105766D02*
X4754415Y-10115290D01*
X4754415Y-10115290D02*
X4744891Y-10134338D01*
X4973463Y-10105766D02*
X4954415Y-10096242D01*
X4954415Y-10096242D02*
X4944891Y-10086718D01*
X4944891Y-10086718D02*
X4935368Y-10067671D01*
X4935368Y-10067671D02*
X4935368Y-10058147D01*
X4935368Y-10058147D02*
X4944891Y-10039099D01*
X4944891Y-10039099D02*
X4954415Y-10029576D01*
X4954415Y-10029576D02*
X4973463Y-10020052D01*
X4973463Y-10020052D02*
X5011558Y-10020052D01*
X5011558Y-10020052D02*
X5030606Y-10029576D01*
X5030606Y-10029576D02*
X5040129Y-10039099D01*
X5040129Y-10039099D02*
X5049653Y-10058147D01*
X5049653Y-10058147D02*
X5049653Y-10067671D01*
X5049653Y-10067671D02*
X5040129Y-10086718D01*
X5040129Y-10086718D02*
X5030606Y-10096242D01*
X5030606Y-10096242D02*
X5011558Y-10105766D01*
X5011558Y-10105766D02*
X4973463Y-10105766D01*
X4973463Y-10105766D02*
X4954415Y-10115290D01*
X4954415Y-10115290D02*
X4944891Y-10124814D01*
X4944891Y-10124814D02*
X4935368Y-10143861D01*
X4935368Y-10143861D02*
X4935368Y-10181957D01*
X4935368Y-10181957D02*
X4944891Y-10201004D01*
X4944891Y-10201004D02*
X4954415Y-10210528D01*
X4954415Y-10210528D02*
X4973463Y-10220052D01*
X4973463Y-10220052D02*
X5011558Y-10220052D01*
X5011558Y-10220052D02*
X5030606Y-10210528D01*
X5030606Y-10210528D02*
X5040129Y-10201004D01*
X5040129Y-10201004D02*
X5049653Y-10181957D01*
X5049653Y-10181957D02*
X5049653Y-10143861D01*
X5049653Y-10143861D02*
X5040129Y-10124814D01*
X5040129Y-10124814D02*
X5030606Y-10115290D01*
X5030606Y-10115290D02*
X5011558Y-10105766D01*
X5144891Y-10220052D02*
X5182987Y-10220052D01*
X5182987Y-10220052D02*
X5202034Y-10210528D01*
X5202034Y-10210528D02*
X5211558Y-10201004D01*
X5211558Y-10201004D02*
X5230606Y-10172433D01*
X5230606Y-10172433D02*
X5240129Y-10134338D01*
X5240129Y-10134338D02*
X5240129Y-10058147D01*
X5240129Y-10058147D02*
X5230606Y-10039099D01*
X5230606Y-10039099D02*
X5221082Y-10029576D01*
X5221082Y-10029576D02*
X5202034Y-10020052D01*
X5202034Y-10020052D02*
X5163939Y-10020052D01*
X5163939Y-10020052D02*
X5144891Y-10029576D01*
X5144891Y-10029576D02*
X5135368Y-10039099D01*
X5135368Y-10039099D02*
X5125844Y-10058147D01*
X5125844Y-10058147D02*
X5125844Y-10105766D01*
X5125844Y-10105766D02*
X5135368Y-10124814D01*
X5135368Y-10124814D02*
X5144891Y-10134338D01*
X5144891Y-10134338D02*
X5163939Y-10143861D01*
X5163939Y-10143861D02*
X5202034Y-10143861D01*
X5202034Y-10143861D02*
X5221082Y-10134338D01*
X5221082Y-10134338D02*
X5230606Y-10124814D01*
X5230606Y-10124814D02*
X5240129Y-10105766D01*
X5316320Y-10020052D02*
X5316320Y-10058147D01*
X5392510Y-10020052D02*
X5392510Y-10058147D01*
X5687749Y-10296242D02*
X5678225Y-10286718D01*
X5678225Y-10286718D02*
X5659177Y-10258147D01*
X5659177Y-10258147D02*
X5649653Y-10239099D01*
X5649653Y-10239099D02*
X5640129Y-10210528D01*
X5640129Y-10210528D02*
X5630606Y-10162909D01*
X5630606Y-10162909D02*
X5630606Y-10124814D01*
X5630606Y-10124814D02*
X5640129Y-10077195D01*
X5640129Y-10077195D02*
X5649653Y-10048623D01*
X5649653Y-10048623D02*
X5659177Y-10029576D01*
X5659177Y-10029576D02*
X5678225Y-10001004D01*
X5678225Y-10001004D02*
X5687749Y-9991480D01*
X5754415Y-10039099D02*
X5763939Y-10029576D01*
X5763939Y-10029576D02*
X5782987Y-10020052D01*
X5782987Y-10020052D02*
X5830606Y-10020052D01*
X5830606Y-10020052D02*
X5849653Y-10029576D01*
X5849653Y-10029576D02*
X5859177Y-10039099D01*
X5859177Y-10039099D02*
X5868701Y-10058147D01*
X5868701Y-10058147D02*
X5868701Y-10077195D01*
X5868701Y-10077195D02*
X5859177Y-10105766D01*
X5859177Y-10105766D02*
X5744891Y-10220052D01*
X5744891Y-10220052D02*
X5868701Y-10220052D01*
X6040129Y-10020052D02*
X6002034Y-10020052D01*
X6002034Y-10020052D02*
X5982987Y-10029576D01*
X5982987Y-10029576D02*
X5973463Y-10039099D01*
X5973463Y-10039099D02*
X5954415Y-10067671D01*
X5954415Y-10067671D02*
X5944891Y-10105766D01*
X5944891Y-10105766D02*
X5944891Y-10181957D01*
X5944891Y-10181957D02*
X5954415Y-10201004D01*
X5954415Y-10201004D02*
X5963939Y-10210528D01*
X5963939Y-10210528D02*
X5982987Y-10220052D01*
X5982987Y-10220052D02*
X6021082Y-10220052D01*
X6021082Y-10220052D02*
X6040129Y-10210528D01*
X6040129Y-10210528D02*
X6049653Y-10201004D01*
X6049653Y-10201004D02*
X6059177Y-10181957D01*
X6059177Y-10181957D02*
X6059177Y-10134338D01*
X6059177Y-10134338D02*
X6049653Y-10115290D01*
X6049653Y-10115290D02*
X6040129Y-10105766D01*
X6040129Y-10105766D02*
X6021082Y-10096242D01*
X6021082Y-10096242D02*
X5982987Y-10096242D01*
X5982987Y-10096242D02*
X5963939Y-10105766D01*
X5963939Y-10105766D02*
X5954415Y-10115290D01*
X5954415Y-10115290D02*
X5944891Y-10134338D01*
X6297272Y-10220052D02*
X6297272Y-10020052D01*
X6382987Y-10220052D02*
X6382987Y-10115290D01*
X6382987Y-10115290D02*
X6373463Y-10096242D01*
X6373463Y-10096242D02*
X6354415Y-10086718D01*
X6354415Y-10086718D02*
X6325844Y-10086718D01*
X6325844Y-10086718D02*
X6306796Y-10096242D01*
X6306796Y-10096242D02*
X6297272Y-10105766D01*
X6506796Y-10220052D02*
X6487749Y-10210528D01*
X6487749Y-10210528D02*
X6478225Y-10201004D01*
X6478225Y-10201004D02*
X6468701Y-10181957D01*
X6468701Y-10181957D02*
X6468701Y-10124814D01*
X6468701Y-10124814D02*
X6478225Y-10105766D01*
X6478225Y-10105766D02*
X6487749Y-10096242D01*
X6487749Y-10096242D02*
X6506796Y-10086718D01*
X6506796Y-10086718D02*
X6535368Y-10086718D01*
X6535368Y-10086718D02*
X6554415Y-10096242D01*
X6554415Y-10096242D02*
X6563939Y-10105766D01*
X6563939Y-10105766D02*
X6573463Y-10124814D01*
X6573463Y-10124814D02*
X6573463Y-10181957D01*
X6573463Y-10181957D02*
X6563939Y-10201004D01*
X6563939Y-10201004D02*
X6554415Y-10210528D01*
X6554415Y-10210528D02*
X6535368Y-10220052D01*
X6535368Y-10220052D02*
X6506796Y-10220052D01*
X6687749Y-10220052D02*
X6668701Y-10210528D01*
X6668701Y-10210528D02*
X6659177Y-10191480D01*
X6659177Y-10191480D02*
X6659177Y-10020052D01*
X6840130Y-10210528D02*
X6821082Y-10220052D01*
X6821082Y-10220052D02*
X6782987Y-10220052D01*
X6782987Y-10220052D02*
X6763939Y-10210528D01*
X6763939Y-10210528D02*
X6754415Y-10191480D01*
X6754415Y-10191480D02*
X6754415Y-10115290D01*
X6754415Y-10115290D02*
X6763939Y-10096242D01*
X6763939Y-10096242D02*
X6782987Y-10086718D01*
X6782987Y-10086718D02*
X6821082Y-10086718D01*
X6821082Y-10086718D02*
X6840130Y-10096242D01*
X6840130Y-10096242D02*
X6849653Y-10115290D01*
X6849653Y-10115290D02*
X6849653Y-10134338D01*
X6849653Y-10134338D02*
X6754415Y-10153385D01*
X6925844Y-10210528D02*
X6944891Y-10220052D01*
X6944891Y-10220052D02*
X6982987Y-10220052D01*
X6982987Y-10220052D02*
X7002034Y-10210528D01*
X7002034Y-10210528D02*
X7011558Y-10191480D01*
X7011558Y-10191480D02*
X7011558Y-10181957D01*
X7011558Y-10181957D02*
X7002034Y-10162909D01*
X7002034Y-10162909D02*
X6982987Y-10153385D01*
X6982987Y-10153385D02*
X6954415Y-10153385D01*
X6954415Y-10153385D02*
X6935368Y-10143861D01*
X6935368Y-10143861D02*
X6925844Y-10124814D01*
X6925844Y-10124814D02*
X6925844Y-10115290D01*
X6925844Y-10115290D02*
X6935368Y-10096242D01*
X6935368Y-10096242D02*
X6954415Y-10086718D01*
X6954415Y-10086718D02*
X6982987Y-10086718D01*
X6982987Y-10086718D02*
X7002034Y-10096242D01*
X7078225Y-10296242D02*
X7087749Y-10286718D01*
X7087749Y-10286718D02*
X7106796Y-10258147D01*
X7106796Y-10258147D02*
X7116320Y-10239099D01*
X7116320Y-10239099D02*
X7125844Y-10210528D01*
X7125844Y-10210528D02*
X7135368Y-10162909D01*
X7135368Y-10162909D02*
X7135368Y-10124814D01*
X7135368Y-10124814D02*
X7125844Y-10077195D01*
X7125844Y-10077195D02*
X7116320Y-10048623D01*
X7116320Y-10048623D02*
X7106796Y-10029576D01*
X7106796Y-10029576D02*
X7087749Y-10001004D01*
X7087749Y-10001004D02*
X7078225Y-9991480D01*
X7440130Y-10296242D02*
X7430606Y-10286718D01*
X7430606Y-10286718D02*
X7411558Y-10258147D01*
X7411558Y-10258147D02*
X7402034Y-10239099D01*
X7402034Y-10239099D02*
X7392511Y-10210528D01*
X7392511Y-10210528D02*
X7382987Y-10162909D01*
X7382987Y-10162909D02*
X7382987Y-10124814D01*
X7382987Y-10124814D02*
X7392511Y-10077195D01*
X7392511Y-10077195D02*
X7402034Y-10048623D01*
X7402034Y-10048623D02*
X7411558Y-10029576D01*
X7411558Y-10029576D02*
X7430606Y-10001004D01*
X7430606Y-10001004D02*
X7440130Y-9991480D01*
X7516320Y-10086718D02*
X7516320Y-10220052D01*
X7516320Y-10105766D02*
X7525844Y-10096242D01*
X7525844Y-10096242D02*
X7544891Y-10086718D01*
X7544891Y-10086718D02*
X7573463Y-10086718D01*
X7573463Y-10086718D02*
X7592511Y-10096242D01*
X7592511Y-10096242D02*
X7602034Y-10115290D01*
X7602034Y-10115290D02*
X7602034Y-10220052D01*
X7725844Y-10220052D02*
X7706796Y-10210528D01*
X7706796Y-10210528D02*
X7697272Y-10201004D01*
X7697272Y-10201004D02*
X7687749Y-10181957D01*
X7687749Y-10181957D02*
X7687749Y-10124814D01*
X7687749Y-10124814D02*
X7697272Y-10105766D01*
X7697272Y-10105766D02*
X7706796Y-10096242D01*
X7706796Y-10096242D02*
X7725844Y-10086718D01*
X7725844Y-10086718D02*
X7754415Y-10086718D01*
X7754415Y-10086718D02*
X7773463Y-10096242D01*
X7773463Y-10096242D02*
X7782987Y-10105766D01*
X7782987Y-10105766D02*
X7792511Y-10124814D01*
X7792511Y-10124814D02*
X7792511Y-10181957D01*
X7792511Y-10181957D02*
X7782987Y-10201004D01*
X7782987Y-10201004D02*
X7773463Y-10210528D01*
X7773463Y-10210528D02*
X7754415Y-10220052D01*
X7754415Y-10220052D02*
X7725844Y-10220052D01*
X7849653Y-10086718D02*
X7925844Y-10086718D01*
X7878225Y-10020052D02*
X7878225Y-10191480D01*
X7878225Y-10191480D02*
X7887749Y-10210528D01*
X7887749Y-10210528D02*
X7906796Y-10220052D01*
X7906796Y-10220052D02*
X7925844Y-10220052D01*
X8144892Y-10086718D02*
X8144892Y-10286718D01*
X8144892Y-10096242D02*
X8163939Y-10086718D01*
X8163939Y-10086718D02*
X8202034Y-10086718D01*
X8202034Y-10086718D02*
X8221082Y-10096242D01*
X8221082Y-10096242D02*
X8230606Y-10105766D01*
X8230606Y-10105766D02*
X8240130Y-10124814D01*
X8240130Y-10124814D02*
X8240130Y-10181957D01*
X8240130Y-10181957D02*
X8230606Y-10201004D01*
X8230606Y-10201004D02*
X8221082Y-10210528D01*
X8221082Y-10210528D02*
X8202034Y-10220052D01*
X8202034Y-10220052D02*
X8163939Y-10220052D01*
X8163939Y-10220052D02*
X8144892Y-10210528D01*
X8354415Y-10220052D02*
X8335368Y-10210528D01*
X8335368Y-10210528D02*
X8325844Y-10191480D01*
X8325844Y-10191480D02*
X8325844Y-10020052D01*
X8516320Y-10220052D02*
X8516320Y-10115290D01*
X8516320Y-10115290D02*
X8506796Y-10096242D01*
X8506796Y-10096242D02*
X8487749Y-10086718D01*
X8487749Y-10086718D02*
X8449654Y-10086718D01*
X8449654Y-10086718D02*
X8430606Y-10096242D01*
X8516320Y-10210528D02*
X8497273Y-10220052D01*
X8497273Y-10220052D02*
X8449654Y-10220052D01*
X8449654Y-10220052D02*
X8430606Y-10210528D01*
X8430606Y-10210528D02*
X8421082Y-10191480D01*
X8421082Y-10191480D02*
X8421082Y-10172433D01*
X8421082Y-10172433D02*
X8430606Y-10153385D01*
X8430606Y-10153385D02*
X8449654Y-10143861D01*
X8449654Y-10143861D02*
X8497273Y-10143861D01*
X8497273Y-10143861D02*
X8516320Y-10134338D01*
X8582987Y-10086718D02*
X8659177Y-10086718D01*
X8611558Y-10020052D02*
X8611558Y-10191480D01*
X8611558Y-10191480D02*
X8621082Y-10210528D01*
X8621082Y-10210528D02*
X8640130Y-10220052D01*
X8640130Y-10220052D02*
X8659177Y-10220052D01*
X8802035Y-10210528D02*
X8782987Y-10220052D01*
X8782987Y-10220052D02*
X8744892Y-10220052D01*
X8744892Y-10220052D02*
X8725844Y-10210528D01*
X8725844Y-10210528D02*
X8716320Y-10191480D01*
X8716320Y-10191480D02*
X8716320Y-10115290D01*
X8716320Y-10115290D02*
X8725844Y-10096242D01*
X8725844Y-10096242D02*
X8744892Y-10086718D01*
X8744892Y-10086718D02*
X8782987Y-10086718D01*
X8782987Y-10086718D02*
X8802035Y-10096242D01*
X8802035Y-10096242D02*
X8811558Y-10115290D01*
X8811558Y-10115290D02*
X8811558Y-10134338D01*
X8811558Y-10134338D02*
X8716320Y-10153385D01*
X8982987Y-10220052D02*
X8982987Y-10020052D01*
X8982987Y-10210528D02*
X8963939Y-10220052D01*
X8963939Y-10220052D02*
X8925844Y-10220052D01*
X8925844Y-10220052D02*
X8906796Y-10210528D01*
X8906796Y-10210528D02*
X8897273Y-10201004D01*
X8897273Y-10201004D02*
X8887749Y-10181957D01*
X8887749Y-10181957D02*
X8887749Y-10124814D01*
X8887749Y-10124814D02*
X8897273Y-10105766D01*
X8897273Y-10105766D02*
X8906796Y-10096242D01*
X8906796Y-10096242D02*
X8925844Y-10086718D01*
X8925844Y-10086718D02*
X8963939Y-10086718D01*
X8963939Y-10086718D02*
X8982987Y-10096242D01*
X9059177Y-10296242D02*
X9068701Y-10286718D01*
X9068701Y-10286718D02*
X9087749Y-10258147D01*
X9087749Y-10258147D02*
X9097273Y-10239099D01*
X9097273Y-10239099D02*
X9106796Y-10210528D01*
X9106796Y-10210528D02*
X9116320Y-10162909D01*
X9116320Y-10162909D02*
X9116320Y-10124814D01*
X9116320Y-10124814D02*
X9106796Y-10077195D01*
X9106796Y-10077195D02*
X9097273Y-10048623D01*
X9097273Y-10048623D02*
X9087749Y-10029576D01*
X9087749Y-10029576D02*
X9068701Y-10001004D01*
X9068701Y-10001004D02*
X9059177Y-9991480D01*
X2125844Y-10422528D02*
G75*
G03*
X2125844Y-10422528I-100000J0D01*
G01*
X2354415Y-10315052D02*
X2478224Y-10315052D01*
X2478224Y-10315052D02*
X2411558Y-10391242D01*
X2411558Y-10391242D02*
X2440129Y-10391242D01*
X2440129Y-10391242D02*
X2459177Y-10400766D01*
X2459177Y-10400766D02*
X2468701Y-10410290D01*
X2468701Y-10410290D02*
X2478224Y-10429338D01*
X2478224Y-10429338D02*
X2478224Y-10476957D01*
X2478224Y-10476957D02*
X2468701Y-10496004D01*
X2468701Y-10496004D02*
X2459177Y-10505528D01*
X2459177Y-10505528D02*
X2440129Y-10515052D01*
X2440129Y-10515052D02*
X2382986Y-10515052D01*
X2382986Y-10515052D02*
X2363939Y-10505528D01*
X2363939Y-10505528D02*
X2354415Y-10496004D01*
X2563939Y-10496004D02*
X2573463Y-10505528D01*
X2573463Y-10505528D02*
X2563939Y-10515052D01*
X2563939Y-10515052D02*
X2554415Y-10505528D01*
X2554415Y-10505528D02*
X2563939Y-10496004D01*
X2563939Y-10496004D02*
X2563939Y-10515052D01*
X2697272Y-10315052D02*
X2716320Y-10315052D01*
X2716320Y-10315052D02*
X2735367Y-10324576D01*
X2735367Y-10324576D02*
X2744891Y-10334099D01*
X2744891Y-10334099D02*
X2754415Y-10353147D01*
X2754415Y-10353147D02*
X2763939Y-10391242D01*
X2763939Y-10391242D02*
X2763939Y-10438861D01*
X2763939Y-10438861D02*
X2754415Y-10476957D01*
X2754415Y-10476957D02*
X2744891Y-10496004D01*
X2744891Y-10496004D02*
X2735367Y-10505528D01*
X2735367Y-10505528D02*
X2716320Y-10515052D01*
X2716320Y-10515052D02*
X2697272Y-10515052D01*
X2697272Y-10515052D02*
X2678224Y-10505528D01*
X2678224Y-10505528D02*
X2668701Y-10496004D01*
X2668701Y-10496004D02*
X2659177Y-10476957D01*
X2659177Y-10476957D02*
X2649653Y-10438861D01*
X2649653Y-10438861D02*
X2649653Y-10391242D01*
X2649653Y-10391242D02*
X2659177Y-10353147D01*
X2659177Y-10353147D02*
X2668701Y-10334099D01*
X2668701Y-10334099D02*
X2678224Y-10324576D01*
X2678224Y-10324576D02*
X2697272Y-10315052D01*
X2887748Y-10315052D02*
X2906796Y-10315052D01*
X2906796Y-10315052D02*
X2925843Y-10324576D01*
X2925843Y-10324576D02*
X2935367Y-10334099D01*
X2935367Y-10334099D02*
X2944891Y-10353147D01*
X2944891Y-10353147D02*
X2954415Y-10391242D01*
X2954415Y-10391242D02*
X2954415Y-10438861D01*
X2954415Y-10438861D02*
X2944891Y-10476957D01*
X2944891Y-10476957D02*
X2935367Y-10496004D01*
X2935367Y-10496004D02*
X2925843Y-10505528D01*
X2925843Y-10505528D02*
X2906796Y-10515052D01*
X2906796Y-10515052D02*
X2887748Y-10515052D01*
X2887748Y-10515052D02*
X2868701Y-10505528D01*
X2868701Y-10505528D02*
X2859177Y-10496004D01*
X2859177Y-10496004D02*
X2849653Y-10476957D01*
X2849653Y-10476957D02*
X2840129Y-10438861D01*
X2840129Y-10438861D02*
X2840129Y-10391242D01*
X2840129Y-10391242D02*
X2849653Y-10353147D01*
X2849653Y-10353147D02*
X2859177Y-10334099D01*
X2859177Y-10334099D02*
X2868701Y-10324576D01*
X2868701Y-10324576D02*
X2887748Y-10315052D01*
X3078224Y-10315052D02*
X3097272Y-10315052D01*
X3097272Y-10315052D02*
X3116320Y-10324576D01*
X3116320Y-10324576D02*
X3125843Y-10334099D01*
X3125843Y-10334099D02*
X3135367Y-10353147D01*
X3135367Y-10353147D02*
X3144891Y-10391242D01*
X3144891Y-10391242D02*
X3144891Y-10438861D01*
X3144891Y-10438861D02*
X3135367Y-10476957D01*
X3135367Y-10476957D02*
X3125843Y-10496004D01*
X3125843Y-10496004D02*
X3116320Y-10505528D01*
X3116320Y-10505528D02*
X3097272Y-10515052D01*
X3097272Y-10515052D02*
X3078224Y-10515052D01*
X3078224Y-10515052D02*
X3059177Y-10505528D01*
X3059177Y-10505528D02*
X3049653Y-10496004D01*
X3049653Y-10496004D02*
X3040129Y-10476957D01*
X3040129Y-10476957D02*
X3030605Y-10438861D01*
X3030605Y-10438861D02*
X3030605Y-10391242D01*
X3030605Y-10391242D02*
X3040129Y-10353147D01*
X3040129Y-10353147D02*
X3049653Y-10334099D01*
X3049653Y-10334099D02*
X3059177Y-10324576D01*
X3059177Y-10324576D02*
X3078224Y-10315052D01*
X3230605Y-10515052D02*
X3230605Y-10381718D01*
X3230605Y-10400766D02*
X3240129Y-10391242D01*
X3240129Y-10391242D02*
X3259177Y-10381718D01*
X3259177Y-10381718D02*
X3287748Y-10381718D01*
X3287748Y-10381718D02*
X3306796Y-10391242D01*
X3306796Y-10391242D02*
X3316320Y-10410290D01*
X3316320Y-10410290D02*
X3316320Y-10515052D01*
X3316320Y-10410290D02*
X3325843Y-10391242D01*
X3325843Y-10391242D02*
X3344891Y-10381718D01*
X3344891Y-10381718D02*
X3373462Y-10381718D01*
X3373462Y-10381718D02*
X3392510Y-10391242D01*
X3392510Y-10391242D02*
X3402034Y-10410290D01*
X3402034Y-10410290D02*
X3402034Y-10515052D01*
X3497272Y-10515052D02*
X3497272Y-10381718D01*
X3497272Y-10400766D02*
X3506796Y-10391242D01*
X3506796Y-10391242D02*
X3525843Y-10381718D01*
X3525843Y-10381718D02*
X3554415Y-10381718D01*
X3554415Y-10381718D02*
X3573463Y-10391242D01*
X3573463Y-10391242D02*
X3582986Y-10410290D01*
X3582986Y-10410290D02*
X3582986Y-10515052D01*
X3582986Y-10410290D02*
X3592510Y-10391242D01*
X3592510Y-10391242D02*
X3611558Y-10381718D01*
X3611558Y-10381718D02*
X3640129Y-10381718D01*
X3640129Y-10381718D02*
X3659177Y-10391242D01*
X3659177Y-10391242D02*
X3668701Y-10410290D01*
X3668701Y-10410290D02*
X3668701Y-10515052D01*
X4059177Y-10305528D02*
X3887748Y-10562671D01*
X4316320Y-10315052D02*
X4335368Y-10315052D01*
X4335368Y-10315052D02*
X4354415Y-10324576D01*
X4354415Y-10324576D02*
X4363939Y-10334099D01*
X4363939Y-10334099D02*
X4373463Y-10353147D01*
X4373463Y-10353147D02*
X4382987Y-10391242D01*
X4382987Y-10391242D02*
X4382987Y-10438861D01*
X4382987Y-10438861D02*
X4373463Y-10476957D01*
X4373463Y-10476957D02*
X4363939Y-10496004D01*
X4363939Y-10496004D02*
X4354415Y-10505528D01*
X4354415Y-10505528D02*
X4335368Y-10515052D01*
X4335368Y-10515052D02*
X4316320Y-10515052D01*
X4316320Y-10515052D02*
X4297272Y-10505528D01*
X4297272Y-10505528D02*
X4287748Y-10496004D01*
X4287748Y-10496004D02*
X4278225Y-10476957D01*
X4278225Y-10476957D02*
X4268701Y-10438861D01*
X4268701Y-10438861D02*
X4268701Y-10391242D01*
X4268701Y-10391242D02*
X4278225Y-10353147D01*
X4278225Y-10353147D02*
X4287748Y-10334099D01*
X4287748Y-10334099D02*
X4297272Y-10324576D01*
X4297272Y-10324576D02*
X4316320Y-10315052D01*
X4468701Y-10496004D02*
X4478225Y-10505528D01*
X4478225Y-10505528D02*
X4468701Y-10515052D01*
X4468701Y-10515052D02*
X4459177Y-10505528D01*
X4459177Y-10505528D02*
X4468701Y-10496004D01*
X4468701Y-10496004D02*
X4468701Y-10515052D01*
X4668701Y-10515052D02*
X4554415Y-10515052D01*
X4611558Y-10515052D02*
X4611558Y-10315052D01*
X4611558Y-10315052D02*
X4592510Y-10343623D01*
X4592510Y-10343623D02*
X4573463Y-10362671D01*
X4573463Y-10362671D02*
X4554415Y-10372195D01*
X4859177Y-10515052D02*
X4744891Y-10515052D01*
X4802034Y-10515052D02*
X4802034Y-10315052D01*
X4802034Y-10315052D02*
X4782987Y-10343623D01*
X4782987Y-10343623D02*
X4763939Y-10362671D01*
X4763939Y-10362671D02*
X4744891Y-10372195D01*
X4973463Y-10400766D02*
X4954415Y-10391242D01*
X4954415Y-10391242D02*
X4944891Y-10381718D01*
X4944891Y-10381718D02*
X4935368Y-10362671D01*
X4935368Y-10362671D02*
X4935368Y-10353147D01*
X4935368Y-10353147D02*
X4944891Y-10334099D01*
X4944891Y-10334099D02*
X4954415Y-10324576D01*
X4954415Y-10324576D02*
X4973463Y-10315052D01*
X4973463Y-10315052D02*
X5011558Y-10315052D01*
X5011558Y-10315052D02*
X5030606Y-10324576D01*
X5030606Y-10324576D02*
X5040129Y-10334099D01*
X5040129Y-10334099D02*
X5049653Y-10353147D01*
X5049653Y-10353147D02*
X5049653Y-10362671D01*
X5049653Y-10362671D02*
X5040129Y-10381718D01*
X5040129Y-10381718D02*
X5030606Y-10391242D01*
X5030606Y-10391242D02*
X5011558Y-10400766D01*
X5011558Y-10400766D02*
X4973463Y-10400766D01*
X4973463Y-10400766D02*
X4954415Y-10410290D01*
X4954415Y-10410290D02*
X4944891Y-10419814D01*
X4944891Y-10419814D02*
X4935368Y-10438861D01*
X4935368Y-10438861D02*
X4935368Y-10476957D01*
X4935368Y-10476957D02*
X4944891Y-10496004D01*
X4944891Y-10496004D02*
X4954415Y-10505528D01*
X4954415Y-10505528D02*
X4973463Y-10515052D01*
X4973463Y-10515052D02*
X5011558Y-10515052D01*
X5011558Y-10515052D02*
X5030606Y-10505528D01*
X5030606Y-10505528D02*
X5040129Y-10496004D01*
X5040129Y-10496004D02*
X5049653Y-10476957D01*
X5049653Y-10476957D02*
X5049653Y-10438861D01*
X5049653Y-10438861D02*
X5040129Y-10419814D01*
X5040129Y-10419814D02*
X5030606Y-10410290D01*
X5030606Y-10410290D02*
X5011558Y-10400766D01*
X5240129Y-10515052D02*
X5125844Y-10515052D01*
X5182987Y-10515052D02*
X5182987Y-10315052D01*
X5182987Y-10315052D02*
X5163939Y-10343623D01*
X5163939Y-10343623D02*
X5144891Y-10362671D01*
X5144891Y-10362671D02*
X5125844Y-10372195D01*
X5316320Y-10315052D02*
X5316320Y-10353147D01*
X5392510Y-10315052D02*
X5392510Y-10353147D01*
X5687749Y-10591242D02*
X5678225Y-10581718D01*
X5678225Y-10581718D02*
X5659177Y-10553147D01*
X5659177Y-10553147D02*
X5649653Y-10534099D01*
X5649653Y-10534099D02*
X5640129Y-10505528D01*
X5640129Y-10505528D02*
X5630606Y-10457909D01*
X5630606Y-10457909D02*
X5630606Y-10419814D01*
X5630606Y-10419814D02*
X5640129Y-10372195D01*
X5640129Y-10372195D02*
X5649653Y-10343623D01*
X5649653Y-10343623D02*
X5659177Y-10324576D01*
X5659177Y-10324576D02*
X5678225Y-10296004D01*
X5678225Y-10296004D02*
X5687749Y-10286480D01*
X5754415Y-10334099D02*
X5763939Y-10324576D01*
X5763939Y-10324576D02*
X5782987Y-10315052D01*
X5782987Y-10315052D02*
X5830606Y-10315052D01*
X5830606Y-10315052D02*
X5849653Y-10324576D01*
X5849653Y-10324576D02*
X5859177Y-10334099D01*
X5859177Y-10334099D02*
X5868701Y-10353147D01*
X5868701Y-10353147D02*
X5868701Y-10372195D01*
X5868701Y-10372195D02*
X5859177Y-10400766D01*
X5859177Y-10400766D02*
X5744891Y-10515052D01*
X5744891Y-10515052D02*
X5868701Y-10515052D01*
X6040129Y-10315052D02*
X6002034Y-10315052D01*
X6002034Y-10315052D02*
X5982987Y-10324576D01*
X5982987Y-10324576D02*
X5973463Y-10334099D01*
X5973463Y-10334099D02*
X5954415Y-10362671D01*
X5954415Y-10362671D02*
X5944891Y-10400766D01*
X5944891Y-10400766D02*
X5944891Y-10476957D01*
X5944891Y-10476957D02*
X5954415Y-10496004D01*
X5954415Y-10496004D02*
X5963939Y-10505528D01*
X5963939Y-10505528D02*
X5982987Y-10515052D01*
X5982987Y-10515052D02*
X6021082Y-10515052D01*
X6021082Y-10515052D02*
X6040129Y-10505528D01*
X6040129Y-10505528D02*
X6049653Y-10496004D01*
X6049653Y-10496004D02*
X6059177Y-10476957D01*
X6059177Y-10476957D02*
X6059177Y-10429338D01*
X6059177Y-10429338D02*
X6049653Y-10410290D01*
X6049653Y-10410290D02*
X6040129Y-10400766D01*
X6040129Y-10400766D02*
X6021082Y-10391242D01*
X6021082Y-10391242D02*
X5982987Y-10391242D01*
X5982987Y-10391242D02*
X5963939Y-10400766D01*
X5963939Y-10400766D02*
X5954415Y-10410290D01*
X5954415Y-10410290D02*
X5944891Y-10429338D01*
X6297272Y-10515052D02*
X6297272Y-10315052D01*
X6382987Y-10515052D02*
X6382987Y-10410290D01*
X6382987Y-10410290D02*
X6373463Y-10391242D01*
X6373463Y-10391242D02*
X6354415Y-10381718D01*
X6354415Y-10381718D02*
X6325844Y-10381718D01*
X6325844Y-10381718D02*
X6306796Y-10391242D01*
X6306796Y-10391242D02*
X6297272Y-10400766D01*
X6506796Y-10515052D02*
X6487749Y-10505528D01*
X6487749Y-10505528D02*
X6478225Y-10496004D01*
X6478225Y-10496004D02*
X6468701Y-10476957D01*
X6468701Y-10476957D02*
X6468701Y-10419814D01*
X6468701Y-10419814D02*
X6478225Y-10400766D01*
X6478225Y-10400766D02*
X6487749Y-10391242D01*
X6487749Y-10391242D02*
X6506796Y-10381718D01*
X6506796Y-10381718D02*
X6535368Y-10381718D01*
X6535368Y-10381718D02*
X6554415Y-10391242D01*
X6554415Y-10391242D02*
X6563939Y-10400766D01*
X6563939Y-10400766D02*
X6573463Y-10419814D01*
X6573463Y-10419814D02*
X6573463Y-10476957D01*
X6573463Y-10476957D02*
X6563939Y-10496004D01*
X6563939Y-10496004D02*
X6554415Y-10505528D01*
X6554415Y-10505528D02*
X6535368Y-10515052D01*
X6535368Y-10515052D02*
X6506796Y-10515052D01*
X6687749Y-10515052D02*
X6668701Y-10505528D01*
X6668701Y-10505528D02*
X6659177Y-10486480D01*
X6659177Y-10486480D02*
X6659177Y-10315052D01*
X6840130Y-10505528D02*
X6821082Y-10515052D01*
X6821082Y-10515052D02*
X6782987Y-10515052D01*
X6782987Y-10515052D02*
X6763939Y-10505528D01*
X6763939Y-10505528D02*
X6754415Y-10486480D01*
X6754415Y-10486480D02*
X6754415Y-10410290D01*
X6754415Y-10410290D02*
X6763939Y-10391242D01*
X6763939Y-10391242D02*
X6782987Y-10381718D01*
X6782987Y-10381718D02*
X6821082Y-10381718D01*
X6821082Y-10381718D02*
X6840130Y-10391242D01*
X6840130Y-10391242D02*
X6849653Y-10410290D01*
X6849653Y-10410290D02*
X6849653Y-10429338D01*
X6849653Y-10429338D02*
X6754415Y-10448385D01*
X6925844Y-10505528D02*
X6944891Y-10515052D01*
X6944891Y-10515052D02*
X6982987Y-10515052D01*
X6982987Y-10515052D02*
X7002034Y-10505528D01*
X7002034Y-10505528D02*
X7011558Y-10486480D01*
X7011558Y-10486480D02*
X7011558Y-10476957D01*
X7011558Y-10476957D02*
X7002034Y-10457909D01*
X7002034Y-10457909D02*
X6982987Y-10448385D01*
X6982987Y-10448385D02*
X6954415Y-10448385D01*
X6954415Y-10448385D02*
X6935368Y-10438861D01*
X6935368Y-10438861D02*
X6925844Y-10419814D01*
X6925844Y-10419814D02*
X6925844Y-10410290D01*
X6925844Y-10410290D02*
X6935368Y-10391242D01*
X6935368Y-10391242D02*
X6954415Y-10381718D01*
X6954415Y-10381718D02*
X6982987Y-10381718D01*
X6982987Y-10381718D02*
X7002034Y-10391242D01*
X7078225Y-10591242D02*
X7087749Y-10581718D01*
X7087749Y-10581718D02*
X7106796Y-10553147D01*
X7106796Y-10553147D02*
X7116320Y-10534099D01*
X7116320Y-10534099D02*
X7125844Y-10505528D01*
X7125844Y-10505528D02*
X7135368Y-10457909D01*
X7135368Y-10457909D02*
X7135368Y-10419814D01*
X7135368Y-10419814D02*
X7125844Y-10372195D01*
X7125844Y-10372195D02*
X7116320Y-10343623D01*
X7116320Y-10343623D02*
X7106796Y-10324576D01*
X7106796Y-10324576D02*
X7087749Y-10296004D01*
X7087749Y-10296004D02*
X7078225Y-10286480D01*
X7440130Y-10591242D02*
X7430606Y-10581718D01*
X7430606Y-10581718D02*
X7411558Y-10553147D01*
X7411558Y-10553147D02*
X7402034Y-10534099D01*
X7402034Y-10534099D02*
X7392511Y-10505528D01*
X7392511Y-10505528D02*
X7382987Y-10457909D01*
X7382987Y-10457909D02*
X7382987Y-10419814D01*
X7382987Y-10419814D02*
X7392511Y-10372195D01*
X7392511Y-10372195D02*
X7402034Y-10343623D01*
X7402034Y-10343623D02*
X7411558Y-10324576D01*
X7411558Y-10324576D02*
X7430606Y-10296004D01*
X7430606Y-10296004D02*
X7440130Y-10286480D01*
X7516320Y-10381718D02*
X7516320Y-10515052D01*
X7516320Y-10400766D02*
X7525844Y-10391242D01*
X7525844Y-10391242D02*
X7544891Y-10381718D01*
X7544891Y-10381718D02*
X7573463Y-10381718D01*
X7573463Y-10381718D02*
X7592511Y-10391242D01*
X7592511Y-10391242D02*
X7602034Y-10410290D01*
X7602034Y-10410290D02*
X7602034Y-10515052D01*
X7725844Y-10515052D02*
X7706796Y-10505528D01*
X7706796Y-10505528D02*
X7697272Y-10496004D01*
X7697272Y-10496004D02*
X7687749Y-10476957D01*
X7687749Y-10476957D02*
X7687749Y-10419814D01*
X7687749Y-10419814D02*
X7697272Y-10400766D01*
X7697272Y-10400766D02*
X7706796Y-10391242D01*
X7706796Y-10391242D02*
X7725844Y-10381718D01*
X7725844Y-10381718D02*
X7754415Y-10381718D01*
X7754415Y-10381718D02*
X7773463Y-10391242D01*
X7773463Y-10391242D02*
X7782987Y-10400766D01*
X7782987Y-10400766D02*
X7792511Y-10419814D01*
X7792511Y-10419814D02*
X7792511Y-10476957D01*
X7792511Y-10476957D02*
X7782987Y-10496004D01*
X7782987Y-10496004D02*
X7773463Y-10505528D01*
X7773463Y-10505528D02*
X7754415Y-10515052D01*
X7754415Y-10515052D02*
X7725844Y-10515052D01*
X7849653Y-10381718D02*
X7925844Y-10381718D01*
X7878225Y-10315052D02*
X7878225Y-10486480D01*
X7878225Y-10486480D02*
X7887749Y-10505528D01*
X7887749Y-10505528D02*
X7906796Y-10515052D01*
X7906796Y-10515052D02*
X7925844Y-10515052D01*
X8144892Y-10381718D02*
X8144892Y-10581718D01*
X8144892Y-10391242D02*
X8163939Y-10381718D01*
X8163939Y-10381718D02*
X8202034Y-10381718D01*
X8202034Y-10381718D02*
X8221082Y-10391242D01*
X8221082Y-10391242D02*
X8230606Y-10400766D01*
X8230606Y-10400766D02*
X8240130Y-10419814D01*
X8240130Y-10419814D02*
X8240130Y-10476957D01*
X8240130Y-10476957D02*
X8230606Y-10496004D01*
X8230606Y-10496004D02*
X8221082Y-10505528D01*
X8221082Y-10505528D02*
X8202034Y-10515052D01*
X8202034Y-10515052D02*
X8163939Y-10515052D01*
X8163939Y-10515052D02*
X8144892Y-10505528D01*
X8354415Y-10515052D02*
X8335368Y-10505528D01*
X8335368Y-10505528D02*
X8325844Y-10486480D01*
X8325844Y-10486480D02*
X8325844Y-10315052D01*
X8516320Y-10515052D02*
X8516320Y-10410290D01*
X8516320Y-10410290D02*
X8506796Y-10391242D01*
X8506796Y-10391242D02*
X8487749Y-10381718D01*
X8487749Y-10381718D02*
X8449654Y-10381718D01*
X8449654Y-10381718D02*
X8430606Y-10391242D01*
X8516320Y-10505528D02*
X8497273Y-10515052D01*
X8497273Y-10515052D02*
X8449654Y-10515052D01*
X8449654Y-10515052D02*
X8430606Y-10505528D01*
X8430606Y-10505528D02*
X8421082Y-10486480D01*
X8421082Y-10486480D02*
X8421082Y-10467433D01*
X8421082Y-10467433D02*
X8430606Y-10448385D01*
X8430606Y-10448385D02*
X8449654Y-10438861D01*
X8449654Y-10438861D02*
X8497273Y-10438861D01*
X8497273Y-10438861D02*
X8516320Y-10429338D01*
X8582987Y-10381718D02*
X8659177Y-10381718D01*
X8611558Y-10315052D02*
X8611558Y-10486480D01*
X8611558Y-10486480D02*
X8621082Y-10505528D01*
X8621082Y-10505528D02*
X8640130Y-10515052D01*
X8640130Y-10515052D02*
X8659177Y-10515052D01*
X8802035Y-10505528D02*
X8782987Y-10515052D01*
X8782987Y-10515052D02*
X8744892Y-10515052D01*
X8744892Y-10515052D02*
X8725844Y-10505528D01*
X8725844Y-10505528D02*
X8716320Y-10486480D01*
X8716320Y-10486480D02*
X8716320Y-10410290D01*
X8716320Y-10410290D02*
X8725844Y-10391242D01*
X8725844Y-10391242D02*
X8744892Y-10381718D01*
X8744892Y-10381718D02*
X8782987Y-10381718D01*
X8782987Y-10381718D02*
X8802035Y-10391242D01*
X8802035Y-10391242D02*
X8811558Y-10410290D01*
X8811558Y-10410290D02*
X8811558Y-10429338D01*
X8811558Y-10429338D02*
X8716320Y-10448385D01*
X8982987Y-10515052D02*
X8982987Y-10315052D01*
X8982987Y-10505528D02*
X8963939Y-10515052D01*
X8963939Y-10515052D02*
X8925844Y-10515052D01*
X8925844Y-10515052D02*
X8906796Y-10505528D01*
X8906796Y-10505528D02*
X8897273Y-10496004D01*
X8897273Y-10496004D02*
X8887749Y-10476957D01*
X8887749Y-10476957D02*
X8887749Y-10419814D01*
X8887749Y-10419814D02*
X8897273Y-10400766D01*
X8897273Y-10400766D02*
X8906796Y-10391242D01*
X8906796Y-10391242D02*
X8925844Y-10381718D01*
X8925844Y-10381718D02*
X8963939Y-10381718D01*
X8963939Y-10381718D02*
X8982987Y-10391242D01*
X9059177Y-10591242D02*
X9068701Y-10581718D01*
X9068701Y-10581718D02*
X9087749Y-10553147D01*
X9087749Y-10553147D02*
X9097273Y-10534099D01*
X9097273Y-10534099D02*
X9106796Y-10505528D01*
X9106796Y-10505528D02*
X9116320Y-10457909D01*
X9116320Y-10457909D02*
X9116320Y-10419814D01*
X9116320Y-10419814D02*
X9106796Y-10372195D01*
X9106796Y-10372195D02*
X9097273Y-10343623D01*
X9097273Y-10343623D02*
X9087749Y-10324576D01*
X9087749Y-10324576D02*
X9068701Y-10296004D01*
X9068701Y-10296004D02*
X9059177Y-10286480D01*
X2025843Y-10642528D02*
X2025843Y-10842528D01*
X1925843Y-10742528D02*
X2125844Y-10742528D01*
X2354415Y-10635052D02*
X2478224Y-10635052D01*
X2478224Y-10635052D02*
X2411558Y-10711242D01*
X2411558Y-10711242D02*
X2440129Y-10711242D01*
X2440129Y-10711242D02*
X2459177Y-10720766D01*
X2459177Y-10720766D02*
X2468701Y-10730290D01*
X2468701Y-10730290D02*
X2478224Y-10749338D01*
X2478224Y-10749338D02*
X2478224Y-10796957D01*
X2478224Y-10796957D02*
X2468701Y-10816004D01*
X2468701Y-10816004D02*
X2459177Y-10825528D01*
X2459177Y-10825528D02*
X2440129Y-10835052D01*
X2440129Y-10835052D02*
X2382986Y-10835052D01*
X2382986Y-10835052D02*
X2363939Y-10825528D01*
X2363939Y-10825528D02*
X2354415Y-10816004D01*
X2563939Y-10816004D02*
X2573463Y-10825528D01*
X2573463Y-10825528D02*
X2563939Y-10835052D01*
X2563939Y-10835052D02*
X2554415Y-10825528D01*
X2554415Y-10825528D02*
X2563939Y-10816004D01*
X2563939Y-10816004D02*
X2563939Y-10835052D01*
X2668701Y-10835052D02*
X2706796Y-10835052D01*
X2706796Y-10835052D02*
X2725844Y-10825528D01*
X2725844Y-10825528D02*
X2735367Y-10816004D01*
X2735367Y-10816004D02*
X2754415Y-10787433D01*
X2754415Y-10787433D02*
X2763939Y-10749338D01*
X2763939Y-10749338D02*
X2763939Y-10673147D01*
X2763939Y-10673147D02*
X2754415Y-10654099D01*
X2754415Y-10654099D02*
X2744891Y-10644576D01*
X2744891Y-10644576D02*
X2725844Y-10635052D01*
X2725844Y-10635052D02*
X2687748Y-10635052D01*
X2687748Y-10635052D02*
X2668701Y-10644576D01*
X2668701Y-10644576D02*
X2659177Y-10654099D01*
X2659177Y-10654099D02*
X2649653Y-10673147D01*
X2649653Y-10673147D02*
X2649653Y-10720766D01*
X2649653Y-10720766D02*
X2659177Y-10739814D01*
X2659177Y-10739814D02*
X2668701Y-10749338D01*
X2668701Y-10749338D02*
X2687748Y-10758861D01*
X2687748Y-10758861D02*
X2725844Y-10758861D01*
X2725844Y-10758861D02*
X2744891Y-10749338D01*
X2744891Y-10749338D02*
X2754415Y-10739814D01*
X2754415Y-10739814D02*
X2763939Y-10720766D01*
X2878224Y-10720766D02*
X2859177Y-10711242D01*
X2859177Y-10711242D02*
X2849653Y-10701718D01*
X2849653Y-10701718D02*
X2840129Y-10682671D01*
X2840129Y-10682671D02*
X2840129Y-10673147D01*
X2840129Y-10673147D02*
X2849653Y-10654099D01*
X2849653Y-10654099D02*
X2859177Y-10644576D01*
X2859177Y-10644576D02*
X2878224Y-10635052D01*
X2878224Y-10635052D02*
X2916320Y-10635052D01*
X2916320Y-10635052D02*
X2935367Y-10644576D01*
X2935367Y-10644576D02*
X2944891Y-10654099D01*
X2944891Y-10654099D02*
X2954415Y-10673147D01*
X2954415Y-10673147D02*
X2954415Y-10682671D01*
X2954415Y-10682671D02*
X2944891Y-10701718D01*
X2944891Y-10701718D02*
X2935367Y-10711242D01*
X2935367Y-10711242D02*
X2916320Y-10720766D01*
X2916320Y-10720766D02*
X2878224Y-10720766D01*
X2878224Y-10720766D02*
X2859177Y-10730290D01*
X2859177Y-10730290D02*
X2849653Y-10739814D01*
X2849653Y-10739814D02*
X2840129Y-10758861D01*
X2840129Y-10758861D02*
X2840129Y-10796957D01*
X2840129Y-10796957D02*
X2849653Y-10816004D01*
X2849653Y-10816004D02*
X2859177Y-10825528D01*
X2859177Y-10825528D02*
X2878224Y-10835052D01*
X2878224Y-10835052D02*
X2916320Y-10835052D01*
X2916320Y-10835052D02*
X2935367Y-10825528D01*
X2935367Y-10825528D02*
X2944891Y-10816004D01*
X2944891Y-10816004D02*
X2954415Y-10796957D01*
X2954415Y-10796957D02*
X2954415Y-10758861D01*
X2954415Y-10758861D02*
X2944891Y-10739814D01*
X2944891Y-10739814D02*
X2935367Y-10730290D01*
X2935367Y-10730290D02*
X2916320Y-10720766D01*
X3068701Y-10720766D02*
X3049653Y-10711242D01*
X3049653Y-10711242D02*
X3040129Y-10701718D01*
X3040129Y-10701718D02*
X3030605Y-10682671D01*
X3030605Y-10682671D02*
X3030605Y-10673147D01*
X3030605Y-10673147D02*
X3040129Y-10654099D01*
X3040129Y-10654099D02*
X3049653Y-10644576D01*
X3049653Y-10644576D02*
X3068701Y-10635052D01*
X3068701Y-10635052D02*
X3106796Y-10635052D01*
X3106796Y-10635052D02*
X3125843Y-10644576D01*
X3125843Y-10644576D02*
X3135367Y-10654099D01*
X3135367Y-10654099D02*
X3144891Y-10673147D01*
X3144891Y-10673147D02*
X3144891Y-10682671D01*
X3144891Y-10682671D02*
X3135367Y-10701718D01*
X3135367Y-10701718D02*
X3125843Y-10711242D01*
X3125843Y-10711242D02*
X3106796Y-10720766D01*
X3106796Y-10720766D02*
X3068701Y-10720766D01*
X3068701Y-10720766D02*
X3049653Y-10730290D01*
X3049653Y-10730290D02*
X3040129Y-10739814D01*
X3040129Y-10739814D02*
X3030605Y-10758861D01*
X3030605Y-10758861D02*
X3030605Y-10796957D01*
X3030605Y-10796957D02*
X3040129Y-10816004D01*
X3040129Y-10816004D02*
X3049653Y-10825528D01*
X3049653Y-10825528D02*
X3068701Y-10835052D01*
X3068701Y-10835052D02*
X3106796Y-10835052D01*
X3106796Y-10835052D02*
X3125843Y-10825528D01*
X3125843Y-10825528D02*
X3135367Y-10816004D01*
X3135367Y-10816004D02*
X3144891Y-10796957D01*
X3144891Y-10796957D02*
X3144891Y-10758861D01*
X3144891Y-10758861D02*
X3135367Y-10739814D01*
X3135367Y-10739814D02*
X3125843Y-10730290D01*
X3125843Y-10730290D02*
X3106796Y-10720766D01*
X3230605Y-10835052D02*
X3230605Y-10701718D01*
X3230605Y-10720766D02*
X3240129Y-10711242D01*
X3240129Y-10711242D02*
X3259177Y-10701718D01*
X3259177Y-10701718D02*
X3287748Y-10701718D01*
X3287748Y-10701718D02*
X3306796Y-10711242D01*
X3306796Y-10711242D02*
X3316320Y-10730290D01*
X3316320Y-10730290D02*
X3316320Y-10835052D01*
X3316320Y-10730290D02*
X3325843Y-10711242D01*
X3325843Y-10711242D02*
X3344891Y-10701718D01*
X3344891Y-10701718D02*
X3373462Y-10701718D01*
X3373462Y-10701718D02*
X3392510Y-10711242D01*
X3392510Y-10711242D02*
X3402034Y-10730290D01*
X3402034Y-10730290D02*
X3402034Y-10835052D01*
X3497272Y-10835052D02*
X3497272Y-10701718D01*
X3497272Y-10720766D02*
X3506796Y-10711242D01*
X3506796Y-10711242D02*
X3525843Y-10701718D01*
X3525843Y-10701718D02*
X3554415Y-10701718D01*
X3554415Y-10701718D02*
X3573463Y-10711242D01*
X3573463Y-10711242D02*
X3582986Y-10730290D01*
X3582986Y-10730290D02*
X3582986Y-10835052D01*
X3582986Y-10730290D02*
X3592510Y-10711242D01*
X3592510Y-10711242D02*
X3611558Y-10701718D01*
X3611558Y-10701718D02*
X3640129Y-10701718D01*
X3640129Y-10701718D02*
X3659177Y-10711242D01*
X3659177Y-10711242D02*
X3668701Y-10730290D01*
X3668701Y-10730290D02*
X3668701Y-10835052D01*
X4059177Y-10625528D02*
X3887748Y-10882671D01*
X4316320Y-10635052D02*
X4335368Y-10635052D01*
X4335368Y-10635052D02*
X4354415Y-10644576D01*
X4354415Y-10644576D02*
X4363939Y-10654099D01*
X4363939Y-10654099D02*
X4373463Y-10673147D01*
X4373463Y-10673147D02*
X4382987Y-10711242D01*
X4382987Y-10711242D02*
X4382987Y-10758861D01*
X4382987Y-10758861D02*
X4373463Y-10796957D01*
X4373463Y-10796957D02*
X4363939Y-10816004D01*
X4363939Y-10816004D02*
X4354415Y-10825528D01*
X4354415Y-10825528D02*
X4335368Y-10835052D01*
X4335368Y-10835052D02*
X4316320Y-10835052D01*
X4316320Y-10835052D02*
X4297272Y-10825528D01*
X4297272Y-10825528D02*
X4287748Y-10816004D01*
X4287748Y-10816004D02*
X4278225Y-10796957D01*
X4278225Y-10796957D02*
X4268701Y-10758861D01*
X4268701Y-10758861D02*
X4268701Y-10711242D01*
X4268701Y-10711242D02*
X4278225Y-10673147D01*
X4278225Y-10673147D02*
X4287748Y-10654099D01*
X4287748Y-10654099D02*
X4297272Y-10644576D01*
X4297272Y-10644576D02*
X4316320Y-10635052D01*
X4468701Y-10816004D02*
X4478225Y-10825528D01*
X4478225Y-10825528D02*
X4468701Y-10835052D01*
X4468701Y-10835052D02*
X4459177Y-10825528D01*
X4459177Y-10825528D02*
X4468701Y-10816004D01*
X4468701Y-10816004D02*
X4468701Y-10835052D01*
X4668701Y-10835052D02*
X4554415Y-10835052D01*
X4611558Y-10835052D02*
X4611558Y-10635052D01*
X4611558Y-10635052D02*
X4592510Y-10663623D01*
X4592510Y-10663623D02*
X4573463Y-10682671D01*
X4573463Y-10682671D02*
X4554415Y-10692195D01*
X4849653Y-10635052D02*
X4754415Y-10635052D01*
X4754415Y-10635052D02*
X4744891Y-10730290D01*
X4744891Y-10730290D02*
X4754415Y-10720766D01*
X4754415Y-10720766D02*
X4773463Y-10711242D01*
X4773463Y-10711242D02*
X4821082Y-10711242D01*
X4821082Y-10711242D02*
X4840129Y-10720766D01*
X4840129Y-10720766D02*
X4849653Y-10730290D01*
X4849653Y-10730290D02*
X4859177Y-10749338D01*
X4859177Y-10749338D02*
X4859177Y-10796957D01*
X4859177Y-10796957D02*
X4849653Y-10816004D01*
X4849653Y-10816004D02*
X4840129Y-10825528D01*
X4840129Y-10825528D02*
X4821082Y-10835052D01*
X4821082Y-10835052D02*
X4773463Y-10835052D01*
X4773463Y-10835052D02*
X4754415Y-10825528D01*
X4754415Y-10825528D02*
X4744891Y-10816004D01*
X4925844Y-10635052D02*
X5059177Y-10635052D01*
X5059177Y-10635052D02*
X4973463Y-10835052D01*
X5173463Y-10635052D02*
X5192510Y-10635052D01*
X5192510Y-10635052D02*
X5211558Y-10644576D01*
X5211558Y-10644576D02*
X5221082Y-10654099D01*
X5221082Y-10654099D02*
X5230606Y-10673147D01*
X5230606Y-10673147D02*
X5240129Y-10711242D01*
X5240129Y-10711242D02*
X5240129Y-10758861D01*
X5240129Y-10758861D02*
X5230606Y-10796957D01*
X5230606Y-10796957D02*
X5221082Y-10816004D01*
X5221082Y-10816004D02*
X5211558Y-10825528D01*
X5211558Y-10825528D02*
X5192510Y-10835052D01*
X5192510Y-10835052D02*
X5173463Y-10835052D01*
X5173463Y-10835052D02*
X5154415Y-10825528D01*
X5154415Y-10825528D02*
X5144891Y-10816004D01*
X5144891Y-10816004D02*
X5135368Y-10796957D01*
X5135368Y-10796957D02*
X5125844Y-10758861D01*
X5125844Y-10758861D02*
X5125844Y-10711242D01*
X5125844Y-10711242D02*
X5135368Y-10673147D01*
X5135368Y-10673147D02*
X5144891Y-10654099D01*
X5144891Y-10654099D02*
X5154415Y-10644576D01*
X5154415Y-10644576D02*
X5173463Y-10635052D01*
X5316320Y-10635052D02*
X5316320Y-10673147D01*
X5392510Y-10635052D02*
X5392510Y-10673147D01*
X5687749Y-10911242D02*
X5678225Y-10901718D01*
X5678225Y-10901718D02*
X5659177Y-10873147D01*
X5659177Y-10873147D02*
X5649653Y-10854099D01*
X5649653Y-10854099D02*
X5640129Y-10825528D01*
X5640129Y-10825528D02*
X5630606Y-10777909D01*
X5630606Y-10777909D02*
X5630606Y-10739814D01*
X5630606Y-10739814D02*
X5640129Y-10692195D01*
X5640129Y-10692195D02*
X5649653Y-10663623D01*
X5649653Y-10663623D02*
X5659177Y-10644576D01*
X5659177Y-10644576D02*
X5678225Y-10616004D01*
X5678225Y-10616004D02*
X5687749Y-10606480D01*
X5868701Y-10835052D02*
X5754415Y-10835052D01*
X5811558Y-10835052D02*
X5811558Y-10635052D01*
X5811558Y-10635052D02*
X5792510Y-10663623D01*
X5792510Y-10663623D02*
X5773463Y-10682671D01*
X5773463Y-10682671D02*
X5754415Y-10692195D01*
X5935368Y-10635052D02*
X6059177Y-10635052D01*
X6059177Y-10635052D02*
X5992510Y-10711242D01*
X5992510Y-10711242D02*
X6021082Y-10711242D01*
X6021082Y-10711242D02*
X6040129Y-10720766D01*
X6040129Y-10720766D02*
X6049653Y-10730290D01*
X6049653Y-10730290D02*
X6059177Y-10749338D01*
X6059177Y-10749338D02*
X6059177Y-10796957D01*
X6059177Y-10796957D02*
X6049653Y-10816004D01*
X6049653Y-10816004D02*
X6040129Y-10825528D01*
X6040129Y-10825528D02*
X6021082Y-10835052D01*
X6021082Y-10835052D02*
X5963939Y-10835052D01*
X5963939Y-10835052D02*
X5944891Y-10825528D01*
X5944891Y-10825528D02*
X5935368Y-10816004D01*
X6297272Y-10835052D02*
X6297272Y-10635052D01*
X6382987Y-10835052D02*
X6382987Y-10730290D01*
X6382987Y-10730290D02*
X6373463Y-10711242D01*
X6373463Y-10711242D02*
X6354415Y-10701718D01*
X6354415Y-10701718D02*
X6325844Y-10701718D01*
X6325844Y-10701718D02*
X6306796Y-10711242D01*
X6306796Y-10711242D02*
X6297272Y-10720766D01*
X6506796Y-10835052D02*
X6487749Y-10825528D01*
X6487749Y-10825528D02*
X6478225Y-10816004D01*
X6478225Y-10816004D02*
X6468701Y-10796957D01*
X6468701Y-10796957D02*
X6468701Y-10739814D01*
X6468701Y-10739814D02*
X6478225Y-10720766D01*
X6478225Y-10720766D02*
X6487749Y-10711242D01*
X6487749Y-10711242D02*
X6506796Y-10701718D01*
X6506796Y-10701718D02*
X6535368Y-10701718D01*
X6535368Y-10701718D02*
X6554415Y-10711242D01*
X6554415Y-10711242D02*
X6563939Y-10720766D01*
X6563939Y-10720766D02*
X6573463Y-10739814D01*
X6573463Y-10739814D02*
X6573463Y-10796957D01*
X6573463Y-10796957D02*
X6563939Y-10816004D01*
X6563939Y-10816004D02*
X6554415Y-10825528D01*
X6554415Y-10825528D02*
X6535368Y-10835052D01*
X6535368Y-10835052D02*
X6506796Y-10835052D01*
X6687749Y-10835052D02*
X6668701Y-10825528D01*
X6668701Y-10825528D02*
X6659177Y-10806480D01*
X6659177Y-10806480D02*
X6659177Y-10635052D01*
X6840130Y-10825528D02*
X6821082Y-10835052D01*
X6821082Y-10835052D02*
X6782987Y-10835052D01*
X6782987Y-10835052D02*
X6763939Y-10825528D01*
X6763939Y-10825528D02*
X6754415Y-10806480D01*
X6754415Y-10806480D02*
X6754415Y-10730290D01*
X6754415Y-10730290D02*
X6763939Y-10711242D01*
X6763939Y-10711242D02*
X6782987Y-10701718D01*
X6782987Y-10701718D02*
X6821082Y-10701718D01*
X6821082Y-10701718D02*
X6840130Y-10711242D01*
X6840130Y-10711242D02*
X6849653Y-10730290D01*
X6849653Y-10730290D02*
X6849653Y-10749338D01*
X6849653Y-10749338D02*
X6754415Y-10768385D01*
X6925844Y-10825528D02*
X6944891Y-10835052D01*
X6944891Y-10835052D02*
X6982987Y-10835052D01*
X6982987Y-10835052D02*
X7002034Y-10825528D01*
X7002034Y-10825528D02*
X7011558Y-10806480D01*
X7011558Y-10806480D02*
X7011558Y-10796957D01*
X7011558Y-10796957D02*
X7002034Y-10777909D01*
X7002034Y-10777909D02*
X6982987Y-10768385D01*
X6982987Y-10768385D02*
X6954415Y-10768385D01*
X6954415Y-10768385D02*
X6935368Y-10758861D01*
X6935368Y-10758861D02*
X6925844Y-10739814D01*
X6925844Y-10739814D02*
X6925844Y-10730290D01*
X6925844Y-10730290D02*
X6935368Y-10711242D01*
X6935368Y-10711242D02*
X6954415Y-10701718D01*
X6954415Y-10701718D02*
X6982987Y-10701718D01*
X6982987Y-10701718D02*
X7002034Y-10711242D01*
X7078225Y-10911242D02*
X7087749Y-10901718D01*
X7087749Y-10901718D02*
X7106796Y-10873147D01*
X7106796Y-10873147D02*
X7116320Y-10854099D01*
X7116320Y-10854099D02*
X7125844Y-10825528D01*
X7125844Y-10825528D02*
X7135368Y-10777909D01*
X7135368Y-10777909D02*
X7135368Y-10739814D01*
X7135368Y-10739814D02*
X7125844Y-10692195D01*
X7125844Y-10692195D02*
X7116320Y-10663623D01*
X7116320Y-10663623D02*
X7106796Y-10644576D01*
X7106796Y-10644576D02*
X7087749Y-10616004D01*
X7087749Y-10616004D02*
X7078225Y-10606480D01*
X7440130Y-10911242D02*
X7430606Y-10901718D01*
X7430606Y-10901718D02*
X7411558Y-10873147D01*
X7411558Y-10873147D02*
X7402034Y-10854099D01*
X7402034Y-10854099D02*
X7392511Y-10825528D01*
X7392511Y-10825528D02*
X7382987Y-10777909D01*
X7382987Y-10777909D02*
X7382987Y-10739814D01*
X7382987Y-10739814D02*
X7392511Y-10692195D01*
X7392511Y-10692195D02*
X7402034Y-10663623D01*
X7402034Y-10663623D02*
X7411558Y-10644576D01*
X7411558Y-10644576D02*
X7430606Y-10616004D01*
X7430606Y-10616004D02*
X7440130Y-10606480D01*
X7516320Y-10701718D02*
X7516320Y-10835052D01*
X7516320Y-10720766D02*
X7525844Y-10711242D01*
X7525844Y-10711242D02*
X7544891Y-10701718D01*
X7544891Y-10701718D02*
X7573463Y-10701718D01*
X7573463Y-10701718D02*
X7592511Y-10711242D01*
X7592511Y-10711242D02*
X7602034Y-10730290D01*
X7602034Y-10730290D02*
X7602034Y-10835052D01*
X7725844Y-10835052D02*
X7706796Y-10825528D01*
X7706796Y-10825528D02*
X7697272Y-10816004D01*
X7697272Y-10816004D02*
X7687749Y-10796957D01*
X7687749Y-10796957D02*
X7687749Y-10739814D01*
X7687749Y-10739814D02*
X7697272Y-10720766D01*
X7697272Y-10720766D02*
X7706796Y-10711242D01*
X7706796Y-10711242D02*
X7725844Y-10701718D01*
X7725844Y-10701718D02*
X7754415Y-10701718D01*
X7754415Y-10701718D02*
X7773463Y-10711242D01*
X7773463Y-10711242D02*
X7782987Y-10720766D01*
X7782987Y-10720766D02*
X7792511Y-10739814D01*
X7792511Y-10739814D02*
X7792511Y-10796957D01*
X7792511Y-10796957D02*
X7782987Y-10816004D01*
X7782987Y-10816004D02*
X7773463Y-10825528D01*
X7773463Y-10825528D02*
X7754415Y-10835052D01*
X7754415Y-10835052D02*
X7725844Y-10835052D01*
X7849653Y-10701718D02*
X7925844Y-10701718D01*
X7878225Y-10635052D02*
X7878225Y-10806480D01*
X7878225Y-10806480D02*
X7887749Y-10825528D01*
X7887749Y-10825528D02*
X7906796Y-10835052D01*
X7906796Y-10835052D02*
X7925844Y-10835052D01*
X8144892Y-10701718D02*
X8144892Y-10901718D01*
X8144892Y-10711242D02*
X8163939Y-10701718D01*
X8163939Y-10701718D02*
X8202034Y-10701718D01*
X8202034Y-10701718D02*
X8221082Y-10711242D01*
X8221082Y-10711242D02*
X8230606Y-10720766D01*
X8230606Y-10720766D02*
X8240130Y-10739814D01*
X8240130Y-10739814D02*
X8240130Y-10796957D01*
X8240130Y-10796957D02*
X8230606Y-10816004D01*
X8230606Y-10816004D02*
X8221082Y-10825528D01*
X8221082Y-10825528D02*
X8202034Y-10835052D01*
X8202034Y-10835052D02*
X8163939Y-10835052D01*
X8163939Y-10835052D02*
X8144892Y-10825528D01*
X8354415Y-10835052D02*
X8335368Y-10825528D01*
X8335368Y-10825528D02*
X8325844Y-10806480D01*
X8325844Y-10806480D02*
X8325844Y-10635052D01*
X8516320Y-10835052D02*
X8516320Y-10730290D01*
X8516320Y-10730290D02*
X8506796Y-10711242D01*
X8506796Y-10711242D02*
X8487749Y-10701718D01*
X8487749Y-10701718D02*
X8449654Y-10701718D01*
X8449654Y-10701718D02*
X8430606Y-10711242D01*
X8516320Y-10825528D02*
X8497273Y-10835052D01*
X8497273Y-10835052D02*
X8449654Y-10835052D01*
X8449654Y-10835052D02*
X8430606Y-10825528D01*
X8430606Y-10825528D02*
X8421082Y-10806480D01*
X8421082Y-10806480D02*
X8421082Y-10787433D01*
X8421082Y-10787433D02*
X8430606Y-10768385D01*
X8430606Y-10768385D02*
X8449654Y-10758861D01*
X8449654Y-10758861D02*
X8497273Y-10758861D01*
X8497273Y-10758861D02*
X8516320Y-10749338D01*
X8582987Y-10701718D02*
X8659177Y-10701718D01*
X8611558Y-10635052D02*
X8611558Y-10806480D01*
X8611558Y-10806480D02*
X8621082Y-10825528D01*
X8621082Y-10825528D02*
X8640130Y-10835052D01*
X8640130Y-10835052D02*
X8659177Y-10835052D01*
X8802035Y-10825528D02*
X8782987Y-10835052D01*
X8782987Y-10835052D02*
X8744892Y-10835052D01*
X8744892Y-10835052D02*
X8725844Y-10825528D01*
X8725844Y-10825528D02*
X8716320Y-10806480D01*
X8716320Y-10806480D02*
X8716320Y-10730290D01*
X8716320Y-10730290D02*
X8725844Y-10711242D01*
X8725844Y-10711242D02*
X8744892Y-10701718D01*
X8744892Y-10701718D02*
X8782987Y-10701718D01*
X8782987Y-10701718D02*
X8802035Y-10711242D01*
X8802035Y-10711242D02*
X8811558Y-10730290D01*
X8811558Y-10730290D02*
X8811558Y-10749338D01*
X8811558Y-10749338D02*
X8716320Y-10768385D01*
X8982987Y-10835052D02*
X8982987Y-10635052D01*
X8982987Y-10825528D02*
X8963939Y-10835052D01*
X8963939Y-10835052D02*
X8925844Y-10835052D01*
X8925844Y-10835052D02*
X8906796Y-10825528D01*
X8906796Y-10825528D02*
X8897273Y-10816004D01*
X8897273Y-10816004D02*
X8887749Y-10796957D01*
X8887749Y-10796957D02*
X8887749Y-10739814D01*
X8887749Y-10739814D02*
X8897273Y-10720766D01*
X8897273Y-10720766D02*
X8906796Y-10711242D01*
X8906796Y-10711242D02*
X8925844Y-10701718D01*
X8925844Y-10701718D02*
X8963939Y-10701718D01*
X8963939Y-10701718D02*
X8982987Y-10711242D01*
X9059177Y-10911242D02*
X9068701Y-10901718D01*
X9068701Y-10901718D02*
X9087749Y-10873147D01*
X9087749Y-10873147D02*
X9097273Y-10854099D01*
X9097273Y-10854099D02*
X9106796Y-10825528D01*
X9106796Y-10825528D02*
X9116320Y-10777909D01*
X9116320Y-10777909D02*
X9116320Y-10739814D01*
X9116320Y-10739814D02*
X9106796Y-10692195D01*
X9106796Y-10692195D02*
X9097273Y-10663623D01*
X9097273Y-10663623D02*
X9087749Y-10644576D01*
X9087749Y-10644576D02*
X9068701Y-10616004D01*
X9068701Y-10616004D02*
X9059177Y-10606480D01*
X2096555Y-11133239D02*
X2096555Y-10991817D01*
X1955132Y-10991817D01*
X1955132Y-11133239D01*
X2096555Y-11133239D01*
X2459177Y-10955052D02*
X2421082Y-10955052D01*
X2421082Y-10955052D02*
X2402034Y-10964576D01*
X2402034Y-10964576D02*
X2392510Y-10974099D01*
X2392510Y-10974099D02*
X2373463Y-11002671D01*
X2373463Y-11002671D02*
X2363939Y-11040766D01*
X2363939Y-11040766D02*
X2363939Y-11116957D01*
X2363939Y-11116957D02*
X2373463Y-11136004D01*
X2373463Y-11136004D02*
X2382986Y-11145528D01*
X2382986Y-11145528D02*
X2402034Y-11155052D01*
X2402034Y-11155052D02*
X2440129Y-11155052D01*
X2440129Y-11155052D02*
X2459177Y-11145528D01*
X2459177Y-11145528D02*
X2468701Y-11136004D01*
X2468701Y-11136004D02*
X2478224Y-11116957D01*
X2478224Y-11116957D02*
X2478224Y-11069338D01*
X2478224Y-11069338D02*
X2468701Y-11050290D01*
X2468701Y-11050290D02*
X2459177Y-11040766D01*
X2459177Y-11040766D02*
X2440129Y-11031242D01*
X2440129Y-11031242D02*
X2402034Y-11031242D01*
X2402034Y-11031242D02*
X2382986Y-11040766D01*
X2382986Y-11040766D02*
X2373463Y-11050290D01*
X2373463Y-11050290D02*
X2363939Y-11069338D01*
X2563939Y-11136004D02*
X2573463Y-11145528D01*
X2573463Y-11145528D02*
X2563939Y-11155052D01*
X2563939Y-11155052D02*
X2554415Y-11145528D01*
X2554415Y-11145528D02*
X2563939Y-11136004D01*
X2563939Y-11136004D02*
X2563939Y-11155052D01*
X2697272Y-10955052D02*
X2716320Y-10955052D01*
X2716320Y-10955052D02*
X2735367Y-10964576D01*
X2735367Y-10964576D02*
X2744891Y-10974099D01*
X2744891Y-10974099D02*
X2754415Y-10993147D01*
X2754415Y-10993147D02*
X2763939Y-11031242D01*
X2763939Y-11031242D02*
X2763939Y-11078861D01*
X2763939Y-11078861D02*
X2754415Y-11116957D01*
X2754415Y-11116957D02*
X2744891Y-11136004D01*
X2744891Y-11136004D02*
X2735367Y-11145528D01*
X2735367Y-11145528D02*
X2716320Y-11155052D01*
X2716320Y-11155052D02*
X2697272Y-11155052D01*
X2697272Y-11155052D02*
X2678224Y-11145528D01*
X2678224Y-11145528D02*
X2668701Y-11136004D01*
X2668701Y-11136004D02*
X2659177Y-11116957D01*
X2659177Y-11116957D02*
X2649653Y-11078861D01*
X2649653Y-11078861D02*
X2649653Y-11031242D01*
X2649653Y-11031242D02*
X2659177Y-10993147D01*
X2659177Y-10993147D02*
X2668701Y-10974099D01*
X2668701Y-10974099D02*
X2678224Y-10964576D01*
X2678224Y-10964576D02*
X2697272Y-10955052D01*
X2859177Y-11155052D02*
X2897272Y-11155052D01*
X2897272Y-11155052D02*
X2916320Y-11145528D01*
X2916320Y-11145528D02*
X2925843Y-11136004D01*
X2925843Y-11136004D02*
X2944891Y-11107433D01*
X2944891Y-11107433D02*
X2954415Y-11069338D01*
X2954415Y-11069338D02*
X2954415Y-10993147D01*
X2954415Y-10993147D02*
X2944891Y-10974099D01*
X2944891Y-10974099D02*
X2935367Y-10964576D01*
X2935367Y-10964576D02*
X2916320Y-10955052D01*
X2916320Y-10955052D02*
X2878224Y-10955052D01*
X2878224Y-10955052D02*
X2859177Y-10964576D01*
X2859177Y-10964576D02*
X2849653Y-10974099D01*
X2849653Y-10974099D02*
X2840129Y-10993147D01*
X2840129Y-10993147D02*
X2840129Y-11040766D01*
X2840129Y-11040766D02*
X2849653Y-11059814D01*
X2849653Y-11059814D02*
X2859177Y-11069338D01*
X2859177Y-11069338D02*
X2878224Y-11078861D01*
X2878224Y-11078861D02*
X2916320Y-11078861D01*
X2916320Y-11078861D02*
X2935367Y-11069338D01*
X2935367Y-11069338D02*
X2944891Y-11059814D01*
X2944891Y-11059814D02*
X2954415Y-11040766D01*
X3125843Y-10955052D02*
X3087748Y-10955052D01*
X3087748Y-10955052D02*
X3068701Y-10964576D01*
X3068701Y-10964576D02*
X3059177Y-10974099D01*
X3059177Y-10974099D02*
X3040129Y-11002671D01*
X3040129Y-11002671D02*
X3030605Y-11040766D01*
X3030605Y-11040766D02*
X3030605Y-11116957D01*
X3030605Y-11116957D02*
X3040129Y-11136004D01*
X3040129Y-11136004D02*
X3049653Y-11145528D01*
X3049653Y-11145528D02*
X3068701Y-11155052D01*
X3068701Y-11155052D02*
X3106796Y-11155052D01*
X3106796Y-11155052D02*
X3125843Y-11145528D01*
X3125843Y-11145528D02*
X3135367Y-11136004D01*
X3135367Y-11136004D02*
X3144891Y-11116957D01*
X3144891Y-11116957D02*
X3144891Y-11069338D01*
X3144891Y-11069338D02*
X3135367Y-11050290D01*
X3135367Y-11050290D02*
X3125843Y-11040766D01*
X3125843Y-11040766D02*
X3106796Y-11031242D01*
X3106796Y-11031242D02*
X3068701Y-11031242D01*
X3068701Y-11031242D02*
X3049653Y-11040766D01*
X3049653Y-11040766D02*
X3040129Y-11050290D01*
X3040129Y-11050290D02*
X3030605Y-11069338D01*
X3230605Y-11155052D02*
X3230605Y-11021718D01*
X3230605Y-11040766D02*
X3240129Y-11031242D01*
X3240129Y-11031242D02*
X3259177Y-11021718D01*
X3259177Y-11021718D02*
X3287748Y-11021718D01*
X3287748Y-11021718D02*
X3306796Y-11031242D01*
X3306796Y-11031242D02*
X3316320Y-11050290D01*
X3316320Y-11050290D02*
X3316320Y-11155052D01*
X3316320Y-11050290D02*
X3325843Y-11031242D01*
X3325843Y-11031242D02*
X3344891Y-11021718D01*
X3344891Y-11021718D02*
X3373462Y-11021718D01*
X3373462Y-11021718D02*
X3392510Y-11031242D01*
X3392510Y-11031242D02*
X3402034Y-11050290D01*
X3402034Y-11050290D02*
X3402034Y-11155052D01*
X3497272Y-11155052D02*
X3497272Y-11021718D01*
X3497272Y-11040766D02*
X3506796Y-11031242D01*
X3506796Y-11031242D02*
X3525843Y-11021718D01*
X3525843Y-11021718D02*
X3554415Y-11021718D01*
X3554415Y-11021718D02*
X3573463Y-11031242D01*
X3573463Y-11031242D02*
X3582986Y-11050290D01*
X3582986Y-11050290D02*
X3582986Y-11155052D01*
X3582986Y-11050290D02*
X3592510Y-11031242D01*
X3592510Y-11031242D02*
X3611558Y-11021718D01*
X3611558Y-11021718D02*
X3640129Y-11021718D01*
X3640129Y-11021718D02*
X3659177Y-11031242D01*
X3659177Y-11031242D02*
X3668701Y-11050290D01*
X3668701Y-11050290D02*
X3668701Y-11155052D01*
X4059177Y-10945528D02*
X3887748Y-11202671D01*
X4316320Y-10955052D02*
X4335368Y-10955052D01*
X4335368Y-10955052D02*
X4354415Y-10964576D01*
X4354415Y-10964576D02*
X4363939Y-10974099D01*
X4363939Y-10974099D02*
X4373463Y-10993147D01*
X4373463Y-10993147D02*
X4382987Y-11031242D01*
X4382987Y-11031242D02*
X4382987Y-11078861D01*
X4382987Y-11078861D02*
X4373463Y-11116957D01*
X4373463Y-11116957D02*
X4363939Y-11136004D01*
X4363939Y-11136004D02*
X4354415Y-11145528D01*
X4354415Y-11145528D02*
X4335368Y-11155052D01*
X4335368Y-11155052D02*
X4316320Y-11155052D01*
X4316320Y-11155052D02*
X4297272Y-11145528D01*
X4297272Y-11145528D02*
X4287748Y-11136004D01*
X4287748Y-11136004D02*
X4278225Y-11116957D01*
X4278225Y-11116957D02*
X4268701Y-11078861D01*
X4268701Y-11078861D02*
X4268701Y-11031242D01*
X4268701Y-11031242D02*
X4278225Y-10993147D01*
X4278225Y-10993147D02*
X4287748Y-10974099D01*
X4287748Y-10974099D02*
X4297272Y-10964576D01*
X4297272Y-10964576D02*
X4316320Y-10955052D01*
X4468701Y-11136004D02*
X4478225Y-11145528D01*
X4478225Y-11145528D02*
X4468701Y-11155052D01*
X4468701Y-11155052D02*
X4459177Y-11145528D01*
X4459177Y-11145528D02*
X4468701Y-11136004D01*
X4468701Y-11136004D02*
X4468701Y-11155052D01*
X4554415Y-10974099D02*
X4563939Y-10964576D01*
X4563939Y-10964576D02*
X4582987Y-10955052D01*
X4582987Y-10955052D02*
X4630606Y-10955052D01*
X4630606Y-10955052D02*
X4649653Y-10964576D01*
X4649653Y-10964576D02*
X4659177Y-10974099D01*
X4659177Y-10974099D02*
X4668701Y-10993147D01*
X4668701Y-10993147D02*
X4668701Y-11012195D01*
X4668701Y-11012195D02*
X4659177Y-11040766D01*
X4659177Y-11040766D02*
X4544891Y-11155052D01*
X4544891Y-11155052D02*
X4668701Y-11155052D01*
X4840129Y-11021718D02*
X4840129Y-11155052D01*
X4792510Y-10945528D02*
X4744891Y-11088385D01*
X4744891Y-11088385D02*
X4868701Y-11088385D01*
X4982987Y-10955052D02*
X5002034Y-10955052D01*
X5002034Y-10955052D02*
X5021082Y-10964576D01*
X5021082Y-10964576D02*
X5030606Y-10974099D01*
X5030606Y-10974099D02*
X5040129Y-10993147D01*
X5040129Y-10993147D02*
X5049653Y-11031242D01*
X5049653Y-11031242D02*
X5049653Y-11078861D01*
X5049653Y-11078861D02*
X5040129Y-11116957D01*
X5040129Y-11116957D02*
X5030606Y-11136004D01*
X5030606Y-11136004D02*
X5021082Y-11145528D01*
X5021082Y-11145528D02*
X5002034Y-11155052D01*
X5002034Y-11155052D02*
X4982987Y-11155052D01*
X4982987Y-11155052D02*
X4963939Y-11145528D01*
X4963939Y-11145528D02*
X4954415Y-11136004D01*
X4954415Y-11136004D02*
X4944891Y-11116957D01*
X4944891Y-11116957D02*
X4935368Y-11078861D01*
X4935368Y-11078861D02*
X4935368Y-11031242D01*
X4935368Y-11031242D02*
X4944891Y-10993147D01*
X4944891Y-10993147D02*
X4954415Y-10974099D01*
X4954415Y-10974099D02*
X4963939Y-10964576D01*
X4963939Y-10964576D02*
X4982987Y-10955052D01*
X5173463Y-10955052D02*
X5192510Y-10955052D01*
X5192510Y-10955052D02*
X5211558Y-10964576D01*
X5211558Y-10964576D02*
X5221082Y-10974099D01*
X5221082Y-10974099D02*
X5230606Y-10993147D01*
X5230606Y-10993147D02*
X5240129Y-11031242D01*
X5240129Y-11031242D02*
X5240129Y-11078861D01*
X5240129Y-11078861D02*
X5230606Y-11116957D01*
X5230606Y-11116957D02*
X5221082Y-11136004D01*
X5221082Y-11136004D02*
X5211558Y-11145528D01*
X5211558Y-11145528D02*
X5192510Y-11155052D01*
X5192510Y-11155052D02*
X5173463Y-11155052D01*
X5173463Y-11155052D02*
X5154415Y-11145528D01*
X5154415Y-11145528D02*
X5144891Y-11136004D01*
X5144891Y-11136004D02*
X5135368Y-11116957D01*
X5135368Y-11116957D02*
X5125844Y-11078861D01*
X5125844Y-11078861D02*
X5125844Y-11031242D01*
X5125844Y-11031242D02*
X5135368Y-10993147D01*
X5135368Y-10993147D02*
X5144891Y-10974099D01*
X5144891Y-10974099D02*
X5154415Y-10964576D01*
X5154415Y-10964576D02*
X5173463Y-10955052D01*
X5316320Y-10955052D02*
X5316320Y-10993147D01*
X5392510Y-10955052D02*
X5392510Y-10993147D01*
X5687749Y-11231242D02*
X5678225Y-11221718D01*
X5678225Y-11221718D02*
X5659177Y-11193147D01*
X5659177Y-11193147D02*
X5649653Y-11174099D01*
X5649653Y-11174099D02*
X5640129Y-11145528D01*
X5640129Y-11145528D02*
X5630606Y-11097909D01*
X5630606Y-11097909D02*
X5630606Y-11059814D01*
X5630606Y-11059814D02*
X5640129Y-11012195D01*
X5640129Y-11012195D02*
X5649653Y-10983623D01*
X5649653Y-10983623D02*
X5659177Y-10964576D01*
X5659177Y-10964576D02*
X5678225Y-10936004D01*
X5678225Y-10936004D02*
X5687749Y-10926480D01*
X5868701Y-11155052D02*
X5754415Y-11155052D01*
X5811558Y-11155052D02*
X5811558Y-10955052D01*
X5811558Y-10955052D02*
X5792510Y-10983623D01*
X5792510Y-10983623D02*
X5773463Y-11002671D01*
X5773463Y-11002671D02*
X5754415Y-11012195D01*
X6106796Y-11155052D02*
X6106796Y-10955052D01*
X6192510Y-11155052D02*
X6192510Y-11050290D01*
X6192510Y-11050290D02*
X6182987Y-11031242D01*
X6182987Y-11031242D02*
X6163939Y-11021718D01*
X6163939Y-11021718D02*
X6135368Y-11021718D01*
X6135368Y-11021718D02*
X6116320Y-11031242D01*
X6116320Y-11031242D02*
X6106796Y-11040766D01*
X6316320Y-11155052D02*
X6297272Y-11145528D01*
X6297272Y-11145528D02*
X6287749Y-11136004D01*
X6287749Y-11136004D02*
X6278225Y-11116957D01*
X6278225Y-11116957D02*
X6278225Y-11059814D01*
X6278225Y-11059814D02*
X6287749Y-11040766D01*
X6287749Y-11040766D02*
X6297272Y-11031242D01*
X6297272Y-11031242D02*
X6316320Y-11021718D01*
X6316320Y-11021718D02*
X6344891Y-11021718D01*
X6344891Y-11021718D02*
X6363939Y-11031242D01*
X6363939Y-11031242D02*
X6373463Y-11040766D01*
X6373463Y-11040766D02*
X6382987Y-11059814D01*
X6382987Y-11059814D02*
X6382987Y-11116957D01*
X6382987Y-11116957D02*
X6373463Y-11136004D01*
X6373463Y-11136004D02*
X6363939Y-11145528D01*
X6363939Y-11145528D02*
X6344891Y-11155052D01*
X6344891Y-11155052D02*
X6316320Y-11155052D01*
X6497272Y-11155052D02*
X6478225Y-11145528D01*
X6478225Y-11145528D02*
X6468701Y-11126480D01*
X6468701Y-11126480D02*
X6468701Y-10955052D01*
X6649653Y-11145528D02*
X6630606Y-11155052D01*
X6630606Y-11155052D02*
X6592510Y-11155052D01*
X6592510Y-11155052D02*
X6573463Y-11145528D01*
X6573463Y-11145528D02*
X6563939Y-11126480D01*
X6563939Y-11126480D02*
X6563939Y-11050290D01*
X6563939Y-11050290D02*
X6573463Y-11031242D01*
X6573463Y-11031242D02*
X6592510Y-11021718D01*
X6592510Y-11021718D02*
X6630606Y-11021718D01*
X6630606Y-11021718D02*
X6649653Y-11031242D01*
X6649653Y-11031242D02*
X6659177Y-11050290D01*
X6659177Y-11050290D02*
X6659177Y-11069338D01*
X6659177Y-11069338D02*
X6563939Y-11088385D01*
X6725844Y-11231242D02*
X6735368Y-11221718D01*
X6735368Y-11221718D02*
X6754415Y-11193147D01*
X6754415Y-11193147D02*
X6763939Y-11174099D01*
X6763939Y-11174099D02*
X6773463Y-11145528D01*
X6773463Y-11145528D02*
X6782987Y-11097909D01*
X6782987Y-11097909D02*
X6782987Y-11059814D01*
X6782987Y-11059814D02*
X6773463Y-11012195D01*
X6773463Y-11012195D02*
X6763939Y-10983623D01*
X6763939Y-10983623D02*
X6754415Y-10964576D01*
X6754415Y-10964576D02*
X6735368Y-10936004D01*
X6735368Y-10936004D02*
X6725844Y-10926480D01*
X7087749Y-11231242D02*
X7078225Y-11221718D01*
X7078225Y-11221718D02*
X7059177Y-11193147D01*
X7059177Y-11193147D02*
X7049653Y-11174099D01*
X7049653Y-11174099D02*
X7040130Y-11145528D01*
X7040130Y-11145528D02*
X7030606Y-11097909D01*
X7030606Y-11097909D02*
X7030606Y-11059814D01*
X7030606Y-11059814D02*
X7040130Y-11012195D01*
X7040130Y-11012195D02*
X7049653Y-10983623D01*
X7049653Y-10983623D02*
X7059177Y-10964576D01*
X7059177Y-10964576D02*
X7078225Y-10936004D01*
X7078225Y-10936004D02*
X7087749Y-10926480D01*
X7163939Y-11021718D02*
X7163939Y-11155052D01*
X7163939Y-11040766D02*
X7173463Y-11031242D01*
X7173463Y-11031242D02*
X7192510Y-11021718D01*
X7192510Y-11021718D02*
X7221082Y-11021718D01*
X7221082Y-11021718D02*
X7240130Y-11031242D01*
X7240130Y-11031242D02*
X7249653Y-11050290D01*
X7249653Y-11050290D02*
X7249653Y-11155052D01*
X7373463Y-11155052D02*
X7354415Y-11145528D01*
X7354415Y-11145528D02*
X7344891Y-11136004D01*
X7344891Y-11136004D02*
X7335368Y-11116957D01*
X7335368Y-11116957D02*
X7335368Y-11059814D01*
X7335368Y-11059814D02*
X7344891Y-11040766D01*
X7344891Y-11040766D02*
X7354415Y-11031242D01*
X7354415Y-11031242D02*
X7373463Y-11021718D01*
X7373463Y-11021718D02*
X7402034Y-11021718D01*
X7402034Y-11021718D02*
X7421082Y-11031242D01*
X7421082Y-11031242D02*
X7430606Y-11040766D01*
X7430606Y-11040766D02*
X7440130Y-11059814D01*
X7440130Y-11059814D02*
X7440130Y-11116957D01*
X7440130Y-11116957D02*
X7430606Y-11136004D01*
X7430606Y-11136004D02*
X7421082Y-11145528D01*
X7421082Y-11145528D02*
X7402034Y-11155052D01*
X7402034Y-11155052D02*
X7373463Y-11155052D01*
X7497272Y-11021718D02*
X7573463Y-11021718D01*
X7525844Y-10955052D02*
X7525844Y-11126480D01*
X7525844Y-11126480D02*
X7535368Y-11145528D01*
X7535368Y-11145528D02*
X7554415Y-11155052D01*
X7554415Y-11155052D02*
X7573463Y-11155052D01*
X7792511Y-11021718D02*
X7792511Y-11221718D01*
X7792511Y-11031242D02*
X7811558Y-11021718D01*
X7811558Y-11021718D02*
X7849653Y-11021718D01*
X7849653Y-11021718D02*
X7868701Y-11031242D01*
X7868701Y-11031242D02*
X7878225Y-11040766D01*
X7878225Y-11040766D02*
X7887749Y-11059814D01*
X7887749Y-11059814D02*
X7887749Y-11116957D01*
X7887749Y-11116957D02*
X7878225Y-11136004D01*
X7878225Y-11136004D02*
X7868701Y-11145528D01*
X7868701Y-11145528D02*
X7849653Y-11155052D01*
X7849653Y-11155052D02*
X7811558Y-11155052D01*
X7811558Y-11155052D02*
X7792511Y-11145528D01*
X8002034Y-11155052D02*
X7982987Y-11145528D01*
X7982987Y-11145528D02*
X7973463Y-11126480D01*
X7973463Y-11126480D02*
X7973463Y-10955052D01*
X8163939Y-11155052D02*
X8163939Y-11050290D01*
X8163939Y-11050290D02*
X8154415Y-11031242D01*
X8154415Y-11031242D02*
X8135368Y-11021718D01*
X8135368Y-11021718D02*
X8097272Y-11021718D01*
X8097272Y-11021718D02*
X8078225Y-11031242D01*
X8163939Y-11145528D02*
X8144892Y-11155052D01*
X8144892Y-11155052D02*
X8097272Y-11155052D01*
X8097272Y-11155052D02*
X8078225Y-11145528D01*
X8078225Y-11145528D02*
X8068701Y-11126480D01*
X8068701Y-11126480D02*
X8068701Y-11107433D01*
X8068701Y-11107433D02*
X8078225Y-11088385D01*
X8078225Y-11088385D02*
X8097272Y-11078861D01*
X8097272Y-11078861D02*
X8144892Y-11078861D01*
X8144892Y-11078861D02*
X8163939Y-11069338D01*
X8230606Y-11021718D02*
X8306796Y-11021718D01*
X8259177Y-10955052D02*
X8259177Y-11126480D01*
X8259177Y-11126480D02*
X8268701Y-11145528D01*
X8268701Y-11145528D02*
X8287749Y-11155052D01*
X8287749Y-11155052D02*
X8306796Y-11155052D01*
X8449654Y-11145528D02*
X8430606Y-11155052D01*
X8430606Y-11155052D02*
X8392511Y-11155052D01*
X8392511Y-11155052D02*
X8373463Y-11145528D01*
X8373463Y-11145528D02*
X8363939Y-11126480D01*
X8363939Y-11126480D02*
X8363939Y-11050290D01*
X8363939Y-11050290D02*
X8373463Y-11031242D01*
X8373463Y-11031242D02*
X8392511Y-11021718D01*
X8392511Y-11021718D02*
X8430606Y-11021718D01*
X8430606Y-11021718D02*
X8449654Y-11031242D01*
X8449654Y-11031242D02*
X8459177Y-11050290D01*
X8459177Y-11050290D02*
X8459177Y-11069338D01*
X8459177Y-11069338D02*
X8363939Y-11088385D01*
X8630606Y-11155052D02*
X8630606Y-10955052D01*
X8630606Y-11145528D02*
X8611558Y-11155052D01*
X8611558Y-11155052D02*
X8573463Y-11155052D01*
X8573463Y-11155052D02*
X8554415Y-11145528D01*
X8554415Y-11145528D02*
X8544892Y-11136004D01*
X8544892Y-11136004D02*
X8535368Y-11116957D01*
X8535368Y-11116957D02*
X8535368Y-11059814D01*
X8535368Y-11059814D02*
X8544892Y-11040766D01*
X8544892Y-11040766D02*
X8554415Y-11031242D01*
X8554415Y-11031242D02*
X8573463Y-11021718D01*
X8573463Y-11021718D02*
X8611558Y-11021718D01*
X8611558Y-11021718D02*
X8630606Y-11031242D01*
X8706796Y-11231242D02*
X8716320Y-11221718D01*
X8716320Y-11221718D02*
X8735368Y-11193147D01*
X8735368Y-11193147D02*
X8744892Y-11174099D01*
X8744892Y-11174099D02*
X8754415Y-11145528D01*
X8754415Y-11145528D02*
X8763939Y-11097909D01*
X8763939Y-11097909D02*
X8763939Y-11059814D01*
X8763939Y-11059814D02*
X8754415Y-11012195D01*
X8754415Y-11012195D02*
X8744892Y-10983623D01*
X8744892Y-10983623D02*
X8735368Y-10964576D01*
X8735368Y-10964576D02*
X8716320Y-10936004D01*
X8716320Y-10936004D02*
X8706796Y-10926480D01*
M02*
