G04 #@! TF.GenerationSoftware,KiCad,Pcbnew,(6.0.10-0)*
G04 #@! TF.CreationDate,2023-02-16T14:01:49+09:00*
G04 #@! TF.ProjectId,Sandy_Middle,53616e64-795f-44d6-9964-646c652e6b69,v.0*
G04 #@! TF.SameCoordinates,Original*
G04 #@! TF.FileFunction,Legend,Top*
G04 #@! TF.FilePolarity,Positive*
%FSLAX46Y46*%
G04 Gerber Fmt 4.6, Leading zero omitted, Abs format (unit mm)*
G04 Created by KiCad (PCBNEW (6.0.10-0)) date 2023-02-16 14:01:49*
%MOMM*%
%LPD*%
G01*
G04 APERTURE LIST*
G04 Aperture macros list*
%AMRoundRect*
0 Rectangle with rounded corners*
0 $1 Rounding radius*
0 $2 $3 $4 $5 $6 $7 $8 $9 X,Y pos of 4 corners*
0 Add a 4 corners polygon primitive as box body*
4,1,4,$2,$3,$4,$5,$6,$7,$8,$9,$2,$3,0*
0 Add four circle primitives for the rounded corners*
1,1,$1+$1,$2,$3*
1,1,$1+$1,$4,$5*
1,1,$1+$1,$6,$7*
1,1,$1+$1,$8,$9*
0 Add four rect primitives between the rounded corners*
20,1,$1+$1,$2,$3,$4,$5,0*
20,1,$1+$1,$4,$5,$6,$7,0*
20,1,$1+$1,$6,$7,$8,$9,0*
20,1,$1+$1,$8,$9,$2,$3,0*%
G04 Aperture macros list end*
%ADD10C,0.127000*%
%ADD11C,0.200000*%
%ADD12O,1.850000X4.400000*%
%ADD13C,2.000000*%
%ADD14RoundRect,0.200000X-0.950000X1.000000X-0.950000X-1.000000X0.950000X-1.000000X0.950000X1.000000X0*%
%ADD15C,4.800000*%
%ADD16C,2.150000*%
%ADD17C,4.387800*%
%ADD18C,6.496000*%
%ADD19O,8.781998X5.734000*%
%ADD20O,2.100000X2.100000*%
%ADD21C,2.400000*%
G04 APERTURE END LIST*
G36*
X31954367Y-32558797D02*
G01*
X31873183Y-32512323D01*
X31786008Y-32462088D01*
X31724435Y-32426419D01*
X31634312Y-32374201D01*
X31549276Y-32325118D01*
X31470913Y-32280074D01*
X31400808Y-32239971D01*
X31340549Y-32205713D01*
X31291723Y-32178202D01*
X31255914Y-32158342D01*
X31234711Y-32147035D01*
X31229435Y-32144692D01*
X31219734Y-32149599D01*
X31193747Y-32163980D01*
X31152481Y-32187254D01*
X31096941Y-32218845D01*
X31028135Y-32258172D01*
X30947069Y-32304657D01*
X30854749Y-32357722D01*
X30752181Y-32416787D01*
X30640373Y-32481273D01*
X30520331Y-32550603D01*
X30393060Y-32624196D01*
X30259569Y-32701474D01*
X30120862Y-32781859D01*
X30049435Y-32823287D01*
X29908196Y-32905148D01*
X29771462Y-32984244D01*
X29640257Y-33059990D01*
X29515604Y-33131802D01*
X29398527Y-33199095D01*
X29290049Y-33261284D01*
X29191194Y-33317785D01*
X29102987Y-33368013D01*
X29026449Y-33411384D01*
X28962606Y-33447314D01*
X28912480Y-33475217D01*
X28877095Y-33494508D01*
X28857475Y-33504605D01*
X28853939Y-33506016D01*
X28843668Y-33504375D01*
X28824813Y-33497109D01*
X28796319Y-33483644D01*
X28757129Y-33463408D01*
X28706188Y-33435827D01*
X28657488Y-33408710D01*
X28884320Y-33408710D01*
X28921877Y-33388896D01*
X28934510Y-33381781D01*
X28963514Y-33365160D01*
X29007962Y-33339570D01*
X29066926Y-33305548D01*
X29139480Y-33263631D01*
X29224696Y-33214354D01*
X29321648Y-33158256D01*
X29429407Y-33095872D01*
X29547047Y-33027740D01*
X29673641Y-32954396D01*
X29808262Y-32876377D01*
X29949982Y-32794219D01*
X30097874Y-32708460D01*
X30251011Y-32619637D01*
X30404435Y-32530624D01*
X31154334Y-32095497D01*
X31304020Y-32095497D01*
X31741727Y-32350741D01*
X31827136Y-32400480D01*
X31907332Y-32447056D01*
X31980655Y-32489514D01*
X32045443Y-32526897D01*
X32100035Y-32558251D01*
X32142772Y-32582619D01*
X32171992Y-32599045D01*
X32186035Y-32606575D01*
X32186992Y-32606957D01*
X32188113Y-32597348D01*
X32189124Y-32569193D01*
X32190016Y-32523954D01*
X32190781Y-32463093D01*
X32191409Y-32388072D01*
X32191893Y-32300352D01*
X32192223Y-32201395D01*
X32192391Y-32092664D01*
X32192387Y-31975619D01*
X32192204Y-31851724D01*
X32191992Y-31770793D01*
X32189435Y-30933656D01*
X32064435Y-30860701D01*
X32019504Y-30834743D01*
X31980686Y-30812820D01*
X31951251Y-30796738D01*
X31934465Y-30788305D01*
X31932031Y-30787479D01*
X31930494Y-30797105D01*
X31928958Y-30824798D01*
X31927463Y-30868619D01*
X31926050Y-30926626D01*
X31924761Y-30996880D01*
X31923635Y-31077440D01*
X31922715Y-31166367D01*
X31922039Y-31261718D01*
X31922031Y-31263157D01*
X31919435Y-31739102D01*
X31611727Y-31917300D01*
X31304020Y-32095497D01*
X31154334Y-32095497D01*
X31849435Y-31692166D01*
X31851992Y-30859540D01*
X31852294Y-30732416D01*
X31852409Y-30611218D01*
X31852347Y-30497410D01*
X31852116Y-30392461D01*
X31851725Y-30297838D01*
X31851183Y-30215006D01*
X31850499Y-30145434D01*
X31849681Y-30090587D01*
X31848739Y-30051933D01*
X31847680Y-30030938D01*
X31846992Y-30027428D01*
X31837662Y-30032406D01*
X31811911Y-30046886D01*
X31770636Y-30070353D01*
X31714728Y-30102294D01*
X31645083Y-30142193D01*
X31562595Y-30189536D01*
X31468156Y-30243809D01*
X31362662Y-30304498D01*
X31247005Y-30371089D01*
X31122081Y-30443067D01*
X30988783Y-30519917D01*
X30848005Y-30601126D01*
X30700641Y-30686179D01*
X30547585Y-30774562D01*
X30389730Y-30865761D01*
X30364435Y-30880379D01*
X28889435Y-31732817D01*
X28886877Y-32570763D01*
X28884320Y-33408710D01*
X28657488Y-33408710D01*
X28642438Y-33400330D01*
X28564825Y-33356342D01*
X28472293Y-33303290D01*
X28363784Y-33240603D01*
X28349544Y-33232350D01*
X28259969Y-33180537D01*
X28175470Y-33131878D01*
X28097646Y-33087279D01*
X28028097Y-33047648D01*
X27968424Y-33013890D01*
X27920227Y-32986913D01*
X27885106Y-32967623D01*
X27864661Y-32956927D01*
X27860040Y-32955009D01*
X27850276Y-32959973D01*
X27824216Y-32974414D01*
X27782859Y-32997759D01*
X27727201Y-33029433D01*
X27658240Y-33068864D01*
X27576974Y-33115477D01*
X27484401Y-33168698D01*
X27381517Y-33227954D01*
X27269321Y-33292670D01*
X27148810Y-33362273D01*
X27020981Y-33436189D01*
X26886832Y-33513844D01*
X26747361Y-33594665D01*
X26657210Y-33646948D01*
X26500088Y-33737999D01*
X26350667Y-33824384D01*
X26209740Y-33905651D01*
X26078102Y-33981349D01*
X25956547Y-34051026D01*
X25845868Y-34114232D01*
X25746861Y-34170515D01*
X25660317Y-34219424D01*
X25587033Y-34260507D01*
X25527801Y-34293313D01*
X25483416Y-34317391D01*
X25454671Y-34332290D01*
X25442362Y-34337557D01*
X25442210Y-34337561D01*
X25431274Y-34332500D01*
X25403943Y-34317881D01*
X25361109Y-34294215D01*
X25303660Y-34262010D01*
X25263106Y-34239086D01*
X25484435Y-34239086D01*
X25511935Y-34224206D01*
X25523449Y-34217641D01*
X25551348Y-34201567D01*
X25594715Y-34176514D01*
X25652635Y-34143012D01*
X25724192Y-34101592D01*
X25808472Y-34052784D01*
X25904558Y-33997120D01*
X26011534Y-33935129D01*
X26128486Y-33867342D01*
X26254498Y-33794289D01*
X26388655Y-33716502D01*
X26530040Y-33634510D01*
X26677738Y-33548844D01*
X26830835Y-33460035D01*
X26988413Y-33368613D01*
X26994435Y-33365119D01*
X27784086Y-32906956D01*
X27944868Y-32906956D01*
X27953290Y-32912888D01*
X27977052Y-32927601D01*
X28014144Y-32949928D01*
X28062552Y-32978699D01*
X28120266Y-33012746D01*
X28185274Y-33050902D01*
X28255566Y-33091997D01*
X28329128Y-33134863D01*
X28403950Y-33178332D01*
X28478021Y-33221236D01*
X28549328Y-33262405D01*
X28615861Y-33300673D01*
X28675607Y-33334870D01*
X28726556Y-33363828D01*
X28766696Y-33386378D01*
X28794016Y-33401353D01*
X28806503Y-33407584D01*
X28806935Y-33407691D01*
X28808079Y-33398017D01*
X28809169Y-33369801D01*
X28810194Y-33324508D01*
X28811139Y-33263603D01*
X28811991Y-33188551D01*
X28812738Y-33100818D01*
X28813365Y-33001868D01*
X28813860Y-32893168D01*
X28814210Y-32776183D01*
X28814401Y-32652377D01*
X28814435Y-32573937D01*
X28814435Y-31739630D01*
X28674982Y-31658577D01*
X28627599Y-31631227D01*
X28586419Y-31607818D01*
X28554469Y-31590041D01*
X28534777Y-31579589D01*
X28529982Y-31577524D01*
X28528884Y-31587209D01*
X28527858Y-31614985D01*
X28526925Y-31658936D01*
X28526109Y-31717146D01*
X28525430Y-31787698D01*
X28524911Y-31868676D01*
X28524572Y-31958164D01*
X28524436Y-32054245D01*
X28524435Y-32066167D01*
X28524394Y-32178091D01*
X28524233Y-32271701D01*
X28523892Y-32348691D01*
X28523313Y-32410756D01*
X28522438Y-32459590D01*
X28521206Y-32496886D01*
X28519560Y-32524339D01*
X28517441Y-32543644D01*
X28514789Y-32556493D01*
X28511546Y-32564581D01*
X28507653Y-32569603D01*
X28506935Y-32570264D01*
X28494170Y-32578961D01*
X28466310Y-32596269D01*
X28425607Y-32620844D01*
X28374316Y-32651341D01*
X28314688Y-32686416D01*
X28248977Y-32724725D01*
X28216935Y-32743290D01*
X28150179Y-32782085D01*
X28089375Y-32817795D01*
X28036590Y-32849174D01*
X27993895Y-32874979D01*
X27963356Y-32893965D01*
X27947043Y-32904888D01*
X27944868Y-32906956D01*
X27784086Y-32906956D01*
X28449435Y-32520914D01*
X28451992Y-31689077D01*
X28452303Y-31562001D01*
X28452445Y-31440839D01*
X28452425Y-31327061D01*
X28452251Y-31222135D01*
X28451929Y-31127531D01*
X28451469Y-31044716D01*
X28450876Y-30975160D01*
X28450159Y-30920331D01*
X28449324Y-30881699D01*
X28448380Y-30860731D01*
X28447770Y-30857241D01*
X28438521Y-30862157D01*
X28412845Y-30876565D01*
X28371634Y-30899951D01*
X28315782Y-30931803D01*
X28246181Y-30971608D01*
X28163724Y-31018852D01*
X28069305Y-31073023D01*
X27963815Y-31133608D01*
X27848149Y-31200094D01*
X27723199Y-31271969D01*
X27589858Y-31348719D01*
X27449018Y-31429831D01*
X27301574Y-31514794D01*
X27148417Y-31603093D01*
X26990441Y-31694215D01*
X26962951Y-31710077D01*
X25484912Y-32562912D01*
X25484673Y-33400999D01*
X25484435Y-34239086D01*
X25263106Y-34239086D01*
X25232487Y-34221778D01*
X25148479Y-34174027D01*
X25052528Y-34119268D01*
X24945521Y-34058009D01*
X24828350Y-33990761D01*
X24701905Y-33918033D01*
X24567074Y-33840336D01*
X24424749Y-33758178D01*
X24275819Y-33672070D01*
X24121173Y-33582521D01*
X23961703Y-33490042D01*
X23899435Y-33453895D01*
X22379435Y-32571279D01*
X22376882Y-31666305D01*
X22376732Y-31612984D01*
X22444639Y-31612984D01*
X22444642Y-31690069D01*
X22444850Y-32522897D01*
X23922142Y-33379908D01*
X24080724Y-33471885D01*
X24234654Y-33561123D01*
X24383040Y-33647108D01*
X24524990Y-33729324D01*
X24659613Y-33807256D01*
X24786016Y-33880388D01*
X24903308Y-33948206D01*
X25010595Y-34010193D01*
X25106987Y-34065835D01*
X25191592Y-34114616D01*
X25263516Y-34156022D01*
X25321869Y-34189535D01*
X25365758Y-34214642D01*
X25394292Y-34230827D01*
X25406577Y-34237574D01*
X25406992Y-34237746D01*
X25408113Y-34228114D01*
X25409124Y-34199937D01*
X25410016Y-34154678D01*
X25410781Y-34093798D01*
X25411410Y-34018762D01*
X25411894Y-33931030D01*
X25412223Y-33832065D01*
X25412391Y-33723331D01*
X25412387Y-33606290D01*
X25412203Y-33482404D01*
X25411992Y-33401861D01*
X25409435Y-32565150D01*
X23930699Y-31711196D01*
X23772009Y-31619566D01*
X23618017Y-31530674D01*
X23469611Y-31445030D01*
X23327682Y-31363149D01*
X23193120Y-31285542D01*
X23066817Y-31212724D01*
X22949660Y-31145205D01*
X22842542Y-31083500D01*
X22746352Y-31028120D01*
X22661980Y-30979579D01*
X22590316Y-30938390D01*
X22532251Y-30905064D01*
X22488675Y-30880116D01*
X22460478Y-30864057D01*
X22448550Y-30857401D01*
X22448199Y-30857241D01*
X22447627Y-30867000D01*
X22447086Y-30895299D01*
X22446583Y-30940671D01*
X22446123Y-31001646D01*
X22445714Y-31076758D01*
X22445361Y-31164538D01*
X22445071Y-31263518D01*
X22444850Y-31372231D01*
X22444704Y-31489209D01*
X22444639Y-31612984D01*
X22376732Y-31612984D01*
X22374412Y-30790809D01*
X22494627Y-30790809D01*
X22505003Y-30797713D01*
X22531548Y-30813859D01*
X22573174Y-30838621D01*
X22628794Y-30871374D01*
X22697320Y-30911493D01*
X22777665Y-30958350D01*
X22868741Y-31011321D01*
X22969460Y-31069780D01*
X23078735Y-31133100D01*
X23195479Y-31200657D01*
X23318603Y-31271825D01*
X23447021Y-31345977D01*
X23579644Y-31422489D01*
X23715385Y-31500733D01*
X23853157Y-31580086D01*
X23991871Y-31659920D01*
X24130441Y-31739610D01*
X24267779Y-31818530D01*
X24402797Y-31896056D01*
X24534408Y-31971560D01*
X24661523Y-32044417D01*
X24783056Y-32114001D01*
X24897919Y-32179688D01*
X25005025Y-32240850D01*
X25103285Y-32296862D01*
X25191613Y-32347099D01*
X25268920Y-32390934D01*
X25334119Y-32427743D01*
X25386122Y-32456898D01*
X25423843Y-32477776D01*
X25446193Y-32489748D01*
X25452260Y-32492502D01*
X25462170Y-32487123D01*
X25488500Y-32472259D01*
X25530350Y-32448426D01*
X25586818Y-32416142D01*
X25657005Y-32375925D01*
X25740011Y-32328294D01*
X25834933Y-32273764D01*
X25940874Y-32212855D01*
X26056930Y-32146084D01*
X26182203Y-32073969D01*
X26315792Y-31997028D01*
X26456796Y-31915778D01*
X26604315Y-31830736D01*
X26757448Y-31742422D01*
X26915295Y-31651352D01*
X26934554Y-31640238D01*
X27092724Y-31548930D01*
X27246154Y-31460302D01*
X27393951Y-31374873D01*
X27535226Y-31293158D01*
X27669088Y-31215675D01*
X27794645Y-31142941D01*
X27911007Y-31075473D01*
X28017283Y-31013789D01*
X28112582Y-30958405D01*
X28196013Y-30909839D01*
X28266685Y-30868607D01*
X28323708Y-30835227D01*
X28366189Y-30810216D01*
X28393240Y-30794092D01*
X28403968Y-30787370D01*
X28404118Y-30787213D01*
X28395639Y-30781647D01*
X28370901Y-30766745D01*
X28330987Y-30743134D01*
X28276983Y-30711439D01*
X28209974Y-30672286D01*
X28131044Y-30626301D01*
X28041279Y-30574109D01*
X27941764Y-30516337D01*
X27833583Y-30453610D01*
X27717822Y-30386555D01*
X27595565Y-30315796D01*
X27467897Y-30241960D01*
X27335904Y-30165673D01*
X27200670Y-30087560D01*
X27063280Y-30008247D01*
X26924819Y-29928360D01*
X26786372Y-29848526D01*
X26649025Y-29769368D01*
X26513861Y-29691515D01*
X26381966Y-29615591D01*
X26351510Y-29598071D01*
X26514571Y-29598071D01*
X26523037Y-29603803D01*
X26547742Y-29618871D01*
X26587586Y-29642634D01*
X26641472Y-29674452D01*
X26708301Y-29713682D01*
X26786974Y-29759685D01*
X26876395Y-29811819D01*
X26975464Y-29869444D01*
X27083083Y-29931918D01*
X27198154Y-29998601D01*
X27319579Y-30068852D01*
X27446259Y-30142029D01*
X27481935Y-30162617D01*
X27610720Y-30236937D01*
X27735143Y-30308768D01*
X27854050Y-30377443D01*
X27966284Y-30442293D01*
X28070692Y-30502650D01*
X28166117Y-30557844D01*
X28251405Y-30607209D01*
X28325401Y-30650075D01*
X28386949Y-30685774D01*
X28434895Y-30713637D01*
X28468083Y-30732997D01*
X28485358Y-30743185D01*
X28486935Y-30744145D01*
X28524435Y-30767456D01*
X28524435Y-31484633D01*
X28681935Y-31575976D01*
X28732772Y-31605009D01*
X28777969Y-31629970D01*
X28814582Y-31649304D01*
X28839672Y-31661453D01*
X28850097Y-31664938D01*
X28859768Y-31659759D01*
X28885857Y-31645085D01*
X28927468Y-31621433D01*
X28983702Y-31589318D01*
X29053662Y-31549256D01*
X29136450Y-31501765D01*
X29231168Y-31447359D01*
X29336919Y-31386556D01*
X29452805Y-31319870D01*
X29577929Y-31247819D01*
X29711392Y-31170919D01*
X29852298Y-31089686D01*
X29999748Y-31004635D01*
X30152844Y-30916284D01*
X30310690Y-30825147D01*
X30332597Y-30812496D01*
X30490876Y-30721050D01*
X30644411Y-30632282D01*
X30792313Y-30546711D01*
X30933691Y-30464852D01*
X31067657Y-30387224D01*
X31193321Y-30314342D01*
X31309793Y-30246725D01*
X31416183Y-30184889D01*
X31511602Y-30129351D01*
X31595161Y-30080629D01*
X31665970Y-30039239D01*
X31723139Y-30005699D01*
X31765778Y-29980525D01*
X31792999Y-29964235D01*
X31803911Y-29957347D01*
X31804086Y-29957159D01*
X31795531Y-29951679D01*
X31770532Y-29936730D01*
X31729978Y-29912828D01*
X31674759Y-29880488D01*
X31605761Y-29840226D01*
X31523874Y-29792556D01*
X31429986Y-29737996D01*
X31324986Y-29677060D01*
X31209762Y-29610264D01*
X31085202Y-29538123D01*
X30952196Y-29461154D01*
X30811631Y-29379871D01*
X30664396Y-29294790D01*
X30511379Y-29206427D01*
X30353470Y-29115298D01*
X30325121Y-29098944D01*
X29765959Y-28776391D01*
X29924483Y-28776391D01*
X29932975Y-28781945D01*
X29957716Y-28796854D01*
X29997627Y-28820489D01*
X30051624Y-28852220D01*
X30118627Y-28891417D01*
X30197554Y-28937451D01*
X30287323Y-28989692D01*
X30386854Y-29047510D01*
X30495065Y-29110276D01*
X30610874Y-29177360D01*
X30733200Y-29248132D01*
X30860961Y-29321963D01*
X30921983Y-29357197D01*
X31919435Y-29932970D01*
X31924669Y-30693708D01*
X32072052Y-30779637D01*
X32120589Y-30807888D01*
X32162742Y-30832332D01*
X32195638Y-30851311D01*
X32216404Y-30863167D01*
X32222345Y-30866406D01*
X32231175Y-30861582D01*
X32256433Y-30847270D01*
X32297226Y-30823984D01*
X32352661Y-30792238D01*
X32421844Y-30752545D01*
X32503883Y-30705421D01*
X32597884Y-30651377D01*
X32702954Y-30590929D01*
X32818200Y-30524591D01*
X32942727Y-30452876D01*
X33075644Y-30376298D01*
X33216057Y-30295371D01*
X33363072Y-30210609D01*
X33515796Y-30122527D01*
X33673337Y-30031637D01*
X33692345Y-30020668D01*
X33850601Y-29929322D01*
X34004244Y-29840589D01*
X34152373Y-29754992D01*
X34294085Y-29673053D01*
X34428479Y-29595296D01*
X34554654Y-29522244D01*
X34671709Y-29454419D01*
X34778740Y-29392345D01*
X34874847Y-29336544D01*
X34959129Y-29287539D01*
X35030684Y-29245853D01*
X35088609Y-29212010D01*
X35132004Y-29186531D01*
X35159967Y-29169941D01*
X35171597Y-29162761D01*
X35171833Y-29162575D01*
X35169712Y-29158861D01*
X35159503Y-29150690D01*
X35140612Y-29137710D01*
X35112446Y-29119573D01*
X35074411Y-29095926D01*
X35025912Y-29066420D01*
X34966356Y-29030703D01*
X34895149Y-28988427D01*
X34811697Y-28939239D01*
X34715405Y-28882790D01*
X34605681Y-28818729D01*
X34481931Y-28746706D01*
X34343559Y-28666370D01*
X34189973Y-28577370D01*
X34020578Y-28479357D01*
X33834781Y-28371979D01*
X33711833Y-28300978D01*
X33553322Y-28209516D01*
X33399390Y-28120801D01*
X33250938Y-28035347D01*
X33108867Y-27953668D01*
X32974078Y-27876280D01*
X32847472Y-27803696D01*
X32729948Y-27736432D01*
X32622407Y-27675000D01*
X32525751Y-27619917D01*
X32440880Y-27571695D01*
X32368694Y-27530850D01*
X32310095Y-27497896D01*
X32265982Y-27473348D01*
X32237257Y-27457719D01*
X32224819Y-27451525D01*
X32224435Y-27451440D01*
X32214319Y-27456381D01*
X32188198Y-27470608D01*
X32147300Y-27493413D01*
X32092859Y-27524086D01*
X32026104Y-27561917D01*
X31948269Y-27606197D01*
X31860583Y-27656218D01*
X31764278Y-27711268D01*
X31660587Y-27770640D01*
X31550739Y-27833623D01*
X31435967Y-27899509D01*
X31317501Y-27967588D01*
X31196573Y-28037150D01*
X31074416Y-28107487D01*
X30952258Y-28177888D01*
X30831333Y-28247646D01*
X30712872Y-28316049D01*
X30598106Y-28382389D01*
X30488266Y-28445956D01*
X30384583Y-28506042D01*
X30288290Y-28561937D01*
X30200617Y-28612930D01*
X30122796Y-28658314D01*
X30056058Y-28697378D01*
X30001634Y-28729414D01*
X29960757Y-28753712D01*
X29934656Y-28769562D01*
X29924564Y-28776255D01*
X29924483Y-28776391D01*
X29765959Y-28776391D01*
X28846504Y-28246003D01*
X27680605Y-28918873D01*
X27539948Y-29000095D01*
X27404141Y-29078606D01*
X27274185Y-29153822D01*
X27151080Y-29225161D01*
X27035827Y-29292040D01*
X26929427Y-29353877D01*
X26832879Y-29410087D01*
X26747184Y-29460090D01*
X26673343Y-29503301D01*
X26612356Y-29539138D01*
X26565225Y-29567019D01*
X26532948Y-29586361D01*
X26516527Y-29596580D01*
X26514571Y-29598071D01*
X26351510Y-29598071D01*
X26254426Y-29542222D01*
X26132324Y-29472033D01*
X26016745Y-29405652D01*
X25908776Y-29343703D01*
X25809500Y-29286813D01*
X25720003Y-29235607D01*
X25641369Y-29190711D01*
X25574684Y-29152751D01*
X25521032Y-29122353D01*
X25481499Y-29100142D01*
X25457169Y-29086745D01*
X25449181Y-29082741D01*
X25438766Y-29087458D01*
X25412256Y-29101565D01*
X25370731Y-29124435D01*
X25315274Y-29155445D01*
X25246964Y-29193969D01*
X25166884Y-29239382D01*
X25076113Y-29291059D01*
X24975734Y-29348376D01*
X24866827Y-29410707D01*
X24750473Y-29477428D01*
X24627753Y-29547912D01*
X24499749Y-29621536D01*
X24367541Y-29697675D01*
X24232211Y-29775703D01*
X24094839Y-29854996D01*
X23956507Y-29934928D01*
X23818295Y-30014875D01*
X23681285Y-30094211D01*
X23546558Y-30172312D01*
X23415194Y-30248552D01*
X23288276Y-30322307D01*
X23166883Y-30392952D01*
X23052097Y-30459862D01*
X22944998Y-30522412D01*
X22846669Y-30579976D01*
X22758190Y-30631930D01*
X22680642Y-30677649D01*
X22615107Y-30716508D01*
X22562664Y-30747882D01*
X22524396Y-30771146D01*
X22501383Y-30785674D01*
X22494627Y-30790809D01*
X22374412Y-30790809D01*
X22374329Y-30761330D01*
X23902613Y-29878919D01*
X24064146Y-29785702D01*
X24221117Y-29695217D01*
X24372641Y-29607968D01*
X24517834Y-29524461D01*
X24655812Y-29445203D01*
X24785691Y-29370696D01*
X24906587Y-29301448D01*
X25017615Y-29237964D01*
X25117892Y-29180748D01*
X25206534Y-29130306D01*
X25282656Y-29087143D01*
X25345375Y-29051765D01*
X25393806Y-29024676D01*
X25427066Y-29006383D01*
X25444270Y-28997390D01*
X25446497Y-28996508D01*
X25457857Y-29001388D01*
X25484880Y-29015423D01*
X25525944Y-29037704D01*
X25579423Y-29067323D01*
X25643697Y-29103370D01*
X25717140Y-29144939D01*
X25798131Y-29191119D01*
X25885046Y-29241004D01*
X25940766Y-29273145D01*
X26030333Y-29324804D01*
X26114802Y-29373320D01*
X26192571Y-29417787D01*
X26262043Y-29457301D01*
X26321615Y-29490956D01*
X26369689Y-29517847D01*
X26404663Y-29537069D01*
X26424939Y-29547716D01*
X26429435Y-29549614D01*
X26439132Y-29544679D01*
X26465145Y-29530294D01*
X26506478Y-29507031D01*
X26562134Y-29475459D01*
X26631119Y-29436151D01*
X26712436Y-29389676D01*
X26805090Y-29336605D01*
X26908086Y-29277508D01*
X27020426Y-29212958D01*
X27141115Y-29143523D01*
X27269159Y-29069775D01*
X27403561Y-28992285D01*
X27543324Y-28911623D01*
X27638016Y-28856930D01*
X27812675Y-28756123D01*
X27975560Y-28662331D01*
X28126192Y-28575823D01*
X28264092Y-28496872D01*
X28388781Y-28425747D01*
X28499780Y-28362720D01*
X28596611Y-28308061D01*
X28678795Y-28262041D01*
X28745852Y-28224931D01*
X28797304Y-28197002D01*
X28832672Y-28178525D01*
X28851477Y-28169769D01*
X28854403Y-28169072D01*
X28866182Y-28174822D01*
X28893640Y-28189681D01*
X28935149Y-28212728D01*
X28989082Y-28243044D01*
X29053813Y-28279707D01*
X29127714Y-28321796D01*
X29209158Y-28368393D01*
X29296518Y-28418574D01*
X29355508Y-28452567D01*
X29445367Y-28504326D01*
X29529988Y-28552903D01*
X29607797Y-28597407D01*
X29677222Y-28636945D01*
X29736689Y-28670626D01*
X29784625Y-28697557D01*
X29819456Y-28716847D01*
X29839610Y-28727604D01*
X29844121Y-28729592D01*
X29853260Y-28724464D01*
X29878720Y-28709906D01*
X29919499Y-28686493D01*
X29974598Y-28654802D01*
X30043018Y-28615410D01*
X30123760Y-28568891D01*
X30215823Y-28515824D01*
X30318208Y-28456783D01*
X30429916Y-28392345D01*
X30549947Y-28323087D01*
X30677302Y-28249584D01*
X30810980Y-28172413D01*
X30949983Y-28092149D01*
X31028468Y-28046823D01*
X31170196Y-27965045D01*
X31307328Y-27886073D01*
X31438851Y-27810481D01*
X31563749Y-27738847D01*
X31681011Y-27671747D01*
X31789621Y-27609757D01*
X31888568Y-27553453D01*
X31976837Y-27503412D01*
X32053414Y-27460209D01*
X32117287Y-27424421D01*
X32167441Y-27396624D01*
X32202864Y-27377394D01*
X32222540Y-27367308D01*
X32226260Y-27365866D01*
X32240842Y-27370730D01*
X32269293Y-27384192D01*
X32308333Y-27404556D01*
X32354678Y-27430127D01*
X32390879Y-27450900D01*
X32439204Y-27478952D01*
X32481207Y-27503104D01*
X32513982Y-27521705D01*
X32534625Y-27533104D01*
X32540418Y-27535933D01*
X32541509Y-27526369D01*
X32542678Y-27499437D01*
X32543861Y-27457777D01*
X32544993Y-27404027D01*
X32546008Y-27340826D01*
X32546766Y-27278332D01*
X32548468Y-27114046D01*
X32614435Y-27114046D01*
X32614576Y-27347498D01*
X32614718Y-27580951D01*
X33940909Y-28346252D01*
X34091399Y-28433110D01*
X34237315Y-28517357D01*
X34377704Y-28598441D01*
X34511609Y-28675808D01*
X34638075Y-28748907D01*
X34756148Y-28817184D01*
X34864872Y-28880086D01*
X34963292Y-28937061D01*
X35050453Y-28987556D01*
X35125399Y-29031018D01*
X35187176Y-29066893D01*
X35234828Y-29094630D01*
X35267400Y-29113676D01*
X35283938Y-29123477D01*
X35285767Y-29124626D01*
X35289638Y-29128053D01*
X35292935Y-29133502D01*
X35295705Y-29142492D01*
X35297994Y-29156541D01*
X35299848Y-29177168D01*
X35301315Y-29205891D01*
X35302440Y-29244229D01*
X35303271Y-29293701D01*
X35303853Y-29355826D01*
X35304234Y-29432123D01*
X35304460Y-29524109D01*
X35304577Y-29633303D01*
X35304626Y-29739868D01*
X35304817Y-30342038D01*
X35437126Y-30419080D01*
X35483415Y-30445790D01*
X35523649Y-30468547D01*
X35554655Y-30485593D01*
X35573260Y-30495167D01*
X35576992Y-30496610D01*
X35578113Y-30486926D01*
X35579125Y-30458699D01*
X35580017Y-30413391D01*
X35580782Y-30352467D01*
X35581411Y-30277391D01*
X35581895Y-30189627D01*
X35582224Y-30090638D01*
X35582391Y-29981888D01*
X35582389Y-29934817D01*
X35656456Y-29934817D01*
X35656589Y-30055376D01*
X35656938Y-30163679D01*
X35657497Y-30258641D01*
X35658255Y-30339175D01*
X35659206Y-30404197D01*
X35660341Y-30452621D01*
X35661650Y-30483362D01*
X35663126Y-30495335D01*
X35663348Y-30495451D01*
X35672833Y-30490155D01*
X35698727Y-30475344D01*
X35740137Y-30451533D01*
X35796168Y-30419240D01*
X35865926Y-30378982D01*
X35948516Y-30331276D01*
X36043046Y-30276638D01*
X36148621Y-30215587D01*
X36264346Y-30148639D01*
X36389328Y-30076312D01*
X36522672Y-29999121D01*
X36663484Y-29917585D01*
X36810871Y-29832220D01*
X36963937Y-29743544D01*
X37121790Y-29652073D01*
X37148212Y-29636760D01*
X38624049Y-28781424D01*
X38624242Y-27948596D01*
X38624229Y-27821441D01*
X38624135Y-27700200D01*
X38623967Y-27586342D01*
X38623728Y-27481333D01*
X38623427Y-27386642D01*
X38623068Y-27303737D01*
X38622658Y-27234086D01*
X38622203Y-27179156D01*
X38621709Y-27140415D01*
X38621181Y-27119332D01*
X38620850Y-27115768D01*
X38611949Y-27120685D01*
X38586619Y-27135097D01*
X38545750Y-27158489D01*
X38490231Y-27190349D01*
X38420954Y-27230164D01*
X38338807Y-27277423D01*
X38244681Y-27331611D01*
X38139466Y-27392217D01*
X38024052Y-27458727D01*
X37899329Y-27530630D01*
X37766187Y-27607412D01*
X37625515Y-27688560D01*
X37478205Y-27773563D01*
X37325146Y-27861907D01*
X37167227Y-27953079D01*
X37138350Y-27969754D01*
X35659435Y-28823740D01*
X35656877Y-29661272D01*
X35656550Y-29803087D01*
X35656456Y-29934817D01*
X35582389Y-29934817D01*
X35582386Y-29864841D01*
X35582202Y-29740961D01*
X35581992Y-29660973D01*
X35579435Y-28824847D01*
X34159435Y-28004664D01*
X34002902Y-27914257D01*
X33850445Y-27826215D01*
X33703025Y-27741091D01*
X33561598Y-27659439D01*
X33427126Y-27581811D01*
X33300567Y-27508763D01*
X33182880Y-27440846D01*
X33075026Y-27378616D01*
X32977962Y-27322624D01*
X32892648Y-27273425D01*
X32820044Y-27231572D01*
X32761109Y-27197618D01*
X32716802Y-27172118D01*
X32688082Y-27155624D01*
X32676935Y-27149264D01*
X32614435Y-27114046D01*
X32548468Y-27114046D01*
X32549190Y-27044340D01*
X32662845Y-27044340D01*
X32670765Y-27049778D01*
X32694934Y-27064577D01*
X32734274Y-27088111D01*
X32787702Y-27119753D01*
X32854139Y-27158878D01*
X32932504Y-27204859D01*
X33021716Y-27257071D01*
X33120695Y-27314887D01*
X33228362Y-27377681D01*
X33343634Y-27444828D01*
X33465432Y-27515700D01*
X33592675Y-27589674D01*
X33724283Y-27666121D01*
X33859175Y-27744416D01*
X33996271Y-27823933D01*
X34134490Y-27904047D01*
X34272752Y-27984130D01*
X34409977Y-28063557D01*
X34545083Y-28141702D01*
X34676991Y-28217939D01*
X34804619Y-28291641D01*
X34926888Y-28362184D01*
X35042717Y-28428940D01*
X35151026Y-28491283D01*
X35250734Y-28548588D01*
X35340760Y-28600228D01*
X35420024Y-28645578D01*
X35487446Y-28684012D01*
X35541945Y-28714902D01*
X35582441Y-28737624D01*
X35607853Y-28751551D01*
X35617041Y-28756066D01*
X35626378Y-28751184D01*
X35652139Y-28736806D01*
X35693427Y-28713444D01*
X35749350Y-28681613D01*
X35819012Y-28641826D01*
X35901520Y-28594595D01*
X35995979Y-28540435D01*
X36101494Y-28479859D01*
X36217173Y-28413381D01*
X36342120Y-28341514D01*
X36475440Y-28264771D01*
X36616241Y-28183666D01*
X36763626Y-28098712D01*
X36916703Y-28010423D01*
X37074577Y-27919312D01*
X37099541Y-27904900D01*
X37257999Y-27813378D01*
X37411714Y-27724523D01*
X37559797Y-27638850D01*
X37701358Y-27556878D01*
X37835509Y-27479123D01*
X37961362Y-27406103D01*
X38078026Y-27338334D01*
X38184613Y-27276334D01*
X38280234Y-27220620D01*
X38364001Y-27171709D01*
X38435024Y-27130118D01*
X38492415Y-27096364D01*
X38535284Y-27070965D01*
X38562743Y-27054438D01*
X38573903Y-27047298D01*
X38574116Y-27047062D01*
X38565561Y-27041157D01*
X38540726Y-27025952D01*
X38500696Y-27002073D01*
X38446557Y-26970144D01*
X38379396Y-26930789D01*
X38300298Y-26884633D01*
X38210350Y-26832300D01*
X38110637Y-26774416D01*
X38002245Y-26711604D01*
X37886261Y-26644490D01*
X37763770Y-26573697D01*
X37635858Y-26499851D01*
X37503612Y-26423575D01*
X37368117Y-26345495D01*
X37230459Y-26266235D01*
X37091725Y-26186419D01*
X36953000Y-26106673D01*
X36815370Y-26027620D01*
X36679922Y-25949885D01*
X36547740Y-25874093D01*
X36419912Y-25800869D01*
X36297523Y-25730836D01*
X36181660Y-25664619D01*
X36073407Y-25602844D01*
X35973852Y-25546134D01*
X35884080Y-25495114D01*
X35862591Y-25482939D01*
X36024435Y-25482939D01*
X37356935Y-26252330D01*
X38689435Y-27021720D01*
X38699435Y-27617860D01*
X38839435Y-27701018D01*
X38886973Y-27729047D01*
X38928539Y-27753160D01*
X38961085Y-27771621D01*
X38981558Y-27782690D01*
X38986992Y-27785104D01*
X38987001Y-27785026D01*
X39064435Y-27785026D01*
X39206935Y-27702346D01*
X39231850Y-27687894D01*
X39273005Y-27664030D01*
X39329333Y-27631371D01*
X39399766Y-27590536D01*
X39483241Y-27542143D01*
X39578689Y-27486809D01*
X39685045Y-27425154D01*
X39801243Y-27357794D01*
X39926216Y-27285348D01*
X40058898Y-27208434D01*
X40198224Y-27127670D01*
X40343126Y-27043675D01*
X40492539Y-26957066D01*
X40645397Y-26868461D01*
X40691935Y-26841486D01*
X42034435Y-26063305D01*
X42034435Y-24394292D01*
X41986345Y-24422005D01*
X41972520Y-24429983D01*
X41942315Y-24447422D01*
X41896671Y-24473778D01*
X41836528Y-24508508D01*
X41762829Y-24551069D01*
X41676512Y-24600917D01*
X41578519Y-24657510D01*
X41469790Y-24720303D01*
X41351267Y-24788755D01*
X41223889Y-24862320D01*
X41088599Y-24940456D01*
X40946335Y-25022621D01*
X40798040Y-25108269D01*
X40644654Y-25196859D01*
X40501345Y-25279629D01*
X39064435Y-26109540D01*
X39064435Y-27785026D01*
X38987001Y-27785026D01*
X38988112Y-27775488D01*
X38989123Y-27747326D01*
X38990016Y-27702080D01*
X38990780Y-27641211D01*
X38991409Y-27566182D01*
X38991893Y-27478455D01*
X38992223Y-27379490D01*
X38992390Y-27270751D01*
X38992387Y-27153698D01*
X38992204Y-27029793D01*
X38991992Y-26948727D01*
X38989435Y-26111422D01*
X37519435Y-25262144D01*
X37361074Y-25170665D01*
X37207322Y-25081871D01*
X37059077Y-24996281D01*
X36917240Y-24914414D01*
X36782709Y-24836787D01*
X36656385Y-24763920D01*
X36539168Y-24696331D01*
X36431957Y-24634539D01*
X36335652Y-24579062D01*
X36251154Y-24530419D01*
X36179361Y-24489128D01*
X36121173Y-24455708D01*
X36077490Y-24430678D01*
X36049213Y-24414556D01*
X36037240Y-24407861D01*
X36036935Y-24407713D01*
X36034113Y-24410299D01*
X36031722Y-24421442D01*
X36029731Y-24442449D01*
X36028111Y-24474629D01*
X36026829Y-24519289D01*
X36025856Y-24577736D01*
X36025161Y-24651280D01*
X36024714Y-24741227D01*
X36024483Y-24848886D01*
X36024435Y-24942749D01*
X36024435Y-25482939D01*
X35862591Y-25482939D01*
X35805176Y-25450409D01*
X35738229Y-25412643D01*
X35684322Y-25382440D01*
X35644542Y-25360426D01*
X35619976Y-25347225D01*
X35611748Y-25343399D01*
X35601988Y-25348648D01*
X35576002Y-25363280D01*
X35534883Y-25386666D01*
X35479722Y-25418176D01*
X35411608Y-25457182D01*
X35331634Y-25503055D01*
X35240890Y-25555164D01*
X35140467Y-25612880D01*
X35031456Y-25675576D01*
X34914948Y-25742620D01*
X34792034Y-25813384D01*
X34663805Y-25887239D01*
X34531351Y-25963555D01*
X34395765Y-26041703D01*
X34258136Y-26121053D01*
X34119555Y-26200978D01*
X33981115Y-26280846D01*
X33843905Y-26360030D01*
X33709016Y-26437899D01*
X33577540Y-26513825D01*
X33450567Y-26587178D01*
X33329189Y-26657329D01*
X33214496Y-26723648D01*
X33107579Y-26785507D01*
X33009530Y-26842276D01*
X32921439Y-26893326D01*
X32844396Y-26938028D01*
X32779494Y-26975751D01*
X32727823Y-27005868D01*
X32690474Y-27027749D01*
X32668538Y-27040764D01*
X32662845Y-27044340D01*
X32549190Y-27044340D01*
X32549435Y-27020730D01*
X34078248Y-26137883D01*
X34239746Y-26044658D01*
X34396639Y-25954164D01*
X34548045Y-25866906D01*
X34693084Y-25783388D01*
X34830874Y-25704114D01*
X34960535Y-25629591D01*
X35081186Y-25560323D01*
X35191947Y-25496815D01*
X35291935Y-25439571D01*
X35380272Y-25389097D01*
X35456075Y-25345898D01*
X35518463Y-25310478D01*
X35566557Y-25283343D01*
X35599475Y-25264996D01*
X35616337Y-25255944D01*
X35618428Y-25255035D01*
X35630392Y-25259833D01*
X35656603Y-25273152D01*
X35694064Y-25293376D01*
X35739778Y-25318892D01*
X35784615Y-25344535D01*
X35939435Y-25434034D01*
X35944435Y-24874844D01*
X35945761Y-24746355D01*
X35947300Y-24632772D01*
X35949032Y-24534844D01*
X35950937Y-24453320D01*
X35952996Y-24388949D01*
X35955188Y-24342481D01*
X35955307Y-24341046D01*
X36083253Y-24341046D01*
X36084589Y-24343626D01*
X36085880Y-24344677D01*
X36096040Y-24350742D01*
X36122355Y-24366147D01*
X36163735Y-24390263D01*
X36219091Y-24422457D01*
X36287335Y-24462101D01*
X36367377Y-24508563D01*
X36458127Y-24561212D01*
X36558497Y-24619419D01*
X36667398Y-24682552D01*
X36783740Y-24749982D01*
X36906435Y-24821077D01*
X37034393Y-24895208D01*
X37166525Y-24971743D01*
X37301742Y-25050052D01*
X37438955Y-25129505D01*
X37577074Y-25209471D01*
X37715011Y-25289319D01*
X37851677Y-25368419D01*
X37985982Y-25446140D01*
X38116837Y-25521853D01*
X38243153Y-25594925D01*
X38363841Y-25664728D01*
X38477812Y-25730630D01*
X38583976Y-25792000D01*
X38681245Y-25848209D01*
X38768529Y-25898626D01*
X38844740Y-25942620D01*
X38908787Y-25979560D01*
X38959583Y-26008817D01*
X38996038Y-26029759D01*
X39017062Y-26041756D01*
X39022035Y-26044501D01*
X39030830Y-26039679D01*
X39056055Y-26025368D01*
X39096817Y-26002085D01*
X39152221Y-25970341D01*
X39221376Y-25930651D01*
X39303388Y-25883529D01*
X39397364Y-25829489D01*
X39502412Y-25769044D01*
X39617638Y-25702709D01*
X39742150Y-25630997D01*
X39875055Y-25554421D01*
X40015459Y-25473496D01*
X40162470Y-25388736D01*
X40315195Y-25300655D01*
X40472741Y-25209765D01*
X40492035Y-25198632D01*
X40650310Y-25107280D01*
X40803973Y-25018541D01*
X40952123Y-24932938D01*
X41093857Y-24850995D01*
X41228275Y-24773233D01*
X41354474Y-24700175D01*
X41471554Y-24632346D01*
X41578612Y-24570266D01*
X41674747Y-24514459D01*
X41759057Y-24465449D01*
X41830642Y-24423757D01*
X41888598Y-24389906D01*
X41932026Y-24364420D01*
X41960022Y-24347821D01*
X41971687Y-24340632D01*
X41971929Y-24340443D01*
X41969832Y-24336743D01*
X41959669Y-24328598D01*
X41940847Y-24315660D01*
X41912769Y-24297575D01*
X41874841Y-24273994D01*
X41826468Y-24244565D01*
X41767056Y-24208937D01*
X41696008Y-24166760D01*
X41612732Y-24117681D01*
X41516631Y-24061351D01*
X41407110Y-23997419D01*
X41283575Y-23925532D01*
X41145431Y-23845341D01*
X40992084Y-23756494D01*
X40822937Y-23658640D01*
X40637396Y-23551428D01*
X40511929Y-23478985D01*
X40353403Y-23387532D01*
X40199453Y-23298826D01*
X40050980Y-23213381D01*
X39908885Y-23131713D01*
X39774068Y-23054334D01*
X39647431Y-22981759D01*
X39529875Y-22914503D01*
X39422300Y-22853081D01*
X39325608Y-22798005D01*
X39240700Y-22749792D01*
X39168476Y-22708954D01*
X39109837Y-22676007D01*
X39065685Y-22651465D01*
X39036921Y-22635842D01*
X39024444Y-22629653D01*
X39024054Y-22629568D01*
X39013871Y-22634551D01*
X38987274Y-22649035D01*
X38945166Y-22672503D01*
X38888447Y-22704441D01*
X38818018Y-22744333D01*
X38734782Y-22791665D01*
X38639638Y-22845922D01*
X38533488Y-22906588D01*
X38417234Y-22973148D01*
X38291776Y-23045088D01*
X38158015Y-23121891D01*
X38016853Y-23203043D01*
X37869191Y-23288030D01*
X37715930Y-23376335D01*
X37557971Y-23467444D01*
X37536384Y-23479903D01*
X37349124Y-23587995D01*
X37178443Y-23686549D01*
X37023588Y-23776015D01*
X36883806Y-23856841D01*
X36758345Y-23929474D01*
X36646453Y-23994365D01*
X36547376Y-24051962D01*
X36460363Y-24102712D01*
X36384661Y-24147066D01*
X36319517Y-24185471D01*
X36264179Y-24218376D01*
X36217895Y-24246229D01*
X36179912Y-24269480D01*
X36149478Y-24288577D01*
X36125839Y-24303969D01*
X36108245Y-24316103D01*
X36095941Y-24325430D01*
X36088176Y-24332397D01*
X36084198Y-24337452D01*
X36083253Y-24341046D01*
X35955307Y-24341046D01*
X35957494Y-24314663D01*
X35959435Y-24306316D01*
X35970308Y-24299223D01*
X35997373Y-24282878D01*
X36039556Y-24257896D01*
X36095787Y-24224894D01*
X36164995Y-24184486D01*
X36246108Y-24137288D01*
X36338055Y-24083918D01*
X36439765Y-24024989D01*
X36550166Y-23961118D01*
X36668188Y-23892921D01*
X36792758Y-23821013D01*
X36922807Y-23746011D01*
X37057261Y-23668530D01*
X37195051Y-23589185D01*
X37335105Y-23508594D01*
X37476351Y-23427370D01*
X37617719Y-23346131D01*
X37758137Y-23265491D01*
X37896533Y-23186067D01*
X38031837Y-23108475D01*
X38162978Y-23033329D01*
X38288883Y-22961247D01*
X38408483Y-22892843D01*
X38520704Y-22828734D01*
X38624477Y-22769535D01*
X38718730Y-22715862D01*
X38802392Y-22668331D01*
X38874391Y-22627558D01*
X38933656Y-22594158D01*
X38979116Y-22568747D01*
X39009699Y-22551941D01*
X39024335Y-22544356D01*
X39025428Y-22543968D01*
X39035354Y-22548865D01*
X39061528Y-22563147D01*
X39102874Y-22586195D01*
X39158317Y-22617391D01*
X39226783Y-22656120D01*
X39307197Y-22701762D01*
X39398484Y-22753702D01*
X39499568Y-22811322D01*
X39609376Y-22874003D01*
X39726831Y-22941130D01*
X39850860Y-23012085D01*
X39980387Y-23086249D01*
X40114337Y-23163007D01*
X40251636Y-23241740D01*
X40391209Y-23321832D01*
X40531980Y-23402664D01*
X40672875Y-23483620D01*
X40812819Y-23564082D01*
X40950738Y-23643434D01*
X41085555Y-23721056D01*
X41216196Y-23796333D01*
X41341587Y-23868647D01*
X41460652Y-23937381D01*
X41572317Y-24001916D01*
X41675506Y-24061637D01*
X41769146Y-24115925D01*
X41852160Y-24164163D01*
X41923474Y-24205734D01*
X41982013Y-24240020D01*
X42026702Y-24266405D01*
X42056466Y-24284270D01*
X42066935Y-24290785D01*
X42104435Y-24314949D01*
X42104435Y-26105086D01*
X42066935Y-26129561D01*
X42048780Y-26140770D01*
X42014943Y-26160986D01*
X41966495Y-26189591D01*
X41904510Y-26225966D01*
X41830059Y-26269491D01*
X41744214Y-26319548D01*
X41648047Y-26375518D01*
X41542631Y-26436781D01*
X41429037Y-26502718D01*
X41308339Y-26572711D01*
X41181607Y-26646140D01*
X41049914Y-26722387D01*
X40914333Y-26800831D01*
X40775935Y-26880855D01*
X40635792Y-26961839D01*
X40494977Y-27043164D01*
X40354562Y-27124210D01*
X40215618Y-27204360D01*
X40079219Y-27282994D01*
X39946436Y-27359492D01*
X39818342Y-27433236D01*
X39696007Y-27503607D01*
X39580506Y-27569986D01*
X39472909Y-27631753D01*
X39374289Y-27688289D01*
X39285719Y-27738976D01*
X39208269Y-27783195D01*
X39143013Y-27820326D01*
X39091022Y-27849750D01*
X39053369Y-27870848D01*
X39031126Y-27883001D01*
X39025182Y-27885875D01*
X39011761Y-27880986D01*
X38984222Y-27867540D01*
X38945660Y-27847166D01*
X38899171Y-27821494D01*
X38854435Y-27795972D01*
X38699435Y-27706266D01*
X38689435Y-28829968D01*
X37164435Y-29714483D01*
X37003103Y-29807994D01*
X36846284Y-29898764D01*
X36694864Y-29986287D01*
X36549731Y-30070055D01*
X36411771Y-30149560D01*
X36281870Y-30224293D01*
X36160915Y-30293748D01*
X36049793Y-30357416D01*
X35949392Y-30414790D01*
X35860596Y-30465361D01*
X35784294Y-30508622D01*
X35721371Y-30544066D01*
X35672716Y-30571184D01*
X35639213Y-30589469D01*
X35621751Y-30598412D01*
X35619435Y-30599261D01*
X35604452Y-30594490D01*
X35575606Y-30581111D01*
X35536192Y-30560806D01*
X35489499Y-30535253D01*
X35451935Y-30513801D01*
X35304435Y-30428077D01*
X35304435Y-30676448D01*
X35304265Y-30755415D01*
X35303668Y-30816661D01*
X35302514Y-30862471D01*
X35300673Y-30895128D01*
X35298014Y-30916917D01*
X35294408Y-30930123D01*
X35289723Y-30937030D01*
X35289568Y-30937161D01*
X35278018Y-30944603D01*
X35250348Y-30961311D01*
X35207630Y-30986668D01*
X35150930Y-31020055D01*
X35081318Y-31060855D01*
X34999863Y-31108451D01*
X34907634Y-31162224D01*
X34805699Y-31221557D01*
X34695127Y-31285832D01*
X34576987Y-31354433D01*
X34452348Y-31426740D01*
X34322278Y-31502137D01*
X34187847Y-31580005D01*
X34050123Y-31659727D01*
X33910174Y-31740686D01*
X33769070Y-31822263D01*
X33627880Y-31903841D01*
X33487671Y-31984802D01*
X33349514Y-32064530D01*
X33214477Y-32142405D01*
X33083628Y-32217810D01*
X32958037Y-32290128D01*
X32838771Y-32358741D01*
X32726901Y-32423032D01*
X32623494Y-32482381D01*
X32529620Y-32536173D01*
X32446347Y-32583790D01*
X32374745Y-32624612D01*
X32315881Y-32658024D01*
X32270825Y-32683407D01*
X32240645Y-32700144D01*
X32226411Y-32707616D01*
X32225447Y-32707966D01*
X32214037Y-32703067D01*
X32186972Y-32688977D01*
X32145862Y-32666599D01*
X32092317Y-32636840D01*
X32039482Y-32607097D01*
X32264435Y-32607097D01*
X32431935Y-32510131D01*
X32459975Y-32493891D01*
X32504213Y-32468258D01*
X32563543Y-32433874D01*
X32636859Y-32391380D01*
X32723055Y-32341416D01*
X32821026Y-32284625D01*
X32929665Y-32221647D01*
X33047867Y-32153123D01*
X33174526Y-32079694D01*
X33308536Y-32002001D01*
X33448791Y-31920686D01*
X33594185Y-31836389D01*
X33743614Y-31749751D01*
X33895970Y-31661414D01*
X33914435Y-31650708D01*
X35229435Y-30888250D01*
X35231992Y-30051893D01*
X35232413Y-29900372D01*
X35232680Y-29767707D01*
X35232778Y-29652746D01*
X35232691Y-29554338D01*
X35232404Y-29471331D01*
X35231903Y-29402574D01*
X35231171Y-29346915D01*
X35230193Y-29303203D01*
X35228955Y-29270287D01*
X35227441Y-29247014D01*
X35225636Y-29232233D01*
X35223524Y-29224793D01*
X35221091Y-29223542D01*
X35221044Y-29223569D01*
X35211062Y-29229360D01*
X35184659Y-29244636D01*
X35142737Y-29268876D01*
X35086196Y-29301560D01*
X35015937Y-29342167D01*
X34932859Y-29390178D01*
X34837862Y-29445072D01*
X34731848Y-29506330D01*
X34615717Y-29573429D01*
X34490369Y-29645851D01*
X34356704Y-29723076D01*
X34215623Y-29804582D01*
X34068026Y-29889851D01*
X33914813Y-29978360D01*
X33756885Y-30069591D01*
X33735987Y-30081663D01*
X32264435Y-30931725D01*
X32264435Y-32607097D01*
X32039482Y-32607097D01*
X32027948Y-32600604D01*
X31954367Y-32558797D01*
G37*
G36*
X25232775Y-30028236D02*
G01*
X25276151Y-30046291D01*
X25286935Y-30054468D01*
X25302383Y-30079946D01*
X25302666Y-30109710D01*
X25288381Y-30135735D01*
X25280407Y-30142242D01*
X25261671Y-30149952D01*
X25227806Y-30159666D01*
X25183428Y-30170202D01*
X25133151Y-30180378D01*
X25127150Y-30181481D01*
X25042825Y-30197622D01*
X24973254Y-30213036D01*
X24913309Y-30229144D01*
X24857859Y-30247371D01*
X24801776Y-30269139D01*
X24783482Y-30276820D01*
X24701276Y-30316328D01*
X24627406Y-30360655D01*
X24564203Y-30407885D01*
X24514002Y-30456104D01*
X24479136Y-30503398D01*
X24463926Y-30539005D01*
X24457902Y-30574203D01*
X24462903Y-30603600D01*
X24480936Y-30634041D01*
X24497726Y-30654382D01*
X24545471Y-30695131D01*
X24607487Y-30727312D01*
X24679438Y-30749690D01*
X24756987Y-30761035D01*
X24835798Y-30760113D01*
X24859508Y-30757190D01*
X24902402Y-30749803D01*
X24942432Y-30740573D01*
X24983014Y-30728217D01*
X25027569Y-30711449D01*
X25079515Y-30688985D01*
X25142273Y-30659541D01*
X25217716Y-30622596D01*
X25313665Y-30576944D01*
X25398525Y-30541168D01*
X25477487Y-30513518D01*
X25555743Y-30492249D01*
X25638484Y-30475614D01*
X25669435Y-30470567D01*
X25791411Y-30459159D01*
X25914907Y-30461632D01*
X26036904Y-30477188D01*
X26154383Y-30505033D01*
X26264327Y-30544370D01*
X26363718Y-30594403D01*
X26449537Y-30654337D01*
X26484003Y-30685382D01*
X26518659Y-30720899D01*
X26541707Y-30749157D01*
X26556911Y-30775692D01*
X26568038Y-30806044D01*
X26569590Y-30811277D01*
X26580857Y-30873204D01*
X26576010Y-30931824D01*
X26555482Y-30991869D01*
X26514446Y-31061191D01*
X26454916Y-31128332D01*
X26378358Y-31192428D01*
X26286233Y-31252616D01*
X26180008Y-31308030D01*
X26061144Y-31357805D01*
X25931106Y-31401078D01*
X25808266Y-31433167D01*
X25748456Y-31445766D01*
X25693503Y-31454383D01*
X25636053Y-31459858D01*
X25568751Y-31463028D01*
X25539435Y-31463794D01*
X25471799Y-31464412D01*
X25417286Y-31463091D01*
X25378300Y-31459934D01*
X25359435Y-31455986D01*
X25321155Y-31436502D01*
X25300300Y-31411649D01*
X25294435Y-31381249D01*
X25300580Y-31350867D01*
X25313399Y-31337984D01*
X25330074Y-31333499D01*
X25362385Y-31328363D01*
X25406006Y-31323149D01*
X25456613Y-31318427D01*
X25468295Y-31317508D01*
X25573520Y-31307459D01*
X25664679Y-31293670D01*
X25747579Y-31274666D01*
X25828025Y-31248973D01*
X25911824Y-31215114D01*
X25962634Y-31191918D01*
X26048653Y-31147326D01*
X26126383Y-31099113D01*
X26193706Y-31049047D01*
X26248499Y-30998898D01*
X26288642Y-30950436D01*
X26312013Y-30905430D01*
X26314036Y-30898739D01*
X26317524Y-30849372D01*
X26301275Y-30801318D01*
X26265527Y-30754896D01*
X26210519Y-30710421D01*
X26143887Y-30671892D01*
X26071319Y-30640086D01*
X26000395Y-30619947D01*
X25924594Y-30610189D01*
X25837397Y-30609524D01*
X25829435Y-30609838D01*
X25765199Y-30614605D01*
X25704885Y-30623997D01*
X25644535Y-30639246D01*
X25580191Y-30661584D01*
X25507897Y-30692240D01*
X25423695Y-30732447D01*
X25404435Y-30742066D01*
X25282985Y-30799343D01*
X25171968Y-30843288D01*
X25067765Y-30874811D01*
X24966758Y-30894819D01*
X24865328Y-30904220D01*
X24759858Y-30903922D01*
X24759435Y-30903903D01*
X24639850Y-30891497D01*
X24528922Y-30865883D01*
X24429000Y-30827882D01*
X24342432Y-30778320D01*
X24295363Y-30741131D01*
X24248559Y-30692535D01*
X24218793Y-30644592D01*
X24203792Y-30592745D01*
X24200860Y-30551651D01*
X24206415Y-30495296D01*
X24224651Y-30442620D01*
X24257407Y-30389953D01*
X24306521Y-30333625D01*
X24313794Y-30326252D01*
X24384038Y-30266628D01*
X24471836Y-30210234D01*
X24574845Y-30158266D01*
X24690720Y-30111923D01*
X24802593Y-30076429D01*
X24912772Y-30048522D01*
X25012169Y-30029691D01*
X25099495Y-30019994D01*
X25173460Y-30019489D01*
X25232775Y-30028236D01*
G37*
G36*
X27904658Y-29538586D02*
G01*
X27878255Y-29501535D01*
X27858723Y-29471954D01*
X27845357Y-29448824D01*
X27837455Y-29431126D01*
X27834311Y-29417842D01*
X27835223Y-29407953D01*
X27839487Y-29400441D01*
X27846398Y-29394287D01*
X27854653Y-29388847D01*
X27863531Y-29383444D01*
X27872490Y-29378888D01*
X27882610Y-29375422D01*
X27894971Y-29373286D01*
X27910655Y-29372723D01*
X27930742Y-29373974D01*
X27956313Y-29377280D01*
X27988447Y-29382883D01*
X28028226Y-29391025D01*
X28076731Y-29401947D01*
X28135041Y-29415891D01*
X28204238Y-29433098D01*
X28285401Y-29453809D01*
X28379612Y-29478268D01*
X28487951Y-29506714D01*
X28611499Y-29539390D01*
X28751336Y-29576536D01*
X28908543Y-29618396D01*
X29049435Y-29655944D01*
X29193838Y-29694508D01*
X29333381Y-29731922D01*
X29466780Y-29767835D01*
X29592754Y-29801895D01*
X29710019Y-29833750D01*
X29817293Y-29863049D01*
X29913292Y-29889439D01*
X29996736Y-29912570D01*
X30066340Y-29932088D01*
X30120822Y-29947644D01*
X30158900Y-29958884D01*
X30179291Y-29965458D01*
X30181680Y-29966426D01*
X30215910Y-29989428D01*
X30231844Y-30015160D01*
X30230348Y-30040621D01*
X30212288Y-30062808D01*
X30178530Y-30078720D01*
X30147655Y-30084367D01*
X30129067Y-30084734D01*
X30104428Y-30082398D01*
X30071566Y-30076896D01*
X30028309Y-30067770D01*
X29972487Y-30054558D01*
X29901926Y-30036799D01*
X29814456Y-30014034D01*
X29807807Y-30012284D01*
X29516407Y-29935543D01*
X29165421Y-30138236D01*
X29089274Y-30182399D01*
X29018812Y-30223632D01*
X28955862Y-30260836D01*
X28902251Y-30292915D01*
X28859807Y-30318773D01*
X28830357Y-30337313D01*
X28815728Y-30347439D01*
X28814435Y-30348868D01*
X28820377Y-30358782D01*
X28836955Y-30381824D01*
X28862296Y-30415509D01*
X28894526Y-30457354D01*
X28931770Y-30504876D01*
X28939375Y-30514488D01*
X28986778Y-30575132D01*
X29022047Y-30622693D01*
X29046116Y-30659231D01*
X29059918Y-30686811D01*
X29064388Y-30707493D01*
X29060460Y-30723342D01*
X29049066Y-30736418D01*
X29042209Y-30741628D01*
X29014855Y-30752031D01*
X28976051Y-30756504D01*
X28933450Y-30755056D01*
X28894700Y-30747695D01*
X28878477Y-30741465D01*
X28865397Y-30730110D01*
X28840164Y-30702955D01*
X28802774Y-30659993D01*
X28753220Y-30601217D01*
X28691497Y-30526621D01*
X28617598Y-30436196D01*
X28531517Y-30329936D01*
X28433249Y-30207834D01*
X28340977Y-30092640D01*
X28246773Y-29974784D01*
X28164366Y-29871528D01*
X28093053Y-29781852D01*
X28032129Y-29704739D01*
X27980891Y-29639169D01*
X27962585Y-29615322D01*
X28224447Y-29615322D01*
X28230479Y-29624692D01*
X28247412Y-29647408D01*
X28273515Y-29681307D01*
X28307056Y-29724222D01*
X28346301Y-29773991D01*
X28389520Y-29828448D01*
X28434980Y-29885429D01*
X28480949Y-29942770D01*
X28525695Y-29998306D01*
X28567486Y-30049873D01*
X28604590Y-30095306D01*
X28635274Y-30132441D01*
X28657807Y-30159113D01*
X28670456Y-30173159D01*
X28671908Y-30174472D01*
X28689093Y-30184804D01*
X28696647Y-30186977D01*
X28707067Y-30182146D01*
X28732618Y-30168458D01*
X28771143Y-30147122D01*
X28820488Y-30119347D01*
X28878498Y-30086342D01*
X28943018Y-30049315D01*
X28975427Y-30030607D01*
X29041544Y-29991980D01*
X29101294Y-29956317D01*
X29152672Y-29924874D01*
X29193674Y-29898910D01*
X29222295Y-29879680D01*
X29236531Y-29868441D01*
X29237627Y-29866211D01*
X29225897Y-29861473D01*
X29197090Y-29852442D01*
X29153446Y-29839706D01*
X29097208Y-29823857D01*
X29030618Y-29805485D01*
X28955917Y-29785181D01*
X28875349Y-29763534D01*
X28791154Y-29741136D01*
X28705576Y-29718577D01*
X28620856Y-29696447D01*
X28539236Y-29675336D01*
X28462958Y-29655836D01*
X28394265Y-29638536D01*
X28335398Y-29624028D01*
X28288600Y-29612901D01*
X28256112Y-29605745D01*
X28240177Y-29603153D01*
X28239113Y-29603254D01*
X28226123Y-29611695D01*
X28224447Y-29615322D01*
X27962585Y-29615322D01*
X27938636Y-29584124D01*
X27904658Y-29538586D01*
G37*
G36*
X31854627Y-28301678D02*
G01*
X31871284Y-28306919D01*
X31883767Y-28313345D01*
X31912042Y-28328944D01*
X31954604Y-28352848D01*
X32009943Y-28384188D01*
X32076555Y-28422094D01*
X32152933Y-28465700D01*
X32237569Y-28514137D01*
X32328958Y-28566535D01*
X32425591Y-28622027D01*
X32525963Y-28679744D01*
X32628568Y-28738817D01*
X32731897Y-28798379D01*
X32834445Y-28857560D01*
X32934705Y-28915492D01*
X33031170Y-28971308D01*
X33122334Y-29024137D01*
X33206689Y-29073112D01*
X33282729Y-29117365D01*
X33348948Y-29156027D01*
X33403839Y-29188229D01*
X33445894Y-29213103D01*
X33473608Y-29229780D01*
X33485227Y-29237201D01*
X33504710Y-29261630D01*
X33507098Y-29289009D01*
X33493968Y-29315122D01*
X33466896Y-29335751D01*
X33445448Y-29343536D01*
X33432491Y-29342965D01*
X33401047Y-29339719D01*
X33352427Y-29333975D01*
X33287942Y-29325907D01*
X33208900Y-29315689D01*
X33116614Y-29303497D01*
X33012392Y-29289504D01*
X32897545Y-29273886D01*
X32773383Y-29256817D01*
X32641217Y-29238473D01*
X32502356Y-29219026D01*
X32358110Y-29198654D01*
X32347218Y-29197108D01*
X32203078Y-29176699D01*
X32064539Y-29157173D01*
X31932879Y-29138707D01*
X31809378Y-29121475D01*
X31695315Y-29105653D01*
X31591970Y-29091417D01*
X31500622Y-29078942D01*
X31422551Y-29068403D01*
X31359035Y-29059976D01*
X31311355Y-29053836D01*
X31280789Y-29050160D01*
X31268617Y-29049121D01*
X31268462Y-29049168D01*
X31267364Y-29050901D01*
X31268053Y-29053343D01*
X31271685Y-29057181D01*
X31279415Y-29063102D01*
X31292397Y-29071794D01*
X31311786Y-29083943D01*
X31338738Y-29100238D01*
X31374408Y-29121364D01*
X31419951Y-29148009D01*
X31476521Y-29180860D01*
X31545274Y-29220604D01*
X31627365Y-29267929D01*
X31723948Y-29323522D01*
X31836180Y-29388069D01*
X31894435Y-29421563D01*
X32020415Y-29494130D01*
X32129997Y-29557574D01*
X32224227Y-29612553D01*
X32304154Y-29659724D01*
X32370825Y-29699745D01*
X32425289Y-29733275D01*
X32468593Y-29760970D01*
X32501785Y-29783490D01*
X32525914Y-29801492D01*
X32542026Y-29815633D01*
X32551171Y-29826572D01*
X32554395Y-29834966D01*
X32554435Y-29835889D01*
X32548692Y-29849294D01*
X32535922Y-29867498D01*
X32509750Y-29885505D01*
X32471227Y-29894657D01*
X32426048Y-29894726D01*
X32379905Y-29885486D01*
X32352904Y-29874783D01*
X32333918Y-29864681D01*
X32299824Y-29845736D01*
X32252131Y-29818822D01*
X32192346Y-29784812D01*
X32121977Y-29744580D01*
X32042530Y-29699002D01*
X31955514Y-29648950D01*
X31862436Y-29595299D01*
X31764803Y-29538922D01*
X31664124Y-29480695D01*
X31561904Y-29421491D01*
X31459653Y-29362184D01*
X31358877Y-29303648D01*
X31261084Y-29246757D01*
X31167781Y-29192386D01*
X31080476Y-29141408D01*
X31000677Y-29094697D01*
X30929890Y-29053128D01*
X30869624Y-29017575D01*
X30821385Y-28988911D01*
X30786682Y-28968011D01*
X30767022Y-28955748D01*
X30763234Y-28953066D01*
X30746457Y-28927007D01*
X30748240Y-28899867D01*
X30767671Y-28875132D01*
X30786747Y-28863222D01*
X30824059Y-28844981D01*
X31890069Y-28991617D01*
X32033717Y-29011316D01*
X32171778Y-29030131D01*
X32302965Y-29047892D01*
X32425991Y-29064432D01*
X32539568Y-29079579D01*
X32642407Y-29093166D01*
X32733222Y-29105023D01*
X32810725Y-29114981D01*
X32873629Y-29122871D01*
X32920645Y-29128523D01*
X32950486Y-29131770D01*
X32961865Y-29132440D01*
X32961923Y-29132406D01*
X32963997Y-29123300D01*
X32963601Y-29122894D01*
X32954456Y-29117420D01*
X32929373Y-29102786D01*
X32889755Y-29079802D01*
X32837004Y-29049278D01*
X32772521Y-29012023D01*
X32697711Y-28968847D01*
X32613974Y-28920561D01*
X32522714Y-28867973D01*
X32425333Y-28811895D01*
X32354435Y-28771089D01*
X32252971Y-28712602D01*
X32156207Y-28656630D01*
X32065604Y-28604031D01*
X31982623Y-28555660D01*
X31908725Y-28512377D01*
X31845373Y-28475038D01*
X31794027Y-28444501D01*
X31756148Y-28421624D01*
X31733198Y-28407264D01*
X31726935Y-28402865D01*
X31709536Y-28377837D01*
X31704435Y-28355652D01*
X31713467Y-28331384D01*
X31737541Y-28312527D01*
X31772117Y-28300407D01*
X31812659Y-28296349D01*
X31854627Y-28301678D01*
G37*
G36*
X34074435Y-26847070D02*
G01*
X34080381Y-26820782D01*
X34091935Y-26803854D01*
X34104832Y-26795239D01*
X34132611Y-26778222D01*
X34172749Y-26754261D01*
X34222725Y-26724812D01*
X34280017Y-26691332D01*
X34342102Y-26655277D01*
X34406458Y-26618105D01*
X34470563Y-26581271D01*
X34531894Y-26546233D01*
X34587931Y-26514448D01*
X34636150Y-26487372D01*
X34674030Y-26466461D01*
X34699048Y-26453174D01*
X34699435Y-26452978D01*
X34786119Y-26417825D01*
X34887948Y-26391480D01*
X35001960Y-26374251D01*
X35125193Y-26366448D01*
X35254686Y-26368378D01*
X35387478Y-26380351D01*
X35391422Y-26380860D01*
X35547812Y-26407390D01*
X35700899Y-26445254D01*
X35848619Y-26493420D01*
X35988909Y-26550853D01*
X36119706Y-26616521D01*
X36238946Y-26689389D01*
X36344567Y-26768425D01*
X36434504Y-26852595D01*
X36505167Y-26938681D01*
X36548802Y-27008054D01*
X36577419Y-27072246D01*
X36592958Y-27136689D01*
X36597344Y-27196966D01*
X36589943Y-27273975D01*
X36565575Y-27341029D01*
X36523410Y-27399991D01*
X36494547Y-27427753D01*
X36474432Y-27442627D01*
X36439333Y-27465886D01*
X36391664Y-27496042D01*
X36333835Y-27531608D01*
X36268259Y-27571094D01*
X36197348Y-27613013D01*
X36142849Y-27644729D01*
X36061952Y-27691414D01*
X35996296Y-27729025D01*
X35943843Y-27758564D01*
X35902554Y-27781032D01*
X35870390Y-27797429D01*
X35845313Y-27808758D01*
X35825284Y-27816018D01*
X35808265Y-27820212D01*
X35792218Y-27822340D01*
X35779435Y-27823191D01*
X35736486Y-27822907D01*
X35703275Y-27815621D01*
X35679435Y-27804734D01*
X35661740Y-27794867D01*
X35628635Y-27776068D01*
X35581665Y-27749231D01*
X35522378Y-27715249D01*
X35452322Y-27675016D01*
X35373043Y-27629424D01*
X35286090Y-27579368D01*
X35193009Y-27525740D01*
X35095349Y-27469435D01*
X34994656Y-27411346D01*
X34892477Y-27352366D01*
X34790361Y-27293389D01*
X34689854Y-27235308D01*
X34592504Y-27179017D01*
X34499858Y-27125409D01*
X34413463Y-27075377D01*
X34334867Y-27029816D01*
X34265618Y-26989618D01*
X34207262Y-26955677D01*
X34161348Y-26928887D01*
X34129421Y-26910141D01*
X34113030Y-26900332D01*
X34111935Y-26899640D01*
X34086401Y-26879469D01*
X34077822Y-26863460D01*
X34378893Y-26863460D01*
X34387967Y-26868960D01*
X34413050Y-26883690D01*
X34452826Y-26906886D01*
X34505977Y-26937784D01*
X34571186Y-26975622D01*
X34647136Y-27019636D01*
X34732510Y-27069061D01*
X34825990Y-27123135D01*
X34926260Y-27181093D01*
X35032003Y-27242173D01*
X35065012Y-27261231D01*
X35189839Y-27333273D01*
X35298525Y-27395921D01*
X35392239Y-27449800D01*
X35472150Y-27495541D01*
X35539427Y-27533768D01*
X35595240Y-27565111D01*
X35640757Y-27590197D01*
X35677148Y-27609652D01*
X35705581Y-27624105D01*
X35727226Y-27634183D01*
X35743252Y-27640513D01*
X35754827Y-27643722D01*
X35763122Y-27644439D01*
X35769304Y-27643291D01*
X35773481Y-27641468D01*
X35789200Y-27632833D01*
X35819554Y-27615716D01*
X35861861Y-27591646D01*
X35913439Y-27562151D01*
X35971608Y-27528762D01*
X36019600Y-27501130D01*
X36081723Y-27464823D01*
X36139761Y-27429984D01*
X36190896Y-27398375D01*
X36232312Y-27371758D01*
X36261194Y-27351898D01*
X36272811Y-27342617D01*
X36317705Y-27288330D01*
X36343330Y-27229158D01*
X36349713Y-27164877D01*
X36336884Y-27095266D01*
X36312322Y-27034606D01*
X36263136Y-26955743D01*
X36195764Y-26879835D01*
X36111928Y-26807921D01*
X36013349Y-26741046D01*
X35901751Y-26680250D01*
X35778855Y-26626577D01*
X35646383Y-26581067D01*
X35506058Y-26544764D01*
X35501078Y-26543685D01*
X35457383Y-26535096D01*
X35415544Y-26529012D01*
X35370614Y-26525050D01*
X35317645Y-26522828D01*
X35251687Y-26521962D01*
X35219435Y-26521911D01*
X35153039Y-26522330D01*
X35096501Y-26524126D01*
X35046898Y-26528253D01*
X35001303Y-26535665D01*
X34956792Y-26547318D01*
X34910441Y-26564167D01*
X34859325Y-26587165D01*
X34800518Y-26617268D01*
X34731097Y-26655429D01*
X34648136Y-26702605D01*
X34624768Y-26716017D01*
X34561124Y-26752783D01*
X34503728Y-26786337D01*
X34454706Y-26815403D01*
X34416184Y-26838707D01*
X34390285Y-26854974D01*
X34379137Y-26862929D01*
X34378893Y-26863460D01*
X34077822Y-26863460D01*
X34075628Y-26859366D01*
X34074435Y-26847070D01*
G37*
G36*
X38706507Y-23495699D02*
G01*
X38746138Y-23511674D01*
X38776046Y-23540861D01*
X38796306Y-23576413D01*
X38806056Y-23598260D01*
X38822422Y-23635968D01*
X38844295Y-23686940D01*
X38870570Y-23748581D01*
X38900138Y-23818294D01*
X38931893Y-23893483D01*
X38954752Y-23947804D01*
X38993752Y-24039961D01*
X39026140Y-24114952D01*
X39052608Y-24174236D01*
X39073846Y-24219275D01*
X39090547Y-24251527D01*
X39103402Y-24272454D01*
X39113101Y-24283516D01*
X39113991Y-24284183D01*
X39128274Y-24293158D01*
X39157810Y-24310848D01*
X39200497Y-24336025D01*
X39254235Y-24367460D01*
X39316921Y-24403923D01*
X39386454Y-24444187D01*
X39460734Y-24487020D01*
X39464435Y-24489150D01*
X39557560Y-24543006D01*
X39634497Y-24588179D01*
X39696609Y-24625578D01*
X39745260Y-24656113D01*
X39781814Y-24680693D01*
X39807634Y-24700227D01*
X39824084Y-24715623D01*
X39832528Y-24727793D01*
X39834435Y-24735843D01*
X39827946Y-24749024D01*
X39812101Y-24768046D01*
X39809889Y-24770299D01*
X39791608Y-24784947D01*
X39769852Y-24792347D01*
X39737283Y-24794669D01*
X39727389Y-24794713D01*
X39692434Y-24792782D01*
X39661615Y-24785627D01*
X39627144Y-24770914D01*
X39599435Y-24756380D01*
X39572576Y-24741436D01*
X39531360Y-24718132D01*
X39478727Y-24688147D01*
X39417616Y-24653161D01*
X39350969Y-24614855D01*
X39281727Y-24574909D01*
X39269435Y-24567802D01*
X39201752Y-24528755D01*
X39137674Y-24491980D01*
X39079807Y-24458956D01*
X39030758Y-24431165D01*
X38993132Y-24410089D01*
X38969537Y-24397208D01*
X38966112Y-24395429D01*
X38953752Y-24390366D01*
X38935209Y-24384902D01*
X38909095Y-24378808D01*
X38874021Y-24371857D01*
X38828600Y-24363818D01*
X38771443Y-24354465D01*
X38701162Y-24343569D01*
X38616369Y-24330900D01*
X38515675Y-24316231D01*
X38397693Y-24299333D01*
X38286112Y-24283518D01*
X38136618Y-24262206D01*
X38005359Y-24243079D01*
X37892569Y-24226172D01*
X37798482Y-24211523D01*
X37723331Y-24199170D01*
X37667350Y-24189149D01*
X37630771Y-24181499D01*
X37614486Y-24176599D01*
X37584688Y-24154709D01*
X37569688Y-24131046D01*
X37565034Y-24108273D01*
X37573482Y-24092158D01*
X37582850Y-24083847D01*
X37609575Y-24068554D01*
X37639322Y-24058926D01*
X37656731Y-24058975D01*
X37692786Y-24061926D01*
X37746368Y-24067640D01*
X37816355Y-24075979D01*
X37901625Y-24086805D01*
X38001059Y-24099978D01*
X38113535Y-24115362D01*
X38236108Y-24132558D01*
X38339959Y-24147135D01*
X38437905Y-24160581D01*
X38528153Y-24172672D01*
X38608913Y-24183182D01*
X38678393Y-24191884D01*
X38734802Y-24198555D01*
X38776348Y-24202967D01*
X38801240Y-24204895D01*
X38807906Y-24204573D01*
X38806168Y-24193814D01*
X38797368Y-24166865D01*
X38782345Y-24125914D01*
X38761943Y-24073148D01*
X38737002Y-24010758D01*
X38708363Y-23940930D01*
X38685406Y-23886041D01*
X38654160Y-23811240D01*
X38625584Y-23741494D01*
X38600593Y-23679142D01*
X38580103Y-23626525D01*
X38565031Y-23585985D01*
X38556292Y-23559861D01*
X38554435Y-23551430D01*
X38563022Y-23520900D01*
X38588358Y-23500653D01*
X38629804Y-23491086D01*
X38652863Y-23490360D01*
X38706507Y-23495699D01*
G37*
D10*
X157733435Y-81525280D02*
X157733435Y-82225280D01*
X157733435Y-86225280D02*
X157733435Y-89225280D01*
X169203435Y-81525280D02*
X170133435Y-81525280D01*
X169203435Y-81525280D02*
X169203435Y-80785280D01*
X158663435Y-81525280D02*
X157733435Y-81525280D01*
X170133435Y-81525280D02*
X170133435Y-85225280D01*
X170133435Y-93925280D02*
X169203435Y-93925280D01*
X157733435Y-93925280D02*
X158663435Y-93925280D01*
X170133435Y-90225280D02*
X170133435Y-93925280D01*
X157733435Y-93225280D02*
X157733435Y-93925280D01*
D11*
X163980860Y-84323705D02*
G75*
G03*
X163980860Y-84323705I-315000J0D01*
G01*
X162740860Y-84327280D02*
G75*
G03*
X162740860Y-84327280I-316425J0D01*
G01*
X162749435Y-84352280D02*
X163664435Y-82082280D01*
X163349435Y-84352280D02*
X162464435Y-82082280D01*
X191999060Y-25833530D02*
G75*
G03*
X195399060Y-25833530I1700000J1700000D01*
G01*
X146583435Y-53878405D02*
G75*
G03*
X143183435Y-53878405I-1700000J-1700000D01*
G01*
X41808435Y-30065905D02*
G75*
G03*
X38408435Y-30065905I-1700000J-1700000D01*
G01*
X134849060Y-25833530D02*
G75*
G03*
X138249060Y-25833530I1700000J1700000D01*
G01*
X98958435Y-30065905D02*
G75*
G03*
X95558435Y-30065905I-1700000J-1700000D01*
G01*
X184683435Y-53878405D02*
G75*
G03*
X181283435Y-53878405I-1700000J-1700000D01*
G01*
X232308435Y-30065905D02*
G75*
G03*
X228908435Y-30065905I-1700000J-1700000D01*
G01*
X289458435Y-30065905D02*
G75*
G03*
X286058435Y-30065905I-1700000J-1700000D01*
G01*
%LPC*%
D12*
X158408435Y-91225280D03*
D13*
X166933435Y-90725280D03*
D12*
X169458435Y-87725280D03*
X158408435Y-84225280D03*
D14*
X167933435Y-80225280D03*
X163933435Y-80225280D03*
X159933435Y-80225280D03*
X167933435Y-95225280D03*
X163933435Y-95225280D03*
X159933435Y-95225280D03*
D15*
X193699060Y-24133530D03*
D16*
X177903435Y-87725280D03*
X188063435Y-87725280D03*
D17*
X182983435Y-87725280D03*
D18*
X46585435Y-49244280D03*
D19*
X281408435Y-49251780D03*
D17*
X211558435Y-49625280D03*
D16*
X206478435Y-49625280D03*
X216638435Y-49625280D03*
X187428435Y-68675280D03*
D17*
X192508435Y-68675280D03*
D16*
X197588435Y-68675280D03*
X130278435Y-68700320D03*
X140438435Y-68700320D03*
D17*
X135358435Y-68700320D03*
D16*
X178538435Y-68675280D03*
X168378435Y-68675280D03*
D17*
X173458435Y-68675280D03*
X154408435Y-68675280D03*
D16*
X149328435Y-68675280D03*
X159488435Y-68675280D03*
D17*
X37727185Y-49625280D03*
D16*
X32647185Y-49625280D03*
X42807185Y-49625280D03*
X273788435Y-49625280D03*
X263628435Y-49625280D03*
D17*
X268708435Y-49625280D03*
D15*
X144883435Y-55578405D03*
X40108435Y-31765905D03*
X136549060Y-24133530D03*
D17*
X116308435Y-49625280D03*
D16*
X121388435Y-49625280D03*
X111228435Y-49625280D03*
D15*
X97258435Y-31765905D03*
D17*
X144883435Y-87725280D03*
D16*
X149963435Y-87725280D03*
X139803435Y-87725280D03*
D15*
X182983435Y-55578405D03*
X230608435Y-31765905D03*
D16*
X169013435Y-87725280D03*
X158853435Y-87725280D03*
D17*
X163933435Y-87725280D03*
X35345935Y-49625280D03*
D16*
X40425935Y-49625280D03*
X30265935Y-49625280D03*
D17*
X59158435Y-49625280D03*
D16*
X54078435Y-49625280D03*
X64238435Y-49625280D03*
X287440935Y-49625280D03*
X297600935Y-49625280D03*
D17*
X292520935Y-49625280D03*
D15*
X287758435Y-31765905D03*
X78208435Y-31765905D03*
D20*
X199852185Y-49244030D03*
X197952185Y-48244030D03*
X197952185Y-46244030D03*
X199852185Y-45244030D03*
D21*
X182983435Y-24622155D03*
D15*
X303236560Y-24133530D03*
D21*
X102020935Y-24622155D03*
D15*
X202033435Y-55625280D03*
X303236560Y-55587780D03*
X138930310Y-78200280D03*
D21*
X25820935Y-41290905D03*
D15*
X249658435Y-31765905D03*
X188936560Y-78200280D03*
D21*
X105592810Y-24622155D03*
D15*
X24630310Y-55587780D03*
D21*
X25820935Y-37719030D03*
X218702185Y-24622155D03*
D15*
X163933435Y-24133530D03*
X125833435Y-55578405D03*
X24630310Y-24133530D03*
D20*
X128014685Y-45244030D03*
X129914685Y-46244030D03*
X129914685Y-48244030D03*
X128014685Y-49244030D03*
X199852185Y-38528405D03*
X197952185Y-37528405D03*
X197952185Y-35528405D03*
X199852185Y-34528405D03*
D21*
X186555310Y-24622155D03*
X204414685Y-24622155D03*
X225845935Y-24622155D03*
X109164685Y-24622155D03*
X200842810Y-24622155D03*
X222274060Y-24622155D03*
M02*
