G04 #@! TF.GenerationSoftware,KiCad,Pcbnew,7.0.1-0*
G04 #@! TF.CreationDate,2023-05-14T12:25:00+09:00*
G04 #@! TF.ProjectId,Sandy_Middle,53616e64-795f-44d6-9964-646c652e6b69,v.0*
G04 #@! TF.SameCoordinates,Original*
G04 #@! TF.FileFunction,Soldermask,Bot*
G04 #@! TF.FilePolarity,Negative*
%FSLAX46Y46*%
G04 Gerber Fmt 4.6, Leading zero omitted, Abs format (unit mm)*
G04 Created by KiCad (PCBNEW 7.0.1-0) date 2023-05-14 12:25:00*
%MOMM*%
%LPD*%
G01*
G04 APERTURE LIST*
G04 Aperture macros list*
%AMRoundRect*
0 Rectangle with rounded corners*
0 $1 Rounding radius*
0 $2 $3 $4 $5 $6 $7 $8 $9 X,Y pos of 4 corners*
0 Add a 4 corners polygon primitive as box body*
4,1,4,$2,$3,$4,$5,$6,$7,$8,$9,$2,$3,0*
0 Add four circle primitives for the rounded corners*
1,1,$1+$1,$2,$3*
1,1,$1+$1,$4,$5*
1,1,$1+$1,$6,$7*
1,1,$1+$1,$8,$9*
0 Add four rect primitives between the rounded corners*
20,1,$1+$1,$2,$3,$4,$5,0*
20,1,$1+$1,$4,$5,$6,$7,0*
20,1,$1+$1,$6,$7,$8,$9,0*
20,1,$1+$1,$8,$9,$2,$3,0*%
G04 Aperture macros list end*
%ADD10C,4.800000*%
%ADD11C,2.150000*%
%ADD12C,3.400000*%
%ADD13C,4.387800*%
%ADD14RoundRect,0.200000X-1.275000X-1.250000X1.275000X-1.250000X1.275000X1.250000X-1.275000X1.250000X0*%
%ADD15C,6.496000*%
%ADD16O,2.100000X2.100000*%
%ADD17RoundRect,0.350000X0.625000X-0.150000X0.625000X0.150000X-0.625000X0.150000X-0.625000X-0.150000X0*%
%ADD18RoundRect,0.450000X0.650000X-0.350000X0.650000X0.350000X-0.650000X0.350000X-0.650000X-0.350000X0*%
%ADD19RoundRect,0.200000X-0.450000X-0.600000X0.450000X-0.600000X0.450000X0.600000X-0.450000X0.600000X0*%
%ADD20C,2.400000*%
%ADD21RoundRect,0.350000X-0.625000X0.150000X-0.625000X-0.150000X0.625000X-0.150000X0.625000X0.150000X0*%
%ADD22RoundRect,0.450000X-0.650000X0.350000X-0.650000X-0.350000X0.650000X-0.350000X0.650000X0.350000X0*%
G04 APERTURE END LIST*
D10*
X78208435Y-31765905D03*
X303236560Y-24133530D03*
D11*
X177903435Y-87725280D03*
D12*
X179173435Y-85185280D03*
D13*
X182983435Y-87725280D03*
D12*
X185523435Y-82645280D03*
D11*
X188063435Y-87725280D03*
D14*
X175898435Y-85185280D03*
X188825435Y-82645280D03*
D10*
X202033435Y-55625280D03*
D15*
X46585435Y-49244280D03*
D11*
X206478435Y-49625280D03*
D12*
X207748435Y-47085280D03*
D13*
X211558435Y-49625280D03*
D12*
X214098435Y-44545280D03*
D11*
X216638435Y-49625280D03*
D14*
X204473435Y-47085280D03*
X217400435Y-44545280D03*
D11*
X187428435Y-68675280D03*
D12*
X188698435Y-66135280D03*
D13*
X192508435Y-68675280D03*
D12*
X195048435Y-63595280D03*
D11*
X197588435Y-68675280D03*
D14*
X185423435Y-66135280D03*
X198350435Y-63595280D03*
D11*
X130278435Y-68700320D03*
D12*
X131548435Y-66160320D03*
D13*
X135358435Y-68700320D03*
D12*
X137898435Y-63620320D03*
D11*
X140438435Y-68700320D03*
D14*
X128273435Y-66160320D03*
X141200435Y-63620320D03*
D10*
X303236560Y-55587780D03*
D11*
X168378435Y-68675280D03*
D12*
X169648435Y-66135280D03*
D13*
X173458435Y-68675280D03*
D12*
X175998435Y-63595280D03*
D11*
X178538435Y-68675280D03*
D14*
X166373435Y-66135280D03*
X179300435Y-63595280D03*
D10*
X138930310Y-78200280D03*
D11*
X149328435Y-68675280D03*
D12*
X150598435Y-66135280D03*
D13*
X154408435Y-68675280D03*
D12*
X156948435Y-63595280D03*
D11*
X159488435Y-68675280D03*
D14*
X147323435Y-66135280D03*
X160250435Y-63595280D03*
D11*
X263628435Y-49625280D03*
D12*
X264898435Y-47085280D03*
D13*
X268708435Y-49625280D03*
D12*
X271248435Y-44545280D03*
D11*
X273788435Y-49625280D03*
D14*
X261623435Y-47085280D03*
X274550435Y-44545280D03*
D10*
X249658435Y-31765905D03*
X188936560Y-78200280D03*
X24630310Y-55587780D03*
D11*
X111228435Y-49625280D03*
D12*
X112498435Y-47085280D03*
D13*
X116308435Y-49625280D03*
D12*
X118848435Y-44545280D03*
D11*
X121388435Y-49625280D03*
D14*
X109223435Y-47085280D03*
X122150435Y-44545280D03*
D10*
X163933435Y-24133530D03*
X125833435Y-55578405D03*
X24630310Y-24133530D03*
D11*
X139803435Y-87725280D03*
D12*
X141073435Y-85185280D03*
D13*
X144883435Y-87725280D03*
D12*
X147423435Y-82645280D03*
D11*
X149963435Y-87725280D03*
D14*
X137798435Y-85185280D03*
X150725435Y-82645280D03*
D11*
X158853435Y-87725280D03*
D12*
X160123435Y-85185280D03*
D13*
X163933435Y-87725280D03*
D12*
X166473435Y-82645280D03*
D11*
X169013435Y-87725280D03*
D14*
X156848435Y-85185280D03*
X169775435Y-82645280D03*
D11*
X30265935Y-49625280D03*
D12*
X31535935Y-47085280D03*
D13*
X35345935Y-49625280D03*
D12*
X37885935Y-44545280D03*
D11*
X40425935Y-49625280D03*
D14*
X28260935Y-47085280D03*
X41187935Y-44545280D03*
D11*
X54078435Y-49625280D03*
D12*
X55348435Y-47085280D03*
D13*
X59158435Y-49625280D03*
D12*
X61698435Y-44545280D03*
D11*
X64238435Y-49625280D03*
D14*
X52073435Y-47085280D03*
X65000435Y-44545280D03*
D11*
X287440935Y-49625280D03*
D12*
X288710935Y-47085280D03*
D13*
X292520935Y-49625280D03*
D12*
X295060935Y-44545280D03*
D11*
X297600935Y-49625280D03*
D14*
X285435935Y-47085280D03*
X298362935Y-44545280D03*
D16*
X199058435Y-49244030D03*
D17*
X200858435Y-48744030D03*
D16*
X197158435Y-48244030D03*
D17*
X200858435Y-47744030D03*
X200858435Y-46744030D03*
D16*
X197158435Y-46244030D03*
D17*
X200858435Y-45744030D03*
D16*
X199058435Y-45244030D03*
D18*
X196983435Y-50044030D03*
X196983435Y-44444030D03*
D19*
X36077185Y-41290905D03*
X39377185Y-41290905D03*
D20*
X182983435Y-24622155D03*
D10*
X192508435Y-24133530D03*
D20*
X102020935Y-24622155D03*
D19*
X211830310Y-41290905D03*
X215130310Y-41290905D03*
X293252185Y-41290905D03*
X296552185Y-41290905D03*
X180142810Y-79390905D03*
X183442810Y-79390905D03*
X164664685Y-79390905D03*
X167964685Y-79390905D03*
X193239685Y-60340905D03*
X196539685Y-60340905D03*
X117039685Y-41290905D03*
X120339685Y-41290905D03*
D20*
X55586560Y-37719030D03*
D19*
X130136560Y-60340905D03*
X133436560Y-60340905D03*
D10*
X144883435Y-55578405D03*
X40108435Y-31765905D03*
D19*
X145614685Y-79390905D03*
X148914685Y-79390905D03*
D20*
X105592810Y-24622155D03*
D10*
X135358435Y-24133530D03*
D20*
X49633435Y-37719030D03*
X218702185Y-24622155D03*
D19*
X269439685Y-41290905D03*
X272739685Y-41290905D03*
D10*
X97258435Y-31765905D03*
X182983435Y-55578405D03*
D16*
X128014685Y-45244030D03*
D21*
X126214685Y-45744030D03*
D16*
X129914685Y-46244030D03*
D21*
X126214685Y-46744030D03*
X126214685Y-47744030D03*
D16*
X129914685Y-48244030D03*
D21*
X126214685Y-48744030D03*
D16*
X128014685Y-49244030D03*
D22*
X130089685Y-44444030D03*
X130089685Y-50044030D03*
D10*
X230608435Y-31765905D03*
D19*
X137739685Y-60340905D03*
X141039685Y-60340905D03*
D16*
X199058435Y-38528405D03*
D17*
X200858435Y-38028405D03*
D16*
X197158435Y-37528405D03*
D17*
X200858435Y-37028405D03*
X200858435Y-36028405D03*
D16*
X197158435Y-35528405D03*
D17*
X200858435Y-35028405D03*
D16*
X199058435Y-34528405D03*
D18*
X196983435Y-39328405D03*
X196983435Y-33728405D03*
D20*
X186555310Y-24622155D03*
X204414685Y-24622155D03*
X225845935Y-24622155D03*
D19*
X59889685Y-41290905D03*
X63189685Y-41290905D03*
X186095935Y-60340905D03*
X189395935Y-60340905D03*
D20*
X109164685Y-24622155D03*
X200842810Y-24622155D03*
D10*
X287758435Y-31765905D03*
D20*
X222274060Y-24622155D03*
M02*
