%TF.GenerationSoftware,KiCad,Pcbnew,(6.0.10-0)*%
%TF.CreationDate,2023-03-16T17:33:29+09:00*%
%TF.ProjectId,Sandy_Middle,53616e64-795f-44d6-9964-646c652e6b69,v.0*%
%TF.SameCoordinates,Original*%
%TF.FileFunction,Drillmap*%
%TF.FilePolarity,Positive*%
%FSLAX45Y45*%
G04 Gerber Fmt 4.5, Leading zero omitted, Abs format (unit mm)*
G04 Created by KiCad (PCBNEW (6.0.10-0)) date 2023-03-16 17:33:29*
%MOMM*%
%LPD*%
G01*
G04 APERTURE LIST*
%ADD10C,0.200000*%
%ADD11C,0.100000*%
%ADD12C,0.145000*%
%ADD13C,0.160000*%
%ADD14C,0.175000*%
%ADD15C,0.398780*%
%ADD16C,0.533400*%
%ADD17C,0.609600*%
G04 APERTURE END LIST*
D10*
D11*
X2206242Y-5842181D02*
X2306242Y-5942181D01*
X2306242Y-5842181D02*
X2206242Y-5942181D01*
X2366242Y-5842181D02*
X2466242Y-5942181D01*
X2466242Y-5842181D02*
X2366242Y-5942181D01*
X2526242Y-5842181D02*
X2626242Y-5942181D01*
X2626242Y-5842181D02*
X2526242Y-5942181D01*
X30160445Y-5842181D02*
X30260445Y-5942181D01*
X30260445Y-5842181D02*
X30160445Y-5942181D01*
X30320445Y-5842181D02*
X30420445Y-5942181D01*
X30420445Y-5842181D02*
X30320445Y-5942181D01*
X30480445Y-5842181D02*
X30580445Y-5942181D01*
X30580445Y-5842181D02*
X30480445Y-5942181D01*
D12*
X15913343Y-8422528D02*
G75*
G03*
X15913343Y-8422528I-72500J0D01*
G01*
D10*
X15768343Y-8295028D02*
X15768343Y-8550028D01*
X15913343Y-8295028D02*
X15913343Y-8550028D01*
X15768343Y-8550028D02*
G75*
G03*
X15913343Y-8550028I72500J0D01*
G01*
X15913343Y-8295028D02*
G75*
G03*
X15768343Y-8295028I-72500J0D01*
G01*
D12*
X15913343Y-9122528D02*
G75*
G03*
X15913343Y-9122528I-72500J0D01*
G01*
D10*
X15768343Y-8995028D02*
X15768343Y-9250028D01*
X15913343Y-8995028D02*
X15913343Y-9250028D01*
X15768343Y-9250028D02*
G75*
G03*
X15913343Y-9250028I72500J0D01*
G01*
X15913343Y-8995028D02*
G75*
G03*
X15768343Y-8995028I-72500J0D01*
G01*
D12*
X17018344Y-8772528D02*
G75*
G03*
X17018344Y-8772528I-72500J0D01*
G01*
D10*
X16873344Y-8645028D02*
X16873344Y-8900028D01*
X17018344Y-8645028D02*
X17018344Y-8900028D01*
X16873344Y-8900028D02*
G75*
G03*
X17018344Y-8900028I72500J0D01*
G01*
X17018344Y-8645028D02*
G75*
G03*
X16873344Y-8645028I-72500J0D01*
G01*
D13*
X16693343Y-8992528D02*
X16693343Y-9152528D01*
X16613343Y-9072528D02*
X16773343Y-9072528D01*
D14*
X3088466Y-5024400D02*
X3088466Y-4900656D01*
X2964721Y-4900656D01*
X2964721Y-5024400D01*
X3088466Y-5024400D01*
X3326591Y-5024400D02*
X3326591Y-4900656D01*
X3202846Y-4900656D01*
X3202846Y-5024400D01*
X3326591Y-5024400D01*
X4104466Y-5024400D02*
X4104466Y-4900656D01*
X3980721Y-4900656D01*
X3980721Y-5024400D01*
X4104466Y-5024400D01*
X4342591Y-5024400D02*
X4342591Y-4900656D01*
X4218846Y-4900656D01*
X4218846Y-5024400D01*
X4342591Y-5024400D01*
X5469716Y-5024400D02*
X5469716Y-4900656D01*
X5345971Y-4900656D01*
X5345971Y-5024400D01*
X5469716Y-5024400D01*
X6485716Y-5024400D02*
X6485716Y-4900656D01*
X6361971Y-4900656D01*
X6361971Y-5024400D01*
X6485716Y-5024400D01*
X11184716Y-5024400D02*
X11184716Y-4900656D01*
X11060971Y-4900656D01*
X11060971Y-5024400D01*
X11184716Y-5024400D01*
X12200716Y-5024400D02*
X12200716Y-4900656D01*
X12076971Y-4900656D01*
X12076971Y-5024400D01*
X12200716Y-5024400D01*
X13089716Y-6931904D02*
X13089716Y-6808160D01*
X12965971Y-6808160D01*
X12965971Y-6931904D01*
X13089716Y-6931904D01*
X14042216Y-8834400D02*
X14042216Y-8710656D01*
X13918471Y-8710656D01*
X13918471Y-8834400D01*
X14042216Y-8834400D01*
X14105716Y-6931904D02*
X14105716Y-6808160D01*
X13981971Y-6808160D01*
X13981971Y-6931904D01*
X14105716Y-6931904D01*
X14994716Y-6929400D02*
X14994716Y-6805656D01*
X14870971Y-6805656D01*
X14870971Y-6929400D01*
X14994716Y-6929400D01*
X15058216Y-8834400D02*
X15058216Y-8710656D01*
X14934471Y-8710656D01*
X14934471Y-8834400D01*
X15058216Y-8834400D01*
X15947216Y-8834400D02*
X15947216Y-8710656D01*
X15823471Y-8710656D01*
X15823471Y-8834400D01*
X15947216Y-8834400D01*
X16010716Y-6929400D02*
X16010716Y-6805656D01*
X15886971Y-6805656D01*
X15886971Y-6929400D01*
X16010716Y-6929400D01*
X16899716Y-6929400D02*
X16899716Y-6805656D01*
X16775971Y-6805656D01*
X16775971Y-6929400D01*
X16899716Y-6929400D01*
X16963216Y-8834400D02*
X16963216Y-8710656D01*
X16839471Y-8710656D01*
X16839471Y-8834400D01*
X16963216Y-8834400D01*
X17852216Y-8834400D02*
X17852216Y-8710656D01*
X17728471Y-8710656D01*
X17728471Y-8834400D01*
X17852216Y-8834400D01*
X17915716Y-6929400D02*
X17915716Y-6805656D01*
X17791971Y-6805656D01*
X17791971Y-6929400D01*
X17915716Y-6929400D01*
X18804716Y-6929400D02*
X18804716Y-6805656D01*
X18680971Y-6805656D01*
X18680971Y-6929400D01*
X18804716Y-6929400D01*
X18868216Y-8834400D02*
X18868216Y-8710656D01*
X18744471Y-8710656D01*
X18744471Y-8834400D01*
X18868216Y-8834400D01*
X19820716Y-6929400D02*
X19820716Y-6805656D01*
X19696971Y-6805656D01*
X19696971Y-6929400D01*
X19820716Y-6929400D01*
X20709716Y-5024400D02*
X20709716Y-4900656D01*
X20585971Y-4900656D01*
X20585971Y-5024400D01*
X20709716Y-5024400D01*
X21725716Y-5024400D02*
X21725716Y-4900656D01*
X21601971Y-4900656D01*
X21601971Y-5024400D01*
X21725716Y-5024400D01*
X26424716Y-5024400D02*
X26424716Y-4900656D01*
X26300971Y-4900656D01*
X26300971Y-5024400D01*
X26424716Y-5024400D01*
X27440716Y-5024400D02*
X27440716Y-4900656D01*
X27316971Y-4900656D01*
X27316971Y-5024400D01*
X27440716Y-5024400D01*
X28805966Y-5024400D02*
X28805966Y-4900656D01*
X28682221Y-4900656D01*
X28682221Y-5024400D01*
X28805966Y-5024400D01*
X29821966Y-5024400D02*
X29821966Y-4900656D01*
X29698221Y-4900656D01*
X29698221Y-5024400D01*
X29821966Y-5024400D01*
D15*
X3534593Y-5161918D02*
X3733983Y-4962528D01*
X3534593Y-4763138D01*
X3335203Y-4962528D01*
X3534593Y-5161918D01*
X3772718Y-5161918D02*
X3972108Y-4962528D01*
X3772718Y-4763138D01*
X3573328Y-4962528D01*
X3772718Y-5161918D01*
X5915843Y-5161918D02*
X6115233Y-4962528D01*
X5915843Y-4763138D01*
X5716453Y-4962528D01*
X5915843Y-5161918D01*
X11630843Y-5161918D02*
X11830233Y-4962528D01*
X11630843Y-4763138D01*
X11431453Y-4962528D01*
X11630843Y-5161918D01*
X13535843Y-7069422D02*
X13735233Y-6870032D01*
X13535843Y-6670642D01*
X13336453Y-6870032D01*
X13535843Y-7069422D01*
X14488343Y-8971918D02*
X14687733Y-8772528D01*
X14488343Y-8573138D01*
X14288953Y-8772528D01*
X14488343Y-8971918D01*
X15440843Y-7066918D02*
X15640233Y-6867528D01*
X15440843Y-6668138D01*
X15241453Y-6867528D01*
X15440843Y-7066918D01*
X16393343Y-8971918D02*
X16592733Y-8772528D01*
X16393343Y-8573138D01*
X16193953Y-8772528D01*
X16393343Y-8971918D01*
X17345844Y-7066918D02*
X17545234Y-6867528D01*
X17345844Y-6668138D01*
X17146454Y-6867528D01*
X17345844Y-7066918D01*
X18298344Y-8971918D02*
X18497734Y-8772528D01*
X18298344Y-8573138D01*
X18098954Y-8772528D01*
X18298344Y-8971918D01*
X19250844Y-7066918D02*
X19450234Y-6867528D01*
X19250844Y-6668138D01*
X19051454Y-6867528D01*
X19250844Y-7066918D01*
X21155844Y-5161918D02*
X21355234Y-4962528D01*
X21155844Y-4763138D01*
X20956454Y-4962528D01*
X21155844Y-5161918D01*
X26870843Y-5161918D02*
X27070233Y-4962528D01*
X26870843Y-4763138D01*
X26671453Y-4962528D01*
X26870843Y-5161918D01*
X29252093Y-5161918D02*
X29451483Y-4962528D01*
X29252093Y-4763138D01*
X29052703Y-4962528D01*
X29252093Y-5161918D01*
D16*
X27874143Y-4658478D02*
X28407543Y-5191878D01*
X28407543Y-4658478D02*
X27874143Y-5191878D01*
X28407543Y-4925178D02*
G75*
G03*
X28407543Y-4925178I-266700J0D01*
G01*
D10*
X27988444Y-5191878D02*
X28293243Y-5191878D01*
X27988444Y-4658478D02*
X28293243Y-4658478D01*
X28293243Y-5191878D02*
G75*
G03*
X28293243Y-4658478I0J266700D01*
G01*
X27988444Y-4658478D02*
G75*
G03*
X27988444Y-5191878I0J-266700D01*
G01*
D17*
X4353744Y-4619628D02*
X4963344Y-5229228D01*
X4963344Y-4619628D02*
X4353744Y-5229228D01*
X4658544Y-4619628D02*
X4658544Y-5229228D01*
X4353744Y-4924428D02*
X4963344Y-4924428D01*
D10*
X2383463Y-9975500D02*
X2383463Y-9775500D01*
X2431082Y-9775500D01*
X2459653Y-9785024D01*
X2478701Y-9804072D01*
X2488224Y-9823119D01*
X2497748Y-9861214D01*
X2497748Y-9889786D01*
X2488224Y-9927881D01*
X2478701Y-9946929D01*
X2459653Y-9965976D01*
X2431082Y-9975500D01*
X2383463Y-9975500D01*
X2583463Y-9975500D02*
X2583463Y-9842167D01*
X2583463Y-9880262D02*
X2592986Y-9861214D01*
X2602510Y-9851691D01*
X2621558Y-9842167D01*
X2640605Y-9842167D01*
X2707272Y-9975500D02*
X2707272Y-9842167D01*
X2707272Y-9775500D02*
X2697748Y-9785024D01*
X2707272Y-9794548D01*
X2716796Y-9785024D01*
X2707272Y-9775500D01*
X2707272Y-9794548D01*
X2831081Y-9975500D02*
X2812034Y-9965976D01*
X2802510Y-9946929D01*
X2802510Y-9775500D01*
X2935843Y-9975500D02*
X2916796Y-9965976D01*
X2907272Y-9946929D01*
X2907272Y-9775500D01*
X3164415Y-9975500D02*
X3164415Y-9775500D01*
X3231081Y-9918357D01*
X3297748Y-9775500D01*
X3297748Y-9975500D01*
X3478701Y-9975500D02*
X3478701Y-9870738D01*
X3469177Y-9851691D01*
X3450129Y-9842167D01*
X3412034Y-9842167D01*
X3392986Y-9851691D01*
X3478701Y-9965976D02*
X3459653Y-9975500D01*
X3412034Y-9975500D01*
X3392986Y-9965976D01*
X3383462Y-9946929D01*
X3383462Y-9927881D01*
X3392986Y-9908834D01*
X3412034Y-9899310D01*
X3459653Y-9899310D01*
X3478701Y-9889786D01*
X3573939Y-9842167D02*
X3573939Y-10042167D01*
X3573939Y-9851691D02*
X3592986Y-9842167D01*
X3631081Y-9842167D01*
X3650129Y-9851691D01*
X3659653Y-9861214D01*
X3669177Y-9880262D01*
X3669177Y-9937405D01*
X3659653Y-9956453D01*
X3650129Y-9965976D01*
X3631081Y-9975500D01*
X3592986Y-9975500D01*
X3573939Y-9965976D01*
X3754891Y-9956453D02*
X3764415Y-9965976D01*
X3754891Y-9975500D01*
X3745367Y-9965976D01*
X3754891Y-9956453D01*
X3754891Y-9975500D01*
X3754891Y-9851691D02*
X3764415Y-9861214D01*
X3754891Y-9870738D01*
X3745367Y-9861214D01*
X3754891Y-9851691D01*
X3754891Y-9870738D01*
D11*
X2025843Y-10255024D02*
X2125844Y-10355024D01*
X2125844Y-10255024D02*
X2025843Y-10355024D01*
D10*
X2488224Y-10395500D02*
X2373939Y-10395500D01*
X2431082Y-10395500D02*
X2431082Y-10195500D01*
X2412034Y-10224072D01*
X2392986Y-10243119D01*
X2373939Y-10252643D01*
X2573939Y-10376453D02*
X2583463Y-10385976D01*
X2573939Y-10395500D01*
X2564415Y-10385976D01*
X2573939Y-10376453D01*
X2573939Y-10395500D01*
X2707272Y-10195500D02*
X2726320Y-10195500D01*
X2745367Y-10205024D01*
X2754891Y-10214548D01*
X2764415Y-10233595D01*
X2773939Y-10271691D01*
X2773939Y-10319310D01*
X2764415Y-10357405D01*
X2754891Y-10376453D01*
X2745367Y-10385976D01*
X2726320Y-10395500D01*
X2707272Y-10395500D01*
X2688224Y-10385976D01*
X2678701Y-10376453D01*
X2669177Y-10357405D01*
X2659653Y-10319310D01*
X2659653Y-10271691D01*
X2669177Y-10233595D01*
X2678701Y-10214548D01*
X2688224Y-10205024D01*
X2707272Y-10195500D01*
X2897748Y-10195500D02*
X2916796Y-10195500D01*
X2935843Y-10205024D01*
X2945367Y-10214548D01*
X2954891Y-10233595D01*
X2964415Y-10271691D01*
X2964415Y-10319310D01*
X2954891Y-10357405D01*
X2945367Y-10376453D01*
X2935843Y-10385976D01*
X2916796Y-10395500D01*
X2897748Y-10395500D01*
X2878701Y-10385976D01*
X2869177Y-10376453D01*
X2859653Y-10357405D01*
X2850129Y-10319310D01*
X2850129Y-10271691D01*
X2859653Y-10233595D01*
X2869177Y-10214548D01*
X2878701Y-10205024D01*
X2897748Y-10195500D01*
X3088224Y-10195500D02*
X3107272Y-10195500D01*
X3126320Y-10205024D01*
X3135843Y-10214548D01*
X3145367Y-10233595D01*
X3154891Y-10271691D01*
X3154891Y-10319310D01*
X3145367Y-10357405D01*
X3135843Y-10376453D01*
X3126320Y-10385976D01*
X3107272Y-10395500D01*
X3088224Y-10395500D01*
X3069177Y-10385976D01*
X3059653Y-10376453D01*
X3050129Y-10357405D01*
X3040605Y-10319310D01*
X3040605Y-10271691D01*
X3050129Y-10233595D01*
X3059653Y-10214548D01*
X3069177Y-10205024D01*
X3088224Y-10195500D01*
X3240605Y-10395500D02*
X3240605Y-10262167D01*
X3240605Y-10281214D02*
X3250129Y-10271691D01*
X3269177Y-10262167D01*
X3297748Y-10262167D01*
X3316796Y-10271691D01*
X3326320Y-10290738D01*
X3326320Y-10395500D01*
X3326320Y-10290738D02*
X3335843Y-10271691D01*
X3354891Y-10262167D01*
X3383462Y-10262167D01*
X3402510Y-10271691D01*
X3412034Y-10290738D01*
X3412034Y-10395500D01*
X3507272Y-10395500D02*
X3507272Y-10262167D01*
X3507272Y-10281214D02*
X3516796Y-10271691D01*
X3535843Y-10262167D01*
X3564415Y-10262167D01*
X3583462Y-10271691D01*
X3592986Y-10290738D01*
X3592986Y-10395500D01*
X3592986Y-10290738D02*
X3602510Y-10271691D01*
X3621558Y-10262167D01*
X3650129Y-10262167D01*
X3669177Y-10271691D01*
X3678701Y-10290738D01*
X3678701Y-10395500D01*
X4069177Y-10185976D02*
X3897748Y-10443119D01*
X4326320Y-10195500D02*
X4345367Y-10195500D01*
X4364415Y-10205024D01*
X4373939Y-10214548D01*
X4383463Y-10233595D01*
X4392986Y-10271691D01*
X4392986Y-10319310D01*
X4383463Y-10357405D01*
X4373939Y-10376453D01*
X4364415Y-10385976D01*
X4345367Y-10395500D01*
X4326320Y-10395500D01*
X4307272Y-10385976D01*
X4297748Y-10376453D01*
X4288224Y-10357405D01*
X4278701Y-10319310D01*
X4278701Y-10271691D01*
X4288224Y-10233595D01*
X4297748Y-10214548D01*
X4307272Y-10205024D01*
X4326320Y-10195500D01*
X4478701Y-10376453D02*
X4488224Y-10385976D01*
X4478701Y-10395500D01*
X4469177Y-10385976D01*
X4478701Y-10376453D01*
X4478701Y-10395500D01*
X4612034Y-10195500D02*
X4631082Y-10195500D01*
X4650129Y-10205024D01*
X4659653Y-10214548D01*
X4669177Y-10233595D01*
X4678701Y-10271691D01*
X4678701Y-10319310D01*
X4669177Y-10357405D01*
X4659653Y-10376453D01*
X4650129Y-10385976D01*
X4631082Y-10395500D01*
X4612034Y-10395500D01*
X4592986Y-10385976D01*
X4583463Y-10376453D01*
X4573939Y-10357405D01*
X4564415Y-10319310D01*
X4564415Y-10271691D01*
X4573939Y-10233595D01*
X4583463Y-10214548D01*
X4592986Y-10205024D01*
X4612034Y-10195500D01*
X4745367Y-10195500D02*
X4869177Y-10195500D01*
X4802510Y-10271691D01*
X4831082Y-10271691D01*
X4850129Y-10281214D01*
X4859653Y-10290738D01*
X4869177Y-10309786D01*
X4869177Y-10357405D01*
X4859653Y-10376453D01*
X4850129Y-10385976D01*
X4831082Y-10395500D01*
X4773939Y-10395500D01*
X4754891Y-10385976D01*
X4745367Y-10376453D01*
X4964415Y-10395500D02*
X5002510Y-10395500D01*
X5021558Y-10385976D01*
X5031082Y-10376453D01*
X5050129Y-10347881D01*
X5059653Y-10309786D01*
X5059653Y-10233595D01*
X5050129Y-10214548D01*
X5040605Y-10205024D01*
X5021558Y-10195500D01*
X4983463Y-10195500D01*
X4964415Y-10205024D01*
X4954891Y-10214548D01*
X4945367Y-10233595D01*
X4945367Y-10281214D01*
X4954891Y-10300262D01*
X4964415Y-10309786D01*
X4983463Y-10319310D01*
X5021558Y-10319310D01*
X5040605Y-10309786D01*
X5050129Y-10300262D01*
X5059653Y-10281214D01*
X5231082Y-10262167D02*
X5231082Y-10395500D01*
X5183463Y-10185976D02*
X5135843Y-10328834D01*
X5259653Y-10328834D01*
X5326320Y-10195500D02*
X5326320Y-10233595D01*
X5402510Y-10195500D02*
X5402510Y-10233595D01*
X5697748Y-10471691D02*
X5688224Y-10462167D01*
X5669177Y-10433595D01*
X5659653Y-10414548D01*
X5650129Y-10385976D01*
X5640605Y-10338357D01*
X5640605Y-10300262D01*
X5650129Y-10252643D01*
X5659653Y-10224072D01*
X5669177Y-10205024D01*
X5688224Y-10176453D01*
X5697748Y-10166929D01*
X5859653Y-10195500D02*
X5821558Y-10195500D01*
X5802510Y-10205024D01*
X5792986Y-10214548D01*
X5773939Y-10243119D01*
X5764415Y-10281214D01*
X5764415Y-10357405D01*
X5773939Y-10376453D01*
X5783462Y-10385976D01*
X5802510Y-10395500D01*
X5840605Y-10395500D01*
X5859653Y-10385976D01*
X5869177Y-10376453D01*
X5878701Y-10357405D01*
X5878701Y-10309786D01*
X5869177Y-10290738D01*
X5859653Y-10281214D01*
X5840605Y-10271691D01*
X5802510Y-10271691D01*
X5783462Y-10281214D01*
X5773939Y-10290738D01*
X5764415Y-10309786D01*
X6116796Y-10395500D02*
X6116796Y-10195500D01*
X6202510Y-10395500D02*
X6202510Y-10290738D01*
X6192986Y-10271691D01*
X6173939Y-10262167D01*
X6145367Y-10262167D01*
X6126320Y-10271691D01*
X6116796Y-10281214D01*
X6326320Y-10395500D02*
X6307272Y-10385976D01*
X6297748Y-10376453D01*
X6288224Y-10357405D01*
X6288224Y-10300262D01*
X6297748Y-10281214D01*
X6307272Y-10271691D01*
X6326320Y-10262167D01*
X6354891Y-10262167D01*
X6373939Y-10271691D01*
X6383462Y-10281214D01*
X6392986Y-10300262D01*
X6392986Y-10357405D01*
X6383462Y-10376453D01*
X6373939Y-10385976D01*
X6354891Y-10395500D01*
X6326320Y-10395500D01*
X6507272Y-10395500D02*
X6488224Y-10385976D01*
X6478701Y-10366929D01*
X6478701Y-10195500D01*
X6659653Y-10385976D02*
X6640605Y-10395500D01*
X6602510Y-10395500D01*
X6583462Y-10385976D01*
X6573939Y-10366929D01*
X6573939Y-10290738D01*
X6583462Y-10271691D01*
X6602510Y-10262167D01*
X6640605Y-10262167D01*
X6659653Y-10271691D01*
X6669177Y-10290738D01*
X6669177Y-10309786D01*
X6573939Y-10328834D01*
X6745367Y-10385976D02*
X6764415Y-10395500D01*
X6802510Y-10395500D01*
X6821558Y-10385976D01*
X6831081Y-10366929D01*
X6831081Y-10357405D01*
X6821558Y-10338357D01*
X6802510Y-10328834D01*
X6773939Y-10328834D01*
X6754891Y-10319310D01*
X6745367Y-10300262D01*
X6745367Y-10290738D01*
X6754891Y-10271691D01*
X6773939Y-10262167D01*
X6802510Y-10262167D01*
X6821558Y-10271691D01*
X6897748Y-10471691D02*
X6907272Y-10462167D01*
X6926320Y-10433595D01*
X6935843Y-10414548D01*
X6945367Y-10385976D01*
X6954891Y-10338357D01*
X6954891Y-10300262D01*
X6945367Y-10252643D01*
X6935843Y-10224072D01*
X6926320Y-10205024D01*
X6907272Y-10176453D01*
X6897748Y-10166929D01*
X7259653Y-10471691D02*
X7250129Y-10462167D01*
X7231081Y-10433595D01*
X7221558Y-10414548D01*
X7212034Y-10385976D01*
X7202510Y-10338357D01*
X7202510Y-10300262D01*
X7212034Y-10252643D01*
X7221558Y-10224072D01*
X7231081Y-10205024D01*
X7250129Y-10176453D01*
X7259653Y-10166929D01*
X7335843Y-10262167D02*
X7335843Y-10395500D01*
X7335843Y-10281214D02*
X7345367Y-10271691D01*
X7364415Y-10262167D01*
X7392986Y-10262167D01*
X7412034Y-10271691D01*
X7421558Y-10290738D01*
X7421558Y-10395500D01*
X7545367Y-10395500D02*
X7526320Y-10385976D01*
X7516796Y-10376453D01*
X7507272Y-10357405D01*
X7507272Y-10300262D01*
X7516796Y-10281214D01*
X7526320Y-10271691D01*
X7545367Y-10262167D01*
X7573939Y-10262167D01*
X7592986Y-10271691D01*
X7602510Y-10281214D01*
X7612034Y-10300262D01*
X7612034Y-10357405D01*
X7602510Y-10376453D01*
X7592986Y-10385976D01*
X7573939Y-10395500D01*
X7545367Y-10395500D01*
X7669177Y-10262167D02*
X7745367Y-10262167D01*
X7697748Y-10195500D02*
X7697748Y-10366929D01*
X7707272Y-10385976D01*
X7726320Y-10395500D01*
X7745367Y-10395500D01*
X7964415Y-10262167D02*
X7964415Y-10462167D01*
X7964415Y-10271691D02*
X7983462Y-10262167D01*
X8021558Y-10262167D01*
X8040605Y-10271691D01*
X8050129Y-10281214D01*
X8059653Y-10300262D01*
X8059653Y-10357405D01*
X8050129Y-10376453D01*
X8040605Y-10385976D01*
X8021558Y-10395500D01*
X7983462Y-10395500D01*
X7964415Y-10385976D01*
X8173939Y-10395500D02*
X8154891Y-10385976D01*
X8145367Y-10366929D01*
X8145367Y-10195500D01*
X8335843Y-10395500D02*
X8335843Y-10290738D01*
X8326320Y-10271691D01*
X8307272Y-10262167D01*
X8269177Y-10262167D01*
X8250129Y-10271691D01*
X8335843Y-10385976D02*
X8316796Y-10395500D01*
X8269177Y-10395500D01*
X8250129Y-10385976D01*
X8240605Y-10366929D01*
X8240605Y-10347881D01*
X8250129Y-10328834D01*
X8269177Y-10319310D01*
X8316796Y-10319310D01*
X8335843Y-10309786D01*
X8402510Y-10262167D02*
X8478701Y-10262167D01*
X8431082Y-10195500D02*
X8431082Y-10366929D01*
X8440605Y-10385976D01*
X8459653Y-10395500D01*
X8478701Y-10395500D01*
X8621558Y-10385976D02*
X8602510Y-10395500D01*
X8564415Y-10395500D01*
X8545367Y-10385976D01*
X8535843Y-10366929D01*
X8535843Y-10290738D01*
X8545367Y-10271691D01*
X8564415Y-10262167D01*
X8602510Y-10262167D01*
X8621558Y-10271691D01*
X8631082Y-10290738D01*
X8631082Y-10309786D01*
X8535843Y-10328834D01*
X8802510Y-10395500D02*
X8802510Y-10195500D01*
X8802510Y-10385976D02*
X8783463Y-10395500D01*
X8745367Y-10395500D01*
X8726320Y-10385976D01*
X8716796Y-10376453D01*
X8707272Y-10357405D01*
X8707272Y-10300262D01*
X8716796Y-10281214D01*
X8726320Y-10271691D01*
X8745367Y-10262167D01*
X8783463Y-10262167D01*
X8802510Y-10271691D01*
X8878701Y-10471691D02*
X8888224Y-10462167D01*
X8907272Y-10433595D01*
X8916796Y-10414548D01*
X8926320Y-10385976D01*
X8935843Y-10338357D01*
X8935843Y-10300262D01*
X8926320Y-10252643D01*
X8916796Y-10224072D01*
X8907272Y-10205024D01*
X8888224Y-10176453D01*
X8878701Y-10166929D01*
D12*
X2125844Y-10569024D02*
G75*
G03*
X2125844Y-10569024I-72500J0D01*
G01*
D10*
X2488224Y-10659500D02*
X2373939Y-10659500D01*
X2431082Y-10659500D02*
X2431082Y-10459500D01*
X2412034Y-10488072D01*
X2392986Y-10507119D01*
X2373939Y-10516643D01*
X2573939Y-10640453D02*
X2583463Y-10649976D01*
X2573939Y-10659500D01*
X2564415Y-10649976D01*
X2573939Y-10640453D01*
X2573939Y-10659500D01*
X2754891Y-10526167D02*
X2754891Y-10659500D01*
X2707272Y-10449976D02*
X2659653Y-10592834D01*
X2783463Y-10592834D01*
X2954891Y-10459500D02*
X2859653Y-10459500D01*
X2850129Y-10554738D01*
X2859653Y-10545214D01*
X2878701Y-10535691D01*
X2926320Y-10535691D01*
X2945367Y-10545214D01*
X2954891Y-10554738D01*
X2964415Y-10573786D01*
X2964415Y-10621405D01*
X2954891Y-10640453D01*
X2945367Y-10649976D01*
X2926320Y-10659500D01*
X2878701Y-10659500D01*
X2859653Y-10649976D01*
X2850129Y-10640453D01*
X3088224Y-10459500D02*
X3107272Y-10459500D01*
X3126320Y-10469024D01*
X3135843Y-10478548D01*
X3145367Y-10497595D01*
X3154891Y-10535691D01*
X3154891Y-10583310D01*
X3145367Y-10621405D01*
X3135843Y-10640453D01*
X3126320Y-10649976D01*
X3107272Y-10659500D01*
X3088224Y-10659500D01*
X3069177Y-10649976D01*
X3059653Y-10640453D01*
X3050129Y-10621405D01*
X3040605Y-10583310D01*
X3040605Y-10535691D01*
X3050129Y-10497595D01*
X3059653Y-10478548D01*
X3069177Y-10469024D01*
X3088224Y-10459500D01*
X3240605Y-10659500D02*
X3240605Y-10526167D01*
X3240605Y-10545214D02*
X3250129Y-10535691D01*
X3269177Y-10526167D01*
X3297748Y-10526167D01*
X3316796Y-10535691D01*
X3326320Y-10554738D01*
X3326320Y-10659500D01*
X3326320Y-10554738D02*
X3335843Y-10535691D01*
X3354891Y-10526167D01*
X3383462Y-10526167D01*
X3402510Y-10535691D01*
X3412034Y-10554738D01*
X3412034Y-10659500D01*
X3507272Y-10659500D02*
X3507272Y-10526167D01*
X3507272Y-10545214D02*
X3516796Y-10535691D01*
X3535843Y-10526167D01*
X3564415Y-10526167D01*
X3583462Y-10535691D01*
X3592986Y-10554738D01*
X3592986Y-10659500D01*
X3592986Y-10554738D02*
X3602510Y-10535691D01*
X3621558Y-10526167D01*
X3650129Y-10526167D01*
X3669177Y-10535691D01*
X3678701Y-10554738D01*
X3678701Y-10659500D01*
X4069177Y-10449976D02*
X3897748Y-10707119D01*
X4326320Y-10459500D02*
X4345367Y-10459500D01*
X4364415Y-10469024D01*
X4373939Y-10478548D01*
X4383463Y-10497595D01*
X4392986Y-10535691D01*
X4392986Y-10583310D01*
X4383463Y-10621405D01*
X4373939Y-10640453D01*
X4364415Y-10649976D01*
X4345367Y-10659500D01*
X4326320Y-10659500D01*
X4307272Y-10649976D01*
X4297748Y-10640453D01*
X4288224Y-10621405D01*
X4278701Y-10583310D01*
X4278701Y-10535691D01*
X4288224Y-10497595D01*
X4297748Y-10478548D01*
X4307272Y-10469024D01*
X4326320Y-10459500D01*
X4478701Y-10640453D02*
X4488224Y-10649976D01*
X4478701Y-10659500D01*
X4469177Y-10649976D01*
X4478701Y-10640453D01*
X4478701Y-10659500D01*
X4612034Y-10459500D02*
X4631082Y-10459500D01*
X4650129Y-10469024D01*
X4659653Y-10478548D01*
X4669177Y-10497595D01*
X4678701Y-10535691D01*
X4678701Y-10583310D01*
X4669177Y-10621405D01*
X4659653Y-10640453D01*
X4650129Y-10649976D01*
X4631082Y-10659500D01*
X4612034Y-10659500D01*
X4592986Y-10649976D01*
X4583463Y-10640453D01*
X4573939Y-10621405D01*
X4564415Y-10583310D01*
X4564415Y-10535691D01*
X4573939Y-10497595D01*
X4583463Y-10478548D01*
X4592986Y-10469024D01*
X4612034Y-10459500D01*
X4859653Y-10459500D02*
X4764415Y-10459500D01*
X4754891Y-10554738D01*
X4764415Y-10545214D01*
X4783463Y-10535691D01*
X4831082Y-10535691D01*
X4850129Y-10545214D01*
X4859653Y-10554738D01*
X4869177Y-10573786D01*
X4869177Y-10621405D01*
X4859653Y-10640453D01*
X4850129Y-10649976D01*
X4831082Y-10659500D01*
X4783463Y-10659500D01*
X4764415Y-10649976D01*
X4754891Y-10640453D01*
X4935843Y-10459500D02*
X5069177Y-10459500D01*
X4983463Y-10659500D01*
X5250129Y-10659500D02*
X5135843Y-10659500D01*
X5192986Y-10659500D02*
X5192986Y-10459500D01*
X5173939Y-10488072D01*
X5154891Y-10507119D01*
X5135843Y-10516643D01*
X5326320Y-10459500D02*
X5326320Y-10497595D01*
X5402510Y-10459500D02*
X5402510Y-10497595D01*
X5697748Y-10735691D02*
X5688224Y-10726167D01*
X5669177Y-10697595D01*
X5659653Y-10678548D01*
X5650129Y-10649976D01*
X5640605Y-10602357D01*
X5640605Y-10564262D01*
X5650129Y-10516643D01*
X5659653Y-10488072D01*
X5669177Y-10469024D01*
X5688224Y-10440453D01*
X5697748Y-10430929D01*
X5812034Y-10459500D02*
X5831081Y-10459500D01*
X5850129Y-10469024D01*
X5859653Y-10478548D01*
X5869177Y-10497595D01*
X5878701Y-10535691D01*
X5878701Y-10583310D01*
X5869177Y-10621405D01*
X5859653Y-10640453D01*
X5850129Y-10649976D01*
X5831081Y-10659500D01*
X5812034Y-10659500D01*
X5792986Y-10649976D01*
X5783462Y-10640453D01*
X5773939Y-10621405D01*
X5764415Y-10583310D01*
X5764415Y-10535691D01*
X5773939Y-10497595D01*
X5783462Y-10478548D01*
X5792986Y-10469024D01*
X5812034Y-10459500D01*
X6116796Y-10659500D02*
X6116796Y-10459500D01*
X6202510Y-10659500D02*
X6202510Y-10554738D01*
X6192986Y-10535691D01*
X6173939Y-10526167D01*
X6145367Y-10526167D01*
X6126320Y-10535691D01*
X6116796Y-10545214D01*
X6326320Y-10659500D02*
X6307272Y-10649976D01*
X6297748Y-10640453D01*
X6288224Y-10621405D01*
X6288224Y-10564262D01*
X6297748Y-10545214D01*
X6307272Y-10535691D01*
X6326320Y-10526167D01*
X6354891Y-10526167D01*
X6373939Y-10535691D01*
X6383462Y-10545214D01*
X6392986Y-10564262D01*
X6392986Y-10621405D01*
X6383462Y-10640453D01*
X6373939Y-10649976D01*
X6354891Y-10659500D01*
X6326320Y-10659500D01*
X6507272Y-10659500D02*
X6488224Y-10649976D01*
X6478701Y-10630929D01*
X6478701Y-10459500D01*
X6659653Y-10649976D02*
X6640605Y-10659500D01*
X6602510Y-10659500D01*
X6583462Y-10649976D01*
X6573939Y-10630929D01*
X6573939Y-10554738D01*
X6583462Y-10535691D01*
X6602510Y-10526167D01*
X6640605Y-10526167D01*
X6659653Y-10535691D01*
X6669177Y-10554738D01*
X6669177Y-10573786D01*
X6573939Y-10592834D01*
X6745367Y-10649976D02*
X6764415Y-10659500D01*
X6802510Y-10659500D01*
X6821558Y-10649976D01*
X6831081Y-10630929D01*
X6831081Y-10621405D01*
X6821558Y-10602357D01*
X6802510Y-10592834D01*
X6773939Y-10592834D01*
X6754891Y-10583310D01*
X6745367Y-10564262D01*
X6745367Y-10554738D01*
X6754891Y-10535691D01*
X6773939Y-10526167D01*
X6802510Y-10526167D01*
X6821558Y-10535691D01*
X7069177Y-10583310D02*
X7221558Y-10583310D01*
X7145367Y-10659500D02*
X7145367Y-10507119D01*
X7450129Y-10459500D02*
X7573939Y-10459500D01*
X7507272Y-10535691D01*
X7535843Y-10535691D01*
X7554891Y-10545214D01*
X7564415Y-10554738D01*
X7573939Y-10573786D01*
X7573939Y-10621405D01*
X7564415Y-10640453D01*
X7554891Y-10649976D01*
X7535843Y-10659500D01*
X7478701Y-10659500D01*
X7459653Y-10649976D01*
X7450129Y-10640453D01*
X7802510Y-10649976D02*
X7821558Y-10659500D01*
X7859653Y-10659500D01*
X7878701Y-10649976D01*
X7888224Y-10630929D01*
X7888224Y-10621405D01*
X7878701Y-10602357D01*
X7859653Y-10592834D01*
X7831081Y-10592834D01*
X7812034Y-10583310D01*
X7802510Y-10564262D01*
X7802510Y-10554738D01*
X7812034Y-10535691D01*
X7831081Y-10526167D01*
X7859653Y-10526167D01*
X7878701Y-10535691D01*
X8002510Y-10659500D02*
X7983462Y-10649976D01*
X7973939Y-10630929D01*
X7973939Y-10459500D01*
X8107272Y-10659500D02*
X8088224Y-10649976D01*
X8078701Y-10640453D01*
X8069177Y-10621405D01*
X8069177Y-10564262D01*
X8078701Y-10545214D01*
X8088224Y-10535691D01*
X8107272Y-10526167D01*
X8135843Y-10526167D01*
X8154891Y-10535691D01*
X8164415Y-10545214D01*
X8173939Y-10564262D01*
X8173939Y-10621405D01*
X8164415Y-10640453D01*
X8154891Y-10649976D01*
X8135843Y-10659500D01*
X8107272Y-10659500D01*
X8231081Y-10526167D02*
X8307272Y-10526167D01*
X8259653Y-10459500D02*
X8259653Y-10630929D01*
X8269177Y-10649976D01*
X8288224Y-10659500D01*
X8307272Y-10659500D01*
X8364415Y-10649976D02*
X8383462Y-10659500D01*
X8421558Y-10659500D01*
X8440605Y-10649976D01*
X8450129Y-10630929D01*
X8450129Y-10621405D01*
X8440605Y-10602357D01*
X8421558Y-10592834D01*
X8392986Y-10592834D01*
X8373939Y-10583310D01*
X8364415Y-10564262D01*
X8364415Y-10554738D01*
X8373939Y-10535691D01*
X8392986Y-10526167D01*
X8421558Y-10526167D01*
X8440605Y-10535691D01*
X8516796Y-10735691D02*
X8526320Y-10726167D01*
X8545367Y-10697595D01*
X8554891Y-10678548D01*
X8564415Y-10649976D01*
X8573939Y-10602357D01*
X8573939Y-10564262D01*
X8564415Y-10516643D01*
X8554891Y-10488072D01*
X8545367Y-10469024D01*
X8526320Y-10440453D01*
X8516796Y-10430929D01*
X8878701Y-10735691D02*
X8869177Y-10726167D01*
X8850129Y-10697595D01*
X8840605Y-10678548D01*
X8831082Y-10649976D01*
X8821558Y-10602357D01*
X8821558Y-10564262D01*
X8831082Y-10516643D01*
X8840605Y-10488072D01*
X8850129Y-10469024D01*
X8869177Y-10440453D01*
X8878701Y-10430929D01*
X8954891Y-10526167D02*
X8954891Y-10659500D01*
X8954891Y-10545214D02*
X8964415Y-10535691D01*
X8983463Y-10526167D01*
X9012034Y-10526167D01*
X9031082Y-10535691D01*
X9040605Y-10554738D01*
X9040605Y-10659500D01*
X9164415Y-10659500D02*
X9145367Y-10649976D01*
X9135843Y-10640453D01*
X9126320Y-10621405D01*
X9126320Y-10564262D01*
X9135843Y-10545214D01*
X9145367Y-10535691D01*
X9164415Y-10526167D01*
X9192986Y-10526167D01*
X9212034Y-10535691D01*
X9221558Y-10545214D01*
X9231082Y-10564262D01*
X9231082Y-10621405D01*
X9221558Y-10640453D01*
X9212034Y-10649976D01*
X9192986Y-10659500D01*
X9164415Y-10659500D01*
X9288224Y-10526167D02*
X9364415Y-10526167D01*
X9316796Y-10459500D02*
X9316796Y-10630929D01*
X9326320Y-10649976D01*
X9345367Y-10659500D01*
X9364415Y-10659500D01*
X9583463Y-10526167D02*
X9583463Y-10726167D01*
X9583463Y-10535691D02*
X9602510Y-10526167D01*
X9640605Y-10526167D01*
X9659653Y-10535691D01*
X9669177Y-10545214D01*
X9678701Y-10564262D01*
X9678701Y-10621405D01*
X9669177Y-10640453D01*
X9659653Y-10649976D01*
X9640605Y-10659500D01*
X9602510Y-10659500D01*
X9583463Y-10649976D01*
X9792986Y-10659500D02*
X9773939Y-10649976D01*
X9764415Y-10630929D01*
X9764415Y-10459500D01*
X9954891Y-10659500D02*
X9954891Y-10554738D01*
X9945367Y-10535691D01*
X9926320Y-10526167D01*
X9888224Y-10526167D01*
X9869177Y-10535691D01*
X9954891Y-10649976D02*
X9935843Y-10659500D01*
X9888224Y-10659500D01*
X9869177Y-10649976D01*
X9859653Y-10630929D01*
X9859653Y-10611881D01*
X9869177Y-10592834D01*
X9888224Y-10583310D01*
X9935843Y-10583310D01*
X9954891Y-10573786D01*
X10021558Y-10526167D02*
X10097748Y-10526167D01*
X10050129Y-10459500D02*
X10050129Y-10630929D01*
X10059653Y-10649976D01*
X10078701Y-10659500D01*
X10097748Y-10659500D01*
X10240605Y-10649976D02*
X10221558Y-10659500D01*
X10183463Y-10659500D01*
X10164415Y-10649976D01*
X10154891Y-10630929D01*
X10154891Y-10554738D01*
X10164415Y-10535691D01*
X10183463Y-10526167D01*
X10221558Y-10526167D01*
X10240605Y-10535691D01*
X10250129Y-10554738D01*
X10250129Y-10573786D01*
X10154891Y-10592834D01*
X10421558Y-10659500D02*
X10421558Y-10459500D01*
X10421558Y-10649976D02*
X10402510Y-10659500D01*
X10364415Y-10659500D01*
X10345367Y-10649976D01*
X10335843Y-10640453D01*
X10326320Y-10621405D01*
X10326320Y-10564262D01*
X10335843Y-10545214D01*
X10345367Y-10535691D01*
X10364415Y-10526167D01*
X10402510Y-10526167D01*
X10421558Y-10535691D01*
X10497748Y-10735691D02*
X10507272Y-10726167D01*
X10526320Y-10697595D01*
X10535843Y-10678548D01*
X10545367Y-10649976D01*
X10554891Y-10602357D01*
X10554891Y-10564262D01*
X10545367Y-10516643D01*
X10535843Y-10488072D01*
X10526320Y-10469024D01*
X10507272Y-10440453D01*
X10497748Y-10430929D01*
D13*
X2045843Y-10754024D02*
X2045843Y-10914024D01*
X1965843Y-10834024D02*
X2125844Y-10834024D01*
D10*
X2488224Y-10924500D02*
X2373939Y-10924500D01*
X2431082Y-10924500D02*
X2431082Y-10724500D01*
X2412034Y-10753072D01*
X2392986Y-10772119D01*
X2373939Y-10781643D01*
X2573939Y-10905453D02*
X2583463Y-10914976D01*
X2573939Y-10924500D01*
X2564415Y-10914976D01*
X2573939Y-10905453D01*
X2573939Y-10924500D01*
X2754891Y-10724500D02*
X2716796Y-10724500D01*
X2697748Y-10734024D01*
X2688224Y-10743548D01*
X2669177Y-10772119D01*
X2659653Y-10810214D01*
X2659653Y-10886405D01*
X2669177Y-10905453D01*
X2678701Y-10914976D01*
X2697748Y-10924500D01*
X2735844Y-10924500D01*
X2754891Y-10914976D01*
X2764415Y-10905453D01*
X2773939Y-10886405D01*
X2773939Y-10838786D01*
X2764415Y-10819738D01*
X2754891Y-10810214D01*
X2735844Y-10800691D01*
X2697748Y-10800691D01*
X2678701Y-10810214D01*
X2669177Y-10819738D01*
X2659653Y-10838786D01*
X2897748Y-10724500D02*
X2916796Y-10724500D01*
X2935843Y-10734024D01*
X2945367Y-10743548D01*
X2954891Y-10762595D01*
X2964415Y-10800691D01*
X2964415Y-10848310D01*
X2954891Y-10886405D01*
X2945367Y-10905453D01*
X2935843Y-10914976D01*
X2916796Y-10924500D01*
X2897748Y-10924500D01*
X2878701Y-10914976D01*
X2869177Y-10905453D01*
X2859653Y-10886405D01*
X2850129Y-10848310D01*
X2850129Y-10800691D01*
X2859653Y-10762595D01*
X2869177Y-10743548D01*
X2878701Y-10734024D01*
X2897748Y-10724500D01*
X3088224Y-10724500D02*
X3107272Y-10724500D01*
X3126320Y-10734024D01*
X3135843Y-10743548D01*
X3145367Y-10762595D01*
X3154891Y-10800691D01*
X3154891Y-10848310D01*
X3145367Y-10886405D01*
X3135843Y-10905453D01*
X3126320Y-10914976D01*
X3107272Y-10924500D01*
X3088224Y-10924500D01*
X3069177Y-10914976D01*
X3059653Y-10905453D01*
X3050129Y-10886405D01*
X3040605Y-10848310D01*
X3040605Y-10800691D01*
X3050129Y-10762595D01*
X3059653Y-10743548D01*
X3069177Y-10734024D01*
X3088224Y-10724500D01*
X3240605Y-10924500D02*
X3240605Y-10791167D01*
X3240605Y-10810214D02*
X3250129Y-10800691D01*
X3269177Y-10791167D01*
X3297748Y-10791167D01*
X3316796Y-10800691D01*
X3326320Y-10819738D01*
X3326320Y-10924500D01*
X3326320Y-10819738D02*
X3335843Y-10800691D01*
X3354891Y-10791167D01*
X3383462Y-10791167D01*
X3402510Y-10800691D01*
X3412034Y-10819738D01*
X3412034Y-10924500D01*
X3507272Y-10924500D02*
X3507272Y-10791167D01*
X3507272Y-10810214D02*
X3516796Y-10800691D01*
X3535843Y-10791167D01*
X3564415Y-10791167D01*
X3583462Y-10800691D01*
X3592986Y-10819738D01*
X3592986Y-10924500D01*
X3592986Y-10819738D02*
X3602510Y-10800691D01*
X3621558Y-10791167D01*
X3650129Y-10791167D01*
X3669177Y-10800691D01*
X3678701Y-10819738D01*
X3678701Y-10924500D01*
X4069177Y-10714976D02*
X3897748Y-10972119D01*
X4326320Y-10724500D02*
X4345367Y-10724500D01*
X4364415Y-10734024D01*
X4373939Y-10743548D01*
X4383463Y-10762595D01*
X4392986Y-10800691D01*
X4392986Y-10848310D01*
X4383463Y-10886405D01*
X4373939Y-10905453D01*
X4364415Y-10914976D01*
X4345367Y-10924500D01*
X4326320Y-10924500D01*
X4307272Y-10914976D01*
X4297748Y-10905453D01*
X4288224Y-10886405D01*
X4278701Y-10848310D01*
X4278701Y-10800691D01*
X4288224Y-10762595D01*
X4297748Y-10743548D01*
X4307272Y-10734024D01*
X4326320Y-10724500D01*
X4478701Y-10905453D02*
X4488224Y-10914976D01*
X4478701Y-10924500D01*
X4469177Y-10914976D01*
X4478701Y-10905453D01*
X4478701Y-10924500D01*
X4612034Y-10724500D02*
X4631082Y-10724500D01*
X4650129Y-10734024D01*
X4659653Y-10743548D01*
X4669177Y-10762595D01*
X4678701Y-10800691D01*
X4678701Y-10848310D01*
X4669177Y-10886405D01*
X4659653Y-10905453D01*
X4650129Y-10914976D01*
X4631082Y-10924500D01*
X4612034Y-10924500D01*
X4592986Y-10914976D01*
X4583463Y-10905453D01*
X4573939Y-10886405D01*
X4564415Y-10848310D01*
X4564415Y-10800691D01*
X4573939Y-10762595D01*
X4583463Y-10743548D01*
X4592986Y-10734024D01*
X4612034Y-10724500D01*
X4850129Y-10724500D02*
X4812034Y-10724500D01*
X4792986Y-10734024D01*
X4783463Y-10743548D01*
X4764415Y-10772119D01*
X4754891Y-10810214D01*
X4754891Y-10886405D01*
X4764415Y-10905453D01*
X4773939Y-10914976D01*
X4792986Y-10924500D01*
X4831082Y-10924500D01*
X4850129Y-10914976D01*
X4859653Y-10905453D01*
X4869177Y-10886405D01*
X4869177Y-10838786D01*
X4859653Y-10819738D01*
X4850129Y-10810214D01*
X4831082Y-10800691D01*
X4792986Y-10800691D01*
X4773939Y-10810214D01*
X4764415Y-10819738D01*
X4754891Y-10838786D01*
X4935843Y-10724500D02*
X5059653Y-10724500D01*
X4992986Y-10800691D01*
X5021558Y-10800691D01*
X5040605Y-10810214D01*
X5050129Y-10819738D01*
X5059653Y-10838786D01*
X5059653Y-10886405D01*
X5050129Y-10905453D01*
X5040605Y-10914976D01*
X5021558Y-10924500D01*
X4964415Y-10924500D01*
X4945367Y-10914976D01*
X4935843Y-10905453D01*
X5183463Y-10724500D02*
X5202510Y-10724500D01*
X5221558Y-10734024D01*
X5231082Y-10743548D01*
X5240605Y-10762595D01*
X5250129Y-10800691D01*
X5250129Y-10848310D01*
X5240605Y-10886405D01*
X5231082Y-10905453D01*
X5221558Y-10914976D01*
X5202510Y-10924500D01*
X5183463Y-10924500D01*
X5164415Y-10914976D01*
X5154891Y-10905453D01*
X5145367Y-10886405D01*
X5135843Y-10848310D01*
X5135843Y-10800691D01*
X5145367Y-10762595D01*
X5154891Y-10743548D01*
X5164415Y-10734024D01*
X5183463Y-10724500D01*
X5326320Y-10724500D02*
X5326320Y-10762595D01*
X5402510Y-10724500D02*
X5402510Y-10762595D01*
X5697748Y-11000691D02*
X5688224Y-10991167D01*
X5669177Y-10962595D01*
X5659653Y-10943548D01*
X5650129Y-10914976D01*
X5640605Y-10867357D01*
X5640605Y-10829262D01*
X5650129Y-10781643D01*
X5659653Y-10753072D01*
X5669177Y-10734024D01*
X5688224Y-10705453D01*
X5697748Y-10695929D01*
X5878701Y-10924500D02*
X5764415Y-10924500D01*
X5821558Y-10924500D02*
X5821558Y-10724500D01*
X5802510Y-10753072D01*
X5783462Y-10772119D01*
X5764415Y-10781643D01*
X6116796Y-10924500D02*
X6116796Y-10724500D01*
X6202510Y-10924500D02*
X6202510Y-10819738D01*
X6192986Y-10800691D01*
X6173939Y-10791167D01*
X6145367Y-10791167D01*
X6126320Y-10800691D01*
X6116796Y-10810214D01*
X6326320Y-10924500D02*
X6307272Y-10914976D01*
X6297748Y-10905453D01*
X6288224Y-10886405D01*
X6288224Y-10829262D01*
X6297748Y-10810214D01*
X6307272Y-10800691D01*
X6326320Y-10791167D01*
X6354891Y-10791167D01*
X6373939Y-10800691D01*
X6383462Y-10810214D01*
X6392986Y-10829262D01*
X6392986Y-10886405D01*
X6383462Y-10905453D01*
X6373939Y-10914976D01*
X6354891Y-10924500D01*
X6326320Y-10924500D01*
X6507272Y-10924500D02*
X6488224Y-10914976D01*
X6478701Y-10895929D01*
X6478701Y-10724500D01*
X6659653Y-10914976D02*
X6640605Y-10924500D01*
X6602510Y-10924500D01*
X6583462Y-10914976D01*
X6573939Y-10895929D01*
X6573939Y-10819738D01*
X6583462Y-10800691D01*
X6602510Y-10791167D01*
X6640605Y-10791167D01*
X6659653Y-10800691D01*
X6669177Y-10819738D01*
X6669177Y-10838786D01*
X6573939Y-10857834D01*
X6735843Y-11000691D02*
X6745367Y-10991167D01*
X6764415Y-10962595D01*
X6773939Y-10943548D01*
X6783462Y-10914976D01*
X6792986Y-10867357D01*
X6792986Y-10829262D01*
X6783462Y-10781643D01*
X6773939Y-10753072D01*
X6764415Y-10734024D01*
X6745367Y-10705453D01*
X6735843Y-10695929D01*
X7097748Y-11000691D02*
X7088224Y-10991167D01*
X7069177Y-10962595D01*
X7059653Y-10943548D01*
X7050129Y-10914976D01*
X7040605Y-10867357D01*
X7040605Y-10829262D01*
X7050129Y-10781643D01*
X7059653Y-10753072D01*
X7069177Y-10734024D01*
X7088224Y-10705453D01*
X7097748Y-10695929D01*
X7173939Y-10791167D02*
X7173939Y-10924500D01*
X7173939Y-10810214D02*
X7183462Y-10800691D01*
X7202510Y-10791167D01*
X7231081Y-10791167D01*
X7250129Y-10800691D01*
X7259653Y-10819738D01*
X7259653Y-10924500D01*
X7383462Y-10924500D02*
X7364415Y-10914976D01*
X7354891Y-10905453D01*
X7345367Y-10886405D01*
X7345367Y-10829262D01*
X7354891Y-10810214D01*
X7364415Y-10800691D01*
X7383462Y-10791167D01*
X7412034Y-10791167D01*
X7431081Y-10800691D01*
X7440605Y-10810214D01*
X7450129Y-10829262D01*
X7450129Y-10886405D01*
X7440605Y-10905453D01*
X7431081Y-10914976D01*
X7412034Y-10924500D01*
X7383462Y-10924500D01*
X7507272Y-10791167D02*
X7583462Y-10791167D01*
X7535843Y-10724500D02*
X7535843Y-10895929D01*
X7545367Y-10914976D01*
X7564415Y-10924500D01*
X7583462Y-10924500D01*
X7802510Y-10791167D02*
X7802510Y-10991167D01*
X7802510Y-10800691D02*
X7821558Y-10791167D01*
X7859653Y-10791167D01*
X7878701Y-10800691D01*
X7888224Y-10810214D01*
X7897748Y-10829262D01*
X7897748Y-10886405D01*
X7888224Y-10905453D01*
X7878701Y-10914976D01*
X7859653Y-10924500D01*
X7821558Y-10924500D01*
X7802510Y-10914976D01*
X8012034Y-10924500D02*
X7992986Y-10914976D01*
X7983462Y-10895929D01*
X7983462Y-10724500D01*
X8173939Y-10924500D02*
X8173939Y-10819738D01*
X8164415Y-10800691D01*
X8145367Y-10791167D01*
X8107272Y-10791167D01*
X8088224Y-10800691D01*
X8173939Y-10914976D02*
X8154891Y-10924500D01*
X8107272Y-10924500D01*
X8088224Y-10914976D01*
X8078701Y-10895929D01*
X8078701Y-10876881D01*
X8088224Y-10857834D01*
X8107272Y-10848310D01*
X8154891Y-10848310D01*
X8173939Y-10838786D01*
X8240605Y-10791167D02*
X8316796Y-10791167D01*
X8269177Y-10724500D02*
X8269177Y-10895929D01*
X8278701Y-10914976D01*
X8297748Y-10924500D01*
X8316796Y-10924500D01*
X8459653Y-10914976D02*
X8440605Y-10924500D01*
X8402510Y-10924500D01*
X8383462Y-10914976D01*
X8373939Y-10895929D01*
X8373939Y-10819738D01*
X8383462Y-10800691D01*
X8402510Y-10791167D01*
X8440605Y-10791167D01*
X8459653Y-10800691D01*
X8469177Y-10819738D01*
X8469177Y-10838786D01*
X8373939Y-10857834D01*
X8640605Y-10924500D02*
X8640605Y-10724500D01*
X8640605Y-10914976D02*
X8621558Y-10924500D01*
X8583463Y-10924500D01*
X8564415Y-10914976D01*
X8554891Y-10905453D01*
X8545367Y-10886405D01*
X8545367Y-10829262D01*
X8554891Y-10810214D01*
X8564415Y-10800691D01*
X8583463Y-10791167D01*
X8621558Y-10791167D01*
X8640605Y-10800691D01*
X8716796Y-11000691D02*
X8726320Y-10991167D01*
X8745367Y-10962595D01*
X8754891Y-10943548D01*
X8764415Y-10914976D01*
X8773939Y-10867357D01*
X8773939Y-10829262D01*
X8764415Y-10781643D01*
X8754891Y-10753072D01*
X8745367Y-10734024D01*
X8726320Y-10705453D01*
X8716796Y-10695929D01*
D14*
X2100216Y-11175896D02*
X2100216Y-11052152D01*
X1976471Y-11052152D01*
X1976471Y-11175896D01*
X2100216Y-11175896D01*
D10*
X2488224Y-11204500D02*
X2373939Y-11204500D01*
X2431082Y-11204500D02*
X2431082Y-11004500D01*
X2412034Y-11033072D01*
X2392986Y-11052119D01*
X2373939Y-11061643D01*
X2573939Y-11185452D02*
X2583463Y-11194976D01*
X2573939Y-11204500D01*
X2564415Y-11194976D01*
X2573939Y-11185452D01*
X2573939Y-11204500D01*
X2650129Y-11004500D02*
X2783463Y-11004500D01*
X2697748Y-11204500D01*
X2954891Y-11004500D02*
X2859653Y-11004500D01*
X2850129Y-11099738D01*
X2859653Y-11090214D01*
X2878701Y-11080691D01*
X2926320Y-11080691D01*
X2945367Y-11090214D01*
X2954891Y-11099738D01*
X2964415Y-11118786D01*
X2964415Y-11166405D01*
X2954891Y-11185452D01*
X2945367Y-11194976D01*
X2926320Y-11204500D01*
X2878701Y-11204500D01*
X2859653Y-11194976D01*
X2850129Y-11185452D01*
X3088224Y-11004500D02*
X3107272Y-11004500D01*
X3126320Y-11014024D01*
X3135843Y-11023548D01*
X3145367Y-11042595D01*
X3154891Y-11080691D01*
X3154891Y-11128310D01*
X3145367Y-11166405D01*
X3135843Y-11185452D01*
X3126320Y-11194976D01*
X3107272Y-11204500D01*
X3088224Y-11204500D01*
X3069177Y-11194976D01*
X3059653Y-11185452D01*
X3050129Y-11166405D01*
X3040605Y-11128310D01*
X3040605Y-11080691D01*
X3050129Y-11042595D01*
X3059653Y-11023548D01*
X3069177Y-11014024D01*
X3088224Y-11004500D01*
X3240605Y-11204500D02*
X3240605Y-11071167D01*
X3240605Y-11090214D02*
X3250129Y-11080691D01*
X3269177Y-11071167D01*
X3297748Y-11071167D01*
X3316796Y-11080691D01*
X3326320Y-11099738D01*
X3326320Y-11204500D01*
X3326320Y-11099738D02*
X3335843Y-11080691D01*
X3354891Y-11071167D01*
X3383462Y-11071167D01*
X3402510Y-11080691D01*
X3412034Y-11099738D01*
X3412034Y-11204500D01*
X3507272Y-11204500D02*
X3507272Y-11071167D01*
X3507272Y-11090214D02*
X3516796Y-11080691D01*
X3535843Y-11071167D01*
X3564415Y-11071167D01*
X3583462Y-11080691D01*
X3592986Y-11099738D01*
X3592986Y-11204500D01*
X3592986Y-11099738D02*
X3602510Y-11080691D01*
X3621558Y-11071167D01*
X3650129Y-11071167D01*
X3669177Y-11080691D01*
X3678701Y-11099738D01*
X3678701Y-11204500D01*
X4069177Y-10994976D02*
X3897748Y-11252119D01*
X4326320Y-11004500D02*
X4345367Y-11004500D01*
X4364415Y-11014024D01*
X4373939Y-11023548D01*
X4383463Y-11042595D01*
X4392986Y-11080691D01*
X4392986Y-11128310D01*
X4383463Y-11166405D01*
X4373939Y-11185452D01*
X4364415Y-11194976D01*
X4345367Y-11204500D01*
X4326320Y-11204500D01*
X4307272Y-11194976D01*
X4297748Y-11185452D01*
X4288224Y-11166405D01*
X4278701Y-11128310D01*
X4278701Y-11080691D01*
X4288224Y-11042595D01*
X4297748Y-11023548D01*
X4307272Y-11014024D01*
X4326320Y-11004500D01*
X4478701Y-11185452D02*
X4488224Y-11194976D01*
X4478701Y-11204500D01*
X4469177Y-11194976D01*
X4478701Y-11185452D01*
X4478701Y-11204500D01*
X4612034Y-11004500D02*
X4631082Y-11004500D01*
X4650129Y-11014024D01*
X4659653Y-11023548D01*
X4669177Y-11042595D01*
X4678701Y-11080691D01*
X4678701Y-11128310D01*
X4669177Y-11166405D01*
X4659653Y-11185452D01*
X4650129Y-11194976D01*
X4631082Y-11204500D01*
X4612034Y-11204500D01*
X4592986Y-11194976D01*
X4583463Y-11185452D01*
X4573939Y-11166405D01*
X4564415Y-11128310D01*
X4564415Y-11080691D01*
X4573939Y-11042595D01*
X4583463Y-11023548D01*
X4592986Y-11014024D01*
X4612034Y-11004500D01*
X4850129Y-11004500D02*
X4812034Y-11004500D01*
X4792986Y-11014024D01*
X4783463Y-11023548D01*
X4764415Y-11052119D01*
X4754891Y-11090214D01*
X4754891Y-11166405D01*
X4764415Y-11185452D01*
X4773939Y-11194976D01*
X4792986Y-11204500D01*
X4831082Y-11204500D01*
X4850129Y-11194976D01*
X4859653Y-11185452D01*
X4869177Y-11166405D01*
X4869177Y-11118786D01*
X4859653Y-11099738D01*
X4850129Y-11090214D01*
X4831082Y-11080691D01*
X4792986Y-11080691D01*
X4773939Y-11090214D01*
X4764415Y-11099738D01*
X4754891Y-11118786D01*
X4983463Y-11090214D02*
X4964415Y-11080691D01*
X4954891Y-11071167D01*
X4945367Y-11052119D01*
X4945367Y-11042595D01*
X4954891Y-11023548D01*
X4964415Y-11014024D01*
X4983463Y-11004500D01*
X5021558Y-11004500D01*
X5040605Y-11014024D01*
X5050129Y-11023548D01*
X5059653Y-11042595D01*
X5059653Y-11052119D01*
X5050129Y-11071167D01*
X5040605Y-11080691D01*
X5021558Y-11090214D01*
X4983463Y-11090214D01*
X4964415Y-11099738D01*
X4954891Y-11109262D01*
X4945367Y-11128310D01*
X4945367Y-11166405D01*
X4954891Y-11185452D01*
X4964415Y-11194976D01*
X4983463Y-11204500D01*
X5021558Y-11204500D01*
X5040605Y-11194976D01*
X5050129Y-11185452D01*
X5059653Y-11166405D01*
X5059653Y-11128310D01*
X5050129Y-11109262D01*
X5040605Y-11099738D01*
X5021558Y-11090214D01*
X5154891Y-11204500D02*
X5192986Y-11204500D01*
X5212034Y-11194976D01*
X5221558Y-11185452D01*
X5240605Y-11156881D01*
X5250129Y-11118786D01*
X5250129Y-11042595D01*
X5240605Y-11023548D01*
X5231082Y-11014024D01*
X5212034Y-11004500D01*
X5173939Y-11004500D01*
X5154891Y-11014024D01*
X5145367Y-11023548D01*
X5135843Y-11042595D01*
X5135843Y-11090214D01*
X5145367Y-11109262D01*
X5154891Y-11118786D01*
X5173939Y-11128310D01*
X5212034Y-11128310D01*
X5231082Y-11118786D01*
X5240605Y-11109262D01*
X5250129Y-11090214D01*
X5326320Y-11004500D02*
X5326320Y-11042595D01*
X5402510Y-11004500D02*
X5402510Y-11042595D01*
X5697748Y-11280691D02*
X5688224Y-11271167D01*
X5669177Y-11242595D01*
X5659653Y-11223548D01*
X5650129Y-11194976D01*
X5640605Y-11147357D01*
X5640605Y-11109262D01*
X5650129Y-11061643D01*
X5659653Y-11033072D01*
X5669177Y-11014024D01*
X5688224Y-10985453D01*
X5697748Y-10975929D01*
X5764415Y-11023548D02*
X5773939Y-11014024D01*
X5792986Y-11004500D01*
X5840605Y-11004500D01*
X5859653Y-11014024D01*
X5869177Y-11023548D01*
X5878701Y-11042595D01*
X5878701Y-11061643D01*
X5869177Y-11090214D01*
X5754891Y-11204500D01*
X5878701Y-11204500D01*
X5992986Y-11090214D02*
X5973939Y-11080691D01*
X5964415Y-11071167D01*
X5954891Y-11052119D01*
X5954891Y-11042595D01*
X5964415Y-11023548D01*
X5973939Y-11014024D01*
X5992986Y-11004500D01*
X6031081Y-11004500D01*
X6050129Y-11014024D01*
X6059653Y-11023548D01*
X6069177Y-11042595D01*
X6069177Y-11052119D01*
X6059653Y-11071167D01*
X6050129Y-11080691D01*
X6031081Y-11090214D01*
X5992986Y-11090214D01*
X5973939Y-11099738D01*
X5964415Y-11109262D01*
X5954891Y-11128310D01*
X5954891Y-11166405D01*
X5964415Y-11185452D01*
X5973939Y-11194976D01*
X5992986Y-11204500D01*
X6031081Y-11204500D01*
X6050129Y-11194976D01*
X6059653Y-11185452D01*
X6069177Y-11166405D01*
X6069177Y-11128310D01*
X6059653Y-11109262D01*
X6050129Y-11099738D01*
X6031081Y-11090214D01*
X6307272Y-11204500D02*
X6307272Y-11004500D01*
X6392986Y-11204500D02*
X6392986Y-11099738D01*
X6383462Y-11080691D01*
X6364415Y-11071167D01*
X6335843Y-11071167D01*
X6316796Y-11080691D01*
X6307272Y-11090214D01*
X6516796Y-11204500D02*
X6497748Y-11194976D01*
X6488224Y-11185452D01*
X6478701Y-11166405D01*
X6478701Y-11109262D01*
X6488224Y-11090214D01*
X6497748Y-11080691D01*
X6516796Y-11071167D01*
X6545367Y-11071167D01*
X6564415Y-11080691D01*
X6573939Y-11090214D01*
X6583462Y-11109262D01*
X6583462Y-11166405D01*
X6573939Y-11185452D01*
X6564415Y-11194976D01*
X6545367Y-11204500D01*
X6516796Y-11204500D01*
X6697748Y-11204500D02*
X6678701Y-11194976D01*
X6669177Y-11175929D01*
X6669177Y-11004500D01*
X6850129Y-11194976D02*
X6831081Y-11204500D01*
X6792986Y-11204500D01*
X6773939Y-11194976D01*
X6764415Y-11175929D01*
X6764415Y-11099738D01*
X6773939Y-11080691D01*
X6792986Y-11071167D01*
X6831081Y-11071167D01*
X6850129Y-11080691D01*
X6859653Y-11099738D01*
X6859653Y-11118786D01*
X6764415Y-11137834D01*
X6935843Y-11194976D02*
X6954891Y-11204500D01*
X6992986Y-11204500D01*
X7012034Y-11194976D01*
X7021558Y-11175929D01*
X7021558Y-11166405D01*
X7012034Y-11147357D01*
X6992986Y-11137834D01*
X6964415Y-11137834D01*
X6945367Y-11128310D01*
X6935843Y-11109262D01*
X6935843Y-11099738D01*
X6945367Y-11080691D01*
X6964415Y-11071167D01*
X6992986Y-11071167D01*
X7012034Y-11080691D01*
X7088224Y-11280691D02*
X7097748Y-11271167D01*
X7116796Y-11242595D01*
X7126320Y-11223548D01*
X7135843Y-11194976D01*
X7145367Y-11147357D01*
X7145367Y-11109262D01*
X7135843Y-11061643D01*
X7126320Y-11033072D01*
X7116796Y-11014024D01*
X7097748Y-10985453D01*
X7088224Y-10975929D01*
X7450129Y-11280691D02*
X7440605Y-11271167D01*
X7421558Y-11242595D01*
X7412034Y-11223548D01*
X7402510Y-11194976D01*
X7392986Y-11147357D01*
X7392986Y-11109262D01*
X7402510Y-11061643D01*
X7412034Y-11033072D01*
X7421558Y-11014024D01*
X7440605Y-10985453D01*
X7450129Y-10975929D01*
X7526320Y-11071167D02*
X7526320Y-11204500D01*
X7526320Y-11090214D02*
X7535843Y-11080691D01*
X7554891Y-11071167D01*
X7583462Y-11071167D01*
X7602510Y-11080691D01*
X7612034Y-11099738D01*
X7612034Y-11204500D01*
X7735843Y-11204500D02*
X7716796Y-11194976D01*
X7707272Y-11185452D01*
X7697748Y-11166405D01*
X7697748Y-11109262D01*
X7707272Y-11090214D01*
X7716796Y-11080691D01*
X7735843Y-11071167D01*
X7764415Y-11071167D01*
X7783462Y-11080691D01*
X7792986Y-11090214D01*
X7802510Y-11109262D01*
X7802510Y-11166405D01*
X7792986Y-11185452D01*
X7783462Y-11194976D01*
X7764415Y-11204500D01*
X7735843Y-11204500D01*
X7859653Y-11071167D02*
X7935843Y-11071167D01*
X7888224Y-11004500D02*
X7888224Y-11175929D01*
X7897748Y-11194976D01*
X7916796Y-11204500D01*
X7935843Y-11204500D01*
X8154891Y-11071167D02*
X8154891Y-11271167D01*
X8154891Y-11080691D02*
X8173939Y-11071167D01*
X8212034Y-11071167D01*
X8231081Y-11080691D01*
X8240605Y-11090214D01*
X8250129Y-11109262D01*
X8250129Y-11166405D01*
X8240605Y-11185452D01*
X8231081Y-11194976D01*
X8212034Y-11204500D01*
X8173939Y-11204500D01*
X8154891Y-11194976D01*
X8364415Y-11204500D02*
X8345367Y-11194976D01*
X8335843Y-11175929D01*
X8335843Y-11004500D01*
X8526320Y-11204500D02*
X8526320Y-11099738D01*
X8516796Y-11080691D01*
X8497748Y-11071167D01*
X8459653Y-11071167D01*
X8440605Y-11080691D01*
X8526320Y-11194976D02*
X8507272Y-11204500D01*
X8459653Y-11204500D01*
X8440605Y-11194976D01*
X8431082Y-11175929D01*
X8431082Y-11156881D01*
X8440605Y-11137834D01*
X8459653Y-11128310D01*
X8507272Y-11128310D01*
X8526320Y-11118786D01*
X8592986Y-11071167D02*
X8669177Y-11071167D01*
X8621558Y-11004500D02*
X8621558Y-11175929D01*
X8631082Y-11194976D01*
X8650129Y-11204500D01*
X8669177Y-11204500D01*
X8812034Y-11194976D02*
X8792986Y-11204500D01*
X8754891Y-11204500D01*
X8735843Y-11194976D01*
X8726320Y-11175929D01*
X8726320Y-11099738D01*
X8735843Y-11080691D01*
X8754891Y-11071167D01*
X8792986Y-11071167D01*
X8812034Y-11080691D01*
X8821558Y-11099738D01*
X8821558Y-11118786D01*
X8726320Y-11137834D01*
X8992986Y-11204500D02*
X8992986Y-11004500D01*
X8992986Y-11194976D02*
X8973939Y-11204500D01*
X8935843Y-11204500D01*
X8916796Y-11194976D01*
X8907272Y-11185452D01*
X8897748Y-11166405D01*
X8897748Y-11109262D01*
X8907272Y-11090214D01*
X8916796Y-11080691D01*
X8935843Y-11071167D01*
X8973939Y-11071167D01*
X8992986Y-11080691D01*
X9069177Y-11280691D02*
X9078701Y-11271167D01*
X9097748Y-11242595D01*
X9107272Y-11223548D01*
X9116796Y-11194976D01*
X9126320Y-11147357D01*
X9126320Y-11109262D01*
X9116796Y-11061643D01*
X9107272Y-11033072D01*
X9097748Y-11014024D01*
X9078701Y-10985453D01*
X9069177Y-10975929D01*
X2025843Y-11509024D02*
X2125844Y-11409024D01*
X2025843Y-11309024D01*
X1925843Y-11409024D01*
X2025843Y-11509024D01*
X2364415Y-11299500D02*
X2488224Y-11299500D01*
X2421558Y-11375691D01*
X2450129Y-11375691D01*
X2469177Y-11385214D01*
X2478701Y-11394738D01*
X2488224Y-11413786D01*
X2488224Y-11461405D01*
X2478701Y-11480452D01*
X2469177Y-11489976D01*
X2450129Y-11499500D01*
X2392986Y-11499500D01*
X2373939Y-11489976D01*
X2364415Y-11480452D01*
X2573939Y-11480452D02*
X2583463Y-11489976D01*
X2573939Y-11499500D01*
X2564415Y-11489976D01*
X2573939Y-11480452D01*
X2573939Y-11499500D01*
X2678701Y-11499500D02*
X2716796Y-11499500D01*
X2735844Y-11489976D01*
X2745367Y-11480452D01*
X2764415Y-11451881D01*
X2773939Y-11413786D01*
X2773939Y-11337595D01*
X2764415Y-11318548D01*
X2754891Y-11309024D01*
X2735844Y-11299500D01*
X2697748Y-11299500D01*
X2678701Y-11309024D01*
X2669177Y-11318548D01*
X2659653Y-11337595D01*
X2659653Y-11385214D01*
X2669177Y-11404262D01*
X2678701Y-11413786D01*
X2697748Y-11423310D01*
X2735844Y-11423310D01*
X2754891Y-11413786D01*
X2764415Y-11404262D01*
X2773939Y-11385214D01*
X2888224Y-11385214D02*
X2869177Y-11375691D01*
X2859653Y-11366167D01*
X2850129Y-11347119D01*
X2850129Y-11337595D01*
X2859653Y-11318548D01*
X2869177Y-11309024D01*
X2888224Y-11299500D01*
X2926320Y-11299500D01*
X2945367Y-11309024D01*
X2954891Y-11318548D01*
X2964415Y-11337595D01*
X2964415Y-11347119D01*
X2954891Y-11366167D01*
X2945367Y-11375691D01*
X2926320Y-11385214D01*
X2888224Y-11385214D01*
X2869177Y-11394738D01*
X2859653Y-11404262D01*
X2850129Y-11423310D01*
X2850129Y-11461405D01*
X2859653Y-11480452D01*
X2869177Y-11489976D01*
X2888224Y-11499500D01*
X2926320Y-11499500D01*
X2945367Y-11489976D01*
X2954891Y-11480452D01*
X2964415Y-11461405D01*
X2964415Y-11423310D01*
X2954891Y-11404262D01*
X2945367Y-11394738D01*
X2926320Y-11385214D01*
X3078701Y-11385214D02*
X3059653Y-11375691D01*
X3050129Y-11366167D01*
X3040605Y-11347119D01*
X3040605Y-11337595D01*
X3050129Y-11318548D01*
X3059653Y-11309024D01*
X3078701Y-11299500D01*
X3116796Y-11299500D01*
X3135843Y-11309024D01*
X3145367Y-11318548D01*
X3154891Y-11337595D01*
X3154891Y-11347119D01*
X3145367Y-11366167D01*
X3135843Y-11375691D01*
X3116796Y-11385214D01*
X3078701Y-11385214D01*
X3059653Y-11394738D01*
X3050129Y-11404262D01*
X3040605Y-11423310D01*
X3040605Y-11461405D01*
X3050129Y-11480452D01*
X3059653Y-11489976D01*
X3078701Y-11499500D01*
X3116796Y-11499500D01*
X3135843Y-11489976D01*
X3145367Y-11480452D01*
X3154891Y-11461405D01*
X3154891Y-11423310D01*
X3145367Y-11404262D01*
X3135843Y-11394738D01*
X3116796Y-11385214D01*
X3240605Y-11499500D02*
X3240605Y-11366167D01*
X3240605Y-11385214D02*
X3250129Y-11375691D01*
X3269177Y-11366167D01*
X3297748Y-11366167D01*
X3316796Y-11375691D01*
X3326320Y-11394738D01*
X3326320Y-11499500D01*
X3326320Y-11394738D02*
X3335843Y-11375691D01*
X3354891Y-11366167D01*
X3383462Y-11366167D01*
X3402510Y-11375691D01*
X3412034Y-11394738D01*
X3412034Y-11499500D01*
X3507272Y-11499500D02*
X3507272Y-11366167D01*
X3507272Y-11385214D02*
X3516796Y-11375691D01*
X3535843Y-11366167D01*
X3564415Y-11366167D01*
X3583462Y-11375691D01*
X3592986Y-11394738D01*
X3592986Y-11499500D01*
X3592986Y-11394738D02*
X3602510Y-11375691D01*
X3621558Y-11366167D01*
X3650129Y-11366167D01*
X3669177Y-11375691D01*
X3678701Y-11394738D01*
X3678701Y-11499500D01*
X4069177Y-11289976D02*
X3897748Y-11547119D01*
X4326320Y-11299500D02*
X4345367Y-11299500D01*
X4364415Y-11309024D01*
X4373939Y-11318548D01*
X4383463Y-11337595D01*
X4392986Y-11375691D01*
X4392986Y-11423310D01*
X4383463Y-11461405D01*
X4373939Y-11480452D01*
X4364415Y-11489976D01*
X4345367Y-11499500D01*
X4326320Y-11499500D01*
X4307272Y-11489976D01*
X4297748Y-11480452D01*
X4288224Y-11461405D01*
X4278701Y-11423310D01*
X4278701Y-11375691D01*
X4288224Y-11337595D01*
X4297748Y-11318548D01*
X4307272Y-11309024D01*
X4326320Y-11299500D01*
X4478701Y-11480452D02*
X4488224Y-11489976D01*
X4478701Y-11499500D01*
X4469177Y-11489976D01*
X4478701Y-11480452D01*
X4478701Y-11499500D01*
X4678701Y-11499500D02*
X4564415Y-11499500D01*
X4621558Y-11499500D02*
X4621558Y-11299500D01*
X4602510Y-11328072D01*
X4583463Y-11347119D01*
X4564415Y-11356643D01*
X4859653Y-11299500D02*
X4764415Y-11299500D01*
X4754891Y-11394738D01*
X4764415Y-11385214D01*
X4783463Y-11375691D01*
X4831082Y-11375691D01*
X4850129Y-11385214D01*
X4859653Y-11394738D01*
X4869177Y-11413786D01*
X4869177Y-11461405D01*
X4859653Y-11480452D01*
X4850129Y-11489976D01*
X4831082Y-11499500D01*
X4783463Y-11499500D01*
X4764415Y-11489976D01*
X4754891Y-11480452D01*
X4935843Y-11299500D02*
X5069177Y-11299500D01*
X4983463Y-11499500D01*
X5183463Y-11299500D02*
X5202510Y-11299500D01*
X5221558Y-11309024D01*
X5231082Y-11318548D01*
X5240605Y-11337595D01*
X5250129Y-11375691D01*
X5250129Y-11423310D01*
X5240605Y-11461405D01*
X5231082Y-11480452D01*
X5221558Y-11489976D01*
X5202510Y-11499500D01*
X5183463Y-11499500D01*
X5164415Y-11489976D01*
X5154891Y-11480452D01*
X5145367Y-11461405D01*
X5135843Y-11423310D01*
X5135843Y-11375691D01*
X5145367Y-11337595D01*
X5154891Y-11318548D01*
X5164415Y-11309024D01*
X5183463Y-11299500D01*
X5326320Y-11299500D02*
X5326320Y-11337595D01*
X5402510Y-11299500D02*
X5402510Y-11337595D01*
X5697748Y-11575691D02*
X5688224Y-11566167D01*
X5669177Y-11537595D01*
X5659653Y-11518548D01*
X5650129Y-11489976D01*
X5640605Y-11442357D01*
X5640605Y-11404262D01*
X5650129Y-11356643D01*
X5659653Y-11328072D01*
X5669177Y-11309024D01*
X5688224Y-11280452D01*
X5697748Y-11270929D01*
X5878701Y-11499500D02*
X5764415Y-11499500D01*
X5821558Y-11499500D02*
X5821558Y-11299500D01*
X5802510Y-11328072D01*
X5783462Y-11347119D01*
X5764415Y-11356643D01*
X6050129Y-11366167D02*
X6050129Y-11499500D01*
X6002510Y-11289976D02*
X5954891Y-11432833D01*
X6078701Y-11432833D01*
X6307272Y-11499500D02*
X6307272Y-11299500D01*
X6392986Y-11499500D02*
X6392986Y-11394738D01*
X6383462Y-11375691D01*
X6364415Y-11366167D01*
X6335843Y-11366167D01*
X6316796Y-11375691D01*
X6307272Y-11385214D01*
X6516796Y-11499500D02*
X6497748Y-11489976D01*
X6488224Y-11480452D01*
X6478701Y-11461405D01*
X6478701Y-11404262D01*
X6488224Y-11385214D01*
X6497748Y-11375691D01*
X6516796Y-11366167D01*
X6545367Y-11366167D01*
X6564415Y-11375691D01*
X6573939Y-11385214D01*
X6583462Y-11404262D01*
X6583462Y-11461405D01*
X6573939Y-11480452D01*
X6564415Y-11489976D01*
X6545367Y-11499500D01*
X6516796Y-11499500D01*
X6697748Y-11499500D02*
X6678701Y-11489976D01*
X6669177Y-11470929D01*
X6669177Y-11299500D01*
X6850129Y-11489976D02*
X6831081Y-11499500D01*
X6792986Y-11499500D01*
X6773939Y-11489976D01*
X6764415Y-11470929D01*
X6764415Y-11394738D01*
X6773939Y-11375691D01*
X6792986Y-11366167D01*
X6831081Y-11366167D01*
X6850129Y-11375691D01*
X6859653Y-11394738D01*
X6859653Y-11413786D01*
X6764415Y-11432833D01*
X6935843Y-11489976D02*
X6954891Y-11499500D01*
X6992986Y-11499500D01*
X7012034Y-11489976D01*
X7021558Y-11470929D01*
X7021558Y-11461405D01*
X7012034Y-11442357D01*
X6992986Y-11432833D01*
X6964415Y-11432833D01*
X6945367Y-11423310D01*
X6935843Y-11404262D01*
X6935843Y-11394738D01*
X6945367Y-11375691D01*
X6964415Y-11366167D01*
X6992986Y-11366167D01*
X7012034Y-11375691D01*
X7088224Y-11575691D02*
X7097748Y-11566167D01*
X7116796Y-11537595D01*
X7126320Y-11518548D01*
X7135843Y-11489976D01*
X7145367Y-11442357D01*
X7145367Y-11404262D01*
X7135843Y-11356643D01*
X7126320Y-11328072D01*
X7116796Y-11309024D01*
X7097748Y-11280452D01*
X7088224Y-11270929D01*
X7450129Y-11575691D02*
X7440605Y-11566167D01*
X7421558Y-11537595D01*
X7412034Y-11518548D01*
X7402510Y-11489976D01*
X7392986Y-11442357D01*
X7392986Y-11404262D01*
X7402510Y-11356643D01*
X7412034Y-11328072D01*
X7421558Y-11309024D01*
X7440605Y-11280452D01*
X7450129Y-11270929D01*
X7526320Y-11366167D02*
X7526320Y-11499500D01*
X7526320Y-11385214D02*
X7535843Y-11375691D01*
X7554891Y-11366167D01*
X7583462Y-11366167D01*
X7602510Y-11375691D01*
X7612034Y-11394738D01*
X7612034Y-11499500D01*
X7735843Y-11499500D02*
X7716796Y-11489976D01*
X7707272Y-11480452D01*
X7697748Y-11461405D01*
X7697748Y-11404262D01*
X7707272Y-11385214D01*
X7716796Y-11375691D01*
X7735843Y-11366167D01*
X7764415Y-11366167D01*
X7783462Y-11375691D01*
X7792986Y-11385214D01*
X7802510Y-11404262D01*
X7802510Y-11461405D01*
X7792986Y-11480452D01*
X7783462Y-11489976D01*
X7764415Y-11499500D01*
X7735843Y-11499500D01*
X7859653Y-11366167D02*
X7935843Y-11366167D01*
X7888224Y-11299500D02*
X7888224Y-11470929D01*
X7897748Y-11489976D01*
X7916796Y-11499500D01*
X7935843Y-11499500D01*
X8154891Y-11366167D02*
X8154891Y-11566167D01*
X8154891Y-11375691D02*
X8173939Y-11366167D01*
X8212034Y-11366167D01*
X8231081Y-11375691D01*
X8240605Y-11385214D01*
X8250129Y-11404262D01*
X8250129Y-11461405D01*
X8240605Y-11480452D01*
X8231081Y-11489976D01*
X8212034Y-11499500D01*
X8173939Y-11499500D01*
X8154891Y-11489976D01*
X8364415Y-11499500D02*
X8345367Y-11489976D01*
X8335843Y-11470929D01*
X8335843Y-11299500D01*
X8526320Y-11499500D02*
X8526320Y-11394738D01*
X8516796Y-11375691D01*
X8497748Y-11366167D01*
X8459653Y-11366167D01*
X8440605Y-11375691D01*
X8526320Y-11489976D02*
X8507272Y-11499500D01*
X8459653Y-11499500D01*
X8440605Y-11489976D01*
X8431082Y-11470929D01*
X8431082Y-11451881D01*
X8440605Y-11432833D01*
X8459653Y-11423310D01*
X8507272Y-11423310D01*
X8526320Y-11413786D01*
X8592986Y-11366167D02*
X8669177Y-11366167D01*
X8621558Y-11299500D02*
X8621558Y-11470929D01*
X8631082Y-11489976D01*
X8650129Y-11499500D01*
X8669177Y-11499500D01*
X8812034Y-11489976D02*
X8792986Y-11499500D01*
X8754891Y-11499500D01*
X8735843Y-11489976D01*
X8726320Y-11470929D01*
X8726320Y-11394738D01*
X8735843Y-11375691D01*
X8754891Y-11366167D01*
X8792986Y-11366167D01*
X8812034Y-11375691D01*
X8821558Y-11394738D01*
X8821558Y-11413786D01*
X8726320Y-11432833D01*
X8992986Y-11499500D02*
X8992986Y-11299500D01*
X8992986Y-11489976D02*
X8973939Y-11499500D01*
X8935843Y-11499500D01*
X8916796Y-11489976D01*
X8907272Y-11480452D01*
X8897748Y-11461405D01*
X8897748Y-11404262D01*
X8907272Y-11385214D01*
X8916796Y-11375691D01*
X8935843Y-11366167D01*
X8973939Y-11366167D01*
X8992986Y-11375691D01*
X9069177Y-11575691D02*
X9078701Y-11566167D01*
X9097748Y-11537595D01*
X9107272Y-11518548D01*
X9116796Y-11489976D01*
X9126320Y-11442357D01*
X9126320Y-11404262D01*
X9116796Y-11356643D01*
X9107272Y-11328072D01*
X9097748Y-11309024D01*
X9078701Y-11280452D01*
X9069177Y-11270929D01*
X1925843Y-11629024D02*
X2125844Y-11829024D01*
X2125844Y-11629024D02*
X1925843Y-11829024D01*
X2125844Y-11729024D02*
G75*
G03*
X2125844Y-11729024I-100000J0D01*
G01*
X2478701Y-11619500D02*
X2383463Y-11619500D01*
X2373939Y-11714738D01*
X2383463Y-11705214D01*
X2402510Y-11695691D01*
X2450129Y-11695691D01*
X2469177Y-11705214D01*
X2478701Y-11714738D01*
X2488224Y-11733786D01*
X2488224Y-11781405D01*
X2478701Y-11800452D01*
X2469177Y-11809976D01*
X2450129Y-11819500D01*
X2402510Y-11819500D01*
X2383463Y-11809976D01*
X2373939Y-11800452D01*
X2573939Y-11800452D02*
X2583463Y-11809976D01*
X2573939Y-11819500D01*
X2564415Y-11809976D01*
X2573939Y-11800452D01*
X2573939Y-11819500D01*
X2650129Y-11619500D02*
X2773939Y-11619500D01*
X2707272Y-11695691D01*
X2735844Y-11695691D01*
X2754891Y-11705214D01*
X2764415Y-11714738D01*
X2773939Y-11733786D01*
X2773939Y-11781405D01*
X2764415Y-11800452D01*
X2754891Y-11809976D01*
X2735844Y-11819500D01*
X2678701Y-11819500D01*
X2659653Y-11809976D01*
X2650129Y-11800452D01*
X2840605Y-11619500D02*
X2964415Y-11619500D01*
X2897748Y-11695691D01*
X2926320Y-11695691D01*
X2945367Y-11705214D01*
X2954891Y-11714738D01*
X2964415Y-11733786D01*
X2964415Y-11781405D01*
X2954891Y-11800452D01*
X2945367Y-11809976D01*
X2926320Y-11819500D01*
X2869177Y-11819500D01*
X2850129Y-11809976D01*
X2840605Y-11800452D01*
X3135843Y-11686167D02*
X3135843Y-11819500D01*
X3088224Y-11609976D02*
X3040605Y-11752833D01*
X3164415Y-11752833D01*
X3240605Y-11819500D02*
X3240605Y-11686167D01*
X3240605Y-11705214D02*
X3250129Y-11695691D01*
X3269177Y-11686167D01*
X3297748Y-11686167D01*
X3316796Y-11695691D01*
X3326320Y-11714738D01*
X3326320Y-11819500D01*
X3326320Y-11714738D02*
X3335843Y-11695691D01*
X3354891Y-11686167D01*
X3383462Y-11686167D01*
X3402510Y-11695691D01*
X3412034Y-11714738D01*
X3412034Y-11819500D01*
X3507272Y-11819500D02*
X3507272Y-11686167D01*
X3507272Y-11705214D02*
X3516796Y-11695691D01*
X3535843Y-11686167D01*
X3564415Y-11686167D01*
X3583462Y-11695691D01*
X3592986Y-11714738D01*
X3592986Y-11819500D01*
X3592986Y-11714738D02*
X3602510Y-11695691D01*
X3621558Y-11686167D01*
X3650129Y-11686167D01*
X3669177Y-11695691D01*
X3678701Y-11714738D01*
X3678701Y-11819500D01*
X4069177Y-11609976D02*
X3897748Y-11867119D01*
X4326320Y-11619500D02*
X4345367Y-11619500D01*
X4364415Y-11629024D01*
X4373939Y-11638548D01*
X4383463Y-11657595D01*
X4392986Y-11695691D01*
X4392986Y-11743310D01*
X4383463Y-11781405D01*
X4373939Y-11800452D01*
X4364415Y-11809976D01*
X4345367Y-11819500D01*
X4326320Y-11819500D01*
X4307272Y-11809976D01*
X4297748Y-11800452D01*
X4288224Y-11781405D01*
X4278701Y-11743310D01*
X4278701Y-11695691D01*
X4288224Y-11657595D01*
X4297748Y-11638548D01*
X4307272Y-11629024D01*
X4326320Y-11619500D01*
X4478701Y-11800452D02*
X4488224Y-11809976D01*
X4478701Y-11819500D01*
X4469177Y-11809976D01*
X4478701Y-11800452D01*
X4478701Y-11819500D01*
X4564415Y-11638548D02*
X4573939Y-11629024D01*
X4592986Y-11619500D01*
X4640605Y-11619500D01*
X4659653Y-11629024D01*
X4669177Y-11638548D01*
X4678701Y-11657595D01*
X4678701Y-11676643D01*
X4669177Y-11705214D01*
X4554891Y-11819500D01*
X4678701Y-11819500D01*
X4869177Y-11819500D02*
X4754891Y-11819500D01*
X4812034Y-11819500D02*
X4812034Y-11619500D01*
X4792986Y-11648072D01*
X4773939Y-11667119D01*
X4754891Y-11676643D01*
X4992986Y-11619500D02*
X5012034Y-11619500D01*
X5031082Y-11629024D01*
X5040605Y-11638548D01*
X5050129Y-11657595D01*
X5059653Y-11695691D01*
X5059653Y-11743310D01*
X5050129Y-11781405D01*
X5040605Y-11800452D01*
X5031082Y-11809976D01*
X5012034Y-11819500D01*
X4992986Y-11819500D01*
X4973939Y-11809976D01*
X4964415Y-11800452D01*
X4954891Y-11781405D01*
X4945367Y-11743310D01*
X4945367Y-11695691D01*
X4954891Y-11657595D01*
X4964415Y-11638548D01*
X4973939Y-11629024D01*
X4992986Y-11619500D01*
X5183463Y-11619500D02*
X5202510Y-11619500D01*
X5221558Y-11629024D01*
X5231082Y-11638548D01*
X5240605Y-11657595D01*
X5250129Y-11695691D01*
X5250129Y-11743310D01*
X5240605Y-11781405D01*
X5231082Y-11800452D01*
X5221558Y-11809976D01*
X5202510Y-11819500D01*
X5183463Y-11819500D01*
X5164415Y-11809976D01*
X5154891Y-11800452D01*
X5145367Y-11781405D01*
X5135843Y-11743310D01*
X5135843Y-11695691D01*
X5145367Y-11657595D01*
X5154891Y-11638548D01*
X5164415Y-11629024D01*
X5183463Y-11619500D01*
X5326320Y-11619500D02*
X5326320Y-11657595D01*
X5402510Y-11619500D02*
X5402510Y-11657595D01*
X5697748Y-11895691D02*
X5688224Y-11886167D01*
X5669177Y-11857595D01*
X5659653Y-11838548D01*
X5650129Y-11809976D01*
X5640605Y-11762357D01*
X5640605Y-11724262D01*
X5650129Y-11676643D01*
X5659653Y-11648072D01*
X5669177Y-11629024D01*
X5688224Y-11600452D01*
X5697748Y-11590929D01*
X5878701Y-11819500D02*
X5764415Y-11819500D01*
X5821558Y-11819500D02*
X5821558Y-11619500D01*
X5802510Y-11648072D01*
X5783462Y-11667119D01*
X5764415Y-11676643D01*
X6107272Y-11809976D02*
X6126320Y-11819500D01*
X6164415Y-11819500D01*
X6183462Y-11809976D01*
X6192986Y-11790929D01*
X6192986Y-11781405D01*
X6183462Y-11762357D01*
X6164415Y-11752833D01*
X6135843Y-11752833D01*
X6116796Y-11743310D01*
X6107272Y-11724262D01*
X6107272Y-11714738D01*
X6116796Y-11695691D01*
X6135843Y-11686167D01*
X6164415Y-11686167D01*
X6183462Y-11695691D01*
X6307272Y-11819500D02*
X6288224Y-11809976D01*
X6278701Y-11790929D01*
X6278701Y-11619500D01*
X6412034Y-11819500D02*
X6392986Y-11809976D01*
X6383462Y-11800452D01*
X6373939Y-11781405D01*
X6373939Y-11724262D01*
X6383462Y-11705214D01*
X6392986Y-11695691D01*
X6412034Y-11686167D01*
X6440605Y-11686167D01*
X6459653Y-11695691D01*
X6469177Y-11705214D01*
X6478701Y-11724262D01*
X6478701Y-11781405D01*
X6469177Y-11800452D01*
X6459653Y-11809976D01*
X6440605Y-11819500D01*
X6412034Y-11819500D01*
X6535843Y-11686167D02*
X6612034Y-11686167D01*
X6564415Y-11619500D02*
X6564415Y-11790929D01*
X6573939Y-11809976D01*
X6592986Y-11819500D01*
X6612034Y-11819500D01*
X6659653Y-11895691D02*
X6669177Y-11886167D01*
X6688224Y-11857595D01*
X6697748Y-11838548D01*
X6707272Y-11809976D01*
X6716796Y-11762357D01*
X6716796Y-11724262D01*
X6707272Y-11676643D01*
X6697748Y-11648072D01*
X6688224Y-11629024D01*
X6669177Y-11600452D01*
X6659653Y-11590929D01*
X7021558Y-11895691D02*
X7012034Y-11886167D01*
X6992986Y-11857595D01*
X6983462Y-11838548D01*
X6973939Y-11809976D01*
X6964415Y-11762357D01*
X6964415Y-11724262D01*
X6973939Y-11676643D01*
X6983462Y-11648072D01*
X6992986Y-11629024D01*
X7012034Y-11600452D01*
X7021558Y-11590929D01*
X7097748Y-11686167D02*
X7097748Y-11819500D01*
X7097748Y-11705214D02*
X7107272Y-11695691D01*
X7126320Y-11686167D01*
X7154891Y-11686167D01*
X7173939Y-11695691D01*
X7183462Y-11714738D01*
X7183462Y-11819500D01*
X7307272Y-11819500D02*
X7288224Y-11809976D01*
X7278701Y-11800452D01*
X7269177Y-11781405D01*
X7269177Y-11724262D01*
X7278701Y-11705214D01*
X7288224Y-11695691D01*
X7307272Y-11686167D01*
X7335843Y-11686167D01*
X7354891Y-11695691D01*
X7364415Y-11705214D01*
X7373939Y-11724262D01*
X7373939Y-11781405D01*
X7364415Y-11800452D01*
X7354891Y-11809976D01*
X7335843Y-11819500D01*
X7307272Y-11819500D01*
X7431081Y-11686167D02*
X7507272Y-11686167D01*
X7459653Y-11619500D02*
X7459653Y-11790929D01*
X7469177Y-11809976D01*
X7488224Y-11819500D01*
X7507272Y-11819500D01*
X7726320Y-11686167D02*
X7726320Y-11886167D01*
X7726320Y-11695691D02*
X7745367Y-11686167D01*
X7783462Y-11686167D01*
X7802510Y-11695691D01*
X7812034Y-11705214D01*
X7821558Y-11724262D01*
X7821558Y-11781405D01*
X7812034Y-11800452D01*
X7802510Y-11809976D01*
X7783462Y-11819500D01*
X7745367Y-11819500D01*
X7726320Y-11809976D01*
X7935843Y-11819500D02*
X7916796Y-11809976D01*
X7907272Y-11790929D01*
X7907272Y-11619500D01*
X8097748Y-11819500D02*
X8097748Y-11714738D01*
X8088224Y-11695691D01*
X8069177Y-11686167D01*
X8031081Y-11686167D01*
X8012034Y-11695691D01*
X8097748Y-11809976D02*
X8078701Y-11819500D01*
X8031081Y-11819500D01*
X8012034Y-11809976D01*
X8002510Y-11790929D01*
X8002510Y-11771881D01*
X8012034Y-11752833D01*
X8031081Y-11743310D01*
X8078701Y-11743310D01*
X8097748Y-11733786D01*
X8164415Y-11686167D02*
X8240605Y-11686167D01*
X8192986Y-11619500D02*
X8192986Y-11790929D01*
X8202510Y-11809976D01*
X8221558Y-11819500D01*
X8240605Y-11819500D01*
X8383462Y-11809976D02*
X8364415Y-11819500D01*
X8326320Y-11819500D01*
X8307272Y-11809976D01*
X8297748Y-11790929D01*
X8297748Y-11714738D01*
X8307272Y-11695691D01*
X8326320Y-11686167D01*
X8364415Y-11686167D01*
X8383462Y-11695691D01*
X8392986Y-11714738D01*
X8392986Y-11733786D01*
X8297748Y-11752833D01*
X8564415Y-11819500D02*
X8564415Y-11619500D01*
X8564415Y-11809976D02*
X8545367Y-11819500D01*
X8507272Y-11819500D01*
X8488224Y-11809976D01*
X8478701Y-11800452D01*
X8469177Y-11781405D01*
X8469177Y-11724262D01*
X8478701Y-11705214D01*
X8488224Y-11695691D01*
X8507272Y-11686167D01*
X8545367Y-11686167D01*
X8564415Y-11695691D01*
X8640605Y-11895691D02*
X8650129Y-11886167D01*
X8669177Y-11857595D01*
X8678701Y-11838548D01*
X8688224Y-11809976D01*
X8697748Y-11762357D01*
X8697748Y-11724262D01*
X8688224Y-11676643D01*
X8678701Y-11648072D01*
X8669177Y-11629024D01*
X8650129Y-11600452D01*
X8640605Y-11590929D01*
X1925843Y-11949024D02*
X2125844Y-12149024D01*
X2125844Y-11949024D02*
X1925843Y-12149024D01*
X2025843Y-11949024D02*
X2025843Y-12149024D01*
X1925843Y-12049024D02*
X2125844Y-12049024D01*
X2469177Y-11939500D02*
X2431082Y-11939500D01*
X2412034Y-11949024D01*
X2402510Y-11958548D01*
X2383463Y-11987119D01*
X2373939Y-12025214D01*
X2373939Y-12101405D01*
X2383463Y-12120452D01*
X2392986Y-12129976D01*
X2412034Y-12139500D01*
X2450129Y-12139500D01*
X2469177Y-12129976D01*
X2478701Y-12120452D01*
X2488224Y-12101405D01*
X2488224Y-12053786D01*
X2478701Y-12034738D01*
X2469177Y-12025214D01*
X2450129Y-12015691D01*
X2412034Y-12015691D01*
X2392986Y-12025214D01*
X2383463Y-12034738D01*
X2373939Y-12053786D01*
X2573939Y-12120452D02*
X2583463Y-12129976D01*
X2573939Y-12139500D01*
X2564415Y-12129976D01*
X2573939Y-12120452D01*
X2573939Y-12139500D01*
X2707272Y-11939500D02*
X2726320Y-11939500D01*
X2745367Y-11949024D01*
X2754891Y-11958548D01*
X2764415Y-11977595D01*
X2773939Y-12015691D01*
X2773939Y-12063310D01*
X2764415Y-12101405D01*
X2754891Y-12120452D01*
X2745367Y-12129976D01*
X2726320Y-12139500D01*
X2707272Y-12139500D01*
X2688224Y-12129976D01*
X2678701Y-12120452D01*
X2669177Y-12101405D01*
X2659653Y-12063310D01*
X2659653Y-12015691D01*
X2669177Y-11977595D01*
X2678701Y-11958548D01*
X2688224Y-11949024D01*
X2707272Y-11939500D01*
X2869177Y-12139500D02*
X2907272Y-12139500D01*
X2926320Y-12129976D01*
X2935843Y-12120452D01*
X2954891Y-12091881D01*
X2964415Y-12053786D01*
X2964415Y-11977595D01*
X2954891Y-11958548D01*
X2945367Y-11949024D01*
X2926320Y-11939500D01*
X2888224Y-11939500D01*
X2869177Y-11949024D01*
X2859653Y-11958548D01*
X2850129Y-11977595D01*
X2850129Y-12025214D01*
X2859653Y-12044262D01*
X2869177Y-12053786D01*
X2888224Y-12063310D01*
X2926320Y-12063310D01*
X2945367Y-12053786D01*
X2954891Y-12044262D01*
X2964415Y-12025214D01*
X3135843Y-11939500D02*
X3097748Y-11939500D01*
X3078701Y-11949024D01*
X3069177Y-11958548D01*
X3050129Y-11987119D01*
X3040605Y-12025214D01*
X3040605Y-12101405D01*
X3050129Y-12120452D01*
X3059653Y-12129976D01*
X3078701Y-12139500D01*
X3116796Y-12139500D01*
X3135843Y-12129976D01*
X3145367Y-12120452D01*
X3154891Y-12101405D01*
X3154891Y-12053786D01*
X3145367Y-12034738D01*
X3135843Y-12025214D01*
X3116796Y-12015691D01*
X3078701Y-12015691D01*
X3059653Y-12025214D01*
X3050129Y-12034738D01*
X3040605Y-12053786D01*
X3240605Y-12139500D02*
X3240605Y-12006167D01*
X3240605Y-12025214D02*
X3250129Y-12015691D01*
X3269177Y-12006167D01*
X3297748Y-12006167D01*
X3316796Y-12015691D01*
X3326320Y-12034738D01*
X3326320Y-12139500D01*
X3326320Y-12034738D02*
X3335843Y-12015691D01*
X3354891Y-12006167D01*
X3383462Y-12006167D01*
X3402510Y-12015691D01*
X3412034Y-12034738D01*
X3412034Y-12139500D01*
X3507272Y-12139500D02*
X3507272Y-12006167D01*
X3507272Y-12025214D02*
X3516796Y-12015691D01*
X3535843Y-12006167D01*
X3564415Y-12006167D01*
X3583462Y-12015691D01*
X3592986Y-12034738D01*
X3592986Y-12139500D01*
X3592986Y-12034738D02*
X3602510Y-12015691D01*
X3621558Y-12006167D01*
X3650129Y-12006167D01*
X3669177Y-12015691D01*
X3678701Y-12034738D01*
X3678701Y-12139500D01*
X4069177Y-11929976D02*
X3897748Y-12187119D01*
X4326320Y-11939500D02*
X4345367Y-11939500D01*
X4364415Y-11949024D01*
X4373939Y-11958548D01*
X4383463Y-11977595D01*
X4392986Y-12015691D01*
X4392986Y-12063310D01*
X4383463Y-12101405D01*
X4373939Y-12120452D01*
X4364415Y-12129976D01*
X4345367Y-12139500D01*
X4326320Y-12139500D01*
X4307272Y-12129976D01*
X4297748Y-12120452D01*
X4288224Y-12101405D01*
X4278701Y-12063310D01*
X4278701Y-12015691D01*
X4288224Y-11977595D01*
X4297748Y-11958548D01*
X4307272Y-11949024D01*
X4326320Y-11939500D01*
X4478701Y-12120452D02*
X4488224Y-12129976D01*
X4478701Y-12139500D01*
X4469177Y-12129976D01*
X4478701Y-12120452D01*
X4478701Y-12139500D01*
X4564415Y-11958548D02*
X4573939Y-11949024D01*
X4592986Y-11939500D01*
X4640605Y-11939500D01*
X4659653Y-11949024D01*
X4669177Y-11958548D01*
X4678701Y-11977595D01*
X4678701Y-11996643D01*
X4669177Y-12025214D01*
X4554891Y-12139500D01*
X4678701Y-12139500D01*
X4850129Y-12006167D02*
X4850129Y-12139500D01*
X4802510Y-11929976D02*
X4754891Y-12072833D01*
X4878701Y-12072833D01*
X4992986Y-11939500D02*
X5012034Y-11939500D01*
X5031082Y-11949024D01*
X5040605Y-11958548D01*
X5050129Y-11977595D01*
X5059653Y-12015691D01*
X5059653Y-12063310D01*
X5050129Y-12101405D01*
X5040605Y-12120452D01*
X5031082Y-12129976D01*
X5012034Y-12139500D01*
X4992986Y-12139500D01*
X4973939Y-12129976D01*
X4964415Y-12120452D01*
X4954891Y-12101405D01*
X4945367Y-12063310D01*
X4945367Y-12015691D01*
X4954891Y-11977595D01*
X4964415Y-11958548D01*
X4973939Y-11949024D01*
X4992986Y-11939500D01*
X5183463Y-11939500D02*
X5202510Y-11939500D01*
X5221558Y-11949024D01*
X5231082Y-11958548D01*
X5240605Y-11977595D01*
X5250129Y-12015691D01*
X5250129Y-12063310D01*
X5240605Y-12101405D01*
X5231082Y-12120452D01*
X5221558Y-12129976D01*
X5202510Y-12139500D01*
X5183463Y-12139500D01*
X5164415Y-12129976D01*
X5154891Y-12120452D01*
X5145367Y-12101405D01*
X5135843Y-12063310D01*
X5135843Y-12015691D01*
X5145367Y-11977595D01*
X5154891Y-11958548D01*
X5164415Y-11949024D01*
X5183463Y-11939500D01*
X5326320Y-11939500D02*
X5326320Y-11977595D01*
X5402510Y-11939500D02*
X5402510Y-11977595D01*
X5697748Y-12215691D02*
X5688224Y-12206167D01*
X5669177Y-12177595D01*
X5659653Y-12158548D01*
X5650129Y-12129976D01*
X5640605Y-12082357D01*
X5640605Y-12044262D01*
X5650129Y-11996643D01*
X5659653Y-11968072D01*
X5669177Y-11949024D01*
X5688224Y-11920452D01*
X5697748Y-11910929D01*
X5878701Y-12139500D02*
X5764415Y-12139500D01*
X5821558Y-12139500D02*
X5821558Y-11939500D01*
X5802510Y-11968072D01*
X5783462Y-11987119D01*
X5764415Y-11996643D01*
X6116796Y-12139500D02*
X6116796Y-11939500D01*
X6202510Y-12139500D02*
X6202510Y-12034738D01*
X6192986Y-12015691D01*
X6173939Y-12006167D01*
X6145367Y-12006167D01*
X6126320Y-12015691D01*
X6116796Y-12025214D01*
X6326320Y-12139500D02*
X6307272Y-12129976D01*
X6297748Y-12120452D01*
X6288224Y-12101405D01*
X6288224Y-12044262D01*
X6297748Y-12025214D01*
X6307272Y-12015691D01*
X6326320Y-12006167D01*
X6354891Y-12006167D01*
X6373939Y-12015691D01*
X6383462Y-12025214D01*
X6392986Y-12044262D01*
X6392986Y-12101405D01*
X6383462Y-12120452D01*
X6373939Y-12129976D01*
X6354891Y-12139500D01*
X6326320Y-12139500D01*
X6507272Y-12139500D02*
X6488224Y-12129976D01*
X6478701Y-12110929D01*
X6478701Y-11939500D01*
X6659653Y-12129976D02*
X6640605Y-12139500D01*
X6602510Y-12139500D01*
X6583462Y-12129976D01*
X6573939Y-12110929D01*
X6573939Y-12034738D01*
X6583462Y-12015691D01*
X6602510Y-12006167D01*
X6640605Y-12006167D01*
X6659653Y-12015691D01*
X6669177Y-12034738D01*
X6669177Y-12053786D01*
X6573939Y-12072833D01*
X6735843Y-12215691D02*
X6745367Y-12206167D01*
X6764415Y-12177595D01*
X6773939Y-12158548D01*
X6783462Y-12129976D01*
X6792986Y-12082357D01*
X6792986Y-12044262D01*
X6783462Y-11996643D01*
X6773939Y-11968072D01*
X6764415Y-11949024D01*
X6745367Y-11920452D01*
X6735843Y-11910929D01*
X7097748Y-12215691D02*
X7088224Y-12206167D01*
X7069177Y-12177595D01*
X7059653Y-12158548D01*
X7050129Y-12129976D01*
X7040605Y-12082357D01*
X7040605Y-12044262D01*
X7050129Y-11996643D01*
X7059653Y-11968072D01*
X7069177Y-11949024D01*
X7088224Y-11920452D01*
X7097748Y-11910929D01*
X7173939Y-12006167D02*
X7173939Y-12139500D01*
X7173939Y-12025214D02*
X7183462Y-12015691D01*
X7202510Y-12006167D01*
X7231081Y-12006167D01*
X7250129Y-12015691D01*
X7259653Y-12034738D01*
X7259653Y-12139500D01*
X7383462Y-12139500D02*
X7364415Y-12129976D01*
X7354891Y-12120452D01*
X7345367Y-12101405D01*
X7345367Y-12044262D01*
X7354891Y-12025214D01*
X7364415Y-12015691D01*
X7383462Y-12006167D01*
X7412034Y-12006167D01*
X7431081Y-12015691D01*
X7440605Y-12025214D01*
X7450129Y-12044262D01*
X7450129Y-12101405D01*
X7440605Y-12120452D01*
X7431081Y-12129976D01*
X7412034Y-12139500D01*
X7383462Y-12139500D01*
X7507272Y-12006167D02*
X7583462Y-12006167D01*
X7535843Y-11939500D02*
X7535843Y-12110929D01*
X7545367Y-12129976D01*
X7564415Y-12139500D01*
X7583462Y-12139500D01*
X7802510Y-12006167D02*
X7802510Y-12206167D01*
X7802510Y-12015691D02*
X7821558Y-12006167D01*
X7859653Y-12006167D01*
X7878701Y-12015691D01*
X7888224Y-12025214D01*
X7897748Y-12044262D01*
X7897748Y-12101405D01*
X7888224Y-12120452D01*
X7878701Y-12129976D01*
X7859653Y-12139500D01*
X7821558Y-12139500D01*
X7802510Y-12129976D01*
X8012034Y-12139500D02*
X7992986Y-12129976D01*
X7983462Y-12110929D01*
X7983462Y-11939500D01*
X8173939Y-12139500D02*
X8173939Y-12034738D01*
X8164415Y-12015691D01*
X8145367Y-12006167D01*
X8107272Y-12006167D01*
X8088224Y-12015691D01*
X8173939Y-12129976D02*
X8154891Y-12139500D01*
X8107272Y-12139500D01*
X8088224Y-12129976D01*
X8078701Y-12110929D01*
X8078701Y-12091881D01*
X8088224Y-12072833D01*
X8107272Y-12063310D01*
X8154891Y-12063310D01*
X8173939Y-12053786D01*
X8240605Y-12006167D02*
X8316796Y-12006167D01*
X8269177Y-11939500D02*
X8269177Y-12110929D01*
X8278701Y-12129976D01*
X8297748Y-12139500D01*
X8316796Y-12139500D01*
X8459653Y-12129976D02*
X8440605Y-12139500D01*
X8402510Y-12139500D01*
X8383462Y-12129976D01*
X8373939Y-12110929D01*
X8373939Y-12034738D01*
X8383462Y-12015691D01*
X8402510Y-12006167D01*
X8440605Y-12006167D01*
X8459653Y-12015691D01*
X8469177Y-12034738D01*
X8469177Y-12053786D01*
X8373939Y-12072833D01*
X8640605Y-12139500D02*
X8640605Y-11939500D01*
X8640605Y-12129976D02*
X8621558Y-12139500D01*
X8583463Y-12139500D01*
X8564415Y-12129976D01*
X8554891Y-12120452D01*
X8545367Y-12101405D01*
X8545367Y-12044262D01*
X8554891Y-12025214D01*
X8564415Y-12015691D01*
X8583463Y-12006167D01*
X8621558Y-12006167D01*
X8640605Y-12015691D01*
X8716796Y-12215691D02*
X8726320Y-12206167D01*
X8745367Y-12177595D01*
X8754891Y-12158548D01*
X8764415Y-12129976D01*
X8773939Y-12082357D01*
X8773939Y-12044262D01*
X8764415Y-11996643D01*
X8754891Y-11968072D01*
X8745367Y-11949024D01*
X8726320Y-11920452D01*
X8716796Y-11910929D01*
M02*
