M48
; DRILL file {KiCad 7.0.1-0} date 2023 April 11, Tuesday 07:51:10
; FORMAT={-:-/ absolute / metric / decimal}
; #@! TF.CreationDate,2023-04-11T07:51:10+09:00
; #@! TF.GenerationSoftware,Kicad,Pcbnew,7.0.1-0
; #@! TF.FileFunction,NonPlated,1,2,NPTH
FMAT,2
METRIC
; #@! TA.AperFunction,NonPlated,NPTH,ComponentDrill
T1C1.750
; #@! TA.AperFunction,NonPlated,NPTH,ComponentDrill
T2C3.000
; #@! TA.AperFunction,NonPlated,NPTH,ComponentDrill
T3C3.988
; #@! TA.AperFunction,NonPlated,NPTH,ComponentDrill
T4C5.334
; #@! TA.AperFunction,NonPlated,NPTH,ComponentDrill
T5C6.096
%
G90
G05
T1
X30.266Y-49.625
X40.426Y-49.625
X54.078Y-49.625
X64.238Y-49.625
X111.228Y-49.625
X121.388Y-49.625
X130.278Y-68.7
X139.803Y-87.725
X140.438Y-68.7
X149.328Y-68.675
X149.963Y-87.725
X158.853Y-87.725
X159.488Y-68.675
X168.378Y-68.675
X169.013Y-87.725
X177.903Y-87.725
X178.538Y-68.675
X187.428Y-68.675
X188.063Y-87.725
X197.588Y-68.675
X206.478Y-49.625
X216.638Y-49.625
X263.628Y-49.625
X273.788Y-49.625
X287.441Y-49.625
X297.601Y-49.625
T2
X31.536Y-47.085
X37.886Y-44.545
X55.348Y-47.085
X61.698Y-44.545
X112.498Y-47.085
X118.848Y-44.545
X131.548Y-66.16
X137.898Y-63.62
X141.073Y-85.185
X147.423Y-82.645
X150.598Y-66.135
X156.948Y-63.595
X160.123Y-85.185
X166.473Y-82.645
X169.648Y-66.135
X175.998Y-63.595
X179.173Y-85.185
X185.523Y-82.645
X188.698Y-66.135
X195.048Y-63.595
X207.748Y-47.085
X214.098Y-44.545
X264.898Y-47.085
X271.248Y-44.545
X289.981Y-54.705
X296.331Y-52.165
T3
X35.346Y-49.625
X59.158Y-49.625
X116.308Y-49.625
X135.358Y-68.7
X144.883Y-87.725
X154.408Y-68.675
X163.933Y-87.725
X173.458Y-68.675
X182.983Y-87.725
X192.508Y-68.675
X211.558Y-49.625
X268.708Y-49.625
X292.521Y-49.625
T5
X46.585Y-49.244
T4
X279.884Y-49.252G85X282.932Y-49.252
G05
T0
M30
