G04 #@! TF.GenerationSoftware,KiCad,Pcbnew,(6.0.10-0)*
G04 #@! TF.CreationDate,2023-02-15T16:22:51+09:00*
G04 #@! TF.ProjectId,Sandy,53616e64-792e-46b6-9963-61645f706362,v.0*
G04 #@! TF.SameCoordinates,Original*
G04 #@! TF.FileFunction,Legend,Top*
G04 #@! TF.FilePolarity,Positive*
%FSLAX46Y46*%
G04 Gerber Fmt 4.6, Leading zero omitted, Abs format (unit mm)*
G04 Created by KiCad (PCBNEW (6.0.10-0)) date 2023-02-15 16:22:51*
%MOMM*%
%LPD*%
G01*
G04 APERTURE LIST*
G04 Aperture macros list*
%AMRoundRect*
0 Rectangle with rounded corners*
0 $1 Rounding radius*
0 $2 $3 $4 $5 $6 $7 $8 $9 X,Y pos of 4 corners*
0 Add a 4 corners polygon primitive as box body*
4,1,4,$2,$3,$4,$5,$6,$7,$8,$9,$2,$3,0*
0 Add four circle primitives for the rounded corners*
1,1,$1+$1,$2,$3*
1,1,$1+$1,$4,$5*
1,1,$1+$1,$6,$7*
1,1,$1+$1,$8,$9*
0 Add four rect primitives between the rounded corners*
20,1,$1+$1,$2,$3,$4,$5,0*
20,1,$1+$1,$4,$5,$6,$7,0*
20,1,$1+$1,$6,$7,$8,$9,0*
20,1,$1+$1,$8,$9,$2,$3,0*%
G04 Aperture macros list end*
%ADD10C,0.150000*%
%ADD11C,0.120000*%
%ADD12C,0.127000*%
%ADD13C,0.200000*%
%ADD14C,1.187400*%
%ADD15C,6.496000*%
%ADD16O,5.600000X2.800000*%
%ADD17O,9.400000X7.900000*%
%ADD18O,8.781998X5.734000*%
%ADD19C,1.400000*%
%ADD20O,7.800000X5.000000*%
%ADD21C,5.200000*%
%ADD22C,2.150000*%
%ADD23C,4.387800*%
%ADD24C,3.448000*%
%ADD25RoundRect,0.200000X0.800000X0.425000X-0.800000X0.425000X-0.800000X-0.425000X0.800000X-0.425000X0*%
%ADD26O,1.900000X3.200000*%
%ADD27C,2.500000*%
%ADD28O,2.000000X2.300000*%
%ADD29O,2.000000X1.700000*%
%ADD30C,2.000000*%
%ADD31O,4.800000X1.850000*%
%ADD32RoundRect,0.200000X-1.000000X-0.950000X1.000000X-0.950000X1.000000X0.950000X-1.000000X0.950000X0*%
%ADD33RoundRect,0.350000X0.625000X-0.150000X0.625000X0.150000X-0.625000X0.150000X-0.625000X-0.150000X0*%
%ADD34O,2.100000X2.100000*%
%ADD35RoundRect,0.450000X0.650000X-0.350000X0.650000X0.350000X-0.650000X0.350000X-0.650000X-0.350000X0*%
%ADD36C,4.800000*%
%ADD37RoundRect,0.350000X0.150000X0.625000X-0.150000X0.625000X-0.150000X-0.625000X0.150000X-0.625000X0*%
%ADD38RoundRect,0.450000X0.350000X0.650000X-0.350000X0.650000X-0.350000X-0.650000X0.350000X-0.650000X0*%
%ADD39RoundRect,0.350000X-0.625000X0.150000X-0.625000X-0.150000X0.625000X-0.150000X0.625000X0.150000X0*%
%ADD40RoundRect,0.450000X-0.650000X0.350000X-0.650000X-0.350000X0.650000X-0.350000X0.650000X0.350000X0*%
%ADD41RoundRect,0.200000X-0.850000X-0.850000X0.850000X-0.850000X0.850000X0.850000X-0.850000X0.850000X0*%
%ADD42C,2.400000*%
%ADD43RoundRect,0.200000X0.850000X-0.850000X0.850000X0.850000X-0.850000X0.850000X-0.850000X-0.850000X0*%
%ADD44C,2.600000*%
%ADD45C,1.100000*%
%ADD46O,1.300000X2.800000*%
%ADD47O,1.300000X2.100000*%
G04 APERTURE END LIST*
D10*
X28321387Y-140469910D02*
X27845196Y-140469910D01*
X27845196Y-139469910D01*
X28654720Y-139946101D02*
X28988054Y-139946101D01*
X29130911Y-140469910D02*
X28654720Y-140469910D01*
X28654720Y-139469910D01*
X29130911Y-139469910D01*
X29559482Y-140469910D02*
X29559482Y-139469910D01*
X29797577Y-139469910D01*
X29940435Y-139517530D01*
X30035673Y-139612768D01*
X30083292Y-139708006D01*
X30130911Y-139898482D01*
X30130911Y-140041339D01*
X30083292Y-140231815D01*
X30035673Y-140327053D01*
X29940435Y-140422291D01*
X29797577Y-140469910D01*
X29559482Y-140469910D01*
X31083292Y-140469910D02*
X30511863Y-140469910D01*
X30797577Y-140469910D02*
X30797577Y-139469910D01*
X30702339Y-139612768D01*
X30607101Y-139708006D01*
X30511863Y-139755625D01*
X28321387Y-143263910D02*
X27845196Y-143263910D01*
X27845196Y-142263910D01*
X28654720Y-142740101D02*
X28988054Y-142740101D01*
X29130911Y-143263910D02*
X28654720Y-143263910D01*
X28654720Y-142263910D01*
X29130911Y-142263910D01*
X29559482Y-143263910D02*
X29559482Y-142263910D01*
X29797577Y-142263910D01*
X29940435Y-142311530D01*
X30035673Y-142406768D01*
X30083292Y-142502006D01*
X30130911Y-142692482D01*
X30130911Y-142835339D01*
X30083292Y-143025815D01*
X30035673Y-143121053D01*
X29940435Y-143216291D01*
X29797577Y-143263910D01*
X29559482Y-143263910D01*
X30511863Y-142359149D02*
X30559482Y-142311530D01*
X30654720Y-142263910D01*
X30892815Y-142263910D01*
X30988054Y-142311530D01*
X31035673Y-142359149D01*
X31083292Y-142454387D01*
X31083292Y-142549625D01*
X31035673Y-142692482D01*
X30464244Y-143263910D01*
X31083292Y-143263910D01*
X296799387Y-140469910D02*
X296323196Y-140469910D01*
X296323196Y-139469910D01*
X297132720Y-139946101D02*
X297466054Y-139946101D01*
X297608911Y-140469910D02*
X297132720Y-140469910D01*
X297132720Y-139469910D01*
X297608911Y-139469910D01*
X298037482Y-140469910D02*
X298037482Y-139469910D01*
X298275577Y-139469910D01*
X298418435Y-139517530D01*
X298513673Y-139612768D01*
X298561292Y-139708006D01*
X298608911Y-139898482D01*
X298608911Y-140041339D01*
X298561292Y-140231815D01*
X298513673Y-140327053D01*
X298418435Y-140422291D01*
X298275577Y-140469910D01*
X298037482Y-140469910D01*
X298942244Y-139469910D02*
X299561292Y-139469910D01*
X299227958Y-139850863D01*
X299370815Y-139850863D01*
X299466054Y-139898482D01*
X299513673Y-139946101D01*
X299561292Y-140041339D01*
X299561292Y-140279434D01*
X299513673Y-140374672D01*
X299466054Y-140422291D01*
X299370815Y-140469910D01*
X299085101Y-140469910D01*
X298989863Y-140422291D01*
X298942244Y-140374672D01*
X296799387Y-144533910D02*
X296323196Y-144533910D01*
X296323196Y-143533910D01*
X297132720Y-144010101D02*
X297466054Y-144010101D01*
X297608911Y-144533910D02*
X297132720Y-144533910D01*
X297132720Y-143533910D01*
X297608911Y-143533910D01*
X298037482Y-144533910D02*
X298037482Y-143533910D01*
X298275577Y-143533910D01*
X298418435Y-143581530D01*
X298513673Y-143676768D01*
X298561292Y-143772006D01*
X298608911Y-143962482D01*
X298608911Y-144105339D01*
X298561292Y-144295815D01*
X298513673Y-144391053D01*
X298418435Y-144486291D01*
X298275577Y-144533910D01*
X298037482Y-144533910D01*
X299466054Y-143867244D02*
X299466054Y-144533910D01*
X299227958Y-143486291D02*
X298989863Y-144200577D01*
X299608911Y-144200577D01*
X302434815Y-183173530D02*
X301958625Y-183506863D01*
X302434815Y-183744958D02*
X301434815Y-183744958D01*
X301434815Y-183364006D01*
X301482435Y-183268768D01*
X301530054Y-183221149D01*
X301625292Y-183173530D01*
X301768149Y-183173530D01*
X301863387Y-183221149D01*
X301911006Y-183268768D01*
X301958625Y-183364006D01*
X301958625Y-183744958D01*
X301911006Y-182744958D02*
X301911006Y-182411625D01*
X302434815Y-182268768D02*
X302434815Y-182744958D01*
X301434815Y-182744958D01*
X301434815Y-182268768D01*
X302530054Y-182078291D02*
X302530054Y-181316387D01*
X302434815Y-180506863D02*
X301958625Y-180840196D01*
X302434815Y-181078291D02*
X301434815Y-181078291D01*
X301434815Y-180697339D01*
X301482435Y-180602101D01*
X301530054Y-180554482D01*
X301625292Y-180506863D01*
X301768149Y-180506863D01*
X301863387Y-180554482D01*
X301911006Y-180602101D01*
X301958625Y-180697339D01*
X301958625Y-181078291D01*
X302434815Y-179554482D02*
X302434815Y-180125910D01*
X302434815Y-179840196D02*
X301434815Y-179840196D01*
X301577673Y-179935434D01*
X301672911Y-180030672D01*
X301720530Y-180125910D01*
X176074565Y-126158613D02*
X176788851Y-126158613D01*
X176931708Y-126206232D01*
X177026946Y-126301470D01*
X177074565Y-126444327D01*
X177074565Y-126539565D01*
X176503137Y-125539565D02*
X176455518Y-125634803D01*
X176407899Y-125682422D01*
X176312661Y-125730041D01*
X176265042Y-125730041D01*
X176169804Y-125682422D01*
X176122185Y-125634803D01*
X176074565Y-125539565D01*
X176074565Y-125349089D01*
X176122185Y-125253851D01*
X176169804Y-125206232D01*
X176265042Y-125158613D01*
X176312661Y-125158613D01*
X176407899Y-125206232D01*
X176455518Y-125253851D01*
X176503137Y-125349089D01*
X176503137Y-125539565D01*
X176550756Y-125634803D01*
X176598375Y-125682422D01*
X176693613Y-125730041D01*
X176884089Y-125730041D01*
X176979327Y-125682422D01*
X177026946Y-125634803D01*
X177074565Y-125539565D01*
X177074565Y-125349089D01*
X177026946Y-125253851D01*
X176979327Y-125206232D01*
X176884089Y-125158613D01*
X176693613Y-125158613D01*
X176598375Y-125206232D01*
X176550756Y-125253851D01*
X176503137Y-125349089D01*
X154075101Y-138782660D02*
X154075101Y-139496946D01*
X154027482Y-139639803D01*
X153932244Y-139735041D01*
X153789387Y-139782660D01*
X153694149Y-139782660D01*
X154598911Y-139782660D02*
X154789387Y-139782660D01*
X154884625Y-139735041D01*
X154932244Y-139687422D01*
X155027482Y-139544565D01*
X155075101Y-139354089D01*
X155075101Y-138973137D01*
X155027482Y-138877899D01*
X154979863Y-138830280D01*
X154884625Y-138782660D01*
X154694149Y-138782660D01*
X154598911Y-138830280D01*
X154551292Y-138877899D01*
X154503673Y-138973137D01*
X154503673Y-139211232D01*
X154551292Y-139306470D01*
X154598911Y-139354089D01*
X154694149Y-139401708D01*
X154884625Y-139401708D01*
X154979863Y-139354089D01*
X155027482Y-139306470D01*
X155075101Y-139211232D01*
X35734815Y-183078291D02*
X35258625Y-183411625D01*
X35734815Y-183649720D02*
X34734815Y-183649720D01*
X34734815Y-183268768D01*
X34782435Y-183173530D01*
X34830054Y-183125910D01*
X34925292Y-183078291D01*
X35068149Y-183078291D01*
X35163387Y-183125910D01*
X35211006Y-183173530D01*
X35258625Y-183268768D01*
X35258625Y-183649720D01*
X35211006Y-182649720D02*
X35211006Y-182316387D01*
X35734815Y-182173530D02*
X35734815Y-182649720D01*
X34734815Y-182649720D01*
X34734815Y-182173530D01*
X35830054Y-181983053D02*
X35830054Y-181221149D01*
X35734815Y-180506863D02*
X35734815Y-180983053D01*
X34734815Y-180983053D01*
X35734815Y-179649720D02*
X35734815Y-180221149D01*
X35734815Y-179935434D02*
X34734815Y-179935434D01*
X34877673Y-180030672D01*
X34972911Y-180125910D01*
X35020530Y-180221149D01*
X176074565Y-115442988D02*
X176788851Y-115442988D01*
X176931708Y-115490607D01*
X177026946Y-115585845D01*
X177074565Y-115728702D01*
X177074565Y-115823940D01*
X176074565Y-115062035D02*
X176074565Y-114395369D01*
X177074565Y-114823940D01*
X163123911Y-139973285D02*
X163123911Y-140687571D01*
X163076292Y-140830428D01*
X162981054Y-140925666D01*
X162838196Y-140973285D01*
X162742958Y-140973285D01*
X164123911Y-140973285D02*
X163552482Y-140973285D01*
X163838196Y-140973285D02*
X163838196Y-139973285D01*
X163742958Y-140116143D01*
X163647720Y-140211381D01*
X163552482Y-140259000D01*
X164742958Y-139973285D02*
X164838196Y-139973285D01*
X164933435Y-140020905D01*
X164981054Y-140068524D01*
X165028673Y-140163762D01*
X165076292Y-140354238D01*
X165076292Y-140592333D01*
X165028673Y-140782809D01*
X164981054Y-140878047D01*
X164933435Y-140925666D01*
X164838196Y-140973285D01*
X164742958Y-140973285D01*
X164647720Y-140925666D01*
X164600101Y-140878047D01*
X164552482Y-140782809D01*
X164504863Y-140592333D01*
X164504863Y-140354238D01*
X164552482Y-140163762D01*
X164600101Y-140068524D01*
X164647720Y-140020905D01*
X164742958Y-139973285D01*
X178990815Y-183173530D02*
X178514625Y-183506863D01*
X178990815Y-183744958D02*
X177990815Y-183744958D01*
X177990815Y-183364006D01*
X178038435Y-183268768D01*
X178086054Y-183221149D01*
X178181292Y-183173530D01*
X178324149Y-183173530D01*
X178419387Y-183221149D01*
X178467006Y-183268768D01*
X178514625Y-183364006D01*
X178514625Y-183744958D01*
X178467006Y-182744958D02*
X178467006Y-182411625D01*
X178990815Y-182268768D02*
X178990815Y-182744958D01*
X177990815Y-182744958D01*
X177990815Y-182268768D01*
X179086054Y-182078291D02*
X179086054Y-181316387D01*
X178990815Y-180506863D02*
X178514625Y-180840196D01*
X178990815Y-181078291D02*
X177990815Y-181078291D01*
X177990815Y-180697339D01*
X178038435Y-180602101D01*
X178086054Y-180554482D01*
X178181292Y-180506863D01*
X178324149Y-180506863D01*
X178419387Y-180554482D01*
X178467006Y-180602101D01*
X178514625Y-180697339D01*
X178514625Y-181078291D01*
X178086054Y-180125910D02*
X178038435Y-180078291D01*
X177990815Y-179983053D01*
X177990815Y-179744958D01*
X178038435Y-179649720D01*
X178086054Y-179602101D01*
X178181292Y-179554482D01*
X178276530Y-179554482D01*
X178419387Y-179602101D01*
X178990815Y-180173530D01*
X178990815Y-179554482D01*
X150697065Y-126158613D02*
X151411351Y-126158613D01*
X151554208Y-126206232D01*
X151649446Y-126301470D01*
X151697065Y-126444327D01*
X151697065Y-126539565D01*
X150697065Y-125253851D02*
X150697065Y-125444327D01*
X150744685Y-125539565D01*
X150792304Y-125587184D01*
X150935161Y-125682422D01*
X151125637Y-125730041D01*
X151506589Y-125730041D01*
X151601827Y-125682422D01*
X151649446Y-125634803D01*
X151697065Y-125539565D01*
X151697065Y-125349089D01*
X151649446Y-125253851D01*
X151601827Y-125206232D01*
X151506589Y-125158613D01*
X151268494Y-125158613D01*
X151173256Y-125206232D01*
X151125637Y-125253851D01*
X151078018Y-125349089D01*
X151078018Y-125539565D01*
X151125637Y-125634803D01*
X151173256Y-125682422D01*
X151268494Y-125730041D01*
X172648911Y-138782660D02*
X172648911Y-139496946D01*
X172601292Y-139639803D01*
X172506054Y-139735041D01*
X172363196Y-139782660D01*
X172267958Y-139782660D01*
X173648911Y-139782660D02*
X173077482Y-139782660D01*
X173363196Y-139782660D02*
X173363196Y-138782660D01*
X173267958Y-138925518D01*
X173172720Y-139020756D01*
X173077482Y-139068375D01*
X174553673Y-138782660D02*
X174077482Y-138782660D01*
X174029863Y-139258851D01*
X174077482Y-139211232D01*
X174172720Y-139163613D01*
X174410815Y-139163613D01*
X174506054Y-139211232D01*
X174553673Y-139258851D01*
X174601292Y-139354089D01*
X174601292Y-139592184D01*
X174553673Y-139687422D01*
X174506054Y-139735041D01*
X174410815Y-139782660D01*
X174172720Y-139782660D01*
X174077482Y-139735041D01*
X174029863Y-139687422D01*
X159940815Y-183078291D02*
X159464625Y-183411625D01*
X159940815Y-183649720D02*
X158940815Y-183649720D01*
X158940815Y-183268768D01*
X158988435Y-183173530D01*
X159036054Y-183125910D01*
X159131292Y-183078291D01*
X159274149Y-183078291D01*
X159369387Y-183125910D01*
X159417006Y-183173530D01*
X159464625Y-183268768D01*
X159464625Y-183649720D01*
X159417006Y-182649720D02*
X159417006Y-182316387D01*
X159940815Y-182173530D02*
X159940815Y-182649720D01*
X158940815Y-182649720D01*
X158940815Y-182173530D01*
X160036054Y-181983053D02*
X160036054Y-181221149D01*
X159940815Y-180506863D02*
X159940815Y-180983053D01*
X158940815Y-180983053D01*
X159036054Y-180221149D02*
X158988435Y-180173530D01*
X158940815Y-180078291D01*
X158940815Y-179840196D01*
X158988435Y-179744958D01*
X159036054Y-179697339D01*
X159131292Y-179649720D01*
X159226530Y-179649720D01*
X159369387Y-179697339D01*
X159940815Y-180268768D01*
X159940815Y-179649720D01*
D11*
X27308435Y-141781530D02*
X21608435Y-141781530D01*
X27308435Y-137881530D02*
X21508435Y-137881530D01*
G36*
X22208435Y-138431530D02*
G01*
X21808435Y-138431530D01*
X21808435Y-138881530D01*
X21508435Y-139181530D01*
X21508435Y-137881530D01*
X22808435Y-137881530D01*
X22208435Y-138431530D01*
G37*
X22208435Y-138431530D02*
X21808435Y-138431530D01*
X21808435Y-138881530D01*
X21508435Y-139181530D01*
X21508435Y-137881530D01*
X22808435Y-137881530D01*
X22208435Y-138431530D01*
X27308435Y-145981530D02*
X21608435Y-145981530D01*
X27308435Y-142081530D02*
X21508435Y-142081530D01*
G36*
X22208435Y-142631530D02*
G01*
X21808435Y-142631530D01*
X21808435Y-143081530D01*
X21508435Y-143381530D01*
X21508435Y-142081530D01*
X22808435Y-142081530D01*
X22208435Y-142631530D01*
G37*
X22208435Y-142631530D02*
X21808435Y-142631530D01*
X21808435Y-143081530D01*
X21508435Y-143381530D01*
X21508435Y-142081530D01*
X22808435Y-142081530D01*
X22208435Y-142631530D01*
X306108435Y-137881530D02*
X300308435Y-137881530D01*
X306108435Y-141781530D02*
X300408435Y-141781530D01*
G36*
X301008435Y-138431530D02*
G01*
X300608435Y-138431530D01*
X300608435Y-138881530D01*
X300308435Y-139181530D01*
X300308435Y-137881530D01*
X301608435Y-137881530D01*
X301008435Y-138431530D01*
G37*
X301008435Y-138431530D02*
X300608435Y-138431530D01*
X300608435Y-138881530D01*
X300308435Y-139181530D01*
X300308435Y-137881530D01*
X301608435Y-137881530D01*
X301008435Y-138431530D01*
X306108435Y-142081530D02*
X300308435Y-142081530D01*
X306108435Y-145981530D02*
X300408435Y-145981530D01*
G36*
X301008435Y-142631530D02*
G01*
X300608435Y-142631530D01*
X300608435Y-143081530D01*
X300308435Y-143381530D01*
X300308435Y-142081530D01*
X301608435Y-142081530D01*
X301008435Y-142631530D01*
G37*
X301008435Y-142631530D02*
X300608435Y-142631530D01*
X300608435Y-143081530D01*
X300308435Y-143381530D01*
X300308435Y-142081530D01*
X301608435Y-142081530D01*
X301008435Y-142631530D01*
X293784595Y-191456890D02*
X291384595Y-191456890D01*
X303184595Y-191456890D02*
X300784595Y-191456890D01*
X298584595Y-191456890D02*
X295984595Y-191456890D01*
X303184595Y-187356890D02*
X303184595Y-191456890D01*
X291384595Y-183356890D02*
X291384595Y-179256890D01*
X291384595Y-191456890D02*
X291384595Y-187356890D01*
X303184595Y-183356890D02*
X303184595Y-179256890D01*
X303184595Y-179256890D02*
X291384595Y-179256890D01*
X300284595Y-185356890D02*
G75*
G03*
X300284595Y-185356890I-3000000J0D01*
G01*
D12*
X138683435Y-81525280D02*
X142963435Y-81525280D01*
X151083435Y-93925280D02*
X151083435Y-92995280D01*
X146803435Y-81525280D02*
X151083435Y-81525280D01*
X150303435Y-93925280D02*
X151083435Y-93925280D01*
X138683435Y-93925280D02*
X139463435Y-93925280D01*
X151083435Y-81525280D02*
X151083435Y-82455280D01*
X138683435Y-92995280D02*
X138683435Y-93925280D01*
X138683435Y-82455280D02*
X138683435Y-81525280D01*
X143303435Y-93925280D02*
X146463435Y-93925280D01*
D13*
X137083435Y-82000280D02*
G75*
G03*
X137083435Y-82000280I-100000J0D01*
G01*
D11*
X183287185Y-127765280D02*
X183287185Y-123885280D01*
X178817185Y-128935280D02*
X178817185Y-127885280D01*
X178817185Y-127885280D02*
X177827185Y-127885280D01*
X178817185Y-122715280D02*
X178817185Y-123765280D01*
X181317185Y-122715280D02*
X178817185Y-122715280D01*
X181317185Y-128935280D02*
X178817185Y-128935280D01*
D13*
X304936560Y-132459655D02*
G75*
G03*
X301536560Y-132459655I-1700000J-1700000D01*
G01*
D11*
X156468435Y-137135280D02*
X156468435Y-138125280D01*
X157518435Y-134635280D02*
X157518435Y-137135280D01*
X157518435Y-137135280D02*
X156468435Y-137135280D01*
X156348435Y-132665280D02*
X152468435Y-132665280D01*
X151298435Y-137135280D02*
X152348435Y-137135280D01*
X151298435Y-134635280D02*
X151298435Y-137135280D01*
X31883475Y-191456890D02*
X29283475Y-191456890D01*
X24683475Y-183356890D02*
X24683475Y-179256890D01*
X36483475Y-187356890D02*
X36483475Y-191456890D01*
X36483475Y-191456890D02*
X34083475Y-191456890D01*
X36483475Y-179256890D02*
X24683475Y-179256890D01*
X27083475Y-191456890D02*
X24683475Y-191456890D01*
X36483475Y-183356890D02*
X36483475Y-179256890D01*
X24683475Y-191456890D02*
X24683475Y-187356890D01*
X33583475Y-185356890D02*
G75*
G03*
X33583475Y-185356890I-3000000J0D01*
G01*
X178817185Y-117169655D02*
X177827185Y-117169655D01*
X178817185Y-118219655D02*
X178817185Y-117169655D01*
X181317185Y-118219655D02*
X178817185Y-118219655D01*
X183287185Y-117049655D02*
X183287185Y-113169655D01*
X181317185Y-111999655D02*
X178817185Y-111999655D01*
X178817185Y-111999655D02*
X178817185Y-113049655D01*
D13*
X22934907Y-104414780D02*
G75*
G03*
X26334907Y-104414780I1700000J1700000D01*
G01*
X134849060Y-25833530D02*
G75*
G03*
X138249060Y-25833530I1700000J1700000D01*
G01*
X232308435Y-30065905D02*
G75*
G03*
X228908435Y-30065905I-1700000J-1700000D01*
G01*
X98958435Y-30065905D02*
G75*
G03*
X95558435Y-30065905I-1700000J-1700000D01*
G01*
X162233435Y-104414780D02*
G75*
G03*
X165633435Y-104414780I1700000J1700000D01*
G01*
X79908435Y-108647155D02*
G75*
G03*
X76508435Y-108647155I-1700000J-1700000D01*
G01*
X203733435Y-132506530D02*
G75*
G03*
X200333435Y-132506530I-1700000J-1700000D01*
G01*
D11*
X167043435Y-135825905D02*
X167043435Y-138325905D01*
X160823435Y-138325905D02*
X161873435Y-138325905D01*
X165873435Y-133855905D02*
X161993435Y-133855905D01*
X165993435Y-138325905D02*
X165993435Y-139315905D01*
X160823435Y-135825905D02*
X160823435Y-138325905D01*
X167043435Y-138325905D02*
X165993435Y-138325905D01*
D13*
X184683435Y-53878405D02*
G75*
G03*
X181283435Y-53878405I-1700000J-1700000D01*
G01*
D12*
X176783435Y-82455280D02*
X176783435Y-81525280D01*
X181403435Y-93925280D02*
X184563435Y-93925280D01*
X184903435Y-81525280D02*
X189183435Y-81525280D01*
X176783435Y-81525280D02*
X181063435Y-81525280D01*
X189183435Y-81525280D02*
X189183435Y-82455280D01*
X176783435Y-93925280D02*
X177563435Y-93925280D01*
X188403435Y-93925280D02*
X189183435Y-93925280D01*
X189183435Y-93925280D02*
X189183435Y-92995280D01*
X176783435Y-92995280D02*
X176783435Y-93925280D01*
D13*
X175183435Y-82000280D02*
G75*
G03*
X175183435Y-82000280I-100000J0D01*
G01*
X146583435Y-53878405D02*
G75*
G03*
X143183435Y-53878405I-1700000J-1700000D01*
G01*
D11*
X179358475Y-191456890D02*
X176958475Y-191456890D01*
X167558475Y-191456890D02*
X167558475Y-187356890D01*
X169958475Y-191456890D02*
X167558475Y-191456890D01*
X167558475Y-183356890D02*
X167558475Y-179256890D01*
X174758475Y-191456890D02*
X172158475Y-191456890D01*
X179358475Y-187356890D02*
X179358475Y-191456890D01*
X179358475Y-179256890D02*
X167558475Y-179256890D01*
X179358475Y-183356890D02*
X179358475Y-179256890D01*
X176458475Y-185356890D02*
G75*
G03*
X176458475Y-185356890I-3000000J0D01*
G01*
D13*
X191999060Y-25833530D02*
G75*
G03*
X195399060Y-25833530I1700000J1700000D01*
G01*
D11*
X149049685Y-128935280D02*
X149049685Y-127885280D01*
X146549685Y-128935280D02*
X149049685Y-128935280D01*
X146549685Y-122715280D02*
X149049685Y-122715280D01*
X149049685Y-122715280D02*
X149049685Y-123765280D01*
X149049685Y-123765280D02*
X150039685Y-123765280D01*
X144579685Y-123885280D02*
X144579685Y-127765280D01*
X170348435Y-137135280D02*
X171398435Y-137135280D01*
X175518435Y-137135280D02*
X175518435Y-138125280D01*
X170348435Y-134635280D02*
X170348435Y-137135280D01*
X176568435Y-137135280D02*
X175518435Y-137135280D01*
X175398435Y-132665280D02*
X171518435Y-132665280D01*
X176568435Y-134635280D02*
X176568435Y-137135280D01*
D13*
X140630310Y-155081530D02*
G75*
G03*
X137230310Y-155081530I-1700000J-1700000D01*
G01*
X289458435Y-30065905D02*
G75*
G03*
X286058435Y-30065905I-1700000J-1700000D01*
G01*
X251358435Y-108647155D02*
G75*
G03*
X247958435Y-108647155I-1700000J-1700000D01*
G01*
G36*
X181743906Y-144436559D02*
G01*
X181852966Y-144480504D01*
X181935271Y-144560790D01*
X181991024Y-144658587D01*
X182017854Y-144718686D01*
X182062891Y-144822413D01*
X182123085Y-144962628D01*
X182195391Y-145132189D01*
X182276759Y-145323956D01*
X182364144Y-145530789D01*
X182427051Y-145680216D01*
X182534374Y-145933722D01*
X182623502Y-146140007D01*
X182696338Y-146303088D01*
X182754785Y-146426980D01*
X182800744Y-146515701D01*
X182836118Y-146573267D01*
X182862809Y-146603695D01*
X182865260Y-146605532D01*
X182904565Y-146630218D01*
X182985845Y-146678881D01*
X183103316Y-146748138D01*
X183251196Y-146834610D01*
X183423702Y-146934914D01*
X183615051Y-147045671D01*
X183819460Y-147163498D01*
X183829643Y-147169356D01*
X184085914Y-147317504D01*
X184297637Y-147441766D01*
X184468563Y-147544645D01*
X184602447Y-147628641D01*
X184703039Y-147696256D01*
X184774094Y-147749989D01*
X184819363Y-147792343D01*
X184842598Y-147825817D01*
X184847845Y-147847963D01*
X184829988Y-147884220D01*
X184786386Y-147936546D01*
X184780298Y-147942745D01*
X184729992Y-147983040D01*
X184670121Y-148003395D01*
X184580495Y-148009783D01*
X184553267Y-148009904D01*
X184457074Y-148004592D01*
X184372262Y-147984909D01*
X184277404Y-147944436D01*
X184201149Y-147904455D01*
X184127239Y-147863349D01*
X184013816Y-147799243D01*
X183868974Y-147716759D01*
X183700804Y-147620519D01*
X183517399Y-147515147D01*
X183326851Y-147405264D01*
X183293024Y-147385712D01*
X183106768Y-147278303D01*
X182930432Y-147177140D01*
X182771188Y-147086298D01*
X182636210Y-147009852D01*
X182532669Y-146951874D01*
X182467738Y-146916441D01*
X182458311Y-146911548D01*
X182424298Y-146897621D01*
X182373271Y-146882590D01*
X182301407Y-146865828D01*
X182204888Y-146846705D01*
X182079894Y-146824593D01*
X181922603Y-146798864D01*
X181729197Y-146768889D01*
X181495854Y-146734040D01*
X181218756Y-146693689D01*
X180894081Y-146647207D01*
X180587021Y-146603702D01*
X180175629Y-146545077D01*
X179814420Y-146492460D01*
X179504034Y-146445953D01*
X179245117Y-146405657D01*
X179038309Y-146371676D01*
X178884253Y-146344111D01*
X178783593Y-146323065D01*
X178738778Y-146309587D01*
X178656775Y-146249372D01*
X178615497Y-146184280D01*
X178602692Y-146121636D01*
X178625938Y-146077305D01*
X178651717Y-146054443D01*
X178725262Y-146012376D01*
X178807123Y-145985890D01*
X178855030Y-145986026D01*
X178954252Y-145994144D01*
X179101703Y-146009862D01*
X179294299Y-146032801D01*
X179528955Y-146062580D01*
X179802587Y-146098818D01*
X180112109Y-146141136D01*
X180449417Y-146188440D01*
X180735205Y-146228537D01*
X181004740Y-146265526D01*
X181253094Y-146298785D01*
X181475337Y-146327695D01*
X181666539Y-146351635D01*
X181821770Y-146369983D01*
X181936101Y-146382120D01*
X182004602Y-146387425D01*
X182022944Y-146386540D01*
X182018164Y-146356944D01*
X181993945Y-146282811D01*
X181952605Y-146170161D01*
X181896459Y-146025014D01*
X181827824Y-145853390D01*
X181749014Y-145661307D01*
X181685837Y-145510317D01*
X181599854Y-145304554D01*
X181521215Y-145112694D01*
X181452442Y-144941175D01*
X181396056Y-144796437D01*
X181354579Y-144684918D01*
X181330531Y-144613057D01*
X181325418Y-144589866D01*
X181349049Y-144505883D01*
X181418772Y-144450188D01*
X181532828Y-144423870D01*
X181596284Y-144421873D01*
X181743906Y-144436559D01*
G37*
G36*
X168996924Y-153655552D02*
G01*
X169013289Y-153583239D01*
X169045082Y-153536673D01*
X169080574Y-153512974D01*
X169157019Y-153466165D01*
X169267476Y-153400252D01*
X169405005Y-153319243D01*
X169562666Y-153227145D01*
X169733516Y-153127966D01*
X169910617Y-153025711D01*
X170087027Y-152924390D01*
X170255806Y-152828007D01*
X170410012Y-152740572D01*
X170542706Y-152666090D01*
X170646947Y-152608570D01*
X170715794Y-152572017D01*
X170716859Y-152571479D01*
X170955406Y-152474780D01*
X171235628Y-152402310D01*
X171549377Y-152354917D01*
X171888502Y-152333451D01*
X172244854Y-152338761D01*
X172610284Y-152371695D01*
X172621138Y-152373097D01*
X173051506Y-152446075D01*
X173472784Y-152550233D01*
X173879294Y-152682727D01*
X174265358Y-152840715D01*
X174625297Y-153021355D01*
X174953435Y-153221802D01*
X175244092Y-153439216D01*
X175491590Y-153670752D01*
X175686048Y-153907556D01*
X175806125Y-154098388D01*
X175884877Y-154274970D01*
X175927638Y-154452241D01*
X175939708Y-154618050D01*
X175919342Y-154829889D01*
X175852285Y-155014340D01*
X175736251Y-155176535D01*
X175656823Y-155252902D01*
X175601467Y-155293817D01*
X175504880Y-155357799D01*
X175373697Y-155440754D01*
X175214558Y-155538587D01*
X175034100Y-155647207D01*
X174838961Y-155762518D01*
X174688987Y-155849763D01*
X174466366Y-155978184D01*
X174285688Y-156081645D01*
X174141342Y-156162901D01*
X174027718Y-156224706D01*
X173939206Y-156269813D01*
X173870197Y-156300976D01*
X173815080Y-156320948D01*
X173768246Y-156332484D01*
X173724085Y-156338338D01*
X173688907Y-156340678D01*
X173570717Y-156339897D01*
X173479324Y-156319856D01*
X173413717Y-156289907D01*
X173365025Y-156262765D01*
X173273921Y-156211053D01*
X173144665Y-156137229D01*
X172981513Y-156043751D01*
X172788726Y-155933076D01*
X172570560Y-155807662D01*
X172331274Y-155669966D01*
X172075126Y-155522447D01*
X171806374Y-155367563D01*
X171529277Y-155207770D01*
X171248092Y-155045527D01*
X170967079Y-154883292D01*
X170690494Y-154723523D01*
X170422596Y-154568676D01*
X170167644Y-154421210D01*
X169929895Y-154283583D01*
X169713608Y-154158252D01*
X169523041Y-154047676D01*
X169362452Y-153954311D01*
X169236100Y-153880616D01*
X169148242Y-153829048D01*
X169103136Y-153802066D01*
X169100120Y-153800161D01*
X169029853Y-153744676D01*
X169006245Y-153700638D01*
X169834761Y-153700638D01*
X169859732Y-153715767D01*
X169928759Y-153756286D01*
X170038217Y-153820094D01*
X170184483Y-153905091D01*
X170363932Y-154009176D01*
X170572938Y-154130249D01*
X170807878Y-154266209D01*
X171065127Y-154414955D01*
X171341060Y-154574388D01*
X171632053Y-154742406D01*
X171722891Y-154794833D01*
X172066401Y-154993007D01*
X172365493Y-155165338D01*
X172623384Y-155313551D01*
X172843291Y-155439374D01*
X173028432Y-155544531D01*
X173182023Y-155630750D01*
X173307282Y-155699755D01*
X173407425Y-155753273D01*
X173485671Y-155793030D01*
X173545236Y-155820752D01*
X173589336Y-155838164D01*
X173621191Y-155846994D01*
X173644016Y-155848966D01*
X173661028Y-155845806D01*
X173672523Y-155840792D01*
X173715781Y-155817039D01*
X173799312Y-155769953D01*
X173915736Y-155703740D01*
X174057674Y-155622607D01*
X174217747Y-155530760D01*
X174349817Y-155454748D01*
X174520774Y-155354876D01*
X174680487Y-155259040D01*
X174821205Y-155172088D01*
X174935180Y-155098872D01*
X175014659Y-155044241D01*
X175046627Y-155018709D01*
X175170172Y-154869377D01*
X175240689Y-154706605D01*
X175258255Y-154529781D01*
X175222950Y-154338294D01*
X175155356Y-154171428D01*
X175020003Y-153954493D01*
X174834602Y-153745682D01*
X174603893Y-153547862D01*
X174332615Y-153363900D01*
X174025509Y-153196662D01*
X173687311Y-153049017D01*
X173322763Y-152923829D01*
X172936602Y-152823966D01*
X172922899Y-152820996D01*
X172802653Y-152797371D01*
X172687518Y-152780635D01*
X172563876Y-152769736D01*
X172418109Y-152763623D01*
X172236602Y-152761242D01*
X172147845Y-152761100D01*
X171965131Y-152762254D01*
X171809546Y-152767193D01*
X171673042Y-152778546D01*
X171547569Y-152798936D01*
X171425081Y-152830992D01*
X171297527Y-152877339D01*
X171156860Y-152940603D01*
X170995030Y-153023409D01*
X170803990Y-153128385D01*
X170575691Y-153258157D01*
X170511385Y-153295049D01*
X170336243Y-153396187D01*
X170178296Y-153488487D01*
X170043393Y-153568442D01*
X169937382Y-153632547D01*
X169866113Y-153677294D01*
X169835435Y-153699178D01*
X169834761Y-153700638D01*
X169006245Y-153700638D01*
X169000208Y-153689376D01*
X168996924Y-153655552D01*
G37*
G36*
X162888243Y-157656906D02*
G01*
X162934082Y-157671322D01*
X162968435Y-157689001D01*
X163046246Y-157731911D01*
X163163370Y-157797666D01*
X163315659Y-157883875D01*
X163498969Y-157988150D01*
X163709152Y-158108101D01*
X163942062Y-158241340D01*
X164193553Y-158385478D01*
X164459479Y-158538126D01*
X164735693Y-158696894D01*
X165018049Y-158859394D01*
X165302401Y-159023237D01*
X165584602Y-159186033D01*
X165860507Y-159345395D01*
X166125969Y-159498932D01*
X166376842Y-159644256D01*
X166608979Y-159778978D01*
X166818234Y-159900709D01*
X167000461Y-160007060D01*
X167151514Y-160095641D01*
X167267246Y-160164065D01*
X167343512Y-160209942D01*
X167375486Y-160230354D01*
X167429102Y-160297555D01*
X167435673Y-160372870D01*
X167399539Y-160444700D01*
X167325041Y-160501447D01*
X167266019Y-160522863D01*
X167230361Y-160521291D01*
X167143831Y-160512364D01*
X167010035Y-160496563D01*
X166832577Y-160474369D01*
X166615064Y-160446262D01*
X166361101Y-160412723D01*
X166074294Y-160374232D01*
X165758247Y-160331269D01*
X165416567Y-160284316D01*
X165052858Y-160233853D01*
X164670727Y-160180360D01*
X164273779Y-160124318D01*
X164243803Y-160120067D01*
X163847146Y-160063925D01*
X163465901Y-160010214D01*
X163103587Y-159959416D01*
X162763725Y-159912015D01*
X162449836Y-159868492D01*
X162165441Y-159829331D01*
X161914061Y-159795014D01*
X161699216Y-159766023D01*
X161524427Y-159742842D01*
X161393216Y-159725953D01*
X161309102Y-159715839D01*
X161275607Y-159712982D01*
X161275180Y-159713111D01*
X161272158Y-159717878D01*
X161274055Y-159724595D01*
X161284050Y-159735153D01*
X161305320Y-159751442D01*
X161341045Y-159775351D01*
X161394403Y-159808772D01*
X161468572Y-159853594D01*
X161566732Y-159911708D01*
X161692060Y-159985004D01*
X161847736Y-160075371D01*
X162036937Y-160184700D01*
X162262843Y-160314882D01*
X162528631Y-160467807D01*
X162837481Y-160645364D01*
X162997791Y-160737501D01*
X163344477Y-160937119D01*
X163646035Y-161111641D01*
X163905347Y-161262877D01*
X164125297Y-161392635D01*
X164308769Y-161502727D01*
X164458648Y-161594961D01*
X164577816Y-161671147D01*
X164669157Y-161733094D01*
X164735556Y-161782613D01*
X164779896Y-161821513D01*
X164805061Y-161851604D01*
X164813935Y-161874694D01*
X164814042Y-161877232D01*
X164798240Y-161914108D01*
X164763097Y-161964183D01*
X164691075Y-162013718D01*
X164585065Y-162038892D01*
X164460736Y-162039082D01*
X164333756Y-162013665D01*
X164259451Y-161984223D01*
X164207203Y-161956436D01*
X164113381Y-161904322D01*
X163982136Y-161830285D01*
X163817614Y-161736730D01*
X163623964Y-161626061D01*
X163405335Y-161500682D01*
X163165876Y-161362999D01*
X162909735Y-161215414D01*
X162641060Y-161060334D01*
X162363999Y-160900162D01*
X162082702Y-160737302D01*
X161801317Y-160574159D01*
X161523992Y-160413138D01*
X161254875Y-160256642D01*
X160998116Y-160107076D01*
X160757862Y-159966845D01*
X160538262Y-159838353D01*
X160343465Y-159724005D01*
X160177618Y-159626204D01*
X160044871Y-159547355D01*
X159949372Y-159489863D01*
X159895270Y-159456132D01*
X159884844Y-159448753D01*
X159838676Y-159377069D01*
X159843583Y-159302412D01*
X159897055Y-159234370D01*
X159949550Y-159201608D01*
X160052229Y-159151430D01*
X162985777Y-159554799D01*
X163381081Y-159608988D01*
X163761011Y-159660744D01*
X164122025Y-159709603D01*
X164460579Y-159755099D01*
X164773130Y-159796767D01*
X165056134Y-159834141D01*
X165306047Y-159866758D01*
X165519328Y-159894150D01*
X165692431Y-159915854D01*
X165821815Y-159931403D01*
X165903935Y-159940333D01*
X165935248Y-159942178D01*
X165935409Y-159942084D01*
X165941117Y-159917035D01*
X165940026Y-159915917D01*
X165914860Y-159900860D01*
X165845834Y-159860606D01*
X165736809Y-159797381D01*
X165591643Y-159713414D01*
X165414195Y-159610932D01*
X165208324Y-159492164D01*
X164977890Y-159359337D01*
X164726751Y-159214679D01*
X164458767Y-159060417D01*
X164263663Y-158948168D01*
X163984446Y-158787283D01*
X163718161Y-158633314D01*
X163468831Y-158488622D01*
X163240476Y-158355564D01*
X163037118Y-158236499D01*
X162862778Y-158133787D01*
X162721479Y-158049786D01*
X162617240Y-157986856D01*
X162554085Y-157947354D01*
X162536848Y-157935252D01*
X162488969Y-157866405D01*
X162474931Y-157805379D01*
X162499788Y-157738623D01*
X162566036Y-157686751D01*
X162661187Y-157653411D01*
X162772752Y-157642247D01*
X162888243Y-157656906D01*
G37*
G36*
X163162718Y-169367443D02*
G01*
X162939309Y-169239602D01*
X162699411Y-169101414D01*
X162529968Y-169003296D01*
X162281962Y-168859653D01*
X162047951Y-168724636D01*
X161832303Y-168600728D01*
X161639382Y-168490413D01*
X161473556Y-168396175D01*
X161339190Y-168320498D01*
X161240650Y-168265866D01*
X161182301Y-168234762D01*
X161167780Y-168228318D01*
X161141085Y-168241817D01*
X161069572Y-168281374D01*
X160956012Y-168345399D01*
X160803173Y-168432298D01*
X160613825Y-168540480D01*
X160390739Y-168668353D01*
X160136683Y-168814323D01*
X159854428Y-168976800D01*
X159546744Y-169154190D01*
X159216399Y-169344902D01*
X158866165Y-169547343D01*
X158498810Y-169759921D01*
X158117105Y-169981045D01*
X157920543Y-170095005D01*
X157531868Y-170320190D01*
X157155591Y-170537768D01*
X156794528Y-170746132D01*
X156451496Y-170943672D01*
X156129312Y-171128782D01*
X155830793Y-171299852D01*
X155558755Y-171455276D01*
X155316017Y-171593445D01*
X155105394Y-171712751D01*
X154929703Y-171811586D01*
X154791761Y-171888341D01*
X154694385Y-171941410D01*
X154640393Y-171969183D01*
X154630662Y-171973066D01*
X154602398Y-171968552D01*
X154550513Y-171948564D01*
X154472100Y-171911525D01*
X154364254Y-171855859D01*
X154224067Y-171779990D01*
X154090052Y-171705395D01*
X154714269Y-171705395D01*
X154817623Y-171650890D01*
X154852387Y-171631318D01*
X154932202Y-171585597D01*
X155054518Y-171515204D01*
X155216782Y-171421616D01*
X155416443Y-171306308D01*
X155650949Y-171170758D01*
X155917749Y-171016442D01*
X156214292Y-170844836D01*
X156538026Y-170657417D01*
X156886399Y-170455661D01*
X157256861Y-170241045D01*
X157646859Y-170015046D01*
X158053843Y-169779139D01*
X158475260Y-169534802D01*
X158897466Y-169289945D01*
X160961107Y-168092993D01*
X161373031Y-168092993D01*
X162577556Y-168795119D01*
X162812593Y-168931943D01*
X163033284Y-169060066D01*
X163235060Y-169176859D01*
X163413349Y-169279693D01*
X163563583Y-169365940D01*
X163681190Y-169432972D01*
X163761601Y-169478158D01*
X163800245Y-169498871D01*
X163802878Y-169499923D01*
X163805962Y-169473490D01*
X163808744Y-169396041D01*
X163811200Y-169271597D01*
X163813304Y-169104179D01*
X163815034Y-168897809D01*
X163816365Y-168656508D01*
X163817274Y-168384298D01*
X163817735Y-168085198D01*
X163817725Y-167763231D01*
X163817220Y-167422417D01*
X163816637Y-167199792D01*
X163809600Y-164896986D01*
X163465613Y-164696298D01*
X163341969Y-164624895D01*
X163235147Y-164564588D01*
X163154143Y-164520349D01*
X163107951Y-164497152D01*
X163101254Y-164494879D01*
X163097023Y-164521358D01*
X163092795Y-164597537D01*
X163088681Y-164718079D01*
X163084794Y-164877647D01*
X163081246Y-165070902D01*
X163078148Y-165292509D01*
X163075615Y-165537128D01*
X163073756Y-165799423D01*
X163073735Y-165803381D01*
X163066588Y-167112615D01*
X162219809Y-167602804D01*
X161373031Y-168092993D01*
X160961107Y-168092993D01*
X162873955Y-166983504D01*
X162880993Y-164693106D01*
X162881824Y-164343412D01*
X162882142Y-164010017D01*
X162881971Y-163696954D01*
X162881336Y-163408260D01*
X162880260Y-163147968D01*
X162878768Y-162920114D01*
X162876885Y-162728733D01*
X162874634Y-162577859D01*
X162872040Y-162471529D01*
X162869127Y-162413777D01*
X162867234Y-162404121D01*
X162841557Y-162417815D01*
X162770696Y-162457647D01*
X162657110Y-162522201D01*
X162503258Y-162610063D01*
X162311602Y-162719817D01*
X162084602Y-162850050D01*
X161824717Y-162999346D01*
X161534407Y-163166290D01*
X161216133Y-163349469D01*
X160872355Y-163547466D01*
X160505532Y-163758867D01*
X160118125Y-163982258D01*
X159712594Y-164216223D01*
X159291400Y-164459348D01*
X158857001Y-164710218D01*
X158787390Y-164750431D01*
X154728343Y-167095326D01*
X154721306Y-169400361D01*
X154714269Y-171705395D01*
X154090052Y-171705395D01*
X154048636Y-171682342D01*
X153835053Y-171561338D01*
X153580412Y-171415404D01*
X153281808Y-171242963D01*
X153242620Y-171220261D01*
X152996121Y-171077733D01*
X152763587Y-170943881D01*
X152549424Y-170821198D01*
X152358033Y-170712180D01*
X152193819Y-170619320D01*
X152061185Y-170545111D01*
X151964536Y-170492048D01*
X151908273Y-170462625D01*
X151895556Y-170457349D01*
X151868686Y-170471002D01*
X151796973Y-170510727D01*
X151683162Y-170574944D01*
X151529997Y-170662075D01*
X151340225Y-170770542D01*
X151116590Y-170898765D01*
X150861837Y-171045167D01*
X150578712Y-171208168D01*
X150269959Y-171386190D01*
X149938325Y-171577655D01*
X149586553Y-171780984D01*
X149217390Y-171994599D01*
X148833580Y-172216920D01*
X148585494Y-172360743D01*
X148153111Y-172611208D01*
X147741919Y-172848836D01*
X147354103Y-173072386D01*
X146991849Y-173280616D01*
X146657342Y-173472286D01*
X146352766Y-173646154D01*
X146080307Y-173800978D01*
X145842149Y-173935516D01*
X145640477Y-174048528D01*
X145477478Y-174138772D01*
X145355334Y-174205006D01*
X145276233Y-174245989D01*
X145242357Y-174260479D01*
X145241940Y-174260489D01*
X145211844Y-174246566D01*
X145136634Y-174206353D01*
X145018757Y-174141252D01*
X144860664Y-174052664D01*
X144749063Y-173989603D01*
X145358137Y-173989603D01*
X145433815Y-173948670D01*
X145465502Y-173930612D01*
X145542276Y-173886396D01*
X145661617Y-173817479D01*
X145821007Y-173725321D01*
X146017926Y-173611383D01*
X146249854Y-173477122D01*
X146514272Y-173324000D01*
X146808661Y-173153474D01*
X147130501Y-172967004D01*
X147477273Y-172766050D01*
X147846457Y-172552072D01*
X148235535Y-172326527D01*
X148641985Y-172090877D01*
X149063290Y-171846580D01*
X149496930Y-171595096D01*
X149513500Y-171585485D01*
X151686536Y-170325164D01*
X152128993Y-170325164D01*
X152152171Y-170341481D01*
X152217563Y-170381955D01*
X152319634Y-170443370D01*
X152452849Y-170522514D01*
X152611672Y-170616172D01*
X152790568Y-170721131D01*
X152984002Y-170834175D01*
X153186438Y-170952092D01*
X153392341Y-171071668D01*
X153596175Y-171189688D01*
X153792405Y-171302938D01*
X153975497Y-171408204D01*
X154139913Y-171502274D01*
X154280120Y-171581931D01*
X154390581Y-171643964D01*
X154465761Y-171685157D01*
X154500125Y-171702296D01*
X154501312Y-171702590D01*
X154504460Y-171675980D01*
X154507462Y-171598363D01*
X154510281Y-171473770D01*
X154512882Y-171306231D01*
X154515228Y-171099778D01*
X154517282Y-170858440D01*
X154519009Y-170586249D01*
X154520371Y-170287236D01*
X154521334Y-169965431D01*
X154521860Y-169624865D01*
X154521951Y-169409091D01*
X154521951Y-167114067D01*
X154138192Y-166891107D01*
X154007799Y-166815872D01*
X153894476Y-166751477D01*
X153806553Y-166702576D01*
X153752362Y-166673825D01*
X153739167Y-166668146D01*
X153736145Y-166694786D01*
X153733321Y-166771193D01*
X153730756Y-166892094D01*
X153728509Y-167052218D01*
X153726641Y-167246294D01*
X153725211Y-167469049D01*
X153724280Y-167715214D01*
X153723906Y-167979515D01*
X153723901Y-168012310D01*
X153723789Y-168320191D01*
X153723346Y-168577694D01*
X153722409Y-168789481D01*
X153720816Y-168960210D01*
X153718406Y-169094542D01*
X153715017Y-169197137D01*
X153710487Y-169272656D01*
X153704655Y-169325759D01*
X153697357Y-169361105D01*
X153688434Y-169383355D01*
X153677722Y-169397169D01*
X153675743Y-169398985D01*
X153640616Y-169422910D01*
X153563948Y-169470522D01*
X153451939Y-169538123D01*
X153310789Y-169622015D01*
X153146700Y-169718500D01*
X152965870Y-169823880D01*
X152877693Y-169874949D01*
X152693989Y-169981667D01*
X152526662Y-170079897D01*
X152381405Y-170166216D01*
X152263911Y-170237200D01*
X152179871Y-170289427D01*
X152134980Y-170319474D01*
X152128993Y-170325164D01*
X151686536Y-170325164D01*
X153517509Y-169263233D01*
X153524547Y-166975007D01*
X153525403Y-166625443D01*
X153525794Y-166292150D01*
X153525739Y-165979167D01*
X153525259Y-165690537D01*
X153524375Y-165430297D01*
X153523107Y-165202490D01*
X153521476Y-165011154D01*
X153519502Y-164860331D01*
X153517206Y-164754060D01*
X153514608Y-164696383D01*
X153512928Y-164686781D01*
X153487476Y-164700305D01*
X153416818Y-164739939D01*
X153303410Y-164804270D01*
X153149711Y-164891888D01*
X152958176Y-165001383D01*
X152731264Y-165131343D01*
X152471432Y-165280357D01*
X152181136Y-165447016D01*
X151862835Y-165629907D01*
X151518985Y-165827620D01*
X151152043Y-166038745D01*
X150764468Y-166261871D01*
X150358716Y-166495585D01*
X149937244Y-166738479D01*
X149502510Y-166989141D01*
X149426861Y-167032772D01*
X145359451Y-169378763D01*
X145358137Y-173989603D01*
X144749063Y-173989603D01*
X144664804Y-173941992D01*
X144433624Y-173810638D01*
X144169575Y-173660005D01*
X143875104Y-173491494D01*
X143552662Y-173306507D01*
X143204697Y-173106447D01*
X142833657Y-172892716D01*
X142441993Y-172666716D01*
X142032152Y-172429849D01*
X141606584Y-172183517D01*
X141167738Y-171929123D01*
X140996382Y-171829689D01*
X136813500Y-169401780D01*
X136806476Y-166912365D01*
X136806062Y-166765687D01*
X136992937Y-166765687D01*
X136992946Y-166977734D01*
X136993518Y-169268688D01*
X141058872Y-171626166D01*
X141495272Y-171879176D01*
X141918871Y-172124654D01*
X142327214Y-172361182D01*
X142717847Y-172587343D01*
X143088315Y-172801719D01*
X143436163Y-173002892D01*
X143758937Y-173189446D01*
X144054182Y-173359962D01*
X144319442Y-173513023D01*
X144552265Y-173647211D01*
X144750193Y-173761109D01*
X144910774Y-173853298D01*
X145031553Y-173922362D01*
X145110073Y-173966883D01*
X145143882Y-173985444D01*
X145145023Y-173985917D01*
X145148108Y-173959422D01*
X145150891Y-173881913D01*
X145153347Y-173757412D01*
X145155452Y-173589944D01*
X145157182Y-173383532D01*
X145158512Y-173142198D01*
X145159420Y-172869966D01*
X145159881Y-172570859D01*
X145159870Y-172248900D01*
X145159363Y-171908112D01*
X145158782Y-171686554D01*
X145151745Y-169384920D01*
X141082420Y-167035850D01*
X140645722Y-166783795D01*
X140221949Y-166539268D01*
X139813552Y-166303679D01*
X139422978Y-166078439D01*
X139052679Y-165864958D01*
X138705104Y-165664647D01*
X138382703Y-165478916D01*
X138087924Y-165309176D01*
X137823219Y-165156838D01*
X137591036Y-165023311D01*
X137393825Y-164910006D01*
X137234036Y-164818334D01*
X137114119Y-164749706D01*
X137036523Y-164705531D01*
X137003698Y-164687221D01*
X137002734Y-164686781D01*
X137001159Y-164713627D01*
X136999670Y-164791473D01*
X136998285Y-164916281D01*
X136997020Y-165084013D01*
X136995894Y-165290631D01*
X136994923Y-165532097D01*
X136994125Y-165804374D01*
X136993516Y-166103423D01*
X136993114Y-166425207D01*
X136992937Y-166765687D01*
X136806062Y-166765687D01*
X136799681Y-164504039D01*
X137130497Y-164504039D01*
X137159051Y-164523030D01*
X137232100Y-164567445D01*
X137346651Y-164635562D01*
X137499712Y-164725660D01*
X137688289Y-164836017D01*
X137909389Y-164964913D01*
X138160020Y-165110626D01*
X138437190Y-165271435D01*
X138737904Y-165445619D01*
X139059170Y-165631455D01*
X139397995Y-165827224D01*
X139751387Y-166031203D01*
X140116352Y-166241672D01*
X140489898Y-166456908D01*
X140869031Y-166675191D01*
X141250759Y-166894800D01*
X141632089Y-167114013D01*
X142010028Y-167331109D01*
X142381584Y-167544366D01*
X142743762Y-167752063D01*
X143093571Y-167952480D01*
X143428018Y-168143894D01*
X143744109Y-168324584D01*
X144038852Y-168492830D01*
X144309254Y-168646909D01*
X144552322Y-168785101D01*
X144765063Y-168905685D01*
X144944484Y-169006938D01*
X145087593Y-169087139D01*
X145191396Y-169144568D01*
X145252901Y-169177503D01*
X145269598Y-169185078D01*
X145296869Y-169170283D01*
X145369326Y-169129393D01*
X145484491Y-169063832D01*
X145639887Y-168975026D01*
X145833034Y-168864397D01*
X146061456Y-168733371D01*
X146322674Y-168583372D01*
X146614210Y-168415822D01*
X146933587Y-168232148D01*
X147278325Y-168033773D01*
X147645947Y-167822121D01*
X148033975Y-167598617D01*
X148439931Y-167364685D01*
X148861337Y-167121748D01*
X149295715Y-166871232D01*
X149348715Y-166840659D01*
X149783984Y-166589488D01*
X150206205Y-166345690D01*
X150612929Y-166110689D01*
X151001704Y-165885907D01*
X151370077Y-165672766D01*
X151715597Y-165472689D01*
X152035813Y-165287098D01*
X152328273Y-165117416D01*
X152590526Y-164965065D01*
X152820119Y-164831468D01*
X153014601Y-164718048D01*
X153171521Y-164626226D01*
X153288427Y-164557426D01*
X153362868Y-164513069D01*
X153392391Y-164494579D01*
X153392802Y-164494148D01*
X153369470Y-164478836D01*
X153301392Y-164437845D01*
X153191554Y-164372895D01*
X153042940Y-164285707D01*
X152858538Y-164178005D01*
X152641332Y-164051508D01*
X152394308Y-163907939D01*
X152120452Y-163749019D01*
X151822750Y-163576469D01*
X151504187Y-163392011D01*
X151167748Y-163197368D01*
X150816420Y-162994259D01*
X150453188Y-162784406D01*
X150081038Y-162569532D01*
X149702955Y-162351358D01*
X149321926Y-162131605D01*
X148940935Y-161911994D01*
X148562969Y-161694248D01*
X148191012Y-161480087D01*
X147828052Y-161271234D01*
X147744241Y-161223040D01*
X148192965Y-161223040D01*
X148216265Y-161238808D01*
X148284249Y-161280258D01*
X148393896Y-161345626D01*
X148542184Y-161433150D01*
X148726090Y-161541066D01*
X148942591Y-161667611D01*
X149188667Y-161811023D01*
X149461294Y-161969537D01*
X149757451Y-162141392D01*
X150074115Y-162324824D01*
X150408264Y-162518070D01*
X150756875Y-162719367D01*
X150855050Y-162776001D01*
X151209453Y-162980441D01*
X151551853Y-163178036D01*
X151879072Y-163366948D01*
X152187929Y-163545338D01*
X152475248Y-163711367D01*
X152737849Y-163863197D01*
X152972552Y-163998990D01*
X153176181Y-164116906D01*
X153345555Y-164215107D01*
X153477497Y-164291755D01*
X153568827Y-164345010D01*
X153616366Y-164373035D01*
X153620705Y-164375677D01*
X153723901Y-164439801D01*
X153723901Y-166412620D01*
X154157325Y-166663886D01*
X154297225Y-166743751D01*
X154421601Y-166812415D01*
X154522358Y-166865597D01*
X154591402Y-166899017D01*
X154620090Y-166908604D01*
X154646703Y-166894358D01*
X154718499Y-166853993D01*
X154833007Y-166788929D01*
X154987758Y-166700587D01*
X155180280Y-166590386D01*
X155408104Y-166459745D01*
X155668759Y-166310086D01*
X155959775Y-166142826D01*
X156278682Y-165959388D01*
X156623009Y-165761189D01*
X156990286Y-165549651D01*
X157378043Y-165326193D01*
X157783810Y-165092235D01*
X158205116Y-164849197D01*
X158639491Y-164598498D01*
X158699776Y-164563695D01*
X159135343Y-164312145D01*
X159557856Y-164067963D01*
X159964866Y-163832571D01*
X160353925Y-163607394D01*
X160722585Y-163393852D01*
X161068398Y-163193369D01*
X161388917Y-163007366D01*
X161681692Y-162837266D01*
X161944276Y-162684492D01*
X162174222Y-162550466D01*
X162369080Y-162436610D01*
X162526402Y-162344348D01*
X162643742Y-162275100D01*
X162718650Y-162230290D01*
X162748679Y-162211341D01*
X162749162Y-162210824D01*
X162725618Y-162195750D01*
X162656824Y-162154629D01*
X162545225Y-162088878D01*
X162393265Y-161999917D01*
X162203391Y-161889162D01*
X161978047Y-161758033D01*
X161719677Y-161607948D01*
X161430728Y-161440325D01*
X161113643Y-161256581D01*
X160770868Y-161058136D01*
X160404848Y-160846407D01*
X160018028Y-160622813D01*
X159612853Y-160388772D01*
X159191767Y-160145702D01*
X158757216Y-159895022D01*
X158679203Y-159850035D01*
X157140449Y-158962754D01*
X157576689Y-158962754D01*
X157600057Y-158978031D01*
X157668144Y-159019043D01*
X157777973Y-159084058D01*
X157926568Y-159171344D01*
X158110953Y-159279169D01*
X158328151Y-159405799D01*
X158575188Y-159549504D01*
X158849087Y-159708552D01*
X159146871Y-159881209D01*
X159465566Y-160065744D01*
X159802194Y-160260425D01*
X160153780Y-160463519D01*
X160321705Y-160560440D01*
X163066588Y-162144284D01*
X163073790Y-163190608D01*
X163080993Y-164236933D01*
X163486575Y-164473308D01*
X163620144Y-164551021D01*
X163736144Y-164618263D01*
X163826670Y-164670470D01*
X163883818Y-164703082D01*
X163900167Y-164711991D01*
X163924465Y-164698722D01*
X163993972Y-164659353D01*
X164106230Y-164595298D01*
X164258782Y-164507970D01*
X164449168Y-164398783D01*
X164674930Y-164269152D01*
X164933611Y-164120489D01*
X165222753Y-163954208D01*
X165539896Y-163771724D01*
X165882584Y-163574449D01*
X166248357Y-163363797D01*
X166634758Y-163141183D01*
X167039328Y-162908019D01*
X167459610Y-162665720D01*
X167893145Y-162415699D01*
X167945454Y-162385527D01*
X168380958Y-162134251D01*
X168803768Y-161890162D01*
X169211402Y-161654700D01*
X169601380Y-161429302D01*
X169971219Y-161215407D01*
X170318440Y-161014454D01*
X170640560Y-160827881D01*
X170935100Y-160657126D01*
X171199577Y-160503628D01*
X171431512Y-160368825D01*
X171628422Y-160254156D01*
X171787827Y-160161059D01*
X171907246Y-160090972D01*
X171984198Y-160045335D01*
X172016201Y-160025584D01*
X172016851Y-160025072D01*
X172011014Y-160014856D01*
X171982919Y-159992378D01*
X171930934Y-159956675D01*
X171853424Y-159906781D01*
X171748755Y-159841733D01*
X171615291Y-159760567D01*
X171451399Y-159662319D01*
X171255445Y-159546024D01*
X171025793Y-159410718D01*
X170760810Y-159255438D01*
X170458860Y-159079218D01*
X170118311Y-158881096D01*
X169737526Y-158660106D01*
X169314873Y-158415285D01*
X168848716Y-158145668D01*
X168337421Y-157850292D01*
X167999083Y-157654982D01*
X167562876Y-157403387D01*
X167139271Y-157159347D01*
X166730747Y-156924279D01*
X166339784Y-156699597D01*
X165968858Y-156486717D01*
X165620450Y-156287053D01*
X165297036Y-156102020D01*
X165001097Y-155933034D01*
X164735109Y-155781509D01*
X164501552Y-155648861D01*
X164302905Y-155536504D01*
X164141645Y-155445854D01*
X164020251Y-155378326D01*
X163941202Y-155335335D01*
X163906976Y-155318295D01*
X163905916Y-155318060D01*
X163878081Y-155331652D01*
X163806196Y-155370789D01*
X163693651Y-155433521D01*
X163543834Y-155517896D01*
X163360133Y-155621963D01*
X163145937Y-155743770D01*
X162904635Y-155881366D01*
X162639615Y-156032800D01*
X162354266Y-156196121D01*
X162051976Y-156369376D01*
X161736135Y-156550615D01*
X161410130Y-156737887D01*
X161077350Y-156929240D01*
X160741184Y-157122723D01*
X160405020Y-157316385D01*
X160072247Y-157508274D01*
X159746254Y-157696438D01*
X159430429Y-157878927D01*
X159128161Y-158053790D01*
X158842838Y-158219074D01*
X158577848Y-158372829D01*
X158336581Y-158513103D01*
X158122426Y-158637945D01*
X157938769Y-158745404D01*
X157789002Y-158833528D01*
X157676510Y-158900367D01*
X157604685Y-158943968D01*
X157576913Y-158962380D01*
X157576689Y-158962754D01*
X157140449Y-158962754D01*
X154610203Y-157503756D01*
X151401772Y-159354694D01*
X151014697Y-159578122D01*
X150640971Y-159794090D01*
X150283345Y-160000996D01*
X149944574Y-160197236D01*
X149627409Y-160381208D01*
X149334605Y-160551308D01*
X149068915Y-160705933D01*
X148833093Y-160843480D01*
X148629890Y-160962346D01*
X148462061Y-161060928D01*
X148332359Y-161137623D01*
X148243537Y-161190827D01*
X148198349Y-161218938D01*
X148192965Y-161223040D01*
X147744241Y-161223040D01*
X147477073Y-161069409D01*
X147141061Y-160876335D01*
X146823002Y-160693732D01*
X146525881Y-160523323D01*
X146252684Y-160366829D01*
X146006397Y-160225971D01*
X145790006Y-160102471D01*
X145606495Y-159998050D01*
X145458851Y-159914430D01*
X145350060Y-159853333D01*
X145283106Y-159816479D01*
X145261125Y-159805465D01*
X145232463Y-159818441D01*
X145159509Y-159857245D01*
X145045238Y-159920158D01*
X144892624Y-160005460D01*
X144704644Y-160111432D01*
X144484270Y-160236355D01*
X144234479Y-160378510D01*
X143958246Y-160536177D01*
X143658545Y-160707638D01*
X143338352Y-160891173D01*
X143000640Y-161085064D01*
X142648386Y-161287590D01*
X142284564Y-161497033D01*
X141912149Y-161711673D01*
X141534116Y-161929792D01*
X141153440Y-162149671D01*
X140773096Y-162369589D01*
X140396058Y-162587828D01*
X140025303Y-162802669D01*
X139663804Y-163012393D01*
X139314536Y-163215280D01*
X138980476Y-163409611D01*
X138664596Y-163593667D01*
X138369874Y-163765729D01*
X138099282Y-163924077D01*
X137855797Y-164066993D01*
X137642393Y-164192758D01*
X137462046Y-164299651D01*
X137317729Y-164385955D01*
X137212419Y-164449949D01*
X137149089Y-164489915D01*
X137130497Y-164504039D01*
X136799681Y-164504039D01*
X136799452Y-164422949D01*
X141005128Y-161995602D01*
X141449652Y-161739179D01*
X141881620Y-161490270D01*
X142298598Y-161250265D01*
X142698154Y-161020555D01*
X143077855Y-160802528D01*
X143435268Y-160597576D01*
X143767960Y-160407088D01*
X144073499Y-160232453D01*
X144349451Y-160075063D01*
X144593384Y-159936306D01*
X144802865Y-159817573D01*
X144975460Y-159720254D01*
X145108738Y-159645739D01*
X145200265Y-159595418D01*
X145247608Y-159570681D01*
X145253736Y-159568254D01*
X145284999Y-159581679D01*
X145359364Y-159620286D01*
X145472366Y-159681576D01*
X145619537Y-159763051D01*
X145796411Y-159862212D01*
X145998520Y-159976559D01*
X146221398Y-160103593D01*
X146460578Y-160240816D01*
X146613914Y-160329230D01*
X146860393Y-160471334D01*
X147092842Y-160604792D01*
X147306857Y-160727113D01*
X147498034Y-160835809D01*
X147661971Y-160928387D01*
X147794264Y-161002359D01*
X147890511Y-161055234D01*
X147946309Y-161084523D01*
X147958679Y-161089744D01*
X147985366Y-161076168D01*
X148056951Y-161036599D01*
X148170694Y-160972606D01*
X148323855Y-160885759D01*
X148513694Y-160777629D01*
X148737471Y-160649784D01*
X148992445Y-160503796D01*
X149275877Y-160341233D01*
X149585026Y-160163666D01*
X149917151Y-159972664D01*
X150269514Y-159769798D01*
X150639373Y-159556637D01*
X151023988Y-159334752D01*
X151284570Y-159184300D01*
X151765214Y-158907000D01*
X152213456Y-158648994D01*
X152627979Y-158411029D01*
X153007465Y-158193848D01*
X153350597Y-157998198D01*
X153656055Y-157824822D01*
X153922524Y-157674465D01*
X154148684Y-157547874D01*
X154333219Y-157445791D01*
X154474810Y-157368963D01*
X154572139Y-157318135D01*
X154623889Y-157294050D01*
X154631942Y-157292132D01*
X154664356Y-157307949D01*
X154739916Y-157348824D01*
X154854145Y-157412223D01*
X155002564Y-157495615D01*
X155180696Y-157596468D01*
X155384064Y-157712249D01*
X155608189Y-157840426D01*
X155848594Y-157978467D01*
X156010929Y-158071974D01*
X156258211Y-158214352D01*
X156491079Y-158347979D01*
X156705203Y-158470401D01*
X156896253Y-158579163D01*
X157059899Y-158671813D01*
X157191814Y-158745896D01*
X157287666Y-158798959D01*
X157343127Y-158828549D01*
X157355540Y-158834018D01*
X157380692Y-158819912D01*
X157450753Y-158779864D01*
X157562973Y-158715460D01*
X157714601Y-158628285D01*
X157902886Y-158519923D01*
X158125078Y-158391960D01*
X158378426Y-158245981D01*
X158660180Y-158083571D01*
X158967588Y-157906315D01*
X159297901Y-157715798D01*
X159648368Y-157513605D01*
X160016238Y-157301322D01*
X160398760Y-157080533D01*
X160614740Y-156955849D01*
X161004762Y-156730893D01*
X161382136Y-156513654D01*
X161744071Y-156305716D01*
X162087779Y-156108665D01*
X162410470Y-155924085D01*
X162709356Y-155753562D01*
X162981647Y-155598681D01*
X163224553Y-155461026D01*
X163435287Y-155342183D01*
X163611057Y-155243737D01*
X163749077Y-155167273D01*
X163846555Y-155114375D01*
X163900704Y-155086630D01*
X163910940Y-155082664D01*
X163951068Y-155096043D01*
X164029363Y-155133073D01*
X164136795Y-155189091D01*
X164264333Y-155259434D01*
X164363955Y-155316575D01*
X164496941Y-155393741D01*
X164612527Y-155460180D01*
X164702721Y-155511348D01*
X164759528Y-155542703D01*
X164775470Y-155550486D01*
X164778471Y-155524178D01*
X164781689Y-155450093D01*
X164784945Y-155335492D01*
X164788059Y-155187636D01*
X164790853Y-155013783D01*
X164792938Y-154841873D01*
X164797622Y-154389953D01*
X164979156Y-154389953D01*
X164979546Y-155032137D01*
X164979937Y-155674321D01*
X168629475Y-157779522D01*
X169043607Y-158018451D01*
X169445155Y-158250198D01*
X169831489Y-158473245D01*
X170199982Y-158686069D01*
X170548005Y-158887149D01*
X170872929Y-159074967D01*
X171172126Y-159247999D01*
X171442967Y-159404727D01*
X171682824Y-159543628D01*
X171889069Y-159663183D01*
X172059072Y-159761871D01*
X172190206Y-159838170D01*
X172279842Y-159890561D01*
X172325351Y-159917522D01*
X172330385Y-159920681D01*
X172341038Y-159930110D01*
X172350112Y-159945099D01*
X172357734Y-159969828D01*
X172364032Y-160008474D01*
X172369136Y-160065214D01*
X172373171Y-160144226D01*
X172376268Y-160249688D01*
X172378554Y-160385777D01*
X172380157Y-160556671D01*
X172381205Y-160766548D01*
X172381826Y-161019584D01*
X172382149Y-161319958D01*
X172382283Y-161613097D01*
X172382810Y-163269554D01*
X172746909Y-163481482D01*
X172874291Y-163554957D01*
X172985011Y-163617558D01*
X173070337Y-163664446D01*
X173121537Y-163690784D01*
X173131805Y-163694754D01*
X173134892Y-163668115D01*
X173137675Y-163590466D01*
X173140132Y-163465833D01*
X173142237Y-163298243D01*
X173143967Y-163091723D01*
X173145297Y-162850299D01*
X173146204Y-162577999D01*
X173146663Y-162278848D01*
X173146658Y-162149366D01*
X173350484Y-162149366D01*
X173350848Y-162481002D01*
X173351810Y-162778923D01*
X173353346Y-163040144D01*
X173355434Y-163261680D01*
X173358051Y-163440543D01*
X173361173Y-163573749D01*
X173364776Y-163658312D01*
X173368839Y-163691245D01*
X173369448Y-163691564D01*
X173395549Y-163676998D01*
X173466808Y-163636254D01*
X173580763Y-163570754D01*
X173734954Y-163481922D01*
X173926921Y-163371180D01*
X174154203Y-163239949D01*
X174414339Y-163089652D01*
X174704869Y-162921712D01*
X175023332Y-162737551D01*
X175367269Y-162538591D01*
X175734218Y-162326255D01*
X176121719Y-162101964D01*
X176527312Y-161867142D01*
X176948536Y-161623210D01*
X177382930Y-161371591D01*
X177455641Y-161329468D01*
X181516991Y-158976597D01*
X181517521Y-156685643D01*
X181517486Y-156335865D01*
X181517228Y-156002355D01*
X181516763Y-155689151D01*
X181516108Y-155400292D01*
X181515278Y-155139815D01*
X181514291Y-154911758D01*
X181513163Y-154720160D01*
X181511910Y-154569058D01*
X181510550Y-154462490D01*
X181509097Y-154404493D01*
X181508186Y-154394690D01*
X181483692Y-154408217D01*
X181413986Y-154447860D01*
X181301518Y-154512207D01*
X181148737Y-154599848D01*
X180958092Y-154709373D01*
X180732033Y-154839372D01*
X180473009Y-154988434D01*
X180183468Y-155155150D01*
X179865860Y-155338108D01*
X179522635Y-155535898D01*
X179156242Y-155747111D01*
X178769129Y-155970335D01*
X178363746Y-156204161D01*
X177942543Y-156447178D01*
X177507968Y-156697976D01*
X177428500Y-156743845D01*
X173358679Y-159093000D01*
X173351642Y-161396895D01*
X173350741Y-161787002D01*
X173350484Y-162149366D01*
X173146658Y-162149366D01*
X173146651Y-161956875D01*
X173146143Y-161616104D01*
X173145564Y-161396072D01*
X173138528Y-159096046D01*
X169230835Y-156839877D01*
X168800074Y-156591185D01*
X168380530Y-156348997D01*
X167974842Y-156114837D01*
X167585652Y-155890227D01*
X167215598Y-155676689D01*
X166867321Y-155475746D01*
X166543460Y-155288920D01*
X166246655Y-155117735D01*
X165979545Y-154963712D01*
X165744771Y-154828374D01*
X165544973Y-154713245D01*
X165382789Y-154619845D01*
X165260861Y-154549698D01*
X165181827Y-154504327D01*
X165151149Y-154486831D01*
X164979156Y-154389953D01*
X164797622Y-154389953D01*
X164799610Y-154198206D01*
X165112376Y-154198206D01*
X165134171Y-154213165D01*
X165200683Y-154253874D01*
X165308941Y-154318611D01*
X165455970Y-154405652D01*
X165638797Y-154513277D01*
X165854449Y-154639763D01*
X166099952Y-154783387D01*
X166372333Y-154942428D01*
X166668619Y-155115164D01*
X166985837Y-155299872D01*
X167321012Y-155494830D01*
X167671172Y-155698316D01*
X168033343Y-155908608D01*
X168404552Y-156123983D01*
X168781826Y-156342721D01*
X169162191Y-156563097D01*
X169542674Y-156783392D01*
X169920301Y-157001881D01*
X170292099Y-157216843D01*
X170655096Y-157426556D01*
X171006316Y-157629298D01*
X171342788Y-157823346D01*
X171661538Y-158006979D01*
X171959592Y-158178474D01*
X172233977Y-158336110D01*
X172481720Y-158478163D01*
X172699847Y-158602912D01*
X172885385Y-158708635D01*
X173035361Y-158793609D01*
X173146801Y-158856113D01*
X173216732Y-158894423D01*
X173242016Y-158906842D01*
X173267712Y-158893414D01*
X173338601Y-158853862D01*
X173452223Y-158789599D01*
X173606116Y-158702037D01*
X173797820Y-158592589D01*
X174024872Y-158462667D01*
X174284814Y-158313683D01*
X174575182Y-158147050D01*
X174893517Y-157964181D01*
X175237357Y-157766488D01*
X175604242Y-157555382D01*
X175991710Y-157332277D01*
X176397300Y-157098585D01*
X176818552Y-156855719D01*
X177253004Y-156605090D01*
X177321702Y-156565445D01*
X177757763Y-156313686D01*
X178180771Y-156069260D01*
X178588279Y-155833591D01*
X178977841Y-155608101D01*
X179347011Y-155394212D01*
X179693343Y-155193346D01*
X180014390Y-155006927D01*
X180307707Y-154836377D01*
X180570847Y-154683118D01*
X180801365Y-154548573D01*
X180996813Y-154434165D01*
X181154746Y-154341315D01*
X181272718Y-154271446D01*
X181348282Y-154225982D01*
X181378992Y-154206343D01*
X181379580Y-154205694D01*
X181356038Y-154189450D01*
X181287693Y-154147625D01*
X181177535Y-154081937D01*
X181028551Y-153994105D01*
X180843730Y-153885847D01*
X180626061Y-153758881D01*
X180378533Y-153614924D01*
X180104133Y-153455695D01*
X179805850Y-153282912D01*
X179486674Y-153098293D01*
X179149591Y-152903555D01*
X178797592Y-152700418D01*
X178433664Y-152490598D01*
X178060796Y-152275814D01*
X177681977Y-152057784D01*
X177300194Y-151838227D01*
X176918437Y-151618859D01*
X176539694Y-151401399D01*
X176166954Y-151187565D01*
X175803204Y-150979076D01*
X175451435Y-150777649D01*
X175114633Y-150585001D01*
X174795788Y-150402852D01*
X174497889Y-150232920D01*
X174223923Y-150076921D01*
X173976879Y-149936575D01*
X173917745Y-149903084D01*
X174363121Y-149903084D01*
X178030023Y-152019533D01*
X181696924Y-154135983D01*
X181710684Y-154955917D01*
X181724443Y-155775851D01*
X182109708Y-156004604D01*
X182240529Y-156081705D01*
X182354916Y-156148037D01*
X182444477Y-156198818D01*
X182500817Y-156229267D01*
X182515770Y-156235908D01*
X182515795Y-156235693D01*
X182728885Y-156235693D01*
X183121030Y-156008256D01*
X183189596Y-155968502D01*
X183302850Y-155902856D01*
X183457857Y-155813019D01*
X183651684Y-155700689D01*
X183881396Y-155567568D01*
X184144059Y-155415356D01*
X184436740Y-155245752D01*
X184756504Y-155060458D01*
X185100418Y-154861173D01*
X185465546Y-154649597D01*
X185848956Y-154427432D01*
X186247712Y-154196376D01*
X186658881Y-153958131D01*
X187079529Y-153714396D01*
X187207596Y-153640191D01*
X190902016Y-151499563D01*
X190902016Y-146908419D01*
X190769678Y-146984653D01*
X190731633Y-147006599D01*
X190648512Y-147054570D01*
X190522905Y-147127071D01*
X190357399Y-147222607D01*
X190154585Y-147339684D01*
X189917050Y-147476808D01*
X189647383Y-147632483D01*
X189348173Y-147805217D01*
X189022009Y-147993513D01*
X188671480Y-148195877D01*
X188299174Y-148410816D01*
X187907680Y-148636834D01*
X187499587Y-148872438D01*
X187077484Y-149116131D01*
X186683112Y-149343817D01*
X182728885Y-151626747D01*
X182728885Y-156235693D01*
X182515795Y-156235693D01*
X182518855Y-156209456D01*
X182521637Y-156131987D01*
X182524092Y-156007524D01*
X182526196Y-155840086D01*
X182527926Y-155633696D01*
X182529258Y-155392374D01*
X182530166Y-155120141D01*
X182530627Y-154821019D01*
X182530618Y-154499028D01*
X182530114Y-154158190D01*
X182529530Y-153935192D01*
X182522493Y-151631923D01*
X178477206Y-149295718D01*
X178041415Y-149044077D01*
X177618305Y-148799822D01*
X177210350Y-148564380D01*
X176820028Y-148339178D01*
X176449814Y-148125641D01*
X176102184Y-147925198D01*
X175779614Y-147739273D01*
X175484581Y-147569294D01*
X175219561Y-147416687D01*
X174987029Y-147282879D01*
X174789461Y-147169296D01*
X174629335Y-147077365D01*
X174509125Y-147008512D01*
X174431308Y-146964163D01*
X174398360Y-146945746D01*
X174397520Y-146945338D01*
X174389755Y-146952452D01*
X174383175Y-146983104D01*
X174377698Y-147040891D01*
X174373237Y-147129412D01*
X174369711Y-147252262D01*
X174367033Y-147413041D01*
X174365121Y-147615346D01*
X174363890Y-147862774D01*
X174363256Y-148158923D01*
X174363121Y-148417123D01*
X174363121Y-149903084D01*
X173917745Y-149903084D01*
X173759746Y-149813599D01*
X173575512Y-149709712D01*
X173427166Y-149626630D01*
X173317697Y-149566074D01*
X173250092Y-149529759D01*
X173227451Y-149519235D01*
X173200591Y-149533673D01*
X173129082Y-149573923D01*
X173015927Y-149638254D01*
X172864128Y-149724933D01*
X172676687Y-149832232D01*
X172456607Y-149958418D01*
X172206888Y-150101760D01*
X171930535Y-150260528D01*
X171630548Y-150432991D01*
X171309930Y-150617417D01*
X170971683Y-150812076D01*
X170618809Y-151015236D01*
X170254311Y-151225167D01*
X169881191Y-151440138D01*
X169502450Y-151658417D01*
X169121092Y-151878274D01*
X168740118Y-152097977D01*
X168362530Y-152315797D01*
X167991331Y-152530000D01*
X167629522Y-152738858D01*
X167280107Y-152940638D01*
X166946086Y-153133610D01*
X166630463Y-153316042D01*
X166336239Y-153486205D01*
X166066417Y-153642366D01*
X165823999Y-153782794D01*
X165611987Y-153905760D01*
X165433383Y-154009531D01*
X165291189Y-154092377D01*
X165188408Y-154152567D01*
X165128042Y-154188369D01*
X165112376Y-154198206D01*
X164799610Y-154198206D01*
X164800283Y-154133260D01*
X169007418Y-151704711D01*
X169451845Y-151448269D01*
X169883597Y-151199337D01*
X170300251Y-150959305D01*
X170699382Y-150729562D01*
X171078567Y-150511496D01*
X171435381Y-150306497D01*
X171767400Y-150115953D01*
X172072201Y-149941254D01*
X172347360Y-149783787D01*
X172590452Y-149644943D01*
X172799054Y-149526110D01*
X172970741Y-149428677D01*
X173103091Y-149354032D01*
X173193678Y-149303565D01*
X173240079Y-149278664D01*
X173245835Y-149276163D01*
X173278758Y-149289362D01*
X173350888Y-149325998D01*
X173453977Y-149381631D01*
X173579777Y-149451820D01*
X173703163Y-149522359D01*
X174129210Y-149768556D01*
X174142970Y-148230329D01*
X174146619Y-147876880D01*
X174150854Y-147564434D01*
X174155621Y-147295052D01*
X174160864Y-147070795D01*
X174166529Y-146893723D01*
X174172562Y-146765897D01*
X174172889Y-146761950D01*
X174524983Y-146761950D01*
X174528661Y-146769046D01*
X174532212Y-146771938D01*
X174560172Y-146788622D01*
X174632588Y-146830999D01*
X174746462Y-146897336D01*
X174898797Y-146985897D01*
X175086596Y-147094949D01*
X175306862Y-147222757D01*
X175556598Y-147367586D01*
X175832806Y-147527702D01*
X176132490Y-147701370D01*
X176452652Y-147886857D01*
X176790295Y-148082427D01*
X177142422Y-148286346D01*
X177506036Y-148496880D01*
X177878139Y-148712293D01*
X178255734Y-148930853D01*
X178635825Y-149150823D01*
X179015413Y-149370471D01*
X179391502Y-149588060D01*
X179761095Y-149801857D01*
X180121195Y-150010128D01*
X180468803Y-150211137D01*
X180800924Y-150403151D01*
X181114560Y-150584435D01*
X181406713Y-150753254D01*
X181674387Y-150907874D01*
X181914584Y-151046561D01*
X182124308Y-151167579D01*
X182300560Y-151269195D01*
X182440345Y-151349675D01*
X182540664Y-151407282D01*
X182598520Y-151440284D01*
X182612205Y-151447837D01*
X182636410Y-151434570D01*
X182705827Y-151395206D01*
X182817997Y-151331156D01*
X182970465Y-151243835D01*
X183160771Y-151134656D01*
X183386460Y-151005033D01*
X183645073Y-150856378D01*
X183934154Y-150690106D01*
X184251245Y-150507630D01*
X184593889Y-150310363D01*
X184959628Y-150099718D01*
X185346006Y-149877109D01*
X185750565Y-149643950D01*
X186170848Y-149401654D01*
X186604397Y-149151633D01*
X186657492Y-149121009D01*
X187093049Y-148869717D01*
X187515914Y-148625613D01*
X187923606Y-148390135D01*
X188313645Y-148164724D01*
X188683548Y-147950815D01*
X189030836Y-147749848D01*
X189353026Y-147563261D01*
X189647639Y-147392491D01*
X189912193Y-147238978D01*
X190144207Y-147104159D01*
X190341200Y-146989472D01*
X190500690Y-146896356D01*
X190620198Y-146826248D01*
X190697242Y-146780587D01*
X190729341Y-146760812D01*
X190730007Y-146760292D01*
X190724236Y-146750113D01*
X190696270Y-146727709D01*
X190644472Y-146692117D01*
X190567204Y-146642370D01*
X190462831Y-146577502D01*
X190329714Y-146496548D01*
X190166217Y-146398543D01*
X189970703Y-146282521D01*
X189741534Y-146147516D01*
X189477073Y-145992563D01*
X189175684Y-145816696D01*
X188835730Y-145618949D01*
X188455572Y-145398358D01*
X188033575Y-145153957D01*
X187568101Y-144884779D01*
X187057513Y-144589860D01*
X186712239Y-144390581D01*
X186275992Y-144139011D01*
X185852338Y-143894998D01*
X185443756Y-143659956D01*
X185052724Y-143435301D01*
X184681723Y-143222446D01*
X184333231Y-143022807D01*
X184009729Y-142837799D01*
X183713695Y-142668836D01*
X183447608Y-142517334D01*
X183213949Y-142384708D01*
X183015196Y-142272371D01*
X182853829Y-142181740D01*
X182732327Y-142114230D01*
X182653169Y-142071254D01*
X182618836Y-142054228D01*
X182617763Y-142053995D01*
X182589739Y-142067703D01*
X182516548Y-142107544D01*
X182400670Y-142172101D01*
X182244585Y-142259956D01*
X182050774Y-142369693D01*
X181821715Y-142499895D01*
X181559889Y-142649144D01*
X181267776Y-142816025D01*
X180947856Y-142999120D01*
X180602608Y-143197011D01*
X180234513Y-143408283D01*
X179846050Y-143631518D01*
X179439700Y-143865300D01*
X179017941Y-144108211D01*
X178583255Y-144358834D01*
X178523849Y-144393106D01*
X178008530Y-144690447D01*
X177538834Y-144961552D01*
X177112688Y-145207656D01*
X176728023Y-145429992D01*
X176382767Y-145629794D01*
X176074851Y-145808296D01*
X175802202Y-145966733D01*
X175562751Y-146106339D01*
X175354426Y-146228347D01*
X175175157Y-146333992D01*
X175022874Y-146424507D01*
X174895505Y-146501128D01*
X174790979Y-146565087D01*
X174707227Y-146617619D01*
X174642177Y-146659958D01*
X174593758Y-146693338D01*
X174559900Y-146718993D01*
X174538532Y-146738158D01*
X174527583Y-146752065D01*
X174524983Y-146761950D01*
X174172889Y-146761950D01*
X174178909Y-146689377D01*
X174184248Y-146666415D01*
X174214172Y-146646904D01*
X174288650Y-146601942D01*
X174404734Y-146533221D01*
X174559476Y-146442437D01*
X174749929Y-146331282D01*
X174973143Y-146201451D01*
X175226172Y-146054638D01*
X175506067Y-145892536D01*
X175809880Y-145716840D01*
X176134663Y-145529242D01*
X176477468Y-145331438D01*
X176835348Y-145125121D01*
X177205353Y-144911985D01*
X177584536Y-144693723D01*
X177969950Y-144472030D01*
X178358645Y-144248599D01*
X178747674Y-144025124D01*
X179134089Y-143803300D01*
X179514942Y-143584820D01*
X179887285Y-143371377D01*
X180248170Y-143164666D01*
X180594649Y-142966381D01*
X180923774Y-142778216D01*
X181232596Y-142601864D01*
X181518168Y-142439019D01*
X181777542Y-142291375D01*
X182007770Y-142160626D01*
X182205904Y-142048466D01*
X182368995Y-141956589D01*
X182494096Y-141886688D01*
X182578259Y-141840458D01*
X182618535Y-141819592D01*
X182621543Y-141818525D01*
X182648859Y-141831998D01*
X182720886Y-141871283D01*
X182834666Y-141934683D01*
X182987241Y-142020499D01*
X183175653Y-142127034D01*
X183396943Y-142252589D01*
X183648154Y-142395465D01*
X183926328Y-142553966D01*
X184228506Y-142726391D01*
X184551732Y-142911044D01*
X184893046Y-143106227D01*
X185249491Y-143310240D01*
X185618109Y-143521386D01*
X185995941Y-143737966D01*
X186380030Y-143958283D01*
X186767418Y-144180638D01*
X187155147Y-144403333D01*
X187540259Y-144624669D01*
X187919795Y-144842950D01*
X188290798Y-145056475D01*
X188650310Y-145263548D01*
X188995372Y-145462470D01*
X189323027Y-145651543D01*
X189630317Y-145829068D01*
X189914284Y-145993348D01*
X190171969Y-146142684D01*
X190400415Y-146275378D01*
X190596664Y-146389732D01*
X190757757Y-146484047D01*
X190880737Y-146556626D01*
X190962646Y-146605771D01*
X190991453Y-146623692D01*
X191094649Y-146690162D01*
X191094649Y-151614494D01*
X190991453Y-151681821D01*
X190941493Y-151712653D01*
X190848377Y-151768264D01*
X190715055Y-151846952D01*
X190544478Y-151947012D01*
X190339596Y-152066742D01*
X190103359Y-152204439D01*
X189838718Y-152358401D01*
X189548624Y-152526924D01*
X189236026Y-152708306D01*
X188903876Y-152900843D01*
X188555123Y-153102832D01*
X188192719Y-153312572D01*
X187819612Y-153528358D01*
X187438755Y-153748489D01*
X187053097Y-153971260D01*
X186665589Y-154194969D01*
X186279181Y-154417914D01*
X185896823Y-154638391D01*
X185521467Y-154854697D01*
X185156062Y-155065130D01*
X184803559Y-155267986D01*
X184466908Y-155461563D01*
X184149060Y-155644158D01*
X183852965Y-155814068D01*
X183581574Y-155969589D01*
X183337836Y-156109020D01*
X183124703Y-156230656D01*
X182945125Y-156332796D01*
X182802052Y-156413736D01*
X182698435Y-156471774D01*
X182637224Y-156505206D01*
X182620865Y-156513110D01*
X182583932Y-156499663D01*
X182508148Y-156462675D01*
X182402031Y-156406630D01*
X182274098Y-156336011D01*
X182150987Y-156265805D01*
X181724443Y-156019039D01*
X181710684Y-157564587D01*
X181696924Y-159110135D01*
X177500283Y-161543268D01*
X177056315Y-161800498D01*
X176624765Y-162050192D01*
X176208075Y-162290951D01*
X175808683Y-162521381D01*
X175429030Y-162740083D01*
X175071556Y-162945660D01*
X174738701Y-163136717D01*
X174432906Y-163311856D01*
X174156611Y-163469680D01*
X173912255Y-163608793D01*
X173702279Y-163727797D01*
X173529123Y-163825296D01*
X173395227Y-163899893D01*
X173303032Y-163950191D01*
X173254977Y-163974793D01*
X173248603Y-163977128D01*
X173207372Y-163964002D01*
X173127993Y-163927200D01*
X173019527Y-163871344D01*
X172891034Y-163801054D01*
X172787661Y-163742043D01*
X172381756Y-163506233D01*
X172381756Y-164189454D01*
X172381288Y-164406678D01*
X172379646Y-164575155D01*
X172376471Y-164701168D01*
X172371405Y-164791001D01*
X172364089Y-164850939D01*
X172354164Y-164887267D01*
X172341273Y-164906267D01*
X172340846Y-164906626D01*
X172309060Y-164927098D01*
X172232917Y-164973059D01*
X172115359Y-165042810D01*
X171959328Y-165134652D01*
X171767763Y-165246885D01*
X171543608Y-165377812D01*
X171289803Y-165525732D01*
X171009288Y-165688946D01*
X170705006Y-165865756D01*
X170379897Y-166054463D01*
X170036903Y-166253366D01*
X169678965Y-166460768D01*
X169309023Y-166674969D01*
X168930020Y-166894270D01*
X168544896Y-167116972D01*
X168156593Y-167341375D01*
X167768052Y-167565782D01*
X167382213Y-167788491D01*
X167002019Y-168007806D01*
X166630410Y-168222026D01*
X166270328Y-168429452D01*
X165924713Y-168628385D01*
X165596507Y-168817127D01*
X165288652Y-168993978D01*
X165004087Y-169157238D01*
X164745756Y-169305210D01*
X164516598Y-169436193D01*
X164319555Y-169548489D01*
X164157568Y-169640398D01*
X164033578Y-169710222D01*
X163950527Y-169756262D01*
X163911355Y-169776818D01*
X163908704Y-169777778D01*
X163877305Y-169764304D01*
X163802824Y-169725543D01*
X163689692Y-169663987D01*
X163542342Y-169582125D01*
X163396947Y-169500308D01*
X164015992Y-169500308D01*
X164476935Y-169233573D01*
X164554099Y-169188898D01*
X164675838Y-169118387D01*
X164839108Y-169023803D01*
X165040866Y-168906909D01*
X165278069Y-168769470D01*
X165547674Y-168613248D01*
X165846638Y-168440006D01*
X166171917Y-168251509D01*
X166520469Y-168049520D01*
X166889250Y-167835802D01*
X167275218Y-167612119D01*
X167675328Y-167380234D01*
X168086539Y-167141910D01*
X168505807Y-166898911D01*
X168556621Y-166869460D01*
X172175364Y-164772082D01*
X172182401Y-162471421D01*
X172183560Y-162054614D01*
X172184296Y-161689677D01*
X172184564Y-161373441D01*
X172184325Y-161102739D01*
X172183536Y-160874403D01*
X172182156Y-160685265D01*
X172180141Y-160532158D01*
X172177451Y-160411915D01*
X172174044Y-160321367D01*
X172169877Y-160257348D01*
X172164910Y-160216689D01*
X172159099Y-160196222D01*
X172152403Y-160192781D01*
X172152275Y-160192855D01*
X172124804Y-160208786D01*
X172052147Y-160250807D01*
X171936783Y-160317487D01*
X171781188Y-160407394D01*
X171587840Y-160519098D01*
X171359218Y-160651167D01*
X171097798Y-160802170D01*
X170806059Y-160970677D01*
X170486478Y-161155256D01*
X170141532Y-161354476D01*
X169773700Y-161566906D01*
X169385460Y-161791115D01*
X168979287Y-162025672D01*
X168557662Y-162269145D01*
X168123060Y-162520104D01*
X168065552Y-162553311D01*
X164015992Y-164891673D01*
X164015992Y-169500308D01*
X163396947Y-169500308D01*
X163365207Y-169482447D01*
X163162718Y-169367443D01*
G37*
G36*
X144665596Y-162406343D02*
G01*
X144784963Y-162456011D01*
X144814638Y-162478505D01*
X144857150Y-162548587D01*
X144857928Y-162630464D01*
X144818618Y-162702052D01*
X144796674Y-162719953D01*
X144745116Y-162741161D01*
X144651923Y-162767882D01*
X144529798Y-162796865D01*
X144391442Y-162824859D01*
X144374928Y-162827893D01*
X144142873Y-162872294D01*
X143951422Y-162914694D01*
X143786458Y-162959005D01*
X143633868Y-163009144D01*
X143479534Y-163069023D01*
X143429188Y-163090151D01*
X143202967Y-163198832D01*
X142999683Y-163320766D01*
X142825756Y-163450688D01*
X142687609Y-163583330D01*
X142591660Y-163713427D01*
X142549804Y-163811373D01*
X142533226Y-163908197D01*
X142546990Y-163989064D01*
X142596613Y-164072799D01*
X142642818Y-164128754D01*
X142774208Y-164240848D01*
X142944869Y-164329370D01*
X143142870Y-164390929D01*
X143356277Y-164422136D01*
X143573158Y-164419602D01*
X143638403Y-164411561D01*
X143756446Y-164391239D01*
X143866602Y-164365850D01*
X143978280Y-164331860D01*
X144100891Y-164285736D01*
X144243842Y-164223942D01*
X144416544Y-164142945D01*
X144624155Y-164041316D01*
X144888197Y-163915738D01*
X145121723Y-163817323D01*
X145339019Y-163741265D01*
X145554371Y-163682758D01*
X145782065Y-163636996D01*
X145867238Y-163623113D01*
X146202906Y-163591733D01*
X146542754Y-163598534D01*
X146878475Y-163641327D01*
X147201766Y-163717923D01*
X147504320Y-163826131D01*
X147777834Y-163963764D01*
X148014000Y-164128631D01*
X148108846Y-164214030D01*
X148204216Y-164311731D01*
X148267641Y-164389462D01*
X148309482Y-164462456D01*
X148340100Y-164545949D01*
X148344372Y-164560342D01*
X148375377Y-164730693D01*
X148362039Y-164891945D01*
X148305550Y-165057118D01*
X148192621Y-165247808D01*
X148028802Y-165432502D01*
X147818121Y-165608819D01*
X147564605Y-165774384D01*
X147272282Y-165926816D01*
X146945182Y-166063739D01*
X146587331Y-166182775D01*
X146249289Y-166271047D01*
X146084698Y-166305702D01*
X145933472Y-166329408D01*
X145775374Y-166344468D01*
X145590166Y-166353188D01*
X145509492Y-166355296D01*
X145323367Y-166356996D01*
X145173351Y-166353360D01*
X145066065Y-166344676D01*
X145014150Y-166333817D01*
X144908808Y-166280220D01*
X144851418Y-166211855D01*
X144835277Y-166128229D01*
X144852190Y-166044653D01*
X144887467Y-166009215D01*
X144933353Y-165996877D01*
X145022269Y-165982750D01*
X145142311Y-165968406D01*
X145281575Y-165955418D01*
X145313724Y-165952891D01*
X145603291Y-165925247D01*
X145854151Y-165887316D01*
X146082283Y-165835041D01*
X146303663Y-165764362D01*
X146534270Y-165671224D01*
X146674093Y-165607414D01*
X146910807Y-165484751D01*
X147124714Y-165352125D01*
X147309978Y-165214404D01*
X147460763Y-165076454D01*
X147571232Y-164943144D01*
X147635548Y-164819341D01*
X147641113Y-164800933D01*
X147650712Y-164665135D01*
X147605997Y-164532949D01*
X147507623Y-164405249D01*
X147356247Y-164282908D01*
X147172883Y-164176922D01*
X146973182Y-164089429D01*
X146778007Y-164034031D01*
X146569412Y-164007188D01*
X146329453Y-164005359D01*
X146307542Y-164006222D01*
X146130773Y-164019334D01*
X145964795Y-164045171D01*
X145798716Y-164087119D01*
X145621648Y-164148565D01*
X145422703Y-164232895D01*
X145190990Y-164343497D01*
X145137986Y-164369957D01*
X144803769Y-164527514D01*
X144498261Y-164648400D01*
X144211505Y-164735113D01*
X143933544Y-164790152D01*
X143654421Y-164816012D01*
X143364178Y-164815191D01*
X143363013Y-164815139D01*
X143033929Y-164781014D01*
X142728668Y-164710553D01*
X142453691Y-164606021D01*
X142215464Y-164469684D01*
X142085938Y-164367385D01*
X141957138Y-164233707D01*
X141875224Y-164101824D01*
X141833943Y-163959203D01*
X141825874Y-163846160D01*
X141841161Y-163691138D01*
X141891344Y-163546237D01*
X141981484Y-163401360D01*
X142116642Y-163246411D01*
X142136656Y-163226130D01*
X142329962Y-163062116D01*
X142571573Y-162906985D01*
X142855041Y-162764032D01*
X143173917Y-162636551D01*
X143481780Y-162538913D01*
X143784982Y-162462147D01*
X144058513Y-162410346D01*
X144298824Y-162383671D01*
X144502367Y-162382283D01*
X144665596Y-162406343D01*
G37*
G36*
X152018341Y-161059407D02*
G01*
X151945683Y-160957488D01*
X151891932Y-160876116D01*
X151855151Y-160812489D01*
X151833404Y-160763806D01*
X151824754Y-160727264D01*
X151827264Y-160700061D01*
X151838997Y-160679397D01*
X151858016Y-160662468D01*
X151880733Y-160647504D01*
X151905164Y-160632641D01*
X151929817Y-160620110D01*
X151957666Y-160610575D01*
X151991684Y-160604701D01*
X152034845Y-160603151D01*
X152090122Y-160606592D01*
X152160489Y-160615686D01*
X152248920Y-160631100D01*
X152358388Y-160653496D01*
X152491867Y-160683540D01*
X152652331Y-160721897D01*
X152842753Y-160769230D01*
X153066106Y-160826204D01*
X153325365Y-160893484D01*
X153623503Y-160971734D01*
X153963494Y-161061619D01*
X154348311Y-161163803D01*
X154780927Y-161278951D01*
X155168647Y-161382238D01*
X155566030Y-161488320D01*
X155950037Y-161591240D01*
X156317139Y-161690030D01*
X156663805Y-161783722D01*
X156986506Y-161871350D01*
X157281712Y-161951945D01*
X157545894Y-162024540D01*
X157775521Y-162088168D01*
X157967064Y-162141860D01*
X158116994Y-162184650D01*
X158221780Y-162215570D01*
X158277893Y-162233652D01*
X158284470Y-162236315D01*
X158378666Y-162299590D01*
X158422515Y-162370375D01*
X158418398Y-162440412D01*
X158368699Y-162501445D01*
X158275801Y-162545216D01*
X158190835Y-162560751D01*
X158139682Y-162561761D01*
X158071878Y-162555333D01*
X157981445Y-162540200D01*
X157862408Y-162515095D01*
X157708790Y-162478751D01*
X157514615Y-162429900D01*
X157273906Y-162367276D01*
X157255609Y-162362462D01*
X156453707Y-162151363D01*
X155487829Y-162708932D01*
X155278281Y-162830419D01*
X155084376Y-162943841D01*
X154911144Y-163046182D01*
X154763613Y-163134427D01*
X154646811Y-163205557D01*
X154565767Y-163256557D01*
X154525510Y-163284411D01*
X154521951Y-163288342D01*
X154538304Y-163315615D01*
X154583927Y-163378998D01*
X154653662Y-163471660D01*
X154742354Y-163586768D01*
X154844846Y-163717491D01*
X154865774Y-163743932D01*
X154996222Y-163910753D01*
X155093278Y-164041583D01*
X155159514Y-164142094D01*
X155197497Y-164217959D01*
X155209798Y-164274853D01*
X155198987Y-164318449D01*
X155167632Y-164354420D01*
X155148764Y-164368752D01*
X155073487Y-164397368D01*
X154966704Y-164409673D01*
X154849469Y-164405691D01*
X154742835Y-164385441D01*
X154698189Y-164368305D01*
X154662193Y-164337067D01*
X154592757Y-164262369D01*
X154489863Y-164144189D01*
X154353496Y-163982508D01*
X154183639Y-163777307D01*
X153980277Y-163528566D01*
X153743392Y-163236265D01*
X153472968Y-162900385D01*
X153219045Y-162583507D01*
X152959805Y-162259309D01*
X152733030Y-161975270D01*
X152536783Y-161728589D01*
X152369128Y-161516464D01*
X152228127Y-161336093D01*
X152177749Y-161270494D01*
X152898366Y-161270494D01*
X152914966Y-161296270D01*
X152961565Y-161358759D01*
X153033397Y-161452006D01*
X153125697Y-161570059D01*
X153233697Y-161706963D01*
X153352631Y-161856764D01*
X153477732Y-162013509D01*
X153604234Y-162171243D01*
X153727371Y-162324012D01*
X153842375Y-162465862D01*
X153944480Y-162590840D01*
X154028920Y-162692992D01*
X154090929Y-162766363D01*
X154125739Y-162805000D01*
X154129733Y-162808612D01*
X154177025Y-162837032D01*
X154197811Y-162843010D01*
X154226488Y-162829721D01*
X154296800Y-162792068D01*
X154402818Y-162733377D01*
X154538611Y-162656974D01*
X154698248Y-162566183D01*
X154875799Y-162464329D01*
X154964987Y-162412867D01*
X155146934Y-162306610D01*
X155311358Y-162208507D01*
X155452745Y-162122015D01*
X155565578Y-162050592D01*
X155644340Y-161997694D01*
X155683515Y-161966779D01*
X155686532Y-161960643D01*
X155654254Y-161947611D01*
X155574979Y-161922767D01*
X155454876Y-161887734D01*
X155300114Y-161844136D01*
X155116864Y-161793598D01*
X154911297Y-161737745D01*
X154689580Y-161678199D01*
X154457886Y-161616586D01*
X154222383Y-161554529D01*
X153989242Y-161493654D01*
X153764632Y-161435583D01*
X153554724Y-161381942D01*
X153365688Y-161334353D01*
X153203692Y-161294443D01*
X153074909Y-161263834D01*
X152985506Y-161244152D01*
X152941655Y-161237019D01*
X152938727Y-161237299D01*
X152902980Y-161260518D01*
X152898366Y-161270494D01*
X152177749Y-161270494D01*
X152111843Y-161184675D01*
X152018341Y-161059407D01*
G37*
X127533435Y-132459655D02*
G75*
G03*
X124133435Y-132459655I-1700000J-1700000D01*
G01*
X26330310Y-132459655D02*
G75*
G03*
X22930310Y-132459655I-1700000J-1700000D01*
G01*
D11*
X148508475Y-191456530D02*
X148508475Y-187356530D01*
X148508475Y-183356530D02*
X148508475Y-179256530D01*
X160308475Y-183356530D02*
X160308475Y-179256530D01*
X155708475Y-191456530D02*
X153108475Y-191456530D01*
X150908475Y-191456530D02*
X148508475Y-191456530D01*
X160308475Y-191456530D02*
X157908475Y-191456530D01*
X160308475Y-179256530D02*
X148508475Y-179256530D01*
X160308475Y-187356530D02*
X160308475Y-191456530D01*
X157408475Y-185356530D02*
G75*
G03*
X157408475Y-185356530I-3000000J0D01*
G01*
D13*
X41808435Y-30065905D02*
G75*
G03*
X38408435Y-30065905I-1700000J-1700000D01*
G01*
X301536560Y-104414780D02*
G75*
G03*
X304936560Y-104414780I1700000J1700000D01*
G01*
X190636560Y-155081530D02*
G75*
G03*
X187236560Y-155081530I-1700000J-1700000D01*
G01*
%LPC*%
D14*
X18396399Y-234562740D03*
X306408435Y-189821365D03*
X251632810Y-21350240D03*
X21422649Y-184590151D03*
X21422649Y-238838990D03*
X142470935Y-99931490D03*
D15*
X46585435Y-49244280D03*
D16*
X281458435Y-127831490D03*
D14*
X13316399Y-234562740D03*
X77227185Y-21350240D03*
X132861560Y-234562740D03*
X75647185Y-194529383D03*
X306408435Y-29007615D03*
X306408435Y-240108990D03*
X21422649Y-18333990D03*
X21422649Y-185860151D03*
X186444685Y-99931490D03*
X163584685Y-197571147D03*
X121206560Y-21350240D03*
X145010935Y-99931490D03*
X134131560Y-234562740D03*
X204232810Y-21350240D03*
X17136399Y-21350240D03*
X21422649Y-204338651D03*
X17126399Y-234562740D03*
X306408435Y-203219865D03*
X306408435Y-188551365D03*
X21422649Y-206878651D03*
X205502810Y-21350240D03*
X131591560Y-234562740D03*
X135401560Y-234562740D03*
X306408435Y-107588865D03*
X306408435Y-52581990D03*
X245848435Y-194531490D03*
X21422649Y-103627651D03*
X192343435Y-234562740D03*
X247118435Y-197573254D03*
X306408435Y-50041990D03*
X122476560Y-21350240D03*
X142470935Y-96496026D03*
X13326399Y-21350240D03*
D17*
X211909602Y-185186946D03*
D14*
X248388435Y-197573254D03*
X75647185Y-197571147D03*
X194883435Y-234562740D03*
X202962810Y-21350240D03*
X80727185Y-197571147D03*
X306408435Y-48771990D03*
X183904685Y-99931490D03*
X306408435Y-186011365D03*
X80727185Y-194529383D03*
X141200935Y-99931490D03*
X21422649Y-53700776D03*
X306405210Y-17053990D03*
X21422649Y-208148651D03*
X21422649Y-187130151D03*
X306408435Y-208299865D03*
X21422649Y-108707651D03*
X21422649Y-242648990D03*
X182634685Y-99931490D03*
X21422649Y-240108990D03*
X306405210Y-14513990D03*
X306408435Y-27737615D03*
X78187185Y-197571147D03*
X306408435Y-187281365D03*
X21422649Y-106167651D03*
X21422649Y-25046401D03*
X21422649Y-15793990D03*
X250928435Y-194531490D03*
X76917185Y-197571147D03*
X164854685Y-194529383D03*
X21422649Y-188400151D03*
X21422649Y-107437651D03*
X21422649Y-237568990D03*
X21422649Y-48620776D03*
X123746560Y-21350240D03*
X306408435Y-207029865D03*
X18406399Y-21350240D03*
X78187185Y-194529383D03*
X14586399Y-234562740D03*
X21422649Y-104897651D03*
X168664685Y-197571147D03*
X130321560Y-234562740D03*
X74687185Y-21350240D03*
X310684685Y-234562740D03*
X197423435Y-234562740D03*
X309414685Y-21350240D03*
X168664685Y-194529383D03*
X79457185Y-194529383D03*
X185174685Y-99931490D03*
D16*
X281458435Y-127831490D03*
D14*
X306408435Y-51311990D03*
X306408435Y-205759865D03*
X79457185Y-197571147D03*
D17*
X149558435Y-147131490D03*
D14*
X139930935Y-96496026D03*
X306408435Y-237568990D03*
X249092810Y-21350240D03*
X78497185Y-21350240D03*
X306408435Y-106318865D03*
X14596399Y-21350240D03*
X249658435Y-197573254D03*
X21422649Y-205608651D03*
X166124685Y-197571147D03*
X21422649Y-27586401D03*
X21422649Y-28856401D03*
X306408435Y-53851990D03*
X306408435Y-103778865D03*
X306408435Y-204489865D03*
X21422649Y-17063990D03*
X246552810Y-21350240D03*
X21422649Y-14523990D03*
X250362810Y-21350240D03*
X167394685Y-194529383D03*
X166124685Y-194529383D03*
X21422649Y-52430776D03*
X183904685Y-96496026D03*
X306408435Y-105048865D03*
X79767185Y-21350240D03*
X248388435Y-194531490D03*
X306405210Y-18323990D03*
X21422649Y-13253990D03*
X21422649Y-189670151D03*
X306405210Y-15783990D03*
X306408435Y-242648990D03*
X143740935Y-99931490D03*
X21422649Y-241378990D03*
X185174685Y-96496026D03*
X76917185Y-194529383D03*
X181364685Y-96496026D03*
X249658435Y-194531490D03*
X21422649Y-51160776D03*
X21422649Y-203068651D03*
X15866399Y-21350240D03*
X306408435Y-184741365D03*
X309414685Y-234562740D03*
X143740935Y-96496026D03*
X21422649Y-49890776D03*
X247822810Y-21350240D03*
X193613435Y-234562740D03*
X311954685Y-21350240D03*
X306405210Y-13243990D03*
X21422649Y-26316401D03*
X182634685Y-96496026D03*
X181364685Y-99931490D03*
X306408435Y-30277615D03*
X15856399Y-234562740D03*
X245848435Y-197573254D03*
X119936560Y-21350240D03*
X21422649Y-30126401D03*
X206772810Y-21350240D03*
X196153435Y-234562740D03*
X163584685Y-194529383D03*
X250928435Y-197573254D03*
X201692810Y-21350240D03*
X306408435Y-108858865D03*
X310684685Y-21350240D03*
X306408435Y-25197615D03*
D18*
X281408435Y-49251780D03*
D14*
X125016560Y-21350240D03*
X186444685Y-96496026D03*
X311954685Y-234562740D03*
X139930935Y-99931490D03*
X313224685Y-21350240D03*
X313224685Y-234562740D03*
X141200935Y-96496026D03*
X314494685Y-21350240D03*
X167394685Y-197571147D03*
X145010935Y-96496026D03*
X306408435Y-238838990D03*
X164854685Y-197571147D03*
X306408435Y-26467615D03*
X75957185Y-21350240D03*
X247118435Y-194531490D03*
X314494685Y-234562740D03*
X306408435Y-241378990D03*
D19*
X281458435Y-129581490D03*
X284108435Y-129081490D03*
X280058435Y-129581490D03*
X47858435Y-129181490D03*
X48508435Y-127831490D03*
D20*
X281458435Y-127831490D03*
D21*
X46608435Y-127831490D03*
D19*
X284108435Y-126581490D03*
X46608435Y-125931490D03*
X284608435Y-127831490D03*
X284608435Y-127831490D03*
X281458435Y-129581490D03*
X280058435Y-129581490D03*
X278808435Y-126581490D03*
X46608435Y-129731490D03*
X278808435Y-129081490D03*
X45258435Y-126481490D03*
X278808435Y-129081490D03*
X282858435Y-126081490D03*
X280058435Y-126081490D03*
X282858435Y-126081490D03*
X44708435Y-127831490D03*
X278308435Y-127831490D03*
X284108435Y-129081490D03*
X282858435Y-129581490D03*
X278808435Y-126581490D03*
X284108435Y-126581490D03*
X47858435Y-126481490D03*
X280058435Y-126081490D03*
X281458435Y-126081490D03*
X278308435Y-127831490D03*
X281458435Y-126081490D03*
X282858435Y-129581490D03*
X45258435Y-129131490D03*
D22*
X245214195Y-166306810D03*
D23*
X240134195Y-166306810D03*
D22*
X235054195Y-166306810D03*
X254104275Y-166306810D03*
D23*
X259184275Y-166306810D03*
D22*
X264264275Y-166306810D03*
X64238435Y-147256690D03*
X54078435Y-147256690D03*
D23*
X59158435Y-147256690D03*
D22*
X111863435Y-166306770D03*
X101703435Y-166306770D03*
D23*
X106783435Y-166306770D03*
D22*
X102338435Y-147256690D03*
D23*
X97258435Y-147256690D03*
D22*
X92178435Y-147256690D03*
X273154515Y-185356850D03*
X283314515Y-185356850D03*
D23*
X278234515Y-185356850D03*
D22*
X102338435Y-128206610D03*
X92178435Y-128206610D03*
D23*
X97258435Y-128206610D03*
X116308435Y-147256690D03*
D22*
X111228435Y-147256690D03*
X121388435Y-147256690D03*
D23*
X297284595Y-166306810D03*
D22*
X302364595Y-166306810D03*
X292204595Y-166306810D03*
D23*
X230609155Y-128206650D03*
D22*
X225529155Y-128206650D03*
X235689155Y-128206650D03*
X235689155Y-147256730D03*
D23*
X230609155Y-147256730D03*
D22*
X225529155Y-147256730D03*
X254739235Y-147256730D03*
D23*
X249659235Y-147256730D03*
D22*
X244579235Y-147256730D03*
X25503475Y-166306890D03*
X35663475Y-166306890D03*
D23*
X30583475Y-166306890D03*
X49633475Y-166306890D03*
D22*
X54713475Y-166306890D03*
X44553475Y-166306890D03*
D23*
X221084115Y-166306770D03*
D22*
X216004115Y-166306770D03*
X226164115Y-166306770D03*
X207114035Y-166306770D03*
D23*
X202034035Y-166306770D03*
D22*
X196954035Y-166306770D03*
X254739235Y-128206650D03*
D23*
X249659235Y-128206650D03*
D22*
X244579235Y-128206650D03*
X120753435Y-166306770D03*
X130913435Y-166306770D03*
D23*
X125833435Y-166306770D03*
D22*
X83288435Y-128206610D03*
X73128435Y-128206610D03*
D23*
X78208435Y-128206610D03*
X87733435Y-166306770D03*
D22*
X92813435Y-166306770D03*
X82653435Y-166306770D03*
X73763435Y-166306770D03*
D23*
X68683435Y-166306770D03*
D22*
X63603435Y-166306770D03*
X35663475Y-185356890D03*
X25503475Y-185356890D03*
D23*
X30583475Y-185356890D03*
D22*
X89797495Y-185356890D03*
X99957495Y-185356890D03*
D23*
X94877495Y-185356890D03*
D22*
X120753875Y-185356890D03*
D24*
X137740125Y-192341890D03*
D22*
X130913875Y-185356890D03*
D23*
X137740125Y-177101890D03*
X113927625Y-177101890D03*
D24*
X113927625Y-192341890D03*
D23*
X125833875Y-185356890D03*
X190127225Y-177101890D03*
D24*
X190127225Y-192341890D03*
D22*
X196953475Y-185356890D03*
X207113475Y-185356890D03*
D23*
X202033475Y-185356890D03*
D24*
X213939725Y-192341890D03*
D23*
X213939725Y-177101890D03*
X232989725Y-185356890D03*
D22*
X227909725Y-185356890D03*
X238069725Y-185356890D03*
D25*
X26208435Y-140706530D03*
X26208435Y-138956530D03*
X22708435Y-138956530D03*
X22708435Y-140706530D03*
X26208435Y-144906530D03*
X26208435Y-143156530D03*
X22708435Y-143156530D03*
X22708435Y-144906530D03*
X305008435Y-140706530D03*
X305008435Y-138956530D03*
X301508435Y-138956530D03*
X301508435Y-140706530D03*
X305008435Y-144906530D03*
X305008435Y-143156530D03*
X301508435Y-143156530D03*
X301508435Y-144906530D03*
D23*
X292521915Y-147256730D03*
D22*
X287441915Y-147256730D03*
X297601915Y-147256730D03*
X263628475Y-147256890D03*
X273788475Y-147256890D03*
D23*
X268708475Y-147256890D03*
D22*
X149328475Y-185356530D03*
X159488475Y-185356530D03*
D23*
X154408475Y-185356530D03*
D22*
X168378475Y-185356890D03*
X178538475Y-185356890D03*
D23*
X173458475Y-185356890D03*
D22*
X42807255Y-147256730D03*
D23*
X37727255Y-147256730D03*
D22*
X32647255Y-147256730D03*
X40425975Y-147256890D03*
X30265975Y-147256890D03*
D23*
X35345975Y-147256890D03*
X49633475Y-185356890D03*
D22*
X54713475Y-185356890D03*
X44553475Y-185356890D03*
X283314515Y-166306810D03*
D23*
X278234515Y-166306810D03*
D22*
X273154515Y-166306810D03*
X73128435Y-147256690D03*
D23*
X78208435Y-147256690D03*
D22*
X83288435Y-147256690D03*
D23*
X297284595Y-185356890D03*
D22*
X302364595Y-185356890D03*
X292204595Y-185356890D03*
X76144725Y-185356890D03*
D23*
X71064725Y-185356890D03*
D22*
X65984725Y-185356890D03*
D23*
X211559075Y-147256690D03*
D22*
X206479075Y-147256690D03*
X216639075Y-147256690D03*
D23*
X192508435Y-68675280D03*
D22*
X187428435Y-68675280D03*
X197588435Y-68675280D03*
D26*
X302884595Y-185356890D03*
D27*
X297284595Y-185356890D03*
D28*
X297284595Y-189856890D03*
D26*
X291684595Y-185356890D03*
D28*
X297284595Y-180856890D03*
D29*
X299784595Y-177856890D03*
X294784595Y-177856890D03*
X297284595Y-177856890D03*
X299784595Y-192356890D03*
X294784595Y-192356890D03*
D30*
X141883435Y-90725280D03*
D31*
X141383435Y-93250280D03*
X144883435Y-82200280D03*
D30*
X147883435Y-84725280D03*
D31*
X148383435Y-93250280D03*
D32*
X137383435Y-83725280D03*
X137383435Y-87725280D03*
X137383435Y-91725280D03*
X152383435Y-83725280D03*
X152383435Y-87725280D03*
X152383435Y-91725280D03*
D22*
X226163435Y-206787780D03*
D23*
X221083435Y-206787780D03*
D22*
X216003435Y-206787780D03*
D23*
X42489685Y-166306530D03*
D22*
X47569685Y-166306530D03*
X37409685Y-166306530D03*
X139803435Y-87725280D03*
D23*
X144883435Y-87725280D03*
D22*
X149963435Y-87725280D03*
X292203435Y-206787780D03*
D23*
X297283435Y-206787780D03*
D22*
X302363435Y-206787780D03*
X261882185Y-185356530D03*
X251722185Y-185356530D03*
D23*
X256802185Y-185356530D03*
D33*
X178602185Y-127325280D03*
D34*
X180402185Y-127825280D03*
D33*
X178602185Y-126325280D03*
D34*
X182302185Y-126825280D03*
D33*
X178602185Y-125325280D03*
D34*
X182302185Y-124825280D03*
D33*
X178602185Y-124325280D03*
D34*
X180402185Y-123825280D03*
D35*
X182477185Y-128625280D03*
X182477185Y-123025280D03*
D36*
X303236560Y-134159655D03*
D22*
X159488435Y-68675280D03*
D23*
X154408435Y-68675280D03*
D22*
X149328435Y-68675280D03*
D34*
X156408435Y-135550280D03*
D37*
X155908435Y-137350280D03*
X154908435Y-137350280D03*
D34*
X155408435Y-133650280D03*
X153408435Y-133650280D03*
D37*
X153908435Y-137350280D03*
D34*
X152408435Y-135550280D03*
D37*
X152908435Y-137350280D03*
D38*
X157208435Y-133475280D03*
X151608435Y-133475280D03*
D28*
X30583475Y-180856890D03*
D26*
X36183475Y-185356890D03*
X24983475Y-185356890D03*
D28*
X30583475Y-189856890D03*
D27*
X30583475Y-185356890D03*
D29*
X33083475Y-177856890D03*
X28083475Y-177856890D03*
X30583475Y-177856890D03*
X33083475Y-192356890D03*
X28083475Y-192356890D03*
D33*
X178602185Y-116609655D03*
D34*
X180402185Y-117109655D03*
X182302185Y-116109655D03*
D33*
X178602185Y-115609655D03*
X178602185Y-114609655D03*
D34*
X182302185Y-114109655D03*
D33*
X178602185Y-113609655D03*
D34*
X180402185Y-113109655D03*
D35*
X182477185Y-112309655D03*
X182477185Y-117909655D03*
D22*
X139803435Y-206787780D03*
X149963435Y-206787780D03*
D23*
X144883435Y-206787780D03*
D22*
X197588435Y-225837780D03*
X187428435Y-225837780D03*
D23*
X192508435Y-225837780D03*
D36*
X24634907Y-102714780D03*
X136549060Y-24133530D03*
D22*
X42807185Y-49625280D03*
D23*
X37727185Y-49625280D03*
D22*
X32647185Y-49625280D03*
X73763435Y-206787780D03*
X63603435Y-206787780D03*
D23*
X68683435Y-206787780D03*
D22*
X196953435Y-206787780D03*
X207113435Y-206787780D03*
D23*
X202033435Y-206787780D03*
D36*
X230608435Y-31765905D03*
D23*
X49633435Y-206787780D03*
D22*
X44553435Y-206787780D03*
X54713435Y-206787780D03*
D23*
X290139685Y-147256730D03*
D22*
X285059685Y-147256730D03*
X295219685Y-147256730D03*
D36*
X97258435Y-31765905D03*
X163933435Y-102714780D03*
D22*
X216638435Y-49625280D03*
X206478435Y-49625280D03*
D23*
X211558435Y-49625280D03*
D22*
X178538435Y-225837780D03*
D23*
X173458435Y-225837780D03*
D22*
X168378435Y-225837780D03*
X177903435Y-206787780D03*
D23*
X182983435Y-206787780D03*
D22*
X188063435Y-206787780D03*
D36*
X78208435Y-110347155D03*
D22*
X283313435Y-206787780D03*
D23*
X278233435Y-206787780D03*
D22*
X273153435Y-206787780D03*
D36*
X202033435Y-134206530D03*
D22*
X264263435Y-206787780D03*
X254103435Y-206787780D03*
D23*
X259183435Y-206787780D03*
D37*
X165433435Y-138540905D03*
D34*
X165933435Y-136740905D03*
D37*
X164433435Y-138540905D03*
D34*
X164933435Y-134840905D03*
X162933435Y-134840905D03*
D37*
X163433435Y-138540905D03*
D34*
X161933435Y-136740905D03*
D37*
X162433435Y-138540905D03*
D38*
X166733435Y-134665905D03*
X161133435Y-134665905D03*
D22*
X169013435Y-206787780D03*
X158853435Y-206787780D03*
D23*
X163933435Y-206787780D03*
D36*
X182983435Y-55578405D03*
D22*
X92813435Y-206787780D03*
X82653435Y-206787780D03*
D23*
X87733435Y-206787780D03*
D31*
X186483435Y-93250280D03*
D30*
X185983435Y-84725280D03*
X179983435Y-90725280D03*
D31*
X182983435Y-82200280D03*
X179483435Y-93250280D03*
D32*
X175483435Y-83725280D03*
X175483435Y-87725280D03*
X175483435Y-91725280D03*
X190483435Y-83725280D03*
X190483435Y-87725280D03*
X190483435Y-91725280D03*
D22*
X121388435Y-49625280D03*
D23*
X116308435Y-49625280D03*
D22*
X111228435Y-49625280D03*
D36*
X144883435Y-55578405D03*
D22*
X120753435Y-206787780D03*
X130913435Y-206787780D03*
D23*
X125833435Y-206787780D03*
D26*
X167858475Y-185356890D03*
D28*
X173458475Y-189856890D03*
D26*
X179058475Y-185356890D03*
D28*
X173458475Y-180856890D03*
D27*
X173458475Y-185356890D03*
D29*
X175958475Y-177856890D03*
X170958475Y-177856890D03*
X173458475Y-177856890D03*
X175958475Y-192356890D03*
X170958475Y-192356890D03*
D22*
X35028475Y-166306890D03*
D24*
X52014725Y-159321890D03*
D23*
X52014725Y-174561890D03*
X40108475Y-166306890D03*
X28202225Y-174561890D03*
D22*
X45188475Y-166306890D03*
D24*
X28202225Y-159321890D03*
D36*
X193699060Y-24133530D03*
D39*
X149264685Y-124325280D03*
D34*
X147464685Y-123825280D03*
X145564685Y-124825280D03*
D39*
X149264685Y-125325280D03*
D34*
X145564685Y-126825280D03*
D39*
X149264685Y-126325280D03*
X149264685Y-127325280D03*
D34*
X147464685Y-127825280D03*
D40*
X145389685Y-123025280D03*
X145389685Y-128625280D03*
D34*
X175458435Y-135550280D03*
D37*
X174958435Y-137350280D03*
D34*
X174458435Y-133650280D03*
D37*
X173958435Y-137350280D03*
D34*
X172458435Y-133650280D03*
D37*
X172958435Y-137350280D03*
D34*
X171458435Y-135550280D03*
D37*
X171958435Y-137350280D03*
D38*
X176258435Y-133475280D03*
X170658435Y-133475280D03*
D36*
X138930310Y-156781530D03*
D23*
X30583435Y-206787780D03*
D22*
X35663435Y-206787780D03*
X25503435Y-206787780D03*
D36*
X287758435Y-31765905D03*
X249658435Y-110347155D03*
X125833435Y-134159655D03*
D22*
X177903435Y-87725280D03*
X188063435Y-87725280D03*
D23*
X182983435Y-87725280D03*
D22*
X168378435Y-68675280D03*
D23*
X173458435Y-68675280D03*
D22*
X178538435Y-68675280D03*
D36*
X24630310Y-134159655D03*
D23*
X240133435Y-206787780D03*
D22*
X245213435Y-206787780D03*
X235053435Y-206787780D03*
X130278435Y-225837780D03*
D23*
X135358435Y-225837780D03*
D22*
X140438435Y-225837780D03*
D23*
X163933435Y-87725280D03*
D22*
X158853435Y-87725280D03*
X169013435Y-87725280D03*
X297600935Y-49625280D03*
D23*
X292520935Y-49625280D03*
D22*
X287440935Y-49625280D03*
D26*
X160008475Y-185356530D03*
D28*
X154408475Y-189856530D03*
X154408475Y-180856530D03*
D27*
X154408475Y-185356530D03*
D26*
X148808475Y-185356530D03*
D29*
X156908475Y-177856530D03*
X151908475Y-177856530D03*
X154408475Y-177856530D03*
X156908475Y-192356530D03*
X151908475Y-192356530D03*
D23*
X154408435Y-225837780D03*
D22*
X159488435Y-225837780D03*
X149328435Y-225837780D03*
X140438435Y-68700320D03*
X130278435Y-68700320D03*
D23*
X135358435Y-68700320D03*
X106783435Y-206787780D03*
D22*
X101703435Y-206787780D03*
X111863435Y-206787780D03*
D36*
X40108435Y-31765905D03*
D22*
X273788435Y-49625280D03*
D23*
X268708435Y-49625280D03*
D22*
X263628435Y-49625280D03*
X64238435Y-49625280D03*
X54078435Y-49625280D03*
D23*
X59158435Y-49625280D03*
D22*
X30265935Y-49625280D03*
D23*
X35345935Y-49625280D03*
D22*
X40425935Y-49625280D03*
D36*
X303236560Y-102714780D03*
X188936560Y-156781530D03*
D41*
X87733435Y-109156530D03*
D34*
X87733435Y-106616530D03*
D42*
X106783435Y-182975280D03*
X163914685Y-182975280D03*
X268708435Y-182975280D03*
X40108435Y-192500280D03*
X49633435Y-155590905D03*
X287758435Y-171069030D03*
X287758435Y-174640905D03*
D43*
X60492810Y-134244030D03*
D34*
X60492810Y-131704030D03*
X57952810Y-134244030D03*
X57952810Y-131704030D03*
X55412810Y-134244030D03*
X55412810Y-131704030D03*
D44*
X116308435Y-104181490D03*
X211558435Y-104181490D03*
X105258435Y-189781490D03*
D42*
X221083435Y-182975280D03*
X163933435Y-115109655D03*
X287758435Y-182975280D03*
X82970935Y-182975280D03*
X82970935Y-179641530D03*
D44*
X245158435Y-189781490D03*
D42*
X154408435Y-115109655D03*
X154408435Y-111537780D03*
X59158435Y-155581530D03*
D45*
X36608435Y-105571490D03*
X37458435Y-105571490D03*
X38308435Y-105571490D03*
X39158435Y-105571490D03*
X40008435Y-105571490D03*
X40858435Y-105571490D03*
X41708435Y-105571490D03*
X42558435Y-105571490D03*
X42558435Y-104221490D03*
X41708435Y-104221490D03*
X40858435Y-104221490D03*
X40008435Y-104221490D03*
X39158435Y-104221490D03*
X38308435Y-104221490D03*
X37458435Y-104221490D03*
X36608435Y-104221490D03*
D46*
X43908435Y-104591490D03*
D47*
X35258435Y-101211490D03*
D46*
X35258435Y-104591490D03*
D47*
X43908435Y-101211490D03*
D42*
X144883435Y-182975280D03*
X163933435Y-111537780D03*
D43*
X297320935Y-135350280D03*
D34*
X294780935Y-135350280D03*
X292240935Y-135350280D03*
D42*
X82970935Y-188928405D03*
D34*
X156408435Y-210159655D03*
X155408435Y-212059655D03*
X153408435Y-212059655D03*
X152408435Y-210159655D03*
D42*
X40108435Y-200844030D03*
D36*
X193699060Y-200346030D03*
X303236560Y-55587780D03*
X125833435Y-55578405D03*
D42*
X78208435Y-200844030D03*
D36*
X202033435Y-55625280D03*
D34*
X128014685Y-45244030D03*
X129914685Y-46244030D03*
X129914685Y-48244030D03*
X128014685Y-49244030D03*
D42*
X222274060Y-24622155D03*
X287758435Y-200844030D03*
X40108435Y-212740905D03*
D36*
X230608435Y-207978405D03*
X24630310Y-24133530D03*
D42*
X230608435Y-200834655D03*
X97258435Y-200844030D03*
D36*
X144883435Y-231790905D03*
D34*
X175458435Y-210159655D03*
X174458435Y-212059655D03*
X172458435Y-212059655D03*
X171458435Y-210159655D03*
D36*
X97258435Y-207978405D03*
D42*
X200842810Y-24622155D03*
X225845935Y-24622155D03*
X155599060Y-216312780D03*
X59158435Y-200834655D03*
X182983435Y-24622155D03*
X25820935Y-41290905D03*
D36*
X249658435Y-31765905D03*
X188936560Y-78200280D03*
D42*
X173458435Y-200787780D03*
X102020935Y-24622155D03*
D36*
X40108435Y-207978405D03*
D34*
X137539685Y-213122155D03*
X139439685Y-214122155D03*
X139439685Y-216122155D03*
X137539685Y-217122155D03*
D36*
X136549060Y-200346030D03*
D34*
X199852185Y-38528405D03*
X197952185Y-37528405D03*
X197952185Y-35528405D03*
X199852185Y-34528405D03*
D42*
X186555310Y-24622155D03*
D36*
X78208435Y-31765905D03*
D42*
X204414685Y-24622155D03*
D36*
X182983435Y-231790905D03*
X24630310Y-55587780D03*
X163933435Y-24133530D03*
D42*
X218702185Y-24622155D03*
X154408435Y-200844030D03*
X109164685Y-24622155D03*
D36*
X303236560Y-24133530D03*
D42*
X152027185Y-216312780D03*
D36*
X138930310Y-78200280D03*
D34*
X199852185Y-49244030D03*
X197952185Y-48244030D03*
X197952185Y-46244030D03*
X199852185Y-45244030D03*
D42*
X105592810Y-24622155D03*
X268708435Y-200834655D03*
D36*
X287758435Y-207978405D03*
D42*
X25820935Y-37719030D03*
M02*
