M48
; DRILL file {KiCad (6.0.10-0)} date 
; FORMAT={-:-/ absolute / metric / decimal}
; #@! TF.CreationDate,2023-02-15T16:58:26+09:00
; #@! TF.GenerationSoftware,Kicad,Pcbnew,(6.0.10-0)
; #@! TF.FileFunction,NonPlated,1,2,NPTH
FMAT,2
METRIC
; #@! TA.AperFunction,NonPlated,NPTH,ComponentDrill
T1C0.787
; #@! TA.AperFunction,NonPlated,NPTH,ComponentDrill
T2C1.450
; #@! TA.AperFunction,NonPlated,NPTH,ComponentDrill
T3C1.500
; #@! TA.AperFunction,NonPlated,NPTH,ComponentDrill
T4C1.600
; #@! TA.AperFunction,NonPlated,NPTH,ComponentDrill
T5C1.750
; #@! TA.AperFunction,NonPlated,NPTH,ComponentDrill
T6C2.100
; #@! TA.AperFunction,NonPlated,NPTH,ComponentDrill
T7C2.200
; #@! TA.AperFunction,NonPlated,NPTH,ComponentDrill
T8C2.400
; #@! TA.AperFunction,NonPlated,NPTH,ComponentDrill
T9C3.048
; #@! TA.AperFunction,NonPlated,NPTH,ComponentDrill
T10C3.988
; #@! TA.AperFunction,NonPlated,NPTH,ComponentDrill
T11C5.334
; #@! TA.AperFunction,NonPlated,NPTH,ComponentDrill
T12C6.096
; #@! TA.AperFunction,NonPlated,NPTH,ComponentDrill
T13C7.500
%
G90
G05
T1
X13.316Y-234.563
X13.326Y-21.35
X14.586Y-234.563
X14.596Y-21.35
X15.856Y-234.563
X15.866Y-21.35
X17.126Y-234.563
X17.136Y-21.35
X18.396Y-234.563
X18.406Y-21.35
X21.423Y-13.254
X21.423Y-14.524
X21.423Y-15.794
X21.423Y-17.064
X21.423Y-18.334
X21.423Y-25.046
X21.423Y-26.316
X21.423Y-27.586
X21.423Y-28.856
X21.423Y-30.126
X21.423Y-48.621
X21.423Y-49.891
X21.423Y-51.161
X21.423Y-52.431
X21.423Y-53.701
X21.423Y-103.628
X21.423Y-104.898
X21.423Y-106.168
X21.423Y-107.438
X21.423Y-108.708
X21.423Y-184.59
X21.423Y-185.86
X21.423Y-187.13
X21.423Y-188.4
X21.423Y-189.67
X21.423Y-203.069
X21.423Y-204.339
X21.423Y-205.609
X21.423Y-206.879
X21.423Y-208.149
X21.423Y-237.569
X21.423Y-238.839
X21.423Y-240.109
X21.423Y-241.379
X21.423Y-242.649
X74.687Y-21.35
X75.647Y-194.529
X75.647Y-197.571
X75.957Y-21.35
X76.917Y-194.529
X76.917Y-197.571
X77.227Y-21.35
X78.187Y-194.529
X78.187Y-197.571
X78.497Y-21.35
X79.457Y-194.529
X79.457Y-197.571
X79.767Y-21.35
X80.727Y-194.529
X80.727Y-197.571
X119.937Y-21.35
X121.207Y-21.35
X122.477Y-21.35
X123.747Y-21.35
X125.017Y-21.35
X130.322Y-234.563
X131.592Y-234.563
X132.862Y-234.563
X134.132Y-234.563
X135.402Y-234.563
X139.931Y-96.496
X139.931Y-99.931
X141.201Y-96.496
X141.201Y-99.931
X142.471Y-96.496
X142.471Y-99.931
X143.741Y-96.496
X143.741Y-99.931
X145.011Y-96.496
X145.011Y-99.931
X163.585Y-194.529
X163.585Y-197.571
X164.855Y-194.529
X164.855Y-197.571
X166.125Y-194.529
X166.125Y-197.571
X167.395Y-194.529
X167.395Y-197.571
X168.665Y-194.529
X168.665Y-197.571
X181.365Y-96.496
X181.365Y-99.931
X182.635Y-96.496
X182.635Y-99.931
X183.905Y-96.496
X183.905Y-99.931
X185.175Y-96.496
X185.175Y-99.931
X186.445Y-96.496
X186.445Y-99.931
X192.343Y-234.563
X193.613Y-234.563
X194.883Y-234.563
X196.153Y-234.563
X197.423Y-234.563
X201.693Y-21.35
X202.963Y-21.35
X204.233Y-21.35
X205.503Y-21.35
X206.773Y-21.35
X245.848Y-194.531
X245.848Y-197.573
X246.553Y-21.35
X247.118Y-194.531
X247.118Y-197.573
X247.823Y-21.35
X248.388Y-194.531
X248.388Y-197.573
X249.093Y-21.35
X249.658Y-194.531
X249.658Y-197.573
X250.363Y-21.35
X250.928Y-194.531
X250.928Y-197.573
X251.633Y-21.35
X306.405Y-13.244
X306.405Y-14.514
X306.405Y-15.784
X306.405Y-17.054
X306.405Y-18.324
X306.408Y-25.198
X306.408Y-26.468
X306.408Y-27.738
X306.408Y-29.008
X306.408Y-30.278
X306.408Y-48.772
X306.408Y-50.042
X306.408Y-51.312
X306.408Y-52.582
X306.408Y-53.852
X306.408Y-103.779
X306.408Y-105.049
X306.408Y-106.319
X306.408Y-107.589
X306.408Y-108.859
X306.408Y-184.741
X306.408Y-186.011
X306.408Y-187.281
X306.408Y-188.551
X306.408Y-189.821
X306.408Y-203.22
X306.408Y-204.49
X306.408Y-205.76
X306.408Y-207.03
X306.408Y-208.3
X306.408Y-237.569
X306.408Y-238.839
X306.408Y-240.109
X306.408Y-241.379
X306.408Y-242.649
X309.415Y-21.35
X309.415Y-234.563
X310.685Y-21.35
X310.685Y-234.563
X311.955Y-21.35
X311.955Y-234.563
X313.225Y-21.35
X313.225Y-234.563
X314.495Y-21.35
X314.495Y-234.563
T4
X141.883Y-90.725
X147.883Y-84.725
X179.983Y-90.725
X185.983Y-84.725
T5
X25.503Y-206.788
X25.503Y-166.307
X25.503Y-185.357
X30.266Y-49.625
X30.266Y-147.257
X32.647Y-49.625
X32.647Y-147.257
X35.028Y-166.307
X35.663Y-206.788
X35.663Y-166.307
X35.663Y-185.357
X37.41Y-166.307
X40.426Y-49.625
X40.426Y-147.257
X42.807Y-49.625
X42.807Y-147.257
X44.553Y-206.788
X44.553Y-166.307
X44.553Y-185.357
X45.188Y-166.307
X47.57Y-166.307
X54.078Y-49.625
X54.078Y-147.257
X54.713Y-206.788
X54.713Y-166.307
X54.713Y-185.357
X63.603Y-166.307
X63.603Y-206.788
X64.238Y-49.625
X64.238Y-147.257
X65.985Y-185.357
X73.128Y-128.207
X73.128Y-147.257
X73.763Y-166.307
X73.763Y-206.788
X76.145Y-185.357
X82.653Y-166.307
X82.653Y-206.788
X83.288Y-128.207
X83.288Y-147.257
X89.797Y-185.357
X92.178Y-128.207
X92.178Y-147.257
X92.813Y-166.307
X92.813Y-206.788
X99.957Y-185.357
X101.703Y-166.307
X101.703Y-206.788
X102.338Y-128.207
X102.338Y-147.257
X111.228Y-49.625
X111.228Y-147.257
X111.863Y-166.307
X111.863Y-206.788
X120.753Y-166.307
X120.753Y-206.788
X120.754Y-185.357
X121.388Y-49.625
X121.388Y-147.257
X130.278Y-68.7
X130.278Y-225.838
X130.913Y-166.307
X130.913Y-206.788
X130.914Y-185.357
X139.803Y-87.725
X139.803Y-206.788
X140.438Y-68.7
X140.438Y-225.838
X149.328Y-68.675
X149.328Y-225.838
X149.328Y-185.357
X149.963Y-87.725
X149.963Y-206.788
X158.853Y-87.725
X158.853Y-206.788
X159.488Y-68.675
X159.488Y-225.838
X159.488Y-185.357
X168.378Y-68.675
X168.378Y-225.838
X168.378Y-185.357
X169.013Y-87.725
X169.013Y-206.788
X177.903Y-87.725
X177.903Y-206.788
X178.538Y-68.675
X178.538Y-225.838
X178.538Y-185.357
X187.428Y-68.675
X187.428Y-225.838
X188.063Y-87.725
X188.063Y-206.788
X196.953Y-206.788
X196.953Y-185.357
X196.954Y-166.307
X197.588Y-68.675
X197.588Y-225.838
X206.478Y-49.625
X206.479Y-147.257
X207.113Y-206.788
X207.113Y-185.357
X207.114Y-166.307
X216.003Y-206.788
X216.004Y-166.307
X216.638Y-49.625
X216.639Y-147.257
X225.529Y-128.207
X225.529Y-147.257
X226.163Y-206.788
X226.164Y-166.307
X227.91Y-185.357
X235.053Y-206.788
X235.054Y-166.307
X235.689Y-128.207
X235.689Y-147.257
X238.07Y-185.357
X244.579Y-128.207
X244.579Y-147.257
X245.213Y-206.788
X245.214Y-166.307
X251.722Y-185.357
X254.103Y-206.788
X254.104Y-166.307
X254.739Y-128.207
X254.739Y-147.257
X261.882Y-185.357
X263.628Y-49.625
X263.628Y-147.257
X264.263Y-206.788
X264.264Y-166.307
X273.153Y-206.788
X273.155Y-166.307
X273.155Y-185.357
X273.788Y-49.625
X273.788Y-147.257
X283.313Y-206.788
X283.315Y-166.307
X283.315Y-185.357
X285.06Y-147.257
X287.441Y-49.625
X287.442Y-147.257
X292.203Y-206.788
X292.205Y-166.307
X292.205Y-185.357
X295.22Y-147.257
X297.601Y-49.625
X297.602Y-147.257
X302.363Y-206.788
X302.365Y-166.307
X302.365Y-185.357
T6
X30.583Y-185.357
X154.408Y-185.357
X173.458Y-185.357
X297.285Y-185.357
T7
X105.258Y-189.781
X116.308Y-104.181
X211.558Y-104.181
X245.158Y-189.781
T9
X28.202Y-159.322
X52.015Y-159.322
X113.928Y-192.342
X137.74Y-192.342
X190.127Y-192.342
X213.94Y-192.342
T10
X28.202Y-174.562
X30.583Y-206.788
X30.583Y-166.307
X30.583Y-185.357
X35.346Y-49.625
X35.346Y-147.257
X37.727Y-49.625
X37.727Y-147.257
X40.108Y-166.307
X42.49Y-166.307
X49.633Y-206.788
X49.633Y-166.307
X49.633Y-185.357
X52.015Y-174.562
X59.158Y-49.625
X59.158Y-147.257
X68.683Y-166.307
X68.683Y-206.788
X71.065Y-185.357
X78.208Y-128.207
X78.208Y-147.257
X87.733Y-166.307
X87.733Y-206.788
X94.877Y-185.357
X97.258Y-128.207
X97.258Y-147.257
X106.783Y-166.307
X106.783Y-206.788
X113.928Y-177.102
X116.308Y-49.625
X116.308Y-147.257
X125.833Y-166.307
X125.833Y-206.788
X125.834Y-185.357
X135.358Y-68.7
X135.358Y-225.838
X137.74Y-177.102
X144.883Y-87.725
X144.883Y-206.788
X154.408Y-68.675
X154.408Y-225.838
X154.408Y-185.357
X163.933Y-87.725
X163.933Y-206.788
X173.458Y-68.675
X173.458Y-225.838
X173.458Y-185.357
X182.983Y-87.725
X182.983Y-206.788
X190.127Y-177.102
X192.508Y-68.675
X192.508Y-225.838
X202.033Y-206.788
X202.033Y-185.357
X202.034Y-166.307
X211.558Y-49.625
X211.559Y-147.257
X213.94Y-177.102
X221.083Y-206.788
X221.084Y-166.307
X230.609Y-128.207
X230.609Y-147.257
X232.99Y-185.357
X240.133Y-206.788
X240.134Y-166.307
X249.659Y-128.207
X249.659Y-147.257
X256.802Y-185.357
X259.183Y-206.788
X259.184Y-166.307
X268.708Y-49.625
X268.708Y-147.257
X278.233Y-206.788
X278.235Y-166.307
X278.235Y-185.357
X290.14Y-147.257
X292.521Y-49.625
X292.522Y-147.257
X297.283Y-206.788
X297.285Y-166.307
X297.285Y-185.357
T12
X46.585Y-49.244
T2
X139.908Y-93.25G85X142.858Y-93.25
G05
X143.408Y-82.2G85X146.358Y-82.2
G05
X146.908Y-93.25G85X149.858Y-93.25
G05
X178.008Y-93.25G85X180.958Y-93.25
G05
X181.508Y-82.2G85X184.458Y-82.2
G05
X185.008Y-93.25G85X187.958Y-93.25
G05
T3
X24.983Y-184.707G85X24.983Y-186.007
G05
X36.183Y-184.707G85X36.183Y-186.007
G05
X148.808Y-184.707G85X148.808Y-186.007
G05
X160.008Y-184.707G85X160.008Y-186.007
G05
X167.858Y-184.707G85X167.858Y-186.007
G05
X179.058Y-184.707G85X179.058Y-186.007
G05
X291.685Y-184.707G85X291.685Y-186.007
G05
X302.885Y-184.707G85X302.885Y-186.007
G05
T4
X30.583Y-180.707G85X30.583Y-181.007
G05
X30.583Y-189.707G85X30.583Y-190.007
G05
X154.408Y-180.707G85X154.408Y-181.007
G05
X154.408Y-189.707G85X154.408Y-190.007
G05
X173.458Y-180.707G85X173.458Y-181.007
G05
X173.458Y-189.707G85X173.458Y-190.007
G05
X297.285Y-180.707G85X297.285Y-181.007
G05
X297.285Y-189.707G85X297.285Y-190.007
G05
T8
X280.058Y-127.831G85X282.858Y-127.831
G05
X280.058Y-127.831G85X282.858Y-127.831
G05
T11
X279.884Y-49.252G85X282.932Y-49.252
G05
T13
X148.808Y-147.131G85X150.308Y-147.131
G05
X211.16Y-185.187G85X212.66Y-185.187
G05
T0
M30
