G04 #@! TF.GenerationSoftware,KiCad,Pcbnew,(6.0.10-0)*
G04 #@! TF.CreationDate,2023-02-15T16:22:51+09:00*
G04 #@! TF.ProjectId,Sandy,53616e64-792e-46b6-9963-61645f706362,v.0*
G04 #@! TF.SameCoordinates,Original*
G04 #@! TF.FileFunction,Paste,Top*
G04 #@! TF.FilePolarity,Positive*
%FSLAX46Y46*%
G04 Gerber Fmt 4.6, Leading zero omitted, Abs format (unit mm)*
G04 Created by KiCad (PCBNEW (6.0.10-0)) date 2023-02-15 16:22:51*
%MOMM*%
%LPD*%
G01*
G04 APERTURE LIST*
G04 Aperture macros list*
%AMRoundRect*
0 Rectangle with rounded corners*
0 $1 Rounding radius*
0 $2 $3 $4 $5 $6 $7 $8 $9 X,Y pos of 4 corners*
0 Add a 4 corners polygon primitive as box body*
4,1,4,$2,$3,$4,$5,$6,$7,$8,$9,$2,$3,0*
0 Add four circle primitives for the rounded corners*
1,1,$1+$1,$2,$3*
1,1,$1+$1,$4,$5*
1,1,$1+$1,$6,$7*
1,1,$1+$1,$8,$9*
0 Add four rect primitives between the rounded corners*
20,1,$1+$1,$2,$3,$4,$5,0*
20,1,$1+$1,$4,$5,$6,$7,0*
20,1,$1+$1,$6,$7,$8,$9,0*
20,1,$1+$1,$8,$9,$2,$3,0*%
G04 Aperture macros list end*
%ADD10R,1.600000X0.850000*%
%ADD11R,2.000000X1.900000*%
%ADD12RoundRect,0.150000X0.625000X-0.150000X0.625000X0.150000X-0.625000X0.150000X-0.625000X-0.150000X0*%
%ADD13RoundRect,0.250000X0.650000X-0.350000X0.650000X0.350000X-0.650000X0.350000X-0.650000X-0.350000X0*%
%ADD14RoundRect,0.150000X0.150000X0.625000X-0.150000X0.625000X-0.150000X-0.625000X0.150000X-0.625000X0*%
%ADD15RoundRect,0.250000X0.350000X0.650000X-0.350000X0.650000X-0.350000X-0.650000X0.350000X-0.650000X0*%
%ADD16RoundRect,0.150000X-0.625000X0.150000X-0.625000X-0.150000X0.625000X-0.150000X0.625000X0.150000X0*%
%ADD17RoundRect,0.250000X-0.650000X0.350000X-0.650000X-0.350000X0.650000X-0.350000X0.650000X0.350000X0*%
G04 APERTURE END LIST*
D10*
X26208435Y-140706530D03*
X26208435Y-138956530D03*
X22708435Y-138956530D03*
X22708435Y-140706530D03*
X26208435Y-144906530D03*
X26208435Y-143156530D03*
X22708435Y-143156530D03*
X22708435Y-144906530D03*
X305008435Y-140706530D03*
X305008435Y-138956530D03*
X301508435Y-138956530D03*
X301508435Y-140706530D03*
X305008435Y-144906530D03*
X305008435Y-143156530D03*
X301508435Y-143156530D03*
X301508435Y-144906530D03*
D11*
X137383435Y-83725280D03*
X137383435Y-87725280D03*
X137383435Y-91725280D03*
X152383435Y-83725280D03*
X152383435Y-87725280D03*
X152383435Y-91725280D03*
D12*
X178602185Y-127325280D03*
X178602185Y-126325280D03*
X178602185Y-125325280D03*
X178602185Y-124325280D03*
D13*
X182477185Y-128625280D03*
X182477185Y-123025280D03*
D14*
X155908435Y-137350280D03*
X154908435Y-137350280D03*
X153908435Y-137350280D03*
X152908435Y-137350280D03*
D15*
X157208435Y-133475280D03*
X151608435Y-133475280D03*
D12*
X178602185Y-116609655D03*
X178602185Y-115609655D03*
X178602185Y-114609655D03*
X178602185Y-113609655D03*
D13*
X182477185Y-112309655D03*
X182477185Y-117909655D03*
D14*
X165433435Y-138540905D03*
X164433435Y-138540905D03*
X163433435Y-138540905D03*
X162433435Y-138540905D03*
D15*
X166733435Y-134665905D03*
X161133435Y-134665905D03*
D11*
X175483435Y-83725280D03*
X175483435Y-87725280D03*
X175483435Y-91725280D03*
X190483435Y-83725280D03*
X190483435Y-87725280D03*
X190483435Y-91725280D03*
D16*
X149264685Y-124325280D03*
X149264685Y-125325280D03*
X149264685Y-126325280D03*
X149264685Y-127325280D03*
D17*
X145389685Y-123025280D03*
X145389685Y-128625280D03*
D14*
X174958435Y-137350280D03*
X173958435Y-137350280D03*
X172958435Y-137350280D03*
X171958435Y-137350280D03*
D15*
X176258435Y-133475280D03*
X170658435Y-133475280D03*
M02*
