G04 #@! TF.GenerationSoftware,KiCad,Pcbnew,(6.0.10-0)*
G04 #@! TF.CreationDate,2023-02-15T16:58:24+09:00*
G04 #@! TF.ProjectId,Sandy,53616e64-792e-46b6-9963-61645f706362,v.0*
G04 #@! TF.SameCoordinates,Original*
G04 #@! TF.FileFunction,AssemblyDrawing,Top*
%FSLAX46Y46*%
G04 Gerber Fmt 4.6, Leading zero omitted, Abs format (unit mm)*
G04 Created by KiCad (PCBNEW (6.0.10-0)) date 2023-02-15 16:58:24*
%MOMM*%
%LPD*%
G01*
G04 APERTURE LIST*
%ADD10C,0.100000*%
%ADD11C,0.150000*%
%ADD12C,0.120000*%
%ADD13C,0.127000*%
%ADD14C,0.200000*%
G04 APERTURE END LIST*
D10*
X23898911Y-140057720D02*
X23660815Y-140057720D01*
X23660815Y-139557720D01*
X24065577Y-139795815D02*
X24232244Y-139795815D01*
X24303673Y-140057720D02*
X24065577Y-140057720D01*
X24065577Y-139557720D01*
X24303673Y-139557720D01*
X24517958Y-140057720D02*
X24517958Y-139557720D01*
X24637006Y-139557720D01*
X24708435Y-139581530D01*
X24756054Y-139629149D01*
X24779863Y-139676768D01*
X24803673Y-139772006D01*
X24803673Y-139843434D01*
X24779863Y-139938672D01*
X24756054Y-139986291D01*
X24708435Y-140033910D01*
X24637006Y-140057720D01*
X24517958Y-140057720D01*
X25279863Y-140057720D02*
X24994149Y-140057720D01*
X25137006Y-140057720D02*
X25137006Y-139557720D01*
X25089387Y-139629149D01*
X25041768Y-139676768D01*
X24994149Y-139700577D01*
X23898911Y-144257720D02*
X23660815Y-144257720D01*
X23660815Y-143757720D01*
X24065577Y-143995815D02*
X24232244Y-143995815D01*
X24303673Y-144257720D02*
X24065577Y-144257720D01*
X24065577Y-143757720D01*
X24303673Y-143757720D01*
X24517958Y-144257720D02*
X24517958Y-143757720D01*
X24637006Y-143757720D01*
X24708435Y-143781530D01*
X24756054Y-143829149D01*
X24779863Y-143876768D01*
X24803673Y-143972006D01*
X24803673Y-144043434D01*
X24779863Y-144138672D01*
X24756054Y-144186291D01*
X24708435Y-144233910D01*
X24637006Y-144257720D01*
X24517958Y-144257720D01*
X24994149Y-143805339D02*
X25017958Y-143781530D01*
X25065577Y-143757720D01*
X25184625Y-143757720D01*
X25232244Y-143781530D01*
X25256054Y-143805339D01*
X25279863Y-143852958D01*
X25279863Y-143900577D01*
X25256054Y-143972006D01*
X24970339Y-144257720D01*
X25279863Y-144257720D01*
X302698911Y-140057720D02*
X302460815Y-140057720D01*
X302460815Y-139557720D01*
X302865577Y-139795815D02*
X303032244Y-139795815D01*
X303103673Y-140057720D02*
X302865577Y-140057720D01*
X302865577Y-139557720D01*
X303103673Y-139557720D01*
X303317958Y-140057720D02*
X303317958Y-139557720D01*
X303437006Y-139557720D01*
X303508435Y-139581530D01*
X303556054Y-139629149D01*
X303579863Y-139676768D01*
X303603673Y-139772006D01*
X303603673Y-139843434D01*
X303579863Y-139938672D01*
X303556054Y-139986291D01*
X303508435Y-140033910D01*
X303437006Y-140057720D01*
X303317958Y-140057720D01*
X303770339Y-139557720D02*
X304079863Y-139557720D01*
X303913196Y-139748196D01*
X303984625Y-139748196D01*
X304032244Y-139772006D01*
X304056054Y-139795815D01*
X304079863Y-139843434D01*
X304079863Y-139962482D01*
X304056054Y-140010101D01*
X304032244Y-140033910D01*
X303984625Y-140057720D01*
X303841768Y-140057720D01*
X303794149Y-140033910D01*
X303770339Y-140010101D01*
X302698911Y-144257720D02*
X302460815Y-144257720D01*
X302460815Y-143757720D01*
X302865577Y-143995815D02*
X303032244Y-143995815D01*
X303103673Y-144257720D02*
X302865577Y-144257720D01*
X302865577Y-143757720D01*
X303103673Y-143757720D01*
X303317958Y-144257720D02*
X303317958Y-143757720D01*
X303437006Y-143757720D01*
X303508435Y-143781530D01*
X303556054Y-143829149D01*
X303579863Y-143876768D01*
X303603673Y-143972006D01*
X303603673Y-144043434D01*
X303579863Y-144138672D01*
X303556054Y-144186291D01*
X303508435Y-144233910D01*
X303437006Y-144257720D01*
X303317958Y-144257720D01*
X304032244Y-143924387D02*
X304032244Y-144257720D01*
X303913196Y-143733910D02*
X303794149Y-144091053D01*
X304103673Y-144091053D01*
D11*
X304889356Y-184204509D02*
X304936975Y-184061651D01*
X304936975Y-183823556D01*
X304889356Y-183728318D01*
X304841737Y-183680699D01*
X304746499Y-183633080D01*
X304651261Y-183633080D01*
X304556023Y-183680699D01*
X304508404Y-183728318D01*
X304460785Y-183823556D01*
X304413166Y-184014032D01*
X304365547Y-184109270D01*
X304317928Y-184156890D01*
X304222690Y-184204509D01*
X304127452Y-184204509D01*
X304032214Y-184156890D01*
X303984595Y-184109270D01*
X303936975Y-184014032D01*
X303936975Y-183775937D01*
X303984595Y-183633080D01*
X303936975Y-183299747D02*
X304936975Y-183061651D01*
X304222690Y-182871175D01*
X304936975Y-182680699D01*
X303936975Y-182442604D01*
X305032214Y-182299747D02*
X305032214Y-181537842D01*
X304936975Y-180728318D02*
X304460785Y-181061651D01*
X304936975Y-181299747D02*
X303936975Y-181299747D01*
X303936975Y-180918794D01*
X303984595Y-180823556D01*
X304032214Y-180775937D01*
X304127452Y-180728318D01*
X304270309Y-180728318D01*
X304365547Y-180775937D01*
X304413166Y-180823556D01*
X304460785Y-180918794D01*
X304460785Y-181299747D01*
X304413166Y-180299747D02*
X304413166Y-179966413D01*
X304936975Y-179823556D02*
X304936975Y-180299747D01*
X303936975Y-180299747D01*
X303936975Y-179823556D01*
X305032214Y-179633080D02*
X305032214Y-178871175D01*
X304936975Y-178061651D02*
X304460785Y-178394985D01*
X304936975Y-178633080D02*
X303936975Y-178633080D01*
X303936975Y-178252128D01*
X303984595Y-178156890D01*
X304032214Y-178109270D01*
X304127452Y-178061651D01*
X304270309Y-178061651D01*
X304365547Y-178109270D01*
X304413166Y-178156890D01*
X304460785Y-178252128D01*
X304460785Y-178633080D01*
X304936975Y-177109270D02*
X304936975Y-177680699D01*
X304936975Y-177394985D02*
X303936975Y-177394985D01*
X304079833Y-177490223D01*
X304175071Y-177585461D01*
X304222690Y-177680699D01*
X180054565Y-126158613D02*
X180768851Y-126158613D01*
X180911708Y-126206232D01*
X181006946Y-126301470D01*
X181054565Y-126444327D01*
X181054565Y-126539565D01*
X180483137Y-125539565D02*
X180435518Y-125634803D01*
X180387899Y-125682422D01*
X180292661Y-125730041D01*
X180245042Y-125730041D01*
X180149804Y-125682422D01*
X180102185Y-125634803D01*
X180054565Y-125539565D01*
X180054565Y-125349089D01*
X180102185Y-125253851D01*
X180149804Y-125206232D01*
X180245042Y-125158613D01*
X180292661Y-125158613D01*
X180387899Y-125206232D01*
X180435518Y-125253851D01*
X180483137Y-125349089D01*
X180483137Y-125539565D01*
X180530756Y-125634803D01*
X180578375Y-125682422D01*
X180673613Y-125730041D01*
X180864089Y-125730041D01*
X180959327Y-125682422D01*
X181006946Y-125634803D01*
X181054565Y-125539565D01*
X181054565Y-125349089D01*
X181006946Y-125253851D01*
X180959327Y-125206232D01*
X180864089Y-125158613D01*
X180673613Y-125158613D01*
X180578375Y-125206232D01*
X180530756Y-125253851D01*
X180483137Y-125349089D01*
X301998464Y-134612035D02*
X301998464Y-133612035D01*
X301998464Y-134088226D02*
X302569893Y-134088226D01*
X302569893Y-134612035D02*
X302569893Y-133612035D01*
X303569893Y-134612035D02*
X302998464Y-134612035D01*
X303284179Y-134612035D02*
X303284179Y-133612035D01*
X303188940Y-133754893D01*
X303093702Y-133850131D01*
X302998464Y-133897750D01*
X304188940Y-133612035D02*
X304284179Y-133612035D01*
X304379417Y-133659655D01*
X304427036Y-133707274D01*
X304474655Y-133802512D01*
X304522274Y-133992988D01*
X304522274Y-134231083D01*
X304474655Y-134421559D01*
X304427036Y-134516797D01*
X304379417Y-134564416D01*
X304284179Y-134612035D01*
X304188940Y-134612035D01*
X304093702Y-134564416D01*
X304046083Y-134516797D01*
X303998464Y-134421559D01*
X303950845Y-134231083D01*
X303950845Y-133992988D01*
X303998464Y-133802512D01*
X304046083Y-133707274D01*
X304093702Y-133659655D01*
X304188940Y-133612035D01*
X154075101Y-134802660D02*
X154075101Y-135516946D01*
X154027482Y-135659803D01*
X153932244Y-135755041D01*
X153789387Y-135802660D01*
X153694149Y-135802660D01*
X154598911Y-135802660D02*
X154789387Y-135802660D01*
X154884625Y-135755041D01*
X154932244Y-135707422D01*
X155027482Y-135564565D01*
X155075101Y-135374089D01*
X155075101Y-134993137D01*
X155027482Y-134897899D01*
X154979863Y-134850280D01*
X154884625Y-134802660D01*
X154694149Y-134802660D01*
X154598911Y-134850280D01*
X154551292Y-134897899D01*
X154503673Y-134993137D01*
X154503673Y-135231232D01*
X154551292Y-135326470D01*
X154598911Y-135374089D01*
X154694149Y-135421708D01*
X154884625Y-135421708D01*
X154979863Y-135374089D01*
X155027482Y-135326470D01*
X155075101Y-135231232D01*
X38188236Y-184109270D02*
X38235855Y-183966413D01*
X38235855Y-183728318D01*
X38188236Y-183633080D01*
X38140617Y-183585461D01*
X38045379Y-183537842D01*
X37950141Y-183537842D01*
X37854903Y-183585461D01*
X37807284Y-183633080D01*
X37759665Y-183728318D01*
X37712046Y-183918794D01*
X37664427Y-184014032D01*
X37616808Y-184061651D01*
X37521570Y-184109270D01*
X37426332Y-184109270D01*
X37331094Y-184061651D01*
X37283475Y-184014032D01*
X37235855Y-183918794D01*
X37235855Y-183680699D01*
X37283475Y-183537842D01*
X37235855Y-183204509D02*
X38235855Y-182966413D01*
X37521570Y-182775937D01*
X38235855Y-182585461D01*
X37235855Y-182347366D01*
X38331094Y-182204509D02*
X38331094Y-181442604D01*
X38235855Y-180633080D02*
X37759665Y-180966413D01*
X38235855Y-181204509D02*
X37235855Y-181204509D01*
X37235855Y-180823556D01*
X37283475Y-180728318D01*
X37331094Y-180680699D01*
X37426332Y-180633080D01*
X37569189Y-180633080D01*
X37664427Y-180680699D01*
X37712046Y-180728318D01*
X37759665Y-180823556D01*
X37759665Y-181204509D01*
X37712046Y-180204509D02*
X37712046Y-179871175D01*
X38235855Y-179728318D02*
X38235855Y-180204509D01*
X37235855Y-180204509D01*
X37235855Y-179728318D01*
X38331094Y-179537842D02*
X38331094Y-178775937D01*
X38235855Y-178061651D02*
X38235855Y-178537842D01*
X37235855Y-178537842D01*
X38235855Y-177204509D02*
X38235855Y-177775937D01*
X38235855Y-177490223D02*
X37235855Y-177490223D01*
X37378713Y-177585461D01*
X37473951Y-177680699D01*
X37521570Y-177775937D01*
X180054565Y-115442988D02*
X180768851Y-115442988D01*
X180911708Y-115490607D01*
X181006946Y-115585845D01*
X181054565Y-115728702D01*
X181054565Y-115823940D01*
X180054565Y-115062035D02*
X180054565Y-114395369D01*
X181054565Y-114823940D01*
X23873002Y-103167160D02*
X23873002Y-102167160D01*
X23873002Y-102643351D02*
X24444430Y-102643351D01*
X24444430Y-103167160D02*
X24444430Y-102167160D01*
X25349192Y-102167160D02*
X25158716Y-102167160D01*
X25063478Y-102214780D01*
X25015859Y-102262399D01*
X24920621Y-102405256D01*
X24873002Y-102595732D01*
X24873002Y-102976684D01*
X24920621Y-103071922D01*
X24968240Y-103119541D01*
X25063478Y-103167160D01*
X25253954Y-103167160D01*
X25349192Y-103119541D01*
X25396811Y-103071922D01*
X25444430Y-102976684D01*
X25444430Y-102738589D01*
X25396811Y-102643351D01*
X25349192Y-102595732D01*
X25253954Y-102548113D01*
X25063478Y-102548113D01*
X24968240Y-102595732D01*
X24920621Y-102643351D01*
X24873002Y-102738589D01*
X135310964Y-24585910D02*
X135310964Y-23585910D01*
X135310964Y-24062101D02*
X135882393Y-24062101D01*
X135882393Y-24585910D02*
X135882393Y-23585910D01*
X136310964Y-23681149D02*
X136358583Y-23633530D01*
X136453821Y-23585910D01*
X136691917Y-23585910D01*
X136787155Y-23633530D01*
X136834774Y-23681149D01*
X136882393Y-23776387D01*
X136882393Y-23871625D01*
X136834774Y-24014482D01*
X136263345Y-24585910D01*
X136882393Y-24585910D01*
X137739536Y-23919244D02*
X137739536Y-24585910D01*
X137501440Y-23538291D02*
X137263345Y-24252577D01*
X137882393Y-24252577D01*
X229370339Y-32218285D02*
X229370339Y-31218285D01*
X229370339Y-31694476D02*
X229941768Y-31694476D01*
X229941768Y-32218285D02*
X229941768Y-31218285D01*
X230370339Y-31313524D02*
X230417958Y-31265905D01*
X230513196Y-31218285D01*
X230751292Y-31218285D01*
X230846530Y-31265905D01*
X230894149Y-31313524D01*
X230941768Y-31408762D01*
X230941768Y-31504000D01*
X230894149Y-31646857D01*
X230322720Y-32218285D01*
X230941768Y-32218285D01*
X231513196Y-31646857D02*
X231417958Y-31599238D01*
X231370339Y-31551619D01*
X231322720Y-31456381D01*
X231322720Y-31408762D01*
X231370339Y-31313524D01*
X231417958Y-31265905D01*
X231513196Y-31218285D01*
X231703673Y-31218285D01*
X231798911Y-31265905D01*
X231846530Y-31313524D01*
X231894149Y-31408762D01*
X231894149Y-31456381D01*
X231846530Y-31551619D01*
X231798911Y-31599238D01*
X231703673Y-31646857D01*
X231513196Y-31646857D01*
X231417958Y-31694476D01*
X231370339Y-31742095D01*
X231322720Y-31837333D01*
X231322720Y-32027809D01*
X231370339Y-32123047D01*
X231417958Y-32170666D01*
X231513196Y-32218285D01*
X231703673Y-32218285D01*
X231798911Y-32170666D01*
X231846530Y-32123047D01*
X231894149Y-32027809D01*
X231894149Y-31837333D01*
X231846530Y-31742095D01*
X231798911Y-31694476D01*
X231703673Y-31646857D01*
X96020339Y-32218285D02*
X96020339Y-31218285D01*
X96020339Y-31694476D02*
X96591768Y-31694476D01*
X96591768Y-32218285D02*
X96591768Y-31218285D01*
X97020339Y-31313524D02*
X97067958Y-31265905D01*
X97163196Y-31218285D01*
X97401292Y-31218285D01*
X97496530Y-31265905D01*
X97544149Y-31313524D01*
X97591768Y-31408762D01*
X97591768Y-31504000D01*
X97544149Y-31646857D01*
X96972720Y-32218285D01*
X97591768Y-32218285D01*
X97925101Y-31218285D02*
X98591768Y-31218285D01*
X98163196Y-32218285D01*
X163171530Y-103167160D02*
X163171530Y-102167160D01*
X163171530Y-102643351D02*
X163742958Y-102643351D01*
X163742958Y-103167160D02*
X163742958Y-102167160D01*
X164362006Y-102595732D02*
X164266768Y-102548113D01*
X164219149Y-102500494D01*
X164171530Y-102405256D01*
X164171530Y-102357637D01*
X164219149Y-102262399D01*
X164266768Y-102214780D01*
X164362006Y-102167160D01*
X164552482Y-102167160D01*
X164647720Y-102214780D01*
X164695339Y-102262399D01*
X164742958Y-102357637D01*
X164742958Y-102405256D01*
X164695339Y-102500494D01*
X164647720Y-102548113D01*
X164552482Y-102595732D01*
X164362006Y-102595732D01*
X164266768Y-102643351D01*
X164219149Y-102690970D01*
X164171530Y-102786208D01*
X164171530Y-102976684D01*
X164219149Y-103071922D01*
X164266768Y-103119541D01*
X164362006Y-103167160D01*
X164552482Y-103167160D01*
X164647720Y-103119541D01*
X164695339Y-103071922D01*
X164742958Y-102976684D01*
X164742958Y-102786208D01*
X164695339Y-102690970D01*
X164647720Y-102643351D01*
X164552482Y-102595732D01*
X77446530Y-110799535D02*
X77446530Y-109799535D01*
X77446530Y-110275726D02*
X78017958Y-110275726D01*
X78017958Y-110799535D02*
X78017958Y-109799535D01*
X78398911Y-109799535D02*
X79065577Y-109799535D01*
X78637006Y-110799535D01*
X200795339Y-134658910D02*
X200795339Y-133658910D01*
X200795339Y-134135101D02*
X201366768Y-134135101D01*
X201366768Y-134658910D02*
X201366768Y-133658910D01*
X202366768Y-134658910D02*
X201795339Y-134658910D01*
X202081054Y-134658910D02*
X202081054Y-133658910D01*
X201985815Y-133801768D01*
X201890577Y-133897006D01*
X201795339Y-133944625D01*
X203223911Y-133992244D02*
X203223911Y-134658910D01*
X202985815Y-133611291D02*
X202747720Y-134325577D01*
X203366768Y-134325577D01*
X163123911Y-135993285D02*
X163123911Y-136707571D01*
X163076292Y-136850428D01*
X162981054Y-136945666D01*
X162838196Y-136993285D01*
X162742958Y-136993285D01*
X164123911Y-136993285D02*
X163552482Y-136993285D01*
X163838196Y-136993285D02*
X163838196Y-135993285D01*
X163742958Y-136136143D01*
X163647720Y-136231381D01*
X163552482Y-136279000D01*
X164742958Y-135993285D02*
X164838196Y-135993285D01*
X164933435Y-136040905D01*
X164981054Y-136088524D01*
X165028673Y-136183762D01*
X165076292Y-136374238D01*
X165076292Y-136612333D01*
X165028673Y-136802809D01*
X164981054Y-136898047D01*
X164933435Y-136945666D01*
X164838196Y-136993285D01*
X164742958Y-136993285D01*
X164647720Y-136945666D01*
X164600101Y-136898047D01*
X164552482Y-136802809D01*
X164504863Y-136612333D01*
X164504863Y-136374238D01*
X164552482Y-136183762D01*
X164600101Y-136088524D01*
X164647720Y-136040905D01*
X164742958Y-135993285D01*
X181745339Y-56030785D02*
X181745339Y-55030785D01*
X181745339Y-55506976D02*
X182316768Y-55506976D01*
X182316768Y-56030785D02*
X182316768Y-55030785D01*
X182697720Y-55030785D02*
X183316768Y-55030785D01*
X182983435Y-55411738D01*
X183126292Y-55411738D01*
X183221530Y-55459357D01*
X183269149Y-55506976D01*
X183316768Y-55602214D01*
X183316768Y-55840309D01*
X183269149Y-55935547D01*
X183221530Y-55983166D01*
X183126292Y-56030785D01*
X182840577Y-56030785D01*
X182745339Y-55983166D01*
X182697720Y-55935547D01*
X184269149Y-56030785D02*
X183697720Y-56030785D01*
X183983435Y-56030785D02*
X183983435Y-55030785D01*
X183888196Y-55173643D01*
X183792958Y-55268881D01*
X183697720Y-55316500D01*
X143645339Y-56030785D02*
X143645339Y-55030785D01*
X143645339Y-55506976D02*
X144216768Y-55506976D01*
X144216768Y-56030785D02*
X144216768Y-55030785D01*
X144597720Y-55030785D02*
X145216768Y-55030785D01*
X144883435Y-55411738D01*
X145026292Y-55411738D01*
X145121530Y-55459357D01*
X145169149Y-55506976D01*
X145216768Y-55602214D01*
X145216768Y-55840309D01*
X145169149Y-55935547D01*
X145121530Y-55983166D01*
X145026292Y-56030785D01*
X144740577Y-56030785D01*
X144645339Y-55983166D01*
X144597720Y-55935547D01*
X145835815Y-55030785D02*
X145931054Y-55030785D01*
X146026292Y-55078405D01*
X146073911Y-55126024D01*
X146121530Y-55221262D01*
X146169149Y-55411738D01*
X146169149Y-55649833D01*
X146121530Y-55840309D01*
X146073911Y-55935547D01*
X146026292Y-55983166D01*
X145931054Y-56030785D01*
X145835815Y-56030785D01*
X145740577Y-55983166D01*
X145692958Y-55935547D01*
X145645339Y-55840309D01*
X145597720Y-55649833D01*
X145597720Y-55411738D01*
X145645339Y-55221262D01*
X145692958Y-55126024D01*
X145740577Y-55078405D01*
X145835815Y-55030785D01*
X181063236Y-184204509D02*
X181110855Y-184061651D01*
X181110855Y-183823556D01*
X181063236Y-183728318D01*
X181015617Y-183680699D01*
X180920379Y-183633080D01*
X180825141Y-183633080D01*
X180729903Y-183680699D01*
X180682284Y-183728318D01*
X180634665Y-183823556D01*
X180587046Y-184014032D01*
X180539427Y-184109270D01*
X180491808Y-184156890D01*
X180396570Y-184204509D01*
X180301332Y-184204509D01*
X180206094Y-184156890D01*
X180158475Y-184109270D01*
X180110855Y-184014032D01*
X180110855Y-183775937D01*
X180158475Y-183633080D01*
X180110855Y-183299747D02*
X181110855Y-183061651D01*
X180396570Y-182871175D01*
X181110855Y-182680699D01*
X180110855Y-182442604D01*
X181206094Y-182299747D02*
X181206094Y-181537842D01*
X181110855Y-180728318D02*
X180634665Y-181061651D01*
X181110855Y-181299747D02*
X180110855Y-181299747D01*
X180110855Y-180918794D01*
X180158475Y-180823556D01*
X180206094Y-180775937D01*
X180301332Y-180728318D01*
X180444189Y-180728318D01*
X180539427Y-180775937D01*
X180587046Y-180823556D01*
X180634665Y-180918794D01*
X180634665Y-181299747D01*
X180587046Y-180299747D02*
X180587046Y-179966413D01*
X181110855Y-179823556D02*
X181110855Y-180299747D01*
X180110855Y-180299747D01*
X180110855Y-179823556D01*
X181206094Y-179633080D02*
X181206094Y-178871175D01*
X181110855Y-178061651D02*
X180634665Y-178394985D01*
X181110855Y-178633080D02*
X180110855Y-178633080D01*
X180110855Y-178252128D01*
X180158475Y-178156890D01*
X180206094Y-178109270D01*
X180301332Y-178061651D01*
X180444189Y-178061651D01*
X180539427Y-178109270D01*
X180587046Y-178156890D01*
X180634665Y-178252128D01*
X180634665Y-178633080D01*
X180206094Y-177680699D02*
X180158475Y-177633080D01*
X180110855Y-177537842D01*
X180110855Y-177299747D01*
X180158475Y-177204509D01*
X180206094Y-177156890D01*
X180301332Y-177109270D01*
X180396570Y-177109270D01*
X180539427Y-177156890D01*
X181110855Y-177728318D01*
X181110855Y-177109270D01*
X192460964Y-24585910D02*
X192460964Y-23585910D01*
X192460964Y-24062101D02*
X193032393Y-24062101D01*
X193032393Y-24585910D02*
X193032393Y-23585910D01*
X193460964Y-23681149D02*
X193508583Y-23633530D01*
X193603821Y-23585910D01*
X193841917Y-23585910D01*
X193937155Y-23633530D01*
X193984774Y-23681149D01*
X194032393Y-23776387D01*
X194032393Y-23871625D01*
X193984774Y-24014482D01*
X193413345Y-24585910D01*
X194032393Y-24585910D01*
X194937155Y-23585910D02*
X194460964Y-23585910D01*
X194413345Y-24062101D01*
X194460964Y-24014482D01*
X194556202Y-23966863D01*
X194794298Y-23966863D01*
X194889536Y-24014482D01*
X194937155Y-24062101D01*
X194984774Y-24157339D01*
X194984774Y-24395434D01*
X194937155Y-24490672D01*
X194889536Y-24538291D01*
X194794298Y-24585910D01*
X194556202Y-24585910D01*
X194460964Y-24538291D01*
X194413345Y-24490672D01*
X146717065Y-126158613D02*
X147431351Y-126158613D01*
X147574208Y-126206232D01*
X147669446Y-126301470D01*
X147717065Y-126444327D01*
X147717065Y-126539565D01*
X146717065Y-125253851D02*
X146717065Y-125444327D01*
X146764685Y-125539565D01*
X146812304Y-125587184D01*
X146955161Y-125682422D01*
X147145637Y-125730041D01*
X147526589Y-125730041D01*
X147621827Y-125682422D01*
X147669446Y-125634803D01*
X147717065Y-125539565D01*
X147717065Y-125349089D01*
X147669446Y-125253851D01*
X147621827Y-125206232D01*
X147526589Y-125158613D01*
X147288494Y-125158613D01*
X147193256Y-125206232D01*
X147145637Y-125253851D01*
X147098018Y-125349089D01*
X147098018Y-125539565D01*
X147145637Y-125634803D01*
X147193256Y-125682422D01*
X147288494Y-125730041D01*
X172648911Y-134802660D02*
X172648911Y-135516946D01*
X172601292Y-135659803D01*
X172506054Y-135755041D01*
X172363196Y-135802660D01*
X172267958Y-135802660D01*
X173648911Y-135802660D02*
X173077482Y-135802660D01*
X173363196Y-135802660D02*
X173363196Y-134802660D01*
X173267958Y-134945518D01*
X173172720Y-135040756D01*
X173077482Y-135088375D01*
X174553673Y-134802660D02*
X174077482Y-134802660D01*
X174029863Y-135278851D01*
X174077482Y-135231232D01*
X174172720Y-135183613D01*
X174410815Y-135183613D01*
X174506054Y-135231232D01*
X174553673Y-135278851D01*
X174601292Y-135374089D01*
X174601292Y-135612184D01*
X174553673Y-135707422D01*
X174506054Y-135755041D01*
X174410815Y-135802660D01*
X174172720Y-135802660D01*
X174077482Y-135755041D01*
X174029863Y-135707422D01*
X137692214Y-157233910D02*
X137692214Y-156233910D01*
X137692214Y-156710101D02*
X138263643Y-156710101D01*
X138263643Y-157233910D02*
X138263643Y-156233910D01*
X139168405Y-156567244D02*
X139168405Y-157233910D01*
X138930310Y-156186291D02*
X138692214Y-156900577D01*
X139311262Y-156900577D01*
X139882690Y-156233910D02*
X139977929Y-156233910D01*
X140073167Y-156281530D01*
X140120786Y-156329149D01*
X140168405Y-156424387D01*
X140216024Y-156614863D01*
X140216024Y-156852958D01*
X140168405Y-157043434D01*
X140120786Y-157138672D01*
X140073167Y-157186291D01*
X139977929Y-157233910D01*
X139882690Y-157233910D01*
X139787452Y-157186291D01*
X139739833Y-157138672D01*
X139692214Y-157043434D01*
X139644595Y-156852958D01*
X139644595Y-156614863D01*
X139692214Y-156424387D01*
X139739833Y-156329149D01*
X139787452Y-156281530D01*
X139882690Y-156233910D01*
X286520339Y-32218285D02*
X286520339Y-31218285D01*
X286520339Y-31694476D02*
X287091768Y-31694476D01*
X287091768Y-32218285D02*
X287091768Y-31218285D01*
X287520339Y-31313524D02*
X287567958Y-31265905D01*
X287663196Y-31218285D01*
X287901292Y-31218285D01*
X287996530Y-31265905D01*
X288044149Y-31313524D01*
X288091768Y-31408762D01*
X288091768Y-31504000D01*
X288044149Y-31646857D01*
X287472720Y-32218285D01*
X288091768Y-32218285D01*
X288567958Y-32218285D02*
X288758435Y-32218285D01*
X288853673Y-32170666D01*
X288901292Y-32123047D01*
X288996530Y-31980190D01*
X289044149Y-31789714D01*
X289044149Y-31408762D01*
X288996530Y-31313524D01*
X288948911Y-31265905D01*
X288853673Y-31218285D01*
X288663196Y-31218285D01*
X288567958Y-31265905D01*
X288520339Y-31313524D01*
X288472720Y-31408762D01*
X288472720Y-31646857D01*
X288520339Y-31742095D01*
X288567958Y-31789714D01*
X288663196Y-31837333D01*
X288853673Y-31837333D01*
X288948911Y-31789714D01*
X288996530Y-31742095D01*
X289044149Y-31646857D01*
X248896530Y-110799535D02*
X248896530Y-109799535D01*
X248896530Y-110275726D02*
X249467958Y-110275726D01*
X249467958Y-110799535D02*
X249467958Y-109799535D01*
X249991768Y-110799535D02*
X250182244Y-110799535D01*
X250277482Y-110751916D01*
X250325101Y-110704297D01*
X250420339Y-110561440D01*
X250467958Y-110370964D01*
X250467958Y-109990012D01*
X250420339Y-109894774D01*
X250372720Y-109847155D01*
X250277482Y-109799535D01*
X250087006Y-109799535D01*
X249991768Y-109847155D01*
X249944149Y-109894774D01*
X249896530Y-109990012D01*
X249896530Y-110228107D01*
X249944149Y-110323345D01*
X249991768Y-110370964D01*
X250087006Y-110418583D01*
X250277482Y-110418583D01*
X250372720Y-110370964D01*
X250420339Y-110323345D01*
X250467958Y-110228107D01*
X124595339Y-134612035D02*
X124595339Y-133612035D01*
X124595339Y-134088226D02*
X125166768Y-134088226D01*
X125166768Y-134612035D02*
X125166768Y-133612035D01*
X126166768Y-134612035D02*
X125595339Y-134612035D01*
X125881054Y-134612035D02*
X125881054Y-133612035D01*
X125785815Y-133754893D01*
X125690577Y-133850131D01*
X125595339Y-133897750D01*
X126500101Y-133612035D02*
X127119149Y-133612035D01*
X126785815Y-133992988D01*
X126928673Y-133992988D01*
X127023911Y-134040607D01*
X127071530Y-134088226D01*
X127119149Y-134183464D01*
X127119149Y-134421559D01*
X127071530Y-134516797D01*
X127023911Y-134564416D01*
X126928673Y-134612035D01*
X126642958Y-134612035D01*
X126547720Y-134564416D01*
X126500101Y-134516797D01*
X23392214Y-134612035D02*
X23392214Y-133612035D01*
X23392214Y-134088226D02*
X23963643Y-134088226D01*
X23963643Y-134612035D02*
X23963643Y-133612035D01*
X24963643Y-134612035D02*
X24392214Y-134612035D01*
X24677929Y-134612035D02*
X24677929Y-133612035D01*
X24582690Y-133754893D01*
X24487452Y-133850131D01*
X24392214Y-133897750D01*
X25916024Y-134612035D02*
X25344595Y-134612035D01*
X25630310Y-134612035D02*
X25630310Y-133612035D01*
X25535071Y-133754893D01*
X25439833Y-133850131D01*
X25344595Y-133897750D01*
X162013236Y-184108910D02*
X162060855Y-183966053D01*
X162060855Y-183727958D01*
X162013236Y-183632720D01*
X161965617Y-183585101D01*
X161870379Y-183537482D01*
X161775141Y-183537482D01*
X161679903Y-183585101D01*
X161632284Y-183632720D01*
X161584665Y-183727958D01*
X161537046Y-183918434D01*
X161489427Y-184013672D01*
X161441808Y-184061291D01*
X161346570Y-184108910D01*
X161251332Y-184108910D01*
X161156094Y-184061291D01*
X161108475Y-184013672D01*
X161060855Y-183918434D01*
X161060855Y-183680339D01*
X161108475Y-183537482D01*
X161060855Y-183204149D02*
X162060855Y-182966053D01*
X161346570Y-182775577D01*
X162060855Y-182585101D01*
X161060855Y-182347006D01*
X162156094Y-182204149D02*
X162156094Y-181442244D01*
X162060855Y-180632720D02*
X161584665Y-180966053D01*
X162060855Y-181204149D02*
X161060855Y-181204149D01*
X161060855Y-180823196D01*
X161108475Y-180727958D01*
X161156094Y-180680339D01*
X161251332Y-180632720D01*
X161394189Y-180632720D01*
X161489427Y-180680339D01*
X161537046Y-180727958D01*
X161584665Y-180823196D01*
X161584665Y-181204149D01*
X161537046Y-180204149D02*
X161537046Y-179870815D01*
X162060855Y-179727958D02*
X162060855Y-180204149D01*
X161060855Y-180204149D01*
X161060855Y-179727958D01*
X162156094Y-179537482D02*
X162156094Y-178775577D01*
X162060855Y-178061291D02*
X162060855Y-178537482D01*
X161060855Y-178537482D01*
X161156094Y-177775577D02*
X161108475Y-177727958D01*
X161060855Y-177632720D01*
X161060855Y-177394625D01*
X161108475Y-177299387D01*
X161156094Y-177251768D01*
X161251332Y-177204149D01*
X161346570Y-177204149D01*
X161489427Y-177251768D01*
X162060855Y-177823196D01*
X162060855Y-177204149D01*
X38870339Y-32218285D02*
X38870339Y-31218285D01*
X38870339Y-31694476D02*
X39441768Y-31694476D01*
X39441768Y-32218285D02*
X39441768Y-31218285D01*
X39870339Y-31313524D02*
X39917958Y-31265905D01*
X40013196Y-31218285D01*
X40251292Y-31218285D01*
X40346530Y-31265905D01*
X40394149Y-31313524D01*
X40441768Y-31408762D01*
X40441768Y-31504000D01*
X40394149Y-31646857D01*
X39822720Y-32218285D01*
X40441768Y-32218285D01*
X41298911Y-31218285D02*
X41108435Y-31218285D01*
X41013196Y-31265905D01*
X40965577Y-31313524D01*
X40870339Y-31456381D01*
X40822720Y-31646857D01*
X40822720Y-32027809D01*
X40870339Y-32123047D01*
X40917958Y-32170666D01*
X41013196Y-32218285D01*
X41203673Y-32218285D01*
X41298911Y-32170666D01*
X41346530Y-32123047D01*
X41394149Y-32027809D01*
X41394149Y-31789714D01*
X41346530Y-31694476D01*
X41298911Y-31646857D01*
X41203673Y-31599238D01*
X41013196Y-31599238D01*
X40917958Y-31646857D01*
X40870339Y-31694476D01*
X40822720Y-31789714D01*
X301998464Y-103167160D02*
X301998464Y-102167160D01*
X301998464Y-102643351D02*
X302569893Y-102643351D01*
X302569893Y-103167160D02*
X302569893Y-102167160D01*
X303569893Y-103167160D02*
X302998464Y-103167160D01*
X303284179Y-103167160D02*
X303284179Y-102167160D01*
X303188940Y-102310018D01*
X303093702Y-102405256D01*
X302998464Y-102452875D01*
X303950845Y-102262399D02*
X303998464Y-102214780D01*
X304093702Y-102167160D01*
X304331798Y-102167160D01*
X304427036Y-102214780D01*
X304474655Y-102262399D01*
X304522274Y-102357637D01*
X304522274Y-102452875D01*
X304474655Y-102595732D01*
X303903226Y-103167160D01*
X304522274Y-103167160D01*
X187698464Y-157233910D02*
X187698464Y-156233910D01*
X187698464Y-156710101D02*
X188269893Y-156710101D01*
X188269893Y-157233910D02*
X188269893Y-156233910D01*
X189174655Y-156567244D02*
X189174655Y-157233910D01*
X188936560Y-156186291D02*
X188698464Y-156900577D01*
X189317512Y-156900577D01*
X190222274Y-157233910D02*
X189650845Y-157233910D01*
X189936560Y-157233910D02*
X189936560Y-156233910D01*
X189841321Y-156376768D01*
X189746083Y-156472006D01*
X189650845Y-156519625D01*
D10*
X22708435Y-141581530D02*
X26208435Y-141581530D01*
X22708435Y-139081530D02*
X23708435Y-138081530D01*
X26208435Y-138081530D02*
X22708435Y-138081530D01*
X22708435Y-138081530D02*
X22708435Y-141581530D01*
X26208435Y-141581530D02*
X26208435Y-138081530D01*
X25958435Y-139831530D02*
G75*
G03*
X25958435Y-139831530I-1500000J0D01*
G01*
X26208435Y-145781530D02*
X26208435Y-142281530D01*
X22708435Y-142281530D02*
X22708435Y-145781530D01*
X22708435Y-145781530D02*
X26208435Y-145781530D01*
X22708435Y-143281530D02*
X23708435Y-142281530D01*
X26208435Y-142281530D02*
X22708435Y-142281530D01*
X25958435Y-144031530D02*
G75*
G03*
X25958435Y-144031530I-1500000J0D01*
G01*
X305008435Y-138081530D02*
X301508435Y-138081530D01*
X301508435Y-141581530D02*
X305008435Y-141581530D01*
X305008435Y-141581530D02*
X305008435Y-138081530D01*
X301508435Y-139081530D02*
X302508435Y-138081530D01*
X301508435Y-138081530D02*
X301508435Y-141581530D01*
X304758435Y-139831530D02*
G75*
G03*
X304758435Y-139831530I-1500000J0D01*
G01*
X305008435Y-142281530D02*
X301508435Y-142281530D01*
X305008435Y-145781530D02*
X305008435Y-142281530D01*
X301508435Y-142281530D02*
X301508435Y-145781530D01*
X301508435Y-143281530D02*
X302508435Y-142281530D01*
X301508435Y-145781530D02*
X305008435Y-145781530D01*
X304758435Y-144031530D02*
G75*
G03*
X304758435Y-144031530I-1500000J0D01*
G01*
D12*
X291484595Y-191356890D02*
X291484595Y-179356890D01*
X291484595Y-179356890D02*
X301984595Y-179356890D01*
X297284595Y-182356890D02*
X297284595Y-188356890D01*
X303084595Y-180356890D02*
X303084595Y-191356890D01*
X300284595Y-185356890D02*
X294284595Y-185356890D01*
X301984595Y-179356890D02*
X303084595Y-180356890D01*
X303084595Y-191356890D02*
X291484595Y-191356890D01*
X300284595Y-185356890D02*
G75*
G03*
X300284595Y-185356890I-3000000J0D01*
G01*
D13*
X151083435Y-81525280D02*
X151083435Y-93925280D01*
X138683435Y-81525280D02*
X151083435Y-81525280D01*
X138683435Y-93925280D02*
X138683435Y-81525280D01*
X151083435Y-93925280D02*
X138683435Y-93925280D01*
D14*
X137083435Y-82000280D02*
G75*
G03*
X137083435Y-82000280I-100000J0D01*
G01*
D10*
X178927185Y-127825280D02*
X179634292Y-127325280D01*
X179634292Y-127325280D02*
X178927185Y-126825280D01*
X178927185Y-122825280D02*
X183177185Y-122825280D01*
X178927185Y-128825280D02*
X178927185Y-122825280D01*
X178927185Y-128825280D02*
X183177185Y-128825280D01*
X183177185Y-128825280D02*
X183177185Y-122825280D01*
X151408435Y-137025280D02*
X151408435Y-132775280D01*
X157408435Y-137025280D02*
X151408435Y-137025280D01*
X155908435Y-136318173D02*
X155408435Y-137025280D01*
X157408435Y-137025280D02*
X157408435Y-132775280D01*
X156408435Y-137025280D02*
X155908435Y-136318173D01*
X157408435Y-132775280D02*
X151408435Y-132775280D01*
D12*
X33583475Y-185356890D02*
X27583475Y-185356890D01*
X30583475Y-182356890D02*
X30583475Y-188356890D01*
X35283475Y-179356890D02*
X36383475Y-180356890D01*
X24783475Y-179356890D02*
X35283475Y-179356890D01*
X36383475Y-191356890D02*
X24783475Y-191356890D01*
X24783475Y-191356890D02*
X24783475Y-179356890D01*
X36383475Y-180356890D02*
X36383475Y-191356890D01*
X33583475Y-185356890D02*
G75*
G03*
X33583475Y-185356890I-3000000J0D01*
G01*
D10*
X183177185Y-118109655D02*
X183177185Y-112109655D01*
X179634292Y-116609655D02*
X178927185Y-116109655D01*
X178927185Y-118109655D02*
X183177185Y-118109655D01*
X178927185Y-118109655D02*
X178927185Y-112109655D01*
X178927185Y-117109655D02*
X179634292Y-116609655D01*
X178927185Y-112109655D02*
X183177185Y-112109655D01*
X160933435Y-138215905D02*
X160933435Y-133965905D01*
X166933435Y-133965905D02*
X160933435Y-133965905D01*
X166933435Y-138215905D02*
X166933435Y-133965905D01*
X165933435Y-138215905D02*
X165433435Y-137508798D01*
X165433435Y-137508798D02*
X164933435Y-138215905D01*
X166933435Y-138215905D02*
X160933435Y-138215905D01*
D13*
X176783435Y-93925280D02*
X176783435Y-81525280D01*
X189183435Y-93925280D02*
X176783435Y-93925280D01*
X189183435Y-81525280D02*
X189183435Y-93925280D01*
X176783435Y-81525280D02*
X189183435Y-81525280D01*
D14*
X175183435Y-82000280D02*
G75*
G03*
X175183435Y-82000280I-100000J0D01*
G01*
D12*
X176458475Y-185356890D02*
X170458475Y-185356890D01*
X179258475Y-180356890D02*
X179258475Y-191356890D01*
X167658475Y-179356890D02*
X178158475Y-179356890D01*
X179258475Y-191356890D02*
X167658475Y-191356890D01*
X167658475Y-191356890D02*
X167658475Y-179356890D01*
X173458475Y-182356890D02*
X173458475Y-188356890D01*
X178158475Y-179356890D02*
X179258475Y-180356890D01*
X176458475Y-185356890D02*
G75*
G03*
X176458475Y-185356890I-3000000J0D01*
G01*
D10*
X148232578Y-124325280D02*
X148939685Y-124825280D01*
X148939685Y-123825280D02*
X148232578Y-124325280D01*
X148939685Y-122825280D02*
X144689685Y-122825280D01*
X144689685Y-122825280D02*
X144689685Y-128825280D01*
X148939685Y-128825280D02*
X144689685Y-128825280D01*
X148939685Y-122825280D02*
X148939685Y-128825280D01*
X176458435Y-137025280D02*
X176458435Y-132775280D01*
X176458435Y-137025280D02*
X170458435Y-137025280D01*
X175458435Y-137025280D02*
X174958435Y-136318173D01*
X170458435Y-137025280D02*
X170458435Y-132775280D01*
X176458435Y-132775280D02*
X170458435Y-132775280D01*
X174958435Y-136318173D02*
X174458435Y-137025280D01*
D12*
X148608475Y-191356530D02*
X148608475Y-179356530D01*
X159108475Y-179356530D02*
X160208475Y-180356530D01*
X160208475Y-191356530D02*
X148608475Y-191356530D01*
X157408475Y-185356530D02*
X151408475Y-185356530D01*
X148608475Y-179356530D02*
X159108475Y-179356530D01*
X154408475Y-182356530D02*
X154408475Y-188356530D01*
X160208475Y-180356530D02*
X160208475Y-191356530D01*
X157408475Y-185356530D02*
G75*
G03*
X157408475Y-185356530I-3000000J0D01*
G01*
M02*
