%TF.GenerationSoftware,KiCad,Pcbnew,7.0.1-0*%
%TF.CreationDate,2023-05-14T12:23:07+09:00*%
%TF.ProjectId,Sandy_Plate_Top,53616e64-795f-4506-9c61-74655f546f70,v.0*%
%TF.SameCoordinates,Original*%
%TF.FileFunction,Drillmap*%
%TF.FilePolarity,Positive*%
%FSLAX45Y45*%
G04 Gerber Fmt 4.5, Leading zero omitted, Abs format (unit mm)*
G04 Created by KiCad (PCBNEW 7.0.1-0) date 2023-05-14 12:23:07*
%MOMM*%
%LPD*%
G01*
G04 APERTURE LIST*
%ADD10C,0.200000*%
G04 APERTURE END LIST*
D10*
X1778150Y-5865360D02*
X1778150Y-5665360D01*
X1778150Y-5665360D02*
X1825769Y-5665360D01*
X1825769Y-5665360D02*
X1854340Y-5674884D01*
X1854340Y-5674884D02*
X1873388Y-5693932D01*
X1873388Y-5693932D02*
X1882912Y-5712979D01*
X1882912Y-5712979D02*
X1892436Y-5751074D01*
X1892436Y-5751074D02*
X1892436Y-5779646D01*
X1892436Y-5779646D02*
X1882912Y-5817741D01*
X1882912Y-5817741D02*
X1873388Y-5836789D01*
X1873388Y-5836789D02*
X1854340Y-5855836D01*
X1854340Y-5855836D02*
X1825769Y-5865360D01*
X1825769Y-5865360D02*
X1778150Y-5865360D01*
X1978150Y-5865360D02*
X1978150Y-5732027D01*
X1978150Y-5770122D02*
X1987674Y-5751074D01*
X1987674Y-5751074D02*
X1997198Y-5741551D01*
X1997198Y-5741551D02*
X2016245Y-5732027D01*
X2016245Y-5732027D02*
X2035293Y-5732027D01*
X2101960Y-5865360D02*
X2101960Y-5732027D01*
X2101960Y-5665360D02*
X2092436Y-5674884D01*
X2092436Y-5674884D02*
X2101960Y-5684408D01*
X2101960Y-5684408D02*
X2111483Y-5674884D01*
X2111483Y-5674884D02*
X2101960Y-5665360D01*
X2101960Y-5665360D02*
X2101960Y-5684408D01*
X2225769Y-5865360D02*
X2206721Y-5855836D01*
X2206721Y-5855836D02*
X2197198Y-5836789D01*
X2197198Y-5836789D02*
X2197198Y-5665360D01*
X2330531Y-5865360D02*
X2311483Y-5855836D01*
X2311483Y-5855836D02*
X2301960Y-5836789D01*
X2301960Y-5836789D02*
X2301960Y-5665360D01*
X2559102Y-5865360D02*
X2559102Y-5665360D01*
X2559102Y-5665360D02*
X2625769Y-5808217D01*
X2625769Y-5808217D02*
X2692436Y-5665360D01*
X2692436Y-5665360D02*
X2692436Y-5865360D01*
X2873388Y-5865360D02*
X2873388Y-5760598D01*
X2873388Y-5760598D02*
X2863864Y-5741551D01*
X2863864Y-5741551D02*
X2844817Y-5732027D01*
X2844817Y-5732027D02*
X2806721Y-5732027D01*
X2806721Y-5732027D02*
X2787674Y-5741551D01*
X2873388Y-5855836D02*
X2854340Y-5865360D01*
X2854340Y-5865360D02*
X2806721Y-5865360D01*
X2806721Y-5865360D02*
X2787674Y-5855836D01*
X2787674Y-5855836D02*
X2778150Y-5836789D01*
X2778150Y-5836789D02*
X2778150Y-5817741D01*
X2778150Y-5817741D02*
X2787674Y-5798694D01*
X2787674Y-5798694D02*
X2806721Y-5789170D01*
X2806721Y-5789170D02*
X2854340Y-5789170D01*
X2854340Y-5789170D02*
X2873388Y-5779646D01*
X2968626Y-5732027D02*
X2968626Y-5932027D01*
X2968626Y-5741551D02*
X2987674Y-5732027D01*
X2987674Y-5732027D02*
X3025769Y-5732027D01*
X3025769Y-5732027D02*
X3044817Y-5741551D01*
X3044817Y-5741551D02*
X3054340Y-5751074D01*
X3054340Y-5751074D02*
X3063864Y-5770122D01*
X3063864Y-5770122D02*
X3063864Y-5827265D01*
X3063864Y-5827265D02*
X3054340Y-5846313D01*
X3054340Y-5846313D02*
X3044817Y-5855836D01*
X3044817Y-5855836D02*
X3025769Y-5865360D01*
X3025769Y-5865360D02*
X2987674Y-5865360D01*
X2987674Y-5865360D02*
X2968626Y-5855836D01*
X3149579Y-5846313D02*
X3159102Y-5855836D01*
X3159102Y-5855836D02*
X3149579Y-5865360D01*
X3149579Y-5865360D02*
X3140055Y-5855836D01*
X3140055Y-5855836D02*
X3149579Y-5846313D01*
X3149579Y-5846313D02*
X3149579Y-5865360D01*
X3149579Y-5741551D02*
X3159102Y-5751074D01*
X3159102Y-5751074D02*
X3149579Y-5760598D01*
X3149579Y-5760598D02*
X3140055Y-5751074D01*
X3140055Y-5751074D02*
X3149579Y-5741551D01*
X3149579Y-5741551D02*
X3149579Y-5760598D01*
M02*
