G04 #@! TF.GenerationSoftware,KiCad,Pcbnew,7.0.1-0*
G04 #@! TF.CreationDate,2023-04-11T07:49:54+09:00*
G04 #@! TF.ProjectId,Sandy_Plate_Top,53616e64-795f-4506-9c61-74655f546f70,v.0*
G04 #@! TF.SameCoordinates,Original*
G04 #@! TF.FileFunction,Copper,L2,Bot*
G04 #@! TF.FilePolarity,Positive*
%FSLAX46Y46*%
G04 Gerber Fmt 4.6, Leading zero omitted, Abs format (unit mm)*
G04 Created by KiCad (PCBNEW 7.0.1-0) date 2023-04-11 07:49:54*
%MOMM*%
%LPD*%
G01*
G04 APERTURE LIST*
G04 APERTURE END LIST*
G04 #@! TA.AperFunction,NonConductor*
G36*
X298405728Y-17853866D02*
G01*
X298430781Y-17853865D01*
X298430782Y-17853866D01*
X298451185Y-17853865D01*
X298459417Y-17854133D01*
X298698272Y-17869779D01*
X298714609Y-17871929D01*
X298945318Y-17917813D01*
X298961227Y-17922076D01*
X299183970Y-17997683D01*
X299199196Y-18003990D01*
X299410155Y-18108022D01*
X299424429Y-18116263D01*
X299485153Y-18156837D01*
X299620009Y-18246945D01*
X299633075Y-18256971D01*
X299733426Y-18344978D01*
X299809928Y-18412071D01*
X299821583Y-18423727D01*
X299821601Y-18423747D01*
X299976668Y-18600576D01*
X299986696Y-18613645D01*
X299992807Y-18622792D01*
X300117376Y-18809236D01*
X300125608Y-18823496D01*
X300229638Y-19034470D01*
X300235944Y-19049698D01*
X300311538Y-19272432D01*
X300315804Y-19288354D01*
X300361679Y-19519062D01*
X300363829Y-19535404D01*
X300379540Y-19775386D01*
X300379809Y-19783627D01*
X300379806Y-19821525D01*
X300379810Y-19821552D01*
X300379810Y-33710023D01*
X300379540Y-33718267D01*
X300363880Y-33957105D01*
X300361728Y-33973445D01*
X300315835Y-34204137D01*
X300311569Y-34220057D01*
X300235956Y-34442789D01*
X300229649Y-34458015D01*
X300125614Y-34668971D01*
X300117373Y-34683245D01*
X299986689Y-34878820D01*
X299976656Y-34891895D01*
X299821565Y-35068738D01*
X299809911Y-35080391D01*
X299633063Y-35235480D01*
X299619987Y-35245514D01*
X299424410Y-35376193D01*
X299410136Y-35384433D01*
X299199177Y-35488464D01*
X299183952Y-35494771D01*
X298961224Y-35570378D01*
X298945304Y-35574644D01*
X298714601Y-35620534D01*
X298698260Y-35622685D01*
X298458801Y-35638380D01*
X298450547Y-35638650D01*
X197407548Y-35627870D01*
X197407246Y-35627810D01*
X197355310Y-35627810D01*
X197219272Y-35627810D01*
X196949526Y-35663321D01*
X196686720Y-35733740D01*
X196435352Y-35837862D01*
X196199729Y-35973901D01*
X195983878Y-36139534D01*
X195791494Y-36331922D01*
X195625871Y-36547773D01*
X195489833Y-36783409D01*
X195385721Y-37034776D01*
X195315312Y-37297573D01*
X195279806Y-37567331D01*
X195279810Y-37690053D01*
X195279810Y-52774235D01*
X195279540Y-52782480D01*
X195263878Y-53021316D01*
X195261726Y-53037656D01*
X195215832Y-53268347D01*
X195211566Y-53284266D01*
X195135953Y-53506996D01*
X195129646Y-53522223D01*
X195025607Y-53733182D01*
X195017366Y-53747455D01*
X194886682Y-53943030D01*
X194876648Y-53956105D01*
X194721561Y-54132942D01*
X194709907Y-54144596D01*
X194533061Y-54299682D01*
X194519986Y-54309715D01*
X194324406Y-54440395D01*
X194310133Y-54448635D01*
X194099175Y-54552666D01*
X194083948Y-54558973D01*
X193861220Y-54634579D01*
X193845300Y-54638845D01*
X193614600Y-54684734D01*
X193598261Y-54686885D01*
X193495995Y-54693588D01*
X193358585Y-54702595D01*
X193350353Y-54702865D01*
X122513643Y-54702865D01*
X122505403Y-54702595D01*
X122266565Y-54686943D01*
X122250226Y-54684792D01*
X122019522Y-54638904D01*
X122003603Y-54634639D01*
X122003426Y-54634579D01*
X121966594Y-54622076D01*
X121780868Y-54559031D01*
X121765641Y-54552724D01*
X121554678Y-54448690D01*
X121540404Y-54440449D01*
X121393308Y-54342163D01*
X121344825Y-54309767D01*
X121331752Y-54299737D01*
X121331689Y-54299682D01*
X121264344Y-54240621D01*
X121154899Y-54144640D01*
X121143245Y-54132985D01*
X120988160Y-53956143D01*
X120978126Y-53943067D01*
X120847445Y-53747487D01*
X120839204Y-53733213D01*
X120821991Y-53698308D01*
X120735170Y-53522247D01*
X120728864Y-53507022D01*
X120708466Y-53446931D01*
X120653255Y-53284279D01*
X120648991Y-53268361D01*
X120648988Y-53268347D01*
X120603103Y-53037650D01*
X120600955Y-53021334D01*
X120591880Y-52882839D01*
X120585294Y-52782309D01*
X120585024Y-52774071D01*
X120585024Y-52618250D01*
X122329795Y-52618250D01*
X122358655Y-52744687D01*
X122414926Y-52861531D01*
X122495787Y-52962925D01*
X122597183Y-53043783D01*
X122714030Y-53100051D01*
X122840467Y-53128907D01*
X122905311Y-53128905D01*
X122905313Y-53128905D01*
X135853116Y-53128905D01*
X135853146Y-53128910D01*
X135905312Y-53128910D01*
X135970153Y-53128909D01*
X135970156Y-53128909D01*
X136001763Y-53121694D01*
X136096589Y-53100049D01*
X136213432Y-53043779D01*
X136314167Y-52963444D01*
X136314823Y-52962921D01*
X136348225Y-52921036D01*
X136395682Y-52861527D01*
X136451951Y-52744684D01*
X136480810Y-52618250D01*
X141379795Y-52618250D01*
X141408655Y-52744687D01*
X141464926Y-52861531D01*
X141545787Y-52962925D01*
X141647183Y-53043783D01*
X141764030Y-53100051D01*
X141890467Y-53128907D01*
X141955311Y-53128905D01*
X141955313Y-53128905D01*
X154903116Y-53128905D01*
X154903146Y-53128910D01*
X154955312Y-53128910D01*
X155020153Y-53128909D01*
X155020156Y-53128909D01*
X155051763Y-53121694D01*
X155146589Y-53100049D01*
X155263432Y-53043779D01*
X155364167Y-52963444D01*
X155364823Y-52962921D01*
X155398225Y-52921036D01*
X155445682Y-52861527D01*
X155501951Y-52744684D01*
X155530810Y-52618250D01*
X160429795Y-52618250D01*
X160458655Y-52744687D01*
X160514926Y-52861531D01*
X160595787Y-52962925D01*
X160697183Y-53043783D01*
X160814030Y-53100051D01*
X160940467Y-53128907D01*
X161005311Y-53128905D01*
X161005313Y-53128905D01*
X173953116Y-53128905D01*
X173953146Y-53128910D01*
X174005312Y-53128910D01*
X174070153Y-53128909D01*
X174070156Y-53128909D01*
X174101763Y-53121694D01*
X174196589Y-53100049D01*
X174313432Y-53043779D01*
X174414167Y-52963444D01*
X174414823Y-52962921D01*
X174448225Y-52921036D01*
X174495682Y-52861527D01*
X174551951Y-52744684D01*
X174580810Y-52618250D01*
X179479795Y-52618250D01*
X179508655Y-52744687D01*
X179564926Y-52861531D01*
X179645787Y-52962925D01*
X179747183Y-53043783D01*
X179864030Y-53100051D01*
X179990467Y-53128907D01*
X180055311Y-53128905D01*
X180055313Y-53128905D01*
X193003116Y-53128905D01*
X193003146Y-53128910D01*
X193055312Y-53128910D01*
X193120153Y-53128909D01*
X193120156Y-53128909D01*
X193151763Y-53121694D01*
X193246589Y-53100049D01*
X193363432Y-53043779D01*
X193464167Y-52963444D01*
X193464823Y-52962921D01*
X193498225Y-52921036D01*
X193545682Y-52861527D01*
X193601951Y-52744684D01*
X193630810Y-52618249D01*
X193630810Y-52553406D01*
X193630810Y-52528874D01*
X193630810Y-39540093D01*
X193630810Y-39517812D01*
X193630795Y-39517727D01*
X193630795Y-39488563D01*
X193601939Y-39362132D01*
X193601939Y-39362130D01*
X193545673Y-39245288D01*
X193464817Y-39143895D01*
X193363427Y-39063037D01*
X193363417Y-39063032D01*
X193246585Y-39006766D01*
X193120155Y-38977907D01*
X193082791Y-38977905D01*
X193082790Y-38977905D01*
X180041998Y-38977905D01*
X180024366Y-38977905D01*
X180024337Y-38977909D01*
X179990467Y-38977909D01*
X179864035Y-39006764D01*
X179747189Y-39063032D01*
X179645794Y-39143890D01*
X179564936Y-39245283D01*
X179508666Y-39362128D01*
X179479810Y-39488562D01*
X179479810Y-52501200D01*
X179479795Y-52501275D01*
X179479795Y-52553406D01*
X179479795Y-52618250D01*
X174580810Y-52618250D01*
X174580810Y-52618249D01*
X174580810Y-52553406D01*
X174580810Y-52528874D01*
X174580810Y-39540093D01*
X174580810Y-39517812D01*
X174580795Y-39517727D01*
X174580795Y-39488563D01*
X174551939Y-39362132D01*
X174551939Y-39362130D01*
X174495673Y-39245288D01*
X174414817Y-39143895D01*
X174313427Y-39063037D01*
X174313417Y-39063032D01*
X174196585Y-39006766D01*
X174070155Y-38977907D01*
X174032791Y-38977905D01*
X174032790Y-38977905D01*
X160991998Y-38977905D01*
X160974366Y-38977905D01*
X160974337Y-38977909D01*
X160940467Y-38977909D01*
X160814035Y-39006764D01*
X160697189Y-39063032D01*
X160595794Y-39143890D01*
X160514936Y-39245283D01*
X160458666Y-39362128D01*
X160429810Y-39488562D01*
X160429810Y-52501200D01*
X160429795Y-52501275D01*
X160429795Y-52553406D01*
X160429795Y-52618250D01*
X155530810Y-52618250D01*
X155530810Y-52618249D01*
X155530810Y-52553406D01*
X155530810Y-52528874D01*
X155530810Y-39540093D01*
X155530810Y-39517812D01*
X155530795Y-39517727D01*
X155530795Y-39488563D01*
X155501939Y-39362132D01*
X155501939Y-39362130D01*
X155445673Y-39245288D01*
X155364817Y-39143895D01*
X155263427Y-39063037D01*
X155263417Y-39063032D01*
X155146585Y-39006766D01*
X155020155Y-38977907D01*
X154982791Y-38977905D01*
X154982790Y-38977905D01*
X141941998Y-38977905D01*
X141924366Y-38977905D01*
X141924337Y-38977909D01*
X141890467Y-38977909D01*
X141764035Y-39006764D01*
X141647189Y-39063032D01*
X141545794Y-39143890D01*
X141464936Y-39245283D01*
X141408666Y-39362128D01*
X141379810Y-39488562D01*
X141379810Y-52501200D01*
X141379795Y-52501275D01*
X141379795Y-52553406D01*
X141379795Y-52618250D01*
X136480810Y-52618250D01*
X136480810Y-52618249D01*
X136480810Y-52553406D01*
X136480810Y-52528874D01*
X136480810Y-39540093D01*
X136480810Y-39517812D01*
X136480795Y-39517727D01*
X136480795Y-39488563D01*
X136451939Y-39362132D01*
X136451939Y-39362130D01*
X136395673Y-39245288D01*
X136314817Y-39143895D01*
X136213427Y-39063037D01*
X136213417Y-39063032D01*
X136096585Y-39006766D01*
X135970155Y-38977907D01*
X135932791Y-38977905D01*
X135932790Y-38977905D01*
X122891998Y-38977905D01*
X122874366Y-38977905D01*
X122874337Y-38977909D01*
X122840467Y-38977909D01*
X122714035Y-39006764D01*
X122597189Y-39063032D01*
X122495794Y-39143890D01*
X122414936Y-39245283D01*
X122358666Y-39362128D01*
X122329810Y-39488562D01*
X122329810Y-52501200D01*
X122329795Y-52501275D01*
X122329795Y-52553406D01*
X122329795Y-52618250D01*
X120585024Y-52618250D01*
X120585024Y-37755565D01*
X120585035Y-37755504D01*
X120585034Y-37703364D01*
X120585035Y-37703364D01*
X120585032Y-37567329D01*
X120549516Y-37297586D01*
X120479096Y-37034787D01*
X120374976Y-36783428D01*
X120238939Y-36547809D01*
X120073312Y-36331962D01*
X119880929Y-36139580D01*
X119665081Y-35973954D01*
X119665080Y-35973953D01*
X119665077Y-35973951D01*
X119429466Y-35837921D01*
X119429464Y-35837920D01*
X119429462Y-35837919D01*
X119178102Y-35733801D01*
X119178095Y-35733798D01*
X118915306Y-35663382D01*
X118645558Y-35627866D01*
X118557446Y-35627865D01*
X118557413Y-35627860D01*
X118536996Y-35627862D01*
X118508892Y-35627865D01*
X118470352Y-35627865D01*
X118470320Y-35627868D01*
X17473641Y-35638649D01*
X17465389Y-35638379D01*
X17226568Y-35622729D01*
X17210227Y-35620578D01*
X16979525Y-35574691D01*
X16963610Y-35570426D01*
X16850259Y-35531949D01*
X16740870Y-35494817D01*
X16725644Y-35488510D01*
X16571235Y-35412365D01*
X16514677Y-35384474D01*
X16500411Y-35376237D01*
X16304830Y-35245553D01*
X16291757Y-35235523D01*
X16120727Y-35085533D01*
X16114901Y-35080423D01*
X16103250Y-35068771D01*
X16103221Y-35068738D01*
X15948161Y-34891922D01*
X15938132Y-34878852D01*
X15807453Y-34683271D01*
X15799212Y-34668998D01*
X15695179Y-34458032D01*
X15688872Y-34442804D01*
X15668481Y-34382730D01*
X15613264Y-34220057D01*
X15609006Y-34204167D01*
X15563116Y-33973434D01*
X15560968Y-33957109D01*
X15545294Y-33717885D01*
X15545024Y-33709647D01*
X15545024Y-33669601D01*
X15544977Y-33669310D01*
X15544874Y-33568250D01*
X17554795Y-33568250D01*
X17583655Y-33694687D01*
X17639926Y-33811531D01*
X17720787Y-33912925D01*
X17822183Y-33993783D01*
X17939030Y-34050051D01*
X18065467Y-34078907D01*
X18130311Y-34078905D01*
X18130313Y-34078905D01*
X31078116Y-34078905D01*
X31078146Y-34078910D01*
X31130312Y-34078910D01*
X31195153Y-34078909D01*
X31195156Y-34078909D01*
X31226763Y-34071694D01*
X31321589Y-34050049D01*
X31438432Y-33993779D01*
X31539167Y-33913444D01*
X31539823Y-33912921D01*
X31573225Y-33871036D01*
X31620682Y-33811527D01*
X31676951Y-33694684D01*
X31705810Y-33568250D01*
X36604795Y-33568250D01*
X36633655Y-33694687D01*
X36689926Y-33811531D01*
X36770787Y-33912925D01*
X36872183Y-33993783D01*
X36989030Y-34050051D01*
X37115467Y-34078907D01*
X37180311Y-34078905D01*
X37180313Y-34078905D01*
X50128116Y-34078905D01*
X50128146Y-34078910D01*
X50180312Y-34078910D01*
X50245153Y-34078909D01*
X50245156Y-34078909D01*
X50276763Y-34071694D01*
X50371589Y-34050049D01*
X50488432Y-33993779D01*
X50589167Y-33913444D01*
X50589823Y-33912921D01*
X50623225Y-33871036D01*
X50670682Y-33811527D01*
X50726951Y-33694684D01*
X50755810Y-33568250D01*
X55654795Y-33568250D01*
X55683655Y-33694687D01*
X55739926Y-33811531D01*
X55820787Y-33912925D01*
X55922183Y-33993783D01*
X56039030Y-34050051D01*
X56165467Y-34078907D01*
X56230311Y-34078905D01*
X56230313Y-34078905D01*
X69178116Y-34078905D01*
X69178146Y-34078910D01*
X69230312Y-34078910D01*
X69295153Y-34078909D01*
X69295156Y-34078909D01*
X69326763Y-34071694D01*
X69421589Y-34050049D01*
X69538432Y-33993779D01*
X69639167Y-33913444D01*
X69639823Y-33912921D01*
X69673225Y-33871036D01*
X69720682Y-33811527D01*
X69776951Y-33694684D01*
X69805810Y-33568250D01*
X74704795Y-33568250D01*
X74733655Y-33694687D01*
X74789926Y-33811531D01*
X74870787Y-33912925D01*
X74972183Y-33993783D01*
X75089030Y-34050051D01*
X75215467Y-34078907D01*
X75280311Y-34078905D01*
X75280313Y-34078905D01*
X88228116Y-34078905D01*
X88228146Y-34078910D01*
X88280312Y-34078910D01*
X88345153Y-34078909D01*
X88345156Y-34078909D01*
X88376763Y-34071694D01*
X88471589Y-34050049D01*
X88588432Y-33993779D01*
X88689167Y-33913444D01*
X88689823Y-33912921D01*
X88723225Y-33871036D01*
X88770682Y-33811527D01*
X88826951Y-33694684D01*
X88855810Y-33568250D01*
X93754795Y-33568250D01*
X93783655Y-33694687D01*
X93839926Y-33811531D01*
X93920787Y-33912925D01*
X94022183Y-33993783D01*
X94139030Y-34050051D01*
X94265467Y-34078907D01*
X94330311Y-34078905D01*
X94330313Y-34078905D01*
X107278116Y-34078905D01*
X107278146Y-34078910D01*
X107330312Y-34078910D01*
X107395153Y-34078909D01*
X107395156Y-34078909D01*
X107426763Y-34071694D01*
X107521589Y-34050049D01*
X107638432Y-33993779D01*
X107739167Y-33913444D01*
X107739823Y-33912921D01*
X107773225Y-33871036D01*
X107820682Y-33811527D01*
X107876951Y-33694684D01*
X107905810Y-33568249D01*
X107905810Y-33503406D01*
X107905810Y-33478874D01*
X107905810Y-24479905D01*
X107922691Y-24416905D01*
X107968810Y-24370786D01*
X108031810Y-24353905D01*
X112678810Y-24353905D01*
X112741810Y-24370786D01*
X112787929Y-24416905D01*
X112804810Y-24479905D01*
X112804810Y-33451200D01*
X112804795Y-33451275D01*
X112804795Y-33503406D01*
X112804795Y-33568250D01*
X112833655Y-33694687D01*
X112889926Y-33811531D01*
X112970787Y-33912925D01*
X113072183Y-33993783D01*
X113189030Y-34050051D01*
X113315467Y-34078907D01*
X113380311Y-34078905D01*
X113380313Y-34078905D01*
X126328116Y-34078905D01*
X126328146Y-34078910D01*
X126380312Y-34078910D01*
X126445153Y-34078909D01*
X126445156Y-34078909D01*
X126476763Y-34071694D01*
X126571589Y-34050049D01*
X126688432Y-33993779D01*
X126789167Y-33913444D01*
X126789823Y-33912921D01*
X126823225Y-33871036D01*
X126870682Y-33811527D01*
X126926951Y-33694684D01*
X126955810Y-33568250D01*
X131854795Y-33568250D01*
X131883655Y-33694687D01*
X131939926Y-33811531D01*
X132020787Y-33912925D01*
X132122183Y-33993783D01*
X132239030Y-34050051D01*
X132365467Y-34078907D01*
X132430311Y-34078905D01*
X132430313Y-34078905D01*
X145378116Y-34078905D01*
X145378146Y-34078910D01*
X145430312Y-34078910D01*
X145495153Y-34078909D01*
X145495156Y-34078909D01*
X145526763Y-34071694D01*
X145621589Y-34050049D01*
X145738432Y-33993779D01*
X145839167Y-33913444D01*
X145839823Y-33912921D01*
X145873225Y-33871036D01*
X145920682Y-33811527D01*
X145976951Y-33694684D01*
X146005810Y-33568250D01*
X150904795Y-33568250D01*
X150933655Y-33694687D01*
X150989926Y-33811531D01*
X151070787Y-33912925D01*
X151172183Y-33993783D01*
X151289030Y-34050051D01*
X151415467Y-34078907D01*
X151480311Y-34078905D01*
X151480313Y-34078905D01*
X164428116Y-34078905D01*
X164428146Y-34078910D01*
X164480312Y-34078910D01*
X164545153Y-34078909D01*
X164545156Y-34078909D01*
X164576763Y-34071694D01*
X164671589Y-34050049D01*
X164788432Y-33993779D01*
X164889167Y-33913444D01*
X164889823Y-33912921D01*
X164923225Y-33871036D01*
X164970682Y-33811527D01*
X165026951Y-33694684D01*
X165055810Y-33568250D01*
X169954795Y-33568250D01*
X169983655Y-33694687D01*
X170039926Y-33811531D01*
X170120787Y-33912925D01*
X170222183Y-33993783D01*
X170339030Y-34050051D01*
X170465467Y-34078907D01*
X170530311Y-34078905D01*
X170530313Y-34078905D01*
X183478116Y-34078905D01*
X183478146Y-34078910D01*
X183530312Y-34078910D01*
X183595153Y-34078909D01*
X183595156Y-34078909D01*
X183626763Y-34071694D01*
X183721589Y-34050049D01*
X183838432Y-33993779D01*
X183939167Y-33913444D01*
X183939823Y-33912921D01*
X183973225Y-33871036D01*
X184020682Y-33811527D01*
X184076951Y-33694684D01*
X184105810Y-33568250D01*
X189004795Y-33568250D01*
X189033655Y-33694687D01*
X189089926Y-33811531D01*
X189170787Y-33912925D01*
X189272183Y-33993783D01*
X189389030Y-34050051D01*
X189515467Y-34078907D01*
X189580311Y-34078905D01*
X189580313Y-34078905D01*
X202528116Y-34078905D01*
X202528146Y-34078910D01*
X202580312Y-34078910D01*
X202645153Y-34078909D01*
X202645156Y-34078909D01*
X202676763Y-34071694D01*
X202771589Y-34050049D01*
X202888432Y-33993779D01*
X202989167Y-33913444D01*
X202989823Y-33912921D01*
X203023225Y-33871036D01*
X203070682Y-33811527D01*
X203126951Y-33694684D01*
X203155810Y-33568249D01*
X203155810Y-33503406D01*
X203155810Y-33478874D01*
X203155810Y-24479905D01*
X203172691Y-24416905D01*
X203218810Y-24370786D01*
X203281810Y-24353905D01*
X207928810Y-24353905D01*
X207991810Y-24370786D01*
X208037929Y-24416905D01*
X208054810Y-24479905D01*
X208054810Y-33451200D01*
X208054795Y-33451275D01*
X208054795Y-33503406D01*
X208054795Y-33568250D01*
X208083655Y-33694687D01*
X208139926Y-33811531D01*
X208220787Y-33912925D01*
X208322183Y-33993783D01*
X208439030Y-34050051D01*
X208565467Y-34078907D01*
X208630311Y-34078905D01*
X208630313Y-34078905D01*
X221578116Y-34078905D01*
X221578146Y-34078910D01*
X221630312Y-34078910D01*
X221695153Y-34078909D01*
X221695156Y-34078909D01*
X221726763Y-34071694D01*
X221821589Y-34050049D01*
X221938432Y-33993779D01*
X222039167Y-33913444D01*
X222039823Y-33912921D01*
X222073225Y-33871036D01*
X222120682Y-33811527D01*
X222176951Y-33694684D01*
X222205810Y-33568250D01*
X227104795Y-33568250D01*
X227133655Y-33694687D01*
X227189926Y-33811531D01*
X227270787Y-33912925D01*
X227372183Y-33993783D01*
X227489030Y-34050051D01*
X227615467Y-34078907D01*
X227680311Y-34078905D01*
X227680313Y-34078905D01*
X240628116Y-34078905D01*
X240628146Y-34078910D01*
X240680312Y-34078910D01*
X240745153Y-34078909D01*
X240745156Y-34078909D01*
X240776763Y-34071694D01*
X240871589Y-34050049D01*
X240988432Y-33993779D01*
X241089167Y-33913444D01*
X241089823Y-33912921D01*
X241123225Y-33871036D01*
X241170682Y-33811527D01*
X241226951Y-33694684D01*
X241255810Y-33568250D01*
X246154795Y-33568250D01*
X246183655Y-33694687D01*
X246239926Y-33811531D01*
X246320787Y-33912925D01*
X246422183Y-33993783D01*
X246539030Y-34050051D01*
X246665467Y-34078907D01*
X246730311Y-34078905D01*
X246730313Y-34078905D01*
X259678116Y-34078905D01*
X259678146Y-34078910D01*
X259730312Y-34078910D01*
X259795153Y-34078909D01*
X259795156Y-34078909D01*
X259826763Y-34071694D01*
X259921589Y-34050049D01*
X260038432Y-33993779D01*
X260139167Y-33913444D01*
X260139823Y-33912921D01*
X260173225Y-33871036D01*
X260220682Y-33811527D01*
X260276951Y-33694684D01*
X260305810Y-33568250D01*
X265204795Y-33568250D01*
X265233655Y-33694687D01*
X265289926Y-33811531D01*
X265370787Y-33912925D01*
X265472183Y-33993783D01*
X265589030Y-34050051D01*
X265715467Y-34078907D01*
X265780311Y-34078905D01*
X265780313Y-34078905D01*
X278728116Y-34078905D01*
X278728146Y-34078910D01*
X278780312Y-34078910D01*
X278845153Y-34078909D01*
X278845156Y-34078909D01*
X278876763Y-34071694D01*
X278971589Y-34050049D01*
X279088432Y-33993779D01*
X279189167Y-33913444D01*
X279189823Y-33912921D01*
X279223225Y-33871036D01*
X279270682Y-33811527D01*
X279326951Y-33694684D01*
X279355810Y-33568250D01*
X284254795Y-33568250D01*
X284283655Y-33694687D01*
X284339926Y-33811531D01*
X284420787Y-33912925D01*
X284522183Y-33993783D01*
X284639030Y-34050051D01*
X284765467Y-34078907D01*
X284830311Y-34078905D01*
X284830313Y-34078905D01*
X297778116Y-34078905D01*
X297778146Y-34078910D01*
X297830312Y-34078910D01*
X297895153Y-34078909D01*
X297895156Y-34078909D01*
X297926763Y-34071694D01*
X298021589Y-34050049D01*
X298138432Y-33993779D01*
X298239167Y-33913444D01*
X298239823Y-33912921D01*
X298273225Y-33871036D01*
X298320682Y-33811527D01*
X298376951Y-33694684D01*
X298405810Y-33568249D01*
X298405810Y-33503406D01*
X298405810Y-33478874D01*
X298405810Y-20490093D01*
X298405810Y-20467812D01*
X298405795Y-20467727D01*
X298405795Y-20438563D01*
X298376939Y-20312132D01*
X298376939Y-20312130D01*
X298320673Y-20195288D01*
X298239817Y-20093895D01*
X298138427Y-20013037D01*
X298138417Y-20013032D01*
X298021585Y-19956766D01*
X297895155Y-19927907D01*
X297857791Y-19927905D01*
X297857790Y-19927905D01*
X284816998Y-19927905D01*
X284799366Y-19927905D01*
X284799337Y-19927909D01*
X284765467Y-19927909D01*
X284639035Y-19956764D01*
X284522189Y-20013032D01*
X284420794Y-20093890D01*
X284339936Y-20195283D01*
X284283666Y-20312128D01*
X284254810Y-20438562D01*
X284254810Y-33451200D01*
X284254795Y-33451275D01*
X284254795Y-33503406D01*
X284254795Y-33568250D01*
X279355810Y-33568250D01*
X279355810Y-33568249D01*
X279355810Y-33503406D01*
X279355810Y-33478874D01*
X279355810Y-20490093D01*
X279355810Y-20467812D01*
X279355795Y-20467727D01*
X279355795Y-20438563D01*
X279326939Y-20312132D01*
X279326939Y-20312130D01*
X279270673Y-20195288D01*
X279189817Y-20093895D01*
X279088427Y-20013037D01*
X279088417Y-20013032D01*
X278971585Y-19956766D01*
X278845155Y-19927907D01*
X278807791Y-19927905D01*
X278807790Y-19927905D01*
X265766998Y-19927905D01*
X265749366Y-19927905D01*
X265749337Y-19927909D01*
X265715467Y-19927909D01*
X265589035Y-19956764D01*
X265472189Y-20013032D01*
X265370794Y-20093890D01*
X265289936Y-20195283D01*
X265233666Y-20312128D01*
X265204810Y-20438562D01*
X265204810Y-33451200D01*
X265204795Y-33451275D01*
X265204795Y-33503406D01*
X265204795Y-33568250D01*
X260305810Y-33568250D01*
X260305810Y-33568249D01*
X260305810Y-33503406D01*
X260305810Y-33478874D01*
X260305810Y-20490093D01*
X260305810Y-20467812D01*
X260305795Y-20467727D01*
X260305795Y-20438563D01*
X260276939Y-20312132D01*
X260276939Y-20312130D01*
X260220673Y-20195288D01*
X260139817Y-20093895D01*
X260038427Y-20013037D01*
X260038417Y-20013032D01*
X259921585Y-19956766D01*
X259795155Y-19927907D01*
X259757791Y-19927905D01*
X259757790Y-19927905D01*
X246716998Y-19927905D01*
X246699366Y-19927905D01*
X246699337Y-19927909D01*
X246665467Y-19927909D01*
X246539035Y-19956764D01*
X246422189Y-20013032D01*
X246320794Y-20093890D01*
X246239936Y-20195283D01*
X246183666Y-20312128D01*
X246154810Y-20438562D01*
X246154810Y-33451200D01*
X246154795Y-33451275D01*
X246154795Y-33503406D01*
X246154795Y-33568250D01*
X241255810Y-33568250D01*
X241255810Y-33568249D01*
X241255810Y-33503406D01*
X241255810Y-33478874D01*
X241255810Y-20490093D01*
X241255810Y-20467812D01*
X241255795Y-20467727D01*
X241255795Y-20438563D01*
X241226939Y-20312132D01*
X241226939Y-20312130D01*
X241170673Y-20195288D01*
X241089817Y-20093895D01*
X240988427Y-20013037D01*
X240988417Y-20013032D01*
X240871585Y-19956766D01*
X240745155Y-19927907D01*
X240707791Y-19927905D01*
X240707790Y-19927905D01*
X227666998Y-19927905D01*
X227649366Y-19927905D01*
X227649337Y-19927909D01*
X227615467Y-19927909D01*
X227489035Y-19956764D01*
X227372189Y-20013032D01*
X227270794Y-20093890D01*
X227189936Y-20195283D01*
X227133666Y-20312128D01*
X227104810Y-20438562D01*
X227104810Y-33451200D01*
X227104795Y-33451275D01*
X227104795Y-33503406D01*
X227104795Y-33568250D01*
X222205810Y-33568250D01*
X222205810Y-33568249D01*
X222205810Y-33503406D01*
X222205810Y-33478874D01*
X222205810Y-20490093D01*
X222205810Y-20467812D01*
X222205795Y-20467727D01*
X222205795Y-20438563D01*
X222176939Y-20312132D01*
X222176939Y-20312130D01*
X222120673Y-20195288D01*
X222039817Y-20093895D01*
X221938427Y-20013037D01*
X221938417Y-20013032D01*
X221821585Y-19956766D01*
X221695155Y-19927907D01*
X221657791Y-19927905D01*
X221657790Y-19927905D01*
X189566998Y-19927905D01*
X189549366Y-19927905D01*
X189549337Y-19927909D01*
X189515467Y-19927909D01*
X189389035Y-19956764D01*
X189272189Y-20013032D01*
X189170794Y-20093890D01*
X189089936Y-20195283D01*
X189033666Y-20312128D01*
X189004810Y-20438562D01*
X189004810Y-33451200D01*
X189004795Y-33451275D01*
X189004795Y-33503406D01*
X189004795Y-33568250D01*
X184105810Y-33568250D01*
X184105810Y-33568249D01*
X184105810Y-33503406D01*
X184105810Y-33478874D01*
X184105810Y-20490093D01*
X184105810Y-20467812D01*
X184105795Y-20467727D01*
X184105795Y-20438563D01*
X184076939Y-20312132D01*
X184076939Y-20312130D01*
X184020673Y-20195288D01*
X183939817Y-20093895D01*
X183838427Y-20013037D01*
X183838417Y-20013032D01*
X183721585Y-19956766D01*
X183595155Y-19927907D01*
X183557791Y-19927905D01*
X183557790Y-19927905D01*
X170516998Y-19927905D01*
X170499366Y-19927905D01*
X170499337Y-19927909D01*
X170465467Y-19927909D01*
X170339035Y-19956764D01*
X170222189Y-20013032D01*
X170120794Y-20093890D01*
X170039936Y-20195283D01*
X169983666Y-20312128D01*
X169954810Y-20438562D01*
X169954810Y-33451200D01*
X169954795Y-33451275D01*
X169954795Y-33503406D01*
X169954795Y-33568250D01*
X165055810Y-33568250D01*
X165055810Y-33568249D01*
X165055810Y-33503406D01*
X165055810Y-33478874D01*
X165055810Y-20490093D01*
X165055810Y-20467812D01*
X165055795Y-20467727D01*
X165055795Y-20438563D01*
X165026939Y-20312132D01*
X165026939Y-20312130D01*
X164970673Y-20195288D01*
X164889817Y-20093895D01*
X164788427Y-20013037D01*
X164788417Y-20013032D01*
X164671585Y-19956766D01*
X164545155Y-19927907D01*
X164507791Y-19927905D01*
X164507790Y-19927905D01*
X151466998Y-19927905D01*
X151449366Y-19927905D01*
X151449337Y-19927909D01*
X151415467Y-19927909D01*
X151289035Y-19956764D01*
X151172189Y-20013032D01*
X151070794Y-20093890D01*
X150989936Y-20195283D01*
X150933666Y-20312128D01*
X150904810Y-20438562D01*
X150904810Y-33451200D01*
X150904795Y-33451275D01*
X150904795Y-33503406D01*
X150904795Y-33568250D01*
X146005810Y-33568250D01*
X146005810Y-33568249D01*
X146005810Y-33503406D01*
X146005810Y-33478874D01*
X146005810Y-20490093D01*
X146005810Y-20467812D01*
X146005795Y-20467727D01*
X146005795Y-20438563D01*
X145976939Y-20312132D01*
X145976939Y-20312130D01*
X145920673Y-20195288D01*
X145839817Y-20093895D01*
X145738427Y-20013037D01*
X145738417Y-20013032D01*
X145621585Y-19956766D01*
X145495155Y-19927907D01*
X145457791Y-19927905D01*
X145457790Y-19927905D01*
X132416998Y-19927905D01*
X132399366Y-19927905D01*
X132399337Y-19927909D01*
X132365467Y-19927909D01*
X132239035Y-19956764D01*
X132122189Y-20013032D01*
X132020794Y-20093890D01*
X131939936Y-20195283D01*
X131883666Y-20312128D01*
X131854810Y-20438562D01*
X131854810Y-33451200D01*
X131854795Y-33451275D01*
X131854795Y-33503406D01*
X131854795Y-33568250D01*
X126955810Y-33568250D01*
X126955810Y-33568249D01*
X126955810Y-33503406D01*
X126955810Y-33478874D01*
X126955810Y-20490093D01*
X126955810Y-20467812D01*
X126955795Y-20467727D01*
X126955795Y-20438563D01*
X126926939Y-20312132D01*
X126926939Y-20312130D01*
X126870673Y-20195288D01*
X126789817Y-20093895D01*
X126688427Y-20013037D01*
X126688417Y-20013032D01*
X126571585Y-19956766D01*
X126445155Y-19927907D01*
X126407791Y-19927905D01*
X126407790Y-19927905D01*
X94316998Y-19927905D01*
X94299366Y-19927905D01*
X94299337Y-19927909D01*
X94265467Y-19927909D01*
X94139035Y-19956764D01*
X94022189Y-20013032D01*
X93920794Y-20093890D01*
X93839936Y-20195283D01*
X93783666Y-20312128D01*
X93754810Y-20438562D01*
X93754810Y-33451200D01*
X93754795Y-33451275D01*
X93754795Y-33503406D01*
X93754795Y-33568250D01*
X88855810Y-33568250D01*
X88855810Y-33568249D01*
X88855810Y-33503406D01*
X88855810Y-33478874D01*
X88855810Y-20490093D01*
X88855810Y-20467812D01*
X88855795Y-20467727D01*
X88855795Y-20438563D01*
X88826939Y-20312132D01*
X88826939Y-20312130D01*
X88770673Y-20195288D01*
X88689817Y-20093895D01*
X88588427Y-20013037D01*
X88588417Y-20013032D01*
X88471585Y-19956766D01*
X88345155Y-19927907D01*
X88307791Y-19927905D01*
X88307790Y-19927905D01*
X75266998Y-19927905D01*
X75249366Y-19927905D01*
X75249337Y-19927909D01*
X75215467Y-19927909D01*
X75089035Y-19956764D01*
X74972189Y-20013032D01*
X74870794Y-20093890D01*
X74789936Y-20195283D01*
X74733666Y-20312128D01*
X74704810Y-20438562D01*
X74704810Y-33451200D01*
X74704795Y-33451275D01*
X74704795Y-33503406D01*
X74704795Y-33568250D01*
X69805810Y-33568250D01*
X69805810Y-33568249D01*
X69805810Y-33503406D01*
X69805810Y-33478874D01*
X69805810Y-20490093D01*
X69805810Y-20467812D01*
X69805795Y-20467727D01*
X69805795Y-20438563D01*
X69776939Y-20312132D01*
X69776939Y-20312130D01*
X69720673Y-20195288D01*
X69639817Y-20093895D01*
X69538427Y-20013037D01*
X69538417Y-20013032D01*
X69421585Y-19956766D01*
X69295155Y-19927907D01*
X69257791Y-19927905D01*
X69257790Y-19927905D01*
X56216998Y-19927905D01*
X56199366Y-19927905D01*
X56199337Y-19927909D01*
X56165467Y-19927909D01*
X56039035Y-19956764D01*
X55922189Y-20013032D01*
X55820794Y-20093890D01*
X55739936Y-20195283D01*
X55683666Y-20312128D01*
X55654810Y-20438562D01*
X55654810Y-33451200D01*
X55654795Y-33451275D01*
X55654795Y-33503406D01*
X55654795Y-33568250D01*
X50755810Y-33568250D01*
X50755810Y-33568249D01*
X50755810Y-33503406D01*
X50755810Y-33478874D01*
X50755810Y-20490093D01*
X50755810Y-20467812D01*
X50755795Y-20467727D01*
X50755795Y-20438563D01*
X50726939Y-20312132D01*
X50726939Y-20312130D01*
X50670673Y-20195288D01*
X50589817Y-20093895D01*
X50488427Y-20013037D01*
X50488417Y-20013032D01*
X50371585Y-19956766D01*
X50245155Y-19927907D01*
X50207791Y-19927905D01*
X50207790Y-19927905D01*
X37166998Y-19927905D01*
X37149366Y-19927905D01*
X37149337Y-19927909D01*
X37115467Y-19927909D01*
X36989035Y-19956764D01*
X36872189Y-20013032D01*
X36770794Y-20093890D01*
X36689936Y-20195283D01*
X36633666Y-20312128D01*
X36604810Y-20438562D01*
X36604810Y-33451200D01*
X36604795Y-33451275D01*
X36604795Y-33503406D01*
X36604795Y-33568250D01*
X31705810Y-33568250D01*
X31705810Y-33568249D01*
X31705810Y-33503406D01*
X31705810Y-33478874D01*
X31705810Y-20490093D01*
X31705810Y-20467812D01*
X31705795Y-20467727D01*
X31705795Y-20438563D01*
X31676939Y-20312132D01*
X31676939Y-20312130D01*
X31620673Y-20195288D01*
X31539817Y-20093895D01*
X31438427Y-20013037D01*
X31438417Y-20013032D01*
X31321585Y-19956766D01*
X31195155Y-19927907D01*
X31157791Y-19927905D01*
X31157790Y-19927905D01*
X18116998Y-19927905D01*
X18099366Y-19927905D01*
X18099337Y-19927909D01*
X18065467Y-19927909D01*
X17939035Y-19956764D01*
X17822189Y-20013032D01*
X17720794Y-20093890D01*
X17639936Y-20195283D01*
X17583666Y-20312128D01*
X17554810Y-20438562D01*
X17554810Y-33451200D01*
X17554795Y-33451275D01*
X17554795Y-33503406D01*
X17554795Y-33568250D01*
X15544874Y-33568250D01*
X15535476Y-24353905D01*
X15530814Y-19782535D01*
X15531084Y-19774174D01*
X15531695Y-19764849D01*
X15546734Y-19535395D01*
X15548882Y-19519082D01*
X15594775Y-19288357D01*
X15599034Y-19272461D01*
X15674654Y-19049689D01*
X15680945Y-19034501D01*
X15784999Y-18823501D01*
X15793223Y-18809257D01*
X15923919Y-18613656D01*
X15933931Y-18600607D01*
X16089042Y-18423736D01*
X16100686Y-18412094D01*
X16277540Y-18256996D01*
X16290603Y-18246971D01*
X16486204Y-18116275D01*
X16500454Y-18108048D01*
X16711436Y-18004002D01*
X16726649Y-17997701D01*
X16949400Y-17922087D01*
X16965295Y-17917828D01*
X17196026Y-17871932D01*
X17212345Y-17869784D01*
X17439913Y-17854869D01*
X17451115Y-17854135D01*
X17459355Y-17853865D01*
X298405718Y-17853865D01*
X298405728Y-17853866D01*
G37*
G04 #@! TD.AperFunction*
M02*
