%TF.GenerationSoftware,KiCad,Pcbnew,7.0.1-0*%
%TF.CreationDate,2023-04-11T07:49:56+09:00*%
%TF.ProjectId,Sandy_Plate_Top,53616e64-795f-4506-9c61-74655f546f70,v.0*%
%TF.SameCoordinates,Original*%
%TF.FileFunction,Drillmap*%
%TF.FilePolarity,Positive*%
%FSLAX45Y45*%
G04 Gerber Fmt 4.5, Leading zero omitted, Abs format (unit mm)*
G04 Created by KiCad (PCBNEW 7.0.1-0) date 2023-04-11 07:49:56*
%MOMM*%
%LPD*%
G01*
G04 APERTURE LIST*
%ADD10C,0.200000*%
G04 APERTURE END LIST*
D10*
X1778150Y-5805360D02*
X1778150Y-5605360D01*
X1778150Y-5605360D02*
X1825769Y-5605360D01*
X1825769Y-5605360D02*
X1854340Y-5614884D01*
X1854340Y-5614884D02*
X1873388Y-5633932D01*
X1873388Y-5633932D02*
X1882912Y-5652979D01*
X1882912Y-5652979D02*
X1892436Y-5691074D01*
X1892436Y-5691074D02*
X1892436Y-5719646D01*
X1892436Y-5719646D02*
X1882912Y-5757741D01*
X1882912Y-5757741D02*
X1873388Y-5776789D01*
X1873388Y-5776789D02*
X1854340Y-5795836D01*
X1854340Y-5795836D02*
X1825769Y-5805360D01*
X1825769Y-5805360D02*
X1778150Y-5805360D01*
X1978150Y-5805360D02*
X1978150Y-5672027D01*
X1978150Y-5710122D02*
X1987674Y-5691074D01*
X1987674Y-5691074D02*
X1997198Y-5681551D01*
X1997198Y-5681551D02*
X2016245Y-5672027D01*
X2016245Y-5672027D02*
X2035293Y-5672027D01*
X2101960Y-5805360D02*
X2101960Y-5672027D01*
X2101960Y-5605360D02*
X2092436Y-5614884D01*
X2092436Y-5614884D02*
X2101960Y-5624408D01*
X2101960Y-5624408D02*
X2111483Y-5614884D01*
X2111483Y-5614884D02*
X2101960Y-5605360D01*
X2101960Y-5605360D02*
X2101960Y-5624408D01*
X2225769Y-5805360D02*
X2206721Y-5795836D01*
X2206721Y-5795836D02*
X2197198Y-5776789D01*
X2197198Y-5776789D02*
X2197198Y-5605360D01*
X2330531Y-5805360D02*
X2311483Y-5795836D01*
X2311483Y-5795836D02*
X2301960Y-5776789D01*
X2301960Y-5776789D02*
X2301960Y-5605360D01*
X2559102Y-5805360D02*
X2559102Y-5605360D01*
X2559102Y-5605360D02*
X2625769Y-5748217D01*
X2625769Y-5748217D02*
X2692436Y-5605360D01*
X2692436Y-5605360D02*
X2692436Y-5805360D01*
X2873388Y-5805360D02*
X2873388Y-5700598D01*
X2873388Y-5700598D02*
X2863864Y-5681551D01*
X2863864Y-5681551D02*
X2844817Y-5672027D01*
X2844817Y-5672027D02*
X2806721Y-5672027D01*
X2806721Y-5672027D02*
X2787674Y-5681551D01*
X2873388Y-5795836D02*
X2854340Y-5805360D01*
X2854340Y-5805360D02*
X2806721Y-5805360D01*
X2806721Y-5805360D02*
X2787674Y-5795836D01*
X2787674Y-5795836D02*
X2778150Y-5776789D01*
X2778150Y-5776789D02*
X2778150Y-5757741D01*
X2778150Y-5757741D02*
X2787674Y-5738694D01*
X2787674Y-5738694D02*
X2806721Y-5729170D01*
X2806721Y-5729170D02*
X2854340Y-5729170D01*
X2854340Y-5729170D02*
X2873388Y-5719646D01*
X2968626Y-5672027D02*
X2968626Y-5872027D01*
X2968626Y-5681551D02*
X2987674Y-5672027D01*
X2987674Y-5672027D02*
X3025769Y-5672027D01*
X3025769Y-5672027D02*
X3044817Y-5681551D01*
X3044817Y-5681551D02*
X3054340Y-5691074D01*
X3054340Y-5691074D02*
X3063864Y-5710122D01*
X3063864Y-5710122D02*
X3063864Y-5767265D01*
X3063864Y-5767265D02*
X3054340Y-5786313D01*
X3054340Y-5786313D02*
X3044817Y-5795836D01*
X3044817Y-5795836D02*
X3025769Y-5805360D01*
X3025769Y-5805360D02*
X2987674Y-5805360D01*
X2987674Y-5805360D02*
X2968626Y-5795836D01*
X3149579Y-5786313D02*
X3159102Y-5795836D01*
X3159102Y-5795836D02*
X3149579Y-5805360D01*
X3149579Y-5805360D02*
X3140055Y-5795836D01*
X3140055Y-5795836D02*
X3149579Y-5786313D01*
X3149579Y-5786313D02*
X3149579Y-5805360D01*
X3149579Y-5681551D02*
X3159102Y-5691074D01*
X3159102Y-5691074D02*
X3149579Y-5700598D01*
X3149579Y-5700598D02*
X3140055Y-5691074D01*
X3140055Y-5691074D02*
X3149579Y-5681551D01*
X3149579Y-5681551D02*
X3149579Y-5700598D01*
M02*
