G04 #@! TF.GenerationSoftware,KiCad,Pcbnew,7.0.1-0*
G04 #@! TF.CreationDate,2023-04-11T07:49:54+09:00*
G04 #@! TF.ProjectId,Sandy_Plate_Top,53616e64-795f-4506-9c61-74655f546f70,v.0*
G04 #@! TF.SameCoordinates,Original*
G04 #@! TF.FileFunction,Legend,Bot*
G04 #@! TF.FilePolarity,Positive*
%FSLAX46Y46*%
G04 Gerber Fmt 4.6, Leading zero omitted, Abs format (unit mm)*
G04 Created by KiCad (PCBNEW 7.0.1-0) date 2023-04-11 07:49:54*
%MOMM*%
%LPD*%
G01*
G04 APERTURE LIST*
%ADD10C,0.300000*%
%ADD11C,0.200000*%
G04 APERTURE END LIST*
D10*
X135828571Y-35693928D02*
X135828571Y-36765357D01*
X135828571Y-36765357D02*
X135900000Y-36979642D01*
X135900000Y-36979642D02*
X136042857Y-37122500D01*
X136042857Y-37122500D02*
X136257143Y-37193928D01*
X136257143Y-37193928D02*
X136400000Y-37193928D01*
X134400000Y-37193928D02*
X135114286Y-37193928D01*
X135114286Y-37193928D02*
X135114286Y-35693928D01*
X133042857Y-37051071D02*
X133114285Y-37122500D01*
X133114285Y-37122500D02*
X133328571Y-37193928D01*
X133328571Y-37193928D02*
X133471428Y-37193928D01*
X133471428Y-37193928D02*
X133685714Y-37122500D01*
X133685714Y-37122500D02*
X133828571Y-36979642D01*
X133828571Y-36979642D02*
X133900000Y-36836785D01*
X133900000Y-36836785D02*
X133971428Y-36551071D01*
X133971428Y-36551071D02*
X133971428Y-36336785D01*
X133971428Y-36336785D02*
X133900000Y-36051071D01*
X133900000Y-36051071D02*
X133828571Y-35908214D01*
X133828571Y-35908214D02*
X133685714Y-35765357D01*
X133685714Y-35765357D02*
X133471428Y-35693928D01*
X133471428Y-35693928D02*
X133328571Y-35693928D01*
X133328571Y-35693928D02*
X133114285Y-35765357D01*
X133114285Y-35765357D02*
X133042857Y-35836785D01*
X131971428Y-35693928D02*
X131971428Y-36765357D01*
X131971428Y-36765357D02*
X132042857Y-36979642D01*
X132042857Y-36979642D02*
X132185714Y-37122500D01*
X132185714Y-37122500D02*
X132400000Y-37193928D01*
X132400000Y-37193928D02*
X132542857Y-37193928D01*
X130542857Y-37193928D02*
X131257143Y-37193928D01*
X131257143Y-37193928D02*
X131257143Y-35693928D01*
X129185714Y-37051071D02*
X129257142Y-37122500D01*
X129257142Y-37122500D02*
X129471428Y-37193928D01*
X129471428Y-37193928D02*
X129614285Y-37193928D01*
X129614285Y-37193928D02*
X129828571Y-37122500D01*
X129828571Y-37122500D02*
X129971428Y-36979642D01*
X129971428Y-36979642D02*
X130042857Y-36836785D01*
X130042857Y-36836785D02*
X130114285Y-36551071D01*
X130114285Y-36551071D02*
X130114285Y-36336785D01*
X130114285Y-36336785D02*
X130042857Y-36051071D01*
X130042857Y-36051071D02*
X129971428Y-35908214D01*
X129971428Y-35908214D02*
X129828571Y-35765357D01*
X129828571Y-35765357D02*
X129614285Y-35693928D01*
X129614285Y-35693928D02*
X129471428Y-35693928D01*
X129471428Y-35693928D02*
X129257142Y-35765357D01*
X129257142Y-35765357D02*
X129185714Y-35836785D01*
X128114285Y-35693928D02*
X128114285Y-36765357D01*
X128114285Y-36765357D02*
X128185714Y-36979642D01*
X128185714Y-36979642D02*
X128328571Y-37122500D01*
X128328571Y-37122500D02*
X128542857Y-37193928D01*
X128542857Y-37193928D02*
X128685714Y-37193928D01*
X126685714Y-37193928D02*
X127400000Y-37193928D01*
X127400000Y-37193928D02*
X127400000Y-35693928D01*
X125328571Y-37051071D02*
X125399999Y-37122500D01*
X125399999Y-37122500D02*
X125614285Y-37193928D01*
X125614285Y-37193928D02*
X125757142Y-37193928D01*
X125757142Y-37193928D02*
X125971428Y-37122500D01*
X125971428Y-37122500D02*
X126114285Y-36979642D01*
X126114285Y-36979642D02*
X126185714Y-36836785D01*
X126185714Y-36836785D02*
X126257142Y-36551071D01*
X126257142Y-36551071D02*
X126257142Y-36336785D01*
X126257142Y-36336785D02*
X126185714Y-36051071D01*
X126185714Y-36051071D02*
X126114285Y-35908214D01*
X126114285Y-35908214D02*
X125971428Y-35765357D01*
X125971428Y-35765357D02*
X125757142Y-35693928D01*
X125757142Y-35693928D02*
X125614285Y-35693928D01*
X125614285Y-35693928D02*
X125399999Y-35765357D01*
X125399999Y-35765357D02*
X125328571Y-35836785D01*
X124257142Y-35693928D02*
X124257142Y-36765357D01*
X124257142Y-36765357D02*
X124328571Y-36979642D01*
X124328571Y-36979642D02*
X124471428Y-37122500D01*
X124471428Y-37122500D02*
X124685714Y-37193928D01*
X124685714Y-37193928D02*
X124828571Y-37193928D01*
X122828571Y-37193928D02*
X123542857Y-37193928D01*
X123542857Y-37193928D02*
X123542857Y-35693928D01*
X121471428Y-37051071D02*
X121542856Y-37122500D01*
X121542856Y-37122500D02*
X121757142Y-37193928D01*
X121757142Y-37193928D02*
X121899999Y-37193928D01*
X121899999Y-37193928D02*
X122114285Y-37122500D01*
X122114285Y-37122500D02*
X122257142Y-36979642D01*
X122257142Y-36979642D02*
X122328571Y-36836785D01*
X122328571Y-36836785D02*
X122399999Y-36551071D01*
X122399999Y-36551071D02*
X122399999Y-36336785D01*
X122399999Y-36336785D02*
X122328571Y-36051071D01*
X122328571Y-36051071D02*
X122257142Y-35908214D01*
X122257142Y-35908214D02*
X122114285Y-35765357D01*
X122114285Y-35765357D02*
X121899999Y-35693928D01*
X121899999Y-35693928D02*
X121757142Y-35693928D01*
X121757142Y-35693928D02*
X121542856Y-35765357D01*
X121542856Y-35765357D02*
X121471428Y-35836785D01*
D11*
X193394298Y-36201928D02*
X192251440Y-36201928D01*
X192937155Y-35516214D02*
X193394298Y-37573357D01*
X192403821Y-36887643D02*
X193546679Y-36887643D01*
X192860964Y-37573357D02*
X192403821Y-35516214D01*
X191794298Y-37192405D02*
X191565726Y-37268595D01*
X191565726Y-37268595D02*
X191184774Y-37268595D01*
X191184774Y-37268595D02*
X191032393Y-37192405D01*
X191032393Y-37192405D02*
X190956202Y-37116214D01*
X190956202Y-37116214D02*
X190880012Y-36963833D01*
X190880012Y-36963833D02*
X190880012Y-36811452D01*
X190880012Y-36811452D02*
X190956202Y-36659071D01*
X190956202Y-36659071D02*
X191032393Y-36582881D01*
X191032393Y-36582881D02*
X191184774Y-36506690D01*
X191184774Y-36506690D02*
X191489536Y-36430500D01*
X191489536Y-36430500D02*
X191641917Y-36354309D01*
X191641917Y-36354309D02*
X191718107Y-36278119D01*
X191718107Y-36278119D02*
X191794298Y-36125738D01*
X191794298Y-36125738D02*
X191794298Y-35973357D01*
X191794298Y-35973357D02*
X191718107Y-35820976D01*
X191718107Y-35820976D02*
X191641917Y-35744785D01*
X191641917Y-35744785D02*
X191489536Y-35668595D01*
X191489536Y-35668595D02*
X191108583Y-35668595D01*
X191108583Y-35668595D02*
X190880012Y-35744785D01*
X189508583Y-37268595D02*
X189508583Y-36430500D01*
X189508583Y-36430500D02*
X189584773Y-36278119D01*
X189584773Y-36278119D02*
X189737154Y-36201928D01*
X189737154Y-36201928D02*
X190041916Y-36201928D01*
X190041916Y-36201928D02*
X190194297Y-36278119D01*
X189508583Y-37192405D02*
X189660964Y-37268595D01*
X189660964Y-37268595D02*
X190041916Y-37268595D01*
X190041916Y-37268595D02*
X190194297Y-37192405D01*
X190194297Y-37192405D02*
X190270488Y-37040024D01*
X190270488Y-37040024D02*
X190270488Y-36887643D01*
X190270488Y-36887643D02*
X190194297Y-36735262D01*
X190194297Y-36735262D02*
X190041916Y-36659071D01*
X190041916Y-36659071D02*
X189660964Y-36659071D01*
X189660964Y-36659071D02*
X189508583Y-36582881D01*
X188746678Y-36201928D02*
X188746678Y-37268595D01*
X188746678Y-36354309D02*
X188670488Y-36278119D01*
X188670488Y-36278119D02*
X188518107Y-36201928D01*
X188518107Y-36201928D02*
X188289535Y-36201928D01*
X188289535Y-36201928D02*
X188137154Y-36278119D01*
X188137154Y-36278119D02*
X188060964Y-36430500D01*
X188060964Y-36430500D02*
X188060964Y-37268595D01*
X186613345Y-37268595D02*
X186613345Y-35668595D01*
X186613345Y-37192405D02*
X186765726Y-37268595D01*
X186765726Y-37268595D02*
X187070488Y-37268595D01*
X187070488Y-37268595D02*
X187222869Y-37192405D01*
X187222869Y-37192405D02*
X187299059Y-37116214D01*
X187299059Y-37116214D02*
X187375250Y-36963833D01*
X187375250Y-36963833D02*
X187375250Y-36506690D01*
X187375250Y-36506690D02*
X187299059Y-36354309D01*
X187299059Y-36354309D02*
X187222869Y-36278119D01*
X187222869Y-36278119D02*
X187070488Y-36201928D01*
X187070488Y-36201928D02*
X186765726Y-36201928D01*
X186765726Y-36201928D02*
X186613345Y-36278119D01*
X186003821Y-36201928D02*
X185622869Y-37268595D01*
X185241916Y-36201928D02*
X185622869Y-37268595D01*
X185622869Y-37268595D02*
X185775250Y-37649547D01*
X185775250Y-37649547D02*
X185851440Y-37725738D01*
X185851440Y-37725738D02*
X186003821Y-37801928D01*
X185013345Y-37420976D02*
X183794297Y-37420976D01*
X183413344Y-37268595D02*
X183413344Y-35668595D01*
X183260963Y-36659071D02*
X182803820Y-37268595D01*
X182803820Y-36201928D02*
X183413344Y-36811452D01*
X182118106Y-37268595D02*
X182118106Y-35668595D01*
X182118106Y-36278119D02*
X181965725Y-36201928D01*
X181965725Y-36201928D02*
X181660963Y-36201928D01*
X181660963Y-36201928D02*
X181508582Y-36278119D01*
X181508582Y-36278119D02*
X181432392Y-36354309D01*
X181432392Y-36354309D02*
X181356201Y-36506690D01*
X181356201Y-36506690D02*
X181356201Y-36963833D01*
X181356201Y-36963833D02*
X181432392Y-37116214D01*
X181432392Y-37116214D02*
X181508582Y-37192405D01*
X181508582Y-37192405D02*
X181660963Y-37268595D01*
X181660963Y-37268595D02*
X181965725Y-37268595D01*
X181965725Y-37268595D02*
X182118106Y-37192405D01*
X179984773Y-37268595D02*
X179984773Y-35668595D01*
X179984773Y-37192405D02*
X180137154Y-37268595D01*
X180137154Y-37268595D02*
X180441916Y-37268595D01*
X180441916Y-37268595D02*
X180594297Y-37192405D01*
X180594297Y-37192405D02*
X180670487Y-37116214D01*
X180670487Y-37116214D02*
X180746678Y-36963833D01*
X180746678Y-36963833D02*
X180746678Y-36506690D01*
X180746678Y-36506690D02*
X180670487Y-36354309D01*
X180670487Y-36354309D02*
X180594297Y-36278119D01*
X180594297Y-36278119D02*
X180441916Y-36201928D01*
X180441916Y-36201928D02*
X180137154Y-36201928D01*
X180137154Y-36201928D02*
X179984773Y-36278119D01*
X178156201Y-36201928D02*
X177775249Y-37268595D01*
X177775249Y-37268595D02*
X177394296Y-36201928D01*
X176784772Y-37116214D02*
X176708582Y-37192405D01*
X176708582Y-37192405D02*
X176784772Y-37268595D01*
X176784772Y-37268595D02*
X176860963Y-37192405D01*
X176860963Y-37192405D02*
X176784772Y-37116214D01*
X176784772Y-37116214D02*
X176784772Y-37268595D01*
X175718105Y-35668595D02*
X175565724Y-35668595D01*
X175565724Y-35668595D02*
X175413343Y-35744785D01*
X175413343Y-35744785D02*
X175337153Y-35820976D01*
X175337153Y-35820976D02*
X175260962Y-35973357D01*
X175260962Y-35973357D02*
X175184772Y-36278119D01*
X175184772Y-36278119D02*
X175184772Y-36659071D01*
X175184772Y-36659071D02*
X175260962Y-36963833D01*
X175260962Y-36963833D02*
X175337153Y-37116214D01*
X175337153Y-37116214D02*
X175413343Y-37192405D01*
X175413343Y-37192405D02*
X175565724Y-37268595D01*
X175565724Y-37268595D02*
X175718105Y-37268595D01*
X175718105Y-37268595D02*
X175870486Y-37192405D01*
X175870486Y-37192405D02*
X175946677Y-37116214D01*
X175946677Y-37116214D02*
X176022867Y-36963833D01*
X176022867Y-36963833D02*
X176099058Y-36659071D01*
X176099058Y-36659071D02*
X176099058Y-36278119D01*
X176099058Y-36278119D02*
X176022867Y-35973357D01*
X176022867Y-35973357D02*
X175946677Y-35820976D01*
X175946677Y-35820976D02*
X175870486Y-35744785D01*
X175870486Y-35744785D02*
X175718105Y-35668595D01*
X174499057Y-37116214D02*
X174422867Y-37192405D01*
X174422867Y-37192405D02*
X174499057Y-37268595D01*
X174499057Y-37268595D02*
X174575248Y-37192405D01*
X174575248Y-37192405D02*
X174499057Y-37116214D01*
X174499057Y-37116214D02*
X174499057Y-37268595D01*
X173813343Y-35820976D02*
X173737152Y-35744785D01*
X173737152Y-35744785D02*
X173584771Y-35668595D01*
X173584771Y-35668595D02*
X173203819Y-35668595D01*
X173203819Y-35668595D02*
X173051438Y-35744785D01*
X173051438Y-35744785D02*
X172975247Y-35820976D01*
X172975247Y-35820976D02*
X172899057Y-35973357D01*
X172899057Y-35973357D02*
X172899057Y-36125738D01*
X172899057Y-36125738D02*
X172975247Y-36354309D01*
X172975247Y-36354309D02*
X173889533Y-37268595D01*
X173889533Y-37268595D02*
X172899057Y-37268595D01*
X172137152Y-37192405D02*
X172137152Y-37268595D01*
X172137152Y-37268595D02*
X172213342Y-37420976D01*
X172213342Y-37420976D02*
X172289533Y-37497166D01*
X170232389Y-37268595D02*
X170232389Y-35668595D01*
X170232389Y-35668595D02*
X169622865Y-35668595D01*
X169622865Y-35668595D02*
X169470484Y-35744785D01*
X169470484Y-35744785D02*
X169394294Y-35820976D01*
X169394294Y-35820976D02*
X169318103Y-35973357D01*
X169318103Y-35973357D02*
X169318103Y-36201928D01*
X169318103Y-36201928D02*
X169394294Y-36354309D01*
X169394294Y-36354309D02*
X169470484Y-36430500D01*
X169470484Y-36430500D02*
X169622865Y-36506690D01*
X169622865Y-36506690D02*
X170232389Y-36506690D01*
X168403818Y-37268595D02*
X168556199Y-37192405D01*
X168556199Y-37192405D02*
X168632389Y-37040024D01*
X168632389Y-37040024D02*
X168632389Y-35668595D01*
X167108580Y-37268595D02*
X167108580Y-36430500D01*
X167108580Y-36430500D02*
X167184770Y-36278119D01*
X167184770Y-36278119D02*
X167337151Y-36201928D01*
X167337151Y-36201928D02*
X167641913Y-36201928D01*
X167641913Y-36201928D02*
X167794294Y-36278119D01*
X167108580Y-37192405D02*
X167260961Y-37268595D01*
X167260961Y-37268595D02*
X167641913Y-37268595D01*
X167641913Y-37268595D02*
X167794294Y-37192405D01*
X167794294Y-37192405D02*
X167870485Y-37040024D01*
X167870485Y-37040024D02*
X167870485Y-36887643D01*
X167870485Y-36887643D02*
X167794294Y-36735262D01*
X167794294Y-36735262D02*
X167641913Y-36659071D01*
X167641913Y-36659071D02*
X167260961Y-36659071D01*
X167260961Y-36659071D02*
X167108580Y-36582881D01*
X166575247Y-36201928D02*
X165965723Y-36201928D01*
X166346675Y-35668595D02*
X166346675Y-37040024D01*
X166346675Y-37040024D02*
X166270485Y-37192405D01*
X166270485Y-37192405D02*
X166118104Y-37268595D01*
X166118104Y-37268595D02*
X165965723Y-37268595D01*
X164822865Y-37192405D02*
X164975246Y-37268595D01*
X164975246Y-37268595D02*
X165280008Y-37268595D01*
X165280008Y-37268595D02*
X165432389Y-37192405D01*
X165432389Y-37192405D02*
X165508580Y-37040024D01*
X165508580Y-37040024D02*
X165508580Y-36430500D01*
X165508580Y-36430500D02*
X165432389Y-36278119D01*
X165432389Y-36278119D02*
X165280008Y-36201928D01*
X165280008Y-36201928D02*
X164975246Y-36201928D01*
X164975246Y-36201928D02*
X164822865Y-36278119D01*
X164822865Y-36278119D02*
X164746675Y-36430500D01*
X164746675Y-36430500D02*
X164746675Y-36582881D01*
X164746675Y-36582881D02*
X165508580Y-36735262D01*
X163070484Y-36201928D02*
X162460960Y-36201928D01*
X162841912Y-37268595D02*
X162841912Y-35897166D01*
X162841912Y-35897166D02*
X162765722Y-35744785D01*
X162765722Y-35744785D02*
X162613341Y-35668595D01*
X162613341Y-35668595D02*
X162460960Y-35668595D01*
X161699055Y-37268595D02*
X161851436Y-37192405D01*
X161851436Y-37192405D02*
X161927626Y-37116214D01*
X161927626Y-37116214D02*
X162003817Y-36963833D01*
X162003817Y-36963833D02*
X162003817Y-36506690D01*
X162003817Y-36506690D02*
X161927626Y-36354309D01*
X161927626Y-36354309D02*
X161851436Y-36278119D01*
X161851436Y-36278119D02*
X161699055Y-36201928D01*
X161699055Y-36201928D02*
X161470483Y-36201928D01*
X161470483Y-36201928D02*
X161318102Y-36278119D01*
X161318102Y-36278119D02*
X161241912Y-36354309D01*
X161241912Y-36354309D02*
X161165721Y-36506690D01*
X161165721Y-36506690D02*
X161165721Y-36963833D01*
X161165721Y-36963833D02*
X161241912Y-37116214D01*
X161241912Y-37116214D02*
X161318102Y-37192405D01*
X161318102Y-37192405D02*
X161470483Y-37268595D01*
X161470483Y-37268595D02*
X161699055Y-37268595D01*
X160480007Y-37268595D02*
X160480007Y-36201928D01*
X160480007Y-36506690D02*
X160403817Y-36354309D01*
X160403817Y-36354309D02*
X160327626Y-36278119D01*
X160327626Y-36278119D02*
X160175245Y-36201928D01*
X160175245Y-36201928D02*
X160022864Y-36201928D01*
X158499055Y-35668595D02*
X157584769Y-35668595D01*
X158041912Y-37268595D02*
X158041912Y-35668595D01*
X156822864Y-37268595D02*
X156975245Y-37192405D01*
X156975245Y-37192405D02*
X157051435Y-37116214D01*
X157051435Y-37116214D02*
X157127626Y-36963833D01*
X157127626Y-36963833D02*
X157127626Y-36506690D01*
X157127626Y-36506690D02*
X157051435Y-36354309D01*
X157051435Y-36354309D02*
X156975245Y-36278119D01*
X156975245Y-36278119D02*
X156822864Y-36201928D01*
X156822864Y-36201928D02*
X156594292Y-36201928D01*
X156594292Y-36201928D02*
X156441911Y-36278119D01*
X156441911Y-36278119D02*
X156365721Y-36354309D01*
X156365721Y-36354309D02*
X156289530Y-36506690D01*
X156289530Y-36506690D02*
X156289530Y-36963833D01*
X156289530Y-36963833D02*
X156365721Y-37116214D01*
X156365721Y-37116214D02*
X156441911Y-37192405D01*
X156441911Y-37192405D02*
X156594292Y-37268595D01*
X156594292Y-37268595D02*
X156822864Y-37268595D01*
X155603816Y-36201928D02*
X155603816Y-37801928D01*
X155603816Y-36278119D02*
X155451435Y-36201928D01*
X155451435Y-36201928D02*
X155146673Y-36201928D01*
X155146673Y-36201928D02*
X154994292Y-36278119D01*
X154994292Y-36278119D02*
X154918102Y-36354309D01*
X154918102Y-36354309D02*
X154841911Y-36506690D01*
X154841911Y-36506690D02*
X154841911Y-36963833D01*
X154841911Y-36963833D02*
X154918102Y-37116214D01*
X154918102Y-37116214D02*
X154994292Y-37192405D01*
X154994292Y-37192405D02*
X155146673Y-37268595D01*
X155146673Y-37268595D02*
X155451435Y-37268595D01*
X155451435Y-37268595D02*
X155603816Y-37192405D01*
X152937149Y-37268595D02*
X152937149Y-35668595D01*
X152937149Y-36278119D02*
X152784768Y-36201928D01*
X152784768Y-36201928D02*
X152480006Y-36201928D01*
X152480006Y-36201928D02*
X152327625Y-36278119D01*
X152327625Y-36278119D02*
X152251435Y-36354309D01*
X152251435Y-36354309D02*
X152175244Y-36506690D01*
X152175244Y-36506690D02*
X152175244Y-36963833D01*
X152175244Y-36963833D02*
X152251435Y-37116214D01*
X152251435Y-37116214D02*
X152327625Y-37192405D01*
X152327625Y-37192405D02*
X152480006Y-37268595D01*
X152480006Y-37268595D02*
X152784768Y-37268595D01*
X152784768Y-37268595D02*
X152937149Y-37192405D01*
X151641911Y-36201928D02*
X151260959Y-37268595D01*
X150880006Y-36201928D02*
X151260959Y-37268595D01*
X151260959Y-37268595D02*
X151413340Y-37649547D01*
X151413340Y-37649547D02*
X151489530Y-37725738D01*
X151489530Y-37725738D02*
X151641911Y-37801928D01*
X148060958Y-36506690D02*
X148137148Y-36430500D01*
X148137148Y-36430500D02*
X148289529Y-36354309D01*
X148289529Y-36354309D02*
X148441910Y-36354309D01*
X148441910Y-36354309D02*
X148594291Y-36430500D01*
X148594291Y-36430500D02*
X148670482Y-36506690D01*
X148670482Y-36506690D02*
X148746672Y-36659071D01*
X148746672Y-36659071D02*
X148746672Y-36811452D01*
X148746672Y-36811452D02*
X148670482Y-36963833D01*
X148670482Y-36963833D02*
X148594291Y-37040024D01*
X148594291Y-37040024D02*
X148441910Y-37116214D01*
X148441910Y-37116214D02*
X148289529Y-37116214D01*
X148289529Y-37116214D02*
X148137148Y-37040024D01*
X148137148Y-37040024D02*
X148060958Y-36963833D01*
X148060958Y-36354309D02*
X148060958Y-36963833D01*
X148060958Y-36963833D02*
X147984767Y-37040024D01*
X147984767Y-37040024D02*
X147908577Y-37040024D01*
X147908577Y-37040024D02*
X147756196Y-36963833D01*
X147756196Y-36963833D02*
X147680006Y-36811452D01*
X147680006Y-36811452D02*
X147680006Y-36430500D01*
X147680006Y-36430500D02*
X147832387Y-36201928D01*
X147832387Y-36201928D02*
X148060958Y-36049547D01*
X148060958Y-36049547D02*
X148365720Y-35973357D01*
X148365720Y-35973357D02*
X148670482Y-36049547D01*
X148670482Y-36049547D02*
X148899053Y-36201928D01*
X148899053Y-36201928D02*
X149051434Y-36430500D01*
X149051434Y-36430500D02*
X149127625Y-36735262D01*
X149127625Y-36735262D02*
X149051434Y-37040024D01*
X149051434Y-37040024D02*
X148899053Y-37268595D01*
X148899053Y-37268595D02*
X148670482Y-37420976D01*
X148670482Y-37420976D02*
X148365720Y-37497166D01*
X148365720Y-37497166D02*
X148060958Y-37420976D01*
X148060958Y-37420976D02*
X147832387Y-37268595D01*
X146994291Y-36201928D02*
X146994291Y-37573357D01*
X146994291Y-37573357D02*
X147070482Y-37725738D01*
X147070482Y-37725738D02*
X147222863Y-37801928D01*
X147222863Y-37801928D02*
X147299053Y-37801928D01*
X146994291Y-35668595D02*
X147070482Y-35744785D01*
X147070482Y-35744785D02*
X146994291Y-35820976D01*
X146994291Y-35820976D02*
X146918101Y-35744785D01*
X146918101Y-35744785D02*
X146994291Y-35668595D01*
X146994291Y-35668595D02*
X146994291Y-35820976D01*
X146232386Y-36201928D02*
X146232386Y-37801928D01*
X146232386Y-36278119D02*
X146080005Y-36201928D01*
X146080005Y-36201928D02*
X145775243Y-36201928D01*
X145775243Y-36201928D02*
X145622862Y-36278119D01*
X145622862Y-36278119D02*
X145546672Y-36354309D01*
X145546672Y-36354309D02*
X145470481Y-36506690D01*
X145470481Y-36506690D02*
X145470481Y-36963833D01*
X145470481Y-36963833D02*
X145546672Y-37116214D01*
X145546672Y-37116214D02*
X145622862Y-37192405D01*
X145622862Y-37192405D02*
X145775243Y-37268595D01*
X145775243Y-37268595D02*
X146080005Y-37268595D01*
X146080005Y-37268595D02*
X146232386Y-37192405D01*
X144860958Y-37192405D02*
X144708577Y-37268595D01*
X144708577Y-37268595D02*
X144403815Y-37268595D01*
X144403815Y-37268595D02*
X144251434Y-37192405D01*
X144251434Y-37192405D02*
X144175243Y-37040024D01*
X144175243Y-37040024D02*
X144175243Y-36963833D01*
X144175243Y-36963833D02*
X144251434Y-36811452D01*
X144251434Y-36811452D02*
X144403815Y-36735262D01*
X144403815Y-36735262D02*
X144632386Y-36735262D01*
X144632386Y-36735262D02*
X144784767Y-36659071D01*
X144784767Y-36659071D02*
X144860958Y-36506690D01*
X144860958Y-36506690D02*
X144860958Y-36430500D01*
X144860958Y-36430500D02*
X144784767Y-36278119D01*
X144784767Y-36278119D02*
X144632386Y-36201928D01*
X144632386Y-36201928D02*
X144403815Y-36201928D01*
X144403815Y-36201928D02*
X144251434Y-36278119D01*
X143489529Y-37268595D02*
X143489529Y-35668595D01*
X143337148Y-36659071D02*
X142880005Y-37268595D01*
X142880005Y-36201928D02*
X143489529Y-36811452D01*
X141584767Y-37192405D02*
X141737148Y-37268595D01*
X141737148Y-37268595D02*
X142041910Y-37268595D01*
X142041910Y-37268595D02*
X142194291Y-37192405D01*
X142194291Y-37192405D02*
X142270482Y-37040024D01*
X142270482Y-37040024D02*
X142270482Y-36430500D01*
X142270482Y-36430500D02*
X142194291Y-36278119D01*
X142194291Y-36278119D02*
X142041910Y-36201928D01*
X142041910Y-36201928D02*
X141737148Y-36201928D01*
X141737148Y-36201928D02*
X141584767Y-36278119D01*
X141584767Y-36278119D02*
X141508577Y-36430500D01*
X141508577Y-36430500D02*
X141508577Y-36582881D01*
X141508577Y-36582881D02*
X142270482Y-36735262D01*
X140822862Y-36201928D02*
X140822862Y-37268595D01*
X140822862Y-36354309D02*
X140746672Y-36278119D01*
X140746672Y-36278119D02*
X140594291Y-36201928D01*
X140594291Y-36201928D02*
X140365719Y-36201928D01*
X140365719Y-36201928D02*
X140213338Y-36278119D01*
X140213338Y-36278119D02*
X140137148Y-36430500D01*
X140137148Y-36430500D02*
X140137148Y-37268595D01*
X139375243Y-36201928D02*
X139375243Y-37268595D01*
X139375243Y-36354309D02*
X139299053Y-36278119D01*
X139299053Y-36278119D02*
X139146672Y-36201928D01*
X139146672Y-36201928D02*
X138918100Y-36201928D01*
X138918100Y-36201928D02*
X138765719Y-36278119D01*
X138765719Y-36278119D02*
X138689529Y-36430500D01*
X138689529Y-36430500D02*
X138689529Y-37268595D01*
%LPC*%
M02*
