G04 #@! TF.GenerationSoftware,KiCad,Pcbnew,7.0.1-0*
G04 #@! TF.CreationDate,2023-04-15T21:11:59+09:00*
G04 #@! TF.ProjectId,Sandy_Base,53616e64-795f-4426-9173-652e6b696361,v.0*
G04 #@! TF.SameCoordinates,Original*
G04 #@! TF.FileFunction,Soldermask,Top*
G04 #@! TF.FilePolarity,Negative*
%FSLAX46Y46*%
G04 Gerber Fmt 4.6, Leading zero omitted, Abs format (unit mm)*
G04 Created by KiCad (PCBNEW 7.0.1-0) date 2023-04-15 21:11:59*
%MOMM*%
%LPD*%
G01*
G04 APERTURE LIST*
G04 Aperture macros list*
%AMRoundRect*
0 Rectangle with rounded corners*
0 $1 Rounding radius*
0 $2 $3 $4 $5 $6 $7 $8 $9 X,Y pos of 4 corners*
0 Add a 4 corners polygon primitive as box body*
4,1,4,$2,$3,$4,$5,$6,$7,$8,$9,$2,$3,0*
0 Add four circle primitives for the rounded corners*
1,1,$1+$1,$2,$3*
1,1,$1+$1,$4,$5*
1,1,$1+$1,$6,$7*
1,1,$1+$1,$8,$9*
0 Add four rect primitives between the rounded corners*
20,1,$1+$1,$2,$3,$4,$5,0*
20,1,$1+$1,$4,$5,$6,$7,0*
20,1,$1+$1,$6,$7,$8,$9,0*
20,1,$1+$1,$8,$9,$2,$3,0*%
G04 Aperture macros list end*
%ADD10C,2.150000*%
%ADD11C,3.400000*%
%ADD12C,4.387800*%
%ADD13RoundRect,0.200000X0.800000X0.425000X-0.800000X0.425000X-0.800000X-0.425000X0.800000X-0.425000X0*%
%ADD14C,2.600000*%
%ADD15O,1.900000X3.200000*%
%ADD16O,2.000000X2.300000*%
%ADD17C,2.500000*%
%ADD18O,2.000000X1.700000*%
%ADD19O,2.100000X2.100000*%
%ADD20RoundRect,0.350000X0.625000X-0.150000X0.625000X0.150000X-0.625000X0.150000X-0.625000X-0.150000X0*%
%ADD21RoundRect,0.450000X0.650000X-0.350000X0.650000X0.350000X-0.650000X0.350000X-0.650000X-0.350000X0*%
%ADD22RoundRect,0.350000X0.150000X0.625000X-0.150000X0.625000X-0.150000X-0.625000X0.150000X-0.625000X0*%
%ADD23RoundRect,0.450000X0.350000X0.650000X-0.350000X0.650000X-0.350000X-0.650000X0.350000X-0.650000X0*%
%ADD24O,9.400000X7.900000*%
%ADD25O,9.400000X6.400000*%
%ADD26O,5.600000X2.800000*%
%ADD27C,1.400000*%
%ADD28C,5.200000*%
%ADD29O,7.800000X5.000000*%
%ADD30RoundRect,0.350000X-0.625000X0.150000X-0.625000X-0.150000X0.625000X-0.150000X0.625000X0.150000X0*%
%ADD31RoundRect,0.450000X-0.650000X0.350000X-0.650000X-0.350000X0.650000X-0.350000X0.650000X0.350000X0*%
%ADD32RoundRect,0.200000X-0.850000X-0.850000X0.850000X-0.850000X0.850000X0.850000X-0.850000X0.850000X0*%
%ADD33C,2.400000*%
%ADD34RoundRect,0.200000X0.850000X-0.850000X0.850000X0.850000X-0.850000X0.850000X-0.850000X-0.850000X0*%
%ADD35C,1.050000*%
%ADD36O,1.400000X2.000000*%
%ADD37O,1.400000X2.500000*%
%ADD38C,4.800000*%
G04 APERTURE END LIST*
D10*
X230291695Y-84153685D03*
D11*
X231561695Y-81613685D03*
D12*
X235371695Y-84153685D03*
D11*
X237911695Y-79073685D03*
D10*
X240451695Y-84153685D03*
X249341775Y-84153685D03*
D11*
X250611775Y-81613685D03*
D12*
X254421775Y-84153685D03*
D11*
X256961775Y-79073685D03*
D10*
X259501775Y-84153685D03*
X49315935Y-65103565D03*
D11*
X50585935Y-62563565D03*
D12*
X54395935Y-65103565D03*
D11*
X56935935Y-60023565D03*
D10*
X59475935Y-65103565D03*
X96940935Y-84153645D03*
D11*
X98210935Y-81613645D03*
D12*
X102020935Y-84153645D03*
D11*
X104560935Y-79073645D03*
D10*
X107100935Y-84153645D03*
X87415935Y-65103565D03*
D11*
X88685935Y-62563565D03*
D12*
X92495935Y-65103565D03*
D11*
X95035935Y-60023565D03*
D10*
X97575935Y-65103565D03*
X268392015Y-103203725D03*
D11*
X269662015Y-100663725D03*
D12*
X273472015Y-103203725D03*
D11*
X276012015Y-98123725D03*
D10*
X278552015Y-103203725D03*
X87415935Y-46053485D03*
D11*
X88685935Y-43513485D03*
D12*
X92495935Y-46053485D03*
D11*
X95035935Y-40973485D03*
D10*
X97575935Y-46053485D03*
X106465935Y-65103565D03*
D11*
X107735935Y-62563565D03*
D12*
X111545935Y-65103565D03*
D11*
X114085935Y-60023565D03*
D10*
X116625935Y-65103565D03*
X287442095Y-84153685D03*
D11*
X288712095Y-81613685D03*
D12*
X292522095Y-84153685D03*
D11*
X295062095Y-79073685D03*
D10*
X297602095Y-84153685D03*
X220766655Y-46053525D03*
D11*
X222036655Y-43513525D03*
D12*
X225846655Y-46053525D03*
D11*
X228386655Y-40973525D03*
D10*
X230926655Y-46053525D03*
X220766655Y-65103605D03*
D11*
X222036655Y-62563605D03*
D12*
X225846655Y-65103605D03*
D11*
X228386655Y-60023605D03*
D10*
X230926655Y-65103605D03*
X239816735Y-65103605D03*
D11*
X241086735Y-62563605D03*
D12*
X244896735Y-65103605D03*
D11*
X247436735Y-60023605D03*
D10*
X249976735Y-65103605D03*
X20740935Y-84153405D03*
D11*
X22010935Y-81613405D03*
D12*
X25820935Y-84153405D03*
D11*
X28360935Y-79073405D03*
D10*
X30900935Y-84153405D03*
X39790975Y-84153765D03*
D11*
X41060975Y-81613765D03*
D12*
X44870975Y-84153765D03*
D11*
X47410975Y-79073765D03*
D10*
X49950975Y-84153765D03*
X211241615Y-84153645D03*
D11*
X212511615Y-81613645D03*
D12*
X216321615Y-84153645D03*
D11*
X218861615Y-79073645D03*
D10*
X221401615Y-84153645D03*
X192191535Y-84153645D03*
D11*
X193461535Y-81613645D03*
D12*
X197271535Y-84153645D03*
D11*
X199811535Y-79073645D03*
D10*
X202351535Y-84153645D03*
X239816735Y-46053525D03*
D11*
X241086735Y-43513525D03*
D12*
X244896735Y-46053525D03*
D11*
X247436735Y-40973525D03*
D10*
X249976735Y-46053525D03*
X115990935Y-84153645D03*
D11*
X117260935Y-81613645D03*
D12*
X121070935Y-84153645D03*
D11*
X123610935Y-79073645D03*
D10*
X126150935Y-84153645D03*
X68365935Y-46053485D03*
D11*
X69635935Y-43513485D03*
D12*
X73445935Y-46053485D03*
D11*
X75985935Y-40973485D03*
D10*
X78525935Y-46053485D03*
X77890935Y-84153645D03*
D11*
X79160935Y-81613645D03*
D12*
X82970935Y-84153645D03*
D11*
X85510935Y-79073645D03*
D10*
X88050935Y-84153645D03*
X58840935Y-84153645D03*
D11*
X60110935Y-81613645D03*
D12*
X63920935Y-84153645D03*
D11*
X66460935Y-79073645D03*
D10*
X69000935Y-84153645D03*
X20740975Y-103203765D03*
D11*
X22010975Y-100663765D03*
D12*
X25820975Y-103203765D03*
D11*
X28360975Y-98123765D03*
D10*
X30900975Y-103203765D03*
X85034995Y-103203765D03*
D11*
X86304995Y-100663765D03*
D12*
X90114995Y-103203765D03*
D11*
X92654995Y-98123765D03*
D10*
X95194995Y-103203765D03*
X223147225Y-103203765D03*
D11*
X224417225Y-100663765D03*
D12*
X228227225Y-103203765D03*
D11*
X230767225Y-98123765D03*
D10*
X233307225Y-103203765D03*
D13*
X21445935Y-58553405D03*
X21445935Y-56803405D03*
X17945935Y-56803405D03*
X17945935Y-58553405D03*
X21445935Y-62753405D03*
X21445935Y-61003405D03*
X17945935Y-61003405D03*
X17945935Y-62753405D03*
X300245935Y-58553405D03*
X300245935Y-56803405D03*
X296745935Y-56803405D03*
X296745935Y-58553405D03*
X300245935Y-62753405D03*
X300245935Y-61003405D03*
X296745935Y-61003405D03*
X296745935Y-62753405D03*
D10*
X292839415Y-65103605D03*
D11*
X291569415Y-67643605D03*
D12*
X287759415Y-65103605D03*
D11*
X285219415Y-70183605D03*
D10*
X282679415Y-65103605D03*
X258865975Y-65103765D03*
D11*
X260135975Y-62563765D03*
D12*
X263945975Y-65103765D03*
D11*
X266485975Y-60023765D03*
D10*
X269025975Y-65103765D03*
X27884755Y-65103605D03*
D11*
X29154755Y-62563605D03*
D12*
X32964755Y-65103605D03*
D11*
X35504755Y-60023605D03*
D10*
X38044755Y-65103605D03*
X35663475Y-65103765D03*
D11*
X34393475Y-67643765D03*
D12*
X30583475Y-65103765D03*
D11*
X28043475Y-70183765D03*
D10*
X25503475Y-65103765D03*
X39790975Y-103203765D03*
D11*
X41060975Y-100663765D03*
D12*
X44870975Y-103203765D03*
D11*
X47410975Y-98123765D03*
D10*
X49950975Y-103203765D03*
X268392015Y-84153685D03*
D11*
X269662015Y-81613685D03*
D12*
X273472015Y-84153685D03*
D11*
X276012015Y-79073685D03*
D10*
X278552015Y-84153685D03*
X68365935Y-65103565D03*
D11*
X69635935Y-62563565D03*
D12*
X73445935Y-65103565D03*
D11*
X75985935Y-60023565D03*
D10*
X78525935Y-65103565D03*
D14*
X111545935Y-22028365D03*
X206795935Y-22028365D03*
X100495935Y-107628365D03*
D10*
X287442095Y-103203765D03*
D11*
X288712095Y-100663765D03*
D12*
X292522095Y-103203765D03*
D11*
X295062095Y-98123765D03*
D10*
X297602095Y-103203765D03*
X61222225Y-103203765D03*
D11*
X62492225Y-100663765D03*
D12*
X66302225Y-103203765D03*
D11*
X68842225Y-98123765D03*
D10*
X71382225Y-103203765D03*
D14*
X240395935Y-107628365D03*
D10*
X201716575Y-65103565D03*
D11*
X202986575Y-62563565D03*
D12*
X206796575Y-65103565D03*
D11*
X209336575Y-60023565D03*
D10*
X211876575Y-65103565D03*
D15*
X286922095Y-103203765D03*
D16*
X292522095Y-98703765D03*
D17*
X292522095Y-103203765D03*
D16*
X292522095Y-107703765D03*
D15*
X298122095Y-103203765D03*
D18*
X295022095Y-95703765D03*
X290022095Y-95703765D03*
X292522095Y-95703765D03*
X295022095Y-110203765D03*
X290022095Y-110203765D03*
D10*
X246959685Y-103203405D03*
D11*
X248229685Y-100663405D03*
D12*
X252039685Y-103203405D03*
D11*
X254579685Y-98123405D03*
D10*
X257119685Y-103203405D03*
D19*
X175639685Y-45672155D03*
D20*
X173839685Y-45172155D03*
D19*
X177539685Y-44672155D03*
D20*
X173839685Y-44172155D03*
X173839685Y-43172155D03*
D19*
X177539685Y-42672155D03*
D20*
X173839685Y-42172155D03*
D19*
X175639685Y-41672155D03*
D21*
X177714685Y-46472155D03*
X177714685Y-40872155D03*
D19*
X151645935Y-53397155D03*
D22*
X151145935Y-55197155D03*
D19*
X150645935Y-51497155D03*
D22*
X150145935Y-55197155D03*
X149145935Y-55197155D03*
D19*
X148645935Y-51497155D03*
D22*
X148145935Y-55197155D03*
D19*
X147645935Y-53397155D03*
D23*
X152445935Y-51322155D03*
X146845935Y-51322155D03*
D15*
X20220975Y-103203765D03*
D16*
X25820975Y-98703765D03*
D17*
X25820975Y-103203765D03*
D16*
X25820975Y-107703765D03*
D15*
X31420975Y-103203765D03*
D18*
X28320975Y-95703765D03*
X23320975Y-95703765D03*
X25820975Y-95703765D03*
X28320975Y-110203765D03*
X23320975Y-110203765D03*
D10*
X135041375Y-103203765D03*
D11*
X136311375Y-100663765D03*
D12*
X140121375Y-103203765D03*
D11*
X142661375Y-98123765D03*
D10*
X145201375Y-103203765D03*
D19*
X175639685Y-34956530D03*
D20*
X173839685Y-34456530D03*
D19*
X177539685Y-33956530D03*
D20*
X173839685Y-33456530D03*
X173839685Y-32456530D03*
D19*
X177539685Y-31956530D03*
D20*
X173839685Y-31456530D03*
D19*
X175639685Y-30956530D03*
D21*
X177714685Y-35756530D03*
X177714685Y-30156530D03*
D10*
X196953435Y-103203405D03*
D11*
X198223435Y-100663405D03*
D12*
X202033435Y-103203405D03*
D11*
X204573435Y-98123405D03*
D10*
X207113435Y-103203405D03*
X173140975Y-103203765D03*
D11*
X174410975Y-100663765D03*
D12*
X178220975Y-103203765D03*
D11*
X180760975Y-98123765D03*
D10*
X183300975Y-103203765D03*
D15*
X153570975Y-103203405D03*
D16*
X159170975Y-98703405D03*
D17*
X159170975Y-103203405D03*
D16*
X159170975Y-107703405D03*
D15*
X164770975Y-103203405D03*
D18*
X161670975Y-95703405D03*
X156670975Y-95703405D03*
X159170975Y-95703405D03*
X161670975Y-110203405D03*
X156670975Y-110203405D03*
D10*
X280297185Y-65103605D03*
D11*
X281567185Y-62563605D03*
D12*
X285377185Y-65103605D03*
D11*
X287917185Y-60023605D03*
D10*
X290457185Y-65103605D03*
D24*
X144795935Y-64978365D03*
D25*
X207147102Y-103033861D03*
D26*
X276695935Y-45678365D03*
X276695935Y-45678365D03*
D27*
X39945935Y-45678365D03*
X40495935Y-44328365D03*
X40495935Y-46978365D03*
X41845935Y-43778365D03*
D28*
X41845935Y-45678365D03*
D27*
X41845935Y-47578365D03*
X43095935Y-44328365D03*
X43095935Y-47028365D03*
X43745935Y-45678365D03*
X273545935Y-45678365D03*
X274045935Y-44428365D03*
X274045935Y-46928365D03*
X275295935Y-43928365D03*
X275295935Y-47428365D03*
X276695935Y-43928365D03*
D29*
X276695935Y-45678365D03*
D27*
X276695935Y-47428365D03*
X278095935Y-43928365D03*
X278095935Y-47428365D03*
X279345935Y-44428365D03*
X279345935Y-46928365D03*
X279845935Y-45678365D03*
D19*
X161170935Y-54587780D03*
D22*
X160670935Y-56387780D03*
D19*
X160170935Y-52687780D03*
D22*
X159670935Y-56387780D03*
X158670935Y-56387780D03*
D19*
X158170935Y-52687780D03*
D22*
X157670935Y-56387780D03*
D19*
X157170935Y-54587780D03*
D23*
X161970935Y-52512780D03*
X156370935Y-52512780D03*
D10*
X111228435Y-103203405D03*
D11*
X112498435Y-100663405D03*
D12*
X116308435Y-103203405D03*
D11*
X118848435Y-98123405D03*
D10*
X121388435Y-103203405D03*
D19*
X142702185Y-41672155D03*
D30*
X144502185Y-42172155D03*
D19*
X140802185Y-42672155D03*
D30*
X144502185Y-43172155D03*
X144502185Y-44172155D03*
D19*
X140802185Y-44672155D03*
D30*
X144502185Y-45172155D03*
D19*
X142702185Y-45672155D03*
D31*
X140627185Y-40872155D03*
X140627185Y-46472155D03*
D19*
X170695935Y-53397155D03*
D22*
X170195935Y-55197155D03*
D19*
X169695935Y-51497155D03*
D22*
X169195935Y-55197155D03*
X168195935Y-55197155D03*
D19*
X167695935Y-51497155D03*
D22*
X167195935Y-55197155D03*
D19*
X166695935Y-53397155D03*
D23*
X171495935Y-51322155D03*
X165895935Y-51322155D03*
D10*
X154090975Y-103203765D03*
D11*
X155360975Y-100663765D03*
D12*
X159170975Y-103203765D03*
D11*
X161710975Y-98123765D03*
D10*
X164250975Y-103203765D03*
D32*
X84000000Y-27000000D03*
D19*
X84000000Y-24460000D03*
D33*
X104402185Y-100822155D03*
X199652185Y-75819030D03*
X261564685Y-103203405D03*
X37727184Y-109078405D03*
X48600000Y-73400000D03*
X291595934Y-89378405D03*
X288495934Y-91578405D03*
D34*
X55730310Y-52090905D03*
D19*
X55730310Y-49550905D03*
X53190310Y-52090905D03*
X53190310Y-49550905D03*
X50650310Y-52090905D03*
X50650310Y-49550905D03*
D33*
X216300000Y-100700000D03*
X152027185Y-28194030D03*
X281805310Y-100822155D03*
X44870934Y-109156530D03*
X80400000Y-106600000D03*
X148455310Y-28194030D03*
X144883435Y-28194030D03*
X55586560Y-73437780D03*
D35*
X31955935Y-22128365D03*
X37735935Y-22128365D03*
D36*
X30525935Y-18478365D03*
D37*
X30525935Y-22658365D03*
D36*
X39165935Y-18478365D03*
D37*
X39165935Y-22658365D03*
D33*
X129405310Y-100822155D03*
X155599060Y-28194030D03*
D34*
X292558435Y-53197155D03*
D19*
X290018435Y-53197155D03*
X287478435Y-53197155D03*
D33*
X79695934Y-97578405D03*
D38*
X298474060Y-52006530D03*
X19872407Y-20561655D03*
X159170935Y-20561655D03*
X73445935Y-28194030D03*
X197270935Y-52053405D03*
X134167810Y-74628405D03*
X244895935Y-28194030D03*
X121070935Y-52006530D03*
X19867810Y-52006530D03*
X298474060Y-20561655D03*
X184174060Y-74628405D03*
M02*
