G04 #@! TF.GenerationSoftware,KiCad,Pcbnew,7.0.1-0*
G04 #@! TF.CreationDate,2023-05-14T12:19:21+09:00*
G04 #@! TF.ProjectId,Sandy_Base,53616e64-795f-4426-9173-652e6b696361,v.0*
G04 #@! TF.SameCoordinates,Original*
G04 #@! TF.FileFunction,Legend,Top*
G04 #@! TF.FilePolarity,Positive*
%FSLAX46Y46*%
G04 Gerber Fmt 4.6, Leading zero omitted, Abs format (unit mm)*
G04 Created by KiCad (PCBNEW 7.0.1-0) date 2023-05-14 12:19:21*
%MOMM*%
%LPD*%
G01*
G04 APERTURE LIST*
G04 Aperture macros list*
%AMRoundRect*
0 Rectangle with rounded corners*
0 $1 Rounding radius*
0 $2 $3 $4 $5 $6 $7 $8 $9 X,Y pos of 4 corners*
0 Add a 4 corners polygon primitive as box body*
4,1,4,$2,$3,$4,$5,$6,$7,$8,$9,$2,$3,0*
0 Add four circle primitives for the rounded corners*
1,1,$1+$1,$2,$3*
1,1,$1+$1,$4,$5*
1,1,$1+$1,$6,$7*
1,1,$1+$1,$8,$9*
0 Add four rect primitives between the rounded corners*
20,1,$1+$1,$2,$3,$4,$5,0*
20,1,$1+$1,$4,$5,$6,$7,0*
20,1,$1+$1,$6,$7,$8,$9,0*
20,1,$1+$1,$8,$9,$2,$3,0*%
G04 Aperture macros list end*
%ADD10C,0.200000*%
%ADD11C,0.600000*%
%ADD12C,0.150000*%
%ADD13C,0.330000*%
%ADD14C,0.120000*%
%ADD15C,2.150000*%
%ADD16C,3.400000*%
%ADD17C,4.387800*%
%ADD18C,2.600000*%
%ADD19O,1.900000X3.200000*%
%ADD20O,2.000000X2.300000*%
%ADD21C,2.500000*%
%ADD22O,2.000000X1.700000*%
%ADD23RoundRect,0.200000X0.715625X0.410000X-0.715625X0.410000X-0.715625X-0.410000X0.715625X-0.410000X0*%
%ADD24O,2.100000X2.100000*%
%ADD25RoundRect,0.350000X0.625000X-0.150000X0.625000X0.150000X-0.625000X0.150000X-0.625000X-0.150000X0*%
%ADD26RoundRect,0.450000X0.650000X-0.350000X0.650000X0.350000X-0.650000X0.350000X-0.650000X-0.350000X0*%
%ADD27RoundRect,0.350000X0.150000X0.625000X-0.150000X0.625000X-0.150000X-0.625000X0.150000X-0.625000X0*%
%ADD28RoundRect,0.450000X0.350000X0.650000X-0.350000X0.650000X-0.350000X-0.650000X0.350000X-0.650000X0*%
%ADD29RoundRect,0.200000X0.410000X-0.715625X0.410000X0.715625X-0.410000X0.715625X-0.410000X-0.715625X0*%
%ADD30O,9.400000X7.900000*%
%ADD31O,9.400000X6.400000*%
%ADD32C,1.400000*%
%ADD33C,5.200000*%
%ADD34O,7.800000X5.000000*%
%ADD35RoundRect,0.350000X-0.625000X0.150000X-0.625000X-0.150000X0.625000X-0.150000X0.625000X0.150000X0*%
%ADD36RoundRect,0.450000X-0.650000X0.350000X-0.650000X-0.350000X0.650000X-0.350000X0.650000X0.350000X0*%
%ADD37RoundRect,0.200000X-0.850000X-0.850000X0.850000X-0.850000X0.850000X0.850000X-0.850000X0.850000X0*%
%ADD38C,2.400000*%
%ADD39RoundRect,0.200000X0.850000X-0.850000X0.850000X0.850000X-0.850000X0.850000X-0.850000X-0.850000X0*%
%ADD40C,1.050000*%
%ADD41O,1.400000X2.000000*%
%ADD42O,1.400000X2.500000*%
%ADD43C,4.800000*%
G04 APERTURE END LIST*
D10*
X150534935Y-40465405D02*
X148756935Y-42751405D01*
X167425935Y-41735405D02*
X168949935Y-43767405D01*
D11*
X137202965Y-47683092D02*
X144318933Y-47683092D01*
D10*
X142787935Y-31420405D02*
X144819935Y-32690405D01*
X166917935Y-41735405D02*
X166917935Y-49736405D01*
X141517935Y-31166405D02*
X143803935Y-32690405D01*
X150280935Y-41735405D02*
X148756935Y-43767405D01*
D11*
X138988902Y-48873717D02*
X137202965Y-47683092D01*
D10*
X167425935Y-41735405D02*
X167425935Y-49736405D01*
X142787935Y-31420405D02*
X154979935Y-31420405D01*
X167171935Y-40465405D02*
X168949935Y-42751405D01*
X166917935Y-41735405D02*
X165393935Y-43767405D01*
D11*
X179113904Y-30226030D02*
X180899841Y-29035405D01*
X179113904Y-38512780D02*
X180899841Y-39703405D01*
D10*
X150534935Y-40465405D02*
X152312935Y-42751405D01*
X159297935Y-49733805D02*
X159297935Y-34976405D01*
X158789935Y-49733805D02*
X158789935Y-35230405D01*
X142787935Y-30912405D02*
X155233935Y-30912405D01*
X141517935Y-31166405D02*
X143803935Y-29642405D01*
X142787935Y-30912405D02*
X144819935Y-29642405D01*
X150788935Y-41735405D02*
X150788935Y-49736405D01*
X167171935Y-40465405D02*
X165393935Y-42751405D01*
X150788935Y-41735405D02*
X152312935Y-43767405D01*
D11*
X138988902Y-46492467D02*
X137202965Y-47683092D01*
X180899841Y-29035405D02*
X173458435Y-29035405D01*
X179113904Y-27844780D02*
X180899841Y-29035405D01*
D10*
X154979935Y-31420405D02*
X158789935Y-35230405D01*
D11*
X180899841Y-39703405D02*
X173458435Y-39703405D01*
X179113904Y-40894030D02*
X180899841Y-39703405D01*
D10*
X155233935Y-30912405D02*
X159297935Y-34976405D01*
X150280935Y-41735405D02*
X150280935Y-49736405D01*
G36*
X164040791Y-43330584D02*
G01*
X164040791Y-43511941D01*
X164001462Y-43590598D01*
X163967270Y-43624790D01*
X163888612Y-43664119D01*
X163592969Y-43664119D01*
X163514312Y-43624792D01*
X163480118Y-43590596D01*
X163440791Y-43511942D01*
X163440791Y-43330583D01*
X163459737Y-43292691D01*
X164021845Y-43292691D01*
X164040791Y-43330584D01*
G37*
G36*
X163967269Y-42189162D02*
G01*
X164001462Y-42223355D01*
X164040791Y-42302012D01*
X164040791Y-42426227D01*
X164001462Y-42504884D01*
X163967270Y-42539076D01*
X163888612Y-42578405D01*
X163592969Y-42578405D01*
X163514312Y-42539078D01*
X163480118Y-42504882D01*
X163440791Y-42426228D01*
X163440791Y-42302012D01*
X163480118Y-42223356D01*
X163514312Y-42189161D01*
X163592969Y-42149834D01*
X163888613Y-42149834D01*
X163967269Y-42189162D01*
G37*
G36*
X165217363Y-46651263D02*
G01*
X162574505Y-46651263D01*
X162574505Y-45493237D01*
X163237630Y-45493237D01*
X163240791Y-45500159D01*
X163240791Y-45835641D01*
X163253114Y-45877609D01*
X163297496Y-45916066D01*
X163355623Y-45924423D01*
X163409042Y-45900028D01*
X163440791Y-45850625D01*
X163440791Y-45578405D01*
X164525554Y-45578405D01*
X164539040Y-45582612D01*
X164554312Y-45578405D01*
X164555170Y-45578405D01*
X164568176Y-45574585D01*
X164595657Y-45567016D01*
X164596264Y-45566338D01*
X164597138Y-45566082D01*
X164615834Y-45544505D01*
X164634853Y-45523287D01*
X164634997Y-45522389D01*
X164635595Y-45521700D01*
X164639657Y-45493443D01*
X164644187Y-45465308D01*
X164643822Y-45464473D01*
X164643952Y-45463573D01*
X164632097Y-45437614D01*
X164620692Y-45411488D01*
X164619936Y-45410984D01*
X164619557Y-45410154D01*
X164595518Y-45394705D01*
X164433069Y-45286405D01*
X164337261Y-45190598D01*
X164280947Y-45077966D01*
X164251156Y-45045940D01*
X164194261Y-45031391D01*
X164138533Y-45049911D01*
X164101664Y-45095620D01*
X164095360Y-45154006D01*
X164160026Y-45283342D01*
X164163603Y-45299782D01*
X164183071Y-45319250D01*
X164201854Y-45339442D01*
X164203747Y-45339926D01*
X164242227Y-45378405D01*
X163440791Y-45378405D01*
X163440791Y-45121169D01*
X163428468Y-45079201D01*
X163384086Y-45040744D01*
X163325959Y-45032387D01*
X163272540Y-45056782D01*
X163240791Y-45106185D01*
X163240791Y-45471251D01*
X163237630Y-45493237D01*
X162574505Y-45493237D01*
X162574505Y-43207523D01*
X162837630Y-43207523D01*
X162862025Y-43260942D01*
X162911428Y-43292691D01*
X163240791Y-43292691D01*
X163240791Y-43298050D01*
X163237171Y-43318165D01*
X163240791Y-43326893D01*
X163240791Y-43530163D01*
X163238217Y-43554006D01*
X163247355Y-43572282D01*
X163253114Y-43591895D01*
X163260255Y-43598082D01*
X163302883Y-43683339D01*
X163306460Y-43699781D01*
X163325937Y-43719259D01*
X163344713Y-43739443D01*
X163346604Y-43739926D01*
X163375499Y-43768821D01*
X163384092Y-43783289D01*
X163408733Y-43795609D01*
X163432922Y-43808817D01*
X163434870Y-43808677D01*
X163519822Y-43851152D01*
X163539999Y-43864119D01*
X163560435Y-43864119D01*
X163580551Y-43867739D01*
X163589279Y-43864119D01*
X163906837Y-43864119D01*
X163930677Y-43866693D01*
X163948954Y-43857554D01*
X163968566Y-43851796D01*
X163974753Y-43844655D01*
X164060013Y-43802026D01*
X164076453Y-43798450D01*
X164095923Y-43778979D01*
X164116113Y-43760199D01*
X164116597Y-43758305D01*
X164145492Y-43729410D01*
X164159959Y-43720818D01*
X164172276Y-43696183D01*
X164185488Y-43671988D01*
X164185348Y-43670038D01*
X164227823Y-43585089D01*
X164240791Y-43564911D01*
X164240791Y-43544475D01*
X164244411Y-43524360D01*
X164240791Y-43515632D01*
X164240791Y-43312362D01*
X164243365Y-43288519D01*
X164234226Y-43270242D01*
X164228468Y-43250630D01*
X164225291Y-43247877D01*
X164235595Y-43235986D01*
X164243952Y-43177859D01*
X164219557Y-43124440D01*
X164170154Y-43092691D01*
X164096232Y-43092691D01*
X164079975Y-43088534D01*
X164067466Y-43092691D01*
X163399716Y-43092691D01*
X163372114Y-43091717D01*
X163370474Y-43092691D01*
X162926412Y-43092691D01*
X162884444Y-43105014D01*
X162845987Y-43149396D01*
X162837630Y-43207523D01*
X162574505Y-43207523D01*
X162574505Y-42289593D01*
X163237171Y-42289593D01*
X163240791Y-42298321D01*
X163240791Y-42444449D01*
X163238217Y-42468292D01*
X163247355Y-42486568D01*
X163253114Y-42506181D01*
X163260255Y-42512368D01*
X163302883Y-42597625D01*
X163306460Y-42614067D01*
X163325937Y-42633545D01*
X163344713Y-42653729D01*
X163346604Y-42654212D01*
X163375499Y-42683107D01*
X163384092Y-42697575D01*
X163408733Y-42709895D01*
X163432922Y-42723103D01*
X163434870Y-42722963D01*
X163519822Y-42765438D01*
X163539999Y-42778405D01*
X163560435Y-42778405D01*
X163580551Y-42782025D01*
X163589279Y-42778405D01*
X163906837Y-42778405D01*
X163930677Y-42780979D01*
X163948954Y-42771840D01*
X163968566Y-42766082D01*
X163974753Y-42758941D01*
X164060013Y-42716312D01*
X164076453Y-42712736D01*
X164095923Y-42693265D01*
X164116113Y-42674485D01*
X164116597Y-42672591D01*
X164145492Y-42643696D01*
X164159959Y-42635104D01*
X164172276Y-42610469D01*
X164185488Y-42586274D01*
X164185348Y-42584324D01*
X164227823Y-42499375D01*
X164240791Y-42479197D01*
X164240791Y-42458761D01*
X164244411Y-42438646D01*
X164240791Y-42429918D01*
X164240791Y-42283790D01*
X164243365Y-42259947D01*
X164234226Y-42241670D01*
X164228468Y-42222058D01*
X164221326Y-42215869D01*
X164178697Y-42130611D01*
X164175121Y-42114172D01*
X164155649Y-42094700D01*
X164136869Y-42074511D01*
X164134975Y-42074026D01*
X164106083Y-42045134D01*
X164097490Y-42030666D01*
X164072845Y-42018343D01*
X164048659Y-42005137D01*
X164046710Y-42005276D01*
X163961759Y-41962801D01*
X163941582Y-41949834D01*
X163921146Y-41949834D01*
X163901031Y-41946214D01*
X163892303Y-41949834D01*
X163574747Y-41949834D01*
X163550904Y-41947260D01*
X163532627Y-41956398D01*
X163513015Y-41962157D01*
X163506826Y-41969298D01*
X163421570Y-42011926D01*
X163405128Y-42015504D01*
X163385657Y-42034975D01*
X163365467Y-42053755D01*
X163364982Y-42055650D01*
X163336091Y-42084541D01*
X163321623Y-42093135D01*
X163309303Y-42117773D01*
X163296093Y-42141967D01*
X163296232Y-42143915D01*
X163253756Y-42228866D01*
X163240791Y-42249042D01*
X163240791Y-42269477D01*
X163237171Y-42289593D01*
X162574505Y-42289593D01*
X162574505Y-41378951D01*
X163237630Y-41378951D01*
X163262025Y-41432370D01*
X163311428Y-41464119D01*
X164440791Y-41464119D01*
X164440791Y-41721356D01*
X164453114Y-41763324D01*
X164497496Y-41801781D01*
X164555623Y-41810138D01*
X164609042Y-41785743D01*
X164640791Y-41736340D01*
X164640791Y-41371273D01*
X164643952Y-41349287D01*
X164640791Y-41342365D01*
X164640791Y-41006883D01*
X164628468Y-40964915D01*
X164584086Y-40926458D01*
X164525959Y-40918101D01*
X164472540Y-40942496D01*
X164440791Y-40991899D01*
X164440791Y-41264119D01*
X163326412Y-41264119D01*
X163284444Y-41276442D01*
X163245987Y-41320824D01*
X163237630Y-41378951D01*
X162574505Y-41378951D01*
X162574505Y-40305548D01*
X165217363Y-40305548D01*
X165217363Y-46651263D01*
G37*
G36*
X175595935Y-37652493D02*
G01*
X175595935Y-38214601D01*
X175558042Y-38233547D01*
X175376684Y-38233547D01*
X175298027Y-38194219D01*
X175263834Y-38160026D01*
X175224506Y-38081370D01*
X175224506Y-37785725D01*
X175263834Y-37707069D01*
X175298027Y-37672875D01*
X175376684Y-37633547D01*
X175558043Y-37633547D01*
X175595935Y-37652493D01*
G37*
G36*
X178640221Y-39099834D02*
G01*
X172351648Y-39099834D01*
X172351648Y-37149227D01*
X173135755Y-37149227D01*
X173138791Y-37155733D01*
X173138791Y-38347926D01*
X173151114Y-38389894D01*
X173195496Y-38428351D01*
X173253623Y-38436708D01*
X173307042Y-38412313D01*
X173338791Y-38362910D01*
X173338791Y-37584304D01*
X173547832Y-38032249D01*
X173559467Y-38058291D01*
X173572706Y-38066954D01*
X173583168Y-38078828D01*
X173596771Y-38082701D01*
X173608606Y-38090445D01*
X173624428Y-38090575D01*
X173639649Y-38094909D01*
X173653187Y-38090812D01*
X173667330Y-38090929D01*
X173680711Y-38082483D01*
X173695857Y-38077901D01*
X173705031Y-38067135D01*
X173716992Y-38059587D01*
X173723682Y-38045249D01*
X173733948Y-38033204D01*
X173735845Y-38019185D01*
X173938791Y-37584303D01*
X173938791Y-38347926D01*
X173951114Y-38389894D01*
X173995496Y-38428351D01*
X174053623Y-38436708D01*
X174107042Y-38412313D01*
X174138791Y-38362910D01*
X174138791Y-38347926D01*
X174510220Y-38347926D01*
X174522543Y-38389894D01*
X174566925Y-38428351D01*
X174625052Y-38436708D01*
X174678471Y-38412313D01*
X174710220Y-38362910D01*
X174710220Y-37773307D01*
X175020886Y-37773307D01*
X175024506Y-37782035D01*
X175024506Y-38099591D01*
X175021932Y-38123434D01*
X175031070Y-38141710D01*
X175036829Y-38161323D01*
X175043970Y-38167510D01*
X175086599Y-38252769D01*
X175090176Y-38269210D01*
X175109647Y-38288681D01*
X175128428Y-38308871D01*
X175130321Y-38309355D01*
X175159215Y-38338249D01*
X175167808Y-38352716D01*
X175192440Y-38365032D01*
X175216638Y-38378245D01*
X175218587Y-38378105D01*
X175303536Y-38420579D01*
X175323714Y-38433547D01*
X175344150Y-38433547D01*
X175364265Y-38437167D01*
X175372993Y-38433547D01*
X175576267Y-38433547D01*
X175600107Y-38436121D01*
X175618384Y-38426982D01*
X175637996Y-38421224D01*
X175640748Y-38418047D01*
X175652640Y-38428351D01*
X175710767Y-38436708D01*
X175764186Y-38412313D01*
X175795935Y-38362910D01*
X175795935Y-38348379D01*
X176964202Y-38348379D01*
X176968904Y-38358676D01*
X176969712Y-38369969D01*
X176980865Y-38384868D01*
X176988597Y-38401798D01*
X176998120Y-38407918D01*
X177004905Y-38416981D01*
X177022343Y-38423485D01*
X177038000Y-38433547D01*
X177049319Y-38433547D01*
X177059928Y-38437504D01*
X177078116Y-38433547D01*
X177824599Y-38433547D01*
X177866567Y-38421224D01*
X177905024Y-38376842D01*
X177913381Y-38318715D01*
X177888986Y-38265296D01*
X177839583Y-38233547D01*
X177308784Y-38233547D01*
X177819977Y-37722353D01*
X177838660Y-37707312D01*
X177845122Y-37687923D01*
X177854917Y-37669987D01*
X177854243Y-37660562D01*
X177901122Y-37519923D01*
X177910220Y-37505768D01*
X177910220Y-37478213D01*
X177911216Y-37450676D01*
X177910220Y-37448996D01*
X177910220Y-37367504D01*
X177912794Y-37343661D01*
X177903655Y-37325384D01*
X177897897Y-37305772D01*
X177890755Y-37299583D01*
X177848127Y-37214328D01*
X177844551Y-37197886D01*
X177825069Y-37178404D01*
X177806299Y-37158224D01*
X177804405Y-37157739D01*
X177775512Y-37128846D01*
X177766920Y-37114379D01*
X177742287Y-37102062D01*
X177718090Y-37088850D01*
X177716140Y-37088989D01*
X177631189Y-37046514D01*
X177611012Y-37033547D01*
X177590576Y-37033547D01*
X177570461Y-37029927D01*
X177561733Y-37033547D01*
X177301320Y-37033547D01*
X177277477Y-37030973D01*
X177259200Y-37040111D01*
X177239588Y-37045870D01*
X177233399Y-37053011D01*
X177148142Y-37095640D01*
X177131701Y-37099217D01*
X177112226Y-37118691D01*
X177092040Y-37137468D01*
X177091555Y-37139362D01*
X177043628Y-37187290D01*
X177022666Y-37225679D01*
X177026855Y-37284255D01*
X177062048Y-37331267D01*
X177117071Y-37351790D01*
X177174454Y-37339306D01*
X177240884Y-37272875D01*
X177319542Y-37233547D01*
X177558043Y-37233547D01*
X177636697Y-37272874D01*
X177670892Y-37307069D01*
X177710220Y-37385726D01*
X177710220Y-37460177D01*
X177665674Y-37593815D01*
X177014701Y-38244787D01*
X177011016Y-38245870D01*
X176994120Y-38265368D01*
X176986485Y-38273004D01*
X176984748Y-38276185D01*
X176972559Y-38290252D01*
X176970947Y-38301458D01*
X176965523Y-38311393D01*
X176966850Y-38329956D01*
X176964202Y-38348379D01*
X175795935Y-38348379D01*
X175795935Y-38288988D01*
X175800092Y-38272732D01*
X175795935Y-38260224D01*
X175795935Y-37592472D01*
X175796909Y-37564870D01*
X175795935Y-37563230D01*
X175795935Y-37119168D01*
X175783612Y-37077200D01*
X175739230Y-37038743D01*
X175681103Y-37030386D01*
X175627684Y-37054781D01*
X175595935Y-37104184D01*
X175595935Y-37433547D01*
X175590576Y-37433547D01*
X175570461Y-37429927D01*
X175561733Y-37433547D01*
X175358462Y-37433547D01*
X175334619Y-37430973D01*
X175316342Y-37440111D01*
X175296730Y-37445870D01*
X175290541Y-37453011D01*
X175205283Y-37495640D01*
X175188844Y-37499217D01*
X175169372Y-37518688D01*
X175149183Y-37537469D01*
X175148698Y-37539362D01*
X175119806Y-37568254D01*
X175105338Y-37576848D01*
X175093015Y-37601492D01*
X175079809Y-37625679D01*
X175079948Y-37627627D01*
X175037473Y-37712578D01*
X175024506Y-37732756D01*
X175024506Y-37753192D01*
X175020886Y-37773307D01*
X174710220Y-37773307D01*
X174710220Y-37519168D01*
X174697897Y-37477200D01*
X174653515Y-37438743D01*
X174595388Y-37430386D01*
X174541969Y-37454781D01*
X174510220Y-37504184D01*
X174510220Y-38347926D01*
X174138791Y-38347926D01*
X174138791Y-37183255D01*
X174449120Y-37183255D01*
X174453841Y-37204958D01*
X174455426Y-37227112D01*
X174459986Y-37233204D01*
X174461604Y-37240638D01*
X174477305Y-37256339D01*
X174490619Y-37274124D01*
X174497749Y-37276783D01*
X174521460Y-37300494D01*
X174522543Y-37304180D01*
X174536608Y-37316367D01*
X174547762Y-37331267D01*
X174558369Y-37335223D01*
X174566925Y-37342637D01*
X174578131Y-37344248D01*
X174588066Y-37349673D01*
X174595654Y-37349130D01*
X174602785Y-37351790D01*
X174613847Y-37349383D01*
X174625052Y-37350994D01*
X174635351Y-37346290D01*
X174646642Y-37345483D01*
X174652732Y-37340923D01*
X174660168Y-37339306D01*
X174668171Y-37331302D01*
X174678471Y-37326599D01*
X174684592Y-37317073D01*
X174693653Y-37310291D01*
X174696312Y-37303161D01*
X174733016Y-37266457D01*
X174750796Y-37253148D01*
X174758556Y-37232341D01*
X174769203Y-37212844D01*
X174768660Y-37205253D01*
X174771319Y-37198125D01*
X174766597Y-37176421D01*
X174765013Y-37154268D01*
X174760453Y-37148177D01*
X174758836Y-37140742D01*
X174743130Y-37125036D01*
X174729821Y-37107257D01*
X174722691Y-37104597D01*
X174698979Y-37080885D01*
X174697897Y-37077200D01*
X174683829Y-37065010D01*
X174672678Y-37050114D01*
X174662072Y-37046158D01*
X174653515Y-37038743D01*
X174642308Y-37037131D01*
X174632374Y-37031707D01*
X174624783Y-37032249D01*
X174617655Y-37029591D01*
X174606594Y-37031997D01*
X174595388Y-37030386D01*
X174585090Y-37035088D01*
X174573798Y-37035896D01*
X174567705Y-37040456D01*
X174560272Y-37042074D01*
X174552268Y-37050077D01*
X174541969Y-37054781D01*
X174535848Y-37064304D01*
X174526786Y-37071089D01*
X174524126Y-37078219D01*
X174487427Y-37114918D01*
X174469643Y-37128232D01*
X174461880Y-37149044D01*
X174451237Y-37168536D01*
X174451779Y-37176124D01*
X174449120Y-37183255D01*
X174138791Y-37183255D01*
X174138791Y-37141115D01*
X174142071Y-37119563D01*
X174132840Y-37098903D01*
X174126468Y-37077200D01*
X174121044Y-37072500D01*
X174118116Y-37065946D01*
X174099182Y-37053557D01*
X174082086Y-37038743D01*
X174074981Y-37037721D01*
X174068976Y-37033792D01*
X174046352Y-37033605D01*
X174023959Y-37030386D01*
X174017430Y-37033367D01*
X174010252Y-37033308D01*
X173991117Y-37045383D01*
X173970540Y-37054781D01*
X173966659Y-37060819D01*
X173960590Y-37064650D01*
X173951023Y-37085149D01*
X173938791Y-37104184D01*
X173938791Y-37111362D01*
X173638791Y-37754218D01*
X173332608Y-37098112D01*
X173326468Y-37077200D01*
X173309371Y-37062385D01*
X173294414Y-37045409D01*
X173287510Y-37043443D01*
X173282086Y-37038743D01*
X173259693Y-37035523D01*
X173237933Y-37029328D01*
X173231061Y-37031407D01*
X173223959Y-37030386D01*
X173203383Y-37039782D01*
X173181725Y-37046336D01*
X173177069Y-37051799D01*
X173170540Y-37054781D01*
X173158309Y-37073812D01*
X173143634Y-37091033D01*
X173142670Y-37098146D01*
X173138791Y-37104184D01*
X173138791Y-37126803D01*
X173135755Y-37149227D01*
X172351648Y-37149227D01*
X172351648Y-36456976D01*
X178640221Y-36456976D01*
X178640221Y-39099834D01*
G37*
G36*
X158493836Y-31471448D02*
G01*
X158622076Y-31599688D01*
X158649886Y-31683116D01*
X158649886Y-31731474D01*
X158622077Y-31814901D01*
X158413026Y-32023952D01*
X158329598Y-32051762D01*
X158281241Y-32051762D01*
X158197813Y-32023953D01*
X158069573Y-31895714D01*
X158056176Y-31855522D01*
X158453646Y-31458052D01*
X158493836Y-31471448D01*
G37*
G36*
X157766528Y-30744140D02*
G01*
X157854360Y-30831972D01*
X157882171Y-30915401D01*
X157882171Y-30963757D01*
X157854361Y-31047185D01*
X157645310Y-31256237D01*
X157561883Y-31284047D01*
X157513525Y-31284047D01*
X157430097Y-31256238D01*
X157342264Y-31168403D01*
X157314455Y-31084977D01*
X157314455Y-31036619D01*
X157342263Y-30953191D01*
X157551314Y-30744140D01*
X157634743Y-30716331D01*
X157683100Y-30716331D01*
X157766528Y-30744140D01*
G37*
G36*
X161673875Y-32987563D02*
G01*
X159805092Y-34856346D01*
X158154834Y-33206088D01*
X159211418Y-33206088D01*
X159220131Y-33232228D01*
X159227895Y-33258668D01*
X159229371Y-33259947D01*
X159259404Y-33350046D01*
X159264504Y-33373487D01*
X159278957Y-33387940D01*
X159290619Y-33404720D01*
X159299348Y-33408331D01*
X159523892Y-33632875D01*
X159538935Y-33651559D01*
X159558322Y-33658021D01*
X159576260Y-33667816D01*
X159585684Y-33667141D01*
X159676113Y-33697284D01*
X159690270Y-33706382D01*
X159717826Y-33706382D01*
X159745363Y-33707378D01*
X159747043Y-33706382D01*
X159787905Y-33706382D01*
X159804212Y-33710536D01*
X159830352Y-33701822D01*
X159856792Y-33694059D01*
X159858071Y-33692582D01*
X159948175Y-33662547D01*
X159971611Y-33657449D01*
X159986060Y-33642999D01*
X160002844Y-33631335D01*
X160006455Y-33622604D01*
X160190593Y-33438466D01*
X160209277Y-33423424D01*
X160215739Y-33404036D01*
X160225534Y-33386099D01*
X160224860Y-33376674D01*
X160255002Y-33286245D01*
X160264100Y-33272090D01*
X160264100Y-33244535D01*
X160265096Y-33216997D01*
X160264100Y-33215317D01*
X160264100Y-33174455D01*
X160268254Y-33158148D01*
X160259540Y-33132007D01*
X160251777Y-33105568D01*
X160250300Y-33104288D01*
X160220266Y-33014188D01*
X160218335Y-33005309D01*
X160586181Y-32980786D01*
X160586414Y-32980913D01*
X160615646Y-32978821D01*
X160629566Y-32977894D01*
X160629794Y-32977809D01*
X160644990Y-32976723D01*
X160656789Y-32967889D01*
X160670621Y-32962807D01*
X160679807Y-32950658D01*
X160692001Y-32941530D01*
X160697151Y-32927720D01*
X160706041Y-32915965D01*
X160707200Y-32900778D01*
X160712524Y-32886507D01*
X160709390Y-32872104D01*
X160710513Y-32857411D01*
X160703279Y-32844009D01*
X160700041Y-32829124D01*
X160689617Y-32818700D01*
X160682618Y-32805733D01*
X160669286Y-32798369D01*
X160143831Y-32272915D01*
X160105442Y-32251953D01*
X160046866Y-32256142D01*
X159999854Y-32291335D01*
X159979331Y-32346358D01*
X159991815Y-32403741D01*
X160382026Y-32793952D01*
X160024859Y-32817763D01*
X160024629Y-32817638D01*
X159995513Y-32819720D01*
X159981476Y-32820656D01*
X159981246Y-32820740D01*
X159966053Y-32821827D01*
X159954254Y-32830659D01*
X159940421Y-32835743D01*
X159931234Y-32847892D01*
X159919041Y-32857020D01*
X159913890Y-32870829D01*
X159905001Y-32882585D01*
X159903841Y-32897771D01*
X159898518Y-32912043D01*
X159901651Y-32926445D01*
X159900529Y-32941139D01*
X159907764Y-32954543D01*
X159911002Y-32969426D01*
X159921421Y-32979845D01*
X159928423Y-32992817D01*
X159941758Y-33000182D01*
X160036290Y-33094714D01*
X160064100Y-33178142D01*
X160064100Y-33226499D01*
X160036290Y-33309927D01*
X159867645Y-33478572D01*
X159784218Y-33506382D01*
X159735860Y-33506382D01*
X159652433Y-33478573D01*
X159443381Y-33269521D01*
X159415572Y-33186094D01*
X159415572Y-33107130D01*
X159403249Y-33065162D01*
X159358867Y-33026705D01*
X159300740Y-33018348D01*
X159247321Y-33042743D01*
X159215572Y-33092146D01*
X159215572Y-33189781D01*
X159211418Y-33206088D01*
X158154834Y-33206088D01*
X157078354Y-32129608D01*
X157516675Y-32129608D01*
X157520864Y-32188184D01*
X157556057Y-32235196D01*
X157611080Y-32255719D01*
X157668463Y-32243235D01*
X157901357Y-32010340D01*
X157905146Y-32014129D01*
X157916811Y-32030913D01*
X157925541Y-32034524D01*
X158069277Y-32178260D01*
X158084316Y-32196939D01*
X158103700Y-32203400D01*
X158121642Y-32213197D01*
X158131067Y-32212522D01*
X158221494Y-32242664D01*
X158235650Y-32251762D01*
X158263205Y-32251762D01*
X158290743Y-32252758D01*
X158292423Y-32251762D01*
X158333286Y-32251762D01*
X158349591Y-32255916D01*
X158375726Y-32247204D01*
X158402172Y-32239439D01*
X158403451Y-32237962D01*
X158493556Y-32207927D01*
X158516992Y-32202829D01*
X158531441Y-32188379D01*
X158548225Y-32176715D01*
X158551836Y-32167984D01*
X158776379Y-31943441D01*
X158795063Y-31928399D01*
X158801525Y-31909011D01*
X158811320Y-31891074D01*
X158810645Y-31881649D01*
X158840788Y-31791220D01*
X158849886Y-31777064D01*
X158849886Y-31749508D01*
X158850882Y-31721971D01*
X158849886Y-31720291D01*
X158849886Y-31679429D01*
X158854040Y-31663122D01*
X158845326Y-31636981D01*
X158837563Y-31610542D01*
X158836086Y-31609262D01*
X158806052Y-31519161D01*
X158800954Y-31495724D01*
X158786502Y-31481272D01*
X158774839Y-31464490D01*
X158766108Y-31460878D01*
X158622378Y-31317147D01*
X158607335Y-31298463D01*
X158587947Y-31292000D01*
X158570010Y-31282206D01*
X158565817Y-31282505D01*
X158564695Y-31266811D01*
X158529502Y-31219800D01*
X158474480Y-31199277D01*
X158417096Y-31211760D01*
X158364826Y-31264029D01*
X158350389Y-31272587D01*
X158344482Y-31284373D01*
X157872297Y-31756558D01*
X157852107Y-31775373D01*
X157851636Y-31777219D01*
X157537637Y-32091219D01*
X157516675Y-32129608D01*
X157078354Y-32129608D01*
X156053717Y-31104971D01*
X157110301Y-31104971D01*
X157119014Y-31131111D01*
X157126778Y-31157551D01*
X157128254Y-31158830D01*
X157158288Y-31248930D01*
X157163387Y-31272370D01*
X157177840Y-31286823D01*
X157189502Y-31303603D01*
X157198231Y-31307214D01*
X157301557Y-31410540D01*
X157316600Y-31429224D01*
X157335987Y-31435686D01*
X157353925Y-31445481D01*
X157363349Y-31444807D01*
X157453778Y-31474949D01*
X157467934Y-31484047D01*
X157495489Y-31484047D01*
X157523027Y-31485043D01*
X157524707Y-31484047D01*
X157565570Y-31484047D01*
X157581877Y-31488201D01*
X157608017Y-31479487D01*
X157634457Y-31471724D01*
X157635736Y-31470247D01*
X157725840Y-31440212D01*
X157749276Y-31435114D01*
X157763725Y-31420664D01*
X157780509Y-31409000D01*
X157784120Y-31400268D01*
X158008664Y-31175724D01*
X158027346Y-31160684D01*
X158033808Y-31141295D01*
X158043604Y-31123357D01*
X158042930Y-31113933D01*
X158073073Y-31023504D01*
X158082171Y-31009349D01*
X158082171Y-30981795D01*
X158083167Y-30954257D01*
X158082171Y-30952577D01*
X158082171Y-30911712D01*
X158086325Y-30895405D01*
X158077610Y-30869261D01*
X158069848Y-30842826D01*
X158068371Y-30841546D01*
X158038334Y-30751438D01*
X158033237Y-30728007D01*
X158018789Y-30713559D01*
X158007123Y-30696773D01*
X157998390Y-30693160D01*
X157895067Y-30589837D01*
X157880025Y-30571154D01*
X157860637Y-30564691D01*
X157842700Y-30554897D01*
X157833275Y-30555570D01*
X157742846Y-30525428D01*
X157728691Y-30516331D01*
X157701136Y-30516331D01*
X157673598Y-30515335D01*
X157671918Y-30516331D01*
X157631055Y-30516331D01*
X157614750Y-30512177D01*
X157588614Y-30520888D01*
X157562169Y-30528654D01*
X157560889Y-30530130D01*
X157470784Y-30560165D01*
X157447349Y-30565264D01*
X157432899Y-30579713D01*
X157416116Y-30591378D01*
X157412504Y-30600108D01*
X157187961Y-30824651D01*
X157169278Y-30839694D01*
X157162815Y-30859081D01*
X157153021Y-30877019D01*
X157153695Y-30886443D01*
X157123552Y-30976872D01*
X157114455Y-30991029D01*
X157114455Y-31018585D01*
X157113459Y-31046122D01*
X157114455Y-31047802D01*
X157114455Y-31088664D01*
X157110301Y-31104971D01*
X156053717Y-31104971D01*
X155502516Y-30553770D01*
X156506523Y-30553770D01*
X156510712Y-30612346D01*
X156545905Y-30659358D01*
X156600928Y-30679881D01*
X156658311Y-30667397D01*
X157456890Y-29868817D01*
X157638785Y-30050711D01*
X157677175Y-30071674D01*
X157735751Y-30067484D01*
X157782762Y-30032291D01*
X157803285Y-29977268D01*
X157790802Y-29919885D01*
X157532663Y-29661747D01*
X157519349Y-29643962D01*
X157512218Y-29641302D01*
X157274997Y-29404082D01*
X157236608Y-29383120D01*
X157178032Y-29387309D01*
X157131020Y-29422502D01*
X157110497Y-29477525D01*
X157122981Y-29534908D01*
X157315469Y-29727395D01*
X156527485Y-30515381D01*
X156506523Y-30553770D01*
X155502516Y-30553770D01*
X155317994Y-30369248D01*
X157186777Y-28500465D01*
X161673875Y-32987563D01*
G37*
G36*
X154040791Y-43330584D02*
G01*
X154040791Y-43511941D01*
X154001462Y-43590598D01*
X153967270Y-43624790D01*
X153888612Y-43664119D01*
X153592969Y-43664119D01*
X153514312Y-43624792D01*
X153480118Y-43590596D01*
X153440791Y-43511942D01*
X153440791Y-43330583D01*
X153459737Y-43292691D01*
X154021845Y-43292691D01*
X154040791Y-43330584D01*
G37*
G36*
X153967269Y-42189162D02*
G01*
X154001462Y-42223355D01*
X154040791Y-42302012D01*
X154040791Y-42426227D01*
X154001462Y-42504884D01*
X153967270Y-42539076D01*
X153888612Y-42578405D01*
X153592969Y-42578405D01*
X153514312Y-42539078D01*
X153480118Y-42504882D01*
X153440791Y-42426228D01*
X153440791Y-42302012D01*
X153480118Y-42223356D01*
X153514312Y-42189161D01*
X153592969Y-42149834D01*
X153888613Y-42149834D01*
X153967269Y-42189162D01*
G37*
G36*
X155217363Y-46651263D02*
G01*
X152574505Y-46651263D01*
X152574505Y-45070970D01*
X153236834Y-45070970D01*
X153240791Y-45089158D01*
X153240791Y-45835641D01*
X153253114Y-45877609D01*
X153297496Y-45916066D01*
X153355623Y-45924423D01*
X153409042Y-45900028D01*
X153440791Y-45850625D01*
X153440791Y-45319826D01*
X153951983Y-45831018D01*
X153967026Y-45849702D01*
X153986413Y-45856164D01*
X154004351Y-45865959D01*
X154013775Y-45865285D01*
X154154415Y-45912164D01*
X154168571Y-45921262D01*
X154196126Y-45921262D01*
X154223664Y-45922258D01*
X154225344Y-45921262D01*
X154306834Y-45921262D01*
X154330677Y-45923836D01*
X154348953Y-45914697D01*
X154368566Y-45908939D01*
X154374753Y-45901797D01*
X154460010Y-45859169D01*
X154476452Y-45855593D01*
X154495930Y-45836115D01*
X154516114Y-45817340D01*
X154516597Y-45815448D01*
X154545494Y-45786552D01*
X154559959Y-45777961D01*
X154572272Y-45753333D01*
X154585488Y-45729131D01*
X154585348Y-45727181D01*
X154627823Y-45642232D01*
X154640791Y-45622054D01*
X154640791Y-45601618D01*
X154644411Y-45581503D01*
X154640791Y-45572775D01*
X154640791Y-45312362D01*
X154643365Y-45288519D01*
X154634226Y-45270242D01*
X154628468Y-45250630D01*
X154621326Y-45244441D01*
X154578697Y-45159184D01*
X154575121Y-45142743D01*
X154555646Y-45123268D01*
X154536870Y-45103082D01*
X154534975Y-45102597D01*
X154487048Y-45054670D01*
X154448659Y-45033708D01*
X154390083Y-45037897D01*
X154343071Y-45073090D01*
X154322548Y-45128113D01*
X154335032Y-45185496D01*
X154401462Y-45251926D01*
X154440791Y-45330584D01*
X154440791Y-45569084D01*
X154401463Y-45647739D01*
X154367267Y-45681934D01*
X154288613Y-45721262D01*
X154214162Y-45721262D01*
X154080522Y-45676715D01*
X153429550Y-45025743D01*
X153428468Y-45022058D01*
X153408969Y-45005162D01*
X153401334Y-44997527D01*
X153398152Y-44995790D01*
X153384086Y-44983601D01*
X153372879Y-44981989D01*
X153362945Y-44976565D01*
X153344381Y-44977892D01*
X153325959Y-44975244D01*
X153315661Y-44979946D01*
X153304369Y-44980754D01*
X153289469Y-44991907D01*
X153272540Y-44999639D01*
X153266419Y-45009162D01*
X153257357Y-45015947D01*
X153250852Y-45033385D01*
X153240791Y-45049042D01*
X153240791Y-45060361D01*
X153236834Y-45070970D01*
X152574505Y-45070970D01*
X152574505Y-43207523D01*
X152837630Y-43207523D01*
X152862025Y-43260942D01*
X152911428Y-43292691D01*
X153240791Y-43292691D01*
X153240791Y-43298050D01*
X153237171Y-43318165D01*
X153240791Y-43326893D01*
X153240791Y-43530163D01*
X153238217Y-43554006D01*
X153247355Y-43572282D01*
X153253114Y-43591895D01*
X153260255Y-43598082D01*
X153302883Y-43683339D01*
X153306460Y-43699781D01*
X153325937Y-43719259D01*
X153344713Y-43739443D01*
X153346604Y-43739926D01*
X153375499Y-43768821D01*
X153384092Y-43783289D01*
X153408733Y-43795609D01*
X153432922Y-43808817D01*
X153434870Y-43808677D01*
X153519822Y-43851152D01*
X153539999Y-43864119D01*
X153560435Y-43864119D01*
X153580551Y-43867739D01*
X153589279Y-43864119D01*
X153906837Y-43864119D01*
X153930677Y-43866693D01*
X153948954Y-43857554D01*
X153968566Y-43851796D01*
X153974753Y-43844655D01*
X154060013Y-43802026D01*
X154076453Y-43798450D01*
X154095923Y-43778979D01*
X154116113Y-43760199D01*
X154116597Y-43758305D01*
X154145492Y-43729410D01*
X154159959Y-43720818D01*
X154172276Y-43696183D01*
X154185488Y-43671988D01*
X154185348Y-43670038D01*
X154227823Y-43585089D01*
X154240791Y-43564911D01*
X154240791Y-43544475D01*
X154244411Y-43524360D01*
X154240791Y-43515632D01*
X154240791Y-43312362D01*
X154243365Y-43288519D01*
X154234226Y-43270242D01*
X154228468Y-43250630D01*
X154225291Y-43247877D01*
X154235595Y-43235986D01*
X154243952Y-43177859D01*
X154219557Y-43124440D01*
X154170154Y-43092691D01*
X154096232Y-43092691D01*
X154079975Y-43088534D01*
X154067466Y-43092691D01*
X153399716Y-43092691D01*
X153372114Y-43091717D01*
X153370474Y-43092691D01*
X152926412Y-43092691D01*
X152884444Y-43105014D01*
X152845987Y-43149396D01*
X152837630Y-43207523D01*
X152574505Y-43207523D01*
X152574505Y-42289593D01*
X153237171Y-42289593D01*
X153240791Y-42298321D01*
X153240791Y-42444449D01*
X153238217Y-42468292D01*
X153247355Y-42486568D01*
X153253114Y-42506181D01*
X153260255Y-42512368D01*
X153302883Y-42597625D01*
X153306460Y-42614067D01*
X153325937Y-42633545D01*
X153344713Y-42653729D01*
X153346604Y-42654212D01*
X153375499Y-42683107D01*
X153384092Y-42697575D01*
X153408733Y-42709895D01*
X153432922Y-42723103D01*
X153434870Y-42722963D01*
X153519822Y-42765438D01*
X153539999Y-42778405D01*
X153560435Y-42778405D01*
X153580551Y-42782025D01*
X153589279Y-42778405D01*
X153906837Y-42778405D01*
X153930677Y-42780979D01*
X153948954Y-42771840D01*
X153968566Y-42766082D01*
X153974753Y-42758941D01*
X154060013Y-42716312D01*
X154076453Y-42712736D01*
X154095923Y-42693265D01*
X154116113Y-42674485D01*
X154116597Y-42672591D01*
X154145492Y-42643696D01*
X154159959Y-42635104D01*
X154172276Y-42610469D01*
X154185488Y-42586274D01*
X154185348Y-42584324D01*
X154227823Y-42499375D01*
X154240791Y-42479197D01*
X154240791Y-42458761D01*
X154244411Y-42438646D01*
X154240791Y-42429918D01*
X154240791Y-42283790D01*
X154243365Y-42259947D01*
X154234226Y-42241670D01*
X154228468Y-42222058D01*
X154221326Y-42215869D01*
X154178697Y-42130611D01*
X154175121Y-42114172D01*
X154155649Y-42094700D01*
X154136869Y-42074511D01*
X154134975Y-42074026D01*
X154106083Y-42045134D01*
X154097490Y-42030666D01*
X154072845Y-42018343D01*
X154048659Y-42005137D01*
X154046710Y-42005276D01*
X153961759Y-41962801D01*
X153941582Y-41949834D01*
X153921146Y-41949834D01*
X153901031Y-41946214D01*
X153892303Y-41949834D01*
X153574747Y-41949834D01*
X153550904Y-41947260D01*
X153532627Y-41956398D01*
X153513015Y-41962157D01*
X153506826Y-41969298D01*
X153421570Y-42011926D01*
X153405128Y-42015504D01*
X153385657Y-42034975D01*
X153365467Y-42053755D01*
X153364982Y-42055650D01*
X153336091Y-42084541D01*
X153321623Y-42093135D01*
X153309303Y-42117773D01*
X153296093Y-42141967D01*
X153296232Y-42143915D01*
X153253756Y-42228866D01*
X153240791Y-42249042D01*
X153240791Y-42269477D01*
X153237171Y-42289593D01*
X152574505Y-42289593D01*
X152574505Y-41378951D01*
X153237630Y-41378951D01*
X153262025Y-41432370D01*
X153311428Y-41464119D01*
X154440791Y-41464119D01*
X154440791Y-41721356D01*
X154453114Y-41763324D01*
X154497496Y-41801781D01*
X154555623Y-41810138D01*
X154609042Y-41785743D01*
X154640791Y-41736340D01*
X154640791Y-41371273D01*
X154643952Y-41349287D01*
X154640791Y-41342365D01*
X154640791Y-41006883D01*
X154628468Y-40964915D01*
X154584086Y-40926458D01*
X154525959Y-40918101D01*
X154472540Y-40942496D01*
X154440791Y-40991899D01*
X154440791Y-41264119D01*
X153326412Y-41264119D01*
X153284444Y-41276442D01*
X153245987Y-41320824D01*
X153237630Y-41378951D01*
X152574505Y-41378951D01*
X152574505Y-40305548D01*
X155217363Y-40305548D01*
X155217363Y-46651263D01*
G37*
G36*
X142748933Y-49539555D02*
G01*
X142748933Y-50101663D01*
X142711040Y-50120609D01*
X142529682Y-50120609D01*
X142451025Y-50081281D01*
X142416832Y-50047088D01*
X142377504Y-49968432D01*
X142377504Y-49672787D01*
X142416832Y-49594131D01*
X142451025Y-49559937D01*
X142529682Y-49520609D01*
X142711041Y-49520609D01*
X142748933Y-49539555D01*
G37*
G36*
X145793219Y-50986896D02*
G01*
X139504646Y-50986896D01*
X139504646Y-49036289D01*
X140288753Y-49036289D01*
X140291789Y-49042795D01*
X140291789Y-50234988D01*
X140304112Y-50276956D01*
X140348494Y-50315413D01*
X140406621Y-50323770D01*
X140460040Y-50299375D01*
X140491789Y-50249972D01*
X140491789Y-49471366D01*
X140700830Y-49919311D01*
X140712465Y-49945353D01*
X140725704Y-49954016D01*
X140736166Y-49965890D01*
X140749769Y-49969763D01*
X140761604Y-49977507D01*
X140777426Y-49977637D01*
X140792647Y-49981971D01*
X140806185Y-49977874D01*
X140820328Y-49977991D01*
X140833709Y-49969545D01*
X140848855Y-49964963D01*
X140858029Y-49954197D01*
X140869990Y-49946649D01*
X140876680Y-49932311D01*
X140886946Y-49920266D01*
X140888843Y-49906247D01*
X141091789Y-49471365D01*
X141091789Y-50234988D01*
X141104112Y-50276956D01*
X141148494Y-50315413D01*
X141206621Y-50323770D01*
X141260040Y-50299375D01*
X141291789Y-50249972D01*
X141291789Y-50234988D01*
X141663218Y-50234988D01*
X141675541Y-50276956D01*
X141719923Y-50315413D01*
X141778050Y-50323770D01*
X141831469Y-50299375D01*
X141863218Y-50249972D01*
X141863218Y-49660369D01*
X142173884Y-49660369D01*
X142177504Y-49669097D01*
X142177504Y-49986653D01*
X142174930Y-50010496D01*
X142184068Y-50028772D01*
X142189827Y-50048385D01*
X142196968Y-50054572D01*
X142239597Y-50139831D01*
X142243174Y-50156272D01*
X142262645Y-50175743D01*
X142281426Y-50195933D01*
X142283319Y-50196417D01*
X142312213Y-50225311D01*
X142320806Y-50239778D01*
X142345438Y-50252094D01*
X142369636Y-50265307D01*
X142371585Y-50265167D01*
X142456534Y-50307641D01*
X142476712Y-50320609D01*
X142497148Y-50320609D01*
X142517263Y-50324229D01*
X142525991Y-50320609D01*
X142729265Y-50320609D01*
X142753105Y-50323183D01*
X142771382Y-50314044D01*
X142790994Y-50308286D01*
X142793746Y-50305109D01*
X142805638Y-50315413D01*
X142863765Y-50323770D01*
X142917184Y-50299375D01*
X142948933Y-50249972D01*
X142948933Y-50176050D01*
X142953090Y-50159794D01*
X142948933Y-50147286D01*
X142948933Y-50098889D01*
X144116404Y-50098889D01*
X144128888Y-50156272D01*
X144197926Y-50225310D01*
X144206520Y-50239779D01*
X144231169Y-50252103D01*
X144255350Y-50265307D01*
X144257298Y-50265167D01*
X144342250Y-50307642D01*
X144362427Y-50320609D01*
X144382863Y-50320609D01*
X144402979Y-50324229D01*
X144411707Y-50320609D01*
X144729265Y-50320609D01*
X144753105Y-50323183D01*
X144771382Y-50314044D01*
X144790994Y-50308286D01*
X144797181Y-50301145D01*
X144882440Y-50258516D01*
X144898882Y-50254940D01*
X144918358Y-50235462D01*
X144938541Y-50216689D01*
X144939025Y-50214796D01*
X144967920Y-50185899D01*
X144982386Y-50177308D01*
X144994698Y-50152683D01*
X145007916Y-50128477D01*
X145007776Y-50126526D01*
X145050250Y-50041579D01*
X145063218Y-50021401D01*
X145063218Y-50000965D01*
X145066838Y-49980850D01*
X145063218Y-49972122D01*
X145063218Y-49711709D01*
X145065792Y-49687866D01*
X145056653Y-49669589D01*
X145050895Y-49649977D01*
X145043753Y-49643788D01*
X145001125Y-49558533D01*
X144997549Y-49542091D01*
X144978067Y-49522609D01*
X144959297Y-49502429D01*
X144957403Y-49501944D01*
X144928510Y-49473051D01*
X144919918Y-49458584D01*
X144895285Y-49446267D01*
X144871088Y-49433055D01*
X144869138Y-49433194D01*
X144784187Y-49390719D01*
X144776545Y-49385807D01*
X145019312Y-49108360D01*
X145019565Y-49108286D01*
X145038729Y-49086169D01*
X145047944Y-49075638D01*
X145048046Y-49075416D01*
X145058022Y-49063904D01*
X145060119Y-49049314D01*
X145066306Y-49035939D01*
X145064211Y-49020853D01*
X145066379Y-49005777D01*
X145060256Y-48992371D01*
X145058230Y-48977772D01*
X145048310Y-48966212D01*
X145041984Y-48952358D01*
X145029585Y-48944390D01*
X145019988Y-48933205D01*
X145005393Y-48928842D01*
X144992581Y-48920609D01*
X144977845Y-48920609D01*
X144963722Y-48916388D01*
X144949086Y-48920609D01*
X144205982Y-48920609D01*
X144164014Y-48932932D01*
X144125557Y-48977314D01*
X144117200Y-49035441D01*
X144141595Y-49088860D01*
X144190998Y-49120609D01*
X144742842Y-49120609D01*
X144507123Y-49390000D01*
X144506871Y-49390075D01*
X144487706Y-49412191D01*
X144478492Y-49422723D01*
X144478389Y-49422944D01*
X144468414Y-49434457D01*
X144466316Y-49449046D01*
X144460130Y-49462422D01*
X144462224Y-49477507D01*
X144460057Y-49492584D01*
X144466179Y-49505989D01*
X144468206Y-49520589D01*
X144478125Y-49532148D01*
X144484452Y-49546003D01*
X144496850Y-49553970D01*
X144506448Y-49565156D01*
X144521042Y-49569518D01*
X144533855Y-49577752D01*
X144548591Y-49577752D01*
X144562714Y-49581973D01*
X144577350Y-49577752D01*
X144711041Y-49577752D01*
X144789695Y-49617079D01*
X144823890Y-49651274D01*
X144863218Y-49729931D01*
X144863218Y-49968431D01*
X144823889Y-50047088D01*
X144789697Y-50081281D01*
X144711040Y-50120609D01*
X144415397Y-50120609D01*
X144336739Y-50081281D01*
X144280904Y-50025446D01*
X144242515Y-50004484D01*
X144183939Y-50008673D01*
X144136927Y-50043866D01*
X144116404Y-50098889D01*
X142948933Y-50098889D01*
X142948933Y-49479534D01*
X142949907Y-49451932D01*
X142948933Y-49450292D01*
X142948933Y-49006230D01*
X142936610Y-48964262D01*
X142892228Y-48925805D01*
X142834101Y-48917448D01*
X142780682Y-48941843D01*
X142748933Y-48991246D01*
X142748933Y-49320609D01*
X142743574Y-49320609D01*
X142723459Y-49316989D01*
X142714731Y-49320609D01*
X142511460Y-49320609D01*
X142487617Y-49318035D01*
X142469340Y-49327173D01*
X142449728Y-49332932D01*
X142443539Y-49340073D01*
X142358281Y-49382702D01*
X142341842Y-49386279D01*
X142322370Y-49405750D01*
X142302181Y-49424531D01*
X142301696Y-49426424D01*
X142272804Y-49455316D01*
X142258336Y-49463910D01*
X142246013Y-49488554D01*
X142232807Y-49512741D01*
X142232946Y-49514689D01*
X142190471Y-49599640D01*
X142177504Y-49619818D01*
X142177504Y-49640254D01*
X142173884Y-49660369D01*
X141863218Y-49660369D01*
X141863218Y-49406230D01*
X141850895Y-49364262D01*
X141806513Y-49325805D01*
X141748386Y-49317448D01*
X141694967Y-49341843D01*
X141663218Y-49391246D01*
X141663218Y-50234988D01*
X141291789Y-50234988D01*
X141291789Y-49070317D01*
X141602118Y-49070317D01*
X141606839Y-49092020D01*
X141608424Y-49114174D01*
X141612984Y-49120266D01*
X141614602Y-49127700D01*
X141630303Y-49143401D01*
X141643617Y-49161186D01*
X141650747Y-49163845D01*
X141674458Y-49187556D01*
X141675541Y-49191242D01*
X141689606Y-49203429D01*
X141700760Y-49218329D01*
X141711367Y-49222285D01*
X141719923Y-49229699D01*
X141731129Y-49231310D01*
X141741064Y-49236735D01*
X141748652Y-49236192D01*
X141755783Y-49238852D01*
X141766845Y-49236445D01*
X141778050Y-49238056D01*
X141788349Y-49233352D01*
X141799640Y-49232545D01*
X141805730Y-49227985D01*
X141813166Y-49226368D01*
X141821169Y-49218364D01*
X141831469Y-49213661D01*
X141837590Y-49204135D01*
X141846651Y-49197353D01*
X141849310Y-49190223D01*
X141886014Y-49153519D01*
X141903794Y-49140210D01*
X141911554Y-49119403D01*
X141922201Y-49099906D01*
X141921658Y-49092315D01*
X141924317Y-49085187D01*
X141919595Y-49063483D01*
X141918011Y-49041330D01*
X141913451Y-49035239D01*
X141911834Y-49027804D01*
X141896128Y-49012098D01*
X141882819Y-48994319D01*
X141875689Y-48991659D01*
X141851977Y-48967947D01*
X141850895Y-48964262D01*
X141836827Y-48952072D01*
X141825676Y-48937176D01*
X141815070Y-48933220D01*
X141806513Y-48925805D01*
X141795306Y-48924193D01*
X141785372Y-48918769D01*
X141777781Y-48919311D01*
X141770653Y-48916653D01*
X141759592Y-48919059D01*
X141748386Y-48917448D01*
X141738088Y-48922150D01*
X141726796Y-48922958D01*
X141720703Y-48927518D01*
X141713270Y-48929136D01*
X141705266Y-48937139D01*
X141694967Y-48941843D01*
X141688846Y-48951366D01*
X141679784Y-48958151D01*
X141677124Y-48965281D01*
X141640425Y-49001980D01*
X141622641Y-49015294D01*
X141614878Y-49036106D01*
X141604235Y-49055598D01*
X141604777Y-49063186D01*
X141602118Y-49070317D01*
X141291789Y-49070317D01*
X141291789Y-49028177D01*
X141295069Y-49006625D01*
X141285838Y-48985965D01*
X141279466Y-48964262D01*
X141274042Y-48959562D01*
X141271114Y-48953008D01*
X141252180Y-48940619D01*
X141235084Y-48925805D01*
X141227979Y-48924783D01*
X141221974Y-48920854D01*
X141199350Y-48920667D01*
X141176957Y-48917448D01*
X141170428Y-48920429D01*
X141163250Y-48920370D01*
X141144115Y-48932445D01*
X141123538Y-48941843D01*
X141119657Y-48947881D01*
X141113588Y-48951712D01*
X141104021Y-48972211D01*
X141091789Y-48991246D01*
X141091789Y-48998424D01*
X140791789Y-49641280D01*
X140485606Y-48985174D01*
X140479466Y-48964262D01*
X140462369Y-48949447D01*
X140447412Y-48932471D01*
X140440508Y-48930505D01*
X140435084Y-48925805D01*
X140412691Y-48922585D01*
X140390931Y-48916390D01*
X140384059Y-48918469D01*
X140376957Y-48917448D01*
X140356381Y-48926844D01*
X140334723Y-48933398D01*
X140330067Y-48938861D01*
X140323538Y-48941843D01*
X140311307Y-48960874D01*
X140296632Y-48978095D01*
X140295668Y-48985208D01*
X140291789Y-48991246D01*
X140291789Y-49013865D01*
X140288753Y-49036289D01*
X139504646Y-49036289D01*
X139504646Y-48344038D01*
X145793219Y-48344038D01*
X145793219Y-50986896D01*
G37*
G36*
X175595935Y-26952493D02*
G01*
X175595935Y-27514601D01*
X175558042Y-27533547D01*
X175376684Y-27533547D01*
X175298027Y-27494219D01*
X175263834Y-27460026D01*
X175224506Y-27381370D01*
X175224506Y-27085725D01*
X175263834Y-27007069D01*
X175298027Y-26972875D01*
X175376684Y-26933547D01*
X175558043Y-26933547D01*
X175595935Y-26952493D01*
G37*
G36*
X178640221Y-28399834D02*
G01*
X172351648Y-28399834D01*
X172351648Y-26449227D01*
X173135755Y-26449227D01*
X173138791Y-26455733D01*
X173138791Y-27647926D01*
X173151114Y-27689894D01*
X173195496Y-27728351D01*
X173253623Y-27736708D01*
X173307042Y-27712313D01*
X173338791Y-27662910D01*
X173338791Y-26884304D01*
X173547832Y-27332249D01*
X173559467Y-27358291D01*
X173572706Y-27366954D01*
X173583168Y-27378828D01*
X173596771Y-27382701D01*
X173608606Y-27390445D01*
X173624428Y-27390575D01*
X173639649Y-27394909D01*
X173653187Y-27390812D01*
X173667330Y-27390929D01*
X173680711Y-27382483D01*
X173695857Y-27377901D01*
X173705031Y-27367135D01*
X173716992Y-27359587D01*
X173723682Y-27345249D01*
X173733948Y-27333204D01*
X173735845Y-27319185D01*
X173938791Y-26884303D01*
X173938791Y-27647926D01*
X173951114Y-27689894D01*
X173995496Y-27728351D01*
X174053623Y-27736708D01*
X174107042Y-27712313D01*
X174138791Y-27662910D01*
X174138791Y-27647926D01*
X174510220Y-27647926D01*
X174522543Y-27689894D01*
X174566925Y-27728351D01*
X174625052Y-27736708D01*
X174678471Y-27712313D01*
X174710220Y-27662910D01*
X174710220Y-27073307D01*
X175020886Y-27073307D01*
X175024506Y-27082035D01*
X175024506Y-27399591D01*
X175021932Y-27423434D01*
X175031070Y-27441710D01*
X175036829Y-27461323D01*
X175043970Y-27467510D01*
X175086599Y-27552769D01*
X175090176Y-27569210D01*
X175109647Y-27588681D01*
X175128428Y-27608871D01*
X175130321Y-27609355D01*
X175159215Y-27638249D01*
X175167808Y-27652716D01*
X175192440Y-27665032D01*
X175216638Y-27678245D01*
X175218587Y-27678105D01*
X175303536Y-27720579D01*
X175323714Y-27733547D01*
X175344150Y-27733547D01*
X175364265Y-27737167D01*
X175372993Y-27733547D01*
X175576267Y-27733547D01*
X175600107Y-27736121D01*
X175618384Y-27726982D01*
X175637996Y-27721224D01*
X175640748Y-27718047D01*
X175652640Y-27728351D01*
X175710767Y-27736708D01*
X175764186Y-27712313D01*
X175795935Y-27662910D01*
X175795935Y-27588988D01*
X175800092Y-27572732D01*
X175795935Y-27560224D01*
X175795935Y-26892472D01*
X175796909Y-26864870D01*
X175795935Y-26863230D01*
X175795935Y-26780078D01*
X177020349Y-26780078D01*
X177038869Y-26835806D01*
X177084578Y-26872676D01*
X177142964Y-26878979D01*
X177272299Y-26814311D01*
X177288740Y-26810735D01*
X177308209Y-26791265D01*
X177328401Y-26772483D01*
X177328885Y-26770589D01*
X177367363Y-26732111D01*
X177367363Y-27533547D01*
X177110127Y-27533547D01*
X177068159Y-27545870D01*
X177029702Y-27590252D01*
X177021345Y-27648379D01*
X177045740Y-27701798D01*
X177095143Y-27733547D01*
X177460209Y-27733547D01*
X177482195Y-27736708D01*
X177489117Y-27733547D01*
X177824599Y-27733547D01*
X177866567Y-27721224D01*
X177905024Y-27676842D01*
X177913381Y-27618715D01*
X177888986Y-27565296D01*
X177839583Y-27533547D01*
X177567363Y-27533547D01*
X177567363Y-26448784D01*
X177571570Y-26435298D01*
X177567363Y-26420026D01*
X177567363Y-26419168D01*
X177563543Y-26406161D01*
X177555974Y-26378681D01*
X177555296Y-26378073D01*
X177555040Y-26377200D01*
X177533463Y-26358503D01*
X177512245Y-26339485D01*
X177511347Y-26339340D01*
X177510658Y-26338743D01*
X177482401Y-26334680D01*
X177454266Y-26330151D01*
X177453431Y-26330515D01*
X177452531Y-26330386D01*
X177426572Y-26342240D01*
X177400446Y-26353646D01*
X177399942Y-26354401D01*
X177399112Y-26354781D01*
X177383663Y-26378819D01*
X177275363Y-26541268D01*
X177179555Y-26637077D01*
X177066924Y-26693393D01*
X177034897Y-26723183D01*
X177020349Y-26780078D01*
X175795935Y-26780078D01*
X175795935Y-26419168D01*
X175783612Y-26377200D01*
X175739230Y-26338743D01*
X175681103Y-26330386D01*
X175627684Y-26354781D01*
X175595935Y-26404184D01*
X175595935Y-26733547D01*
X175590576Y-26733547D01*
X175570461Y-26729927D01*
X175561733Y-26733547D01*
X175358462Y-26733547D01*
X175334619Y-26730973D01*
X175316342Y-26740111D01*
X175296730Y-26745870D01*
X175290541Y-26753011D01*
X175205283Y-26795640D01*
X175188844Y-26799217D01*
X175169372Y-26818688D01*
X175149183Y-26837469D01*
X175148698Y-26839362D01*
X175119806Y-26868254D01*
X175105338Y-26876848D01*
X175093015Y-26901492D01*
X175079809Y-26925679D01*
X175079948Y-26927627D01*
X175037473Y-27012578D01*
X175024506Y-27032756D01*
X175024506Y-27053192D01*
X175020886Y-27073307D01*
X174710220Y-27073307D01*
X174710220Y-26819168D01*
X174697897Y-26777200D01*
X174653515Y-26738743D01*
X174595388Y-26730386D01*
X174541969Y-26754781D01*
X174510220Y-26804184D01*
X174510220Y-27647926D01*
X174138791Y-27647926D01*
X174138791Y-26483255D01*
X174449120Y-26483255D01*
X174453841Y-26504958D01*
X174455426Y-26527112D01*
X174459986Y-26533204D01*
X174461604Y-26540638D01*
X174477305Y-26556339D01*
X174490619Y-26574124D01*
X174497749Y-26576783D01*
X174521460Y-26600494D01*
X174522543Y-26604180D01*
X174536608Y-26616367D01*
X174547762Y-26631267D01*
X174558369Y-26635223D01*
X174566925Y-26642637D01*
X174578131Y-26644248D01*
X174588066Y-26649673D01*
X174595654Y-26649130D01*
X174602785Y-26651790D01*
X174613847Y-26649383D01*
X174625052Y-26650994D01*
X174635351Y-26646290D01*
X174646642Y-26645483D01*
X174652732Y-26640923D01*
X174660168Y-26639306D01*
X174668171Y-26631302D01*
X174678471Y-26626599D01*
X174684592Y-26617073D01*
X174693653Y-26610291D01*
X174696312Y-26603161D01*
X174733016Y-26566457D01*
X174750796Y-26553148D01*
X174758556Y-26532341D01*
X174769203Y-26512844D01*
X174768660Y-26505253D01*
X174771319Y-26498125D01*
X174766597Y-26476421D01*
X174765013Y-26454268D01*
X174760453Y-26448177D01*
X174758836Y-26440742D01*
X174743130Y-26425036D01*
X174729821Y-26407257D01*
X174722691Y-26404597D01*
X174698979Y-26380885D01*
X174697897Y-26377200D01*
X174683829Y-26365010D01*
X174672678Y-26350114D01*
X174662072Y-26346158D01*
X174653515Y-26338743D01*
X174642308Y-26337131D01*
X174632374Y-26331707D01*
X174624783Y-26332249D01*
X174617655Y-26329591D01*
X174606594Y-26331997D01*
X174595388Y-26330386D01*
X174585090Y-26335088D01*
X174573798Y-26335896D01*
X174567705Y-26340456D01*
X174560272Y-26342074D01*
X174552268Y-26350077D01*
X174541969Y-26354781D01*
X174535848Y-26364304D01*
X174526786Y-26371089D01*
X174524126Y-26378219D01*
X174487427Y-26414918D01*
X174469643Y-26428232D01*
X174461880Y-26449044D01*
X174451237Y-26468536D01*
X174451779Y-26476124D01*
X174449120Y-26483255D01*
X174138791Y-26483255D01*
X174138791Y-26441115D01*
X174142071Y-26419563D01*
X174132840Y-26398903D01*
X174126468Y-26377200D01*
X174121044Y-26372500D01*
X174118116Y-26365946D01*
X174099182Y-26353557D01*
X174082086Y-26338743D01*
X174074981Y-26337721D01*
X174068976Y-26333792D01*
X174046352Y-26333605D01*
X174023959Y-26330386D01*
X174017430Y-26333367D01*
X174010252Y-26333308D01*
X173991117Y-26345383D01*
X173970540Y-26354781D01*
X173966659Y-26360819D01*
X173960590Y-26364650D01*
X173951023Y-26385149D01*
X173938791Y-26404184D01*
X173938791Y-26411362D01*
X173638791Y-27054218D01*
X173332608Y-26398112D01*
X173326468Y-26377200D01*
X173309371Y-26362385D01*
X173294414Y-26345409D01*
X173287510Y-26343443D01*
X173282086Y-26338743D01*
X173259693Y-26335523D01*
X173237933Y-26329328D01*
X173231061Y-26331407D01*
X173223959Y-26330386D01*
X173203383Y-26339782D01*
X173181725Y-26346336D01*
X173177069Y-26351799D01*
X173170540Y-26354781D01*
X173158309Y-26373812D01*
X173143634Y-26391033D01*
X173142670Y-26398146D01*
X173138791Y-26404184D01*
X173138791Y-26426803D01*
X173135755Y-26449227D01*
X172351648Y-26449227D01*
X172351648Y-25756976D01*
X178640221Y-25756976D01*
X178640221Y-28399834D01*
G37*
D12*
X288221053Y-108275280D02*
X287744862Y-108608613D01*
X288221053Y-108846708D02*
X287221053Y-108846708D01*
X287221053Y-108846708D02*
X287221053Y-108465756D01*
X287221053Y-108465756D02*
X287268672Y-108370518D01*
X287268672Y-108370518D02*
X287316291Y-108322899D01*
X287316291Y-108322899D02*
X287411529Y-108275280D01*
X287411529Y-108275280D02*
X287554386Y-108275280D01*
X287554386Y-108275280D02*
X287649624Y-108322899D01*
X287649624Y-108322899D02*
X287697243Y-108370518D01*
X287697243Y-108370518D02*
X287744862Y-108465756D01*
X287744862Y-108465756D02*
X287744862Y-108846708D01*
X287697243Y-107846708D02*
X287697243Y-107513375D01*
X288221053Y-107370518D02*
X288221053Y-107846708D01*
X288221053Y-107846708D02*
X287221053Y-107846708D01*
X287221053Y-107846708D02*
X287221053Y-107370518D01*
X288316291Y-107180042D02*
X288316291Y-106418137D01*
X288221053Y-105608613D02*
X287744862Y-105941946D01*
X288221053Y-106180041D02*
X287221053Y-106180041D01*
X287221053Y-106180041D02*
X287221053Y-105799089D01*
X287221053Y-105799089D02*
X287268672Y-105703851D01*
X287268672Y-105703851D02*
X287316291Y-105656232D01*
X287316291Y-105656232D02*
X287411529Y-105608613D01*
X287411529Y-105608613D02*
X287554386Y-105608613D01*
X287554386Y-105608613D02*
X287649624Y-105656232D01*
X287649624Y-105656232D02*
X287697243Y-105703851D01*
X287697243Y-105703851D02*
X287744862Y-105799089D01*
X287744862Y-105799089D02*
X287744862Y-106180041D01*
X288221053Y-104656232D02*
X288221053Y-105227660D01*
X288221053Y-104941946D02*
X287221053Y-104941946D01*
X287221053Y-104941946D02*
X287363910Y-105037184D01*
X287363910Y-105037184D02*
X287459148Y-105132422D01*
X287459148Y-105132422D02*
X287506767Y-105227660D01*
X82328077Y-23894149D02*
X81851887Y-23894149D01*
X81851887Y-23894149D02*
X81851887Y-22894149D01*
X83185220Y-23894149D02*
X82613792Y-23894149D01*
X82899506Y-23894149D02*
X82899506Y-22894149D01*
X82899506Y-22894149D02*
X82804268Y-23037006D01*
X82804268Y-23037006D02*
X82709030Y-23132244D01*
X82709030Y-23132244D02*
X82613792Y-23179863D01*
X83518554Y-22894149D02*
X84185220Y-22894149D01*
X84185220Y-22894149D02*
X83756649Y-23894149D01*
X171358554Y-44005488D02*
X172072839Y-44005488D01*
X172072839Y-44005488D02*
X172215696Y-44053107D01*
X172215696Y-44053107D02*
X172310935Y-44148345D01*
X172310935Y-44148345D02*
X172358554Y-44291202D01*
X172358554Y-44291202D02*
X172358554Y-44386440D01*
X171358554Y-43053107D02*
X171358554Y-43529297D01*
X171358554Y-43529297D02*
X171834744Y-43576916D01*
X171834744Y-43576916D02*
X171787125Y-43529297D01*
X171787125Y-43529297D02*
X171739506Y-43434059D01*
X171739506Y-43434059D02*
X171739506Y-43195964D01*
X171739506Y-43195964D02*
X171787125Y-43100726D01*
X171787125Y-43100726D02*
X171834744Y-43053107D01*
X171834744Y-43053107D02*
X171929982Y-43005488D01*
X171929982Y-43005488D02*
X172168077Y-43005488D01*
X172168077Y-43005488D02*
X172263315Y-43053107D01*
X172263315Y-43053107D02*
X172310935Y-43100726D01*
X172310935Y-43100726D02*
X172358554Y-43195964D01*
X172358554Y-43195964D02*
X172358554Y-43434059D01*
X172358554Y-43434059D02*
X172310935Y-43529297D01*
X172310935Y-43529297D02*
X172263315Y-43576916D01*
X149312601Y-56639774D02*
X149312601Y-57354059D01*
X149312601Y-57354059D02*
X149264982Y-57496916D01*
X149264982Y-57496916D02*
X149169744Y-57592155D01*
X149169744Y-57592155D02*
X149026887Y-57639774D01*
X149026887Y-57639774D02*
X148931649Y-57639774D01*
X149741173Y-56735012D02*
X149788792Y-56687393D01*
X149788792Y-56687393D02*
X149884030Y-56639774D01*
X149884030Y-56639774D02*
X150122125Y-56639774D01*
X150122125Y-56639774D02*
X150217363Y-56687393D01*
X150217363Y-56687393D02*
X150264982Y-56735012D01*
X150264982Y-56735012D02*
X150312601Y-56830250D01*
X150312601Y-56830250D02*
X150312601Y-56925488D01*
X150312601Y-56925488D02*
X150264982Y-57068345D01*
X150264982Y-57068345D02*
X149693554Y-57639774D01*
X149693554Y-57639774D02*
X150312601Y-57639774D01*
X31046135Y-101037012D02*
X30569944Y-101370345D01*
X31046135Y-101608440D02*
X30046135Y-101608440D01*
X30046135Y-101608440D02*
X30046135Y-101227488D01*
X30046135Y-101227488D02*
X30093754Y-101132250D01*
X30093754Y-101132250D02*
X30141373Y-101084631D01*
X30141373Y-101084631D02*
X30236611Y-101037012D01*
X30236611Y-101037012D02*
X30379468Y-101037012D01*
X30379468Y-101037012D02*
X30474706Y-101084631D01*
X30474706Y-101084631D02*
X30522325Y-101132250D01*
X30522325Y-101132250D02*
X30569944Y-101227488D01*
X30569944Y-101227488D02*
X30569944Y-101608440D01*
X30522325Y-100608440D02*
X30522325Y-100275107D01*
X31046135Y-100132250D02*
X31046135Y-100608440D01*
X31046135Y-100608440D02*
X30046135Y-100608440D01*
X30046135Y-100608440D02*
X30046135Y-100132250D01*
X31141373Y-99941774D02*
X31141373Y-99179869D01*
X31046135Y-98465583D02*
X31046135Y-98941773D01*
X31046135Y-98941773D02*
X30046135Y-98941773D01*
X31046135Y-97608440D02*
X31046135Y-98179868D01*
X31046135Y-97894154D02*
X30046135Y-97894154D01*
X30046135Y-97894154D02*
X30188992Y-97989392D01*
X30188992Y-97989392D02*
X30284230Y-98084630D01*
X30284230Y-98084630D02*
X30331849Y-98179868D01*
X296640577Y-43716024D02*
X296164387Y-43716024D01*
X296164387Y-43716024D02*
X296164387Y-42716024D01*
X297497720Y-43716024D02*
X296926292Y-43716024D01*
X297212006Y-43716024D02*
X297212006Y-42716024D01*
X297212006Y-42716024D02*
X297116768Y-42858881D01*
X297116768Y-42858881D02*
X297021530Y-42954119D01*
X297021530Y-42954119D02*
X296926292Y-43001738D01*
X297878673Y-42811262D02*
X297926292Y-42763643D01*
X297926292Y-42763643D02*
X298021530Y-42716024D01*
X298021530Y-42716024D02*
X298259625Y-42716024D01*
X298259625Y-42716024D02*
X298354863Y-42763643D01*
X298354863Y-42763643D02*
X298402482Y-42811262D01*
X298402482Y-42811262D02*
X298450101Y-42906500D01*
X298450101Y-42906500D02*
X298450101Y-43001738D01*
X298450101Y-43001738D02*
X298402482Y-43144595D01*
X298402482Y-43144595D02*
X297831054Y-43716024D01*
X297831054Y-43716024D02*
X298450101Y-43716024D01*
X171358554Y-30908613D02*
X172072839Y-30908613D01*
X172072839Y-30908613D02*
X172215696Y-30956232D01*
X172215696Y-30956232D02*
X172310935Y-31051470D01*
X172310935Y-31051470D02*
X172358554Y-31194327D01*
X172358554Y-31194327D02*
X172358554Y-31289565D01*
X171358554Y-30003851D02*
X171358554Y-30194327D01*
X171358554Y-30194327D02*
X171406173Y-30289565D01*
X171406173Y-30289565D02*
X171453792Y-30337184D01*
X171453792Y-30337184D02*
X171596649Y-30432422D01*
X171596649Y-30432422D02*
X171787125Y-30480041D01*
X171787125Y-30480041D02*
X172168077Y-30480041D01*
X172168077Y-30480041D02*
X172263315Y-30432422D01*
X172263315Y-30432422D02*
X172310935Y-30384803D01*
X172310935Y-30384803D02*
X172358554Y-30289565D01*
X172358554Y-30289565D02*
X172358554Y-30099089D01*
X172358554Y-30099089D02*
X172310935Y-30003851D01*
X172310935Y-30003851D02*
X172263315Y-29956232D01*
X172263315Y-29956232D02*
X172168077Y-29908613D01*
X172168077Y-29908613D02*
X171929982Y-29908613D01*
X171929982Y-29908613D02*
X171834744Y-29956232D01*
X171834744Y-29956232D02*
X171787125Y-30003851D01*
X171787125Y-30003851D02*
X171739506Y-30099089D01*
X171739506Y-30099089D02*
X171739506Y-30289565D01*
X171739506Y-30289565D02*
X171787125Y-30384803D01*
X171787125Y-30384803D02*
X171834744Y-30432422D01*
X171834744Y-30432422D02*
X171929982Y-30480041D01*
X154871053Y-108180042D02*
X154394862Y-108513375D01*
X154871053Y-108751470D02*
X153871053Y-108751470D01*
X153871053Y-108751470D02*
X153871053Y-108370518D01*
X153871053Y-108370518D02*
X153918672Y-108275280D01*
X153918672Y-108275280D02*
X153966291Y-108227661D01*
X153966291Y-108227661D02*
X154061529Y-108180042D01*
X154061529Y-108180042D02*
X154204386Y-108180042D01*
X154204386Y-108180042D02*
X154299624Y-108227661D01*
X154299624Y-108227661D02*
X154347243Y-108275280D01*
X154347243Y-108275280D02*
X154394862Y-108370518D01*
X154394862Y-108370518D02*
X154394862Y-108751470D01*
X154347243Y-107751470D02*
X154347243Y-107418137D01*
X154871053Y-107275280D02*
X154871053Y-107751470D01*
X154871053Y-107751470D02*
X153871053Y-107751470D01*
X153871053Y-107751470D02*
X153871053Y-107275280D01*
X154966291Y-107084804D02*
X154966291Y-106322899D01*
X154871053Y-105608613D02*
X154871053Y-106084803D01*
X154871053Y-106084803D02*
X153871053Y-106084803D01*
X153966291Y-105322898D02*
X153918672Y-105275279D01*
X153918672Y-105275279D02*
X153871053Y-105180041D01*
X153871053Y-105180041D02*
X153871053Y-104941946D01*
X153871053Y-104941946D02*
X153918672Y-104846708D01*
X153918672Y-104846708D02*
X153966291Y-104799089D01*
X153966291Y-104799089D02*
X154061529Y-104751470D01*
X154061529Y-104751470D02*
X154156767Y-104751470D01*
X154156767Y-104751470D02*
X154299624Y-104799089D01*
X154299624Y-104799089D02*
X154871053Y-105370517D01*
X154871053Y-105370517D02*
X154871053Y-104751470D01*
X81471054Y-108132571D02*
X81471054Y-108608761D01*
X81471054Y-108608761D02*
X80471054Y-108608761D01*
X80471054Y-107370666D02*
X80471054Y-107561142D01*
X80471054Y-107561142D02*
X80518673Y-107656380D01*
X80518673Y-107656380D02*
X80566292Y-107703999D01*
X80566292Y-107703999D02*
X80709149Y-107799237D01*
X80709149Y-107799237D02*
X80899625Y-107846856D01*
X80899625Y-107846856D02*
X81280577Y-107846856D01*
X81280577Y-107846856D02*
X81375815Y-107799237D01*
X81375815Y-107799237D02*
X81423435Y-107751618D01*
X81423435Y-107751618D02*
X81471054Y-107656380D01*
X81471054Y-107656380D02*
X81471054Y-107465904D01*
X81471054Y-107465904D02*
X81423435Y-107370666D01*
X81423435Y-107370666D02*
X81375815Y-107323047D01*
X81375815Y-107323047D02*
X81280577Y-107275428D01*
X81280577Y-107275428D02*
X81042482Y-107275428D01*
X81042482Y-107275428D02*
X80947244Y-107323047D01*
X80947244Y-107323047D02*
X80899625Y-107370666D01*
X80899625Y-107370666D02*
X80852006Y-107465904D01*
X80852006Y-107465904D02*
X80852006Y-107656380D01*
X80852006Y-107656380D02*
X80899625Y-107751618D01*
X80899625Y-107751618D02*
X80947244Y-107799237D01*
X80947244Y-107799237D02*
X81042482Y-107846856D01*
X191008554Y-108132571D02*
X191008554Y-108608761D01*
X191008554Y-108608761D02*
X190008554Y-108608761D01*
X190437125Y-107656380D02*
X190389506Y-107751618D01*
X190389506Y-107751618D02*
X190341887Y-107799237D01*
X190341887Y-107799237D02*
X190246649Y-107846856D01*
X190246649Y-107846856D02*
X190199030Y-107846856D01*
X190199030Y-107846856D02*
X190103792Y-107799237D01*
X190103792Y-107799237D02*
X190056173Y-107751618D01*
X190056173Y-107751618D02*
X190008554Y-107656380D01*
X190008554Y-107656380D02*
X190008554Y-107465904D01*
X190008554Y-107465904D02*
X190056173Y-107370666D01*
X190056173Y-107370666D02*
X190103792Y-107323047D01*
X190103792Y-107323047D02*
X190199030Y-107275428D01*
X190199030Y-107275428D02*
X190246649Y-107275428D01*
X190246649Y-107275428D02*
X190341887Y-107323047D01*
X190341887Y-107323047D02*
X190389506Y-107370666D01*
X190389506Y-107370666D02*
X190437125Y-107465904D01*
X190437125Y-107465904D02*
X190437125Y-107656380D01*
X190437125Y-107656380D02*
X190484744Y-107751618D01*
X190484744Y-107751618D02*
X190532363Y-107799237D01*
X190532363Y-107799237D02*
X190627601Y-107846856D01*
X190627601Y-107846856D02*
X190818077Y-107846856D01*
X190818077Y-107846856D02*
X190913315Y-107799237D01*
X190913315Y-107799237D02*
X190960935Y-107751618D01*
X190960935Y-107751618D02*
X191008554Y-107656380D01*
X191008554Y-107656380D02*
X191008554Y-107465904D01*
X191008554Y-107465904D02*
X190960935Y-107370666D01*
X190960935Y-107370666D02*
X190913315Y-107323047D01*
X190913315Y-107323047D02*
X190818077Y-107275428D01*
X190818077Y-107275428D02*
X190627601Y-107275428D01*
X190627601Y-107275428D02*
X190532363Y-107323047D01*
X190532363Y-107323047D02*
X190484744Y-107370666D01*
X190484744Y-107370666D02*
X190437125Y-107465904D01*
X158837601Y-57830399D02*
X158837601Y-58544684D01*
X158837601Y-58544684D02*
X158789982Y-58687541D01*
X158789982Y-58687541D02*
X158694744Y-58782780D01*
X158694744Y-58782780D02*
X158551887Y-58830399D01*
X158551887Y-58830399D02*
X158456649Y-58830399D01*
X159218554Y-57830399D02*
X159837601Y-57830399D01*
X159837601Y-57830399D02*
X159504268Y-58211351D01*
X159504268Y-58211351D02*
X159647125Y-58211351D01*
X159647125Y-58211351D02*
X159742363Y-58258970D01*
X159742363Y-58258970D02*
X159789982Y-58306589D01*
X159789982Y-58306589D02*
X159837601Y-58401827D01*
X159837601Y-58401827D02*
X159837601Y-58639922D01*
X159837601Y-58639922D02*
X159789982Y-58735160D01*
X159789982Y-58735160D02*
X159742363Y-58782780D01*
X159742363Y-58782780D02*
X159647125Y-58830399D01*
X159647125Y-58830399D02*
X159361411Y-58830399D01*
X159361411Y-58830399D02*
X159266173Y-58782780D01*
X159266173Y-58782780D02*
X159218554Y-58735160D01*
X44228077Y-23894149D02*
X43751887Y-23894149D01*
X43751887Y-23894149D02*
X43751887Y-22894149D01*
X45085220Y-23894149D02*
X44513792Y-23894149D01*
X44799506Y-23894149D02*
X44799506Y-22894149D01*
X44799506Y-22894149D02*
X44704268Y-23037006D01*
X44704268Y-23037006D02*
X44609030Y-23132244D01*
X44609030Y-23132244D02*
X44513792Y-23179863D01*
X45656649Y-23322720D02*
X45561411Y-23275101D01*
X45561411Y-23275101D02*
X45513792Y-23227482D01*
X45513792Y-23227482D02*
X45466173Y-23132244D01*
X45466173Y-23132244D02*
X45466173Y-23084625D01*
X45466173Y-23084625D02*
X45513792Y-22989387D01*
X45513792Y-22989387D02*
X45561411Y-22941768D01*
X45561411Y-22941768D02*
X45656649Y-22894149D01*
X45656649Y-22894149D02*
X45847125Y-22894149D01*
X45847125Y-22894149D02*
X45942363Y-22941768D01*
X45942363Y-22941768D02*
X45989982Y-22989387D01*
X45989982Y-22989387D02*
X46037601Y-23084625D01*
X46037601Y-23084625D02*
X46037601Y-23132244D01*
X46037601Y-23132244D02*
X45989982Y-23227482D01*
X45989982Y-23227482D02*
X45942363Y-23275101D01*
X45942363Y-23275101D02*
X45847125Y-23322720D01*
X45847125Y-23322720D02*
X45656649Y-23322720D01*
X45656649Y-23322720D02*
X45561411Y-23370339D01*
X45561411Y-23370339D02*
X45513792Y-23417958D01*
X45513792Y-23417958D02*
X45466173Y-23513196D01*
X45466173Y-23513196D02*
X45466173Y-23703672D01*
X45466173Y-23703672D02*
X45513792Y-23798910D01*
X45513792Y-23798910D02*
X45561411Y-23846530D01*
X45561411Y-23846530D02*
X45656649Y-23894149D01*
X45656649Y-23894149D02*
X45847125Y-23894149D01*
X45847125Y-23894149D02*
X45942363Y-23846530D01*
X45942363Y-23846530D02*
X45989982Y-23798910D01*
X45989982Y-23798910D02*
X46037601Y-23703672D01*
X46037601Y-23703672D02*
X46037601Y-23513196D01*
X46037601Y-23513196D02*
X45989982Y-23417958D01*
X45989982Y-23417958D02*
X45942363Y-23370339D01*
X45942363Y-23370339D02*
X45847125Y-23322720D01*
X234728077Y-23894149D02*
X234251887Y-23894149D01*
X234251887Y-23894149D02*
X234251887Y-22894149D01*
X235585220Y-23894149D02*
X235013792Y-23894149D01*
X235299506Y-23894149D02*
X235299506Y-22894149D01*
X235299506Y-22894149D02*
X235204268Y-23037006D01*
X235204268Y-23037006D02*
X235109030Y-23132244D01*
X235109030Y-23132244D02*
X235013792Y-23179863D01*
X236442363Y-23227482D02*
X236442363Y-23894149D01*
X236204268Y-22846530D02*
X235966173Y-23560815D01*
X235966173Y-23560815D02*
X236585220Y-23560815D01*
X20891768Y-96522274D02*
X20415578Y-96522274D01*
X20415578Y-96522274D02*
X20415578Y-95522274D01*
X21653673Y-95855607D02*
X21653673Y-96522274D01*
X21415578Y-95474655D02*
X21177483Y-96188940D01*
X21177483Y-96188940D02*
X21796530Y-96188940D01*
X282353077Y-23894149D02*
X281876887Y-23894149D01*
X281876887Y-23894149D02*
X281876887Y-22894149D01*
X283210220Y-23894149D02*
X282638792Y-23894149D01*
X282924506Y-23894149D02*
X282924506Y-22894149D01*
X282924506Y-22894149D02*
X282829268Y-23037006D01*
X282829268Y-23037006D02*
X282734030Y-23132244D01*
X282734030Y-23132244D02*
X282638792Y-23179863D01*
X283543554Y-22894149D02*
X284162601Y-22894149D01*
X284162601Y-22894149D02*
X283829268Y-23275101D01*
X283829268Y-23275101D02*
X283972125Y-23275101D01*
X283972125Y-23275101D02*
X284067363Y-23322720D01*
X284067363Y-23322720D02*
X284114982Y-23370339D01*
X284114982Y-23370339D02*
X284162601Y-23465577D01*
X284162601Y-23465577D02*
X284162601Y-23703672D01*
X284162601Y-23703672D02*
X284114982Y-23798910D01*
X284114982Y-23798910D02*
X284067363Y-23846530D01*
X284067363Y-23846530D02*
X283972125Y-23894149D01*
X283972125Y-23894149D02*
X283686411Y-23894149D01*
X283686411Y-23894149D02*
X283591173Y-23846530D01*
X283591173Y-23846530D02*
X283543554Y-23798910D01*
X145944804Y-44005488D02*
X146659089Y-44005488D01*
X146659089Y-44005488D02*
X146801946Y-44053107D01*
X146801946Y-44053107D02*
X146897185Y-44148345D01*
X146897185Y-44148345D02*
X146944804Y-44291202D01*
X146944804Y-44291202D02*
X146944804Y-44386440D01*
X146944804Y-43005488D02*
X146944804Y-43576916D01*
X146944804Y-43291202D02*
X145944804Y-43291202D01*
X145944804Y-43291202D02*
X146087661Y-43386440D01*
X146087661Y-43386440D02*
X146182899Y-43481678D01*
X146182899Y-43481678D02*
X146230518Y-43576916D01*
X168362601Y-56639774D02*
X168362601Y-57354059D01*
X168362601Y-57354059D02*
X168314982Y-57496916D01*
X168314982Y-57496916D02*
X168219744Y-57592155D01*
X168219744Y-57592155D02*
X168076887Y-57639774D01*
X168076887Y-57639774D02*
X167981649Y-57639774D01*
X169267363Y-56973107D02*
X169267363Y-57639774D01*
X169029268Y-56592155D02*
X168791173Y-57306440D01*
X168791173Y-57306440D02*
X169410220Y-57306440D01*
X187103077Y-23894149D02*
X186626887Y-23894149D01*
X186626887Y-23894149D02*
X186626887Y-22894149D01*
X187960220Y-23894149D02*
X187388792Y-23894149D01*
X187674506Y-23894149D02*
X187674506Y-22894149D01*
X187674506Y-22894149D02*
X187579268Y-23037006D01*
X187579268Y-23037006D02*
X187484030Y-23132244D01*
X187484030Y-23132244D02*
X187388792Y-23179863D01*
X188864982Y-22894149D02*
X188388792Y-22894149D01*
X188388792Y-22894149D02*
X188341173Y-23370339D01*
X188341173Y-23370339D02*
X188388792Y-23322720D01*
X188388792Y-23322720D02*
X188484030Y-23275101D01*
X188484030Y-23275101D02*
X188722125Y-23275101D01*
X188722125Y-23275101D02*
X188817363Y-23322720D01*
X188817363Y-23322720D02*
X188864982Y-23370339D01*
X188864982Y-23370339D02*
X188912601Y-23465577D01*
X188912601Y-23465577D02*
X188912601Y-23703672D01*
X188912601Y-23703672D02*
X188864982Y-23798910D01*
X188864982Y-23798910D02*
X188817363Y-23846530D01*
X188817363Y-23846530D02*
X188722125Y-23894149D01*
X188722125Y-23894149D02*
X188484030Y-23894149D01*
X188484030Y-23894149D02*
X188388792Y-23846530D01*
X188388792Y-23846530D02*
X188341173Y-23798910D01*
X281077304Y-108608762D02*
X281077304Y-109084952D01*
X281077304Y-109084952D02*
X280077304Y-109084952D01*
X281077304Y-107751619D02*
X281077304Y-108323047D01*
X281077304Y-108037333D02*
X280077304Y-108037333D01*
X280077304Y-108037333D02*
X280220161Y-108132571D01*
X280220161Y-108132571D02*
X280315399Y-108227809D01*
X280315399Y-108227809D02*
X280363018Y-108323047D01*
X280077304Y-107132571D02*
X280077304Y-107037333D01*
X280077304Y-107037333D02*
X280124923Y-106942095D01*
X280124923Y-106942095D02*
X280172542Y-106894476D01*
X280172542Y-106894476D02*
X280267780Y-106846857D01*
X280267780Y-106846857D02*
X280458256Y-106799238D01*
X280458256Y-106799238D02*
X280696351Y-106799238D01*
X280696351Y-106799238D02*
X280886827Y-106846857D01*
X280886827Y-106846857D02*
X280982065Y-106894476D01*
X280982065Y-106894476D02*
X281029685Y-106942095D01*
X281029685Y-106942095D02*
X281077304Y-107037333D01*
X281077304Y-107037333D02*
X281077304Y-107132571D01*
X281077304Y-107132571D02*
X281029685Y-107227809D01*
X281029685Y-107227809D02*
X280982065Y-107275428D01*
X280982065Y-107275428D02*
X280886827Y-107323047D01*
X280886827Y-107323047D02*
X280696351Y-107370666D01*
X280696351Y-107370666D02*
X280458256Y-107370666D01*
X280458256Y-107370666D02*
X280267780Y-107323047D01*
X280267780Y-107323047D02*
X280172542Y-107275428D01*
X280172542Y-107275428D02*
X280124923Y-107227809D01*
X280124923Y-107227809D02*
X280077304Y-107132571D01*
X21210518Y-43716024D02*
X20734328Y-43716024D01*
X20734328Y-43716024D02*
X20734328Y-42716024D01*
X21448614Y-42716024D02*
X22067661Y-42716024D01*
X22067661Y-42716024D02*
X21734328Y-43096976D01*
X21734328Y-43096976D02*
X21877185Y-43096976D01*
X21877185Y-43096976D02*
X21972423Y-43144595D01*
X21972423Y-43144595D02*
X22020042Y-43192214D01*
X22020042Y-43192214D02*
X22067661Y-43287452D01*
X22067661Y-43287452D02*
X22067661Y-43525547D01*
X22067661Y-43525547D02*
X22020042Y-43620785D01*
X22020042Y-43620785D02*
X21972423Y-43668405D01*
X21972423Y-43668405D02*
X21877185Y-43716024D01*
X21877185Y-43716024D02*
X21591471Y-43716024D01*
X21591471Y-43716024D02*
X21496233Y-43668405D01*
X21496233Y-43668405D02*
X21448614Y-43620785D01*
X133858554Y-108132571D02*
X133858554Y-108608761D01*
X133858554Y-108608761D02*
X132858554Y-108608761D01*
X132858554Y-107894475D02*
X132858554Y-107227809D01*
X132858554Y-107227809D02*
X133858554Y-107656380D01*
X39358554Y-108132571D02*
X39358554Y-108608761D01*
X39358554Y-108608761D02*
X38358554Y-108608761D01*
X38358554Y-107323047D02*
X38358554Y-107799237D01*
X38358554Y-107799237D02*
X38834744Y-107846856D01*
X38834744Y-107846856D02*
X38787125Y-107799237D01*
X38787125Y-107799237D02*
X38739506Y-107703999D01*
X38739506Y-107703999D02*
X38739506Y-107465904D01*
X38739506Y-107465904D02*
X38787125Y-107370666D01*
X38787125Y-107370666D02*
X38834744Y-107323047D01*
X38834744Y-107323047D02*
X38929982Y-107275428D01*
X38929982Y-107275428D02*
X39168077Y-107275428D01*
X39168077Y-107275428D02*
X39263315Y-107323047D01*
X39263315Y-107323047D02*
X39310935Y-107370666D01*
X39310935Y-107370666D02*
X39358554Y-107465904D01*
X39358554Y-107465904D02*
X39358554Y-107703999D01*
X39358554Y-107703999D02*
X39310935Y-107799237D01*
X39310935Y-107799237D02*
X39263315Y-107846856D01*
X129953077Y-23894149D02*
X129476887Y-23894149D01*
X129476887Y-23894149D02*
X129476887Y-22894149D01*
X130810220Y-23894149D02*
X130238792Y-23894149D01*
X130524506Y-23894149D02*
X130524506Y-22894149D01*
X130524506Y-22894149D02*
X130429268Y-23037006D01*
X130429268Y-23037006D02*
X130334030Y-23132244D01*
X130334030Y-23132244D02*
X130238792Y-23179863D01*
X131667363Y-22894149D02*
X131476887Y-22894149D01*
X131476887Y-22894149D02*
X131381649Y-22941768D01*
X131381649Y-22941768D02*
X131334030Y-22989387D01*
X131334030Y-22989387D02*
X131238792Y-23132244D01*
X131238792Y-23132244D02*
X131191173Y-23322720D01*
X131191173Y-23322720D02*
X131191173Y-23703672D01*
X131191173Y-23703672D02*
X131238792Y-23798910D01*
X131238792Y-23798910D02*
X131286411Y-23846530D01*
X131286411Y-23846530D02*
X131381649Y-23894149D01*
X131381649Y-23894149D02*
X131572125Y-23894149D01*
X131572125Y-23894149D02*
X131667363Y-23846530D01*
X131667363Y-23846530D02*
X131714982Y-23798910D01*
X131714982Y-23798910D02*
X131762601Y-23703672D01*
X131762601Y-23703672D02*
X131762601Y-23465577D01*
X131762601Y-23465577D02*
X131714982Y-23370339D01*
X131714982Y-23370339D02*
X131667363Y-23322720D01*
X131667363Y-23322720D02*
X131572125Y-23275101D01*
X131572125Y-23275101D02*
X131381649Y-23275101D01*
X131381649Y-23275101D02*
X131286411Y-23322720D01*
X131286411Y-23322720D02*
X131238792Y-23370339D01*
X131238792Y-23370339D02*
X131191173Y-23465577D01*
X296640577Y-90341024D02*
X296164387Y-90341024D01*
X296164387Y-90341024D02*
X296164387Y-89341024D01*
X297497720Y-90341024D02*
X296926292Y-90341024D01*
X297212006Y-90341024D02*
X297212006Y-89341024D01*
X297212006Y-89341024D02*
X297116768Y-89483881D01*
X297116768Y-89483881D02*
X297021530Y-89579119D01*
X297021530Y-89579119D02*
X296926292Y-89626738D01*
X298450101Y-90341024D02*
X297878673Y-90341024D01*
X298164387Y-90341024D02*
X298164387Y-89341024D01*
X298164387Y-89341024D02*
X298069149Y-89483881D01*
X298069149Y-89483881D02*
X297973911Y-89579119D01*
X297973911Y-89579119D02*
X297878673Y-89626738D01*
X234642929Y-108132571D02*
X234642929Y-108608761D01*
X234642929Y-108608761D02*
X233642929Y-108608761D01*
X234642929Y-107751618D02*
X234642929Y-107561142D01*
X234642929Y-107561142D02*
X234595310Y-107465904D01*
X234595310Y-107465904D02*
X234547690Y-107418285D01*
X234547690Y-107418285D02*
X234404833Y-107323047D01*
X234404833Y-107323047D02*
X234214357Y-107275428D01*
X234214357Y-107275428D02*
X233833405Y-107275428D01*
X233833405Y-107275428D02*
X233738167Y-107323047D01*
X233738167Y-107323047D02*
X233690548Y-107370666D01*
X233690548Y-107370666D02*
X233642929Y-107465904D01*
X233642929Y-107465904D02*
X233642929Y-107656380D01*
X233642929Y-107656380D02*
X233690548Y-107751618D01*
X233690548Y-107751618D02*
X233738167Y-107799237D01*
X233738167Y-107799237D02*
X233833405Y-107846856D01*
X233833405Y-107846856D02*
X234071500Y-107846856D01*
X234071500Y-107846856D02*
X234166738Y-107799237D01*
X234166738Y-107799237D02*
X234214357Y-107751618D01*
X234214357Y-107751618D02*
X234261976Y-107656380D01*
X234261976Y-107656380D02*
X234261976Y-107465904D01*
X234261976Y-107465904D02*
X234214357Y-107370666D01*
X234214357Y-107370666D02*
X234166738Y-107323047D01*
X234166738Y-107323047D02*
X234071500Y-107275428D01*
D13*
X112816189Y-22028365D02*
G75*
G03*
X112816189Y-22028365I-1270254J0D01*
G01*
X208066189Y-22028365D02*
G75*
G03*
X208066189Y-22028365I-1270254J0D01*
G01*
X101766189Y-107628365D02*
G75*
G03*
X101766189Y-107628365I-1270254J0D01*
G01*
X241666189Y-107628365D02*
G75*
G03*
X241666189Y-107628365I-1270254J0D01*
G01*
D14*
X289624949Y-102424961D02*
G75*
G03*
X289624319Y-103980222I2897166J-778804D01*
G01*
X291747992Y-100306555D02*
G75*
G03*
X290400780Y-101083639I774103J-2898400D01*
G01*
X290399057Y-105323368D02*
G75*
G03*
X291745638Y-106101544I2123036J2119600D01*
G01*
X294645176Y-101084160D02*
G75*
G03*
X293298595Y-100305983I-2123041J-2119605D01*
G01*
X293296215Y-106103357D02*
G75*
G03*
X294643426Y-105326271I-774110J2898402D01*
G01*
X295419283Y-103982560D02*
G75*
G03*
X295419913Y-102427298I-2897138J778805D01*
G01*
D10*
X86970935Y-20950280D02*
X86970935Y-20050280D01*
X86970935Y-20050280D02*
X86370935Y-19450280D01*
X86370935Y-19450280D02*
X85020935Y-19450280D01*
X85020935Y-20950280D02*
X86970935Y-20950280D01*
D14*
X174054685Y-46782155D02*
X174054685Y-45732155D01*
X176554685Y-46782155D02*
X174054685Y-46782155D01*
X174054685Y-45732155D02*
X173064685Y-45732155D01*
X178524685Y-45612155D02*
X178524685Y-41732155D01*
X174054685Y-40562155D02*
X174054685Y-41612155D01*
X176554685Y-40562155D02*
X174054685Y-40562155D01*
X175054685Y-46782155D02*
X174054685Y-46782155D01*
X174054685Y-45732155D01*
X175054685Y-46782155D01*
G36*
X175054685Y-46782155D02*
G01*
X174054685Y-46782155D01*
X174054685Y-45732155D01*
X175054685Y-46782155D01*
G37*
X174054685Y-45972155D02*
X173064685Y-45972155D01*
X173064685Y-45732155D01*
X174054685Y-45732155D01*
X174054685Y-45972155D01*
G36*
X174054685Y-45972155D02*
G01*
X173064685Y-45972155D01*
X173064685Y-45732155D01*
X174054685Y-45732155D01*
X174054685Y-45972155D01*
G37*
X152755935Y-54982155D02*
X151705935Y-54982155D01*
X152755935Y-52482155D02*
X152755935Y-54982155D01*
X151705935Y-54982155D02*
X151705935Y-55972155D01*
X151585935Y-50512155D02*
X147705935Y-50512155D01*
X146535935Y-54982155D02*
X147585935Y-54982155D01*
X146535935Y-52482155D02*
X146535935Y-54982155D01*
X152755935Y-54982155D02*
X151705935Y-54982155D01*
X152755935Y-53982155D01*
X152755935Y-54982155D01*
G36*
X152755935Y-54982155D02*
G01*
X151705935Y-54982155D01*
X152755935Y-53982155D01*
X152755935Y-54982155D01*
G37*
X151945935Y-55972155D02*
X151705935Y-55972155D01*
X151705935Y-54982155D01*
X151945935Y-54982155D01*
X151945935Y-55972155D01*
G36*
X151945935Y-55972155D02*
G01*
X151705935Y-55972155D01*
X151705935Y-54982155D01*
X151945935Y-54982155D01*
X151945935Y-55972155D01*
G37*
X28718121Y-103982569D02*
G75*
G03*
X28718751Y-102427308I-2897166J778804D01*
G01*
X26595078Y-106100975D02*
G75*
G03*
X27942290Y-105323891I-774103J2898400D01*
G01*
X27944013Y-101084162D02*
G75*
G03*
X26597432Y-100305986I-2123036J-2119600D01*
G01*
X23697894Y-105323370D02*
G75*
G03*
X25044475Y-106101547I2123041J2119605D01*
G01*
X25046855Y-100304173D02*
G75*
G03*
X23699644Y-101081259I774110J-2898402D01*
G01*
X22923787Y-102424970D02*
G75*
G03*
X22923157Y-103980232I2897138J-778805D01*
G01*
G36*
X178602453Y-59510846D02*
G01*
X178721438Y-59558791D01*
X178811235Y-59646384D01*
X178872062Y-59753083D01*
X178901334Y-59818651D01*
X178950470Y-59931819D01*
X179016143Y-60084796D01*
X179095030Y-60269790D01*
X179183804Y-60479011D01*
X179279142Y-60704669D01*
X179347775Y-60867696D01*
X179464865Y-61144276D01*
X179562106Y-61369336D01*
X179641572Y-61547260D01*
X179705338Y-61682428D01*
X179755481Y-61779224D01*
X179794074Y-61842030D01*
X179823194Y-61875227D01*
X179825868Y-61877231D01*
X179868751Y-61904165D01*
X179957428Y-61957256D01*
X180085591Y-62032817D01*
X180246930Y-62127159D01*
X180435137Y-62236593D01*
X180643902Y-62357430D01*
X180866916Y-62485982D01*
X180878026Y-62492373D01*
X181157622Y-62654004D01*
X181388615Y-62789577D01*
X181575098Y-62901819D01*
X181721167Y-62993461D01*
X181830916Y-63067229D01*
X181908437Y-63125853D01*
X181957826Y-63172062D01*
X181983177Y-63208583D01*
X181988901Y-63232744D01*
X181969419Y-63272301D01*
X181921848Y-63329390D01*
X181915207Y-63336152D01*
X181860321Y-63380115D01*
X181795002Y-63402323D01*
X181697218Y-63409292D01*
X181667512Y-63409424D01*
X181562564Y-63403629D01*
X181470033Y-63382154D01*
X181366540Y-63337998D01*
X181283346Y-63294378D01*
X181202708Y-63249531D01*
X181078962Y-63179590D01*
X180920936Y-63089598D01*
X180737460Y-62984599D01*
X180537363Y-62869636D01*
X180329472Y-62749752D01*
X180292565Y-62728421D01*
X180089357Y-62611236D01*
X179896972Y-62500865D01*
X179723234Y-62401755D01*
X179575971Y-62318351D01*
X179463006Y-62255097D01*
X179392165Y-62216438D01*
X179381880Y-62211100D01*
X179344772Y-62195905D01*
X179289099Y-62179507D01*
X179210695Y-62161218D01*
X179105392Y-62140355D01*
X178969020Y-62116230D01*
X178797414Y-62088160D01*
X178586404Y-62055457D01*
X178331824Y-62017436D01*
X178029504Y-61973412D01*
X177675279Y-61922699D01*
X177340272Y-61875235D01*
X176891437Y-61811274D01*
X176497351Y-61753868D01*
X176158715Y-61703128D01*
X175876232Y-61659165D01*
X175650601Y-61622091D01*
X175482524Y-61592017D01*
X175372702Y-61569055D01*
X175323808Y-61554351D01*
X175234342Y-61488655D01*
X175189307Y-61417638D01*
X175175336Y-61349293D01*
X175200697Y-61300927D01*
X175228823Y-61275984D01*
X175309062Y-61230088D01*
X175398374Y-61201192D01*
X175450641Y-61201340D01*
X175558894Y-61210197D01*
X175719765Y-61227346D01*
X175929891Y-61252372D01*
X176185904Y-61284862D01*
X176484441Y-61324398D01*
X176822134Y-61370567D01*
X177190144Y-61422177D01*
X177501943Y-61465924D01*
X177796010Y-61506279D01*
X178066969Y-61542566D01*
X178309439Y-61574107D01*
X178518044Y-61600225D01*
X178687404Y-61620244D01*
X178812141Y-61633486D01*
X178886876Y-61639273D01*
X178906888Y-61638307D01*
X178901672Y-61606017D01*
X178875249Y-61525137D01*
X178830146Y-61402235D01*
X178768890Y-61243877D01*
X178694008Y-61056632D01*
X178608026Y-60847067D01*
X178539098Y-60682334D01*
X178445289Y-60457843D01*
X178359492Y-60248521D01*
X178284460Y-60061391D01*
X178222942Y-59903479D01*
X178177690Y-59781809D01*
X178151453Y-59703408D01*
X178145875Y-59678106D01*
X178171657Y-59586480D01*
X178247725Y-59525715D01*
X178372162Y-59497001D01*
X178441394Y-59494823D01*
X178602453Y-59510846D01*
G37*
G36*
X138149403Y-79116178D02*
G01*
X138279634Y-79170366D01*
X138312010Y-79194907D01*
X138358391Y-79271369D01*
X138359240Y-79360698D01*
X138316352Y-79438801D01*
X138292410Y-79458331D01*
X138236160Y-79481470D01*
X138134485Y-79510623D01*
X138001245Y-79542244D01*
X137850296Y-79572786D01*
X137832279Y-79576096D01*
X137579103Y-79624538D01*
X137370227Y-79670797D01*
X137190249Y-79719141D01*
X137023770Y-79773843D01*
X136855389Y-79839173D01*
X136800461Y-79862223D01*
X136553650Y-79980796D01*
X136331864Y-80113829D01*
X136142107Y-80255575D01*
X135991386Y-80400290D01*
X135886704Y-80542228D01*
X135841038Y-80649088D01*
X135822951Y-80754725D01*
X135837968Y-80842952D01*
X135892108Y-80934309D01*
X135942519Y-80995357D01*
X136085867Y-81117653D01*
X136272061Y-81214232D01*
X136488083Y-81281394D01*
X136720913Y-81315441D01*
X136957535Y-81312676D01*
X137028718Y-81303903D01*
X137157505Y-81281732D01*
X137277687Y-81254032D01*
X137399530Y-81216949D01*
X137533299Y-81166626D01*
X137689262Y-81099208D01*
X137877682Y-81010839D01*
X138104190Y-80899960D01*
X138392264Y-80762953D01*
X138647045Y-80655580D01*
X138884118Y-80572600D01*
X139119071Y-80508768D01*
X139367489Y-80458840D01*
X139460414Y-80443694D01*
X139826633Y-80409458D01*
X140197412Y-80416878D01*
X140563690Y-80463566D01*
X140916406Y-80547133D01*
X141246498Y-80665190D01*
X141544905Y-80815350D01*
X141802567Y-80995222D01*
X141906045Y-81088394D01*
X142010095Y-81194987D01*
X142079293Y-81279793D01*
X142124942Y-81359431D01*
X142158347Y-81450524D01*
X142163008Y-81466226D01*
X142196835Y-81652082D01*
X142182283Y-81828011D01*
X142120652Y-82008217D01*
X141997445Y-82216263D01*
X141818716Y-82417767D01*
X141588859Y-82610132D01*
X141312269Y-82790766D01*
X140993340Y-82957072D01*
X140636468Y-83106458D01*
X140246047Y-83236327D01*
X139877238Y-83332633D01*
X139697666Y-83370443D01*
X139532676Y-83396306D01*
X139360189Y-83412738D01*
X139158124Y-83422251D01*
X139070107Y-83424551D01*
X138867041Y-83426405D01*
X138703372Y-83422438D01*
X138586321Y-83412964D01*
X138529681Y-83401117D01*
X138414751Y-83342641D01*
X138352137Y-83268054D01*
X138334528Y-83176817D01*
X138352980Y-83085634D01*
X138391467Y-83046971D01*
X138441529Y-83033510D01*
X138538538Y-83018097D01*
X138669506Y-83002447D01*
X138821445Y-82988278D01*
X138856521Y-82985520D01*
X139172443Y-82955360D01*
X139446136Y-82913977D01*
X139695031Y-82856944D01*
X139936561Y-82779832D01*
X140188156Y-82678216D01*
X140340706Y-82608599D01*
X140598965Y-82474772D01*
X140832341Y-82330075D01*
X141034467Y-82179818D01*
X141198976Y-82029313D01*
X141319499Y-81883869D01*
X141389669Y-81748798D01*
X141395741Y-81728715D01*
X141406214Y-81580557D01*
X141357429Y-81436340D01*
X141250102Y-81297017D01*
X141084947Y-81163541D01*
X140884894Y-81047908D01*
X140667017Y-80952453D01*
X140454077Y-80892012D01*
X140226497Y-80862726D01*
X139964698Y-80860730D01*
X139940792Y-80861672D01*
X139747935Y-80875977D01*
X139566850Y-80904166D01*
X139385655Y-80949932D01*
X139192472Y-81016971D01*
X138975419Y-81108977D01*
X138722616Y-81229645D01*
X138664788Y-81258513D01*
X138300151Y-81430410D01*
X137966837Y-81562299D01*
X137653982Y-81656905D01*
X137350722Y-81716952D01*
X137046194Y-81745166D01*
X136729534Y-81744271D01*
X136728263Y-81744214D01*
X136369227Y-81706983D01*
X136036182Y-81630109D01*
X135736178Y-81516062D01*
X135476268Y-81367317D01*
X135334953Y-81255707D01*
X135194430Y-81109862D01*
X135105061Y-80965975D01*
X135060022Y-80810373D01*
X135051218Y-80687042D01*
X135067897Y-80517911D01*
X135122648Y-80359821D01*
X135220992Y-80201758D01*
X135368452Y-80032706D01*
X135390287Y-80010579D01*
X135601187Y-79831637D01*
X135864789Y-79662386D01*
X136174057Y-79506422D01*
X136521956Y-79367338D01*
X136857839Y-79260813D01*
X137188638Y-79177060D01*
X137487064Y-79120545D01*
X137749248Y-79091442D01*
X137971317Y-79089928D01*
X138149403Y-79116178D01*
G37*
G36*
X158083622Y-73460522D02*
G01*
X158174098Y-73492102D01*
X158218942Y-73516310D01*
X158310770Y-73567779D01*
X158444975Y-73643851D01*
X158616950Y-73741867D01*
X158822088Y-73859170D01*
X159055783Y-73993103D01*
X159313427Y-74141007D01*
X159590413Y-74300225D01*
X159882136Y-74468098D01*
X160183987Y-74641970D01*
X160491360Y-74819182D01*
X160799648Y-74997077D01*
X161104245Y-75172996D01*
X161400543Y-75344283D01*
X161683935Y-75508279D01*
X161949815Y-75662326D01*
X162193576Y-75803767D01*
X162410610Y-75929944D01*
X162596312Y-76038199D01*
X162746074Y-76125875D01*
X162855289Y-76190313D01*
X162919351Y-76228856D01*
X162933057Y-76237619D01*
X163000175Y-76312719D01*
X163012938Y-76397407D01*
X162972929Y-76479442D01*
X162893866Y-76540492D01*
X162788783Y-76595841D01*
X159601973Y-76142679D01*
X159170510Y-76081415D01*
X158754977Y-76022589D01*
X158359330Y-75966752D01*
X157987524Y-75914454D01*
X157643513Y-75866245D01*
X157331252Y-75822675D01*
X157054698Y-75784296D01*
X156817803Y-75751657D01*
X156624524Y-75725309D01*
X156478816Y-75705803D01*
X156384632Y-75693688D01*
X156345929Y-75689516D01*
X156345909Y-75689516D01*
X156301062Y-75698267D01*
X156305178Y-75717396D01*
X156335455Y-75736814D01*
X156413407Y-75783626D01*
X156534663Y-75855282D01*
X156694848Y-75949233D01*
X156889592Y-76062926D01*
X157114521Y-76193811D01*
X157365263Y-76339339D01*
X157637445Y-76496957D01*
X157926696Y-76664117D01*
X158060059Y-76741077D01*
X158435705Y-76957759D01*
X158762744Y-77146465D01*
X159044574Y-77309246D01*
X159284590Y-77448149D01*
X159486190Y-77565224D01*
X159652769Y-77662519D01*
X159787724Y-77742084D01*
X159894451Y-77805966D01*
X159976348Y-77856216D01*
X160036809Y-77894881D01*
X160079232Y-77924010D01*
X160107013Y-77945653D01*
X160123548Y-77961858D01*
X160132233Y-77974674D01*
X160136466Y-77986150D01*
X160138734Y-77995005D01*
X160136587Y-78085438D01*
X160086253Y-78158994D01*
X159998295Y-78211216D01*
X159883276Y-78237646D01*
X159751758Y-78233825D01*
X159640174Y-78205418D01*
X159598923Y-78184914D01*
X159510548Y-78136918D01*
X159379582Y-78064044D01*
X159210556Y-77968909D01*
X159008000Y-77854126D01*
X158776446Y-77722310D01*
X158520426Y-77576076D01*
X158244471Y-77418038D01*
X157953112Y-77250810D01*
X157650881Y-77077008D01*
X157342308Y-76899246D01*
X157031926Y-76720139D01*
X156724265Y-76542301D01*
X156423856Y-76368346D01*
X156135232Y-76200890D01*
X155862923Y-76042547D01*
X155611461Y-75895932D01*
X155385377Y-75763659D01*
X155189202Y-75648343D01*
X155027467Y-75552598D01*
X154904705Y-75479039D01*
X154825446Y-75430281D01*
X154794989Y-75409707D01*
X154737974Y-75328345D01*
X154734832Y-75245709D01*
X154780566Y-75172345D01*
X154870176Y-75118800D01*
X154941383Y-75100809D01*
X154984437Y-75102715D01*
X155082936Y-75112420D01*
X155232855Y-75129407D01*
X155430170Y-75153158D01*
X155670857Y-75183155D01*
X155950893Y-75218881D01*
X156266252Y-75259817D01*
X156612911Y-75305445D01*
X156986845Y-75355248D01*
X157384032Y-75408707D01*
X157800445Y-75465306D01*
X158208782Y-75521317D01*
X158637613Y-75580252D01*
X159049595Y-75636587D01*
X159440845Y-75689808D01*
X159807484Y-75739398D01*
X160145629Y-75784843D01*
X160451400Y-75825626D01*
X160720914Y-75861232D01*
X160950292Y-75891147D01*
X161135652Y-75914854D01*
X161273113Y-75931838D01*
X161358792Y-75941584D01*
X161388786Y-75943610D01*
X161389098Y-75916112D01*
X161361480Y-75899225D01*
X161286025Y-75854792D01*
X161166929Y-75785246D01*
X161008384Y-75693018D01*
X160814583Y-75580541D01*
X160589721Y-75450246D01*
X160337989Y-75304566D01*
X160063583Y-75145933D01*
X159770694Y-74976780D01*
X159545146Y-74846622D01*
X159239930Y-74670323D01*
X158949133Y-74501916D01*
X158677076Y-74343930D01*
X158428080Y-74198894D01*
X158206464Y-74069339D01*
X158016551Y-73957793D01*
X157862660Y-73866787D01*
X157749112Y-73798851D01*
X157680227Y-73756513D01*
X157660789Y-73743369D01*
X157618014Y-73670958D01*
X157618453Y-73584488D01*
X157658642Y-73507676D01*
X157699776Y-73476399D01*
X157809056Y-73445830D01*
X157945816Y-73440830D01*
X158083622Y-73460522D01*
G37*
G36*
X146341512Y-78606150D02*
G01*
X147153028Y-78606150D01*
X147165780Y-78640766D01*
X147196404Y-78693180D01*
X147247397Y-78767012D01*
X147321254Y-78865880D01*
X147420473Y-78993404D01*
X147547551Y-79153205D01*
X147704984Y-79348902D01*
X147895268Y-79584113D01*
X148115092Y-79855296D01*
X148260788Y-80031384D01*
X148379315Y-80166978D01*
X148468450Y-80259693D01*
X148525970Y-80307147D01*
X148542136Y-80313156D01*
X148581467Y-80298576D01*
X148665621Y-80257336D01*
X148787642Y-80193184D01*
X148940574Y-80109871D01*
X149117464Y-80011147D01*
X149311355Y-79900761D01*
X149373394Y-79865009D01*
X149568612Y-79750965D01*
X149745806Y-79645103D01*
X149898559Y-79551445D01*
X150020454Y-79474013D01*
X150105075Y-79416827D01*
X150146005Y-79383908D01*
X150148830Y-79379045D01*
X150120906Y-79365170D01*
X150041590Y-79337878D01*
X149917564Y-79299014D01*
X149755511Y-79250423D01*
X149562113Y-79193952D01*
X149344054Y-79131444D01*
X149108016Y-79064746D01*
X148860682Y-78995703D01*
X148608735Y-78926160D01*
X148358857Y-78857963D01*
X148117730Y-78792957D01*
X147892039Y-78732987D01*
X147688465Y-78679898D01*
X147513691Y-78635537D01*
X147374400Y-78601748D01*
X147277274Y-78580377D01*
X147230803Y-78573267D01*
X147197035Y-78572889D01*
X147171152Y-78575831D01*
X147155651Y-78585711D01*
X147153028Y-78606150D01*
X146341512Y-78606150D01*
X146254806Y-78493706D01*
X146153682Y-78359881D01*
X146076143Y-78253942D01*
X146020147Y-78173222D01*
X145983646Y-78115050D01*
X145964597Y-78076758D01*
X145960532Y-78059446D01*
X145986338Y-77969802D01*
X146063091Y-77910901D01*
X146189791Y-77883360D01*
X146247967Y-77881241D01*
X146299253Y-77887671D01*
X146396689Y-77907156D01*
X146541424Y-77939987D01*
X146734608Y-77986459D01*
X146977389Y-78046864D01*
X147270917Y-78121493D01*
X147616341Y-78210641D01*
X148014810Y-78314600D01*
X148467474Y-78433662D01*
X148975481Y-78568120D01*
X149539982Y-78718267D01*
X149656476Y-78749329D01*
X150087680Y-78864430D01*
X150503580Y-78975611D01*
X150900383Y-79081850D01*
X151274301Y-79182125D01*
X151621543Y-79275415D01*
X151938318Y-79360697D01*
X152220837Y-79436948D01*
X152465308Y-79503148D01*
X152667942Y-79558274D01*
X152824948Y-79601305D01*
X152932535Y-79631217D01*
X152986914Y-79646989D01*
X152992000Y-79648698D01*
X153084233Y-79706475D01*
X153138305Y-79784996D01*
X153150955Y-79869764D01*
X153118919Y-79946279D01*
X153068156Y-79987167D01*
X153010804Y-80009203D01*
X152937461Y-80019680D01*
X152842019Y-80017661D01*
X152718367Y-80002212D01*
X152560397Y-79972396D01*
X152362000Y-79927277D01*
X152117066Y-79865922D01*
X151894412Y-79807424D01*
X151681436Y-79751211D01*
X151485486Y-79700489D01*
X151314619Y-79657266D01*
X151176891Y-79623545D01*
X151080358Y-79601335D01*
X151033078Y-79592641D01*
X151031645Y-79592589D01*
X150995866Y-79607060D01*
X150915155Y-79647851D01*
X150796449Y-79711029D01*
X150646684Y-79792659D01*
X150472796Y-79888809D01*
X150281724Y-79995546D01*
X150080402Y-80108934D01*
X149875769Y-80225042D01*
X149674762Y-80339936D01*
X149484316Y-80449681D01*
X149311368Y-80550346D01*
X149162856Y-80637995D01*
X149045716Y-80708696D01*
X148966885Y-80758516D01*
X148935516Y-80781192D01*
X148917869Y-80809089D01*
X148925905Y-80847770D01*
X148964766Y-80909601D01*
X149018024Y-80979612D01*
X149085241Y-81065256D01*
X149177706Y-81183031D01*
X149283570Y-81317847D01*
X149390986Y-81454615D01*
X149398182Y-81463776D01*
X149518831Y-81622240D01*
X149600421Y-81743616D01*
X149644875Y-81834704D01*
X149654112Y-81902309D01*
X149630053Y-81953231D01*
X149574620Y-81994272D01*
X149551326Y-82006071D01*
X149420447Y-82046057D01*
X149276530Y-82042641D01*
X149173062Y-82019090D01*
X149090128Y-81989341D01*
X149028775Y-81957058D01*
X149025103Y-81954244D01*
X149000048Y-81925858D01*
X148940422Y-81854139D01*
X148849124Y-81742675D01*
X148729054Y-81595056D01*
X148583112Y-81414869D01*
X148414198Y-81205703D01*
X148225212Y-80971145D01*
X148019054Y-80714784D01*
X147798624Y-80440208D01*
X147566822Y-80151005D01*
X147471380Y-80031798D01*
X147185794Y-79674585D01*
X146936065Y-79361278D01*
X146720146Y-79089205D01*
X146535993Y-78855699D01*
X146381562Y-78658089D01*
X146341512Y-78606150D01*
G37*
G36*
X164705453Y-69618109D02*
G01*
X165609378Y-69618109D01*
X165636621Y-69634616D01*
X165711931Y-69678823D01*
X165831352Y-69748438D01*
X165990931Y-69841171D01*
X166186712Y-69954730D01*
X166414742Y-70086822D01*
X166671065Y-70235156D01*
X166951728Y-70397441D01*
X167252775Y-70571385D01*
X167570253Y-70754696D01*
X167669359Y-70811894D01*
X168044134Y-71028105D01*
X168370449Y-71216121D01*
X168651812Y-71377824D01*
X168891735Y-71515099D01*
X169093726Y-71629828D01*
X169261296Y-71723893D01*
X169397956Y-71799179D01*
X169507214Y-71857568D01*
X169592581Y-71900944D01*
X169657567Y-71931189D01*
X169705682Y-71950186D01*
X169740436Y-71959819D01*
X169765338Y-71961970D01*
X169783899Y-71958524D01*
X169796440Y-71953053D01*
X169843635Y-71927138D01*
X169934768Y-71875767D01*
X170061789Y-71803527D01*
X170216646Y-71715010D01*
X170391288Y-71614803D01*
X170535379Y-71531873D01*
X170721896Y-71422911D01*
X170896145Y-71318351D01*
X171049671Y-71223486D01*
X171174019Y-71143606D01*
X171260733Y-71084002D01*
X171295610Y-71056147D01*
X171430400Y-70893223D01*
X171507335Y-70715636D01*
X171526500Y-70522718D01*
X171487981Y-70313802D01*
X171414236Y-70131749D01*
X171266562Y-69895069D01*
X171064287Y-69667253D01*
X170812580Y-69451428D01*
X170516612Y-69250722D01*
X170181553Y-69068264D01*
X169812574Y-68907180D01*
X169414846Y-68770598D01*
X168993538Y-68661646D01*
X168978588Y-68658405D01*
X168847398Y-68632630D01*
X168721783Y-68614371D01*
X168586887Y-68602480D01*
X168427854Y-68595810D01*
X168229826Y-68593212D01*
X168132991Y-68593058D01*
X167933647Y-68594317D01*
X167763901Y-68599706D01*
X167614972Y-68612091D01*
X167478080Y-68634338D01*
X167344443Y-68669311D01*
X167205280Y-68719876D01*
X167051810Y-68788898D01*
X166875251Y-68879242D01*
X166666823Y-68993772D01*
X166417745Y-69135355D01*
X166347586Y-69175605D01*
X166156504Y-69285949D01*
X165984181Y-69386649D01*
X165836999Y-69473882D01*
X165721339Y-69543820D01*
X165643584Y-69592641D01*
X165610113Y-69616517D01*
X165609378Y-69618109D01*
X164705453Y-69618109D01*
X164698866Y-69605822D01*
X164695284Y-69568920D01*
X164713138Y-69490025D01*
X164747825Y-69439221D01*
X164786548Y-69413365D01*
X164869950Y-69362295D01*
X164990461Y-69290383D01*
X165140507Y-69202001D01*
X165312517Y-69101521D01*
X165498918Y-68993315D01*
X165692138Y-68881753D01*
X165884605Y-68771210D01*
X166068745Y-68666055D01*
X166236987Y-68570661D01*
X166381758Y-68489401D01*
X166495487Y-68426645D01*
X166570600Y-68386765D01*
X166571762Y-68386178D01*
X166832020Y-68280678D01*
X167137747Y-68201612D01*
X167480052Y-68149905D01*
X167850044Y-68126486D01*
X168238830Y-68132279D01*
X168637519Y-68168211D01*
X168649361Y-68169741D01*
X169118900Y-68249361D01*
X169578521Y-68362999D01*
X170022030Y-68507552D01*
X170443232Y-68679920D01*
X170835932Y-68877000D01*
X171193936Y-69095692D01*
X171511047Y-69332893D01*
X171781072Y-69585503D01*
X171993229Y-69843860D01*
X172124235Y-70052061D01*
X172210154Y-70244715D01*
X172256807Y-70438121D01*
X172269976Y-70619021D01*
X172247756Y-70850141D01*
X172174596Y-71051380D01*
X172048001Y-71228337D01*
X171961344Y-71311655D01*
X171900950Y-71356295D01*
X171795571Y-71426100D01*
X171652449Y-71516604D01*
X171478826Y-71623342D01*
X171281943Y-71741848D01*
X171069043Y-71867655D01*
X170905419Y-71962841D01*
X170662536Y-72102949D01*
X170465413Y-72215827D01*
X170307929Y-72304479D01*
X170183963Y-72371909D01*
X170087395Y-72421122D01*
X170012105Y-72455121D01*
X169951972Y-72476911D01*
X169900876Y-72489497D01*
X169852695Y-72495884D01*
X169814315Y-72498437D01*
X169685368Y-72497584D01*
X169585656Y-72475720D01*
X169514078Y-72443044D01*
X169460954Y-72413432D01*
X169361558Y-72357014D01*
X169220538Y-72276471D01*
X169042537Y-72174484D01*
X168832203Y-72053736D01*
X168594180Y-71916907D01*
X168333115Y-71766679D01*
X168053653Y-71605733D01*
X167760441Y-71436752D01*
X167458123Y-71262416D01*
X167151346Y-71085406D01*
X166844755Y-70908405D01*
X166542997Y-70734093D01*
X166250716Y-70565153D01*
X165972559Y-70404265D01*
X165713171Y-70254112D01*
X165477198Y-70117374D01*
X165269287Y-69996733D01*
X165094081Y-69894871D01*
X164956229Y-69814468D01*
X164860374Y-69758207D01*
X164811163Y-69728769D01*
X164807873Y-69726691D01*
X164731210Y-69666155D01*
X164705453Y-69618109D01*
G37*
G36*
X170342348Y-62047886D02*
G01*
X170726488Y-62047886D01*
X170730501Y-62055628D01*
X170734375Y-62058783D01*
X170764880Y-62076985D01*
X170843886Y-62123220D01*
X170968125Y-62195594D01*
X171134325Y-62292216D01*
X171339217Y-62411193D01*
X171579531Y-62550634D01*
X171851997Y-62708645D01*
X172153345Y-62883334D01*
X172480305Y-63072809D01*
X172829607Y-63275178D01*
X173197981Y-63488548D01*
X173582157Y-63711027D01*
X173978866Y-63940723D01*
X174384836Y-64175743D01*
X174796799Y-64414195D01*
X175211484Y-64654186D01*
X175625621Y-64893825D01*
X176035941Y-65131219D01*
X176439173Y-65364475D01*
X176832047Y-65591702D01*
X177211294Y-65811007D01*
X177573643Y-66020497D01*
X177915825Y-66218280D01*
X178234569Y-66402465D01*
X178526606Y-66571158D01*
X178788665Y-66722467D01*
X179017477Y-66854500D01*
X179209771Y-66965365D01*
X179362278Y-67053169D01*
X179471728Y-67116020D01*
X179534851Y-67152026D01*
X179549781Y-67160266D01*
X179576189Y-67145792D01*
X179651924Y-67102845D01*
X179774304Y-67032965D01*
X179940648Y-66937697D01*
X180148276Y-66818581D01*
X180394506Y-66677160D01*
X180676657Y-66514975D01*
X180992049Y-66333569D01*
X181338000Y-66134485D01*
X181711831Y-65919263D01*
X182110859Y-65689446D01*
X182532403Y-65446576D01*
X182973784Y-65192196D01*
X183432319Y-64927846D01*
X183905328Y-64655070D01*
X183963256Y-64621659D01*
X184438456Y-64347494D01*
X184899809Y-64081173D01*
X185344608Y-63824263D01*
X185770146Y-63578335D01*
X186173717Y-63344957D01*
X186552613Y-63125699D01*
X186904129Y-62922129D01*
X187225556Y-62735817D01*
X187514189Y-62568331D01*
X187767319Y-62421241D01*
X187982242Y-62296116D01*
X188156249Y-62194525D01*
X188286634Y-62118036D01*
X188370690Y-62068220D01*
X188405710Y-62046644D01*
X188406437Y-62046077D01*
X188400141Y-62034971D01*
X188369629Y-62010529D01*
X188313117Y-61971697D01*
X188228817Y-61917422D01*
X188114944Y-61846650D01*
X187969711Y-61758329D01*
X187791333Y-61651403D01*
X187578024Y-61524821D01*
X187327997Y-61377528D01*
X187039466Y-61208472D01*
X186710645Y-61016598D01*
X186339749Y-60800853D01*
X185924991Y-60560185D01*
X185464585Y-60293539D01*
X184956745Y-59999862D01*
X184399685Y-59678100D01*
X184022985Y-59460683D01*
X183547033Y-59186217D01*
X183084820Y-58919994D01*
X182639049Y-58663560D01*
X182212428Y-58418456D01*
X181807659Y-58186228D01*
X181427449Y-57968419D01*
X181074502Y-57766572D01*
X180751524Y-57582231D01*
X180461220Y-57416940D01*
X180206293Y-57272242D01*
X179989451Y-57149682D01*
X179813397Y-57050802D01*
X179680836Y-56977146D01*
X179594474Y-56930259D01*
X179557015Y-56911683D01*
X179555845Y-56911429D01*
X179525270Y-56926385D01*
X179445417Y-56969852D01*
X179318993Y-57040284D01*
X179148702Y-57136136D01*
X178937250Y-57255861D01*
X178687343Y-57397913D01*
X178401687Y-57560747D01*
X178082987Y-57742816D01*
X177733948Y-57942576D01*
X177357277Y-58158479D01*
X176955679Y-58388980D01*
X176531860Y-58632533D01*
X176088525Y-58887593D01*
X175628380Y-59152612D01*
X175154130Y-59426047D01*
X175089316Y-59463438D01*
X174527095Y-59787842D01*
X174014649Y-60083622D01*
X173549717Y-60352125D01*
X173130041Y-60594697D01*
X172753361Y-60812685D01*
X172417419Y-61007434D01*
X172119955Y-61180291D01*
X171858710Y-61332603D01*
X171631424Y-61465716D01*
X171435839Y-61580977D01*
X171269695Y-61679730D01*
X171130733Y-61763324D01*
X171016694Y-61833105D01*
X170925319Y-61890418D01*
X170854348Y-61936611D01*
X170801523Y-61973029D01*
X170764583Y-62001019D01*
X170741270Y-62021928D01*
X170729325Y-62037101D01*
X170726488Y-62047886D01*
X170342348Y-62047886D01*
X170348916Y-61968707D01*
X170354740Y-61943656D01*
X170387388Y-61922369D01*
X170468644Y-61873314D01*
X170595294Y-61798339D01*
X170764120Y-61699292D01*
X170971907Y-61578020D01*
X171215438Y-61436373D01*
X171491497Y-61276197D01*
X171796867Y-61099341D01*
X172128332Y-60907653D01*
X172482676Y-60702982D01*
X172856682Y-60487174D01*
X173247134Y-60262078D01*
X173650816Y-60029543D01*
X174064511Y-59791416D01*
X174485003Y-59549545D01*
X174909076Y-59305778D01*
X175333514Y-59061964D01*
X175755099Y-58819950D01*
X176170616Y-58581584D01*
X176576849Y-58348715D01*
X176970580Y-58123190D01*
X177348594Y-57906858D01*
X177707674Y-57701566D01*
X178044605Y-57509163D01*
X178356169Y-57331496D01*
X178639150Y-57170414D01*
X178890333Y-57027765D01*
X179106500Y-56905397D01*
X179284435Y-56805157D01*
X179420922Y-56728894D01*
X179512745Y-56678456D01*
X179556687Y-56655691D01*
X179559969Y-56654528D01*
X179589771Y-56669226D01*
X179668354Y-56712087D01*
X179792490Y-56781258D01*
X179958951Y-56874885D01*
X180164511Y-56991116D01*
X180405943Y-57128098D01*
X180680018Y-57283979D01*
X180983511Y-57456905D01*
X181313192Y-57645025D01*
X181665837Y-57846484D01*
X182038216Y-58059431D01*
X182427104Y-58282013D01*
X182829272Y-58512377D01*
X183241493Y-58748669D01*
X183660541Y-58989039D01*
X184083187Y-59231632D01*
X184506206Y-59474595D01*
X184926369Y-59716077D01*
X185340449Y-59954225D01*
X185745220Y-60187185D01*
X186137453Y-60413105D01*
X186513922Y-60630132D01*
X186871399Y-60836413D01*
X187206657Y-61030096D01*
X187516469Y-61209328D01*
X187797608Y-61372256D01*
X188046847Y-61517028D01*
X188260957Y-61641790D01*
X188436713Y-61744689D01*
X188570886Y-61823874D01*
X188660250Y-61877492D01*
X188691679Y-61897045D01*
X188804267Y-61969564D01*
X188804267Y-64655828D01*
X188804267Y-67342092D01*
X188691679Y-67415547D01*
X188637172Y-67449185D01*
X188535581Y-67509858D01*
X188390124Y-67595707D01*
X188204022Y-67704874D01*
X187980492Y-67835502D01*
X187722754Y-67985732D01*
X187434026Y-68153706D01*
X187117529Y-68337568D01*
X186776480Y-68535458D01*
X186414098Y-68745519D01*
X186033603Y-68965894D01*
X185638214Y-69194723D01*
X185231149Y-69430149D01*
X184815627Y-69670315D01*
X184394868Y-69913362D01*
X183972090Y-70157433D01*
X183550512Y-70400669D01*
X183133354Y-70641213D01*
X182723834Y-70877207D01*
X182325171Y-71106793D01*
X181940584Y-71328112D01*
X181573293Y-71539308D01*
X181226515Y-71738522D01*
X180903471Y-71923896D01*
X180607378Y-72093573D01*
X180341457Y-72245694D01*
X180108925Y-72378401D01*
X179913002Y-72489838D01*
X179756908Y-72578145D01*
X179643859Y-72641465D01*
X179577077Y-72677939D01*
X179559229Y-72686563D01*
X179518935Y-72671892D01*
X179436253Y-72631538D01*
X179320478Y-72570392D01*
X179180901Y-72493345D01*
X179046584Y-72416749D01*
X178581218Y-72147523D01*
X178566206Y-73833742D01*
X178551194Y-75519960D01*
X173972589Y-78174549D01*
X173488213Y-78455190D01*
X173017387Y-78727606D01*
X172562771Y-78990275D01*
X172127028Y-79241671D01*
X171712821Y-79480271D01*
X171322812Y-79704551D01*
X170959662Y-79912987D01*
X170626035Y-80104056D01*
X170324592Y-80276233D01*
X170057995Y-80427994D01*
X169828908Y-80557816D01*
X169639992Y-80664175D01*
X169493909Y-80745546D01*
X169393321Y-80800407D01*
X169340891Y-80827232D01*
X169333937Y-80829773D01*
X169288428Y-80815444D01*
X169201638Y-80775453D01*
X169083809Y-80714978D01*
X168945183Y-80639197D01*
X168853558Y-80586956D01*
X168433227Y-80343503D01*
X168418215Y-80837331D01*
X168411438Y-81004436D01*
X168402297Y-81150719D01*
X168391711Y-81265534D01*
X168380603Y-81338236D01*
X168373180Y-81358223D01*
X168342442Y-81377677D01*
X168263115Y-81425114D01*
X168138401Y-81498683D01*
X167971505Y-81596531D01*
X167765627Y-81716808D01*
X167523973Y-81857660D01*
X167249743Y-82017237D01*
X166946143Y-82193687D01*
X166616373Y-82385159D01*
X166263639Y-82589799D01*
X165891141Y-82805758D01*
X165502084Y-83031182D01*
X165099671Y-83264221D01*
X164687103Y-83503023D01*
X164267585Y-83745735D01*
X163844319Y-83990507D01*
X163420509Y-84235487D01*
X162999357Y-84478823D01*
X162584065Y-84718662D01*
X162177838Y-84953155D01*
X161783878Y-85180448D01*
X161405388Y-85398690D01*
X161045572Y-85606030D01*
X160707631Y-85800615D01*
X160394769Y-85980595D01*
X160110189Y-86144117D01*
X159857094Y-86289329D01*
X159638687Y-86414381D01*
X159458171Y-86517419D01*
X159318749Y-86596594D01*
X159223623Y-86650052D01*
X159175997Y-86675943D01*
X159171002Y-86678168D01*
X159138375Y-86663581D01*
X159059871Y-86622050D01*
X158941463Y-86556922D01*
X158789120Y-86471545D01*
X158608814Y-86369267D01*
X158406516Y-86253434D01*
X158188196Y-86127393D01*
X158179548Y-86122379D01*
X157220934Y-85566591D01*
X153146480Y-87928042D01*
X152689867Y-88192583D01*
X152247003Y-88448961D01*
X151820708Y-88695552D01*
X151413805Y-88930733D01*
X151029113Y-89152878D01*
X150669455Y-89360365D01*
X150337652Y-89551568D01*
X150036525Y-89724864D01*
X149768895Y-89878628D01*
X149537584Y-90011237D01*
X149345412Y-90121066D01*
X149195201Y-90206491D01*
X149089773Y-90265887D01*
X149031948Y-90297632D01*
X149021540Y-90302696D01*
X148986789Y-90290275D01*
X148903937Y-90249399D01*
X148776621Y-90182091D01*
X148608478Y-90090376D01*
X148403144Y-89976278D01*
X148164256Y-89841822D01*
X147895449Y-89689031D01*
X147600360Y-89519929D01*
X147282625Y-89336541D01*
X147203087Y-89290444D01*
X146904748Y-89117466D01*
X146621745Y-88953504D01*
X146358343Y-88801022D01*
X146118808Y-88662483D01*
X145907408Y-88540351D01*
X145728408Y-88437090D01*
X145586075Y-88355165D01*
X145484675Y-88297038D01*
X145428475Y-88265174D01*
X145418277Y-88259700D01*
X145390700Y-88273803D01*
X145314304Y-88316259D01*
X145192207Y-88385275D01*
X145027522Y-88479061D01*
X144823366Y-88595827D01*
X144582854Y-88733780D01*
X144309102Y-88891131D01*
X144005225Y-89066088D01*
X143674339Y-89256861D01*
X143319560Y-89461658D01*
X142944004Y-89678689D01*
X142550784Y-89906163D01*
X142143019Y-90142289D01*
X142123833Y-90153405D01*
X141676273Y-90412380D01*
X141251038Y-90657772D01*
X140850689Y-90888130D01*
X140477788Y-91102003D01*
X140134896Y-91297940D01*
X139824574Y-91474488D01*
X139549383Y-91630198D01*
X139311885Y-91763618D01*
X139114640Y-91873295D01*
X138960210Y-91957780D01*
X138851157Y-92015621D01*
X138790041Y-92045366D01*
X138778026Y-92049247D01*
X138745210Y-92034057D01*
X138663173Y-91990184D01*
X138534586Y-91919158D01*
X138362122Y-91822508D01*
X138240369Y-91753706D01*
X138904977Y-91753706D01*
X138987542Y-91709047D01*
X139022113Y-91689346D01*
X139105874Y-91641105D01*
X139236078Y-91565916D01*
X139409975Y-91465370D01*
X139624817Y-91341061D01*
X139877854Y-91194581D01*
X140166339Y-91027522D01*
X140487522Y-90841475D01*
X140838655Y-90638034D01*
X141216989Y-90418790D01*
X141619775Y-90185335D01*
X142044265Y-89939263D01*
X142487709Y-89682165D01*
X142947360Y-89415632D01*
X143420468Y-89141259D01*
X143438546Y-89130773D01*
X145183558Y-88118698D01*
X145660296Y-88118698D01*
X145685366Y-88135234D01*
X145756996Y-88178776D01*
X145869813Y-88246185D01*
X146018446Y-88334320D01*
X146197521Y-88440041D01*
X146401667Y-88560210D01*
X146625512Y-88691686D01*
X146863684Y-88831328D01*
X147110811Y-88975998D01*
X147361520Y-89122556D01*
X147610439Y-89267861D01*
X147852196Y-89408773D01*
X148081420Y-89542154D01*
X148292737Y-89664862D01*
X148480777Y-89773759D01*
X148640166Y-89865704D01*
X148765532Y-89937557D01*
X148851504Y-89986179D01*
X148892710Y-90008429D01*
X148895343Y-90009497D01*
X148896479Y-89980406D01*
X148897550Y-89895657D01*
X148898543Y-89759639D01*
X148899446Y-89576741D01*
X148900248Y-89351354D01*
X148900935Y-89087865D01*
X148901497Y-88790665D01*
X148901920Y-88464143D01*
X148902193Y-88112687D01*
X148902304Y-87740687D01*
X148902284Y-87496312D01*
X148902280Y-87477865D01*
X149113015Y-87477865D01*
X149113245Y-87859747D01*
X149113913Y-88223883D01*
X149114984Y-88565870D01*
X149116424Y-88881306D01*
X149118197Y-89165788D01*
X149120269Y-89414915D01*
X149122606Y-89624283D01*
X149125173Y-89789491D01*
X149127935Y-89906135D01*
X149130858Y-89969814D01*
X149132701Y-89980769D01*
X149160365Y-89965961D01*
X149237294Y-89922566D01*
X149360814Y-89852129D01*
X149528249Y-89756191D01*
X149736924Y-89636298D01*
X149984163Y-89493992D01*
X150267291Y-89330817D01*
X150583633Y-89148316D01*
X150930514Y-88948033D01*
X151305258Y-88731512D01*
X151705191Y-88500295D01*
X152127636Y-88255927D01*
X152569919Y-87999951D01*
X153029365Y-87733911D01*
X153503297Y-87459349D01*
X153591211Y-87408404D01*
X156991766Y-85437732D01*
X157452351Y-85437732D01*
X158229078Y-85891354D01*
X158424972Y-86005383D01*
X158604222Y-86109005D01*
X158760253Y-86198474D01*
X158886492Y-86270049D01*
X158976364Y-86319985D01*
X159023293Y-86344539D01*
X159028322Y-86346442D01*
X159031756Y-86317379D01*
X159035031Y-86232667D01*
X159038107Y-86096702D01*
X159040944Y-85913882D01*
X159043502Y-85688605D01*
X159045744Y-85425268D01*
X159047627Y-85128268D01*
X159047942Y-85059119D01*
X159296223Y-85059119D01*
X159296662Y-85359959D01*
X159297743Y-85613635D01*
X159299503Y-85823368D01*
X159301982Y-85992380D01*
X159305218Y-86123889D01*
X159309249Y-86221118D01*
X159314115Y-86287286D01*
X159319855Y-86325614D01*
X159326506Y-86339322D01*
X159328386Y-86339252D01*
X159358024Y-86322786D01*
X159436899Y-86277750D01*
X159562311Y-86205709D01*
X159731555Y-86108225D01*
X159941931Y-85986860D01*
X160190736Y-85843177D01*
X160475268Y-85678739D01*
X160792824Y-85495109D01*
X161140702Y-85293848D01*
X161516199Y-85076520D01*
X161916615Y-84844688D01*
X162339246Y-84599914D01*
X162781390Y-84343760D01*
X163240344Y-84077790D01*
X163713407Y-83803566D01*
X163764551Y-83773914D01*
X168163015Y-81223789D01*
X168170693Y-78726865D01*
X168171600Y-78345473D01*
X168171946Y-77981848D01*
X168171759Y-77640395D01*
X168171065Y-77325521D01*
X168169890Y-77041632D01*
X168168261Y-76793132D01*
X168166204Y-76584429D01*
X168163746Y-76419927D01*
X168160914Y-76304032D01*
X168157733Y-76241151D01*
X168155681Y-76230701D01*
X168127662Y-76245552D01*
X168050344Y-76288908D01*
X167926418Y-76359225D01*
X167758573Y-76454957D01*
X167549497Y-76574559D01*
X167301879Y-76716485D01*
X167018408Y-76879191D01*
X166701774Y-77061131D01*
X166354665Y-77260761D01*
X165979771Y-77476534D01*
X165579780Y-77706905D01*
X165157381Y-77950330D01*
X164715264Y-78205263D01*
X164256118Y-78470159D01*
X163782631Y-78743472D01*
X163719516Y-78779915D01*
X159306041Y-81328369D01*
X159298362Y-83841417D01*
X159297111Y-84303069D01*
X159296385Y-84707896D01*
X159296223Y-85059119D01*
X159047942Y-85059119D01*
X159049114Y-84802003D01*
X159050165Y-84450871D01*
X159050740Y-84079268D01*
X159050840Y-83843244D01*
X159050840Y-81338580D01*
X158658672Y-81111093D01*
X158521457Y-81031968D01*
X158403443Y-80964809D01*
X158313950Y-80914850D01*
X158262298Y-80887322D01*
X158253562Y-80883606D01*
X158251274Y-80912818D01*
X158248894Y-80997212D01*
X158246470Y-81131923D01*
X158244051Y-81312084D01*
X158241687Y-81532830D01*
X158239426Y-81789295D01*
X158237318Y-82076615D01*
X158235411Y-82389923D01*
X158233755Y-82724354D01*
X158232904Y-82932719D01*
X158225189Y-84981833D01*
X157985000Y-85122955D01*
X157856775Y-85198398D01*
X157728171Y-85274236D01*
X157621969Y-85337033D01*
X157598581Y-85350904D01*
X157452351Y-85437732D01*
X156991766Y-85437732D01*
X158030036Y-84836039D01*
X158030036Y-82331443D01*
X158030036Y-79826847D01*
X157932459Y-79884073D01*
X157896189Y-79905104D01*
X157810680Y-79954550D01*
X157678701Y-80030812D01*
X157503021Y-80132290D01*
X157286410Y-80257387D01*
X157031636Y-80404504D01*
X156741468Y-80572041D01*
X156418676Y-80758400D01*
X156066030Y-80961982D01*
X155686298Y-81181189D01*
X155282249Y-81414422D01*
X154856652Y-81660082D01*
X154412278Y-81916570D01*
X153951894Y-82182288D01*
X153478271Y-82455636D01*
X153473948Y-82458131D01*
X149113015Y-84974962D01*
X149113015Y-87477865D01*
X148902280Y-87477865D01*
X148901719Y-84981833D01*
X148474447Y-84736437D01*
X148047175Y-84491041D01*
X148032163Y-85605945D01*
X148017152Y-86720848D01*
X147921741Y-86785127D01*
X147875533Y-86813819D01*
X147783352Y-86868957D01*
X147651248Y-86946997D01*
X147485271Y-87044391D01*
X147291467Y-87157596D01*
X147075887Y-87283065D01*
X146844578Y-87417252D01*
X146743313Y-87475867D01*
X146511576Y-87610293D01*
X146296808Y-87735609D01*
X146104411Y-87848607D01*
X145939786Y-87946083D01*
X145808336Y-88024830D01*
X145715462Y-88081641D01*
X145666565Y-88113311D01*
X145660296Y-88118698D01*
X145183558Y-88118698D01*
X147806986Y-86597158D01*
X147814665Y-84100665D01*
X147815599Y-83719285D01*
X147816025Y-83355657D01*
X147815965Y-83014188D01*
X147815441Y-82699287D01*
X147814477Y-82415362D01*
X147813094Y-82166820D01*
X147811314Y-81958070D01*
X147809161Y-81793519D01*
X147806656Y-81677576D01*
X147803821Y-81614649D01*
X147801988Y-81604173D01*
X147774220Y-81618929D01*
X147697131Y-81662169D01*
X147573401Y-81732356D01*
X147405712Y-81827949D01*
X147196745Y-81947409D01*
X146949180Y-82089197D01*
X146665698Y-82251775D01*
X146348981Y-82433602D01*
X146001709Y-82633139D01*
X145626563Y-82848848D01*
X145226224Y-83079189D01*
X144803373Y-83322622D01*
X144360690Y-83577609D01*
X143900858Y-83842610D01*
X143426556Y-84116086D01*
X143344021Y-84163688D01*
X138906410Y-86723204D01*
X138905693Y-89238455D01*
X138904977Y-91753706D01*
X138240369Y-91753706D01*
X138148452Y-91701764D01*
X137896248Y-91558456D01*
X137608181Y-91394113D01*
X137286923Y-91210266D01*
X136935147Y-91008443D01*
X136555523Y-90790176D01*
X136150724Y-90556993D01*
X135723421Y-90310424D01*
X135276285Y-90052000D01*
X134811989Y-89783249D01*
X134333205Y-89505702D01*
X134146230Y-89397204D01*
X129582636Y-86748315D01*
X129574973Y-84032322D01*
X129574521Y-83872295D01*
X129778405Y-83872295D01*
X129778414Y-84103641D01*
X129779039Y-86603109D01*
X134214407Y-89175158D01*
X134690526Y-89451195D01*
X135152680Y-89719016D01*
X135598189Y-89977072D01*
X136024376Y-90223817D01*
X136428563Y-90457705D01*
X136808071Y-90677188D01*
X137160222Y-90880721D01*
X137482339Y-91066757D01*
X137771743Y-91233749D01*
X138025756Y-91380150D01*
X138241700Y-91504415D01*
X138416896Y-91604995D01*
X138548667Y-91680345D01*
X138634335Y-91728918D01*
X138671221Y-91749168D01*
X138672465Y-91749685D01*
X138675831Y-91720778D01*
X138678867Y-91636214D01*
X138681547Y-91500382D01*
X138683843Y-91317672D01*
X138685731Y-91092472D01*
X138687183Y-90829173D01*
X138688173Y-90532163D01*
X138688675Y-90205833D01*
X138688663Y-89854570D01*
X138688111Y-89482765D01*
X138687477Y-89241042D01*
X138679799Y-86729920D01*
X134240098Y-84167047D01*
X133763653Y-83892051D01*
X133301310Y-83625267D01*
X132855742Y-83368236D01*
X132429620Y-83122495D01*
X132025618Y-82889584D01*
X131646408Y-82671041D01*
X131294662Y-82468406D01*
X130973054Y-82283217D01*
X130684256Y-82117013D01*
X130430941Y-81971333D01*
X130215780Y-81847715D01*
X130041448Y-81747700D01*
X129910616Y-81672825D01*
X129825958Y-81624630D01*
X129790145Y-81604653D01*
X129789093Y-81604173D01*
X129787375Y-81633462D01*
X129785750Y-81718393D01*
X129784239Y-81854561D01*
X129782860Y-82037559D01*
X129781631Y-82262983D01*
X129780571Y-82526427D01*
X129779700Y-82823486D01*
X129779036Y-83149753D01*
X129778598Y-83500825D01*
X129778405Y-83872295D01*
X129574521Y-83872295D01*
X129567559Y-81404798D01*
X129928485Y-81404798D01*
X129959638Y-81425518D01*
X130039335Y-81473975D01*
X130164312Y-81548292D01*
X130331304Y-81646590D01*
X130537045Y-81766992D01*
X130778269Y-81907620D01*
X131051712Y-82066596D01*
X131354108Y-82242041D01*
X131682192Y-82432078D01*
X132032699Y-82634829D01*
X132402363Y-82848415D01*
X132787919Y-83070960D01*
X133186102Y-83300585D01*
X133593646Y-83535411D01*
X134007287Y-83773562D01*
X134423759Y-84013159D01*
X134839796Y-84252323D01*
X135252134Y-84489178D01*
X135657507Y-84721845D01*
X136052650Y-84948447D01*
X136434298Y-85167105D01*
X136799184Y-85375941D01*
X137144045Y-85573077D01*
X137465614Y-85756636D01*
X137760627Y-85924739D01*
X138025818Y-86075509D01*
X138257922Y-86207067D01*
X138453674Y-86317536D01*
X138609808Y-86405037D01*
X138723059Y-86467693D01*
X138790162Y-86503626D01*
X138808378Y-86511890D01*
X138838131Y-86495748D01*
X138917183Y-86451136D01*
X139042831Y-86379609D01*
X139212370Y-86282719D01*
X139423097Y-86162022D01*
X139672309Y-86019070D01*
X139957302Y-85855418D01*
X140275373Y-85672619D01*
X140623818Y-85472228D01*
X140999933Y-85255797D01*
X141401015Y-85024882D01*
X141824360Y-84781035D01*
X142267265Y-84525811D01*
X142727026Y-84260763D01*
X143200939Y-83987445D01*
X143258763Y-83954090D01*
X143733648Y-83680058D01*
X144194299Y-83414071D01*
X144638042Y-83157681D01*
X145062201Y-82912440D01*
X145464102Y-82679899D01*
X145841071Y-82461612D01*
X146190432Y-82259129D01*
X146509510Y-82074003D01*
X146795632Y-81907786D01*
X147046122Y-81762030D01*
X147258306Y-81638286D01*
X147429508Y-81538107D01*
X147557054Y-81463044D01*
X147638270Y-81414651D01*
X147670480Y-81394478D01*
X147670928Y-81394007D01*
X147645473Y-81377302D01*
X147571199Y-81332580D01*
X147451363Y-81261718D01*
X147289224Y-81166595D01*
X147088038Y-81049090D01*
X146851062Y-80911080D01*
X146581555Y-80754443D01*
X146282774Y-80581059D01*
X145957976Y-80392804D01*
X145610418Y-80191558D01*
X145243358Y-79979198D01*
X144860053Y-79757603D01*
X144463761Y-79528651D01*
X144057739Y-79294220D01*
X143645245Y-79056188D01*
X143229535Y-78816434D01*
X142813868Y-78576835D01*
X142401501Y-78339270D01*
X142149214Y-78194011D01*
X142601923Y-78194011D01*
X142982705Y-78412733D01*
X143066177Y-78460760D01*
X143197118Y-78536210D01*
X143371005Y-78636471D01*
X143583310Y-78758930D01*
X143829508Y-78900977D01*
X144105073Y-79059999D01*
X144405479Y-79233384D01*
X144726200Y-79418521D01*
X145062710Y-79612799D01*
X145410484Y-79813605D01*
X145690320Y-79975202D01*
X148017152Y-81318948D01*
X148032163Y-82773809D01*
X148047175Y-84228669D01*
X148522923Y-84503897D01*
X148998671Y-84779125D01*
X149499569Y-84490171D01*
X149583541Y-84441720D01*
X149716196Y-84365166D01*
X149894215Y-84262424D01*
X150114277Y-84135412D01*
X150373060Y-83986046D01*
X150667245Y-83816244D01*
X150993512Y-83627920D01*
X151348538Y-83422993D01*
X151729005Y-83203379D01*
X152131591Y-82970995D01*
X152552976Y-82727757D01*
X152989839Y-82475581D01*
X153438860Y-82216386D01*
X153896719Y-81952086D01*
X153953191Y-81919488D01*
X154506049Y-81600194D01*
X155008704Y-81309556D01*
X155463085Y-81046432D01*
X155871121Y-80809680D01*
X156234743Y-80598157D01*
X156555878Y-80410724D01*
X156836456Y-80246237D01*
X157078407Y-80103555D01*
X157283660Y-79981537D01*
X157454144Y-79879041D01*
X157591789Y-79794924D01*
X157698524Y-79728046D01*
X157776278Y-79677264D01*
X157826980Y-79641437D01*
X157852561Y-79619423D01*
X157855386Y-79610284D01*
X157824307Y-79592533D01*
X157743940Y-79546336D01*
X157617005Y-79473262D01*
X157446223Y-79374880D01*
X157234313Y-79252759D01*
X156983995Y-79108466D01*
X156697991Y-78943571D01*
X156379019Y-78759641D01*
X156029801Y-78558246D01*
X155653056Y-78340954D01*
X155251504Y-78109334D01*
X154827866Y-77864953D01*
X154384862Y-77609381D01*
X153925211Y-77344187D01*
X153451635Y-77070938D01*
X153413038Y-77048667D01*
X152938811Y-76775220D01*
X152478394Y-76510106D01*
X152034497Y-76254870D01*
X151609827Y-76011053D01*
X151207095Y-75780200D01*
X150829007Y-75563852D01*
X150654590Y-75464245D01*
X151220619Y-75464245D01*
X151224691Y-75475165D01*
X151250478Y-75497781D01*
X151300119Y-75533362D01*
X151375752Y-75583178D01*
X151479517Y-75648498D01*
X151613552Y-75730592D01*
X151779996Y-75830729D01*
X151980987Y-75950180D01*
X152218665Y-76090213D01*
X152495168Y-76252099D01*
X152812635Y-76437107D01*
X153173205Y-76646506D01*
X153579016Y-76881566D01*
X154032208Y-77143557D01*
X154534918Y-77433749D01*
X154658326Y-77504935D01*
X155080247Y-77748402D01*
X155488279Y-77984077D01*
X155879349Y-78210175D01*
X156250382Y-78424909D01*
X156598303Y-78626491D01*
X156920037Y-78813135D01*
X157212511Y-78983054D01*
X157472650Y-79134462D01*
X157697379Y-79265572D01*
X157883625Y-79374596D01*
X158028311Y-79459748D01*
X158128365Y-79519242D01*
X158180711Y-79551290D01*
X158187660Y-79556074D01*
X158207245Y-79579471D01*
X158221334Y-79616279D01*
X158230801Y-79675612D01*
X158236518Y-79766583D01*
X158239358Y-79898306D01*
X158240194Y-80079896D01*
X158240201Y-80104615D01*
X158240201Y-80607334D01*
X158683050Y-80864618D01*
X158831486Y-80949584D01*
X158963627Y-81022832D01*
X159070073Y-81079340D01*
X159141423Y-81114086D01*
X159166419Y-81122849D01*
X159196385Y-81108182D01*
X159275628Y-81065005D01*
X159401442Y-80994865D01*
X159571120Y-80899309D01*
X159781955Y-80779884D01*
X160031242Y-80638136D01*
X160316272Y-80475612D01*
X160634341Y-80293859D01*
X160982741Y-80094424D01*
X161358766Y-79878852D01*
X161759709Y-79648692D01*
X162182864Y-79405489D01*
X162625524Y-79150791D01*
X163084983Y-78886144D01*
X163558535Y-78613095D01*
X163609918Y-78583451D01*
X164084693Y-78309476D01*
X164545484Y-78043476D01*
X164989593Y-77787012D01*
X165414324Y-77541645D01*
X165816981Y-77308936D01*
X166194870Y-77090444D01*
X166545292Y-76887730D01*
X166865553Y-76702356D01*
X167152956Y-76535881D01*
X167404805Y-76389866D01*
X167618404Y-76265872D01*
X167791058Y-76165459D01*
X167920070Y-76090189D01*
X168002744Y-76041620D01*
X168036384Y-76021315D01*
X168036969Y-76020879D01*
X168013715Y-76004163D01*
X167941652Y-75959389D01*
X167824023Y-75888434D01*
X167664072Y-75793177D01*
X167465041Y-75675497D01*
X167230174Y-75537272D01*
X166962715Y-75380380D01*
X166665907Y-75206700D01*
X166342993Y-75018110D01*
X165997215Y-74816489D01*
X165631819Y-74603715D01*
X165250046Y-74381667D01*
X164855141Y-74152222D01*
X164450346Y-73917259D01*
X164038905Y-73678657D01*
X163624060Y-73438294D01*
X163209057Y-73198049D01*
X162797136Y-72959799D01*
X162391543Y-72725424D01*
X161995520Y-72496802D01*
X161612311Y-72275810D01*
X161245158Y-72064328D01*
X160897306Y-71864234D01*
X160571997Y-71677406D01*
X160272474Y-71505723D01*
X160001982Y-71351063D01*
X159849906Y-71264397D01*
X160311833Y-71264397D01*
X164334543Y-73585918D01*
X164788266Y-73847884D01*
X165227970Y-74101993D01*
X165650826Y-74346598D01*
X166054004Y-74580053D01*
X166434676Y-74800714D01*
X166790012Y-75006933D01*
X167117184Y-75197064D01*
X167413361Y-75369462D01*
X167675715Y-75522480D01*
X167901416Y-75654473D01*
X168087636Y-75763795D01*
X168231544Y-75848799D01*
X168330313Y-75907840D01*
X168381113Y-75939271D01*
X168387525Y-75943913D01*
X168394188Y-75982050D01*
X168400321Y-76078888D01*
X168405899Y-76233084D01*
X168410899Y-76443294D01*
X168415294Y-76708174D01*
X168419062Y-77026382D01*
X168422178Y-77396573D01*
X168424617Y-77817403D01*
X168425512Y-78029572D01*
X168433227Y-80078756D01*
X168808523Y-80299804D01*
X168943314Y-80378401D01*
X169059854Y-80444857D01*
X169148351Y-80493702D01*
X169199010Y-80519467D01*
X169206508Y-80522087D01*
X169209875Y-80492988D01*
X169212912Y-80408236D01*
X169215592Y-80272225D01*
X169217889Y-80089349D01*
X169219777Y-79864002D01*
X169221228Y-79600577D01*
X169222217Y-79303468D01*
X169222718Y-78977069D01*
X169222713Y-78835812D01*
X169445090Y-78835812D01*
X169445487Y-79197632D01*
X169446536Y-79522669D01*
X169448213Y-79807665D01*
X169450491Y-80049364D01*
X169453346Y-80244507D01*
X169456751Y-80389837D01*
X169460683Y-80482096D01*
X169465115Y-80518027D01*
X169465780Y-80518375D01*
X169494257Y-80502483D01*
X169572002Y-80458030D01*
X169696328Y-80386570D01*
X169864554Y-80289652D01*
X170073992Y-80168830D01*
X170321960Y-80025655D01*
X170605773Y-79861679D01*
X170922746Y-79678454D01*
X171270195Y-79477531D01*
X171645436Y-79260463D01*
X172045783Y-79028800D01*
X172468554Y-78784095D01*
X172911062Y-78527900D01*
X173370624Y-78261766D01*
X173844555Y-77987246D01*
X173923884Y-77941289D01*
X178354884Y-75374268D01*
X178355462Y-72874799D01*
X178355424Y-72493185D01*
X178355143Y-72129320D01*
X178354636Y-71787610D01*
X178353921Y-71472460D01*
X178353016Y-71188275D01*
X178351939Y-70939462D01*
X178350708Y-70730425D01*
X178349341Y-70565570D01*
X178347857Y-70449302D01*
X178346272Y-70386027D01*
X178345278Y-70375331D01*
X178318554Y-70390090D01*
X178242504Y-70433341D01*
X178119800Y-70503544D01*
X177953113Y-70599162D01*
X177745117Y-70718656D01*
X177498482Y-70860487D01*
X177215882Y-71023117D01*
X176899989Y-71205006D01*
X176553474Y-71404616D01*
X176179009Y-71620409D01*
X175779268Y-71850845D01*
X175356921Y-72094387D01*
X174914642Y-72349495D01*
X174455102Y-72614630D01*
X173980974Y-72888255D01*
X173894273Y-72938299D01*
X169454031Y-75501266D01*
X169446353Y-78014853D01*
X169445370Y-78440466D01*
X169445090Y-78835812D01*
X169222713Y-78835812D01*
X169222705Y-78625774D01*
X169222150Y-78253976D01*
X169221519Y-78013955D01*
X169213842Y-75504589D01*
X164950485Y-73043071D01*
X164480517Y-72771744D01*
X164022787Y-72507513D01*
X163580176Y-72252040D01*
X163155563Y-72006987D01*
X162751828Y-71774013D01*
X162371852Y-71554781D01*
X162018514Y-71350952D01*
X161694695Y-71164185D01*
X161403274Y-70996144D01*
X161147132Y-70848489D01*
X160929148Y-70722880D01*
X160752203Y-70620980D01*
X160619177Y-70544448D01*
X160532950Y-70494947D01*
X160499480Y-70475858D01*
X160311833Y-70370163D01*
X160311833Y-70817280D01*
X160311833Y-71264397D01*
X159849906Y-71264397D01*
X159763763Y-71215305D01*
X159561061Y-71100327D01*
X159397118Y-71008007D01*
X159275179Y-70940224D01*
X159198486Y-70898856D01*
X159170527Y-70885733D01*
X159141579Y-70900436D01*
X159064110Y-70943220D01*
X158941574Y-71012093D01*
X158777425Y-71105068D01*
X158575119Y-71220153D01*
X158338110Y-71355361D01*
X158069853Y-71508701D01*
X157773802Y-71678183D01*
X157453411Y-71861818D01*
X157112136Y-72057617D01*
X156753431Y-72263590D01*
X156380750Y-72477747D01*
X155997548Y-72698099D01*
X155607280Y-72922656D01*
X155213400Y-73149429D01*
X154819363Y-73376428D01*
X154428624Y-73601663D01*
X154044636Y-73823146D01*
X153670855Y-74038886D01*
X153310735Y-74246893D01*
X152967731Y-74445179D01*
X152645297Y-74631754D01*
X152346888Y-74804628D01*
X152075958Y-74961811D01*
X151835963Y-75101315D01*
X151630356Y-75221149D01*
X151462593Y-75319323D01*
X151336127Y-75393850D01*
X151254413Y-75442738D01*
X151220907Y-75463998D01*
X151220619Y-75464245D01*
X150654590Y-75464245D01*
X150478273Y-75363553D01*
X150157600Y-75180846D01*
X149869699Y-75017275D01*
X149617276Y-74874381D01*
X149403041Y-74753709D01*
X149229702Y-74656801D01*
X149099968Y-74585200D01*
X149016547Y-74540449D01*
X148982148Y-74524091D01*
X148981551Y-74524064D01*
X148950986Y-74540017D01*
X148871644Y-74584194D01*
X148746728Y-74654759D01*
X148579441Y-74749875D01*
X148372987Y-74867707D01*
X148130569Y-75006419D01*
X147855392Y-75164173D01*
X147550658Y-75339134D01*
X147219571Y-75529465D01*
X146865334Y-75733331D01*
X146491152Y-75948894D01*
X146100228Y-76174320D01*
X145771903Y-76363808D01*
X142601923Y-78194011D01*
X142149214Y-78194011D01*
X141995690Y-78105617D01*
X141599694Y-77877755D01*
X141216770Y-77657561D01*
X140850176Y-77446914D01*
X140503168Y-77247691D01*
X140179004Y-77061772D01*
X139880942Y-76891034D01*
X139612239Y-76737356D01*
X139376152Y-76602615D01*
X139175939Y-76488690D01*
X139014857Y-76397459D01*
X138896164Y-76330801D01*
X138823117Y-76290593D01*
X138799134Y-76278576D01*
X138767864Y-76292734D01*
X138688270Y-76335070D01*
X138563598Y-76403708D01*
X138397094Y-76496774D01*
X138192004Y-76612391D01*
X137951573Y-76748684D01*
X137679047Y-76903778D01*
X137377672Y-77075796D01*
X137050693Y-77262862D01*
X136701357Y-77463102D01*
X136332908Y-77674640D01*
X135948593Y-77895599D01*
X135551657Y-78124105D01*
X135145346Y-78358282D01*
X134732906Y-78596253D01*
X134317582Y-78836144D01*
X133902620Y-79076078D01*
X133491266Y-79314181D01*
X133086766Y-79548576D01*
X132692364Y-79777388D01*
X132311308Y-79998741D01*
X131946842Y-80210759D01*
X131602213Y-80411567D01*
X131280665Y-80599290D01*
X130985446Y-80772051D01*
X130719799Y-80927975D01*
X130486972Y-81065186D01*
X130290210Y-81181808D01*
X130132758Y-81275967D01*
X130017863Y-81345786D01*
X129948769Y-81389389D01*
X129928485Y-81404798D01*
X129567559Y-81404798D01*
X129567309Y-81316329D01*
X134155772Y-78668052D01*
X134640757Y-78388290D01*
X135112044Y-78116725D01*
X135566979Y-77854876D01*
X136002907Y-77604257D01*
X136417175Y-77366386D01*
X136807127Y-77142779D01*
X137170109Y-76934953D01*
X137503468Y-76744424D01*
X137804547Y-76572708D01*
X138070694Y-76421323D01*
X138299253Y-76291784D01*
X138487570Y-76185608D01*
X138632991Y-76104311D01*
X138732862Y-76049411D01*
X138784528Y-76022422D01*
X138791219Y-76019776D01*
X138824692Y-76034442D01*
X138905642Y-76076774D01*
X139029623Y-76144276D01*
X139192191Y-76234449D01*
X139388902Y-76344795D01*
X139615311Y-76472818D01*
X139866974Y-76616019D01*
X140139445Y-76771901D01*
X140428280Y-76937967D01*
X140545408Y-77005534D01*
X140840245Y-77175735D01*
X141120889Y-77337663D01*
X141382830Y-77488720D01*
X141621552Y-77626308D01*
X141832545Y-77747827D01*
X142011294Y-77850678D01*
X142153287Y-77932264D01*
X142254010Y-77989984D01*
X142308952Y-78021241D01*
X142316845Y-78025617D01*
X142330501Y-78028285D01*
X142353254Y-78024625D01*
X142387758Y-78013160D01*
X142436668Y-77992416D01*
X142502639Y-77960916D01*
X142588326Y-77917184D01*
X142696383Y-77859746D01*
X142829465Y-77787124D01*
X142990228Y-77697843D01*
X143181326Y-77590428D01*
X143405414Y-77463402D01*
X143665146Y-77315290D01*
X143963178Y-77144615D01*
X144302164Y-76949903D01*
X144684760Y-76729678D01*
X145113619Y-76482462D01*
X145591397Y-76206782D01*
X145660205Y-76167064D01*
X146069536Y-75930980D01*
X146464939Y-75703324D01*
X146843253Y-75485897D01*
X147201316Y-75280499D01*
X147535966Y-75088930D01*
X147844042Y-74912992D01*
X148122380Y-74754484D01*
X148367820Y-74615208D01*
X148577199Y-74496964D01*
X148747356Y-74401552D01*
X148875128Y-74330773D01*
X148957354Y-74286427D01*
X148990871Y-74270316D01*
X148991091Y-74270287D01*
X149028218Y-74283958D01*
X149111021Y-74324582D01*
X149233330Y-74388813D01*
X149388980Y-74473304D01*
X149571802Y-74574707D01*
X149775630Y-74689677D01*
X149989841Y-74812296D01*
X150936833Y-75358204D01*
X154971318Y-73029194D01*
X155426611Y-72766395D01*
X155868531Y-72511374D01*
X156294204Y-72265786D01*
X156700758Y-72031288D01*
X157085317Y-71809535D01*
X157445008Y-71602183D01*
X157776957Y-71410887D01*
X158078288Y-71237305D01*
X158346130Y-71083090D01*
X158577606Y-70949900D01*
X158769844Y-70839390D01*
X158919969Y-70753216D01*
X159025107Y-70693033D01*
X159082384Y-70660498D01*
X159091678Y-70655370D01*
X159124617Y-70640128D01*
X159157314Y-70634233D01*
X159198432Y-70641150D01*
X159256634Y-70664345D01*
X159340583Y-70707282D01*
X159458944Y-70773429D01*
X159620379Y-70866250D01*
X159623825Y-70868239D01*
X159770841Y-70952645D01*
X159899242Y-71025448D01*
X160000269Y-71081756D01*
X160065162Y-71116675D01*
X160085174Y-71125922D01*
X160090538Y-71097513D01*
X160096030Y-71018736D01*
X160101217Y-70899270D01*
X160105661Y-70748791D01*
X160108464Y-70608015D01*
X160112237Y-70370163D01*
X160115555Y-70160964D01*
X160457178Y-70160964D01*
X160480956Y-70177285D01*
X160553523Y-70221699D01*
X160671633Y-70292328D01*
X160832044Y-70387292D01*
X161031512Y-70504712D01*
X161266791Y-70642710D01*
X161534640Y-70799407D01*
X161831812Y-70972923D01*
X162155065Y-71161380D01*
X162501154Y-71362900D01*
X162866836Y-71575602D01*
X163248866Y-71797609D01*
X163644001Y-72027041D01*
X164048997Y-72262019D01*
X164460608Y-72500665D01*
X164875593Y-72741100D01*
X165290706Y-72981445D01*
X165702704Y-73219820D01*
X166108342Y-73454347D01*
X166504377Y-73683148D01*
X166887564Y-73904342D01*
X167254661Y-74116052D01*
X167602422Y-74316399D01*
X167927604Y-74503503D01*
X168226962Y-74675486D01*
X168497254Y-74830468D01*
X168735234Y-74966571D01*
X168937659Y-75081917D01*
X169101285Y-75174625D01*
X169222868Y-75242817D01*
X169299164Y-75284615D01*
X169326750Y-75298164D01*
X169354785Y-75283514D01*
X169432126Y-75240362D01*
X169556089Y-75170250D01*
X169723989Y-75074718D01*
X169933141Y-74955309D01*
X170180859Y-74813561D01*
X170464459Y-74651018D01*
X170781256Y-74469219D01*
X171128565Y-74269706D01*
X171503700Y-74054019D01*
X171903977Y-73823699D01*
X172326711Y-73580288D01*
X172769217Y-73325326D01*
X173228809Y-73060355D01*
X173702803Y-72786915D01*
X173777755Y-72743662D01*
X174253505Y-72468988D01*
X174715013Y-72202316D01*
X175159611Y-71945196D01*
X175584630Y-71699183D01*
X175987400Y-71465826D01*
X176365254Y-71246679D01*
X176715522Y-71043293D01*
X177035536Y-70857220D01*
X177322626Y-70690012D01*
X177574124Y-70543221D01*
X177787361Y-70418399D01*
X177959669Y-70317099D01*
X178088378Y-70240871D01*
X178170820Y-70191268D01*
X178204326Y-70169842D01*
X178204967Y-70169134D01*
X178179282Y-70151411D01*
X178104717Y-70105779D01*
X177984532Y-70034113D01*
X177821988Y-69938287D01*
X177620346Y-69820176D01*
X177382865Y-69681653D01*
X177112807Y-69524594D01*
X176813433Y-69350873D01*
X176488001Y-69162363D01*
X176139774Y-68960941D01*
X175772012Y-68748479D01*
X175387975Y-68526852D01*
X174990924Y-68297936D01*
X174584118Y-68063603D01*
X174170820Y-67825729D01*
X173754289Y-67586188D01*
X173337786Y-67346854D01*
X172924571Y-67109602D01*
X172517905Y-66876306D01*
X172121048Y-66648840D01*
X171737262Y-66429080D01*
X171369806Y-66218898D01*
X171021941Y-66020171D01*
X170696927Y-65834771D01*
X170398026Y-65664574D01*
X170128497Y-65511454D01*
X170063982Y-65474915D01*
X169891602Y-65377286D01*
X169690600Y-65263943D01*
X169528752Y-65173300D01*
X169409319Y-65107231D01*
X169335561Y-65067612D01*
X169310859Y-65056129D01*
X169281554Y-65071882D01*
X169203537Y-65115795D01*
X169080083Y-65185981D01*
X168914468Y-65280550D01*
X168709967Y-65397614D01*
X168469855Y-65535285D01*
X168197408Y-65691674D01*
X167895902Y-65864893D01*
X167568611Y-66053053D01*
X167218811Y-66254265D01*
X166849779Y-66466640D01*
X166464788Y-66688292D01*
X166067114Y-66917330D01*
X165660034Y-67151866D01*
X165246822Y-67390013D01*
X164830753Y-67629880D01*
X164415104Y-67869580D01*
X164003150Y-68107224D01*
X163598165Y-68340924D01*
X163203426Y-68568791D01*
X162822208Y-68788937D01*
X162457786Y-68999472D01*
X162113436Y-69198509D01*
X161792433Y-69384159D01*
X161498053Y-69554533D01*
X161233570Y-69707743D01*
X161002262Y-69841901D01*
X160807402Y-69955117D01*
X160652266Y-70045503D01*
X160540130Y-70111171D01*
X160474270Y-70150232D01*
X160457178Y-70160964D01*
X160115555Y-70160964D01*
X160116679Y-70090107D01*
X164706733Y-67440520D01*
X165191610Y-67160737D01*
X165662659Y-66889148D01*
X166117236Y-66627269D01*
X166552694Y-66376616D01*
X166966391Y-66138703D01*
X167355681Y-65915045D01*
X167717920Y-65707159D01*
X168050462Y-65516559D01*
X168350665Y-65344761D01*
X168615882Y-65193279D01*
X168843470Y-65063630D01*
X169030784Y-64957329D01*
X169175180Y-64875890D01*
X169274012Y-64820830D01*
X169324636Y-64793663D01*
X169330916Y-64790934D01*
X169366835Y-64805334D01*
X169445531Y-64845305D01*
X169558003Y-64906001D01*
X169695253Y-64982579D01*
X169829869Y-65059538D01*
X170294693Y-65328142D01*
X170307882Y-63853707D01*
X170549894Y-63853707D01*
X170549894Y-65474915D01*
X174550544Y-67783996D01*
X178551194Y-70093078D01*
X178566206Y-70987640D01*
X178581218Y-71882201D01*
X179001549Y-72131774D01*
X179144276Y-72215893D01*
X179269074Y-72288262D01*
X179366787Y-72343665D01*
X179428254Y-72376885D01*
X179444569Y-72384131D01*
X179444596Y-72383896D01*
X179447934Y-72355271D01*
X179450969Y-72270752D01*
X179453648Y-72134960D01*
X179455944Y-71952283D01*
X179457832Y-71727108D01*
X179459284Y-71463821D01*
X179460275Y-71166811D01*
X179460778Y-70840464D01*
X179460768Y-70489167D01*
X179460218Y-70117307D01*
X179459581Y-69874011D01*
X179459568Y-69869678D01*
X179677081Y-69869678D01*
X179677081Y-72383896D01*
X180104918Y-72135759D01*
X180179724Y-72092387D01*
X180303286Y-72020766D01*
X180472401Y-71922752D01*
X180683869Y-71800198D01*
X180934489Y-71654961D01*
X181221059Y-71488895D01*
X181540379Y-71303855D01*
X181889247Y-71101695D01*
X182264462Y-70884272D01*
X182662823Y-70653440D01*
X183081129Y-70411053D01*
X183516179Y-70158968D01*
X183964771Y-69899038D01*
X184423705Y-69633119D01*
X184563428Y-69552161D01*
X188594102Y-67216700D01*
X188594102Y-64712193D01*
X188594102Y-62207686D01*
X188449719Y-62290859D01*
X188408211Y-62314803D01*
X188317525Y-62367140D01*
X188180485Y-62446239D01*
X187999916Y-62550471D01*
X187778642Y-62678204D01*
X187519487Y-62827808D01*
X187225276Y-62997652D01*
X186898834Y-63186107D01*
X186542983Y-63391541D01*
X186160550Y-63612324D01*
X185754358Y-63846826D01*
X185327232Y-64093416D01*
X184881996Y-64350463D01*
X184421474Y-64616337D01*
X183991208Y-64864745D01*
X179677081Y-67355459D01*
X179677081Y-69869678D01*
X179459568Y-69869678D01*
X179451903Y-67361108D01*
X175038428Y-64812269D01*
X174562974Y-64537724D01*
X174101353Y-64271238D01*
X173656268Y-64014367D01*
X173230420Y-63768667D01*
X172826510Y-63535696D01*
X172447240Y-63317008D01*
X172095311Y-63114162D01*
X171773425Y-62928712D01*
X171484284Y-62762215D01*
X171230587Y-62616228D01*
X171015038Y-62492308D01*
X170840337Y-62392009D01*
X170709187Y-62316889D01*
X170624287Y-62268504D01*
X170588340Y-62248411D01*
X170587424Y-62247966D01*
X170578952Y-62255727D01*
X170571774Y-62289169D01*
X170565797Y-62352216D01*
X170560931Y-62448793D01*
X170557083Y-62582825D01*
X170554162Y-62758237D01*
X170552075Y-62978955D01*
X170550732Y-63248903D01*
X170550040Y-63572006D01*
X170549894Y-63853707D01*
X170307882Y-63853707D01*
X170309705Y-63649912D01*
X170313687Y-63264293D01*
X170318307Y-62923409D01*
X170323508Y-62629509D01*
X170329228Y-62384841D01*
X170335409Y-62191652D01*
X170341991Y-62052192D01*
X170342348Y-62047886D01*
G37*
D10*
X301283435Y-45953405D02*
X301283435Y-45053405D01*
X301283435Y-45053405D02*
X300683435Y-44453405D01*
X300683435Y-44453405D02*
X299333435Y-44453405D01*
X299333435Y-45953405D02*
X301283435Y-45953405D01*
D14*
X174054685Y-36066530D02*
X174054685Y-35016530D01*
X176554685Y-36066530D02*
X174054685Y-36066530D01*
X174054685Y-35016530D02*
X173064685Y-35016530D01*
X178524685Y-34896530D02*
X178524685Y-31016530D01*
X174054685Y-29846530D02*
X174054685Y-30896530D01*
X176554685Y-29846530D02*
X174054685Y-29846530D01*
X175054685Y-36066530D02*
X174054685Y-36066530D01*
X174054685Y-35016530D01*
X175054685Y-36066530D01*
G36*
X175054685Y-36066530D02*
G01*
X174054685Y-36066530D01*
X174054685Y-35016530D01*
X175054685Y-36066530D01*
G37*
X174054685Y-35256530D02*
X173064685Y-35256530D01*
X173064685Y-35016530D01*
X174054685Y-35016530D01*
X174054685Y-35256530D01*
G36*
X174054685Y-35256530D02*
G01*
X173064685Y-35256530D01*
X173064685Y-35016530D01*
X174054685Y-35016530D01*
X174054685Y-35256530D01*
G37*
X156273829Y-102424601D02*
G75*
G03*
X156273199Y-103979862I2897166J-778804D01*
G01*
X158396872Y-100306195D02*
G75*
G03*
X157049660Y-101083279I774103J-2898400D01*
G01*
X157047937Y-105323008D02*
G75*
G03*
X158394518Y-106101184I2123036J2119600D01*
G01*
X161294056Y-101083800D02*
G75*
G03*
X159947475Y-100305623I-2123041J-2119605D01*
G01*
X159945095Y-106102997D02*
G75*
G03*
X161292306Y-105325911I-774110J2898402D01*
G01*
X162068163Y-103982200D02*
G75*
G03*
X162068793Y-102426938I-2897138J778805D01*
G01*
D10*
X78308435Y-111965905D02*
X79208435Y-111965905D01*
X79208435Y-111965905D02*
X79808435Y-111365905D01*
X79808435Y-111365905D02*
X79808435Y-110015905D01*
X78308435Y-110015905D02*
X78308435Y-111965905D01*
X187845935Y-111965905D02*
X188745935Y-111965905D01*
X188745935Y-111965905D02*
X189345935Y-111365905D01*
X189345935Y-111365905D02*
X189345935Y-110015905D01*
X187845935Y-110015905D02*
X187845935Y-111965905D01*
D14*
X162280935Y-56172780D02*
X161230935Y-56172780D01*
X162280935Y-53672780D02*
X162280935Y-56172780D01*
X161230935Y-56172780D02*
X161230935Y-57162780D01*
X161110935Y-51702780D02*
X157230935Y-51702780D01*
X156060935Y-56172780D02*
X157110935Y-56172780D01*
X156060935Y-53672780D02*
X156060935Y-56172780D01*
X162280935Y-56172780D02*
X161230935Y-56172780D01*
X162280935Y-55172780D01*
X162280935Y-56172780D01*
G36*
X162280935Y-56172780D02*
G01*
X161230935Y-56172780D01*
X162280935Y-55172780D01*
X162280935Y-56172780D01*
G37*
X161470935Y-57162780D02*
X161230935Y-57162780D01*
X161230935Y-56172780D01*
X161470935Y-56172780D01*
X161470935Y-57162780D01*
G36*
X161470935Y-57162780D02*
G01*
X161230935Y-57162780D01*
X161230935Y-56172780D01*
X161470935Y-56172780D01*
X161470935Y-57162780D01*
G37*
D10*
X48870935Y-20950280D02*
X48870935Y-20050280D01*
X48870935Y-20050280D02*
X48270935Y-19450280D01*
X48270935Y-19450280D02*
X46920935Y-19450280D01*
X46920935Y-20950280D02*
X48870935Y-20950280D01*
X239370935Y-20950280D02*
X239370935Y-20050280D01*
X239370935Y-20050280D02*
X238770935Y-19450280D01*
X238770935Y-19450280D02*
X237420935Y-19450280D01*
X237420935Y-20950280D02*
X239370935Y-20950280D01*
X25058435Y-92978405D02*
X25058435Y-92078405D01*
X25058435Y-92078405D02*
X24458435Y-91478405D01*
X24458435Y-91478405D02*
X23108435Y-91478405D01*
X23108435Y-92978405D02*
X25058435Y-92978405D01*
X286995935Y-20950280D02*
X286995935Y-20050280D01*
X286995935Y-20050280D02*
X286395935Y-19450280D01*
X286395935Y-19450280D02*
X285045935Y-19450280D01*
X285045935Y-20950280D02*
X286995935Y-20950280D01*
D14*
X144287185Y-40562155D02*
X144287185Y-41612155D01*
X141787185Y-40562155D02*
X144287185Y-40562155D01*
X144287185Y-41612155D02*
X145277185Y-41612155D01*
X139817185Y-41732155D02*
X139817185Y-45612155D01*
X144287185Y-46782155D02*
X144287185Y-45732155D01*
X141787185Y-46782155D02*
X144287185Y-46782155D01*
X144287185Y-41612155D02*
X143287185Y-40562155D01*
X144287185Y-40562155D01*
X144287185Y-41612155D01*
G36*
X144287185Y-41612155D02*
G01*
X143287185Y-40562155D01*
X144287185Y-40562155D01*
X144287185Y-41612155D01*
G37*
X145277185Y-41612155D02*
X144287185Y-41612155D01*
X144287185Y-41372155D01*
X145277185Y-41372155D01*
X145277185Y-41612155D01*
G36*
X145277185Y-41612155D02*
G01*
X144287185Y-41612155D01*
X144287185Y-41372155D01*
X145277185Y-41372155D01*
X145277185Y-41612155D01*
G37*
X171805935Y-54982155D02*
X170755935Y-54982155D01*
X171805935Y-52482155D02*
X171805935Y-54982155D01*
X170755935Y-54982155D02*
X170755935Y-55972155D01*
X170635935Y-50512155D02*
X166755935Y-50512155D01*
X165585935Y-54982155D02*
X166635935Y-54982155D01*
X165585935Y-52482155D02*
X165585935Y-54982155D01*
X171805935Y-54982155D02*
X170755935Y-54982155D01*
X171805935Y-53982155D01*
X171805935Y-54982155D01*
G36*
X171805935Y-54982155D02*
G01*
X170755935Y-54982155D01*
X171805935Y-53982155D01*
X171805935Y-54982155D01*
G37*
X170995935Y-55972155D02*
X170755935Y-55972155D01*
X170755935Y-54982155D01*
X170995935Y-54982155D01*
X170995935Y-55972155D01*
G36*
X170995935Y-55972155D02*
G01*
X170755935Y-55972155D01*
X170755935Y-54982155D01*
X170995935Y-54982155D01*
X170995935Y-55972155D01*
G37*
D10*
X191745935Y-20950280D02*
X191745935Y-20050280D01*
X191745935Y-20050280D02*
X191145935Y-19450280D01*
X191145935Y-19450280D02*
X189795935Y-19450280D01*
X189795935Y-20950280D02*
X191745935Y-20950280D01*
X283095935Y-111965905D02*
X283995935Y-111965905D01*
X283995935Y-111965905D02*
X284595935Y-111365905D01*
X284595935Y-111365905D02*
X284595935Y-110015905D01*
X283095935Y-110015905D02*
X283095935Y-111965905D01*
X25377185Y-45953405D02*
X25377185Y-45053405D01*
X25377185Y-45053405D02*
X24777185Y-44453405D01*
X24777185Y-44453405D02*
X23427185Y-44453405D01*
X23427185Y-45953405D02*
X25377185Y-45953405D01*
X130695935Y-111965905D02*
X131595935Y-111965905D01*
X131595935Y-111965905D02*
X132195935Y-111365905D01*
X132195935Y-111365905D02*
X132195935Y-110015905D01*
X130695935Y-110015905D02*
X130695935Y-111965905D01*
X36195935Y-111965905D02*
X37095935Y-111965905D01*
X37095935Y-111965905D02*
X37695935Y-111365905D01*
X37695935Y-111365905D02*
X37695935Y-110015905D01*
X36195935Y-110015905D02*
X36195935Y-111965905D01*
X134595935Y-20950280D02*
X134595935Y-20050280D01*
X134595935Y-20050280D02*
X133995935Y-19450280D01*
X133995935Y-19450280D02*
X132645935Y-19450280D01*
X132645935Y-20950280D02*
X134595935Y-20950280D01*
X301283435Y-92578405D02*
X301283435Y-91678405D01*
X301283435Y-91678405D02*
X300683435Y-91078405D01*
X300683435Y-91078405D02*
X299333435Y-91078405D01*
X299333435Y-92578405D02*
X301283435Y-92578405D01*
X236661560Y-111965905D02*
X237561560Y-111965905D01*
X237561560Y-111965905D02*
X238161560Y-111365905D01*
X238161560Y-111365905D02*
X238161560Y-110015905D01*
X236661560Y-110015905D02*
X236661560Y-111965905D01*
%LPC*%
D15*
X230291695Y-84153685D03*
D16*
X231561695Y-81613685D03*
D17*
X235371695Y-84153685D03*
D16*
X237911695Y-79073685D03*
D15*
X240451695Y-84153685D03*
X249341775Y-84153685D03*
D16*
X250611775Y-81613685D03*
D17*
X254421775Y-84153685D03*
D16*
X256961775Y-79073685D03*
D15*
X259501775Y-84153685D03*
X49315935Y-65103565D03*
D16*
X50585935Y-62563565D03*
D17*
X54395935Y-65103565D03*
D16*
X56935935Y-60023565D03*
D15*
X59475935Y-65103565D03*
X96940935Y-84153645D03*
D16*
X98210935Y-81613645D03*
D17*
X102020935Y-84153645D03*
D16*
X104560935Y-79073645D03*
D15*
X107100935Y-84153645D03*
X87415935Y-65103565D03*
D16*
X88685935Y-62563565D03*
D17*
X92495935Y-65103565D03*
D16*
X95035935Y-60023565D03*
D15*
X97575935Y-65103565D03*
X268392015Y-103203725D03*
D16*
X269662015Y-100663725D03*
D17*
X273472015Y-103203725D03*
D16*
X276012015Y-98123725D03*
D15*
X278552015Y-103203725D03*
X87415935Y-46053485D03*
D16*
X88685935Y-43513485D03*
D17*
X92495935Y-46053485D03*
D16*
X95035935Y-40973485D03*
D15*
X97575935Y-46053485D03*
X106465935Y-65103565D03*
D16*
X107735935Y-62563565D03*
D17*
X111545935Y-65103565D03*
D16*
X114085935Y-60023565D03*
D15*
X116625935Y-65103565D03*
X287442095Y-84153685D03*
D16*
X288712095Y-81613685D03*
D17*
X292522095Y-84153685D03*
D16*
X295062095Y-79073685D03*
D15*
X297602095Y-84153685D03*
X220766655Y-46053525D03*
D16*
X222036655Y-43513525D03*
D17*
X225846655Y-46053525D03*
D16*
X228386655Y-40973525D03*
D15*
X230926655Y-46053525D03*
X220766655Y-65103605D03*
D16*
X222036655Y-62563605D03*
D17*
X225846655Y-65103605D03*
D16*
X228386655Y-60023605D03*
D15*
X230926655Y-65103605D03*
X239816735Y-65103605D03*
D16*
X241086735Y-62563605D03*
D17*
X244896735Y-65103605D03*
D16*
X247436735Y-60023605D03*
D15*
X249976735Y-65103605D03*
X39790975Y-84153765D03*
D16*
X41060975Y-81613765D03*
D17*
X44870975Y-84153765D03*
D16*
X47410975Y-79073765D03*
D15*
X49950975Y-84153765D03*
X211241615Y-84153645D03*
D16*
X212511615Y-81613645D03*
D17*
X216321615Y-84153645D03*
D16*
X218861615Y-79073645D03*
D15*
X221401615Y-84153645D03*
X192191535Y-84153645D03*
D16*
X193461535Y-81613645D03*
D17*
X197271535Y-84153645D03*
D16*
X199811535Y-79073645D03*
D15*
X202351535Y-84153645D03*
X239816735Y-46053525D03*
D16*
X241086735Y-43513525D03*
D17*
X244896735Y-46053525D03*
D16*
X247436735Y-40973525D03*
D15*
X249976735Y-46053525D03*
X115990935Y-84153645D03*
D16*
X117260935Y-81613645D03*
D17*
X121070935Y-84153645D03*
D16*
X123610935Y-79073645D03*
D15*
X126150935Y-84153645D03*
X68365935Y-46053485D03*
D16*
X69635935Y-43513485D03*
D17*
X73445935Y-46053485D03*
D16*
X75985935Y-40973485D03*
D15*
X78525935Y-46053485D03*
X77890935Y-84153645D03*
D16*
X79160935Y-81613645D03*
D17*
X82970935Y-84153645D03*
D16*
X85510935Y-79073645D03*
D15*
X88050935Y-84153645D03*
X58840935Y-84153645D03*
D16*
X60110935Y-81613645D03*
D17*
X63920935Y-84153645D03*
D16*
X66460935Y-79073645D03*
D15*
X69000935Y-84153645D03*
X30900975Y-103203765D03*
D16*
X29630975Y-105743765D03*
D17*
X25820975Y-103203765D03*
D16*
X23280975Y-108283765D03*
D15*
X20740975Y-103203765D03*
X85034995Y-103203765D03*
D16*
X86304995Y-100663765D03*
D17*
X90114995Y-103203765D03*
D16*
X92654995Y-98123765D03*
D15*
X95194995Y-103203765D03*
X223147225Y-103203765D03*
D16*
X224417225Y-100663765D03*
D17*
X228227225Y-103203765D03*
D16*
X230767225Y-98123765D03*
D15*
X233307225Y-103203765D03*
X292839415Y-65103605D03*
D16*
X291569415Y-67643605D03*
D17*
X287759415Y-65103605D03*
D16*
X285219415Y-70183605D03*
D15*
X282679415Y-65103605D03*
X258865975Y-65103765D03*
D16*
X260135975Y-62563765D03*
D17*
X263945975Y-65103765D03*
D16*
X266485975Y-60023765D03*
D15*
X269025975Y-65103765D03*
X27884755Y-65103605D03*
D16*
X29154755Y-62563605D03*
D17*
X32964755Y-65103605D03*
D16*
X35504755Y-60023605D03*
D15*
X38044755Y-65103605D03*
X35663475Y-65103765D03*
D16*
X34393475Y-67643765D03*
D17*
X30583475Y-65103765D03*
D16*
X28043475Y-70183765D03*
D15*
X25503475Y-65103765D03*
X39790975Y-103203765D03*
D16*
X41060975Y-100663765D03*
D17*
X44870975Y-103203765D03*
D16*
X47410975Y-98123765D03*
D15*
X49950975Y-103203765D03*
X268392015Y-84153685D03*
D16*
X269662015Y-81613685D03*
D17*
X273472015Y-84153685D03*
D16*
X276012015Y-79073685D03*
D15*
X278552015Y-84153685D03*
X68365935Y-65103565D03*
D16*
X69635935Y-62563565D03*
D17*
X73445935Y-65103565D03*
D16*
X75985935Y-60023565D03*
D15*
X78525935Y-65103565D03*
D18*
X111545935Y-22028365D03*
X206795935Y-22028365D03*
X100495935Y-107628365D03*
D15*
X287442095Y-103203765D03*
D16*
X288712095Y-100663765D03*
D17*
X292522095Y-103203765D03*
D16*
X295062095Y-98123765D03*
D15*
X297602095Y-103203765D03*
X61222225Y-103203765D03*
D16*
X62492225Y-100663765D03*
D17*
X66302225Y-103203765D03*
D16*
X68842225Y-98123765D03*
D15*
X71382225Y-103203765D03*
D18*
X240395935Y-107628365D03*
D15*
X201716575Y-65103565D03*
D16*
X202986575Y-62563565D03*
D17*
X206796575Y-65103565D03*
D16*
X209336575Y-60023565D03*
D15*
X211876575Y-65103565D03*
D19*
X286922095Y-103203765D03*
D20*
X292522095Y-98703765D03*
D21*
X292522095Y-103203765D03*
D20*
X292522095Y-107703765D03*
D19*
X298122095Y-103203765D03*
D22*
X295022095Y-95703765D03*
X290022095Y-95703765D03*
X292522095Y-95703765D03*
X295022095Y-110203765D03*
X290022095Y-110203765D03*
D23*
X80270935Y-21800280D03*
X80270935Y-20300280D03*
X85670935Y-20300280D03*
X85670935Y-21800280D03*
D15*
X246959685Y-103203405D03*
D16*
X248229685Y-100663405D03*
D17*
X252039685Y-103203405D03*
D16*
X254579685Y-98123405D03*
D15*
X257119685Y-103203405D03*
D24*
X175639685Y-45672155D03*
D25*
X173839685Y-45172155D03*
D24*
X177539685Y-44672155D03*
D25*
X173839685Y-44172155D03*
X173839685Y-43172155D03*
D24*
X177539685Y-42672155D03*
D25*
X173839685Y-42172155D03*
D24*
X175639685Y-41672155D03*
D26*
X177714685Y-46472155D03*
X177714685Y-40872155D03*
D24*
X151645935Y-53397155D03*
D27*
X151145935Y-55197155D03*
D24*
X150645935Y-51497155D03*
D27*
X150145935Y-55197155D03*
X149145935Y-55197155D03*
D24*
X148645935Y-51497155D03*
D27*
X148145935Y-55197155D03*
D24*
X147645935Y-53397155D03*
D28*
X152445935Y-51322155D03*
X146845935Y-51322155D03*
D19*
X31420975Y-103203765D03*
D20*
X25820975Y-107703765D03*
D21*
X25820975Y-103203765D03*
D20*
X25820975Y-98703765D03*
D19*
X20220975Y-103203765D03*
D22*
X23320975Y-110703765D03*
X28320975Y-110703765D03*
X25820975Y-110703765D03*
X23320975Y-96203765D03*
X28320975Y-96203765D03*
D15*
X135041375Y-103203765D03*
D16*
X136311375Y-100663765D03*
D17*
X140121375Y-103203765D03*
D16*
X142661375Y-98123765D03*
D15*
X145201375Y-103203765D03*
D23*
X294583435Y-46803405D03*
X294583435Y-45303405D03*
X299983435Y-45303405D03*
X299983435Y-46803405D03*
D24*
X175639685Y-34956530D03*
D25*
X173839685Y-34456530D03*
D24*
X177539685Y-33956530D03*
D25*
X173839685Y-33456530D03*
X173839685Y-32456530D03*
D24*
X177539685Y-31956530D03*
D25*
X173839685Y-31456530D03*
D24*
X175639685Y-30956530D03*
D26*
X177714685Y-35756530D03*
X177714685Y-30156530D03*
D15*
X196953435Y-103203405D03*
D16*
X198223435Y-100663405D03*
D17*
X202033435Y-103203405D03*
D16*
X204573435Y-98123405D03*
D15*
X207113435Y-103203405D03*
X173140975Y-103203765D03*
D16*
X174410975Y-100663765D03*
D17*
X178220975Y-103203765D03*
D16*
X180760975Y-98123765D03*
D15*
X183300975Y-103203765D03*
D19*
X153570975Y-103203405D03*
D20*
X159170975Y-98703405D03*
D21*
X159170975Y-103203405D03*
D20*
X159170975Y-107703405D03*
D19*
X164770975Y-103203405D03*
D22*
X161670975Y-95703405D03*
X156670975Y-95703405D03*
X159170975Y-95703405D03*
X161670975Y-110203405D03*
X156670975Y-110203405D03*
D15*
X280297185Y-65103605D03*
D16*
X281567185Y-62563605D03*
D17*
X285377185Y-65103605D03*
D16*
X287917185Y-60023605D03*
D15*
X290457185Y-65103605D03*
D29*
X77458435Y-105265905D03*
X78958435Y-105265905D03*
X78958435Y-110665905D03*
X77458435Y-110665905D03*
X186995935Y-105265905D03*
X188495935Y-105265905D03*
X188495935Y-110665905D03*
X186995935Y-110665905D03*
D30*
X144795935Y-64978365D03*
D31*
X207147102Y-103033861D03*
D32*
X39945935Y-45678365D03*
X40495935Y-44328365D03*
X40495935Y-46978365D03*
X41845935Y-43778365D03*
D33*
X41845935Y-45678365D03*
D32*
X41845935Y-47578365D03*
X43095935Y-44328365D03*
X43095935Y-47028365D03*
X43745935Y-45678365D03*
X273545935Y-45678365D03*
X274045935Y-44428365D03*
X274045935Y-46928365D03*
X275295935Y-43928365D03*
X275295935Y-47428365D03*
X276695935Y-43928365D03*
D34*
X276695935Y-45678365D03*
D32*
X276695935Y-47428365D03*
X278095935Y-43928365D03*
X278095935Y-47428365D03*
X279345935Y-44428365D03*
X279345935Y-46928365D03*
X279845935Y-45678365D03*
D15*
X30900935Y-84153405D03*
D16*
X29630935Y-86693405D03*
D17*
X25820935Y-84153405D03*
D16*
X23280935Y-89233405D03*
D15*
X20740935Y-84153405D03*
D24*
X161170935Y-54587780D03*
D27*
X160670935Y-56387780D03*
D24*
X160170935Y-52687780D03*
D27*
X159670935Y-56387780D03*
X158670935Y-56387780D03*
D24*
X158170935Y-52687780D03*
D27*
X157670935Y-56387780D03*
D24*
X157170935Y-54587780D03*
D28*
X161970935Y-52512780D03*
X156370935Y-52512780D03*
D15*
X111228435Y-103203405D03*
D16*
X112498435Y-100663405D03*
D17*
X116308435Y-103203405D03*
D16*
X118848435Y-98123405D03*
D15*
X121388435Y-103203405D03*
D23*
X42170935Y-21800280D03*
X42170935Y-20300280D03*
X47570935Y-20300280D03*
X47570935Y-21800280D03*
X232670935Y-21800280D03*
X232670935Y-20300280D03*
X238070935Y-20300280D03*
X238070935Y-21800280D03*
X18358435Y-93828405D03*
X18358435Y-92328405D03*
X23758435Y-92328405D03*
X23758435Y-93828405D03*
X280295935Y-21800280D03*
X280295935Y-20300280D03*
X285695935Y-20300280D03*
X285695935Y-21800280D03*
D24*
X142702185Y-41672155D03*
D35*
X144502185Y-42172155D03*
D24*
X140802185Y-42672155D03*
D35*
X144502185Y-43172155D03*
X144502185Y-44172155D03*
D24*
X140802185Y-44672155D03*
D35*
X144502185Y-45172155D03*
D24*
X142702185Y-45672155D03*
D36*
X140627185Y-40872155D03*
X140627185Y-46472155D03*
D24*
X170695935Y-53397155D03*
D27*
X170195935Y-55197155D03*
D24*
X169695935Y-51497155D03*
D27*
X169195935Y-55197155D03*
X168195935Y-55197155D03*
D24*
X167695935Y-51497155D03*
D27*
X167195935Y-55197155D03*
D24*
X166695935Y-53397155D03*
D28*
X171495935Y-51322155D03*
X165895935Y-51322155D03*
D23*
X185045935Y-21800280D03*
X185045935Y-20300280D03*
X190445935Y-20300280D03*
X190445935Y-21800280D03*
D29*
X282245935Y-105265905D03*
X283745935Y-105265905D03*
X283745935Y-110665905D03*
X282245935Y-110665905D03*
D23*
X18677185Y-46803405D03*
X18677185Y-45303405D03*
X24077185Y-45303405D03*
X24077185Y-46803405D03*
D29*
X129845935Y-105265905D03*
X131345935Y-105265905D03*
X131345935Y-110665905D03*
X129845935Y-110665905D03*
D15*
X154090975Y-103203765D03*
D16*
X155360975Y-100663765D03*
D17*
X159170975Y-103203765D03*
D16*
X161710975Y-98123765D03*
D15*
X164250975Y-103203765D03*
D29*
X35345935Y-105265905D03*
X36845935Y-105265905D03*
X36845935Y-110665905D03*
X35345935Y-110665905D03*
D23*
X127895935Y-21800280D03*
X127895935Y-20300280D03*
X133295935Y-20300280D03*
X133295935Y-21800280D03*
X294583435Y-93428405D03*
X294583435Y-91928405D03*
X299983435Y-91928405D03*
X299983435Y-93428405D03*
D29*
X235811560Y-105265905D03*
X237311560Y-105265905D03*
X237311560Y-110665905D03*
X235811560Y-110665905D03*
D37*
X84000000Y-29384655D03*
D24*
X84000000Y-26844655D03*
D38*
X104402185Y-100822155D03*
X190127185Y-103203405D03*
X261564685Y-103203405D03*
X34155310Y-100822155D03*
X41299060Y-56769030D03*
X32964685Y-77009655D03*
X29392810Y-77009655D03*
D39*
X55730310Y-52090905D03*
D24*
X55730310Y-49550905D03*
X53190310Y-52090905D03*
X53190310Y-49550905D03*
X50650310Y-52090905D03*
X50650310Y-49550905D03*
D38*
X216300000Y-100700000D03*
X152027185Y-28194030D03*
X281805310Y-100822155D03*
X29392810Y-93678405D03*
X32495935Y-93678405D03*
X148455310Y-28194030D03*
X144883435Y-28194030D03*
X30583435Y-56769030D03*
D40*
X31955935Y-22128365D03*
X37735935Y-22128365D03*
D41*
X30525935Y-18478365D03*
D42*
X30525935Y-22658365D03*
D41*
X39165935Y-18478365D03*
D42*
X39165935Y-22658365D03*
D38*
X129405310Y-100822155D03*
X155599060Y-28194030D03*
D37*
X30583435Y-48578405D03*
D24*
X30583435Y-46038405D03*
X30583435Y-43498405D03*
D38*
X78208435Y-100822155D03*
D43*
X298474060Y-52006530D03*
X19872407Y-20561655D03*
X159170935Y-20561655D03*
X73445935Y-28194030D03*
X197270935Y-52053405D03*
X134167810Y-74628405D03*
X244895935Y-28194030D03*
X121070935Y-52006530D03*
X19867810Y-52006530D03*
X298474060Y-20561655D03*
X184174060Y-74628405D03*
M02*
