G04 #@! TF.GenerationSoftware,KiCad,Pcbnew,(6.0.10-0)*
G04 #@! TF.CreationDate,2023-02-16T15:54:03+09:00*
G04 #@! TF.ProjectId,Sandy_Base,53616e64-795f-4426-9173-652e6b696361,v.0*
G04 #@! TF.SameCoordinates,Original*
G04 #@! TF.FileFunction,AssemblyDrawing,Bot*
%FSLAX46Y46*%
G04 Gerber Fmt 4.6, Leading zero omitted, Abs format (unit mm)*
G04 Created by KiCad (PCBNEW (6.0.10-0)) date 2023-02-16 15:54:03*
%MOMM*%
%LPD*%
G01*
G04 APERTURE LIST*
%ADD10C,0.080000*%
%ADD11C,0.150000*%
%ADD12C,0.105000*%
%ADD13C,0.120000*%
%ADD14C,0.075000*%
%ADD15C,0.100000*%
G04 APERTURE END LIST*
D10*
X26031268Y-26753345D02*
X26197935Y-26515250D01*
X26316982Y-26753345D02*
X26316982Y-26253345D01*
X26126506Y-26253345D01*
X26078887Y-26277155D01*
X26055077Y-26300964D01*
X26031268Y-26348583D01*
X26031268Y-26420012D01*
X26055077Y-26467631D01*
X26078887Y-26491440D01*
X26126506Y-26515250D01*
X26316982Y-26515250D01*
X25840792Y-26300964D02*
X25816982Y-26277155D01*
X25769363Y-26253345D01*
X25650315Y-26253345D01*
X25602696Y-26277155D01*
X25578887Y-26300964D01*
X25555077Y-26348583D01*
X25555077Y-26396202D01*
X25578887Y-26467631D01*
X25864601Y-26753345D01*
X25555077Y-26753345D01*
X37207268Y-31420595D02*
X37373935Y-31182500D01*
X37492982Y-31420595D02*
X37492982Y-30920595D01*
X37302506Y-30920595D01*
X37254887Y-30944405D01*
X37231077Y-30968214D01*
X37207268Y-31015833D01*
X37207268Y-31087262D01*
X37231077Y-31134881D01*
X37254887Y-31158690D01*
X37302506Y-31182500D01*
X37492982Y-31182500D01*
X37040601Y-30920595D02*
X36731077Y-30920595D01*
X36897744Y-31111071D01*
X36826315Y-31111071D01*
X36778696Y-31134881D01*
X36754887Y-31158690D01*
X36731077Y-31206309D01*
X36731077Y-31325357D01*
X36754887Y-31372976D01*
X36778696Y-31396785D01*
X36826315Y-31420595D01*
X36969173Y-31420595D01*
X37016792Y-31396785D01*
X37040601Y-31372976D01*
X58035153Y-42296335D02*
X58035153Y-42262663D01*
X58001481Y-42195320D01*
X57967810Y-42161648D01*
X57900466Y-42127976D01*
X57833122Y-42127976D01*
X57782615Y-42144812D01*
X57698435Y-42195320D01*
X57647928Y-42245827D01*
X57597420Y-42330007D01*
X57580584Y-42380514D01*
X57580584Y-42447858D01*
X57614256Y-42515201D01*
X57647928Y-42548873D01*
X57715271Y-42582545D01*
X57748943Y-42582545D01*
X58035153Y-42936098D02*
X57866794Y-42767739D01*
X58018317Y-42582545D01*
X58018317Y-42616217D01*
X58035153Y-42666724D01*
X58119332Y-42750904D01*
X58169840Y-42767739D01*
X58203512Y-42767739D01*
X58254019Y-42750904D01*
X58338199Y-42666724D01*
X58355035Y-42616217D01*
X58355035Y-42582545D01*
X58338199Y-42532037D01*
X58254019Y-42447858D01*
X58203512Y-42431022D01*
X58169840Y-42431022D01*
D11*
X82423315Y-25400071D02*
X83137601Y-25400071D01*
X83280458Y-25352452D01*
X83375696Y-25257214D01*
X83423315Y-25114357D01*
X83423315Y-25019119D01*
X82423315Y-25781024D02*
X82423315Y-26400071D01*
X82804268Y-26066738D01*
X82804268Y-26209595D01*
X82851887Y-26304833D01*
X82899506Y-26352452D01*
X82994744Y-26400071D01*
X83232839Y-26400071D01*
X83328077Y-26352452D01*
X83375696Y-26304833D01*
X83423315Y-26209595D01*
X83423315Y-25923881D01*
X83375696Y-25828643D01*
X83328077Y-25781024D01*
X104449506Y-98750726D02*
X104116173Y-98750726D01*
X103973315Y-99274535D02*
X104449506Y-99274535D01*
X104449506Y-98274535D01*
X103973315Y-98274535D01*
X103639982Y-98274535D02*
X102973315Y-99274535D01*
X102973315Y-98274535D02*
X103639982Y-99274535D01*
X102735220Y-98274535D02*
X102163792Y-98274535D01*
X102449506Y-99274535D02*
X102449506Y-98274535D01*
X102068554Y-99369774D02*
X101306649Y-99369774D01*
X100497125Y-99179297D02*
X100544744Y-99226916D01*
X100687601Y-99274535D01*
X100782839Y-99274535D01*
X100925696Y-99226916D01*
X101020935Y-99131678D01*
X101068554Y-99036440D01*
X101116173Y-98845964D01*
X101116173Y-98703107D01*
X101068554Y-98512631D01*
X101020935Y-98417393D01*
X100925696Y-98322155D01*
X100782839Y-98274535D01*
X100687601Y-98274535D01*
X100544744Y-98322155D01*
X100497125Y-98369774D01*
X100116173Y-98369774D02*
X100068554Y-98322155D01*
X99973315Y-98274535D01*
X99735220Y-98274535D01*
X99639982Y-98322155D01*
X99592363Y-98369774D01*
X99544744Y-98465012D01*
X99544744Y-98560250D01*
X99592363Y-98703107D01*
X100163792Y-99274535D01*
X99544744Y-99274535D01*
X161580756Y-98750726D02*
X161247423Y-98750726D01*
X161104565Y-99274535D02*
X161580756Y-99274535D01*
X161580756Y-98274535D01*
X161104565Y-98274535D01*
X160771232Y-98274535D02*
X160104565Y-99274535D01*
X160104565Y-98274535D02*
X160771232Y-99274535D01*
X159866470Y-98274535D02*
X159295042Y-98274535D01*
X159580756Y-99274535D02*
X159580756Y-98274535D01*
X159199804Y-99369774D02*
X158437899Y-99369774D01*
X157628375Y-99179297D02*
X157675994Y-99226916D01*
X157818851Y-99274535D01*
X157914089Y-99274535D01*
X158056946Y-99226916D01*
X158152185Y-99131678D01*
X158199804Y-99036440D01*
X158247423Y-98845964D01*
X158247423Y-98703107D01*
X158199804Y-98512631D01*
X158152185Y-98417393D01*
X158056946Y-98322155D01*
X157914089Y-98274535D01*
X157818851Y-98274535D01*
X157675994Y-98322155D01*
X157628375Y-98369774D01*
X156771232Y-98607869D02*
X156771232Y-99274535D01*
X157009327Y-98226916D02*
X157247423Y-98941202D01*
X156628375Y-98941202D01*
X266374506Y-98750726D02*
X266041173Y-98750726D01*
X265898315Y-99274535D02*
X266374506Y-99274535D01*
X266374506Y-98274535D01*
X265898315Y-98274535D01*
X265564982Y-98274535D02*
X264898315Y-99274535D01*
X264898315Y-98274535D02*
X265564982Y-99274535D01*
X264660220Y-98274535D02*
X264088792Y-98274535D01*
X264374506Y-99274535D02*
X264374506Y-98274535D01*
X263993554Y-99369774D02*
X263231649Y-99369774D01*
X262422125Y-99179297D02*
X262469744Y-99226916D01*
X262612601Y-99274535D01*
X262707839Y-99274535D01*
X262850696Y-99226916D01*
X262945935Y-99131678D01*
X262993554Y-99036440D01*
X263041173Y-98845964D01*
X263041173Y-98703107D01*
X262993554Y-98512631D01*
X262945935Y-98417393D01*
X262850696Y-98322155D01*
X262707839Y-98274535D01*
X262612601Y-98274535D01*
X262469744Y-98322155D01*
X262422125Y-98369774D01*
X261564982Y-98274535D02*
X261755458Y-98274535D01*
X261850696Y-98322155D01*
X261898315Y-98369774D01*
X261993554Y-98512631D01*
X262041173Y-98703107D01*
X262041173Y-99084059D01*
X261993554Y-99179297D01*
X261945935Y-99226916D01*
X261850696Y-99274535D01*
X261660220Y-99274535D01*
X261564982Y-99226916D01*
X261517363Y-99179297D01*
X261469744Y-99084059D01*
X261469744Y-98845964D01*
X261517363Y-98750726D01*
X261564982Y-98703107D01*
X261660220Y-98655488D01*
X261850696Y-98655488D01*
X261945935Y-98703107D01*
X261993554Y-98750726D01*
X262041173Y-98845964D01*
X37774506Y-108275726D02*
X37441173Y-108275726D01*
X37298315Y-108799535D02*
X37774506Y-108799535D01*
X37774506Y-107799535D01*
X37298315Y-107799535D01*
X36964982Y-107799535D02*
X36298315Y-108799535D01*
X36298315Y-107799535D02*
X36964982Y-108799535D01*
X36060220Y-107799535D02*
X35488792Y-107799535D01*
X35774506Y-108799535D02*
X35774506Y-107799535D01*
X35393554Y-108894774D02*
X34631649Y-108894774D01*
X33822125Y-108704297D02*
X33869744Y-108751916D01*
X34012601Y-108799535D01*
X34107839Y-108799535D01*
X34250696Y-108751916D01*
X34345935Y-108656678D01*
X34393554Y-108561440D01*
X34441173Y-108370964D01*
X34441173Y-108228107D01*
X34393554Y-108037631D01*
X34345935Y-107942393D01*
X34250696Y-107847155D01*
X34107839Y-107799535D01*
X34012601Y-107799535D01*
X33869744Y-107847155D01*
X33822125Y-107894774D01*
X33203077Y-107799535D02*
X33107839Y-107799535D01*
X33012601Y-107847155D01*
X32964982Y-107894774D01*
X32917363Y-107990012D01*
X32869744Y-108180488D01*
X32869744Y-108418583D01*
X32917363Y-108609059D01*
X32964982Y-108704297D01*
X33012601Y-108751916D01*
X33107839Y-108799535D01*
X33203077Y-108799535D01*
X33298315Y-108751916D01*
X33345935Y-108704297D01*
X33393554Y-108609059D01*
X33441173Y-108418583D01*
X33441173Y-108180488D01*
X33393554Y-107990012D01*
X33345935Y-107894774D01*
X33298315Y-107847155D01*
X33203077Y-107799535D01*
X47299506Y-71366351D02*
X46966173Y-71366351D01*
X46823315Y-71890160D02*
X47299506Y-71890160D01*
X47299506Y-70890160D01*
X46823315Y-70890160D01*
X46489982Y-70890160D02*
X45823315Y-71890160D01*
X45823315Y-70890160D02*
X46489982Y-71890160D01*
X45585220Y-70890160D02*
X45013792Y-70890160D01*
X45299506Y-71890160D02*
X45299506Y-70890160D01*
X44918554Y-71985399D02*
X44156649Y-71985399D01*
X43347125Y-71890160D02*
X43680458Y-71413970D01*
X43918554Y-71890160D02*
X43918554Y-70890160D01*
X43537601Y-70890160D01*
X43442363Y-70937780D01*
X43394744Y-70985399D01*
X43347125Y-71080637D01*
X43347125Y-71223494D01*
X43394744Y-71318732D01*
X43442363Y-71366351D01*
X43537601Y-71413970D01*
X43918554Y-71413970D01*
X42966173Y-70985399D02*
X42918554Y-70937780D01*
X42823315Y-70890160D01*
X42585220Y-70890160D01*
X42489982Y-70937780D01*
X42442363Y-70985399D01*
X42394744Y-71080637D01*
X42394744Y-71175875D01*
X42442363Y-71318732D01*
X43013792Y-71890160D01*
X42394744Y-71890160D01*
X285424506Y-90844476D02*
X285091173Y-90844476D01*
X284948315Y-91368285D02*
X285424506Y-91368285D01*
X285424506Y-90368285D01*
X284948315Y-90368285D01*
X284614982Y-90368285D02*
X283948315Y-91368285D01*
X283948315Y-90368285D02*
X284614982Y-91368285D01*
X283710220Y-90368285D02*
X283138792Y-90368285D01*
X283424506Y-91368285D02*
X283424506Y-90368285D01*
X283043554Y-91463524D02*
X282281649Y-91463524D01*
X281472125Y-91368285D02*
X281805458Y-90892095D01*
X282043554Y-91368285D02*
X282043554Y-90368285D01*
X281662601Y-90368285D01*
X281567363Y-90415905D01*
X281519744Y-90463524D01*
X281472125Y-90558762D01*
X281472125Y-90701619D01*
X281519744Y-90796857D01*
X281567363Y-90844476D01*
X281662601Y-90892095D01*
X282043554Y-90892095D01*
X281138792Y-90368285D02*
X280519744Y-90368285D01*
X280853077Y-90749238D01*
X280710220Y-90749238D01*
X280614982Y-90796857D01*
X280567363Y-90844476D01*
X280519744Y-90939714D01*
X280519744Y-91177809D01*
X280567363Y-91273047D01*
X280614982Y-91320666D01*
X280710220Y-91368285D01*
X280995935Y-91368285D01*
X281091173Y-91320666D01*
X281138792Y-91273047D01*
X285424506Y-90416351D02*
X285091173Y-90416351D01*
X284948315Y-90940160D02*
X285424506Y-90940160D01*
X285424506Y-89940160D01*
X284948315Y-89940160D01*
X284614982Y-89940160D02*
X283948315Y-90940160D01*
X283948315Y-89940160D02*
X284614982Y-90940160D01*
X283710220Y-89940160D02*
X283138792Y-89940160D01*
X283424506Y-90940160D02*
X283424506Y-89940160D01*
X283043554Y-91035399D02*
X282281649Y-91035399D01*
X281472125Y-90940160D02*
X281805458Y-90463970D01*
X282043554Y-90940160D02*
X282043554Y-89940160D01*
X281662601Y-89940160D01*
X281567363Y-89987780D01*
X281519744Y-90035399D01*
X281472125Y-90130637D01*
X281472125Y-90273494D01*
X281519744Y-90368732D01*
X281567363Y-90416351D01*
X281662601Y-90463970D01*
X282043554Y-90463970D01*
X280900696Y-90368732D02*
X280995935Y-90321113D01*
X281043554Y-90273494D01*
X281091173Y-90178256D01*
X281091173Y-90130637D01*
X281043554Y-90035399D01*
X280995935Y-89987780D01*
X280900696Y-89940160D01*
X280710220Y-89940160D01*
X280614982Y-89987780D01*
X280567363Y-90035399D01*
X280519744Y-90130637D01*
X280519744Y-90178256D01*
X280567363Y-90273494D01*
X280614982Y-90321113D01*
X280710220Y-90368732D01*
X280900696Y-90368732D01*
X280995935Y-90416351D01*
X281043554Y-90463970D01*
X281091173Y-90559208D01*
X281091173Y-90749684D01*
X281043554Y-90844922D01*
X280995935Y-90892541D01*
X280900696Y-90940160D01*
X280710220Y-90940160D01*
X280614982Y-90892541D01*
X280567363Y-90844922D01*
X280519744Y-90749684D01*
X280519744Y-90559208D01*
X280567363Y-90463970D01*
X280614982Y-90416351D01*
X280710220Y-90368732D01*
D10*
X42451131Y-33633813D02*
X42451131Y-33600141D01*
X42417459Y-33532798D01*
X42383788Y-33499126D01*
X42316444Y-33465454D01*
X42249100Y-33465454D01*
X42198593Y-33482290D01*
X42114413Y-33532798D01*
X42063906Y-33583305D01*
X42013398Y-33667485D01*
X41996562Y-33717992D01*
X41996562Y-33785336D01*
X42030234Y-33852679D01*
X42063906Y-33886351D01*
X42131249Y-33920023D01*
X42164921Y-33920023D01*
X42821520Y-33936859D02*
X42619490Y-33734828D01*
X42720505Y-33835843D02*
X42366952Y-34189397D01*
X42383788Y-34105217D01*
X42383788Y-34037874D01*
X42366952Y-33987366D01*
D12*
X49158852Y-27295667D02*
X49394554Y-27531369D01*
X49064571Y-26871403D02*
X49158852Y-27295667D01*
X48734588Y-27201386D01*
X48805298Y-28120625D02*
X49088141Y-27837782D01*
X48946720Y-27979204D02*
X48451745Y-27484229D01*
X48569596Y-27507799D01*
X48663877Y-27507799D01*
X48734588Y-27484229D01*
D10*
X45430403Y-30929835D02*
X45430403Y-30896163D01*
X45396731Y-30828820D01*
X45363060Y-30795148D01*
X45295716Y-30761476D01*
X45228372Y-30761476D01*
X45177865Y-30778312D01*
X45093685Y-30828820D01*
X45043178Y-30879327D01*
X44992670Y-30963507D01*
X44975834Y-31014014D01*
X44975834Y-31081358D01*
X45009506Y-31148701D01*
X45043178Y-31182373D01*
X45110521Y-31216045D01*
X45144193Y-31216045D01*
X45228372Y-31367568D02*
X45447239Y-31586434D01*
X45464075Y-31333896D01*
X45514582Y-31384404D01*
X45565090Y-31401239D01*
X45598762Y-31401239D01*
X45649269Y-31384404D01*
X45733449Y-31300224D01*
X45750285Y-31249717D01*
X45750285Y-31216045D01*
X45733449Y-31165537D01*
X45632434Y-31064522D01*
X45581926Y-31047686D01*
X45548254Y-31047686D01*
X60813278Y-26691210D02*
X60813278Y-26657538D01*
X60779606Y-26590195D01*
X60745935Y-26556523D01*
X60678591Y-26522851D01*
X60611247Y-26522851D01*
X60560740Y-26539687D01*
X60476560Y-26590195D01*
X60426053Y-26640702D01*
X60375545Y-26724882D01*
X60358709Y-26775389D01*
X60358709Y-26842733D01*
X60392381Y-26910076D01*
X60426053Y-26943748D01*
X60493396Y-26977420D01*
X60527068Y-26977420D01*
X60611247Y-27128943D02*
X60846950Y-27364645D01*
X61048980Y-26859569D01*
X64571970Y-34939282D02*
X64605642Y-34939282D01*
X64672985Y-34905610D01*
X64706657Y-34871939D01*
X64740329Y-34804595D01*
X64740329Y-34737251D01*
X64723493Y-34686744D01*
X64672985Y-34602564D01*
X64622478Y-34552057D01*
X64538298Y-34501549D01*
X64487791Y-34484713D01*
X64420447Y-34484713D01*
X64353104Y-34518385D01*
X64319432Y-34552057D01*
X64285760Y-34619400D01*
X64285760Y-34653072D01*
X64066894Y-35040297D02*
X64302596Y-35276000D01*
X64016386Y-34821431D02*
X64353104Y-34989790D01*
X64134237Y-35208656D01*
D11*
X53523643Y-50273285D02*
X53523643Y-50987571D01*
X53571262Y-51130428D01*
X53666500Y-51225666D01*
X53809357Y-51273285D01*
X53904595Y-51273285D01*
X52618881Y-50606619D02*
X52618881Y-51273285D01*
X52856976Y-50225666D02*
X53095071Y-50939952D01*
X52476024Y-50939952D01*
X112307839Y-22480745D02*
X112307839Y-21480745D01*
X112307839Y-21956936D02*
X111736411Y-21956936D01*
X111736411Y-22480745D02*
X111736411Y-21480745D01*
X110736411Y-22480745D02*
X111307839Y-22480745D01*
X111022125Y-22480745D02*
X111022125Y-21480745D01*
X111117363Y-21623603D01*
X111212601Y-21718841D01*
X111307839Y-21766460D01*
X207557839Y-22480745D02*
X207557839Y-21480745D01*
X207557839Y-21956936D02*
X206986411Y-21956936D01*
X206986411Y-22480745D02*
X206986411Y-21480745D01*
X206557839Y-21575984D02*
X206510220Y-21528365D01*
X206414982Y-21480745D01*
X206176887Y-21480745D01*
X206081649Y-21528365D01*
X206034030Y-21575984D01*
X205986411Y-21671222D01*
X205986411Y-21766460D01*
X206034030Y-21909317D01*
X206605458Y-22480745D01*
X205986411Y-22480745D01*
D13*
X43946976Y-20374012D02*
X44213643Y-20374012D01*
X44213643Y-20793059D02*
X44213643Y-19993059D01*
X43832690Y-19993059D01*
X43108881Y-20793059D02*
X43566024Y-20793059D01*
X43337452Y-20793059D02*
X43337452Y-19993059D01*
X43413643Y-20107345D01*
X43489833Y-20183535D01*
X43566024Y-20221631D01*
D11*
X101257839Y-108080745D02*
X101257839Y-107080745D01*
X101257839Y-107556936D02*
X100686411Y-107556936D01*
X100686411Y-108080745D02*
X100686411Y-107080745D01*
X100305458Y-107080745D02*
X99686411Y-107080745D01*
X100019744Y-107461698D01*
X99876887Y-107461698D01*
X99781649Y-107509317D01*
X99734030Y-107556936D01*
X99686411Y-107652174D01*
X99686411Y-107890269D01*
X99734030Y-107985507D01*
X99781649Y-108033126D01*
X99876887Y-108080745D01*
X100162601Y-108080745D01*
X100257839Y-108033126D01*
X100305458Y-107985507D01*
D10*
X43763643Y-23451345D02*
X43930310Y-23213250D01*
X44049357Y-23451345D02*
X44049357Y-22951345D01*
X43858881Y-22951345D01*
X43811262Y-22975155D01*
X43787452Y-22998964D01*
X43763643Y-23046583D01*
X43763643Y-23118012D01*
X43787452Y-23165631D01*
X43811262Y-23189440D01*
X43858881Y-23213250D01*
X44049357Y-23213250D01*
X43287452Y-23451345D02*
X43573167Y-23451345D01*
X43430310Y-23451345D02*
X43430310Y-22951345D01*
X43477929Y-23022774D01*
X43525548Y-23070393D01*
X43573167Y-23094202D01*
D11*
X218749506Y-98750726D02*
X218416173Y-98750726D01*
X218273315Y-99274535D02*
X218749506Y-99274535D01*
X218749506Y-98274535D01*
X218273315Y-98274535D01*
X217939982Y-98274535D02*
X217273315Y-99274535D01*
X217273315Y-98274535D02*
X217939982Y-99274535D01*
X217035220Y-98274535D02*
X216463792Y-98274535D01*
X216749506Y-99274535D02*
X216749506Y-98274535D01*
X216368554Y-99369774D02*
X215606649Y-99369774D01*
X214797125Y-99179297D02*
X214844744Y-99226916D01*
X214987601Y-99274535D01*
X215082839Y-99274535D01*
X215225696Y-99226916D01*
X215320935Y-99131678D01*
X215368554Y-99036440D01*
X215416173Y-98845964D01*
X215416173Y-98703107D01*
X215368554Y-98512631D01*
X215320935Y-98417393D01*
X215225696Y-98322155D01*
X215082839Y-98274535D01*
X214987601Y-98274535D01*
X214844744Y-98322155D01*
X214797125Y-98369774D01*
X213892363Y-98274535D02*
X214368554Y-98274535D01*
X214416173Y-98750726D01*
X214368554Y-98703107D01*
X214273315Y-98655488D01*
X214035220Y-98655488D01*
X213939982Y-98703107D01*
X213892363Y-98750726D01*
X213844744Y-98845964D01*
X213844744Y-99084059D01*
X213892363Y-99179297D01*
X213939982Y-99226916D01*
X214035220Y-99274535D01*
X214273315Y-99274535D01*
X214368554Y-99226916D01*
X214416173Y-99179297D01*
X161599506Y-34885101D02*
X161266173Y-34885101D01*
X161123315Y-35408910D02*
X161599506Y-35408910D01*
X161599506Y-34408910D01*
X161123315Y-34408910D01*
X160789982Y-34408910D02*
X160123315Y-35408910D01*
X160123315Y-34408910D02*
X160789982Y-35408910D01*
X159885220Y-34408910D02*
X159313792Y-34408910D01*
X159599506Y-35408910D02*
X159599506Y-34408910D01*
X159218554Y-35504149D02*
X158456649Y-35504149D01*
X157647125Y-35408910D02*
X157980458Y-34932720D01*
X158218554Y-35408910D02*
X158218554Y-34408910D01*
X157837601Y-34408910D01*
X157742363Y-34456530D01*
X157694744Y-34504149D01*
X157647125Y-34599387D01*
X157647125Y-34742244D01*
X157694744Y-34837482D01*
X157742363Y-34885101D01*
X157837601Y-34932720D01*
X158218554Y-34932720D01*
X156742363Y-34408910D02*
X157218554Y-34408910D01*
X157266173Y-34885101D01*
X157218554Y-34837482D01*
X157123315Y-34789863D01*
X156885220Y-34789863D01*
X156789982Y-34837482D01*
X156742363Y-34885101D01*
X156694744Y-34980339D01*
X156694744Y-35218434D01*
X156742363Y-35313672D01*
X156789982Y-35361291D01*
X156885220Y-35408910D01*
X157123315Y-35408910D01*
X157218554Y-35361291D01*
X157266173Y-35313672D01*
D14*
X26555077Y-21467345D02*
X26555077Y-20967345D01*
X26436030Y-20967345D01*
X26364601Y-20991155D01*
X26316982Y-21038774D01*
X26293173Y-21086393D01*
X26269363Y-21181631D01*
X26269363Y-21253059D01*
X26293173Y-21348297D01*
X26316982Y-21395916D01*
X26364601Y-21443535D01*
X26436030Y-21467345D01*
X26555077Y-21467345D01*
X25793173Y-21467345D02*
X26078887Y-21467345D01*
X25936030Y-21467345D02*
X25936030Y-20967345D01*
X25983649Y-21038774D01*
X26031268Y-21086393D01*
X26078887Y-21110202D01*
X25483649Y-20967345D02*
X25436030Y-20967345D01*
X25388411Y-20991155D01*
X25364601Y-21014964D01*
X25340792Y-21062583D01*
X25316982Y-21157821D01*
X25316982Y-21276869D01*
X25340792Y-21372107D01*
X25364601Y-21419726D01*
X25388411Y-21443535D01*
X25436030Y-21467345D01*
X25483649Y-21467345D01*
X25531268Y-21443535D01*
X25555077Y-21419726D01*
X25578887Y-21372107D01*
X25602696Y-21276869D01*
X25602696Y-21157821D01*
X25578887Y-21062583D01*
X25555077Y-21014964D01*
X25531268Y-20991155D01*
X25483649Y-20967345D01*
D11*
X46548315Y-64916500D02*
X46072125Y-64583166D01*
X46548315Y-64345071D02*
X45548315Y-64345071D01*
X45548315Y-64726024D01*
X45595935Y-64821262D01*
X45643554Y-64868881D01*
X45738792Y-64916500D01*
X45881649Y-64916500D01*
X45976887Y-64868881D01*
X46024506Y-64821262D01*
X46072125Y-64726024D01*
X46072125Y-64345071D01*
X46500696Y-65726024D02*
X46548315Y-65630785D01*
X46548315Y-65440309D01*
X46500696Y-65345071D01*
X46405458Y-65297452D01*
X46024506Y-65297452D01*
X45929268Y-65345071D01*
X45881649Y-65440309D01*
X45881649Y-65630785D01*
X45929268Y-65726024D01*
X46024506Y-65773643D01*
X46119744Y-65773643D01*
X46214982Y-65297452D01*
X46500696Y-66154595D02*
X46548315Y-66249833D01*
X46548315Y-66440309D01*
X46500696Y-66535547D01*
X46405458Y-66583166D01*
X46357839Y-66583166D01*
X46262601Y-66535547D01*
X46214982Y-66440309D01*
X46214982Y-66297452D01*
X46167363Y-66202214D01*
X46072125Y-66154595D01*
X46024506Y-66154595D01*
X45929268Y-66202214D01*
X45881649Y-66297452D01*
X45881649Y-66440309D01*
X45929268Y-66535547D01*
X46500696Y-67392690D02*
X46548315Y-67297452D01*
X46548315Y-67106976D01*
X46500696Y-67011738D01*
X46405458Y-66964119D01*
X46024506Y-66964119D01*
X45929268Y-67011738D01*
X45881649Y-67106976D01*
X45881649Y-67297452D01*
X45929268Y-67392690D01*
X46024506Y-67440309D01*
X46119744Y-67440309D01*
X46214982Y-66964119D01*
X45881649Y-67726024D02*
X45881649Y-68106976D01*
X45548315Y-67868881D02*
X46405458Y-67868881D01*
X46500696Y-67916500D01*
X46548315Y-68011738D01*
X46548315Y-68106976D01*
X46500696Y-68392690D02*
X46548315Y-68535547D01*
X46548315Y-68773643D01*
X46500696Y-68868881D01*
X46453077Y-68916500D01*
X46357839Y-68964119D01*
X46262601Y-68964119D01*
X46167363Y-68916500D01*
X46119744Y-68868881D01*
X46072125Y-68773643D01*
X46024506Y-68583166D01*
X45976887Y-68487928D01*
X45929268Y-68440309D01*
X45834030Y-68392690D01*
X45738792Y-68392690D01*
X45643554Y-68440309D01*
X45595935Y-68487928D01*
X45548315Y-68583166D01*
X45548315Y-68821262D01*
X45595935Y-68964119D01*
X45548315Y-69297452D02*
X46548315Y-69535547D01*
X45834030Y-69726024D01*
X46548315Y-69916500D01*
X45548315Y-70154595D01*
X46548315Y-71059357D02*
X46548315Y-70487928D01*
X46548315Y-70773643D02*
X45548315Y-70773643D01*
X45691173Y-70678405D01*
X45786411Y-70583166D01*
X45834030Y-70487928D01*
X39198355Y-63536860D02*
X38722165Y-63203526D01*
X39198355Y-62965431D02*
X38198355Y-62965431D01*
X38198355Y-63346384D01*
X38245975Y-63441622D01*
X38293594Y-63489241D01*
X38388832Y-63536860D01*
X38531689Y-63536860D01*
X38626927Y-63489241D01*
X38674546Y-63441622D01*
X38722165Y-63346384D01*
X38722165Y-62965431D01*
X39150736Y-64346384D02*
X39198355Y-64251145D01*
X39198355Y-64060669D01*
X39150736Y-63965431D01*
X39055498Y-63917812D01*
X38674546Y-63917812D01*
X38579308Y-63965431D01*
X38531689Y-64060669D01*
X38531689Y-64251145D01*
X38579308Y-64346384D01*
X38674546Y-64394003D01*
X38769784Y-64394003D01*
X38865022Y-63917812D01*
X39150736Y-64774955D02*
X39198355Y-64870193D01*
X39198355Y-65060669D01*
X39150736Y-65155907D01*
X39055498Y-65203526D01*
X39007879Y-65203526D01*
X38912641Y-65155907D01*
X38865022Y-65060669D01*
X38865022Y-64917812D01*
X38817403Y-64822574D01*
X38722165Y-64774955D01*
X38674546Y-64774955D01*
X38579308Y-64822574D01*
X38531689Y-64917812D01*
X38531689Y-65060669D01*
X38579308Y-65155907D01*
X39150736Y-66013050D02*
X39198355Y-65917812D01*
X39198355Y-65727336D01*
X39150736Y-65632098D01*
X39055498Y-65584479D01*
X38674546Y-65584479D01*
X38579308Y-65632098D01*
X38531689Y-65727336D01*
X38531689Y-65917812D01*
X38579308Y-66013050D01*
X38674546Y-66060669D01*
X38769784Y-66060669D01*
X38865022Y-65584479D01*
X38531689Y-66346384D02*
X38531689Y-66727336D01*
X38198355Y-66489241D02*
X39055498Y-66489241D01*
X39150736Y-66536860D01*
X39198355Y-66632098D01*
X39198355Y-66727336D01*
X39150736Y-67013050D02*
X39198355Y-67155907D01*
X39198355Y-67394003D01*
X39150736Y-67489241D01*
X39103117Y-67536860D01*
X39007879Y-67584479D01*
X38912641Y-67584479D01*
X38817403Y-67536860D01*
X38769784Y-67489241D01*
X38722165Y-67394003D01*
X38674546Y-67203526D01*
X38626927Y-67108288D01*
X38579308Y-67060669D01*
X38484070Y-67013050D01*
X38388832Y-67013050D01*
X38293594Y-67060669D01*
X38245975Y-67108288D01*
X38198355Y-67203526D01*
X38198355Y-67441622D01*
X38245975Y-67584479D01*
X38198355Y-67917812D02*
X39198355Y-68155907D01*
X38484070Y-68346384D01*
X39198355Y-68536860D01*
X38198355Y-68774955D01*
X39198355Y-69679717D02*
X39198355Y-69108288D01*
X39198355Y-69394003D02*
X38198355Y-69394003D01*
X38341213Y-69298765D01*
X38436451Y-69203526D01*
X38484070Y-69108288D01*
D10*
X45390166Y-36505504D02*
X45103956Y-36556012D01*
X45188135Y-36303474D02*
X44834582Y-36657027D01*
X44969269Y-36791714D01*
X45019776Y-36808550D01*
X45053448Y-36808550D01*
X45103956Y-36791714D01*
X45154463Y-36741206D01*
X45171299Y-36690699D01*
X45171299Y-36657027D01*
X45154463Y-36606519D01*
X45019776Y-36471832D01*
X45356494Y-37178939D02*
X45188135Y-37010580D01*
X45339658Y-36825386D01*
X45339658Y-36859058D01*
X45356494Y-36909565D01*
X45440673Y-36993745D01*
X45491181Y-37010580D01*
X45524853Y-37010580D01*
X45575360Y-36993745D01*
X45659540Y-36909565D01*
X45676376Y-36859058D01*
X45676376Y-36825386D01*
X45659540Y-36774878D01*
X45575360Y-36690699D01*
X45524853Y-36673863D01*
X45491181Y-36673863D01*
X66552801Y-36915170D02*
X66502293Y-36628960D01*
X66754831Y-36713139D02*
X66401278Y-36359586D01*
X66266591Y-36494273D01*
X66249755Y-36544780D01*
X66249755Y-36578452D01*
X66266591Y-36628960D01*
X66317099Y-36679467D01*
X66367606Y-36696303D01*
X66401278Y-36696303D01*
X66451786Y-36679467D01*
X66586473Y-36544780D01*
X65896202Y-36864662D02*
X65963545Y-36797319D01*
X66014053Y-36780483D01*
X66047725Y-36780483D01*
X66131904Y-36797319D01*
X66216083Y-36847826D01*
X66350770Y-36982513D01*
X66367606Y-37033021D01*
X66367606Y-37066693D01*
X66350770Y-37117200D01*
X66283427Y-37184544D01*
X66232919Y-37201380D01*
X66199247Y-37201380D01*
X66148740Y-37184544D01*
X66064560Y-37100364D01*
X66047725Y-37049857D01*
X66047725Y-37016185D01*
X66064560Y-36965677D01*
X66131904Y-36898334D01*
X66182412Y-36881498D01*
X66216083Y-36881498D01*
X66266591Y-36898334D01*
X52574153Y-23786085D02*
X52574153Y-23752413D01*
X52540481Y-23685070D01*
X52506810Y-23651398D01*
X52439466Y-23617726D01*
X52372122Y-23617726D01*
X52321615Y-23634562D01*
X52237435Y-23685070D01*
X52186928Y-23735577D01*
X52136420Y-23819757D01*
X52119584Y-23870264D01*
X52119584Y-23937608D01*
X52153256Y-24004951D01*
X52186928Y-24038623D01*
X52254271Y-24072295D01*
X52287943Y-24072295D01*
X52422630Y-24206982D02*
X52422630Y-24240654D01*
X52439466Y-24291161D01*
X52523645Y-24375341D01*
X52574153Y-24392176D01*
X52607825Y-24392176D01*
X52658332Y-24375341D01*
X52692004Y-24341669D01*
X52725676Y-24274325D01*
X52725676Y-23870264D01*
X52944542Y-24089131D01*
D11*
X285424506Y-98750726D02*
X285091173Y-98750726D01*
X284948315Y-99274535D02*
X285424506Y-99274535D01*
X285424506Y-98274535D01*
X284948315Y-98274535D01*
X284614982Y-98274535D02*
X283948315Y-99274535D01*
X283948315Y-98274535D02*
X284614982Y-99274535D01*
X283710220Y-98274535D02*
X283138792Y-98274535D01*
X283424506Y-99274535D02*
X283424506Y-98274535D01*
X283043554Y-99369774D02*
X282281649Y-99369774D01*
X281472125Y-99179297D02*
X281519744Y-99226916D01*
X281662601Y-99274535D01*
X281757839Y-99274535D01*
X281900696Y-99226916D01*
X281995935Y-99131678D01*
X282043554Y-99036440D01*
X282091173Y-98845964D01*
X282091173Y-98703107D01*
X282043554Y-98512631D01*
X281995935Y-98417393D01*
X281900696Y-98322155D01*
X281757839Y-98274535D01*
X281662601Y-98274535D01*
X281519744Y-98322155D01*
X281472125Y-98369774D01*
X281138792Y-98274535D02*
X280472125Y-98274535D01*
X280900696Y-99274535D01*
X80637006Y-98750726D02*
X80303673Y-98750726D01*
X80160815Y-99274535D02*
X80637006Y-99274535D01*
X80637006Y-98274535D01*
X80160815Y-98274535D01*
X79827482Y-98274535D02*
X79160815Y-99274535D01*
X79160815Y-98274535D02*
X79827482Y-99274535D01*
X78922720Y-98274535D02*
X78351292Y-98274535D01*
X78637006Y-99274535D02*
X78637006Y-98274535D01*
X78256054Y-99369774D02*
X77494149Y-99369774D01*
X76684625Y-99274535D02*
X77017958Y-98798345D01*
X77256054Y-99274535D02*
X77256054Y-98274535D01*
X76875101Y-98274535D01*
X76779863Y-98322155D01*
X76732244Y-98369774D01*
X76684625Y-98465012D01*
X76684625Y-98607869D01*
X76732244Y-98703107D01*
X76779863Y-98750726D01*
X76875101Y-98798345D01*
X77256054Y-98798345D01*
X76208435Y-99274535D02*
X76017958Y-99274535D01*
X75922720Y-99226916D01*
X75875101Y-99179297D01*
X75779863Y-99036440D01*
X75732244Y-98845964D01*
X75732244Y-98465012D01*
X75779863Y-98369774D01*
X75827482Y-98322155D01*
X75922720Y-98274535D01*
X76113196Y-98274535D01*
X76208435Y-98322155D01*
X76256054Y-98369774D01*
X76303673Y-98465012D01*
X76303673Y-98703107D01*
X76256054Y-98798345D01*
X76208435Y-98845964D01*
X76113196Y-98893583D01*
X75922720Y-98893583D01*
X75827482Y-98845964D01*
X75779863Y-98798345D01*
X75732244Y-98703107D01*
X80637006Y-99416976D02*
X80303673Y-99416976D01*
X80160815Y-99940785D02*
X80637006Y-99940785D01*
X80637006Y-98940785D01*
X80160815Y-98940785D01*
X79827482Y-98940785D02*
X79160815Y-99940785D01*
X79160815Y-98940785D02*
X79827482Y-99940785D01*
X78922720Y-98940785D02*
X78351292Y-98940785D01*
X78637006Y-99940785D02*
X78637006Y-98940785D01*
X78256054Y-100036024D02*
X77494149Y-100036024D01*
X76684625Y-99940785D02*
X77017958Y-99464595D01*
X77256054Y-99940785D02*
X77256054Y-98940785D01*
X76875101Y-98940785D01*
X76779863Y-98988405D01*
X76732244Y-99036024D01*
X76684625Y-99131262D01*
X76684625Y-99274119D01*
X76732244Y-99369357D01*
X76779863Y-99416976D01*
X76875101Y-99464595D01*
X77256054Y-99464595D01*
X75827482Y-99274119D02*
X75827482Y-99940785D01*
X76065577Y-98893166D02*
X76303673Y-99607452D01*
X75684625Y-99607452D01*
X241157839Y-108080745D02*
X241157839Y-107080745D01*
X241157839Y-107556936D02*
X240586411Y-107556936D01*
X240586411Y-108080745D02*
X240586411Y-107080745D01*
X239634030Y-107080745D02*
X240110220Y-107080745D01*
X240157839Y-107556936D01*
X240110220Y-107509317D01*
X240014982Y-107461698D01*
X239776887Y-107461698D01*
X239681649Y-107509317D01*
X239634030Y-107556936D01*
X239586411Y-107652174D01*
X239586411Y-107890269D01*
X239634030Y-107985507D01*
X239681649Y-108033126D01*
X239776887Y-108080745D01*
X240014982Y-108080745D01*
X240110220Y-108033126D01*
X240157839Y-107985507D01*
X152074506Y-34885101D02*
X151741173Y-34885101D01*
X151598315Y-35408910D02*
X152074506Y-35408910D01*
X152074506Y-34408910D01*
X151598315Y-34408910D01*
X151264982Y-34408910D02*
X150598315Y-35408910D01*
X150598315Y-34408910D02*
X151264982Y-35408910D01*
X150360220Y-34408910D02*
X149788792Y-34408910D01*
X150074506Y-35408910D02*
X150074506Y-34408910D01*
X149693554Y-35504149D02*
X148931649Y-35504149D01*
X148122125Y-35408910D02*
X148455458Y-34932720D01*
X148693554Y-35408910D02*
X148693554Y-34408910D01*
X148312601Y-34408910D01*
X148217363Y-34456530D01*
X148169744Y-34504149D01*
X148122125Y-34599387D01*
X148122125Y-34742244D01*
X148169744Y-34837482D01*
X148217363Y-34885101D01*
X148312601Y-34932720D01*
X148693554Y-34932720D01*
X147264982Y-34408910D02*
X147455458Y-34408910D01*
X147550696Y-34456530D01*
X147598315Y-34504149D01*
X147693554Y-34647006D01*
X147741173Y-34837482D01*
X147741173Y-35218434D01*
X147693554Y-35313672D01*
X147645935Y-35361291D01*
X147550696Y-35408910D01*
X147360220Y-35408910D01*
X147264982Y-35361291D01*
X147217363Y-35313672D01*
X147169744Y-35218434D01*
X147169744Y-34980339D01*
X147217363Y-34885101D01*
X147264982Y-34837482D01*
X147360220Y-34789863D01*
X147550696Y-34789863D01*
X147645935Y-34837482D01*
X147693554Y-34885101D01*
X147741173Y-34980339D01*
X152074506Y-27313226D02*
X151741173Y-27313226D01*
X151598315Y-27837035D02*
X152074506Y-27837035D01*
X152074506Y-26837035D01*
X151598315Y-26837035D01*
X151264982Y-26837035D02*
X150598315Y-27837035D01*
X150598315Y-26837035D02*
X151264982Y-27837035D01*
X150360220Y-26837035D02*
X149788792Y-26837035D01*
X150074506Y-27837035D02*
X150074506Y-26837035D01*
X149693554Y-27932274D02*
X148931649Y-27932274D01*
X148122125Y-27837035D02*
X148455458Y-27360845D01*
X148693554Y-27837035D02*
X148693554Y-26837035D01*
X148312601Y-26837035D01*
X148217363Y-26884655D01*
X148169744Y-26932274D01*
X148122125Y-27027512D01*
X148122125Y-27170369D01*
X148169744Y-27265607D01*
X148217363Y-27313226D01*
X148312601Y-27360845D01*
X148693554Y-27360845D01*
X147169744Y-27837035D02*
X147741173Y-27837035D01*
X147455458Y-27837035D02*
X147455458Y-26837035D01*
X147550696Y-26979893D01*
X147645935Y-27075131D01*
X147741173Y-27122750D01*
X56824506Y-75356976D02*
X56491173Y-75356976D01*
X56348315Y-75880785D02*
X56824506Y-75880785D01*
X56824506Y-74880785D01*
X56348315Y-74880785D01*
X56014982Y-74880785D02*
X55348315Y-75880785D01*
X55348315Y-74880785D02*
X56014982Y-75880785D01*
X55110220Y-74880785D02*
X54538792Y-74880785D01*
X54824506Y-75880785D02*
X54824506Y-74880785D01*
X54443554Y-75976024D02*
X53681649Y-75976024D01*
X52872125Y-75880785D02*
X53205458Y-75404595D01*
X53443554Y-75880785D02*
X53443554Y-74880785D01*
X53062601Y-74880785D01*
X52967363Y-74928405D01*
X52919744Y-74976024D01*
X52872125Y-75071262D01*
X52872125Y-75214119D01*
X52919744Y-75309357D01*
X52967363Y-75356976D01*
X53062601Y-75404595D01*
X53443554Y-75404595D01*
X52538792Y-74880785D02*
X51872125Y-74880785D01*
X52300696Y-75880785D01*
X93242601Y-23616738D02*
X93242601Y-24410071D01*
X93195935Y-24503405D01*
X93149268Y-24550071D01*
X93055935Y-24596738D01*
X92869268Y-24596738D01*
X92775935Y-24550071D01*
X92729268Y-24503405D01*
X92682601Y-24410071D01*
X92682601Y-23616738D01*
X92262601Y-23710071D02*
X92215935Y-23663405D01*
X92122601Y-23616738D01*
X91889268Y-23616738D01*
X91795935Y-23663405D01*
X91749268Y-23710071D01*
X91702601Y-23803405D01*
X91702601Y-23896738D01*
X91749268Y-24036738D01*
X92309268Y-24596738D01*
X91702601Y-24596738D01*
D10*
X78863268Y-27229595D02*
X79029935Y-26991500D01*
X79148982Y-27229595D02*
X79148982Y-26729595D01*
X78958506Y-26729595D01*
X78910887Y-26753405D01*
X78887077Y-26777214D01*
X78863268Y-26824833D01*
X78863268Y-26896262D01*
X78887077Y-26943881D01*
X78910887Y-26967690D01*
X78958506Y-26991500D01*
X79148982Y-26991500D01*
X78577554Y-26943881D02*
X78625173Y-26920071D01*
X78648982Y-26896262D01*
X78672792Y-26848643D01*
X78672792Y-26824833D01*
X78648982Y-26777214D01*
X78625173Y-26753405D01*
X78577554Y-26729595D01*
X78482315Y-26729595D01*
X78434696Y-26753405D01*
X78410887Y-26777214D01*
X78387077Y-26824833D01*
X78387077Y-26848643D01*
X78410887Y-26896262D01*
X78434696Y-26920071D01*
X78482315Y-26943881D01*
X78577554Y-26943881D01*
X78625173Y-26967690D01*
X78648982Y-26991500D01*
X78672792Y-27039119D01*
X78672792Y-27134357D01*
X78648982Y-27181976D01*
X78625173Y-27205785D01*
X78577554Y-27229595D01*
X78482315Y-27229595D01*
X78434696Y-27205785D01*
X78410887Y-27181976D01*
X78387077Y-27134357D01*
X78387077Y-27039119D01*
X78410887Y-26991500D01*
X78434696Y-26967690D01*
X78482315Y-26943881D01*
X78863268Y-24816595D02*
X79029935Y-24578500D01*
X79148982Y-24816595D02*
X79148982Y-24316595D01*
X78958506Y-24316595D01*
X78910887Y-24340405D01*
X78887077Y-24364214D01*
X78863268Y-24411833D01*
X78863268Y-24483262D01*
X78887077Y-24530881D01*
X78910887Y-24554690D01*
X78958506Y-24578500D01*
X79148982Y-24578500D01*
X78625173Y-24816595D02*
X78529935Y-24816595D01*
X78482315Y-24792785D01*
X78458506Y-24768976D01*
X78410887Y-24697547D01*
X78387077Y-24602309D01*
X78387077Y-24411833D01*
X78410887Y-24364214D01*
X78434696Y-24340405D01*
X78482315Y-24316595D01*
X78577554Y-24316595D01*
X78625173Y-24340405D01*
X78648982Y-24364214D01*
X78672792Y-24411833D01*
X78672792Y-24530881D01*
X78648982Y-24578500D01*
X78625173Y-24602309D01*
X78577554Y-24626119D01*
X78482315Y-24626119D01*
X78434696Y-24602309D01*
X78410887Y-24578500D01*
X78387077Y-24530881D01*
D11*
X35154268Y-18845745D02*
X35154268Y-19560031D01*
X35201887Y-19702888D01*
X35297125Y-19798126D01*
X35439982Y-19845745D01*
X35535220Y-19845745D01*
X34154268Y-19845745D02*
X34725696Y-19845745D01*
X34439982Y-19845745D02*
X34439982Y-18845745D01*
X34535220Y-18988603D01*
X34630458Y-19083841D01*
X34725696Y-19131460D01*
D10*
X49928494Y-41079426D02*
X49928494Y-41045754D01*
X49894822Y-40978411D01*
X49861151Y-40944739D01*
X49793807Y-40911067D01*
X49726463Y-40911067D01*
X49675956Y-40927903D01*
X49591776Y-40978411D01*
X49541269Y-41028918D01*
X49490761Y-41113098D01*
X49473925Y-41163605D01*
X49473925Y-41230949D01*
X49507597Y-41298292D01*
X49541269Y-41331964D01*
X49608612Y-41365636D01*
X49642284Y-41365636D01*
X49911658Y-41702353D02*
X49844315Y-41635010D01*
X49827479Y-41584502D01*
X49827479Y-41550830D01*
X49844315Y-41466651D01*
X49894822Y-41382472D01*
X50029509Y-41247785D01*
X50080017Y-41230949D01*
X50113689Y-41230949D01*
X50164196Y-41247785D01*
X50231540Y-41315128D01*
X50248376Y-41365636D01*
X50248376Y-41399308D01*
X50231540Y-41449815D01*
X50147360Y-41533995D01*
X50096853Y-41550830D01*
X50063181Y-41550830D01*
X50012673Y-41533995D01*
X49945330Y-41466651D01*
X49928494Y-41416143D01*
X49928494Y-41382472D01*
X49945330Y-41331964D01*
X37207268Y-28880595D02*
X37373935Y-28642500D01*
X37492982Y-28880595D02*
X37492982Y-28380595D01*
X37302506Y-28380595D01*
X37254887Y-28404405D01*
X37231077Y-28428214D01*
X37207268Y-28475833D01*
X37207268Y-28547262D01*
X37231077Y-28594881D01*
X37254887Y-28618690D01*
X37302506Y-28642500D01*
X37492982Y-28642500D01*
X36778696Y-28547262D02*
X36778696Y-28880595D01*
X36897744Y-28356785D02*
X37016792Y-28713928D01*
X36707268Y-28713928D01*
D11*
X142549506Y-98750726D02*
X142216173Y-98750726D01*
X142073315Y-99274535D02*
X142549506Y-99274535D01*
X142549506Y-98274535D01*
X142073315Y-98274535D01*
X141739982Y-98274535D02*
X141073315Y-99274535D01*
X141073315Y-98274535D02*
X141739982Y-99274535D01*
X140835220Y-98274535D02*
X140263792Y-98274535D01*
X140549506Y-99274535D02*
X140549506Y-98274535D01*
X140168554Y-99369774D02*
X139406649Y-99369774D01*
X138597125Y-99179297D02*
X138644744Y-99226916D01*
X138787601Y-99274535D01*
X138882839Y-99274535D01*
X139025696Y-99226916D01*
X139120935Y-99131678D01*
X139168554Y-99036440D01*
X139216173Y-98845964D01*
X139216173Y-98703107D01*
X139168554Y-98512631D01*
X139120935Y-98417393D01*
X139025696Y-98322155D01*
X138882839Y-98274535D01*
X138787601Y-98274535D01*
X138644744Y-98322155D01*
X138597125Y-98369774D01*
X138263792Y-98274535D02*
X137644744Y-98274535D01*
X137978077Y-98655488D01*
X137835220Y-98655488D01*
X137739982Y-98703107D01*
X137692363Y-98750726D01*
X137644744Y-98845964D01*
X137644744Y-99084059D01*
X137692363Y-99179297D01*
X137739982Y-99226916D01*
X137835220Y-99274535D01*
X138120935Y-99274535D01*
X138216173Y-99226916D01*
X138263792Y-99179297D01*
X161599506Y-27313226D02*
X161266173Y-27313226D01*
X161123315Y-27837035D02*
X161599506Y-27837035D01*
X161599506Y-26837035D01*
X161123315Y-26837035D01*
X160789982Y-26837035D02*
X160123315Y-27837035D01*
X160123315Y-26837035D02*
X160789982Y-27837035D01*
X159885220Y-26837035D02*
X159313792Y-26837035D01*
X159599506Y-27837035D02*
X159599506Y-26837035D01*
X159218554Y-27932274D02*
X158456649Y-27932274D01*
X157647125Y-27837035D02*
X157980458Y-27360845D01*
X158218554Y-27837035D02*
X158218554Y-26837035D01*
X157837601Y-26837035D01*
X157742363Y-26884655D01*
X157694744Y-26932274D01*
X157647125Y-27027512D01*
X157647125Y-27170369D01*
X157694744Y-27265607D01*
X157742363Y-27313226D01*
X157837601Y-27360845D01*
X158218554Y-27360845D01*
X157028077Y-26837035D02*
X156932839Y-26837035D01*
X156837601Y-26884655D01*
X156789982Y-26932274D01*
X156742363Y-27027512D01*
X156694744Y-27217988D01*
X156694744Y-27456083D01*
X156742363Y-27646559D01*
X156789982Y-27741797D01*
X156837601Y-27789416D01*
X156932839Y-27837035D01*
X157028077Y-27837035D01*
X157123315Y-27789416D01*
X157170935Y-27741797D01*
X157218554Y-27646559D01*
X157266173Y-27456083D01*
X157266173Y-27217988D01*
X157218554Y-27027512D01*
X157170935Y-26932274D01*
X157123315Y-26884655D01*
X157028077Y-26837035D01*
X290351768Y-52649535D02*
X290351768Y-53363821D01*
X290399387Y-53506678D01*
X290494625Y-53601916D01*
X290637482Y-53649535D01*
X290732720Y-53649535D01*
X289923196Y-52744774D02*
X289875577Y-52697155D01*
X289780339Y-52649535D01*
X289542244Y-52649535D01*
X289447006Y-52697155D01*
X289399387Y-52744774D01*
X289351768Y-52840012D01*
X289351768Y-52935250D01*
X289399387Y-53078107D01*
X289970815Y-53649535D01*
X289351768Y-53649535D01*
X80637006Y-104703851D02*
X80303673Y-104703851D01*
X80160815Y-105227660D02*
X80637006Y-105227660D01*
X80637006Y-104227660D01*
X80160815Y-104227660D01*
X79827482Y-104227660D02*
X79160815Y-105227660D01*
X79160815Y-104227660D02*
X79827482Y-105227660D01*
X78922720Y-104227660D02*
X78351292Y-104227660D01*
X78637006Y-105227660D02*
X78637006Y-104227660D01*
X78256054Y-105322899D02*
X77494149Y-105322899D01*
X76684625Y-105132422D02*
X76732244Y-105180041D01*
X76875101Y-105227660D01*
X76970339Y-105227660D01*
X77113196Y-105180041D01*
X77208435Y-105084803D01*
X77256054Y-104989565D01*
X77303673Y-104799089D01*
X77303673Y-104656232D01*
X77256054Y-104465756D01*
X77208435Y-104370518D01*
X77113196Y-104275280D01*
X76970339Y-104227660D01*
X76875101Y-104227660D01*
X76732244Y-104275280D01*
X76684625Y-104322899D01*
X75732244Y-105227660D02*
X76303673Y-105227660D01*
X76017958Y-105227660D02*
X76017958Y-104227660D01*
X76113196Y-104370518D01*
X76208435Y-104465756D01*
X76303673Y-104513375D01*
X79470190Y-67460994D02*
X78470190Y-67460994D01*
X78470190Y-67699089D01*
X78517810Y-67841946D01*
X78613048Y-67937184D01*
X78708286Y-67984803D01*
X78898762Y-68032422D01*
X79041619Y-68032422D01*
X79232095Y-67984803D01*
X79327333Y-67937184D01*
X79422571Y-67841946D01*
X79470190Y-67699089D01*
X79470190Y-67460994D01*
X78470190Y-68365756D02*
X78470190Y-68984803D01*
X78851143Y-68651470D01*
X78851143Y-68794327D01*
X78898762Y-68889565D01*
X78946381Y-68937184D01*
X79041619Y-68984803D01*
X79279714Y-68984803D01*
X79374952Y-68937184D01*
X79422571Y-68889565D01*
X79470190Y-68794327D01*
X79470190Y-68508613D01*
X79422571Y-68413375D01*
X79374952Y-68365756D01*
X78898762Y-69556232D02*
X78851143Y-69460994D01*
X78803524Y-69413375D01*
X78708286Y-69365756D01*
X78660667Y-69365756D01*
X78565429Y-69413375D01*
X78517810Y-69460994D01*
X78470190Y-69556232D01*
X78470190Y-69746708D01*
X78517810Y-69841946D01*
X78565429Y-69889565D01*
X78660667Y-69937184D01*
X78708286Y-69937184D01*
X78803524Y-69889565D01*
X78851143Y-69841946D01*
X78898762Y-69746708D01*
X78898762Y-69556232D01*
X78946381Y-69460994D01*
X78994000Y-69413375D01*
X79089238Y-69365756D01*
X79279714Y-69365756D01*
X79374952Y-69413375D01*
X79422571Y-69460994D01*
X79470190Y-69556232D01*
X79470190Y-69746708D01*
X79422571Y-69841946D01*
X79374952Y-69889565D01*
X79279714Y-69937184D01*
X79089238Y-69937184D01*
X78994000Y-69889565D01*
X78946381Y-69841946D01*
X78898762Y-69746708D01*
X298545190Y-105560994D02*
X297545190Y-105560994D01*
X297545190Y-105799089D01*
X297592810Y-105941946D01*
X297688048Y-106037184D01*
X297783286Y-106084803D01*
X297973762Y-106132422D01*
X298116619Y-106132422D01*
X298307095Y-106084803D01*
X298402333Y-106037184D01*
X298497571Y-105941946D01*
X298545190Y-105799089D01*
X298545190Y-105560994D01*
X297545190Y-107037184D02*
X297545190Y-106560994D01*
X298021381Y-106513375D01*
X297973762Y-106560994D01*
X297926143Y-106656232D01*
X297926143Y-106894327D01*
X297973762Y-106989565D01*
X298021381Y-107037184D01*
X298116619Y-107084803D01*
X298354714Y-107084803D01*
X298449952Y-107037184D01*
X298497571Y-106989565D01*
X298545190Y-106894327D01*
X298545190Y-106656232D01*
X298497571Y-106560994D01*
X298449952Y-106513375D01*
X298545190Y-108037184D02*
X298545190Y-107465756D01*
X298545190Y-107751470D02*
X297545190Y-107751470D01*
X297688048Y-107656232D01*
X297783286Y-107560994D01*
X297830905Y-107465756D01*
X98520190Y-68510994D02*
X97520190Y-68510994D01*
X97520190Y-68749089D01*
X97567810Y-68891946D01*
X97663048Y-68987184D01*
X97758286Y-69034803D01*
X97948762Y-69082422D01*
X98091619Y-69082422D01*
X98282095Y-69034803D01*
X98377333Y-68987184D01*
X98472571Y-68891946D01*
X98520190Y-68749089D01*
X98520190Y-68510994D01*
X97520190Y-69415756D02*
X97520190Y-70034803D01*
X97901143Y-69701470D01*
X97901143Y-69844327D01*
X97948762Y-69939565D01*
X97996381Y-69987184D01*
X98091619Y-70034803D01*
X98329714Y-70034803D01*
X98424952Y-69987184D01*
X98472571Y-69939565D01*
X98520190Y-69844327D01*
X98520190Y-69558613D01*
X98472571Y-69463375D01*
X98424952Y-69415756D01*
X97520190Y-70368137D02*
X97520190Y-71034803D01*
X98520190Y-70606232D01*
X96138940Y-106610994D02*
X95138940Y-106610994D01*
X95138940Y-106849089D01*
X95186560Y-106991946D01*
X95281798Y-107087184D01*
X95377036Y-107134803D01*
X95567512Y-107182422D01*
X95710369Y-107182422D01*
X95900845Y-107134803D01*
X95996083Y-107087184D01*
X96091321Y-106991946D01*
X96138940Y-106849089D01*
X96138940Y-106610994D01*
X95138940Y-108087184D02*
X95138940Y-107610994D01*
X95615131Y-107563375D01*
X95567512Y-107610994D01*
X95519893Y-107706232D01*
X95519893Y-107944327D01*
X95567512Y-108039565D01*
X95615131Y-108087184D01*
X95710369Y-108134803D01*
X95948464Y-108134803D01*
X96043702Y-108087184D01*
X96091321Y-108039565D01*
X96138940Y-107944327D01*
X96138940Y-107706232D01*
X96091321Y-107610994D01*
X96043702Y-107563375D01*
X95138940Y-108468137D02*
X95138940Y-109134803D01*
X96138940Y-108706232D01*
X161623315Y-106510994D02*
X160623315Y-106510994D01*
X160623315Y-106749089D01*
X160670935Y-106891946D01*
X160766173Y-106987184D01*
X160861411Y-107034803D01*
X161051887Y-107082422D01*
X161194744Y-107082422D01*
X161385220Y-107034803D01*
X161480458Y-106987184D01*
X161575696Y-106891946D01*
X161623315Y-106749089D01*
X161623315Y-106510994D01*
X160718554Y-107463375D02*
X160670935Y-107510994D01*
X160623315Y-107606232D01*
X160623315Y-107844327D01*
X160670935Y-107939565D01*
X160718554Y-107987184D01*
X160813792Y-108034803D01*
X160909030Y-108034803D01*
X161051887Y-107987184D01*
X161623315Y-107415756D01*
X161623315Y-108034803D01*
X160718554Y-108415756D02*
X160670935Y-108463375D01*
X160623315Y-108558613D01*
X160623315Y-108796708D01*
X160670935Y-108891946D01*
X160718554Y-108939565D01*
X160813792Y-108987184D01*
X160909030Y-108987184D01*
X161051887Y-108939565D01*
X161623315Y-108368137D01*
X161623315Y-108987184D01*
X88995190Y-87560994D02*
X87995190Y-87560994D01*
X87995190Y-87799089D01*
X88042810Y-87941946D01*
X88138048Y-88037184D01*
X88233286Y-88084803D01*
X88423762Y-88132422D01*
X88566619Y-88132422D01*
X88757095Y-88084803D01*
X88852333Y-88037184D01*
X88947571Y-87941946D01*
X88995190Y-87799089D01*
X88995190Y-87560994D01*
X88328524Y-88989565D02*
X88995190Y-88989565D01*
X87947571Y-88751470D02*
X88661857Y-88513375D01*
X88661857Y-89132422D01*
X87995190Y-89418137D02*
X87995190Y-90084803D01*
X88995190Y-89656232D01*
X203588940Y-87923494D02*
X202588940Y-87923494D01*
X202588940Y-88161589D01*
X202636560Y-88304446D01*
X202731798Y-88399684D01*
X202827036Y-88447303D01*
X203017512Y-88494922D01*
X203160369Y-88494922D01*
X203350845Y-88447303D01*
X203446083Y-88399684D01*
X203541321Y-88304446D01*
X203588940Y-88161589D01*
X203588940Y-87923494D01*
X202922274Y-89352065D02*
X203588940Y-89352065D01*
X202541321Y-89113970D02*
X203255607Y-88875875D01*
X203255607Y-89494922D01*
X202588940Y-90352065D02*
X202588940Y-89875875D01*
X203065131Y-89828256D01*
X203017512Y-89875875D01*
X202969893Y-89971113D01*
X202969893Y-90209208D01*
X203017512Y-90304446D01*
X203065131Y-90352065D01*
X203160369Y-90399684D01*
X203398464Y-90399684D01*
X203493702Y-90352065D01*
X203541321Y-90304446D01*
X203588940Y-90209208D01*
X203588940Y-89971113D01*
X203541321Y-89875875D01*
X203493702Y-89828256D01*
X127095190Y-106660994D02*
X126095190Y-106660994D01*
X126095190Y-106899089D01*
X126142810Y-107041946D01*
X126238048Y-107137184D01*
X126333286Y-107184803D01*
X126523762Y-107232422D01*
X126666619Y-107232422D01*
X126857095Y-107184803D01*
X126952333Y-107137184D01*
X127047571Y-107041946D01*
X127095190Y-106899089D01*
X127095190Y-106660994D01*
X126095190Y-108137184D02*
X126095190Y-107660994D01*
X126571381Y-107613375D01*
X126523762Y-107660994D01*
X126476143Y-107756232D01*
X126476143Y-107994327D01*
X126523762Y-108089565D01*
X126571381Y-108137184D01*
X126666619Y-108184803D01*
X126904714Y-108184803D01*
X126999952Y-108137184D01*
X127047571Y-108089565D01*
X127095190Y-107994327D01*
X127095190Y-107756232D01*
X127047571Y-107660994D01*
X126999952Y-107613375D01*
X126095190Y-109041946D02*
X126095190Y-108851470D01*
X126142810Y-108756232D01*
X126190429Y-108708613D01*
X126333286Y-108613375D01*
X126523762Y-108565756D01*
X126904714Y-108565756D01*
X126999952Y-108613375D01*
X127047571Y-108660994D01*
X127095190Y-108756232D01*
X127095190Y-108946708D01*
X127047571Y-109041946D01*
X126999952Y-109089565D01*
X126904714Y-109137184D01*
X126666619Y-109137184D01*
X126571381Y-109089565D01*
X126523762Y-109041946D01*
X126476143Y-108946708D01*
X126476143Y-108756232D01*
X126523762Y-108660994D01*
X126571381Y-108613375D01*
X126666619Y-108565756D01*
X260445190Y-86510994D02*
X259445190Y-86510994D01*
X259445190Y-86749089D01*
X259492810Y-86891946D01*
X259588048Y-86987184D01*
X259683286Y-87034803D01*
X259873762Y-87082422D01*
X260016619Y-87082422D01*
X260207095Y-87034803D01*
X260302333Y-86987184D01*
X260397571Y-86891946D01*
X260445190Y-86749089D01*
X260445190Y-86510994D01*
X260445190Y-87558613D02*
X260445190Y-87749089D01*
X260397571Y-87844327D01*
X260349952Y-87891946D01*
X260207095Y-87987184D01*
X260016619Y-88034803D01*
X259635667Y-88034803D01*
X259540429Y-87987184D01*
X259492810Y-87939565D01*
X259445190Y-87844327D01*
X259445190Y-87653851D01*
X259492810Y-87558613D01*
X259540429Y-87510994D01*
X259635667Y-87463375D01*
X259873762Y-87463375D01*
X259969000Y-87510994D01*
X260016619Y-87558613D01*
X260064238Y-87653851D01*
X260064238Y-87844327D01*
X260016619Y-87939565D01*
X259969000Y-87987184D01*
X259873762Y-88034803D01*
X259445190Y-88368137D02*
X259445190Y-88987184D01*
X259826143Y-88653851D01*
X259826143Y-88796708D01*
X259873762Y-88891946D01*
X259921381Y-88939565D01*
X260016619Y-88987184D01*
X260254714Y-88987184D01*
X260349952Y-88939565D01*
X260397571Y-88891946D01*
X260445190Y-88796708D01*
X260445190Y-88510994D01*
X260397571Y-88415756D01*
X260349952Y-88368137D01*
X31845190Y-105560994D02*
X30845190Y-105560994D01*
X30845190Y-105799089D01*
X30892810Y-105941946D01*
X30988048Y-106037184D01*
X31083286Y-106084803D01*
X31273762Y-106132422D01*
X31416619Y-106132422D01*
X31607095Y-106084803D01*
X31702333Y-106037184D01*
X31797571Y-105941946D01*
X31845190Y-105799089D01*
X31845190Y-105560994D01*
X30845190Y-107037184D02*
X30845190Y-106560994D01*
X31321381Y-106513375D01*
X31273762Y-106560994D01*
X31226143Y-106656232D01*
X31226143Y-106894327D01*
X31273762Y-106989565D01*
X31321381Y-107037184D01*
X31416619Y-107084803D01*
X31654714Y-107084803D01*
X31749952Y-107037184D01*
X31797571Y-106989565D01*
X31845190Y-106894327D01*
X31845190Y-106656232D01*
X31797571Y-106560994D01*
X31749952Y-106513375D01*
X31845190Y-107560994D02*
X31845190Y-107751470D01*
X31797571Y-107846708D01*
X31749952Y-107894327D01*
X31607095Y-107989565D01*
X31416619Y-108037184D01*
X31035667Y-108037184D01*
X30940429Y-107989565D01*
X30892810Y-107941946D01*
X30845190Y-107846708D01*
X30845190Y-107656232D01*
X30892810Y-107560994D01*
X30940429Y-107513375D01*
X31035667Y-107465756D01*
X31273762Y-107465756D01*
X31369000Y-107513375D01*
X31416619Y-107560994D01*
X31464238Y-107656232D01*
X31464238Y-107846708D01*
X31416619Y-107941946D01*
X31369000Y-107989565D01*
X31273762Y-108037184D01*
X231870190Y-67460994D02*
X230870190Y-67460994D01*
X230870190Y-67699089D01*
X230917810Y-67841946D01*
X231013048Y-67937184D01*
X231108286Y-67984803D01*
X231298762Y-68032422D01*
X231441619Y-68032422D01*
X231632095Y-67984803D01*
X231727333Y-67937184D01*
X231822571Y-67841946D01*
X231870190Y-67699089D01*
X231870190Y-67460994D01*
X230870190Y-68365756D02*
X230870190Y-68984803D01*
X231251143Y-68651470D01*
X231251143Y-68794327D01*
X231298762Y-68889565D01*
X231346381Y-68937184D01*
X231441619Y-68984803D01*
X231679714Y-68984803D01*
X231774952Y-68937184D01*
X231822571Y-68889565D01*
X231870190Y-68794327D01*
X231870190Y-68508613D01*
X231822571Y-68413375D01*
X231774952Y-68365756D01*
X231203524Y-69841946D02*
X231870190Y-69841946D01*
X230822571Y-69603851D02*
X231536857Y-69365756D01*
X231536857Y-69984803D01*
X241395190Y-87560994D02*
X240395190Y-87560994D01*
X240395190Y-87799089D01*
X240442810Y-87941946D01*
X240538048Y-88037184D01*
X240633286Y-88084803D01*
X240823762Y-88132422D01*
X240966619Y-88132422D01*
X241157095Y-88084803D01*
X241252333Y-88037184D01*
X241347571Y-87941946D01*
X241395190Y-87799089D01*
X241395190Y-87560994D01*
X241395190Y-88608613D02*
X241395190Y-88799089D01*
X241347571Y-88894327D01*
X241299952Y-88941946D01*
X241157095Y-89037184D01*
X240966619Y-89084803D01*
X240585667Y-89084803D01*
X240490429Y-89037184D01*
X240442810Y-88989565D01*
X240395190Y-88894327D01*
X240395190Y-88703851D01*
X240442810Y-88608613D01*
X240490429Y-88560994D01*
X240585667Y-88513375D01*
X240823762Y-88513375D01*
X240919000Y-88560994D01*
X240966619Y-88608613D01*
X241014238Y-88703851D01*
X241014238Y-88894327D01*
X240966619Y-88989565D01*
X240919000Y-89037184D01*
X240823762Y-89084803D01*
X240728524Y-89941946D02*
X241395190Y-89941946D01*
X240347571Y-89703851D02*
X241061857Y-89465756D01*
X241061857Y-90084803D01*
X203295190Y-106606994D02*
X202295190Y-106606994D01*
X202295190Y-106845089D01*
X202342810Y-106987946D01*
X202438048Y-107083184D01*
X202533286Y-107130803D01*
X202723762Y-107178422D01*
X202866619Y-107178422D01*
X203057095Y-107130803D01*
X203152333Y-107083184D01*
X203247571Y-106987946D01*
X203295190Y-106845089D01*
X203295190Y-106606994D01*
X203295190Y-107654613D02*
X203295190Y-107845089D01*
X203247571Y-107940327D01*
X203199952Y-107987946D01*
X203057095Y-108083184D01*
X202866619Y-108130803D01*
X202485667Y-108130803D01*
X202390429Y-108083184D01*
X202342810Y-108035565D01*
X202295190Y-107940327D01*
X202295190Y-107749851D01*
X202342810Y-107654613D01*
X202390429Y-107606994D01*
X202485667Y-107559375D01*
X202723762Y-107559375D01*
X202819000Y-107606994D01*
X202866619Y-107654613D01*
X202914238Y-107749851D01*
X202914238Y-107940327D01*
X202866619Y-108035565D01*
X202819000Y-108083184D01*
X202723762Y-108130803D01*
X202295190Y-108987946D02*
X202295190Y-108797470D01*
X202342810Y-108702232D01*
X202390429Y-108654613D01*
X202533286Y-108559375D01*
X202723762Y-108511756D01*
X203104714Y-108511756D01*
X203199952Y-108559375D01*
X203247571Y-108606994D01*
X203295190Y-108702232D01*
X203295190Y-108892708D01*
X203247571Y-108987946D01*
X203199952Y-109035565D01*
X203104714Y-109083184D01*
X202866619Y-109083184D01*
X202771381Y-109035565D01*
X202723762Y-108987946D01*
X202676143Y-108892708D01*
X202676143Y-108702232D01*
X202723762Y-108606994D01*
X202771381Y-108559375D01*
X202866619Y-108511756D01*
X222345190Y-86510994D02*
X221345190Y-86510994D01*
X221345190Y-86749089D01*
X221392810Y-86891946D01*
X221488048Y-86987184D01*
X221583286Y-87034803D01*
X221773762Y-87082422D01*
X221916619Y-87082422D01*
X222107095Y-87034803D01*
X222202333Y-86987184D01*
X222297571Y-86891946D01*
X222345190Y-86749089D01*
X222345190Y-86510994D01*
X221678524Y-87939565D02*
X222345190Y-87939565D01*
X221297571Y-87701470D02*
X222011857Y-87463375D01*
X222011857Y-88082422D01*
X221345190Y-88368137D02*
X221345190Y-88987184D01*
X221726143Y-88653851D01*
X221726143Y-88796708D01*
X221773762Y-88891946D01*
X221821381Y-88939565D01*
X221916619Y-88987184D01*
X222154714Y-88987184D01*
X222249952Y-88939565D01*
X222297571Y-88891946D01*
X222345190Y-88796708D01*
X222345190Y-88510994D01*
X222297571Y-88415756D01*
X222249952Y-88368137D01*
X279495190Y-106610994D02*
X278495190Y-106610994D01*
X278495190Y-106849089D01*
X278542810Y-106991946D01*
X278638048Y-107087184D01*
X278733286Y-107134803D01*
X278923762Y-107182422D01*
X279066619Y-107182422D01*
X279257095Y-107134803D01*
X279352333Y-107087184D01*
X279447571Y-106991946D01*
X279495190Y-106849089D01*
X279495190Y-106610994D01*
X278495190Y-108087184D02*
X278495190Y-107610994D01*
X278971381Y-107563375D01*
X278923762Y-107610994D01*
X278876143Y-107706232D01*
X278876143Y-107944327D01*
X278923762Y-108039565D01*
X278971381Y-108087184D01*
X279066619Y-108134803D01*
X279304714Y-108134803D01*
X279399952Y-108087184D01*
X279447571Y-108039565D01*
X279495190Y-107944327D01*
X279495190Y-107706232D01*
X279447571Y-107610994D01*
X279399952Y-107563375D01*
X278590429Y-108515756D02*
X278542810Y-108563375D01*
X278495190Y-108658613D01*
X278495190Y-108896708D01*
X278542810Y-108991946D01*
X278590429Y-109039565D01*
X278685667Y-109087184D01*
X278780905Y-109087184D01*
X278923762Y-109039565D01*
X279495190Y-108468137D01*
X279495190Y-109087184D01*
X212820190Y-68510994D02*
X211820190Y-68510994D01*
X211820190Y-68749089D01*
X211867810Y-68891946D01*
X211963048Y-68987184D01*
X212058286Y-69034803D01*
X212248762Y-69082422D01*
X212391619Y-69082422D01*
X212582095Y-69034803D01*
X212677333Y-68987184D01*
X212772571Y-68891946D01*
X212820190Y-68749089D01*
X212820190Y-68510994D01*
X211820190Y-69415756D02*
X211820190Y-70034803D01*
X212201143Y-69701470D01*
X212201143Y-69844327D01*
X212248762Y-69939565D01*
X212296381Y-69987184D01*
X212391619Y-70034803D01*
X212629714Y-70034803D01*
X212724952Y-69987184D01*
X212772571Y-69939565D01*
X212820190Y-69844327D01*
X212820190Y-69558613D01*
X212772571Y-69463375D01*
X212724952Y-69415756D01*
X211820190Y-70939565D02*
X211820190Y-70463375D01*
X212296381Y-70415756D01*
X212248762Y-70463375D01*
X212201143Y-70558613D01*
X212201143Y-70796708D01*
X212248762Y-70891946D01*
X212296381Y-70939565D01*
X212391619Y-70987184D01*
X212629714Y-70987184D01*
X212724952Y-70939565D01*
X212772571Y-70891946D01*
X212820190Y-70796708D01*
X212820190Y-70558613D01*
X212772571Y-70463375D01*
X212724952Y-70415756D01*
X250920190Y-68510994D02*
X249920190Y-68510994D01*
X249920190Y-68749089D01*
X249967810Y-68891946D01*
X250063048Y-68987184D01*
X250158286Y-69034803D01*
X250348762Y-69082422D01*
X250491619Y-69082422D01*
X250682095Y-69034803D01*
X250777333Y-68987184D01*
X250872571Y-68891946D01*
X250920190Y-68749089D01*
X250920190Y-68510994D01*
X250348762Y-69653851D02*
X250301143Y-69558613D01*
X250253524Y-69510994D01*
X250158286Y-69463375D01*
X250110667Y-69463375D01*
X250015429Y-69510994D01*
X249967810Y-69558613D01*
X249920190Y-69653851D01*
X249920190Y-69844327D01*
X249967810Y-69939565D01*
X250015429Y-69987184D01*
X250110667Y-70034803D01*
X250158286Y-70034803D01*
X250253524Y-69987184D01*
X250301143Y-69939565D01*
X250348762Y-69844327D01*
X250348762Y-69653851D01*
X250396381Y-69558613D01*
X250444000Y-69510994D01*
X250539238Y-69463375D01*
X250729714Y-69463375D01*
X250824952Y-69510994D01*
X250872571Y-69558613D01*
X250920190Y-69653851D01*
X250920190Y-69844327D01*
X250872571Y-69939565D01*
X250824952Y-69987184D01*
X250729714Y-70034803D01*
X250539238Y-70034803D01*
X250444000Y-69987184D01*
X250396381Y-69939565D01*
X250348762Y-69844327D01*
X250253524Y-70891946D02*
X250920190Y-70891946D01*
X249872571Y-70653851D02*
X250586857Y-70415756D01*
X250586857Y-71034803D01*
X180673315Y-105560994D02*
X179673315Y-105560994D01*
X179673315Y-105799089D01*
X179720935Y-105941946D01*
X179816173Y-106037184D01*
X179911411Y-106084803D01*
X180101887Y-106132422D01*
X180244744Y-106132422D01*
X180435220Y-106084803D01*
X180530458Y-106037184D01*
X180625696Y-105941946D01*
X180673315Y-105799089D01*
X180673315Y-105560994D01*
X180006649Y-106989565D02*
X180673315Y-106989565D01*
X179625696Y-106751470D02*
X180339982Y-106513375D01*
X180339982Y-107132422D01*
X179673315Y-107703851D02*
X179673315Y-107799089D01*
X179720935Y-107894327D01*
X179768554Y-107941946D01*
X179863792Y-107989565D01*
X180054268Y-108037184D01*
X180292363Y-108037184D01*
X180482839Y-107989565D01*
X180578077Y-107941946D01*
X180625696Y-107894327D01*
X180673315Y-107799089D01*
X180673315Y-107703851D01*
X180625696Y-107608613D01*
X180578077Y-107560994D01*
X180482839Y-107513375D01*
X180292363Y-107465756D01*
X180054268Y-107465756D01*
X179863792Y-107513375D01*
X179768554Y-107560994D01*
X179720935Y-107608613D01*
X179673315Y-107703851D01*
X279495190Y-87560994D02*
X278495190Y-87560994D01*
X278495190Y-87799089D01*
X278542810Y-87941946D01*
X278638048Y-88037184D01*
X278733286Y-88084803D01*
X278923762Y-88132422D01*
X279066619Y-88132422D01*
X279257095Y-88084803D01*
X279352333Y-88037184D01*
X279447571Y-87941946D01*
X279495190Y-87799089D01*
X279495190Y-87560994D01*
X278828524Y-88989565D02*
X279495190Y-88989565D01*
X278447571Y-88751470D02*
X279161857Y-88513375D01*
X279161857Y-89132422D01*
X279495190Y-90037184D02*
X279495190Y-89465756D01*
X279495190Y-89751470D02*
X278495190Y-89751470D01*
X278638048Y-89656232D01*
X278733286Y-89560994D01*
X278780905Y-89465756D01*
X53276440Y-67460994D02*
X52276440Y-67460994D01*
X52276440Y-67699089D01*
X52324060Y-67841946D01*
X52419298Y-67937184D01*
X52514536Y-67984803D01*
X52705012Y-68032422D01*
X52847869Y-68032422D01*
X53038345Y-67984803D01*
X53133583Y-67937184D01*
X53228821Y-67841946D01*
X53276440Y-67699089D01*
X53276440Y-67460994D01*
X52276440Y-68365756D02*
X52276440Y-68984803D01*
X52657393Y-68651470D01*
X52657393Y-68794327D01*
X52705012Y-68889565D01*
X52752631Y-68937184D01*
X52847869Y-68984803D01*
X53085964Y-68984803D01*
X53181202Y-68937184D01*
X53228821Y-68889565D01*
X53276440Y-68794327D01*
X53276440Y-68508613D01*
X53228821Y-68413375D01*
X53181202Y-68365756D01*
X53276440Y-69460994D02*
X53276440Y-69651470D01*
X53228821Y-69746708D01*
X53181202Y-69794327D01*
X53038345Y-69889565D01*
X52847869Y-69937184D01*
X52466917Y-69937184D01*
X52371679Y-69889565D01*
X52324060Y-69841946D01*
X52276440Y-69746708D01*
X52276440Y-69556232D01*
X52324060Y-69460994D01*
X52371679Y-69413375D01*
X52466917Y-69365756D01*
X52705012Y-69365756D01*
X52800250Y-69413375D01*
X52847869Y-69460994D01*
X52895488Y-69556232D01*
X52895488Y-69746708D01*
X52847869Y-69841946D01*
X52800250Y-69889565D01*
X52705012Y-69937184D01*
X231870190Y-48410994D02*
X230870190Y-48410994D01*
X230870190Y-48649089D01*
X230917810Y-48791946D01*
X231013048Y-48887184D01*
X231108286Y-48934803D01*
X231298762Y-48982422D01*
X231441619Y-48982422D01*
X231632095Y-48934803D01*
X231727333Y-48887184D01*
X231822571Y-48791946D01*
X231870190Y-48649089D01*
X231870190Y-48410994D01*
X230965429Y-49363375D02*
X230917810Y-49410994D01*
X230870190Y-49506232D01*
X230870190Y-49744327D01*
X230917810Y-49839565D01*
X230965429Y-49887184D01*
X231060667Y-49934803D01*
X231155905Y-49934803D01*
X231298762Y-49887184D01*
X231870190Y-49315756D01*
X231870190Y-49934803D01*
X231203524Y-50791946D02*
X231870190Y-50791946D01*
X230822571Y-50553851D02*
X231536857Y-50315756D01*
X231536857Y-50934803D01*
X278304565Y-68510994D02*
X277304565Y-68510994D01*
X277304565Y-68749089D01*
X277352185Y-68891946D01*
X277447423Y-68987184D01*
X277542661Y-69034803D01*
X277733137Y-69082422D01*
X277875994Y-69082422D01*
X278066470Y-69034803D01*
X278161708Y-68987184D01*
X278256946Y-68891946D01*
X278304565Y-68749089D01*
X278304565Y-68510994D01*
X277304565Y-69415756D02*
X277304565Y-70034803D01*
X277685518Y-69701470D01*
X277685518Y-69844327D01*
X277733137Y-69939565D01*
X277780756Y-69987184D01*
X277875994Y-70034803D01*
X278114089Y-70034803D01*
X278209327Y-69987184D01*
X278256946Y-69939565D01*
X278304565Y-69844327D01*
X278304565Y-69558613D01*
X278256946Y-69463375D01*
X278209327Y-69415756D01*
X277399804Y-70415756D02*
X277352185Y-70463375D01*
X277304565Y-70558613D01*
X277304565Y-70796708D01*
X277352185Y-70891946D01*
X277399804Y-70939565D01*
X277495042Y-70987184D01*
X277590280Y-70987184D01*
X277733137Y-70939565D01*
X278304565Y-70368137D01*
X278304565Y-70987184D01*
X98520190Y-49460994D02*
X97520190Y-49460994D01*
X97520190Y-49699089D01*
X97567810Y-49841946D01*
X97663048Y-49937184D01*
X97758286Y-49984803D01*
X97948762Y-50032422D01*
X98091619Y-50032422D01*
X98282095Y-49984803D01*
X98377333Y-49937184D01*
X98472571Y-49841946D01*
X98520190Y-49699089D01*
X98520190Y-49460994D01*
X97615429Y-50413375D02*
X97567810Y-50460994D01*
X97520190Y-50556232D01*
X97520190Y-50794327D01*
X97567810Y-50889565D01*
X97615429Y-50937184D01*
X97710667Y-50984803D01*
X97805905Y-50984803D01*
X97948762Y-50937184D01*
X98520190Y-50365756D01*
X98520190Y-50984803D01*
X97520190Y-51318137D02*
X97520190Y-51984803D01*
X98520190Y-51556232D01*
X58038940Y-86510994D02*
X57038940Y-86510994D01*
X57038940Y-86749089D01*
X57086560Y-86891946D01*
X57181798Y-86987184D01*
X57277036Y-87034803D01*
X57467512Y-87082422D01*
X57610369Y-87082422D01*
X57800845Y-87034803D01*
X57896083Y-86987184D01*
X57991321Y-86891946D01*
X58038940Y-86749089D01*
X58038940Y-86510994D01*
X57372274Y-87939565D02*
X58038940Y-87939565D01*
X56991321Y-87701470D02*
X57705607Y-87463375D01*
X57705607Y-88082422D01*
X58038940Y-88510994D02*
X58038940Y-88701470D01*
X57991321Y-88796708D01*
X57943702Y-88844327D01*
X57800845Y-88939565D01*
X57610369Y-88987184D01*
X57229417Y-88987184D01*
X57134179Y-88939565D01*
X57086560Y-88891946D01*
X57038940Y-88796708D01*
X57038940Y-88606232D01*
X57086560Y-88510994D01*
X57134179Y-88463375D01*
X57229417Y-88415756D01*
X57467512Y-88415756D01*
X57562750Y-88463375D01*
X57610369Y-88510994D01*
X57657988Y-88606232D01*
X57657988Y-88796708D01*
X57610369Y-88891946D01*
X57562750Y-88939565D01*
X57467512Y-88987184D01*
X298545190Y-86510994D02*
X297545190Y-86510994D01*
X297545190Y-86749089D01*
X297592810Y-86891946D01*
X297688048Y-86987184D01*
X297783286Y-87034803D01*
X297973762Y-87082422D01*
X298116619Y-87082422D01*
X298307095Y-87034803D01*
X298402333Y-86987184D01*
X298497571Y-86891946D01*
X298545190Y-86749089D01*
X298545190Y-86510994D01*
X298545190Y-87558613D02*
X298545190Y-87749089D01*
X298497571Y-87844327D01*
X298449952Y-87891946D01*
X298307095Y-87987184D01*
X298116619Y-88034803D01*
X297735667Y-88034803D01*
X297640429Y-87987184D01*
X297592810Y-87939565D01*
X297545190Y-87844327D01*
X297545190Y-87653851D01*
X297592810Y-87558613D01*
X297640429Y-87510994D01*
X297735667Y-87463375D01*
X297973762Y-87463375D01*
X298069000Y-87510994D01*
X298116619Y-87558613D01*
X298164238Y-87653851D01*
X298164238Y-87844327D01*
X298116619Y-87939565D01*
X298069000Y-87987184D01*
X297973762Y-88034803D01*
X298545190Y-88987184D02*
X298545190Y-88415756D01*
X298545190Y-88701470D02*
X297545190Y-88701470D01*
X297688048Y-88606232D01*
X297783286Y-88510994D01*
X297830905Y-88415756D01*
X50895190Y-106610994D02*
X49895190Y-106610994D01*
X49895190Y-106849089D01*
X49942810Y-106991946D01*
X50038048Y-107087184D01*
X50133286Y-107134803D01*
X50323762Y-107182422D01*
X50466619Y-107182422D01*
X50657095Y-107134803D01*
X50752333Y-107087184D01*
X50847571Y-106991946D01*
X50895190Y-106849089D01*
X50895190Y-106610994D01*
X50895190Y-108134803D02*
X50895190Y-107563375D01*
X50895190Y-107849089D02*
X49895190Y-107849089D01*
X50038048Y-107753851D01*
X50133286Y-107658613D01*
X50180905Y-107563375D01*
X50895190Y-109087184D02*
X50895190Y-108515756D01*
X50895190Y-108801470D02*
X49895190Y-108801470D01*
X50038048Y-108706232D01*
X50133286Y-108610994D01*
X50180905Y-108515756D01*
X69945190Y-86510994D02*
X68945190Y-86510994D01*
X68945190Y-86749089D01*
X68992810Y-86891946D01*
X69088048Y-86987184D01*
X69183286Y-87034803D01*
X69373762Y-87082422D01*
X69516619Y-87082422D01*
X69707095Y-87034803D01*
X69802333Y-86987184D01*
X69897571Y-86891946D01*
X69945190Y-86749089D01*
X69945190Y-86510994D01*
X69278524Y-87939565D02*
X69945190Y-87939565D01*
X68897571Y-87701470D02*
X69611857Y-87463375D01*
X69611857Y-88082422D01*
X69373762Y-88606232D02*
X69326143Y-88510994D01*
X69278524Y-88463375D01*
X69183286Y-88415756D01*
X69135667Y-88415756D01*
X69040429Y-88463375D01*
X68992810Y-88510994D01*
X68945190Y-88606232D01*
X68945190Y-88796708D01*
X68992810Y-88891946D01*
X69040429Y-88939565D01*
X69135667Y-88987184D01*
X69183286Y-88987184D01*
X69278524Y-88939565D01*
X69326143Y-88891946D01*
X69373762Y-88796708D01*
X69373762Y-88606232D01*
X69421381Y-88510994D01*
X69469000Y-88463375D01*
X69564238Y-88415756D01*
X69754714Y-88415756D01*
X69849952Y-88463375D01*
X69897571Y-88510994D01*
X69945190Y-88606232D01*
X69945190Y-88796708D01*
X69897571Y-88891946D01*
X69849952Y-88939565D01*
X69754714Y-88987184D01*
X69564238Y-88987184D01*
X69469000Y-88939565D01*
X69421381Y-88891946D01*
X69373762Y-88796708D01*
X108045190Y-86510994D02*
X107045190Y-86510994D01*
X107045190Y-86749089D01*
X107092810Y-86891946D01*
X107188048Y-86987184D01*
X107283286Y-87034803D01*
X107473762Y-87082422D01*
X107616619Y-87082422D01*
X107807095Y-87034803D01*
X107902333Y-86987184D01*
X107997571Y-86891946D01*
X108045190Y-86749089D01*
X108045190Y-86510994D01*
X108045190Y-87558613D02*
X108045190Y-87749089D01*
X107997571Y-87844327D01*
X107949952Y-87891946D01*
X107807095Y-87987184D01*
X107616619Y-88034803D01*
X107235667Y-88034803D01*
X107140429Y-87987184D01*
X107092810Y-87939565D01*
X107045190Y-87844327D01*
X107045190Y-87653851D01*
X107092810Y-87558613D01*
X107140429Y-87510994D01*
X107235667Y-87463375D01*
X107473762Y-87463375D01*
X107569000Y-87510994D01*
X107616619Y-87558613D01*
X107664238Y-87653851D01*
X107664238Y-87844327D01*
X107616619Y-87939565D01*
X107569000Y-87987184D01*
X107473762Y-88034803D01*
X107045190Y-88368137D02*
X107045190Y-89034803D01*
X108045190Y-88606232D01*
X127095190Y-87560994D02*
X126095190Y-87560994D01*
X126095190Y-87799089D01*
X126142810Y-87941946D01*
X126238048Y-88037184D01*
X126333286Y-88084803D01*
X126523762Y-88132422D01*
X126666619Y-88132422D01*
X126857095Y-88084803D01*
X126952333Y-88037184D01*
X127047571Y-87941946D01*
X127095190Y-87799089D01*
X127095190Y-87560994D01*
X126428524Y-88989565D02*
X127095190Y-88989565D01*
X126047571Y-88751470D02*
X126761857Y-88513375D01*
X126761857Y-89132422D01*
X126095190Y-89941946D02*
X126095190Y-89751470D01*
X126142810Y-89656232D01*
X126190429Y-89608613D01*
X126333286Y-89513375D01*
X126523762Y-89465756D01*
X126904714Y-89465756D01*
X126999952Y-89513375D01*
X127047571Y-89560994D01*
X127095190Y-89656232D01*
X127095190Y-89846708D01*
X127047571Y-89941946D01*
X126999952Y-89989565D01*
X126904714Y-90037184D01*
X126666619Y-90037184D01*
X126571381Y-89989565D01*
X126523762Y-89941946D01*
X126476143Y-89846708D01*
X126476143Y-89656232D01*
X126523762Y-89560994D01*
X126571381Y-89513375D01*
X126666619Y-89465756D01*
X258063940Y-105560994D02*
X257063940Y-105560994D01*
X257063940Y-105799089D01*
X257111560Y-105941946D01*
X257206798Y-106037184D01*
X257302036Y-106084803D01*
X257492512Y-106132422D01*
X257635369Y-106132422D01*
X257825845Y-106084803D01*
X257921083Y-106037184D01*
X258016321Y-105941946D01*
X258063940Y-105799089D01*
X258063940Y-105560994D01*
X258063940Y-106608613D02*
X258063940Y-106799089D01*
X258016321Y-106894327D01*
X257968702Y-106941946D01*
X257825845Y-107037184D01*
X257635369Y-107084803D01*
X257254417Y-107084803D01*
X257159179Y-107037184D01*
X257111560Y-106989565D01*
X257063940Y-106894327D01*
X257063940Y-106703851D01*
X257111560Y-106608613D01*
X257159179Y-106560994D01*
X257254417Y-106513375D01*
X257492512Y-106513375D01*
X257587750Y-106560994D01*
X257635369Y-106608613D01*
X257682988Y-106703851D01*
X257682988Y-106894327D01*
X257635369Y-106989565D01*
X257587750Y-107037184D01*
X257492512Y-107084803D01*
X257159179Y-107465756D02*
X257111560Y-107513375D01*
X257063940Y-107608613D01*
X257063940Y-107846708D01*
X257111560Y-107941946D01*
X257159179Y-107989565D01*
X257254417Y-108037184D01*
X257349655Y-108037184D01*
X257492512Y-107989565D01*
X258063940Y-107418137D01*
X258063940Y-108037184D01*
X117570190Y-67460994D02*
X116570190Y-67460994D01*
X116570190Y-67699089D01*
X116617810Y-67841946D01*
X116713048Y-67937184D01*
X116808286Y-67984803D01*
X116998762Y-68032422D01*
X117141619Y-68032422D01*
X117332095Y-67984803D01*
X117427333Y-67937184D01*
X117522571Y-67841946D01*
X117570190Y-67699089D01*
X117570190Y-67460994D01*
X116998762Y-68603851D02*
X116951143Y-68508613D01*
X116903524Y-68460994D01*
X116808286Y-68413375D01*
X116760667Y-68413375D01*
X116665429Y-68460994D01*
X116617810Y-68508613D01*
X116570190Y-68603851D01*
X116570190Y-68794327D01*
X116617810Y-68889565D01*
X116665429Y-68937184D01*
X116760667Y-68984803D01*
X116808286Y-68984803D01*
X116903524Y-68937184D01*
X116951143Y-68889565D01*
X116998762Y-68794327D01*
X116998762Y-68603851D01*
X117046381Y-68508613D01*
X117094000Y-68460994D01*
X117189238Y-68413375D01*
X117379714Y-68413375D01*
X117474952Y-68460994D01*
X117522571Y-68508613D01*
X117570190Y-68603851D01*
X117570190Y-68794327D01*
X117522571Y-68889565D01*
X117474952Y-68937184D01*
X117379714Y-68984803D01*
X117189238Y-68984803D01*
X117094000Y-68937184D01*
X117046381Y-68889565D01*
X116998762Y-68794327D01*
X116570190Y-69318137D02*
X116570190Y-69984803D01*
X117570190Y-69556232D01*
X72326440Y-105560994D02*
X71326440Y-105560994D01*
X71326440Y-105799089D01*
X71374060Y-105941946D01*
X71469298Y-106037184D01*
X71564536Y-106084803D01*
X71755012Y-106132422D01*
X71897869Y-106132422D01*
X72088345Y-106084803D01*
X72183583Y-106037184D01*
X72278821Y-105941946D01*
X72326440Y-105799089D01*
X72326440Y-105560994D01*
X72326440Y-106608613D02*
X72326440Y-106799089D01*
X72278821Y-106894327D01*
X72231202Y-106941946D01*
X72088345Y-107037184D01*
X71897869Y-107084803D01*
X71516917Y-107084803D01*
X71421679Y-107037184D01*
X71374060Y-106989565D01*
X71326440Y-106894327D01*
X71326440Y-106703851D01*
X71374060Y-106608613D01*
X71421679Y-106560994D01*
X71516917Y-106513375D01*
X71755012Y-106513375D01*
X71850250Y-106560994D01*
X71897869Y-106608613D01*
X71945488Y-106703851D01*
X71945488Y-106894327D01*
X71897869Y-106989565D01*
X71850250Y-107037184D01*
X71755012Y-107084803D01*
X71755012Y-107656232D02*
X71707393Y-107560994D01*
X71659774Y-107513375D01*
X71564536Y-107465756D01*
X71516917Y-107465756D01*
X71421679Y-107513375D01*
X71374060Y-107560994D01*
X71326440Y-107656232D01*
X71326440Y-107846708D01*
X71374060Y-107941946D01*
X71421679Y-107989565D01*
X71516917Y-108037184D01*
X71564536Y-108037184D01*
X71659774Y-107989565D01*
X71707393Y-107941946D01*
X71755012Y-107846708D01*
X71755012Y-107656232D01*
X71802631Y-107560994D01*
X71850250Y-107513375D01*
X71945488Y-107465756D01*
X72135964Y-107465756D01*
X72231202Y-107513375D01*
X72278821Y-107560994D01*
X72326440Y-107656232D01*
X72326440Y-107846708D01*
X72278821Y-107941946D01*
X72231202Y-107989565D01*
X72135964Y-108037184D01*
X71945488Y-108037184D01*
X71850250Y-107989565D01*
X71802631Y-107941946D01*
X71755012Y-107846708D01*
X269970190Y-67460994D02*
X268970190Y-67460994D01*
X268970190Y-67699089D01*
X269017810Y-67841946D01*
X269113048Y-67937184D01*
X269208286Y-67984803D01*
X269398762Y-68032422D01*
X269541619Y-68032422D01*
X269732095Y-67984803D01*
X269827333Y-67937184D01*
X269922571Y-67841946D01*
X269970190Y-67699089D01*
X269970190Y-67460994D01*
X269303524Y-68889565D02*
X269970190Y-68889565D01*
X268922571Y-68651470D02*
X269636857Y-68413375D01*
X269636857Y-69032422D01*
X269303524Y-69841946D02*
X269970190Y-69841946D01*
X268922571Y-69603851D02*
X269636857Y-69365756D01*
X269636857Y-69984803D01*
X62801440Y-87560994D02*
X61801440Y-87560994D01*
X61801440Y-87799089D01*
X61849060Y-87941946D01*
X61944298Y-88037184D01*
X62039536Y-88084803D01*
X62230012Y-88132422D01*
X62372869Y-88132422D01*
X62563345Y-88084803D01*
X62658583Y-88037184D01*
X62753821Y-87941946D01*
X62801440Y-87799089D01*
X62801440Y-87560994D01*
X62230012Y-88703851D02*
X62182393Y-88608613D01*
X62134774Y-88560994D01*
X62039536Y-88513375D01*
X61991917Y-88513375D01*
X61896679Y-88560994D01*
X61849060Y-88608613D01*
X61801440Y-88703851D01*
X61801440Y-88894327D01*
X61849060Y-88989565D01*
X61896679Y-89037184D01*
X61991917Y-89084803D01*
X62039536Y-89084803D01*
X62134774Y-89037184D01*
X62182393Y-88989565D01*
X62230012Y-88894327D01*
X62230012Y-88703851D01*
X62277631Y-88608613D01*
X62325250Y-88560994D01*
X62420488Y-88513375D01*
X62610964Y-88513375D01*
X62706202Y-88560994D01*
X62753821Y-88608613D01*
X62801440Y-88703851D01*
X62801440Y-88894327D01*
X62753821Y-88989565D01*
X62706202Y-89037184D01*
X62610964Y-89084803D01*
X62420488Y-89084803D01*
X62325250Y-89037184D01*
X62277631Y-88989565D01*
X62230012Y-88894327D01*
X62801440Y-89560994D02*
X62801440Y-89751470D01*
X62753821Y-89846708D01*
X62706202Y-89894327D01*
X62563345Y-89989565D01*
X62372869Y-90037184D01*
X61991917Y-90037184D01*
X61896679Y-89989565D01*
X61849060Y-89941946D01*
X61801440Y-89846708D01*
X61801440Y-89656232D01*
X61849060Y-89560994D01*
X61896679Y-89513375D01*
X61991917Y-89465756D01*
X62230012Y-89465756D01*
X62325250Y-89513375D01*
X62372869Y-89560994D01*
X62420488Y-89656232D01*
X62420488Y-89846708D01*
X62372869Y-89941946D01*
X62325250Y-89989565D01*
X62230012Y-90037184D01*
X79470190Y-48410994D02*
X78470190Y-48410994D01*
X78470190Y-48649089D01*
X78517810Y-48791946D01*
X78613048Y-48887184D01*
X78708286Y-48934803D01*
X78898762Y-48982422D01*
X79041619Y-48982422D01*
X79232095Y-48934803D01*
X79327333Y-48887184D01*
X79422571Y-48791946D01*
X79470190Y-48649089D01*
X79470190Y-48410994D01*
X78565429Y-49363375D02*
X78517810Y-49410994D01*
X78470190Y-49506232D01*
X78470190Y-49744327D01*
X78517810Y-49839565D01*
X78565429Y-49887184D01*
X78660667Y-49934803D01*
X78755905Y-49934803D01*
X78898762Y-49887184D01*
X79470190Y-49315756D01*
X79470190Y-49934803D01*
X78898762Y-50506232D02*
X78851143Y-50410994D01*
X78803524Y-50363375D01*
X78708286Y-50315756D01*
X78660667Y-50315756D01*
X78565429Y-50363375D01*
X78517810Y-50410994D01*
X78470190Y-50506232D01*
X78470190Y-50696708D01*
X78517810Y-50791946D01*
X78565429Y-50839565D01*
X78660667Y-50887184D01*
X78708286Y-50887184D01*
X78803524Y-50839565D01*
X78851143Y-50791946D01*
X78898762Y-50696708D01*
X78898762Y-50506232D01*
X78946381Y-50410994D01*
X78994000Y-50363375D01*
X79089238Y-50315756D01*
X79279714Y-50315756D01*
X79374952Y-50363375D01*
X79422571Y-50410994D01*
X79470190Y-50506232D01*
X79470190Y-50696708D01*
X79422571Y-50791946D01*
X79374952Y-50839565D01*
X79279714Y-50887184D01*
X79089238Y-50887184D01*
X78994000Y-50839565D01*
X78946381Y-50791946D01*
X78898762Y-50696708D01*
X250920190Y-49460994D02*
X249920190Y-49460994D01*
X249920190Y-49699089D01*
X249967810Y-49841946D01*
X250063048Y-49937184D01*
X250158286Y-49984803D01*
X250348762Y-50032422D01*
X250491619Y-50032422D01*
X250682095Y-49984803D01*
X250777333Y-49937184D01*
X250872571Y-49841946D01*
X250920190Y-49699089D01*
X250920190Y-49460994D01*
X249920190Y-50365756D02*
X249920190Y-51032422D01*
X250920190Y-50603851D01*
X250253524Y-51841946D02*
X250920190Y-51841946D01*
X249872571Y-51603851D02*
X250586857Y-51365756D01*
X250586857Y-51984803D01*
X234251440Y-106610994D02*
X233251440Y-106610994D01*
X233251440Y-106849089D01*
X233299060Y-106991946D01*
X233394298Y-107087184D01*
X233489536Y-107134803D01*
X233680012Y-107182422D01*
X233822869Y-107182422D01*
X234013345Y-107134803D01*
X234108583Y-107087184D01*
X234203821Y-106991946D01*
X234251440Y-106849089D01*
X234251440Y-106610994D01*
X233251440Y-108087184D02*
X233251440Y-107610994D01*
X233727631Y-107563375D01*
X233680012Y-107610994D01*
X233632393Y-107706232D01*
X233632393Y-107944327D01*
X233680012Y-108039565D01*
X233727631Y-108087184D01*
X233822869Y-108134803D01*
X234060964Y-108134803D01*
X234156202Y-108087184D01*
X234203821Y-108039565D01*
X234251440Y-107944327D01*
X234251440Y-107706232D01*
X234203821Y-107610994D01*
X234156202Y-107563375D01*
X233251440Y-108468137D02*
X233251440Y-109087184D01*
X233632393Y-108753851D01*
X233632393Y-108896708D01*
X233680012Y-108991946D01*
X233727631Y-109039565D01*
X233822869Y-109087184D01*
X234060964Y-109087184D01*
X234156202Y-109039565D01*
X234203821Y-108991946D01*
X234251440Y-108896708D01*
X234251440Y-108610994D01*
X234203821Y-108515756D01*
X234156202Y-108468137D01*
X60420190Y-68510994D02*
X59420190Y-68510994D01*
X59420190Y-68749089D01*
X59467810Y-68891946D01*
X59563048Y-68987184D01*
X59658286Y-69034803D01*
X59848762Y-69082422D01*
X59991619Y-69082422D01*
X60182095Y-69034803D01*
X60277333Y-68987184D01*
X60372571Y-68891946D01*
X60420190Y-68749089D01*
X60420190Y-68510994D01*
X59420190Y-69415756D02*
X59420190Y-70082422D01*
X60420190Y-69653851D01*
X60420190Y-70510994D02*
X60420190Y-70701470D01*
X60372571Y-70796708D01*
X60324952Y-70844327D01*
X60182095Y-70939565D01*
X59991619Y-70987184D01*
X59610667Y-70987184D01*
X59515429Y-70939565D01*
X59467810Y-70891946D01*
X59420190Y-70796708D01*
X59420190Y-70606232D01*
X59467810Y-70510994D01*
X59515429Y-70463375D01*
X59610667Y-70415756D01*
X59848762Y-70415756D01*
X59944000Y-70463375D01*
X59991619Y-70510994D01*
X60039238Y-70606232D01*
X60039238Y-70796708D01*
X59991619Y-70891946D01*
X59944000Y-70939565D01*
X59848762Y-70987184D01*
D15*
X26947935Y-25927155D02*
X24947935Y-25927155D01*
X26947935Y-27127155D02*
X26947935Y-25927155D01*
X24947935Y-27127155D02*
X26947935Y-27127155D01*
X24947935Y-25927155D02*
X24947935Y-27127155D01*
X38123935Y-30594405D02*
X36123935Y-30594405D01*
X36123935Y-31794405D02*
X38123935Y-31794405D01*
X38123935Y-31794405D02*
X38123935Y-30594405D01*
X36123935Y-30594405D02*
X36123935Y-31794405D01*
X57684967Y-41350159D02*
X56836439Y-42198687D01*
X59099181Y-42764373D02*
X57684967Y-41350159D01*
X58250653Y-43612901D02*
X59099181Y-42764373D01*
X56836439Y-42198687D02*
X58250653Y-43612901D01*
X82335935Y-28273405D02*
X84240935Y-28273405D01*
X81700935Y-27638405D02*
X82335935Y-28273405D01*
X84240935Y-23193405D02*
X81700935Y-23193405D01*
X84240935Y-28273405D02*
X84240935Y-23193405D01*
X81700935Y-23193405D02*
X81700935Y-27638405D01*
X41252417Y-33536165D02*
X42666631Y-34950379D01*
X42666631Y-34950379D02*
X43515159Y-34101851D01*
X43515159Y-34101851D02*
X42100945Y-32687637D01*
X42100945Y-32687637D02*
X41252417Y-33536165D01*
X49182422Y-25527901D02*
X50950189Y-27295668D01*
X50950189Y-27295668D02*
X48687448Y-29558409D01*
X46919681Y-27790642D02*
X49182422Y-25527901D01*
X50243083Y-26588561D02*
X50243083Y-28002774D01*
X48687448Y-29558409D02*
X46919681Y-27790642D01*
X45080217Y-29983659D02*
X44231689Y-30832187D01*
X45645903Y-32246401D02*
X46494431Y-31397873D01*
X46494431Y-31397873D02*
X45080217Y-29983659D01*
X44231689Y-30832187D02*
X45645903Y-32246401D01*
X61877306Y-27159248D02*
X60463092Y-25745034D01*
X61028778Y-28007776D02*
X61877306Y-27159248D01*
X59614564Y-26593562D02*
X61028778Y-28007776D01*
X60463092Y-25745034D02*
X59614564Y-26593562D01*
X65518147Y-34589096D02*
X64669619Y-33740568D01*
X64103933Y-36003310D02*
X65518147Y-34589096D01*
X63255405Y-35154782D02*
X64103933Y-36003310D01*
X64669619Y-33740568D02*
X63255405Y-35154782D01*
X55730310Y-53360905D02*
X57000310Y-52090905D01*
X57000310Y-52090905D02*
X57000310Y-48280905D01*
X57000310Y-48280905D02*
X49380310Y-48280905D01*
X49380310Y-53360905D02*
X55730310Y-53360905D01*
X49380310Y-48280905D02*
X49380310Y-53360905D01*
X42080310Y-19631155D02*
X42080310Y-21231155D01*
X45280310Y-21231155D02*
X45280310Y-19631155D01*
X45280310Y-19631155D02*
X42080310Y-19631155D01*
X42080310Y-21231155D02*
X45280310Y-21231155D01*
X44680310Y-23825155D02*
X44680310Y-22625155D01*
X44680310Y-22625155D02*
X42680310Y-22625155D01*
X42680310Y-22625155D02*
X42680310Y-23825155D01*
X42680310Y-23825155D02*
X44680310Y-23825155D01*
X27397935Y-20591155D02*
X24997935Y-20591155D01*
X24997935Y-20591155D02*
X24497935Y-21091155D01*
X24497935Y-21891155D02*
X27397935Y-21891155D01*
X27397935Y-21891155D02*
X27397935Y-20591155D01*
X24497935Y-21091155D02*
X24497935Y-21891155D01*
X43495975Y-66298765D02*
G75*
G03*
X43495975Y-66298765I-1000000J0D01*
G01*
X44595975Y-69498765D02*
X44095975Y-69498765D01*
X40895975Y-69498765D02*
X40895975Y-68498765D01*
X43695975Y-63698765D02*
X45095975Y-65098765D01*
X44595975Y-63098765D02*
X44095975Y-63098765D01*
X44495975Y-65298765D02*
X43495975Y-64298765D01*
X40395975Y-68998765D02*
X40895975Y-68998765D01*
X43495975Y-68298765D02*
X44495975Y-67298765D01*
X40395975Y-69498765D02*
X40895975Y-69498765D01*
X44595975Y-68998765D02*
X44095975Y-68998765D01*
X44095975Y-69498765D02*
X44095975Y-68498765D01*
X40495975Y-67298765D02*
X41495975Y-68298765D01*
X44095975Y-63098765D02*
X44095975Y-64098765D01*
X41295975Y-63698765D02*
X43695975Y-63698765D01*
X40495975Y-65298765D02*
X40495975Y-67298765D01*
X44595975Y-64598765D02*
X44595975Y-63098765D01*
X40395975Y-63598765D02*
X40895975Y-63598765D01*
X39895975Y-67498765D02*
X39895975Y-65098765D01*
X41495975Y-68298765D02*
X43495975Y-68298765D01*
X41495975Y-64298765D02*
X40495975Y-65298765D01*
X45095975Y-65098765D02*
X45095975Y-67498765D01*
X44495975Y-67298765D02*
X44495975Y-65298765D01*
X41295975Y-68898765D02*
X39895975Y-67498765D01*
X40395975Y-67998765D02*
X40395975Y-69498765D01*
X40395975Y-64598765D02*
X40395975Y-63098765D01*
X45095975Y-67498765D02*
X43695975Y-68898765D01*
X40895975Y-63098765D02*
X40895975Y-64098765D01*
X43495975Y-64298765D02*
X41495975Y-64298765D01*
X43695975Y-68898765D02*
X41295975Y-68898765D01*
X39895975Y-65098765D02*
X41295975Y-63698765D01*
X40395975Y-63098765D02*
X40895975Y-63098765D01*
X44595975Y-63598765D02*
X44095975Y-63598765D01*
X44595975Y-67998765D02*
X44595975Y-69498765D01*
X45571994Y-37855742D02*
X46420522Y-37007214D01*
X46420522Y-37007214D02*
X45006308Y-35593000D01*
X44157780Y-36441528D02*
X45571994Y-37855742D01*
X45006308Y-35593000D02*
X44157780Y-36441528D01*
X67465306Y-36531312D02*
X66616778Y-35682784D01*
X65202564Y-37096998D02*
X66051092Y-37945526D01*
X66051092Y-37945526D02*
X67465306Y-36531312D01*
X66616778Y-35682784D02*
X65202564Y-37096998D01*
X52223967Y-22839909D02*
X51375439Y-23688437D01*
X52789653Y-25102651D02*
X53638181Y-24254123D01*
X53638181Y-24254123D02*
X52223967Y-22839909D01*
X51375439Y-23688437D02*
X52789653Y-25102651D01*
X90545935Y-21703405D02*
X90545935Y-26603405D01*
X94445935Y-22678405D02*
X93470935Y-21703405D01*
X93470935Y-21703405D02*
X90545935Y-21703405D01*
X94445935Y-26603405D02*
X94445935Y-22678405D01*
X90545935Y-26603405D02*
X94445935Y-26603405D01*
X77779935Y-26378405D02*
X77779935Y-27628405D01*
X79779935Y-27628405D02*
X79779935Y-26378405D01*
X77779935Y-27628405D02*
X79779935Y-27628405D01*
X79779935Y-26378405D02*
X77779935Y-26378405D01*
X79779935Y-23965405D02*
X77779935Y-23965405D01*
X79779935Y-25215405D02*
X79779935Y-23965405D01*
X77779935Y-25215405D02*
X79779935Y-25215405D01*
X77779935Y-23965405D02*
X77779935Y-25215405D01*
X31820935Y-17318365D02*
X37820935Y-17318365D01*
X39295935Y-23978365D02*
X39295935Y-14808365D01*
X30345935Y-14808365D02*
X39295935Y-14808365D01*
X30345935Y-23978365D02*
X39295935Y-23978365D01*
X30345935Y-23978365D02*
X30345935Y-14808365D01*
X50992522Y-41547464D02*
X49578308Y-40133250D01*
X48729780Y-40981778D02*
X50143994Y-42395992D01*
X49578308Y-40133250D02*
X48729780Y-40981778D01*
X50143994Y-42395992D02*
X50992522Y-41547464D01*
X38123935Y-28054405D02*
X36123935Y-28054405D01*
X36123935Y-29254405D02*
X38123935Y-29254405D01*
X36123935Y-28054405D02*
X36123935Y-29254405D01*
X38123935Y-29254405D02*
X38123935Y-28054405D01*
X286208435Y-51927155D02*
X286208435Y-54467155D01*
X293193435Y-54467155D02*
X293828435Y-53832155D01*
X286208435Y-54467155D02*
X293193435Y-54467155D01*
X293828435Y-53832155D02*
X293828435Y-51927155D01*
X293828435Y-51927155D02*
X286208435Y-51927155D01*
D11*
X56293667Y-38389796D02*
X60536307Y-34147155D01*
X50636813Y-34147155D02*
X54879453Y-38389796D01*
X54879453Y-38389796D02*
X56293667Y-38389796D01*
X60536307Y-34147155D02*
X55586560Y-29197408D01*
X55586560Y-29197408D02*
X50636813Y-34147155D01*
D15*
X77017810Y-69025280D02*
X76467810Y-69025280D01*
X77017810Y-69025280D02*
X77417810Y-68425280D01*
X76617810Y-68425280D02*
X77017810Y-69025280D01*
X77917810Y-67275280D02*
X76117810Y-67275280D01*
X77017810Y-68425280D02*
X77017810Y-67925280D01*
X77017810Y-69025280D02*
X77567810Y-69025280D01*
X77917810Y-70075280D02*
X77917810Y-67275280D01*
X77417810Y-68425280D02*
X76617810Y-68425280D01*
X76117810Y-67275280D02*
X76117810Y-70075280D01*
X77017810Y-69425280D02*
X77017810Y-69025280D01*
X76117810Y-70075280D02*
X77917810Y-70075280D01*
X295692810Y-106525280D02*
X296092810Y-107125280D01*
X296492810Y-106525280D02*
X295692810Y-106525280D01*
X296092810Y-107125280D02*
X296492810Y-106525280D01*
X296092810Y-107525280D02*
X296092810Y-107125280D01*
X296992810Y-105375280D02*
X295192810Y-105375280D01*
X296092810Y-107125280D02*
X295542810Y-107125280D01*
X295192810Y-108175280D02*
X296992810Y-108175280D01*
X296092810Y-106525280D02*
X296092810Y-106025280D01*
X295192810Y-105375280D02*
X295192810Y-108175280D01*
X296992810Y-108175280D02*
X296992810Y-105375280D01*
X296092810Y-107125280D02*
X296642810Y-107125280D01*
X96067810Y-70075280D02*
X96467810Y-69475280D01*
X95167810Y-71125280D02*
X96967810Y-71125280D01*
X95167810Y-68325280D02*
X95167810Y-71125280D01*
X96967810Y-68325280D02*
X95167810Y-68325280D01*
X96067810Y-69475280D02*
X96067810Y-68975280D01*
X96467810Y-69475280D02*
X95667810Y-69475280D01*
X96067810Y-70075280D02*
X95517810Y-70075280D01*
X96067810Y-70475280D02*
X96067810Y-70075280D01*
X96067810Y-70075280D02*
X96617810Y-70075280D01*
X95667810Y-69475280D02*
X96067810Y-70075280D01*
X96967810Y-71125280D02*
X96967810Y-68325280D01*
X93686560Y-108175280D02*
X94236560Y-108175280D01*
X92786560Y-106425280D02*
X92786560Y-109225280D01*
X93686560Y-108575280D02*
X93686560Y-108175280D01*
X94586560Y-109225280D02*
X94586560Y-106425280D01*
X94586560Y-106425280D02*
X92786560Y-106425280D01*
X93686560Y-108175280D02*
X93136560Y-108175280D01*
X94086560Y-107575280D02*
X93286560Y-107575280D01*
X93686560Y-108175280D02*
X94086560Y-107575280D01*
X93686560Y-107575280D02*
X93686560Y-107075280D01*
X93286560Y-107575280D02*
X93686560Y-108175280D01*
X92786560Y-109225280D02*
X94586560Y-109225280D01*
X159170935Y-108475280D02*
X159170935Y-108075280D01*
X159170935Y-108075280D02*
X159720935Y-108075280D01*
X159170935Y-108075280D02*
X158620935Y-108075280D01*
X158270935Y-109125280D02*
X160070935Y-109125280D01*
X159570935Y-107475280D02*
X158770935Y-107475280D01*
X159170935Y-108075280D02*
X159570935Y-107475280D01*
X158270935Y-106325280D02*
X158270935Y-109125280D01*
X160070935Y-109125280D02*
X160070935Y-106325280D01*
X159170935Y-107475280D02*
X159170935Y-106975280D01*
X160070935Y-106325280D02*
X158270935Y-106325280D01*
X158770935Y-107475280D02*
X159170935Y-108075280D01*
X86542810Y-89525280D02*
X86542810Y-89125280D01*
X86942810Y-88525280D02*
X86142810Y-88525280D01*
X85642810Y-90175280D02*
X87442810Y-90175280D01*
X86142810Y-88525280D02*
X86542810Y-89125280D01*
X85642810Y-87375280D02*
X85642810Y-90175280D01*
X86542810Y-89125280D02*
X85992810Y-89125280D01*
X87442810Y-87375280D02*
X85642810Y-87375280D01*
X86542810Y-88525280D02*
X86542810Y-88025280D01*
X87442810Y-90175280D02*
X87442810Y-87375280D01*
X86542810Y-89125280D02*
X87092810Y-89125280D01*
X86542810Y-89125280D02*
X86942810Y-88525280D01*
X201742810Y-90175280D02*
X201742810Y-87375280D01*
X200842810Y-89125280D02*
X201392810Y-89125280D01*
X201742810Y-87375280D02*
X199942810Y-87375280D01*
X199942810Y-87375280D02*
X199942810Y-90175280D01*
X201242810Y-88525280D02*
X200442810Y-88525280D01*
X200842810Y-89125280D02*
X200292810Y-89125280D01*
X200842810Y-88525280D02*
X200842810Y-88025280D01*
X200842810Y-89125280D02*
X201242810Y-88525280D01*
X199942810Y-90175280D02*
X201742810Y-90175280D01*
X200442810Y-88525280D02*
X200842810Y-89125280D01*
X200842810Y-89525280D02*
X200842810Y-89125280D01*
X123742810Y-106475280D02*
X123742810Y-109275280D01*
X124642810Y-108625280D02*
X124642810Y-108225280D01*
X125542810Y-109275280D02*
X125542810Y-106475280D01*
X123742810Y-109275280D02*
X125542810Y-109275280D01*
X125042810Y-107625280D02*
X124242810Y-107625280D01*
X124242810Y-107625280D02*
X124642810Y-108225280D01*
X124642810Y-107625280D02*
X124642810Y-107125280D01*
X124642810Y-108225280D02*
X125192810Y-108225280D01*
X124642810Y-108225280D02*
X125042810Y-107625280D01*
X125542810Y-106475280D02*
X123742810Y-106475280D01*
X124642810Y-108225280D02*
X124092810Y-108225280D01*
X257092810Y-86325280D02*
X257092810Y-89125280D01*
X257992810Y-88475280D02*
X257992810Y-88075280D01*
X258392810Y-87475280D02*
X257592810Y-87475280D01*
X257992810Y-87475280D02*
X257992810Y-86975280D01*
X257592810Y-87475280D02*
X257992810Y-88075280D01*
X257992810Y-88075280D02*
X258542810Y-88075280D01*
X257992810Y-88075280D02*
X257442810Y-88075280D01*
X258892810Y-89125280D02*
X258892810Y-86325280D01*
X257992810Y-88075280D02*
X258392810Y-87475280D01*
X257092810Y-89125280D02*
X258892810Y-89125280D01*
X258892810Y-86325280D02*
X257092810Y-86325280D01*
X28492810Y-105375280D02*
X28492810Y-108175280D01*
X30292810Y-108175280D02*
X30292810Y-105375280D01*
X29392810Y-107125280D02*
X28842810Y-107125280D01*
X28492810Y-108175280D02*
X30292810Y-108175280D01*
X29392810Y-107525280D02*
X29392810Y-107125280D01*
X29392810Y-106525280D02*
X29392810Y-106025280D01*
X29392810Y-107125280D02*
X29792810Y-106525280D01*
X28992810Y-106525280D02*
X29392810Y-107125280D01*
X30292810Y-105375280D02*
X28492810Y-105375280D01*
X29392810Y-107125280D02*
X29942810Y-107125280D01*
X29792810Y-106525280D02*
X28992810Y-106525280D01*
X230317810Y-70075280D02*
X230317810Y-67275280D01*
X229417810Y-68425280D02*
X229417810Y-67925280D01*
X228517810Y-70075280D02*
X230317810Y-70075280D01*
X228517810Y-67275280D02*
X228517810Y-70075280D01*
X229417810Y-69025280D02*
X229817810Y-68425280D01*
X229417810Y-69025280D02*
X229967810Y-69025280D01*
X229817810Y-68425280D02*
X229017810Y-68425280D01*
X229417810Y-69425280D02*
X229417810Y-69025280D01*
X229417810Y-69025280D02*
X228867810Y-69025280D01*
X229017810Y-68425280D02*
X229417810Y-69025280D01*
X230317810Y-67275280D02*
X228517810Y-67275280D01*
X238942810Y-89125280D02*
X239342810Y-88525280D01*
X238942810Y-89125280D02*
X238392810Y-89125280D01*
X238042810Y-90175280D02*
X239842810Y-90175280D01*
X238542810Y-88525280D02*
X238942810Y-89125280D01*
X238942810Y-89525280D02*
X238942810Y-89125280D01*
X238942810Y-89125280D02*
X239492810Y-89125280D01*
X238042810Y-87375280D02*
X238042810Y-90175280D01*
X239842810Y-87375280D02*
X238042810Y-87375280D01*
X238942810Y-88525280D02*
X238942810Y-88025280D01*
X239842810Y-90175280D02*
X239842810Y-87375280D01*
X239342810Y-88525280D02*
X238542810Y-88525280D01*
X200842810Y-108571280D02*
X200842810Y-108171280D01*
X200842810Y-108171280D02*
X201242810Y-107571280D01*
X200842810Y-107571280D02*
X200842810Y-107071280D01*
X199942810Y-109221280D02*
X201742810Y-109221280D01*
X199942810Y-106421280D02*
X199942810Y-109221280D01*
X200442810Y-107571280D02*
X200842810Y-108171280D01*
X201242810Y-107571280D02*
X200442810Y-107571280D01*
X201742810Y-109221280D02*
X201742810Y-106421280D01*
X201742810Y-106421280D02*
X199942810Y-106421280D01*
X200842810Y-108171280D02*
X201392810Y-108171280D01*
X200842810Y-108171280D02*
X200292810Y-108171280D01*
X218992810Y-86325280D02*
X218992810Y-89125280D01*
X220792810Y-89125280D02*
X220792810Y-86325280D01*
X220792810Y-86325280D02*
X218992810Y-86325280D01*
X219892810Y-88075280D02*
X219342810Y-88075280D01*
X219892810Y-88475280D02*
X219892810Y-88075280D01*
X218992810Y-89125280D02*
X220792810Y-89125280D01*
X219892810Y-88075280D02*
X220292810Y-87475280D01*
X219892810Y-88075280D02*
X220442810Y-88075280D01*
X219492810Y-87475280D02*
X219892810Y-88075280D01*
X219892810Y-87475280D02*
X219892810Y-86975280D01*
X220292810Y-87475280D02*
X219492810Y-87475280D01*
X277042810Y-107575280D02*
X277042810Y-107075280D01*
X277042810Y-108175280D02*
X276492810Y-108175280D01*
X277442810Y-107575280D02*
X276642810Y-107575280D01*
X277942810Y-109225280D02*
X277942810Y-106425280D01*
X277942810Y-106425280D02*
X276142810Y-106425280D01*
X276642810Y-107575280D02*
X277042810Y-108175280D01*
X277042810Y-108575280D02*
X277042810Y-108175280D01*
X277042810Y-108175280D02*
X277442810Y-107575280D01*
X276142810Y-109225280D02*
X277942810Y-109225280D01*
X276142810Y-106425280D02*
X276142810Y-109225280D01*
X277042810Y-108175280D02*
X277592810Y-108175280D01*
X209467810Y-68325280D02*
X209467810Y-71125280D01*
X210367810Y-69475280D02*
X210367810Y-68975280D01*
X211267810Y-71125280D02*
X211267810Y-68325280D01*
X210367810Y-70075280D02*
X210767810Y-69475280D01*
X211267810Y-68325280D02*
X209467810Y-68325280D01*
X210367810Y-70075280D02*
X209817810Y-70075280D01*
X210767810Y-69475280D02*
X209967810Y-69475280D01*
X209467810Y-71125280D02*
X211267810Y-71125280D01*
X210367810Y-70475280D02*
X210367810Y-70075280D01*
X209967810Y-69475280D02*
X210367810Y-70075280D01*
X210367810Y-70075280D02*
X210917810Y-70075280D01*
X248067810Y-69475280D02*
X248467810Y-70075280D01*
X249367810Y-71125280D02*
X249367810Y-68325280D01*
X248467810Y-69475280D02*
X248467810Y-68975280D01*
X248467810Y-70075280D02*
X247917810Y-70075280D01*
X248467810Y-70075280D02*
X248867810Y-69475280D01*
X248467810Y-70475280D02*
X248467810Y-70075280D01*
X248867810Y-69475280D02*
X248067810Y-69475280D01*
X247567810Y-71125280D02*
X249367810Y-71125280D01*
X249367810Y-68325280D02*
X247567810Y-68325280D01*
X248467810Y-70075280D02*
X249017810Y-70075280D01*
X247567810Y-68325280D02*
X247567810Y-71125280D01*
X178220935Y-107125280D02*
X178620935Y-106525280D01*
X179120935Y-105375280D02*
X177320935Y-105375280D01*
X179120935Y-108175280D02*
X179120935Y-105375280D01*
X178620935Y-106525280D02*
X177820935Y-106525280D01*
X178220935Y-107125280D02*
X178770935Y-107125280D01*
X178220935Y-106525280D02*
X178220935Y-106025280D01*
X178220935Y-107125280D02*
X177670935Y-107125280D01*
X177320935Y-108175280D02*
X179120935Y-108175280D01*
X177320935Y-105375280D02*
X177320935Y-108175280D01*
X178220935Y-107525280D02*
X178220935Y-107125280D01*
X177820935Y-106525280D02*
X178220935Y-107125280D01*
X276142810Y-87375280D02*
X276142810Y-90175280D01*
X277442810Y-88525280D02*
X276642810Y-88525280D01*
X276142810Y-90175280D02*
X277942810Y-90175280D01*
X277042810Y-89125280D02*
X276492810Y-89125280D01*
X277042810Y-89525280D02*
X277042810Y-89125280D01*
X277042810Y-88525280D02*
X277042810Y-88025280D01*
X277042810Y-89125280D02*
X277592810Y-89125280D01*
X277942810Y-87375280D02*
X276142810Y-87375280D01*
X277042810Y-89125280D02*
X277442810Y-88525280D01*
X277942810Y-90175280D02*
X277942810Y-87375280D01*
X276642810Y-88525280D02*
X277042810Y-89125280D01*
X49924060Y-67275280D02*
X49924060Y-70075280D01*
X50824060Y-68425280D02*
X50824060Y-67925280D01*
X50824060Y-69025280D02*
X51224060Y-68425280D01*
X51224060Y-68425280D02*
X50424060Y-68425280D01*
X50824060Y-69025280D02*
X50274060Y-69025280D01*
X50824060Y-69025280D02*
X51374060Y-69025280D01*
X50824060Y-69425280D02*
X50824060Y-69025280D01*
X50424060Y-68425280D02*
X50824060Y-69025280D01*
X51724060Y-67275280D02*
X49924060Y-67275280D01*
X51724060Y-70075280D02*
X51724060Y-67275280D01*
X49924060Y-70075280D02*
X51724060Y-70075280D01*
X230317810Y-48225280D02*
X228517810Y-48225280D01*
X228517810Y-48225280D02*
X228517810Y-51025280D01*
X229817810Y-49375280D02*
X229017810Y-49375280D01*
X228517810Y-51025280D02*
X230317810Y-51025280D01*
X229417810Y-50375280D02*
X229417810Y-49975280D01*
X229417810Y-49375280D02*
X229417810Y-48875280D01*
X229017810Y-49375280D02*
X229417810Y-49975280D01*
X229417810Y-49975280D02*
X228867810Y-49975280D01*
X229417810Y-49975280D02*
X229967810Y-49975280D01*
X229417810Y-49975280D02*
X229817810Y-49375280D01*
X230317810Y-51025280D02*
X230317810Y-48225280D01*
X276752185Y-71125280D02*
X276752185Y-68325280D01*
X274952185Y-68325280D02*
X274952185Y-71125280D01*
X275852185Y-70075280D02*
X276402185Y-70075280D01*
X275452185Y-69475280D02*
X275852185Y-70075280D01*
X275852185Y-70075280D02*
X275302185Y-70075280D01*
X275852185Y-69475280D02*
X275852185Y-68975280D01*
X274952185Y-71125280D02*
X276752185Y-71125280D01*
X276252185Y-69475280D02*
X275452185Y-69475280D01*
X276752185Y-68325280D02*
X274952185Y-68325280D01*
X275852185Y-70475280D02*
X275852185Y-70075280D01*
X275852185Y-70075280D02*
X276252185Y-69475280D01*
X96967810Y-52075280D02*
X96967810Y-49275280D01*
X96067810Y-50425280D02*
X96067810Y-49925280D01*
X96467810Y-50425280D02*
X95667810Y-50425280D01*
X95167810Y-52075280D02*
X96967810Y-52075280D01*
X96067810Y-51025280D02*
X95517810Y-51025280D01*
X95667810Y-50425280D02*
X96067810Y-51025280D01*
X96067810Y-51025280D02*
X96467810Y-50425280D01*
X96067810Y-51425280D02*
X96067810Y-51025280D01*
X96967810Y-49275280D02*
X95167810Y-49275280D01*
X95167810Y-49275280D02*
X95167810Y-52075280D01*
X96067810Y-51025280D02*
X96617810Y-51025280D01*
X55586560Y-87475280D02*
X55586560Y-86975280D01*
X54686560Y-86325280D02*
X54686560Y-89125280D01*
X56486560Y-89125280D02*
X56486560Y-86325280D01*
X55186560Y-87475280D02*
X55586560Y-88075280D01*
X55586560Y-88075280D02*
X55036560Y-88075280D01*
X55586560Y-88075280D02*
X55986560Y-87475280D01*
X54686560Y-89125280D02*
X56486560Y-89125280D01*
X56486560Y-86325280D02*
X54686560Y-86325280D01*
X55586560Y-88075280D02*
X56136560Y-88075280D01*
X55586560Y-88475280D02*
X55586560Y-88075280D01*
X55986560Y-87475280D02*
X55186560Y-87475280D01*
X296092810Y-88075280D02*
X296492810Y-87475280D01*
X296092810Y-88075280D02*
X296642810Y-88075280D01*
X295192810Y-86325280D02*
X295192810Y-89125280D01*
X295692810Y-87475280D02*
X296092810Y-88075280D01*
X296092810Y-87475280D02*
X296092810Y-86975280D01*
X296992810Y-89125280D02*
X296992810Y-86325280D01*
X296492810Y-87475280D02*
X295692810Y-87475280D01*
X295192810Y-89125280D02*
X296992810Y-89125280D01*
X296092810Y-88475280D02*
X296092810Y-88075280D01*
X296092810Y-88075280D02*
X295542810Y-88075280D01*
X296992810Y-86325280D02*
X295192810Y-86325280D01*
X48442810Y-108175280D02*
X48992810Y-108175280D01*
X48442810Y-108575280D02*
X48442810Y-108175280D01*
X48042810Y-107575280D02*
X48442810Y-108175280D01*
X49342810Y-106425280D02*
X47542810Y-106425280D01*
X48842810Y-107575280D02*
X48042810Y-107575280D01*
X48442810Y-108175280D02*
X48842810Y-107575280D01*
X47542810Y-109225280D02*
X49342810Y-109225280D01*
X48442810Y-108175280D02*
X47892810Y-108175280D01*
X48442810Y-107575280D02*
X48442810Y-107075280D01*
X47542810Y-106425280D02*
X47542810Y-109225280D01*
X49342810Y-109225280D02*
X49342810Y-106425280D01*
X67492810Y-88475280D02*
X67492810Y-88075280D01*
X68392810Y-86325280D02*
X66592810Y-86325280D01*
X67492810Y-88075280D02*
X67892810Y-87475280D01*
X67492810Y-87475280D02*
X67492810Y-86975280D01*
X67492810Y-88075280D02*
X68042810Y-88075280D01*
X66592810Y-89125280D02*
X68392810Y-89125280D01*
X67492810Y-88075280D02*
X66942810Y-88075280D01*
X67892810Y-87475280D02*
X67092810Y-87475280D01*
X66592810Y-86325280D02*
X66592810Y-89125280D01*
X68392810Y-89125280D02*
X68392810Y-86325280D01*
X67092810Y-87475280D02*
X67492810Y-88075280D01*
X105592810Y-88075280D02*
X105042810Y-88075280D01*
X105592810Y-87475280D02*
X105592810Y-86975280D01*
X105192810Y-87475280D02*
X105592810Y-88075280D01*
X106492810Y-86325280D02*
X104692810Y-86325280D01*
X105592810Y-88075280D02*
X106142810Y-88075280D01*
X105992810Y-87475280D02*
X105192810Y-87475280D01*
X104692810Y-89125280D02*
X106492810Y-89125280D01*
X104692810Y-86325280D02*
X104692810Y-89125280D01*
X105592810Y-88475280D02*
X105592810Y-88075280D01*
X105592810Y-88075280D02*
X105992810Y-87475280D01*
X106492810Y-89125280D02*
X106492810Y-86325280D01*
X124642810Y-89125280D02*
X125042810Y-88525280D01*
X123742810Y-90175280D02*
X125542810Y-90175280D01*
X124642810Y-89125280D02*
X125192810Y-89125280D01*
X125542810Y-90175280D02*
X125542810Y-87375280D01*
X124242810Y-88525280D02*
X124642810Y-89125280D01*
X125042810Y-88525280D02*
X124242810Y-88525280D01*
X124642810Y-88525280D02*
X124642810Y-88025280D01*
X123742810Y-87375280D02*
X123742810Y-90175280D01*
X125542810Y-87375280D02*
X123742810Y-87375280D01*
X124642810Y-89525280D02*
X124642810Y-89125280D01*
X124642810Y-89125280D02*
X124092810Y-89125280D01*
X255611560Y-107125280D02*
X256011560Y-106525280D01*
X255211560Y-106525280D02*
X255611560Y-107125280D01*
X255611560Y-106525280D02*
X255611560Y-106025280D01*
X255611560Y-107125280D02*
X256161560Y-107125280D01*
X256511560Y-105375280D02*
X254711560Y-105375280D01*
X255611560Y-107125280D02*
X255061560Y-107125280D01*
X255611560Y-107525280D02*
X255611560Y-107125280D01*
X256011560Y-106525280D02*
X255211560Y-106525280D01*
X254711560Y-105375280D02*
X254711560Y-108175280D01*
X256511560Y-108175280D02*
X256511560Y-105375280D01*
X254711560Y-108175280D02*
X256511560Y-108175280D01*
X115117810Y-69425280D02*
X115117810Y-69025280D01*
X116017810Y-67275280D02*
X114217810Y-67275280D01*
X115117810Y-69025280D02*
X114567810Y-69025280D01*
X114217810Y-67275280D02*
X114217810Y-70075280D01*
X116017810Y-70075280D02*
X116017810Y-67275280D01*
X115117810Y-69025280D02*
X115667810Y-69025280D01*
X114717810Y-68425280D02*
X115117810Y-69025280D01*
X115117810Y-69025280D02*
X115517810Y-68425280D01*
X114217810Y-70075280D02*
X116017810Y-70075280D01*
X115117810Y-68425280D02*
X115117810Y-67925280D01*
X115517810Y-68425280D02*
X114717810Y-68425280D01*
X70274060Y-106525280D02*
X69474060Y-106525280D01*
X68974060Y-108175280D02*
X70774060Y-108175280D01*
X69874060Y-107525280D02*
X69874060Y-107125280D01*
X70774060Y-105375280D02*
X68974060Y-105375280D01*
X70774060Y-108175280D02*
X70774060Y-105375280D01*
X69874060Y-107125280D02*
X70274060Y-106525280D01*
X69874060Y-107125280D02*
X70424060Y-107125280D01*
X68974060Y-105375280D02*
X68974060Y-108175280D01*
X69874060Y-106525280D02*
X69874060Y-106025280D01*
X69874060Y-107125280D02*
X69324060Y-107125280D01*
X69474060Y-106525280D02*
X69874060Y-107125280D01*
X267517810Y-68425280D02*
X267517810Y-67925280D01*
X266617810Y-67275280D02*
X266617810Y-70075280D01*
X266617810Y-70075280D02*
X268417810Y-70075280D01*
X267917810Y-68425280D02*
X267117810Y-68425280D01*
X268417810Y-67275280D02*
X266617810Y-67275280D01*
X267517810Y-69025280D02*
X268067810Y-69025280D01*
X267517810Y-69025280D02*
X267917810Y-68425280D01*
X268417810Y-70075280D02*
X268417810Y-67275280D01*
X267517810Y-69025280D02*
X266967810Y-69025280D01*
X267517810Y-69425280D02*
X267517810Y-69025280D01*
X267117810Y-68425280D02*
X267517810Y-69025280D01*
X59449060Y-87375280D02*
X59449060Y-90175280D01*
X59949060Y-88525280D02*
X60349060Y-89125280D01*
X60349060Y-89525280D02*
X60349060Y-89125280D01*
X60349060Y-88525280D02*
X60349060Y-88025280D01*
X61249060Y-87375280D02*
X59449060Y-87375280D01*
X60349060Y-89125280D02*
X59799060Y-89125280D01*
X61249060Y-90175280D02*
X61249060Y-87375280D01*
X60349060Y-89125280D02*
X60749060Y-88525280D01*
X59449060Y-90175280D02*
X61249060Y-90175280D01*
X60349060Y-89125280D02*
X60899060Y-89125280D01*
X60749060Y-88525280D02*
X59949060Y-88525280D01*
X77017810Y-50375280D02*
X77017810Y-49975280D01*
X77417810Y-49375280D02*
X76617810Y-49375280D01*
X77917810Y-48225280D02*
X76117810Y-48225280D01*
X76617810Y-49375280D02*
X77017810Y-49975280D01*
X76117810Y-51025280D02*
X77917810Y-51025280D01*
X77017810Y-49975280D02*
X77567810Y-49975280D01*
X77917810Y-51025280D02*
X77917810Y-48225280D01*
X77017810Y-49975280D02*
X77417810Y-49375280D01*
X77017810Y-49975280D02*
X76467810Y-49975280D01*
X76117810Y-48225280D02*
X76117810Y-51025280D01*
X77017810Y-49375280D02*
X77017810Y-48875280D01*
X248067810Y-50425280D02*
X248467810Y-51025280D01*
X248467810Y-51425280D02*
X248467810Y-51025280D01*
X247567810Y-52075280D02*
X249367810Y-52075280D01*
X248467810Y-51025280D02*
X249017810Y-51025280D01*
X247567810Y-49275280D02*
X247567810Y-52075280D01*
X248867810Y-50425280D02*
X248067810Y-50425280D01*
X248467810Y-51025280D02*
X247917810Y-51025280D01*
X248467810Y-50425280D02*
X248467810Y-49925280D01*
X249367810Y-52075280D02*
X249367810Y-49275280D01*
X248467810Y-51025280D02*
X248867810Y-50425280D01*
X249367810Y-49275280D02*
X247567810Y-49275280D01*
X232699060Y-109225280D02*
X232699060Y-106425280D01*
X231799060Y-108175280D02*
X231249060Y-108175280D01*
X231399060Y-107575280D02*
X231799060Y-108175280D01*
X232699060Y-106425280D02*
X230899060Y-106425280D01*
X231799060Y-108175280D02*
X232199060Y-107575280D01*
X231799060Y-107575280D02*
X231799060Y-107075280D01*
X231799060Y-108175280D02*
X232349060Y-108175280D01*
X231799060Y-108575280D02*
X231799060Y-108175280D01*
X230899060Y-109225280D02*
X232699060Y-109225280D01*
X232199060Y-107575280D02*
X231399060Y-107575280D01*
X230899060Y-106425280D02*
X230899060Y-109225280D01*
X57567810Y-69475280D02*
X57967810Y-70075280D01*
X57967810Y-70075280D02*
X57417810Y-70075280D01*
X57067810Y-71125280D02*
X58867810Y-71125280D01*
X57967810Y-69475280D02*
X57967810Y-68975280D01*
X58367810Y-69475280D02*
X57567810Y-69475280D01*
X57967810Y-70075280D02*
X58517810Y-70075280D01*
X57067810Y-68325280D02*
X57067810Y-71125280D01*
X57967810Y-70075280D02*
X58367810Y-69475280D01*
X58867810Y-68325280D02*
X57067810Y-68325280D01*
X58867810Y-71125280D02*
X58867810Y-68325280D01*
X57967810Y-70475280D02*
X57967810Y-70075280D01*
M02*
