G04 #@! TF.GenerationSoftware,KiCad,Pcbnew,7.0.1-0*
G04 #@! TF.CreationDate,2023-04-11T07:48:06+09:00*
G04 #@! TF.ProjectId,Sandy_Base,53616e64-795f-4426-9173-652e6b696361,v.0*
G04 #@! TF.SameCoordinates,Original*
G04 #@! TF.FileFunction,Paste,Bot*
G04 #@! TF.FilePolarity,Positive*
%FSLAX46Y46*%
G04 Gerber Fmt 4.6, Leading zero omitted, Abs format (unit mm)*
G04 Created by KiCad (PCBNEW 7.0.1-0) date 2023-04-11 07:48:06*
%MOMM*%
%LPD*%
G01*
G04 APERTURE LIST*
G04 Aperture macros list*
%AMRoundRect*
0 Rectangle with rounded corners*
0 $1 Rounding radius*
0 $2 $3 $4 $5 $6 $7 $8 $9 X,Y pos of 4 corners*
0 Add a 4 corners polygon primitive as box body*
4,1,4,$2,$3,$4,$5,$6,$7,$8,$9,$2,$3,0*
0 Add four circle primitives for the rounded corners*
1,1,$1+$1,$2,$3*
1,1,$1+$1,$4,$5*
1,1,$1+$1,$6,$7*
1,1,$1+$1,$8,$9*
0 Add four rect primitives between the rounded corners*
20,1,$1+$1,$2,$3,$4,$5,0*
20,1,$1+$1,$4,$5,$6,$7,0*
20,1,$1+$1,$6,$7,$8,$9,0*
20,1,$1+$1,$8,$9,$2,$3,0*%
%AMRotRect*
0 Rectangle, with rotation*
0 The origin of the aperture is its center*
0 $1 length*
0 $2 width*
0 $3 Rotation angle, in degrees counterclockwise*
0 Add horizontal line*
21,1,$1,$2,0,0,$3*%
%AMFreePoly0*
4,1,20,1.262426,1.232426,1.280000,1.190000,1.280000,-0.800000,1.277330,-0.806445,1.278502,-0.813322,1.268828,-0.826970,1.262426,-0.842426,1.255980,-0.845095,1.251947,-0.850787,0.631947,-1.240788,0.615454,-1.243598,0.600000,-1.250000,-1.220000,-1.250000,-1.262426,-1.232426,-1.280000,-1.190000,-1.280000,1.190000,-1.262426,1.232426,-1.220000,1.250000,1.220000,1.250000,1.262426,1.232426,
1.262426,1.232426,$1*%
G04 Aperture macros list end*
%ADD10R,2.550000X2.500000*%
%ADD11FreePoly0,0.000000*%
%ADD12RoundRect,0.250000X-0.350000X-0.450000X0.350000X-0.450000X0.350000X0.450000X-0.350000X0.450000X0*%
%ADD13RoundRect,0.250000X0.350000X0.450000X-0.350000X0.450000X-0.350000X-0.450000X0.350000X-0.450000X0*%
%ADD14RoundRect,0.250000X0.574524X0.097227X0.097227X0.574524X-0.574524X-0.097227X-0.097227X-0.574524X0*%
%ADD15RoundRect,0.250000X-0.574524X-0.097227X-0.097227X-0.574524X0.574524X0.097227X0.097227X0.574524X0*%
%ADD16RotRect,2.100000X1.800000X225.000000*%
%ADD17RoundRect,0.250000X-0.337500X-0.475000X0.337500X-0.475000X0.337500X0.475000X-0.337500X0.475000X0*%
%ADD18RoundRect,0.250000X0.097227X-0.574524X0.574524X-0.097227X-0.097227X0.574524X-0.574524X0.097227X0*%
%ADD19RoundRect,0.250001X0.462499X0.624999X-0.462499X0.624999X-0.462499X-0.624999X0.462499X-0.624999X0*%
%ADD20R,1.000000X1.700000*%
%ADD21R,0.600000X1.700000*%
%ADD22RoundRect,0.250000X-0.565685X-0.070711X-0.070711X-0.565685X0.565685X0.070711X0.070711X0.565685X0*%
%ADD23RoundRect,0.250000X0.070711X-0.565685X0.565685X-0.070711X-0.070711X0.565685X-0.565685X0.070711X0*%
%ADD24RoundRect,0.150000X0.725000X0.150000X-0.725000X0.150000X-0.725000X-0.150000X0.725000X-0.150000X0*%
%ADD25RoundRect,0.250000X0.000000X-0.388909X0.388909X0.000000X0.000000X0.388909X-0.388909X0.000000X0*%
%ADD26RoundRect,0.062500X-0.291682X-0.380070X0.380070X0.291682X0.291682X0.380070X-0.380070X-0.291682X0*%
%ADD27RoundRect,0.062500X0.291682X-0.380070X0.380070X-0.291682X-0.291682X0.380070X-0.380070X0.291682X0*%
%ADD28R,1.200000X0.900000*%
G04 APERTURE END LIST*
D10*
X228286695Y-81613685D03*
X241213695Y-79073685D03*
X247336775Y-81613685D03*
X260263775Y-79073685D03*
X47310935Y-62563565D03*
X60237935Y-60023565D03*
X94935935Y-81613645D03*
X107862935Y-79073645D03*
X85410935Y-62563565D03*
X98337935Y-60023565D03*
X266387015Y-100663725D03*
X279314015Y-98123725D03*
X85410935Y-43513485D03*
X98337935Y-40973485D03*
X104460935Y-62563565D03*
X117387935Y-60023565D03*
X285437095Y-81613685D03*
X298364095Y-79073685D03*
X218761655Y-43513525D03*
X231688655Y-40973525D03*
X218761655Y-62563605D03*
X231688655Y-60023605D03*
X237811735Y-62563605D03*
X250738735Y-60023605D03*
X18735935Y-81613405D03*
X31662935Y-79073405D03*
X37785975Y-81613765D03*
X50712975Y-79073765D03*
X209236615Y-81613645D03*
X222163615Y-79073645D03*
X190186535Y-81613645D03*
X203113535Y-79073645D03*
X237811735Y-43513525D03*
X250738735Y-40973525D03*
X113985935Y-81613645D03*
X126912935Y-79073645D03*
X66360935Y-43513485D03*
X79287935Y-40973485D03*
X75885935Y-81613645D03*
X88812935Y-79073645D03*
X56835935Y-81613645D03*
X69762935Y-79073645D03*
D11*
X18735975Y-100663765D03*
D10*
X31662975Y-98123765D03*
X83029995Y-100663765D03*
X95956995Y-98123765D03*
X221142225Y-100663765D03*
X234069225Y-98123765D03*
X294844415Y-67643605D03*
X281917415Y-70183605D03*
X256860975Y-62563765D03*
X269787975Y-60023765D03*
X25879755Y-62563605D03*
X38806755Y-60023605D03*
X37668475Y-67643765D03*
X24741475Y-70183765D03*
X37785975Y-100663765D03*
X50712975Y-98123765D03*
X266387015Y-81613685D03*
X279314015Y-79073685D03*
X66360935Y-62563565D03*
X79287935Y-60023565D03*
D11*
X285437095Y-100663765D03*
D10*
X298364095Y-98123765D03*
X59217225Y-100663765D03*
X72144225Y-98123765D03*
X199711575Y-62563565D03*
X212638575Y-60023565D03*
X244954685Y-100663405D03*
X257881685Y-98123405D03*
X133036375Y-100663765D03*
X145963375Y-98123765D03*
X194948435Y-100663405D03*
X207875435Y-98123405D03*
X171135975Y-100663765D03*
X184062975Y-98123765D03*
X278292185Y-62563605D03*
X291219185Y-60023605D03*
X109223435Y-100663405D03*
X122150435Y-98123405D03*
D11*
X152085975Y-100663765D03*
D10*
X165012975Y-98123765D03*
D12*
X24820935Y-25860405D03*
X26820935Y-25860405D03*
D13*
X38123935Y-31194405D03*
X36123935Y-31194405D03*
D14*
X58701433Y-43215153D03*
X57234187Y-41747907D03*
D15*
X41650165Y-33085385D03*
X43117411Y-34552631D03*
D16*
X50773413Y-27331023D03*
X48722803Y-29381633D03*
X47096457Y-27755287D03*
X49147067Y-25704677D03*
D15*
X44629437Y-30381407D03*
X46096683Y-31848653D03*
D17*
X60558435Y-27278405D03*
X62633435Y-27278405D03*
D18*
X63653153Y-35605562D03*
X65120399Y-34138316D03*
D19*
X45167810Y-20431155D03*
X42192810Y-20431155D03*
D13*
X44680310Y-23225155D03*
X42680310Y-23225155D03*
D20*
X25197935Y-19788405D03*
D21*
X26897935Y-19788405D03*
X26897935Y-22788405D03*
X24997935Y-22788405D03*
D20*
X40595975Y-63148765D03*
X40595975Y-69448765D03*
X44395975Y-63148765D03*
X44395975Y-69448765D03*
D22*
X44582044Y-36017264D03*
X45996258Y-37431478D03*
D23*
X65626828Y-37521262D03*
X67041042Y-36107048D03*
D14*
X53240433Y-24704903D03*
X51773187Y-23237657D03*
D24*
X95070935Y-22248405D03*
X95070935Y-23518405D03*
X95070935Y-24788405D03*
X95070935Y-26058405D03*
X89920935Y-26058405D03*
X89920935Y-24788405D03*
X89920935Y-23518405D03*
X89920935Y-22248405D03*
D12*
X78800000Y-27000000D03*
X80800000Y-27000000D03*
X78800000Y-24590405D03*
X80800000Y-24590405D03*
D15*
X49090312Y-40874782D03*
X50557558Y-42342028D03*
D13*
X38123935Y-28654405D03*
X36123935Y-28654405D03*
D25*
X52828844Y-34147155D03*
X53748082Y-35066394D03*
X54667321Y-35985633D03*
X55586560Y-36904871D03*
X53748082Y-33227916D03*
X54667321Y-34147155D03*
X55586560Y-35066394D03*
X56505799Y-35985633D03*
X54667321Y-32308677D03*
X55586560Y-33227916D03*
X56505799Y-34147155D03*
X57425038Y-35066394D03*
X55586560Y-31389439D03*
X56505799Y-32308677D03*
X57425038Y-33227916D03*
X58344276Y-34147155D03*
D26*
X54994358Y-38274891D03*
X54640805Y-37921337D03*
X54287251Y-37567784D03*
X53933698Y-37214231D03*
X53580145Y-36860677D03*
X53226591Y-36507124D03*
X52873038Y-36153570D03*
X52519484Y-35800017D03*
X52165931Y-35446464D03*
X51812378Y-35092910D03*
X51458824Y-34739357D03*
D27*
X51458824Y-33554953D03*
X51812378Y-33201400D03*
X52165931Y-32847846D03*
X52519484Y-32494293D03*
X52873038Y-32140740D03*
X53226591Y-31787186D03*
X53580145Y-31433633D03*
X53933698Y-31080079D03*
X54287251Y-30726526D03*
X54640805Y-30372973D03*
X54994358Y-30019419D03*
D26*
X56178762Y-30019419D03*
X56532315Y-30372973D03*
X56885869Y-30726526D03*
X57239422Y-31080079D03*
X57592975Y-31433633D03*
X57946529Y-31787186D03*
X58300082Y-32140740D03*
X58653636Y-32494293D03*
X59007189Y-32847846D03*
X59360742Y-33201400D03*
X59714296Y-33554953D03*
D27*
X59714296Y-34739357D03*
X59360742Y-35092910D03*
X59007189Y-35446464D03*
X58653636Y-35800017D03*
X58300082Y-36153570D03*
X57946529Y-36507124D03*
X57592975Y-36860677D03*
X57239422Y-37214231D03*
X56885869Y-37567784D03*
X56532315Y-37921337D03*
X56178762Y-38274891D03*
D28*
X77017810Y-70325280D03*
X77017810Y-67025280D03*
X281700000Y-108425280D03*
X281700000Y-105125280D03*
X96067810Y-71375280D03*
X96067810Y-68075280D03*
X93686559Y-108425280D03*
X93686559Y-105125280D03*
X148455309Y-107234655D03*
X148455309Y-103934655D03*
X86542810Y-90425280D03*
X86542810Y-87125280D03*
X200842810Y-90425280D03*
X200842810Y-87125280D03*
X119880309Y-108425280D03*
X119880309Y-105125280D03*
X257992810Y-89375280D03*
X257992810Y-86075280D03*
X34155309Y-107234655D03*
X34155309Y-103934655D03*
X229417810Y-70325280D03*
X229417810Y-67025280D03*
X238942810Y-90425280D03*
X238942810Y-87125280D03*
X212749059Y-108425280D03*
X212749059Y-105125280D03*
X219892810Y-89375280D03*
X219892810Y-86075280D03*
X277042810Y-109475280D03*
X277042810Y-106175280D03*
X210367810Y-71375280D03*
X210367810Y-68075280D03*
X248467810Y-71375280D03*
X248467810Y-68075280D03*
X186555310Y-107234655D03*
X186555310Y-103934655D03*
X277042810Y-90425280D03*
X277042810Y-87125280D03*
X50824060Y-70325280D03*
X50824060Y-67025280D03*
X229417810Y-51275280D03*
X229417810Y-47975280D03*
X275852185Y-71375280D03*
X275852185Y-68075280D03*
X96067810Y-52325280D03*
X96067810Y-49025280D03*
X29392809Y-89375280D03*
X29392809Y-86075280D03*
X296092810Y-89375280D03*
X296092810Y-86075280D03*
X48442809Y-108425280D03*
X48442809Y-105125280D03*
X67492810Y-89375280D03*
X67492810Y-86075280D03*
X105592810Y-89375280D03*
X105592810Y-86075280D03*
X124642810Y-90425280D03*
X124642810Y-87125280D03*
X255611560Y-108425280D03*
X255611560Y-105125280D03*
X115117810Y-70325280D03*
X115117810Y-67025280D03*
X167505309Y-108425280D03*
X167505309Y-105125280D03*
X75827184Y-107234655D03*
X75827184Y-103934655D03*
X267517810Y-70325280D03*
X267517810Y-67025280D03*
X48442809Y-90425280D03*
X48442809Y-87125280D03*
X77017810Y-51275280D03*
X77017810Y-47975280D03*
X248467810Y-52325280D03*
X248467810Y-49025280D03*
X231799059Y-108425280D03*
X231799059Y-105125280D03*
X57967810Y-71375280D03*
X57967810Y-68075280D03*
M02*
