G04 #@! TF.GenerationSoftware,KiCad,Pcbnew,7.0.1-0*
G04 #@! TF.CreationDate,2023-05-14T12:19:21+09:00*
G04 #@! TF.ProjectId,Sandy_Base,53616e64-795f-4426-9173-652e6b696361,v.0*
G04 #@! TF.SameCoordinates,Original*
G04 #@! TF.FileFunction,AssemblyDrawing,Bot*
%FSLAX46Y46*%
G04 Gerber Fmt 4.6, Leading zero omitted, Abs format (unit mm)*
G04 Created by KiCad (PCBNEW 7.0.1-0) date 2023-05-14 12:19:21*
%MOMM*%
%LPD*%
G01*
G04 APERTURE LIST*
%ADD10C,0.080000*%
%ADD11C,0.150000*%
%ADD12C,0.105000*%
%ADD13C,0.120000*%
%ADD14C,0.075000*%
%ADD15C,0.100000*%
G04 APERTURE END LIST*
D10*
X31679268Y-26909714D02*
X31845934Y-26671619D01*
X31964982Y-26909714D02*
X31964982Y-26409714D01*
X31964982Y-26409714D02*
X31774506Y-26409714D01*
X31774506Y-26409714D02*
X31726887Y-26433524D01*
X31726887Y-26433524D02*
X31703077Y-26457333D01*
X31703077Y-26457333D02*
X31679268Y-26504952D01*
X31679268Y-26504952D02*
X31679268Y-26576381D01*
X31679268Y-26576381D02*
X31703077Y-26624000D01*
X31703077Y-26624000D02*
X31726887Y-26647809D01*
X31726887Y-26647809D02*
X31774506Y-26671619D01*
X31774506Y-26671619D02*
X31964982Y-26671619D01*
X31488791Y-26457333D02*
X31464982Y-26433524D01*
X31464982Y-26433524D02*
X31417363Y-26409714D01*
X31417363Y-26409714D02*
X31298315Y-26409714D01*
X31298315Y-26409714D02*
X31250696Y-26433524D01*
X31250696Y-26433524D02*
X31226887Y-26457333D01*
X31226887Y-26457333D02*
X31203077Y-26504952D01*
X31203077Y-26504952D02*
X31203077Y-26552571D01*
X31203077Y-26552571D02*
X31226887Y-26624000D01*
X31226887Y-26624000D02*
X31512601Y-26909714D01*
X31512601Y-26909714D02*
X31203077Y-26909714D01*
X39391299Y-36500890D02*
X39677509Y-36450383D01*
X39593330Y-36702921D02*
X39946883Y-36349368D01*
X39946883Y-36349368D02*
X39812196Y-36214681D01*
X39812196Y-36214681D02*
X39761689Y-36197845D01*
X39761689Y-36197845D02*
X39728017Y-36197845D01*
X39728017Y-36197845D02*
X39677509Y-36214681D01*
X39677509Y-36214681D02*
X39627002Y-36265188D01*
X39627002Y-36265188D02*
X39610166Y-36315696D01*
X39610166Y-36315696D02*
X39610166Y-36349368D01*
X39610166Y-36349368D02*
X39627002Y-36399875D01*
X39627002Y-36399875D02*
X39761689Y-36534562D01*
X39627002Y-36029486D02*
X39408135Y-35810620D01*
X39408135Y-35810620D02*
X39391299Y-36063158D01*
X39391299Y-36063158D02*
X39340792Y-36012650D01*
X39340792Y-36012650D02*
X39290284Y-35995814D01*
X39290284Y-35995814D02*
X39256612Y-35995814D01*
X39256612Y-35995814D02*
X39206105Y-36012650D01*
X39206105Y-36012650D02*
X39121925Y-36096829D01*
X39121925Y-36096829D02*
X39105089Y-36147337D01*
X39105089Y-36147337D02*
X39105089Y-36181009D01*
X39105089Y-36181009D02*
X39121925Y-36231516D01*
X39121925Y-36231516D02*
X39222941Y-36332532D01*
X39222941Y-36332532D02*
X39273448Y-36349368D01*
X39273448Y-36349368D02*
X39307120Y-36349368D01*
X59558594Y-42537219D02*
X59558594Y-42570890D01*
X59558594Y-42570890D02*
X59592266Y-42638234D01*
X59592266Y-42638234D02*
X59625938Y-42671906D01*
X59625938Y-42671906D02*
X59693281Y-42705577D01*
X59693281Y-42705577D02*
X59760625Y-42705577D01*
X59760625Y-42705577D02*
X59811132Y-42688742D01*
X59811132Y-42688742D02*
X59895312Y-42638234D01*
X59895312Y-42638234D02*
X59945819Y-42587726D01*
X59945819Y-42587726D02*
X59996327Y-42503547D01*
X59996327Y-42503547D02*
X60013163Y-42453039D01*
X60013163Y-42453039D02*
X60013163Y-42385696D01*
X60013163Y-42385696D02*
X59979491Y-42318352D01*
X59979491Y-42318352D02*
X59945819Y-42284681D01*
X59945819Y-42284681D02*
X59878476Y-42251009D01*
X59878476Y-42251009D02*
X59844804Y-42251009D01*
X59558594Y-41897455D02*
X59726953Y-42065814D01*
X59726953Y-42065814D02*
X59575430Y-42251009D01*
X59575430Y-42251009D02*
X59575430Y-42217337D01*
X59575430Y-42217337D02*
X59558594Y-42166829D01*
X59558594Y-42166829D02*
X59474415Y-42082650D01*
X59474415Y-42082650D02*
X59423907Y-42065814D01*
X59423907Y-42065814D02*
X59390235Y-42065814D01*
X59390235Y-42065814D02*
X59339728Y-42082650D01*
X59339728Y-42082650D02*
X59255548Y-42166829D01*
X59255548Y-42166829D02*
X59238712Y-42217337D01*
X59238712Y-42217337D02*
X59238712Y-42251009D01*
X59238712Y-42251009D02*
X59255548Y-42301516D01*
X59255548Y-42301516D02*
X59339728Y-42385696D01*
X59339728Y-42385696D02*
X59390235Y-42402532D01*
X59390235Y-42402532D02*
X59423907Y-42402532D01*
D11*
X83462619Y-27781321D02*
X84176904Y-27781321D01*
X84176904Y-27781321D02*
X84319761Y-27733702D01*
X84319761Y-27733702D02*
X84415000Y-27638464D01*
X84415000Y-27638464D02*
X84462619Y-27495607D01*
X84462619Y-27495607D02*
X84462619Y-27400369D01*
X84462619Y-28305131D02*
X84462619Y-28495607D01*
X84462619Y-28495607D02*
X84415000Y-28590845D01*
X84415000Y-28590845D02*
X84367380Y-28638464D01*
X84367380Y-28638464D02*
X84224523Y-28733702D01*
X84224523Y-28733702D02*
X84034047Y-28781321D01*
X84034047Y-28781321D02*
X83653095Y-28781321D01*
X83653095Y-28781321D02*
X83557857Y-28733702D01*
X83557857Y-28733702D02*
X83510238Y-28686083D01*
X83510238Y-28686083D02*
X83462619Y-28590845D01*
X83462619Y-28590845D02*
X83462619Y-28400369D01*
X83462619Y-28400369D02*
X83510238Y-28305131D01*
X83510238Y-28305131D02*
X83557857Y-28257512D01*
X83557857Y-28257512D02*
X83653095Y-28209893D01*
X83653095Y-28209893D02*
X83891190Y-28209893D01*
X83891190Y-28209893D02*
X83986428Y-28257512D01*
X83986428Y-28257512D02*
X84034047Y-28305131D01*
X84034047Y-28305131D02*
X84081666Y-28400369D01*
X84081666Y-28400369D02*
X84081666Y-28590845D01*
X84081666Y-28590845D02*
X84034047Y-28686083D01*
X84034047Y-28686083D02*
X83986428Y-28733702D01*
X83986428Y-28733702D02*
X83891190Y-28781321D01*
X106830756Y-98760964D02*
X106497423Y-98760964D01*
X106354566Y-99284774D02*
X106830756Y-99284774D01*
X106830756Y-99284774D02*
X106830756Y-98284774D01*
X106830756Y-98284774D02*
X106354566Y-98284774D01*
X106021232Y-98284774D02*
X105354566Y-99284774D01*
X105354566Y-98284774D02*
X106021232Y-99284774D01*
X105116470Y-98284774D02*
X104545042Y-98284774D01*
X104830756Y-99284774D02*
X104830756Y-98284774D01*
X104449804Y-99380012D02*
X103687899Y-99380012D01*
X102878375Y-99189535D02*
X102925994Y-99237155D01*
X102925994Y-99237155D02*
X103068851Y-99284774D01*
X103068851Y-99284774D02*
X103164089Y-99284774D01*
X103164089Y-99284774D02*
X103306946Y-99237155D01*
X103306946Y-99237155D02*
X103402184Y-99141916D01*
X103402184Y-99141916D02*
X103449803Y-99046678D01*
X103449803Y-99046678D02*
X103497422Y-98856202D01*
X103497422Y-98856202D02*
X103497422Y-98713345D01*
X103497422Y-98713345D02*
X103449803Y-98522869D01*
X103449803Y-98522869D02*
X103402184Y-98427631D01*
X103402184Y-98427631D02*
X103306946Y-98332393D01*
X103306946Y-98332393D02*
X103164089Y-98284774D01*
X103164089Y-98284774D02*
X103068851Y-98284774D01*
X103068851Y-98284774D02*
X102925994Y-98332393D01*
X102925994Y-98332393D02*
X102878375Y-98380012D01*
X102497422Y-98380012D02*
X102449803Y-98332393D01*
X102449803Y-98332393D02*
X102354565Y-98284774D01*
X102354565Y-98284774D02*
X102116470Y-98284774D01*
X102116470Y-98284774D02*
X102021232Y-98332393D01*
X102021232Y-98332393D02*
X101973613Y-98380012D01*
X101973613Y-98380012D02*
X101925994Y-98475250D01*
X101925994Y-98475250D02*
X101925994Y-98570488D01*
X101925994Y-98570488D02*
X101973613Y-98713345D01*
X101973613Y-98713345D02*
X102545041Y-99284774D01*
X102545041Y-99284774D02*
X101925994Y-99284774D01*
X192555756Y-101142214D02*
X192222423Y-101142214D01*
X192079566Y-101666024D02*
X192555756Y-101666024D01*
X192555756Y-101666024D02*
X192555756Y-100666024D01*
X192555756Y-100666024D02*
X192079566Y-100666024D01*
X191746232Y-100666024D02*
X191079566Y-101666024D01*
X191079566Y-100666024D02*
X191746232Y-101666024D01*
X190841470Y-100666024D02*
X190270042Y-100666024D01*
X190555756Y-101666024D02*
X190555756Y-100666024D01*
X190174804Y-101761262D02*
X189412899Y-101761262D01*
X188603375Y-101570785D02*
X188650994Y-101618405D01*
X188650994Y-101618405D02*
X188793851Y-101666024D01*
X188793851Y-101666024D02*
X188889089Y-101666024D01*
X188889089Y-101666024D02*
X189031946Y-101618405D01*
X189031946Y-101618405D02*
X189127184Y-101523166D01*
X189127184Y-101523166D02*
X189174803Y-101427928D01*
X189174803Y-101427928D02*
X189222422Y-101237452D01*
X189222422Y-101237452D02*
X189222422Y-101094595D01*
X189222422Y-101094595D02*
X189174803Y-100904119D01*
X189174803Y-100904119D02*
X189127184Y-100808881D01*
X189127184Y-100808881D02*
X189031946Y-100713643D01*
X189031946Y-100713643D02*
X188889089Y-100666024D01*
X188889089Y-100666024D02*
X188793851Y-100666024D01*
X188793851Y-100666024D02*
X188650994Y-100713643D01*
X188650994Y-100713643D02*
X188603375Y-100761262D01*
X187746232Y-100999357D02*
X187746232Y-101666024D01*
X187984327Y-100618405D02*
X188222422Y-101332690D01*
X188222422Y-101332690D02*
X187603375Y-101332690D01*
X263993256Y-101142214D02*
X263659923Y-101142214D01*
X263517066Y-101666024D02*
X263993256Y-101666024D01*
X263993256Y-101666024D02*
X263993256Y-100666024D01*
X263993256Y-100666024D02*
X263517066Y-100666024D01*
X263183732Y-100666024D02*
X262517066Y-101666024D01*
X262517066Y-100666024D02*
X263183732Y-101666024D01*
X262278970Y-100666024D02*
X261707542Y-100666024D01*
X261993256Y-101666024D02*
X261993256Y-100666024D01*
X261612304Y-101761262D02*
X260850399Y-101761262D01*
X260040875Y-101570785D02*
X260088494Y-101618405D01*
X260088494Y-101618405D02*
X260231351Y-101666024D01*
X260231351Y-101666024D02*
X260326589Y-101666024D01*
X260326589Y-101666024D02*
X260469446Y-101618405D01*
X260469446Y-101618405D02*
X260564684Y-101523166D01*
X260564684Y-101523166D02*
X260612303Y-101427928D01*
X260612303Y-101427928D02*
X260659922Y-101237452D01*
X260659922Y-101237452D02*
X260659922Y-101094595D01*
X260659922Y-101094595D02*
X260612303Y-100904119D01*
X260612303Y-100904119D02*
X260564684Y-100808881D01*
X260564684Y-100808881D02*
X260469446Y-100713643D01*
X260469446Y-100713643D02*
X260326589Y-100666024D01*
X260326589Y-100666024D02*
X260231351Y-100666024D01*
X260231351Y-100666024D02*
X260088494Y-100713643D01*
X260088494Y-100713643D02*
X260040875Y-100761262D01*
X259183732Y-100666024D02*
X259374208Y-100666024D01*
X259374208Y-100666024D02*
X259469446Y-100713643D01*
X259469446Y-100713643D02*
X259517065Y-100761262D01*
X259517065Y-100761262D02*
X259612303Y-100904119D01*
X259612303Y-100904119D02*
X259659922Y-101094595D01*
X259659922Y-101094595D02*
X259659922Y-101475547D01*
X259659922Y-101475547D02*
X259612303Y-101570785D01*
X259612303Y-101570785D02*
X259564684Y-101618405D01*
X259564684Y-101618405D02*
X259469446Y-101666024D01*
X259469446Y-101666024D02*
X259278970Y-101666024D01*
X259278970Y-101666024D02*
X259183732Y-101618405D01*
X259183732Y-101618405D02*
X259136113Y-101570785D01*
X259136113Y-101570785D02*
X259088494Y-101475547D01*
X259088494Y-101475547D02*
X259088494Y-101237452D01*
X259088494Y-101237452D02*
X259136113Y-101142214D01*
X259136113Y-101142214D02*
X259183732Y-101094595D01*
X259183732Y-101094595D02*
X259278970Y-101046976D01*
X259278970Y-101046976D02*
X259469446Y-101046976D01*
X259469446Y-101046976D02*
X259564684Y-101094595D01*
X259564684Y-101094595D02*
X259612303Y-101142214D01*
X259612303Y-101142214D02*
X259659922Y-101237452D01*
X36583881Y-98760964D02*
X36250548Y-98760964D01*
X36107691Y-99284774D02*
X36583881Y-99284774D01*
X36583881Y-99284774D02*
X36583881Y-98284774D01*
X36583881Y-98284774D02*
X36107691Y-98284774D01*
X35774357Y-98284774D02*
X35107691Y-99284774D01*
X35107691Y-98284774D02*
X35774357Y-99284774D01*
X34869595Y-98284774D02*
X34298167Y-98284774D01*
X34583881Y-99284774D02*
X34583881Y-98284774D01*
X34202929Y-99380012D02*
X33441024Y-99380012D01*
X32631500Y-99189535D02*
X32679119Y-99237155D01*
X32679119Y-99237155D02*
X32821976Y-99284774D01*
X32821976Y-99284774D02*
X32917214Y-99284774D01*
X32917214Y-99284774D02*
X33060071Y-99237155D01*
X33060071Y-99237155D02*
X33155309Y-99141916D01*
X33155309Y-99141916D02*
X33202928Y-99046678D01*
X33202928Y-99046678D02*
X33250547Y-98856202D01*
X33250547Y-98856202D02*
X33250547Y-98713345D01*
X33250547Y-98713345D02*
X33202928Y-98522869D01*
X33202928Y-98522869D02*
X33155309Y-98427631D01*
X33155309Y-98427631D02*
X33060071Y-98332393D01*
X33060071Y-98332393D02*
X32917214Y-98284774D01*
X32917214Y-98284774D02*
X32821976Y-98284774D01*
X32821976Y-98284774D02*
X32679119Y-98332393D01*
X32679119Y-98332393D02*
X32631500Y-98380012D01*
X32012452Y-98284774D02*
X31917214Y-98284774D01*
X31917214Y-98284774D02*
X31821976Y-98332393D01*
X31821976Y-98332393D02*
X31774357Y-98380012D01*
X31774357Y-98380012D02*
X31726738Y-98475250D01*
X31726738Y-98475250D02*
X31679119Y-98665726D01*
X31679119Y-98665726D02*
X31679119Y-98903821D01*
X31679119Y-98903821D02*
X31726738Y-99094297D01*
X31726738Y-99094297D02*
X31774357Y-99189535D01*
X31774357Y-99189535D02*
X31821976Y-99237155D01*
X31821976Y-99237155D02*
X31917214Y-99284774D01*
X31917214Y-99284774D02*
X32012452Y-99284774D01*
X32012452Y-99284774D02*
X32107690Y-99237155D01*
X32107690Y-99237155D02*
X32155309Y-99189535D01*
X32155309Y-99189535D02*
X32202928Y-99094297D01*
X32202928Y-99094297D02*
X32250547Y-98903821D01*
X32250547Y-98903821D02*
X32250547Y-98665726D01*
X32250547Y-98665726D02*
X32202928Y-98475250D01*
X32202928Y-98475250D02*
X32155309Y-98380012D01*
X32155309Y-98380012D02*
X32107690Y-98332393D01*
X32107690Y-98332393D02*
X32012452Y-98284774D01*
X43727631Y-54707839D02*
X43394298Y-54707839D01*
X43251441Y-55231649D02*
X43727631Y-55231649D01*
X43727631Y-55231649D02*
X43727631Y-54231649D01*
X43727631Y-54231649D02*
X43251441Y-54231649D01*
X42918107Y-54231649D02*
X42251441Y-55231649D01*
X42251441Y-54231649D02*
X42918107Y-55231649D01*
X42013345Y-54231649D02*
X41441917Y-54231649D01*
X41727631Y-55231649D02*
X41727631Y-54231649D01*
X41346679Y-55326887D02*
X40584774Y-55326887D01*
X39775250Y-55231649D02*
X40108583Y-54755458D01*
X40346678Y-55231649D02*
X40346678Y-54231649D01*
X40346678Y-54231649D02*
X39965726Y-54231649D01*
X39965726Y-54231649D02*
X39870488Y-54279268D01*
X39870488Y-54279268D02*
X39822869Y-54326887D01*
X39822869Y-54326887D02*
X39775250Y-54422125D01*
X39775250Y-54422125D02*
X39775250Y-54564982D01*
X39775250Y-54564982D02*
X39822869Y-54660220D01*
X39822869Y-54660220D02*
X39870488Y-54707839D01*
X39870488Y-54707839D02*
X39965726Y-54755458D01*
X39965726Y-54755458D02*
X40346678Y-54755458D01*
X39394297Y-54326887D02*
X39346678Y-54279268D01*
X39346678Y-54279268D02*
X39251440Y-54231649D01*
X39251440Y-54231649D02*
X39013345Y-54231649D01*
X39013345Y-54231649D02*
X38918107Y-54279268D01*
X38918107Y-54279268D02*
X38870488Y-54326887D01*
X38870488Y-54326887D02*
X38822869Y-54422125D01*
X38822869Y-54422125D02*
X38822869Y-54517363D01*
X38822869Y-54517363D02*
X38870488Y-54660220D01*
X38870488Y-54660220D02*
X39441916Y-55231649D01*
X39441916Y-55231649D02*
X38822869Y-55231649D01*
X35393256Y-78948464D02*
X35059923Y-78948464D01*
X34917066Y-79472274D02*
X35393256Y-79472274D01*
X35393256Y-79472274D02*
X35393256Y-78472274D01*
X35393256Y-78472274D02*
X34917066Y-78472274D01*
X34583732Y-78472274D02*
X33917066Y-79472274D01*
X33917066Y-78472274D02*
X34583732Y-79472274D01*
X33678970Y-78472274D02*
X33107542Y-78472274D01*
X33393256Y-79472274D02*
X33393256Y-78472274D01*
X33012304Y-79567512D02*
X32250399Y-79567512D01*
X31440875Y-79472274D02*
X31774208Y-78996083D01*
X32012303Y-79472274D02*
X32012303Y-78472274D01*
X32012303Y-78472274D02*
X31631351Y-78472274D01*
X31631351Y-78472274D02*
X31536113Y-78519893D01*
X31536113Y-78519893D02*
X31488494Y-78567512D01*
X31488494Y-78567512D02*
X31440875Y-78662750D01*
X31440875Y-78662750D02*
X31440875Y-78805607D01*
X31440875Y-78805607D02*
X31488494Y-78900845D01*
X31488494Y-78900845D02*
X31536113Y-78948464D01*
X31536113Y-78948464D02*
X31631351Y-78996083D01*
X31631351Y-78996083D02*
X32012303Y-78996083D01*
X31107541Y-78472274D02*
X30488494Y-78472274D01*
X30488494Y-78472274D02*
X30821827Y-78853226D01*
X30821827Y-78853226D02*
X30678970Y-78853226D01*
X30678970Y-78853226D02*
X30583732Y-78900845D01*
X30583732Y-78900845D02*
X30536113Y-78948464D01*
X30536113Y-78948464D02*
X30488494Y-79043702D01*
X30488494Y-79043702D02*
X30488494Y-79281797D01*
X30488494Y-79281797D02*
X30536113Y-79377035D01*
X30536113Y-79377035D02*
X30583732Y-79424655D01*
X30583732Y-79424655D02*
X30678970Y-79472274D01*
X30678970Y-79472274D02*
X30964684Y-79472274D01*
X30964684Y-79472274D02*
X31059922Y-79424655D01*
X31059922Y-79424655D02*
X31107541Y-79377035D01*
X31821381Y-74948464D02*
X31488048Y-74948464D01*
X31345191Y-75472274D02*
X31821381Y-75472274D01*
X31821381Y-75472274D02*
X31821381Y-74472274D01*
X31821381Y-74472274D02*
X31345191Y-74472274D01*
X31011857Y-74472274D02*
X30345191Y-75472274D01*
X30345191Y-74472274D02*
X31011857Y-75472274D01*
X30107095Y-74472274D02*
X29535667Y-74472274D01*
X29821381Y-75472274D02*
X29821381Y-74472274D01*
X29440429Y-75567512D02*
X28678524Y-75567512D01*
X27869000Y-75472274D02*
X28202333Y-74996083D01*
X28440428Y-75472274D02*
X28440428Y-74472274D01*
X28440428Y-74472274D02*
X28059476Y-74472274D01*
X28059476Y-74472274D02*
X27964238Y-74519893D01*
X27964238Y-74519893D02*
X27916619Y-74567512D01*
X27916619Y-74567512D02*
X27869000Y-74662750D01*
X27869000Y-74662750D02*
X27869000Y-74805607D01*
X27869000Y-74805607D02*
X27916619Y-74900845D01*
X27916619Y-74900845D02*
X27964238Y-74948464D01*
X27964238Y-74948464D02*
X28059476Y-74996083D01*
X28059476Y-74996083D02*
X28440428Y-74996083D01*
X27297571Y-74900845D02*
X27392809Y-74853226D01*
X27392809Y-74853226D02*
X27440428Y-74805607D01*
X27440428Y-74805607D02*
X27488047Y-74710369D01*
X27488047Y-74710369D02*
X27488047Y-74662750D01*
X27488047Y-74662750D02*
X27440428Y-74567512D01*
X27440428Y-74567512D02*
X27392809Y-74519893D01*
X27392809Y-74519893D02*
X27297571Y-74472274D01*
X27297571Y-74472274D02*
X27107095Y-74472274D01*
X27107095Y-74472274D02*
X27011857Y-74519893D01*
X27011857Y-74519893D02*
X26964238Y-74567512D01*
X26964238Y-74567512D02*
X26916619Y-74662750D01*
X26916619Y-74662750D02*
X26916619Y-74710369D01*
X26916619Y-74710369D02*
X26964238Y-74805607D01*
X26964238Y-74805607D02*
X27011857Y-74853226D01*
X27011857Y-74853226D02*
X27107095Y-74900845D01*
X27107095Y-74900845D02*
X27297571Y-74900845D01*
X27297571Y-74900845D02*
X27392809Y-74948464D01*
X27392809Y-74948464D02*
X27440428Y-74996083D01*
X27440428Y-74996083D02*
X27488047Y-75091321D01*
X27488047Y-75091321D02*
X27488047Y-75281797D01*
X27488047Y-75281797D02*
X27440428Y-75377035D01*
X27440428Y-75377035D02*
X27392809Y-75424655D01*
X27392809Y-75424655D02*
X27297571Y-75472274D01*
X27297571Y-75472274D02*
X27107095Y-75472274D01*
X27107095Y-75472274D02*
X27011857Y-75424655D01*
X27011857Y-75424655D02*
X26964238Y-75377035D01*
X26964238Y-75377035D02*
X26916619Y-75281797D01*
X26916619Y-75281797D02*
X26916619Y-75091321D01*
X26916619Y-75091321D02*
X26964238Y-74996083D01*
X26964238Y-74996083D02*
X27011857Y-74948464D01*
X27011857Y-74948464D02*
X27107095Y-74900845D01*
D10*
X42224971Y-36267219D02*
X42224971Y-36300890D01*
X42224971Y-36300890D02*
X42258643Y-36368234D01*
X42258643Y-36368234D02*
X42292315Y-36401906D01*
X42292315Y-36401906D02*
X42359658Y-36435577D01*
X42359658Y-36435577D02*
X42427002Y-36435577D01*
X42427002Y-36435577D02*
X42477509Y-36418742D01*
X42477509Y-36418742D02*
X42561689Y-36368234D01*
X42561689Y-36368234D02*
X42612196Y-36317726D01*
X42612196Y-36317726D02*
X42662704Y-36233547D01*
X42662704Y-36233547D02*
X42679540Y-36183039D01*
X42679540Y-36183039D02*
X42679540Y-36115696D01*
X42679540Y-36115696D02*
X42645868Y-36048352D01*
X42645868Y-36048352D02*
X42612196Y-36014681D01*
X42612196Y-36014681D02*
X42544853Y-35981009D01*
X42544853Y-35981009D02*
X42511181Y-35981009D01*
X41854582Y-35964173D02*
X42056612Y-36166203D01*
X41955597Y-36065188D02*
X42309150Y-35711635D01*
X42309150Y-35711635D02*
X42292315Y-35795814D01*
X42292315Y-35795814D02*
X42292315Y-35863158D01*
X42292315Y-35863158D02*
X42309150Y-35913665D01*
D12*
X49163919Y-28237112D02*
X49399621Y-28472814D01*
X49069638Y-27812848D02*
X49163919Y-28237112D01*
X49163919Y-28237112D02*
X48739655Y-28142831D01*
X48810366Y-29062070D02*
X49093208Y-28779227D01*
X48951787Y-28920649D02*
X48456812Y-28425674D01*
X48456812Y-28425674D02*
X48574663Y-28449244D01*
X48574663Y-28449244D02*
X48668944Y-28449244D01*
X48668944Y-28449244D02*
X48739655Y-28425674D01*
D10*
X45292096Y-32240221D02*
X45292096Y-32273892D01*
X45292096Y-32273892D02*
X45325768Y-32341236D01*
X45325768Y-32341236D02*
X45359440Y-32374908D01*
X45359440Y-32374908D02*
X45426783Y-32408579D01*
X45426783Y-32408579D02*
X45494127Y-32408579D01*
X45494127Y-32408579D02*
X45544634Y-32391744D01*
X45544634Y-32391744D02*
X45628814Y-32341236D01*
X45628814Y-32341236D02*
X45679321Y-32290728D01*
X45679321Y-32290728D02*
X45729829Y-32206549D01*
X45729829Y-32206549D02*
X45746665Y-32156041D01*
X45746665Y-32156041D02*
X45746665Y-32088698D01*
X45746665Y-32088698D02*
X45712993Y-32021354D01*
X45712993Y-32021354D02*
X45679321Y-31987683D01*
X45679321Y-31987683D02*
X45611978Y-31954011D01*
X45611978Y-31954011D02*
X45578306Y-31954011D01*
X45494127Y-31802488D02*
X45275260Y-31583622D01*
X45275260Y-31583622D02*
X45258424Y-31836160D01*
X45258424Y-31836160D02*
X45207917Y-31785652D01*
X45207917Y-31785652D02*
X45157409Y-31768816D01*
X45157409Y-31768816D02*
X45123737Y-31768816D01*
X45123737Y-31768816D02*
X45073230Y-31785652D01*
X45073230Y-31785652D02*
X44989050Y-31869831D01*
X44989050Y-31869831D02*
X44972214Y-31920339D01*
X44972214Y-31920339D02*
X44972214Y-31954011D01*
X44972214Y-31954011D02*
X44989050Y-32004518D01*
X44989050Y-32004518D02*
X45090066Y-32105534D01*
X45090066Y-32105534D02*
X45140573Y-32122370D01*
X45140573Y-32122370D02*
X45174245Y-32122370D01*
X61679268Y-28562095D02*
X61703077Y-28585905D01*
X61703077Y-28585905D02*
X61774506Y-28609714D01*
X61774506Y-28609714D02*
X61822125Y-28609714D01*
X61822125Y-28609714D02*
X61893553Y-28585905D01*
X61893553Y-28585905D02*
X61941172Y-28538285D01*
X61941172Y-28538285D02*
X61964982Y-28490666D01*
X61964982Y-28490666D02*
X61988791Y-28395428D01*
X61988791Y-28395428D02*
X61988791Y-28324000D01*
X61988791Y-28324000D02*
X61964982Y-28228762D01*
X61964982Y-28228762D02*
X61941172Y-28181143D01*
X61941172Y-28181143D02*
X61893553Y-28133524D01*
X61893553Y-28133524D02*
X61822125Y-28109714D01*
X61822125Y-28109714D02*
X61774506Y-28109714D01*
X61774506Y-28109714D02*
X61703077Y-28133524D01*
X61703077Y-28133524D02*
X61679268Y-28157333D01*
X61512601Y-28109714D02*
X61179268Y-28109714D01*
X61179268Y-28109714D02*
X61393553Y-28609714D01*
X64575590Y-35879279D02*
X64609261Y-35879279D01*
X64609261Y-35879279D02*
X64676605Y-35845607D01*
X64676605Y-35845607D02*
X64710277Y-35811935D01*
X64710277Y-35811935D02*
X64743948Y-35744592D01*
X64743948Y-35744592D02*
X64743948Y-35677248D01*
X64743948Y-35677248D02*
X64727113Y-35626741D01*
X64727113Y-35626741D02*
X64676605Y-35542561D01*
X64676605Y-35542561D02*
X64626097Y-35492054D01*
X64626097Y-35492054D02*
X64541918Y-35441546D01*
X64541918Y-35441546D02*
X64491410Y-35424710D01*
X64491410Y-35424710D02*
X64424067Y-35424710D01*
X64424067Y-35424710D02*
X64356723Y-35458382D01*
X64356723Y-35458382D02*
X64323052Y-35492054D01*
X64323052Y-35492054D02*
X64289380Y-35559397D01*
X64289380Y-35559397D02*
X64289380Y-35593069D01*
X64070513Y-35980294D02*
X64306216Y-36215996D01*
X64020006Y-35761428D02*
X64356723Y-35929787D01*
X64356723Y-35929787D02*
X64137857Y-36148653D01*
D11*
X53523643Y-50283524D02*
X53523643Y-50997809D01*
X53523643Y-50997809D02*
X53571262Y-51140666D01*
X53571262Y-51140666D02*
X53666500Y-51235905D01*
X53666500Y-51235905D02*
X53809357Y-51283524D01*
X53809357Y-51283524D02*
X53904595Y-51283524D01*
X52904595Y-50712095D02*
X52999833Y-50664476D01*
X52999833Y-50664476D02*
X53047452Y-50616857D01*
X53047452Y-50616857D02*
X53095071Y-50521619D01*
X53095071Y-50521619D02*
X53095071Y-50474000D01*
X53095071Y-50474000D02*
X53047452Y-50378762D01*
X53047452Y-50378762D02*
X52999833Y-50331143D01*
X52999833Y-50331143D02*
X52904595Y-50283524D01*
X52904595Y-50283524D02*
X52714119Y-50283524D01*
X52714119Y-50283524D02*
X52618881Y-50331143D01*
X52618881Y-50331143D02*
X52571262Y-50378762D01*
X52571262Y-50378762D02*
X52523643Y-50474000D01*
X52523643Y-50474000D02*
X52523643Y-50521619D01*
X52523643Y-50521619D02*
X52571262Y-50616857D01*
X52571262Y-50616857D02*
X52618881Y-50664476D01*
X52618881Y-50664476D02*
X52714119Y-50712095D01*
X52714119Y-50712095D02*
X52904595Y-50712095D01*
X52904595Y-50712095D02*
X52999833Y-50759714D01*
X52999833Y-50759714D02*
X53047452Y-50807333D01*
X53047452Y-50807333D02*
X53095071Y-50902571D01*
X53095071Y-50902571D02*
X53095071Y-51093047D01*
X53095071Y-51093047D02*
X53047452Y-51188285D01*
X53047452Y-51188285D02*
X52999833Y-51235905D01*
X52999833Y-51235905D02*
X52904595Y-51283524D01*
X52904595Y-51283524D02*
X52714119Y-51283524D01*
X52714119Y-51283524D02*
X52618881Y-51235905D01*
X52618881Y-51235905D02*
X52571262Y-51188285D01*
X52571262Y-51188285D02*
X52523643Y-51093047D01*
X52523643Y-51093047D02*
X52523643Y-50902571D01*
X52523643Y-50902571D02*
X52571262Y-50807333D01*
X52571262Y-50807333D02*
X52618881Y-50759714D01*
X52618881Y-50759714D02*
X52714119Y-50712095D01*
D13*
X57937601Y-21001327D02*
X58204267Y-21001327D01*
X58204267Y-21420375D02*
X58204267Y-20620375D01*
X58204267Y-20620375D02*
X57823315Y-20620375D01*
X57099506Y-21420375D02*
X57556649Y-21420375D01*
X57328077Y-21420375D02*
X57328077Y-20620375D01*
X57328077Y-20620375D02*
X57404268Y-20734660D01*
X57404268Y-20734660D02*
X57480458Y-20810851D01*
X57480458Y-20810851D02*
X57556649Y-20848946D01*
D10*
X37779268Y-26909714D02*
X37945934Y-26671619D01*
X38064982Y-26909714D02*
X38064982Y-26409714D01*
X38064982Y-26409714D02*
X37874506Y-26409714D01*
X37874506Y-26409714D02*
X37826887Y-26433524D01*
X37826887Y-26433524D02*
X37803077Y-26457333D01*
X37803077Y-26457333D02*
X37779268Y-26504952D01*
X37779268Y-26504952D02*
X37779268Y-26576381D01*
X37779268Y-26576381D02*
X37803077Y-26624000D01*
X37803077Y-26624000D02*
X37826887Y-26647809D01*
X37826887Y-26647809D02*
X37874506Y-26671619D01*
X37874506Y-26671619D02*
X38064982Y-26671619D01*
X37303077Y-26909714D02*
X37588791Y-26909714D01*
X37445934Y-26909714D02*
X37445934Y-26409714D01*
X37445934Y-26409714D02*
X37493553Y-26481143D01*
X37493553Y-26481143D02*
X37541172Y-26528762D01*
X37541172Y-26528762D02*
X37588791Y-26552571D01*
D11*
X218728571Y-98638809D02*
X218395238Y-98638809D01*
X218252381Y-99162619D02*
X218728571Y-99162619D01*
X218728571Y-99162619D02*
X218728571Y-98162619D01*
X218728571Y-98162619D02*
X218252381Y-98162619D01*
X217919047Y-98162619D02*
X217252381Y-99162619D01*
X217252381Y-98162619D02*
X217919047Y-99162619D01*
X217014285Y-98162619D02*
X216442857Y-98162619D01*
X216728571Y-99162619D02*
X216728571Y-98162619D01*
X216347619Y-99257857D02*
X215585714Y-99257857D01*
X214776190Y-99067380D02*
X214823809Y-99115000D01*
X214823809Y-99115000D02*
X214966666Y-99162619D01*
X214966666Y-99162619D02*
X215061904Y-99162619D01*
X215061904Y-99162619D02*
X215204761Y-99115000D01*
X215204761Y-99115000D02*
X215299999Y-99019761D01*
X215299999Y-99019761D02*
X215347618Y-98924523D01*
X215347618Y-98924523D02*
X215395237Y-98734047D01*
X215395237Y-98734047D02*
X215395237Y-98591190D01*
X215395237Y-98591190D02*
X215347618Y-98400714D01*
X215347618Y-98400714D02*
X215299999Y-98305476D01*
X215299999Y-98305476D02*
X215204761Y-98210238D01*
X215204761Y-98210238D02*
X215061904Y-98162619D01*
X215061904Y-98162619D02*
X214966666Y-98162619D01*
X214966666Y-98162619D02*
X214823809Y-98210238D01*
X214823809Y-98210238D02*
X214776190Y-98257857D01*
X213871428Y-98162619D02*
X214347618Y-98162619D01*
X214347618Y-98162619D02*
X214395237Y-98638809D01*
X214395237Y-98638809D02*
X214347618Y-98591190D01*
X214347618Y-98591190D02*
X214252380Y-98543571D01*
X214252380Y-98543571D02*
X214014285Y-98543571D01*
X214014285Y-98543571D02*
X213919047Y-98591190D01*
X213919047Y-98591190D02*
X213871428Y-98638809D01*
X213871428Y-98638809D02*
X213823809Y-98734047D01*
X213823809Y-98734047D02*
X213823809Y-98972142D01*
X213823809Y-98972142D02*
X213871428Y-99067380D01*
X213871428Y-99067380D02*
X213919047Y-99115000D01*
X213919047Y-99115000D02*
X214014285Y-99162619D01*
X214014285Y-99162619D02*
X214252380Y-99162619D01*
X214252380Y-99162619D02*
X214347618Y-99115000D01*
X214347618Y-99115000D02*
X214395237Y-99067380D01*
X154455756Y-30132839D02*
X154122423Y-30132839D01*
X153979566Y-30656649D02*
X154455756Y-30656649D01*
X154455756Y-30656649D02*
X154455756Y-29656649D01*
X154455756Y-29656649D02*
X153979566Y-29656649D01*
X153646232Y-29656649D02*
X152979566Y-30656649D01*
X152979566Y-29656649D02*
X153646232Y-30656649D01*
X152741470Y-29656649D02*
X152170042Y-29656649D01*
X152455756Y-30656649D02*
X152455756Y-29656649D01*
X152074804Y-30751887D02*
X151312899Y-30751887D01*
X150503375Y-30656649D02*
X150836708Y-30180458D01*
X151074803Y-30656649D02*
X151074803Y-29656649D01*
X151074803Y-29656649D02*
X150693851Y-29656649D01*
X150693851Y-29656649D02*
X150598613Y-29704268D01*
X150598613Y-29704268D02*
X150550994Y-29751887D01*
X150550994Y-29751887D02*
X150503375Y-29847125D01*
X150503375Y-29847125D02*
X150503375Y-29989982D01*
X150503375Y-29989982D02*
X150550994Y-30085220D01*
X150550994Y-30085220D02*
X150598613Y-30132839D01*
X150598613Y-30132839D02*
X150693851Y-30180458D01*
X150693851Y-30180458D02*
X151074803Y-30180458D01*
X149598613Y-29656649D02*
X150074803Y-29656649D01*
X150074803Y-29656649D02*
X150122422Y-30132839D01*
X150122422Y-30132839D02*
X150074803Y-30085220D01*
X150074803Y-30085220D02*
X149979565Y-30037601D01*
X149979565Y-30037601D02*
X149741470Y-30037601D01*
X149741470Y-30037601D02*
X149646232Y-30085220D01*
X149646232Y-30085220D02*
X149598613Y-30132839D01*
X149598613Y-30132839D02*
X149550994Y-30228077D01*
X149550994Y-30228077D02*
X149550994Y-30466172D01*
X149550994Y-30466172D02*
X149598613Y-30561410D01*
X149598613Y-30561410D02*
X149646232Y-30609030D01*
X149646232Y-30609030D02*
X149741470Y-30656649D01*
X149741470Y-30656649D02*
X149979565Y-30656649D01*
X149979565Y-30656649D02*
X150074803Y-30609030D01*
X150074803Y-30609030D02*
X150122422Y-30561410D01*
D14*
X27103077Y-23709714D02*
X27103077Y-23209714D01*
X27103077Y-23209714D02*
X26984029Y-23209714D01*
X26984029Y-23209714D02*
X26912601Y-23233524D01*
X26912601Y-23233524D02*
X26864982Y-23281143D01*
X26864982Y-23281143D02*
X26841172Y-23328762D01*
X26841172Y-23328762D02*
X26817363Y-23424000D01*
X26817363Y-23424000D02*
X26817363Y-23495428D01*
X26817363Y-23495428D02*
X26841172Y-23590666D01*
X26841172Y-23590666D02*
X26864982Y-23638285D01*
X26864982Y-23638285D02*
X26912601Y-23685905D01*
X26912601Y-23685905D02*
X26984029Y-23709714D01*
X26984029Y-23709714D02*
X27103077Y-23709714D01*
X26579267Y-23709714D02*
X26484029Y-23709714D01*
X26484029Y-23709714D02*
X26436410Y-23685905D01*
X26436410Y-23685905D02*
X26412601Y-23662095D01*
X26412601Y-23662095D02*
X26364982Y-23590666D01*
X26364982Y-23590666D02*
X26341172Y-23495428D01*
X26341172Y-23495428D02*
X26341172Y-23304952D01*
X26341172Y-23304952D02*
X26364982Y-23257333D01*
X26364982Y-23257333D02*
X26388791Y-23233524D01*
X26388791Y-23233524D02*
X26436410Y-23209714D01*
X26436410Y-23209714D02*
X26531648Y-23209714D01*
X26531648Y-23209714D02*
X26579267Y-23233524D01*
X26579267Y-23233524D02*
X26603077Y-23257333D01*
X26603077Y-23257333D02*
X26626886Y-23304952D01*
X26626886Y-23304952D02*
X26626886Y-23424000D01*
X26626886Y-23424000D02*
X26603077Y-23471619D01*
X26603077Y-23471619D02*
X26579267Y-23495428D01*
X26579267Y-23495428D02*
X26531648Y-23519238D01*
X26531648Y-23519238D02*
X26436410Y-23519238D01*
X26436410Y-23519238D02*
X26388791Y-23495428D01*
X26388791Y-23495428D02*
X26364982Y-23471619D01*
X26364982Y-23471619D02*
X26341172Y-23424000D01*
X26103077Y-23709714D02*
X26007839Y-23709714D01*
X26007839Y-23709714D02*
X25960220Y-23685905D01*
X25960220Y-23685905D02*
X25936411Y-23662095D01*
X25936411Y-23662095D02*
X25888792Y-23590666D01*
X25888792Y-23590666D02*
X25864982Y-23495428D01*
X25864982Y-23495428D02*
X25864982Y-23304952D01*
X25864982Y-23304952D02*
X25888792Y-23257333D01*
X25888792Y-23257333D02*
X25912601Y-23233524D01*
X25912601Y-23233524D02*
X25960220Y-23209714D01*
X25960220Y-23209714D02*
X26055458Y-23209714D01*
X26055458Y-23209714D02*
X26103077Y-23233524D01*
X26103077Y-23233524D02*
X26126887Y-23257333D01*
X26126887Y-23257333D02*
X26150696Y-23304952D01*
X26150696Y-23304952D02*
X26150696Y-23424000D01*
X26150696Y-23424000D02*
X26126887Y-23471619D01*
X26126887Y-23471619D02*
X26103077Y-23495428D01*
X26103077Y-23495428D02*
X26055458Y-23519238D01*
X26055458Y-23519238D02*
X25960220Y-23519238D01*
X25960220Y-23519238D02*
X25912601Y-23495428D01*
X25912601Y-23495428D02*
X25888792Y-23471619D01*
X25888792Y-23471619D02*
X25864982Y-23424000D01*
D11*
X46558554Y-64916499D02*
X46082363Y-64583166D01*
X46558554Y-64345071D02*
X45558554Y-64345071D01*
X45558554Y-64345071D02*
X45558554Y-64726023D01*
X45558554Y-64726023D02*
X45606173Y-64821261D01*
X45606173Y-64821261D02*
X45653792Y-64868880D01*
X45653792Y-64868880D02*
X45749030Y-64916499D01*
X45749030Y-64916499D02*
X45891887Y-64916499D01*
X45891887Y-64916499D02*
X45987125Y-64868880D01*
X45987125Y-64868880D02*
X46034744Y-64821261D01*
X46034744Y-64821261D02*
X46082363Y-64726023D01*
X46082363Y-64726023D02*
X46082363Y-64345071D01*
X46510935Y-65726023D02*
X46558554Y-65630785D01*
X46558554Y-65630785D02*
X46558554Y-65440309D01*
X46558554Y-65440309D02*
X46510935Y-65345071D01*
X46510935Y-65345071D02*
X46415696Y-65297452D01*
X46415696Y-65297452D02*
X46034744Y-65297452D01*
X46034744Y-65297452D02*
X45939506Y-65345071D01*
X45939506Y-65345071D02*
X45891887Y-65440309D01*
X45891887Y-65440309D02*
X45891887Y-65630785D01*
X45891887Y-65630785D02*
X45939506Y-65726023D01*
X45939506Y-65726023D02*
X46034744Y-65773642D01*
X46034744Y-65773642D02*
X46129982Y-65773642D01*
X46129982Y-65773642D02*
X46225220Y-65297452D01*
X46510935Y-66154595D02*
X46558554Y-66249833D01*
X46558554Y-66249833D02*
X46558554Y-66440309D01*
X46558554Y-66440309D02*
X46510935Y-66535547D01*
X46510935Y-66535547D02*
X46415696Y-66583166D01*
X46415696Y-66583166D02*
X46368077Y-66583166D01*
X46368077Y-66583166D02*
X46272839Y-66535547D01*
X46272839Y-66535547D02*
X46225220Y-66440309D01*
X46225220Y-66440309D02*
X46225220Y-66297452D01*
X46225220Y-66297452D02*
X46177601Y-66202214D01*
X46177601Y-66202214D02*
X46082363Y-66154595D01*
X46082363Y-66154595D02*
X46034744Y-66154595D01*
X46034744Y-66154595D02*
X45939506Y-66202214D01*
X45939506Y-66202214D02*
X45891887Y-66297452D01*
X45891887Y-66297452D02*
X45891887Y-66440309D01*
X45891887Y-66440309D02*
X45939506Y-66535547D01*
X46510935Y-67392690D02*
X46558554Y-67297452D01*
X46558554Y-67297452D02*
X46558554Y-67106976D01*
X46558554Y-67106976D02*
X46510935Y-67011738D01*
X46510935Y-67011738D02*
X46415696Y-66964119D01*
X46415696Y-66964119D02*
X46034744Y-66964119D01*
X46034744Y-66964119D02*
X45939506Y-67011738D01*
X45939506Y-67011738D02*
X45891887Y-67106976D01*
X45891887Y-67106976D02*
X45891887Y-67297452D01*
X45891887Y-67297452D02*
X45939506Y-67392690D01*
X45939506Y-67392690D02*
X46034744Y-67440309D01*
X46034744Y-67440309D02*
X46129982Y-67440309D01*
X46129982Y-67440309D02*
X46225220Y-66964119D01*
X45891887Y-67726024D02*
X45891887Y-68106976D01*
X45558554Y-67868881D02*
X46415696Y-67868881D01*
X46415696Y-67868881D02*
X46510935Y-67916500D01*
X46510935Y-67916500D02*
X46558554Y-68011738D01*
X46558554Y-68011738D02*
X46558554Y-68106976D01*
X46510935Y-68392691D02*
X46558554Y-68535548D01*
X46558554Y-68535548D02*
X46558554Y-68773643D01*
X46558554Y-68773643D02*
X46510935Y-68868881D01*
X46510935Y-68868881D02*
X46463315Y-68916500D01*
X46463315Y-68916500D02*
X46368077Y-68964119D01*
X46368077Y-68964119D02*
X46272839Y-68964119D01*
X46272839Y-68964119D02*
X46177601Y-68916500D01*
X46177601Y-68916500D02*
X46129982Y-68868881D01*
X46129982Y-68868881D02*
X46082363Y-68773643D01*
X46082363Y-68773643D02*
X46034744Y-68583167D01*
X46034744Y-68583167D02*
X45987125Y-68487929D01*
X45987125Y-68487929D02*
X45939506Y-68440310D01*
X45939506Y-68440310D02*
X45844268Y-68392691D01*
X45844268Y-68392691D02*
X45749030Y-68392691D01*
X45749030Y-68392691D02*
X45653792Y-68440310D01*
X45653792Y-68440310D02*
X45606173Y-68487929D01*
X45606173Y-68487929D02*
X45558554Y-68583167D01*
X45558554Y-68583167D02*
X45558554Y-68821262D01*
X45558554Y-68821262D02*
X45606173Y-68964119D01*
X45558554Y-69297453D02*
X46558554Y-69535548D01*
X46558554Y-69535548D02*
X45844268Y-69726024D01*
X45844268Y-69726024D02*
X46558554Y-69916500D01*
X46558554Y-69916500D02*
X45558554Y-70154596D01*
X46558554Y-71059357D02*
X46558554Y-70487929D01*
X46558554Y-70773643D02*
X45558554Y-70773643D01*
X45558554Y-70773643D02*
X45701411Y-70678405D01*
X45701411Y-70678405D02*
X45796649Y-70583167D01*
X45796649Y-70583167D02*
X45844268Y-70487929D01*
X39208594Y-63536859D02*
X38732403Y-63203526D01*
X39208594Y-62965431D02*
X38208594Y-62965431D01*
X38208594Y-62965431D02*
X38208594Y-63346383D01*
X38208594Y-63346383D02*
X38256213Y-63441621D01*
X38256213Y-63441621D02*
X38303832Y-63489240D01*
X38303832Y-63489240D02*
X38399070Y-63536859D01*
X38399070Y-63536859D02*
X38541927Y-63536859D01*
X38541927Y-63536859D02*
X38637165Y-63489240D01*
X38637165Y-63489240D02*
X38684784Y-63441621D01*
X38684784Y-63441621D02*
X38732403Y-63346383D01*
X38732403Y-63346383D02*
X38732403Y-62965431D01*
X39160975Y-64346383D02*
X39208594Y-64251145D01*
X39208594Y-64251145D02*
X39208594Y-64060669D01*
X39208594Y-64060669D02*
X39160975Y-63965431D01*
X39160975Y-63965431D02*
X39065736Y-63917812D01*
X39065736Y-63917812D02*
X38684784Y-63917812D01*
X38684784Y-63917812D02*
X38589546Y-63965431D01*
X38589546Y-63965431D02*
X38541927Y-64060669D01*
X38541927Y-64060669D02*
X38541927Y-64251145D01*
X38541927Y-64251145D02*
X38589546Y-64346383D01*
X38589546Y-64346383D02*
X38684784Y-64394002D01*
X38684784Y-64394002D02*
X38780022Y-64394002D01*
X38780022Y-64394002D02*
X38875260Y-63917812D01*
X39160975Y-64774955D02*
X39208594Y-64870193D01*
X39208594Y-64870193D02*
X39208594Y-65060669D01*
X39208594Y-65060669D02*
X39160975Y-65155907D01*
X39160975Y-65155907D02*
X39065736Y-65203526D01*
X39065736Y-65203526D02*
X39018117Y-65203526D01*
X39018117Y-65203526D02*
X38922879Y-65155907D01*
X38922879Y-65155907D02*
X38875260Y-65060669D01*
X38875260Y-65060669D02*
X38875260Y-64917812D01*
X38875260Y-64917812D02*
X38827641Y-64822574D01*
X38827641Y-64822574D02*
X38732403Y-64774955D01*
X38732403Y-64774955D02*
X38684784Y-64774955D01*
X38684784Y-64774955D02*
X38589546Y-64822574D01*
X38589546Y-64822574D02*
X38541927Y-64917812D01*
X38541927Y-64917812D02*
X38541927Y-65060669D01*
X38541927Y-65060669D02*
X38589546Y-65155907D01*
X39160975Y-66013050D02*
X39208594Y-65917812D01*
X39208594Y-65917812D02*
X39208594Y-65727336D01*
X39208594Y-65727336D02*
X39160975Y-65632098D01*
X39160975Y-65632098D02*
X39065736Y-65584479D01*
X39065736Y-65584479D02*
X38684784Y-65584479D01*
X38684784Y-65584479D02*
X38589546Y-65632098D01*
X38589546Y-65632098D02*
X38541927Y-65727336D01*
X38541927Y-65727336D02*
X38541927Y-65917812D01*
X38541927Y-65917812D02*
X38589546Y-66013050D01*
X38589546Y-66013050D02*
X38684784Y-66060669D01*
X38684784Y-66060669D02*
X38780022Y-66060669D01*
X38780022Y-66060669D02*
X38875260Y-65584479D01*
X38541927Y-66346384D02*
X38541927Y-66727336D01*
X38208594Y-66489241D02*
X39065736Y-66489241D01*
X39065736Y-66489241D02*
X39160975Y-66536860D01*
X39160975Y-66536860D02*
X39208594Y-66632098D01*
X39208594Y-66632098D02*
X39208594Y-66727336D01*
X39160975Y-67013051D02*
X39208594Y-67155908D01*
X39208594Y-67155908D02*
X39208594Y-67394003D01*
X39208594Y-67394003D02*
X39160975Y-67489241D01*
X39160975Y-67489241D02*
X39113355Y-67536860D01*
X39113355Y-67536860D02*
X39018117Y-67584479D01*
X39018117Y-67584479D02*
X38922879Y-67584479D01*
X38922879Y-67584479D02*
X38827641Y-67536860D01*
X38827641Y-67536860D02*
X38780022Y-67489241D01*
X38780022Y-67489241D02*
X38732403Y-67394003D01*
X38732403Y-67394003D02*
X38684784Y-67203527D01*
X38684784Y-67203527D02*
X38637165Y-67108289D01*
X38637165Y-67108289D02*
X38589546Y-67060670D01*
X38589546Y-67060670D02*
X38494308Y-67013051D01*
X38494308Y-67013051D02*
X38399070Y-67013051D01*
X38399070Y-67013051D02*
X38303832Y-67060670D01*
X38303832Y-67060670D02*
X38256213Y-67108289D01*
X38256213Y-67108289D02*
X38208594Y-67203527D01*
X38208594Y-67203527D02*
X38208594Y-67441622D01*
X38208594Y-67441622D02*
X38256213Y-67584479D01*
X38208594Y-67917813D02*
X39208594Y-68155908D01*
X39208594Y-68155908D02*
X38494308Y-68346384D01*
X38494308Y-68346384D02*
X39208594Y-68536860D01*
X39208594Y-68536860D02*
X38208594Y-68774956D01*
X39208594Y-69679717D02*
X39208594Y-69108289D01*
X39208594Y-69394003D02*
X38208594Y-69394003D01*
X38208594Y-69394003D02*
X38351451Y-69298765D01*
X38351451Y-69298765D02*
X38446689Y-69203527D01*
X38446689Y-69203527D02*
X38494308Y-69108289D01*
D10*
X45036534Y-39150890D02*
X45322744Y-39100383D01*
X45238565Y-39352921D02*
X45592118Y-38999368D01*
X45592118Y-38999368D02*
X45457431Y-38864681D01*
X45457431Y-38864681D02*
X45406924Y-38847845D01*
X45406924Y-38847845D02*
X45373252Y-38847845D01*
X45373252Y-38847845D02*
X45322744Y-38864681D01*
X45322744Y-38864681D02*
X45272237Y-38915188D01*
X45272237Y-38915188D02*
X45255401Y-38965696D01*
X45255401Y-38965696D02*
X45255401Y-38999368D01*
X45255401Y-38999368D02*
X45272237Y-39049875D01*
X45272237Y-39049875D02*
X45406924Y-39184562D01*
X45070206Y-38477455D02*
X45238565Y-38645814D01*
X45238565Y-38645814D02*
X45087042Y-38831009D01*
X45087042Y-38831009D02*
X45087042Y-38797337D01*
X45087042Y-38797337D02*
X45070206Y-38746829D01*
X45070206Y-38746829D02*
X44986027Y-38662650D01*
X44986027Y-38662650D02*
X44935519Y-38645814D01*
X44935519Y-38645814D02*
X44901847Y-38645814D01*
X44901847Y-38645814D02*
X44851340Y-38662650D01*
X44851340Y-38662650D02*
X44767160Y-38746829D01*
X44767160Y-38746829D02*
X44750324Y-38797337D01*
X44750324Y-38797337D02*
X44750324Y-38831009D01*
X44750324Y-38831009D02*
X44767160Y-38881516D01*
X44767160Y-38881516D02*
X44851340Y-38965696D01*
X44851340Y-38965696D02*
X44901847Y-38982532D01*
X44901847Y-38982532D02*
X44935519Y-38982532D01*
X66556420Y-37855167D02*
X66505913Y-37568957D01*
X66758451Y-37653136D02*
X66404898Y-37299583D01*
X66404898Y-37299583D02*
X66270211Y-37434270D01*
X66270211Y-37434270D02*
X66253375Y-37484777D01*
X66253375Y-37484777D02*
X66253375Y-37518449D01*
X66253375Y-37518449D02*
X66270211Y-37568957D01*
X66270211Y-37568957D02*
X66320718Y-37619464D01*
X66320718Y-37619464D02*
X66371226Y-37636300D01*
X66371226Y-37636300D02*
X66404898Y-37636300D01*
X66404898Y-37636300D02*
X66455405Y-37619464D01*
X66455405Y-37619464D02*
X66590092Y-37484777D01*
X65899821Y-37804659D02*
X65967165Y-37737316D01*
X65967165Y-37737316D02*
X66017672Y-37720480D01*
X66017672Y-37720480D02*
X66051344Y-37720480D01*
X66051344Y-37720480D02*
X66135524Y-37737316D01*
X66135524Y-37737316D02*
X66219703Y-37787823D01*
X66219703Y-37787823D02*
X66354390Y-37922510D01*
X66354390Y-37922510D02*
X66371226Y-37973018D01*
X66371226Y-37973018D02*
X66371226Y-38006690D01*
X66371226Y-38006690D02*
X66354390Y-38057197D01*
X66354390Y-38057197D02*
X66287046Y-38124541D01*
X66287046Y-38124541D02*
X66236539Y-38141377D01*
X66236539Y-38141377D02*
X66202867Y-38141377D01*
X66202867Y-38141377D02*
X66152359Y-38124541D01*
X66152359Y-38124541D02*
X66068180Y-38040361D01*
X66068180Y-38040361D02*
X66051344Y-37989854D01*
X66051344Y-37989854D02*
X66051344Y-37956182D01*
X66051344Y-37956182D02*
X66068180Y-37905674D01*
X66068180Y-37905674D02*
X66135524Y-37838331D01*
X66135524Y-37838331D02*
X66186031Y-37821495D01*
X66186031Y-37821495D02*
X66219703Y-37821495D01*
X66219703Y-37821495D02*
X66270211Y-37838331D01*
X52435846Y-25096471D02*
X52435846Y-25130142D01*
X52435846Y-25130142D02*
X52469518Y-25197486D01*
X52469518Y-25197486D02*
X52503190Y-25231158D01*
X52503190Y-25231158D02*
X52570533Y-25264829D01*
X52570533Y-25264829D02*
X52637877Y-25264829D01*
X52637877Y-25264829D02*
X52688384Y-25247994D01*
X52688384Y-25247994D02*
X52772564Y-25197486D01*
X52772564Y-25197486D02*
X52823071Y-25146978D01*
X52823071Y-25146978D02*
X52873579Y-25062799D01*
X52873579Y-25062799D02*
X52890415Y-25012291D01*
X52890415Y-25012291D02*
X52890415Y-24944948D01*
X52890415Y-24944948D02*
X52856743Y-24877604D01*
X52856743Y-24877604D02*
X52823071Y-24843933D01*
X52823071Y-24843933D02*
X52755728Y-24810261D01*
X52755728Y-24810261D02*
X52722056Y-24810261D01*
X52587369Y-24675574D02*
X52587369Y-24641902D01*
X52587369Y-24641902D02*
X52570533Y-24591394D01*
X52570533Y-24591394D02*
X52486354Y-24507215D01*
X52486354Y-24507215D02*
X52435846Y-24490379D01*
X52435846Y-24490379D02*
X52402174Y-24490379D01*
X52402174Y-24490379D02*
X52351667Y-24507215D01*
X52351667Y-24507215D02*
X52317995Y-24540887D01*
X52317995Y-24540887D02*
X52284323Y-24608230D01*
X52284323Y-24608230D02*
X52284323Y-25012291D01*
X52284323Y-25012291D02*
X52065457Y-24793425D01*
D11*
X284233881Y-98760964D02*
X283900548Y-98760964D01*
X283757691Y-99284774D02*
X284233881Y-99284774D01*
X284233881Y-99284774D02*
X284233881Y-98284774D01*
X284233881Y-98284774D02*
X283757691Y-98284774D01*
X283424357Y-98284774D02*
X282757691Y-99284774D01*
X282757691Y-98284774D02*
X283424357Y-99284774D01*
X282519595Y-98284774D02*
X281948167Y-98284774D01*
X282233881Y-99284774D02*
X282233881Y-98284774D01*
X281852929Y-99380012D02*
X281091024Y-99380012D01*
X280281500Y-99189535D02*
X280329119Y-99237155D01*
X280329119Y-99237155D02*
X280471976Y-99284774D01*
X280471976Y-99284774D02*
X280567214Y-99284774D01*
X280567214Y-99284774D02*
X280710071Y-99237155D01*
X280710071Y-99237155D02*
X280805309Y-99141916D01*
X280805309Y-99141916D02*
X280852928Y-99046678D01*
X280852928Y-99046678D02*
X280900547Y-98856202D01*
X280900547Y-98856202D02*
X280900547Y-98713345D01*
X280900547Y-98713345D02*
X280852928Y-98522869D01*
X280852928Y-98522869D02*
X280805309Y-98427631D01*
X280805309Y-98427631D02*
X280710071Y-98332393D01*
X280710071Y-98332393D02*
X280567214Y-98284774D01*
X280567214Y-98284774D02*
X280471976Y-98284774D01*
X280471976Y-98284774D02*
X280329119Y-98332393D01*
X280329119Y-98332393D02*
X280281500Y-98380012D01*
X279948166Y-98284774D02*
X279281500Y-98284774D01*
X279281500Y-98284774D02*
X279710071Y-99284774D01*
X31821381Y-91617214D02*
X31488048Y-91617214D01*
X31345191Y-92141024D02*
X31821381Y-92141024D01*
X31821381Y-92141024D02*
X31821381Y-91141024D01*
X31821381Y-91141024D02*
X31345191Y-91141024D01*
X31011857Y-91141024D02*
X30345191Y-92141024D01*
X30345191Y-91141024D02*
X31011857Y-92141024D01*
X30107095Y-91141024D02*
X29535667Y-91141024D01*
X29821381Y-92141024D02*
X29821381Y-91141024D01*
X29440429Y-92236262D02*
X28678524Y-92236262D01*
X27869000Y-92141024D02*
X28202333Y-91664833D01*
X28440428Y-92141024D02*
X28440428Y-91141024D01*
X28440428Y-91141024D02*
X28059476Y-91141024D01*
X28059476Y-91141024D02*
X27964238Y-91188643D01*
X27964238Y-91188643D02*
X27916619Y-91236262D01*
X27916619Y-91236262D02*
X27869000Y-91331500D01*
X27869000Y-91331500D02*
X27869000Y-91474357D01*
X27869000Y-91474357D02*
X27916619Y-91569595D01*
X27916619Y-91569595D02*
X27964238Y-91617214D01*
X27964238Y-91617214D02*
X28059476Y-91664833D01*
X28059476Y-91664833D02*
X28440428Y-91664833D01*
X27392809Y-92141024D02*
X27202333Y-92141024D01*
X27202333Y-92141024D02*
X27107095Y-92093405D01*
X27107095Y-92093405D02*
X27059476Y-92045785D01*
X27059476Y-92045785D02*
X26964238Y-91902928D01*
X26964238Y-91902928D02*
X26916619Y-91712452D01*
X26916619Y-91712452D02*
X26916619Y-91331500D01*
X26916619Y-91331500D02*
X26964238Y-91236262D01*
X26964238Y-91236262D02*
X27011857Y-91188643D01*
X27011857Y-91188643D02*
X27107095Y-91141024D01*
X27107095Y-91141024D02*
X27297571Y-91141024D01*
X27297571Y-91141024D02*
X27392809Y-91188643D01*
X27392809Y-91188643D02*
X27440428Y-91236262D01*
X27440428Y-91236262D02*
X27488047Y-91331500D01*
X27488047Y-91331500D02*
X27488047Y-91569595D01*
X27488047Y-91569595D02*
X27440428Y-91664833D01*
X27440428Y-91664833D02*
X27392809Y-91712452D01*
X27392809Y-91712452D02*
X27297571Y-91760071D01*
X27297571Y-91760071D02*
X27107095Y-91760071D01*
X27107095Y-91760071D02*
X27011857Y-91712452D01*
X27011857Y-91712452D02*
X26964238Y-91664833D01*
X26964238Y-91664833D02*
X26916619Y-91569595D01*
X34924506Y-95617214D02*
X34591173Y-95617214D01*
X34448316Y-96141024D02*
X34924506Y-96141024D01*
X34924506Y-96141024D02*
X34924506Y-95141024D01*
X34924506Y-95141024D02*
X34448316Y-95141024D01*
X34114982Y-95141024D02*
X33448316Y-96141024D01*
X33448316Y-95141024D02*
X34114982Y-96141024D01*
X33210220Y-95141024D02*
X32638792Y-95141024D01*
X32924506Y-96141024D02*
X32924506Y-95141024D01*
X32543554Y-96236262D02*
X31781649Y-96236262D01*
X30972125Y-96141024D02*
X31305458Y-95664833D01*
X31543553Y-96141024D02*
X31543553Y-95141024D01*
X31543553Y-95141024D02*
X31162601Y-95141024D01*
X31162601Y-95141024D02*
X31067363Y-95188643D01*
X31067363Y-95188643D02*
X31019744Y-95236262D01*
X31019744Y-95236262D02*
X30972125Y-95331500D01*
X30972125Y-95331500D02*
X30972125Y-95474357D01*
X30972125Y-95474357D02*
X31019744Y-95569595D01*
X31019744Y-95569595D02*
X31067363Y-95617214D01*
X31067363Y-95617214D02*
X31162601Y-95664833D01*
X31162601Y-95664833D02*
X31543553Y-95664833D01*
X30114982Y-95474357D02*
X30114982Y-96141024D01*
X30353077Y-95093405D02*
X30591172Y-95807690D01*
X30591172Y-95807690D02*
X29972125Y-95807690D01*
X150883881Y-30132839D02*
X150550548Y-30132839D01*
X150407691Y-30656649D02*
X150883881Y-30656649D01*
X150883881Y-30656649D02*
X150883881Y-29656649D01*
X150883881Y-29656649D02*
X150407691Y-29656649D01*
X150074357Y-29656649D02*
X149407691Y-30656649D01*
X149407691Y-29656649D02*
X150074357Y-30656649D01*
X149169595Y-29656649D02*
X148598167Y-29656649D01*
X148883881Y-30656649D02*
X148883881Y-29656649D01*
X148502929Y-30751887D02*
X147741024Y-30751887D01*
X146931500Y-30656649D02*
X147264833Y-30180458D01*
X147502928Y-30656649D02*
X147502928Y-29656649D01*
X147502928Y-29656649D02*
X147121976Y-29656649D01*
X147121976Y-29656649D02*
X147026738Y-29704268D01*
X147026738Y-29704268D02*
X146979119Y-29751887D01*
X146979119Y-29751887D02*
X146931500Y-29847125D01*
X146931500Y-29847125D02*
X146931500Y-29989982D01*
X146931500Y-29989982D02*
X146979119Y-30085220D01*
X146979119Y-30085220D02*
X147026738Y-30132839D01*
X147026738Y-30132839D02*
X147121976Y-30180458D01*
X147121976Y-30180458D02*
X147502928Y-30180458D01*
X146074357Y-29656649D02*
X146264833Y-29656649D01*
X146264833Y-29656649D02*
X146360071Y-29704268D01*
X146360071Y-29704268D02*
X146407690Y-29751887D01*
X146407690Y-29751887D02*
X146502928Y-29894744D01*
X146502928Y-29894744D02*
X146550547Y-30085220D01*
X146550547Y-30085220D02*
X146550547Y-30466172D01*
X146550547Y-30466172D02*
X146502928Y-30561410D01*
X146502928Y-30561410D02*
X146455309Y-30609030D01*
X146455309Y-30609030D02*
X146360071Y-30656649D01*
X146360071Y-30656649D02*
X146169595Y-30656649D01*
X146169595Y-30656649D02*
X146074357Y-30609030D01*
X146074357Y-30609030D02*
X146026738Y-30561410D01*
X146026738Y-30561410D02*
X145979119Y-30466172D01*
X145979119Y-30466172D02*
X145979119Y-30228077D01*
X145979119Y-30228077D02*
X146026738Y-30132839D01*
X146026738Y-30132839D02*
X146074357Y-30085220D01*
X146074357Y-30085220D02*
X146169595Y-30037601D01*
X146169595Y-30037601D02*
X146360071Y-30037601D01*
X146360071Y-30037601D02*
X146455309Y-30085220D01*
X146455309Y-30085220D02*
X146502928Y-30132839D01*
X146502928Y-30132839D02*
X146550547Y-30228077D01*
X147312006Y-26132839D02*
X146978673Y-26132839D01*
X146835816Y-26656649D02*
X147312006Y-26656649D01*
X147312006Y-26656649D02*
X147312006Y-25656649D01*
X147312006Y-25656649D02*
X146835816Y-25656649D01*
X146502482Y-25656649D02*
X145835816Y-26656649D01*
X145835816Y-25656649D02*
X146502482Y-26656649D01*
X145597720Y-25656649D02*
X145026292Y-25656649D01*
X145312006Y-26656649D02*
X145312006Y-25656649D01*
X144931054Y-26751887D02*
X144169149Y-26751887D01*
X143359625Y-26656649D02*
X143692958Y-26180458D01*
X143931053Y-26656649D02*
X143931053Y-25656649D01*
X143931053Y-25656649D02*
X143550101Y-25656649D01*
X143550101Y-25656649D02*
X143454863Y-25704268D01*
X143454863Y-25704268D02*
X143407244Y-25751887D01*
X143407244Y-25751887D02*
X143359625Y-25847125D01*
X143359625Y-25847125D02*
X143359625Y-25989982D01*
X143359625Y-25989982D02*
X143407244Y-26085220D01*
X143407244Y-26085220D02*
X143454863Y-26132839D01*
X143454863Y-26132839D02*
X143550101Y-26180458D01*
X143550101Y-26180458D02*
X143931053Y-26180458D01*
X142407244Y-26656649D02*
X142978672Y-26656649D01*
X142692958Y-26656649D02*
X142692958Y-25656649D01*
X142692958Y-25656649D02*
X142788196Y-25799506D01*
X142788196Y-25799506D02*
X142883434Y-25894744D01*
X142883434Y-25894744D02*
X142978672Y-25942363D01*
X33012006Y-58707839D02*
X32678673Y-58707839D01*
X32535816Y-59231649D02*
X33012006Y-59231649D01*
X33012006Y-59231649D02*
X33012006Y-58231649D01*
X33012006Y-58231649D02*
X32535816Y-58231649D01*
X32202482Y-58231649D02*
X31535816Y-59231649D01*
X31535816Y-58231649D02*
X32202482Y-59231649D01*
X31297720Y-58231649D02*
X30726292Y-58231649D01*
X31012006Y-59231649D02*
X31012006Y-58231649D01*
X30631054Y-59326887D02*
X29869149Y-59326887D01*
X29059625Y-59231649D02*
X29392958Y-58755458D01*
X29631053Y-59231649D02*
X29631053Y-58231649D01*
X29631053Y-58231649D02*
X29250101Y-58231649D01*
X29250101Y-58231649D02*
X29154863Y-58279268D01*
X29154863Y-58279268D02*
X29107244Y-58326887D01*
X29107244Y-58326887D02*
X29059625Y-58422125D01*
X29059625Y-58422125D02*
X29059625Y-58564982D01*
X29059625Y-58564982D02*
X29107244Y-58660220D01*
X29107244Y-58660220D02*
X29154863Y-58707839D01*
X29154863Y-58707839D02*
X29250101Y-58755458D01*
X29250101Y-58755458D02*
X29631053Y-58755458D01*
X28726291Y-58231649D02*
X28059625Y-58231649D01*
X28059625Y-58231649D02*
X28488196Y-59231649D01*
X93242601Y-26953021D02*
X93242601Y-27746355D01*
X93242601Y-27746355D02*
X93195935Y-27839688D01*
X93195935Y-27839688D02*
X93149268Y-27886355D01*
X93149268Y-27886355D02*
X93055935Y-27933021D01*
X93055935Y-27933021D02*
X92869268Y-27933021D01*
X92869268Y-27933021D02*
X92775935Y-27886355D01*
X92775935Y-27886355D02*
X92729268Y-27839688D01*
X92729268Y-27839688D02*
X92682601Y-27746355D01*
X92682601Y-27746355D02*
X92682601Y-26953021D01*
X92262601Y-27046355D02*
X92215934Y-26999688D01*
X92215934Y-26999688D02*
X92122601Y-26953021D01*
X92122601Y-26953021D02*
X91889268Y-26953021D01*
X91889268Y-26953021D02*
X91795934Y-26999688D01*
X91795934Y-26999688D02*
X91749268Y-27046355D01*
X91749268Y-27046355D02*
X91702601Y-27139688D01*
X91702601Y-27139688D02*
X91702601Y-27233021D01*
X91702601Y-27233021D02*
X91749268Y-27373021D01*
X91749268Y-27373021D02*
X92309268Y-27933021D01*
X92309268Y-27933021D02*
X91702601Y-27933021D01*
D10*
X79879268Y-29615964D02*
X80045934Y-29377869D01*
X80164982Y-29615964D02*
X80164982Y-29115964D01*
X80164982Y-29115964D02*
X79974506Y-29115964D01*
X79974506Y-29115964D02*
X79926887Y-29139774D01*
X79926887Y-29139774D02*
X79903077Y-29163583D01*
X79903077Y-29163583D02*
X79879268Y-29211202D01*
X79879268Y-29211202D02*
X79879268Y-29282631D01*
X79879268Y-29282631D02*
X79903077Y-29330250D01*
X79903077Y-29330250D02*
X79926887Y-29354059D01*
X79926887Y-29354059D02*
X79974506Y-29377869D01*
X79974506Y-29377869D02*
X80164982Y-29377869D01*
X79593553Y-29330250D02*
X79641172Y-29306440D01*
X79641172Y-29306440D02*
X79664982Y-29282631D01*
X79664982Y-29282631D02*
X79688791Y-29235012D01*
X79688791Y-29235012D02*
X79688791Y-29211202D01*
X79688791Y-29211202D02*
X79664982Y-29163583D01*
X79664982Y-29163583D02*
X79641172Y-29139774D01*
X79641172Y-29139774D02*
X79593553Y-29115964D01*
X79593553Y-29115964D02*
X79498315Y-29115964D01*
X79498315Y-29115964D02*
X79450696Y-29139774D01*
X79450696Y-29139774D02*
X79426887Y-29163583D01*
X79426887Y-29163583D02*
X79403077Y-29211202D01*
X79403077Y-29211202D02*
X79403077Y-29235012D01*
X79403077Y-29235012D02*
X79426887Y-29282631D01*
X79426887Y-29282631D02*
X79450696Y-29306440D01*
X79450696Y-29306440D02*
X79498315Y-29330250D01*
X79498315Y-29330250D02*
X79593553Y-29330250D01*
X79593553Y-29330250D02*
X79641172Y-29354059D01*
X79641172Y-29354059D02*
X79664982Y-29377869D01*
X79664982Y-29377869D02*
X79688791Y-29425488D01*
X79688791Y-29425488D02*
X79688791Y-29520726D01*
X79688791Y-29520726D02*
X79664982Y-29568345D01*
X79664982Y-29568345D02*
X79641172Y-29592155D01*
X79641172Y-29592155D02*
X79593553Y-29615964D01*
X79593553Y-29615964D02*
X79498315Y-29615964D01*
X79498315Y-29615964D02*
X79450696Y-29592155D01*
X79450696Y-29592155D02*
X79426887Y-29568345D01*
X79426887Y-29568345D02*
X79403077Y-29520726D01*
X79403077Y-29520726D02*
X79403077Y-29425488D01*
X79403077Y-29425488D02*
X79426887Y-29377869D01*
X79426887Y-29377869D02*
X79450696Y-29354059D01*
X79450696Y-29354059D02*
X79498315Y-29330250D01*
X79879268Y-27234714D02*
X80045934Y-26996619D01*
X80164982Y-27234714D02*
X80164982Y-26734714D01*
X80164982Y-26734714D02*
X79974506Y-26734714D01*
X79974506Y-26734714D02*
X79926887Y-26758524D01*
X79926887Y-26758524D02*
X79903077Y-26782333D01*
X79903077Y-26782333D02*
X79879268Y-26829952D01*
X79879268Y-26829952D02*
X79879268Y-26901381D01*
X79879268Y-26901381D02*
X79903077Y-26949000D01*
X79903077Y-26949000D02*
X79926887Y-26972809D01*
X79926887Y-26972809D02*
X79974506Y-26996619D01*
X79974506Y-26996619D02*
X80164982Y-26996619D01*
X79641172Y-27234714D02*
X79545934Y-27234714D01*
X79545934Y-27234714D02*
X79498315Y-27210905D01*
X79498315Y-27210905D02*
X79474506Y-27187095D01*
X79474506Y-27187095D02*
X79426887Y-27115666D01*
X79426887Y-27115666D02*
X79403077Y-27020428D01*
X79403077Y-27020428D02*
X79403077Y-26829952D01*
X79403077Y-26829952D02*
X79426887Y-26782333D01*
X79426887Y-26782333D02*
X79450696Y-26758524D01*
X79450696Y-26758524D02*
X79498315Y-26734714D01*
X79498315Y-26734714D02*
X79593553Y-26734714D01*
X79593553Y-26734714D02*
X79641172Y-26758524D01*
X79641172Y-26758524D02*
X79664982Y-26782333D01*
X79664982Y-26782333D02*
X79688791Y-26829952D01*
X79688791Y-26829952D02*
X79688791Y-26949000D01*
X79688791Y-26949000D02*
X79664982Y-26996619D01*
X79664982Y-26996619D02*
X79641172Y-27020428D01*
X79641172Y-27020428D02*
X79593553Y-27044238D01*
X79593553Y-27044238D02*
X79498315Y-27044238D01*
X79498315Y-27044238D02*
X79450696Y-27020428D01*
X79450696Y-27020428D02*
X79426887Y-26996619D01*
X79426887Y-26996619D02*
X79403077Y-26949000D01*
D11*
X35179268Y-18990984D02*
X35179268Y-19705269D01*
X35179268Y-19705269D02*
X35226887Y-19848126D01*
X35226887Y-19848126D02*
X35322125Y-19943365D01*
X35322125Y-19943365D02*
X35464982Y-19990984D01*
X35464982Y-19990984D02*
X35560220Y-19990984D01*
X34798315Y-18990984D02*
X34131649Y-18990984D01*
X34131649Y-18990984D02*
X34560220Y-19990984D01*
D10*
X49752971Y-42733596D02*
X49752971Y-42767267D01*
X49752971Y-42767267D02*
X49786643Y-42834611D01*
X49786643Y-42834611D02*
X49820315Y-42868283D01*
X49820315Y-42868283D02*
X49887658Y-42901954D01*
X49887658Y-42901954D02*
X49955002Y-42901954D01*
X49955002Y-42901954D02*
X50005509Y-42885119D01*
X50005509Y-42885119D02*
X50089689Y-42834611D01*
X50089689Y-42834611D02*
X50140196Y-42784103D01*
X50140196Y-42784103D02*
X50190704Y-42699924D01*
X50190704Y-42699924D02*
X50207540Y-42649416D01*
X50207540Y-42649416D02*
X50207540Y-42582073D01*
X50207540Y-42582073D02*
X50173868Y-42514729D01*
X50173868Y-42514729D02*
X50140196Y-42481058D01*
X50140196Y-42481058D02*
X50072853Y-42447386D01*
X50072853Y-42447386D02*
X50039181Y-42447386D01*
X49769807Y-42110668D02*
X49837150Y-42178012D01*
X49837150Y-42178012D02*
X49853986Y-42228519D01*
X49853986Y-42228519D02*
X49853986Y-42262191D01*
X49853986Y-42262191D02*
X49837150Y-42346371D01*
X49837150Y-42346371D02*
X49786643Y-42430550D01*
X49786643Y-42430550D02*
X49651956Y-42565237D01*
X49651956Y-42565237D02*
X49601448Y-42582073D01*
X49601448Y-42582073D02*
X49567776Y-42582073D01*
X49567776Y-42582073D02*
X49517269Y-42565237D01*
X49517269Y-42565237D02*
X49449925Y-42497893D01*
X49449925Y-42497893D02*
X49433089Y-42447386D01*
X49433089Y-42447386D02*
X49433089Y-42413714D01*
X49433089Y-42413714D02*
X49449925Y-42363206D01*
X49449925Y-42363206D02*
X49534105Y-42279027D01*
X49534105Y-42279027D02*
X49584612Y-42262191D01*
X49584612Y-42262191D02*
X49618284Y-42262191D01*
X49618284Y-42262191D02*
X49668792Y-42279027D01*
X49668792Y-42279027D02*
X49736135Y-42346371D01*
X49736135Y-42346371D02*
X49752971Y-42396878D01*
X49752971Y-42396878D02*
X49752971Y-42430550D01*
X49752971Y-42430550D02*
X49736135Y-42481058D01*
X42236534Y-39300890D02*
X42522744Y-39250383D01*
X42438565Y-39502921D02*
X42792118Y-39149368D01*
X42792118Y-39149368D02*
X42657431Y-39014681D01*
X42657431Y-39014681D02*
X42606924Y-38997845D01*
X42606924Y-38997845D02*
X42573252Y-38997845D01*
X42573252Y-38997845D02*
X42522744Y-39014681D01*
X42522744Y-39014681D02*
X42472237Y-39065188D01*
X42472237Y-39065188D02*
X42455401Y-39115696D01*
X42455401Y-39115696D02*
X42455401Y-39149368D01*
X42455401Y-39149368D02*
X42472237Y-39199875D01*
X42472237Y-39199875D02*
X42606924Y-39334562D01*
X42169191Y-38762142D02*
X41933489Y-38997845D01*
X42388057Y-38711635D02*
X42219698Y-39048352D01*
X42219698Y-39048352D02*
X42000832Y-38829486D01*
D11*
X131833881Y-98760964D02*
X131500548Y-98760964D01*
X131357691Y-99284774D02*
X131833881Y-99284774D01*
X131833881Y-99284774D02*
X131833881Y-98284774D01*
X131833881Y-98284774D02*
X131357691Y-98284774D01*
X131024357Y-98284774D02*
X130357691Y-99284774D01*
X130357691Y-98284774D02*
X131024357Y-99284774D01*
X130119595Y-98284774D02*
X129548167Y-98284774D01*
X129833881Y-99284774D02*
X129833881Y-98284774D01*
X129452929Y-99380012D02*
X128691024Y-99380012D01*
X127881500Y-99189535D02*
X127929119Y-99237155D01*
X127929119Y-99237155D02*
X128071976Y-99284774D01*
X128071976Y-99284774D02*
X128167214Y-99284774D01*
X128167214Y-99284774D02*
X128310071Y-99237155D01*
X128310071Y-99237155D02*
X128405309Y-99141916D01*
X128405309Y-99141916D02*
X128452928Y-99046678D01*
X128452928Y-99046678D02*
X128500547Y-98856202D01*
X128500547Y-98856202D02*
X128500547Y-98713345D01*
X128500547Y-98713345D02*
X128452928Y-98522869D01*
X128452928Y-98522869D02*
X128405309Y-98427631D01*
X128405309Y-98427631D02*
X128310071Y-98332393D01*
X128310071Y-98332393D02*
X128167214Y-98284774D01*
X128167214Y-98284774D02*
X128071976Y-98284774D01*
X128071976Y-98284774D02*
X127929119Y-98332393D01*
X127929119Y-98332393D02*
X127881500Y-98380012D01*
X127548166Y-98284774D02*
X126929119Y-98284774D01*
X126929119Y-98284774D02*
X127262452Y-98665726D01*
X127262452Y-98665726D02*
X127119595Y-98665726D01*
X127119595Y-98665726D02*
X127024357Y-98713345D01*
X127024357Y-98713345D02*
X126976738Y-98760964D01*
X126976738Y-98760964D02*
X126929119Y-98856202D01*
X126929119Y-98856202D02*
X126929119Y-99094297D01*
X126929119Y-99094297D02*
X126976738Y-99189535D01*
X126976738Y-99189535D02*
X127024357Y-99237155D01*
X127024357Y-99237155D02*
X127119595Y-99284774D01*
X127119595Y-99284774D02*
X127405309Y-99284774D01*
X127405309Y-99284774D02*
X127500547Y-99237155D01*
X127500547Y-99237155D02*
X127548166Y-99189535D01*
X158027631Y-26132839D02*
X157694298Y-26132839D01*
X157551441Y-26656649D02*
X158027631Y-26656649D01*
X158027631Y-26656649D02*
X158027631Y-25656649D01*
X158027631Y-25656649D02*
X157551441Y-25656649D01*
X157218107Y-25656649D02*
X156551441Y-26656649D01*
X156551441Y-25656649D02*
X157218107Y-26656649D01*
X156313345Y-25656649D02*
X155741917Y-25656649D01*
X156027631Y-26656649D02*
X156027631Y-25656649D01*
X155646679Y-26751887D02*
X154884774Y-26751887D01*
X154075250Y-26656649D02*
X154408583Y-26180458D01*
X154646678Y-26656649D02*
X154646678Y-25656649D01*
X154646678Y-25656649D02*
X154265726Y-25656649D01*
X154265726Y-25656649D02*
X154170488Y-25704268D01*
X154170488Y-25704268D02*
X154122869Y-25751887D01*
X154122869Y-25751887D02*
X154075250Y-25847125D01*
X154075250Y-25847125D02*
X154075250Y-25989982D01*
X154075250Y-25989982D02*
X154122869Y-26085220D01*
X154122869Y-26085220D02*
X154170488Y-26132839D01*
X154170488Y-26132839D02*
X154265726Y-26180458D01*
X154265726Y-26180458D02*
X154646678Y-26180458D01*
X153456202Y-25656649D02*
X153360964Y-25656649D01*
X153360964Y-25656649D02*
X153265726Y-25704268D01*
X153265726Y-25704268D02*
X153218107Y-25751887D01*
X153218107Y-25751887D02*
X153170488Y-25847125D01*
X153170488Y-25847125D02*
X153122869Y-26037601D01*
X153122869Y-26037601D02*
X153122869Y-26275696D01*
X153122869Y-26275696D02*
X153170488Y-26466172D01*
X153170488Y-26466172D02*
X153218107Y-26561410D01*
X153218107Y-26561410D02*
X153265726Y-26609030D01*
X153265726Y-26609030D02*
X153360964Y-26656649D01*
X153360964Y-26656649D02*
X153456202Y-26656649D01*
X153456202Y-26656649D02*
X153551440Y-26609030D01*
X153551440Y-26609030D02*
X153599059Y-26561410D01*
X153599059Y-26561410D02*
X153646678Y-26466172D01*
X153646678Y-26466172D02*
X153694297Y-26275696D01*
X153694297Y-26275696D02*
X153694297Y-26037601D01*
X153694297Y-26037601D02*
X153646678Y-25847125D01*
X153646678Y-25847125D02*
X153599059Y-25751887D01*
X153599059Y-25751887D02*
X153551440Y-25704268D01*
X153551440Y-25704268D02*
X153456202Y-25656649D01*
X30046054Y-45228881D02*
X30760339Y-45228881D01*
X30760339Y-45228881D02*
X30903196Y-45181262D01*
X30903196Y-45181262D02*
X30998435Y-45086024D01*
X30998435Y-45086024D02*
X31046054Y-44943167D01*
X31046054Y-44943167D02*
X31046054Y-44847929D01*
X31046054Y-46228881D02*
X31046054Y-45657453D01*
X31046054Y-45943167D02*
X30046054Y-45943167D01*
X30046054Y-45943167D02*
X30188911Y-45847929D01*
X30188911Y-45847929D02*
X30284149Y-45752691D01*
X30284149Y-45752691D02*
X30331768Y-45657453D01*
X30046054Y-46847929D02*
X30046054Y-46943167D01*
X30046054Y-46943167D02*
X30093673Y-47038405D01*
X30093673Y-47038405D02*
X30141292Y-47086024D01*
X30141292Y-47086024D02*
X30236530Y-47133643D01*
X30236530Y-47133643D02*
X30427006Y-47181262D01*
X30427006Y-47181262D02*
X30665101Y-47181262D01*
X30665101Y-47181262D02*
X30855577Y-47133643D01*
X30855577Y-47133643D02*
X30950815Y-47086024D01*
X30950815Y-47086024D02*
X30998435Y-47038405D01*
X30998435Y-47038405D02*
X31046054Y-46943167D01*
X31046054Y-46943167D02*
X31046054Y-46847929D01*
X31046054Y-46847929D02*
X30998435Y-46752691D01*
X30998435Y-46752691D02*
X30950815Y-46705072D01*
X30950815Y-46705072D02*
X30855577Y-46657453D01*
X30855577Y-46657453D02*
X30665101Y-46609834D01*
X30665101Y-46609834D02*
X30427006Y-46609834D01*
X30427006Y-46609834D02*
X30236530Y-46657453D01*
X30236530Y-46657453D02*
X30141292Y-46705072D01*
X30141292Y-46705072D02*
X30093673Y-46752691D01*
X30093673Y-46752691D02*
X30046054Y-46847929D01*
X80637006Y-98760964D02*
X80303673Y-98760964D01*
X80160816Y-99284774D02*
X80637006Y-99284774D01*
X80637006Y-99284774D02*
X80637006Y-98284774D01*
X80637006Y-98284774D02*
X80160816Y-98284774D01*
X79827482Y-98284774D02*
X79160816Y-99284774D01*
X79160816Y-98284774D02*
X79827482Y-99284774D01*
X78922720Y-98284774D02*
X78351292Y-98284774D01*
X78637006Y-99284774D02*
X78637006Y-98284774D01*
X78256054Y-99380012D02*
X77494149Y-99380012D01*
X76684625Y-99189535D02*
X76732244Y-99237155D01*
X76732244Y-99237155D02*
X76875101Y-99284774D01*
X76875101Y-99284774D02*
X76970339Y-99284774D01*
X76970339Y-99284774D02*
X77113196Y-99237155D01*
X77113196Y-99237155D02*
X77208434Y-99141916D01*
X77208434Y-99141916D02*
X77256053Y-99046678D01*
X77256053Y-99046678D02*
X77303672Y-98856202D01*
X77303672Y-98856202D02*
X77303672Y-98713345D01*
X77303672Y-98713345D02*
X77256053Y-98522869D01*
X77256053Y-98522869D02*
X77208434Y-98427631D01*
X77208434Y-98427631D02*
X77113196Y-98332393D01*
X77113196Y-98332393D02*
X76970339Y-98284774D01*
X76970339Y-98284774D02*
X76875101Y-98284774D01*
X76875101Y-98284774D02*
X76732244Y-98332393D01*
X76732244Y-98332393D02*
X76684625Y-98380012D01*
X75732244Y-99284774D02*
X76303672Y-99284774D01*
X76017958Y-99284774D02*
X76017958Y-98284774D01*
X76017958Y-98284774D02*
X76113196Y-98427631D01*
X76113196Y-98427631D02*
X76208434Y-98522869D01*
X76208434Y-98522869D02*
X76303672Y-98570488D01*
X55745322Y-34164798D02*
X56317742Y-34737218D01*
X56317742Y-34737218D02*
X56351413Y-34838233D01*
X56351413Y-34838233D02*
X56351413Y-34905576D01*
X56351413Y-34905576D02*
X56317742Y-35006592D01*
X56317742Y-35006592D02*
X56183055Y-35141279D01*
X56183055Y-35141279D02*
X56082039Y-35174950D01*
X56082039Y-35174950D02*
X56014696Y-35174950D01*
X56014696Y-35174950D02*
X55913681Y-35141279D01*
X55913681Y-35141279D02*
X55341261Y-34568859D01*
X55341261Y-35983072D02*
X55745322Y-35579011D01*
X55543291Y-35781042D02*
X54836185Y-35073935D01*
X54836185Y-35073935D02*
X55004543Y-35107607D01*
X55004543Y-35107607D02*
X55139230Y-35107607D01*
X55139230Y-35107607D02*
X55240246Y-35073935D01*
X76565279Y-59231649D02*
X76565279Y-58231649D01*
X76565279Y-58231649D02*
X76327184Y-58231649D01*
X76327184Y-58231649D02*
X76184327Y-58279268D01*
X76184327Y-58279268D02*
X76089089Y-58374506D01*
X76089089Y-58374506D02*
X76041470Y-58469744D01*
X76041470Y-58469744D02*
X75993851Y-58660220D01*
X75993851Y-58660220D02*
X75993851Y-58803077D01*
X75993851Y-58803077D02*
X76041470Y-58993553D01*
X76041470Y-58993553D02*
X76089089Y-59088791D01*
X76089089Y-59088791D02*
X76184327Y-59184030D01*
X76184327Y-59184030D02*
X76327184Y-59231649D01*
X76327184Y-59231649D02*
X76565279Y-59231649D01*
X75660517Y-58231649D02*
X74993851Y-58231649D01*
X74993851Y-58231649D02*
X75422422Y-59231649D01*
X279447720Y-97331649D02*
X279447720Y-96331649D01*
X279447720Y-96331649D02*
X279209625Y-96331649D01*
X279209625Y-96331649D02*
X279066768Y-96379268D01*
X279066768Y-96379268D02*
X278971530Y-96474506D01*
X278971530Y-96474506D02*
X278923911Y-96569744D01*
X278923911Y-96569744D02*
X278876292Y-96760220D01*
X278876292Y-96760220D02*
X278876292Y-96903077D01*
X278876292Y-96903077D02*
X278923911Y-97093553D01*
X278923911Y-97093553D02*
X278971530Y-97188791D01*
X278971530Y-97188791D02*
X279066768Y-97284030D01*
X279066768Y-97284030D02*
X279209625Y-97331649D01*
X279209625Y-97331649D02*
X279447720Y-97331649D01*
X278542958Y-96331649D02*
X277923911Y-96331649D01*
X277923911Y-96331649D02*
X278257244Y-96712601D01*
X278257244Y-96712601D02*
X278114387Y-96712601D01*
X278114387Y-96712601D02*
X278019149Y-96760220D01*
X278019149Y-96760220D02*
X277971530Y-96807839D01*
X277971530Y-96807839D02*
X277923911Y-96903077D01*
X277923911Y-96903077D02*
X277923911Y-97141172D01*
X277923911Y-97141172D02*
X277971530Y-97236410D01*
X277971530Y-97236410D02*
X278019149Y-97284030D01*
X278019149Y-97284030D02*
X278114387Y-97331649D01*
X278114387Y-97331649D02*
X278400101Y-97331649D01*
X278400101Y-97331649D02*
X278495339Y-97284030D01*
X278495339Y-97284030D02*
X278542958Y-97236410D01*
X277447720Y-97331649D02*
X277257244Y-97331649D01*
X277257244Y-97331649D02*
X277162006Y-97284030D01*
X277162006Y-97284030D02*
X277114387Y-97236410D01*
X277114387Y-97236410D02*
X277019149Y-97093553D01*
X277019149Y-97093553D02*
X276971530Y-96903077D01*
X276971530Y-96903077D02*
X276971530Y-96522125D01*
X276971530Y-96522125D02*
X277019149Y-96426887D01*
X277019149Y-96426887D02*
X277066768Y-96379268D01*
X277066768Y-96379268D02*
X277162006Y-96331649D01*
X277162006Y-96331649D02*
X277352482Y-96331649D01*
X277352482Y-96331649D02*
X277447720Y-96379268D01*
X277447720Y-96379268D02*
X277495339Y-96426887D01*
X277495339Y-96426887D02*
X277542958Y-96522125D01*
X277542958Y-96522125D02*
X277542958Y-96760220D01*
X277542958Y-96760220D02*
X277495339Y-96855458D01*
X277495339Y-96855458D02*
X277447720Y-96903077D01*
X277447720Y-96903077D02*
X277352482Y-96950696D01*
X277352482Y-96950696D02*
X277162006Y-96950696D01*
X277162006Y-96950696D02*
X277066768Y-96903077D01*
X277066768Y-96903077D02*
X277019149Y-96855458D01*
X277019149Y-96855458D02*
X276971530Y-96760220D01*
X95615279Y-59231649D02*
X95615279Y-58231649D01*
X95615279Y-58231649D02*
X95377184Y-58231649D01*
X95377184Y-58231649D02*
X95234327Y-58279268D01*
X95234327Y-58279268D02*
X95139089Y-58374506D01*
X95139089Y-58374506D02*
X95091470Y-58469744D01*
X95091470Y-58469744D02*
X95043851Y-58660220D01*
X95043851Y-58660220D02*
X95043851Y-58803077D01*
X95043851Y-58803077D02*
X95091470Y-58993553D01*
X95091470Y-58993553D02*
X95139089Y-59088791D01*
X95139089Y-59088791D02*
X95234327Y-59184030D01*
X95234327Y-59184030D02*
X95377184Y-59231649D01*
X95377184Y-59231649D02*
X95615279Y-59231649D01*
X94472422Y-58660220D02*
X94567660Y-58612601D01*
X94567660Y-58612601D02*
X94615279Y-58564982D01*
X94615279Y-58564982D02*
X94662898Y-58469744D01*
X94662898Y-58469744D02*
X94662898Y-58422125D01*
X94662898Y-58422125D02*
X94615279Y-58326887D01*
X94615279Y-58326887D02*
X94567660Y-58279268D01*
X94567660Y-58279268D02*
X94472422Y-58231649D01*
X94472422Y-58231649D02*
X94281946Y-58231649D01*
X94281946Y-58231649D02*
X94186708Y-58279268D01*
X94186708Y-58279268D02*
X94139089Y-58326887D01*
X94139089Y-58326887D02*
X94091470Y-58422125D01*
X94091470Y-58422125D02*
X94091470Y-58469744D01*
X94091470Y-58469744D02*
X94139089Y-58564982D01*
X94139089Y-58564982D02*
X94186708Y-58612601D01*
X94186708Y-58612601D02*
X94281946Y-58660220D01*
X94281946Y-58660220D02*
X94472422Y-58660220D01*
X94472422Y-58660220D02*
X94567660Y-58707839D01*
X94567660Y-58707839D02*
X94615279Y-58755458D01*
X94615279Y-58755458D02*
X94662898Y-58850696D01*
X94662898Y-58850696D02*
X94662898Y-59041172D01*
X94662898Y-59041172D02*
X94615279Y-59136410D01*
X94615279Y-59136410D02*
X94567660Y-59184030D01*
X94567660Y-59184030D02*
X94472422Y-59231649D01*
X94472422Y-59231649D02*
X94281946Y-59231649D01*
X94281946Y-59231649D02*
X94186708Y-59184030D01*
X94186708Y-59184030D02*
X94139089Y-59136410D01*
X94139089Y-59136410D02*
X94091470Y-59041172D01*
X94091470Y-59041172D02*
X94091470Y-58850696D01*
X94091470Y-58850696D02*
X94139089Y-58755458D01*
X94139089Y-58755458D02*
X94186708Y-58707839D01*
X94186708Y-58707839D02*
X94281946Y-58660220D01*
X93710220Y-97331649D02*
X93710220Y-96331649D01*
X93710220Y-96331649D02*
X93472125Y-96331649D01*
X93472125Y-96331649D02*
X93329268Y-96379268D01*
X93329268Y-96379268D02*
X93234030Y-96474506D01*
X93234030Y-96474506D02*
X93186411Y-96569744D01*
X93186411Y-96569744D02*
X93138792Y-96760220D01*
X93138792Y-96760220D02*
X93138792Y-96903077D01*
X93138792Y-96903077D02*
X93186411Y-97093553D01*
X93186411Y-97093553D02*
X93234030Y-97188791D01*
X93234030Y-97188791D02*
X93329268Y-97284030D01*
X93329268Y-97284030D02*
X93472125Y-97331649D01*
X93472125Y-97331649D02*
X93710220Y-97331649D01*
X92805458Y-96331649D02*
X92186411Y-96331649D01*
X92186411Y-96331649D02*
X92519744Y-96712601D01*
X92519744Y-96712601D02*
X92376887Y-96712601D01*
X92376887Y-96712601D02*
X92281649Y-96760220D01*
X92281649Y-96760220D02*
X92234030Y-96807839D01*
X92234030Y-96807839D02*
X92186411Y-96903077D01*
X92186411Y-96903077D02*
X92186411Y-97141172D01*
X92186411Y-97141172D02*
X92234030Y-97236410D01*
X92234030Y-97236410D02*
X92281649Y-97284030D01*
X92281649Y-97284030D02*
X92376887Y-97331649D01*
X92376887Y-97331649D02*
X92662601Y-97331649D01*
X92662601Y-97331649D02*
X92757839Y-97284030D01*
X92757839Y-97284030D02*
X92805458Y-97236410D01*
X91567363Y-96331649D02*
X91472125Y-96331649D01*
X91472125Y-96331649D02*
X91376887Y-96379268D01*
X91376887Y-96379268D02*
X91329268Y-96426887D01*
X91329268Y-96426887D02*
X91281649Y-96522125D01*
X91281649Y-96522125D02*
X91234030Y-96712601D01*
X91234030Y-96712601D02*
X91234030Y-96950696D01*
X91234030Y-96950696D02*
X91281649Y-97141172D01*
X91281649Y-97141172D02*
X91329268Y-97236410D01*
X91329268Y-97236410D02*
X91376887Y-97284030D01*
X91376887Y-97284030D02*
X91472125Y-97331649D01*
X91472125Y-97331649D02*
X91567363Y-97331649D01*
X91567363Y-97331649D02*
X91662601Y-97284030D01*
X91662601Y-97284030D02*
X91710220Y-97236410D01*
X91710220Y-97236410D02*
X91757839Y-97141172D01*
X91757839Y-97141172D02*
X91805458Y-96950696D01*
X91805458Y-96950696D02*
X91805458Y-96712601D01*
X91805458Y-96712601D02*
X91757839Y-96522125D01*
X91757839Y-96522125D02*
X91710220Y-96426887D01*
X91710220Y-96426887D02*
X91662601Y-96379268D01*
X91662601Y-96379268D02*
X91567363Y-96331649D01*
D10*
X22679625Y-58395071D02*
X22703435Y-58371262D01*
X22703435Y-58371262D02*
X22727244Y-58299833D01*
X22727244Y-58299833D02*
X22727244Y-58252214D01*
X22727244Y-58252214D02*
X22703435Y-58180786D01*
X22703435Y-58180786D02*
X22655815Y-58133167D01*
X22655815Y-58133167D02*
X22608196Y-58109357D01*
X22608196Y-58109357D02*
X22512958Y-58085548D01*
X22512958Y-58085548D02*
X22441530Y-58085548D01*
X22441530Y-58085548D02*
X22346292Y-58109357D01*
X22346292Y-58109357D02*
X22298673Y-58133167D01*
X22298673Y-58133167D02*
X22251054Y-58180786D01*
X22251054Y-58180786D02*
X22227244Y-58252214D01*
X22227244Y-58252214D02*
X22227244Y-58299833D01*
X22227244Y-58299833D02*
X22251054Y-58371262D01*
X22251054Y-58371262D02*
X22274863Y-58395071D01*
X22441530Y-58680786D02*
X22417720Y-58633167D01*
X22417720Y-58633167D02*
X22393911Y-58609357D01*
X22393911Y-58609357D02*
X22346292Y-58585548D01*
X22346292Y-58585548D02*
X22322482Y-58585548D01*
X22322482Y-58585548D02*
X22274863Y-58609357D01*
X22274863Y-58609357D02*
X22251054Y-58633167D01*
X22251054Y-58633167D02*
X22227244Y-58680786D01*
X22227244Y-58680786D02*
X22227244Y-58776024D01*
X22227244Y-58776024D02*
X22251054Y-58823643D01*
X22251054Y-58823643D02*
X22274863Y-58847452D01*
X22274863Y-58847452D02*
X22322482Y-58871262D01*
X22322482Y-58871262D02*
X22346292Y-58871262D01*
X22346292Y-58871262D02*
X22393911Y-58847452D01*
X22393911Y-58847452D02*
X22417720Y-58823643D01*
X22417720Y-58823643D02*
X22441530Y-58776024D01*
X22441530Y-58776024D02*
X22441530Y-58680786D01*
X22441530Y-58680786D02*
X22465339Y-58633167D01*
X22465339Y-58633167D02*
X22489149Y-58609357D01*
X22489149Y-58609357D02*
X22536768Y-58585548D01*
X22536768Y-58585548D02*
X22632006Y-58585548D01*
X22632006Y-58585548D02*
X22679625Y-58609357D01*
X22679625Y-58609357D02*
X22703435Y-58633167D01*
X22703435Y-58633167D02*
X22727244Y-58680786D01*
X22727244Y-58680786D02*
X22727244Y-58776024D01*
X22727244Y-58776024D02*
X22703435Y-58823643D01*
X22703435Y-58823643D02*
X22679625Y-58847452D01*
X22679625Y-58847452D02*
X22632006Y-58871262D01*
X22632006Y-58871262D02*
X22536768Y-58871262D01*
X22536768Y-58871262D02*
X22489149Y-58847452D01*
X22489149Y-58847452D02*
X22465339Y-58823643D01*
X22465339Y-58823643D02*
X22441530Y-58776024D01*
D11*
X143716470Y-97331649D02*
X143716470Y-96331649D01*
X143716470Y-96331649D02*
X143478375Y-96331649D01*
X143478375Y-96331649D02*
X143335518Y-96379268D01*
X143335518Y-96379268D02*
X143240280Y-96474506D01*
X143240280Y-96474506D02*
X143192661Y-96569744D01*
X143192661Y-96569744D02*
X143145042Y-96760220D01*
X143145042Y-96760220D02*
X143145042Y-96903077D01*
X143145042Y-96903077D02*
X143192661Y-97093553D01*
X143192661Y-97093553D02*
X143240280Y-97188791D01*
X143240280Y-97188791D02*
X143335518Y-97284030D01*
X143335518Y-97284030D02*
X143478375Y-97331649D01*
X143478375Y-97331649D02*
X143716470Y-97331649D01*
X142811708Y-96331649D02*
X142192661Y-96331649D01*
X142192661Y-96331649D02*
X142525994Y-96712601D01*
X142525994Y-96712601D02*
X142383137Y-96712601D01*
X142383137Y-96712601D02*
X142287899Y-96760220D01*
X142287899Y-96760220D02*
X142240280Y-96807839D01*
X142240280Y-96807839D02*
X142192661Y-96903077D01*
X142192661Y-96903077D02*
X142192661Y-97141172D01*
X142192661Y-97141172D02*
X142240280Y-97236410D01*
X142240280Y-97236410D02*
X142287899Y-97284030D01*
X142287899Y-97284030D02*
X142383137Y-97331649D01*
X142383137Y-97331649D02*
X142668851Y-97331649D01*
X142668851Y-97331649D02*
X142764089Y-97284030D01*
X142764089Y-97284030D02*
X142811708Y-97236410D01*
X141811708Y-96426887D02*
X141764089Y-96379268D01*
X141764089Y-96379268D02*
X141668851Y-96331649D01*
X141668851Y-96331649D02*
X141430756Y-96331649D01*
X141430756Y-96331649D02*
X141335518Y-96379268D01*
X141335518Y-96379268D02*
X141287899Y-96426887D01*
X141287899Y-96426887D02*
X141240280Y-96522125D01*
X141240280Y-96522125D02*
X141240280Y-96617363D01*
X141240280Y-96617363D02*
X141287899Y-96760220D01*
X141287899Y-96760220D02*
X141859327Y-97331649D01*
X141859327Y-97331649D02*
X141240280Y-97331649D01*
X299712154Y-52469149D02*
X299712154Y-51469149D01*
X299712154Y-51945339D02*
X299140726Y-51945339D01*
X299140726Y-52469149D02*
X299140726Y-51469149D01*
X298140726Y-52469149D02*
X298712154Y-52469149D01*
X298426440Y-52469149D02*
X298426440Y-51469149D01*
X298426440Y-51469149D02*
X298521678Y-51612006D01*
X298521678Y-51612006D02*
X298616916Y-51707244D01*
X298616916Y-51707244D02*
X298712154Y-51754863D01*
X297521678Y-51469149D02*
X297426440Y-51469149D01*
X297426440Y-51469149D02*
X297331202Y-51516768D01*
X297331202Y-51516768D02*
X297283583Y-51564387D01*
X297283583Y-51564387D02*
X297235964Y-51659625D01*
X297235964Y-51659625D02*
X297188345Y-51850101D01*
X297188345Y-51850101D02*
X297188345Y-52088196D01*
X297188345Y-52088196D02*
X297235964Y-52278672D01*
X297235964Y-52278672D02*
X297283583Y-52373910D01*
X297283583Y-52373910D02*
X297331202Y-52421530D01*
X297331202Y-52421530D02*
X297426440Y-52469149D01*
X297426440Y-52469149D02*
X297521678Y-52469149D01*
X297521678Y-52469149D02*
X297616916Y-52421530D01*
X297616916Y-52421530D02*
X297664535Y-52373910D01*
X297664535Y-52373910D02*
X297712154Y-52278672D01*
X297712154Y-52278672D02*
X297759773Y-52088196D01*
X297759773Y-52088196D02*
X297759773Y-51850101D01*
X297759773Y-51850101D02*
X297712154Y-51659625D01*
X297712154Y-51659625D02*
X297664535Y-51564387D01*
X297664535Y-51564387D02*
X297616916Y-51516768D01*
X297616916Y-51516768D02*
X297521678Y-51469149D01*
X86566470Y-78281649D02*
X86566470Y-77281649D01*
X86566470Y-77281649D02*
X86328375Y-77281649D01*
X86328375Y-77281649D02*
X86185518Y-77329268D01*
X86185518Y-77329268D02*
X86090280Y-77424506D01*
X86090280Y-77424506D02*
X86042661Y-77519744D01*
X86042661Y-77519744D02*
X85995042Y-77710220D01*
X85995042Y-77710220D02*
X85995042Y-77853077D01*
X85995042Y-77853077D02*
X86042661Y-78043553D01*
X86042661Y-78043553D02*
X86090280Y-78138791D01*
X86090280Y-78138791D02*
X86185518Y-78234030D01*
X86185518Y-78234030D02*
X86328375Y-78281649D01*
X86328375Y-78281649D02*
X86566470Y-78281649D01*
X85042661Y-78281649D02*
X85614089Y-78281649D01*
X85328375Y-78281649D02*
X85328375Y-77281649D01*
X85328375Y-77281649D02*
X85423613Y-77424506D01*
X85423613Y-77424506D02*
X85518851Y-77519744D01*
X85518851Y-77519744D02*
X85614089Y-77567363D01*
X84471232Y-77710220D02*
X84566470Y-77662601D01*
X84566470Y-77662601D02*
X84614089Y-77614982D01*
X84614089Y-77614982D02*
X84661708Y-77519744D01*
X84661708Y-77519744D02*
X84661708Y-77472125D01*
X84661708Y-77472125D02*
X84614089Y-77376887D01*
X84614089Y-77376887D02*
X84566470Y-77329268D01*
X84566470Y-77329268D02*
X84471232Y-77281649D01*
X84471232Y-77281649D02*
X84280756Y-77281649D01*
X84280756Y-77281649D02*
X84185518Y-77329268D01*
X84185518Y-77329268D02*
X84137899Y-77376887D01*
X84137899Y-77376887D02*
X84090280Y-77472125D01*
X84090280Y-77472125D02*
X84090280Y-77519744D01*
X84090280Y-77519744D02*
X84137899Y-77614982D01*
X84137899Y-77614982D02*
X84185518Y-77662601D01*
X84185518Y-77662601D02*
X84280756Y-77710220D01*
X84280756Y-77710220D02*
X84471232Y-77710220D01*
X84471232Y-77710220D02*
X84566470Y-77757839D01*
X84566470Y-77757839D02*
X84614089Y-77805458D01*
X84614089Y-77805458D02*
X84661708Y-77900696D01*
X84661708Y-77900696D02*
X84661708Y-78091172D01*
X84661708Y-78091172D02*
X84614089Y-78186410D01*
X84614089Y-78186410D02*
X84566470Y-78234030D01*
X84566470Y-78234030D02*
X84471232Y-78281649D01*
X84471232Y-78281649D02*
X84280756Y-78281649D01*
X84280756Y-78281649D02*
X84185518Y-78234030D01*
X84185518Y-78234030D02*
X84137899Y-78186410D01*
X84137899Y-78186410D02*
X84090280Y-78091172D01*
X84090280Y-78091172D02*
X84090280Y-77900696D01*
X84090280Y-77900696D02*
X84137899Y-77805458D01*
X84137899Y-77805458D02*
X84185518Y-77757839D01*
X84185518Y-77757839D02*
X84280756Y-77710220D01*
X200866470Y-78281649D02*
X200866470Y-77281649D01*
X200866470Y-77281649D02*
X200628375Y-77281649D01*
X200628375Y-77281649D02*
X200485518Y-77329268D01*
X200485518Y-77329268D02*
X200390280Y-77424506D01*
X200390280Y-77424506D02*
X200342661Y-77519744D01*
X200342661Y-77519744D02*
X200295042Y-77710220D01*
X200295042Y-77710220D02*
X200295042Y-77853077D01*
X200295042Y-77853077D02*
X200342661Y-78043553D01*
X200342661Y-78043553D02*
X200390280Y-78138791D01*
X200390280Y-78138791D02*
X200485518Y-78234030D01*
X200485518Y-78234030D02*
X200628375Y-78281649D01*
X200628375Y-78281649D02*
X200866470Y-78281649D01*
X199914089Y-77376887D02*
X199866470Y-77329268D01*
X199866470Y-77329268D02*
X199771232Y-77281649D01*
X199771232Y-77281649D02*
X199533137Y-77281649D01*
X199533137Y-77281649D02*
X199437899Y-77329268D01*
X199437899Y-77329268D02*
X199390280Y-77376887D01*
X199390280Y-77376887D02*
X199342661Y-77472125D01*
X199342661Y-77472125D02*
X199342661Y-77567363D01*
X199342661Y-77567363D02*
X199390280Y-77710220D01*
X199390280Y-77710220D02*
X199961708Y-78281649D01*
X199961708Y-78281649D02*
X199342661Y-78281649D01*
X198390280Y-78281649D02*
X198961708Y-78281649D01*
X198675994Y-78281649D02*
X198675994Y-77281649D01*
X198675994Y-77281649D02*
X198771232Y-77424506D01*
X198771232Y-77424506D02*
X198866470Y-77519744D01*
X198866470Y-77519744D02*
X198961708Y-77567363D01*
X119903970Y-97331649D02*
X119903970Y-96331649D01*
X119903970Y-96331649D02*
X119665875Y-96331649D01*
X119665875Y-96331649D02*
X119523018Y-96379268D01*
X119523018Y-96379268D02*
X119427780Y-96474506D01*
X119427780Y-96474506D02*
X119380161Y-96569744D01*
X119380161Y-96569744D02*
X119332542Y-96760220D01*
X119332542Y-96760220D02*
X119332542Y-96903077D01*
X119332542Y-96903077D02*
X119380161Y-97093553D01*
X119380161Y-97093553D02*
X119427780Y-97188791D01*
X119427780Y-97188791D02*
X119523018Y-97284030D01*
X119523018Y-97284030D02*
X119665875Y-97331649D01*
X119665875Y-97331649D02*
X119903970Y-97331649D01*
X118999208Y-96331649D02*
X118380161Y-96331649D01*
X118380161Y-96331649D02*
X118713494Y-96712601D01*
X118713494Y-96712601D02*
X118570637Y-96712601D01*
X118570637Y-96712601D02*
X118475399Y-96760220D01*
X118475399Y-96760220D02*
X118427780Y-96807839D01*
X118427780Y-96807839D02*
X118380161Y-96903077D01*
X118380161Y-96903077D02*
X118380161Y-97141172D01*
X118380161Y-97141172D02*
X118427780Y-97236410D01*
X118427780Y-97236410D02*
X118475399Y-97284030D01*
X118475399Y-97284030D02*
X118570637Y-97331649D01*
X118570637Y-97331649D02*
X118856351Y-97331649D01*
X118856351Y-97331649D02*
X118951589Y-97284030D01*
X118951589Y-97284030D02*
X118999208Y-97236410D01*
X117427780Y-97331649D02*
X117999208Y-97331649D01*
X117713494Y-97331649D02*
X117713494Y-96331649D01*
X117713494Y-96331649D02*
X117808732Y-96474506D01*
X117808732Y-96474506D02*
X117903970Y-96569744D01*
X117903970Y-96569744D02*
X117999208Y-96617363D01*
X20634311Y-21024274D02*
X20634311Y-20024274D01*
X20634311Y-20500464D02*
X20062883Y-20500464D01*
X20062883Y-21024274D02*
X20062883Y-20024274D01*
X19158121Y-20024274D02*
X19348597Y-20024274D01*
X19348597Y-20024274D02*
X19443835Y-20071893D01*
X19443835Y-20071893D02*
X19491454Y-20119512D01*
X19491454Y-20119512D02*
X19586692Y-20262369D01*
X19586692Y-20262369D02*
X19634311Y-20452845D01*
X19634311Y-20452845D02*
X19634311Y-20833797D01*
X19634311Y-20833797D02*
X19586692Y-20929035D01*
X19586692Y-20929035D02*
X19539073Y-20976655D01*
X19539073Y-20976655D02*
X19443835Y-21024274D01*
X19443835Y-21024274D02*
X19253359Y-21024274D01*
X19253359Y-21024274D02*
X19158121Y-20976655D01*
X19158121Y-20976655D02*
X19110502Y-20929035D01*
X19110502Y-20929035D02*
X19062883Y-20833797D01*
X19062883Y-20833797D02*
X19062883Y-20595702D01*
X19062883Y-20595702D02*
X19110502Y-20500464D01*
X19110502Y-20500464D02*
X19158121Y-20452845D01*
X19158121Y-20452845D02*
X19253359Y-20405226D01*
X19253359Y-20405226D02*
X19443835Y-20405226D01*
X19443835Y-20405226D02*
X19539073Y-20452845D01*
X19539073Y-20452845D02*
X19586692Y-20500464D01*
X19586692Y-20500464D02*
X19634311Y-20595702D01*
X258016470Y-78281649D02*
X258016470Y-77281649D01*
X258016470Y-77281649D02*
X257778375Y-77281649D01*
X257778375Y-77281649D02*
X257635518Y-77329268D01*
X257635518Y-77329268D02*
X257540280Y-77424506D01*
X257540280Y-77424506D02*
X257492661Y-77519744D01*
X257492661Y-77519744D02*
X257445042Y-77710220D01*
X257445042Y-77710220D02*
X257445042Y-77853077D01*
X257445042Y-77853077D02*
X257492661Y-78043553D01*
X257492661Y-78043553D02*
X257540280Y-78138791D01*
X257540280Y-78138791D02*
X257635518Y-78234030D01*
X257635518Y-78234030D02*
X257778375Y-78281649D01*
X257778375Y-78281649D02*
X258016470Y-78281649D01*
X257064089Y-77376887D02*
X257016470Y-77329268D01*
X257016470Y-77329268D02*
X256921232Y-77281649D01*
X256921232Y-77281649D02*
X256683137Y-77281649D01*
X256683137Y-77281649D02*
X256587899Y-77329268D01*
X256587899Y-77329268D02*
X256540280Y-77376887D01*
X256540280Y-77376887D02*
X256492661Y-77472125D01*
X256492661Y-77472125D02*
X256492661Y-77567363D01*
X256492661Y-77567363D02*
X256540280Y-77710220D01*
X256540280Y-77710220D02*
X257111708Y-78281649D01*
X257111708Y-78281649D02*
X256492661Y-78281649D01*
X255635518Y-77614982D02*
X255635518Y-78281649D01*
X255873613Y-77234030D02*
X256111708Y-77948315D01*
X256111708Y-77948315D02*
X255492661Y-77948315D01*
X40132095Y-97331649D02*
X40132095Y-96331649D01*
X40132095Y-96331649D02*
X39894000Y-96331649D01*
X39894000Y-96331649D02*
X39751143Y-96379268D01*
X39751143Y-96379268D02*
X39655905Y-96474506D01*
X39655905Y-96474506D02*
X39608286Y-96569744D01*
X39608286Y-96569744D02*
X39560667Y-96760220D01*
X39560667Y-96760220D02*
X39560667Y-96903077D01*
X39560667Y-96903077D02*
X39608286Y-97093553D01*
X39608286Y-97093553D02*
X39655905Y-97188791D01*
X39655905Y-97188791D02*
X39751143Y-97284030D01*
X39751143Y-97284030D02*
X39894000Y-97331649D01*
X39894000Y-97331649D02*
X40132095Y-97331649D01*
X39179714Y-96426887D02*
X39132095Y-96379268D01*
X39132095Y-96379268D02*
X39036857Y-96331649D01*
X39036857Y-96331649D02*
X38798762Y-96331649D01*
X38798762Y-96331649D02*
X38703524Y-96379268D01*
X38703524Y-96379268D02*
X38655905Y-96426887D01*
X38655905Y-96426887D02*
X38608286Y-96522125D01*
X38608286Y-96522125D02*
X38608286Y-96617363D01*
X38608286Y-96617363D02*
X38655905Y-96760220D01*
X38655905Y-96760220D02*
X39227333Y-97331649D01*
X39227333Y-97331649D02*
X38608286Y-97331649D01*
X38274952Y-96331649D02*
X37608286Y-96331649D01*
X37608286Y-96331649D02*
X38036857Y-97331649D01*
X229441470Y-59231649D02*
X229441470Y-58231649D01*
X229441470Y-58231649D02*
X229203375Y-58231649D01*
X229203375Y-58231649D02*
X229060518Y-58279268D01*
X229060518Y-58279268D02*
X228965280Y-58374506D01*
X228965280Y-58374506D02*
X228917661Y-58469744D01*
X228917661Y-58469744D02*
X228870042Y-58660220D01*
X228870042Y-58660220D02*
X228870042Y-58803077D01*
X228870042Y-58803077D02*
X228917661Y-58993553D01*
X228917661Y-58993553D02*
X228965280Y-59088791D01*
X228965280Y-59088791D02*
X229060518Y-59184030D01*
X229060518Y-59184030D02*
X229203375Y-59231649D01*
X229203375Y-59231649D02*
X229441470Y-59231649D01*
X227917661Y-59231649D02*
X228489089Y-59231649D01*
X228203375Y-59231649D02*
X228203375Y-58231649D01*
X228203375Y-58231649D02*
X228298613Y-58374506D01*
X228298613Y-58374506D02*
X228393851Y-58469744D01*
X228393851Y-58469744D02*
X228489089Y-58517363D01*
X226965280Y-59231649D02*
X227536708Y-59231649D01*
X227250994Y-59231649D02*
X227250994Y-58231649D01*
X227250994Y-58231649D02*
X227346232Y-58374506D01*
X227346232Y-58374506D02*
X227441470Y-58469744D01*
X227441470Y-58469744D02*
X227536708Y-58517363D01*
X238966470Y-78281649D02*
X238966470Y-77281649D01*
X238966470Y-77281649D02*
X238728375Y-77281649D01*
X238728375Y-77281649D02*
X238585518Y-77329268D01*
X238585518Y-77329268D02*
X238490280Y-77424506D01*
X238490280Y-77424506D02*
X238442661Y-77519744D01*
X238442661Y-77519744D02*
X238395042Y-77710220D01*
X238395042Y-77710220D02*
X238395042Y-77853077D01*
X238395042Y-77853077D02*
X238442661Y-78043553D01*
X238442661Y-78043553D02*
X238490280Y-78138791D01*
X238490280Y-78138791D02*
X238585518Y-78234030D01*
X238585518Y-78234030D02*
X238728375Y-78281649D01*
X238728375Y-78281649D02*
X238966470Y-78281649D01*
X238014089Y-77376887D02*
X237966470Y-77329268D01*
X237966470Y-77329268D02*
X237871232Y-77281649D01*
X237871232Y-77281649D02*
X237633137Y-77281649D01*
X237633137Y-77281649D02*
X237537899Y-77329268D01*
X237537899Y-77329268D02*
X237490280Y-77376887D01*
X237490280Y-77376887D02*
X237442661Y-77472125D01*
X237442661Y-77472125D02*
X237442661Y-77567363D01*
X237442661Y-77567363D02*
X237490280Y-77710220D01*
X237490280Y-77710220D02*
X238061708Y-78281649D01*
X238061708Y-78281649D02*
X237442661Y-78281649D01*
X237109327Y-77281649D02*
X236490280Y-77281649D01*
X236490280Y-77281649D02*
X236823613Y-77662601D01*
X236823613Y-77662601D02*
X236680756Y-77662601D01*
X236680756Y-77662601D02*
X236585518Y-77710220D01*
X236585518Y-77710220D02*
X236537899Y-77757839D01*
X236537899Y-77757839D02*
X236490280Y-77853077D01*
X236490280Y-77853077D02*
X236490280Y-78091172D01*
X236490280Y-78091172D02*
X236537899Y-78186410D01*
X236537899Y-78186410D02*
X236585518Y-78234030D01*
X236585518Y-78234030D02*
X236680756Y-78281649D01*
X236680756Y-78281649D02*
X236966470Y-78281649D01*
X236966470Y-78281649D02*
X237061708Y-78234030D01*
X237061708Y-78234030D02*
X237109327Y-78186410D01*
X205628970Y-97331649D02*
X205628970Y-96331649D01*
X205628970Y-96331649D02*
X205390875Y-96331649D01*
X205390875Y-96331649D02*
X205248018Y-96379268D01*
X205248018Y-96379268D02*
X205152780Y-96474506D01*
X205152780Y-96474506D02*
X205105161Y-96569744D01*
X205105161Y-96569744D02*
X205057542Y-96760220D01*
X205057542Y-96760220D02*
X205057542Y-96903077D01*
X205057542Y-96903077D02*
X205105161Y-97093553D01*
X205105161Y-97093553D02*
X205152780Y-97188791D01*
X205152780Y-97188791D02*
X205248018Y-97284030D01*
X205248018Y-97284030D02*
X205390875Y-97331649D01*
X205390875Y-97331649D02*
X205628970Y-97331649D01*
X204724208Y-96331649D02*
X204105161Y-96331649D01*
X204105161Y-96331649D02*
X204438494Y-96712601D01*
X204438494Y-96712601D02*
X204295637Y-96712601D01*
X204295637Y-96712601D02*
X204200399Y-96760220D01*
X204200399Y-96760220D02*
X204152780Y-96807839D01*
X204152780Y-96807839D02*
X204105161Y-96903077D01*
X204105161Y-96903077D02*
X204105161Y-97141172D01*
X204105161Y-97141172D02*
X204152780Y-97236410D01*
X204152780Y-97236410D02*
X204200399Y-97284030D01*
X204200399Y-97284030D02*
X204295637Y-97331649D01*
X204295637Y-97331649D02*
X204581351Y-97331649D01*
X204581351Y-97331649D02*
X204676589Y-97284030D01*
X204676589Y-97284030D02*
X204724208Y-97236410D01*
X203200399Y-96331649D02*
X203676589Y-96331649D01*
X203676589Y-96331649D02*
X203724208Y-96807839D01*
X203724208Y-96807839D02*
X203676589Y-96760220D01*
X203676589Y-96760220D02*
X203581351Y-96712601D01*
X203581351Y-96712601D02*
X203343256Y-96712601D01*
X203343256Y-96712601D02*
X203248018Y-96760220D01*
X203248018Y-96760220D02*
X203200399Y-96807839D01*
X203200399Y-96807839D02*
X203152780Y-96903077D01*
X203152780Y-96903077D02*
X203152780Y-97141172D01*
X203152780Y-97141172D02*
X203200399Y-97236410D01*
X203200399Y-97236410D02*
X203248018Y-97284030D01*
X203248018Y-97284030D02*
X203343256Y-97331649D01*
X203343256Y-97331649D02*
X203581351Y-97331649D01*
X203581351Y-97331649D02*
X203676589Y-97284030D01*
X203676589Y-97284030D02*
X203724208Y-97236410D01*
X159932839Y-21024274D02*
X159932839Y-20024274D01*
X159932839Y-20500464D02*
X159361411Y-20500464D01*
X159361411Y-21024274D02*
X159361411Y-20024274D01*
X158742363Y-20452845D02*
X158837601Y-20405226D01*
X158837601Y-20405226D02*
X158885220Y-20357607D01*
X158885220Y-20357607D02*
X158932839Y-20262369D01*
X158932839Y-20262369D02*
X158932839Y-20214750D01*
X158932839Y-20214750D02*
X158885220Y-20119512D01*
X158885220Y-20119512D02*
X158837601Y-20071893D01*
X158837601Y-20071893D02*
X158742363Y-20024274D01*
X158742363Y-20024274D02*
X158551887Y-20024274D01*
X158551887Y-20024274D02*
X158456649Y-20071893D01*
X158456649Y-20071893D02*
X158409030Y-20119512D01*
X158409030Y-20119512D02*
X158361411Y-20214750D01*
X158361411Y-20214750D02*
X158361411Y-20262369D01*
X158361411Y-20262369D02*
X158409030Y-20357607D01*
X158409030Y-20357607D02*
X158456649Y-20405226D01*
X158456649Y-20405226D02*
X158551887Y-20452845D01*
X158551887Y-20452845D02*
X158742363Y-20452845D01*
X158742363Y-20452845D02*
X158837601Y-20500464D01*
X158837601Y-20500464D02*
X158885220Y-20548083D01*
X158885220Y-20548083D02*
X158932839Y-20643321D01*
X158932839Y-20643321D02*
X158932839Y-20833797D01*
X158932839Y-20833797D02*
X158885220Y-20929035D01*
X158885220Y-20929035D02*
X158837601Y-20976655D01*
X158837601Y-20976655D02*
X158742363Y-21024274D01*
X158742363Y-21024274D02*
X158551887Y-21024274D01*
X158551887Y-21024274D02*
X158456649Y-20976655D01*
X158456649Y-20976655D02*
X158409030Y-20929035D01*
X158409030Y-20929035D02*
X158361411Y-20833797D01*
X158361411Y-20833797D02*
X158361411Y-20643321D01*
X158361411Y-20643321D02*
X158409030Y-20548083D01*
X158409030Y-20548083D02*
X158456649Y-20500464D01*
X158456649Y-20500464D02*
X158551887Y-20452845D01*
X219916470Y-78281649D02*
X219916470Y-77281649D01*
X219916470Y-77281649D02*
X219678375Y-77281649D01*
X219678375Y-77281649D02*
X219535518Y-77329268D01*
X219535518Y-77329268D02*
X219440280Y-77424506D01*
X219440280Y-77424506D02*
X219392661Y-77519744D01*
X219392661Y-77519744D02*
X219345042Y-77710220D01*
X219345042Y-77710220D02*
X219345042Y-77853077D01*
X219345042Y-77853077D02*
X219392661Y-78043553D01*
X219392661Y-78043553D02*
X219440280Y-78138791D01*
X219440280Y-78138791D02*
X219535518Y-78234030D01*
X219535518Y-78234030D02*
X219678375Y-78281649D01*
X219678375Y-78281649D02*
X219916470Y-78281649D01*
X218964089Y-77376887D02*
X218916470Y-77329268D01*
X218916470Y-77329268D02*
X218821232Y-77281649D01*
X218821232Y-77281649D02*
X218583137Y-77281649D01*
X218583137Y-77281649D02*
X218487899Y-77329268D01*
X218487899Y-77329268D02*
X218440280Y-77376887D01*
X218440280Y-77376887D02*
X218392661Y-77472125D01*
X218392661Y-77472125D02*
X218392661Y-77567363D01*
X218392661Y-77567363D02*
X218440280Y-77710220D01*
X218440280Y-77710220D02*
X219011708Y-78281649D01*
X219011708Y-78281649D02*
X218392661Y-78281649D01*
X218011708Y-77376887D02*
X217964089Y-77329268D01*
X217964089Y-77329268D02*
X217868851Y-77281649D01*
X217868851Y-77281649D02*
X217630756Y-77281649D01*
X217630756Y-77281649D02*
X217535518Y-77329268D01*
X217535518Y-77329268D02*
X217487899Y-77376887D01*
X217487899Y-77376887D02*
X217440280Y-77472125D01*
X217440280Y-77472125D02*
X217440280Y-77567363D01*
X217440280Y-77567363D02*
X217487899Y-77710220D01*
X217487899Y-77710220D02*
X218059327Y-78281649D01*
X218059327Y-78281649D02*
X217440280Y-78281649D01*
X74207839Y-28656649D02*
X74207839Y-27656649D01*
X74207839Y-28132839D02*
X73636411Y-28132839D01*
X73636411Y-28656649D02*
X73636411Y-27656649D01*
X73255458Y-27656649D02*
X72588792Y-27656649D01*
X72588792Y-27656649D02*
X73017363Y-28656649D01*
X198509029Y-52516024D02*
X198509029Y-51516024D01*
X198509029Y-51992214D02*
X197937601Y-51992214D01*
X197937601Y-52516024D02*
X197937601Y-51516024D01*
X196937601Y-52516024D02*
X197509029Y-52516024D01*
X197223315Y-52516024D02*
X197223315Y-51516024D01*
X197223315Y-51516024D02*
X197318553Y-51658881D01*
X197318553Y-51658881D02*
X197413791Y-51754119D01*
X197413791Y-51754119D02*
X197509029Y-51801738D01*
X196080458Y-51849357D02*
X196080458Y-52516024D01*
X196318553Y-51468405D02*
X196556648Y-52182690D01*
X196556648Y-52182690D02*
X195937601Y-52182690D01*
X271113345Y-97331649D02*
X271113345Y-96331649D01*
X271113345Y-96331649D02*
X270875250Y-96331649D01*
X270875250Y-96331649D02*
X270732393Y-96379268D01*
X270732393Y-96379268D02*
X270637155Y-96474506D01*
X270637155Y-96474506D02*
X270589536Y-96569744D01*
X270589536Y-96569744D02*
X270541917Y-96760220D01*
X270541917Y-96760220D02*
X270541917Y-96903077D01*
X270541917Y-96903077D02*
X270589536Y-97093553D01*
X270589536Y-97093553D02*
X270637155Y-97188791D01*
X270637155Y-97188791D02*
X270732393Y-97284030D01*
X270732393Y-97284030D02*
X270875250Y-97331649D01*
X270875250Y-97331649D02*
X271113345Y-97331649D01*
X270208583Y-96331649D02*
X269589536Y-96331649D01*
X269589536Y-96331649D02*
X269922869Y-96712601D01*
X269922869Y-96712601D02*
X269780012Y-96712601D01*
X269780012Y-96712601D02*
X269684774Y-96760220D01*
X269684774Y-96760220D02*
X269637155Y-96807839D01*
X269637155Y-96807839D02*
X269589536Y-96903077D01*
X269589536Y-96903077D02*
X269589536Y-97141172D01*
X269589536Y-97141172D02*
X269637155Y-97236410D01*
X269637155Y-97236410D02*
X269684774Y-97284030D01*
X269684774Y-97284030D02*
X269780012Y-97331649D01*
X269780012Y-97331649D02*
X270065726Y-97331649D01*
X270065726Y-97331649D02*
X270160964Y-97284030D01*
X270160964Y-97284030D02*
X270208583Y-97236410D01*
X269018107Y-96760220D02*
X269113345Y-96712601D01*
X269113345Y-96712601D02*
X269160964Y-96664982D01*
X269160964Y-96664982D02*
X269208583Y-96569744D01*
X269208583Y-96569744D02*
X269208583Y-96522125D01*
X269208583Y-96522125D02*
X269160964Y-96426887D01*
X269160964Y-96426887D02*
X269113345Y-96379268D01*
X269113345Y-96379268D02*
X269018107Y-96331649D01*
X269018107Y-96331649D02*
X268827631Y-96331649D01*
X268827631Y-96331649D02*
X268732393Y-96379268D01*
X268732393Y-96379268D02*
X268684774Y-96426887D01*
X268684774Y-96426887D02*
X268637155Y-96522125D01*
X268637155Y-96522125D02*
X268637155Y-96569744D01*
X268637155Y-96569744D02*
X268684774Y-96664982D01*
X268684774Y-96664982D02*
X268732393Y-96712601D01*
X268732393Y-96712601D02*
X268827631Y-96760220D01*
X268827631Y-96760220D02*
X269018107Y-96760220D01*
X269018107Y-96760220D02*
X269113345Y-96807839D01*
X269113345Y-96807839D02*
X269160964Y-96855458D01*
X269160964Y-96855458D02*
X269208583Y-96950696D01*
X269208583Y-96950696D02*
X269208583Y-97141172D01*
X269208583Y-97141172D02*
X269160964Y-97236410D01*
X269160964Y-97236410D02*
X269113345Y-97284030D01*
X269113345Y-97284030D02*
X269018107Y-97331649D01*
X269018107Y-97331649D02*
X268827631Y-97331649D01*
X268827631Y-97331649D02*
X268732393Y-97284030D01*
X268732393Y-97284030D02*
X268684774Y-97236410D01*
X268684774Y-97236410D02*
X268637155Y-97141172D01*
X268637155Y-97141172D02*
X268637155Y-96950696D01*
X268637155Y-96950696D02*
X268684774Y-96855458D01*
X268684774Y-96855458D02*
X268732393Y-96807839D01*
X268732393Y-96807839D02*
X268827631Y-96760220D01*
X210391470Y-59231649D02*
X210391470Y-58231649D01*
X210391470Y-58231649D02*
X210153375Y-58231649D01*
X210153375Y-58231649D02*
X210010518Y-58279268D01*
X210010518Y-58279268D02*
X209915280Y-58374506D01*
X209915280Y-58374506D02*
X209867661Y-58469744D01*
X209867661Y-58469744D02*
X209820042Y-58660220D01*
X209820042Y-58660220D02*
X209820042Y-58803077D01*
X209820042Y-58803077D02*
X209867661Y-58993553D01*
X209867661Y-58993553D02*
X209915280Y-59088791D01*
X209915280Y-59088791D02*
X210010518Y-59184030D01*
X210010518Y-59184030D02*
X210153375Y-59231649D01*
X210153375Y-59231649D02*
X210391470Y-59231649D01*
X208867661Y-59231649D02*
X209439089Y-59231649D01*
X209153375Y-59231649D02*
X209153375Y-58231649D01*
X209153375Y-58231649D02*
X209248613Y-58374506D01*
X209248613Y-58374506D02*
X209343851Y-58469744D01*
X209343851Y-58469744D02*
X209439089Y-58517363D01*
X208248613Y-58231649D02*
X208153375Y-58231649D01*
X208153375Y-58231649D02*
X208058137Y-58279268D01*
X208058137Y-58279268D02*
X208010518Y-58326887D01*
X208010518Y-58326887D02*
X207962899Y-58422125D01*
X207962899Y-58422125D02*
X207915280Y-58612601D01*
X207915280Y-58612601D02*
X207915280Y-58850696D01*
X207915280Y-58850696D02*
X207962899Y-59041172D01*
X207962899Y-59041172D02*
X208010518Y-59136410D01*
X208010518Y-59136410D02*
X208058137Y-59184030D01*
X208058137Y-59184030D02*
X208153375Y-59231649D01*
X208153375Y-59231649D02*
X208248613Y-59231649D01*
X208248613Y-59231649D02*
X208343851Y-59184030D01*
X208343851Y-59184030D02*
X208391470Y-59136410D01*
X208391470Y-59136410D02*
X208439089Y-59041172D01*
X208439089Y-59041172D02*
X208486708Y-58850696D01*
X208486708Y-58850696D02*
X208486708Y-58612601D01*
X208486708Y-58612601D02*
X208439089Y-58422125D01*
X208439089Y-58422125D02*
X208391470Y-58326887D01*
X208391470Y-58326887D02*
X208343851Y-58279268D01*
X208343851Y-58279268D02*
X208248613Y-58231649D01*
X248491470Y-59231649D02*
X248491470Y-58231649D01*
X248491470Y-58231649D02*
X248253375Y-58231649D01*
X248253375Y-58231649D02*
X248110518Y-58279268D01*
X248110518Y-58279268D02*
X248015280Y-58374506D01*
X248015280Y-58374506D02*
X247967661Y-58469744D01*
X247967661Y-58469744D02*
X247920042Y-58660220D01*
X247920042Y-58660220D02*
X247920042Y-58803077D01*
X247920042Y-58803077D02*
X247967661Y-58993553D01*
X247967661Y-58993553D02*
X248015280Y-59088791D01*
X248015280Y-59088791D02*
X248110518Y-59184030D01*
X248110518Y-59184030D02*
X248253375Y-59231649D01*
X248253375Y-59231649D02*
X248491470Y-59231649D01*
X246967661Y-59231649D02*
X247539089Y-59231649D01*
X247253375Y-59231649D02*
X247253375Y-58231649D01*
X247253375Y-58231649D02*
X247348613Y-58374506D01*
X247348613Y-58374506D02*
X247443851Y-58469744D01*
X247443851Y-58469744D02*
X247539089Y-58517363D01*
X246586708Y-58326887D02*
X246539089Y-58279268D01*
X246539089Y-58279268D02*
X246443851Y-58231649D01*
X246443851Y-58231649D02*
X246205756Y-58231649D01*
X246205756Y-58231649D02*
X246110518Y-58279268D01*
X246110518Y-58279268D02*
X246062899Y-58326887D01*
X246062899Y-58326887D02*
X246015280Y-58422125D01*
X246015280Y-58422125D02*
X246015280Y-58517363D01*
X246015280Y-58517363D02*
X246062899Y-58660220D01*
X246062899Y-58660220D02*
X246634327Y-59231649D01*
X246634327Y-59231649D02*
X246015280Y-59231649D01*
X181816470Y-97331649D02*
X181816470Y-96331649D01*
X181816470Y-96331649D02*
X181578375Y-96331649D01*
X181578375Y-96331649D02*
X181435518Y-96379268D01*
X181435518Y-96379268D02*
X181340280Y-96474506D01*
X181340280Y-96474506D02*
X181292661Y-96569744D01*
X181292661Y-96569744D02*
X181245042Y-96760220D01*
X181245042Y-96760220D02*
X181245042Y-96903077D01*
X181245042Y-96903077D02*
X181292661Y-97093553D01*
X181292661Y-97093553D02*
X181340280Y-97188791D01*
X181340280Y-97188791D02*
X181435518Y-97284030D01*
X181435518Y-97284030D02*
X181578375Y-97331649D01*
X181578375Y-97331649D02*
X181816470Y-97331649D01*
X180911708Y-96331649D02*
X180292661Y-96331649D01*
X180292661Y-96331649D02*
X180625994Y-96712601D01*
X180625994Y-96712601D02*
X180483137Y-96712601D01*
X180483137Y-96712601D02*
X180387899Y-96760220D01*
X180387899Y-96760220D02*
X180340280Y-96807839D01*
X180340280Y-96807839D02*
X180292661Y-96903077D01*
X180292661Y-96903077D02*
X180292661Y-97141172D01*
X180292661Y-97141172D02*
X180340280Y-97236410D01*
X180340280Y-97236410D02*
X180387899Y-97284030D01*
X180387899Y-97284030D02*
X180483137Y-97331649D01*
X180483137Y-97331649D02*
X180768851Y-97331649D01*
X180768851Y-97331649D02*
X180864089Y-97284030D01*
X180864089Y-97284030D02*
X180911708Y-97236410D01*
X179435518Y-96664982D02*
X179435518Y-97331649D01*
X179673613Y-96284030D02*
X179911708Y-96998315D01*
X179911708Y-96998315D02*
X179292661Y-96998315D01*
X270382095Y-78281649D02*
X270382095Y-77281649D01*
X270382095Y-77281649D02*
X270144000Y-77281649D01*
X270144000Y-77281649D02*
X270001143Y-77329268D01*
X270001143Y-77329268D02*
X269905905Y-77424506D01*
X269905905Y-77424506D02*
X269858286Y-77519744D01*
X269858286Y-77519744D02*
X269810667Y-77710220D01*
X269810667Y-77710220D02*
X269810667Y-77853077D01*
X269810667Y-77853077D02*
X269858286Y-78043553D01*
X269858286Y-78043553D02*
X269905905Y-78138791D01*
X269905905Y-78138791D02*
X270001143Y-78234030D01*
X270001143Y-78234030D02*
X270144000Y-78281649D01*
X270144000Y-78281649D02*
X270382095Y-78281649D01*
X269429714Y-77376887D02*
X269382095Y-77329268D01*
X269382095Y-77329268D02*
X269286857Y-77281649D01*
X269286857Y-77281649D02*
X269048762Y-77281649D01*
X269048762Y-77281649D02*
X268953524Y-77329268D01*
X268953524Y-77329268D02*
X268905905Y-77376887D01*
X268905905Y-77376887D02*
X268858286Y-77472125D01*
X268858286Y-77472125D02*
X268858286Y-77567363D01*
X268858286Y-77567363D02*
X268905905Y-77710220D01*
X268905905Y-77710220D02*
X269477333Y-78281649D01*
X269477333Y-78281649D02*
X268858286Y-78281649D01*
X267953524Y-77281649D02*
X268429714Y-77281649D01*
X268429714Y-77281649D02*
X268477333Y-77757839D01*
X268477333Y-77757839D02*
X268429714Y-77710220D01*
X268429714Y-77710220D02*
X268334476Y-77662601D01*
X268334476Y-77662601D02*
X268096381Y-77662601D01*
X268096381Y-77662601D02*
X268001143Y-77710220D01*
X268001143Y-77710220D02*
X267953524Y-77757839D01*
X267953524Y-77757839D02*
X267905905Y-77853077D01*
X267905905Y-77853077D02*
X267905905Y-78091172D01*
X267905905Y-78091172D02*
X267953524Y-78186410D01*
X267953524Y-78186410D02*
X268001143Y-78234030D01*
X268001143Y-78234030D02*
X268096381Y-78281649D01*
X268096381Y-78281649D02*
X268334476Y-78281649D01*
X268334476Y-78281649D02*
X268429714Y-78234030D01*
X268429714Y-78234030D02*
X268477333Y-78186410D01*
X135405904Y-75091024D02*
X135405904Y-74091024D01*
X135405904Y-74567214D02*
X134834476Y-74567214D01*
X134834476Y-75091024D02*
X134834476Y-74091024D01*
X133929714Y-74424357D02*
X133929714Y-75091024D01*
X134167809Y-74043405D02*
X134405904Y-74757690D01*
X134405904Y-74757690D02*
X133786857Y-74757690D01*
X133215428Y-74091024D02*
X133120190Y-74091024D01*
X133120190Y-74091024D02*
X133024952Y-74138643D01*
X133024952Y-74138643D02*
X132977333Y-74186262D01*
X132977333Y-74186262D02*
X132929714Y-74281500D01*
X132929714Y-74281500D02*
X132882095Y-74471976D01*
X132882095Y-74471976D02*
X132882095Y-74710071D01*
X132882095Y-74710071D02*
X132929714Y-74900547D01*
X132929714Y-74900547D02*
X132977333Y-74995785D01*
X132977333Y-74995785D02*
X133024952Y-75043405D01*
X133024952Y-75043405D02*
X133120190Y-75091024D01*
X133120190Y-75091024D02*
X133215428Y-75091024D01*
X133215428Y-75091024D02*
X133310666Y-75043405D01*
X133310666Y-75043405D02*
X133358285Y-74995785D01*
X133358285Y-74995785D02*
X133405904Y-74900547D01*
X133405904Y-74900547D02*
X133453523Y-74710071D01*
X133453523Y-74710071D02*
X133453523Y-74471976D01*
X133453523Y-74471976D02*
X133405904Y-74281500D01*
X133405904Y-74281500D02*
X133358285Y-74186262D01*
X133358285Y-74186262D02*
X133310666Y-74138643D01*
X133310666Y-74138643D02*
X133215428Y-74091024D01*
D10*
X22679625Y-66645071D02*
X22703435Y-66621262D01*
X22703435Y-66621262D02*
X22727244Y-66549833D01*
X22727244Y-66549833D02*
X22727244Y-66502214D01*
X22727244Y-66502214D02*
X22703435Y-66430786D01*
X22703435Y-66430786D02*
X22655815Y-66383167D01*
X22655815Y-66383167D02*
X22608196Y-66359357D01*
X22608196Y-66359357D02*
X22512958Y-66335548D01*
X22512958Y-66335548D02*
X22441530Y-66335548D01*
X22441530Y-66335548D02*
X22346292Y-66359357D01*
X22346292Y-66359357D02*
X22298673Y-66383167D01*
X22298673Y-66383167D02*
X22251054Y-66430786D01*
X22251054Y-66430786D02*
X22227244Y-66502214D01*
X22227244Y-66502214D02*
X22227244Y-66549833D01*
X22227244Y-66549833D02*
X22251054Y-66621262D01*
X22251054Y-66621262D02*
X22274863Y-66645071D01*
X22727244Y-66883167D02*
X22727244Y-66978405D01*
X22727244Y-66978405D02*
X22703435Y-67026024D01*
X22703435Y-67026024D02*
X22679625Y-67049833D01*
X22679625Y-67049833D02*
X22608196Y-67097452D01*
X22608196Y-67097452D02*
X22512958Y-67121262D01*
X22512958Y-67121262D02*
X22322482Y-67121262D01*
X22322482Y-67121262D02*
X22274863Y-67097452D01*
X22274863Y-67097452D02*
X22251054Y-67073643D01*
X22251054Y-67073643D02*
X22227244Y-67026024D01*
X22227244Y-67026024D02*
X22227244Y-66930786D01*
X22227244Y-66930786D02*
X22251054Y-66883167D01*
X22251054Y-66883167D02*
X22274863Y-66859357D01*
X22274863Y-66859357D02*
X22322482Y-66835548D01*
X22322482Y-66835548D02*
X22441530Y-66835548D01*
X22441530Y-66835548D02*
X22489149Y-66859357D01*
X22489149Y-66859357D02*
X22512958Y-66883167D01*
X22512958Y-66883167D02*
X22536768Y-66930786D01*
X22536768Y-66930786D02*
X22536768Y-67026024D01*
X22536768Y-67026024D02*
X22512958Y-67073643D01*
X22512958Y-67073643D02*
X22489149Y-67097452D01*
X22489149Y-67097452D02*
X22441530Y-67121262D01*
D11*
X245657839Y-28656649D02*
X245657839Y-27656649D01*
X245657839Y-28132839D02*
X245086411Y-28132839D01*
X245086411Y-28656649D02*
X245086411Y-27656649D01*
X244562601Y-28656649D02*
X244372125Y-28656649D01*
X244372125Y-28656649D02*
X244276887Y-28609030D01*
X244276887Y-28609030D02*
X244229268Y-28561410D01*
X244229268Y-28561410D02*
X244134030Y-28418553D01*
X244134030Y-28418553D02*
X244086411Y-28228077D01*
X244086411Y-28228077D02*
X244086411Y-27847125D01*
X244086411Y-27847125D02*
X244134030Y-27751887D01*
X244134030Y-27751887D02*
X244181649Y-27704268D01*
X244181649Y-27704268D02*
X244276887Y-27656649D01*
X244276887Y-27656649D02*
X244467363Y-27656649D01*
X244467363Y-27656649D02*
X244562601Y-27704268D01*
X244562601Y-27704268D02*
X244610220Y-27751887D01*
X244610220Y-27751887D02*
X244657839Y-27847125D01*
X244657839Y-27847125D02*
X244657839Y-28085220D01*
X244657839Y-28085220D02*
X244610220Y-28180458D01*
X244610220Y-28180458D02*
X244562601Y-28228077D01*
X244562601Y-28228077D02*
X244467363Y-28275696D01*
X244467363Y-28275696D02*
X244276887Y-28275696D01*
X244276887Y-28275696D02*
X244181649Y-28228077D01*
X244181649Y-28228077D02*
X244134030Y-28180458D01*
X244134030Y-28180458D02*
X244086411Y-28085220D01*
X122309029Y-52469149D02*
X122309029Y-51469149D01*
X122309029Y-51945339D02*
X121737601Y-51945339D01*
X121737601Y-52469149D02*
X121737601Y-51469149D01*
X120737601Y-52469149D02*
X121309029Y-52469149D01*
X121023315Y-52469149D02*
X121023315Y-51469149D01*
X121023315Y-51469149D02*
X121118553Y-51612006D01*
X121118553Y-51612006D02*
X121213791Y-51707244D01*
X121213791Y-51707244D02*
X121309029Y-51754863D01*
X120404267Y-51469149D02*
X119785220Y-51469149D01*
X119785220Y-51469149D02*
X120118553Y-51850101D01*
X120118553Y-51850101D02*
X119975696Y-51850101D01*
X119975696Y-51850101D02*
X119880458Y-51897720D01*
X119880458Y-51897720D02*
X119832839Y-51945339D01*
X119832839Y-51945339D02*
X119785220Y-52040577D01*
X119785220Y-52040577D02*
X119785220Y-52278672D01*
X119785220Y-52278672D02*
X119832839Y-52373910D01*
X119832839Y-52373910D02*
X119880458Y-52421530D01*
X119880458Y-52421530D02*
X119975696Y-52469149D01*
X119975696Y-52469149D02*
X120261410Y-52469149D01*
X120261410Y-52469149D02*
X120356648Y-52421530D01*
X120356648Y-52421530D02*
X120404267Y-52373910D01*
X36084029Y-59231649D02*
X36084029Y-58231649D01*
X36084029Y-58231649D02*
X35845934Y-58231649D01*
X35845934Y-58231649D02*
X35703077Y-58279268D01*
X35703077Y-58279268D02*
X35607839Y-58374506D01*
X35607839Y-58374506D02*
X35560220Y-58469744D01*
X35560220Y-58469744D02*
X35512601Y-58660220D01*
X35512601Y-58660220D02*
X35512601Y-58803077D01*
X35512601Y-58803077D02*
X35560220Y-58993553D01*
X35560220Y-58993553D02*
X35607839Y-59088791D01*
X35607839Y-59088791D02*
X35703077Y-59184030D01*
X35703077Y-59184030D02*
X35845934Y-59231649D01*
X35845934Y-59231649D02*
X36084029Y-59231649D01*
X34607839Y-58231649D02*
X35084029Y-58231649D01*
X35084029Y-58231649D02*
X35131648Y-58707839D01*
X35131648Y-58707839D02*
X35084029Y-58660220D01*
X35084029Y-58660220D02*
X34988791Y-58612601D01*
X34988791Y-58612601D02*
X34750696Y-58612601D01*
X34750696Y-58612601D02*
X34655458Y-58660220D01*
X34655458Y-58660220D02*
X34607839Y-58707839D01*
X34607839Y-58707839D02*
X34560220Y-58803077D01*
X34560220Y-58803077D02*
X34560220Y-59041172D01*
X34560220Y-59041172D02*
X34607839Y-59136410D01*
X34607839Y-59136410D02*
X34655458Y-59184030D01*
X34655458Y-59184030D02*
X34750696Y-59231649D01*
X34750696Y-59231649D02*
X34988791Y-59231649D01*
X34988791Y-59231649D02*
X35084029Y-59184030D01*
X35084029Y-59184030D02*
X35131648Y-59136410D01*
X228965279Y-40181649D02*
X228965279Y-39181649D01*
X228965279Y-39181649D02*
X228727184Y-39181649D01*
X228727184Y-39181649D02*
X228584327Y-39229268D01*
X228584327Y-39229268D02*
X228489089Y-39324506D01*
X228489089Y-39324506D02*
X228441470Y-39419744D01*
X228441470Y-39419744D02*
X228393851Y-39610220D01*
X228393851Y-39610220D02*
X228393851Y-39753077D01*
X228393851Y-39753077D02*
X228441470Y-39943553D01*
X228441470Y-39943553D02*
X228489089Y-40038791D01*
X228489089Y-40038791D02*
X228584327Y-40134030D01*
X228584327Y-40134030D02*
X228727184Y-40181649D01*
X228727184Y-40181649D02*
X228965279Y-40181649D01*
X228060517Y-39181649D02*
X227441470Y-39181649D01*
X227441470Y-39181649D02*
X227774803Y-39562601D01*
X227774803Y-39562601D02*
X227631946Y-39562601D01*
X227631946Y-39562601D02*
X227536708Y-39610220D01*
X227536708Y-39610220D02*
X227489089Y-39657839D01*
X227489089Y-39657839D02*
X227441470Y-39753077D01*
X227441470Y-39753077D02*
X227441470Y-39991172D01*
X227441470Y-39991172D02*
X227489089Y-40086410D01*
X227489089Y-40086410D02*
X227536708Y-40134030D01*
X227536708Y-40134030D02*
X227631946Y-40181649D01*
X227631946Y-40181649D02*
X227917660Y-40181649D01*
X227917660Y-40181649D02*
X228012898Y-40134030D01*
X228012898Y-40134030D02*
X228060517Y-40086410D01*
X21105904Y-52469149D02*
X21105904Y-51469149D01*
X21105904Y-51945339D02*
X20534476Y-51945339D01*
X20534476Y-52469149D02*
X20534476Y-51469149D01*
X19534476Y-52469149D02*
X20105904Y-52469149D01*
X19820190Y-52469149D02*
X19820190Y-51469149D01*
X19820190Y-51469149D02*
X19915428Y-51612006D01*
X19915428Y-51612006D02*
X20010666Y-51707244D01*
X20010666Y-51707244D02*
X20105904Y-51754863D01*
X18582095Y-52469149D02*
X19153523Y-52469149D01*
X18867809Y-52469149D02*
X18867809Y-51469149D01*
X18867809Y-51469149D02*
X18963047Y-51612006D01*
X18963047Y-51612006D02*
X19058285Y-51707244D01*
X19058285Y-51707244D02*
X19153523Y-51754863D01*
X288972720Y-59231649D02*
X288972720Y-58231649D01*
X288972720Y-58231649D02*
X288734625Y-58231649D01*
X288734625Y-58231649D02*
X288591768Y-58279268D01*
X288591768Y-58279268D02*
X288496530Y-58374506D01*
X288496530Y-58374506D02*
X288448911Y-58469744D01*
X288448911Y-58469744D02*
X288401292Y-58660220D01*
X288401292Y-58660220D02*
X288401292Y-58803077D01*
X288401292Y-58803077D02*
X288448911Y-58993553D01*
X288448911Y-58993553D02*
X288496530Y-59088791D01*
X288496530Y-59088791D02*
X288591768Y-59184030D01*
X288591768Y-59184030D02*
X288734625Y-59231649D01*
X288734625Y-59231649D02*
X288972720Y-59231649D01*
X287448911Y-59231649D02*
X288020339Y-59231649D01*
X287734625Y-59231649D02*
X287734625Y-58231649D01*
X287734625Y-58231649D02*
X287829863Y-58374506D01*
X287829863Y-58374506D02*
X287925101Y-58469744D01*
X287925101Y-58469744D02*
X288020339Y-58517363D01*
X286591768Y-58564982D02*
X286591768Y-59231649D01*
X286829863Y-58184030D02*
X287067958Y-58898315D01*
X287067958Y-58898315D02*
X286448911Y-58898315D01*
X95615279Y-40181649D02*
X95615279Y-39181649D01*
X95615279Y-39181649D02*
X95377184Y-39181649D01*
X95377184Y-39181649D02*
X95234327Y-39229268D01*
X95234327Y-39229268D02*
X95139089Y-39324506D01*
X95139089Y-39324506D02*
X95091470Y-39419744D01*
X95091470Y-39419744D02*
X95043851Y-39610220D01*
X95043851Y-39610220D02*
X95043851Y-39753077D01*
X95043851Y-39753077D02*
X95091470Y-39943553D01*
X95091470Y-39943553D02*
X95139089Y-40038791D01*
X95139089Y-40038791D02*
X95234327Y-40134030D01*
X95234327Y-40134030D02*
X95377184Y-40181649D01*
X95377184Y-40181649D02*
X95615279Y-40181649D01*
X94662898Y-39276887D02*
X94615279Y-39229268D01*
X94615279Y-39229268D02*
X94520041Y-39181649D01*
X94520041Y-39181649D02*
X94281946Y-39181649D01*
X94281946Y-39181649D02*
X94186708Y-39229268D01*
X94186708Y-39229268D02*
X94139089Y-39276887D01*
X94139089Y-39276887D02*
X94091470Y-39372125D01*
X94091470Y-39372125D02*
X94091470Y-39467363D01*
X94091470Y-39467363D02*
X94139089Y-39610220D01*
X94139089Y-39610220D02*
X94710517Y-40181649D01*
X94710517Y-40181649D02*
X94091470Y-40181649D01*
X40132095Y-78281649D02*
X40132095Y-77281649D01*
X40132095Y-77281649D02*
X39894000Y-77281649D01*
X39894000Y-77281649D02*
X39751143Y-77329268D01*
X39751143Y-77329268D02*
X39655905Y-77424506D01*
X39655905Y-77424506D02*
X39608286Y-77519744D01*
X39608286Y-77519744D02*
X39560667Y-77710220D01*
X39560667Y-77710220D02*
X39560667Y-77853077D01*
X39560667Y-77853077D02*
X39608286Y-78043553D01*
X39608286Y-78043553D02*
X39655905Y-78138791D01*
X39655905Y-78138791D02*
X39751143Y-78234030D01*
X39751143Y-78234030D02*
X39894000Y-78281649D01*
X39894000Y-78281649D02*
X40132095Y-78281649D01*
X38608286Y-78281649D02*
X39179714Y-78281649D01*
X38894000Y-78281649D02*
X38894000Y-77281649D01*
X38894000Y-77281649D02*
X38989238Y-77424506D01*
X38989238Y-77424506D02*
X39084476Y-77519744D01*
X39084476Y-77519744D02*
X39179714Y-77567363D01*
X37703524Y-77281649D02*
X38179714Y-77281649D01*
X38179714Y-77281649D02*
X38227333Y-77757839D01*
X38227333Y-77757839D02*
X38179714Y-77710220D01*
X38179714Y-77710220D02*
X38084476Y-77662601D01*
X38084476Y-77662601D02*
X37846381Y-77662601D01*
X37846381Y-77662601D02*
X37751143Y-77710220D01*
X37751143Y-77710220D02*
X37703524Y-77757839D01*
X37703524Y-77757839D02*
X37655905Y-77853077D01*
X37655905Y-77853077D02*
X37655905Y-78091172D01*
X37655905Y-78091172D02*
X37703524Y-78186410D01*
X37703524Y-78186410D02*
X37751143Y-78234030D01*
X37751143Y-78234030D02*
X37846381Y-78281649D01*
X37846381Y-78281649D02*
X38084476Y-78281649D01*
X38084476Y-78281649D02*
X38179714Y-78234030D01*
X38179714Y-78234030D02*
X38227333Y-78186410D01*
X279447720Y-78281649D02*
X279447720Y-77281649D01*
X279447720Y-77281649D02*
X279209625Y-77281649D01*
X279209625Y-77281649D02*
X279066768Y-77329268D01*
X279066768Y-77329268D02*
X278971530Y-77424506D01*
X278971530Y-77424506D02*
X278923911Y-77519744D01*
X278923911Y-77519744D02*
X278876292Y-77710220D01*
X278876292Y-77710220D02*
X278876292Y-77853077D01*
X278876292Y-77853077D02*
X278923911Y-78043553D01*
X278923911Y-78043553D02*
X278971530Y-78138791D01*
X278971530Y-78138791D02*
X279066768Y-78234030D01*
X279066768Y-78234030D02*
X279209625Y-78281649D01*
X279209625Y-78281649D02*
X279447720Y-78281649D01*
X278495339Y-77376887D02*
X278447720Y-77329268D01*
X278447720Y-77329268D02*
X278352482Y-77281649D01*
X278352482Y-77281649D02*
X278114387Y-77281649D01*
X278114387Y-77281649D02*
X278019149Y-77329268D01*
X278019149Y-77329268D02*
X277971530Y-77376887D01*
X277971530Y-77376887D02*
X277923911Y-77472125D01*
X277923911Y-77472125D02*
X277923911Y-77567363D01*
X277923911Y-77567363D02*
X277971530Y-77710220D01*
X277971530Y-77710220D02*
X278542958Y-78281649D01*
X278542958Y-78281649D02*
X277923911Y-78281649D01*
X277066768Y-77281649D02*
X277257244Y-77281649D01*
X277257244Y-77281649D02*
X277352482Y-77329268D01*
X277352482Y-77329268D02*
X277400101Y-77376887D01*
X277400101Y-77376887D02*
X277495339Y-77519744D01*
X277495339Y-77519744D02*
X277542958Y-77710220D01*
X277542958Y-77710220D02*
X277542958Y-78091172D01*
X277542958Y-78091172D02*
X277495339Y-78186410D01*
X277495339Y-78186410D02*
X277447720Y-78234030D01*
X277447720Y-78234030D02*
X277352482Y-78281649D01*
X277352482Y-78281649D02*
X277162006Y-78281649D01*
X277162006Y-78281649D02*
X277066768Y-78234030D01*
X277066768Y-78234030D02*
X277019149Y-78186410D01*
X277019149Y-78186410D02*
X276971530Y-78091172D01*
X276971530Y-78091172D02*
X276971530Y-77853077D01*
X276971530Y-77853077D02*
X277019149Y-77757839D01*
X277019149Y-77757839D02*
X277066768Y-77710220D01*
X277066768Y-77710220D02*
X277162006Y-77662601D01*
X277162006Y-77662601D02*
X277352482Y-77662601D01*
X277352482Y-77662601D02*
X277447720Y-77710220D01*
X277447720Y-77710220D02*
X277495339Y-77757839D01*
X277495339Y-77757839D02*
X277542958Y-77853077D01*
X48466469Y-97331649D02*
X48466469Y-96331649D01*
X48466469Y-96331649D02*
X48228374Y-96331649D01*
X48228374Y-96331649D02*
X48085517Y-96379268D01*
X48085517Y-96379268D02*
X47990279Y-96474506D01*
X47990279Y-96474506D02*
X47942660Y-96569744D01*
X47942660Y-96569744D02*
X47895041Y-96760220D01*
X47895041Y-96760220D02*
X47895041Y-96903077D01*
X47895041Y-96903077D02*
X47942660Y-97093553D01*
X47942660Y-97093553D02*
X47990279Y-97188791D01*
X47990279Y-97188791D02*
X48085517Y-97284030D01*
X48085517Y-97284030D02*
X48228374Y-97331649D01*
X48228374Y-97331649D02*
X48466469Y-97331649D01*
X47514088Y-96426887D02*
X47466469Y-96379268D01*
X47466469Y-96379268D02*
X47371231Y-96331649D01*
X47371231Y-96331649D02*
X47133136Y-96331649D01*
X47133136Y-96331649D02*
X47037898Y-96379268D01*
X47037898Y-96379268D02*
X46990279Y-96426887D01*
X46990279Y-96426887D02*
X46942660Y-96522125D01*
X46942660Y-96522125D02*
X46942660Y-96617363D01*
X46942660Y-96617363D02*
X46990279Y-96760220D01*
X46990279Y-96760220D02*
X47561707Y-97331649D01*
X47561707Y-97331649D02*
X46942660Y-97331649D01*
X46371231Y-96760220D02*
X46466469Y-96712601D01*
X46466469Y-96712601D02*
X46514088Y-96664982D01*
X46514088Y-96664982D02*
X46561707Y-96569744D01*
X46561707Y-96569744D02*
X46561707Y-96522125D01*
X46561707Y-96522125D02*
X46514088Y-96426887D01*
X46514088Y-96426887D02*
X46466469Y-96379268D01*
X46466469Y-96379268D02*
X46371231Y-96331649D01*
X46371231Y-96331649D02*
X46180755Y-96331649D01*
X46180755Y-96331649D02*
X46085517Y-96379268D01*
X46085517Y-96379268D02*
X46037898Y-96426887D01*
X46037898Y-96426887D02*
X45990279Y-96522125D01*
X45990279Y-96522125D02*
X45990279Y-96569744D01*
X45990279Y-96569744D02*
X46037898Y-96664982D01*
X46037898Y-96664982D02*
X46085517Y-96712601D01*
X46085517Y-96712601D02*
X46180755Y-96760220D01*
X46180755Y-96760220D02*
X46371231Y-96760220D01*
X46371231Y-96760220D02*
X46466469Y-96807839D01*
X46466469Y-96807839D02*
X46514088Y-96855458D01*
X46514088Y-96855458D02*
X46561707Y-96950696D01*
X46561707Y-96950696D02*
X46561707Y-97141172D01*
X46561707Y-97141172D02*
X46514088Y-97236410D01*
X46514088Y-97236410D02*
X46466469Y-97284030D01*
X46466469Y-97284030D02*
X46371231Y-97331649D01*
X46371231Y-97331649D02*
X46180755Y-97331649D01*
X46180755Y-97331649D02*
X46085517Y-97284030D01*
X46085517Y-97284030D02*
X46037898Y-97236410D01*
X46037898Y-97236410D02*
X45990279Y-97141172D01*
X45990279Y-97141172D02*
X45990279Y-96950696D01*
X45990279Y-96950696D02*
X46037898Y-96855458D01*
X46037898Y-96855458D02*
X46085517Y-96807839D01*
X46085517Y-96807839D02*
X46180755Y-96760220D01*
X67516470Y-78281649D02*
X67516470Y-77281649D01*
X67516470Y-77281649D02*
X67278375Y-77281649D01*
X67278375Y-77281649D02*
X67135518Y-77329268D01*
X67135518Y-77329268D02*
X67040280Y-77424506D01*
X67040280Y-77424506D02*
X66992661Y-77519744D01*
X66992661Y-77519744D02*
X66945042Y-77710220D01*
X66945042Y-77710220D02*
X66945042Y-77853077D01*
X66945042Y-77853077D02*
X66992661Y-78043553D01*
X66992661Y-78043553D02*
X67040280Y-78138791D01*
X67040280Y-78138791D02*
X67135518Y-78234030D01*
X67135518Y-78234030D02*
X67278375Y-78281649D01*
X67278375Y-78281649D02*
X67516470Y-78281649D01*
X65992661Y-78281649D02*
X66564089Y-78281649D01*
X66278375Y-78281649D02*
X66278375Y-77281649D01*
X66278375Y-77281649D02*
X66373613Y-77424506D01*
X66373613Y-77424506D02*
X66468851Y-77519744D01*
X66468851Y-77519744D02*
X66564089Y-77567363D01*
X65659327Y-77281649D02*
X64992661Y-77281649D01*
X64992661Y-77281649D02*
X65421232Y-78281649D01*
X105616470Y-78281649D02*
X105616470Y-77281649D01*
X105616470Y-77281649D02*
X105378375Y-77281649D01*
X105378375Y-77281649D02*
X105235518Y-77329268D01*
X105235518Y-77329268D02*
X105140280Y-77424506D01*
X105140280Y-77424506D02*
X105092661Y-77519744D01*
X105092661Y-77519744D02*
X105045042Y-77710220D01*
X105045042Y-77710220D02*
X105045042Y-77853077D01*
X105045042Y-77853077D02*
X105092661Y-78043553D01*
X105092661Y-78043553D02*
X105140280Y-78138791D01*
X105140280Y-78138791D02*
X105235518Y-78234030D01*
X105235518Y-78234030D02*
X105378375Y-78281649D01*
X105378375Y-78281649D02*
X105616470Y-78281649D01*
X104092661Y-78281649D02*
X104664089Y-78281649D01*
X104378375Y-78281649D02*
X104378375Y-77281649D01*
X104378375Y-77281649D02*
X104473613Y-77424506D01*
X104473613Y-77424506D02*
X104568851Y-77519744D01*
X104568851Y-77519744D02*
X104664089Y-77567363D01*
X103616470Y-78281649D02*
X103425994Y-78281649D01*
X103425994Y-78281649D02*
X103330756Y-78234030D01*
X103330756Y-78234030D02*
X103283137Y-78186410D01*
X103283137Y-78186410D02*
X103187899Y-78043553D01*
X103187899Y-78043553D02*
X103140280Y-77853077D01*
X103140280Y-77853077D02*
X103140280Y-77472125D01*
X103140280Y-77472125D02*
X103187899Y-77376887D01*
X103187899Y-77376887D02*
X103235518Y-77329268D01*
X103235518Y-77329268D02*
X103330756Y-77281649D01*
X103330756Y-77281649D02*
X103521232Y-77281649D01*
X103521232Y-77281649D02*
X103616470Y-77329268D01*
X103616470Y-77329268D02*
X103664089Y-77376887D01*
X103664089Y-77376887D02*
X103711708Y-77472125D01*
X103711708Y-77472125D02*
X103711708Y-77710220D01*
X103711708Y-77710220D02*
X103664089Y-77805458D01*
X103664089Y-77805458D02*
X103616470Y-77853077D01*
X103616470Y-77853077D02*
X103521232Y-77900696D01*
X103521232Y-77900696D02*
X103330756Y-77900696D01*
X103330756Y-77900696D02*
X103235518Y-77853077D01*
X103235518Y-77853077D02*
X103187899Y-77805458D01*
X103187899Y-77805458D02*
X103140280Y-77710220D01*
X124666470Y-78281649D02*
X124666470Y-77281649D01*
X124666470Y-77281649D02*
X124428375Y-77281649D01*
X124428375Y-77281649D02*
X124285518Y-77329268D01*
X124285518Y-77329268D02*
X124190280Y-77424506D01*
X124190280Y-77424506D02*
X124142661Y-77519744D01*
X124142661Y-77519744D02*
X124095042Y-77710220D01*
X124095042Y-77710220D02*
X124095042Y-77853077D01*
X124095042Y-77853077D02*
X124142661Y-78043553D01*
X124142661Y-78043553D02*
X124190280Y-78138791D01*
X124190280Y-78138791D02*
X124285518Y-78234030D01*
X124285518Y-78234030D02*
X124428375Y-78281649D01*
X124428375Y-78281649D02*
X124666470Y-78281649D01*
X123714089Y-77376887D02*
X123666470Y-77329268D01*
X123666470Y-77329268D02*
X123571232Y-77281649D01*
X123571232Y-77281649D02*
X123333137Y-77281649D01*
X123333137Y-77281649D02*
X123237899Y-77329268D01*
X123237899Y-77329268D02*
X123190280Y-77376887D01*
X123190280Y-77376887D02*
X123142661Y-77472125D01*
X123142661Y-77472125D02*
X123142661Y-77567363D01*
X123142661Y-77567363D02*
X123190280Y-77710220D01*
X123190280Y-77710220D02*
X123761708Y-78281649D01*
X123761708Y-78281649D02*
X123142661Y-78281649D01*
X122523613Y-77281649D02*
X122428375Y-77281649D01*
X122428375Y-77281649D02*
X122333137Y-77329268D01*
X122333137Y-77329268D02*
X122285518Y-77376887D01*
X122285518Y-77376887D02*
X122237899Y-77472125D01*
X122237899Y-77472125D02*
X122190280Y-77662601D01*
X122190280Y-77662601D02*
X122190280Y-77900696D01*
X122190280Y-77900696D02*
X122237899Y-78091172D01*
X122237899Y-78091172D02*
X122285518Y-78186410D01*
X122285518Y-78186410D02*
X122333137Y-78234030D01*
X122333137Y-78234030D02*
X122428375Y-78281649D01*
X122428375Y-78281649D02*
X122523613Y-78281649D01*
X122523613Y-78281649D02*
X122618851Y-78234030D01*
X122618851Y-78234030D02*
X122666470Y-78186410D01*
X122666470Y-78186410D02*
X122714089Y-78091172D01*
X122714089Y-78091172D02*
X122761708Y-77900696D01*
X122761708Y-77900696D02*
X122761708Y-77662601D01*
X122761708Y-77662601D02*
X122714089Y-77472125D01*
X122714089Y-77472125D02*
X122666470Y-77376887D01*
X122666470Y-77376887D02*
X122618851Y-77329268D01*
X122618851Y-77329268D02*
X122523613Y-77281649D01*
X255635220Y-97331649D02*
X255635220Y-96331649D01*
X255635220Y-96331649D02*
X255397125Y-96331649D01*
X255397125Y-96331649D02*
X255254268Y-96379268D01*
X255254268Y-96379268D02*
X255159030Y-96474506D01*
X255159030Y-96474506D02*
X255111411Y-96569744D01*
X255111411Y-96569744D02*
X255063792Y-96760220D01*
X255063792Y-96760220D02*
X255063792Y-96903077D01*
X255063792Y-96903077D02*
X255111411Y-97093553D01*
X255111411Y-97093553D02*
X255159030Y-97188791D01*
X255159030Y-97188791D02*
X255254268Y-97284030D01*
X255254268Y-97284030D02*
X255397125Y-97331649D01*
X255397125Y-97331649D02*
X255635220Y-97331649D01*
X254730458Y-96331649D02*
X254111411Y-96331649D01*
X254111411Y-96331649D02*
X254444744Y-96712601D01*
X254444744Y-96712601D02*
X254301887Y-96712601D01*
X254301887Y-96712601D02*
X254206649Y-96760220D01*
X254206649Y-96760220D02*
X254159030Y-96807839D01*
X254159030Y-96807839D02*
X254111411Y-96903077D01*
X254111411Y-96903077D02*
X254111411Y-97141172D01*
X254111411Y-97141172D02*
X254159030Y-97236410D01*
X254159030Y-97236410D02*
X254206649Y-97284030D01*
X254206649Y-97284030D02*
X254301887Y-97331649D01*
X254301887Y-97331649D02*
X254587601Y-97331649D01*
X254587601Y-97331649D02*
X254682839Y-97284030D01*
X254682839Y-97284030D02*
X254730458Y-97236410D01*
X253778077Y-96331649D02*
X253111411Y-96331649D01*
X253111411Y-96331649D02*
X253539982Y-97331649D01*
X114665279Y-59231649D02*
X114665279Y-58231649D01*
X114665279Y-58231649D02*
X114427184Y-58231649D01*
X114427184Y-58231649D02*
X114284327Y-58279268D01*
X114284327Y-58279268D02*
X114189089Y-58374506D01*
X114189089Y-58374506D02*
X114141470Y-58469744D01*
X114141470Y-58469744D02*
X114093851Y-58660220D01*
X114093851Y-58660220D02*
X114093851Y-58803077D01*
X114093851Y-58803077D02*
X114141470Y-58993553D01*
X114141470Y-58993553D02*
X114189089Y-59088791D01*
X114189089Y-59088791D02*
X114284327Y-59184030D01*
X114284327Y-59184030D02*
X114427184Y-59231649D01*
X114427184Y-59231649D02*
X114665279Y-59231649D01*
X113617660Y-59231649D02*
X113427184Y-59231649D01*
X113427184Y-59231649D02*
X113331946Y-59184030D01*
X113331946Y-59184030D02*
X113284327Y-59136410D01*
X113284327Y-59136410D02*
X113189089Y-58993553D01*
X113189089Y-58993553D02*
X113141470Y-58803077D01*
X113141470Y-58803077D02*
X113141470Y-58422125D01*
X113141470Y-58422125D02*
X113189089Y-58326887D01*
X113189089Y-58326887D02*
X113236708Y-58279268D01*
X113236708Y-58279268D02*
X113331946Y-58231649D01*
X113331946Y-58231649D02*
X113522422Y-58231649D01*
X113522422Y-58231649D02*
X113617660Y-58279268D01*
X113617660Y-58279268D02*
X113665279Y-58326887D01*
X113665279Y-58326887D02*
X113712898Y-58422125D01*
X113712898Y-58422125D02*
X113712898Y-58660220D01*
X113712898Y-58660220D02*
X113665279Y-58755458D01*
X113665279Y-58755458D02*
X113617660Y-58803077D01*
X113617660Y-58803077D02*
X113522422Y-58850696D01*
X113522422Y-58850696D02*
X113331946Y-58850696D01*
X113331946Y-58850696D02*
X113236708Y-58803077D01*
X113236708Y-58803077D02*
X113189089Y-58755458D01*
X113189089Y-58755458D02*
X113141470Y-58660220D01*
X167528970Y-97331649D02*
X167528970Y-96331649D01*
X167528970Y-96331649D02*
X167290875Y-96331649D01*
X167290875Y-96331649D02*
X167148018Y-96379268D01*
X167148018Y-96379268D02*
X167052780Y-96474506D01*
X167052780Y-96474506D02*
X167005161Y-96569744D01*
X167005161Y-96569744D02*
X166957542Y-96760220D01*
X166957542Y-96760220D02*
X166957542Y-96903077D01*
X166957542Y-96903077D02*
X167005161Y-97093553D01*
X167005161Y-97093553D02*
X167052780Y-97188791D01*
X167052780Y-97188791D02*
X167148018Y-97284030D01*
X167148018Y-97284030D02*
X167290875Y-97331649D01*
X167290875Y-97331649D02*
X167528970Y-97331649D01*
X166624208Y-96331649D02*
X166005161Y-96331649D01*
X166005161Y-96331649D02*
X166338494Y-96712601D01*
X166338494Y-96712601D02*
X166195637Y-96712601D01*
X166195637Y-96712601D02*
X166100399Y-96760220D01*
X166100399Y-96760220D02*
X166052780Y-96807839D01*
X166052780Y-96807839D02*
X166005161Y-96903077D01*
X166005161Y-96903077D02*
X166005161Y-97141172D01*
X166005161Y-97141172D02*
X166052780Y-97236410D01*
X166052780Y-97236410D02*
X166100399Y-97284030D01*
X166100399Y-97284030D02*
X166195637Y-97331649D01*
X166195637Y-97331649D02*
X166481351Y-97331649D01*
X166481351Y-97331649D02*
X166576589Y-97284030D01*
X166576589Y-97284030D02*
X166624208Y-97236410D01*
X165671827Y-96331649D02*
X165052780Y-96331649D01*
X165052780Y-96331649D02*
X165386113Y-96712601D01*
X165386113Y-96712601D02*
X165243256Y-96712601D01*
X165243256Y-96712601D02*
X165148018Y-96760220D01*
X165148018Y-96760220D02*
X165100399Y-96807839D01*
X165100399Y-96807839D02*
X165052780Y-96903077D01*
X165052780Y-96903077D02*
X165052780Y-97141172D01*
X165052780Y-97141172D02*
X165100399Y-97236410D01*
X165100399Y-97236410D02*
X165148018Y-97284030D01*
X165148018Y-97284030D02*
X165243256Y-97331649D01*
X165243256Y-97331649D02*
X165528970Y-97331649D01*
X165528970Y-97331649D02*
X165624208Y-97284030D01*
X165624208Y-97284030D02*
X165671827Y-97236410D01*
X69897720Y-97331649D02*
X69897720Y-96331649D01*
X69897720Y-96331649D02*
X69659625Y-96331649D01*
X69659625Y-96331649D02*
X69516768Y-96379268D01*
X69516768Y-96379268D02*
X69421530Y-96474506D01*
X69421530Y-96474506D02*
X69373911Y-96569744D01*
X69373911Y-96569744D02*
X69326292Y-96760220D01*
X69326292Y-96760220D02*
X69326292Y-96903077D01*
X69326292Y-96903077D02*
X69373911Y-97093553D01*
X69373911Y-97093553D02*
X69421530Y-97188791D01*
X69421530Y-97188791D02*
X69516768Y-97284030D01*
X69516768Y-97284030D02*
X69659625Y-97331649D01*
X69659625Y-97331649D02*
X69897720Y-97331649D01*
X68945339Y-96426887D02*
X68897720Y-96379268D01*
X68897720Y-96379268D02*
X68802482Y-96331649D01*
X68802482Y-96331649D02*
X68564387Y-96331649D01*
X68564387Y-96331649D02*
X68469149Y-96379268D01*
X68469149Y-96379268D02*
X68421530Y-96426887D01*
X68421530Y-96426887D02*
X68373911Y-96522125D01*
X68373911Y-96522125D02*
X68373911Y-96617363D01*
X68373911Y-96617363D02*
X68421530Y-96760220D01*
X68421530Y-96760220D02*
X68992958Y-97331649D01*
X68992958Y-97331649D02*
X68373911Y-97331649D01*
X67897720Y-97331649D02*
X67707244Y-97331649D01*
X67707244Y-97331649D02*
X67612006Y-97284030D01*
X67612006Y-97284030D02*
X67564387Y-97236410D01*
X67564387Y-97236410D02*
X67469149Y-97093553D01*
X67469149Y-97093553D02*
X67421530Y-96903077D01*
X67421530Y-96903077D02*
X67421530Y-96522125D01*
X67421530Y-96522125D02*
X67469149Y-96426887D01*
X67469149Y-96426887D02*
X67516768Y-96379268D01*
X67516768Y-96379268D02*
X67612006Y-96331649D01*
X67612006Y-96331649D02*
X67802482Y-96331649D01*
X67802482Y-96331649D02*
X67897720Y-96379268D01*
X67897720Y-96379268D02*
X67945339Y-96426887D01*
X67945339Y-96426887D02*
X67992958Y-96522125D01*
X67992958Y-96522125D02*
X67992958Y-96760220D01*
X67992958Y-96760220D02*
X67945339Y-96855458D01*
X67945339Y-96855458D02*
X67897720Y-96903077D01*
X67897720Y-96903077D02*
X67802482Y-96950696D01*
X67802482Y-96950696D02*
X67612006Y-96950696D01*
X67612006Y-96950696D02*
X67516768Y-96903077D01*
X67516768Y-96903077D02*
X67469149Y-96855458D01*
X67469149Y-96855458D02*
X67421530Y-96760220D01*
X267541470Y-59231649D02*
X267541470Y-58231649D01*
X267541470Y-58231649D02*
X267303375Y-58231649D01*
X267303375Y-58231649D02*
X267160518Y-58279268D01*
X267160518Y-58279268D02*
X267065280Y-58374506D01*
X267065280Y-58374506D02*
X267017661Y-58469744D01*
X267017661Y-58469744D02*
X266970042Y-58660220D01*
X266970042Y-58660220D02*
X266970042Y-58803077D01*
X266970042Y-58803077D02*
X267017661Y-58993553D01*
X267017661Y-58993553D02*
X267065280Y-59088791D01*
X267065280Y-59088791D02*
X267160518Y-59184030D01*
X267160518Y-59184030D02*
X267303375Y-59231649D01*
X267303375Y-59231649D02*
X267541470Y-59231649D01*
X266017661Y-59231649D02*
X266589089Y-59231649D01*
X266303375Y-59231649D02*
X266303375Y-58231649D01*
X266303375Y-58231649D02*
X266398613Y-58374506D01*
X266398613Y-58374506D02*
X266493851Y-58469744D01*
X266493851Y-58469744D02*
X266589089Y-58517363D01*
X265684327Y-58231649D02*
X265065280Y-58231649D01*
X265065280Y-58231649D02*
X265398613Y-58612601D01*
X265398613Y-58612601D02*
X265255756Y-58612601D01*
X265255756Y-58612601D02*
X265160518Y-58660220D01*
X265160518Y-58660220D02*
X265112899Y-58707839D01*
X265112899Y-58707839D02*
X265065280Y-58803077D01*
X265065280Y-58803077D02*
X265065280Y-59041172D01*
X265065280Y-59041172D02*
X265112899Y-59136410D01*
X265112899Y-59136410D02*
X265160518Y-59184030D01*
X265160518Y-59184030D02*
X265255756Y-59231649D01*
X265255756Y-59231649D02*
X265541470Y-59231649D01*
X265541470Y-59231649D02*
X265636708Y-59184030D01*
X265636708Y-59184030D02*
X265684327Y-59136410D01*
X48466470Y-78281649D02*
X48466470Y-77281649D01*
X48466470Y-77281649D02*
X48228375Y-77281649D01*
X48228375Y-77281649D02*
X48085518Y-77329268D01*
X48085518Y-77329268D02*
X47990280Y-77424506D01*
X47990280Y-77424506D02*
X47942661Y-77519744D01*
X47942661Y-77519744D02*
X47895042Y-77710220D01*
X47895042Y-77710220D02*
X47895042Y-77853077D01*
X47895042Y-77853077D02*
X47942661Y-78043553D01*
X47942661Y-78043553D02*
X47990280Y-78138791D01*
X47990280Y-78138791D02*
X48085518Y-78234030D01*
X48085518Y-78234030D02*
X48228375Y-78281649D01*
X48228375Y-78281649D02*
X48466470Y-78281649D01*
X46942661Y-78281649D02*
X47514089Y-78281649D01*
X47228375Y-78281649D02*
X47228375Y-77281649D01*
X47228375Y-77281649D02*
X47323613Y-77424506D01*
X47323613Y-77424506D02*
X47418851Y-77519744D01*
X47418851Y-77519744D02*
X47514089Y-77567363D01*
X46085518Y-77281649D02*
X46275994Y-77281649D01*
X46275994Y-77281649D02*
X46371232Y-77329268D01*
X46371232Y-77329268D02*
X46418851Y-77376887D01*
X46418851Y-77376887D02*
X46514089Y-77519744D01*
X46514089Y-77519744D02*
X46561708Y-77710220D01*
X46561708Y-77710220D02*
X46561708Y-78091172D01*
X46561708Y-78091172D02*
X46514089Y-78186410D01*
X46514089Y-78186410D02*
X46466470Y-78234030D01*
X46466470Y-78234030D02*
X46371232Y-78281649D01*
X46371232Y-78281649D02*
X46180756Y-78281649D01*
X46180756Y-78281649D02*
X46085518Y-78234030D01*
X46085518Y-78234030D02*
X46037899Y-78186410D01*
X46037899Y-78186410D02*
X45990280Y-78091172D01*
X45990280Y-78091172D02*
X45990280Y-77853077D01*
X45990280Y-77853077D02*
X46037899Y-77757839D01*
X46037899Y-77757839D02*
X46085518Y-77710220D01*
X46085518Y-77710220D02*
X46180756Y-77662601D01*
X46180756Y-77662601D02*
X46371232Y-77662601D01*
X46371232Y-77662601D02*
X46466470Y-77710220D01*
X46466470Y-77710220D02*
X46514089Y-77757839D01*
X46514089Y-77757839D02*
X46561708Y-77853077D01*
X76565279Y-40181649D02*
X76565279Y-39181649D01*
X76565279Y-39181649D02*
X76327184Y-39181649D01*
X76327184Y-39181649D02*
X76184327Y-39229268D01*
X76184327Y-39229268D02*
X76089089Y-39324506D01*
X76089089Y-39324506D02*
X76041470Y-39419744D01*
X76041470Y-39419744D02*
X75993851Y-39610220D01*
X75993851Y-39610220D02*
X75993851Y-39753077D01*
X75993851Y-39753077D02*
X76041470Y-39943553D01*
X76041470Y-39943553D02*
X76089089Y-40038791D01*
X76089089Y-40038791D02*
X76184327Y-40134030D01*
X76184327Y-40134030D02*
X76327184Y-40181649D01*
X76327184Y-40181649D02*
X76565279Y-40181649D01*
X75041470Y-40181649D02*
X75612898Y-40181649D01*
X75327184Y-40181649D02*
X75327184Y-39181649D01*
X75327184Y-39181649D02*
X75422422Y-39324506D01*
X75422422Y-39324506D02*
X75517660Y-39419744D01*
X75517660Y-39419744D02*
X75612898Y-39467363D01*
X248015279Y-40181649D02*
X248015279Y-39181649D01*
X248015279Y-39181649D02*
X247777184Y-39181649D01*
X247777184Y-39181649D02*
X247634327Y-39229268D01*
X247634327Y-39229268D02*
X247539089Y-39324506D01*
X247539089Y-39324506D02*
X247491470Y-39419744D01*
X247491470Y-39419744D02*
X247443851Y-39610220D01*
X247443851Y-39610220D02*
X247443851Y-39753077D01*
X247443851Y-39753077D02*
X247491470Y-39943553D01*
X247491470Y-39943553D02*
X247539089Y-40038791D01*
X247539089Y-40038791D02*
X247634327Y-40134030D01*
X247634327Y-40134030D02*
X247777184Y-40181649D01*
X247777184Y-40181649D02*
X248015279Y-40181649D01*
X246586708Y-39514982D02*
X246586708Y-40181649D01*
X246824803Y-39134030D02*
X247062898Y-39848315D01*
X247062898Y-39848315D02*
X246443851Y-39848315D01*
X231822720Y-97331649D02*
X231822720Y-96331649D01*
X231822720Y-96331649D02*
X231584625Y-96331649D01*
X231584625Y-96331649D02*
X231441768Y-96379268D01*
X231441768Y-96379268D02*
X231346530Y-96474506D01*
X231346530Y-96474506D02*
X231298911Y-96569744D01*
X231298911Y-96569744D02*
X231251292Y-96760220D01*
X231251292Y-96760220D02*
X231251292Y-96903077D01*
X231251292Y-96903077D02*
X231298911Y-97093553D01*
X231298911Y-97093553D02*
X231346530Y-97188791D01*
X231346530Y-97188791D02*
X231441768Y-97284030D01*
X231441768Y-97284030D02*
X231584625Y-97331649D01*
X231584625Y-97331649D02*
X231822720Y-97331649D01*
X230917958Y-96331649D02*
X230298911Y-96331649D01*
X230298911Y-96331649D02*
X230632244Y-96712601D01*
X230632244Y-96712601D02*
X230489387Y-96712601D01*
X230489387Y-96712601D02*
X230394149Y-96760220D01*
X230394149Y-96760220D02*
X230346530Y-96807839D01*
X230346530Y-96807839D02*
X230298911Y-96903077D01*
X230298911Y-96903077D02*
X230298911Y-97141172D01*
X230298911Y-97141172D02*
X230346530Y-97236410D01*
X230346530Y-97236410D02*
X230394149Y-97284030D01*
X230394149Y-97284030D02*
X230489387Y-97331649D01*
X230489387Y-97331649D02*
X230775101Y-97331649D01*
X230775101Y-97331649D02*
X230870339Y-97284030D01*
X230870339Y-97284030D02*
X230917958Y-97236410D01*
X229441768Y-96331649D02*
X229632244Y-96331649D01*
X229632244Y-96331649D02*
X229727482Y-96379268D01*
X229727482Y-96379268D02*
X229775101Y-96426887D01*
X229775101Y-96426887D02*
X229870339Y-96569744D01*
X229870339Y-96569744D02*
X229917958Y-96760220D01*
X229917958Y-96760220D02*
X229917958Y-97141172D01*
X229917958Y-97141172D02*
X229870339Y-97236410D01*
X229870339Y-97236410D02*
X229822720Y-97284030D01*
X229822720Y-97284030D02*
X229727482Y-97331649D01*
X229727482Y-97331649D02*
X229537006Y-97331649D01*
X229537006Y-97331649D02*
X229441768Y-97284030D01*
X229441768Y-97284030D02*
X229394149Y-97236410D01*
X229394149Y-97236410D02*
X229346530Y-97141172D01*
X229346530Y-97141172D02*
X229346530Y-96903077D01*
X229346530Y-96903077D02*
X229394149Y-96807839D01*
X229394149Y-96807839D02*
X229441768Y-96760220D01*
X229441768Y-96760220D02*
X229537006Y-96712601D01*
X229537006Y-96712601D02*
X229727482Y-96712601D01*
X229727482Y-96712601D02*
X229822720Y-96760220D01*
X229822720Y-96760220D02*
X229870339Y-96807839D01*
X229870339Y-96807839D02*
X229917958Y-96903077D01*
X299712154Y-21024274D02*
X299712154Y-20024274D01*
X299712154Y-20500464D02*
X299140726Y-20500464D01*
X299140726Y-21024274D02*
X299140726Y-20024274D01*
X298140726Y-21024274D02*
X298712154Y-21024274D01*
X298426440Y-21024274D02*
X298426440Y-20024274D01*
X298426440Y-20024274D02*
X298521678Y-20167131D01*
X298521678Y-20167131D02*
X298616916Y-20262369D01*
X298616916Y-20262369D02*
X298712154Y-20309988D01*
X297759773Y-20119512D02*
X297712154Y-20071893D01*
X297712154Y-20071893D02*
X297616916Y-20024274D01*
X297616916Y-20024274D02*
X297378821Y-20024274D01*
X297378821Y-20024274D02*
X297283583Y-20071893D01*
X297283583Y-20071893D02*
X297235964Y-20119512D01*
X297235964Y-20119512D02*
X297188345Y-20214750D01*
X297188345Y-20214750D02*
X297188345Y-20309988D01*
X297188345Y-20309988D02*
X297235964Y-20452845D01*
X297235964Y-20452845D02*
X297807392Y-21024274D01*
X297807392Y-21024274D02*
X297188345Y-21024274D01*
X185412154Y-75091024D02*
X185412154Y-74091024D01*
X185412154Y-74567214D02*
X184840726Y-74567214D01*
X184840726Y-75091024D02*
X184840726Y-74091024D01*
X183935964Y-74424357D02*
X183935964Y-75091024D01*
X184174059Y-74043405D02*
X184412154Y-74757690D01*
X184412154Y-74757690D02*
X183793107Y-74757690D01*
X182888345Y-75091024D02*
X183459773Y-75091024D01*
X183174059Y-75091024D02*
X183174059Y-74091024D01*
X183174059Y-74091024D02*
X183269297Y-74233881D01*
X183269297Y-74233881D02*
X183364535Y-74329119D01*
X183364535Y-74329119D02*
X183459773Y-74376738D01*
X57515279Y-59231649D02*
X57515279Y-58231649D01*
X57515279Y-58231649D02*
X57277184Y-58231649D01*
X57277184Y-58231649D02*
X57134327Y-58279268D01*
X57134327Y-58279268D02*
X57039089Y-58374506D01*
X57039089Y-58374506D02*
X56991470Y-58469744D01*
X56991470Y-58469744D02*
X56943851Y-58660220D01*
X56943851Y-58660220D02*
X56943851Y-58803077D01*
X56943851Y-58803077D02*
X56991470Y-58993553D01*
X56991470Y-58993553D02*
X57039089Y-59088791D01*
X57039089Y-59088791D02*
X57134327Y-59184030D01*
X57134327Y-59184030D02*
X57277184Y-59231649D01*
X57277184Y-59231649D02*
X57515279Y-59231649D01*
X56086708Y-58231649D02*
X56277184Y-58231649D01*
X56277184Y-58231649D02*
X56372422Y-58279268D01*
X56372422Y-58279268D02*
X56420041Y-58326887D01*
X56420041Y-58326887D02*
X56515279Y-58469744D01*
X56515279Y-58469744D02*
X56562898Y-58660220D01*
X56562898Y-58660220D02*
X56562898Y-59041172D01*
X56562898Y-59041172D02*
X56515279Y-59136410D01*
X56515279Y-59136410D02*
X56467660Y-59184030D01*
X56467660Y-59184030D02*
X56372422Y-59231649D01*
X56372422Y-59231649D02*
X56181946Y-59231649D01*
X56181946Y-59231649D02*
X56086708Y-59184030D01*
X56086708Y-59184030D02*
X56039089Y-59136410D01*
X56039089Y-59136410D02*
X55991470Y-59041172D01*
X55991470Y-59041172D02*
X55991470Y-58803077D01*
X55991470Y-58803077D02*
X56039089Y-58707839D01*
X56039089Y-58707839D02*
X56086708Y-58660220D01*
X56086708Y-58660220D02*
X56181946Y-58612601D01*
X56181946Y-58612601D02*
X56372422Y-58612601D01*
X56372422Y-58612601D02*
X56467660Y-58660220D01*
X56467660Y-58660220D02*
X56515279Y-58707839D01*
X56515279Y-58707839D02*
X56562898Y-58803077D01*
D15*
X30595935Y-26053405D02*
X30595935Y-27303405D01*
X30595935Y-27303405D02*
X32595935Y-27303405D01*
X32595935Y-26053405D02*
X30595935Y-26053405D01*
X32595935Y-27303405D02*
X32595935Y-26053405D01*
X39761100Y-37427454D02*
X40644984Y-36543570D01*
X40644984Y-36543570D02*
X39230770Y-35129356D01*
X38346886Y-36013240D02*
X39761100Y-37427454D01*
X39230770Y-35129356D02*
X38346886Y-36013240D01*
X59364393Y-41199356D02*
X58480509Y-42083240D01*
X58480509Y-42083240D02*
X59894723Y-43497454D01*
X60778607Y-42613570D02*
X59364393Y-41199356D01*
X59894723Y-43497454D02*
X60778607Y-42613570D01*
X82730000Y-25574655D02*
X82730000Y-30019655D01*
X82730000Y-30019655D02*
X83365000Y-30654655D01*
X83365000Y-30654655D02*
X85270000Y-30654655D01*
X85270000Y-25574655D02*
X82730000Y-25574655D01*
X85270000Y-30654655D02*
X85270000Y-25574655D01*
X42030770Y-34929356D02*
X41146886Y-35813240D01*
X41146886Y-35813240D02*
X42561100Y-37227454D01*
X43444984Y-36343570D02*
X42030770Y-34929356D01*
X42561100Y-37227454D02*
X43444984Y-36343570D01*
X50950189Y-28232045D02*
X48687448Y-30494786D01*
X50243083Y-27524938D02*
X50243083Y-28939151D01*
X49182422Y-26464278D02*
X50950189Y-28232045D01*
X48687448Y-30494786D02*
X46919681Y-28727019D01*
X46919681Y-28727019D02*
X49182422Y-26464278D01*
X45097895Y-30902358D02*
X44214011Y-31786242D01*
X44214011Y-31786242D02*
X45628225Y-33200456D01*
X46512109Y-32316572D02*
X45097895Y-30902358D01*
X45628225Y-33200456D02*
X46512109Y-32316572D01*
X60595935Y-27753405D02*
X60595935Y-29003405D01*
X60595935Y-29003405D02*
X62595935Y-29003405D01*
X62595935Y-27753405D02*
X60595935Y-27753405D01*
X62595935Y-29003405D02*
X62595935Y-27753405D01*
X63237727Y-36073481D02*
X64121611Y-36957365D01*
X64121611Y-36957365D02*
X65535825Y-35543151D01*
X64651941Y-34659267D02*
X63237727Y-36073481D01*
X65535825Y-35543151D02*
X64651941Y-34659267D01*
X49380310Y-53360905D02*
X55730310Y-53360905D01*
X55730310Y-53360905D02*
X57000310Y-52090905D01*
X57000310Y-52090905D02*
X57000310Y-48280905D01*
X49380310Y-48280905D02*
X49380310Y-53360905D01*
X57000310Y-48280905D02*
X49380310Y-48280905D01*
X59270935Y-21850280D02*
X59270935Y-20250280D01*
X59270935Y-20250280D02*
X56070935Y-20250280D01*
X56070935Y-21850280D02*
X59270935Y-21850280D01*
X56070935Y-20250280D02*
X56070935Y-21850280D01*
X38695935Y-27303405D02*
X38695935Y-26053405D01*
X38695935Y-26053405D02*
X36695935Y-26053405D01*
X36695935Y-27303405D02*
X38695935Y-27303405D01*
X36695935Y-26053405D02*
X36695935Y-27303405D01*
X27945935Y-22828405D02*
X25545935Y-22828405D01*
X25545935Y-22828405D02*
X25045935Y-23328405D01*
X25045935Y-23328405D02*
X25045935Y-24128405D01*
X27945935Y-24128405D02*
X27945935Y-22828405D01*
X25045935Y-24128405D02*
X27945935Y-24128405D01*
X44595975Y-63098765D02*
X44095975Y-63098765D01*
X44095975Y-63098765D02*
X44095975Y-64098765D01*
X40895975Y-63098765D02*
X40895975Y-64098765D01*
X40395975Y-63098765D02*
X40895975Y-63098765D01*
X44595975Y-63598765D02*
X44095975Y-63598765D01*
X40395975Y-63598765D02*
X40895975Y-63598765D01*
X43695975Y-63698765D02*
X45095975Y-65098765D01*
X41295975Y-63698765D02*
X43695975Y-63698765D01*
X43495975Y-64298765D02*
X41495975Y-64298765D01*
X41495975Y-64298765D02*
X40495975Y-65298765D01*
X44595975Y-64598765D02*
X44595975Y-63098765D01*
X40395975Y-64598765D02*
X40395975Y-63098765D01*
X45095975Y-65098765D02*
X45095975Y-67498765D01*
X39895975Y-65098765D02*
X41295975Y-63698765D01*
X44495975Y-65298765D02*
X43495975Y-64298765D01*
X40495975Y-65298765D02*
X40495975Y-67298765D01*
X44495975Y-67298765D02*
X44495975Y-65298765D01*
X40495975Y-67298765D02*
X41495975Y-68298765D01*
X45095975Y-67498765D02*
X43695975Y-68898765D01*
X39895975Y-67498765D02*
X39895975Y-65098765D01*
X44595975Y-67998765D02*
X44595975Y-69498765D01*
X40395975Y-67998765D02*
X40395975Y-69498765D01*
X43495975Y-68298765D02*
X44495975Y-67298765D01*
X41495975Y-68298765D02*
X43495975Y-68298765D01*
X43695975Y-68898765D02*
X41295975Y-68898765D01*
X41295975Y-68898765D02*
X39895975Y-67498765D01*
X44595975Y-68998765D02*
X44095975Y-68998765D01*
X40395975Y-68998765D02*
X40895975Y-68998765D01*
X44595975Y-69498765D02*
X44095975Y-69498765D01*
X44095975Y-69498765D02*
X44095975Y-68498765D01*
X40895975Y-69498765D02*
X40895975Y-68498765D01*
X40395975Y-69498765D02*
X40895975Y-69498765D01*
X43495975Y-66298765D02*
G75*
G03*
X43495975Y-66298765I-1000000J0D01*
G01*
X44876005Y-37779356D02*
X43992121Y-38663240D01*
X43992121Y-38663240D02*
X45406335Y-40077454D01*
X46290219Y-39193570D02*
X44876005Y-37779356D01*
X45406335Y-40077454D02*
X46290219Y-39193570D01*
X65184886Y-38015697D02*
X66068770Y-38899581D01*
X66068770Y-38899581D02*
X67482984Y-37485367D01*
X66599100Y-36601483D02*
X65184886Y-38015697D01*
X67482984Y-37485367D02*
X66599100Y-36601483D01*
X52771975Y-26056706D02*
X53655859Y-25172822D01*
X53655859Y-25172822D02*
X52241645Y-23758608D01*
X51357761Y-24642492D02*
X52771975Y-26056706D01*
X52241645Y-23758608D02*
X51357761Y-24642492D01*
X94445935Y-29929655D02*
X94445935Y-26004655D01*
X94445935Y-26004655D02*
X93470935Y-25029655D01*
X93470935Y-25029655D02*
X90545935Y-25029655D01*
X90545935Y-29929655D02*
X94445935Y-29929655D01*
X90545935Y-25029655D02*
X90545935Y-29929655D01*
X78795935Y-28759655D02*
X78795935Y-30009655D01*
X78795935Y-30009655D02*
X80795935Y-30009655D01*
X80795935Y-28759655D02*
X78795935Y-28759655D01*
X80795935Y-30009655D02*
X80795935Y-28759655D01*
X78795935Y-26378405D02*
X78795935Y-27628405D01*
X78795935Y-27628405D02*
X80795935Y-27628405D01*
X80795935Y-26378405D02*
X78795935Y-26378405D01*
X80795935Y-27628405D02*
X80795935Y-26378405D01*
X30375935Y-15878365D02*
X39315935Y-15878365D01*
X30375935Y-23178365D02*
X30375935Y-15878365D01*
X30375935Y-23178365D02*
X39315935Y-23178365D01*
X39315935Y-23178365D02*
X39315935Y-15878365D01*
X49558770Y-41395733D02*
X48674886Y-42279617D01*
X48674886Y-42279617D02*
X50089100Y-43693831D01*
X50972984Y-42809947D02*
X49558770Y-41395733D01*
X50089100Y-43693831D02*
X50972984Y-42809947D01*
X42606335Y-40227454D02*
X43490219Y-39343570D01*
X43490219Y-39343570D02*
X42076005Y-37929356D01*
X41192121Y-38813240D02*
X42606335Y-40227454D01*
X42076005Y-37929356D02*
X41192121Y-38813240D01*
X29313435Y-42228405D02*
X29313435Y-49213405D01*
X29313435Y-49213405D02*
X29948435Y-49848405D01*
X29948435Y-49848405D02*
X31853435Y-49848405D01*
X31853435Y-42228405D02*
X29313435Y-42228405D01*
X31853435Y-49848405D02*
X31853435Y-42228405D01*
X50636813Y-35083532D02*
X54879453Y-39326173D01*
X54879453Y-39326173D02*
X56293667Y-39326173D01*
X56293667Y-39326173D02*
X60536307Y-35083532D01*
X55586560Y-30133785D02*
X50636813Y-35083532D01*
X60536307Y-35083532D02*
X55586560Y-30133785D01*
X74427185Y-55869030D02*
X74427185Y-57669030D01*
X74427185Y-57669030D02*
X77227185Y-57669030D01*
X75077185Y-56769030D02*
X75477185Y-56769030D01*
X75477185Y-56769030D02*
X75477185Y-56219030D01*
X75477185Y-56769030D02*
X75477185Y-57319030D01*
X75477185Y-56769030D02*
X76077185Y-57169030D01*
X76077185Y-56369030D02*
X75477185Y-56769030D01*
X76077185Y-56769030D02*
X76577185Y-56769030D01*
X76077185Y-57169030D02*
X76077185Y-56369030D01*
X77227185Y-55869030D02*
X74427185Y-55869030D01*
X77227185Y-57669030D02*
X77227185Y-55869030D01*
X276833435Y-93969030D02*
X276833435Y-95769030D01*
X276833435Y-95769030D02*
X279633435Y-95769030D01*
X277483435Y-94869030D02*
X277883435Y-94869030D01*
X277883435Y-94869030D02*
X277883435Y-94319030D01*
X277883435Y-94869030D02*
X277883435Y-95419030D01*
X277883435Y-94869030D02*
X278483435Y-95269030D01*
X278483435Y-94469030D02*
X277883435Y-94869030D01*
X278483435Y-94869030D02*
X278983435Y-94869030D01*
X278483435Y-95269030D02*
X278483435Y-94469030D01*
X279633435Y-93969030D02*
X276833435Y-93969030D01*
X279633435Y-95769030D02*
X279633435Y-93969030D01*
X93477185Y-55869030D02*
X93477185Y-57669030D01*
X93477185Y-57669030D02*
X96277185Y-57669030D01*
X94127185Y-56769030D02*
X94527185Y-56769030D01*
X94527185Y-56769030D02*
X94527185Y-56219030D01*
X94527185Y-56769030D02*
X94527185Y-57319030D01*
X94527185Y-56769030D02*
X95127185Y-57169030D01*
X95127185Y-56369030D02*
X94527185Y-56769030D01*
X95127185Y-56769030D02*
X95627185Y-56769030D01*
X95127185Y-57169030D02*
X95127185Y-56369030D01*
X96277185Y-55869030D02*
X93477185Y-55869030D01*
X96277185Y-57669030D02*
X96277185Y-55869030D01*
X91095935Y-93969030D02*
X91095935Y-95769030D01*
X91095935Y-95769030D02*
X93895935Y-95769030D01*
X91745935Y-94869030D02*
X92145935Y-94869030D01*
X92145935Y-94869030D02*
X92145935Y-94319030D01*
X92145935Y-94869030D02*
X92145935Y-95419030D01*
X92145935Y-94869030D02*
X92745935Y-95269030D01*
X92745935Y-94469030D02*
X92145935Y-94869030D01*
X92745935Y-94869030D02*
X93245935Y-94869030D01*
X92745935Y-95269030D02*
X92745935Y-94469030D01*
X93895935Y-93969030D02*
X91095935Y-93969030D01*
X93895935Y-95769030D02*
X93895935Y-93969030D01*
X23120935Y-57478405D02*
X21870935Y-57478405D01*
X21870935Y-57478405D02*
X21870935Y-59478405D01*
X23120935Y-59478405D02*
X23120935Y-57478405D01*
X21870935Y-59478405D02*
X23120935Y-59478405D01*
X141102185Y-93969030D02*
X141102185Y-95769030D01*
X141102185Y-95769030D02*
X143902185Y-95769030D01*
X141752185Y-94869030D02*
X142152185Y-94869030D01*
X142152185Y-94869030D02*
X142152185Y-94319030D01*
X142152185Y-94869030D02*
X142152185Y-95419030D01*
X142152185Y-94869030D02*
X142752185Y-95269030D01*
X142752185Y-94469030D02*
X142152185Y-94869030D01*
X142752185Y-94869030D02*
X143252185Y-94869030D01*
X142752185Y-95269030D02*
X142752185Y-94469030D01*
X143902185Y-93969030D02*
X141102185Y-93969030D01*
X143902185Y-95769030D02*
X143902185Y-93969030D01*
X83952185Y-74919030D02*
X83952185Y-76719030D01*
X83952185Y-76719030D02*
X86752185Y-76719030D01*
X84602185Y-75819030D02*
X85002185Y-75819030D01*
X85002185Y-75819030D02*
X85002185Y-75269030D01*
X85002185Y-75819030D02*
X85002185Y-76369030D01*
X85002185Y-75819030D02*
X85602185Y-76219030D01*
X85602185Y-75419030D02*
X85002185Y-75819030D01*
X85602185Y-75819030D02*
X86102185Y-75819030D01*
X85602185Y-76219030D02*
X85602185Y-75419030D01*
X86752185Y-74919030D02*
X83952185Y-74919030D01*
X86752185Y-76719030D02*
X86752185Y-74919030D01*
X198252185Y-74919030D02*
X198252185Y-76719030D01*
X198252185Y-76719030D02*
X201052185Y-76719030D01*
X198902185Y-75819030D02*
X199302185Y-75819030D01*
X199302185Y-75819030D02*
X199302185Y-75269030D01*
X199302185Y-75819030D02*
X199302185Y-76369030D01*
X199302185Y-75819030D02*
X199902185Y-76219030D01*
X199902185Y-75419030D02*
X199302185Y-75819030D01*
X199902185Y-75819030D02*
X200402185Y-75819030D01*
X199902185Y-76219030D02*
X199902185Y-75419030D01*
X201052185Y-74919030D02*
X198252185Y-74919030D01*
X201052185Y-76719030D02*
X201052185Y-74919030D01*
X117289685Y-93969030D02*
X117289685Y-95769030D01*
X117289685Y-95769030D02*
X120089685Y-95769030D01*
X117939685Y-94869030D02*
X118339685Y-94869030D01*
X118339685Y-94869030D02*
X118339685Y-94319030D01*
X118339685Y-94869030D02*
X118339685Y-95419030D01*
X118339685Y-94869030D02*
X118939685Y-95269030D01*
X118939685Y-94469030D02*
X118339685Y-94869030D01*
X118939685Y-94869030D02*
X119439685Y-94869030D01*
X118939685Y-95269030D02*
X118939685Y-94469030D01*
X120089685Y-93969030D02*
X117289685Y-93969030D01*
X120089685Y-95769030D02*
X120089685Y-93969030D01*
X255402185Y-74919030D02*
X255402185Y-76719030D01*
X255402185Y-76719030D02*
X258202185Y-76719030D01*
X256052185Y-75819030D02*
X256452185Y-75819030D01*
X256452185Y-75819030D02*
X256452185Y-75269030D01*
X256452185Y-75819030D02*
X256452185Y-76369030D01*
X256452185Y-75819030D02*
X257052185Y-76219030D01*
X257052185Y-75419030D02*
X256452185Y-75819030D01*
X257052185Y-75819030D02*
X257552185Y-75819030D01*
X257052185Y-76219030D02*
X257052185Y-75419030D01*
X258202185Y-74919030D02*
X255402185Y-74919030D01*
X258202185Y-76719030D02*
X258202185Y-74919030D01*
X37517810Y-93969030D02*
X37517810Y-95769030D01*
X37517810Y-95769030D02*
X40317810Y-95769030D01*
X38167810Y-94869030D02*
X38567810Y-94869030D01*
X38567810Y-94869030D02*
X38567810Y-94319030D01*
X38567810Y-94869030D02*
X38567810Y-95419030D01*
X38567810Y-94869030D02*
X39167810Y-95269030D01*
X39167810Y-94469030D02*
X38567810Y-94869030D01*
X39167810Y-94869030D02*
X39667810Y-94869030D01*
X39167810Y-95269030D02*
X39167810Y-94469030D01*
X40317810Y-93969030D02*
X37517810Y-93969030D01*
X40317810Y-95769030D02*
X40317810Y-93969030D01*
X226827185Y-55869030D02*
X226827185Y-57669030D01*
X226827185Y-57669030D02*
X229627185Y-57669030D01*
X227477185Y-56769030D02*
X227877185Y-56769030D01*
X227877185Y-56769030D02*
X227877185Y-56219030D01*
X227877185Y-56769030D02*
X227877185Y-57319030D01*
X227877185Y-56769030D02*
X228477185Y-57169030D01*
X228477185Y-56369030D02*
X227877185Y-56769030D01*
X228477185Y-56769030D02*
X228977185Y-56769030D01*
X228477185Y-57169030D02*
X228477185Y-56369030D01*
X229627185Y-55869030D02*
X226827185Y-55869030D01*
X229627185Y-57669030D02*
X229627185Y-55869030D01*
X236352185Y-74919030D02*
X236352185Y-76719030D01*
X236352185Y-76719030D02*
X239152185Y-76719030D01*
X237002185Y-75819030D02*
X237402185Y-75819030D01*
X237402185Y-75819030D02*
X237402185Y-75269030D01*
X237402185Y-75819030D02*
X237402185Y-76369030D01*
X237402185Y-75819030D02*
X238002185Y-76219030D01*
X238002185Y-75419030D02*
X237402185Y-75819030D01*
X238002185Y-75819030D02*
X238502185Y-75819030D01*
X238002185Y-76219030D02*
X238002185Y-75419030D01*
X239152185Y-74919030D02*
X236352185Y-74919030D01*
X239152185Y-76719030D02*
X239152185Y-74919030D01*
X203014685Y-93969030D02*
X203014685Y-95769030D01*
X203014685Y-95769030D02*
X205814685Y-95769030D01*
X203664685Y-94869030D02*
X204064685Y-94869030D01*
X204064685Y-94869030D02*
X204064685Y-94319030D01*
X204064685Y-94869030D02*
X204064685Y-95419030D01*
X204064685Y-94869030D02*
X204664685Y-95269030D01*
X204664685Y-94469030D02*
X204064685Y-94869030D01*
X204664685Y-94869030D02*
X205164685Y-94869030D01*
X204664685Y-95269030D02*
X204664685Y-94469030D01*
X205814685Y-93969030D02*
X203014685Y-93969030D01*
X205814685Y-95769030D02*
X205814685Y-93969030D01*
X217302185Y-74919030D02*
X217302185Y-76719030D01*
X217302185Y-76719030D02*
X220102185Y-76719030D01*
X217952185Y-75819030D02*
X218352185Y-75819030D01*
X218352185Y-75819030D02*
X218352185Y-75269030D01*
X218352185Y-75819030D02*
X218352185Y-76369030D01*
X218352185Y-75819030D02*
X218952185Y-76219030D01*
X218952185Y-75419030D02*
X218352185Y-75819030D01*
X218952185Y-75819030D02*
X219452185Y-75819030D01*
X218952185Y-76219030D02*
X218952185Y-75419030D01*
X220102185Y-74919030D02*
X217302185Y-74919030D01*
X220102185Y-76719030D02*
X220102185Y-74919030D01*
X268499060Y-93969030D02*
X268499060Y-95769030D01*
X268499060Y-95769030D02*
X271299060Y-95769030D01*
X269149060Y-94869030D02*
X269549060Y-94869030D01*
X269549060Y-94869030D02*
X269549060Y-94319030D01*
X269549060Y-94869030D02*
X269549060Y-95419030D01*
X269549060Y-94869030D02*
X270149060Y-95269030D01*
X270149060Y-94469030D02*
X269549060Y-94869030D01*
X270149060Y-94869030D02*
X270649060Y-94869030D01*
X270149060Y-95269030D02*
X270149060Y-94469030D01*
X271299060Y-93969030D02*
X268499060Y-93969030D01*
X271299060Y-95769030D02*
X271299060Y-93969030D01*
X207777185Y-55869030D02*
X207777185Y-57669030D01*
X207777185Y-57669030D02*
X210577185Y-57669030D01*
X208427185Y-56769030D02*
X208827185Y-56769030D01*
X208827185Y-56769030D02*
X208827185Y-56219030D01*
X208827185Y-56769030D02*
X208827185Y-57319030D01*
X208827185Y-56769030D02*
X209427185Y-57169030D01*
X209427185Y-56369030D02*
X208827185Y-56769030D01*
X209427185Y-56769030D02*
X209927185Y-56769030D01*
X209427185Y-57169030D02*
X209427185Y-56369030D01*
X210577185Y-55869030D02*
X207777185Y-55869030D01*
X210577185Y-57669030D02*
X210577185Y-55869030D01*
X245877185Y-55869030D02*
X245877185Y-57669030D01*
X245877185Y-57669030D02*
X248677185Y-57669030D01*
X246527185Y-56769030D02*
X246927185Y-56769030D01*
X246927185Y-56769030D02*
X246927185Y-56219030D01*
X246927185Y-56769030D02*
X246927185Y-57319030D01*
X246927185Y-56769030D02*
X247527185Y-57169030D01*
X247527185Y-56369030D02*
X246927185Y-56769030D01*
X247527185Y-56769030D02*
X248027185Y-56769030D01*
X247527185Y-57169030D02*
X247527185Y-56369030D01*
X248677185Y-55869030D02*
X245877185Y-55869030D01*
X248677185Y-57669030D02*
X248677185Y-55869030D01*
X179202185Y-93969030D02*
X179202185Y-95769030D01*
X179202185Y-95769030D02*
X182002185Y-95769030D01*
X179852185Y-94869030D02*
X180252185Y-94869030D01*
X180252185Y-94869030D02*
X180252185Y-94319030D01*
X180252185Y-94869030D02*
X180252185Y-95419030D01*
X180252185Y-94869030D02*
X180852185Y-95269030D01*
X180852185Y-94469030D02*
X180252185Y-94869030D01*
X180852185Y-94869030D02*
X181352185Y-94869030D01*
X180852185Y-95269030D02*
X180852185Y-94469030D01*
X182002185Y-93969030D02*
X179202185Y-93969030D01*
X182002185Y-95769030D02*
X182002185Y-93969030D01*
X267767810Y-74919030D02*
X267767810Y-76719030D01*
X267767810Y-76719030D02*
X270567810Y-76719030D01*
X268417810Y-75819030D02*
X268817810Y-75819030D01*
X268817810Y-75819030D02*
X268817810Y-75269030D01*
X268817810Y-75819030D02*
X268817810Y-76369030D01*
X268817810Y-75819030D02*
X269417810Y-76219030D01*
X269417810Y-75419030D02*
X268817810Y-75819030D01*
X269417810Y-75819030D02*
X269917810Y-75819030D01*
X269417810Y-76219030D02*
X269417810Y-75419030D01*
X270567810Y-74919030D02*
X267767810Y-74919030D01*
X270567810Y-76719030D02*
X270567810Y-74919030D01*
X23120935Y-65728405D02*
X21870935Y-65728405D01*
X21870935Y-65728405D02*
X21870935Y-67728405D01*
X23120935Y-67728405D02*
X23120935Y-65728405D01*
X21870935Y-67728405D02*
X23120935Y-67728405D01*
X33945935Y-55869030D02*
X33945935Y-57669030D01*
X33945935Y-57669030D02*
X36745935Y-57669030D01*
X34595935Y-56769030D02*
X34995935Y-56769030D01*
X34995935Y-56769030D02*
X34995935Y-56219030D01*
X34995935Y-56769030D02*
X34995935Y-57319030D01*
X34995935Y-56769030D02*
X35595935Y-57169030D01*
X35595935Y-56369030D02*
X34995935Y-56769030D01*
X35595935Y-56769030D02*
X36095935Y-56769030D01*
X35595935Y-57169030D02*
X35595935Y-56369030D01*
X36745935Y-55869030D02*
X33945935Y-55869030D01*
X36745935Y-57669030D02*
X36745935Y-55869030D01*
X226827185Y-36819030D02*
X226827185Y-38619030D01*
X226827185Y-38619030D02*
X229627185Y-38619030D01*
X227477185Y-37719030D02*
X227877185Y-37719030D01*
X227877185Y-37719030D02*
X227877185Y-37169030D01*
X227877185Y-37719030D02*
X227877185Y-38269030D01*
X227877185Y-37719030D02*
X228477185Y-38119030D01*
X228477185Y-37319030D02*
X227877185Y-37719030D01*
X228477185Y-37719030D02*
X228977185Y-37719030D01*
X228477185Y-38119030D02*
X228477185Y-37319030D01*
X229627185Y-36819030D02*
X226827185Y-36819030D01*
X229627185Y-38619030D02*
X229627185Y-36819030D01*
X286358435Y-55869030D02*
X286358435Y-57669030D01*
X286358435Y-57669030D02*
X289158435Y-57669030D01*
X287008435Y-56769030D02*
X287408435Y-56769030D01*
X287408435Y-56769030D02*
X287408435Y-56219030D01*
X287408435Y-56769030D02*
X287408435Y-57319030D01*
X287408435Y-56769030D02*
X288008435Y-57169030D01*
X288008435Y-56369030D02*
X287408435Y-56769030D01*
X288008435Y-56769030D02*
X288508435Y-56769030D01*
X288008435Y-57169030D02*
X288008435Y-56369030D01*
X289158435Y-55869030D02*
X286358435Y-55869030D01*
X289158435Y-57669030D02*
X289158435Y-55869030D01*
X93477185Y-36819030D02*
X93477185Y-38619030D01*
X93477185Y-38619030D02*
X96277185Y-38619030D01*
X94127185Y-37719030D02*
X94527185Y-37719030D01*
X94527185Y-37719030D02*
X94527185Y-37169030D01*
X94527185Y-37719030D02*
X94527185Y-38269030D01*
X94527185Y-37719030D02*
X95127185Y-38119030D01*
X95127185Y-37319030D02*
X94527185Y-37719030D01*
X95127185Y-37719030D02*
X95627185Y-37719030D01*
X95127185Y-38119030D02*
X95127185Y-37319030D01*
X96277185Y-36819030D02*
X93477185Y-36819030D01*
X96277185Y-38619030D02*
X96277185Y-36819030D01*
X37517810Y-74919030D02*
X37517810Y-76719030D01*
X37517810Y-76719030D02*
X40317810Y-76719030D01*
X38167810Y-75819030D02*
X38567810Y-75819030D01*
X38567810Y-75819030D02*
X38567810Y-75269030D01*
X38567810Y-75819030D02*
X38567810Y-76369030D01*
X38567810Y-75819030D02*
X39167810Y-76219030D01*
X39167810Y-75419030D02*
X38567810Y-75819030D01*
X39167810Y-75819030D02*
X39667810Y-75819030D01*
X39167810Y-76219030D02*
X39167810Y-75419030D01*
X40317810Y-74919030D02*
X37517810Y-74919030D01*
X40317810Y-76719030D02*
X40317810Y-74919030D01*
X276833435Y-74919030D02*
X276833435Y-76719030D01*
X276833435Y-76719030D02*
X279633435Y-76719030D01*
X277483435Y-75819030D02*
X277883435Y-75819030D01*
X277883435Y-75819030D02*
X277883435Y-75269030D01*
X277883435Y-75819030D02*
X277883435Y-76369030D01*
X277883435Y-75819030D02*
X278483435Y-76219030D01*
X278483435Y-75419030D02*
X277883435Y-75819030D01*
X278483435Y-75819030D02*
X278983435Y-75819030D01*
X278483435Y-76219030D02*
X278483435Y-75419030D01*
X279633435Y-74919030D02*
X276833435Y-74919030D01*
X279633435Y-76719030D02*
X279633435Y-74919030D01*
X45852184Y-93969030D02*
X45852184Y-95769030D01*
X45852184Y-95769030D02*
X48652184Y-95769030D01*
X46502184Y-94869030D02*
X46902184Y-94869030D01*
X46902184Y-94869030D02*
X46902184Y-94319030D01*
X46902184Y-94869030D02*
X46902184Y-95419030D01*
X46902184Y-94869030D02*
X47502184Y-95269030D01*
X47502184Y-94469030D02*
X46902184Y-94869030D01*
X47502184Y-94869030D02*
X48002184Y-94869030D01*
X47502184Y-95269030D02*
X47502184Y-94469030D01*
X48652184Y-93969030D02*
X45852184Y-93969030D01*
X48652184Y-95769030D02*
X48652184Y-93969030D01*
X64902185Y-74919030D02*
X64902185Y-76719030D01*
X64902185Y-76719030D02*
X67702185Y-76719030D01*
X65552185Y-75819030D02*
X65952185Y-75819030D01*
X65952185Y-75819030D02*
X65952185Y-75269030D01*
X65952185Y-75819030D02*
X65952185Y-76369030D01*
X65952185Y-75819030D02*
X66552185Y-76219030D01*
X66552185Y-75419030D02*
X65952185Y-75819030D01*
X66552185Y-75819030D02*
X67052185Y-75819030D01*
X66552185Y-76219030D02*
X66552185Y-75419030D01*
X67702185Y-74919030D02*
X64902185Y-74919030D01*
X67702185Y-76719030D02*
X67702185Y-74919030D01*
X103002185Y-74919030D02*
X103002185Y-76719030D01*
X103002185Y-76719030D02*
X105802185Y-76719030D01*
X103652185Y-75819030D02*
X104052185Y-75819030D01*
X104052185Y-75819030D02*
X104052185Y-75269030D01*
X104052185Y-75819030D02*
X104052185Y-76369030D01*
X104052185Y-75819030D02*
X104652185Y-76219030D01*
X104652185Y-75419030D02*
X104052185Y-75819030D01*
X104652185Y-75819030D02*
X105152185Y-75819030D01*
X104652185Y-76219030D02*
X104652185Y-75419030D01*
X105802185Y-74919030D02*
X103002185Y-74919030D01*
X105802185Y-76719030D02*
X105802185Y-74919030D01*
X122052185Y-74919030D02*
X122052185Y-76719030D01*
X122052185Y-76719030D02*
X124852185Y-76719030D01*
X122702185Y-75819030D02*
X123102185Y-75819030D01*
X123102185Y-75819030D02*
X123102185Y-75269030D01*
X123102185Y-75819030D02*
X123102185Y-76369030D01*
X123102185Y-75819030D02*
X123702185Y-76219030D01*
X123702185Y-75419030D02*
X123102185Y-75819030D01*
X123702185Y-75819030D02*
X124202185Y-75819030D01*
X123702185Y-76219030D02*
X123702185Y-75419030D01*
X124852185Y-74919030D02*
X122052185Y-74919030D01*
X124852185Y-76719030D02*
X124852185Y-74919030D01*
X253020935Y-93969030D02*
X253020935Y-95769030D01*
X253020935Y-95769030D02*
X255820935Y-95769030D01*
X253670935Y-94869030D02*
X254070935Y-94869030D01*
X254070935Y-94869030D02*
X254070935Y-94319030D01*
X254070935Y-94869030D02*
X254070935Y-95419030D01*
X254070935Y-94869030D02*
X254670935Y-95269030D01*
X254670935Y-94469030D02*
X254070935Y-94869030D01*
X254670935Y-94869030D02*
X255170935Y-94869030D01*
X254670935Y-95269030D02*
X254670935Y-94469030D01*
X255820935Y-93969030D02*
X253020935Y-93969030D01*
X255820935Y-95769030D02*
X255820935Y-93969030D01*
X112527185Y-55869030D02*
X112527185Y-57669030D01*
X112527185Y-57669030D02*
X115327185Y-57669030D01*
X113177185Y-56769030D02*
X113577185Y-56769030D01*
X113577185Y-56769030D02*
X113577185Y-56219030D01*
X113577185Y-56769030D02*
X113577185Y-57319030D01*
X113577185Y-56769030D02*
X114177185Y-57169030D01*
X114177185Y-56369030D02*
X113577185Y-56769030D01*
X114177185Y-56769030D02*
X114677185Y-56769030D01*
X114177185Y-57169030D02*
X114177185Y-56369030D01*
X115327185Y-55869030D02*
X112527185Y-55869030D01*
X115327185Y-57669030D02*
X115327185Y-55869030D01*
X164914685Y-93969030D02*
X164914685Y-95769030D01*
X164914685Y-95769030D02*
X167714685Y-95769030D01*
X165564685Y-94869030D02*
X165964685Y-94869030D01*
X165964685Y-94869030D02*
X165964685Y-94319030D01*
X165964685Y-94869030D02*
X165964685Y-95419030D01*
X165964685Y-94869030D02*
X166564685Y-95269030D01*
X166564685Y-94469030D02*
X165964685Y-94869030D01*
X166564685Y-94869030D02*
X167064685Y-94869030D01*
X166564685Y-95269030D02*
X166564685Y-94469030D01*
X167714685Y-93969030D02*
X164914685Y-93969030D01*
X167714685Y-95769030D02*
X167714685Y-93969030D01*
X67283435Y-93969030D02*
X67283435Y-95769030D01*
X67283435Y-95769030D02*
X70083435Y-95769030D01*
X67933435Y-94869030D02*
X68333435Y-94869030D01*
X68333435Y-94869030D02*
X68333435Y-94319030D01*
X68333435Y-94869030D02*
X68333435Y-95419030D01*
X68333435Y-94869030D02*
X68933435Y-95269030D01*
X68933435Y-94469030D02*
X68333435Y-94869030D01*
X68933435Y-94869030D02*
X69433435Y-94869030D01*
X68933435Y-95269030D02*
X68933435Y-94469030D01*
X70083435Y-93969030D02*
X67283435Y-93969030D01*
X70083435Y-95769030D02*
X70083435Y-93969030D01*
X264927185Y-55869030D02*
X264927185Y-57669030D01*
X264927185Y-57669030D02*
X267727185Y-57669030D01*
X265577185Y-56769030D02*
X265977185Y-56769030D01*
X265977185Y-56769030D02*
X265977185Y-56219030D01*
X265977185Y-56769030D02*
X265977185Y-57319030D01*
X265977185Y-56769030D02*
X266577185Y-57169030D01*
X266577185Y-56369030D02*
X265977185Y-56769030D01*
X266577185Y-56769030D02*
X267077185Y-56769030D01*
X266577185Y-57169030D02*
X266577185Y-56369030D01*
X267727185Y-55869030D02*
X264927185Y-55869030D01*
X267727185Y-57669030D02*
X267727185Y-55869030D01*
X45852185Y-74919030D02*
X45852185Y-76719030D01*
X45852185Y-76719030D02*
X48652185Y-76719030D01*
X46502185Y-75819030D02*
X46902185Y-75819030D01*
X46902185Y-75819030D02*
X46902185Y-75269030D01*
X46902185Y-75819030D02*
X46902185Y-76369030D01*
X46902185Y-75819030D02*
X47502185Y-76219030D01*
X47502185Y-75419030D02*
X46902185Y-75819030D01*
X47502185Y-75819030D02*
X48002185Y-75819030D01*
X47502185Y-76219030D02*
X47502185Y-75419030D01*
X48652185Y-74919030D02*
X45852185Y-74919030D01*
X48652185Y-76719030D02*
X48652185Y-74919030D01*
X74427185Y-36819030D02*
X74427185Y-38619030D01*
X74427185Y-38619030D02*
X77227185Y-38619030D01*
X75077185Y-37719030D02*
X75477185Y-37719030D01*
X75477185Y-37719030D02*
X75477185Y-37169030D01*
X75477185Y-37719030D02*
X75477185Y-38269030D01*
X75477185Y-37719030D02*
X76077185Y-38119030D01*
X76077185Y-37319030D02*
X75477185Y-37719030D01*
X76077185Y-37719030D02*
X76577185Y-37719030D01*
X76077185Y-38119030D02*
X76077185Y-37319030D01*
X77227185Y-36819030D02*
X74427185Y-36819030D01*
X77227185Y-38619030D02*
X77227185Y-36819030D01*
X245877185Y-36819030D02*
X245877185Y-38619030D01*
X245877185Y-38619030D02*
X248677185Y-38619030D01*
X246527185Y-37719030D02*
X246927185Y-37719030D01*
X246927185Y-37719030D02*
X246927185Y-37169030D01*
X246927185Y-37719030D02*
X246927185Y-38269030D01*
X246927185Y-37719030D02*
X247527185Y-38119030D01*
X247527185Y-37319030D02*
X246927185Y-37719030D01*
X247527185Y-37719030D02*
X248027185Y-37719030D01*
X247527185Y-38119030D02*
X247527185Y-37319030D01*
X248677185Y-36819030D02*
X245877185Y-36819030D01*
X248677185Y-38619030D02*
X248677185Y-36819030D01*
X229208435Y-93969030D02*
X229208435Y-95769030D01*
X229208435Y-95769030D02*
X232008435Y-95769030D01*
X229858435Y-94869030D02*
X230258435Y-94869030D01*
X230258435Y-94869030D02*
X230258435Y-94319030D01*
X230258435Y-94869030D02*
X230258435Y-95419030D01*
X230258435Y-94869030D02*
X230858435Y-95269030D01*
X230858435Y-94469030D02*
X230258435Y-94869030D01*
X230858435Y-94869030D02*
X231358435Y-94869030D01*
X230858435Y-95269030D02*
X230858435Y-94469030D01*
X232008435Y-93969030D02*
X229208435Y-93969030D01*
X232008435Y-95769030D02*
X232008435Y-93969030D01*
X55377185Y-55869030D02*
X55377185Y-57669030D01*
X55377185Y-57669030D02*
X58177185Y-57669030D01*
X56027185Y-56769030D02*
X56427185Y-56769030D01*
X56427185Y-56769030D02*
X56427185Y-56219030D01*
X56427185Y-56769030D02*
X56427185Y-57319030D01*
X56427185Y-56769030D02*
X57027185Y-57169030D01*
X57027185Y-56369030D02*
X56427185Y-56769030D01*
X57027185Y-56769030D02*
X57527185Y-56769030D01*
X57027185Y-57169030D02*
X57027185Y-56369030D01*
X58177185Y-55869030D02*
X55377185Y-55869030D01*
X58177185Y-57669030D02*
X58177185Y-55869030D01*
M02*
