G04 #@! TF.GenerationSoftware,KiCad,Pcbnew,(6.0.10-0)*
G04 #@! TF.CreationDate,2023-03-16T17:31:01+09:00*
G04 #@! TF.ProjectId,Sandy_Base,53616e64-795f-4426-9173-652e6b696361,v.0*
G04 #@! TF.SameCoordinates,Original*
G04 #@! TF.FileFunction,AssemblyDrawing,Bot*
%FSLAX46Y46*%
G04 Gerber Fmt 4.6, Leading zero omitted, Abs format (unit mm)*
G04 Created by KiCad (PCBNEW (6.0.10-0)) date 2023-03-16 17:31:01*
%MOMM*%
%LPD*%
G01*
G04 APERTURE LIST*
%ADD10C,0.080000*%
%ADD11C,0.150000*%
%ADD12C,0.105000*%
%ADD13C,0.120000*%
%ADD14C,0.075000*%
%ADD15C,0.100000*%
G04 APERTURE END LIST*
D10*
X25904268Y-26086595D02*
X26070935Y-25848500D01*
X26189982Y-26086595D02*
X26189982Y-25586595D01*
X25999506Y-25586595D01*
X25951887Y-25610405D01*
X25928077Y-25634214D01*
X25904268Y-25681833D01*
X25904268Y-25753262D01*
X25928077Y-25800881D01*
X25951887Y-25824690D01*
X25999506Y-25848500D01*
X26189982Y-25848500D01*
X25713792Y-25634214D02*
X25689982Y-25610405D01*
X25642363Y-25586595D01*
X25523315Y-25586595D01*
X25475696Y-25610405D01*
X25451887Y-25634214D01*
X25428077Y-25681833D01*
X25428077Y-25729452D01*
X25451887Y-25800881D01*
X25737601Y-26086595D01*
X25428077Y-26086595D01*
X37207268Y-31420595D02*
X37373935Y-31182500D01*
X37492982Y-31420595D02*
X37492982Y-30920595D01*
X37302506Y-30920595D01*
X37254887Y-30944405D01*
X37231077Y-30968214D01*
X37207268Y-31015833D01*
X37207268Y-31087262D01*
X37231077Y-31134881D01*
X37254887Y-31158690D01*
X37302506Y-31182500D01*
X37492982Y-31182500D01*
X37040601Y-30920595D02*
X36731077Y-30920595D01*
X36897744Y-31111071D01*
X36826315Y-31111071D01*
X36778696Y-31134881D01*
X36754887Y-31158690D01*
X36731077Y-31206309D01*
X36731077Y-31325357D01*
X36754887Y-31372976D01*
X36778696Y-31396785D01*
X36826315Y-31420595D01*
X36969173Y-31420595D01*
X37016792Y-31396785D01*
X37040601Y-31372976D01*
X58035153Y-42296335D02*
X58035153Y-42262663D01*
X58001481Y-42195320D01*
X57967810Y-42161648D01*
X57900466Y-42127976D01*
X57833122Y-42127976D01*
X57782615Y-42144812D01*
X57698435Y-42195320D01*
X57647928Y-42245827D01*
X57597420Y-42330007D01*
X57580584Y-42380514D01*
X57580584Y-42447858D01*
X57614256Y-42515201D01*
X57647928Y-42548873D01*
X57715271Y-42582545D01*
X57748943Y-42582545D01*
X58035153Y-42936098D02*
X57866794Y-42767739D01*
X58018317Y-42582545D01*
X58018317Y-42616217D01*
X58035153Y-42666724D01*
X58119332Y-42750904D01*
X58169840Y-42767739D01*
X58203512Y-42767739D01*
X58254019Y-42750904D01*
X58338199Y-42666724D01*
X58355035Y-42616217D01*
X58355035Y-42582545D01*
X58338199Y-42532037D01*
X58254019Y-42447858D01*
X58203512Y-42431022D01*
X58169840Y-42431022D01*
D11*
X82423315Y-25400071D02*
X83137601Y-25400071D01*
X83280458Y-25352452D01*
X83375696Y-25257214D01*
X83423315Y-25114357D01*
X83423315Y-25019119D01*
X82423315Y-25781024D02*
X82423315Y-26400071D01*
X82804268Y-26066738D01*
X82804268Y-26209595D01*
X82851887Y-26304833D01*
X82899506Y-26352452D01*
X82994744Y-26400071D01*
X83232839Y-26400071D01*
X83328077Y-26352452D01*
X83375696Y-26304833D01*
X83423315Y-26209595D01*
X83423315Y-25923881D01*
X83375696Y-25828643D01*
X83328077Y-25781024D01*
X106830756Y-98750726D02*
X106497423Y-98750726D01*
X106354565Y-99274535D02*
X106830756Y-99274535D01*
X106830756Y-98274535D01*
X106354565Y-98274535D01*
X106021232Y-98274535D02*
X105354565Y-99274535D01*
X105354565Y-98274535D02*
X106021232Y-99274535D01*
X105116470Y-98274535D02*
X104545042Y-98274535D01*
X104830756Y-99274535D02*
X104830756Y-98274535D01*
X104449804Y-99369774D02*
X103687899Y-99369774D01*
X102878375Y-99179297D02*
X102925994Y-99226916D01*
X103068851Y-99274535D01*
X103164089Y-99274535D01*
X103306946Y-99226916D01*
X103402185Y-99131678D01*
X103449804Y-99036440D01*
X103497423Y-98845964D01*
X103497423Y-98703107D01*
X103449804Y-98512631D01*
X103402185Y-98417393D01*
X103306946Y-98322155D01*
X103164089Y-98274535D01*
X103068851Y-98274535D01*
X102925994Y-98322155D01*
X102878375Y-98369774D01*
X102497423Y-98369774D02*
X102449804Y-98322155D01*
X102354565Y-98274535D01*
X102116470Y-98274535D01*
X102021232Y-98322155D01*
X101973613Y-98369774D01*
X101925994Y-98465012D01*
X101925994Y-98560250D01*
X101973613Y-98703107D01*
X102545042Y-99274535D01*
X101925994Y-99274535D01*
X202080756Y-73747601D02*
X201747423Y-73747601D01*
X201604565Y-74271410D02*
X202080756Y-74271410D01*
X202080756Y-73271410D01*
X201604565Y-73271410D01*
X201271232Y-73271410D02*
X200604565Y-74271410D01*
X200604565Y-73271410D02*
X201271232Y-74271410D01*
X200366470Y-73271410D02*
X199795042Y-73271410D01*
X200080756Y-74271410D02*
X200080756Y-73271410D01*
X199699804Y-74366649D02*
X198937899Y-74366649D01*
X198128375Y-74176172D02*
X198175994Y-74223791D01*
X198318851Y-74271410D01*
X198414089Y-74271410D01*
X198556946Y-74223791D01*
X198652185Y-74128553D01*
X198699804Y-74033315D01*
X198747423Y-73842839D01*
X198747423Y-73699982D01*
X198699804Y-73509506D01*
X198652185Y-73414268D01*
X198556946Y-73319030D01*
X198414089Y-73271410D01*
X198318851Y-73271410D01*
X198175994Y-73319030D01*
X198128375Y-73366649D01*
X197271232Y-73604744D02*
X197271232Y-74271410D01*
X197509327Y-73223791D02*
X197747423Y-73938077D01*
X197128375Y-73938077D01*
X263993256Y-101131976D02*
X263659923Y-101131976D01*
X263517065Y-101655785D02*
X263993256Y-101655785D01*
X263993256Y-100655785D01*
X263517065Y-100655785D01*
X263183732Y-100655785D02*
X262517065Y-101655785D01*
X262517065Y-100655785D02*
X263183732Y-101655785D01*
X262278970Y-100655785D02*
X261707542Y-100655785D01*
X261993256Y-101655785D02*
X261993256Y-100655785D01*
X261612304Y-101751024D02*
X260850399Y-101751024D01*
X260040875Y-101560547D02*
X260088494Y-101608166D01*
X260231351Y-101655785D01*
X260326589Y-101655785D01*
X260469446Y-101608166D01*
X260564685Y-101512928D01*
X260612304Y-101417690D01*
X260659923Y-101227214D01*
X260659923Y-101084357D01*
X260612304Y-100893881D01*
X260564685Y-100798643D01*
X260469446Y-100703405D01*
X260326589Y-100655785D01*
X260231351Y-100655785D01*
X260088494Y-100703405D01*
X260040875Y-100751024D01*
X259183732Y-100655785D02*
X259374208Y-100655785D01*
X259469446Y-100703405D01*
X259517065Y-100751024D01*
X259612304Y-100893881D01*
X259659923Y-101084357D01*
X259659923Y-101465309D01*
X259612304Y-101560547D01*
X259564685Y-101608166D01*
X259469446Y-101655785D01*
X259278970Y-101655785D01*
X259183732Y-101608166D01*
X259136113Y-101560547D01*
X259088494Y-101465309D01*
X259088494Y-101227214D01*
X259136113Y-101131976D01*
X259183732Y-101084357D01*
X259278970Y-101036738D01*
X259469446Y-101036738D01*
X259564685Y-101084357D01*
X259612304Y-101131976D01*
X259659923Y-101227214D01*
X38965131Y-101131976D02*
X38631798Y-101131976D01*
X38488940Y-101655785D02*
X38965131Y-101655785D01*
X38965131Y-100655785D01*
X38488940Y-100655785D01*
X38155607Y-100655785D02*
X37488940Y-101655785D01*
X37488940Y-100655785D02*
X38155607Y-101655785D01*
X37250845Y-100655785D02*
X36679417Y-100655785D01*
X36965131Y-101655785D02*
X36965131Y-100655785D01*
X36584179Y-101751024D02*
X35822274Y-101751024D01*
X35012750Y-101560547D02*
X35060369Y-101608166D01*
X35203226Y-101655785D01*
X35298464Y-101655785D01*
X35441321Y-101608166D01*
X35536560Y-101512928D01*
X35584179Y-101417690D01*
X35631798Y-101227214D01*
X35631798Y-101084357D01*
X35584179Y-100893881D01*
X35536560Y-100798643D01*
X35441321Y-100703405D01*
X35298464Y-100655785D01*
X35203226Y-100655785D01*
X35060369Y-100703405D01*
X35012750Y-100751024D01*
X34393702Y-100655785D02*
X34298464Y-100655785D01*
X34203226Y-100703405D01*
X34155607Y-100751024D01*
X34107988Y-100846262D01*
X34060369Y-101036738D01*
X34060369Y-101274833D01*
X34107988Y-101465309D01*
X34155607Y-101560547D01*
X34203226Y-101608166D01*
X34298464Y-101655785D01*
X34393702Y-101655785D01*
X34488940Y-101608166D01*
X34536560Y-101560547D01*
X34584179Y-101465309D01*
X34631798Y-101274833D01*
X34631798Y-101036738D01*
X34584179Y-100846262D01*
X34536560Y-100751024D01*
X34488940Y-100703405D01*
X34393702Y-100655785D01*
X48490131Y-71366351D02*
X48156798Y-71366351D01*
X48013940Y-71890160D02*
X48490131Y-71890160D01*
X48490131Y-70890160D01*
X48013940Y-70890160D01*
X47680607Y-70890160D02*
X47013940Y-71890160D01*
X47013940Y-70890160D02*
X47680607Y-71890160D01*
X46775845Y-70890160D02*
X46204417Y-70890160D01*
X46490131Y-71890160D02*
X46490131Y-70890160D01*
X46109179Y-71985399D02*
X45347274Y-71985399D01*
X44537750Y-71890160D02*
X44871083Y-71413970D01*
X45109179Y-71890160D02*
X45109179Y-70890160D01*
X44728226Y-70890160D01*
X44632988Y-70937780D01*
X44585369Y-70985399D01*
X44537750Y-71080637D01*
X44537750Y-71223494D01*
X44585369Y-71318732D01*
X44632988Y-71366351D01*
X44728226Y-71413970D01*
X45109179Y-71413970D01*
X44156798Y-70985399D02*
X44109179Y-70937780D01*
X44013940Y-70890160D01*
X43775845Y-70890160D01*
X43680607Y-70937780D01*
X43632988Y-70985399D01*
X43585369Y-71080637D01*
X43585369Y-71175875D01*
X43632988Y-71318732D01*
X44204417Y-71890160D01*
X43585369Y-71890160D01*
X286615131Y-90844476D02*
X286281798Y-90844476D01*
X286138940Y-91368285D02*
X286615131Y-91368285D01*
X286615131Y-90368285D01*
X286138940Y-90368285D01*
X285805607Y-90368285D02*
X285138940Y-91368285D01*
X285138940Y-90368285D02*
X285805607Y-91368285D01*
X284900845Y-90368285D02*
X284329417Y-90368285D01*
X284615131Y-91368285D02*
X284615131Y-90368285D01*
X284234179Y-91463524D02*
X283472274Y-91463524D01*
X282662750Y-91368285D02*
X282996083Y-90892095D01*
X283234179Y-91368285D02*
X283234179Y-90368285D01*
X282853226Y-90368285D01*
X282757988Y-90415905D01*
X282710369Y-90463524D01*
X282662750Y-90558762D01*
X282662750Y-90701619D01*
X282710369Y-90796857D01*
X282757988Y-90844476D01*
X282853226Y-90892095D01*
X283234179Y-90892095D01*
X282329417Y-90368285D02*
X281710369Y-90368285D01*
X282043702Y-90749238D01*
X281900845Y-90749238D01*
X281805607Y-90796857D01*
X281757988Y-90844476D01*
X281710369Y-90939714D01*
X281710369Y-91177809D01*
X281757988Y-91273047D01*
X281805607Y-91320666D01*
X281900845Y-91368285D01*
X282186560Y-91368285D01*
X282281798Y-91320666D01*
X282329417Y-91273047D01*
X288996381Y-90416351D02*
X288663048Y-90416351D01*
X288520190Y-90940160D02*
X288996381Y-90940160D01*
X288996381Y-89940160D01*
X288520190Y-89940160D01*
X288186857Y-89940160D02*
X287520190Y-90940160D01*
X287520190Y-89940160D02*
X288186857Y-90940160D01*
X287282095Y-89940160D02*
X286710667Y-89940160D01*
X286996381Y-90940160D02*
X286996381Y-89940160D01*
X286615429Y-91035399D02*
X285853524Y-91035399D01*
X285044000Y-90940160D02*
X285377333Y-90463970D01*
X285615429Y-90940160D02*
X285615429Y-89940160D01*
X285234476Y-89940160D01*
X285139238Y-89987780D01*
X285091619Y-90035399D01*
X285044000Y-90130637D01*
X285044000Y-90273494D01*
X285091619Y-90368732D01*
X285139238Y-90416351D01*
X285234476Y-90463970D01*
X285615429Y-90463970D01*
X284472571Y-90368732D02*
X284567810Y-90321113D01*
X284615429Y-90273494D01*
X284663048Y-90178256D01*
X284663048Y-90130637D01*
X284615429Y-90035399D01*
X284567810Y-89987780D01*
X284472571Y-89940160D01*
X284282095Y-89940160D01*
X284186857Y-89987780D01*
X284139238Y-90035399D01*
X284091619Y-90130637D01*
X284091619Y-90178256D01*
X284139238Y-90273494D01*
X284186857Y-90321113D01*
X284282095Y-90368732D01*
X284472571Y-90368732D01*
X284567810Y-90416351D01*
X284615429Y-90463970D01*
X284663048Y-90559208D01*
X284663048Y-90749684D01*
X284615429Y-90844922D01*
X284567810Y-90892541D01*
X284472571Y-90940160D01*
X284282095Y-90940160D01*
X284186857Y-90892541D01*
X284139238Y-90844922D01*
X284091619Y-90749684D01*
X284091619Y-90559208D01*
X284139238Y-90463970D01*
X284186857Y-90416351D01*
X284282095Y-90368732D01*
D10*
X42451131Y-33633813D02*
X42451131Y-33600141D01*
X42417459Y-33532798D01*
X42383788Y-33499126D01*
X42316444Y-33465454D01*
X42249100Y-33465454D01*
X42198593Y-33482290D01*
X42114413Y-33532798D01*
X42063906Y-33583305D01*
X42013398Y-33667485D01*
X41996562Y-33717992D01*
X41996562Y-33785336D01*
X42030234Y-33852679D01*
X42063906Y-33886351D01*
X42131249Y-33920023D01*
X42164921Y-33920023D01*
X42821520Y-33936859D02*
X42619490Y-33734828D01*
X42720505Y-33835843D02*
X42366952Y-34189397D01*
X42383788Y-34105217D01*
X42383788Y-34037874D01*
X42366952Y-33987366D01*
D12*
X49158852Y-27295667D02*
X49394554Y-27531369D01*
X49064571Y-26871403D02*
X49158852Y-27295667D01*
X48734588Y-27201386D01*
X48805298Y-28120625D02*
X49088141Y-27837782D01*
X48946720Y-27979204D02*
X48451745Y-27484229D01*
X48569596Y-27507799D01*
X48663877Y-27507799D01*
X48734588Y-27484229D01*
D10*
X45430403Y-30929835D02*
X45430403Y-30896163D01*
X45396731Y-30828820D01*
X45363060Y-30795148D01*
X45295716Y-30761476D01*
X45228372Y-30761476D01*
X45177865Y-30778312D01*
X45093685Y-30828820D01*
X45043178Y-30879327D01*
X44992670Y-30963507D01*
X44975834Y-31014014D01*
X44975834Y-31081358D01*
X45009506Y-31148701D01*
X45043178Y-31182373D01*
X45110521Y-31216045D01*
X45144193Y-31216045D01*
X45228372Y-31367568D02*
X45447239Y-31586434D01*
X45464075Y-31333896D01*
X45514582Y-31384404D01*
X45565090Y-31401239D01*
X45598762Y-31401239D01*
X45649269Y-31384404D01*
X45733449Y-31300224D01*
X45750285Y-31249717D01*
X45750285Y-31216045D01*
X45733449Y-31165537D01*
X45632434Y-31064522D01*
X45581926Y-31047686D01*
X45548254Y-31047686D01*
X60813278Y-26691210D02*
X60813278Y-26657538D01*
X60779606Y-26590195D01*
X60745935Y-26556523D01*
X60678591Y-26522851D01*
X60611247Y-26522851D01*
X60560740Y-26539687D01*
X60476560Y-26590195D01*
X60426053Y-26640702D01*
X60375545Y-26724882D01*
X60358709Y-26775389D01*
X60358709Y-26842733D01*
X60392381Y-26910076D01*
X60426053Y-26943748D01*
X60493396Y-26977420D01*
X60527068Y-26977420D01*
X60611247Y-27128943D02*
X60846950Y-27364645D01*
X61048980Y-26859569D01*
X64571970Y-34939282D02*
X64605642Y-34939282D01*
X64672985Y-34905610D01*
X64706657Y-34871939D01*
X64740329Y-34804595D01*
X64740329Y-34737251D01*
X64723493Y-34686744D01*
X64672985Y-34602564D01*
X64622478Y-34552057D01*
X64538298Y-34501549D01*
X64487791Y-34484713D01*
X64420447Y-34484713D01*
X64353104Y-34518385D01*
X64319432Y-34552057D01*
X64285760Y-34619400D01*
X64285760Y-34653072D01*
X64066894Y-35040297D02*
X64302596Y-35276000D01*
X64016386Y-34821431D02*
X64353104Y-34989790D01*
X64134237Y-35208656D01*
D11*
X53523643Y-50273285D02*
X53523643Y-50987571D01*
X53571262Y-51130428D01*
X53666500Y-51225666D01*
X53809357Y-51273285D01*
X53904595Y-51273285D01*
X52618881Y-50606619D02*
X52618881Y-51273285D01*
X52856976Y-50225666D02*
X53095071Y-50939952D01*
X52476024Y-50939952D01*
X112307839Y-22480745D02*
X112307839Y-21480745D01*
X112307839Y-21956936D02*
X111736411Y-21956936D01*
X111736411Y-22480745D02*
X111736411Y-21480745D01*
X110736411Y-22480745D02*
X111307839Y-22480745D01*
X111022125Y-22480745D02*
X111022125Y-21480745D01*
X111117363Y-21623603D01*
X111212601Y-21718841D01*
X111307839Y-21766460D01*
X207557839Y-22480745D02*
X207557839Y-21480745D01*
X207557839Y-21956936D02*
X206986411Y-21956936D01*
X206986411Y-22480745D02*
X206986411Y-21480745D01*
X206557839Y-21575984D02*
X206510220Y-21528365D01*
X206414982Y-21480745D01*
X206176887Y-21480745D01*
X206081649Y-21528365D01*
X206034030Y-21575984D01*
X205986411Y-21671222D01*
X205986411Y-21766460D01*
X206034030Y-21909317D01*
X206605458Y-22480745D01*
X205986411Y-22480745D01*
D13*
X43946976Y-20374012D02*
X44213643Y-20374012D01*
X44213643Y-20793059D02*
X44213643Y-19993059D01*
X43832690Y-19993059D01*
X43108881Y-20793059D02*
X43566024Y-20793059D01*
X43337452Y-20793059D02*
X43337452Y-19993059D01*
X43413643Y-20107345D01*
X43489833Y-20183535D01*
X43566024Y-20221631D01*
D11*
X101257839Y-108080745D02*
X101257839Y-107080745D01*
X101257839Y-107556936D02*
X100686411Y-107556936D01*
X100686411Y-108080745D02*
X100686411Y-107080745D01*
X100305458Y-107080745D02*
X99686411Y-107080745D01*
X100019744Y-107461698D01*
X99876887Y-107461698D01*
X99781649Y-107509317D01*
X99734030Y-107556936D01*
X99686411Y-107652174D01*
X99686411Y-107890269D01*
X99734030Y-107985507D01*
X99781649Y-108033126D01*
X99876887Y-108080745D01*
X100162601Y-108080745D01*
X100257839Y-108033126D01*
X100305458Y-107985507D01*
D10*
X43763643Y-23451345D02*
X43930310Y-23213250D01*
X44049357Y-23451345D02*
X44049357Y-22951345D01*
X43858881Y-22951345D01*
X43811262Y-22975155D01*
X43787452Y-22998964D01*
X43763643Y-23046583D01*
X43763643Y-23118012D01*
X43787452Y-23165631D01*
X43811262Y-23189440D01*
X43858881Y-23213250D01*
X44049357Y-23213250D01*
X43287452Y-23451345D02*
X43573167Y-23451345D01*
X43430310Y-23451345D02*
X43430310Y-22951345D01*
X43477929Y-23022774D01*
X43525548Y-23070393D01*
X43573167Y-23094202D01*
D11*
X221130756Y-98750726D02*
X220797423Y-98750726D01*
X220654565Y-99274535D02*
X221130756Y-99274535D01*
X221130756Y-98274535D01*
X220654565Y-98274535D01*
X220321232Y-98274535D02*
X219654565Y-99274535D01*
X219654565Y-98274535D02*
X220321232Y-99274535D01*
X219416470Y-98274535D02*
X218845042Y-98274535D01*
X219130756Y-99274535D02*
X219130756Y-98274535D01*
X218749804Y-99369774D02*
X217987899Y-99369774D01*
X217178375Y-99179297D02*
X217225994Y-99226916D01*
X217368851Y-99274535D01*
X217464089Y-99274535D01*
X217606946Y-99226916D01*
X217702185Y-99131678D01*
X217749804Y-99036440D01*
X217797423Y-98845964D01*
X217797423Y-98703107D01*
X217749804Y-98512631D01*
X217702185Y-98417393D01*
X217606946Y-98322155D01*
X217464089Y-98274535D01*
X217368851Y-98274535D01*
X217225994Y-98322155D01*
X217178375Y-98369774D01*
X216273613Y-98274535D02*
X216749804Y-98274535D01*
X216797423Y-98750726D01*
X216749804Y-98703107D01*
X216654565Y-98655488D01*
X216416470Y-98655488D01*
X216321232Y-98703107D01*
X216273613Y-98750726D01*
X216225994Y-98845964D01*
X216225994Y-99084059D01*
X216273613Y-99179297D01*
X216321232Y-99226916D01*
X216416470Y-99274535D01*
X216654565Y-99274535D01*
X216749804Y-99226916D01*
X216797423Y-99179297D01*
X154455756Y-30122601D02*
X154122423Y-30122601D01*
X153979565Y-30646410D02*
X154455756Y-30646410D01*
X154455756Y-29646410D01*
X153979565Y-29646410D01*
X153646232Y-29646410D02*
X152979565Y-30646410D01*
X152979565Y-29646410D02*
X153646232Y-30646410D01*
X152741470Y-29646410D02*
X152170042Y-29646410D01*
X152455756Y-30646410D02*
X152455756Y-29646410D01*
X152074804Y-30741649D02*
X151312899Y-30741649D01*
X150503375Y-30646410D02*
X150836708Y-30170220D01*
X151074804Y-30646410D02*
X151074804Y-29646410D01*
X150693851Y-29646410D01*
X150598613Y-29694030D01*
X150550994Y-29741649D01*
X150503375Y-29836887D01*
X150503375Y-29979744D01*
X150550994Y-30074982D01*
X150598613Y-30122601D01*
X150693851Y-30170220D01*
X151074804Y-30170220D01*
X149598613Y-29646410D02*
X150074804Y-29646410D01*
X150122423Y-30122601D01*
X150074804Y-30074982D01*
X149979565Y-30027363D01*
X149741470Y-30027363D01*
X149646232Y-30074982D01*
X149598613Y-30122601D01*
X149550994Y-30217839D01*
X149550994Y-30455934D01*
X149598613Y-30551172D01*
X149646232Y-30598791D01*
X149741470Y-30646410D01*
X149979565Y-30646410D01*
X150074804Y-30598791D01*
X150122423Y-30551172D01*
D14*
X26555077Y-21514595D02*
X26555077Y-21014595D01*
X26436030Y-21014595D01*
X26364601Y-21038405D01*
X26316982Y-21086024D01*
X26293173Y-21133643D01*
X26269363Y-21228881D01*
X26269363Y-21300309D01*
X26293173Y-21395547D01*
X26316982Y-21443166D01*
X26364601Y-21490785D01*
X26436030Y-21514595D01*
X26555077Y-21514595D01*
X25793173Y-21514595D02*
X26078887Y-21514595D01*
X25936030Y-21514595D02*
X25936030Y-21014595D01*
X25983649Y-21086024D01*
X26031268Y-21133643D01*
X26078887Y-21157452D01*
X25483649Y-21014595D02*
X25436030Y-21014595D01*
X25388411Y-21038405D01*
X25364601Y-21062214D01*
X25340792Y-21109833D01*
X25316982Y-21205071D01*
X25316982Y-21324119D01*
X25340792Y-21419357D01*
X25364601Y-21466976D01*
X25388411Y-21490785D01*
X25436030Y-21514595D01*
X25483649Y-21514595D01*
X25531268Y-21490785D01*
X25555077Y-21466976D01*
X25578887Y-21419357D01*
X25602696Y-21324119D01*
X25602696Y-21205071D01*
X25578887Y-21109833D01*
X25555077Y-21062214D01*
X25531268Y-21038405D01*
X25483649Y-21014595D01*
D11*
X46548315Y-64916500D02*
X46072125Y-64583166D01*
X46548315Y-64345071D02*
X45548315Y-64345071D01*
X45548315Y-64726024D01*
X45595935Y-64821262D01*
X45643554Y-64868881D01*
X45738792Y-64916500D01*
X45881649Y-64916500D01*
X45976887Y-64868881D01*
X46024506Y-64821262D01*
X46072125Y-64726024D01*
X46072125Y-64345071D01*
X46500696Y-65726024D02*
X46548315Y-65630785D01*
X46548315Y-65440309D01*
X46500696Y-65345071D01*
X46405458Y-65297452D01*
X46024506Y-65297452D01*
X45929268Y-65345071D01*
X45881649Y-65440309D01*
X45881649Y-65630785D01*
X45929268Y-65726024D01*
X46024506Y-65773643D01*
X46119744Y-65773643D01*
X46214982Y-65297452D01*
X46500696Y-66154595D02*
X46548315Y-66249833D01*
X46548315Y-66440309D01*
X46500696Y-66535547D01*
X46405458Y-66583166D01*
X46357839Y-66583166D01*
X46262601Y-66535547D01*
X46214982Y-66440309D01*
X46214982Y-66297452D01*
X46167363Y-66202214D01*
X46072125Y-66154595D01*
X46024506Y-66154595D01*
X45929268Y-66202214D01*
X45881649Y-66297452D01*
X45881649Y-66440309D01*
X45929268Y-66535547D01*
X46500696Y-67392690D02*
X46548315Y-67297452D01*
X46548315Y-67106976D01*
X46500696Y-67011738D01*
X46405458Y-66964119D01*
X46024506Y-66964119D01*
X45929268Y-67011738D01*
X45881649Y-67106976D01*
X45881649Y-67297452D01*
X45929268Y-67392690D01*
X46024506Y-67440309D01*
X46119744Y-67440309D01*
X46214982Y-66964119D01*
X45881649Y-67726024D02*
X45881649Y-68106976D01*
X45548315Y-67868881D02*
X46405458Y-67868881D01*
X46500696Y-67916500D01*
X46548315Y-68011738D01*
X46548315Y-68106976D01*
X46500696Y-68392690D02*
X46548315Y-68535547D01*
X46548315Y-68773643D01*
X46500696Y-68868881D01*
X46453077Y-68916500D01*
X46357839Y-68964119D01*
X46262601Y-68964119D01*
X46167363Y-68916500D01*
X46119744Y-68868881D01*
X46072125Y-68773643D01*
X46024506Y-68583166D01*
X45976887Y-68487928D01*
X45929268Y-68440309D01*
X45834030Y-68392690D01*
X45738792Y-68392690D01*
X45643554Y-68440309D01*
X45595935Y-68487928D01*
X45548315Y-68583166D01*
X45548315Y-68821262D01*
X45595935Y-68964119D01*
X45548315Y-69297452D02*
X46548315Y-69535547D01*
X45834030Y-69726024D01*
X46548315Y-69916500D01*
X45548315Y-70154595D01*
X46548315Y-71059357D02*
X46548315Y-70487928D01*
X46548315Y-70773643D02*
X45548315Y-70773643D01*
X45691173Y-70678405D01*
X45786411Y-70583166D01*
X45834030Y-70487928D01*
X39198355Y-63536860D02*
X38722165Y-63203526D01*
X39198355Y-62965431D02*
X38198355Y-62965431D01*
X38198355Y-63346384D01*
X38245975Y-63441622D01*
X38293594Y-63489241D01*
X38388832Y-63536860D01*
X38531689Y-63536860D01*
X38626927Y-63489241D01*
X38674546Y-63441622D01*
X38722165Y-63346384D01*
X38722165Y-62965431D01*
X39150736Y-64346384D02*
X39198355Y-64251145D01*
X39198355Y-64060669D01*
X39150736Y-63965431D01*
X39055498Y-63917812D01*
X38674546Y-63917812D01*
X38579308Y-63965431D01*
X38531689Y-64060669D01*
X38531689Y-64251145D01*
X38579308Y-64346384D01*
X38674546Y-64394003D01*
X38769784Y-64394003D01*
X38865022Y-63917812D01*
X39150736Y-64774955D02*
X39198355Y-64870193D01*
X39198355Y-65060669D01*
X39150736Y-65155907D01*
X39055498Y-65203526D01*
X39007879Y-65203526D01*
X38912641Y-65155907D01*
X38865022Y-65060669D01*
X38865022Y-64917812D01*
X38817403Y-64822574D01*
X38722165Y-64774955D01*
X38674546Y-64774955D01*
X38579308Y-64822574D01*
X38531689Y-64917812D01*
X38531689Y-65060669D01*
X38579308Y-65155907D01*
X39150736Y-66013050D02*
X39198355Y-65917812D01*
X39198355Y-65727336D01*
X39150736Y-65632098D01*
X39055498Y-65584479D01*
X38674546Y-65584479D01*
X38579308Y-65632098D01*
X38531689Y-65727336D01*
X38531689Y-65917812D01*
X38579308Y-66013050D01*
X38674546Y-66060669D01*
X38769784Y-66060669D01*
X38865022Y-65584479D01*
X38531689Y-66346384D02*
X38531689Y-66727336D01*
X38198355Y-66489241D02*
X39055498Y-66489241D01*
X39150736Y-66536860D01*
X39198355Y-66632098D01*
X39198355Y-66727336D01*
X39150736Y-67013050D02*
X39198355Y-67155907D01*
X39198355Y-67394003D01*
X39150736Y-67489241D01*
X39103117Y-67536860D01*
X39007879Y-67584479D01*
X38912641Y-67584479D01*
X38817403Y-67536860D01*
X38769784Y-67489241D01*
X38722165Y-67394003D01*
X38674546Y-67203526D01*
X38626927Y-67108288D01*
X38579308Y-67060669D01*
X38484070Y-67013050D01*
X38388832Y-67013050D01*
X38293594Y-67060669D01*
X38245975Y-67108288D01*
X38198355Y-67203526D01*
X38198355Y-67441622D01*
X38245975Y-67584479D01*
X38198355Y-67917812D02*
X39198355Y-68155907D01*
X38484070Y-68346384D01*
X39198355Y-68536860D01*
X38198355Y-68774955D01*
X39198355Y-69679717D02*
X39198355Y-69108288D01*
X39198355Y-69394003D02*
X38198355Y-69394003D01*
X38341213Y-69298765D01*
X38436451Y-69203526D01*
X38484070Y-69108288D01*
D10*
X45390166Y-36505504D02*
X45103956Y-36556012D01*
X45188135Y-36303474D02*
X44834582Y-36657027D01*
X44969269Y-36791714D01*
X45019776Y-36808550D01*
X45053448Y-36808550D01*
X45103956Y-36791714D01*
X45154463Y-36741206D01*
X45171299Y-36690699D01*
X45171299Y-36657027D01*
X45154463Y-36606519D01*
X45019776Y-36471832D01*
X45356494Y-37178939D02*
X45188135Y-37010580D01*
X45339658Y-36825386D01*
X45339658Y-36859058D01*
X45356494Y-36909565D01*
X45440673Y-36993745D01*
X45491181Y-37010580D01*
X45524853Y-37010580D01*
X45575360Y-36993745D01*
X45659540Y-36909565D01*
X45676376Y-36859058D01*
X45676376Y-36825386D01*
X45659540Y-36774878D01*
X45575360Y-36690699D01*
X45524853Y-36673863D01*
X45491181Y-36673863D01*
X66552801Y-36915170D02*
X66502293Y-36628960D01*
X66754831Y-36713139D02*
X66401278Y-36359586D01*
X66266591Y-36494273D01*
X66249755Y-36544780D01*
X66249755Y-36578452D01*
X66266591Y-36628960D01*
X66317099Y-36679467D01*
X66367606Y-36696303D01*
X66401278Y-36696303D01*
X66451786Y-36679467D01*
X66586473Y-36544780D01*
X65896202Y-36864662D02*
X65963545Y-36797319D01*
X66014053Y-36780483D01*
X66047725Y-36780483D01*
X66131904Y-36797319D01*
X66216083Y-36847826D01*
X66350770Y-36982513D01*
X66367606Y-37033021D01*
X66367606Y-37066693D01*
X66350770Y-37117200D01*
X66283427Y-37184544D01*
X66232919Y-37201380D01*
X66199247Y-37201380D01*
X66148740Y-37184544D01*
X66064560Y-37100364D01*
X66047725Y-37049857D01*
X66047725Y-37016185D01*
X66064560Y-36965677D01*
X66131904Y-36898334D01*
X66182412Y-36881498D01*
X66216083Y-36881498D01*
X66266591Y-36898334D01*
X52574153Y-23786085D02*
X52574153Y-23752413D01*
X52540481Y-23685070D01*
X52506810Y-23651398D01*
X52439466Y-23617726D01*
X52372122Y-23617726D01*
X52321615Y-23634562D01*
X52237435Y-23685070D01*
X52186928Y-23735577D01*
X52136420Y-23819757D01*
X52119584Y-23870264D01*
X52119584Y-23937608D01*
X52153256Y-24004951D01*
X52186928Y-24038623D01*
X52254271Y-24072295D01*
X52287943Y-24072295D01*
X52422630Y-24206982D02*
X52422630Y-24240654D01*
X52439466Y-24291161D01*
X52523645Y-24375341D01*
X52574153Y-24392176D01*
X52607825Y-24392176D01*
X52658332Y-24375341D01*
X52692004Y-24341669D01*
X52725676Y-24274325D01*
X52725676Y-23870264D01*
X52944542Y-24089131D01*
D11*
X284233881Y-98750726D02*
X283900548Y-98750726D01*
X283757690Y-99274535D02*
X284233881Y-99274535D01*
X284233881Y-98274535D01*
X283757690Y-98274535D01*
X283424357Y-98274535D02*
X282757690Y-99274535D01*
X282757690Y-98274535D02*
X283424357Y-99274535D01*
X282519595Y-98274535D02*
X281948167Y-98274535D01*
X282233881Y-99274535D02*
X282233881Y-98274535D01*
X281852929Y-99369774D02*
X281091024Y-99369774D01*
X280281500Y-99179297D02*
X280329119Y-99226916D01*
X280471976Y-99274535D01*
X280567214Y-99274535D01*
X280710071Y-99226916D01*
X280805310Y-99131678D01*
X280852929Y-99036440D01*
X280900548Y-98845964D01*
X280900548Y-98703107D01*
X280852929Y-98512631D01*
X280805310Y-98417393D01*
X280710071Y-98322155D01*
X280567214Y-98274535D01*
X280471976Y-98274535D01*
X280329119Y-98322155D01*
X280281500Y-98369774D01*
X279948167Y-98274535D02*
X279281500Y-98274535D01*
X279710071Y-99274535D01*
X83018256Y-99941351D02*
X82684923Y-99941351D01*
X82542065Y-100465160D02*
X83018256Y-100465160D01*
X83018256Y-99465160D01*
X82542065Y-99465160D01*
X82208732Y-99465160D02*
X81542065Y-100465160D01*
X81542065Y-99465160D02*
X82208732Y-100465160D01*
X81303970Y-99465160D02*
X80732542Y-99465160D01*
X81018256Y-100465160D02*
X81018256Y-99465160D01*
X80637304Y-100560399D02*
X79875399Y-100560399D01*
X79065875Y-100465160D02*
X79399208Y-99988970D01*
X79637304Y-100465160D02*
X79637304Y-99465160D01*
X79256351Y-99465160D01*
X79161113Y-99512780D01*
X79113494Y-99560399D01*
X79065875Y-99655637D01*
X79065875Y-99798494D01*
X79113494Y-99893732D01*
X79161113Y-99941351D01*
X79256351Y-99988970D01*
X79637304Y-99988970D01*
X78589685Y-100465160D02*
X78399208Y-100465160D01*
X78303970Y-100417541D01*
X78256351Y-100369922D01*
X78161113Y-100227065D01*
X78113494Y-100036589D01*
X78113494Y-99655637D01*
X78161113Y-99560399D01*
X78208732Y-99512780D01*
X78303970Y-99465160D01*
X78494446Y-99465160D01*
X78589685Y-99512780D01*
X78637304Y-99560399D01*
X78684923Y-99655637D01*
X78684923Y-99893732D01*
X78637304Y-99988970D01*
X78589685Y-100036589D01*
X78494446Y-100084208D01*
X78303970Y-100084208D01*
X78208732Y-100036589D01*
X78161113Y-99988970D01*
X78113494Y-99893732D01*
X83018256Y-100369476D02*
X82684923Y-100369476D01*
X82542065Y-100893285D02*
X83018256Y-100893285D01*
X83018256Y-99893285D01*
X82542065Y-99893285D01*
X82208732Y-99893285D02*
X81542065Y-100893285D01*
X81542065Y-99893285D02*
X82208732Y-100893285D01*
X81303970Y-99893285D02*
X80732542Y-99893285D01*
X81018256Y-100893285D02*
X81018256Y-99893285D01*
X80637304Y-100988524D02*
X79875399Y-100988524D01*
X79065875Y-100893285D02*
X79399208Y-100417095D01*
X79637304Y-100893285D02*
X79637304Y-99893285D01*
X79256351Y-99893285D01*
X79161113Y-99940905D01*
X79113494Y-99988524D01*
X79065875Y-100083762D01*
X79065875Y-100226619D01*
X79113494Y-100321857D01*
X79161113Y-100369476D01*
X79256351Y-100417095D01*
X79637304Y-100417095D01*
X78208732Y-100226619D02*
X78208732Y-100893285D01*
X78446827Y-99845666D02*
X78684923Y-100559952D01*
X78065875Y-100559952D01*
X241157839Y-108080745D02*
X241157839Y-107080745D01*
X241157839Y-107556936D02*
X240586411Y-107556936D01*
X240586411Y-108080745D02*
X240586411Y-107080745D01*
X239681649Y-107414079D02*
X239681649Y-108080745D01*
X239919744Y-107033126D02*
X240157839Y-107747412D01*
X239538792Y-107747412D01*
X150883881Y-30122601D02*
X150550548Y-30122601D01*
X150407690Y-30646410D02*
X150883881Y-30646410D01*
X150883881Y-29646410D01*
X150407690Y-29646410D01*
X150074357Y-29646410D02*
X149407690Y-30646410D01*
X149407690Y-29646410D02*
X150074357Y-30646410D01*
X149169595Y-29646410D02*
X148598167Y-29646410D01*
X148883881Y-30646410D02*
X148883881Y-29646410D01*
X148502929Y-30741649D02*
X147741024Y-30741649D01*
X146931500Y-30646410D02*
X147264833Y-30170220D01*
X147502929Y-30646410D02*
X147502929Y-29646410D01*
X147121976Y-29646410D01*
X147026738Y-29694030D01*
X146979119Y-29741649D01*
X146931500Y-29836887D01*
X146931500Y-29979744D01*
X146979119Y-30074982D01*
X147026738Y-30122601D01*
X147121976Y-30170220D01*
X147502929Y-30170220D01*
X146074357Y-29646410D02*
X146264833Y-29646410D01*
X146360071Y-29694030D01*
X146407690Y-29741649D01*
X146502929Y-29884506D01*
X146550548Y-30074982D01*
X146550548Y-30455934D01*
X146502929Y-30551172D01*
X146455310Y-30598791D01*
X146360071Y-30646410D01*
X146169595Y-30646410D01*
X146074357Y-30598791D01*
X146026738Y-30551172D01*
X145979119Y-30455934D01*
X145979119Y-30217839D01*
X146026738Y-30122601D01*
X146074357Y-30074982D01*
X146169595Y-30027363D01*
X146360071Y-30027363D01*
X146455310Y-30074982D01*
X146502929Y-30122601D01*
X146550548Y-30217839D01*
X147312006Y-26122601D02*
X146978673Y-26122601D01*
X146835815Y-26646410D02*
X147312006Y-26646410D01*
X147312006Y-25646410D01*
X146835815Y-25646410D01*
X146502482Y-25646410D02*
X145835815Y-26646410D01*
X145835815Y-25646410D02*
X146502482Y-26646410D01*
X145597720Y-25646410D02*
X145026292Y-25646410D01*
X145312006Y-26646410D02*
X145312006Y-25646410D01*
X144931054Y-26741649D02*
X144169149Y-26741649D01*
X143359625Y-26646410D02*
X143692958Y-26170220D01*
X143931054Y-26646410D02*
X143931054Y-25646410D01*
X143550101Y-25646410D01*
X143454863Y-25694030D01*
X143407244Y-25741649D01*
X143359625Y-25836887D01*
X143359625Y-25979744D01*
X143407244Y-26074982D01*
X143454863Y-26122601D01*
X143550101Y-26170220D01*
X143931054Y-26170220D01*
X142407244Y-26646410D02*
X142978673Y-26646410D01*
X142692958Y-26646410D02*
X142692958Y-25646410D01*
X142788196Y-25789268D01*
X142883435Y-25884506D01*
X142978673Y-25932125D01*
X58015131Y-75366351D02*
X57681798Y-75366351D01*
X57538940Y-75890160D02*
X58015131Y-75890160D01*
X58015131Y-74890160D01*
X57538940Y-74890160D01*
X57205607Y-74890160D02*
X56538940Y-75890160D01*
X56538940Y-74890160D02*
X57205607Y-75890160D01*
X56300845Y-74890160D02*
X55729417Y-74890160D01*
X56015131Y-75890160D02*
X56015131Y-74890160D01*
X55634179Y-75985399D02*
X54872274Y-75985399D01*
X54062750Y-75890160D02*
X54396083Y-75413970D01*
X54634179Y-75890160D02*
X54634179Y-74890160D01*
X54253226Y-74890160D01*
X54157988Y-74937780D01*
X54110369Y-74985399D01*
X54062750Y-75080637D01*
X54062750Y-75223494D01*
X54110369Y-75318732D01*
X54157988Y-75366351D01*
X54253226Y-75413970D01*
X54634179Y-75413970D01*
X53729417Y-74890160D02*
X53062750Y-74890160D01*
X53491321Y-75890160D01*
X93242601Y-23616738D02*
X93242601Y-24410071D01*
X93195935Y-24503405D01*
X93149268Y-24550071D01*
X93055935Y-24596738D01*
X92869268Y-24596738D01*
X92775935Y-24550071D01*
X92729268Y-24503405D01*
X92682601Y-24410071D01*
X92682601Y-23616738D01*
X92262601Y-23710071D02*
X92215935Y-23663405D01*
X92122601Y-23616738D01*
X91889268Y-23616738D01*
X91795935Y-23663405D01*
X91749268Y-23710071D01*
X91702601Y-23803405D01*
X91702601Y-23896738D01*
X91749268Y-24036738D01*
X92309268Y-24596738D01*
X91702601Y-24596738D01*
D10*
X78863268Y-27229595D02*
X79029935Y-26991500D01*
X79148982Y-27229595D02*
X79148982Y-26729595D01*
X78958506Y-26729595D01*
X78910887Y-26753405D01*
X78887077Y-26777214D01*
X78863268Y-26824833D01*
X78863268Y-26896262D01*
X78887077Y-26943881D01*
X78910887Y-26967690D01*
X78958506Y-26991500D01*
X79148982Y-26991500D01*
X78577554Y-26943881D02*
X78625173Y-26920071D01*
X78648982Y-26896262D01*
X78672792Y-26848643D01*
X78672792Y-26824833D01*
X78648982Y-26777214D01*
X78625173Y-26753405D01*
X78577554Y-26729595D01*
X78482315Y-26729595D01*
X78434696Y-26753405D01*
X78410887Y-26777214D01*
X78387077Y-26824833D01*
X78387077Y-26848643D01*
X78410887Y-26896262D01*
X78434696Y-26920071D01*
X78482315Y-26943881D01*
X78577554Y-26943881D01*
X78625173Y-26967690D01*
X78648982Y-26991500D01*
X78672792Y-27039119D01*
X78672792Y-27134357D01*
X78648982Y-27181976D01*
X78625173Y-27205785D01*
X78577554Y-27229595D01*
X78482315Y-27229595D01*
X78434696Y-27205785D01*
X78410887Y-27181976D01*
X78387077Y-27134357D01*
X78387077Y-27039119D01*
X78410887Y-26991500D01*
X78434696Y-26967690D01*
X78482315Y-26943881D01*
X78863268Y-24816595D02*
X79029935Y-24578500D01*
X79148982Y-24816595D02*
X79148982Y-24316595D01*
X78958506Y-24316595D01*
X78910887Y-24340405D01*
X78887077Y-24364214D01*
X78863268Y-24411833D01*
X78863268Y-24483262D01*
X78887077Y-24530881D01*
X78910887Y-24554690D01*
X78958506Y-24578500D01*
X79148982Y-24578500D01*
X78625173Y-24816595D02*
X78529935Y-24816595D01*
X78482315Y-24792785D01*
X78458506Y-24768976D01*
X78410887Y-24697547D01*
X78387077Y-24602309D01*
X78387077Y-24411833D01*
X78410887Y-24364214D01*
X78434696Y-24340405D01*
X78482315Y-24316595D01*
X78577554Y-24316595D01*
X78625173Y-24340405D01*
X78648982Y-24364214D01*
X78672792Y-24411833D01*
X78672792Y-24530881D01*
X78648982Y-24578500D01*
X78625173Y-24602309D01*
X78577554Y-24626119D01*
X78482315Y-24626119D01*
X78434696Y-24602309D01*
X78410887Y-24578500D01*
X78387077Y-24530881D01*
D11*
X35154268Y-18845745D02*
X35154268Y-19560031D01*
X35201887Y-19702888D01*
X35297125Y-19798126D01*
X35439982Y-19845745D01*
X35535220Y-19845745D01*
X34154268Y-19845745D02*
X34725696Y-19845745D01*
X34439982Y-19845745D02*
X34439982Y-18845745D01*
X34535220Y-18988603D01*
X34630458Y-19083841D01*
X34725696Y-19131460D01*
D10*
X49891278Y-41423210D02*
X49891278Y-41389538D01*
X49857606Y-41322195D01*
X49823935Y-41288523D01*
X49756591Y-41254851D01*
X49689247Y-41254851D01*
X49638740Y-41271687D01*
X49554560Y-41322195D01*
X49504053Y-41372702D01*
X49453545Y-41456882D01*
X49436709Y-41507389D01*
X49436709Y-41574733D01*
X49470381Y-41642076D01*
X49504053Y-41675748D01*
X49571396Y-41709420D01*
X49605068Y-41709420D01*
X49874442Y-42046137D02*
X49807099Y-41978794D01*
X49790263Y-41928286D01*
X49790263Y-41894614D01*
X49807099Y-41810435D01*
X49857606Y-41726256D01*
X49992293Y-41591569D01*
X50042801Y-41574733D01*
X50076473Y-41574733D01*
X50126980Y-41591569D01*
X50194324Y-41658912D01*
X50211160Y-41709420D01*
X50211160Y-41743092D01*
X50194324Y-41793599D01*
X50110144Y-41877779D01*
X50059637Y-41894614D01*
X50025965Y-41894614D01*
X49975457Y-41877779D01*
X49908114Y-41810435D01*
X49891278Y-41759927D01*
X49891278Y-41726256D01*
X49908114Y-41675748D01*
X37207268Y-28880595D02*
X37373935Y-28642500D01*
X37492982Y-28880595D02*
X37492982Y-28380595D01*
X37302506Y-28380595D01*
X37254887Y-28404405D01*
X37231077Y-28428214D01*
X37207268Y-28475833D01*
X37207268Y-28547262D01*
X37231077Y-28594881D01*
X37254887Y-28618690D01*
X37302506Y-28642500D01*
X37492982Y-28642500D01*
X36778696Y-28547262D02*
X36778696Y-28880595D01*
X36897744Y-28356785D02*
X37016792Y-28713928D01*
X36707268Y-28713928D01*
D11*
X131833881Y-98750726D02*
X131500548Y-98750726D01*
X131357690Y-99274535D02*
X131833881Y-99274535D01*
X131833881Y-98274535D01*
X131357690Y-98274535D01*
X131024357Y-98274535D02*
X130357690Y-99274535D01*
X130357690Y-98274535D02*
X131024357Y-99274535D01*
X130119595Y-98274535D02*
X129548167Y-98274535D01*
X129833881Y-99274535D02*
X129833881Y-98274535D01*
X129452929Y-99369774D02*
X128691024Y-99369774D01*
X127881500Y-99179297D02*
X127929119Y-99226916D01*
X128071976Y-99274535D01*
X128167214Y-99274535D01*
X128310071Y-99226916D01*
X128405310Y-99131678D01*
X128452929Y-99036440D01*
X128500548Y-98845964D01*
X128500548Y-98703107D01*
X128452929Y-98512631D01*
X128405310Y-98417393D01*
X128310071Y-98322155D01*
X128167214Y-98274535D01*
X128071976Y-98274535D01*
X127929119Y-98322155D01*
X127881500Y-98369774D01*
X127548167Y-98274535D02*
X126929119Y-98274535D01*
X127262452Y-98655488D01*
X127119595Y-98655488D01*
X127024357Y-98703107D01*
X126976738Y-98750726D01*
X126929119Y-98845964D01*
X126929119Y-99084059D01*
X126976738Y-99179297D01*
X127024357Y-99226916D01*
X127119595Y-99274535D01*
X127405310Y-99274535D01*
X127500548Y-99226916D01*
X127548167Y-99179297D01*
X158027631Y-26122601D02*
X157694298Y-26122601D01*
X157551440Y-26646410D02*
X158027631Y-26646410D01*
X158027631Y-25646410D01*
X157551440Y-25646410D01*
X157218107Y-25646410D02*
X156551440Y-26646410D01*
X156551440Y-25646410D02*
X157218107Y-26646410D01*
X156313345Y-25646410D02*
X155741917Y-25646410D01*
X156027631Y-26646410D02*
X156027631Y-25646410D01*
X155646679Y-26741649D02*
X154884774Y-26741649D01*
X154075250Y-26646410D02*
X154408583Y-26170220D01*
X154646679Y-26646410D02*
X154646679Y-25646410D01*
X154265726Y-25646410D01*
X154170488Y-25694030D01*
X154122869Y-25741649D01*
X154075250Y-25836887D01*
X154075250Y-25979744D01*
X154122869Y-26074982D01*
X154170488Y-26122601D01*
X154265726Y-26170220D01*
X154646679Y-26170220D01*
X153456202Y-25646410D02*
X153360964Y-25646410D01*
X153265726Y-25694030D01*
X153218107Y-25741649D01*
X153170488Y-25836887D01*
X153122869Y-26027363D01*
X153122869Y-26265458D01*
X153170488Y-26455934D01*
X153218107Y-26551172D01*
X153265726Y-26598791D01*
X153360964Y-26646410D01*
X153456202Y-26646410D01*
X153551440Y-26598791D01*
X153599060Y-26551172D01*
X153646679Y-26455934D01*
X153694298Y-26265458D01*
X153694298Y-26027363D01*
X153646679Y-25836887D01*
X153599060Y-25741649D01*
X153551440Y-25694030D01*
X153456202Y-25646410D01*
X290351768Y-52649535D02*
X290351768Y-53363821D01*
X290399387Y-53506678D01*
X290494625Y-53601916D01*
X290637482Y-53649535D01*
X290732720Y-53649535D01*
X289923196Y-52744774D02*
X289875577Y-52697155D01*
X289780339Y-52649535D01*
X289542244Y-52649535D01*
X289447006Y-52697155D01*
X289399387Y-52744774D01*
X289351768Y-52840012D01*
X289351768Y-52935250D01*
X289399387Y-53078107D01*
X289970815Y-53649535D01*
X289351768Y-53649535D01*
X83018256Y-103513226D02*
X82684923Y-103513226D01*
X82542065Y-104037035D02*
X83018256Y-104037035D01*
X83018256Y-103037035D01*
X82542065Y-103037035D01*
X82208732Y-103037035D02*
X81542065Y-104037035D01*
X81542065Y-103037035D02*
X82208732Y-104037035D01*
X81303970Y-103037035D02*
X80732542Y-103037035D01*
X81018256Y-104037035D02*
X81018256Y-103037035D01*
X80637304Y-104132274D02*
X79875399Y-104132274D01*
X79065875Y-103941797D02*
X79113494Y-103989416D01*
X79256351Y-104037035D01*
X79351589Y-104037035D01*
X79494446Y-103989416D01*
X79589685Y-103894178D01*
X79637304Y-103798940D01*
X79684923Y-103608464D01*
X79684923Y-103465607D01*
X79637304Y-103275131D01*
X79589685Y-103179893D01*
X79494446Y-103084655D01*
X79351589Y-103037035D01*
X79256351Y-103037035D01*
X79113494Y-103084655D01*
X79065875Y-103132274D01*
X78113494Y-104037035D02*
X78684923Y-104037035D01*
X78399208Y-104037035D02*
X78399208Y-103037035D01*
X78494446Y-103179893D01*
X78589685Y-103275131D01*
X78684923Y-103322750D01*
X79470190Y-67460994D02*
X78470190Y-67460994D01*
X78470190Y-67699089D01*
X78517810Y-67841946D01*
X78613048Y-67937184D01*
X78708286Y-67984803D01*
X78898762Y-68032422D01*
X79041619Y-68032422D01*
X79232095Y-67984803D01*
X79327333Y-67937184D01*
X79422571Y-67841946D01*
X79470190Y-67699089D01*
X79470190Y-67460994D01*
X78470190Y-68365756D02*
X78470190Y-68984803D01*
X78851143Y-68651470D01*
X78851143Y-68794327D01*
X78898762Y-68889565D01*
X78946381Y-68937184D01*
X79041619Y-68984803D01*
X79279714Y-68984803D01*
X79374952Y-68937184D01*
X79422571Y-68889565D01*
X79470190Y-68794327D01*
X79470190Y-68508613D01*
X79422571Y-68413375D01*
X79374952Y-68365756D01*
X78898762Y-69556232D02*
X78851143Y-69460994D01*
X78803524Y-69413375D01*
X78708286Y-69365756D01*
X78660667Y-69365756D01*
X78565429Y-69413375D01*
X78517810Y-69460994D01*
X78470190Y-69556232D01*
X78470190Y-69746708D01*
X78517810Y-69841946D01*
X78565429Y-69889565D01*
X78660667Y-69937184D01*
X78708286Y-69937184D01*
X78803524Y-69889565D01*
X78851143Y-69841946D01*
X78898762Y-69746708D01*
X78898762Y-69556232D01*
X78946381Y-69460994D01*
X78994000Y-69413375D01*
X79089238Y-69365756D01*
X79279714Y-69365756D01*
X79374952Y-69413375D01*
X79422571Y-69460994D01*
X79470190Y-69556232D01*
X79470190Y-69746708D01*
X79422571Y-69841946D01*
X79374952Y-69889565D01*
X79279714Y-69937184D01*
X79089238Y-69937184D01*
X78994000Y-69889565D01*
X78946381Y-69841946D01*
X78898762Y-69746708D01*
X298545190Y-105560994D02*
X297545190Y-105560994D01*
X297545190Y-105799089D01*
X297592810Y-105941946D01*
X297688048Y-106037184D01*
X297783286Y-106084803D01*
X297973762Y-106132422D01*
X298116619Y-106132422D01*
X298307095Y-106084803D01*
X298402333Y-106037184D01*
X298497571Y-105941946D01*
X298545190Y-105799089D01*
X298545190Y-105560994D01*
X297545190Y-107037184D02*
X297545190Y-106560994D01*
X298021381Y-106513375D01*
X297973762Y-106560994D01*
X297926143Y-106656232D01*
X297926143Y-106894327D01*
X297973762Y-106989565D01*
X298021381Y-107037184D01*
X298116619Y-107084803D01*
X298354714Y-107084803D01*
X298449952Y-107037184D01*
X298497571Y-106989565D01*
X298545190Y-106894327D01*
X298545190Y-106656232D01*
X298497571Y-106560994D01*
X298449952Y-106513375D01*
X298545190Y-108037184D02*
X298545190Y-107465756D01*
X298545190Y-107751470D02*
X297545190Y-107751470D01*
X297688048Y-107656232D01*
X297783286Y-107560994D01*
X297830905Y-107465756D01*
X98520190Y-68510994D02*
X97520190Y-68510994D01*
X97520190Y-68749089D01*
X97567810Y-68891946D01*
X97663048Y-68987184D01*
X97758286Y-69034803D01*
X97948762Y-69082422D01*
X98091619Y-69082422D01*
X98282095Y-69034803D01*
X98377333Y-68987184D01*
X98472571Y-68891946D01*
X98520190Y-68749089D01*
X98520190Y-68510994D01*
X97520190Y-69415756D02*
X97520190Y-70034803D01*
X97901143Y-69701470D01*
X97901143Y-69844327D01*
X97948762Y-69939565D01*
X97996381Y-69987184D01*
X98091619Y-70034803D01*
X98329714Y-70034803D01*
X98424952Y-69987184D01*
X98472571Y-69939565D01*
X98520190Y-69844327D01*
X98520190Y-69558613D01*
X98472571Y-69463375D01*
X98424952Y-69415756D01*
X97520190Y-70368137D02*
X97520190Y-71034803D01*
X98520190Y-70606232D01*
X96138940Y-106610994D02*
X95138940Y-106610994D01*
X95138940Y-106849089D01*
X95186560Y-106991946D01*
X95281798Y-107087184D01*
X95377036Y-107134803D01*
X95567512Y-107182422D01*
X95710369Y-107182422D01*
X95900845Y-107134803D01*
X95996083Y-107087184D01*
X96091321Y-106991946D01*
X96138940Y-106849089D01*
X96138940Y-106610994D01*
X95138940Y-108087184D02*
X95138940Y-107610994D01*
X95615131Y-107563375D01*
X95567512Y-107610994D01*
X95519893Y-107706232D01*
X95519893Y-107944327D01*
X95567512Y-108039565D01*
X95615131Y-108087184D01*
X95710369Y-108134803D01*
X95948464Y-108134803D01*
X96043702Y-108087184D01*
X96091321Y-108039565D01*
X96138940Y-107944327D01*
X96138940Y-107706232D01*
X96091321Y-107610994D01*
X96043702Y-107563375D01*
X95138940Y-108468137D02*
X95138940Y-109134803D01*
X96138940Y-108706232D01*
X134238940Y-104370369D02*
X133238940Y-104370369D01*
X133238940Y-104608464D01*
X133286560Y-104751321D01*
X133381798Y-104846559D01*
X133477036Y-104894178D01*
X133667512Y-104941797D01*
X133810369Y-104941797D01*
X134000845Y-104894178D01*
X134096083Y-104846559D01*
X134191321Y-104751321D01*
X134238940Y-104608464D01*
X134238940Y-104370369D01*
X133334179Y-105322750D02*
X133286560Y-105370369D01*
X133238940Y-105465607D01*
X133238940Y-105703702D01*
X133286560Y-105798940D01*
X133334179Y-105846559D01*
X133429417Y-105894178D01*
X133524655Y-105894178D01*
X133667512Y-105846559D01*
X134238940Y-105275131D01*
X134238940Y-105894178D01*
X133334179Y-106275131D02*
X133286560Y-106322750D01*
X133238940Y-106417988D01*
X133238940Y-106656083D01*
X133286560Y-106751321D01*
X133334179Y-106798940D01*
X133429417Y-106846559D01*
X133524655Y-106846559D01*
X133667512Y-106798940D01*
X134238940Y-106227512D01*
X134238940Y-106846559D01*
X88995190Y-87560994D02*
X87995190Y-87560994D01*
X87995190Y-87799089D01*
X88042810Y-87941946D01*
X88138048Y-88037184D01*
X88233286Y-88084803D01*
X88423762Y-88132422D01*
X88566619Y-88132422D01*
X88757095Y-88084803D01*
X88852333Y-88037184D01*
X88947571Y-87941946D01*
X88995190Y-87799089D01*
X88995190Y-87560994D01*
X88328524Y-88989565D02*
X88995190Y-88989565D01*
X87947571Y-88751470D02*
X88661857Y-88513375D01*
X88661857Y-89132422D01*
X87995190Y-89418137D02*
X87995190Y-90084803D01*
X88995190Y-89656232D01*
X203295190Y-87560994D02*
X202295190Y-87560994D01*
X202295190Y-87799089D01*
X202342810Y-87941946D01*
X202438048Y-88037184D01*
X202533286Y-88084803D01*
X202723762Y-88132422D01*
X202866619Y-88132422D01*
X203057095Y-88084803D01*
X203152333Y-88037184D01*
X203247571Y-87941946D01*
X203295190Y-87799089D01*
X203295190Y-87560994D01*
X202628524Y-88989565D02*
X203295190Y-88989565D01*
X202247571Y-88751470D02*
X202961857Y-88513375D01*
X202961857Y-89132422D01*
X202295190Y-89989565D02*
X202295190Y-89513375D01*
X202771381Y-89465756D01*
X202723762Y-89513375D01*
X202676143Y-89608613D01*
X202676143Y-89846708D01*
X202723762Y-89941946D01*
X202771381Y-89989565D01*
X202866619Y-90037184D01*
X203104714Y-90037184D01*
X203199952Y-89989565D01*
X203247571Y-89941946D01*
X203295190Y-89846708D01*
X203295190Y-89608613D01*
X203247571Y-89513375D01*
X203199952Y-89465756D01*
X127095190Y-106660994D02*
X126095190Y-106660994D01*
X126095190Y-106899089D01*
X126142810Y-107041946D01*
X126238048Y-107137184D01*
X126333286Y-107184803D01*
X126523762Y-107232422D01*
X126666619Y-107232422D01*
X126857095Y-107184803D01*
X126952333Y-107137184D01*
X127047571Y-107041946D01*
X127095190Y-106899089D01*
X127095190Y-106660994D01*
X126095190Y-108137184D02*
X126095190Y-107660994D01*
X126571381Y-107613375D01*
X126523762Y-107660994D01*
X126476143Y-107756232D01*
X126476143Y-107994327D01*
X126523762Y-108089565D01*
X126571381Y-108137184D01*
X126666619Y-108184803D01*
X126904714Y-108184803D01*
X126999952Y-108137184D01*
X127047571Y-108089565D01*
X127095190Y-107994327D01*
X127095190Y-107756232D01*
X127047571Y-107660994D01*
X126999952Y-107613375D01*
X126095190Y-109041946D02*
X126095190Y-108851470D01*
X126142810Y-108756232D01*
X126190429Y-108708613D01*
X126333286Y-108613375D01*
X126523762Y-108565756D01*
X126904714Y-108565756D01*
X126999952Y-108613375D01*
X127047571Y-108660994D01*
X127095190Y-108756232D01*
X127095190Y-108946708D01*
X127047571Y-109041946D01*
X126999952Y-109089565D01*
X126904714Y-109137184D01*
X126666619Y-109137184D01*
X126571381Y-109089565D01*
X126523762Y-109041946D01*
X126476143Y-108946708D01*
X126476143Y-108756232D01*
X126523762Y-108660994D01*
X126571381Y-108613375D01*
X126666619Y-108565756D01*
X260445190Y-86510994D02*
X259445190Y-86510994D01*
X259445190Y-86749089D01*
X259492810Y-86891946D01*
X259588048Y-86987184D01*
X259683286Y-87034803D01*
X259873762Y-87082422D01*
X260016619Y-87082422D01*
X260207095Y-87034803D01*
X260302333Y-86987184D01*
X260397571Y-86891946D01*
X260445190Y-86749089D01*
X260445190Y-86510994D01*
X260445190Y-87558613D02*
X260445190Y-87749089D01*
X260397571Y-87844327D01*
X260349952Y-87891946D01*
X260207095Y-87987184D01*
X260016619Y-88034803D01*
X259635667Y-88034803D01*
X259540429Y-87987184D01*
X259492810Y-87939565D01*
X259445190Y-87844327D01*
X259445190Y-87653851D01*
X259492810Y-87558613D01*
X259540429Y-87510994D01*
X259635667Y-87463375D01*
X259873762Y-87463375D01*
X259969000Y-87510994D01*
X260016619Y-87558613D01*
X260064238Y-87653851D01*
X260064238Y-87844327D01*
X260016619Y-87939565D01*
X259969000Y-87987184D01*
X259873762Y-88034803D01*
X259445190Y-88368137D02*
X259445190Y-88987184D01*
X259826143Y-88653851D01*
X259826143Y-88796708D01*
X259873762Y-88891946D01*
X259921381Y-88939565D01*
X260016619Y-88987184D01*
X260254714Y-88987184D01*
X260349952Y-88939565D01*
X260397571Y-88891946D01*
X260445190Y-88796708D01*
X260445190Y-88510994D01*
X260397571Y-88415756D01*
X260349952Y-88368137D01*
X31845190Y-105560994D02*
X30845190Y-105560994D01*
X30845190Y-105799089D01*
X30892810Y-105941946D01*
X30988048Y-106037184D01*
X31083286Y-106084803D01*
X31273762Y-106132422D01*
X31416619Y-106132422D01*
X31607095Y-106084803D01*
X31702333Y-106037184D01*
X31797571Y-105941946D01*
X31845190Y-105799089D01*
X31845190Y-105560994D01*
X30845190Y-107037184D02*
X30845190Y-106560994D01*
X31321381Y-106513375D01*
X31273762Y-106560994D01*
X31226143Y-106656232D01*
X31226143Y-106894327D01*
X31273762Y-106989565D01*
X31321381Y-107037184D01*
X31416619Y-107084803D01*
X31654714Y-107084803D01*
X31749952Y-107037184D01*
X31797571Y-106989565D01*
X31845190Y-106894327D01*
X31845190Y-106656232D01*
X31797571Y-106560994D01*
X31749952Y-106513375D01*
X31845190Y-107560994D02*
X31845190Y-107751470D01*
X31797571Y-107846708D01*
X31749952Y-107894327D01*
X31607095Y-107989565D01*
X31416619Y-108037184D01*
X31035667Y-108037184D01*
X30940429Y-107989565D01*
X30892810Y-107941946D01*
X30845190Y-107846708D01*
X30845190Y-107656232D01*
X30892810Y-107560994D01*
X30940429Y-107513375D01*
X31035667Y-107465756D01*
X31273762Y-107465756D01*
X31369000Y-107513375D01*
X31416619Y-107560994D01*
X31464238Y-107656232D01*
X31464238Y-107846708D01*
X31416619Y-107941946D01*
X31369000Y-107989565D01*
X31273762Y-108037184D01*
X231870190Y-67460994D02*
X230870190Y-67460994D01*
X230870190Y-67699089D01*
X230917810Y-67841946D01*
X231013048Y-67937184D01*
X231108286Y-67984803D01*
X231298762Y-68032422D01*
X231441619Y-68032422D01*
X231632095Y-67984803D01*
X231727333Y-67937184D01*
X231822571Y-67841946D01*
X231870190Y-67699089D01*
X231870190Y-67460994D01*
X230870190Y-68365756D02*
X230870190Y-68984803D01*
X231251143Y-68651470D01*
X231251143Y-68794327D01*
X231298762Y-68889565D01*
X231346381Y-68937184D01*
X231441619Y-68984803D01*
X231679714Y-68984803D01*
X231774952Y-68937184D01*
X231822571Y-68889565D01*
X231870190Y-68794327D01*
X231870190Y-68508613D01*
X231822571Y-68413375D01*
X231774952Y-68365756D01*
X231203524Y-69841946D02*
X231870190Y-69841946D01*
X230822571Y-69603851D02*
X231536857Y-69365756D01*
X231536857Y-69984803D01*
X241395190Y-87560994D02*
X240395190Y-87560994D01*
X240395190Y-87799089D01*
X240442810Y-87941946D01*
X240538048Y-88037184D01*
X240633286Y-88084803D01*
X240823762Y-88132422D01*
X240966619Y-88132422D01*
X241157095Y-88084803D01*
X241252333Y-88037184D01*
X241347571Y-87941946D01*
X241395190Y-87799089D01*
X241395190Y-87560994D01*
X241395190Y-88608613D02*
X241395190Y-88799089D01*
X241347571Y-88894327D01*
X241299952Y-88941946D01*
X241157095Y-89037184D01*
X240966619Y-89084803D01*
X240585667Y-89084803D01*
X240490429Y-89037184D01*
X240442810Y-88989565D01*
X240395190Y-88894327D01*
X240395190Y-88703851D01*
X240442810Y-88608613D01*
X240490429Y-88560994D01*
X240585667Y-88513375D01*
X240823762Y-88513375D01*
X240919000Y-88560994D01*
X240966619Y-88608613D01*
X241014238Y-88703851D01*
X241014238Y-88894327D01*
X240966619Y-88989565D01*
X240919000Y-89037184D01*
X240823762Y-89084803D01*
X240728524Y-89941946D02*
X241395190Y-89941946D01*
X240347571Y-89703851D02*
X241061857Y-89465756D01*
X241061857Y-90084803D01*
X218773315Y-106606994D02*
X217773315Y-106606994D01*
X217773315Y-106845089D01*
X217820935Y-106987946D01*
X217916173Y-107083184D01*
X218011411Y-107130803D01*
X218201887Y-107178422D01*
X218344744Y-107178422D01*
X218535220Y-107130803D01*
X218630458Y-107083184D01*
X218725696Y-106987946D01*
X218773315Y-106845089D01*
X218773315Y-106606994D01*
X218773315Y-107654613D02*
X218773315Y-107845089D01*
X218725696Y-107940327D01*
X218678077Y-107987946D01*
X218535220Y-108083184D01*
X218344744Y-108130803D01*
X217963792Y-108130803D01*
X217868554Y-108083184D01*
X217820935Y-108035565D01*
X217773315Y-107940327D01*
X217773315Y-107749851D01*
X217820935Y-107654613D01*
X217868554Y-107606994D01*
X217963792Y-107559375D01*
X218201887Y-107559375D01*
X218297125Y-107606994D01*
X218344744Y-107654613D01*
X218392363Y-107749851D01*
X218392363Y-107940327D01*
X218344744Y-108035565D01*
X218297125Y-108083184D01*
X218201887Y-108130803D01*
X217773315Y-108987946D02*
X217773315Y-108797470D01*
X217820935Y-108702232D01*
X217868554Y-108654613D01*
X218011411Y-108559375D01*
X218201887Y-108511756D01*
X218582839Y-108511756D01*
X218678077Y-108559375D01*
X218725696Y-108606994D01*
X218773315Y-108702232D01*
X218773315Y-108892708D01*
X218725696Y-108987946D01*
X218678077Y-109035565D01*
X218582839Y-109083184D01*
X218344744Y-109083184D01*
X218249506Y-109035565D01*
X218201887Y-108987946D01*
X218154268Y-108892708D01*
X218154268Y-108702232D01*
X218201887Y-108606994D01*
X218249506Y-108559375D01*
X218344744Y-108511756D01*
X222345190Y-86510994D02*
X221345190Y-86510994D01*
X221345190Y-86749089D01*
X221392810Y-86891946D01*
X221488048Y-86987184D01*
X221583286Y-87034803D01*
X221773762Y-87082422D01*
X221916619Y-87082422D01*
X222107095Y-87034803D01*
X222202333Y-86987184D01*
X222297571Y-86891946D01*
X222345190Y-86749089D01*
X222345190Y-86510994D01*
X221678524Y-87939565D02*
X222345190Y-87939565D01*
X221297571Y-87701470D02*
X222011857Y-87463375D01*
X222011857Y-88082422D01*
X221345190Y-88368137D02*
X221345190Y-88987184D01*
X221726143Y-88653851D01*
X221726143Y-88796708D01*
X221773762Y-88891946D01*
X221821381Y-88939565D01*
X221916619Y-88987184D01*
X222154714Y-88987184D01*
X222249952Y-88939565D01*
X222297571Y-88891946D01*
X222345190Y-88796708D01*
X222345190Y-88510994D01*
X222297571Y-88415756D01*
X222249952Y-88368137D01*
X279495190Y-106610994D02*
X278495190Y-106610994D01*
X278495190Y-106849089D01*
X278542810Y-106991946D01*
X278638048Y-107087184D01*
X278733286Y-107134803D01*
X278923762Y-107182422D01*
X279066619Y-107182422D01*
X279257095Y-107134803D01*
X279352333Y-107087184D01*
X279447571Y-106991946D01*
X279495190Y-106849089D01*
X279495190Y-106610994D01*
X278495190Y-108087184D02*
X278495190Y-107610994D01*
X278971381Y-107563375D01*
X278923762Y-107610994D01*
X278876143Y-107706232D01*
X278876143Y-107944327D01*
X278923762Y-108039565D01*
X278971381Y-108087184D01*
X279066619Y-108134803D01*
X279304714Y-108134803D01*
X279399952Y-108087184D01*
X279447571Y-108039565D01*
X279495190Y-107944327D01*
X279495190Y-107706232D01*
X279447571Y-107610994D01*
X279399952Y-107563375D01*
X278590429Y-108515756D02*
X278542810Y-108563375D01*
X278495190Y-108658613D01*
X278495190Y-108896708D01*
X278542810Y-108991946D01*
X278590429Y-109039565D01*
X278685667Y-109087184D01*
X278780905Y-109087184D01*
X278923762Y-109039565D01*
X279495190Y-108468137D01*
X279495190Y-109087184D01*
X212820190Y-68510994D02*
X211820190Y-68510994D01*
X211820190Y-68749089D01*
X211867810Y-68891946D01*
X211963048Y-68987184D01*
X212058286Y-69034803D01*
X212248762Y-69082422D01*
X212391619Y-69082422D01*
X212582095Y-69034803D01*
X212677333Y-68987184D01*
X212772571Y-68891946D01*
X212820190Y-68749089D01*
X212820190Y-68510994D01*
X211820190Y-69415756D02*
X211820190Y-70034803D01*
X212201143Y-69701470D01*
X212201143Y-69844327D01*
X212248762Y-69939565D01*
X212296381Y-69987184D01*
X212391619Y-70034803D01*
X212629714Y-70034803D01*
X212724952Y-69987184D01*
X212772571Y-69939565D01*
X212820190Y-69844327D01*
X212820190Y-69558613D01*
X212772571Y-69463375D01*
X212724952Y-69415756D01*
X211820190Y-70939565D02*
X211820190Y-70463375D01*
X212296381Y-70415756D01*
X212248762Y-70463375D01*
X212201143Y-70558613D01*
X212201143Y-70796708D01*
X212248762Y-70891946D01*
X212296381Y-70939565D01*
X212391619Y-70987184D01*
X212629714Y-70987184D01*
X212724952Y-70939565D01*
X212772571Y-70891946D01*
X212820190Y-70796708D01*
X212820190Y-70558613D01*
X212772571Y-70463375D01*
X212724952Y-70415756D01*
X250920190Y-68510994D02*
X249920190Y-68510994D01*
X249920190Y-68749089D01*
X249967810Y-68891946D01*
X250063048Y-68987184D01*
X250158286Y-69034803D01*
X250348762Y-69082422D01*
X250491619Y-69082422D01*
X250682095Y-69034803D01*
X250777333Y-68987184D01*
X250872571Y-68891946D01*
X250920190Y-68749089D01*
X250920190Y-68510994D01*
X250348762Y-69653851D02*
X250301143Y-69558613D01*
X250253524Y-69510994D01*
X250158286Y-69463375D01*
X250110667Y-69463375D01*
X250015429Y-69510994D01*
X249967810Y-69558613D01*
X249920190Y-69653851D01*
X249920190Y-69844327D01*
X249967810Y-69939565D01*
X250015429Y-69987184D01*
X250110667Y-70034803D01*
X250158286Y-70034803D01*
X250253524Y-69987184D01*
X250301143Y-69939565D01*
X250348762Y-69844327D01*
X250348762Y-69653851D01*
X250396381Y-69558613D01*
X250444000Y-69510994D01*
X250539238Y-69463375D01*
X250729714Y-69463375D01*
X250824952Y-69510994D01*
X250872571Y-69558613D01*
X250920190Y-69653851D01*
X250920190Y-69844327D01*
X250872571Y-69939565D01*
X250824952Y-69987184D01*
X250729714Y-70034803D01*
X250539238Y-70034803D01*
X250444000Y-69987184D01*
X250396381Y-69939565D01*
X250348762Y-69844327D01*
X250253524Y-70891946D02*
X250920190Y-70891946D01*
X249872571Y-70653851D02*
X250586857Y-70415756D01*
X250586857Y-71034803D01*
X189007690Y-104370369D02*
X188007690Y-104370369D01*
X188007690Y-104608464D01*
X188055310Y-104751321D01*
X188150548Y-104846559D01*
X188245786Y-104894178D01*
X188436262Y-104941797D01*
X188579119Y-104941797D01*
X188769595Y-104894178D01*
X188864833Y-104846559D01*
X188960071Y-104751321D01*
X189007690Y-104608464D01*
X189007690Y-104370369D01*
X188341024Y-105798940D02*
X189007690Y-105798940D01*
X187960071Y-105560845D02*
X188674357Y-105322750D01*
X188674357Y-105941797D01*
X188007690Y-106513226D02*
X188007690Y-106608464D01*
X188055310Y-106703702D01*
X188102929Y-106751321D01*
X188198167Y-106798940D01*
X188388643Y-106846559D01*
X188626738Y-106846559D01*
X188817214Y-106798940D01*
X188912452Y-106751321D01*
X188960071Y-106703702D01*
X189007690Y-106608464D01*
X189007690Y-106513226D01*
X188960071Y-106417988D01*
X188912452Y-106370369D01*
X188817214Y-106322750D01*
X188626738Y-106275131D01*
X188388643Y-106275131D01*
X188198167Y-106322750D01*
X188102929Y-106370369D01*
X188055310Y-106417988D01*
X188007690Y-106513226D01*
X279495190Y-87560994D02*
X278495190Y-87560994D01*
X278495190Y-87799089D01*
X278542810Y-87941946D01*
X278638048Y-88037184D01*
X278733286Y-88084803D01*
X278923762Y-88132422D01*
X279066619Y-88132422D01*
X279257095Y-88084803D01*
X279352333Y-88037184D01*
X279447571Y-87941946D01*
X279495190Y-87799089D01*
X279495190Y-87560994D01*
X278828524Y-88989565D02*
X279495190Y-88989565D01*
X278447571Y-88751470D02*
X279161857Y-88513375D01*
X279161857Y-89132422D01*
X279495190Y-90037184D02*
X279495190Y-89465756D01*
X279495190Y-89751470D02*
X278495190Y-89751470D01*
X278638048Y-89656232D01*
X278733286Y-89560994D01*
X278780905Y-89465756D01*
X53276440Y-67460994D02*
X52276440Y-67460994D01*
X52276440Y-67699089D01*
X52324060Y-67841946D01*
X52419298Y-67937184D01*
X52514536Y-67984803D01*
X52705012Y-68032422D01*
X52847869Y-68032422D01*
X53038345Y-67984803D01*
X53133583Y-67937184D01*
X53228821Y-67841946D01*
X53276440Y-67699089D01*
X53276440Y-67460994D01*
X52276440Y-68365756D02*
X52276440Y-68984803D01*
X52657393Y-68651470D01*
X52657393Y-68794327D01*
X52705012Y-68889565D01*
X52752631Y-68937184D01*
X52847869Y-68984803D01*
X53085964Y-68984803D01*
X53181202Y-68937184D01*
X53228821Y-68889565D01*
X53276440Y-68794327D01*
X53276440Y-68508613D01*
X53228821Y-68413375D01*
X53181202Y-68365756D01*
X53276440Y-69460994D02*
X53276440Y-69651470D01*
X53228821Y-69746708D01*
X53181202Y-69794327D01*
X53038345Y-69889565D01*
X52847869Y-69937184D01*
X52466917Y-69937184D01*
X52371679Y-69889565D01*
X52324060Y-69841946D01*
X52276440Y-69746708D01*
X52276440Y-69556232D01*
X52324060Y-69460994D01*
X52371679Y-69413375D01*
X52466917Y-69365756D01*
X52705012Y-69365756D01*
X52800250Y-69413375D01*
X52847869Y-69460994D01*
X52895488Y-69556232D01*
X52895488Y-69746708D01*
X52847869Y-69841946D01*
X52800250Y-69889565D01*
X52705012Y-69937184D01*
X231870190Y-48410994D02*
X230870190Y-48410994D01*
X230870190Y-48649089D01*
X230917810Y-48791946D01*
X231013048Y-48887184D01*
X231108286Y-48934803D01*
X231298762Y-48982422D01*
X231441619Y-48982422D01*
X231632095Y-48934803D01*
X231727333Y-48887184D01*
X231822571Y-48791946D01*
X231870190Y-48649089D01*
X231870190Y-48410994D01*
X230965429Y-49363375D02*
X230917810Y-49410994D01*
X230870190Y-49506232D01*
X230870190Y-49744327D01*
X230917810Y-49839565D01*
X230965429Y-49887184D01*
X231060667Y-49934803D01*
X231155905Y-49934803D01*
X231298762Y-49887184D01*
X231870190Y-49315756D01*
X231870190Y-49934803D01*
X231203524Y-50791946D02*
X231870190Y-50791946D01*
X230822571Y-50553851D02*
X231536857Y-50315756D01*
X231536857Y-50934803D01*
X278304565Y-68510994D02*
X277304565Y-68510994D01*
X277304565Y-68749089D01*
X277352185Y-68891946D01*
X277447423Y-68987184D01*
X277542661Y-69034803D01*
X277733137Y-69082422D01*
X277875994Y-69082422D01*
X278066470Y-69034803D01*
X278161708Y-68987184D01*
X278256946Y-68891946D01*
X278304565Y-68749089D01*
X278304565Y-68510994D01*
X277304565Y-69415756D02*
X277304565Y-70034803D01*
X277685518Y-69701470D01*
X277685518Y-69844327D01*
X277733137Y-69939565D01*
X277780756Y-69987184D01*
X277875994Y-70034803D01*
X278114089Y-70034803D01*
X278209327Y-69987184D01*
X278256946Y-69939565D01*
X278304565Y-69844327D01*
X278304565Y-69558613D01*
X278256946Y-69463375D01*
X278209327Y-69415756D01*
X277399804Y-70415756D02*
X277352185Y-70463375D01*
X277304565Y-70558613D01*
X277304565Y-70796708D01*
X277352185Y-70891946D01*
X277399804Y-70939565D01*
X277495042Y-70987184D01*
X277590280Y-70987184D01*
X277733137Y-70939565D01*
X278304565Y-70368137D01*
X278304565Y-70987184D01*
X98520190Y-49460994D02*
X97520190Y-49460994D01*
X97520190Y-49699089D01*
X97567810Y-49841946D01*
X97663048Y-49937184D01*
X97758286Y-49984803D01*
X97948762Y-50032422D01*
X98091619Y-50032422D01*
X98282095Y-49984803D01*
X98377333Y-49937184D01*
X98472571Y-49841946D01*
X98520190Y-49699089D01*
X98520190Y-49460994D01*
X97615429Y-50413375D02*
X97567810Y-50460994D01*
X97520190Y-50556232D01*
X97520190Y-50794327D01*
X97567810Y-50889565D01*
X97615429Y-50937184D01*
X97710667Y-50984803D01*
X97805905Y-50984803D01*
X97948762Y-50937184D01*
X98520190Y-50365756D01*
X98520190Y-50984803D01*
X97520190Y-51318137D02*
X97520190Y-51984803D01*
X98520190Y-51556232D01*
X58038940Y-86510994D02*
X57038940Y-86510994D01*
X57038940Y-86749089D01*
X57086560Y-86891946D01*
X57181798Y-86987184D01*
X57277036Y-87034803D01*
X57467512Y-87082422D01*
X57610369Y-87082422D01*
X57800845Y-87034803D01*
X57896083Y-86987184D01*
X57991321Y-86891946D01*
X58038940Y-86749089D01*
X58038940Y-86510994D01*
X57372274Y-87939565D02*
X58038940Y-87939565D01*
X56991321Y-87701470D02*
X57705607Y-87463375D01*
X57705607Y-88082422D01*
X58038940Y-88510994D02*
X58038940Y-88701470D01*
X57991321Y-88796708D01*
X57943702Y-88844327D01*
X57800845Y-88939565D01*
X57610369Y-88987184D01*
X57229417Y-88987184D01*
X57134179Y-88939565D01*
X57086560Y-88891946D01*
X57038940Y-88796708D01*
X57038940Y-88606232D01*
X57086560Y-88510994D01*
X57134179Y-88463375D01*
X57229417Y-88415756D01*
X57467512Y-88415756D01*
X57562750Y-88463375D01*
X57610369Y-88510994D01*
X57657988Y-88606232D01*
X57657988Y-88796708D01*
X57610369Y-88891946D01*
X57562750Y-88939565D01*
X57467512Y-88987184D01*
X298545190Y-86510994D02*
X297545190Y-86510994D01*
X297545190Y-86749089D01*
X297592810Y-86891946D01*
X297688048Y-86987184D01*
X297783286Y-87034803D01*
X297973762Y-87082422D01*
X298116619Y-87082422D01*
X298307095Y-87034803D01*
X298402333Y-86987184D01*
X298497571Y-86891946D01*
X298545190Y-86749089D01*
X298545190Y-86510994D01*
X298545190Y-87558613D02*
X298545190Y-87749089D01*
X298497571Y-87844327D01*
X298449952Y-87891946D01*
X298307095Y-87987184D01*
X298116619Y-88034803D01*
X297735667Y-88034803D01*
X297640429Y-87987184D01*
X297592810Y-87939565D01*
X297545190Y-87844327D01*
X297545190Y-87653851D01*
X297592810Y-87558613D01*
X297640429Y-87510994D01*
X297735667Y-87463375D01*
X297973762Y-87463375D01*
X298069000Y-87510994D01*
X298116619Y-87558613D01*
X298164238Y-87653851D01*
X298164238Y-87844327D01*
X298116619Y-87939565D01*
X298069000Y-87987184D01*
X297973762Y-88034803D01*
X298545190Y-88987184D02*
X298545190Y-88415756D01*
X298545190Y-88701470D02*
X297545190Y-88701470D01*
X297688048Y-88606232D01*
X297783286Y-88510994D01*
X297830905Y-88415756D01*
X50895190Y-106610994D02*
X49895190Y-106610994D01*
X49895190Y-106849089D01*
X49942810Y-106991946D01*
X50038048Y-107087184D01*
X50133286Y-107134803D01*
X50323762Y-107182422D01*
X50466619Y-107182422D01*
X50657095Y-107134803D01*
X50752333Y-107087184D01*
X50847571Y-106991946D01*
X50895190Y-106849089D01*
X50895190Y-106610994D01*
X50895190Y-108134803D02*
X50895190Y-107563375D01*
X50895190Y-107849089D02*
X49895190Y-107849089D01*
X50038048Y-107753851D01*
X50133286Y-107658613D01*
X50180905Y-107563375D01*
X50895190Y-109087184D02*
X50895190Y-108515756D01*
X50895190Y-108801470D02*
X49895190Y-108801470D01*
X50038048Y-108706232D01*
X50133286Y-108610994D01*
X50180905Y-108515756D01*
X69945190Y-86510994D02*
X68945190Y-86510994D01*
X68945190Y-86749089D01*
X68992810Y-86891946D01*
X69088048Y-86987184D01*
X69183286Y-87034803D01*
X69373762Y-87082422D01*
X69516619Y-87082422D01*
X69707095Y-87034803D01*
X69802333Y-86987184D01*
X69897571Y-86891946D01*
X69945190Y-86749089D01*
X69945190Y-86510994D01*
X69278524Y-87939565D02*
X69945190Y-87939565D01*
X68897571Y-87701470D02*
X69611857Y-87463375D01*
X69611857Y-88082422D01*
X69373762Y-88606232D02*
X69326143Y-88510994D01*
X69278524Y-88463375D01*
X69183286Y-88415756D01*
X69135667Y-88415756D01*
X69040429Y-88463375D01*
X68992810Y-88510994D01*
X68945190Y-88606232D01*
X68945190Y-88796708D01*
X68992810Y-88891946D01*
X69040429Y-88939565D01*
X69135667Y-88987184D01*
X69183286Y-88987184D01*
X69278524Y-88939565D01*
X69326143Y-88891946D01*
X69373762Y-88796708D01*
X69373762Y-88606232D01*
X69421381Y-88510994D01*
X69469000Y-88463375D01*
X69564238Y-88415756D01*
X69754714Y-88415756D01*
X69849952Y-88463375D01*
X69897571Y-88510994D01*
X69945190Y-88606232D01*
X69945190Y-88796708D01*
X69897571Y-88891946D01*
X69849952Y-88939565D01*
X69754714Y-88987184D01*
X69564238Y-88987184D01*
X69469000Y-88939565D01*
X69421381Y-88891946D01*
X69373762Y-88796708D01*
X108045190Y-86510994D02*
X107045190Y-86510994D01*
X107045190Y-86749089D01*
X107092810Y-86891946D01*
X107188048Y-86987184D01*
X107283286Y-87034803D01*
X107473762Y-87082422D01*
X107616619Y-87082422D01*
X107807095Y-87034803D01*
X107902333Y-86987184D01*
X107997571Y-86891946D01*
X108045190Y-86749089D01*
X108045190Y-86510994D01*
X108045190Y-87558613D02*
X108045190Y-87749089D01*
X107997571Y-87844327D01*
X107949952Y-87891946D01*
X107807095Y-87987184D01*
X107616619Y-88034803D01*
X107235667Y-88034803D01*
X107140429Y-87987184D01*
X107092810Y-87939565D01*
X107045190Y-87844327D01*
X107045190Y-87653851D01*
X107092810Y-87558613D01*
X107140429Y-87510994D01*
X107235667Y-87463375D01*
X107473762Y-87463375D01*
X107569000Y-87510994D01*
X107616619Y-87558613D01*
X107664238Y-87653851D01*
X107664238Y-87844327D01*
X107616619Y-87939565D01*
X107569000Y-87987184D01*
X107473762Y-88034803D01*
X107045190Y-88368137D02*
X107045190Y-89034803D01*
X108045190Y-88606232D01*
X127095190Y-87560994D02*
X126095190Y-87560994D01*
X126095190Y-87799089D01*
X126142810Y-87941946D01*
X126238048Y-88037184D01*
X126333286Y-88084803D01*
X126523762Y-88132422D01*
X126666619Y-88132422D01*
X126857095Y-88084803D01*
X126952333Y-88037184D01*
X127047571Y-87941946D01*
X127095190Y-87799089D01*
X127095190Y-87560994D01*
X126428524Y-88989565D02*
X127095190Y-88989565D01*
X126047571Y-88751470D02*
X126761857Y-88513375D01*
X126761857Y-89132422D01*
X126095190Y-89941946D02*
X126095190Y-89751470D01*
X126142810Y-89656232D01*
X126190429Y-89608613D01*
X126333286Y-89513375D01*
X126523762Y-89465756D01*
X126904714Y-89465756D01*
X126999952Y-89513375D01*
X127047571Y-89560994D01*
X127095190Y-89656232D01*
X127095190Y-89846708D01*
X127047571Y-89941946D01*
X126999952Y-89989565D01*
X126904714Y-90037184D01*
X126666619Y-90037184D01*
X126571381Y-89989565D01*
X126523762Y-89941946D01*
X126476143Y-89846708D01*
X126476143Y-89656232D01*
X126523762Y-89560994D01*
X126571381Y-89513375D01*
X126666619Y-89465756D01*
X258063940Y-105560994D02*
X257063940Y-105560994D01*
X257063940Y-105799089D01*
X257111560Y-105941946D01*
X257206798Y-106037184D01*
X257302036Y-106084803D01*
X257492512Y-106132422D01*
X257635369Y-106132422D01*
X257825845Y-106084803D01*
X257921083Y-106037184D01*
X258016321Y-105941946D01*
X258063940Y-105799089D01*
X258063940Y-105560994D01*
X258063940Y-106608613D02*
X258063940Y-106799089D01*
X258016321Y-106894327D01*
X257968702Y-106941946D01*
X257825845Y-107037184D01*
X257635369Y-107084803D01*
X257254417Y-107084803D01*
X257159179Y-107037184D01*
X257111560Y-106989565D01*
X257063940Y-106894327D01*
X257063940Y-106703851D01*
X257111560Y-106608613D01*
X257159179Y-106560994D01*
X257254417Y-106513375D01*
X257492512Y-106513375D01*
X257587750Y-106560994D01*
X257635369Y-106608613D01*
X257682988Y-106703851D01*
X257682988Y-106894327D01*
X257635369Y-106989565D01*
X257587750Y-107037184D01*
X257492512Y-107084803D01*
X257159179Y-107465756D02*
X257111560Y-107513375D01*
X257063940Y-107608613D01*
X257063940Y-107846708D01*
X257111560Y-107941946D01*
X257159179Y-107989565D01*
X257254417Y-108037184D01*
X257349655Y-108037184D01*
X257492512Y-107989565D01*
X258063940Y-107418137D01*
X258063940Y-108037184D01*
X117570190Y-67460994D02*
X116570190Y-67460994D01*
X116570190Y-67699089D01*
X116617810Y-67841946D01*
X116713048Y-67937184D01*
X116808286Y-67984803D01*
X116998762Y-68032422D01*
X117141619Y-68032422D01*
X117332095Y-67984803D01*
X117427333Y-67937184D01*
X117522571Y-67841946D01*
X117570190Y-67699089D01*
X117570190Y-67460994D01*
X116998762Y-68603851D02*
X116951143Y-68508613D01*
X116903524Y-68460994D01*
X116808286Y-68413375D01*
X116760667Y-68413375D01*
X116665429Y-68460994D01*
X116617810Y-68508613D01*
X116570190Y-68603851D01*
X116570190Y-68794327D01*
X116617810Y-68889565D01*
X116665429Y-68937184D01*
X116760667Y-68984803D01*
X116808286Y-68984803D01*
X116903524Y-68937184D01*
X116951143Y-68889565D01*
X116998762Y-68794327D01*
X116998762Y-68603851D01*
X117046381Y-68508613D01*
X117094000Y-68460994D01*
X117189238Y-68413375D01*
X117379714Y-68413375D01*
X117474952Y-68460994D01*
X117522571Y-68508613D01*
X117570190Y-68603851D01*
X117570190Y-68794327D01*
X117522571Y-68889565D01*
X117474952Y-68937184D01*
X117379714Y-68984803D01*
X117189238Y-68984803D01*
X117094000Y-68937184D01*
X117046381Y-68889565D01*
X116998762Y-68794327D01*
X116570190Y-69318137D02*
X116570190Y-69984803D01*
X117570190Y-69556232D01*
X184245190Y-106037184D02*
X183245190Y-106037184D01*
X183245190Y-106275280D01*
X183292810Y-106418137D01*
X183388048Y-106513375D01*
X183483286Y-106560994D01*
X183673762Y-106608613D01*
X183816619Y-106608613D01*
X184007095Y-106560994D01*
X184102333Y-106513375D01*
X184197571Y-106418137D01*
X184245190Y-106275280D01*
X184245190Y-106037184D01*
X184245190Y-107560994D02*
X184245190Y-106989565D01*
X184245190Y-107275280D02*
X183245190Y-107275280D01*
X183388048Y-107180041D01*
X183483286Y-107084803D01*
X183530905Y-106989565D01*
X72326440Y-105560994D02*
X71326440Y-105560994D01*
X71326440Y-105799089D01*
X71374060Y-105941946D01*
X71469298Y-106037184D01*
X71564536Y-106084803D01*
X71755012Y-106132422D01*
X71897869Y-106132422D01*
X72088345Y-106084803D01*
X72183583Y-106037184D01*
X72278821Y-105941946D01*
X72326440Y-105799089D01*
X72326440Y-105560994D01*
X72326440Y-106608613D02*
X72326440Y-106799089D01*
X72278821Y-106894327D01*
X72231202Y-106941946D01*
X72088345Y-107037184D01*
X71897869Y-107084803D01*
X71516917Y-107084803D01*
X71421679Y-107037184D01*
X71374060Y-106989565D01*
X71326440Y-106894327D01*
X71326440Y-106703851D01*
X71374060Y-106608613D01*
X71421679Y-106560994D01*
X71516917Y-106513375D01*
X71755012Y-106513375D01*
X71850250Y-106560994D01*
X71897869Y-106608613D01*
X71945488Y-106703851D01*
X71945488Y-106894327D01*
X71897869Y-106989565D01*
X71850250Y-107037184D01*
X71755012Y-107084803D01*
X71755012Y-107656232D02*
X71707393Y-107560994D01*
X71659774Y-107513375D01*
X71564536Y-107465756D01*
X71516917Y-107465756D01*
X71421679Y-107513375D01*
X71374060Y-107560994D01*
X71326440Y-107656232D01*
X71326440Y-107846708D01*
X71374060Y-107941946D01*
X71421679Y-107989565D01*
X71516917Y-108037184D01*
X71564536Y-108037184D01*
X71659774Y-107989565D01*
X71707393Y-107941946D01*
X71755012Y-107846708D01*
X71755012Y-107656232D01*
X71802631Y-107560994D01*
X71850250Y-107513375D01*
X71945488Y-107465756D01*
X72135964Y-107465756D01*
X72231202Y-107513375D01*
X72278821Y-107560994D01*
X72326440Y-107656232D01*
X72326440Y-107846708D01*
X72278821Y-107941946D01*
X72231202Y-107989565D01*
X72135964Y-108037184D01*
X71945488Y-108037184D01*
X71850250Y-107989565D01*
X71802631Y-107941946D01*
X71755012Y-107846708D01*
X269970190Y-67460994D02*
X268970190Y-67460994D01*
X268970190Y-67699089D01*
X269017810Y-67841946D01*
X269113048Y-67937184D01*
X269208286Y-67984803D01*
X269398762Y-68032422D01*
X269541619Y-68032422D01*
X269732095Y-67984803D01*
X269827333Y-67937184D01*
X269922571Y-67841946D01*
X269970190Y-67699089D01*
X269970190Y-67460994D01*
X269303524Y-68889565D02*
X269970190Y-68889565D01*
X268922571Y-68651470D02*
X269636857Y-68413375D01*
X269636857Y-69032422D01*
X269303524Y-69841946D02*
X269970190Y-69841946D01*
X268922571Y-69603851D02*
X269636857Y-69365756D01*
X269636857Y-69984803D01*
X62801440Y-87560994D02*
X61801440Y-87560994D01*
X61801440Y-87799089D01*
X61849060Y-87941946D01*
X61944298Y-88037184D01*
X62039536Y-88084803D01*
X62230012Y-88132422D01*
X62372869Y-88132422D01*
X62563345Y-88084803D01*
X62658583Y-88037184D01*
X62753821Y-87941946D01*
X62801440Y-87799089D01*
X62801440Y-87560994D01*
X62230012Y-88703851D02*
X62182393Y-88608613D01*
X62134774Y-88560994D01*
X62039536Y-88513375D01*
X61991917Y-88513375D01*
X61896679Y-88560994D01*
X61849060Y-88608613D01*
X61801440Y-88703851D01*
X61801440Y-88894327D01*
X61849060Y-88989565D01*
X61896679Y-89037184D01*
X61991917Y-89084803D01*
X62039536Y-89084803D01*
X62134774Y-89037184D01*
X62182393Y-88989565D01*
X62230012Y-88894327D01*
X62230012Y-88703851D01*
X62277631Y-88608613D01*
X62325250Y-88560994D01*
X62420488Y-88513375D01*
X62610964Y-88513375D01*
X62706202Y-88560994D01*
X62753821Y-88608613D01*
X62801440Y-88703851D01*
X62801440Y-88894327D01*
X62753821Y-88989565D01*
X62706202Y-89037184D01*
X62610964Y-89084803D01*
X62420488Y-89084803D01*
X62325250Y-89037184D01*
X62277631Y-88989565D01*
X62230012Y-88894327D01*
X62801440Y-89560994D02*
X62801440Y-89751470D01*
X62753821Y-89846708D01*
X62706202Y-89894327D01*
X62563345Y-89989565D01*
X62372869Y-90037184D01*
X61991917Y-90037184D01*
X61896679Y-89989565D01*
X61849060Y-89941946D01*
X61801440Y-89846708D01*
X61801440Y-89656232D01*
X61849060Y-89560994D01*
X61896679Y-89513375D01*
X61991917Y-89465756D01*
X62230012Y-89465756D01*
X62325250Y-89513375D01*
X62372869Y-89560994D01*
X62420488Y-89656232D01*
X62420488Y-89846708D01*
X62372869Y-89941946D01*
X62325250Y-89989565D01*
X62230012Y-90037184D01*
X79470190Y-48410994D02*
X78470190Y-48410994D01*
X78470190Y-48649089D01*
X78517810Y-48791946D01*
X78613048Y-48887184D01*
X78708286Y-48934803D01*
X78898762Y-48982422D01*
X79041619Y-48982422D01*
X79232095Y-48934803D01*
X79327333Y-48887184D01*
X79422571Y-48791946D01*
X79470190Y-48649089D01*
X79470190Y-48410994D01*
X78565429Y-49363375D02*
X78517810Y-49410994D01*
X78470190Y-49506232D01*
X78470190Y-49744327D01*
X78517810Y-49839565D01*
X78565429Y-49887184D01*
X78660667Y-49934803D01*
X78755905Y-49934803D01*
X78898762Y-49887184D01*
X79470190Y-49315756D01*
X79470190Y-49934803D01*
X78898762Y-50506232D02*
X78851143Y-50410994D01*
X78803524Y-50363375D01*
X78708286Y-50315756D01*
X78660667Y-50315756D01*
X78565429Y-50363375D01*
X78517810Y-50410994D01*
X78470190Y-50506232D01*
X78470190Y-50696708D01*
X78517810Y-50791946D01*
X78565429Y-50839565D01*
X78660667Y-50887184D01*
X78708286Y-50887184D01*
X78803524Y-50839565D01*
X78851143Y-50791946D01*
X78898762Y-50696708D01*
X78898762Y-50506232D01*
X78946381Y-50410994D01*
X78994000Y-50363375D01*
X79089238Y-50315756D01*
X79279714Y-50315756D01*
X79374952Y-50363375D01*
X79422571Y-50410994D01*
X79470190Y-50506232D01*
X79470190Y-50696708D01*
X79422571Y-50791946D01*
X79374952Y-50839565D01*
X79279714Y-50887184D01*
X79089238Y-50887184D01*
X78994000Y-50839565D01*
X78946381Y-50791946D01*
X78898762Y-50696708D01*
X250920190Y-49460994D02*
X249920190Y-49460994D01*
X249920190Y-49699089D01*
X249967810Y-49841946D01*
X250063048Y-49937184D01*
X250158286Y-49984803D01*
X250348762Y-50032422D01*
X250491619Y-50032422D01*
X250682095Y-49984803D01*
X250777333Y-49937184D01*
X250872571Y-49841946D01*
X250920190Y-49699089D01*
X250920190Y-49460994D01*
X249920190Y-50365756D02*
X249920190Y-51032422D01*
X250920190Y-50603851D01*
X250253524Y-51841946D02*
X250920190Y-51841946D01*
X249872571Y-51603851D02*
X250586857Y-51365756D01*
X250586857Y-51984803D01*
X234251440Y-106610994D02*
X233251440Y-106610994D01*
X233251440Y-106849089D01*
X233299060Y-106991946D01*
X233394298Y-107087184D01*
X233489536Y-107134803D01*
X233680012Y-107182422D01*
X233822869Y-107182422D01*
X234013345Y-107134803D01*
X234108583Y-107087184D01*
X234203821Y-106991946D01*
X234251440Y-106849089D01*
X234251440Y-106610994D01*
X233251440Y-108087184D02*
X233251440Y-107610994D01*
X233727631Y-107563375D01*
X233680012Y-107610994D01*
X233632393Y-107706232D01*
X233632393Y-107944327D01*
X233680012Y-108039565D01*
X233727631Y-108087184D01*
X233822869Y-108134803D01*
X234060964Y-108134803D01*
X234156202Y-108087184D01*
X234203821Y-108039565D01*
X234251440Y-107944327D01*
X234251440Y-107706232D01*
X234203821Y-107610994D01*
X234156202Y-107563375D01*
X233251440Y-108468137D02*
X233251440Y-109087184D01*
X233632393Y-108753851D01*
X233632393Y-108896708D01*
X233680012Y-108991946D01*
X233727631Y-109039565D01*
X233822869Y-109087184D01*
X234060964Y-109087184D01*
X234156202Y-109039565D01*
X234203821Y-108991946D01*
X234251440Y-108896708D01*
X234251440Y-108610994D01*
X234203821Y-108515756D01*
X234156202Y-108468137D01*
X60420190Y-68510994D02*
X59420190Y-68510994D01*
X59420190Y-68749089D01*
X59467810Y-68891946D01*
X59563048Y-68987184D01*
X59658286Y-69034803D01*
X59848762Y-69082422D01*
X59991619Y-69082422D01*
X60182095Y-69034803D01*
X60277333Y-68987184D01*
X60372571Y-68891946D01*
X60420190Y-68749089D01*
X60420190Y-68510994D01*
X59420190Y-69415756D02*
X59420190Y-70082422D01*
X60420190Y-69653851D01*
X60420190Y-70510994D02*
X60420190Y-70701470D01*
X60372571Y-70796708D01*
X60324952Y-70844327D01*
X60182095Y-70939565D01*
X59991619Y-70987184D01*
X59610667Y-70987184D01*
X59515429Y-70939565D01*
X59467810Y-70891946D01*
X59420190Y-70796708D01*
X59420190Y-70606232D01*
X59467810Y-70510994D01*
X59515429Y-70463375D01*
X59610667Y-70415756D01*
X59848762Y-70415756D01*
X59944000Y-70463375D01*
X59991619Y-70510994D01*
X60039238Y-70606232D01*
X60039238Y-70796708D01*
X59991619Y-70891946D01*
X59944000Y-70939565D01*
X59848762Y-70987184D01*
D15*
X26820935Y-26485405D02*
X26820935Y-25235405D01*
X24820935Y-26485405D02*
X26820935Y-26485405D01*
X24820935Y-25235405D02*
X24820935Y-26485405D01*
X26820935Y-25235405D02*
X24820935Y-25235405D01*
X36123935Y-31819405D02*
X38123935Y-31819405D01*
X38123935Y-30569405D02*
X36123935Y-30569405D01*
X38123935Y-31819405D02*
X38123935Y-30569405D01*
X36123935Y-30569405D02*
X36123935Y-31819405D01*
X59116859Y-42746695D02*
X57702645Y-41332481D01*
X56818761Y-42216365D02*
X58232975Y-43630579D01*
X57702645Y-41332481D02*
X56818761Y-42216365D01*
X58232975Y-43630579D02*
X59116859Y-42746695D01*
X81700935Y-23193405D02*
X81700935Y-27638405D01*
X84240935Y-28273405D02*
X84240935Y-23193405D01*
X84240935Y-23193405D02*
X81700935Y-23193405D01*
X81700935Y-27638405D02*
X82335935Y-28273405D01*
X82335935Y-28273405D02*
X84240935Y-28273405D01*
X42648953Y-34968057D02*
X43532837Y-34084173D01*
X43532837Y-34084173D02*
X42118623Y-32669959D01*
X41234739Y-33553843D02*
X42648953Y-34968057D01*
X42118623Y-32669959D02*
X41234739Y-33553843D01*
X50950189Y-27295668D02*
X48687448Y-29558409D01*
X48687448Y-29558409D02*
X46919681Y-27790642D01*
X49182422Y-25527901D02*
X50950189Y-27295668D01*
X46919681Y-27790642D02*
X49182422Y-25527901D01*
X50243083Y-26588561D02*
X50243083Y-28002774D01*
X44214011Y-30849865D02*
X45628225Y-32264079D01*
X45628225Y-32264079D02*
X46512109Y-31380195D01*
X45097895Y-29965981D02*
X44214011Y-30849865D01*
X46512109Y-31380195D02*
X45097895Y-29965981D01*
X61011100Y-28025454D02*
X61894984Y-27141570D01*
X61894984Y-27141570D02*
X60480770Y-25727356D01*
X60480770Y-25727356D02*
X59596886Y-26611240D01*
X59596886Y-26611240D02*
X61011100Y-28025454D01*
X64121611Y-36020988D02*
X65535825Y-34606774D01*
X65535825Y-34606774D02*
X64651941Y-33722890D01*
X64651941Y-33722890D02*
X63237727Y-35137104D01*
X63237727Y-35137104D02*
X64121611Y-36020988D01*
X49380310Y-48280905D02*
X49380310Y-53360905D01*
X49380310Y-53360905D02*
X55730310Y-53360905D01*
X57000310Y-48280905D02*
X49380310Y-48280905D01*
X57000310Y-52090905D02*
X57000310Y-48280905D01*
X55730310Y-53360905D02*
X57000310Y-52090905D01*
X42080310Y-19631155D02*
X42080310Y-21231155D01*
X45280310Y-19631155D02*
X42080310Y-19631155D01*
X42080310Y-21231155D02*
X45280310Y-21231155D01*
X45280310Y-21231155D02*
X45280310Y-19631155D01*
X42680310Y-22600155D02*
X42680310Y-23850155D01*
X44680310Y-23850155D02*
X44680310Y-22600155D01*
X44680310Y-22600155D02*
X42680310Y-22600155D01*
X42680310Y-23850155D02*
X44680310Y-23850155D01*
X24997935Y-20638405D02*
X24497935Y-21138405D01*
X24497935Y-21938405D02*
X27397935Y-21938405D01*
X27397935Y-21938405D02*
X27397935Y-20638405D01*
X24497935Y-21138405D02*
X24497935Y-21938405D01*
X27397935Y-20638405D02*
X24997935Y-20638405D01*
X44595975Y-67998765D02*
X44595975Y-69498765D01*
X44595975Y-63598765D02*
X44095975Y-63598765D01*
X40395975Y-63098765D02*
X40895975Y-63098765D01*
X39895975Y-65098765D02*
X41295975Y-63698765D01*
X43695975Y-68898765D02*
X41295975Y-68898765D01*
X43495975Y-64298765D02*
X41495975Y-64298765D01*
X40895975Y-63098765D02*
X40895975Y-64098765D01*
X45095975Y-67498765D02*
X43695975Y-68898765D01*
X40395975Y-64598765D02*
X40395975Y-63098765D01*
X40395975Y-67998765D02*
X40395975Y-69498765D01*
X41295975Y-68898765D02*
X39895975Y-67498765D01*
X44495975Y-67298765D02*
X44495975Y-65298765D01*
X45095975Y-65098765D02*
X45095975Y-67498765D01*
X41495975Y-64298765D02*
X40495975Y-65298765D01*
X41495975Y-68298765D02*
X43495975Y-68298765D01*
X39895975Y-67498765D02*
X39895975Y-65098765D01*
X40395975Y-63598765D02*
X40895975Y-63598765D01*
X44595975Y-64598765D02*
X44595975Y-63098765D01*
X40495975Y-65298765D02*
X40495975Y-67298765D01*
X41295975Y-63698765D02*
X43695975Y-63698765D01*
X44095975Y-63098765D02*
X44095975Y-64098765D01*
X40495975Y-67298765D02*
X41495975Y-68298765D01*
X44095975Y-69498765D02*
X44095975Y-68498765D01*
X44595975Y-68998765D02*
X44095975Y-68998765D01*
X40395975Y-69498765D02*
X40895975Y-69498765D01*
X43495975Y-68298765D02*
X44495975Y-67298765D01*
X40395975Y-68998765D02*
X40895975Y-68998765D01*
X44495975Y-65298765D02*
X43495975Y-64298765D01*
X44595975Y-63098765D02*
X44095975Y-63098765D01*
X43695975Y-63698765D02*
X45095975Y-65098765D01*
X40895975Y-69498765D02*
X40895975Y-68498765D01*
X44595975Y-69498765D02*
X44095975Y-69498765D01*
X43495975Y-66298765D02*
G75*
G03*
X43495975Y-66298765I-1000000J0D01*
G01*
X46438200Y-36989536D02*
X45023986Y-35575322D01*
X44140102Y-36459206D02*
X45554316Y-37873420D01*
X45023986Y-35575322D02*
X44140102Y-36459206D01*
X45554316Y-37873420D02*
X46438200Y-36989536D01*
X66068770Y-37963204D02*
X67482984Y-36548990D01*
X67482984Y-36548990D02*
X66599100Y-35665106D01*
X65184886Y-37079320D02*
X66068770Y-37963204D01*
X66599100Y-35665106D02*
X65184886Y-37079320D01*
X52771975Y-25120329D02*
X53655859Y-24236445D01*
X52241645Y-22822231D02*
X51357761Y-23706115D01*
X51357761Y-23706115D02*
X52771975Y-25120329D01*
X53655859Y-24236445D02*
X52241645Y-22822231D01*
X90545935Y-26603405D02*
X94445935Y-26603405D01*
X94445935Y-26603405D02*
X94445935Y-22678405D01*
X93470935Y-21703405D02*
X90545935Y-21703405D01*
X94445935Y-22678405D02*
X93470935Y-21703405D01*
X90545935Y-21703405D02*
X90545935Y-26603405D01*
X77779935Y-27628405D02*
X79779935Y-27628405D01*
X79779935Y-27628405D02*
X79779935Y-26378405D01*
X79779935Y-26378405D02*
X77779935Y-26378405D01*
X77779935Y-26378405D02*
X77779935Y-27628405D01*
X79779935Y-25215405D02*
X79779935Y-23965405D01*
X77779935Y-23965405D02*
X77779935Y-25215405D01*
X79779935Y-23965405D02*
X77779935Y-23965405D01*
X77779935Y-25215405D02*
X79779935Y-25215405D01*
X30345935Y-23978365D02*
X30345935Y-14808365D01*
X30345935Y-23978365D02*
X39295935Y-23978365D01*
X30345935Y-14808365D02*
X39295935Y-14808365D01*
X39295935Y-23978365D02*
X39295935Y-14808365D01*
X31820935Y-17318365D02*
X37820935Y-17318365D01*
X48674886Y-41343240D02*
X50089100Y-42757454D01*
X50972984Y-41873570D02*
X49558770Y-40459356D01*
X49558770Y-40459356D02*
X48674886Y-41343240D01*
X50089100Y-42757454D02*
X50972984Y-41873570D01*
X38123935Y-29279405D02*
X38123935Y-28029405D01*
X36123935Y-28029405D02*
X36123935Y-29279405D01*
X38123935Y-28029405D02*
X36123935Y-28029405D01*
X36123935Y-29279405D02*
X38123935Y-29279405D01*
X293828435Y-51927155D02*
X286208435Y-51927155D01*
X293828435Y-53832155D02*
X293828435Y-51927155D01*
X286208435Y-54467155D02*
X293193435Y-54467155D01*
X293193435Y-54467155D02*
X293828435Y-53832155D01*
X286208435Y-51927155D02*
X286208435Y-54467155D01*
D11*
X55586560Y-29197408D02*
X50636813Y-34147155D01*
X60536307Y-34147155D02*
X55586560Y-29197408D01*
X54879453Y-38389796D02*
X56293667Y-38389796D01*
X50636813Y-34147155D02*
X54879453Y-38389796D01*
X56293667Y-38389796D02*
X60536307Y-34147155D01*
D15*
X77917810Y-67275280D02*
X76117810Y-67275280D01*
X76117810Y-67275280D02*
X76117810Y-70075280D01*
X77417810Y-68425280D02*
X76617810Y-68425280D01*
X77017810Y-68425280D02*
X77017810Y-67925280D01*
X77017810Y-69025280D02*
X77417810Y-68425280D01*
X77017810Y-69425280D02*
X77017810Y-69025280D01*
X77017810Y-69025280D02*
X77567810Y-69025280D01*
X77917810Y-70075280D02*
X77917810Y-67275280D01*
X76617810Y-68425280D02*
X77017810Y-69025280D01*
X76117810Y-70075280D02*
X77917810Y-70075280D01*
X77017810Y-69025280D02*
X76467810Y-69025280D01*
X295192810Y-105375280D02*
X295192810Y-108175280D01*
X295192810Y-108175280D02*
X296992810Y-108175280D01*
X296092810Y-107125280D02*
X295542810Y-107125280D01*
X296992810Y-105375280D02*
X295192810Y-105375280D01*
X296992810Y-108175280D02*
X296992810Y-105375280D01*
X295692810Y-106525280D02*
X296092810Y-107125280D01*
X296092810Y-107125280D02*
X296642810Y-107125280D01*
X296092810Y-107525280D02*
X296092810Y-107125280D01*
X296092810Y-107125280D02*
X296492810Y-106525280D01*
X296492810Y-106525280D02*
X295692810Y-106525280D01*
X296092810Y-106525280D02*
X296092810Y-106025280D01*
X96067810Y-70475280D02*
X96067810Y-70075280D01*
X96067810Y-70075280D02*
X96467810Y-69475280D01*
X96067810Y-70075280D02*
X95517810Y-70075280D01*
X96067810Y-70075280D02*
X96617810Y-70075280D01*
X95167810Y-68325280D02*
X95167810Y-71125280D01*
X96967810Y-71125280D02*
X96967810Y-68325280D01*
X95167810Y-71125280D02*
X96967810Y-71125280D01*
X96067810Y-69475280D02*
X96067810Y-68975280D01*
X96467810Y-69475280D02*
X95667810Y-69475280D01*
X95667810Y-69475280D02*
X96067810Y-70075280D01*
X96967810Y-68325280D02*
X95167810Y-68325280D01*
X93686560Y-108575280D02*
X93686560Y-108175280D01*
X92786560Y-109225280D02*
X94586560Y-109225280D01*
X93686560Y-108175280D02*
X94236560Y-108175280D01*
X93286560Y-107575280D02*
X93686560Y-108175280D01*
X92786560Y-106425280D02*
X92786560Y-109225280D01*
X93686560Y-107575280D02*
X93686560Y-107075280D01*
X94586560Y-106425280D02*
X92786560Y-106425280D01*
X94586560Y-109225280D02*
X94586560Y-106425280D01*
X94086560Y-107575280D02*
X93286560Y-107575280D01*
X93686560Y-108175280D02*
X94086560Y-107575280D01*
X93686560Y-108175280D02*
X93136560Y-108175280D01*
X130886560Y-104184655D02*
X130886560Y-106984655D01*
X132686560Y-104184655D02*
X130886560Y-104184655D01*
X131786560Y-105334655D02*
X131786560Y-104834655D01*
X131786560Y-106334655D02*
X131786560Y-105934655D01*
X131786560Y-105934655D02*
X131236560Y-105934655D01*
X132186560Y-105334655D02*
X131386560Y-105334655D01*
X130886560Y-106984655D02*
X132686560Y-106984655D01*
X132686560Y-106984655D02*
X132686560Y-104184655D01*
X131386560Y-105334655D02*
X131786560Y-105934655D01*
X131786560Y-105934655D02*
X132186560Y-105334655D01*
X131786560Y-105934655D02*
X132336560Y-105934655D01*
X86142810Y-88525280D02*
X86542810Y-89125280D01*
X86542810Y-89125280D02*
X87092810Y-89125280D01*
X86542810Y-89125280D02*
X85992810Y-89125280D01*
X86542810Y-88525280D02*
X86542810Y-88025280D01*
X86542810Y-89525280D02*
X86542810Y-89125280D01*
X87442810Y-90175280D02*
X87442810Y-87375280D01*
X85642810Y-90175280D02*
X87442810Y-90175280D01*
X86942810Y-88525280D02*
X86142810Y-88525280D01*
X86542810Y-89125280D02*
X86942810Y-88525280D01*
X85642810Y-87375280D02*
X85642810Y-90175280D01*
X87442810Y-87375280D02*
X85642810Y-87375280D01*
X200842810Y-89125280D02*
X200292810Y-89125280D01*
X200842810Y-89525280D02*
X200842810Y-89125280D01*
X200842810Y-89125280D02*
X201392810Y-89125280D01*
X201242810Y-88525280D02*
X200442810Y-88525280D01*
X200842810Y-88525280D02*
X200842810Y-88025280D01*
X201742810Y-87375280D02*
X199942810Y-87375280D01*
X199942810Y-90175280D02*
X201742810Y-90175280D01*
X200442810Y-88525280D02*
X200842810Y-89125280D01*
X199942810Y-87375280D02*
X199942810Y-90175280D01*
X201742810Y-90175280D02*
X201742810Y-87375280D01*
X200842810Y-89125280D02*
X201242810Y-88525280D01*
X124242810Y-107625280D02*
X124642810Y-108225280D01*
X123742810Y-109275280D02*
X125542810Y-109275280D01*
X125042810Y-107625280D02*
X124242810Y-107625280D01*
X124642810Y-108225280D02*
X125192810Y-108225280D01*
X124642810Y-108625280D02*
X124642810Y-108225280D01*
X125542810Y-109275280D02*
X125542810Y-106475280D01*
X124642810Y-107625280D02*
X124642810Y-107125280D01*
X123742810Y-106475280D02*
X123742810Y-109275280D01*
X124642810Y-108225280D02*
X124092810Y-108225280D01*
X125542810Y-106475280D02*
X123742810Y-106475280D01*
X124642810Y-108225280D02*
X125042810Y-107625280D01*
X257992810Y-88075280D02*
X258542810Y-88075280D01*
X257992810Y-87475280D02*
X257992810Y-86975280D01*
X257992810Y-88475280D02*
X257992810Y-88075280D01*
X258892810Y-89125280D02*
X258892810Y-86325280D01*
X257992810Y-88075280D02*
X258392810Y-87475280D01*
X257092810Y-89125280D02*
X258892810Y-89125280D01*
X258392810Y-87475280D02*
X257592810Y-87475280D01*
X257592810Y-87475280D02*
X257992810Y-88075280D01*
X257092810Y-86325280D02*
X257092810Y-89125280D01*
X258892810Y-86325280D02*
X257092810Y-86325280D01*
X257992810Y-88075280D02*
X257442810Y-88075280D01*
X29392810Y-107125280D02*
X28842810Y-107125280D01*
X28492810Y-108175280D02*
X30292810Y-108175280D01*
X29792810Y-106525280D02*
X28992810Y-106525280D01*
X30292810Y-105375280D02*
X28492810Y-105375280D01*
X28492810Y-105375280D02*
X28492810Y-108175280D01*
X29392810Y-107125280D02*
X29792810Y-106525280D01*
X30292810Y-108175280D02*
X30292810Y-105375280D01*
X29392810Y-107525280D02*
X29392810Y-107125280D01*
X28992810Y-106525280D02*
X29392810Y-107125280D01*
X29392810Y-107125280D02*
X29942810Y-107125280D01*
X29392810Y-106525280D02*
X29392810Y-106025280D01*
X228517810Y-67275280D02*
X228517810Y-70075280D01*
X230317810Y-70075280D02*
X230317810Y-67275280D01*
X229417810Y-68425280D02*
X229417810Y-67925280D01*
X229417810Y-69425280D02*
X229417810Y-69025280D01*
X229017810Y-68425280D02*
X229417810Y-69025280D01*
X230317810Y-67275280D02*
X228517810Y-67275280D01*
X228517810Y-70075280D02*
X230317810Y-70075280D01*
X229417810Y-69025280D02*
X229817810Y-68425280D01*
X229417810Y-69025280D02*
X228867810Y-69025280D01*
X229817810Y-68425280D02*
X229017810Y-68425280D01*
X229417810Y-69025280D02*
X229967810Y-69025280D01*
X238042810Y-90175280D02*
X239842810Y-90175280D01*
X238942810Y-88525280D02*
X238942810Y-88025280D01*
X238542810Y-88525280D02*
X238942810Y-89125280D01*
X238942810Y-89125280D02*
X239342810Y-88525280D01*
X238942810Y-89125280D02*
X238392810Y-89125280D01*
X239842810Y-90175280D02*
X239842810Y-87375280D01*
X238942810Y-89525280D02*
X238942810Y-89125280D01*
X238942810Y-89125280D02*
X239492810Y-89125280D01*
X239342810Y-88525280D02*
X238542810Y-88525280D01*
X239842810Y-87375280D02*
X238042810Y-87375280D01*
X238042810Y-87375280D02*
X238042810Y-90175280D01*
X216720935Y-107571280D02*
X215920935Y-107571280D01*
X215420935Y-106421280D02*
X215420935Y-109221280D01*
X216320935Y-107571280D02*
X216320935Y-107071280D01*
X216320935Y-108571280D02*
X216320935Y-108171280D01*
X216320935Y-108171280D02*
X216720935Y-107571280D01*
X216320935Y-108171280D02*
X215770935Y-108171280D01*
X216320935Y-108171280D02*
X216870935Y-108171280D01*
X215920935Y-107571280D02*
X216320935Y-108171280D01*
X217220935Y-109221280D02*
X217220935Y-106421280D01*
X215420935Y-109221280D02*
X217220935Y-109221280D01*
X217220935Y-106421280D02*
X215420935Y-106421280D01*
X219892810Y-88075280D02*
X220292810Y-87475280D01*
X218992810Y-89125280D02*
X220792810Y-89125280D01*
X220792810Y-89125280D02*
X220792810Y-86325280D01*
X219892810Y-88075280D02*
X220442810Y-88075280D01*
X220292810Y-87475280D02*
X219492810Y-87475280D01*
X218992810Y-86325280D02*
X218992810Y-89125280D01*
X219892810Y-88475280D02*
X219892810Y-88075280D01*
X219892810Y-88075280D02*
X219342810Y-88075280D01*
X219492810Y-87475280D02*
X219892810Y-88075280D01*
X220792810Y-86325280D02*
X218992810Y-86325280D01*
X219892810Y-87475280D02*
X219892810Y-86975280D01*
X277042810Y-108175280D02*
X277592810Y-108175280D01*
X277042810Y-107575280D02*
X277042810Y-107075280D01*
X276642810Y-107575280D02*
X277042810Y-108175280D01*
X277042810Y-108175280D02*
X276492810Y-108175280D01*
X277942810Y-106425280D02*
X276142810Y-106425280D01*
X277442810Y-107575280D02*
X276642810Y-107575280D01*
X277042810Y-108575280D02*
X277042810Y-108175280D01*
X276142810Y-109225280D02*
X277942810Y-109225280D01*
X277942810Y-109225280D02*
X277942810Y-106425280D01*
X277042810Y-108175280D02*
X277442810Y-107575280D01*
X276142810Y-106425280D02*
X276142810Y-109225280D01*
X209467810Y-68325280D02*
X209467810Y-71125280D01*
X209467810Y-71125280D02*
X211267810Y-71125280D01*
X210367810Y-70075280D02*
X210767810Y-69475280D01*
X211267810Y-68325280D02*
X209467810Y-68325280D01*
X210367810Y-70475280D02*
X210367810Y-70075280D01*
X210367810Y-70075280D02*
X210917810Y-70075280D01*
X211267810Y-71125280D02*
X211267810Y-68325280D01*
X209967810Y-69475280D02*
X210367810Y-70075280D01*
X210367810Y-69475280D02*
X210367810Y-68975280D01*
X210367810Y-70075280D02*
X209817810Y-70075280D01*
X210767810Y-69475280D02*
X209967810Y-69475280D01*
X248467810Y-70075280D02*
X249017810Y-70075280D01*
X248467810Y-70075280D02*
X247917810Y-70075280D01*
X247567810Y-68325280D02*
X247567810Y-71125280D01*
X249367810Y-68325280D02*
X247567810Y-68325280D01*
X248467810Y-70075280D02*
X248867810Y-69475280D01*
X248067810Y-69475280D02*
X248467810Y-70075280D01*
X248867810Y-69475280D02*
X248067810Y-69475280D01*
X247567810Y-71125280D02*
X249367810Y-71125280D01*
X248467810Y-69475280D02*
X248467810Y-68975280D01*
X249367810Y-71125280D02*
X249367810Y-68325280D01*
X248467810Y-70475280D02*
X248467810Y-70075280D01*
X187455310Y-106984655D02*
X187455310Y-104184655D01*
X186155310Y-105334655D02*
X186555310Y-105934655D01*
X185655310Y-104184655D02*
X185655310Y-106984655D01*
X186555310Y-105934655D02*
X186955310Y-105334655D01*
X186555310Y-105934655D02*
X186005310Y-105934655D01*
X186555310Y-105334655D02*
X186555310Y-104834655D01*
X186555310Y-105934655D02*
X187105310Y-105934655D01*
X186555310Y-106334655D02*
X186555310Y-105934655D01*
X187455310Y-104184655D02*
X185655310Y-104184655D01*
X186955310Y-105334655D02*
X186155310Y-105334655D01*
X185655310Y-106984655D02*
X187455310Y-106984655D01*
X277042810Y-89525280D02*
X277042810Y-89125280D01*
X277042810Y-89125280D02*
X276492810Y-89125280D01*
X276642810Y-88525280D02*
X277042810Y-89125280D01*
X277042810Y-89125280D02*
X277442810Y-88525280D01*
X277942810Y-90175280D02*
X277942810Y-87375280D01*
X277442810Y-88525280D02*
X276642810Y-88525280D01*
X276142810Y-87375280D02*
X276142810Y-90175280D01*
X277042810Y-89125280D02*
X277592810Y-89125280D01*
X277942810Y-87375280D02*
X276142810Y-87375280D01*
X276142810Y-90175280D02*
X277942810Y-90175280D01*
X277042810Y-88525280D02*
X277042810Y-88025280D01*
X51724060Y-67275280D02*
X49924060Y-67275280D01*
X50824060Y-68425280D02*
X50824060Y-67925280D01*
X50824060Y-69025280D02*
X51224060Y-68425280D01*
X51724060Y-70075280D02*
X51724060Y-67275280D01*
X49924060Y-67275280D02*
X49924060Y-70075280D01*
X50424060Y-68425280D02*
X50824060Y-69025280D01*
X50824060Y-69425280D02*
X50824060Y-69025280D01*
X50824060Y-69025280D02*
X51374060Y-69025280D01*
X51224060Y-68425280D02*
X50424060Y-68425280D01*
X49924060Y-70075280D02*
X51724060Y-70075280D01*
X50824060Y-69025280D02*
X50274060Y-69025280D01*
X229417810Y-49975280D02*
X229817810Y-49375280D01*
X229817810Y-49375280D02*
X229017810Y-49375280D01*
X230317810Y-51025280D02*
X230317810Y-48225280D01*
X228517810Y-51025280D02*
X230317810Y-51025280D01*
X229417810Y-49975280D02*
X228867810Y-49975280D01*
X229417810Y-49975280D02*
X229967810Y-49975280D01*
X228517810Y-48225280D02*
X228517810Y-51025280D01*
X230317810Y-48225280D02*
X228517810Y-48225280D01*
X229017810Y-49375280D02*
X229417810Y-49975280D01*
X229417810Y-50375280D02*
X229417810Y-49975280D01*
X229417810Y-49375280D02*
X229417810Y-48875280D01*
X275452185Y-69475280D02*
X275852185Y-70075280D01*
X274952185Y-68325280D02*
X274952185Y-71125280D01*
X275852185Y-70475280D02*
X275852185Y-70075280D01*
X275852185Y-70075280D02*
X276252185Y-69475280D01*
X276252185Y-69475280D02*
X275452185Y-69475280D01*
X276752185Y-68325280D02*
X274952185Y-68325280D01*
X276752185Y-71125280D02*
X276752185Y-68325280D01*
X275852185Y-70075280D02*
X275302185Y-70075280D01*
X275852185Y-69475280D02*
X275852185Y-68975280D01*
X275852185Y-70075280D02*
X276402185Y-70075280D01*
X274952185Y-71125280D02*
X276752185Y-71125280D01*
X95667810Y-50425280D02*
X96067810Y-51025280D01*
X96067810Y-51025280D02*
X96467810Y-50425280D01*
X96467810Y-50425280D02*
X95667810Y-50425280D01*
X96067810Y-51025280D02*
X95517810Y-51025280D01*
X95167810Y-49275280D02*
X95167810Y-52075280D01*
X96067810Y-50425280D02*
X96067810Y-49925280D01*
X96967810Y-49275280D02*
X95167810Y-49275280D01*
X96067810Y-51425280D02*
X96067810Y-51025280D01*
X95167810Y-52075280D02*
X96967810Y-52075280D01*
X96067810Y-51025280D02*
X96617810Y-51025280D01*
X96967810Y-52075280D02*
X96967810Y-49275280D01*
X55586560Y-88075280D02*
X56136560Y-88075280D01*
X56486560Y-86325280D02*
X54686560Y-86325280D01*
X54686560Y-86325280D02*
X54686560Y-89125280D01*
X55186560Y-87475280D02*
X55586560Y-88075280D01*
X55586560Y-87475280D02*
X55586560Y-86975280D01*
X54686560Y-89125280D02*
X56486560Y-89125280D01*
X55586560Y-88075280D02*
X55986560Y-87475280D01*
X55586560Y-88475280D02*
X55586560Y-88075280D01*
X55986560Y-87475280D02*
X55186560Y-87475280D01*
X56486560Y-89125280D02*
X56486560Y-86325280D01*
X55586560Y-88075280D02*
X55036560Y-88075280D01*
X295192810Y-86325280D02*
X295192810Y-89125280D01*
X296492810Y-87475280D02*
X295692810Y-87475280D01*
X296992810Y-86325280D02*
X295192810Y-86325280D01*
X296992810Y-89125280D02*
X296992810Y-86325280D01*
X295192810Y-89125280D02*
X296992810Y-89125280D01*
X296092810Y-88075280D02*
X296642810Y-88075280D01*
X295692810Y-87475280D02*
X296092810Y-88075280D01*
X296092810Y-88075280D02*
X295542810Y-88075280D01*
X296092810Y-88075280D02*
X296492810Y-87475280D01*
X296092810Y-87475280D02*
X296092810Y-86975280D01*
X296092810Y-88475280D02*
X296092810Y-88075280D01*
X48442810Y-108575280D02*
X48442810Y-108175280D01*
X48442810Y-108175280D02*
X48992810Y-108175280D01*
X47542810Y-109225280D02*
X49342810Y-109225280D01*
X48442810Y-108175280D02*
X48842810Y-107575280D01*
X49342810Y-109225280D02*
X49342810Y-106425280D01*
X48442810Y-107575280D02*
X48442810Y-107075280D01*
X49342810Y-106425280D02*
X47542810Y-106425280D01*
X48442810Y-108175280D02*
X47892810Y-108175280D01*
X48042810Y-107575280D02*
X48442810Y-108175280D01*
X47542810Y-106425280D02*
X47542810Y-109225280D01*
X48842810Y-107575280D02*
X48042810Y-107575280D01*
X66592810Y-86325280D02*
X66592810Y-89125280D01*
X67892810Y-87475280D02*
X67092810Y-87475280D01*
X66592810Y-89125280D02*
X68392810Y-89125280D01*
X67492810Y-87475280D02*
X67492810Y-86975280D01*
X67492810Y-88075280D02*
X67892810Y-87475280D01*
X68392810Y-86325280D02*
X66592810Y-86325280D01*
X68392810Y-89125280D02*
X68392810Y-86325280D01*
X67492810Y-88475280D02*
X67492810Y-88075280D01*
X67492810Y-88075280D02*
X66942810Y-88075280D01*
X67492810Y-88075280D02*
X68042810Y-88075280D01*
X67092810Y-87475280D02*
X67492810Y-88075280D01*
X106492810Y-86325280D02*
X104692810Y-86325280D01*
X105592810Y-88075280D02*
X105992810Y-87475280D01*
X105592810Y-88075280D02*
X106142810Y-88075280D01*
X105592810Y-88475280D02*
X105592810Y-88075280D01*
X104692810Y-89125280D02*
X106492810Y-89125280D01*
X106492810Y-89125280D02*
X106492810Y-86325280D01*
X105192810Y-87475280D02*
X105592810Y-88075280D01*
X105592810Y-87475280D02*
X105592810Y-86975280D01*
X104692810Y-86325280D02*
X104692810Y-89125280D01*
X105592810Y-88075280D02*
X105042810Y-88075280D01*
X105992810Y-87475280D02*
X105192810Y-87475280D01*
X123742810Y-87375280D02*
X123742810Y-90175280D01*
X124642810Y-89125280D02*
X125042810Y-88525280D01*
X125542810Y-90175280D02*
X125542810Y-87375280D01*
X124642810Y-89525280D02*
X124642810Y-89125280D01*
X124642810Y-88525280D02*
X124642810Y-88025280D01*
X125542810Y-87375280D02*
X123742810Y-87375280D01*
X125042810Y-88525280D02*
X124242810Y-88525280D01*
X124642810Y-89125280D02*
X124092810Y-89125280D01*
X124642810Y-89125280D02*
X125192810Y-89125280D01*
X123742810Y-90175280D02*
X125542810Y-90175280D01*
X124242810Y-88525280D02*
X124642810Y-89125280D01*
X255611560Y-107525280D02*
X255611560Y-107125280D01*
X255611560Y-107125280D02*
X256011560Y-106525280D01*
X255611560Y-106525280D02*
X255611560Y-106025280D01*
X256011560Y-106525280D02*
X255211560Y-106525280D01*
X255211560Y-106525280D02*
X255611560Y-107125280D01*
X256511560Y-105375280D02*
X254711560Y-105375280D01*
X254711560Y-108175280D02*
X256511560Y-108175280D01*
X255611560Y-107125280D02*
X255061560Y-107125280D01*
X256511560Y-108175280D02*
X256511560Y-105375280D01*
X255611560Y-107125280D02*
X256161560Y-107125280D01*
X254711560Y-105375280D02*
X254711560Y-108175280D01*
X116017810Y-67275280D02*
X114217810Y-67275280D01*
X115117810Y-69025280D02*
X114567810Y-69025280D01*
X115117810Y-69425280D02*
X115117810Y-69025280D01*
X116017810Y-70075280D02*
X116017810Y-67275280D01*
X115117810Y-69025280D02*
X115667810Y-69025280D01*
X114217810Y-70075280D02*
X116017810Y-70075280D01*
X114717810Y-68425280D02*
X115117810Y-69025280D01*
X115117810Y-68425280D02*
X115117810Y-67925280D01*
X114217810Y-67275280D02*
X114217810Y-70075280D01*
X115117810Y-69025280D02*
X115517810Y-68425280D01*
X115517810Y-68425280D02*
X114717810Y-68425280D01*
X181792810Y-107525280D02*
X181792810Y-107125280D01*
X181792810Y-107125280D02*
X181242810Y-107125280D01*
X180892810Y-108175280D02*
X182692810Y-108175280D01*
X182192810Y-106525280D02*
X181392810Y-106525280D01*
X182692810Y-105375280D02*
X180892810Y-105375280D01*
X181792810Y-107125280D02*
X182192810Y-106525280D01*
X180892810Y-105375280D02*
X180892810Y-108175280D01*
X181392810Y-106525280D02*
X181792810Y-107125280D01*
X181792810Y-107125280D02*
X182342810Y-107125280D01*
X182692810Y-108175280D02*
X182692810Y-105375280D01*
X181792810Y-106525280D02*
X181792810Y-106025280D01*
X69874060Y-107125280D02*
X70274060Y-106525280D01*
X68974060Y-105375280D02*
X68974060Y-108175280D01*
X69874060Y-106525280D02*
X69874060Y-106025280D01*
X70774060Y-105375280D02*
X68974060Y-105375280D01*
X69874060Y-107125280D02*
X70424060Y-107125280D01*
X69874060Y-107525280D02*
X69874060Y-107125280D01*
X68974060Y-108175280D02*
X70774060Y-108175280D01*
X69874060Y-107125280D02*
X69324060Y-107125280D01*
X70274060Y-106525280D02*
X69474060Y-106525280D01*
X70774060Y-108175280D02*
X70774060Y-105375280D01*
X69474060Y-106525280D02*
X69874060Y-107125280D01*
X266617810Y-67275280D02*
X266617810Y-70075280D01*
X268417810Y-67275280D02*
X266617810Y-67275280D01*
X268417810Y-70075280D02*
X268417810Y-67275280D01*
X266617810Y-70075280D02*
X268417810Y-70075280D01*
X267117810Y-68425280D02*
X267517810Y-69025280D01*
X267517810Y-69425280D02*
X267517810Y-69025280D01*
X267917810Y-68425280D02*
X267117810Y-68425280D01*
X267517810Y-68425280D02*
X267517810Y-67925280D01*
X267517810Y-69025280D02*
X267917810Y-68425280D01*
X267517810Y-69025280D02*
X266967810Y-69025280D01*
X267517810Y-69025280D02*
X268067810Y-69025280D01*
X59949060Y-88525280D02*
X60349060Y-89125280D01*
X60349060Y-89125280D02*
X60749060Y-88525280D01*
X61249060Y-87375280D02*
X59449060Y-87375280D01*
X60349060Y-89125280D02*
X60899060Y-89125280D01*
X61249060Y-90175280D02*
X61249060Y-87375280D01*
X59449060Y-87375280D02*
X59449060Y-90175280D01*
X60749060Y-88525280D02*
X59949060Y-88525280D01*
X60349060Y-89525280D02*
X60349060Y-89125280D01*
X60349060Y-88525280D02*
X60349060Y-88025280D01*
X60349060Y-89125280D02*
X59799060Y-89125280D01*
X59449060Y-90175280D02*
X61249060Y-90175280D01*
X77917810Y-51025280D02*
X77917810Y-48225280D01*
X77417810Y-49375280D02*
X76617810Y-49375280D01*
X77017810Y-50375280D02*
X77017810Y-49975280D01*
X77917810Y-48225280D02*
X76117810Y-48225280D01*
X77017810Y-49975280D02*
X76467810Y-49975280D01*
X76117810Y-48225280D02*
X76117810Y-51025280D01*
X77017810Y-49975280D02*
X77417810Y-49375280D01*
X76117810Y-51025280D02*
X77917810Y-51025280D01*
X77017810Y-49975280D02*
X77567810Y-49975280D01*
X77017810Y-49375280D02*
X77017810Y-48875280D01*
X76617810Y-49375280D02*
X77017810Y-49975280D01*
X248867810Y-50425280D02*
X248067810Y-50425280D01*
X248467810Y-51025280D02*
X247917810Y-51025280D01*
X247567810Y-52075280D02*
X249367810Y-52075280D01*
X248467810Y-51025280D02*
X249017810Y-51025280D01*
X248067810Y-50425280D02*
X248467810Y-51025280D01*
X248467810Y-51025280D02*
X248867810Y-50425280D01*
X249367810Y-49275280D02*
X247567810Y-49275280D01*
X249367810Y-52075280D02*
X249367810Y-49275280D01*
X248467810Y-51425280D02*
X248467810Y-51025280D01*
X247567810Y-49275280D02*
X247567810Y-52075280D01*
X248467810Y-50425280D02*
X248467810Y-49925280D01*
X231799060Y-108175280D02*
X231249060Y-108175280D01*
X231799060Y-108575280D02*
X231799060Y-108175280D01*
X231799060Y-108175280D02*
X232199060Y-107575280D01*
X232699060Y-106425280D02*
X230899060Y-106425280D01*
X231799060Y-108175280D02*
X232349060Y-108175280D01*
X231799060Y-107575280D02*
X231799060Y-107075280D01*
X232699060Y-109225280D02*
X232699060Y-106425280D01*
X230899060Y-109225280D02*
X232699060Y-109225280D01*
X231399060Y-107575280D02*
X231799060Y-108175280D01*
X230899060Y-106425280D02*
X230899060Y-109225280D01*
X232199060Y-107575280D02*
X231399060Y-107575280D01*
X57967810Y-70075280D02*
X58367810Y-69475280D01*
X57067810Y-71125280D02*
X58867810Y-71125280D01*
X57967810Y-70075280D02*
X58517810Y-70075280D01*
X57967810Y-70075280D02*
X57417810Y-70075280D01*
X58867810Y-68325280D02*
X57067810Y-68325280D01*
X57067810Y-68325280D02*
X57067810Y-71125280D01*
X57967810Y-69475280D02*
X57967810Y-68975280D01*
X57967810Y-70475280D02*
X57967810Y-70075280D01*
X58867810Y-71125280D02*
X58867810Y-68325280D01*
X58367810Y-69475280D02*
X57567810Y-69475280D01*
X57567810Y-69475280D02*
X57967810Y-70075280D01*
M02*
