G04 #@! TF.GenerationSoftware,KiCad,Pcbnew,7.0.1-0*
G04 #@! TF.CreationDate,2023-05-14T12:19:21+09:00*
G04 #@! TF.ProjectId,Sandy_Base,53616e64-795f-4426-9173-652e6b696361,v.0*
G04 #@! TF.SameCoordinates,Original*
G04 #@! TF.FileFunction,Paste,Top*
G04 #@! TF.FilePolarity,Positive*
%FSLAX46Y46*%
G04 Gerber Fmt 4.6, Leading zero omitted, Abs format (unit mm)*
G04 Created by KiCad (PCBNEW 7.0.1-0) date 2023-05-14 12:19:21*
%MOMM*%
%LPD*%
G01*
G04 APERTURE LIST*
G04 Aperture macros list*
%AMRoundRect*
0 Rectangle with rounded corners*
0 $1 Rounding radius*
0 $2 $3 $4 $5 $6 $7 $8 $9 X,Y pos of 4 corners*
0 Add a 4 corners polygon primitive as box body*
4,1,4,$2,$3,$4,$5,$6,$7,$8,$9,$2,$3,0*
0 Add four circle primitives for the rounded corners*
1,1,$1+$1,$2,$3*
1,1,$1+$1,$4,$5*
1,1,$1+$1,$6,$7*
1,1,$1+$1,$8,$9*
0 Add four rect primitives between the rounded corners*
20,1,$1+$1,$2,$3,$4,$5,0*
20,1,$1+$1,$4,$5,$6,$7,0*
20,1,$1+$1,$6,$7,$8,$9,0*
20,1,$1+$1,$8,$9,$2,$3,0*%
G04 Aperture macros list end*
%ADD10R,1.431250X0.820000*%
%ADD11RoundRect,0.150000X0.625000X-0.150000X0.625000X0.150000X-0.625000X0.150000X-0.625000X-0.150000X0*%
%ADD12RoundRect,0.250000X0.650000X-0.350000X0.650000X0.350000X-0.650000X0.350000X-0.650000X-0.350000X0*%
%ADD13RoundRect,0.150000X0.150000X0.625000X-0.150000X0.625000X-0.150000X-0.625000X0.150000X-0.625000X0*%
%ADD14RoundRect,0.250000X0.350000X0.650000X-0.350000X0.650000X-0.350000X-0.650000X0.350000X-0.650000X0*%
%ADD15R,0.820000X1.431250*%
%ADD16RoundRect,0.150000X-0.625000X0.150000X-0.625000X-0.150000X0.625000X-0.150000X0.625000X0.150000X0*%
%ADD17RoundRect,0.250000X-0.650000X0.350000X-0.650000X-0.350000X0.650000X-0.350000X0.650000X0.350000X0*%
G04 APERTURE END LIST*
D10*
X80270935Y-21800280D03*
X80270935Y-20300280D03*
X85670935Y-20300280D03*
X85670935Y-21800280D03*
D11*
X173839685Y-45172155D03*
X173839685Y-44172155D03*
X173839685Y-43172155D03*
X173839685Y-42172155D03*
D12*
X177714685Y-46472155D03*
X177714685Y-40872155D03*
D13*
X151145935Y-55197155D03*
X150145935Y-55197155D03*
X149145935Y-55197155D03*
X148145935Y-55197155D03*
D14*
X152445935Y-51322155D03*
X146845935Y-51322155D03*
D10*
X294583435Y-46803405D03*
X294583435Y-45303405D03*
X299983435Y-45303405D03*
X299983435Y-46803405D03*
D11*
X173839685Y-34456530D03*
X173839685Y-33456530D03*
X173839685Y-32456530D03*
X173839685Y-31456530D03*
D12*
X177714685Y-35756530D03*
X177714685Y-30156530D03*
D15*
X77458435Y-105265905D03*
X78958435Y-105265905D03*
X78958435Y-110665905D03*
X77458435Y-110665905D03*
X186995935Y-105265905D03*
X188495935Y-105265905D03*
X188495935Y-110665905D03*
X186995935Y-110665905D03*
D13*
X160670935Y-56387780D03*
X159670935Y-56387780D03*
X158670935Y-56387780D03*
X157670935Y-56387780D03*
D14*
X161970935Y-52512780D03*
X156370935Y-52512780D03*
D10*
X42170935Y-21800280D03*
X42170935Y-20300280D03*
X47570935Y-20300280D03*
X47570935Y-21800280D03*
X232670935Y-21800280D03*
X232670935Y-20300280D03*
X238070935Y-20300280D03*
X238070935Y-21800280D03*
X18358435Y-93828405D03*
X18358435Y-92328405D03*
X23758435Y-92328405D03*
X23758435Y-93828405D03*
X280295935Y-21800280D03*
X280295935Y-20300280D03*
X285695935Y-20300280D03*
X285695935Y-21800280D03*
D16*
X144502185Y-42172155D03*
X144502185Y-43172155D03*
X144502185Y-44172155D03*
X144502185Y-45172155D03*
D17*
X140627185Y-40872155D03*
X140627185Y-46472155D03*
D13*
X170195935Y-55197155D03*
X169195935Y-55197155D03*
X168195935Y-55197155D03*
X167195935Y-55197155D03*
D14*
X171495935Y-51322155D03*
X165895935Y-51322155D03*
D10*
X185045935Y-21800280D03*
X185045935Y-20300280D03*
X190445935Y-20300280D03*
X190445935Y-21800280D03*
D15*
X282245935Y-105265905D03*
X283745935Y-105265905D03*
X283745935Y-110665905D03*
X282245935Y-110665905D03*
D10*
X18677185Y-46803405D03*
X18677185Y-45303405D03*
X24077185Y-45303405D03*
X24077185Y-46803405D03*
D15*
X129845935Y-105265905D03*
X131345935Y-105265905D03*
X131345935Y-110665905D03*
X129845935Y-110665905D03*
X35345935Y-105265905D03*
X36845935Y-105265905D03*
X36845935Y-110665905D03*
X35345935Y-110665905D03*
D10*
X127895935Y-21800280D03*
X127895935Y-20300280D03*
X133295935Y-20300280D03*
X133295935Y-21800280D03*
X294583435Y-93428405D03*
X294583435Y-91928405D03*
X299983435Y-91928405D03*
X299983435Y-93428405D03*
D15*
X235811560Y-105265905D03*
X237311560Y-105265905D03*
X237311560Y-110665905D03*
X235811560Y-110665905D03*
M02*
