G04 #@! TF.GenerationSoftware,KiCad,Pcbnew,(6.0.10-0)*
G04 #@! TF.CreationDate,2023-02-22T14:56:28+09:00*
G04 #@! TF.ProjectId,Sandy_Base,53616e64-795f-4426-9173-652e6b696361,v.0*
G04 #@! TF.SameCoordinates,Original*
G04 #@! TF.FileFunction,Legend,Bot*
G04 #@! TF.FilePolarity,Positive*
%FSLAX46Y46*%
G04 Gerber Fmt 4.6, Leading zero omitted, Abs format (unit mm)*
G04 Created by KiCad (PCBNEW (6.0.10-0)) date 2023-02-22 14:56:28*
%MOMM*%
%LPD*%
G01*
G04 APERTURE LIST*
G04 Aperture macros list*
%AMRoundRect*
0 Rectangle with rounded corners*
0 $1 Rounding radius*
0 $2 $3 $4 $5 $6 $7 $8 $9 X,Y pos of 4 corners*
0 Add a 4 corners polygon primitive as box body*
4,1,4,$2,$3,$4,$5,$6,$7,$8,$9,$2,$3,0*
0 Add four circle primitives for the rounded corners*
1,1,$1+$1,$2,$3*
1,1,$1+$1,$4,$5*
1,1,$1+$1,$6,$7*
1,1,$1+$1,$8,$9*
0 Add four rect primitives between the rounded corners*
20,1,$1+$1,$2,$3,$4,$5,0*
20,1,$1+$1,$4,$5,$6,$7,0*
20,1,$1+$1,$6,$7,$8,$9,0*
20,1,$1+$1,$8,$9,$2,$3,0*%
G04 Aperture macros list end*
%ADD10C,0.100000*%
%ADD11C,0.150000*%
%ADD12C,0.200000*%
%ADD13C,0.700000*%
%ADD14C,0.300000*%
%ADD15C,0.120000*%
%ADD16C,0.330000*%
%ADD17C,2.150000*%
%ADD18C,4.387800*%
%ADD19C,2.650000*%
%ADD20C,3.448000*%
%ADD21C,2.500000*%
%ADD22O,2.000000X2.300000*%
%ADD23O,1.900000X3.200000*%
%ADD24O,2.000000X1.700000*%
%ADD25O,2.100000X2.100000*%
%ADD26C,4.800000*%
%ADD27C,2.600000*%
%ADD28O,5.600000X2.800000*%
%ADD29O,9.400000X7.900000*%
%ADD30C,1.400000*%
%ADD31C,5.200000*%
%ADD32O,7.800000X5.000000*%
%ADD33RoundRect,0.450000X-0.350000X-0.450000X0.350000X-0.450000X0.350000X0.450000X-0.350000X0.450000X0*%
%ADD34RoundRect,0.200000X-0.500000X-0.750000X0.500000X-0.750000X0.500000X0.750000X-0.500000X0.750000X0*%
%ADD35RoundRect,0.450000X0.350000X0.450000X-0.350000X0.450000X-0.350000X-0.450000X0.350000X-0.450000X0*%
%ADD36RoundRect,0.450000X0.574524X0.097227X0.097227X0.574524X-0.574524X-0.097227X-0.097227X-0.574524X0*%
%ADD37RoundRect,0.200000X-0.850000X-0.850000X0.850000X-0.850000X0.850000X0.850000X-0.850000X0.850000X0*%
%ADD38C,2.400000*%
%ADD39RoundRect,0.450000X-0.574524X-0.097227X-0.097227X-0.574524X0.574524X0.097227X0.097227X0.574524X0*%
%ADD40RoundRect,0.200000X0.106066X1.378858X-1.378858X-0.106066X-0.106066X-1.378858X1.378858X0.106066X0*%
%ADD41RoundRect,0.450000X0.097227X-0.574524X0.574524X-0.097227X-0.097227X0.574524X-0.574524X0.097227X0*%
%ADD42RoundRect,0.200000X0.850000X-0.850000X0.850000X0.850000X-0.850000X0.850000X-0.850000X-0.850000X0*%
%ADD43RoundRect,0.450001X0.462499X0.624999X-0.462499X0.624999X-0.462499X-0.624999X0.462499X-0.624999X0*%
%ADD44RoundRect,0.200000X-0.500000X0.850000X-0.500000X-0.850000X0.500000X-0.850000X0.500000X0.850000X0*%
%ADD45RoundRect,0.200000X-0.300000X0.850000X-0.300000X-0.850000X0.300000X-0.850000X0.300000X0.850000X0*%
%ADD46RoundRect,0.450000X-0.565685X-0.070711X-0.070711X-0.565685X0.565685X0.070711X0.070711X0.565685X0*%
%ADD47RoundRect,0.450000X0.070711X-0.565685X0.565685X-0.070711X-0.070711X0.565685X-0.565685X0.070711X0*%
%ADD48RoundRect,0.350000X0.725000X0.150000X-0.725000X0.150000X-0.725000X-0.150000X0.725000X-0.150000X0*%
%ADD49C,1.100000*%
%ADD50O,1.300000X2.800000*%
%ADD51O,1.300000X2.100000*%
%ADD52RoundRect,0.200000X-0.159099X-0.335876X0.335876X0.159099X0.159099X0.335876X-0.335876X-0.159099X0*%
%ADD53RoundRect,0.200000X-0.335876X0.159099X0.159099X-0.335876X0.335876X-0.159099X-0.159099X0.335876X0*%
%ADD54RoundRect,0.200000X0.000000X-0.910400X0.910400X0.000000X0.000000X0.910400X-0.910400X0.000000X0*%
%ADD55RoundRect,0.200000X0.600000X-0.450000X0.600000X0.450000X-0.600000X0.450000X-0.600000X-0.450000X0*%
G04 APERTURE END LIST*
D10*
G36*
X22645935Y-23701405D02*
G01*
X23407935Y-23701405D01*
X23407935Y-23066405D01*
X23788935Y-23066405D01*
X23788935Y-23701405D01*
X24169935Y-23701405D01*
X24169935Y-24590405D01*
X23788935Y-24590405D01*
X23788935Y-25225405D01*
X23407935Y-25225405D01*
X23407935Y-24590405D01*
X22137935Y-24590405D01*
X22137935Y-25225405D01*
X21756935Y-25225405D01*
X21756935Y-24590405D01*
X21375935Y-24590405D01*
X21375935Y-23701405D01*
X21756935Y-23701405D01*
X21756935Y-23066405D01*
X22645935Y-23066405D01*
X22645935Y-23701405D01*
G37*
X22645935Y-23701405D02*
X23407935Y-23701405D01*
X23407935Y-23066405D01*
X23788935Y-23066405D01*
X23788935Y-23701405D01*
X24169935Y-23701405D01*
X24169935Y-24590405D01*
X23788935Y-24590405D01*
X23788935Y-25225405D01*
X23407935Y-25225405D01*
X23407935Y-24590405D01*
X22137935Y-24590405D01*
X22137935Y-25225405D01*
X21756935Y-25225405D01*
X21756935Y-24590405D01*
X21375935Y-24590405D01*
X21375935Y-23701405D01*
X21756935Y-23701405D01*
X21756935Y-23066405D01*
X22645935Y-23066405D01*
X22645935Y-23701405D01*
D11*
X37464982Y-18976265D02*
X37464982Y-17976265D01*
X36988792Y-18976265D02*
X36988792Y-17976265D01*
X36417363Y-18976265D01*
X36417363Y-17976265D01*
X35988792Y-18928646D02*
X35845935Y-18976265D01*
X35607839Y-18976265D01*
X35512601Y-18928646D01*
X35464982Y-18881027D01*
X35417363Y-18785789D01*
X35417363Y-18690551D01*
X35464982Y-18595313D01*
X35512601Y-18547694D01*
X35607839Y-18500075D01*
X35798315Y-18452456D01*
X35893554Y-18404837D01*
X35941173Y-18357218D01*
X35988792Y-18261980D01*
X35988792Y-18166742D01*
X35941173Y-18071504D01*
X35893554Y-18023885D01*
X35798315Y-17976265D01*
X35560220Y-17976265D01*
X35417363Y-18023885D01*
X35131649Y-17976265D02*
X34560220Y-17976265D01*
X34845935Y-18976265D02*
X34845935Y-17976265D01*
X34274506Y-18690551D02*
X33798315Y-18690551D01*
X34369744Y-18976265D02*
X34036411Y-17976265D01*
X33703077Y-18976265D01*
X32893554Y-18976265D02*
X33369744Y-18976265D01*
X33369744Y-17976265D01*
X32084030Y-18976265D02*
X32560220Y-18976265D01*
X32560220Y-17976265D01*
X36536411Y-20586265D02*
X36536411Y-19586265D01*
X36536411Y-20062456D02*
X35964982Y-20062456D01*
X35964982Y-20586265D02*
X35964982Y-19586265D01*
X35488792Y-20062456D02*
X35155458Y-20062456D01*
X35012601Y-20586265D02*
X35488792Y-20586265D01*
X35488792Y-19586265D01*
X35012601Y-19586265D01*
X34012601Y-20586265D02*
X34345935Y-20110075D01*
X34584030Y-20586265D02*
X34584030Y-19586265D01*
X34203077Y-19586265D01*
X34107839Y-19633885D01*
X34060220Y-19681504D01*
X34012601Y-19776742D01*
X34012601Y-19919599D01*
X34060220Y-20014837D01*
X34107839Y-20062456D01*
X34203077Y-20110075D01*
X34584030Y-20110075D01*
X33584030Y-20062456D02*
X33250696Y-20062456D01*
X33107839Y-20586265D02*
X33584030Y-20586265D01*
X33584030Y-19586265D01*
X33107839Y-19586265D01*
D12*
X292048077Y-23719690D02*
X290762363Y-23719690D01*
X291533792Y-22948262D02*
X292048077Y-25262547D01*
X290933792Y-24491119D02*
X292219506Y-24491119D01*
X291448077Y-25262547D02*
X290933792Y-22948262D01*
X290248077Y-24833976D02*
X289990935Y-24919690D01*
X289562363Y-24919690D01*
X289390935Y-24833976D01*
X289305220Y-24748262D01*
X289219506Y-24576833D01*
X289219506Y-24405405D01*
X289305220Y-24233976D01*
X289390935Y-24148262D01*
X289562363Y-24062547D01*
X289905220Y-23976833D01*
X290076649Y-23891119D01*
X290162363Y-23805405D01*
X290248077Y-23633976D01*
X290248077Y-23462547D01*
X290162363Y-23291119D01*
X290076649Y-23205405D01*
X289905220Y-23119690D01*
X289476649Y-23119690D01*
X289219506Y-23205405D01*
X287676649Y-24919690D02*
X287676649Y-23976833D01*
X287762363Y-23805405D01*
X287933792Y-23719690D01*
X288276649Y-23719690D01*
X288448077Y-23805405D01*
X287676649Y-24833976D02*
X287848077Y-24919690D01*
X288276649Y-24919690D01*
X288448077Y-24833976D01*
X288533792Y-24662547D01*
X288533792Y-24491119D01*
X288448077Y-24319690D01*
X288276649Y-24233976D01*
X287848077Y-24233976D01*
X287676649Y-24148262D01*
X286819506Y-23719690D02*
X286819506Y-24919690D01*
X286819506Y-23891119D02*
X286733792Y-23805405D01*
X286562363Y-23719690D01*
X286305220Y-23719690D01*
X286133792Y-23805405D01*
X286048077Y-23976833D01*
X286048077Y-24919690D01*
X284419506Y-24919690D02*
X284419506Y-23119690D01*
X284419506Y-24833976D02*
X284590935Y-24919690D01*
X284933792Y-24919690D01*
X285105220Y-24833976D01*
X285190935Y-24748262D01*
X285276649Y-24576833D01*
X285276649Y-24062547D01*
X285190935Y-23891119D01*
X285105220Y-23805405D01*
X284933792Y-23719690D01*
X284590935Y-23719690D01*
X284419506Y-23805405D01*
X283733792Y-23719690D02*
X283305220Y-24919690D01*
X282876649Y-23719690D02*
X283305220Y-24919690D01*
X283476649Y-25348262D01*
X283562363Y-25433976D01*
X283733792Y-25519690D01*
X282619506Y-25091119D02*
X281248077Y-25091119D01*
X280819506Y-24919690D02*
X280819506Y-23119690D01*
X280648077Y-24233976D02*
X280133792Y-24919690D01*
X280133792Y-23719690D02*
X280819506Y-24405405D01*
X279362363Y-24919690D02*
X279362363Y-23119690D01*
X279362363Y-23805405D02*
X279190935Y-23719690D01*
X278848077Y-23719690D01*
X278676649Y-23805405D01*
X278590935Y-23891119D01*
X278505220Y-24062547D01*
X278505220Y-24576833D01*
X278590935Y-24748262D01*
X278676649Y-24833976D01*
X278848077Y-24919690D01*
X279190935Y-24919690D01*
X279362363Y-24833976D01*
X276962363Y-24919690D02*
X276962363Y-23119690D01*
X276962363Y-24833976D02*
X277133792Y-24919690D01*
X277476649Y-24919690D01*
X277648077Y-24833976D01*
X277733792Y-24748262D01*
X277819506Y-24576833D01*
X277819506Y-24062547D01*
X277733792Y-23891119D01*
X277648077Y-23805405D01*
X277476649Y-23719690D01*
X277133792Y-23719690D01*
X276962363Y-23805405D01*
X274905220Y-23719690D02*
X274476649Y-24919690D01*
X274048077Y-23719690D01*
X273362363Y-24748262D02*
X273276649Y-24833976D01*
X273362363Y-24919690D01*
X273448077Y-24833976D01*
X273362363Y-24748262D01*
X273362363Y-24919690D01*
X272162363Y-23119690D02*
X271990935Y-23119690D01*
X271819506Y-23205405D01*
X271733792Y-23291119D01*
X271648077Y-23462547D01*
X271562363Y-23805405D01*
X271562363Y-24233976D01*
X271648077Y-24576833D01*
X271733792Y-24748262D01*
X271819506Y-24833976D01*
X271990935Y-24919690D01*
X272162363Y-24919690D01*
X272333792Y-24833976D01*
X272419506Y-24748262D01*
X272505220Y-24576833D01*
X272590935Y-24233976D01*
X272590935Y-23805405D01*
X272505220Y-23462547D01*
X272419506Y-23291119D01*
X272333792Y-23205405D01*
X272162363Y-23119690D01*
X270790935Y-24748262D02*
X270705220Y-24833976D01*
X270790935Y-24919690D01*
X270876649Y-24833976D01*
X270790935Y-24748262D01*
X270790935Y-24919690D01*
X268990935Y-24919690D02*
X270019506Y-24919690D01*
X269505220Y-24919690D02*
X269505220Y-23119690D01*
X269676649Y-23376833D01*
X269848077Y-23548262D01*
X270019506Y-23633976D01*
X268133792Y-24833976D02*
X268133792Y-24919690D01*
X268219506Y-25091119D01*
X268305220Y-25176833D01*
X265390935Y-23976833D02*
X265133792Y-24062547D01*
X265048077Y-24148262D01*
X264962363Y-24319690D01*
X264962363Y-24576833D01*
X265048077Y-24748262D01*
X265133792Y-24833976D01*
X265305220Y-24919690D01*
X265990935Y-24919690D01*
X265990935Y-23119690D01*
X265390935Y-23119690D01*
X265219506Y-23205405D01*
X265133792Y-23291119D01*
X265048077Y-23462547D01*
X265048077Y-23633976D01*
X265133792Y-23805405D01*
X265219506Y-23891119D01*
X265390935Y-23976833D01*
X265990935Y-23976833D01*
X263419506Y-24919690D02*
X263419506Y-23976833D01*
X263505220Y-23805405D01*
X263676649Y-23719690D01*
X264019506Y-23719690D01*
X264190935Y-23805405D01*
X263419506Y-24833976D02*
X263590935Y-24919690D01*
X264019506Y-24919690D01*
X264190935Y-24833976D01*
X264276649Y-24662547D01*
X264276649Y-24491119D01*
X264190935Y-24319690D01*
X264019506Y-24233976D01*
X263590935Y-24233976D01*
X263419506Y-24148262D01*
X262648077Y-24833976D02*
X262476649Y-24919690D01*
X262133792Y-24919690D01*
X261962363Y-24833976D01*
X261876649Y-24662547D01*
X261876649Y-24576833D01*
X261962363Y-24405405D01*
X262133792Y-24319690D01*
X262390935Y-24319690D01*
X262562363Y-24233976D01*
X262648077Y-24062547D01*
X262648077Y-23976833D01*
X262562363Y-23805405D01*
X262390935Y-23719690D01*
X262133792Y-23719690D01*
X261962363Y-23805405D01*
X260419506Y-24833976D02*
X260590935Y-24919690D01*
X260933792Y-24919690D01*
X261105220Y-24833976D01*
X261190935Y-24662547D01*
X261190935Y-23976833D01*
X261105220Y-23805405D01*
X260933792Y-23719690D01*
X260590935Y-23719690D01*
X260419506Y-23805405D01*
X260333792Y-23976833D01*
X260333792Y-24148262D01*
X261190935Y-24319690D01*
X291362363Y-26874833D02*
X291962363Y-26874833D01*
X291962363Y-27817690D02*
X291962363Y-26017690D01*
X291105220Y-26017690D01*
X289648077Y-27817690D02*
X289648077Y-26874833D01*
X289733792Y-26703405D01*
X289905220Y-26617690D01*
X290248077Y-26617690D01*
X290419506Y-26703405D01*
X289648077Y-27731976D02*
X289819506Y-27817690D01*
X290248077Y-27817690D01*
X290419506Y-27731976D01*
X290505220Y-27560547D01*
X290505220Y-27389119D01*
X290419506Y-27217690D01*
X290248077Y-27131976D01*
X289819506Y-27131976D01*
X289648077Y-27046262D01*
X288790935Y-27817690D02*
X288790935Y-26617690D01*
X288790935Y-26017690D02*
X288876649Y-26103405D01*
X288790935Y-26189119D01*
X288705220Y-26103405D01*
X288790935Y-26017690D01*
X288790935Y-26189119D01*
X287933792Y-27817690D02*
X287933792Y-26617690D01*
X287933792Y-26960547D02*
X287848077Y-26789119D01*
X287762363Y-26703405D01*
X287590935Y-26617690D01*
X287419506Y-26617690D01*
X286819506Y-26617690D02*
X286819506Y-27817690D01*
X286819506Y-26789119D02*
X286733792Y-26703405D01*
X286562363Y-26617690D01*
X286305220Y-26617690D01*
X286133792Y-26703405D01*
X286048077Y-26874833D01*
X286048077Y-27817690D01*
X284505220Y-27731976D02*
X284676649Y-27817690D01*
X285019506Y-27817690D01*
X285190935Y-27731976D01*
X285276649Y-27560547D01*
X285276649Y-26874833D01*
X285190935Y-26703405D01*
X285019506Y-26617690D01*
X284676649Y-26617690D01*
X284505220Y-26703405D01*
X284419506Y-26874833D01*
X284419506Y-27046262D01*
X285276649Y-27217690D01*
X283733792Y-27731976D02*
X283562363Y-27817690D01*
X283219506Y-27817690D01*
X283048077Y-27731976D01*
X282962363Y-27560547D01*
X282962363Y-27474833D01*
X283048077Y-27303405D01*
X283219506Y-27217690D01*
X283476649Y-27217690D01*
X283648077Y-27131976D01*
X283733792Y-26960547D01*
X283733792Y-26874833D01*
X283648077Y-26703405D01*
X283476649Y-26617690D01*
X283219506Y-26617690D01*
X283048077Y-26703405D01*
X282276649Y-27731976D02*
X282105220Y-27817690D01*
X281762363Y-27817690D01*
X281590935Y-27731976D01*
X281505220Y-27560547D01*
X281505220Y-27474833D01*
X281590935Y-27303405D01*
X281762363Y-27217690D01*
X282019506Y-27217690D01*
X282190935Y-27131976D01*
X282276649Y-26960547D01*
X282276649Y-26874833D01*
X282190935Y-26703405D01*
X282019506Y-26617690D01*
X281762363Y-26617690D01*
X281590935Y-26703405D01*
X280648077Y-27731976D02*
X280648077Y-27817690D01*
X280733792Y-27989119D01*
X280819506Y-28074833D01*
X277990935Y-26017690D02*
X277990935Y-27303405D01*
X278076649Y-27560547D01*
X278248077Y-27731976D01*
X278505220Y-27817690D01*
X278676649Y-27817690D01*
X276362363Y-26617690D02*
X276362363Y-27817690D01*
X277133792Y-26617690D02*
X277133792Y-27560547D01*
X277048077Y-27731976D01*
X276876649Y-27817690D01*
X276619506Y-27817690D01*
X276448077Y-27731976D01*
X276362363Y-27646262D01*
X275590935Y-27731976D02*
X275419506Y-27817690D01*
X275076649Y-27817690D01*
X274905220Y-27731976D01*
X274819506Y-27560547D01*
X274819506Y-27474833D01*
X274905220Y-27303405D01*
X275076649Y-27217690D01*
X275333792Y-27217690D01*
X275505220Y-27131976D01*
X275590935Y-26960547D01*
X275590935Y-26874833D01*
X275505220Y-26703405D01*
X275333792Y-26617690D01*
X275076649Y-26617690D01*
X274905220Y-26703405D01*
X274305220Y-26617690D02*
X273619506Y-26617690D01*
X274048077Y-26017690D02*
X274048077Y-27560547D01*
X273962363Y-27731976D01*
X273790935Y-27817690D01*
X273619506Y-27817690D01*
X273019506Y-27817690D02*
X273019506Y-26617690D01*
X273019506Y-26017690D02*
X273105220Y-26103405D01*
X273019506Y-26189119D01*
X272933792Y-26103405D01*
X273019506Y-26017690D01*
X273019506Y-26189119D01*
X271390935Y-27731976D02*
X271562363Y-27817690D01*
X271905220Y-27817690D01*
X272076649Y-27731976D01*
X272162363Y-27646262D01*
X272248077Y-27474833D01*
X272248077Y-26960547D01*
X272162363Y-26789119D01*
X272076649Y-26703405D01*
X271905220Y-26617690D01*
X271562363Y-26617690D01*
X271390935Y-26703405D01*
X269933792Y-27731976D02*
X270105220Y-27817690D01*
X270448077Y-27817690D01*
X270619506Y-27731976D01*
X270705220Y-27560547D01*
X270705220Y-26874833D01*
X270619506Y-26703405D01*
X270448077Y-26617690D01*
X270105220Y-26617690D01*
X269933792Y-26703405D01*
X269848077Y-26874833D01*
X269848077Y-27046262D01*
X270705220Y-27217690D01*
X268990935Y-27731976D02*
X268990935Y-27817690D01*
X269076649Y-27989119D01*
X269162363Y-28074833D01*
X265819506Y-27817690D02*
X266419506Y-26960547D01*
X266848077Y-27817690D02*
X266848077Y-26017690D01*
X266162363Y-26017690D01*
X265990935Y-26103405D01*
X265905220Y-26189119D01*
X265819506Y-26360547D01*
X265819506Y-26617690D01*
X265905220Y-26789119D01*
X265990935Y-26874833D01*
X266162363Y-26960547D01*
X266848077Y-26960547D01*
X265048077Y-27817690D02*
X265048077Y-26617690D01*
X265048077Y-26017690D02*
X265133792Y-26103405D01*
X265048077Y-26189119D01*
X264962363Y-26103405D01*
X265048077Y-26017690D01*
X265048077Y-26189119D01*
X263419506Y-26617690D02*
X263419506Y-28074833D01*
X263505220Y-28246262D01*
X263590935Y-28331976D01*
X263762363Y-28417690D01*
X264019506Y-28417690D01*
X264190935Y-28331976D01*
X263419506Y-27731976D02*
X263590935Y-27817690D01*
X263933792Y-27817690D01*
X264105220Y-27731976D01*
X264190935Y-27646262D01*
X264276649Y-27474833D01*
X264276649Y-26960547D01*
X264190935Y-26789119D01*
X264105220Y-26703405D01*
X263933792Y-26617690D01*
X263590935Y-26617690D01*
X263419506Y-26703405D01*
X262562363Y-27817690D02*
X262562363Y-26017690D01*
X261790935Y-27817690D02*
X261790935Y-26874833D01*
X261876649Y-26703405D01*
X262048077Y-26617690D01*
X262305220Y-26617690D01*
X262476649Y-26703405D01*
X262562363Y-26789119D01*
X261190935Y-26617690D02*
X260505220Y-26617690D01*
X260933792Y-26017690D02*
X260933792Y-27560547D01*
X260848077Y-27731976D01*
X260676649Y-27817690D01*
X260505220Y-27817690D01*
X259905220Y-26617690D02*
X259905220Y-27817690D01*
X259905220Y-26789119D02*
X259819506Y-26703405D01*
X259648077Y-26617690D01*
X259390935Y-26617690D01*
X259219506Y-26703405D01*
X259133792Y-26874833D01*
X259133792Y-27817690D01*
X257590935Y-27731976D02*
X257762363Y-27817690D01*
X258105220Y-27817690D01*
X258276649Y-27731976D01*
X258362363Y-27560547D01*
X258362363Y-26874833D01*
X258276649Y-26703405D01*
X258105220Y-26617690D01*
X257762363Y-26617690D01*
X257590935Y-26703405D01*
X257505220Y-26874833D01*
X257505220Y-27046262D01*
X258362363Y-27217690D01*
X256819506Y-27731976D02*
X256648077Y-27817690D01*
X256305220Y-27817690D01*
X256133792Y-27731976D01*
X256048077Y-27560547D01*
X256048077Y-27474833D01*
X256133792Y-27303405D01*
X256305220Y-27217690D01*
X256562363Y-27217690D01*
X256733792Y-27131976D01*
X256819506Y-26960547D01*
X256819506Y-26874833D01*
X256733792Y-26703405D01*
X256562363Y-26617690D01*
X256305220Y-26617690D01*
X256133792Y-26703405D01*
X255362363Y-27731976D02*
X255190935Y-27817690D01*
X254848077Y-27817690D01*
X254676649Y-27731976D01*
X254590935Y-27560547D01*
X254590935Y-27474833D01*
X254676649Y-27303405D01*
X254848077Y-27217690D01*
X255105220Y-27217690D01*
X255276649Y-27131976D01*
X255362363Y-26960547D01*
X255362363Y-26874833D01*
X255276649Y-26703405D01*
X255105220Y-26617690D01*
X254848077Y-26617690D01*
X254676649Y-26703405D01*
X291962363Y-30715690D02*
X291962363Y-28915690D01*
X291962363Y-29601405D02*
X291790935Y-29515690D01*
X291448077Y-29515690D01*
X291276649Y-29601405D01*
X291190935Y-29687119D01*
X291105220Y-29858547D01*
X291105220Y-30372833D01*
X291190935Y-30544262D01*
X291276649Y-30629976D01*
X291448077Y-30715690D01*
X291790935Y-30715690D01*
X291962363Y-30629976D01*
X290505220Y-29515690D02*
X290076649Y-30715690D01*
X289648077Y-29515690D02*
X290076649Y-30715690D01*
X290248077Y-31144262D01*
X290333792Y-31229976D01*
X290505220Y-31315690D01*
X286476649Y-29858547D02*
X286562363Y-29772833D01*
X286733792Y-29687119D01*
X286905220Y-29687119D01*
X287076649Y-29772833D01*
X287162363Y-29858547D01*
X287248077Y-30029976D01*
X287248077Y-30201405D01*
X287162363Y-30372833D01*
X287076649Y-30458547D01*
X286905220Y-30544262D01*
X286733792Y-30544262D01*
X286562363Y-30458547D01*
X286476649Y-30372833D01*
X286476649Y-29687119D02*
X286476649Y-30372833D01*
X286390935Y-30458547D01*
X286305220Y-30458547D01*
X286133792Y-30372833D01*
X286048077Y-30201405D01*
X286048077Y-29772833D01*
X286219506Y-29515690D01*
X286476649Y-29344262D01*
X286819506Y-29258547D01*
X287162363Y-29344262D01*
X287419506Y-29515690D01*
X287590935Y-29772833D01*
X287676649Y-30115690D01*
X287590935Y-30458547D01*
X287419506Y-30715690D01*
X287162363Y-30887119D01*
X286819506Y-30972833D01*
X286476649Y-30887119D01*
X286219506Y-30715690D01*
X285276649Y-29515690D02*
X285276649Y-31058547D01*
X285362363Y-31229976D01*
X285533792Y-31315690D01*
X285619506Y-31315690D01*
X285276649Y-28915690D02*
X285362363Y-29001405D01*
X285276649Y-29087119D01*
X285190935Y-29001405D01*
X285276649Y-28915690D01*
X285276649Y-29087119D01*
X284419506Y-29515690D02*
X284419506Y-31315690D01*
X284419506Y-29601405D02*
X284248077Y-29515690D01*
X283905220Y-29515690D01*
X283733792Y-29601405D01*
X283648077Y-29687119D01*
X283562363Y-29858547D01*
X283562363Y-30372833D01*
X283648077Y-30544262D01*
X283733792Y-30629976D01*
X283905220Y-30715690D01*
X284248077Y-30715690D01*
X284419506Y-30629976D01*
X282876649Y-30629976D02*
X282705220Y-30715690D01*
X282362363Y-30715690D01*
X282190935Y-30629976D01*
X282105220Y-30458547D01*
X282105220Y-30372833D01*
X282190935Y-30201405D01*
X282362363Y-30115690D01*
X282619506Y-30115690D01*
X282790935Y-30029976D01*
X282876649Y-29858547D01*
X282876649Y-29772833D01*
X282790935Y-29601405D01*
X282619506Y-29515690D01*
X282362363Y-29515690D01*
X282190935Y-29601405D01*
X281333792Y-30715690D02*
X281333792Y-28915690D01*
X281162363Y-30029976D02*
X280648077Y-30715690D01*
X280648077Y-29515690D02*
X281333792Y-30201405D01*
X279190935Y-30629976D02*
X279362363Y-30715690D01*
X279705220Y-30715690D01*
X279876649Y-30629976D01*
X279962363Y-30458547D01*
X279962363Y-29772833D01*
X279876649Y-29601405D01*
X279705220Y-29515690D01*
X279362363Y-29515690D01*
X279190935Y-29601405D01*
X279105220Y-29772833D01*
X279105220Y-29944262D01*
X279962363Y-30115690D01*
X278333792Y-29515690D02*
X278333792Y-30715690D01*
X278333792Y-29687119D02*
X278248077Y-29601405D01*
X278076649Y-29515690D01*
X277819506Y-29515690D01*
X277648077Y-29601405D01*
X277562363Y-29772833D01*
X277562363Y-30715690D01*
X276705220Y-29515690D02*
X276705220Y-30715690D01*
X276705220Y-29687119D02*
X276619506Y-29601405D01*
X276448077Y-29515690D01*
X276190935Y-29515690D01*
X276019506Y-29601405D01*
X275933792Y-29772833D01*
X275933792Y-30715690D01*
D13*
X289921500Y-37433315D02*
X289373881Y-37623791D01*
X289207214Y-37814268D01*
X289064357Y-38195220D01*
X289135786Y-38766649D01*
X289373881Y-39147601D01*
X289588167Y-39338077D01*
X289992929Y-39528553D01*
X291516738Y-39528553D01*
X291016738Y-35528553D01*
X289683405Y-35528553D01*
X289326262Y-35719030D01*
X289159595Y-35909506D01*
X289016738Y-36290458D01*
X289064357Y-36671410D01*
X289302452Y-37052363D01*
X289516738Y-37242839D01*
X289921500Y-37433315D01*
X291254833Y-37433315D01*
X285802452Y-39528553D02*
X285540548Y-37433315D01*
X285683405Y-37052363D01*
X286040548Y-36861887D01*
X286802452Y-36861887D01*
X287207214Y-37052363D01*
X285778643Y-39338077D02*
X286183405Y-39528553D01*
X287135786Y-39528553D01*
X287492929Y-39338077D01*
X287635786Y-38957125D01*
X287588167Y-38576172D01*
X287350071Y-38195220D01*
X286945310Y-38004744D01*
X285992929Y-38004744D01*
X285588167Y-37814268D01*
X282159595Y-39338077D02*
X282564357Y-39528553D01*
X283326262Y-39528553D01*
X283683405Y-39338077D01*
X283850071Y-39147601D01*
X283992929Y-38766649D01*
X283850071Y-37623791D01*
X283611976Y-37242839D01*
X283397690Y-37052363D01*
X282992929Y-36861887D01*
X282231024Y-36861887D01*
X281873881Y-37052363D01*
X280469119Y-39528553D02*
X279969119Y-35528553D01*
X279897690Y-38004744D02*
X278945310Y-39528553D01*
X278611976Y-36861887D02*
X280326262Y-38385696D01*
X274350071Y-39338077D02*
X273802452Y-39528553D01*
X272850071Y-39528553D01*
X272445310Y-39338077D01*
X272231024Y-39147601D01*
X271992929Y-38766649D01*
X271945310Y-38385696D01*
X272088167Y-38004744D01*
X272254833Y-37814268D01*
X272611976Y-37623791D01*
X273350071Y-37433315D01*
X273707214Y-37242839D01*
X273873881Y-37052363D01*
X274016738Y-36671410D01*
X273969119Y-36290458D01*
X273731024Y-35909506D01*
X273516738Y-35719030D01*
X273111976Y-35528553D01*
X272159595Y-35528553D01*
X271611976Y-35719030D01*
X270373881Y-39528553D02*
X270040548Y-36861887D01*
X269873881Y-35528553D02*
X270088167Y-35719030D01*
X269921500Y-35909506D01*
X269707214Y-35719030D01*
X269873881Y-35528553D01*
X269921500Y-35909506D01*
X266754833Y-39528553D02*
X266254833Y-35528553D01*
X266731024Y-39338077D02*
X267135786Y-39528553D01*
X267897690Y-39528553D01*
X268254833Y-39338077D01*
X268421500Y-39147601D01*
X268564357Y-38766649D01*
X268421500Y-37623791D01*
X268183405Y-37242839D01*
X267969119Y-37052363D01*
X267564357Y-36861887D01*
X266802452Y-36861887D01*
X266445310Y-37052363D01*
X263302452Y-39338077D02*
X263707214Y-39528553D01*
X264469119Y-39528553D01*
X264826262Y-39338077D01*
X264969119Y-38957125D01*
X264778643Y-37433315D01*
X264540548Y-37052363D01*
X264135786Y-36861887D01*
X263373881Y-36861887D01*
X263016738Y-37052363D01*
X262873881Y-37433315D01*
X262921500Y-37814268D01*
X264873881Y-38195220D01*
D14*
X273922506Y-110287726D02*
X273922506Y-111359155D01*
X273993935Y-111573440D01*
X274136792Y-111716297D01*
X274351077Y-111787726D01*
X274493935Y-111787726D01*
X272493935Y-111787726D02*
X273208220Y-111787726D01*
X273208220Y-110287726D01*
X271136792Y-111644869D02*
X271208220Y-111716297D01*
X271422506Y-111787726D01*
X271565363Y-111787726D01*
X271779649Y-111716297D01*
X271922506Y-111573440D01*
X271993935Y-111430583D01*
X272065363Y-111144869D01*
X272065363Y-110930583D01*
X271993935Y-110644869D01*
X271922506Y-110502012D01*
X271779649Y-110359155D01*
X271565363Y-110287726D01*
X271422506Y-110287726D01*
X271208220Y-110359155D01*
X271136792Y-110430583D01*
X270065363Y-110287726D02*
X270065363Y-111359155D01*
X270136792Y-111573440D01*
X270279649Y-111716297D01*
X270493935Y-111787726D01*
X270636792Y-111787726D01*
X268636792Y-111787726D02*
X269351077Y-111787726D01*
X269351077Y-110287726D01*
X267279649Y-111644869D02*
X267351077Y-111716297D01*
X267565363Y-111787726D01*
X267708220Y-111787726D01*
X267922506Y-111716297D01*
X268065363Y-111573440D01*
X268136792Y-111430583D01*
X268208220Y-111144869D01*
X268208220Y-110930583D01*
X268136792Y-110644869D01*
X268065363Y-110502012D01*
X267922506Y-110359155D01*
X267708220Y-110287726D01*
X267565363Y-110287726D01*
X267351077Y-110359155D01*
X267279649Y-110430583D01*
X266208220Y-110287726D02*
X266208220Y-111359155D01*
X266279649Y-111573440D01*
X266422506Y-111716297D01*
X266636792Y-111787726D01*
X266779649Y-111787726D01*
X264779649Y-111787726D02*
X265493935Y-111787726D01*
X265493935Y-110287726D01*
X263422506Y-111644869D02*
X263493935Y-111716297D01*
X263708220Y-111787726D01*
X263851077Y-111787726D01*
X264065363Y-111716297D01*
X264208220Y-111573440D01*
X264279649Y-111430583D01*
X264351077Y-111144869D01*
X264351077Y-110930583D01*
X264279649Y-110644869D01*
X264208220Y-110502012D01*
X264065363Y-110359155D01*
X263851077Y-110287726D01*
X263708220Y-110287726D01*
X263493935Y-110359155D01*
X263422506Y-110430583D01*
X262351077Y-110287726D02*
X262351077Y-111359155D01*
X262422506Y-111573440D01*
X262565363Y-111716297D01*
X262779649Y-111787726D01*
X262922506Y-111787726D01*
X260922506Y-111787726D02*
X261636792Y-111787726D01*
X261636792Y-110287726D01*
X259565363Y-111644869D02*
X259636792Y-111716297D01*
X259851077Y-111787726D01*
X259993935Y-111787726D01*
X260208220Y-111716297D01*
X260351077Y-111573440D01*
X260422506Y-111430583D01*
X260493935Y-111144869D01*
X260493935Y-110930583D01*
X260422506Y-110644869D01*
X260351077Y-110502012D01*
X260208220Y-110359155D01*
X259993935Y-110287726D01*
X259851077Y-110287726D01*
X259636792Y-110359155D01*
X259565363Y-110430583D01*
D11*
X26987641Y-88177660D02*
X27559070Y-88177660D01*
X27273355Y-88177660D02*
X27273355Y-87177660D01*
X27368594Y-87320518D01*
X27463832Y-87415756D01*
X27559070Y-87463375D01*
X26130498Y-87510994D02*
X26130498Y-88177660D01*
X26559070Y-87510994D02*
X26559070Y-88034803D01*
X26511451Y-88130041D01*
X26416213Y-88177660D01*
X26273355Y-88177660D01*
X26178117Y-88130041D01*
X26130498Y-88082422D01*
X24940022Y-87130041D02*
X25797165Y-88415756D01*
X24654308Y-87272899D02*
X24606689Y-87225280D01*
X24511451Y-87177660D01*
X24273355Y-87177660D01*
X24178117Y-87225280D01*
X24130498Y-87272899D01*
X24082879Y-87368137D01*
X24082879Y-87463375D01*
X24130498Y-87606232D01*
X24701927Y-88177660D01*
X24082879Y-88177660D01*
X46037641Y-88177660D02*
X46609070Y-88177660D01*
X46323355Y-88177660D02*
X46323355Y-87177660D01*
X46418594Y-87320518D01*
X46513832Y-87415756D01*
X46609070Y-87463375D01*
X45180498Y-87510994D02*
X45180498Y-88177660D01*
X45609070Y-87510994D02*
X45609070Y-88034803D01*
X45561451Y-88130041D01*
X45466213Y-88177660D01*
X45323355Y-88177660D01*
X45228117Y-88130041D01*
X45180498Y-88082422D01*
X43990022Y-87130041D02*
X44847165Y-88415756D01*
X43704308Y-87272899D02*
X43656689Y-87225280D01*
X43561451Y-87177660D01*
X43323355Y-87177660D01*
X43228117Y-87225280D01*
X43180498Y-87272899D01*
X43132879Y-87368137D01*
X43132879Y-87463375D01*
X43180498Y-87606232D01*
X43751927Y-88177660D01*
X43132879Y-88177660D01*
X121809470Y-106322899D02*
X121761851Y-106275280D01*
X121666613Y-106227660D01*
X121428517Y-106227660D01*
X121333279Y-106275280D01*
X121285660Y-106322899D01*
X121238041Y-106418137D01*
X121238041Y-106513375D01*
X121285660Y-106656232D01*
X121857089Y-107227660D01*
X121238041Y-107227660D01*
X120380898Y-106560994D02*
X120380898Y-107227660D01*
X120809470Y-106560994D02*
X120809470Y-107084803D01*
X120761851Y-107180041D01*
X120666613Y-107227660D01*
X120523755Y-107227660D01*
X120428517Y-107180041D01*
X120380898Y-107132422D01*
X198009070Y-106322899D02*
X197961451Y-106275280D01*
X197866213Y-106227660D01*
X197628117Y-106227660D01*
X197532879Y-106275280D01*
X197485260Y-106322899D01*
X197437641Y-106418137D01*
X197437641Y-106513375D01*
X197485260Y-106656232D01*
X198056689Y-107227660D01*
X197437641Y-107227660D01*
X196580498Y-106560994D02*
X196580498Y-107227660D01*
X197009070Y-106560994D02*
X197009070Y-107084803D01*
X196961451Y-107180041D01*
X196866213Y-107227660D01*
X196723355Y-107227660D01*
X196628117Y-107180041D01*
X196580498Y-107132422D01*
X289830012Y-69127660D02*
X290401440Y-69127660D01*
X290115726Y-69127660D02*
X290115726Y-68127660D01*
X290210964Y-68270518D01*
X290306202Y-68365756D01*
X290401440Y-68413375D01*
X289401440Y-69032422D02*
X289353821Y-69080041D01*
X289401440Y-69127660D01*
X289449060Y-69080041D01*
X289401440Y-69032422D01*
X289401440Y-69127660D01*
X288449060Y-68127660D02*
X288925250Y-68127660D01*
X288972869Y-68603851D01*
X288925250Y-68556232D01*
X288830012Y-68508613D01*
X288591917Y-68508613D01*
X288496679Y-68556232D01*
X288449060Y-68603851D01*
X288401440Y-68699089D01*
X288401440Y-68937184D01*
X288449060Y-69032422D01*
X288496679Y-69080041D01*
X288591917Y-69127660D01*
X288830012Y-69127660D01*
X288925250Y-69080041D01*
X288972869Y-69032422D01*
X287544298Y-68460994D02*
X287544298Y-69127660D01*
X287972869Y-68460994D02*
X287972869Y-68984803D01*
X287925250Y-69080041D01*
X287830012Y-69127660D01*
X287687155Y-69127660D01*
X287591917Y-69080041D01*
X287544298Y-69032422D01*
X150360260Y-110799535D02*
X150931689Y-110799535D01*
X150645975Y-110799535D02*
X150645975Y-109799535D01*
X150741213Y-109942393D01*
X150836451Y-110037631D01*
X150931689Y-110085250D01*
X149217403Y-109751916D02*
X150074546Y-111037631D01*
X148931689Y-109894774D02*
X148884070Y-109847155D01*
X148788832Y-109799535D01*
X148550736Y-109799535D01*
X148455498Y-109847155D01*
X148407879Y-109894774D01*
X148360260Y-109990012D01*
X148360260Y-110085250D01*
X148407879Y-110228107D01*
X148979308Y-110799535D01*
X148360260Y-110799535D01*
X169410260Y-110799535D02*
X169981689Y-110799535D01*
X169695975Y-110799535D02*
X169695975Y-109799535D01*
X169791213Y-109942393D01*
X169886451Y-110037631D01*
X169981689Y-110085250D01*
X168267403Y-109751916D02*
X169124546Y-111037631D01*
X167981689Y-109894774D02*
X167934070Y-109847155D01*
X167838832Y-109799535D01*
X167600736Y-109799535D01*
X167505498Y-109847155D01*
X167457879Y-109894774D01*
X167410260Y-109990012D01*
X167410260Y-110085250D01*
X167457879Y-110228107D01*
X168029308Y-110799535D01*
X167410260Y-110799535D01*
X35512452Y-69127660D02*
X36083881Y-69127660D01*
X35798167Y-69127660D02*
X35798167Y-68127660D01*
X35893405Y-68270518D01*
X35988643Y-68365756D01*
X36083881Y-68413375D01*
X35083881Y-69032422D02*
X35036262Y-69080041D01*
X35083881Y-69127660D01*
X35131500Y-69080041D01*
X35083881Y-69032422D01*
X35083881Y-69127660D01*
X34655310Y-68222899D02*
X34607690Y-68175280D01*
X34512452Y-68127660D01*
X34274357Y-68127660D01*
X34179119Y-68175280D01*
X34131500Y-68222899D01*
X34083881Y-68318137D01*
X34083881Y-68413375D01*
X34131500Y-68556232D01*
X34702929Y-69127660D01*
X34083881Y-69127660D01*
X33179119Y-68127660D02*
X33655310Y-68127660D01*
X33702929Y-68603851D01*
X33655310Y-68556232D01*
X33560071Y-68508613D01*
X33321976Y-68508613D01*
X33226738Y-68556232D01*
X33179119Y-68603851D01*
X33131500Y-68699089D01*
X33131500Y-68937184D01*
X33179119Y-69032422D01*
X33226738Y-69080041D01*
X33321976Y-69127660D01*
X33560071Y-69127660D01*
X33655310Y-69080041D01*
X33702929Y-69032422D01*
X32274357Y-68460994D02*
X32274357Y-69127660D01*
X32702929Y-68460994D02*
X32702929Y-68984803D01*
X32655310Y-69080041D01*
X32560071Y-69127660D01*
X32417214Y-69127660D01*
X32321976Y-69080041D01*
X32274357Y-69032422D01*
X30273762Y-69127660D02*
X30845190Y-69127660D01*
X30559476Y-69127660D02*
X30559476Y-68127660D01*
X30654714Y-68270518D01*
X30749952Y-68365756D01*
X30845190Y-68413375D01*
X29845190Y-69032422D02*
X29797571Y-69080041D01*
X29845190Y-69127660D01*
X29892810Y-69080041D01*
X29845190Y-69032422D01*
X29845190Y-69127660D01*
X28892810Y-68127660D02*
X29369000Y-68127660D01*
X29416619Y-68603851D01*
X29369000Y-68556232D01*
X29273762Y-68508613D01*
X29035667Y-68508613D01*
X28940429Y-68556232D01*
X28892810Y-68603851D01*
X28845190Y-68699089D01*
X28845190Y-68937184D01*
X28892810Y-69032422D01*
X28940429Y-69080041D01*
X29035667Y-69127660D01*
X29273762Y-69127660D01*
X29369000Y-69080041D01*
X29416619Y-69032422D01*
X27988048Y-68460994D02*
X27988048Y-69127660D01*
X28416619Y-68460994D02*
X28416619Y-68984803D01*
X28369000Y-69080041D01*
X28273762Y-69127660D01*
X28130905Y-69127660D01*
X28035667Y-69080041D01*
X27988048Y-69032422D01*
X36782792Y-87272899D02*
X36211363Y-87272899D01*
X36497077Y-87272899D02*
X36497077Y-88272899D01*
X36401839Y-88130041D01*
X36306601Y-88034803D01*
X36211363Y-87987184D01*
X37211363Y-87368137D02*
X37258982Y-87320518D01*
X37211363Y-87272899D01*
X37163744Y-87320518D01*
X37211363Y-87368137D01*
X37211363Y-87272899D01*
X37592315Y-88272899D02*
X38258982Y-88272899D01*
X37830411Y-87272899D01*
X39116125Y-88272899D02*
X38639935Y-88272899D01*
X38592315Y-87796708D01*
X38639935Y-87844327D01*
X38735173Y-87891946D01*
X38973268Y-87891946D01*
X39068506Y-87844327D01*
X39116125Y-87796708D01*
X39163744Y-87701470D01*
X39163744Y-87463375D01*
X39116125Y-87368137D01*
X39068506Y-87320518D01*
X38973268Y-87272899D01*
X38735173Y-87272899D01*
X38639935Y-87320518D01*
X38592315Y-87368137D01*
X40020887Y-87939565D02*
X40020887Y-87272899D01*
X39592315Y-87939565D02*
X39592315Y-87415756D01*
X39639935Y-87320518D01*
X39735173Y-87272899D01*
X39878030Y-87272899D01*
X39973268Y-87320518D01*
X40020887Y-87368137D01*
X140835260Y-110799535D02*
X141406689Y-110799535D01*
X141120975Y-110799535D02*
X141120975Y-109799535D01*
X141216213Y-109942393D01*
X141311451Y-110037631D01*
X141406689Y-110085250D01*
X139692403Y-109751916D02*
X140549546Y-111037631D01*
X139454308Y-109799535D02*
X138835260Y-109799535D01*
X139168594Y-110180488D01*
X139025736Y-110180488D01*
X138930498Y-110228107D01*
X138882879Y-110275726D01*
X138835260Y-110370964D01*
X138835260Y-110609059D01*
X138882879Y-110704297D01*
X138930498Y-110751916D01*
X139025736Y-110799535D01*
X139311451Y-110799535D01*
X139406689Y-110751916D01*
X139454308Y-110704297D01*
X202914387Y-107227660D02*
X203485815Y-107227660D01*
X203200101Y-107227660D02*
X203200101Y-106227660D01*
X203295339Y-106370518D01*
X203390577Y-106465756D01*
X203485815Y-106513375D01*
X202485815Y-107132422D02*
X202438196Y-107180041D01*
X202485815Y-107227660D01*
X202533435Y-107180041D01*
X202485815Y-107132422D01*
X202485815Y-107227660D01*
X201533435Y-106227660D02*
X202009625Y-106227660D01*
X202057244Y-106703851D01*
X202009625Y-106656232D01*
X201914387Y-106608613D01*
X201676292Y-106608613D01*
X201581054Y-106656232D01*
X201533435Y-106703851D01*
X201485815Y-106799089D01*
X201485815Y-107037184D01*
X201533435Y-107132422D01*
X201581054Y-107180041D01*
X201676292Y-107227660D01*
X201914387Y-107227660D01*
X202009625Y-107180041D01*
X202057244Y-107132422D01*
X200628673Y-106560994D02*
X200628673Y-107227660D01*
X201057244Y-106560994D02*
X201057244Y-107084803D01*
X201009625Y-107180041D01*
X200914387Y-107227660D01*
X200771530Y-107227660D01*
X200676292Y-107180041D01*
X200628673Y-107132422D01*
X178935260Y-110799535D02*
X179506689Y-110799535D01*
X179220975Y-110799535D02*
X179220975Y-109799535D01*
X179316213Y-109942393D01*
X179411451Y-110037631D01*
X179506689Y-110085250D01*
X177792403Y-109751916D02*
X178649546Y-111037631D01*
X177554308Y-109799535D02*
X176935260Y-109799535D01*
X177268594Y-110180488D01*
X177125736Y-110180488D01*
X177030498Y-110228107D01*
X176982879Y-110275726D01*
X176935260Y-110370964D01*
X176935260Y-110609059D01*
X176982879Y-110704297D01*
X177030498Y-110751916D01*
X177125736Y-110799535D01*
X177411451Y-110799535D01*
X177506689Y-110751916D01*
X177554308Y-110704297D01*
X285543702Y-69127660D02*
X286115131Y-69127660D01*
X285829417Y-69127660D02*
X285829417Y-68127660D01*
X285924655Y-68270518D01*
X286019893Y-68365756D01*
X286115131Y-68413375D01*
X285115131Y-69032422D02*
X285067512Y-69080041D01*
X285115131Y-69127660D01*
X285162750Y-69080041D01*
X285115131Y-69032422D01*
X285115131Y-69127660D01*
X284686560Y-68222899D02*
X284638940Y-68175280D01*
X284543702Y-68127660D01*
X284305607Y-68127660D01*
X284210369Y-68175280D01*
X284162750Y-68222899D01*
X284115131Y-68318137D01*
X284115131Y-68413375D01*
X284162750Y-68556232D01*
X284734179Y-69127660D01*
X284115131Y-69127660D01*
X283210369Y-68127660D02*
X283686560Y-68127660D01*
X283734179Y-68603851D01*
X283686560Y-68556232D01*
X283591321Y-68508613D01*
X283353226Y-68508613D01*
X283257988Y-68556232D01*
X283210369Y-68603851D01*
X283162750Y-68699089D01*
X283162750Y-68937184D01*
X283210369Y-69032422D01*
X283257988Y-69080041D01*
X283353226Y-69127660D01*
X283591321Y-69127660D01*
X283686560Y-69080041D01*
X283734179Y-69032422D01*
X282305607Y-68460994D02*
X282305607Y-69127660D01*
X282734179Y-68460994D02*
X282734179Y-68984803D01*
X282686560Y-69080041D01*
X282591321Y-69127660D01*
X282448464Y-69127660D01*
X282353226Y-69080041D01*
X282305607Y-69032422D01*
X117189387Y-107227660D02*
X117760815Y-107227660D01*
X117475101Y-107227660D02*
X117475101Y-106227660D01*
X117570339Y-106370518D01*
X117665577Y-106465756D01*
X117760815Y-106513375D01*
X116760815Y-107132422D02*
X116713196Y-107180041D01*
X116760815Y-107227660D01*
X116808435Y-107180041D01*
X116760815Y-107132422D01*
X116760815Y-107227660D01*
X115808435Y-106227660D02*
X116284625Y-106227660D01*
X116332244Y-106703851D01*
X116284625Y-106656232D01*
X116189387Y-106608613D01*
X115951292Y-106608613D01*
X115856054Y-106656232D01*
X115808435Y-106703851D01*
X115760815Y-106799089D01*
X115760815Y-107037184D01*
X115808435Y-107132422D01*
X115856054Y-107180041D01*
X115951292Y-107227660D01*
X116189387Y-107227660D01*
X116284625Y-107180041D01*
X116332244Y-107132422D01*
X114903673Y-106560994D02*
X114903673Y-107227660D01*
X115332244Y-106560994D02*
X115332244Y-107084803D01*
X115284625Y-107180041D01*
X115189387Y-107227660D01*
X115046530Y-107227660D01*
X114951292Y-107180041D01*
X114903673Y-107132422D01*
X33702780Y-87272899D02*
X33655161Y-87225280D01*
X33559923Y-87177660D01*
X33321827Y-87177660D01*
X33226589Y-87225280D01*
X33178970Y-87272899D01*
X33131351Y-87368137D01*
X33131351Y-87463375D01*
X33178970Y-87606232D01*
X33750399Y-88177660D01*
X33131351Y-88177660D01*
X32274208Y-87510994D02*
X32274208Y-88177660D01*
X32702780Y-87510994D02*
X32702780Y-88034803D01*
X32655161Y-88130041D01*
X32559923Y-88177660D01*
X32417065Y-88177660D01*
X32321827Y-88130041D01*
X32274208Y-88082422D01*
X159885260Y-110799535D02*
X160456689Y-110799535D01*
X160170975Y-110799535D02*
X160170975Y-109799535D01*
X160266213Y-109942393D01*
X160361451Y-110037631D01*
X160456689Y-110085250D01*
X158742403Y-109751916D02*
X159599546Y-111037631D01*
X158504308Y-109799535D02*
X157885260Y-109799535D01*
X158218594Y-110180488D01*
X158075736Y-110180488D01*
X157980498Y-110228107D01*
X157932879Y-110275726D01*
X157885260Y-110370964D01*
X157885260Y-110609059D01*
X157932879Y-110704297D01*
X157980498Y-110751916D01*
X158075736Y-110799535D01*
X158361451Y-110799535D01*
X158456689Y-110751916D01*
X158504308Y-110704297D01*
X25987601Y-27962785D02*
X26320935Y-27486595D01*
X26559030Y-27962785D02*
X26559030Y-26962785D01*
X26178077Y-26962785D01*
X26082839Y-27010405D01*
X26035220Y-27058024D01*
X25987601Y-27153262D01*
X25987601Y-27296119D01*
X26035220Y-27391357D01*
X26082839Y-27438976D01*
X26178077Y-27486595D01*
X26559030Y-27486595D01*
X25606649Y-27058024D02*
X25559030Y-27010405D01*
X25463792Y-26962785D01*
X25225696Y-26962785D01*
X25130458Y-27010405D01*
X25082839Y-27058024D01*
X25035220Y-27153262D01*
X25035220Y-27248500D01*
X25082839Y-27391357D01*
X25654268Y-27962785D01*
X25035220Y-27962785D01*
X293395339Y-47877660D02*
X293728673Y-47401470D01*
X293966768Y-47877660D02*
X293966768Y-46877660D01*
X293585815Y-46877660D01*
X293490577Y-46925280D01*
X293442958Y-46972899D01*
X293395339Y-47068137D01*
X293395339Y-47210994D01*
X293442958Y-47306232D01*
X293490577Y-47353851D01*
X293585815Y-47401470D01*
X293966768Y-47401470D01*
X292966768Y-47877660D02*
X292966768Y-47210994D01*
X292966768Y-46877660D02*
X293014387Y-46925280D01*
X292966768Y-46972899D01*
X292919149Y-46925280D01*
X292966768Y-46877660D01*
X292966768Y-46972899D01*
X292062006Y-47210994D02*
X292062006Y-48020518D01*
X292109625Y-48115756D01*
X292157244Y-48163375D01*
X292252482Y-48210994D01*
X292395339Y-48210994D01*
X292490577Y-48163375D01*
X292062006Y-47830041D02*
X292157244Y-47877660D01*
X292347720Y-47877660D01*
X292442958Y-47830041D01*
X292490577Y-47782422D01*
X292538196Y-47687184D01*
X292538196Y-47401470D01*
X292490577Y-47306232D01*
X292442958Y-47258613D01*
X292347720Y-47210994D01*
X292157244Y-47210994D01*
X292062006Y-47258613D01*
X291585815Y-47877660D02*
X291585815Y-46877660D01*
X291157244Y-47877660D02*
X291157244Y-47353851D01*
X291204863Y-47258613D01*
X291300101Y-47210994D01*
X291442958Y-47210994D01*
X291538196Y-47258613D01*
X291585815Y-47306232D01*
X290823911Y-47210994D02*
X290442958Y-47210994D01*
X290681054Y-46877660D02*
X290681054Y-47734803D01*
X290633435Y-47830041D01*
X290538196Y-47877660D01*
X290442958Y-47877660D01*
X288871530Y-47877660D02*
X289347720Y-47877660D01*
X289347720Y-46877660D01*
X288538196Y-47353851D02*
X288204863Y-47353851D01*
X288062006Y-47877660D02*
X288538196Y-47877660D01*
X288538196Y-46877660D01*
X288062006Y-46877660D01*
X287633435Y-47877660D02*
X287633435Y-46877660D01*
X287395339Y-46877660D01*
X287252482Y-46925280D01*
X287157244Y-47020518D01*
X287109625Y-47115756D01*
X287062006Y-47306232D01*
X287062006Y-47449089D01*
X287109625Y-47639565D01*
X287157244Y-47734803D01*
X287252482Y-47830041D01*
X287395339Y-47877660D01*
X287633435Y-47877660D01*
X286681054Y-47830041D02*
X286585815Y-47877660D01*
X286395339Y-47877660D01*
X286300101Y-47830041D01*
X286252482Y-47734803D01*
X286252482Y-47687184D01*
X286300101Y-47591946D01*
X286395339Y-47544327D01*
X286538196Y-47544327D01*
X286633435Y-47496708D01*
X286681054Y-47401470D01*
X286681054Y-47353851D01*
X286633435Y-47258613D01*
X286538196Y-47210994D01*
X286395339Y-47210994D01*
X286300101Y-47258613D01*
X294050101Y-49077660D02*
X293859625Y-49077660D01*
X293764387Y-49125280D01*
X293669149Y-49220518D01*
X293621530Y-49410994D01*
X293621530Y-49744327D01*
X293669149Y-49934803D01*
X293764387Y-50030041D01*
X293859625Y-50077660D01*
X294050101Y-50077660D01*
X294145339Y-50030041D01*
X294240577Y-49934803D01*
X294288196Y-49744327D01*
X294288196Y-49410994D01*
X294240577Y-49220518D01*
X294145339Y-49125280D01*
X294050101Y-49077660D01*
X293335815Y-49410994D02*
X292954863Y-49410994D01*
X293192958Y-50077660D02*
X293192958Y-49220518D01*
X293145339Y-49125280D01*
X293050101Y-49077660D01*
X292954863Y-49077660D01*
X292764387Y-49410994D02*
X292383435Y-49410994D01*
X292621530Y-50077660D02*
X292621530Y-49220518D01*
X292573911Y-49125280D01*
X292478673Y-49077660D01*
X292383435Y-49077660D01*
X287431054Y-49077660D02*
X287240577Y-49077660D01*
X287145339Y-49125280D01*
X287050101Y-49220518D01*
X287002482Y-49410994D01*
X287002482Y-49744327D01*
X287050101Y-49934803D01*
X287145339Y-50030041D01*
X287240577Y-50077660D01*
X287431054Y-50077660D01*
X287526292Y-50030041D01*
X287621530Y-49934803D01*
X287669149Y-49744327D01*
X287669149Y-49410994D01*
X287621530Y-49220518D01*
X287526292Y-49125280D01*
X287431054Y-49077660D01*
X286573911Y-49410994D02*
X286573911Y-50077660D01*
X286573911Y-49506232D02*
X286526292Y-49458613D01*
X286431054Y-49410994D01*
X286288196Y-49410994D01*
X286192958Y-49458613D01*
X286145339Y-49553851D01*
X286145339Y-50077660D01*
X37290601Y-33424785D02*
X37623935Y-32948595D01*
X37862030Y-33424785D02*
X37862030Y-32424785D01*
X37481077Y-32424785D01*
X37385839Y-32472405D01*
X37338220Y-32520024D01*
X37290601Y-32615262D01*
X37290601Y-32758119D01*
X37338220Y-32853357D01*
X37385839Y-32900976D01*
X37481077Y-32948595D01*
X37862030Y-32948595D01*
X36957268Y-32424785D02*
X36338220Y-32424785D01*
X36671554Y-32805738D01*
X36528696Y-32805738D01*
X36433458Y-32853357D01*
X36385839Y-32900976D01*
X36338220Y-32996214D01*
X36338220Y-33234309D01*
X36385839Y-33329547D01*
X36433458Y-33377166D01*
X36528696Y-33424785D01*
X36814411Y-33424785D01*
X36909649Y-33377166D01*
X36957268Y-33329547D01*
X59290436Y-40923201D02*
X59290436Y-40855858D01*
X59223092Y-40721171D01*
X59155749Y-40653827D01*
X59021061Y-40586484D01*
X58886374Y-40586484D01*
X58785359Y-40620155D01*
X58617000Y-40721171D01*
X58515985Y-40822186D01*
X58414970Y-40990545D01*
X58381298Y-41091560D01*
X58381298Y-41226247D01*
X58448642Y-41360934D01*
X58515985Y-41428278D01*
X58650672Y-41495621D01*
X58718016Y-41495621D01*
X59290436Y-42202728D02*
X58953718Y-41866010D01*
X59256764Y-41495621D01*
X59256764Y-41562965D01*
X59290436Y-41663980D01*
X59458794Y-41832339D01*
X59559810Y-41866010D01*
X59627153Y-41866010D01*
X59728168Y-41832339D01*
X59896527Y-41663980D01*
X59930199Y-41562965D01*
X59930199Y-41495621D01*
X59896527Y-41394606D01*
X59728168Y-41226247D01*
X59627153Y-41192575D01*
X59559810Y-41192575D01*
X87186371Y-24907806D02*
X87043514Y-24955425D01*
X86805418Y-24955425D01*
X86710180Y-24907806D01*
X86662561Y-24860187D01*
X86614942Y-24764949D01*
X86614942Y-24669711D01*
X86662561Y-24574473D01*
X86710180Y-24526854D01*
X86805418Y-24479235D01*
X86995895Y-24431616D01*
X87091133Y-24383997D01*
X87138752Y-24336378D01*
X87186371Y-24241140D01*
X87186371Y-24145902D01*
X87138752Y-24050664D01*
X87091133Y-24003045D01*
X86995895Y-23955425D01*
X86757799Y-23955425D01*
X86614942Y-24003045D01*
X85614942Y-24860187D02*
X85662561Y-24907806D01*
X85805418Y-24955425D01*
X85900656Y-24955425D01*
X86043514Y-24907806D01*
X86138752Y-24812568D01*
X86186371Y-24717330D01*
X86233990Y-24526854D01*
X86233990Y-24383997D01*
X86186371Y-24193521D01*
X86138752Y-24098283D01*
X86043514Y-24003045D01*
X85900656Y-23955425D01*
X85805418Y-23955425D01*
X85662561Y-24003045D01*
X85614942Y-24050664D01*
X84710180Y-24955425D02*
X85186371Y-24955425D01*
X85186371Y-23955425D01*
X87185180Y-27408166D02*
X87042323Y-27455785D01*
X86804228Y-27455785D01*
X86708990Y-27408166D01*
X86661371Y-27360547D01*
X86613752Y-27265309D01*
X86613752Y-27170071D01*
X86661371Y-27074833D01*
X86708990Y-27027214D01*
X86804228Y-26979595D01*
X86994704Y-26931976D01*
X87089942Y-26884357D01*
X87137561Y-26836738D01*
X87185180Y-26741500D01*
X87185180Y-26646262D01*
X87137561Y-26551024D01*
X87089942Y-26503405D01*
X86994704Y-26455785D01*
X86756609Y-26455785D01*
X86613752Y-26503405D01*
X86185180Y-27455785D02*
X86185180Y-26455785D01*
X85947085Y-26455785D01*
X85804228Y-26503405D01*
X85708990Y-26598643D01*
X85661371Y-26693881D01*
X85613752Y-26884357D01*
X85613752Y-27027214D01*
X85661371Y-27217690D01*
X85708990Y-27312928D01*
X85804228Y-27408166D01*
X85947085Y-27455785D01*
X86185180Y-27455785D01*
X85232799Y-27170071D02*
X84756609Y-27170071D01*
X85328037Y-27455785D02*
X84994704Y-26455785D01*
X84661371Y-27455785D01*
X106830756Y-98752726D02*
X106497423Y-98752726D01*
X106354565Y-99276535D02*
X106830756Y-99276535D01*
X106830756Y-98276535D01*
X106354565Y-98276535D01*
X106021232Y-98276535D02*
X105354565Y-99276535D01*
X105354565Y-98276535D02*
X106021232Y-99276535D01*
X105116470Y-98276535D02*
X104545042Y-98276535D01*
X104830756Y-99276535D02*
X104830756Y-98276535D01*
X104449804Y-99371774D02*
X103687899Y-99371774D01*
X102878375Y-99181297D02*
X102925994Y-99228916D01*
X103068851Y-99276535D01*
X103164089Y-99276535D01*
X103306946Y-99228916D01*
X103402185Y-99133678D01*
X103449804Y-99038440D01*
X103497423Y-98847964D01*
X103497423Y-98705107D01*
X103449804Y-98514631D01*
X103402185Y-98419393D01*
X103306946Y-98324155D01*
X103164089Y-98276535D01*
X103068851Y-98276535D01*
X102925994Y-98324155D01*
X102878375Y-98371774D01*
X102497423Y-98371774D02*
X102449804Y-98324155D01*
X102354565Y-98276535D01*
X102116470Y-98276535D01*
X102021232Y-98324155D01*
X101973613Y-98371774D01*
X101925994Y-98467012D01*
X101925994Y-98562250D01*
X101973613Y-98705107D01*
X102545042Y-99276535D01*
X101925994Y-99276535D01*
X202080756Y-73749601D02*
X201747423Y-73749601D01*
X201604565Y-74273410D02*
X202080756Y-74273410D01*
X202080756Y-73273410D01*
X201604565Y-73273410D01*
X201271232Y-73273410D02*
X200604565Y-74273410D01*
X200604565Y-73273410D02*
X201271232Y-74273410D01*
X200366470Y-73273410D02*
X199795042Y-73273410D01*
X200080756Y-74273410D02*
X200080756Y-73273410D01*
X199699804Y-74368649D02*
X198937899Y-74368649D01*
X198128375Y-74178172D02*
X198175994Y-74225791D01*
X198318851Y-74273410D01*
X198414089Y-74273410D01*
X198556946Y-74225791D01*
X198652185Y-74130553D01*
X198699804Y-74035315D01*
X198747423Y-73844839D01*
X198747423Y-73701982D01*
X198699804Y-73511506D01*
X198652185Y-73416268D01*
X198556946Y-73321030D01*
X198414089Y-73273410D01*
X198318851Y-73273410D01*
X198175994Y-73321030D01*
X198128375Y-73368649D01*
X197271232Y-73606744D02*
X197271232Y-74273410D01*
X197509327Y-73225791D02*
X197747423Y-73940077D01*
X197128375Y-73940077D01*
X263993256Y-101133976D02*
X263659923Y-101133976D01*
X263517065Y-101657785D02*
X263993256Y-101657785D01*
X263993256Y-100657785D01*
X263517065Y-100657785D01*
X263183732Y-100657785D02*
X262517065Y-101657785D01*
X262517065Y-100657785D02*
X263183732Y-101657785D01*
X262278970Y-100657785D02*
X261707542Y-100657785D01*
X261993256Y-101657785D02*
X261993256Y-100657785D01*
X261612304Y-101753024D02*
X260850399Y-101753024D01*
X260040875Y-101562547D02*
X260088494Y-101610166D01*
X260231351Y-101657785D01*
X260326589Y-101657785D01*
X260469446Y-101610166D01*
X260564685Y-101514928D01*
X260612304Y-101419690D01*
X260659923Y-101229214D01*
X260659923Y-101086357D01*
X260612304Y-100895881D01*
X260564685Y-100800643D01*
X260469446Y-100705405D01*
X260326589Y-100657785D01*
X260231351Y-100657785D01*
X260088494Y-100705405D01*
X260040875Y-100753024D01*
X259183732Y-100657785D02*
X259374208Y-100657785D01*
X259469446Y-100705405D01*
X259517065Y-100753024D01*
X259612304Y-100895881D01*
X259659923Y-101086357D01*
X259659923Y-101467309D01*
X259612304Y-101562547D01*
X259564685Y-101610166D01*
X259469446Y-101657785D01*
X259278970Y-101657785D01*
X259183732Y-101610166D01*
X259136113Y-101562547D01*
X259088494Y-101467309D01*
X259088494Y-101229214D01*
X259136113Y-101133976D01*
X259183732Y-101086357D01*
X259278970Y-101038738D01*
X259469446Y-101038738D01*
X259564685Y-101086357D01*
X259612304Y-101133976D01*
X259659923Y-101229214D01*
X38965131Y-101133976D02*
X38631798Y-101133976D01*
X38488940Y-101657785D02*
X38965131Y-101657785D01*
X38965131Y-100657785D01*
X38488940Y-100657785D01*
X38155607Y-100657785D02*
X37488940Y-101657785D01*
X37488940Y-100657785D02*
X38155607Y-101657785D01*
X37250845Y-100657785D02*
X36679417Y-100657785D01*
X36965131Y-101657785D02*
X36965131Y-100657785D01*
X36584179Y-101753024D02*
X35822274Y-101753024D01*
X35012750Y-101562547D02*
X35060369Y-101610166D01*
X35203226Y-101657785D01*
X35298464Y-101657785D01*
X35441321Y-101610166D01*
X35536560Y-101514928D01*
X35584179Y-101419690D01*
X35631798Y-101229214D01*
X35631798Y-101086357D01*
X35584179Y-100895881D01*
X35536560Y-100800643D01*
X35441321Y-100705405D01*
X35298464Y-100657785D01*
X35203226Y-100657785D01*
X35060369Y-100705405D01*
X35012750Y-100753024D01*
X34393702Y-100657785D02*
X34298464Y-100657785D01*
X34203226Y-100705405D01*
X34155607Y-100753024D01*
X34107988Y-100848262D01*
X34060369Y-101038738D01*
X34060369Y-101276833D01*
X34107988Y-101467309D01*
X34155607Y-101562547D01*
X34203226Y-101610166D01*
X34298464Y-101657785D01*
X34393702Y-101657785D01*
X34488940Y-101610166D01*
X34536560Y-101562547D01*
X34584179Y-101467309D01*
X34631798Y-101276833D01*
X34631798Y-101038738D01*
X34584179Y-100848262D01*
X34536560Y-100753024D01*
X34488940Y-100705405D01*
X34393702Y-100657785D01*
X44378506Y-73366351D02*
X44045173Y-73366351D01*
X43902315Y-73890160D02*
X44378506Y-73890160D01*
X44378506Y-72890160D01*
X43902315Y-72890160D01*
X43568982Y-72890160D02*
X42902315Y-73890160D01*
X42902315Y-72890160D02*
X43568982Y-73890160D01*
X42664220Y-72890160D02*
X42092792Y-72890160D01*
X42378506Y-73890160D02*
X42378506Y-72890160D01*
X41997554Y-73985399D02*
X41235649Y-73985399D01*
X40426125Y-73890160D02*
X40759458Y-73413970D01*
X40997554Y-73890160D02*
X40997554Y-72890160D01*
X40616601Y-72890160D01*
X40521363Y-72937780D01*
X40473744Y-72985399D01*
X40426125Y-73080637D01*
X40426125Y-73223494D01*
X40473744Y-73318732D01*
X40521363Y-73366351D01*
X40616601Y-73413970D01*
X40997554Y-73413970D01*
X40045173Y-72985399D02*
X39997554Y-72937780D01*
X39902315Y-72890160D01*
X39664220Y-72890160D01*
X39568982Y-72937780D01*
X39521363Y-72985399D01*
X39473744Y-73080637D01*
X39473744Y-73175875D01*
X39521363Y-73318732D01*
X40092792Y-73890160D01*
X39473744Y-73890160D01*
X286615131Y-86748976D02*
X286281798Y-86748976D01*
X286138940Y-87272785D02*
X286615131Y-87272785D01*
X286615131Y-86272785D01*
X286138940Y-86272785D01*
X285805607Y-86272785D02*
X285138940Y-87272785D01*
X285138940Y-86272785D02*
X285805607Y-87272785D01*
X284900845Y-86272785D02*
X284329417Y-86272785D01*
X284615131Y-87272785D02*
X284615131Y-86272785D01*
X284234179Y-87368024D02*
X283472274Y-87368024D01*
X282662750Y-87272785D02*
X282996083Y-86796595D01*
X283234179Y-87272785D02*
X283234179Y-86272785D01*
X282853226Y-86272785D01*
X282757988Y-86320405D01*
X282710369Y-86368024D01*
X282662750Y-86463262D01*
X282662750Y-86606119D01*
X282710369Y-86701357D01*
X282757988Y-86748976D01*
X282853226Y-86796595D01*
X283234179Y-86796595D01*
X282329417Y-86272785D02*
X281710369Y-86272785D01*
X282043702Y-86653738D01*
X281900845Y-86653738D01*
X281805607Y-86701357D01*
X281757988Y-86748976D01*
X281710369Y-86844214D01*
X281710369Y-87082309D01*
X281757988Y-87177547D01*
X281805607Y-87225166D01*
X281900845Y-87272785D01*
X282186560Y-87272785D01*
X282281798Y-87225166D01*
X282329417Y-87177547D01*
X288996381Y-94368976D02*
X288663048Y-94368976D01*
X288520190Y-94892785D02*
X288996381Y-94892785D01*
X288996381Y-93892785D01*
X288520190Y-93892785D01*
X288186857Y-93892785D02*
X287520190Y-94892785D01*
X287520190Y-93892785D02*
X288186857Y-94892785D01*
X287282095Y-93892785D02*
X286710667Y-93892785D01*
X286996381Y-94892785D02*
X286996381Y-93892785D01*
X286615429Y-94988024D02*
X285853524Y-94988024D01*
X285044000Y-94892785D02*
X285377333Y-94416595D01*
X285615429Y-94892785D02*
X285615429Y-93892785D01*
X285234476Y-93892785D01*
X285139238Y-93940405D01*
X285091619Y-93988024D01*
X285044000Y-94083262D01*
X285044000Y-94226119D01*
X285091619Y-94321357D01*
X285139238Y-94368976D01*
X285234476Y-94416595D01*
X285615429Y-94416595D01*
X284472571Y-94321357D02*
X284567810Y-94273738D01*
X284615429Y-94226119D01*
X284663048Y-94130881D01*
X284663048Y-94083262D01*
X284615429Y-93988024D01*
X284567810Y-93940405D01*
X284472571Y-93892785D01*
X284282095Y-93892785D01*
X284186857Y-93940405D01*
X284139238Y-93988024D01*
X284091619Y-94083262D01*
X284091619Y-94130881D01*
X284139238Y-94226119D01*
X284186857Y-94273738D01*
X284282095Y-94321357D01*
X284472571Y-94321357D01*
X284567810Y-94368976D01*
X284615429Y-94416595D01*
X284663048Y-94511833D01*
X284663048Y-94702309D01*
X284615429Y-94797547D01*
X284567810Y-94845166D01*
X284472571Y-94892785D01*
X284282095Y-94892785D01*
X284186857Y-94845166D01*
X284139238Y-94797547D01*
X284091619Y-94702309D01*
X284091619Y-94511833D01*
X284139238Y-94416595D01*
X284186857Y-94368976D01*
X284282095Y-94321357D01*
X41330536Y-34636557D02*
X41330536Y-34569214D01*
X41263192Y-34434527D01*
X41195849Y-34367183D01*
X41061161Y-34299840D01*
X40926474Y-34299840D01*
X40825459Y-34333511D01*
X40657100Y-34434527D01*
X40556085Y-34535542D01*
X40455070Y-34703901D01*
X40421398Y-34804916D01*
X40421398Y-34939603D01*
X40488742Y-35074290D01*
X40556085Y-35141634D01*
X40690772Y-35208977D01*
X40758116Y-35208977D01*
X42071314Y-35242649D02*
X41667253Y-34838588D01*
X41869284Y-35040618D02*
X41162177Y-35747725D01*
X41195849Y-35579366D01*
X41195849Y-35444679D01*
X41162177Y-35343664D01*
X47098140Y-25032925D02*
X47434858Y-25369643D01*
X46963453Y-24426834D02*
X47098140Y-25032925D01*
X46492049Y-24898238D01*
X46593064Y-26211436D02*
X46997125Y-25807375D01*
X46795094Y-26009406D02*
X46087988Y-25302299D01*
X46256346Y-25335971D01*
X46391033Y-25335971D01*
X46492049Y-25302299D01*
X44309808Y-31932579D02*
X44309808Y-31865236D01*
X44242464Y-31730549D01*
X44175121Y-31663205D01*
X44040433Y-31595862D01*
X43905746Y-31595862D01*
X43804731Y-31629533D01*
X43636372Y-31730549D01*
X43535357Y-31831564D01*
X43434342Y-31999923D01*
X43400670Y-32100938D01*
X43400670Y-32235625D01*
X43468014Y-32370312D01*
X43535357Y-32437656D01*
X43670044Y-32504999D01*
X43737388Y-32504999D01*
X43905746Y-32808045D02*
X44343479Y-33245778D01*
X44377151Y-32740701D01*
X44478166Y-32841717D01*
X44579182Y-32875388D01*
X44646525Y-32875388D01*
X44747540Y-32841717D01*
X44915899Y-32673358D01*
X44949571Y-32572343D01*
X44949571Y-32504999D01*
X44915899Y-32403984D01*
X44713869Y-32201953D01*
X44612853Y-32168281D01*
X44545510Y-32168281D01*
X59692683Y-27693954D02*
X59692683Y-27626611D01*
X59625339Y-27491924D01*
X59557996Y-27424580D01*
X59423308Y-27357237D01*
X59288621Y-27357237D01*
X59187606Y-27390908D01*
X59019247Y-27491924D01*
X58918232Y-27592939D01*
X58817217Y-27761298D01*
X58783545Y-27862313D01*
X58783545Y-27997000D01*
X58850889Y-28131687D01*
X58918232Y-28199031D01*
X59052919Y-28266374D01*
X59120263Y-28266374D01*
X59288621Y-28569420D02*
X59760026Y-29040824D01*
X60164087Y-28030672D01*
X63656324Y-33869092D02*
X63723667Y-33869092D01*
X63858354Y-33801748D01*
X63925698Y-33734405D01*
X63993041Y-33599717D01*
X63993041Y-33465030D01*
X63959370Y-33364015D01*
X63858354Y-33195656D01*
X63757339Y-33094641D01*
X63588980Y-32993626D01*
X63487965Y-32959954D01*
X63353278Y-32959954D01*
X63218591Y-33027298D01*
X63151247Y-33094641D01*
X63083904Y-33229328D01*
X63083904Y-33296672D01*
X62646171Y-34071122D02*
X63117576Y-34542527D01*
X62545156Y-33633389D02*
X63218591Y-33970107D01*
X62780858Y-34407840D01*
X51038315Y-54393245D02*
X50562125Y-54059912D01*
X51038315Y-53821817D02*
X50038315Y-53821817D01*
X50038315Y-54202769D01*
X50085935Y-54298007D01*
X50133554Y-54345626D01*
X50228792Y-54393245D01*
X50371649Y-54393245D01*
X50466887Y-54345626D01*
X50514506Y-54298007D01*
X50562125Y-54202769D01*
X50562125Y-53821817D01*
X50990696Y-54774198D02*
X51038315Y-54917055D01*
X51038315Y-55155150D01*
X50990696Y-55250388D01*
X50943077Y-55298007D01*
X50847839Y-55345626D01*
X50752601Y-55345626D01*
X50657363Y-55298007D01*
X50609744Y-55250388D01*
X50562125Y-55155150D01*
X50514506Y-54964674D01*
X50466887Y-54869436D01*
X50419268Y-54821817D01*
X50324030Y-54774198D01*
X50228792Y-54774198D01*
X50133554Y-54821817D01*
X50085935Y-54869436D01*
X50038315Y-54964674D01*
X50038315Y-55202769D01*
X50085935Y-55345626D01*
X50038315Y-55631341D02*
X50038315Y-56202769D01*
X51038315Y-55917055D02*
X50038315Y-55917055D01*
X56118315Y-53769436D02*
X55118315Y-53769436D01*
X55832601Y-54102769D01*
X55118315Y-54436103D01*
X56118315Y-54436103D01*
X56118315Y-54912293D02*
X55118315Y-54912293D01*
X56070696Y-55340865D02*
X56118315Y-55483722D01*
X56118315Y-55721817D01*
X56070696Y-55817055D01*
X56023077Y-55864674D01*
X55927839Y-55912293D01*
X55832601Y-55912293D01*
X55737363Y-55864674D01*
X55689744Y-55817055D01*
X55642125Y-55721817D01*
X55594506Y-55531341D01*
X55546887Y-55436103D01*
X55499268Y-55388484D01*
X55404030Y-55340865D01*
X55308792Y-55340865D01*
X55213554Y-55388484D01*
X55165935Y-55436103D01*
X55118315Y-55531341D01*
X55118315Y-55769436D01*
X55165935Y-55912293D01*
X55118315Y-56531341D02*
X55118315Y-56721817D01*
X55165935Y-56817055D01*
X55261173Y-56912293D01*
X55451649Y-56959912D01*
X55784982Y-56959912D01*
X55975458Y-56912293D01*
X56070696Y-56817055D01*
X56118315Y-56721817D01*
X56118315Y-56531341D01*
X56070696Y-56436103D01*
X55975458Y-56340865D01*
X55784982Y-56293245D01*
X55451649Y-56293245D01*
X55261173Y-56340865D01*
X55165935Y-56436103D01*
X55118315Y-56531341D01*
X50085935Y-45878960D02*
X50038315Y-45783722D01*
X50038315Y-45640865D01*
X50085935Y-45498007D01*
X50181173Y-45402769D01*
X50276411Y-45355150D01*
X50466887Y-45307531D01*
X50609744Y-45307531D01*
X50800220Y-45355150D01*
X50895458Y-45402769D01*
X50990696Y-45498007D01*
X51038315Y-45640865D01*
X51038315Y-45736103D01*
X50990696Y-45878960D01*
X50943077Y-45926579D01*
X50609744Y-45926579D01*
X50609744Y-45736103D01*
X51038315Y-46355150D02*
X50038315Y-46355150D01*
X51038315Y-46926579D01*
X50038315Y-46926579D01*
X51038315Y-47402769D02*
X50038315Y-47402769D01*
X50038315Y-47640865D01*
X50085935Y-47783722D01*
X50181173Y-47878960D01*
X50276411Y-47926579D01*
X50466887Y-47974198D01*
X50609744Y-47974198D01*
X50800220Y-47926579D01*
X50895458Y-47878960D01*
X50990696Y-47783722D01*
X51038315Y-47640865D01*
X51038315Y-47402769D01*
X53530696Y-53784690D02*
X53578315Y-53927547D01*
X53578315Y-54165643D01*
X53530696Y-54260881D01*
X53483077Y-54308500D01*
X53387839Y-54356119D01*
X53292601Y-54356119D01*
X53197363Y-54308500D01*
X53149744Y-54260881D01*
X53102125Y-54165643D01*
X53054506Y-53975166D01*
X53006887Y-53879928D01*
X52959268Y-53832309D01*
X52864030Y-53784690D01*
X52768792Y-53784690D01*
X52673554Y-53832309D01*
X52625935Y-53879928D01*
X52578315Y-53975166D01*
X52578315Y-54213262D01*
X52625935Y-54356119D01*
X53483077Y-55356119D02*
X53530696Y-55308500D01*
X53578315Y-55165643D01*
X53578315Y-55070405D01*
X53530696Y-54927547D01*
X53435458Y-54832309D01*
X53340220Y-54784690D01*
X53149744Y-54737071D01*
X53006887Y-54737071D01*
X52816411Y-54784690D01*
X52721173Y-54832309D01*
X52625935Y-54927547D01*
X52578315Y-55070405D01*
X52578315Y-55165643D01*
X52625935Y-55308500D01*
X52673554Y-55356119D01*
X53578315Y-55784690D02*
X52578315Y-55784690D01*
X53578315Y-56356119D02*
X53006887Y-55927547D01*
X52578315Y-56356119D02*
X53149744Y-55784690D01*
X55801738Y-45148690D02*
X55801738Y-45910595D01*
X56182690Y-45529643D02*
X55420786Y-45529643D01*
X55182690Y-46862976D02*
X55182690Y-46386785D01*
X55658881Y-46339166D01*
X55611262Y-46386785D01*
X55563643Y-46482024D01*
X55563643Y-46720119D01*
X55611262Y-46815357D01*
X55658881Y-46862976D01*
X55754119Y-46910595D01*
X55992214Y-46910595D01*
X56087452Y-46862976D01*
X56135071Y-46815357D01*
X56182690Y-46720119D01*
X56182690Y-46482024D01*
X56135071Y-46386785D01*
X56087452Y-46339166D01*
X55182690Y-47196309D02*
X56182690Y-47529643D01*
X55182690Y-47862976D01*
X53632690Y-44769436D02*
X52632690Y-44769436D01*
X53346976Y-45102769D01*
X52632690Y-45436103D01*
X53632690Y-45436103D01*
X52632690Y-46102769D02*
X52632690Y-46293245D01*
X52680310Y-46388484D01*
X52775548Y-46483722D01*
X52966024Y-46531341D01*
X53299357Y-46531341D01*
X53489833Y-46483722D01*
X53585071Y-46388484D01*
X53632690Y-46293245D01*
X53632690Y-46102769D01*
X53585071Y-46007531D01*
X53489833Y-45912293D01*
X53299357Y-45864674D01*
X52966024Y-45864674D01*
X52775548Y-45912293D01*
X52680310Y-46007531D01*
X52632690Y-46102769D01*
X53585071Y-46912293D02*
X53632690Y-47055150D01*
X53632690Y-47293245D01*
X53585071Y-47388484D01*
X53537452Y-47436103D01*
X53442214Y-47483722D01*
X53346976Y-47483722D01*
X53251738Y-47436103D01*
X53204119Y-47388484D01*
X53156500Y-47293245D01*
X53108881Y-47102769D01*
X53061262Y-47007531D01*
X53013643Y-46959912D01*
X52918405Y-46912293D01*
X52823167Y-46912293D01*
X52727929Y-46959912D01*
X52680310Y-47007531D01*
X52632690Y-47102769D01*
X52632690Y-47340865D01*
X52680310Y-47483722D01*
X53632690Y-47912293D02*
X52632690Y-47912293D01*
X31166768Y-48027700D02*
X31642958Y-48027700D01*
X31642958Y-47027700D01*
X30452482Y-47980081D02*
X30547720Y-48027700D01*
X30738196Y-48027700D01*
X30833435Y-47980081D01*
X30881054Y-47884843D01*
X30881054Y-47503891D01*
X30833435Y-47408653D01*
X30738196Y-47361034D01*
X30547720Y-47361034D01*
X30452482Y-47408653D01*
X30404863Y-47503891D01*
X30404863Y-47599129D01*
X30881054Y-47694367D01*
X30119149Y-47361034D02*
X29738196Y-47361034D01*
X29976292Y-48027700D02*
X29976292Y-47170558D01*
X29928673Y-47075320D01*
X29833435Y-47027700D01*
X29738196Y-47027700D01*
X29547720Y-47361034D02*
X29166768Y-47361034D01*
X29404863Y-47027700D02*
X29404863Y-47884843D01*
X29357244Y-47980081D01*
X29262006Y-48027700D01*
X29166768Y-48027700D01*
X27595339Y-48027700D02*
X28071530Y-48027700D01*
X28071530Y-47027700D01*
X27262006Y-47503891D02*
X26928673Y-47503891D01*
X26785815Y-48027700D02*
X27262006Y-48027700D01*
X27262006Y-47027700D01*
X26785815Y-47027700D01*
X26357244Y-48027700D02*
X26357244Y-47027700D01*
X26119149Y-47027700D01*
X25976292Y-47075320D01*
X25881054Y-47170558D01*
X25833435Y-47265796D01*
X25785815Y-47456272D01*
X25785815Y-47599129D01*
X25833435Y-47789605D01*
X25881054Y-47884843D01*
X25976292Y-47980081D01*
X26119149Y-48027700D01*
X26357244Y-48027700D01*
X25404863Y-47980081D02*
X25309625Y-48027700D01*
X25119149Y-48027700D01*
X25023911Y-47980081D01*
X24976292Y-47884843D01*
X24976292Y-47837224D01*
X25023911Y-47741986D01*
X25119149Y-47694367D01*
X25262006Y-47694367D01*
X25357244Y-47646748D01*
X25404863Y-47551510D01*
X25404863Y-47503891D01*
X25357244Y-47408653D01*
X25262006Y-47361034D01*
X25119149Y-47361034D01*
X25023911Y-47408653D01*
X32907363Y-49227620D02*
X32716887Y-49227620D01*
X32621649Y-49275240D01*
X32526411Y-49370478D01*
X32478792Y-49560954D01*
X32478792Y-49894287D01*
X32526411Y-50084763D01*
X32621649Y-50180001D01*
X32716887Y-50227620D01*
X32907363Y-50227620D01*
X33002601Y-50180001D01*
X33097839Y-50084763D01*
X33145458Y-49894287D01*
X33145458Y-49560954D01*
X33097839Y-49370478D01*
X33002601Y-49275240D01*
X32907363Y-49227620D01*
X32193077Y-49560954D02*
X31812125Y-49560954D01*
X32050220Y-50227620D02*
X32050220Y-49370478D01*
X32002601Y-49275240D01*
X31907363Y-49227620D01*
X31812125Y-49227620D01*
X31621649Y-49560954D02*
X31240696Y-49560954D01*
X31478792Y-50227620D02*
X31478792Y-49370478D01*
X31431173Y-49275240D01*
X31335935Y-49227620D01*
X31240696Y-49227620D01*
X25854744Y-49127620D02*
X25664268Y-49127620D01*
X25569030Y-49175240D01*
X25473792Y-49270478D01*
X25426173Y-49460954D01*
X25426173Y-49794287D01*
X25473792Y-49984763D01*
X25569030Y-50080001D01*
X25664268Y-50127620D01*
X25854744Y-50127620D01*
X25949982Y-50080001D01*
X26045220Y-49984763D01*
X26092839Y-49794287D01*
X26092839Y-49460954D01*
X26045220Y-49270478D01*
X25949982Y-49175240D01*
X25854744Y-49127620D01*
X24997601Y-49460954D02*
X24997601Y-50127620D01*
X24997601Y-49556192D02*
X24949982Y-49508573D01*
X24854744Y-49460954D01*
X24711887Y-49460954D01*
X24616649Y-49508573D01*
X24569030Y-49603811D01*
X24569030Y-50127620D01*
X44013643Y-18539726D02*
X44346976Y-18539726D01*
X44346976Y-19063535D02*
X44346976Y-18063535D01*
X43870786Y-18063535D01*
X42966024Y-19063535D02*
X43537452Y-19063535D01*
X43251738Y-19063535D02*
X43251738Y-18063535D01*
X43346976Y-18206393D01*
X43442214Y-18301631D01*
X43537452Y-18349250D01*
X43846976Y-25296785D02*
X44180310Y-24820595D01*
X44418405Y-25296785D02*
X44418405Y-24296785D01*
X44037452Y-24296785D01*
X43942214Y-24344405D01*
X43894595Y-24392024D01*
X43846976Y-24487262D01*
X43846976Y-24630119D01*
X43894595Y-24725357D01*
X43942214Y-24772976D01*
X44037452Y-24820595D01*
X44418405Y-24820595D01*
X42894595Y-25296785D02*
X43466024Y-25296785D01*
X43180310Y-25296785D02*
X43180310Y-24296785D01*
X43275548Y-24439643D01*
X43370786Y-24534881D01*
X43466024Y-24582500D01*
X221130756Y-98752726D02*
X220797423Y-98752726D01*
X220654565Y-99276535D02*
X221130756Y-99276535D01*
X221130756Y-98276535D01*
X220654565Y-98276535D01*
X220321232Y-98276535D02*
X219654565Y-99276535D01*
X219654565Y-98276535D02*
X220321232Y-99276535D01*
X219416470Y-98276535D02*
X218845042Y-98276535D01*
X219130756Y-99276535D02*
X219130756Y-98276535D01*
X218749804Y-99371774D02*
X217987899Y-99371774D01*
X217178375Y-99181297D02*
X217225994Y-99228916D01*
X217368851Y-99276535D01*
X217464089Y-99276535D01*
X217606946Y-99228916D01*
X217702185Y-99133678D01*
X217749804Y-99038440D01*
X217797423Y-98847964D01*
X217797423Y-98705107D01*
X217749804Y-98514631D01*
X217702185Y-98419393D01*
X217606946Y-98324155D01*
X217464089Y-98276535D01*
X217368851Y-98276535D01*
X217225994Y-98324155D01*
X217178375Y-98371774D01*
X216273613Y-98276535D02*
X216749804Y-98276535D01*
X216797423Y-98752726D01*
X216749804Y-98705107D01*
X216654565Y-98657488D01*
X216416470Y-98657488D01*
X216321232Y-98705107D01*
X216273613Y-98752726D01*
X216225994Y-98847964D01*
X216225994Y-99086059D01*
X216273613Y-99181297D01*
X216321232Y-99228916D01*
X216416470Y-99276535D01*
X216654565Y-99276535D01*
X216749804Y-99228916D01*
X216797423Y-99181297D01*
X157408506Y-32885101D02*
X157075173Y-32885101D01*
X156932315Y-33408910D02*
X157408506Y-33408910D01*
X157408506Y-32408910D01*
X156932315Y-32408910D01*
X156598982Y-32408910D02*
X155932315Y-33408910D01*
X155932315Y-32408910D02*
X156598982Y-33408910D01*
X155694220Y-32408910D02*
X155122792Y-32408910D01*
X155408506Y-33408910D02*
X155408506Y-32408910D01*
X155027554Y-33504149D02*
X154265649Y-33504149D01*
X153456125Y-33408910D02*
X153789458Y-32932720D01*
X154027554Y-33408910D02*
X154027554Y-32408910D01*
X153646601Y-32408910D01*
X153551363Y-32456530D01*
X153503744Y-32504149D01*
X153456125Y-32599387D01*
X153456125Y-32742244D01*
X153503744Y-32837482D01*
X153551363Y-32885101D01*
X153646601Y-32932720D01*
X154027554Y-32932720D01*
X152551363Y-32408910D02*
X153027554Y-32408910D01*
X153075173Y-32885101D01*
X153027554Y-32837482D01*
X152932315Y-32789863D01*
X152694220Y-32789863D01*
X152598982Y-32837482D01*
X152551363Y-32885101D01*
X152503744Y-32980339D01*
X152503744Y-33218434D01*
X152551363Y-33313672D01*
X152598982Y-33361291D01*
X152694220Y-33408910D01*
X152932315Y-33408910D01*
X153027554Y-33361291D01*
X153075173Y-33313672D01*
X24020315Y-20054119D02*
X23020315Y-20054119D01*
X23020315Y-20292214D01*
X23067935Y-20435071D01*
X23163173Y-20530309D01*
X23258411Y-20577928D01*
X23448887Y-20625547D01*
X23591744Y-20625547D01*
X23782220Y-20577928D01*
X23877458Y-20530309D01*
X23972696Y-20435071D01*
X24020315Y-20292214D01*
X24020315Y-20054119D01*
X24020315Y-21577928D02*
X24020315Y-21006500D01*
X24020315Y-21292214D02*
X23020315Y-21292214D01*
X23163173Y-21196976D01*
X23258411Y-21101738D01*
X23306030Y-21006500D01*
X23020315Y-22196976D02*
X23020315Y-22292214D01*
X23067935Y-22387452D01*
X23115554Y-22435071D01*
X23210792Y-22482690D01*
X23401268Y-22530309D01*
X23639363Y-22530309D01*
X23829839Y-22482690D01*
X23925077Y-22435071D01*
X23972696Y-22387452D01*
X24020315Y-22292214D01*
X24020315Y-22196976D01*
X23972696Y-22101738D01*
X23925077Y-22054119D01*
X23829839Y-22006500D01*
X23639363Y-21958881D01*
X23401268Y-21958881D01*
X23210792Y-22006500D01*
X23115554Y-22054119D01*
X23067935Y-22101738D01*
X23020315Y-22196976D01*
X46598315Y-64214690D02*
X46122125Y-63881357D01*
X46598315Y-63643262D02*
X45598315Y-63643262D01*
X45598315Y-64024214D01*
X45645935Y-64119452D01*
X45693554Y-64167071D01*
X45788792Y-64214690D01*
X45931649Y-64214690D01*
X46026887Y-64167071D01*
X46074506Y-64119452D01*
X46122125Y-64024214D01*
X46122125Y-63643262D01*
X46550696Y-65024214D02*
X46598315Y-64928976D01*
X46598315Y-64738500D01*
X46550696Y-64643262D01*
X46455458Y-64595643D01*
X46074506Y-64595643D01*
X45979268Y-64643262D01*
X45931649Y-64738500D01*
X45931649Y-64928976D01*
X45979268Y-65024214D01*
X46074506Y-65071833D01*
X46169744Y-65071833D01*
X46264982Y-64595643D01*
X46550696Y-65452785D02*
X46598315Y-65548024D01*
X46598315Y-65738500D01*
X46550696Y-65833738D01*
X46455458Y-65881357D01*
X46407839Y-65881357D01*
X46312601Y-65833738D01*
X46264982Y-65738500D01*
X46264982Y-65595643D01*
X46217363Y-65500405D01*
X46122125Y-65452785D01*
X46074506Y-65452785D01*
X45979268Y-65500405D01*
X45931649Y-65595643D01*
X45931649Y-65738500D01*
X45979268Y-65833738D01*
X46550696Y-66690881D02*
X46598315Y-66595643D01*
X46598315Y-66405166D01*
X46550696Y-66309928D01*
X46455458Y-66262309D01*
X46074506Y-66262309D01*
X45979268Y-66309928D01*
X45931649Y-66405166D01*
X45931649Y-66595643D01*
X45979268Y-66690881D01*
X46074506Y-66738500D01*
X46169744Y-66738500D01*
X46264982Y-66262309D01*
X45931649Y-67024214D02*
X45931649Y-67405166D01*
X45598315Y-67167071D02*
X46455458Y-67167071D01*
X46550696Y-67214690D01*
X46598315Y-67309928D01*
X46598315Y-67405166D01*
X46550696Y-67690881D02*
X46598315Y-67833738D01*
X46598315Y-68071833D01*
X46550696Y-68167071D01*
X46503077Y-68214690D01*
X46407839Y-68262309D01*
X46312601Y-68262309D01*
X46217363Y-68214690D01*
X46169744Y-68167071D01*
X46122125Y-68071833D01*
X46074506Y-67881357D01*
X46026887Y-67786119D01*
X45979268Y-67738500D01*
X45884030Y-67690881D01*
X45788792Y-67690881D01*
X45693554Y-67738500D01*
X45645935Y-67786119D01*
X45598315Y-67881357D01*
X45598315Y-68119452D01*
X45645935Y-68262309D01*
X45598315Y-68595643D02*
X46598315Y-68833738D01*
X45884030Y-69024214D01*
X46598315Y-69214690D01*
X45598315Y-69452785D01*
X44324455Y-37453364D02*
X43752035Y-37554379D01*
X43920394Y-37049303D02*
X43213287Y-37756409D01*
X43482661Y-38025784D01*
X43583676Y-38059455D01*
X43651020Y-38059455D01*
X43752035Y-38025784D01*
X43853050Y-37924768D01*
X43886722Y-37823753D01*
X43886722Y-37756409D01*
X43853050Y-37655394D01*
X43583676Y-37386020D01*
X44257112Y-38800234D02*
X43920394Y-38463516D01*
X44223440Y-38093127D01*
X44223440Y-38160471D01*
X44257112Y-38261486D01*
X44425470Y-38429845D01*
X44526486Y-38463516D01*
X44593829Y-38463516D01*
X44694844Y-38429845D01*
X44863203Y-38261486D01*
X44896875Y-38160471D01*
X44896875Y-38093127D01*
X44863203Y-37992112D01*
X44694844Y-37823753D01*
X44593829Y-37790081D01*
X44526486Y-37790081D01*
X67938393Y-38182911D02*
X67837378Y-37610491D01*
X68342454Y-37778850D02*
X67635348Y-37071743D01*
X67365973Y-37341117D01*
X67332302Y-37442132D01*
X67332302Y-37509476D01*
X67365973Y-37610491D01*
X67466989Y-37711506D01*
X67568004Y-37745178D01*
X67635348Y-37745178D01*
X67736363Y-37711506D01*
X68005737Y-37442132D01*
X66625195Y-38081896D02*
X66759882Y-37947209D01*
X66860897Y-37913537D01*
X66928241Y-37913537D01*
X67096599Y-37947209D01*
X67264958Y-38048224D01*
X67534332Y-38317598D01*
X67568004Y-38418613D01*
X67568004Y-38485957D01*
X67534332Y-38586972D01*
X67399645Y-38721659D01*
X67298630Y-38755331D01*
X67231286Y-38755331D01*
X67130271Y-38721659D01*
X66961912Y-38553300D01*
X66928241Y-38452285D01*
X66928241Y-38384942D01*
X66961912Y-38283926D01*
X67096599Y-38149239D01*
X67197615Y-38115568D01*
X67264958Y-38115568D01*
X67365973Y-38149239D01*
X53829436Y-22412951D02*
X53829436Y-22345608D01*
X53762092Y-22210921D01*
X53694749Y-22143577D01*
X53560061Y-22076234D01*
X53425374Y-22076234D01*
X53324359Y-22109905D01*
X53156000Y-22210921D01*
X53054985Y-22311936D01*
X52953970Y-22480295D01*
X52920298Y-22581310D01*
X52920298Y-22715997D01*
X52987642Y-22850684D01*
X53054985Y-22918028D01*
X53189672Y-22985371D01*
X53257016Y-22985371D01*
X53526390Y-23254745D02*
X53526390Y-23322089D01*
X53560061Y-23423104D01*
X53728420Y-23591463D01*
X53829436Y-23625134D01*
X53896779Y-23625134D01*
X53997794Y-23591463D01*
X54065138Y-23524119D01*
X54132481Y-23389432D01*
X54132481Y-22581310D01*
X54570214Y-23019043D01*
X284233881Y-98752726D02*
X283900548Y-98752726D01*
X283757690Y-99276535D02*
X284233881Y-99276535D01*
X284233881Y-98276535D01*
X283757690Y-98276535D01*
X283424357Y-98276535D02*
X282757690Y-99276535D01*
X282757690Y-98276535D02*
X283424357Y-99276535D01*
X282519595Y-98276535D02*
X281948167Y-98276535D01*
X282233881Y-99276535D02*
X282233881Y-98276535D01*
X281852929Y-99371774D02*
X281091024Y-99371774D01*
X280281500Y-99181297D02*
X280329119Y-99228916D01*
X280471976Y-99276535D01*
X280567214Y-99276535D01*
X280710071Y-99228916D01*
X280805310Y-99133678D01*
X280852929Y-99038440D01*
X280900548Y-98847964D01*
X280900548Y-98705107D01*
X280852929Y-98514631D01*
X280805310Y-98419393D01*
X280710071Y-98324155D01*
X280567214Y-98276535D01*
X280471976Y-98276535D01*
X280329119Y-98324155D01*
X280281500Y-98371774D01*
X279948167Y-98276535D02*
X279281500Y-98276535D01*
X279710071Y-99276535D01*
X78922506Y-101941351D02*
X78589173Y-101941351D01*
X78446315Y-102465160D02*
X78922506Y-102465160D01*
X78922506Y-101465160D01*
X78446315Y-101465160D01*
X78112982Y-101465160D02*
X77446315Y-102465160D01*
X77446315Y-101465160D02*
X78112982Y-102465160D01*
X77208220Y-101465160D02*
X76636792Y-101465160D01*
X76922506Y-102465160D02*
X76922506Y-101465160D01*
X76541554Y-102560399D02*
X75779649Y-102560399D01*
X74970125Y-102465160D02*
X75303458Y-101988970D01*
X75541554Y-102465160D02*
X75541554Y-101465160D01*
X75160601Y-101465160D01*
X75065363Y-101512780D01*
X75017744Y-101560399D01*
X74970125Y-101655637D01*
X74970125Y-101798494D01*
X75017744Y-101893732D01*
X75065363Y-101941351D01*
X75160601Y-101988970D01*
X75541554Y-101988970D01*
X74493935Y-102465160D02*
X74303458Y-102465160D01*
X74208220Y-102417541D01*
X74160601Y-102369922D01*
X74065363Y-102227065D01*
X74017744Y-102036589D01*
X74017744Y-101655637D01*
X74065363Y-101560399D01*
X74112982Y-101512780D01*
X74208220Y-101465160D01*
X74398696Y-101465160D01*
X74493935Y-101512780D01*
X74541554Y-101560399D01*
X74589173Y-101655637D01*
X74589173Y-101893732D01*
X74541554Y-101988970D01*
X74493935Y-102036589D01*
X74398696Y-102084208D01*
X74208220Y-102084208D01*
X74112982Y-102036589D01*
X74065363Y-101988970D01*
X74017744Y-101893732D01*
X78922506Y-98369476D02*
X78589173Y-98369476D01*
X78446315Y-98893285D02*
X78922506Y-98893285D01*
X78922506Y-97893285D01*
X78446315Y-97893285D01*
X78112982Y-97893285D02*
X77446315Y-98893285D01*
X77446315Y-97893285D02*
X78112982Y-98893285D01*
X77208220Y-97893285D02*
X76636792Y-97893285D01*
X76922506Y-98893285D02*
X76922506Y-97893285D01*
X76541554Y-98988524D02*
X75779649Y-98988524D01*
X74970125Y-98893285D02*
X75303458Y-98417095D01*
X75541554Y-98893285D02*
X75541554Y-97893285D01*
X75160601Y-97893285D01*
X75065363Y-97940905D01*
X75017744Y-97988524D01*
X74970125Y-98083762D01*
X74970125Y-98226619D01*
X75017744Y-98321857D01*
X75065363Y-98369476D01*
X75160601Y-98417095D01*
X75541554Y-98417095D01*
X74112982Y-98226619D02*
X74112982Y-98893285D01*
X74351077Y-97845666D02*
X74589173Y-98559952D01*
X73970125Y-98559952D01*
X147756506Y-32885101D02*
X147423173Y-32885101D01*
X147280315Y-33408910D02*
X147756506Y-33408910D01*
X147756506Y-32408910D01*
X147280315Y-32408910D01*
X146946982Y-32408910D02*
X146280315Y-33408910D01*
X146280315Y-32408910D02*
X146946982Y-33408910D01*
X146042220Y-32408910D02*
X145470792Y-32408910D01*
X145756506Y-33408910D02*
X145756506Y-32408910D01*
X145375554Y-33504149D02*
X144613649Y-33504149D01*
X143804125Y-33408910D02*
X144137458Y-32932720D01*
X144375554Y-33408910D02*
X144375554Y-32408910D01*
X143994601Y-32408910D01*
X143899363Y-32456530D01*
X143851744Y-32504149D01*
X143804125Y-32599387D01*
X143804125Y-32742244D01*
X143851744Y-32837482D01*
X143899363Y-32885101D01*
X143994601Y-32932720D01*
X144375554Y-32932720D01*
X142946982Y-32408910D02*
X143137458Y-32408910D01*
X143232696Y-32456530D01*
X143280315Y-32504149D01*
X143375554Y-32647006D01*
X143423173Y-32837482D01*
X143423173Y-33218434D01*
X143375554Y-33313672D01*
X143327935Y-33361291D01*
X143232696Y-33408910D01*
X143042220Y-33408910D01*
X142946982Y-33361291D01*
X142899363Y-33313672D01*
X142851744Y-33218434D01*
X142851744Y-32980339D01*
X142899363Y-32885101D01*
X142946982Y-32837482D01*
X143042220Y-32789863D01*
X143232696Y-32789863D01*
X143327935Y-32837482D01*
X143375554Y-32885101D01*
X143423173Y-32980339D01*
X147756506Y-29456976D02*
X147423173Y-29456976D01*
X147280315Y-29980785D02*
X147756506Y-29980785D01*
X147756506Y-28980785D01*
X147280315Y-28980785D01*
X146946982Y-28980785D02*
X146280315Y-29980785D01*
X146280315Y-28980785D02*
X146946982Y-29980785D01*
X146042220Y-28980785D02*
X145470792Y-28980785D01*
X145756506Y-29980785D02*
X145756506Y-28980785D01*
X145375554Y-30076024D02*
X144613649Y-30076024D01*
X143804125Y-29980785D02*
X144137458Y-29504595D01*
X144375554Y-29980785D02*
X144375554Y-28980785D01*
X143994601Y-28980785D01*
X143899363Y-29028405D01*
X143851744Y-29076024D01*
X143804125Y-29171262D01*
X143804125Y-29314119D01*
X143851744Y-29409357D01*
X143899363Y-29456976D01*
X143994601Y-29504595D01*
X144375554Y-29504595D01*
X142851744Y-29980785D02*
X143423173Y-29980785D01*
X143137458Y-29980785D02*
X143137458Y-28980785D01*
X143232696Y-29123643D01*
X143327935Y-29218881D01*
X143423173Y-29266500D01*
X54030506Y-73366351D02*
X53697173Y-73366351D01*
X53554315Y-73890160D02*
X54030506Y-73890160D01*
X54030506Y-72890160D01*
X53554315Y-72890160D01*
X53220982Y-72890160D02*
X52554315Y-73890160D01*
X52554315Y-72890160D02*
X53220982Y-73890160D01*
X52316220Y-72890160D02*
X51744792Y-72890160D01*
X52030506Y-73890160D02*
X52030506Y-72890160D01*
X51649554Y-73985399D02*
X50887649Y-73985399D01*
X50078125Y-73890160D02*
X50411458Y-73413970D01*
X50649554Y-73890160D02*
X50649554Y-72890160D01*
X50268601Y-72890160D01*
X50173363Y-72937780D01*
X50125744Y-72985399D01*
X50078125Y-73080637D01*
X50078125Y-73223494D01*
X50125744Y-73318732D01*
X50173363Y-73366351D01*
X50268601Y-73413970D01*
X50649554Y-73413970D01*
X49744792Y-72890160D02*
X49078125Y-72890160D01*
X49506696Y-73890160D01*
X93357839Y-27005785D02*
X93357839Y-27815309D01*
X93310220Y-27910547D01*
X93262601Y-27958166D01*
X93167363Y-28005785D01*
X92976887Y-28005785D01*
X92881649Y-27958166D01*
X92834030Y-27910547D01*
X92786411Y-27815309D01*
X92786411Y-27005785D01*
X92357839Y-27101024D02*
X92310220Y-27053405D01*
X92214982Y-27005785D01*
X91976887Y-27005785D01*
X91881649Y-27053405D01*
X91834030Y-27101024D01*
X91786411Y-27196262D01*
X91786411Y-27291500D01*
X91834030Y-27434357D01*
X92405458Y-28005785D01*
X91786411Y-28005785D01*
X78946601Y-29105785D02*
X79279935Y-28629595D01*
X79518030Y-29105785D02*
X79518030Y-28105785D01*
X79137077Y-28105785D01*
X79041839Y-28153405D01*
X78994220Y-28201024D01*
X78946601Y-28296262D01*
X78946601Y-28439119D01*
X78994220Y-28534357D01*
X79041839Y-28581976D01*
X79137077Y-28629595D01*
X79518030Y-28629595D01*
X78375173Y-28534357D02*
X78470411Y-28486738D01*
X78518030Y-28439119D01*
X78565649Y-28343881D01*
X78565649Y-28296262D01*
X78518030Y-28201024D01*
X78470411Y-28153405D01*
X78375173Y-28105785D01*
X78184696Y-28105785D01*
X78089458Y-28153405D01*
X78041839Y-28201024D01*
X77994220Y-28296262D01*
X77994220Y-28343881D01*
X78041839Y-28439119D01*
X78089458Y-28486738D01*
X78184696Y-28534357D01*
X78375173Y-28534357D01*
X78470411Y-28581976D01*
X78518030Y-28629595D01*
X78565649Y-28724833D01*
X78565649Y-28915309D01*
X78518030Y-29010547D01*
X78470411Y-29058166D01*
X78375173Y-29105785D01*
X78184696Y-29105785D01*
X78089458Y-29058166D01*
X78041839Y-29010547D01*
X77994220Y-28915309D01*
X77994220Y-28724833D01*
X78041839Y-28629595D01*
X78089458Y-28581976D01*
X78184696Y-28534357D01*
X78946601Y-23391785D02*
X79279935Y-22915595D01*
X79518030Y-23391785D02*
X79518030Y-22391785D01*
X79137077Y-22391785D01*
X79041839Y-22439405D01*
X78994220Y-22487024D01*
X78946601Y-22582262D01*
X78946601Y-22725119D01*
X78994220Y-22820357D01*
X79041839Y-22867976D01*
X79137077Y-22915595D01*
X79518030Y-22915595D01*
X78470411Y-23391785D02*
X78279935Y-23391785D01*
X78184696Y-23344166D01*
X78137077Y-23296547D01*
X78041839Y-23153690D01*
X77994220Y-22963214D01*
X77994220Y-22582262D01*
X78041839Y-22487024D01*
X78089458Y-22439405D01*
X78184696Y-22391785D01*
X78375173Y-22391785D01*
X78470411Y-22439405D01*
X78518030Y-22487024D01*
X78565649Y-22582262D01*
X78565649Y-22820357D01*
X78518030Y-22915595D01*
X78470411Y-22963214D01*
X78375173Y-23010833D01*
X78184696Y-23010833D01*
X78089458Y-22963214D01*
X78041839Y-22915595D01*
X77994220Y-22820357D01*
X35154268Y-24331265D02*
X35154268Y-25045551D01*
X35201887Y-25188408D01*
X35297125Y-25283646D01*
X35439982Y-25331265D01*
X35535220Y-25331265D01*
X34154268Y-25331265D02*
X34725696Y-25331265D01*
X34439982Y-25331265D02*
X34439982Y-24331265D01*
X34535220Y-24474123D01*
X34630458Y-24569361D01*
X34725696Y-24616980D01*
X48770683Y-42425954D02*
X48770683Y-42358611D01*
X48703339Y-42223924D01*
X48635996Y-42156580D01*
X48501308Y-42089237D01*
X48366621Y-42089237D01*
X48265606Y-42122908D01*
X48097247Y-42223924D01*
X47996232Y-42324939D01*
X47895217Y-42493298D01*
X47861545Y-42594313D01*
X47861545Y-42729000D01*
X47928889Y-42863687D01*
X47996232Y-42931031D01*
X48130919Y-42998374D01*
X48198263Y-42998374D01*
X48737011Y-43671809D02*
X48602324Y-43537122D01*
X48568652Y-43436107D01*
X48568652Y-43368763D01*
X48602324Y-43200405D01*
X48703339Y-43032046D01*
X48972713Y-42762672D01*
X49073728Y-42729000D01*
X49141072Y-42729000D01*
X49242087Y-42762672D01*
X49376774Y-42897359D01*
X49410446Y-42998374D01*
X49410446Y-43065718D01*
X49376774Y-43166733D01*
X49208415Y-43335092D01*
X49107400Y-43368763D01*
X49040057Y-43368763D01*
X48939041Y-43335092D01*
X48804354Y-43200405D01*
X48770683Y-43099389D01*
X48770683Y-43032046D01*
X48804354Y-42931031D01*
X37290601Y-27456785D02*
X37623935Y-26980595D01*
X37862030Y-27456785D02*
X37862030Y-26456785D01*
X37481077Y-26456785D01*
X37385839Y-26504405D01*
X37338220Y-26552024D01*
X37290601Y-26647262D01*
X37290601Y-26790119D01*
X37338220Y-26885357D01*
X37385839Y-26932976D01*
X37481077Y-26980595D01*
X37862030Y-26980595D01*
X36433458Y-26790119D02*
X36433458Y-27456785D01*
X36671554Y-26409166D02*
X36909649Y-27123452D01*
X36290601Y-27123452D01*
X131833881Y-98752726D02*
X131500548Y-98752726D01*
X131357690Y-99276535D02*
X131833881Y-99276535D01*
X131833881Y-98276535D01*
X131357690Y-98276535D01*
X131024357Y-98276535D02*
X130357690Y-99276535D01*
X130357690Y-98276535D02*
X131024357Y-99276535D01*
X130119595Y-98276535D02*
X129548167Y-98276535D01*
X129833881Y-99276535D02*
X129833881Y-98276535D01*
X129452929Y-99371774D02*
X128691024Y-99371774D01*
X127881500Y-99181297D02*
X127929119Y-99228916D01*
X128071976Y-99276535D01*
X128167214Y-99276535D01*
X128310071Y-99228916D01*
X128405310Y-99133678D01*
X128452929Y-99038440D01*
X128500548Y-98847964D01*
X128500548Y-98705107D01*
X128452929Y-98514631D01*
X128405310Y-98419393D01*
X128310071Y-98324155D01*
X128167214Y-98276535D01*
X128071976Y-98276535D01*
X127929119Y-98324155D01*
X127881500Y-98371774D01*
X127548167Y-98276535D02*
X126929119Y-98276535D01*
X127262452Y-98657488D01*
X127119595Y-98657488D01*
X127024357Y-98705107D01*
X126976738Y-98752726D01*
X126929119Y-98847964D01*
X126929119Y-99086059D01*
X126976738Y-99181297D01*
X127024357Y-99228916D01*
X127119595Y-99276535D01*
X127405310Y-99276535D01*
X127500548Y-99228916D01*
X127548167Y-99181297D01*
X157408506Y-29313226D02*
X157075173Y-29313226D01*
X156932315Y-29837035D02*
X157408506Y-29837035D01*
X157408506Y-28837035D01*
X156932315Y-28837035D01*
X156598982Y-28837035D02*
X155932315Y-29837035D01*
X155932315Y-28837035D02*
X156598982Y-29837035D01*
X155694220Y-28837035D02*
X155122792Y-28837035D01*
X155408506Y-29837035D02*
X155408506Y-28837035D01*
X155027554Y-29932274D02*
X154265649Y-29932274D01*
X153456125Y-29837035D02*
X153789458Y-29360845D01*
X154027554Y-29837035D02*
X154027554Y-28837035D01*
X153646601Y-28837035D01*
X153551363Y-28884655D01*
X153503744Y-28932274D01*
X153456125Y-29027512D01*
X153456125Y-29170369D01*
X153503744Y-29265607D01*
X153551363Y-29313226D01*
X153646601Y-29360845D01*
X154027554Y-29360845D01*
X152837077Y-28837035D02*
X152741839Y-28837035D01*
X152646601Y-28884655D01*
X152598982Y-28932274D01*
X152551363Y-29027512D01*
X152503744Y-29217988D01*
X152503744Y-29456083D01*
X152551363Y-29646559D01*
X152598982Y-29741797D01*
X152646601Y-29789416D01*
X152741839Y-29837035D01*
X152837077Y-29837035D01*
X152932315Y-29789416D01*
X152979935Y-29741797D01*
X153027554Y-29646559D01*
X153075173Y-29456083D01*
X153075173Y-29217988D01*
X153027554Y-29027512D01*
X152979935Y-28932274D01*
X152932315Y-28884655D01*
X152837077Y-28837035D01*
X287370339Y-54897155D02*
X287465577Y-54849535D01*
X287608435Y-54849535D01*
X287751292Y-54897155D01*
X287846530Y-54992393D01*
X287894149Y-55087631D01*
X287941768Y-55278107D01*
X287941768Y-55420964D01*
X287894149Y-55611440D01*
X287846530Y-55706678D01*
X287751292Y-55801916D01*
X287608435Y-55849535D01*
X287513196Y-55849535D01*
X287370339Y-55801916D01*
X287322720Y-55754297D01*
X287322720Y-55420964D01*
X287513196Y-55420964D01*
X286894149Y-55849535D02*
X286894149Y-54849535D01*
X286322720Y-55849535D01*
X286322720Y-54849535D01*
X285846530Y-55849535D02*
X285846530Y-54849535D01*
X285608435Y-54849535D01*
X285465577Y-54897155D01*
X285370339Y-54992393D01*
X285322720Y-55087631D01*
X285275101Y-55278107D01*
X285275101Y-55420964D01*
X285322720Y-55611440D01*
X285370339Y-55706678D01*
X285465577Y-55801916D01*
X285608435Y-55849535D01*
X285846530Y-55849535D01*
X290651292Y-55849535D02*
X291127482Y-55849535D01*
X291127482Y-54849535D01*
X290317958Y-55325726D02*
X289984625Y-55325726D01*
X289841768Y-55849535D02*
X290317958Y-55849535D01*
X290317958Y-54849535D01*
X289841768Y-54849535D01*
X289413196Y-55849535D02*
X289413196Y-54849535D01*
X289175101Y-54849535D01*
X289032244Y-54897155D01*
X288937006Y-54992393D01*
X288889387Y-55087631D01*
X288841768Y-55278107D01*
X288841768Y-55420964D01*
X288889387Y-55611440D01*
X288937006Y-55706678D01*
X289032244Y-55801916D01*
X289175101Y-55849535D01*
X289413196Y-55849535D01*
X294494149Y-55468583D02*
X293732244Y-55468583D01*
X294113196Y-55849535D02*
X294113196Y-55087631D01*
X292779863Y-54849535D02*
X293256054Y-54849535D01*
X293303673Y-55325726D01*
X293256054Y-55278107D01*
X293160815Y-55230488D01*
X292922720Y-55230488D01*
X292827482Y-55278107D01*
X292779863Y-55325726D01*
X292732244Y-55420964D01*
X292732244Y-55659059D01*
X292779863Y-55754297D01*
X292827482Y-55801916D01*
X292922720Y-55849535D01*
X293160815Y-55849535D01*
X293256054Y-55801916D01*
X293303673Y-55754297D01*
X292446530Y-54849535D02*
X292113196Y-55849535D01*
X291779863Y-54849535D01*
X78922506Y-105513226D02*
X78589173Y-105513226D01*
X78446315Y-106037035D02*
X78922506Y-106037035D01*
X78922506Y-105037035D01*
X78446315Y-105037035D01*
X78112982Y-105037035D02*
X77446315Y-106037035D01*
X77446315Y-105037035D02*
X78112982Y-106037035D01*
X77208220Y-105037035D02*
X76636792Y-105037035D01*
X76922506Y-106037035D02*
X76922506Y-105037035D01*
X76541554Y-106132274D02*
X75779649Y-106132274D01*
X74970125Y-105941797D02*
X75017744Y-105989416D01*
X75160601Y-106037035D01*
X75255839Y-106037035D01*
X75398696Y-105989416D01*
X75493935Y-105894178D01*
X75541554Y-105798940D01*
X75589173Y-105608464D01*
X75589173Y-105465607D01*
X75541554Y-105275131D01*
X75493935Y-105179893D01*
X75398696Y-105084655D01*
X75255839Y-105037035D01*
X75160601Y-105037035D01*
X75017744Y-105084655D01*
X74970125Y-105132274D01*
X74017744Y-106037035D02*
X74589173Y-106037035D01*
X74303458Y-106037035D02*
X74303458Y-105037035D01*
X74398696Y-105179893D01*
X74493935Y-105275131D01*
X74589173Y-105322750D01*
X59096839Y-36579938D02*
X59669259Y-37152358D01*
X59702931Y-37253373D01*
X59702931Y-37320717D01*
X59669259Y-37421732D01*
X59534572Y-37556419D01*
X59433557Y-37590091D01*
X59366213Y-37590091D01*
X59265198Y-37556419D01*
X58692778Y-36983999D01*
X58692778Y-38398213D02*
X59096839Y-37994152D01*
X58894809Y-38196182D02*
X58187702Y-37489076D01*
X58356061Y-37522747D01*
X58490748Y-37522747D01*
X58591763Y-37489076D01*
X79470190Y-67460994D02*
X78470190Y-67460994D01*
X78470190Y-67699089D01*
X78517810Y-67841946D01*
X78613048Y-67937184D01*
X78708286Y-67984803D01*
X78898762Y-68032422D01*
X79041619Y-68032422D01*
X79232095Y-67984803D01*
X79327333Y-67937184D01*
X79422571Y-67841946D01*
X79470190Y-67699089D01*
X79470190Y-67460994D01*
X78470190Y-68365756D02*
X78470190Y-68984803D01*
X78851143Y-68651470D01*
X78851143Y-68794327D01*
X78898762Y-68889565D01*
X78946381Y-68937184D01*
X79041619Y-68984803D01*
X79279714Y-68984803D01*
X79374952Y-68937184D01*
X79422571Y-68889565D01*
X79470190Y-68794327D01*
X79470190Y-68508613D01*
X79422571Y-68413375D01*
X79374952Y-68365756D01*
X78898762Y-69556232D02*
X78851143Y-69460994D01*
X78803524Y-69413375D01*
X78708286Y-69365756D01*
X78660667Y-69365756D01*
X78565429Y-69413375D01*
X78517810Y-69460994D01*
X78470190Y-69556232D01*
X78470190Y-69746708D01*
X78517810Y-69841946D01*
X78565429Y-69889565D01*
X78660667Y-69937184D01*
X78708286Y-69937184D01*
X78803524Y-69889565D01*
X78851143Y-69841946D01*
X78898762Y-69746708D01*
X78898762Y-69556232D01*
X78946381Y-69460994D01*
X78994000Y-69413375D01*
X79089238Y-69365756D01*
X79279714Y-69365756D01*
X79374952Y-69413375D01*
X79422571Y-69460994D01*
X79470190Y-69556232D01*
X79470190Y-69746708D01*
X79422571Y-69841946D01*
X79374952Y-69889565D01*
X79279714Y-69937184D01*
X79089238Y-69937184D01*
X78994000Y-69889565D01*
X78946381Y-69841946D01*
X78898762Y-69746708D01*
X298545190Y-105560994D02*
X297545190Y-105560994D01*
X297545190Y-105799089D01*
X297592810Y-105941946D01*
X297688048Y-106037184D01*
X297783286Y-106084803D01*
X297973762Y-106132422D01*
X298116619Y-106132422D01*
X298307095Y-106084803D01*
X298402333Y-106037184D01*
X298497571Y-105941946D01*
X298545190Y-105799089D01*
X298545190Y-105560994D01*
X297545190Y-107037184D02*
X297545190Y-106560994D01*
X298021381Y-106513375D01*
X297973762Y-106560994D01*
X297926143Y-106656232D01*
X297926143Y-106894327D01*
X297973762Y-106989565D01*
X298021381Y-107037184D01*
X298116619Y-107084803D01*
X298354714Y-107084803D01*
X298449952Y-107037184D01*
X298497571Y-106989565D01*
X298545190Y-106894327D01*
X298545190Y-106656232D01*
X298497571Y-106560994D01*
X298449952Y-106513375D01*
X298545190Y-108037184D02*
X298545190Y-107465756D01*
X298545190Y-107751470D02*
X297545190Y-107751470D01*
X297688048Y-107656232D01*
X297783286Y-107560994D01*
X297830905Y-107465756D01*
X98520190Y-68510994D02*
X97520190Y-68510994D01*
X97520190Y-68749089D01*
X97567810Y-68891946D01*
X97663048Y-68987184D01*
X97758286Y-69034803D01*
X97948762Y-69082422D01*
X98091619Y-69082422D01*
X98282095Y-69034803D01*
X98377333Y-68987184D01*
X98472571Y-68891946D01*
X98520190Y-68749089D01*
X98520190Y-68510994D01*
X97520190Y-69415756D02*
X97520190Y-70034803D01*
X97901143Y-69701470D01*
X97901143Y-69844327D01*
X97948762Y-69939565D01*
X97996381Y-69987184D01*
X98091619Y-70034803D01*
X98329714Y-70034803D01*
X98424952Y-69987184D01*
X98472571Y-69939565D01*
X98520190Y-69844327D01*
X98520190Y-69558613D01*
X98472571Y-69463375D01*
X98424952Y-69415756D01*
X97520190Y-70368137D02*
X97520190Y-71034803D01*
X98520190Y-70606232D01*
X96138940Y-106610994D02*
X95138940Y-106610994D01*
X95138940Y-106849089D01*
X95186560Y-106991946D01*
X95281798Y-107087184D01*
X95377036Y-107134803D01*
X95567512Y-107182422D01*
X95710369Y-107182422D01*
X95900845Y-107134803D01*
X95996083Y-107087184D01*
X96091321Y-106991946D01*
X96138940Y-106849089D01*
X96138940Y-106610994D01*
X95138940Y-108087184D02*
X95138940Y-107610994D01*
X95615131Y-107563375D01*
X95567512Y-107610994D01*
X95519893Y-107706232D01*
X95519893Y-107944327D01*
X95567512Y-108039565D01*
X95615131Y-108087184D01*
X95710369Y-108134803D01*
X95948464Y-108134803D01*
X96043702Y-108087184D01*
X96091321Y-108039565D01*
X96138940Y-107944327D01*
X96138940Y-107706232D01*
X96091321Y-107610994D01*
X96043702Y-107563375D01*
X95138940Y-108468137D02*
X95138940Y-109134803D01*
X96138940Y-108706232D01*
X134238940Y-104370369D02*
X133238940Y-104370369D01*
X133238940Y-104608464D01*
X133286560Y-104751321D01*
X133381798Y-104846559D01*
X133477036Y-104894178D01*
X133667512Y-104941797D01*
X133810369Y-104941797D01*
X134000845Y-104894178D01*
X134096083Y-104846559D01*
X134191321Y-104751321D01*
X134238940Y-104608464D01*
X134238940Y-104370369D01*
X133334179Y-105322750D02*
X133286560Y-105370369D01*
X133238940Y-105465607D01*
X133238940Y-105703702D01*
X133286560Y-105798940D01*
X133334179Y-105846559D01*
X133429417Y-105894178D01*
X133524655Y-105894178D01*
X133667512Y-105846559D01*
X134238940Y-105275131D01*
X134238940Y-105894178D01*
X133334179Y-106275131D02*
X133286560Y-106322750D01*
X133238940Y-106417988D01*
X133238940Y-106656083D01*
X133286560Y-106751321D01*
X133334179Y-106798940D01*
X133429417Y-106846559D01*
X133524655Y-106846559D01*
X133667512Y-106798940D01*
X134238940Y-106227512D01*
X134238940Y-106846559D01*
X88995190Y-87560994D02*
X87995190Y-87560994D01*
X87995190Y-87799089D01*
X88042810Y-87941946D01*
X88138048Y-88037184D01*
X88233286Y-88084803D01*
X88423762Y-88132422D01*
X88566619Y-88132422D01*
X88757095Y-88084803D01*
X88852333Y-88037184D01*
X88947571Y-87941946D01*
X88995190Y-87799089D01*
X88995190Y-87560994D01*
X88328524Y-88989565D02*
X88995190Y-88989565D01*
X87947571Y-88751470D02*
X88661857Y-88513375D01*
X88661857Y-89132422D01*
X87995190Y-89418137D02*
X87995190Y-90084803D01*
X88995190Y-89656232D01*
X203295190Y-87560994D02*
X202295190Y-87560994D01*
X202295190Y-87799089D01*
X202342810Y-87941946D01*
X202438048Y-88037184D01*
X202533286Y-88084803D01*
X202723762Y-88132422D01*
X202866619Y-88132422D01*
X203057095Y-88084803D01*
X203152333Y-88037184D01*
X203247571Y-87941946D01*
X203295190Y-87799089D01*
X203295190Y-87560994D01*
X202628524Y-88989565D02*
X203295190Y-88989565D01*
X202247571Y-88751470D02*
X202961857Y-88513375D01*
X202961857Y-89132422D01*
X202295190Y-89989565D02*
X202295190Y-89513375D01*
X202771381Y-89465756D01*
X202723762Y-89513375D01*
X202676143Y-89608613D01*
X202676143Y-89846708D01*
X202723762Y-89941946D01*
X202771381Y-89989565D01*
X202866619Y-90037184D01*
X203104714Y-90037184D01*
X203199952Y-89989565D01*
X203247571Y-89941946D01*
X203295190Y-89846708D01*
X203295190Y-89608613D01*
X203247571Y-89513375D01*
X203199952Y-89465756D01*
X127095190Y-106660994D02*
X126095190Y-106660994D01*
X126095190Y-106899089D01*
X126142810Y-107041946D01*
X126238048Y-107137184D01*
X126333286Y-107184803D01*
X126523762Y-107232422D01*
X126666619Y-107232422D01*
X126857095Y-107184803D01*
X126952333Y-107137184D01*
X127047571Y-107041946D01*
X127095190Y-106899089D01*
X127095190Y-106660994D01*
X126095190Y-108137184D02*
X126095190Y-107660994D01*
X126571381Y-107613375D01*
X126523762Y-107660994D01*
X126476143Y-107756232D01*
X126476143Y-107994327D01*
X126523762Y-108089565D01*
X126571381Y-108137184D01*
X126666619Y-108184803D01*
X126904714Y-108184803D01*
X126999952Y-108137184D01*
X127047571Y-108089565D01*
X127095190Y-107994327D01*
X127095190Y-107756232D01*
X127047571Y-107660994D01*
X126999952Y-107613375D01*
X126095190Y-109041946D02*
X126095190Y-108851470D01*
X126142810Y-108756232D01*
X126190429Y-108708613D01*
X126333286Y-108613375D01*
X126523762Y-108565756D01*
X126904714Y-108565756D01*
X126999952Y-108613375D01*
X127047571Y-108660994D01*
X127095190Y-108756232D01*
X127095190Y-108946708D01*
X127047571Y-109041946D01*
X126999952Y-109089565D01*
X126904714Y-109137184D01*
X126666619Y-109137184D01*
X126571381Y-109089565D01*
X126523762Y-109041946D01*
X126476143Y-108946708D01*
X126476143Y-108756232D01*
X126523762Y-108660994D01*
X126571381Y-108613375D01*
X126666619Y-108565756D01*
X260445190Y-86510994D02*
X259445190Y-86510994D01*
X259445190Y-86749089D01*
X259492810Y-86891946D01*
X259588048Y-86987184D01*
X259683286Y-87034803D01*
X259873762Y-87082422D01*
X260016619Y-87082422D01*
X260207095Y-87034803D01*
X260302333Y-86987184D01*
X260397571Y-86891946D01*
X260445190Y-86749089D01*
X260445190Y-86510994D01*
X260445190Y-87558613D02*
X260445190Y-87749089D01*
X260397571Y-87844327D01*
X260349952Y-87891946D01*
X260207095Y-87987184D01*
X260016619Y-88034803D01*
X259635667Y-88034803D01*
X259540429Y-87987184D01*
X259492810Y-87939565D01*
X259445190Y-87844327D01*
X259445190Y-87653851D01*
X259492810Y-87558613D01*
X259540429Y-87510994D01*
X259635667Y-87463375D01*
X259873762Y-87463375D01*
X259969000Y-87510994D01*
X260016619Y-87558613D01*
X260064238Y-87653851D01*
X260064238Y-87844327D01*
X260016619Y-87939565D01*
X259969000Y-87987184D01*
X259873762Y-88034803D01*
X259445190Y-88368137D02*
X259445190Y-88987184D01*
X259826143Y-88653851D01*
X259826143Y-88796708D01*
X259873762Y-88891946D01*
X259921381Y-88939565D01*
X260016619Y-88987184D01*
X260254714Y-88987184D01*
X260349952Y-88939565D01*
X260397571Y-88891946D01*
X260445190Y-88796708D01*
X260445190Y-88510994D01*
X260397571Y-88415756D01*
X260349952Y-88368137D01*
X31845190Y-105560994D02*
X30845190Y-105560994D01*
X30845190Y-105799089D01*
X30892810Y-105941946D01*
X30988048Y-106037184D01*
X31083286Y-106084803D01*
X31273762Y-106132422D01*
X31416619Y-106132422D01*
X31607095Y-106084803D01*
X31702333Y-106037184D01*
X31797571Y-105941946D01*
X31845190Y-105799089D01*
X31845190Y-105560994D01*
X30845190Y-107037184D02*
X30845190Y-106560994D01*
X31321381Y-106513375D01*
X31273762Y-106560994D01*
X31226143Y-106656232D01*
X31226143Y-106894327D01*
X31273762Y-106989565D01*
X31321381Y-107037184D01*
X31416619Y-107084803D01*
X31654714Y-107084803D01*
X31749952Y-107037184D01*
X31797571Y-106989565D01*
X31845190Y-106894327D01*
X31845190Y-106656232D01*
X31797571Y-106560994D01*
X31749952Y-106513375D01*
X31845190Y-107560994D02*
X31845190Y-107751470D01*
X31797571Y-107846708D01*
X31749952Y-107894327D01*
X31607095Y-107989565D01*
X31416619Y-108037184D01*
X31035667Y-108037184D01*
X30940429Y-107989565D01*
X30892810Y-107941946D01*
X30845190Y-107846708D01*
X30845190Y-107656232D01*
X30892810Y-107560994D01*
X30940429Y-107513375D01*
X31035667Y-107465756D01*
X31273762Y-107465756D01*
X31369000Y-107513375D01*
X31416619Y-107560994D01*
X31464238Y-107656232D01*
X31464238Y-107846708D01*
X31416619Y-107941946D01*
X31369000Y-107989565D01*
X31273762Y-108037184D01*
X231870190Y-67460994D02*
X230870190Y-67460994D01*
X230870190Y-67699089D01*
X230917810Y-67841946D01*
X231013048Y-67937184D01*
X231108286Y-67984803D01*
X231298762Y-68032422D01*
X231441619Y-68032422D01*
X231632095Y-67984803D01*
X231727333Y-67937184D01*
X231822571Y-67841946D01*
X231870190Y-67699089D01*
X231870190Y-67460994D01*
X230870190Y-68365756D02*
X230870190Y-68984803D01*
X231251143Y-68651470D01*
X231251143Y-68794327D01*
X231298762Y-68889565D01*
X231346381Y-68937184D01*
X231441619Y-68984803D01*
X231679714Y-68984803D01*
X231774952Y-68937184D01*
X231822571Y-68889565D01*
X231870190Y-68794327D01*
X231870190Y-68508613D01*
X231822571Y-68413375D01*
X231774952Y-68365756D01*
X231203524Y-69841946D02*
X231870190Y-69841946D01*
X230822571Y-69603851D02*
X231536857Y-69365756D01*
X231536857Y-69984803D01*
X241395190Y-87560994D02*
X240395190Y-87560994D01*
X240395190Y-87799089D01*
X240442810Y-87941946D01*
X240538048Y-88037184D01*
X240633286Y-88084803D01*
X240823762Y-88132422D01*
X240966619Y-88132422D01*
X241157095Y-88084803D01*
X241252333Y-88037184D01*
X241347571Y-87941946D01*
X241395190Y-87799089D01*
X241395190Y-87560994D01*
X241395190Y-88608613D02*
X241395190Y-88799089D01*
X241347571Y-88894327D01*
X241299952Y-88941946D01*
X241157095Y-89037184D01*
X240966619Y-89084803D01*
X240585667Y-89084803D01*
X240490429Y-89037184D01*
X240442810Y-88989565D01*
X240395190Y-88894327D01*
X240395190Y-88703851D01*
X240442810Y-88608613D01*
X240490429Y-88560994D01*
X240585667Y-88513375D01*
X240823762Y-88513375D01*
X240919000Y-88560994D01*
X240966619Y-88608613D01*
X241014238Y-88703851D01*
X241014238Y-88894327D01*
X240966619Y-88989565D01*
X240919000Y-89037184D01*
X240823762Y-89084803D01*
X240728524Y-89941946D02*
X241395190Y-89941946D01*
X240347571Y-89703851D02*
X241061857Y-89465756D01*
X241061857Y-90084803D01*
X218773315Y-106606994D02*
X217773315Y-106606994D01*
X217773315Y-106845089D01*
X217820935Y-106987946D01*
X217916173Y-107083184D01*
X218011411Y-107130803D01*
X218201887Y-107178422D01*
X218344744Y-107178422D01*
X218535220Y-107130803D01*
X218630458Y-107083184D01*
X218725696Y-106987946D01*
X218773315Y-106845089D01*
X218773315Y-106606994D01*
X218773315Y-107654613D02*
X218773315Y-107845089D01*
X218725696Y-107940327D01*
X218678077Y-107987946D01*
X218535220Y-108083184D01*
X218344744Y-108130803D01*
X217963792Y-108130803D01*
X217868554Y-108083184D01*
X217820935Y-108035565D01*
X217773315Y-107940327D01*
X217773315Y-107749851D01*
X217820935Y-107654613D01*
X217868554Y-107606994D01*
X217963792Y-107559375D01*
X218201887Y-107559375D01*
X218297125Y-107606994D01*
X218344744Y-107654613D01*
X218392363Y-107749851D01*
X218392363Y-107940327D01*
X218344744Y-108035565D01*
X218297125Y-108083184D01*
X218201887Y-108130803D01*
X217773315Y-108987946D02*
X217773315Y-108797470D01*
X217820935Y-108702232D01*
X217868554Y-108654613D01*
X218011411Y-108559375D01*
X218201887Y-108511756D01*
X218582839Y-108511756D01*
X218678077Y-108559375D01*
X218725696Y-108606994D01*
X218773315Y-108702232D01*
X218773315Y-108892708D01*
X218725696Y-108987946D01*
X218678077Y-109035565D01*
X218582839Y-109083184D01*
X218344744Y-109083184D01*
X218249506Y-109035565D01*
X218201887Y-108987946D01*
X218154268Y-108892708D01*
X218154268Y-108702232D01*
X218201887Y-108606994D01*
X218249506Y-108559375D01*
X218344744Y-108511756D01*
X222345190Y-86510994D02*
X221345190Y-86510994D01*
X221345190Y-86749089D01*
X221392810Y-86891946D01*
X221488048Y-86987184D01*
X221583286Y-87034803D01*
X221773762Y-87082422D01*
X221916619Y-87082422D01*
X222107095Y-87034803D01*
X222202333Y-86987184D01*
X222297571Y-86891946D01*
X222345190Y-86749089D01*
X222345190Y-86510994D01*
X221678524Y-87939565D02*
X222345190Y-87939565D01*
X221297571Y-87701470D02*
X222011857Y-87463375D01*
X222011857Y-88082422D01*
X221345190Y-88368137D02*
X221345190Y-88987184D01*
X221726143Y-88653851D01*
X221726143Y-88796708D01*
X221773762Y-88891946D01*
X221821381Y-88939565D01*
X221916619Y-88987184D01*
X222154714Y-88987184D01*
X222249952Y-88939565D01*
X222297571Y-88891946D01*
X222345190Y-88796708D01*
X222345190Y-88510994D01*
X222297571Y-88415756D01*
X222249952Y-88368137D01*
X279495190Y-106610994D02*
X278495190Y-106610994D01*
X278495190Y-106849089D01*
X278542810Y-106991946D01*
X278638048Y-107087184D01*
X278733286Y-107134803D01*
X278923762Y-107182422D01*
X279066619Y-107182422D01*
X279257095Y-107134803D01*
X279352333Y-107087184D01*
X279447571Y-106991946D01*
X279495190Y-106849089D01*
X279495190Y-106610994D01*
X278495190Y-108087184D02*
X278495190Y-107610994D01*
X278971381Y-107563375D01*
X278923762Y-107610994D01*
X278876143Y-107706232D01*
X278876143Y-107944327D01*
X278923762Y-108039565D01*
X278971381Y-108087184D01*
X279066619Y-108134803D01*
X279304714Y-108134803D01*
X279399952Y-108087184D01*
X279447571Y-108039565D01*
X279495190Y-107944327D01*
X279495190Y-107706232D01*
X279447571Y-107610994D01*
X279399952Y-107563375D01*
X278590429Y-108515756D02*
X278542810Y-108563375D01*
X278495190Y-108658613D01*
X278495190Y-108896708D01*
X278542810Y-108991946D01*
X278590429Y-109039565D01*
X278685667Y-109087184D01*
X278780905Y-109087184D01*
X278923762Y-109039565D01*
X279495190Y-108468137D01*
X279495190Y-109087184D01*
X212820190Y-68510994D02*
X211820190Y-68510994D01*
X211820190Y-68749089D01*
X211867810Y-68891946D01*
X211963048Y-68987184D01*
X212058286Y-69034803D01*
X212248762Y-69082422D01*
X212391619Y-69082422D01*
X212582095Y-69034803D01*
X212677333Y-68987184D01*
X212772571Y-68891946D01*
X212820190Y-68749089D01*
X212820190Y-68510994D01*
X211820190Y-69415756D02*
X211820190Y-70034803D01*
X212201143Y-69701470D01*
X212201143Y-69844327D01*
X212248762Y-69939565D01*
X212296381Y-69987184D01*
X212391619Y-70034803D01*
X212629714Y-70034803D01*
X212724952Y-69987184D01*
X212772571Y-69939565D01*
X212820190Y-69844327D01*
X212820190Y-69558613D01*
X212772571Y-69463375D01*
X212724952Y-69415756D01*
X211820190Y-70939565D02*
X211820190Y-70463375D01*
X212296381Y-70415756D01*
X212248762Y-70463375D01*
X212201143Y-70558613D01*
X212201143Y-70796708D01*
X212248762Y-70891946D01*
X212296381Y-70939565D01*
X212391619Y-70987184D01*
X212629714Y-70987184D01*
X212724952Y-70939565D01*
X212772571Y-70891946D01*
X212820190Y-70796708D01*
X212820190Y-70558613D01*
X212772571Y-70463375D01*
X212724952Y-70415756D01*
X250920190Y-68510994D02*
X249920190Y-68510994D01*
X249920190Y-68749089D01*
X249967810Y-68891946D01*
X250063048Y-68987184D01*
X250158286Y-69034803D01*
X250348762Y-69082422D01*
X250491619Y-69082422D01*
X250682095Y-69034803D01*
X250777333Y-68987184D01*
X250872571Y-68891946D01*
X250920190Y-68749089D01*
X250920190Y-68510994D01*
X250348762Y-69653851D02*
X250301143Y-69558613D01*
X250253524Y-69510994D01*
X250158286Y-69463375D01*
X250110667Y-69463375D01*
X250015429Y-69510994D01*
X249967810Y-69558613D01*
X249920190Y-69653851D01*
X249920190Y-69844327D01*
X249967810Y-69939565D01*
X250015429Y-69987184D01*
X250110667Y-70034803D01*
X250158286Y-70034803D01*
X250253524Y-69987184D01*
X250301143Y-69939565D01*
X250348762Y-69844327D01*
X250348762Y-69653851D01*
X250396381Y-69558613D01*
X250444000Y-69510994D01*
X250539238Y-69463375D01*
X250729714Y-69463375D01*
X250824952Y-69510994D01*
X250872571Y-69558613D01*
X250920190Y-69653851D01*
X250920190Y-69844327D01*
X250872571Y-69939565D01*
X250824952Y-69987184D01*
X250729714Y-70034803D01*
X250539238Y-70034803D01*
X250444000Y-69987184D01*
X250396381Y-69939565D01*
X250348762Y-69844327D01*
X250253524Y-70891946D02*
X250920190Y-70891946D01*
X249872571Y-70653851D02*
X250586857Y-70415756D01*
X250586857Y-71034803D01*
X189007690Y-104370369D02*
X188007690Y-104370369D01*
X188007690Y-104608464D01*
X188055310Y-104751321D01*
X188150548Y-104846559D01*
X188245786Y-104894178D01*
X188436262Y-104941797D01*
X188579119Y-104941797D01*
X188769595Y-104894178D01*
X188864833Y-104846559D01*
X188960071Y-104751321D01*
X189007690Y-104608464D01*
X189007690Y-104370369D01*
X188341024Y-105798940D02*
X189007690Y-105798940D01*
X187960071Y-105560845D02*
X188674357Y-105322750D01*
X188674357Y-105941797D01*
X188007690Y-106513226D02*
X188007690Y-106608464D01*
X188055310Y-106703702D01*
X188102929Y-106751321D01*
X188198167Y-106798940D01*
X188388643Y-106846559D01*
X188626738Y-106846559D01*
X188817214Y-106798940D01*
X188912452Y-106751321D01*
X188960071Y-106703702D01*
X189007690Y-106608464D01*
X189007690Y-106513226D01*
X188960071Y-106417988D01*
X188912452Y-106370369D01*
X188817214Y-106322750D01*
X188626738Y-106275131D01*
X188388643Y-106275131D01*
X188198167Y-106322750D01*
X188102929Y-106370369D01*
X188055310Y-106417988D01*
X188007690Y-106513226D01*
X279495190Y-87560994D02*
X278495190Y-87560994D01*
X278495190Y-87799089D01*
X278542810Y-87941946D01*
X278638048Y-88037184D01*
X278733286Y-88084803D01*
X278923762Y-88132422D01*
X279066619Y-88132422D01*
X279257095Y-88084803D01*
X279352333Y-88037184D01*
X279447571Y-87941946D01*
X279495190Y-87799089D01*
X279495190Y-87560994D01*
X278828524Y-88989565D02*
X279495190Y-88989565D01*
X278447571Y-88751470D02*
X279161857Y-88513375D01*
X279161857Y-89132422D01*
X279495190Y-90037184D02*
X279495190Y-89465756D01*
X279495190Y-89751470D02*
X278495190Y-89751470D01*
X278638048Y-89656232D01*
X278733286Y-89560994D01*
X278780905Y-89465756D01*
X53276440Y-67460994D02*
X52276440Y-67460994D01*
X52276440Y-67699089D01*
X52324060Y-67841946D01*
X52419298Y-67937184D01*
X52514536Y-67984803D01*
X52705012Y-68032422D01*
X52847869Y-68032422D01*
X53038345Y-67984803D01*
X53133583Y-67937184D01*
X53228821Y-67841946D01*
X53276440Y-67699089D01*
X53276440Y-67460994D01*
X52276440Y-68365756D02*
X52276440Y-68984803D01*
X52657393Y-68651470D01*
X52657393Y-68794327D01*
X52705012Y-68889565D01*
X52752631Y-68937184D01*
X52847869Y-68984803D01*
X53085964Y-68984803D01*
X53181202Y-68937184D01*
X53228821Y-68889565D01*
X53276440Y-68794327D01*
X53276440Y-68508613D01*
X53228821Y-68413375D01*
X53181202Y-68365756D01*
X53276440Y-69460994D02*
X53276440Y-69651470D01*
X53228821Y-69746708D01*
X53181202Y-69794327D01*
X53038345Y-69889565D01*
X52847869Y-69937184D01*
X52466917Y-69937184D01*
X52371679Y-69889565D01*
X52324060Y-69841946D01*
X52276440Y-69746708D01*
X52276440Y-69556232D01*
X52324060Y-69460994D01*
X52371679Y-69413375D01*
X52466917Y-69365756D01*
X52705012Y-69365756D01*
X52800250Y-69413375D01*
X52847869Y-69460994D01*
X52895488Y-69556232D01*
X52895488Y-69746708D01*
X52847869Y-69841946D01*
X52800250Y-69889565D01*
X52705012Y-69937184D01*
X231870190Y-48410994D02*
X230870190Y-48410994D01*
X230870190Y-48649089D01*
X230917810Y-48791946D01*
X231013048Y-48887184D01*
X231108286Y-48934803D01*
X231298762Y-48982422D01*
X231441619Y-48982422D01*
X231632095Y-48934803D01*
X231727333Y-48887184D01*
X231822571Y-48791946D01*
X231870190Y-48649089D01*
X231870190Y-48410994D01*
X230965429Y-49363375D02*
X230917810Y-49410994D01*
X230870190Y-49506232D01*
X230870190Y-49744327D01*
X230917810Y-49839565D01*
X230965429Y-49887184D01*
X231060667Y-49934803D01*
X231155905Y-49934803D01*
X231298762Y-49887184D01*
X231870190Y-49315756D01*
X231870190Y-49934803D01*
X231203524Y-50791946D02*
X231870190Y-50791946D01*
X230822571Y-50553851D02*
X231536857Y-50315756D01*
X231536857Y-50934803D01*
X278304565Y-68510994D02*
X277304565Y-68510994D01*
X277304565Y-68749089D01*
X277352185Y-68891946D01*
X277447423Y-68987184D01*
X277542661Y-69034803D01*
X277733137Y-69082422D01*
X277875994Y-69082422D01*
X278066470Y-69034803D01*
X278161708Y-68987184D01*
X278256946Y-68891946D01*
X278304565Y-68749089D01*
X278304565Y-68510994D01*
X277304565Y-69415756D02*
X277304565Y-70034803D01*
X277685518Y-69701470D01*
X277685518Y-69844327D01*
X277733137Y-69939565D01*
X277780756Y-69987184D01*
X277875994Y-70034803D01*
X278114089Y-70034803D01*
X278209327Y-69987184D01*
X278256946Y-69939565D01*
X278304565Y-69844327D01*
X278304565Y-69558613D01*
X278256946Y-69463375D01*
X278209327Y-69415756D01*
X277399804Y-70415756D02*
X277352185Y-70463375D01*
X277304565Y-70558613D01*
X277304565Y-70796708D01*
X277352185Y-70891946D01*
X277399804Y-70939565D01*
X277495042Y-70987184D01*
X277590280Y-70987184D01*
X277733137Y-70939565D01*
X278304565Y-70368137D01*
X278304565Y-70987184D01*
X98520190Y-49460994D02*
X97520190Y-49460994D01*
X97520190Y-49699089D01*
X97567810Y-49841946D01*
X97663048Y-49937184D01*
X97758286Y-49984803D01*
X97948762Y-50032422D01*
X98091619Y-50032422D01*
X98282095Y-49984803D01*
X98377333Y-49937184D01*
X98472571Y-49841946D01*
X98520190Y-49699089D01*
X98520190Y-49460994D01*
X97615429Y-50413375D02*
X97567810Y-50460994D01*
X97520190Y-50556232D01*
X97520190Y-50794327D01*
X97567810Y-50889565D01*
X97615429Y-50937184D01*
X97710667Y-50984803D01*
X97805905Y-50984803D01*
X97948762Y-50937184D01*
X98520190Y-50365756D01*
X98520190Y-50984803D01*
X97520190Y-51318137D02*
X97520190Y-51984803D01*
X98520190Y-51556232D01*
X58038940Y-86510994D02*
X57038940Y-86510994D01*
X57038940Y-86749089D01*
X57086560Y-86891946D01*
X57181798Y-86987184D01*
X57277036Y-87034803D01*
X57467512Y-87082422D01*
X57610369Y-87082422D01*
X57800845Y-87034803D01*
X57896083Y-86987184D01*
X57991321Y-86891946D01*
X58038940Y-86749089D01*
X58038940Y-86510994D01*
X57372274Y-87939565D02*
X58038940Y-87939565D01*
X56991321Y-87701470D02*
X57705607Y-87463375D01*
X57705607Y-88082422D01*
X58038940Y-88510994D02*
X58038940Y-88701470D01*
X57991321Y-88796708D01*
X57943702Y-88844327D01*
X57800845Y-88939565D01*
X57610369Y-88987184D01*
X57229417Y-88987184D01*
X57134179Y-88939565D01*
X57086560Y-88891946D01*
X57038940Y-88796708D01*
X57038940Y-88606232D01*
X57086560Y-88510994D01*
X57134179Y-88463375D01*
X57229417Y-88415756D01*
X57467512Y-88415756D01*
X57562750Y-88463375D01*
X57610369Y-88510994D01*
X57657988Y-88606232D01*
X57657988Y-88796708D01*
X57610369Y-88891946D01*
X57562750Y-88939565D01*
X57467512Y-88987184D01*
X298545190Y-86510994D02*
X297545190Y-86510994D01*
X297545190Y-86749089D01*
X297592810Y-86891946D01*
X297688048Y-86987184D01*
X297783286Y-87034803D01*
X297973762Y-87082422D01*
X298116619Y-87082422D01*
X298307095Y-87034803D01*
X298402333Y-86987184D01*
X298497571Y-86891946D01*
X298545190Y-86749089D01*
X298545190Y-86510994D01*
X298545190Y-87558613D02*
X298545190Y-87749089D01*
X298497571Y-87844327D01*
X298449952Y-87891946D01*
X298307095Y-87987184D01*
X298116619Y-88034803D01*
X297735667Y-88034803D01*
X297640429Y-87987184D01*
X297592810Y-87939565D01*
X297545190Y-87844327D01*
X297545190Y-87653851D01*
X297592810Y-87558613D01*
X297640429Y-87510994D01*
X297735667Y-87463375D01*
X297973762Y-87463375D01*
X298069000Y-87510994D01*
X298116619Y-87558613D01*
X298164238Y-87653851D01*
X298164238Y-87844327D01*
X298116619Y-87939565D01*
X298069000Y-87987184D01*
X297973762Y-88034803D01*
X298545190Y-88987184D02*
X298545190Y-88415756D01*
X298545190Y-88701470D02*
X297545190Y-88701470D01*
X297688048Y-88606232D01*
X297783286Y-88510994D01*
X297830905Y-88415756D01*
X50895190Y-106610994D02*
X49895190Y-106610994D01*
X49895190Y-106849089D01*
X49942810Y-106991946D01*
X50038048Y-107087184D01*
X50133286Y-107134803D01*
X50323762Y-107182422D01*
X50466619Y-107182422D01*
X50657095Y-107134803D01*
X50752333Y-107087184D01*
X50847571Y-106991946D01*
X50895190Y-106849089D01*
X50895190Y-106610994D01*
X50895190Y-108134803D02*
X50895190Y-107563375D01*
X50895190Y-107849089D02*
X49895190Y-107849089D01*
X50038048Y-107753851D01*
X50133286Y-107658613D01*
X50180905Y-107563375D01*
X50895190Y-109087184D02*
X50895190Y-108515756D01*
X50895190Y-108801470D02*
X49895190Y-108801470D01*
X50038048Y-108706232D01*
X50133286Y-108610994D01*
X50180905Y-108515756D01*
X69945190Y-86510994D02*
X68945190Y-86510994D01*
X68945190Y-86749089D01*
X68992810Y-86891946D01*
X69088048Y-86987184D01*
X69183286Y-87034803D01*
X69373762Y-87082422D01*
X69516619Y-87082422D01*
X69707095Y-87034803D01*
X69802333Y-86987184D01*
X69897571Y-86891946D01*
X69945190Y-86749089D01*
X69945190Y-86510994D01*
X69278524Y-87939565D02*
X69945190Y-87939565D01*
X68897571Y-87701470D02*
X69611857Y-87463375D01*
X69611857Y-88082422D01*
X69373762Y-88606232D02*
X69326143Y-88510994D01*
X69278524Y-88463375D01*
X69183286Y-88415756D01*
X69135667Y-88415756D01*
X69040429Y-88463375D01*
X68992810Y-88510994D01*
X68945190Y-88606232D01*
X68945190Y-88796708D01*
X68992810Y-88891946D01*
X69040429Y-88939565D01*
X69135667Y-88987184D01*
X69183286Y-88987184D01*
X69278524Y-88939565D01*
X69326143Y-88891946D01*
X69373762Y-88796708D01*
X69373762Y-88606232D01*
X69421381Y-88510994D01*
X69469000Y-88463375D01*
X69564238Y-88415756D01*
X69754714Y-88415756D01*
X69849952Y-88463375D01*
X69897571Y-88510994D01*
X69945190Y-88606232D01*
X69945190Y-88796708D01*
X69897571Y-88891946D01*
X69849952Y-88939565D01*
X69754714Y-88987184D01*
X69564238Y-88987184D01*
X69469000Y-88939565D01*
X69421381Y-88891946D01*
X69373762Y-88796708D01*
X108045190Y-86510994D02*
X107045190Y-86510994D01*
X107045190Y-86749089D01*
X107092810Y-86891946D01*
X107188048Y-86987184D01*
X107283286Y-87034803D01*
X107473762Y-87082422D01*
X107616619Y-87082422D01*
X107807095Y-87034803D01*
X107902333Y-86987184D01*
X107997571Y-86891946D01*
X108045190Y-86749089D01*
X108045190Y-86510994D01*
X108045190Y-87558613D02*
X108045190Y-87749089D01*
X107997571Y-87844327D01*
X107949952Y-87891946D01*
X107807095Y-87987184D01*
X107616619Y-88034803D01*
X107235667Y-88034803D01*
X107140429Y-87987184D01*
X107092810Y-87939565D01*
X107045190Y-87844327D01*
X107045190Y-87653851D01*
X107092810Y-87558613D01*
X107140429Y-87510994D01*
X107235667Y-87463375D01*
X107473762Y-87463375D01*
X107569000Y-87510994D01*
X107616619Y-87558613D01*
X107664238Y-87653851D01*
X107664238Y-87844327D01*
X107616619Y-87939565D01*
X107569000Y-87987184D01*
X107473762Y-88034803D01*
X107045190Y-88368137D02*
X107045190Y-89034803D01*
X108045190Y-88606232D01*
X127095190Y-87560994D02*
X126095190Y-87560994D01*
X126095190Y-87799089D01*
X126142810Y-87941946D01*
X126238048Y-88037184D01*
X126333286Y-88084803D01*
X126523762Y-88132422D01*
X126666619Y-88132422D01*
X126857095Y-88084803D01*
X126952333Y-88037184D01*
X127047571Y-87941946D01*
X127095190Y-87799089D01*
X127095190Y-87560994D01*
X126428524Y-88989565D02*
X127095190Y-88989565D01*
X126047571Y-88751470D02*
X126761857Y-88513375D01*
X126761857Y-89132422D01*
X126095190Y-89941946D02*
X126095190Y-89751470D01*
X126142810Y-89656232D01*
X126190429Y-89608613D01*
X126333286Y-89513375D01*
X126523762Y-89465756D01*
X126904714Y-89465756D01*
X126999952Y-89513375D01*
X127047571Y-89560994D01*
X127095190Y-89656232D01*
X127095190Y-89846708D01*
X127047571Y-89941946D01*
X126999952Y-89989565D01*
X126904714Y-90037184D01*
X126666619Y-90037184D01*
X126571381Y-89989565D01*
X126523762Y-89941946D01*
X126476143Y-89846708D01*
X126476143Y-89656232D01*
X126523762Y-89560994D01*
X126571381Y-89513375D01*
X126666619Y-89465756D01*
X258063940Y-105560994D02*
X257063940Y-105560994D01*
X257063940Y-105799089D01*
X257111560Y-105941946D01*
X257206798Y-106037184D01*
X257302036Y-106084803D01*
X257492512Y-106132422D01*
X257635369Y-106132422D01*
X257825845Y-106084803D01*
X257921083Y-106037184D01*
X258016321Y-105941946D01*
X258063940Y-105799089D01*
X258063940Y-105560994D01*
X258063940Y-106608613D02*
X258063940Y-106799089D01*
X258016321Y-106894327D01*
X257968702Y-106941946D01*
X257825845Y-107037184D01*
X257635369Y-107084803D01*
X257254417Y-107084803D01*
X257159179Y-107037184D01*
X257111560Y-106989565D01*
X257063940Y-106894327D01*
X257063940Y-106703851D01*
X257111560Y-106608613D01*
X257159179Y-106560994D01*
X257254417Y-106513375D01*
X257492512Y-106513375D01*
X257587750Y-106560994D01*
X257635369Y-106608613D01*
X257682988Y-106703851D01*
X257682988Y-106894327D01*
X257635369Y-106989565D01*
X257587750Y-107037184D01*
X257492512Y-107084803D01*
X257159179Y-107465756D02*
X257111560Y-107513375D01*
X257063940Y-107608613D01*
X257063940Y-107846708D01*
X257111560Y-107941946D01*
X257159179Y-107989565D01*
X257254417Y-108037184D01*
X257349655Y-108037184D01*
X257492512Y-107989565D01*
X258063940Y-107418137D01*
X258063940Y-108037184D01*
X117570190Y-67460994D02*
X116570190Y-67460994D01*
X116570190Y-67699089D01*
X116617810Y-67841946D01*
X116713048Y-67937184D01*
X116808286Y-67984803D01*
X116998762Y-68032422D01*
X117141619Y-68032422D01*
X117332095Y-67984803D01*
X117427333Y-67937184D01*
X117522571Y-67841946D01*
X117570190Y-67699089D01*
X117570190Y-67460994D01*
X116998762Y-68603851D02*
X116951143Y-68508613D01*
X116903524Y-68460994D01*
X116808286Y-68413375D01*
X116760667Y-68413375D01*
X116665429Y-68460994D01*
X116617810Y-68508613D01*
X116570190Y-68603851D01*
X116570190Y-68794327D01*
X116617810Y-68889565D01*
X116665429Y-68937184D01*
X116760667Y-68984803D01*
X116808286Y-68984803D01*
X116903524Y-68937184D01*
X116951143Y-68889565D01*
X116998762Y-68794327D01*
X116998762Y-68603851D01*
X117046381Y-68508613D01*
X117094000Y-68460994D01*
X117189238Y-68413375D01*
X117379714Y-68413375D01*
X117474952Y-68460994D01*
X117522571Y-68508613D01*
X117570190Y-68603851D01*
X117570190Y-68794327D01*
X117522571Y-68889565D01*
X117474952Y-68937184D01*
X117379714Y-68984803D01*
X117189238Y-68984803D01*
X117094000Y-68937184D01*
X117046381Y-68889565D01*
X116998762Y-68794327D01*
X116570190Y-69318137D02*
X116570190Y-69984803D01*
X117570190Y-69556232D01*
X184245190Y-106037184D02*
X183245190Y-106037184D01*
X183245190Y-106275280D01*
X183292810Y-106418137D01*
X183388048Y-106513375D01*
X183483286Y-106560994D01*
X183673762Y-106608613D01*
X183816619Y-106608613D01*
X184007095Y-106560994D01*
X184102333Y-106513375D01*
X184197571Y-106418137D01*
X184245190Y-106275280D01*
X184245190Y-106037184D01*
X184245190Y-107560994D02*
X184245190Y-106989565D01*
X184245190Y-107275280D02*
X183245190Y-107275280D01*
X183388048Y-107180041D01*
X183483286Y-107084803D01*
X183530905Y-106989565D01*
X72326440Y-105560994D02*
X71326440Y-105560994D01*
X71326440Y-105799089D01*
X71374060Y-105941946D01*
X71469298Y-106037184D01*
X71564536Y-106084803D01*
X71755012Y-106132422D01*
X71897869Y-106132422D01*
X72088345Y-106084803D01*
X72183583Y-106037184D01*
X72278821Y-105941946D01*
X72326440Y-105799089D01*
X72326440Y-105560994D01*
X72326440Y-106608613D02*
X72326440Y-106799089D01*
X72278821Y-106894327D01*
X72231202Y-106941946D01*
X72088345Y-107037184D01*
X71897869Y-107084803D01*
X71516917Y-107084803D01*
X71421679Y-107037184D01*
X71374060Y-106989565D01*
X71326440Y-106894327D01*
X71326440Y-106703851D01*
X71374060Y-106608613D01*
X71421679Y-106560994D01*
X71516917Y-106513375D01*
X71755012Y-106513375D01*
X71850250Y-106560994D01*
X71897869Y-106608613D01*
X71945488Y-106703851D01*
X71945488Y-106894327D01*
X71897869Y-106989565D01*
X71850250Y-107037184D01*
X71755012Y-107084803D01*
X71755012Y-107656232D02*
X71707393Y-107560994D01*
X71659774Y-107513375D01*
X71564536Y-107465756D01*
X71516917Y-107465756D01*
X71421679Y-107513375D01*
X71374060Y-107560994D01*
X71326440Y-107656232D01*
X71326440Y-107846708D01*
X71374060Y-107941946D01*
X71421679Y-107989565D01*
X71516917Y-108037184D01*
X71564536Y-108037184D01*
X71659774Y-107989565D01*
X71707393Y-107941946D01*
X71755012Y-107846708D01*
X71755012Y-107656232D01*
X71802631Y-107560994D01*
X71850250Y-107513375D01*
X71945488Y-107465756D01*
X72135964Y-107465756D01*
X72231202Y-107513375D01*
X72278821Y-107560994D01*
X72326440Y-107656232D01*
X72326440Y-107846708D01*
X72278821Y-107941946D01*
X72231202Y-107989565D01*
X72135964Y-108037184D01*
X71945488Y-108037184D01*
X71850250Y-107989565D01*
X71802631Y-107941946D01*
X71755012Y-107846708D01*
X269970190Y-67460994D02*
X268970190Y-67460994D01*
X268970190Y-67699089D01*
X269017810Y-67841946D01*
X269113048Y-67937184D01*
X269208286Y-67984803D01*
X269398762Y-68032422D01*
X269541619Y-68032422D01*
X269732095Y-67984803D01*
X269827333Y-67937184D01*
X269922571Y-67841946D01*
X269970190Y-67699089D01*
X269970190Y-67460994D01*
X269303524Y-68889565D02*
X269970190Y-68889565D01*
X268922571Y-68651470D02*
X269636857Y-68413375D01*
X269636857Y-69032422D01*
X269303524Y-69841946D02*
X269970190Y-69841946D01*
X268922571Y-69603851D02*
X269636857Y-69365756D01*
X269636857Y-69984803D01*
X62801440Y-87560994D02*
X61801440Y-87560994D01*
X61801440Y-87799089D01*
X61849060Y-87941946D01*
X61944298Y-88037184D01*
X62039536Y-88084803D01*
X62230012Y-88132422D01*
X62372869Y-88132422D01*
X62563345Y-88084803D01*
X62658583Y-88037184D01*
X62753821Y-87941946D01*
X62801440Y-87799089D01*
X62801440Y-87560994D01*
X62230012Y-88703851D02*
X62182393Y-88608613D01*
X62134774Y-88560994D01*
X62039536Y-88513375D01*
X61991917Y-88513375D01*
X61896679Y-88560994D01*
X61849060Y-88608613D01*
X61801440Y-88703851D01*
X61801440Y-88894327D01*
X61849060Y-88989565D01*
X61896679Y-89037184D01*
X61991917Y-89084803D01*
X62039536Y-89084803D01*
X62134774Y-89037184D01*
X62182393Y-88989565D01*
X62230012Y-88894327D01*
X62230012Y-88703851D01*
X62277631Y-88608613D01*
X62325250Y-88560994D01*
X62420488Y-88513375D01*
X62610964Y-88513375D01*
X62706202Y-88560994D01*
X62753821Y-88608613D01*
X62801440Y-88703851D01*
X62801440Y-88894327D01*
X62753821Y-88989565D01*
X62706202Y-89037184D01*
X62610964Y-89084803D01*
X62420488Y-89084803D01*
X62325250Y-89037184D01*
X62277631Y-88989565D01*
X62230012Y-88894327D01*
X62801440Y-89560994D02*
X62801440Y-89751470D01*
X62753821Y-89846708D01*
X62706202Y-89894327D01*
X62563345Y-89989565D01*
X62372869Y-90037184D01*
X61991917Y-90037184D01*
X61896679Y-89989565D01*
X61849060Y-89941946D01*
X61801440Y-89846708D01*
X61801440Y-89656232D01*
X61849060Y-89560994D01*
X61896679Y-89513375D01*
X61991917Y-89465756D01*
X62230012Y-89465756D01*
X62325250Y-89513375D01*
X62372869Y-89560994D01*
X62420488Y-89656232D01*
X62420488Y-89846708D01*
X62372869Y-89941946D01*
X62325250Y-89989565D01*
X62230012Y-90037184D01*
X79470190Y-48410994D02*
X78470190Y-48410994D01*
X78470190Y-48649089D01*
X78517810Y-48791946D01*
X78613048Y-48887184D01*
X78708286Y-48934803D01*
X78898762Y-48982422D01*
X79041619Y-48982422D01*
X79232095Y-48934803D01*
X79327333Y-48887184D01*
X79422571Y-48791946D01*
X79470190Y-48649089D01*
X79470190Y-48410994D01*
X78565429Y-49363375D02*
X78517810Y-49410994D01*
X78470190Y-49506232D01*
X78470190Y-49744327D01*
X78517810Y-49839565D01*
X78565429Y-49887184D01*
X78660667Y-49934803D01*
X78755905Y-49934803D01*
X78898762Y-49887184D01*
X79470190Y-49315756D01*
X79470190Y-49934803D01*
X78898762Y-50506232D02*
X78851143Y-50410994D01*
X78803524Y-50363375D01*
X78708286Y-50315756D01*
X78660667Y-50315756D01*
X78565429Y-50363375D01*
X78517810Y-50410994D01*
X78470190Y-50506232D01*
X78470190Y-50696708D01*
X78517810Y-50791946D01*
X78565429Y-50839565D01*
X78660667Y-50887184D01*
X78708286Y-50887184D01*
X78803524Y-50839565D01*
X78851143Y-50791946D01*
X78898762Y-50696708D01*
X78898762Y-50506232D01*
X78946381Y-50410994D01*
X78994000Y-50363375D01*
X79089238Y-50315756D01*
X79279714Y-50315756D01*
X79374952Y-50363375D01*
X79422571Y-50410994D01*
X79470190Y-50506232D01*
X79470190Y-50696708D01*
X79422571Y-50791946D01*
X79374952Y-50839565D01*
X79279714Y-50887184D01*
X79089238Y-50887184D01*
X78994000Y-50839565D01*
X78946381Y-50791946D01*
X78898762Y-50696708D01*
X250920190Y-49460994D02*
X249920190Y-49460994D01*
X249920190Y-49699089D01*
X249967810Y-49841946D01*
X250063048Y-49937184D01*
X250158286Y-49984803D01*
X250348762Y-50032422D01*
X250491619Y-50032422D01*
X250682095Y-49984803D01*
X250777333Y-49937184D01*
X250872571Y-49841946D01*
X250920190Y-49699089D01*
X250920190Y-49460994D01*
X249920190Y-50365756D02*
X249920190Y-51032422D01*
X250920190Y-50603851D01*
X250253524Y-51841946D02*
X250920190Y-51841946D01*
X249872571Y-51603851D02*
X250586857Y-51365756D01*
X250586857Y-51984803D01*
X234251440Y-106610994D02*
X233251440Y-106610994D01*
X233251440Y-106849089D01*
X233299060Y-106991946D01*
X233394298Y-107087184D01*
X233489536Y-107134803D01*
X233680012Y-107182422D01*
X233822869Y-107182422D01*
X234013345Y-107134803D01*
X234108583Y-107087184D01*
X234203821Y-106991946D01*
X234251440Y-106849089D01*
X234251440Y-106610994D01*
X233251440Y-108087184D02*
X233251440Y-107610994D01*
X233727631Y-107563375D01*
X233680012Y-107610994D01*
X233632393Y-107706232D01*
X233632393Y-107944327D01*
X233680012Y-108039565D01*
X233727631Y-108087184D01*
X233822869Y-108134803D01*
X234060964Y-108134803D01*
X234156202Y-108087184D01*
X234203821Y-108039565D01*
X234251440Y-107944327D01*
X234251440Y-107706232D01*
X234203821Y-107610994D01*
X234156202Y-107563375D01*
X233251440Y-108468137D02*
X233251440Y-109087184D01*
X233632393Y-108753851D01*
X233632393Y-108896708D01*
X233680012Y-108991946D01*
X233727631Y-109039565D01*
X233822869Y-109087184D01*
X234060964Y-109087184D01*
X234156202Y-109039565D01*
X234203821Y-108991946D01*
X234251440Y-108896708D01*
X234251440Y-108610994D01*
X234203821Y-108515756D01*
X234156202Y-108468137D01*
X60420190Y-68510994D02*
X59420190Y-68510994D01*
X59420190Y-68749089D01*
X59467810Y-68891946D01*
X59563048Y-68987184D01*
X59658286Y-69034803D01*
X59848762Y-69082422D01*
X59991619Y-69082422D01*
X60182095Y-69034803D01*
X60277333Y-68987184D01*
X60372571Y-68891946D01*
X60420190Y-68749089D01*
X60420190Y-68510994D01*
X59420190Y-69415756D02*
X59420190Y-70082422D01*
X60420190Y-69653851D01*
X60420190Y-70510994D02*
X60420190Y-70701470D01*
X60372571Y-70796708D01*
X60324952Y-70844327D01*
X60182095Y-70939565D01*
X59991619Y-70987184D01*
X59610667Y-70987184D01*
X59515429Y-70939565D01*
X59467810Y-70891946D01*
X59420190Y-70796708D01*
X59420190Y-70606232D01*
X59467810Y-70510994D01*
X59515429Y-70463375D01*
X59610667Y-70415756D01*
X59848762Y-70415756D01*
X59944000Y-70463375D01*
X59991619Y-70510994D01*
X60039238Y-70606232D01*
X60039238Y-70796708D01*
X59991619Y-70891946D01*
X59944000Y-70939565D01*
X59848762Y-70987184D01*
G36*
X175054685Y-46782155D02*
G01*
X174054685Y-46782155D01*
X174054685Y-45732155D01*
X175054685Y-46782155D01*
G37*
D15*
X175054685Y-46782155D02*
X174054685Y-46782155D01*
X174054685Y-45732155D01*
X175054685Y-46782155D01*
G36*
X152755935Y-54982155D02*
G01*
X151705935Y-54982155D01*
X152755935Y-53982155D01*
X152755935Y-54982155D01*
G37*
X152755935Y-54982155D02*
X151705935Y-54982155D01*
X152755935Y-53982155D01*
X152755935Y-54982155D01*
G36*
X175054685Y-36066530D02*
G01*
X174054685Y-36066530D01*
X174054685Y-35016530D01*
X175054685Y-36066530D01*
G37*
X175054685Y-36066530D02*
X174054685Y-36066530D01*
X174054685Y-35016530D01*
X175054685Y-36066530D01*
G36*
X162280935Y-56172780D02*
G01*
X161230935Y-56172780D01*
X162280935Y-55172780D01*
X162280935Y-56172780D01*
G37*
X162280935Y-56172780D02*
X161230935Y-56172780D01*
X162280935Y-55172780D01*
X162280935Y-56172780D01*
G36*
X144287185Y-41612155D02*
G01*
X143287185Y-40562155D01*
X144287185Y-40562155D01*
X144287185Y-41612155D01*
G37*
X144287185Y-41612155D02*
X143287185Y-40562155D01*
X144287185Y-40562155D01*
X144287185Y-41612155D01*
G36*
X171805935Y-54982155D02*
G01*
X170755935Y-54982155D01*
X171805935Y-53982155D01*
X171805935Y-54982155D01*
G37*
X171805935Y-54982155D02*
X170755935Y-54982155D01*
X171805935Y-53982155D01*
X171805935Y-54982155D01*
X25593871Y-26595405D02*
X26047999Y-26595405D01*
X25593871Y-25125405D02*
X26047999Y-25125405D01*
X287983435Y-50625280D02*
X292083435Y-50625280D01*
X292083435Y-48625280D02*
X287983435Y-48625280D01*
X292083435Y-50625280D02*
X292083435Y-48625280D01*
X287983435Y-48625280D02*
X287983435Y-50625280D01*
X37350999Y-30459405D02*
X36896871Y-30459405D01*
X37350999Y-31929405D02*
X36896871Y-31929405D01*
X58672267Y-42146540D02*
X58302800Y-41777073D01*
X57632820Y-43185987D02*
X57263353Y-42816520D01*
X81640935Y-28333405D02*
X82970935Y-28333405D01*
X84300935Y-25733405D02*
X84300935Y-23133405D01*
X81640935Y-23133405D02*
X84300935Y-23133405D01*
X81640935Y-27003405D02*
X81640935Y-28333405D01*
X81640935Y-25733405D02*
X81640935Y-23133405D01*
X81640935Y-25733405D02*
X84300935Y-25733405D01*
X105602185Y-100822155D02*
G75*
G03*
X105602185Y-100822155I-1200000J0D01*
G01*
X200852185Y-75819030D02*
G75*
G03*
X200852185Y-75819030I-1200000J0D01*
G01*
X262764685Y-103203405D02*
G75*
G03*
X262764685Y-103203405I-1200000J0D01*
G01*
X37736560Y-103203405D02*
G75*
G03*
X37736560Y-103203405I-1200000J0D01*
G01*
X47261560Y-73437780D02*
G75*
G03*
X47261560Y-73437780I-1200000J0D01*
G01*
X285386560Y-88915905D02*
G75*
G03*
X285386560Y-88915905I-1200000J0D01*
G01*
X287767810Y-92487780D02*
G75*
G03*
X287767810Y-92487780I-1200000J0D01*
G01*
X42718778Y-33114551D02*
X43088245Y-33484018D01*
X41679331Y-34153998D02*
X42048798Y-34523465D01*
X49253133Y-24042976D02*
X52435114Y-27224957D01*
X52435114Y-27224957D02*
X48616737Y-31043334D01*
X44658603Y-31450020D02*
X45028070Y-31819487D01*
X45698050Y-30410573D02*
X46067517Y-30780040D01*
X60041478Y-27211395D02*
X60410945Y-27580862D01*
X61080925Y-26171948D02*
X61450392Y-26541415D01*
X64721766Y-35576396D02*
X65091233Y-35206929D01*
X63682319Y-34536949D02*
X64051786Y-34167482D01*
X54460310Y-53420905D02*
X54460310Y-50820905D01*
X49320310Y-53420905D02*
X49320310Y-48220905D01*
X57060310Y-53420905D02*
X57060310Y-52090905D01*
X54460310Y-53420905D02*
X49320310Y-53420905D01*
X57060310Y-48220905D02*
X49320310Y-48220905D01*
X57060310Y-50820905D02*
X57060310Y-48220905D01*
X55730310Y-53420905D02*
X57060310Y-53420905D01*
X54460310Y-50820905D02*
X57060310Y-50820905D01*
X26533435Y-48625280D02*
X26533435Y-50625280D01*
X26533435Y-50625280D02*
X30633435Y-50625280D01*
X30633435Y-48625280D02*
X26533435Y-48625280D01*
X30633435Y-50625280D02*
X30633435Y-48625280D01*
D16*
X112816189Y-22028365D02*
G75*
G03*
X112816189Y-22028365I-1270254J0D01*
G01*
X208066189Y-22028365D02*
G75*
G03*
X208066189Y-22028365I-1270254J0D01*
G01*
D15*
X44282374Y-19521155D02*
X43078246Y-19521155D01*
X44282374Y-21341155D02*
X43078246Y-21341155D01*
D16*
X101766189Y-107628365D02*
G75*
G03*
X101766189Y-107628365I-1270254J0D01*
G01*
D15*
X43907374Y-22490155D02*
X43453246Y-22490155D01*
X43907374Y-23960155D02*
X43453246Y-23960155D01*
X219902185Y-100822155D02*
G75*
G03*
X219902185Y-100822155I-1200000J0D01*
G01*
X160370935Y-32956530D02*
G75*
G03*
X160370935Y-32956530I-1200000J0D01*
G01*
X27507935Y-20638405D02*
X27507935Y-21938405D01*
X24387935Y-21938405D02*
X24387935Y-18938405D01*
X41495975Y-63548765D02*
X43495975Y-63548765D01*
X44795975Y-67998765D02*
X45245975Y-67548765D01*
X40195975Y-67998765D02*
X39745975Y-67548765D01*
X39745975Y-65048765D02*
X39745975Y-67548765D01*
X41495975Y-69048765D02*
X43495975Y-69048765D01*
X44795975Y-64598765D02*
X45245975Y-65048765D01*
X45245975Y-65048765D02*
X45245975Y-67548765D01*
X40195975Y-64598765D02*
X39745975Y-65048765D01*
X44608869Y-37083536D02*
X44929986Y-37404653D01*
X45648316Y-36044089D02*
X45969433Y-36365206D01*
X65653653Y-36454990D02*
X65974770Y-36133873D01*
X66693100Y-37494437D02*
X67014217Y-37173320D01*
X53211267Y-23636290D02*
X52841800Y-23266823D01*
X52171820Y-24675737D02*
X51802353Y-24306270D01*
X283005310Y-100822155D02*
G75*
G03*
X283005310Y-100822155I-1200000J0D01*
G01*
X81789685Y-102012780D02*
G75*
G03*
X81789685Y-102012780I-1200000J0D01*
G01*
X81789685Y-98440905D02*
G75*
G03*
X81789685Y-98440905I-1200000J0D01*
G01*
D16*
X241666189Y-107628365D02*
G75*
G03*
X241666189Y-107628365I-1270254J0D01*
G01*
D15*
X150845935Y-32956530D02*
G75*
G03*
X150845935Y-32956530I-1200000J0D01*
G01*
X150845935Y-29384655D02*
G75*
G03*
X150845935Y-29384655I-1200000J0D01*
G01*
X56786560Y-73437780D02*
G75*
G03*
X56786560Y-73437780I-1200000J0D01*
G01*
X92495935Y-21593405D02*
X90545935Y-21593405D01*
X92495935Y-21593405D02*
X95945935Y-21593405D01*
X92495935Y-26713405D02*
X90545935Y-26713405D01*
X92495935Y-26713405D02*
X94445935Y-26713405D01*
X78552871Y-26268405D02*
X79006999Y-26268405D01*
X78552871Y-27738405D02*
X79006999Y-27738405D01*
X78552871Y-25325405D02*
X79006999Y-25325405D01*
X78552871Y-23855405D02*
X79006999Y-23855405D01*
X30225935Y-21018365D02*
X30225935Y-20118365D01*
X30345935Y-24098365D02*
X39295935Y-24098365D01*
X39415935Y-21018365D02*
X39415935Y-20118365D01*
X49119478Y-41943395D02*
X49488945Y-42312862D01*
X50158925Y-40903948D02*
X50528392Y-41273415D01*
X37350999Y-29389405D02*
X36896871Y-29389405D01*
X37350999Y-27919405D02*
X36896871Y-27919405D01*
X130605310Y-100822155D02*
G75*
G03*
X130605310Y-100822155I-1200000J0D01*
G01*
X160370935Y-29384655D02*
G75*
G03*
X160370935Y-29384655I-1200000J0D01*
G01*
X292558435Y-54527155D02*
X293888435Y-54527155D01*
X291288435Y-51867155D02*
X286148435Y-51867155D01*
X293888435Y-54527155D02*
X293888435Y-53197155D01*
X291288435Y-54527155D02*
X286148435Y-54527155D01*
X291288435Y-54527155D02*
X291288435Y-51867155D01*
X286148435Y-54527155D02*
X286148435Y-51867155D01*
X81789685Y-105584655D02*
G75*
G03*
X81789685Y-105584655I-1200000J0D01*
G01*
D11*
X50460036Y-34147155D02*
X51008044Y-33599147D01*
X60713084Y-34147155D02*
X60165076Y-34695163D01*
X60713084Y-34147155D02*
X60165076Y-33599147D01*
X55586560Y-39273679D02*
X56134568Y-38725671D01*
X55586560Y-29020631D02*
X56134568Y-29568639D01*
X55586560Y-29020631D02*
X55038552Y-29568639D01*
X50460036Y-34147155D02*
X51008044Y-34695163D01*
D15*
X78017810Y-70925280D02*
X78017810Y-67025280D01*
X76017810Y-70925280D02*
X76017810Y-67025280D01*
X78017810Y-70925280D02*
X76017810Y-70925280D01*
X76017810Y-70925280D02*
X76017810Y-71215280D01*
X76017810Y-71215280D02*
X78017810Y-71215280D01*
X78017810Y-71215280D02*
X78017810Y-70925280D01*
G36*
X78017810Y-70925280D02*
G01*
X76017810Y-70925280D01*
X76017810Y-71215280D01*
X78017810Y-71215280D01*
X78017810Y-70925280D01*
G37*
G36*
X77017810Y-69310280D02*
G01*
X76255810Y-68167280D01*
X77779810Y-68167280D01*
X77017810Y-69310280D01*
G37*
X77017810Y-69310280D02*
X76255810Y-68167280D01*
X77779810Y-68167280D01*
X77017810Y-69310280D01*
X295092810Y-109025280D02*
X295092810Y-105125280D01*
X297092810Y-109025280D02*
X297092810Y-105125280D01*
X297092810Y-109025280D02*
X295092810Y-109025280D01*
X295092810Y-109025280D02*
X295092810Y-109315280D01*
X295092810Y-109315280D02*
X297092810Y-109315280D01*
X297092810Y-109315280D02*
X297092810Y-109025280D01*
G36*
X297092810Y-109025280D02*
G01*
X295092810Y-109025280D01*
X295092810Y-109315280D01*
X297092810Y-109315280D01*
X297092810Y-109025280D01*
G37*
G36*
X296092810Y-107410280D02*
G01*
X295330810Y-106267280D01*
X296854810Y-106267280D01*
X296092810Y-107410280D01*
G37*
X296092810Y-107410280D02*
X295330810Y-106267280D01*
X296854810Y-106267280D01*
X296092810Y-107410280D01*
X97067810Y-71975280D02*
X97067810Y-68075280D01*
X95067810Y-71975280D02*
X95067810Y-68075280D01*
X97067810Y-71975280D02*
X95067810Y-71975280D01*
X95067810Y-71975280D02*
X95067810Y-72265280D01*
X95067810Y-72265280D02*
X97067810Y-72265280D01*
X97067810Y-72265280D02*
X97067810Y-71975280D01*
G36*
X97067810Y-71975280D02*
G01*
X95067810Y-71975280D01*
X95067810Y-72265280D01*
X97067810Y-72265280D01*
X97067810Y-71975280D01*
G37*
G36*
X96067810Y-70360280D02*
G01*
X95305810Y-69217280D01*
X96829810Y-69217280D01*
X96067810Y-70360280D01*
G37*
X96067810Y-70360280D02*
X95305810Y-69217280D01*
X96829810Y-69217280D01*
X96067810Y-70360280D01*
X94686560Y-110075280D02*
X94686560Y-106175280D01*
X92686560Y-110075280D02*
X92686560Y-106175280D01*
X94686560Y-110075280D02*
X92686560Y-110075280D01*
X92686560Y-110075280D02*
X92686560Y-110365280D01*
X92686560Y-110365280D02*
X94686560Y-110365280D01*
X94686560Y-110365280D02*
X94686560Y-110075280D01*
G36*
X94686560Y-110075280D02*
G01*
X92686560Y-110075280D01*
X92686560Y-110365280D01*
X94686560Y-110365280D01*
X94686560Y-110075280D01*
G37*
G36*
X93686560Y-108460280D02*
G01*
X92924560Y-107317280D01*
X94448560Y-107317280D01*
X93686560Y-108460280D01*
G37*
X93686560Y-108460280D02*
X92924560Y-107317280D01*
X94448560Y-107317280D01*
X93686560Y-108460280D01*
X130786560Y-107834655D02*
X130786560Y-103934655D01*
X132786560Y-107834655D02*
X132786560Y-103934655D01*
X132786560Y-107834655D02*
X130786560Y-107834655D01*
X130786560Y-107834655D02*
X130786560Y-108124655D01*
X130786560Y-108124655D02*
X132786560Y-108124655D01*
X132786560Y-108124655D02*
X132786560Y-107834655D01*
G36*
X132786560Y-107834655D02*
G01*
X130786560Y-107834655D01*
X130786560Y-108124655D01*
X132786560Y-108124655D01*
X132786560Y-107834655D01*
G37*
G36*
X131786560Y-106219655D02*
G01*
X131024560Y-105076655D01*
X132548560Y-105076655D01*
X131786560Y-106219655D01*
G37*
X131786560Y-106219655D02*
X131024560Y-105076655D01*
X132548560Y-105076655D01*
X131786560Y-106219655D01*
X87542810Y-91025280D02*
X87542810Y-87125280D01*
X85542810Y-91025280D02*
X85542810Y-87125280D01*
X87542810Y-91025280D02*
X85542810Y-91025280D01*
X85542810Y-91025280D02*
X85542810Y-91315280D01*
X85542810Y-91315280D02*
X87542810Y-91315280D01*
X87542810Y-91315280D02*
X87542810Y-91025280D01*
G36*
X87542810Y-91025280D02*
G01*
X85542810Y-91025280D01*
X85542810Y-91315280D01*
X87542810Y-91315280D01*
X87542810Y-91025280D01*
G37*
G36*
X86542810Y-89410280D02*
G01*
X85780810Y-88267280D01*
X87304810Y-88267280D01*
X86542810Y-89410280D01*
G37*
X86542810Y-89410280D02*
X85780810Y-88267280D01*
X87304810Y-88267280D01*
X86542810Y-89410280D01*
X199842810Y-91025280D02*
X199842810Y-87125280D01*
X201842810Y-91025280D02*
X201842810Y-87125280D01*
X201842810Y-91025280D02*
X199842810Y-91025280D01*
X199842810Y-91025280D02*
X199842810Y-91315280D01*
X199842810Y-91315280D02*
X201842810Y-91315280D01*
X201842810Y-91315280D02*
X201842810Y-91025280D01*
G36*
X201842810Y-91025280D02*
G01*
X199842810Y-91025280D01*
X199842810Y-91315280D01*
X201842810Y-91315280D01*
X201842810Y-91025280D01*
G37*
G36*
X200842810Y-89410280D02*
G01*
X200080810Y-88267280D01*
X201604810Y-88267280D01*
X200842810Y-89410280D01*
G37*
X200842810Y-89410280D02*
X200080810Y-88267280D01*
X201604810Y-88267280D01*
X200842810Y-89410280D01*
X125642810Y-110125280D02*
X125642810Y-106225280D01*
X123642810Y-110125280D02*
X123642810Y-106225280D01*
X125642810Y-110125280D02*
X123642810Y-110125280D01*
X123642810Y-110125280D02*
X123642810Y-110415280D01*
X123642810Y-110415280D02*
X125642810Y-110415280D01*
X125642810Y-110415280D02*
X125642810Y-110125280D01*
G36*
X125642810Y-110125280D02*
G01*
X123642810Y-110125280D01*
X123642810Y-110415280D01*
X125642810Y-110415280D01*
X125642810Y-110125280D01*
G37*
G36*
X124642810Y-108510280D02*
G01*
X123880810Y-107367280D01*
X125404810Y-107367280D01*
X124642810Y-108510280D01*
G37*
X124642810Y-108510280D02*
X123880810Y-107367280D01*
X125404810Y-107367280D01*
X124642810Y-108510280D01*
X258992810Y-89975280D02*
X258992810Y-86075280D01*
X256992810Y-89975280D02*
X256992810Y-86075280D01*
X258992810Y-89975280D02*
X256992810Y-89975280D01*
X256992810Y-89975280D02*
X256992810Y-90265280D01*
X256992810Y-90265280D02*
X258992810Y-90265280D01*
X258992810Y-90265280D02*
X258992810Y-89975280D01*
G36*
X258992810Y-89975280D02*
G01*
X256992810Y-89975280D01*
X256992810Y-90265280D01*
X258992810Y-90265280D01*
X258992810Y-89975280D01*
G37*
G36*
X257992810Y-88360280D02*
G01*
X257230810Y-87217280D01*
X258754810Y-87217280D01*
X257992810Y-88360280D01*
G37*
X257992810Y-88360280D02*
X257230810Y-87217280D01*
X258754810Y-87217280D01*
X257992810Y-88360280D01*
X28392810Y-109025280D02*
X28392810Y-105125280D01*
X30392810Y-109025280D02*
X30392810Y-105125280D01*
X30392810Y-109025280D02*
X28392810Y-109025280D01*
X28392810Y-109025280D02*
X28392810Y-109315280D01*
X28392810Y-109315280D02*
X30392810Y-109315280D01*
X30392810Y-109315280D02*
X30392810Y-109025280D01*
G36*
X30392810Y-109025280D02*
G01*
X28392810Y-109025280D01*
X28392810Y-109315280D01*
X30392810Y-109315280D01*
X30392810Y-109025280D01*
G37*
G36*
X29392810Y-107410280D02*
G01*
X28630810Y-106267280D01*
X30154810Y-106267280D01*
X29392810Y-107410280D01*
G37*
X29392810Y-107410280D02*
X28630810Y-106267280D01*
X30154810Y-106267280D01*
X29392810Y-107410280D01*
X228417810Y-70925280D02*
X228417810Y-67025280D01*
X230417810Y-70925280D02*
X230417810Y-67025280D01*
X230417810Y-70925280D02*
X228417810Y-70925280D01*
X228417810Y-70925280D02*
X228417810Y-71215280D01*
X228417810Y-71215280D02*
X230417810Y-71215280D01*
X230417810Y-71215280D02*
X230417810Y-70925280D01*
G36*
X230417810Y-70925280D02*
G01*
X228417810Y-70925280D01*
X228417810Y-71215280D01*
X230417810Y-71215280D01*
X230417810Y-70925280D01*
G37*
G36*
X229417810Y-69310280D02*
G01*
X228655810Y-68167280D01*
X230179810Y-68167280D01*
X229417810Y-69310280D01*
G37*
X229417810Y-69310280D02*
X228655810Y-68167280D01*
X230179810Y-68167280D01*
X229417810Y-69310280D01*
X237942810Y-91025280D02*
X237942810Y-87125280D01*
X239942810Y-91025280D02*
X239942810Y-87125280D01*
X239942810Y-91025280D02*
X237942810Y-91025280D01*
X237942810Y-91025280D02*
X237942810Y-91315280D01*
X237942810Y-91315280D02*
X239942810Y-91315280D01*
X239942810Y-91315280D02*
X239942810Y-91025280D01*
G36*
X239942810Y-91025280D02*
G01*
X237942810Y-91025280D01*
X237942810Y-91315280D01*
X239942810Y-91315280D01*
X239942810Y-91025280D01*
G37*
G36*
X238942810Y-89410280D02*
G01*
X238180810Y-88267280D01*
X239704810Y-88267280D01*
X238942810Y-89410280D01*
G37*
X238942810Y-89410280D02*
X238180810Y-88267280D01*
X239704810Y-88267280D01*
X238942810Y-89410280D01*
X215320935Y-110071280D02*
X215320935Y-106171280D01*
X217320935Y-110071280D02*
X217320935Y-106171280D01*
X217320935Y-110071280D02*
X215320935Y-110071280D01*
X215320935Y-110071280D02*
X215320935Y-110361280D01*
X215320935Y-110361280D02*
X217320935Y-110361280D01*
X217320935Y-110361280D02*
X217320935Y-110071280D01*
G36*
X217320935Y-110071280D02*
G01*
X215320935Y-110071280D01*
X215320935Y-110361280D01*
X217320935Y-110361280D01*
X217320935Y-110071280D01*
G37*
G36*
X216320935Y-108456280D02*
G01*
X215558935Y-107313280D01*
X217082935Y-107313280D01*
X216320935Y-108456280D01*
G37*
X216320935Y-108456280D02*
X215558935Y-107313280D01*
X217082935Y-107313280D01*
X216320935Y-108456280D01*
X218892810Y-89975280D02*
X218892810Y-86075280D01*
X220892810Y-89975280D02*
X220892810Y-86075280D01*
X220892810Y-89975280D02*
X218892810Y-89975280D01*
X218892810Y-89975280D02*
X218892810Y-90265280D01*
X218892810Y-90265280D02*
X220892810Y-90265280D01*
X220892810Y-90265280D02*
X220892810Y-89975280D01*
G36*
X220892810Y-89975280D02*
G01*
X218892810Y-89975280D01*
X218892810Y-90265280D01*
X220892810Y-90265280D01*
X220892810Y-89975280D01*
G37*
G36*
X219892810Y-88360280D02*
G01*
X219130810Y-87217280D01*
X220654810Y-87217280D01*
X219892810Y-88360280D01*
G37*
X219892810Y-88360280D02*
X219130810Y-87217280D01*
X220654810Y-87217280D01*
X219892810Y-88360280D01*
X278042810Y-110075280D02*
X278042810Y-106175280D01*
X276042810Y-110075280D02*
X276042810Y-106175280D01*
X278042810Y-110075280D02*
X276042810Y-110075280D01*
X276042810Y-110075280D02*
X276042810Y-110365280D01*
X276042810Y-110365280D02*
X278042810Y-110365280D01*
X278042810Y-110365280D02*
X278042810Y-110075280D01*
G36*
X278042810Y-110075280D02*
G01*
X276042810Y-110075280D01*
X276042810Y-110365280D01*
X278042810Y-110365280D01*
X278042810Y-110075280D01*
G37*
G36*
X277042810Y-108460280D02*
G01*
X276280810Y-107317280D01*
X277804810Y-107317280D01*
X277042810Y-108460280D01*
G37*
X277042810Y-108460280D02*
X276280810Y-107317280D01*
X277804810Y-107317280D01*
X277042810Y-108460280D01*
X211367810Y-71975280D02*
X211367810Y-68075280D01*
X209367810Y-71975280D02*
X209367810Y-68075280D01*
X211367810Y-71975280D02*
X209367810Y-71975280D01*
X209367810Y-71975280D02*
X209367810Y-72265280D01*
X209367810Y-72265280D02*
X211367810Y-72265280D01*
X211367810Y-72265280D02*
X211367810Y-71975280D01*
G36*
X211367810Y-71975280D02*
G01*
X209367810Y-71975280D01*
X209367810Y-72265280D01*
X211367810Y-72265280D01*
X211367810Y-71975280D01*
G37*
G36*
X210367810Y-70360280D02*
G01*
X209605810Y-69217280D01*
X211129810Y-69217280D01*
X210367810Y-70360280D01*
G37*
X210367810Y-70360280D02*
X209605810Y-69217280D01*
X211129810Y-69217280D01*
X210367810Y-70360280D01*
X247467810Y-71975280D02*
X247467810Y-68075280D01*
X249467810Y-71975280D02*
X249467810Y-68075280D01*
X249467810Y-71975280D02*
X247467810Y-71975280D01*
X247467810Y-71975280D02*
X247467810Y-72265280D01*
X247467810Y-72265280D02*
X249467810Y-72265280D01*
X249467810Y-72265280D02*
X249467810Y-71975280D01*
G36*
X249467810Y-71975280D02*
G01*
X247467810Y-71975280D01*
X247467810Y-72265280D01*
X249467810Y-72265280D01*
X249467810Y-71975280D01*
G37*
G36*
X248467810Y-70360280D02*
G01*
X247705810Y-69217280D01*
X249229810Y-69217280D01*
X248467810Y-70360280D01*
G37*
X248467810Y-70360280D02*
X247705810Y-69217280D01*
X249229810Y-69217280D01*
X248467810Y-70360280D01*
X187555310Y-107834655D02*
X187555310Y-103934655D01*
X185555310Y-107834655D02*
X185555310Y-103934655D01*
X187555310Y-107834655D02*
X185555310Y-107834655D01*
X185555310Y-107834655D02*
X185555310Y-108124655D01*
X185555310Y-108124655D02*
X187555310Y-108124655D01*
X187555310Y-108124655D02*
X187555310Y-107834655D01*
G36*
X187555310Y-107834655D02*
G01*
X185555310Y-107834655D01*
X185555310Y-108124655D01*
X187555310Y-108124655D01*
X187555310Y-107834655D01*
G37*
G36*
X186555310Y-106219655D02*
G01*
X185793310Y-105076655D01*
X187317310Y-105076655D01*
X186555310Y-106219655D01*
G37*
X186555310Y-106219655D02*
X185793310Y-105076655D01*
X187317310Y-105076655D01*
X186555310Y-106219655D01*
X276042810Y-91025280D02*
X276042810Y-87125280D01*
X278042810Y-91025280D02*
X278042810Y-87125280D01*
X278042810Y-91025280D02*
X276042810Y-91025280D01*
X276042810Y-91025280D02*
X276042810Y-91315280D01*
X276042810Y-91315280D02*
X278042810Y-91315280D01*
X278042810Y-91315280D02*
X278042810Y-91025280D01*
G36*
X278042810Y-91025280D02*
G01*
X276042810Y-91025280D01*
X276042810Y-91315280D01*
X278042810Y-91315280D01*
X278042810Y-91025280D01*
G37*
G36*
X277042810Y-89410280D02*
G01*
X276280810Y-88267280D01*
X277804810Y-88267280D01*
X277042810Y-89410280D01*
G37*
X277042810Y-89410280D02*
X276280810Y-88267280D01*
X277804810Y-88267280D01*
X277042810Y-89410280D01*
X49824060Y-70925280D02*
X49824060Y-67025280D01*
X51824060Y-70925280D02*
X51824060Y-67025280D01*
X51824060Y-70925280D02*
X49824060Y-70925280D01*
X49824060Y-70925280D02*
X49824060Y-71215280D01*
X49824060Y-71215280D02*
X51824060Y-71215280D01*
X51824060Y-71215280D02*
X51824060Y-70925280D01*
G36*
X51824060Y-70925280D02*
G01*
X49824060Y-70925280D01*
X49824060Y-71215280D01*
X51824060Y-71215280D01*
X51824060Y-70925280D01*
G37*
G36*
X50824060Y-69310280D02*
G01*
X50062060Y-68167280D01*
X51586060Y-68167280D01*
X50824060Y-69310280D01*
G37*
X50824060Y-69310280D02*
X50062060Y-68167280D01*
X51586060Y-68167280D01*
X50824060Y-69310280D01*
X228417810Y-51875280D02*
X228417810Y-47975280D01*
X230417810Y-51875280D02*
X230417810Y-47975280D01*
X230417810Y-51875280D02*
X228417810Y-51875280D01*
X228417810Y-51875280D02*
X228417810Y-52165280D01*
X228417810Y-52165280D02*
X230417810Y-52165280D01*
X230417810Y-52165280D02*
X230417810Y-51875280D01*
G36*
X230417810Y-51875280D02*
G01*
X228417810Y-51875280D01*
X228417810Y-52165280D01*
X230417810Y-52165280D01*
X230417810Y-51875280D01*
G37*
G36*
X229417810Y-50260280D02*
G01*
X228655810Y-49117280D01*
X230179810Y-49117280D01*
X229417810Y-50260280D01*
G37*
X229417810Y-50260280D02*
X228655810Y-49117280D01*
X230179810Y-49117280D01*
X229417810Y-50260280D01*
X274852185Y-71975280D02*
X274852185Y-68075280D01*
X276852185Y-71975280D02*
X276852185Y-68075280D01*
X276852185Y-71975280D02*
X274852185Y-71975280D01*
X274852185Y-71975280D02*
X274852185Y-72265280D01*
X274852185Y-72265280D02*
X276852185Y-72265280D01*
X276852185Y-72265280D02*
X276852185Y-71975280D01*
G36*
X276852185Y-71975280D02*
G01*
X274852185Y-71975280D01*
X274852185Y-72265280D01*
X276852185Y-72265280D01*
X276852185Y-71975280D01*
G37*
G36*
X275852185Y-70360280D02*
G01*
X275090185Y-69217280D01*
X276614185Y-69217280D01*
X275852185Y-70360280D01*
G37*
X275852185Y-70360280D02*
X275090185Y-69217280D01*
X276614185Y-69217280D01*
X275852185Y-70360280D01*
X97067810Y-52925280D02*
X97067810Y-49025280D01*
X95067810Y-52925280D02*
X95067810Y-49025280D01*
X97067810Y-52925280D02*
X95067810Y-52925280D01*
X95067810Y-52925280D02*
X95067810Y-53215280D01*
X95067810Y-53215280D02*
X97067810Y-53215280D01*
X97067810Y-53215280D02*
X97067810Y-52925280D01*
G36*
X97067810Y-52925280D02*
G01*
X95067810Y-52925280D01*
X95067810Y-53215280D01*
X97067810Y-53215280D01*
X97067810Y-52925280D01*
G37*
G36*
X96067810Y-51310280D02*
G01*
X95305810Y-50167280D01*
X96829810Y-50167280D01*
X96067810Y-51310280D01*
G37*
X96067810Y-51310280D02*
X95305810Y-50167280D01*
X96829810Y-50167280D01*
X96067810Y-51310280D01*
X54586560Y-89975280D02*
X54586560Y-86075280D01*
X56586560Y-89975280D02*
X56586560Y-86075280D01*
X56586560Y-89975280D02*
X54586560Y-89975280D01*
X54586560Y-89975280D02*
X54586560Y-90265280D01*
X54586560Y-90265280D02*
X56586560Y-90265280D01*
X56586560Y-90265280D02*
X56586560Y-89975280D01*
G36*
X56586560Y-89975280D02*
G01*
X54586560Y-89975280D01*
X54586560Y-90265280D01*
X56586560Y-90265280D01*
X56586560Y-89975280D01*
G37*
G36*
X55586560Y-88360280D02*
G01*
X54824560Y-87217280D01*
X56348560Y-87217280D01*
X55586560Y-88360280D01*
G37*
X55586560Y-88360280D02*
X54824560Y-87217280D01*
X56348560Y-87217280D01*
X55586560Y-88360280D01*
X295092810Y-89975280D02*
X295092810Y-86075280D01*
X297092810Y-89975280D02*
X297092810Y-86075280D01*
X297092810Y-89975280D02*
X295092810Y-89975280D01*
X295092810Y-89975280D02*
X295092810Y-90265280D01*
X295092810Y-90265280D02*
X297092810Y-90265280D01*
X297092810Y-90265280D02*
X297092810Y-89975280D01*
G36*
X297092810Y-89975280D02*
G01*
X295092810Y-89975280D01*
X295092810Y-90265280D01*
X297092810Y-90265280D01*
X297092810Y-89975280D01*
G37*
G36*
X296092810Y-88360280D02*
G01*
X295330810Y-87217280D01*
X296854810Y-87217280D01*
X296092810Y-88360280D01*
G37*
X296092810Y-88360280D02*
X295330810Y-87217280D01*
X296854810Y-87217280D01*
X296092810Y-88360280D01*
X49442810Y-110075280D02*
X49442810Y-106175280D01*
X47442810Y-110075280D02*
X47442810Y-106175280D01*
X49442810Y-110075280D02*
X47442810Y-110075280D01*
X47442810Y-110075280D02*
X47442810Y-110365280D01*
X47442810Y-110365280D02*
X49442810Y-110365280D01*
X49442810Y-110365280D02*
X49442810Y-110075280D01*
G36*
X49442810Y-110075280D02*
G01*
X47442810Y-110075280D01*
X47442810Y-110365280D01*
X49442810Y-110365280D01*
X49442810Y-110075280D01*
G37*
G36*
X48442810Y-108460280D02*
G01*
X47680810Y-107317280D01*
X49204810Y-107317280D01*
X48442810Y-108460280D01*
G37*
X48442810Y-108460280D02*
X47680810Y-107317280D01*
X49204810Y-107317280D01*
X48442810Y-108460280D01*
X68492810Y-89975280D02*
X68492810Y-86075280D01*
X66492810Y-89975280D02*
X66492810Y-86075280D01*
X68492810Y-89975280D02*
X66492810Y-89975280D01*
X66492810Y-89975280D02*
X66492810Y-90265280D01*
X66492810Y-90265280D02*
X68492810Y-90265280D01*
X68492810Y-90265280D02*
X68492810Y-89975280D01*
G36*
X68492810Y-89975280D02*
G01*
X66492810Y-89975280D01*
X66492810Y-90265280D01*
X68492810Y-90265280D01*
X68492810Y-89975280D01*
G37*
G36*
X67492810Y-88360280D02*
G01*
X66730810Y-87217280D01*
X68254810Y-87217280D01*
X67492810Y-88360280D01*
G37*
X67492810Y-88360280D02*
X66730810Y-87217280D01*
X68254810Y-87217280D01*
X67492810Y-88360280D01*
X104592810Y-89975280D02*
X104592810Y-86075280D01*
X106592810Y-89975280D02*
X106592810Y-86075280D01*
X106592810Y-89975280D02*
X104592810Y-89975280D01*
X104592810Y-89975280D02*
X104592810Y-90265280D01*
X104592810Y-90265280D02*
X106592810Y-90265280D01*
X106592810Y-90265280D02*
X106592810Y-89975280D01*
G36*
X106592810Y-89975280D02*
G01*
X104592810Y-89975280D01*
X104592810Y-90265280D01*
X106592810Y-90265280D01*
X106592810Y-89975280D01*
G37*
G36*
X105592810Y-88360280D02*
G01*
X104830810Y-87217280D01*
X106354810Y-87217280D01*
X105592810Y-88360280D01*
G37*
X105592810Y-88360280D02*
X104830810Y-87217280D01*
X106354810Y-87217280D01*
X105592810Y-88360280D01*
X125642810Y-91025280D02*
X125642810Y-87125280D01*
X123642810Y-91025280D02*
X123642810Y-87125280D01*
X125642810Y-91025280D02*
X123642810Y-91025280D01*
X123642810Y-91025280D02*
X123642810Y-91315280D01*
X123642810Y-91315280D02*
X125642810Y-91315280D01*
X125642810Y-91315280D02*
X125642810Y-91025280D01*
G36*
X125642810Y-91025280D02*
G01*
X123642810Y-91025280D01*
X123642810Y-91315280D01*
X125642810Y-91315280D01*
X125642810Y-91025280D01*
G37*
G36*
X124642810Y-89410280D02*
G01*
X123880810Y-88267280D01*
X125404810Y-88267280D01*
X124642810Y-89410280D01*
G37*
X124642810Y-89410280D02*
X123880810Y-88267280D01*
X125404810Y-88267280D01*
X124642810Y-89410280D01*
X256611560Y-109025280D02*
X256611560Y-105125280D01*
X254611560Y-109025280D02*
X254611560Y-105125280D01*
X256611560Y-109025280D02*
X254611560Y-109025280D01*
X254611560Y-109025280D02*
X254611560Y-109315280D01*
X254611560Y-109315280D02*
X256611560Y-109315280D01*
X256611560Y-109315280D02*
X256611560Y-109025280D01*
G36*
X256611560Y-109025280D02*
G01*
X254611560Y-109025280D01*
X254611560Y-109315280D01*
X256611560Y-109315280D01*
X256611560Y-109025280D01*
G37*
G36*
X255611560Y-107410280D02*
G01*
X254849560Y-106267280D01*
X256373560Y-106267280D01*
X255611560Y-107410280D01*
G37*
X255611560Y-107410280D02*
X254849560Y-106267280D01*
X256373560Y-106267280D01*
X255611560Y-107410280D01*
X116117810Y-70925280D02*
X116117810Y-67025280D01*
X114117810Y-70925280D02*
X114117810Y-67025280D01*
X116117810Y-70925280D02*
X114117810Y-70925280D01*
X114117810Y-70925280D02*
X114117810Y-71215280D01*
X114117810Y-71215280D02*
X116117810Y-71215280D01*
X116117810Y-71215280D02*
X116117810Y-70925280D01*
G36*
X116117810Y-70925280D02*
G01*
X114117810Y-70925280D01*
X114117810Y-71215280D01*
X116117810Y-71215280D01*
X116117810Y-70925280D01*
G37*
G36*
X115117810Y-69310280D02*
G01*
X114355810Y-68167280D01*
X115879810Y-68167280D01*
X115117810Y-69310280D01*
G37*
X115117810Y-69310280D02*
X114355810Y-68167280D01*
X115879810Y-68167280D01*
X115117810Y-69310280D01*
X180792810Y-109025280D02*
X180792810Y-105125280D01*
X182792810Y-109025280D02*
X182792810Y-105125280D01*
X182792810Y-109025280D02*
X180792810Y-109025280D01*
X180792810Y-109025280D02*
X180792810Y-109315280D01*
X180792810Y-109315280D02*
X182792810Y-109315280D01*
X182792810Y-109315280D02*
X182792810Y-109025280D01*
G36*
X182792810Y-109025280D02*
G01*
X180792810Y-109025280D01*
X180792810Y-109315280D01*
X182792810Y-109315280D01*
X182792810Y-109025280D01*
G37*
G36*
X181792810Y-107410280D02*
G01*
X181030810Y-106267280D01*
X182554810Y-106267280D01*
X181792810Y-107410280D01*
G37*
X181792810Y-107410280D02*
X181030810Y-106267280D01*
X182554810Y-106267280D01*
X181792810Y-107410280D01*
X68874060Y-109025280D02*
X68874060Y-105125280D01*
X70874060Y-109025280D02*
X70874060Y-105125280D01*
X70874060Y-109025280D02*
X68874060Y-109025280D01*
X68874060Y-109025280D02*
X68874060Y-109315280D01*
X68874060Y-109315280D02*
X70874060Y-109315280D01*
X70874060Y-109315280D02*
X70874060Y-109025280D01*
G36*
X70874060Y-109025280D02*
G01*
X68874060Y-109025280D01*
X68874060Y-109315280D01*
X70874060Y-109315280D01*
X70874060Y-109025280D01*
G37*
G36*
X69874060Y-107410280D02*
G01*
X69112060Y-106267280D01*
X70636060Y-106267280D01*
X69874060Y-107410280D01*
G37*
X69874060Y-107410280D02*
X69112060Y-106267280D01*
X70636060Y-106267280D01*
X69874060Y-107410280D01*
X266517810Y-70925280D02*
X266517810Y-67025280D01*
X268517810Y-70925280D02*
X268517810Y-67025280D01*
X268517810Y-70925280D02*
X266517810Y-70925280D01*
X266517810Y-70925280D02*
X266517810Y-71215280D01*
X266517810Y-71215280D02*
X268517810Y-71215280D01*
X268517810Y-71215280D02*
X268517810Y-70925280D01*
G36*
X268517810Y-70925280D02*
G01*
X266517810Y-70925280D01*
X266517810Y-71215280D01*
X268517810Y-71215280D01*
X268517810Y-70925280D01*
G37*
G36*
X267517810Y-69310280D02*
G01*
X266755810Y-68167280D01*
X268279810Y-68167280D01*
X267517810Y-69310280D01*
G37*
X267517810Y-69310280D02*
X266755810Y-68167280D01*
X268279810Y-68167280D01*
X267517810Y-69310280D01*
X61349060Y-91025280D02*
X61349060Y-87125280D01*
X59349060Y-91025280D02*
X59349060Y-87125280D01*
X61349060Y-91025280D02*
X59349060Y-91025280D01*
X59349060Y-91025280D02*
X59349060Y-91315280D01*
X59349060Y-91315280D02*
X61349060Y-91315280D01*
X61349060Y-91315280D02*
X61349060Y-91025280D01*
G36*
X61349060Y-91025280D02*
G01*
X59349060Y-91025280D01*
X59349060Y-91315280D01*
X61349060Y-91315280D01*
X61349060Y-91025280D01*
G37*
G36*
X60349060Y-89410280D02*
G01*
X59587060Y-88267280D01*
X61111060Y-88267280D01*
X60349060Y-89410280D01*
G37*
X60349060Y-89410280D02*
X59587060Y-88267280D01*
X61111060Y-88267280D01*
X60349060Y-89410280D01*
X76017810Y-51875280D02*
X76017810Y-47975280D01*
X78017810Y-51875280D02*
X78017810Y-47975280D01*
X78017810Y-51875280D02*
X76017810Y-51875280D01*
X76017810Y-51875280D02*
X76017810Y-52165280D01*
X76017810Y-52165280D02*
X78017810Y-52165280D01*
X78017810Y-52165280D02*
X78017810Y-51875280D01*
G36*
X78017810Y-51875280D02*
G01*
X76017810Y-51875280D01*
X76017810Y-52165280D01*
X78017810Y-52165280D01*
X78017810Y-51875280D01*
G37*
G36*
X77017810Y-50260280D02*
G01*
X76255810Y-49117280D01*
X77779810Y-49117280D01*
X77017810Y-50260280D01*
G37*
X77017810Y-50260280D02*
X76255810Y-49117280D01*
X77779810Y-49117280D01*
X77017810Y-50260280D01*
X249467810Y-52925280D02*
X249467810Y-49025280D01*
X247467810Y-52925280D02*
X247467810Y-49025280D01*
X249467810Y-52925280D02*
X247467810Y-52925280D01*
X247467810Y-52925280D02*
X247467810Y-53215280D01*
X247467810Y-53215280D02*
X249467810Y-53215280D01*
X249467810Y-53215280D02*
X249467810Y-52925280D01*
G36*
X249467810Y-52925280D02*
G01*
X247467810Y-52925280D01*
X247467810Y-53215280D01*
X249467810Y-53215280D01*
X249467810Y-52925280D01*
G37*
G36*
X248467810Y-51310280D02*
G01*
X247705810Y-50167280D01*
X249229810Y-50167280D01*
X248467810Y-51310280D01*
G37*
X248467810Y-51310280D02*
X247705810Y-50167280D01*
X249229810Y-50167280D01*
X248467810Y-51310280D01*
X230799060Y-110075280D02*
X230799060Y-106175280D01*
X232799060Y-110075280D02*
X232799060Y-106175280D01*
X232799060Y-110075280D02*
X230799060Y-110075280D01*
X230799060Y-110075280D02*
X230799060Y-110365280D01*
X230799060Y-110365280D02*
X232799060Y-110365280D01*
X232799060Y-110365280D02*
X232799060Y-110075280D01*
G36*
X232799060Y-110075280D02*
G01*
X230799060Y-110075280D01*
X230799060Y-110365280D01*
X232799060Y-110365280D01*
X232799060Y-110075280D01*
G37*
G36*
X231799060Y-108460280D02*
G01*
X231037060Y-107317280D01*
X232561060Y-107317280D01*
X231799060Y-108460280D01*
G37*
X231799060Y-108460280D02*
X231037060Y-107317280D01*
X232561060Y-107317280D01*
X231799060Y-108460280D01*
X58967810Y-71975280D02*
X58967810Y-68075280D01*
X56967810Y-71975280D02*
X56967810Y-68075280D01*
X58967810Y-71975280D02*
X56967810Y-71975280D01*
X56967810Y-71975280D02*
X56967810Y-72265280D01*
X56967810Y-72265280D02*
X58967810Y-72265280D01*
X58967810Y-72265280D02*
X58967810Y-71975280D01*
G36*
X58967810Y-71975280D02*
G01*
X56967810Y-71975280D01*
X56967810Y-72265280D01*
X58967810Y-72265280D01*
X58967810Y-71975280D01*
G37*
G36*
X57967810Y-70360280D02*
G01*
X57205810Y-69217280D01*
X58729810Y-69217280D01*
X57967810Y-70360280D01*
G37*
X57967810Y-70360280D02*
X57205810Y-69217280D01*
X58729810Y-69217280D01*
X57967810Y-70360280D01*
%LPC*%
D17*
X230291695Y-84153685D03*
X240451695Y-84153685D03*
D18*
X235371695Y-84153685D03*
D19*
X231561695Y-81613685D03*
X237911695Y-79073685D03*
D18*
X254421775Y-84153685D03*
D17*
X249341775Y-84153685D03*
X259501775Y-84153685D03*
D19*
X250611775Y-81613685D03*
X256961775Y-79073685D03*
D17*
X49315935Y-65103565D03*
X59475935Y-65103565D03*
D18*
X54395935Y-65103565D03*
D19*
X50585935Y-62563565D03*
X56935935Y-60023565D03*
D17*
X107100935Y-84153645D03*
X96940935Y-84153645D03*
D18*
X102020935Y-84153645D03*
D19*
X98210935Y-81613645D03*
X104560935Y-79073645D03*
D17*
X87415935Y-65103565D03*
X97575935Y-65103565D03*
D18*
X92495935Y-65103565D03*
D19*
X88685935Y-62563565D03*
X95035935Y-60023565D03*
D17*
X278552015Y-103203725D03*
D18*
X273472015Y-103203725D03*
D17*
X268392015Y-103203725D03*
D19*
X269662015Y-100663725D03*
X276012015Y-98123725D03*
D18*
X92495935Y-46053485D03*
D17*
X87415935Y-46053485D03*
X97575935Y-46053485D03*
D19*
X88685935Y-43513485D03*
X95035935Y-40973485D03*
D17*
X116625935Y-65103565D03*
D18*
X111545935Y-65103565D03*
D17*
X106465935Y-65103565D03*
D19*
X107735935Y-62563565D03*
X114085935Y-60023565D03*
D18*
X292522095Y-84153685D03*
D17*
X297602095Y-84153685D03*
X287442095Y-84153685D03*
D19*
X288712095Y-81613685D03*
X295062095Y-79073685D03*
D17*
X230926655Y-46053525D03*
X220766655Y-46053525D03*
D18*
X225846655Y-46053525D03*
D19*
X222036655Y-43513525D03*
X228386655Y-40973525D03*
D18*
X225846655Y-65103605D03*
D17*
X230926655Y-65103605D03*
X220766655Y-65103605D03*
D19*
X222036655Y-62563605D03*
X228386655Y-60023605D03*
D18*
X244896735Y-65103605D03*
D17*
X239816735Y-65103605D03*
X249976735Y-65103605D03*
D19*
X241086735Y-62563605D03*
X247436735Y-60023605D03*
D17*
X20740975Y-84153765D03*
D18*
X25820975Y-84153765D03*
D17*
X30900975Y-84153765D03*
D19*
X22010975Y-81613765D03*
X28360975Y-79073765D03*
D17*
X39790975Y-84153765D03*
D18*
X44870975Y-84153765D03*
D17*
X49950975Y-84153765D03*
D19*
X41060975Y-81613765D03*
X47410975Y-79073765D03*
D17*
X211241615Y-84153645D03*
D18*
X216321615Y-84153645D03*
D17*
X221401615Y-84153645D03*
D19*
X212511615Y-81613645D03*
X218861615Y-79073645D03*
D17*
X202351535Y-84153645D03*
D18*
X197271535Y-84153645D03*
D17*
X192191535Y-84153645D03*
D19*
X193461535Y-81613645D03*
X199811535Y-79073645D03*
D17*
X239816735Y-46053525D03*
D18*
X244896735Y-46053525D03*
D17*
X249976735Y-46053525D03*
D19*
X241086735Y-43513525D03*
X247436735Y-40973525D03*
D18*
X121070935Y-84153645D03*
D17*
X126150935Y-84153645D03*
X115990935Y-84153645D03*
D19*
X117260935Y-81613645D03*
X123610935Y-79073645D03*
D17*
X78525935Y-46053485D03*
X68365935Y-46053485D03*
D18*
X73445935Y-46053485D03*
D19*
X69635935Y-43513485D03*
X75985935Y-40973485D03*
D17*
X77890935Y-84153645D03*
D18*
X82970935Y-84153645D03*
D17*
X88050935Y-84153645D03*
D19*
X79160935Y-81613645D03*
X85510935Y-79073645D03*
D18*
X63920935Y-84153645D03*
D17*
X69000935Y-84153645D03*
X58840935Y-84153645D03*
D19*
X60110935Y-81613645D03*
X66460935Y-79073645D03*
D18*
X25820975Y-103203765D03*
D17*
X30900975Y-103203765D03*
X20740975Y-103203765D03*
D19*
X22010975Y-100663765D03*
X28360975Y-98123765D03*
D18*
X90114995Y-103203765D03*
D17*
X95194995Y-103203765D03*
X85034995Y-103203765D03*
D19*
X86304995Y-100663765D03*
X92654995Y-98123765D03*
D17*
X115991375Y-103203765D03*
D18*
X132977625Y-94948765D03*
D20*
X132977625Y-110188765D03*
D18*
X109165125Y-94948765D03*
X121071375Y-103203765D03*
D20*
X109165125Y-110188765D03*
D17*
X126151375Y-103203765D03*
D19*
X117261375Y-100663765D03*
X123611375Y-98123765D03*
D18*
X197270975Y-103203765D03*
D17*
X192190975Y-103203765D03*
D20*
X209177225Y-110188765D03*
X185364725Y-110188765D03*
D17*
X202350975Y-103203765D03*
D18*
X185364725Y-94948765D03*
X209177225Y-94948765D03*
D19*
X193460975Y-100663765D03*
X199810975Y-98123765D03*
D17*
X223147225Y-103203765D03*
X233307225Y-103203765D03*
D18*
X228227225Y-103203765D03*
D19*
X224417225Y-100663765D03*
X230767225Y-98123765D03*
D18*
X287759415Y-65103605D03*
D17*
X292839415Y-65103605D03*
X282679415Y-65103605D03*
D19*
X283949415Y-62563605D03*
X290299415Y-60023605D03*
D18*
X263945975Y-65103765D03*
D17*
X258865975Y-65103765D03*
X269025975Y-65103765D03*
D19*
X260135975Y-62563765D03*
X266485975Y-60023765D03*
D17*
X154725975Y-103203405D03*
D18*
X149645975Y-103203405D03*
D17*
X144565975Y-103203405D03*
D19*
X145835975Y-100663405D03*
X152185975Y-98123405D03*
D17*
X163615975Y-103203765D03*
D18*
X168695975Y-103203765D03*
D17*
X173775975Y-103203765D03*
D19*
X164885975Y-100663765D03*
X171235975Y-98123765D03*
D17*
X27884755Y-65103605D03*
X38044755Y-65103605D03*
D18*
X32964755Y-65103605D03*
D19*
X29154755Y-62563605D03*
X35504755Y-60023605D03*
D17*
X25503475Y-65103765D03*
D18*
X30583475Y-65103765D03*
D17*
X35663475Y-65103765D03*
D19*
X26773475Y-62563765D03*
X33123475Y-60023765D03*
D17*
X39790975Y-103203765D03*
X49950975Y-103203765D03*
D18*
X44870975Y-103203765D03*
D19*
X41060975Y-100663765D03*
X47410975Y-98123765D03*
D18*
X273472015Y-84153685D03*
D17*
X278552015Y-84153685D03*
X268392015Y-84153685D03*
D19*
X269662015Y-81613685D03*
X276012015Y-79073685D03*
D17*
X68365935Y-65103565D03*
X78525935Y-65103565D03*
D18*
X73445935Y-65103565D03*
D19*
X69635935Y-62563565D03*
X75985935Y-60023565D03*
D17*
X287442095Y-103203765D03*
D18*
X292522095Y-103203765D03*
D17*
X297602095Y-103203765D03*
D19*
X288712095Y-100663765D03*
X295062095Y-98123765D03*
D17*
X71382225Y-103203765D03*
X61222225Y-103203765D03*
D18*
X66302225Y-103203765D03*
D19*
X62492225Y-100663765D03*
X68842225Y-98123765D03*
D17*
X201716575Y-65103565D03*
D18*
X206796575Y-65103565D03*
D17*
X211876575Y-65103565D03*
D19*
X202986575Y-62563565D03*
X209336575Y-60023565D03*
D21*
X292522095Y-103203765D03*
D22*
X292522095Y-98703765D03*
D23*
X298122095Y-103203765D03*
D22*
X292522095Y-107703765D03*
D23*
X286922095Y-103203765D03*
D24*
X295022095Y-95703765D03*
X290022095Y-95703765D03*
X292522095Y-95703765D03*
X295022095Y-110203765D03*
X290022095Y-110203765D03*
D18*
X37727185Y-84153405D03*
D17*
X42807185Y-84153405D03*
X32647185Y-84153405D03*
D19*
X41537185Y-86693405D03*
X35187185Y-89233405D03*
D17*
X246959685Y-103203405D03*
D18*
X252039685Y-103203405D03*
D17*
X257119685Y-103203405D03*
D19*
X248229685Y-100663405D03*
X254579685Y-98123405D03*
D25*
X175639685Y-45672155D03*
X177539685Y-44672155D03*
X177539685Y-42672155D03*
X175639685Y-41672155D03*
D26*
X298474060Y-52006530D03*
D27*
X18677185Y-68675280D03*
D25*
X151645935Y-53397155D03*
X150645935Y-51497155D03*
X148645935Y-51497155D03*
X147645935Y-53397155D03*
D21*
X25820975Y-103203765D03*
D22*
X25820975Y-107703765D03*
D23*
X20220975Y-103203765D03*
X31420975Y-103203765D03*
D22*
X25820975Y-98703765D03*
D24*
X28320975Y-95703765D03*
X23320975Y-95703765D03*
X25820975Y-95703765D03*
X28320975Y-110203765D03*
X23320975Y-110203765D03*
D27*
X299664685Y-68675280D03*
D17*
X135041375Y-103203765D03*
X145201375Y-103203765D03*
D18*
X140121375Y-103203765D03*
D19*
X136311375Y-100663765D03*
X142661375Y-98123765D03*
D25*
X175639685Y-34956530D03*
X177539685Y-33956530D03*
X177539685Y-31956530D03*
X175639685Y-30956530D03*
D17*
X196953435Y-103203405D03*
D18*
X202033435Y-103203405D03*
D17*
X207113435Y-103203405D03*
D19*
X198223435Y-100663405D03*
X204573435Y-98123405D03*
D18*
X178220975Y-103203765D03*
D17*
X183300975Y-103203765D03*
X173140975Y-103203765D03*
D19*
X174410975Y-100663765D03*
X180760975Y-98123765D03*
D26*
X19872407Y-20561655D03*
D23*
X164770975Y-103203405D03*
D22*
X159170975Y-107703405D03*
D21*
X159170975Y-103203405D03*
D22*
X159170975Y-98703405D03*
D23*
X153570975Y-103203405D03*
D24*
X161670975Y-95703405D03*
X156670975Y-95703405D03*
X159170975Y-95703405D03*
X161670975Y-110203405D03*
X156670975Y-110203405D03*
D17*
X290457185Y-65103605D03*
X280297185Y-65103605D03*
D18*
X285377185Y-65103605D03*
D19*
X281567185Y-62563605D03*
X287917185Y-60023605D03*
D26*
X159170935Y-20561655D03*
X73445935Y-28194030D03*
X197270935Y-52053405D03*
D28*
X276695935Y-45678365D03*
D29*
X144795935Y-64978365D03*
X207147102Y-103033821D03*
D28*
X276695935Y-45678365D03*
D30*
X279345935Y-44428365D03*
X43095935Y-47028365D03*
X278095935Y-43928365D03*
X40495935Y-46978365D03*
X43745935Y-45678365D03*
X39945935Y-45678365D03*
X275295935Y-47428365D03*
X278095935Y-47428365D03*
X273545935Y-45678365D03*
X274045935Y-44428365D03*
X41845935Y-47578365D03*
D31*
X41845935Y-45678365D03*
D30*
X274045935Y-46928365D03*
X279345935Y-46928365D03*
D32*
X276695935Y-45678365D03*
D30*
X40495935Y-44328365D03*
X43095935Y-44328365D03*
X279845935Y-45678365D03*
X276695935Y-43928365D03*
X41845935Y-43778365D03*
X275295935Y-43928365D03*
X276695935Y-47428365D03*
D25*
X161170935Y-54587780D03*
X160170935Y-52687780D03*
X158170935Y-52687780D03*
X157170935Y-54587780D03*
D17*
X121388435Y-103203405D03*
X111228435Y-103203405D03*
D18*
X116308435Y-103203405D03*
D19*
X112498435Y-100663405D03*
X118848435Y-98123405D03*
D21*
X168695975Y-103203765D03*
D22*
X168695975Y-107703765D03*
X168695975Y-98703765D03*
D23*
X174295975Y-103203765D03*
X163095975Y-103203765D03*
D24*
X171195975Y-95703765D03*
X166195975Y-95703765D03*
X168695975Y-95703765D03*
X171195975Y-110203765D03*
X166195975Y-110203765D03*
D17*
X30265975Y-84153765D03*
D20*
X47252225Y-77168765D03*
D18*
X47252225Y-92408765D03*
X35345975Y-84153765D03*
X23439725Y-92408765D03*
D17*
X40425975Y-84153765D03*
D20*
X23439725Y-77168765D03*
D19*
X31535975Y-81613765D03*
X37885975Y-79073765D03*
D25*
X142702185Y-41672155D03*
X140802185Y-42672155D03*
X140802185Y-44672155D03*
X142702185Y-45672155D03*
X170695935Y-53397155D03*
X169695935Y-51497155D03*
X167695935Y-51497155D03*
X166695935Y-53397155D03*
D26*
X134167810Y-74628405D03*
X244895935Y-28194030D03*
X121070935Y-52006530D03*
X19867810Y-52006530D03*
D17*
X164250975Y-103203765D03*
X154090975Y-103203765D03*
D18*
X159170975Y-103203765D03*
D19*
X155360975Y-100663765D03*
X161710975Y-98123765D03*
D23*
X155245975Y-103203405D03*
D22*
X149645975Y-98703405D03*
X149645975Y-107703405D03*
D23*
X144045975Y-103203405D03*
D21*
X149645975Y-103203405D03*
D24*
X152145975Y-95703405D03*
X147145975Y-95703405D03*
X149645975Y-95703405D03*
X152145975Y-110203405D03*
X147145975Y-110203405D03*
D26*
X298474060Y-20561655D03*
X184174060Y-74628405D03*
D33*
X24820935Y-25860405D03*
X26820935Y-25860405D03*
D34*
X288733435Y-49625280D03*
X290033435Y-49625280D03*
X291333435Y-49625280D03*
D35*
X38123935Y-31194405D03*
X36123935Y-31194405D03*
D36*
X58701433Y-43215153D03*
X57234187Y-41747907D03*
D37*
X82970935Y-27003405D03*
D25*
X82970935Y-24463405D03*
D38*
X104402185Y-100822155D03*
X199652185Y-75819030D03*
X261564685Y-103203405D03*
X36536560Y-103203405D03*
X46061560Y-73437780D03*
X284186560Y-88915905D03*
X286567810Y-92487780D03*
D39*
X41650165Y-33085385D03*
X43117411Y-34552631D03*
D40*
X50773413Y-27331023D03*
X48722803Y-29381633D03*
X47096457Y-27755287D03*
X49147067Y-25704677D03*
D39*
X44629437Y-30381407D03*
X46096683Y-31848653D03*
X60012312Y-26142782D03*
X61479558Y-27610028D03*
D41*
X63653153Y-35605562D03*
X65120399Y-34138316D03*
D42*
X55730310Y-52090905D03*
D25*
X55730310Y-49550905D03*
X53190310Y-52090905D03*
X53190310Y-49550905D03*
X50650310Y-52090905D03*
X50650310Y-49550905D03*
D34*
X27283435Y-49625280D03*
X28583435Y-49625280D03*
X29883435Y-49625280D03*
D27*
X111545935Y-22028365D03*
X206795935Y-22028365D03*
D43*
X45167810Y-20431155D03*
X42192810Y-20431155D03*
D27*
X100495935Y-107628365D03*
D35*
X44680310Y-23225155D03*
X42680310Y-23225155D03*
D38*
X218702185Y-100822155D03*
X159170935Y-32956530D03*
D44*
X25197935Y-19788405D03*
D45*
X26897935Y-19788405D03*
X26897935Y-22788405D03*
X24997935Y-22788405D03*
D44*
X40595975Y-63148765D03*
X40595975Y-69448765D03*
X44395975Y-69448765D03*
X44395975Y-63148765D03*
D46*
X44582044Y-36017264D03*
X45996258Y-37431478D03*
D47*
X65626828Y-37521262D03*
X67041042Y-36107048D03*
D36*
X53240433Y-24704903D03*
X51773187Y-23237657D03*
D38*
X281805310Y-100822155D03*
X80589685Y-102012780D03*
X80589685Y-98440905D03*
D27*
X240395935Y-107628365D03*
D38*
X149645935Y-32956530D03*
X149645935Y-29384655D03*
X55586560Y-73437780D03*
D48*
X95070935Y-22248405D03*
X95070935Y-23518405D03*
X95070935Y-24788405D03*
X95070935Y-26058405D03*
X89920935Y-26058405D03*
X89920935Y-24788405D03*
X89920935Y-23518405D03*
X89920935Y-22248405D03*
D33*
X77779935Y-27003405D03*
X79779935Y-27003405D03*
X77779935Y-24590405D03*
X79779935Y-24590405D03*
D49*
X31845935Y-23418365D03*
X32695935Y-23418365D03*
X33545935Y-23418365D03*
X34395935Y-23418365D03*
X35245935Y-23418365D03*
X36095935Y-23418365D03*
X36945935Y-23418365D03*
X37795935Y-23418365D03*
X37795935Y-22068365D03*
X36945935Y-22068365D03*
X36095935Y-22068365D03*
X35245935Y-22068365D03*
X34395935Y-22068365D03*
X33545935Y-22068365D03*
X32695935Y-22068365D03*
X31845935Y-22068365D03*
D50*
X39145935Y-22438365D03*
D51*
X30495935Y-19058365D03*
D50*
X30495935Y-22438365D03*
D51*
X39145935Y-19058365D03*
D39*
X49090312Y-40874782D03*
X50557558Y-42342028D03*
D35*
X38123935Y-28654405D03*
X36123935Y-28654405D03*
D38*
X129405310Y-100822155D03*
X159170935Y-29384655D03*
D42*
X292558435Y-53197155D03*
D25*
X290018435Y-53197155D03*
X287478435Y-53197155D03*
D38*
X80589685Y-105584655D03*
D52*
X54950164Y-38319085D03*
X54596611Y-37965532D03*
X54243057Y-37611978D03*
X53889504Y-37258425D03*
X53535950Y-36904871D03*
X53182397Y-36551318D03*
X52828844Y-36197765D03*
X52475290Y-35844211D03*
X52121737Y-35490658D03*
X51768183Y-35137104D03*
X51414630Y-34783551D03*
D53*
X51414630Y-33510759D03*
X51768183Y-33157206D03*
X52121737Y-32803652D03*
X52475290Y-32450099D03*
X52828844Y-32096545D03*
X53182397Y-31742992D03*
X53535950Y-31389439D03*
X53889504Y-31035885D03*
X54243057Y-30682332D03*
X54596611Y-30328778D03*
X54950164Y-29975225D03*
D52*
X56222956Y-29975225D03*
X56576509Y-30328778D03*
X56930063Y-30682332D03*
X57283616Y-31035885D03*
X57637170Y-31389439D03*
X57990723Y-31742992D03*
X58344276Y-32096545D03*
X58697830Y-32450099D03*
X59051383Y-32803652D03*
X59404937Y-33157206D03*
X59758490Y-33510759D03*
D53*
X59758490Y-34783551D03*
X59404937Y-35137104D03*
X59051383Y-35490658D03*
X58697830Y-35844211D03*
X58344276Y-36197765D03*
X57990723Y-36551318D03*
X57637170Y-36904871D03*
X57283616Y-37258425D03*
X56930063Y-37611978D03*
X56576509Y-37965532D03*
X56222956Y-38319085D03*
D54*
X54676160Y-35967955D03*
X53765760Y-35057555D03*
X56496960Y-32326355D03*
X56496960Y-35967955D03*
X55586560Y-33236755D03*
X55586560Y-36878355D03*
X57407360Y-35057555D03*
X53765760Y-33236755D03*
X55586560Y-35057555D03*
X55586560Y-31415955D03*
X56496960Y-34147155D03*
X58317760Y-34147155D03*
X54676160Y-32326355D03*
X52855360Y-34147155D03*
X57407360Y-33236755D03*
X54676160Y-34147155D03*
D55*
X77017810Y-70325280D03*
X77017810Y-67025280D03*
X296092810Y-108425280D03*
X296092810Y-105125280D03*
X96067810Y-71375280D03*
X96067810Y-68075280D03*
X93686560Y-109475280D03*
X93686560Y-106175280D03*
X131786560Y-107234655D03*
X131786560Y-103934655D03*
X86542810Y-90425280D03*
X86542810Y-87125280D03*
X200842810Y-90425280D03*
X200842810Y-87125280D03*
X124642810Y-109525280D03*
X124642810Y-106225280D03*
X257992810Y-89375280D03*
X257992810Y-86075280D03*
X29392810Y-108425280D03*
X29392810Y-105125280D03*
X229417810Y-70325280D03*
X229417810Y-67025280D03*
X238942810Y-90425280D03*
X238942810Y-87125280D03*
X216320935Y-109471280D03*
X216320935Y-106171280D03*
X219892810Y-89375280D03*
X219892810Y-86075280D03*
X277042810Y-109475280D03*
X277042810Y-106175280D03*
X210367810Y-71375280D03*
X210367810Y-68075280D03*
X248467810Y-71375280D03*
X248467810Y-68075280D03*
X186555310Y-107234655D03*
X186555310Y-103934655D03*
X277042810Y-90425280D03*
X277042810Y-87125280D03*
X50824060Y-70325280D03*
X50824060Y-67025280D03*
X229417810Y-51275280D03*
X229417810Y-47975280D03*
X275852185Y-71375280D03*
X275852185Y-68075280D03*
X96067810Y-52325280D03*
X96067810Y-49025280D03*
X55586560Y-89375280D03*
X55586560Y-86075280D03*
X296092810Y-89375280D03*
X296092810Y-86075280D03*
X48442810Y-109475280D03*
X48442810Y-106175280D03*
X67492810Y-89375280D03*
X67492810Y-86075280D03*
X105592810Y-89375280D03*
X105592810Y-86075280D03*
X124642810Y-90425280D03*
X124642810Y-87125280D03*
X255611560Y-108425280D03*
X255611560Y-105125280D03*
X115117810Y-70325280D03*
X115117810Y-67025280D03*
X181792810Y-108425280D03*
X181792810Y-105125280D03*
X69874060Y-108425280D03*
X69874060Y-105125280D03*
X267517810Y-70325280D03*
X267517810Y-67025280D03*
X60349060Y-90425280D03*
X60349060Y-87125280D03*
X77017810Y-51275280D03*
X77017810Y-47975280D03*
X248467810Y-52325280D03*
X248467810Y-49025280D03*
X231799060Y-109475280D03*
X231799060Y-106175280D03*
X57967810Y-71375280D03*
X57967810Y-68075280D03*
M02*
