M48
; DRILL file {KiCad 7.0.1-0} date 2023 April 11, Tuesday 07:48:09
; FORMAT={-:-/ absolute / metric / decimal}
; #@! TF.CreationDate,2023-04-11T07:48:09+09:00
; #@! TF.GenerationSoftware,Kicad,Pcbnew,7.0.1-0
; #@! TF.FileFunction,Plated,1,2,PTH
FMAT,2
METRIC
; #@! TA.AperFunction,Plated,PTH,ViaDrill
T1C0.400
; #@! TA.AperFunction,Plated,PTH,ComponentDrill
T2C0.400
; #@! TA.AperFunction,Plated,PTH,ComponentDrill
T3C0.500
; #@! TA.AperFunction,Plated,PTH,ComponentDrill
T4C0.600
; #@! TA.AperFunction,Plated,PTH,ComponentDrill
T5C0.700
; #@! TA.AperFunction,Plated,PTH,ComponentDrill
T6C1.000
; #@! TA.AperFunction,Plated,PTH,ComponentDrill
T7C2.200
; #@! TA.AperFunction,Plated,PTH,ComponentDrill
T8C2.400
; #@! TA.AperFunction,Plated,PTH,ComponentDrill
T9C2.499
%
G90
G05
T1
X17.439Y-23.193
X17.479Y-49.117
X17.487Y-69.866
X17.487Y-36.528
X17.487Y-55.197
X17.487Y-78.438
X17.487Y-93.678
X18.4Y-111.4
X19.344Y-60.5
X19.852Y-63.198
X19.868Y-56.769
X19.961Y-58.976
X20.037Y-61.037
X22.646Y-18.669
X22.924Y-56.785
X23.662Y-108.41
X23.796Y-56.657
X25.896Y-60.078
X25.896Y-73.278
X27.0Y-111.458
X27.096Y-81.328
X27.7Y-100.6
X28.488Y-19.002
X28.488Y-22.558
X29.146Y-92.128
X30.583Y-70.564
X30.8Y-100.9
X31.6Y-54.5
X32.044Y-18.24
X33.296Y-25.478
X33.396Y-82.778
X33.822Y-30.432
X36.296Y-24.478
X36.296Y-26.978
X37.289Y-41.519
X37.632Y-18.24
X37.668Y-67.644
X37.727Y-111.538
X37.796Y-81.578
X37.796Y-100.678
X38.896Y-73.278
X39.396Y-33.178
X39.41Y-31.194
X39.41Y-29.924
X40.934Y-20.145
X40.996Y-29.978
X41.296Y-23.978
X41.95Y-102.822
X42.496Y-36.278
X42.496Y-66.299
X42.9Y-54.5
X44.396Y-61.468
X45.2Y-38.6
X45.288Y-39.588
X45.396Y-58.878
X45.9Y-55.6
X46.096Y-64.678
X46.496Y-60.478
X46.776Y-20.177
X46.776Y-109.426
X46.896Y-49.878
X47.028Y-35.868
X47.296Y-62.578
X47.796Y-39.878
X48.884Y-39.375
X49.896Y-54.378
X50.586Y-47.704
X50.596Y-44.378
X50.824Y-68.675
X50.896Y-55.893
X51.538Y-59.578
X51.983Y-42.307
X52.036Y-37.051
X52.856Y-38.468
X53.416Y-39.673
X53.549Y-38.881
X53.55Y-57.372
X53.81Y-40.478
X53.888Y-47.654
X54.142Y-84.788
X54.396Y-18.669
X54.396Y-110.95
X54.6Y-54.5
X54.608Y-42.616
X54.886Y-71.58
X55.412Y-41.735
X55.514Y-43.259
X55.514Y-46.282
X55.587Y-105.585
X55.587Y-87.725
X55.999Y-40.513
X56.155Y-55.893
X56.296Y-24.336
X57.238Y-39.021
X58.206Y-55.1
X58.46Y-21.288
X59.476Y-28.4
X60.096Y-51.678
X60.196Y-48.339
X60.196Y-62.778
X60.296Y-45.478
X60.492Y-21.288
X60.492Y-69.294
X60.746Y-35.766
X61.142Y-70.325
X61.142Y-45.434
X61.944Y-45.481
X62.016Y-34.496
X62.033Y-71.375
X62.746Y-45.478
X63.549Y-45.478
X63.6Y-80.9
X64.496Y-45.478
X64.556Y-75.644
X65.064Y-39.83
X65.318Y-51.26
X65.318Y-57.307
X65.948Y-53.546
X66.08Y-28.478
X66.08Y-35.163
X66.361Y-62.564
X66.821Y-46.279
X66.821Y-55.389
X67.096Y-25.178
X67.223Y-21.288
X67.383Y-72.293
X67.796Y-48.878
X68.62Y-36.528
X68.62Y-100.536
X70.144Y-93.678
X70.296Y-28.978
X70.652Y-81.486
X71.396Y-22.578
X72.596Y-91.978
X72.684Y-110.95
X73.096Y-91.278
X73.446Y-18.669
X73.446Y-59.134
X73.487Y-78.397
X73.7Y-42.624
X73.796Y-90.878
X74.496Y-107.235
X74.97Y-53.292
X75.196Y-108.425
X75.296Y-25.178
X75.886Y-81.614
X76.457Y-88.344
X76.494Y-35.893
X76.8Y-21.2
X76.896Y-38.278
X77.13Y-34.75
X77.383Y-35.893
X77.5Y-24.59
X77.5Y-26.813
X77.796Y-29.978
X78.031Y-33.87
X78.193Y-21.221
X78.273Y-35.003
X78.546Y-63.228
X80.396Y-34.278
X82.558Y-52.329
X82.971Y-100.822
X84.114Y-53.8
X87.924Y-23.828
X89.194Y-21.288
X89.924Y-20.177
X90.083Y-89.392
X90.713Y-90.413
X90.718Y-96.726
X91.496Y-88.078
X91.5Y-59.4
X91.928Y-87.046
X92.496Y-18.669
X92.496Y-110.95
X92.75Y-34.242
X92.796Y-29.978
X93.131Y-73.866
X94.936Y-81.6
X95.036Y-62.69
X96.052Y-69.294
X96.5Y-53.9
X97.496Y-106.878
X98.552Y-54.859
X99.996Y-53.278
X103.164Y-93.678
X104.461Y-62.564
X105.196Y-106.678
X109.26Y-72.342
X111.196Y-86.678
X111.546Y-18.669
X111.546Y-34.242
X111.546Y-111.538
X111.796Y-29.978
X111.796Y-59.478
X113.578Y-69.294
X118.15Y-53.546
X118.296Y-23.478
X118.69Y-30.575
X118.69Y-46.053
X122.262Y-27.003
X123.452Y-49.625
X123.992Y-53.546
X128.169Y-68.291
X129.326Y-84.28
X130.212Y-93.503
X130.596Y-18.669
X130.596Y-72.323
X130.596Y-111.538
X134.168Y-27.003
X134.168Y-49.625
X136.438Y-72.342
X136.9Y-103.4
X136.946Y-22.558
X137.74Y-46.053
X138.089Y-39.449
X139.296Y-59.478
X140.896Y-86.678
X141.127Y-54.859
X142.153Y-28.781
X142.354Y-92.508
X142.596Y-55.389
X142.788Y-47.958
X144.439Y-32.337
X144.439Y-39.449
X144.596Y-51.778
X144.7Y-40.9
X144.82Y-46.434
X144.883Y-111.538
X147.614Y-47.196
X148.376Y-69.294
X149.596Y-58.112
X149.773Y-30.813
X150.154Y-57.482
X150.471Y-48.021
X150.696Y-103.278
X152.086Y-100.664
X152.096Y-109.078
X153.075Y-48.593
X153.4Y-94.5
X153.456Y-53.949
X155.096Y-91.5
X155.742Y-18.669
X155.869Y-31.829
X155.869Y-40.211
X156.4Y-59.6
X158.155Y-43.259
X158.409Y-26.749
X159.806Y-72.342
X159.933Y-41.227
X160.06Y-111.538
X160.796Y-86.678
X161.965Y-36.147
X161.965Y-50.625
X162.6Y-18.669
X162.854Y-55.832
X163.743Y-31.321
X163.87Y-95.456
X163.997Y-40.719
X164.251Y-50.371
X164.886Y-55.832
X164.949Y-88.567
X165.496Y-109.278
X166.156Y-88.762
X167.045Y-26.749
X167.428Y-91.047
X167.505Y-104.078
X169.396Y-91.978
X170.196Y-59.627
X170.474Y-48.72
X171.871Y-31.575
X172.125Y-40.465
X173.014Y-111.538
X173.141Y-35.893
X173.522Y-46.18
X173.522Y-69.294
X174.284Y-53.478
X176.697Y-38.941
X176.896Y-93.178
X178.896Y-88.178
X179.947Y-55.832
X180.602Y-30.575
X180.634Y-38.306
X181.65Y-72.342
X181.793Y-48.435
X182.4Y-94.6
X182.796Y-53.478
X184.174Y-27.003
X184.174Y-49.625
X185.696Y-59.678
X186.796Y-69.478
X186.984Y-72.342
X187.746Y-18.669
X187.9Y-111.538
X187.996Y-59.678
X188.896Y-89.392
X189.375Y-70.321
X189.496Y-90.417
X190.2Y-81.6
X190.2Y-92.6
X190.626Y-71.381
X191.696Y-88.178
X194.296Y-53.478
X194.89Y-27.003
X194.89Y-49.625
X194.9Y-100.7
X198.796Y-59.978
X199.652Y-30.575
X199.652Y-38.91
X199.652Y-46.053
X200.296Y-53.478
X200.796Y-58.978
X201.796Y-69.478
X202.033Y-99.632
X204.002Y-72.342
X206.796Y-18.669
X206.796Y-111.538
X207.05Y-92.916
X207.296Y-58.978
X209.237Y-81.614
X210.066Y-33.988
X210.066Y-36.528
X211.114Y-106.378
X214.496Y-88.178
X218.796Y-55.202
X218.796Y-62.578
X220.766Y-69.548
X221.698Y-48.755
X222.122Y-106.605
X223.796Y-53.197
X224.068Y-72.342
X224.322Y-58.978
X225.846Y-18.669
X225.846Y-111.204
X226.296Y-59.978
X229.402Y-52.689
X229.457Y-56.867
X230.418Y-92.916
X230.672Y-100.282
X234.1Y-105.4
X234.896Y-88.178
X235.372Y-33.989
X235.372Y-36.529
X237.784Y-106.124
X238.546Y-58.626
X239.562Y-69.548
X240.07Y-111.204
X241.848Y-26.622
X242.796Y-54.314
X243.196Y-106.124
X243.4Y-103.1
X244.896Y-18.669
X247.944Y-26.622
X248.4Y-107.2
X248.452Y-53.578
X248.452Y-56.837
X249.468Y-92.916
X254.196Y-88.178
X256.8Y-54.77
X256.861Y-62.564
X257.691Y-33.988
X257.691Y-36.528
X259.12Y-69.548
X261.152Y-54.184
X261.152Y-58.88
X261.152Y-72.342
X263.946Y-18.669
X263.946Y-111.204
X264.454Y-101.806
X264.996Y-92.978
X265.216Y-61.674
X265.724Y-107.394
X266.387Y-81.614
X266.387Y-100.664
X267.896Y-92.978
X269.28Y-26.622
X272.0Y-55.4
X273.852Y-57.397
X275.884Y-69.802
X275.9Y-63.2
X275.9Y-66.8
X277.154Y-107.394
X278.163Y-60.398
X278.233Y-34.147
X278.424Y-67.008
X278.678Y-109.426
X281.805Y-38.91
X282.435Y-88.26
X282.996Y-18.669
X282.996Y-111.538
X284.096Y-92.916
X284.52Y-53.038
X285.437Y-100.664
X285.437Y-81.614
X285.6Y-106.8
X290.108Y-47.323
X290.2Y-98.2
X290.996Y-92.378
X293.664Y-49.482
X294.603Y-56.772
X294.7Y-100.8
X294.7Y-108.2
X294.896Y-76.678
X294.902Y-18.669
X295.296Y-56.078
X295.796Y-54.478
X296.196Y-70.278
X298.236Y-60.912
X298.49Y-57.61
X298.49Y-58.88
X299.665Y-111.538
X300.164Y-59.833
X300.268Y-65.23
X300.776Y-55.07
X300.796Y-23.878
X300.796Y-78.678
X300.855Y-36.528
X300.855Y-49.117
X300.855Y-93.678
T2
X31.846Y-22.068
X31.846Y-23.418
X32.696Y-22.068
X32.696Y-23.418
X33.546Y-22.068
X33.546Y-23.418
X34.396Y-22.068
X34.396Y-23.418
X35.246Y-22.068
X35.246Y-23.418
X36.096Y-22.068
X36.096Y-23.418
X36.946Y-22.068
X36.946Y-23.418
X37.796Y-22.068
X37.796Y-23.418
T3
X39.946Y-45.678
X40.496Y-44.328
X40.496Y-46.978
X41.846Y-43.778
X41.846Y-47.578
X43.096Y-44.328
X43.096Y-47.028
X43.746Y-45.678
X273.546Y-45.678
X274.046Y-44.428
X274.046Y-46.928
X275.296Y-43.928
X275.296Y-47.428
X276.696Y-43.928
X276.696Y-47.428
X278.096Y-43.928
X278.096Y-47.428
X279.346Y-44.428
X279.346Y-46.928
X279.846Y-45.678
T6
X37.727Y-109.078
X44.871Y-109.157
X48.6Y-73.4
X50.65Y-49.551
X50.65Y-52.091
X53.19Y-49.551
X53.19Y-52.091
X55.587Y-73.438
X55.73Y-49.551
X55.73Y-52.091
X79.696Y-97.578
X80.4Y-106.6
X84.0Y-24.46
X84.0Y-27.0
X104.402Y-100.822
X129.405Y-100.822
X140.802Y-42.672
X140.802Y-44.672
X142.702Y-41.672
X142.702Y-45.672
X144.883Y-28.194
X147.646Y-53.397
X148.455Y-28.194
X148.646Y-51.497
X150.646Y-51.497
X151.646Y-53.397
X152.027Y-28.194
X155.599Y-28.194
X157.171Y-54.588
X158.171Y-52.688
X160.171Y-52.688
X161.171Y-54.588
X166.696Y-53.397
X167.696Y-51.497
X169.696Y-51.497
X170.696Y-53.397
X175.64Y-30.957
X175.64Y-34.957
X175.64Y-41.672
X175.64Y-45.672
X177.54Y-31.957
X177.54Y-33.957
X177.54Y-42.672
X177.54Y-44.672
X199.652Y-75.819
X216.3Y-100.7
X261.565Y-103.203
X281.805Y-100.822
X287.478Y-53.197
X288.496Y-91.578
X290.018Y-53.197
X291.596Y-89.378
X292.558Y-53.197
T7
X19.868Y-52.007
X19.872Y-20.562
X73.446Y-28.194
X121.071Y-52.007
X134.168Y-74.628
X159.171Y-20.562
X184.174Y-74.628
X197.271Y-52.053
X244.896Y-28.194
X298.474Y-20.562
X298.474Y-52.007
T9
X41.846Y-45.678
T4
X30.496Y-18.658G85X30.496Y-19.458
G05
X30.496Y-21.688G85X30.496Y-23.188
G05
X39.146Y-18.658G85X39.146Y-19.458
G05
X39.146Y-21.688G85X39.146Y-23.188
G05
T5
X23.171Y-95.704G85X23.471Y-95.704
G05
X23.171Y-110.204G85X23.471Y-110.204
G05
X25.671Y-95.704G85X25.971Y-95.704
G05
X28.171Y-95.704G85X28.471Y-95.704
G05
X28.171Y-110.204G85X28.471Y-110.204
G05
X156.521Y-95.703G85X156.821Y-95.703
G05
X156.521Y-110.203G85X156.821Y-110.203
G05
X159.021Y-95.703G85X159.321Y-95.703
G05
X161.521Y-95.703G85X161.821Y-95.703
G05
X161.521Y-110.203G85X161.821Y-110.203
G05
X289.872Y-95.704G85X290.172Y-95.704
G05
X289.872Y-110.204G85X290.172Y-110.204
G05
X292.372Y-95.704G85X292.672Y-95.704
G05
X294.872Y-95.704G85X295.172Y-95.704
G05
X294.872Y-110.204G85X295.172Y-110.204
G05
T8
X275.296Y-45.678G85X278.096Y-45.678
G05
T0
M30
