G04 #@! TF.GenerationSoftware,KiCad,Pcbnew,(6.0.10-0)*
G04 #@! TF.CreationDate,2023-02-22T14:56:28+09:00*
G04 #@! TF.ProjectId,Sandy_Base,53616e64-795f-4426-9173-652e6b696361,v.0*
G04 #@! TF.SameCoordinates,Original*
G04 #@! TF.FileFunction,Soldermask,Bot*
G04 #@! TF.FilePolarity,Negative*
%FSLAX46Y46*%
G04 Gerber Fmt 4.6, Leading zero omitted, Abs format (unit mm)*
G04 Created by KiCad (PCBNEW (6.0.10-0)) date 2023-02-22 14:56:28*
%MOMM*%
%LPD*%
G01*
G04 APERTURE LIST*
G04 Aperture macros list*
%AMRoundRect*
0 Rectangle with rounded corners*
0 $1 Rounding radius*
0 $2 $3 $4 $5 $6 $7 $8 $9 X,Y pos of 4 corners*
0 Add a 4 corners polygon primitive as box body*
4,1,4,$2,$3,$4,$5,$6,$7,$8,$9,$2,$3,0*
0 Add four circle primitives for the rounded corners*
1,1,$1+$1,$2,$3*
1,1,$1+$1,$4,$5*
1,1,$1+$1,$6,$7*
1,1,$1+$1,$8,$9*
0 Add four rect primitives between the rounded corners*
20,1,$1+$1,$2,$3,$4,$5,0*
20,1,$1+$1,$4,$5,$6,$7,0*
20,1,$1+$1,$6,$7,$8,$9,0*
20,1,$1+$1,$8,$9,$2,$3,0*%
G04 Aperture macros list end*
%ADD10C,2.150000*%
%ADD11C,4.387800*%
%ADD12C,2.650000*%
%ADD13C,3.448000*%
%ADD14C,2.500000*%
%ADD15O,2.000000X2.300000*%
%ADD16O,1.900000X3.200000*%
%ADD17O,2.000000X1.700000*%
%ADD18O,2.100000X2.100000*%
%ADD19C,4.800000*%
%ADD20C,2.600000*%
%ADD21O,5.600000X2.800000*%
%ADD22O,9.400000X7.900000*%
%ADD23C,1.400000*%
%ADD24C,5.200000*%
%ADD25O,7.800000X5.000000*%
%ADD26RoundRect,0.450000X-0.350000X-0.450000X0.350000X-0.450000X0.350000X0.450000X-0.350000X0.450000X0*%
%ADD27RoundRect,0.200000X-0.500000X-0.750000X0.500000X-0.750000X0.500000X0.750000X-0.500000X0.750000X0*%
%ADD28RoundRect,0.450000X0.350000X0.450000X-0.350000X0.450000X-0.350000X-0.450000X0.350000X-0.450000X0*%
%ADD29RoundRect,0.450000X0.574524X0.097227X0.097227X0.574524X-0.574524X-0.097227X-0.097227X-0.574524X0*%
%ADD30RoundRect,0.200000X-0.850000X-0.850000X0.850000X-0.850000X0.850000X0.850000X-0.850000X0.850000X0*%
%ADD31C,2.400000*%
%ADD32RoundRect,0.450000X-0.574524X-0.097227X-0.097227X-0.574524X0.574524X0.097227X0.097227X0.574524X0*%
%ADD33RoundRect,0.200000X0.106066X1.378858X-1.378858X-0.106066X-0.106066X-1.378858X1.378858X0.106066X0*%
%ADD34RoundRect,0.450000X0.097227X-0.574524X0.574524X-0.097227X-0.097227X0.574524X-0.574524X0.097227X0*%
%ADD35RoundRect,0.200000X0.850000X-0.850000X0.850000X0.850000X-0.850000X0.850000X-0.850000X-0.850000X0*%
%ADD36RoundRect,0.450001X0.462499X0.624999X-0.462499X0.624999X-0.462499X-0.624999X0.462499X-0.624999X0*%
%ADD37RoundRect,0.200000X-0.500000X0.850000X-0.500000X-0.850000X0.500000X-0.850000X0.500000X0.850000X0*%
%ADD38RoundRect,0.200000X-0.300000X0.850000X-0.300000X-0.850000X0.300000X-0.850000X0.300000X0.850000X0*%
%ADD39RoundRect,0.450000X-0.565685X-0.070711X-0.070711X-0.565685X0.565685X0.070711X0.070711X0.565685X0*%
%ADD40RoundRect,0.450000X0.070711X-0.565685X0.565685X-0.070711X-0.070711X0.565685X-0.565685X0.070711X0*%
%ADD41RoundRect,0.350000X0.725000X0.150000X-0.725000X0.150000X-0.725000X-0.150000X0.725000X-0.150000X0*%
%ADD42C,1.100000*%
%ADD43O,1.300000X2.800000*%
%ADD44O,1.300000X2.100000*%
%ADD45RoundRect,0.200000X-0.159099X-0.335876X0.335876X0.159099X0.159099X0.335876X-0.335876X-0.159099X0*%
%ADD46RoundRect,0.200000X-0.335876X0.159099X0.159099X-0.335876X0.335876X-0.159099X-0.159099X0.335876X0*%
%ADD47RoundRect,0.200000X0.000000X-0.910400X0.910400X0.000000X0.000000X0.910400X-0.910400X0.000000X0*%
%ADD48RoundRect,0.200000X0.600000X-0.450000X0.600000X0.450000X-0.600000X0.450000X-0.600000X-0.450000X0*%
G04 APERTURE END LIST*
D10*
X230291695Y-84153685D03*
X240451695Y-84153685D03*
D11*
X235371695Y-84153685D03*
D12*
X231561695Y-81613685D03*
X237911695Y-79073685D03*
D11*
X254421775Y-84153685D03*
D10*
X249341775Y-84153685D03*
X259501775Y-84153685D03*
D12*
X250611775Y-81613685D03*
X256961775Y-79073685D03*
D10*
X49315935Y-65103565D03*
X59475935Y-65103565D03*
D11*
X54395935Y-65103565D03*
D12*
X50585935Y-62563565D03*
X56935935Y-60023565D03*
D10*
X107100935Y-84153645D03*
X96940935Y-84153645D03*
D11*
X102020935Y-84153645D03*
D12*
X98210935Y-81613645D03*
X104560935Y-79073645D03*
D10*
X87415935Y-65103565D03*
X97575935Y-65103565D03*
D11*
X92495935Y-65103565D03*
D12*
X88685935Y-62563565D03*
X95035935Y-60023565D03*
D10*
X278552015Y-103203725D03*
D11*
X273472015Y-103203725D03*
D10*
X268392015Y-103203725D03*
D12*
X269662015Y-100663725D03*
X276012015Y-98123725D03*
D11*
X92495935Y-46053485D03*
D10*
X87415935Y-46053485D03*
X97575935Y-46053485D03*
D12*
X88685935Y-43513485D03*
X95035935Y-40973485D03*
D10*
X116625935Y-65103565D03*
D11*
X111545935Y-65103565D03*
D10*
X106465935Y-65103565D03*
D12*
X107735935Y-62563565D03*
X114085935Y-60023565D03*
D11*
X292522095Y-84153685D03*
D10*
X297602095Y-84153685D03*
X287442095Y-84153685D03*
D12*
X288712095Y-81613685D03*
X295062095Y-79073685D03*
D10*
X230926655Y-46053525D03*
X220766655Y-46053525D03*
D11*
X225846655Y-46053525D03*
D12*
X222036655Y-43513525D03*
X228386655Y-40973525D03*
D11*
X225846655Y-65103605D03*
D10*
X230926655Y-65103605D03*
X220766655Y-65103605D03*
D12*
X222036655Y-62563605D03*
X228386655Y-60023605D03*
D11*
X244896735Y-65103605D03*
D10*
X239816735Y-65103605D03*
X249976735Y-65103605D03*
D12*
X241086735Y-62563605D03*
X247436735Y-60023605D03*
D10*
X20740975Y-84153765D03*
D11*
X25820975Y-84153765D03*
D10*
X30900975Y-84153765D03*
D12*
X22010975Y-81613765D03*
X28360975Y-79073765D03*
D10*
X39790975Y-84153765D03*
D11*
X44870975Y-84153765D03*
D10*
X49950975Y-84153765D03*
D12*
X41060975Y-81613765D03*
X47410975Y-79073765D03*
D10*
X211241615Y-84153645D03*
D11*
X216321615Y-84153645D03*
D10*
X221401615Y-84153645D03*
D12*
X212511615Y-81613645D03*
X218861615Y-79073645D03*
D10*
X202351535Y-84153645D03*
D11*
X197271535Y-84153645D03*
D10*
X192191535Y-84153645D03*
D12*
X193461535Y-81613645D03*
X199811535Y-79073645D03*
D10*
X239816735Y-46053525D03*
D11*
X244896735Y-46053525D03*
D10*
X249976735Y-46053525D03*
D12*
X241086735Y-43513525D03*
X247436735Y-40973525D03*
D11*
X121070935Y-84153645D03*
D10*
X126150935Y-84153645D03*
X115990935Y-84153645D03*
D12*
X117260935Y-81613645D03*
X123610935Y-79073645D03*
D10*
X78525935Y-46053485D03*
X68365935Y-46053485D03*
D11*
X73445935Y-46053485D03*
D12*
X69635935Y-43513485D03*
X75985935Y-40973485D03*
D10*
X77890935Y-84153645D03*
D11*
X82970935Y-84153645D03*
D10*
X88050935Y-84153645D03*
D12*
X79160935Y-81613645D03*
X85510935Y-79073645D03*
D11*
X63920935Y-84153645D03*
D10*
X69000935Y-84153645D03*
X58840935Y-84153645D03*
D12*
X60110935Y-81613645D03*
X66460935Y-79073645D03*
D11*
X25820975Y-103203765D03*
D10*
X30900975Y-103203765D03*
X20740975Y-103203765D03*
D12*
X22010975Y-100663765D03*
X28360975Y-98123765D03*
D11*
X90114995Y-103203765D03*
D10*
X95194995Y-103203765D03*
X85034995Y-103203765D03*
D12*
X86304995Y-100663765D03*
X92654995Y-98123765D03*
D10*
X115991375Y-103203765D03*
D11*
X132977625Y-94948765D03*
D13*
X132977625Y-110188765D03*
D11*
X109165125Y-94948765D03*
X121071375Y-103203765D03*
D13*
X109165125Y-110188765D03*
D10*
X126151375Y-103203765D03*
D12*
X117261375Y-100663765D03*
X123611375Y-98123765D03*
D11*
X197270975Y-103203765D03*
D10*
X192190975Y-103203765D03*
D13*
X209177225Y-110188765D03*
X185364725Y-110188765D03*
D10*
X202350975Y-103203765D03*
D11*
X185364725Y-94948765D03*
X209177225Y-94948765D03*
D12*
X193460975Y-100663765D03*
X199810975Y-98123765D03*
D10*
X223147225Y-103203765D03*
X233307225Y-103203765D03*
D11*
X228227225Y-103203765D03*
D12*
X224417225Y-100663765D03*
X230767225Y-98123765D03*
D11*
X287759415Y-65103605D03*
D10*
X292839415Y-65103605D03*
X282679415Y-65103605D03*
D12*
X283949415Y-62563605D03*
X290299415Y-60023605D03*
D11*
X263945975Y-65103765D03*
D10*
X258865975Y-65103765D03*
X269025975Y-65103765D03*
D12*
X260135975Y-62563765D03*
X266485975Y-60023765D03*
D10*
X154725975Y-103203405D03*
D11*
X149645975Y-103203405D03*
D10*
X144565975Y-103203405D03*
D12*
X145835975Y-100663405D03*
X152185975Y-98123405D03*
D10*
X163615975Y-103203765D03*
D11*
X168695975Y-103203765D03*
D10*
X173775975Y-103203765D03*
D12*
X164885975Y-100663765D03*
X171235975Y-98123765D03*
D10*
X27884755Y-65103605D03*
X38044755Y-65103605D03*
D11*
X32964755Y-65103605D03*
D12*
X29154755Y-62563605D03*
X35504755Y-60023605D03*
D10*
X25503475Y-65103765D03*
D11*
X30583475Y-65103765D03*
D10*
X35663475Y-65103765D03*
D12*
X26773475Y-62563765D03*
X33123475Y-60023765D03*
D10*
X39790975Y-103203765D03*
X49950975Y-103203765D03*
D11*
X44870975Y-103203765D03*
D12*
X41060975Y-100663765D03*
X47410975Y-98123765D03*
D11*
X273472015Y-84153685D03*
D10*
X278552015Y-84153685D03*
X268392015Y-84153685D03*
D12*
X269662015Y-81613685D03*
X276012015Y-79073685D03*
D10*
X68365935Y-65103565D03*
X78525935Y-65103565D03*
D11*
X73445935Y-65103565D03*
D12*
X69635935Y-62563565D03*
X75985935Y-60023565D03*
D10*
X287442095Y-103203765D03*
D11*
X292522095Y-103203765D03*
D10*
X297602095Y-103203765D03*
D12*
X288712095Y-100663765D03*
X295062095Y-98123765D03*
D10*
X71382225Y-103203765D03*
X61222225Y-103203765D03*
D11*
X66302225Y-103203765D03*
D12*
X62492225Y-100663765D03*
X68842225Y-98123765D03*
D10*
X201716575Y-65103565D03*
D11*
X206796575Y-65103565D03*
D10*
X211876575Y-65103565D03*
D12*
X202986575Y-62563565D03*
X209336575Y-60023565D03*
D14*
X292522095Y-103203765D03*
D15*
X292522095Y-98703765D03*
D16*
X298122095Y-103203765D03*
D15*
X292522095Y-107703765D03*
D16*
X286922095Y-103203765D03*
D17*
X295022095Y-95703765D03*
X290022095Y-95703765D03*
X292522095Y-95703765D03*
X295022095Y-110203765D03*
X290022095Y-110203765D03*
D11*
X37727185Y-84153405D03*
D10*
X42807185Y-84153405D03*
X32647185Y-84153405D03*
D12*
X41537185Y-86693405D03*
X35187185Y-89233405D03*
D10*
X246959685Y-103203405D03*
D11*
X252039685Y-103203405D03*
D10*
X257119685Y-103203405D03*
D12*
X248229685Y-100663405D03*
X254579685Y-98123405D03*
D18*
X175639685Y-45672155D03*
X177539685Y-44672155D03*
X177539685Y-42672155D03*
X175639685Y-41672155D03*
D19*
X298474060Y-52006530D03*
D20*
X18677185Y-68675280D03*
D18*
X151645935Y-53397155D03*
X150645935Y-51497155D03*
X148645935Y-51497155D03*
X147645935Y-53397155D03*
D14*
X25820975Y-103203765D03*
D15*
X25820975Y-107703765D03*
D16*
X20220975Y-103203765D03*
X31420975Y-103203765D03*
D15*
X25820975Y-98703765D03*
D17*
X28320975Y-95703765D03*
X23320975Y-95703765D03*
X25820975Y-95703765D03*
X28320975Y-110203765D03*
X23320975Y-110203765D03*
D20*
X299664685Y-68675280D03*
D10*
X135041375Y-103203765D03*
X145201375Y-103203765D03*
D11*
X140121375Y-103203765D03*
D12*
X136311375Y-100663765D03*
X142661375Y-98123765D03*
D18*
X175639685Y-34956530D03*
X177539685Y-33956530D03*
X177539685Y-31956530D03*
X175639685Y-30956530D03*
D10*
X196953435Y-103203405D03*
D11*
X202033435Y-103203405D03*
D10*
X207113435Y-103203405D03*
D12*
X198223435Y-100663405D03*
X204573435Y-98123405D03*
D11*
X178220975Y-103203765D03*
D10*
X183300975Y-103203765D03*
X173140975Y-103203765D03*
D12*
X174410975Y-100663765D03*
X180760975Y-98123765D03*
D19*
X19872407Y-20561655D03*
D16*
X164770975Y-103203405D03*
D15*
X159170975Y-107703405D03*
D14*
X159170975Y-103203405D03*
D15*
X159170975Y-98703405D03*
D16*
X153570975Y-103203405D03*
D17*
X161670975Y-95703405D03*
X156670975Y-95703405D03*
X159170975Y-95703405D03*
X161670975Y-110203405D03*
X156670975Y-110203405D03*
D10*
X290457185Y-65103605D03*
X280297185Y-65103605D03*
D11*
X285377185Y-65103605D03*
D12*
X281567185Y-62563605D03*
X287917185Y-60023605D03*
D19*
X159170935Y-20561655D03*
X73445935Y-28194030D03*
X197270935Y-52053405D03*
D21*
X276695935Y-45678365D03*
D22*
X144795935Y-64978365D03*
X207147102Y-103033821D03*
D21*
X276695935Y-45678365D03*
D23*
X279345935Y-44428365D03*
X43095935Y-47028365D03*
X278095935Y-43928365D03*
X40495935Y-46978365D03*
X43745935Y-45678365D03*
X39945935Y-45678365D03*
X275295935Y-47428365D03*
X278095935Y-47428365D03*
X273545935Y-45678365D03*
X274045935Y-44428365D03*
X41845935Y-47578365D03*
D24*
X41845935Y-45678365D03*
D23*
X274045935Y-46928365D03*
X279345935Y-46928365D03*
D25*
X276695935Y-45678365D03*
D23*
X40495935Y-44328365D03*
X43095935Y-44328365D03*
X279845935Y-45678365D03*
X276695935Y-43928365D03*
X41845935Y-43778365D03*
X275295935Y-43928365D03*
X276695935Y-47428365D03*
D18*
X161170935Y-54587780D03*
X160170935Y-52687780D03*
X158170935Y-52687780D03*
X157170935Y-54587780D03*
D10*
X121388435Y-103203405D03*
X111228435Y-103203405D03*
D11*
X116308435Y-103203405D03*
D12*
X112498435Y-100663405D03*
X118848435Y-98123405D03*
D14*
X168695975Y-103203765D03*
D15*
X168695975Y-107703765D03*
X168695975Y-98703765D03*
D16*
X174295975Y-103203765D03*
X163095975Y-103203765D03*
D17*
X171195975Y-95703765D03*
X166195975Y-95703765D03*
X168695975Y-95703765D03*
X171195975Y-110203765D03*
X166195975Y-110203765D03*
D10*
X30265975Y-84153765D03*
D13*
X47252225Y-77168765D03*
D11*
X47252225Y-92408765D03*
X35345975Y-84153765D03*
X23439725Y-92408765D03*
D10*
X40425975Y-84153765D03*
D13*
X23439725Y-77168765D03*
D12*
X31535975Y-81613765D03*
X37885975Y-79073765D03*
D18*
X142702185Y-41672155D03*
X140802185Y-42672155D03*
X140802185Y-44672155D03*
X142702185Y-45672155D03*
X170695935Y-53397155D03*
X169695935Y-51497155D03*
X167695935Y-51497155D03*
X166695935Y-53397155D03*
D19*
X134167810Y-74628405D03*
X244895935Y-28194030D03*
X121070935Y-52006530D03*
X19867810Y-52006530D03*
D10*
X164250975Y-103203765D03*
X154090975Y-103203765D03*
D11*
X159170975Y-103203765D03*
D12*
X155360975Y-100663765D03*
X161710975Y-98123765D03*
D16*
X155245975Y-103203405D03*
D15*
X149645975Y-98703405D03*
X149645975Y-107703405D03*
D16*
X144045975Y-103203405D03*
D14*
X149645975Y-103203405D03*
D17*
X152145975Y-95703405D03*
X147145975Y-95703405D03*
X149645975Y-95703405D03*
X152145975Y-110203405D03*
X147145975Y-110203405D03*
D19*
X298474060Y-20561655D03*
X184174060Y-74628405D03*
D26*
X24820935Y-25860405D03*
X26820935Y-25860405D03*
D27*
X288733435Y-49625280D03*
X290033435Y-49625280D03*
X291333435Y-49625280D03*
D28*
X38123935Y-31194405D03*
X36123935Y-31194405D03*
D29*
X58701433Y-43215153D03*
X57234187Y-41747907D03*
D30*
X82970935Y-27003405D03*
D18*
X82970935Y-24463405D03*
D31*
X104402185Y-100822155D03*
X199652185Y-75819030D03*
X261564685Y-103203405D03*
X36536560Y-103203405D03*
X46061560Y-73437780D03*
X284186560Y-88915905D03*
X286567810Y-92487780D03*
D32*
X41650165Y-33085385D03*
X43117411Y-34552631D03*
D33*
X50773413Y-27331023D03*
X48722803Y-29381633D03*
X47096457Y-27755287D03*
X49147067Y-25704677D03*
D32*
X44629437Y-30381407D03*
X46096683Y-31848653D03*
X60012312Y-26142782D03*
X61479558Y-27610028D03*
D34*
X63653153Y-35605562D03*
X65120399Y-34138316D03*
D35*
X55730310Y-52090905D03*
D18*
X55730310Y-49550905D03*
X53190310Y-52090905D03*
X53190310Y-49550905D03*
X50650310Y-52090905D03*
X50650310Y-49550905D03*
D27*
X27283435Y-49625280D03*
X28583435Y-49625280D03*
X29883435Y-49625280D03*
D20*
X111545935Y-22028365D03*
X206795935Y-22028365D03*
D36*
X45167810Y-20431155D03*
X42192810Y-20431155D03*
D20*
X100495935Y-107628365D03*
D28*
X44680310Y-23225155D03*
X42680310Y-23225155D03*
D31*
X218702185Y-100822155D03*
X159170935Y-32956530D03*
D37*
X25197935Y-19788405D03*
D38*
X26897935Y-19788405D03*
X26897935Y-22788405D03*
X24997935Y-22788405D03*
D37*
X40595975Y-63148765D03*
X40595975Y-69448765D03*
X44395975Y-69448765D03*
X44395975Y-63148765D03*
D39*
X44582044Y-36017264D03*
X45996258Y-37431478D03*
D40*
X65626828Y-37521262D03*
X67041042Y-36107048D03*
D29*
X53240433Y-24704903D03*
X51773187Y-23237657D03*
D31*
X281805310Y-100822155D03*
X80589685Y-102012780D03*
X80589685Y-98440905D03*
D20*
X240395935Y-107628365D03*
D31*
X149645935Y-32956530D03*
X149645935Y-29384655D03*
X55586560Y-73437780D03*
D41*
X95070935Y-22248405D03*
X95070935Y-23518405D03*
X95070935Y-24788405D03*
X95070935Y-26058405D03*
X89920935Y-26058405D03*
X89920935Y-24788405D03*
X89920935Y-23518405D03*
X89920935Y-22248405D03*
D26*
X77779935Y-27003405D03*
X79779935Y-27003405D03*
X77779935Y-24590405D03*
X79779935Y-24590405D03*
D42*
X31845935Y-23418365D03*
X32695935Y-23418365D03*
X33545935Y-23418365D03*
X34395935Y-23418365D03*
X35245935Y-23418365D03*
X36095935Y-23418365D03*
X36945935Y-23418365D03*
X37795935Y-23418365D03*
X37795935Y-22068365D03*
X36945935Y-22068365D03*
X36095935Y-22068365D03*
X35245935Y-22068365D03*
X34395935Y-22068365D03*
X33545935Y-22068365D03*
X32695935Y-22068365D03*
X31845935Y-22068365D03*
D43*
X39145935Y-22438365D03*
D44*
X30495935Y-19058365D03*
D43*
X30495935Y-22438365D03*
D44*
X39145935Y-19058365D03*
D32*
X49090312Y-40874782D03*
X50557558Y-42342028D03*
D28*
X38123935Y-28654405D03*
X36123935Y-28654405D03*
D31*
X129405310Y-100822155D03*
X159170935Y-29384655D03*
D35*
X292558435Y-53197155D03*
D18*
X290018435Y-53197155D03*
X287478435Y-53197155D03*
D31*
X80589685Y-105584655D03*
D45*
X54950164Y-38319085D03*
X54596611Y-37965532D03*
X54243057Y-37611978D03*
X53889504Y-37258425D03*
X53535950Y-36904871D03*
X53182397Y-36551318D03*
X52828844Y-36197765D03*
X52475290Y-35844211D03*
X52121737Y-35490658D03*
X51768183Y-35137104D03*
X51414630Y-34783551D03*
D46*
X51414630Y-33510759D03*
X51768183Y-33157206D03*
X52121737Y-32803652D03*
X52475290Y-32450099D03*
X52828844Y-32096545D03*
X53182397Y-31742992D03*
X53535950Y-31389439D03*
X53889504Y-31035885D03*
X54243057Y-30682332D03*
X54596611Y-30328778D03*
X54950164Y-29975225D03*
D45*
X56222956Y-29975225D03*
X56576509Y-30328778D03*
X56930063Y-30682332D03*
X57283616Y-31035885D03*
X57637170Y-31389439D03*
X57990723Y-31742992D03*
X58344276Y-32096545D03*
X58697830Y-32450099D03*
X59051383Y-32803652D03*
X59404937Y-33157206D03*
X59758490Y-33510759D03*
D46*
X59758490Y-34783551D03*
X59404937Y-35137104D03*
X59051383Y-35490658D03*
X58697830Y-35844211D03*
X58344276Y-36197765D03*
X57990723Y-36551318D03*
X57637170Y-36904871D03*
X57283616Y-37258425D03*
X56930063Y-37611978D03*
X56576509Y-37965532D03*
X56222956Y-38319085D03*
D47*
X54676160Y-35967955D03*
X53765760Y-35057555D03*
X56496960Y-32326355D03*
X56496960Y-35967955D03*
X55586560Y-33236755D03*
X55586560Y-36878355D03*
X57407360Y-35057555D03*
X53765760Y-33236755D03*
X55586560Y-35057555D03*
X55586560Y-31415955D03*
X56496960Y-34147155D03*
X58317760Y-34147155D03*
X54676160Y-32326355D03*
X52855360Y-34147155D03*
X57407360Y-33236755D03*
X54676160Y-34147155D03*
D48*
X77017810Y-70325280D03*
X77017810Y-67025280D03*
X296092810Y-108425280D03*
X296092810Y-105125280D03*
X96067810Y-71375280D03*
X96067810Y-68075280D03*
X93686560Y-109475280D03*
X93686560Y-106175280D03*
X131786560Y-107234655D03*
X131786560Y-103934655D03*
X86542810Y-90425280D03*
X86542810Y-87125280D03*
X200842810Y-90425280D03*
X200842810Y-87125280D03*
X124642810Y-109525280D03*
X124642810Y-106225280D03*
X257992810Y-89375280D03*
X257992810Y-86075280D03*
X29392810Y-108425280D03*
X29392810Y-105125280D03*
X229417810Y-70325280D03*
X229417810Y-67025280D03*
X238942810Y-90425280D03*
X238942810Y-87125280D03*
X216320935Y-109471280D03*
X216320935Y-106171280D03*
X219892810Y-89375280D03*
X219892810Y-86075280D03*
X277042810Y-109475280D03*
X277042810Y-106175280D03*
X210367810Y-71375280D03*
X210367810Y-68075280D03*
X248467810Y-71375280D03*
X248467810Y-68075280D03*
X186555310Y-107234655D03*
X186555310Y-103934655D03*
X277042810Y-90425280D03*
X277042810Y-87125280D03*
X50824060Y-70325280D03*
X50824060Y-67025280D03*
X229417810Y-51275280D03*
X229417810Y-47975280D03*
X275852185Y-71375280D03*
X275852185Y-68075280D03*
X96067810Y-52325280D03*
X96067810Y-49025280D03*
X55586560Y-89375280D03*
X55586560Y-86075280D03*
X296092810Y-89375280D03*
X296092810Y-86075280D03*
X48442810Y-109475280D03*
X48442810Y-106175280D03*
X67492810Y-89375280D03*
X67492810Y-86075280D03*
X105592810Y-89375280D03*
X105592810Y-86075280D03*
X124642810Y-90425280D03*
X124642810Y-87125280D03*
X255611560Y-108425280D03*
X255611560Y-105125280D03*
X115117810Y-70325280D03*
X115117810Y-67025280D03*
X181792810Y-108425280D03*
X181792810Y-105125280D03*
X69874060Y-108425280D03*
X69874060Y-105125280D03*
X267517810Y-70325280D03*
X267517810Y-67025280D03*
X60349060Y-90425280D03*
X60349060Y-87125280D03*
X77017810Y-51275280D03*
X77017810Y-47975280D03*
X248467810Y-52325280D03*
X248467810Y-49025280D03*
X231799060Y-109475280D03*
X231799060Y-106175280D03*
X57967810Y-71375280D03*
X57967810Y-68075280D03*
M02*
