G04 #@! TF.GenerationSoftware,KiCad,Pcbnew,(6.0.10-0)*
G04 #@! TF.CreationDate,2023-03-16T17:31:01+09:00*
G04 #@! TF.ProjectId,Sandy_Base,53616e64-795f-4426-9173-652e6b696361,v.0*
G04 #@! TF.SameCoordinates,Original*
G04 #@! TF.FileFunction,Soldermask,Top*
G04 #@! TF.FilePolarity,Negative*
%FSLAX46Y46*%
G04 Gerber Fmt 4.6, Leading zero omitted, Abs format (unit mm)*
G04 Created by KiCad (PCBNEW (6.0.10-0)) date 2023-03-16 17:31:01*
%MOMM*%
%LPD*%
G01*
G04 APERTURE LIST*
G04 Aperture macros list*
%AMRoundRect*
0 Rectangle with rounded corners*
0 $1 Rounding radius*
0 $2 $3 $4 $5 $6 $7 $8 $9 X,Y pos of 4 corners*
0 Add a 4 corners polygon primitive as box body*
4,1,4,$2,$3,$4,$5,$6,$7,$8,$9,$2,$3,0*
0 Add four circle primitives for the rounded corners*
1,1,$1+$1,$2,$3*
1,1,$1+$1,$4,$5*
1,1,$1+$1,$6,$7*
1,1,$1+$1,$8,$9*
0 Add four rect primitives between the rounded corners*
20,1,$1+$1,$2,$3,$4,$5,0*
20,1,$1+$1,$4,$5,$6,$7,0*
20,1,$1+$1,$6,$7,$8,$9,0*
20,1,$1+$1,$8,$9,$2,$3,0*%
G04 Aperture macros list end*
%ADD10C,4.387800*%
%ADD11C,2.150000*%
%ADD12C,3.448000*%
%ADD13RoundRect,0.200000X0.800000X0.425000X-0.800000X0.425000X-0.800000X-0.425000X0.800000X-0.425000X0*%
%ADD14O,1.900000X3.200000*%
%ADD15O,2.000000X2.300000*%
%ADD16C,2.500000*%
%ADD17O,2.000000X1.700000*%
%ADD18O,2.100000X2.100000*%
%ADD19RoundRect,0.350000X0.625000X-0.150000X0.625000X0.150000X-0.625000X0.150000X-0.625000X-0.150000X0*%
%ADD20RoundRect,0.450000X0.650000X-0.350000X0.650000X0.350000X-0.650000X0.350000X-0.650000X-0.350000X0*%
%ADD21C,4.800000*%
%ADD22C,2.600000*%
%ADD23RoundRect,0.350000X0.150000X0.625000X-0.150000X0.625000X-0.150000X-0.625000X0.150000X-0.625000X0*%
%ADD24RoundRect,0.450000X0.350000X0.650000X-0.350000X0.650000X-0.350000X-0.650000X0.350000X-0.650000X0*%
%ADD25O,5.600000X2.800000*%
%ADD26O,9.400000X7.900000*%
%ADD27C,1.400000*%
%ADD28C,5.200000*%
%ADD29O,7.800000X5.000000*%
%ADD30RoundRect,0.350000X-0.625000X0.150000X-0.625000X-0.150000X0.625000X-0.150000X0.625000X0.150000X0*%
%ADD31RoundRect,0.450000X-0.650000X0.350000X-0.650000X-0.350000X0.650000X-0.350000X0.650000X0.350000X0*%
%ADD32RoundRect,0.200000X-0.850000X-0.850000X0.850000X-0.850000X0.850000X0.850000X-0.850000X0.850000X0*%
%ADD33C,2.400000*%
%ADD34RoundRect,0.200000X0.850000X-0.850000X0.850000X0.850000X-0.850000X0.850000X-0.850000X-0.850000X0*%
%ADD35C,1.100000*%
%ADD36O,1.300000X2.800000*%
%ADD37O,1.300000X2.100000*%
G04 APERTURE END LIST*
D10*
X235371695Y-84153685D03*
D11*
X230291695Y-84153685D03*
X240451695Y-84153685D03*
X249341775Y-84153685D03*
D10*
X254421775Y-84153685D03*
D11*
X259501775Y-84153685D03*
X49315935Y-65103565D03*
X59475935Y-65103565D03*
D10*
X54395935Y-65103565D03*
D11*
X107100935Y-84153645D03*
D10*
X102020935Y-84153645D03*
D11*
X96940935Y-84153645D03*
D10*
X92495935Y-65103565D03*
D11*
X97575935Y-65103565D03*
X87415935Y-65103565D03*
X268392015Y-103203725D03*
D10*
X273472015Y-103203725D03*
D11*
X278552015Y-103203725D03*
X97575935Y-46053485D03*
D10*
X92495935Y-46053485D03*
D11*
X87415935Y-46053485D03*
X116625935Y-65103565D03*
X106465935Y-65103565D03*
D10*
X111545935Y-65103565D03*
D11*
X287442095Y-84153685D03*
D10*
X292522095Y-84153685D03*
D11*
X297602095Y-84153685D03*
D10*
X225846655Y-46053525D03*
D11*
X230926655Y-46053525D03*
X220766655Y-46053525D03*
X220766655Y-65103605D03*
X230926655Y-65103605D03*
D10*
X225846655Y-65103605D03*
D11*
X249976735Y-65103605D03*
D10*
X244896735Y-65103605D03*
D11*
X239816735Y-65103605D03*
D10*
X25820975Y-84153765D03*
D11*
X20740975Y-84153765D03*
X30900975Y-84153765D03*
X49950975Y-84153765D03*
X39790975Y-84153765D03*
D10*
X44870975Y-84153765D03*
D11*
X211241615Y-84153645D03*
X221401615Y-84153645D03*
D10*
X216321615Y-84153645D03*
D11*
X192191535Y-84153645D03*
D10*
X197271535Y-84153645D03*
D11*
X202351535Y-84153645D03*
X239816735Y-46053525D03*
X249976735Y-46053525D03*
D10*
X244896735Y-46053525D03*
D11*
X126150935Y-84153645D03*
D10*
X121070935Y-84153645D03*
D11*
X115990935Y-84153645D03*
X78525935Y-46053485D03*
X68365935Y-46053485D03*
D10*
X73445935Y-46053485D03*
X82970935Y-84153645D03*
D11*
X88050935Y-84153645D03*
X77890935Y-84153645D03*
D10*
X63920935Y-84153645D03*
D11*
X69000935Y-84153645D03*
X58840935Y-84153645D03*
D10*
X25820975Y-103203765D03*
D11*
X20740975Y-103203765D03*
X30900975Y-103203765D03*
D10*
X90114995Y-103203765D03*
D11*
X85034995Y-103203765D03*
X95194995Y-103203765D03*
D12*
X132977625Y-110188765D03*
D10*
X121071375Y-103203765D03*
D12*
X109165125Y-110188765D03*
D11*
X115991375Y-103203765D03*
D10*
X109165125Y-94948765D03*
X132977625Y-94948765D03*
D11*
X126151375Y-103203765D03*
X202350975Y-103203765D03*
D12*
X185364725Y-110188765D03*
D11*
X192190975Y-103203765D03*
D12*
X209177225Y-110188765D03*
D10*
X197270975Y-103203765D03*
X209177225Y-94948765D03*
X185364725Y-94948765D03*
D11*
X233307225Y-103203765D03*
D10*
X228227225Y-103203765D03*
D11*
X223147225Y-103203765D03*
D13*
X21445935Y-58553405D03*
X21445935Y-56803405D03*
X17945935Y-56803405D03*
X17945935Y-58553405D03*
X21445935Y-62753405D03*
X21445935Y-61003405D03*
X17945935Y-61003405D03*
X17945935Y-62753405D03*
X300245935Y-58553405D03*
X300245935Y-56803405D03*
X296745935Y-56803405D03*
X296745935Y-58553405D03*
X300245935Y-62753405D03*
X300245935Y-61003405D03*
X296745935Y-61003405D03*
X296745935Y-62753405D03*
D10*
X287759415Y-65103605D03*
D11*
X292839415Y-65103605D03*
X282679415Y-65103605D03*
X258865975Y-65103765D03*
X269025975Y-65103765D03*
D10*
X263945975Y-65103765D03*
D11*
X144565975Y-103203405D03*
D10*
X149645975Y-103203405D03*
D11*
X154725975Y-103203405D03*
D10*
X168695975Y-103203765D03*
D11*
X163615975Y-103203765D03*
X173775975Y-103203765D03*
X38044755Y-65103605D03*
D10*
X32964755Y-65103605D03*
D11*
X27884755Y-65103605D03*
X25503475Y-65103765D03*
X35663475Y-65103765D03*
D10*
X30583475Y-65103765D03*
X44870975Y-103203765D03*
D11*
X39790975Y-103203765D03*
X49950975Y-103203765D03*
D10*
X273472015Y-84153685D03*
D11*
X278552015Y-84153685D03*
X268392015Y-84153685D03*
X78525935Y-65103565D03*
X68365935Y-65103565D03*
D10*
X73445935Y-65103565D03*
D11*
X287442095Y-103203765D03*
X297602095Y-103203765D03*
D10*
X292522095Y-103203765D03*
X66302225Y-103203765D03*
D11*
X61222225Y-103203765D03*
X71382225Y-103203765D03*
D10*
X206796575Y-65103565D03*
D11*
X201716575Y-65103565D03*
X211876575Y-65103565D03*
D14*
X286922095Y-103203765D03*
D15*
X292522095Y-98703765D03*
D14*
X298122095Y-103203765D03*
D16*
X292522095Y-103203765D03*
D15*
X292522095Y-107703765D03*
D17*
X295022095Y-95703765D03*
X290022095Y-95703765D03*
X292522095Y-95703765D03*
X295022095Y-110203765D03*
X290022095Y-110203765D03*
D10*
X37727185Y-84153405D03*
D11*
X42807185Y-84153405D03*
X32647185Y-84153405D03*
X246959685Y-103203405D03*
D10*
X252039685Y-103203405D03*
D11*
X257119685Y-103203405D03*
D18*
X175639685Y-45672155D03*
D19*
X173839685Y-45172155D03*
D18*
X177539685Y-44672155D03*
D19*
X173839685Y-44172155D03*
D18*
X177539685Y-42672155D03*
D19*
X173839685Y-43172155D03*
D18*
X175639685Y-41672155D03*
D19*
X173839685Y-42172155D03*
D20*
X177714685Y-40872155D03*
X177714685Y-46472155D03*
D21*
X298474060Y-52006530D03*
D22*
X19369042Y-68675280D03*
D18*
X151645935Y-53397155D03*
D23*
X151145935Y-55197155D03*
X150145935Y-55197155D03*
D18*
X150645935Y-51497155D03*
D23*
X149145935Y-55197155D03*
D18*
X148645935Y-51497155D03*
D23*
X148145935Y-55197155D03*
D18*
X147645935Y-53397155D03*
D24*
X146845935Y-51322155D03*
X152445935Y-51322155D03*
D15*
X25820975Y-98703765D03*
D14*
X20220975Y-103203765D03*
D16*
X25820975Y-103203765D03*
D15*
X25820975Y-107703765D03*
D14*
X31420975Y-103203765D03*
D17*
X28320975Y-95703765D03*
X23320975Y-95703765D03*
X25820975Y-95703765D03*
X28320975Y-110203765D03*
X23320975Y-110203765D03*
D22*
X298911078Y-68675280D03*
D10*
X140121375Y-103203765D03*
D11*
X135041375Y-103203765D03*
X145201375Y-103203765D03*
D18*
X175639685Y-34956530D03*
D19*
X173839685Y-34456530D03*
X173839685Y-33456530D03*
D18*
X177539685Y-33956530D03*
D19*
X173839685Y-32456530D03*
D18*
X177539685Y-31956530D03*
X175639685Y-30956530D03*
D19*
X173839685Y-31456530D03*
D20*
X177714685Y-30156530D03*
X177714685Y-35756530D03*
D11*
X196953435Y-103203405D03*
D10*
X202033435Y-103203405D03*
D11*
X207113435Y-103203405D03*
D10*
X178220975Y-103203765D03*
D11*
X183300975Y-103203765D03*
X173140975Y-103203765D03*
D21*
X19872407Y-20561655D03*
D14*
X164770975Y-103203405D03*
D15*
X159170975Y-98703405D03*
D16*
X159170975Y-103203405D03*
D14*
X153570975Y-103203405D03*
D15*
X159170975Y-107703405D03*
D17*
X161670975Y-95703405D03*
X156670975Y-95703405D03*
X159170975Y-95703405D03*
X161670975Y-110203405D03*
X156670975Y-110203405D03*
D11*
X290457185Y-65103605D03*
D10*
X285377185Y-65103605D03*
D11*
X280297185Y-65103605D03*
D21*
X159170935Y-20561655D03*
X73445935Y-28194030D03*
X197270935Y-52053405D03*
D25*
X276695935Y-45678365D03*
D26*
X207147102Y-103033821D03*
D25*
X276695935Y-45678365D03*
D26*
X144795935Y-64978365D03*
D27*
X273545935Y-45678365D03*
X41845935Y-47578365D03*
X279345935Y-44428365D03*
X279845935Y-45678365D03*
D28*
X41845935Y-45678365D03*
D27*
X274045935Y-46928365D03*
X275295935Y-43928365D03*
X275295935Y-47428365D03*
X40495935Y-46978365D03*
D29*
X276695935Y-45678365D03*
D27*
X276695935Y-47428365D03*
X40495935Y-44328365D03*
X279345935Y-46928365D03*
X43745935Y-45678365D03*
X274045935Y-44428365D03*
X278095935Y-47428365D03*
X39945935Y-45678365D03*
X41845935Y-43778365D03*
X43095935Y-47028365D03*
X276695935Y-43928365D03*
X43095935Y-44328365D03*
X278095935Y-43928365D03*
D23*
X160670935Y-56387780D03*
D18*
X161170935Y-54587780D03*
X160170935Y-52687780D03*
D23*
X159670935Y-56387780D03*
X158670935Y-56387780D03*
D18*
X158170935Y-52687780D03*
D23*
X157670935Y-56387780D03*
D18*
X157170935Y-54587780D03*
D24*
X161970935Y-52512780D03*
X156370935Y-52512780D03*
D10*
X116308435Y-103203405D03*
D11*
X121388435Y-103203405D03*
X111228435Y-103203405D03*
D14*
X174295975Y-103203765D03*
X163095975Y-103203765D03*
D15*
X168695975Y-98703765D03*
D16*
X168695975Y-103203765D03*
D15*
X168695975Y-107703765D03*
D17*
X171195975Y-95703765D03*
X166195975Y-95703765D03*
X168695975Y-95703765D03*
X171195975Y-110203765D03*
X166195975Y-110203765D03*
D11*
X30265975Y-84153765D03*
D12*
X47252225Y-77168765D03*
D10*
X47252225Y-92408765D03*
X35345975Y-84153765D03*
X23439725Y-92408765D03*
D11*
X40425975Y-84153765D03*
D12*
X23439725Y-77168765D03*
D18*
X142702185Y-41672155D03*
D30*
X144502185Y-42172155D03*
D18*
X140802185Y-42672155D03*
D30*
X144502185Y-43172155D03*
X144502185Y-44172155D03*
D18*
X140802185Y-44672155D03*
D30*
X144502185Y-45172155D03*
D18*
X142702185Y-45672155D03*
D31*
X140627185Y-46472155D03*
X140627185Y-40872155D03*
D18*
X170695935Y-53397155D03*
D23*
X170195935Y-55197155D03*
X169195935Y-55197155D03*
D18*
X169695935Y-51497155D03*
D23*
X168195935Y-55197155D03*
D18*
X167695935Y-51497155D03*
X166695935Y-53397155D03*
D23*
X167195935Y-55197155D03*
D24*
X171495935Y-51322155D03*
X165895935Y-51322155D03*
D21*
X134167810Y-74628405D03*
X244895935Y-28194030D03*
X121070935Y-52006530D03*
X19867810Y-52006530D03*
D10*
X159170975Y-103203765D03*
D11*
X154090975Y-103203765D03*
X164250975Y-103203765D03*
D14*
X155245975Y-103203405D03*
D15*
X149645975Y-98703405D03*
X149645975Y-107703405D03*
D14*
X144045975Y-103203405D03*
D16*
X149645975Y-103203405D03*
D17*
X152145975Y-95703405D03*
X147145975Y-95703405D03*
X149645975Y-95703405D03*
X152145975Y-110203405D03*
X147145975Y-110203405D03*
D21*
X298474060Y-20561655D03*
X184174060Y-74628405D03*
D32*
X82970935Y-27003405D03*
D18*
X82970935Y-24463405D03*
D33*
X104402185Y-100822155D03*
X199652185Y-75819030D03*
X261564685Y-103203405D03*
X36536560Y-103203405D03*
X46061560Y-73437780D03*
X284186560Y-88915905D03*
X286567810Y-92487780D03*
D34*
X55730310Y-52090905D03*
D18*
X55730310Y-49550905D03*
X53190310Y-52090905D03*
X53190310Y-49550905D03*
X50650310Y-52090905D03*
X50650310Y-49550905D03*
D22*
X111545935Y-22028365D03*
X206795935Y-22028365D03*
X100495935Y-107628365D03*
D33*
X218702185Y-100822155D03*
X152027185Y-28194030D03*
X281805310Y-100822155D03*
X80589685Y-102012780D03*
X80589685Y-98440905D03*
D22*
X240395935Y-107628365D03*
D33*
X148455310Y-28194030D03*
X144883435Y-28194030D03*
X55586560Y-73437780D03*
D35*
X31845935Y-23418365D03*
X32695935Y-23418365D03*
X33545935Y-23418365D03*
X34395935Y-23418365D03*
X35245935Y-23418365D03*
X36095935Y-23418365D03*
X36945935Y-23418365D03*
X37795935Y-23418365D03*
X37795935Y-22068365D03*
X36945935Y-22068365D03*
X36095935Y-22068365D03*
X35245935Y-22068365D03*
X34395935Y-22068365D03*
X33545935Y-22068365D03*
X32695935Y-22068365D03*
X31845935Y-22068365D03*
D36*
X39145935Y-22438365D03*
D37*
X30495935Y-19058365D03*
D36*
X30495935Y-22438365D03*
D37*
X39145935Y-19058365D03*
D33*
X129405310Y-100822155D03*
X155599060Y-28194030D03*
D34*
X292558435Y-53197155D03*
D18*
X290018435Y-53197155D03*
X287478435Y-53197155D03*
D33*
X80589685Y-105584655D03*
M02*
