M48
; DRILL file {KiCad (6.0.10-0)} date 
; FORMAT={-:-/ absolute / metric / decimal}
; #@! TF.CreationDate,2023-02-22T14:56:30+09:00
; #@! TF.GenerationSoftware,Kicad,Pcbnew,(6.0.10-0)
; #@! TF.FileFunction,NonPlated,1,2,NPTH
FMAT,2
METRIC
; #@! TA.AperFunction,NonPlated,NPTH,ComponentDrill
T1C1.500
; #@! TA.AperFunction,NonPlated,NPTH,ComponentDrill
T2C1.600
; #@! TA.AperFunction,NonPlated,NPTH,ComponentDrill
T3C1.750
; #@! TA.AperFunction,NonPlated,NPTH,ComponentDrill
T4C2.100
; #@! TA.AperFunction,NonPlated,NPTH,ComponentDrill
T5C2.200
; #@! TA.AperFunction,NonPlated,NPTH,ComponentDrill
T6C2.400
; #@! TA.AperFunction,NonPlated,NPTH,ComponentDrill
T7C3.048
; #@! TA.AperFunction,NonPlated,NPTH,ComponentDrill
T8C3.988
; #@! TA.AperFunction,NonPlated,NPTH,ComponentDrill
T9C7.500
%
G90
G05
T3
X20.741Y-84.154
X20.741Y-103.204
X25.503Y-65.104
X27.885Y-65.104
X30.266Y-84.154
X30.901Y-84.154
X30.901Y-103.204
X32.647Y-84.153
X35.663Y-65.104
X38.045Y-65.104
X39.791Y-84.154
X39.791Y-103.204
X40.426Y-84.154
X42.807Y-84.153
X49.316Y-65.104
X49.951Y-84.154
X49.951Y-103.204
X58.841Y-84.154
X59.476Y-65.104
X61.222Y-103.204
X68.366Y-46.053
X68.366Y-65.104
X69.001Y-84.154
X71.382Y-103.204
X77.891Y-84.154
X78.526Y-46.053
X78.526Y-65.104
X85.035Y-103.204
X87.416Y-46.053
X87.416Y-65.104
X88.051Y-84.154
X95.195Y-103.204
X96.941Y-84.154
X97.576Y-46.053
X97.576Y-65.104
X106.466Y-65.104
X107.101Y-84.154
X111.228Y-103.203
X115.991Y-84.154
X115.991Y-103.204
X116.626Y-65.104
X121.388Y-103.203
X126.151Y-84.154
X126.151Y-103.204
X135.041Y-103.204
X144.566Y-103.203
X145.201Y-103.204
X154.091Y-103.204
X154.726Y-103.203
X163.616Y-103.204
X164.251Y-103.204
X173.141Y-103.204
X173.776Y-103.204
X183.301Y-103.204
X192.191Y-103.204
X192.192Y-84.154
X196.953Y-103.203
X201.717Y-65.104
X202.351Y-103.204
X202.352Y-84.154
X207.113Y-103.203
X211.242Y-84.154
X211.877Y-65.104
X220.767Y-46.054
X220.767Y-65.104
X221.402Y-84.154
X223.147Y-103.204
X230.292Y-84.154
X230.927Y-46.054
X230.927Y-65.104
X233.307Y-103.204
X239.817Y-46.054
X239.817Y-65.104
X240.452Y-84.154
X246.96Y-103.203
X249.342Y-84.154
X249.977Y-46.054
X249.977Y-65.104
X257.12Y-103.203
X258.866Y-65.104
X259.502Y-84.154
X268.392Y-84.154
X268.392Y-103.204
X269.026Y-65.104
X278.552Y-84.154
X278.552Y-103.204
X280.297Y-65.104
X282.679Y-65.104
X287.442Y-84.154
X287.442Y-103.204
X290.457Y-65.104
X292.839Y-65.104
X297.602Y-84.154
X297.602Y-103.204
T4
X25.821Y-103.204
X149.646Y-103.203
X159.171Y-103.203
X168.696Y-103.204
X292.522Y-103.204
T5
X18.677Y-68.675
X100.496Y-107.628
X111.546Y-22.028
X206.796Y-22.028
X240.396Y-107.628
X299.665Y-68.675
T7
X23.44Y-77.169
X47.252Y-77.169
X109.165Y-110.189
X132.978Y-110.189
X185.365Y-110.189
X209.177Y-110.189
T8
X23.44Y-92.409
X25.821Y-84.154
X25.821Y-103.204
X30.583Y-65.104
X32.965Y-65.104
X35.346Y-84.154
X37.727Y-84.153
X44.871Y-84.154
X44.871Y-103.204
X47.252Y-92.409
X54.396Y-65.104
X63.921Y-84.154
X66.302Y-103.204
X73.446Y-46.053
X73.446Y-65.104
X82.971Y-84.154
X90.115Y-103.204
X92.496Y-46.053
X92.496Y-65.104
X102.021Y-84.154
X109.165Y-94.949
X111.546Y-65.104
X116.308Y-103.203
X121.071Y-84.154
X121.071Y-103.204
X132.978Y-94.949
X140.121Y-103.204
X149.646Y-103.203
X159.171Y-103.204
X168.696Y-103.204
X178.221Y-103.204
X185.365Y-94.949
X197.271Y-103.204
X197.272Y-84.154
X202.033Y-103.203
X206.797Y-65.104
X209.177Y-94.949
X216.322Y-84.154
X225.847Y-46.054
X225.847Y-65.104
X228.227Y-103.204
X235.372Y-84.154
X244.897Y-46.054
X244.897Y-65.104
X252.04Y-103.203
X254.422Y-84.154
X263.946Y-65.104
X273.472Y-84.154
X273.472Y-103.204
X285.377Y-65.104
X287.759Y-65.104
X292.522Y-84.154
X292.522Y-103.204
T1
X20.221Y-102.554G85X20.221Y-103.854
G05
X31.421Y-102.554G85X31.421Y-103.854
G05
X144.046Y-102.553G85X144.046Y-103.853
G05
X153.571Y-102.553G85X153.571Y-103.853
G05
X155.246Y-102.553G85X155.246Y-103.853
G05
X163.096Y-102.554G85X163.096Y-103.854
G05
X164.771Y-102.553G85X164.771Y-103.853
G05
X174.296Y-102.554G85X174.296Y-103.854
G05
X286.922Y-102.554G85X286.922Y-103.854
G05
X298.122Y-102.554G85X298.122Y-103.854
G05
T2
X25.821Y-98.554G85X25.821Y-98.854
G05
X25.821Y-107.554G85X25.821Y-107.854
G05
X149.646Y-98.553G85X149.646Y-98.853
G05
X149.646Y-107.553G85X149.646Y-107.853
G05
X159.171Y-98.553G85X159.171Y-98.853
G05
X159.171Y-107.553G85X159.171Y-107.853
G05
X168.696Y-98.554G85X168.696Y-98.854
G05
X168.696Y-107.554G85X168.696Y-107.854
G05
X292.522Y-98.554G85X292.522Y-98.854
G05
X292.522Y-107.554G85X292.522Y-107.854
G05
T6
X275.296Y-45.678G85X278.096Y-45.678
G05
X275.296Y-45.678G85X278.096Y-45.678
G05
T9
X144.046Y-64.978G85X145.546Y-64.978
G05
X206.397Y-103.034G85X207.897Y-103.034
G05
T0
M30
