G04 #@! TF.GenerationSoftware,KiCad,Pcbnew,(6.0.10-0)*
G04 #@! TF.CreationDate,2023-02-21T06:45:28+09:00*
G04 #@! TF.ProjectId,Sandy_Base,53616e64-795f-4426-9173-652e6b696361,v.0*
G04 #@! TF.SameCoordinates,Original*
G04 #@! TF.FileFunction,Legend,Bot*
G04 #@! TF.FilePolarity,Positive*
%FSLAX46Y46*%
G04 Gerber Fmt 4.6, Leading zero omitted, Abs format (unit mm)*
G04 Created by KiCad (PCBNEW (6.0.10-0)) date 2023-02-21 06:45:28*
%MOMM*%
%LPD*%
G01*
G04 APERTURE LIST*
G04 Aperture macros list*
%AMRoundRect*
0 Rectangle with rounded corners*
0 $1 Rounding radius*
0 $2 $3 $4 $5 $6 $7 $8 $9 X,Y pos of 4 corners*
0 Add a 4 corners polygon primitive as box body*
4,1,4,$2,$3,$4,$5,$6,$7,$8,$9,$2,$3,0*
0 Add four circle primitives for the rounded corners*
1,1,$1+$1,$2,$3*
1,1,$1+$1,$4,$5*
1,1,$1+$1,$6,$7*
1,1,$1+$1,$8,$9*
0 Add four rect primitives between the rounded corners*
20,1,$1+$1,$2,$3,$4,$5,0*
20,1,$1+$1,$4,$5,$6,$7,0*
20,1,$1+$1,$6,$7,$8,$9,0*
20,1,$1+$1,$8,$9,$2,$3,0*%
G04 Aperture macros list end*
%ADD10C,0.400000*%
%ADD11C,0.200000*%
%ADD12C,0.150000*%
%ADD13C,0.700000*%
%ADD14C,0.300000*%
%ADD15C,0.120000*%
%ADD16C,0.330000*%
%ADD17C,2.150000*%
%ADD18C,4.387800*%
%ADD19C,2.650000*%
%ADD20C,3.448000*%
%ADD21O,1.900000X3.200000*%
%ADD22C,2.500000*%
%ADD23O,2.000000X2.300000*%
%ADD24O,2.000000X1.700000*%
%ADD25O,2.100000X2.100000*%
%ADD26C,4.800000*%
%ADD27C,2.600000*%
%ADD28O,5.600000X2.800000*%
%ADD29O,9.400000X7.900000*%
%ADD30C,1.400000*%
%ADD31C,5.200000*%
%ADD32O,7.800000X5.000000*%
%ADD33RoundRect,0.449999X-0.325001X-0.450001X0.325001X-0.450001X0.325001X0.450001X-0.325001X0.450001X0*%
%ADD34RoundRect,0.200000X-0.500000X-0.750000X0.500000X-0.750000X0.500000X0.750000X-0.500000X0.750000X0*%
%ADD35RoundRect,0.449999X0.325001X0.450001X-0.325001X0.450001X-0.325001X-0.450001X0.325001X-0.450001X0*%
%ADD36RoundRect,0.449999X0.548009X0.088388X0.088388X0.548009X-0.548009X-0.088388X-0.088388X-0.548009X0*%
%ADD37RoundRect,0.200000X-0.850000X-0.850000X0.850000X-0.850000X0.850000X0.850000X-0.850000X0.850000X0*%
%ADD38C,2.400000*%
%ADD39RoundRect,0.449999X-0.548009X-0.088388X-0.088388X-0.548009X0.548009X0.088388X0.088388X0.548009X0*%
%ADD40RoundRect,0.200000X0.106066X1.378858X-1.378858X-0.106066X-0.106066X-1.378858X1.378858X0.106066X0*%
%ADD41RoundRect,0.449999X0.088388X-0.548009X0.548009X-0.088388X-0.088388X0.548009X-0.548009X0.088388X0*%
%ADD42RoundRect,0.200000X0.850000X-0.850000X0.850000X0.850000X-0.850000X0.850000X-0.850000X-0.850000X0*%
%ADD43RoundRect,0.450001X0.462499X0.624999X-0.462499X0.624999X-0.462499X-0.624999X0.462499X-0.624999X0*%
%ADD44RoundRect,0.200000X-0.500000X0.350000X-0.500000X-0.350000X0.500000X-0.350000X0.500000X0.350000X0*%
%ADD45RoundRect,0.200000X-0.300000X0.350000X-0.300000X-0.350000X0.300000X-0.350000X0.300000X0.350000X0*%
%ADD46RoundRect,0.200000X-0.500000X0.850000X-0.500000X-0.850000X0.500000X-0.850000X0.500000X0.850000X0*%
%ADD47RoundRect,0.350000X0.725000X0.150000X-0.725000X0.150000X-0.725000X-0.150000X0.725000X-0.150000X0*%
%ADD48RoundRect,0.450000X-0.350000X-0.450000X0.350000X-0.450000X0.350000X0.450000X-0.350000X0.450000X0*%
%ADD49C,1.100000*%
%ADD50O,1.300000X2.800000*%
%ADD51O,1.300000X2.100000*%
%ADD52RoundRect,0.200000X-0.159099X-0.335876X0.335876X0.159099X0.159099X0.335876X-0.335876X-0.159099X0*%
%ADD53RoundRect,0.200000X-0.335876X0.159099X0.159099X-0.335876X0.335876X-0.159099X-0.159099X0.335876X0*%
%ADD54RoundRect,0.200000X0.000000X-0.910400X0.910400X0.000000X0.000000X0.910400X-0.910400X0.000000X0*%
%ADD55RoundRect,0.200000X0.600000X-0.450000X0.600000X0.450000X-0.600000X0.450000X-0.600000X-0.450000X0*%
G04 APERTURE END LIST*
D10*
X25535935Y-23433155D02*
X25185935Y-23433155D01*
X25535935Y-23433155D02*
X25535935Y-23733155D01*
X26635935Y-24518155D02*
X26635935Y-24218155D01*
X25185935Y-23433155D02*
X25185935Y-23733155D01*
X26635935Y-23433155D02*
X26635935Y-23733155D01*
D11*
X24677935Y-23733155D02*
X27217935Y-23733155D01*
X27217935Y-23733155D02*
X27217935Y-24241155D01*
X27217935Y-24241155D02*
X24677935Y-24241155D01*
X24677935Y-24241155D02*
X24677935Y-23733155D01*
G36*
X24677935Y-23733155D02*
G01*
X27217935Y-23733155D01*
X27217935Y-24241155D01*
X24677935Y-24241155D01*
X24677935Y-23733155D01*
G37*
D10*
X25185935Y-24218155D02*
X25185935Y-24518155D01*
D12*
X37464982Y-18976265D02*
X37464982Y-17976265D01*
X36988792Y-18976265D02*
X36988792Y-17976265D01*
X36417363Y-18976265D01*
X36417363Y-17976265D01*
X35988792Y-18928646D02*
X35845935Y-18976265D01*
X35607839Y-18976265D01*
X35512601Y-18928646D01*
X35464982Y-18881027D01*
X35417363Y-18785789D01*
X35417363Y-18690551D01*
X35464982Y-18595313D01*
X35512601Y-18547694D01*
X35607839Y-18500075D01*
X35798315Y-18452456D01*
X35893554Y-18404837D01*
X35941173Y-18357218D01*
X35988792Y-18261980D01*
X35988792Y-18166742D01*
X35941173Y-18071504D01*
X35893554Y-18023885D01*
X35798315Y-17976265D01*
X35560220Y-17976265D01*
X35417363Y-18023885D01*
X35131649Y-17976265D02*
X34560220Y-17976265D01*
X34845935Y-18976265D02*
X34845935Y-17976265D01*
X34274506Y-18690551D02*
X33798315Y-18690551D01*
X34369744Y-18976265D02*
X34036411Y-17976265D01*
X33703077Y-18976265D01*
X32893554Y-18976265D02*
X33369744Y-18976265D01*
X33369744Y-17976265D01*
X32084030Y-18976265D02*
X32560220Y-18976265D01*
X32560220Y-17976265D01*
X36536411Y-20586265D02*
X36536411Y-19586265D01*
X36536411Y-20062456D02*
X35964982Y-20062456D01*
X35964982Y-20586265D02*
X35964982Y-19586265D01*
X35488792Y-20062456D02*
X35155458Y-20062456D01*
X35012601Y-20586265D02*
X35488792Y-20586265D01*
X35488792Y-19586265D01*
X35012601Y-19586265D01*
X34012601Y-20586265D02*
X34345935Y-20110075D01*
X34584030Y-20586265D02*
X34584030Y-19586265D01*
X34203077Y-19586265D01*
X34107839Y-19633885D01*
X34060220Y-19681504D01*
X34012601Y-19776742D01*
X34012601Y-19919599D01*
X34060220Y-20014837D01*
X34107839Y-20062456D01*
X34203077Y-20110075D01*
X34584030Y-20110075D01*
X33584030Y-20062456D02*
X33250696Y-20062456D01*
X33107839Y-20586265D02*
X33584030Y-20586265D01*
X33584030Y-19586265D01*
X33107839Y-19586265D01*
D11*
X292048077Y-23719690D02*
X290762363Y-23719690D01*
X291533792Y-22948262D02*
X292048077Y-25262547D01*
X290933792Y-24491119D02*
X292219506Y-24491119D01*
X291448077Y-25262547D02*
X290933792Y-22948262D01*
X290248077Y-24833976D02*
X289990935Y-24919690D01*
X289562363Y-24919690D01*
X289390935Y-24833976D01*
X289305220Y-24748262D01*
X289219506Y-24576833D01*
X289219506Y-24405405D01*
X289305220Y-24233976D01*
X289390935Y-24148262D01*
X289562363Y-24062547D01*
X289905220Y-23976833D01*
X290076649Y-23891119D01*
X290162363Y-23805405D01*
X290248077Y-23633976D01*
X290248077Y-23462547D01*
X290162363Y-23291119D01*
X290076649Y-23205405D01*
X289905220Y-23119690D01*
X289476649Y-23119690D01*
X289219506Y-23205405D01*
X287676649Y-24919690D02*
X287676649Y-23976833D01*
X287762363Y-23805405D01*
X287933792Y-23719690D01*
X288276649Y-23719690D01*
X288448077Y-23805405D01*
X287676649Y-24833976D02*
X287848077Y-24919690D01*
X288276649Y-24919690D01*
X288448077Y-24833976D01*
X288533792Y-24662547D01*
X288533792Y-24491119D01*
X288448077Y-24319690D01*
X288276649Y-24233976D01*
X287848077Y-24233976D01*
X287676649Y-24148262D01*
X286819506Y-23719690D02*
X286819506Y-24919690D01*
X286819506Y-23891119D02*
X286733792Y-23805405D01*
X286562363Y-23719690D01*
X286305220Y-23719690D01*
X286133792Y-23805405D01*
X286048077Y-23976833D01*
X286048077Y-24919690D01*
X284419506Y-24919690D02*
X284419506Y-23119690D01*
X284419506Y-24833976D02*
X284590935Y-24919690D01*
X284933792Y-24919690D01*
X285105220Y-24833976D01*
X285190935Y-24748262D01*
X285276649Y-24576833D01*
X285276649Y-24062547D01*
X285190935Y-23891119D01*
X285105220Y-23805405D01*
X284933792Y-23719690D01*
X284590935Y-23719690D01*
X284419506Y-23805405D01*
X283733792Y-23719690D02*
X283305220Y-24919690D01*
X282876649Y-23719690D02*
X283305220Y-24919690D01*
X283476649Y-25348262D01*
X283562363Y-25433976D01*
X283733792Y-25519690D01*
X282619506Y-25091119D02*
X281248077Y-25091119D01*
X280819506Y-24919690D02*
X280819506Y-23119690D01*
X280648077Y-24233976D02*
X280133792Y-24919690D01*
X280133792Y-23719690D02*
X280819506Y-24405405D01*
X279362363Y-24919690D02*
X279362363Y-23119690D01*
X279362363Y-23805405D02*
X279190935Y-23719690D01*
X278848077Y-23719690D01*
X278676649Y-23805405D01*
X278590935Y-23891119D01*
X278505220Y-24062547D01*
X278505220Y-24576833D01*
X278590935Y-24748262D01*
X278676649Y-24833976D01*
X278848077Y-24919690D01*
X279190935Y-24919690D01*
X279362363Y-24833976D01*
X276962363Y-24919690D02*
X276962363Y-23119690D01*
X276962363Y-24833976D02*
X277133792Y-24919690D01*
X277476649Y-24919690D01*
X277648077Y-24833976D01*
X277733792Y-24748262D01*
X277819506Y-24576833D01*
X277819506Y-24062547D01*
X277733792Y-23891119D01*
X277648077Y-23805405D01*
X277476649Y-23719690D01*
X277133792Y-23719690D01*
X276962363Y-23805405D01*
X274905220Y-23719690D02*
X274476649Y-24919690D01*
X274048077Y-23719690D01*
X273362363Y-24748262D02*
X273276649Y-24833976D01*
X273362363Y-24919690D01*
X273448077Y-24833976D01*
X273362363Y-24748262D01*
X273362363Y-24919690D01*
X272162363Y-23119690D02*
X271990935Y-23119690D01*
X271819506Y-23205405D01*
X271733792Y-23291119D01*
X271648077Y-23462547D01*
X271562363Y-23805405D01*
X271562363Y-24233976D01*
X271648077Y-24576833D01*
X271733792Y-24748262D01*
X271819506Y-24833976D01*
X271990935Y-24919690D01*
X272162363Y-24919690D01*
X272333792Y-24833976D01*
X272419506Y-24748262D01*
X272505220Y-24576833D01*
X272590935Y-24233976D01*
X272590935Y-23805405D01*
X272505220Y-23462547D01*
X272419506Y-23291119D01*
X272333792Y-23205405D01*
X272162363Y-23119690D01*
X270790935Y-24748262D02*
X270705220Y-24833976D01*
X270790935Y-24919690D01*
X270876649Y-24833976D01*
X270790935Y-24748262D01*
X270790935Y-24919690D01*
X268990935Y-24919690D02*
X270019506Y-24919690D01*
X269505220Y-24919690D02*
X269505220Y-23119690D01*
X269676649Y-23376833D01*
X269848077Y-23548262D01*
X270019506Y-23633976D01*
X268133792Y-24833976D02*
X268133792Y-24919690D01*
X268219506Y-25091119D01*
X268305220Y-25176833D01*
X265390935Y-23976833D02*
X265133792Y-24062547D01*
X265048077Y-24148262D01*
X264962363Y-24319690D01*
X264962363Y-24576833D01*
X265048077Y-24748262D01*
X265133792Y-24833976D01*
X265305220Y-24919690D01*
X265990935Y-24919690D01*
X265990935Y-23119690D01*
X265390935Y-23119690D01*
X265219506Y-23205405D01*
X265133792Y-23291119D01*
X265048077Y-23462547D01*
X265048077Y-23633976D01*
X265133792Y-23805405D01*
X265219506Y-23891119D01*
X265390935Y-23976833D01*
X265990935Y-23976833D01*
X263419506Y-24919690D02*
X263419506Y-23976833D01*
X263505220Y-23805405D01*
X263676649Y-23719690D01*
X264019506Y-23719690D01*
X264190935Y-23805405D01*
X263419506Y-24833976D02*
X263590935Y-24919690D01*
X264019506Y-24919690D01*
X264190935Y-24833976D01*
X264276649Y-24662547D01*
X264276649Y-24491119D01*
X264190935Y-24319690D01*
X264019506Y-24233976D01*
X263590935Y-24233976D01*
X263419506Y-24148262D01*
X262648077Y-24833976D02*
X262476649Y-24919690D01*
X262133792Y-24919690D01*
X261962363Y-24833976D01*
X261876649Y-24662547D01*
X261876649Y-24576833D01*
X261962363Y-24405405D01*
X262133792Y-24319690D01*
X262390935Y-24319690D01*
X262562363Y-24233976D01*
X262648077Y-24062547D01*
X262648077Y-23976833D01*
X262562363Y-23805405D01*
X262390935Y-23719690D01*
X262133792Y-23719690D01*
X261962363Y-23805405D01*
X260419506Y-24833976D02*
X260590935Y-24919690D01*
X260933792Y-24919690D01*
X261105220Y-24833976D01*
X261190935Y-24662547D01*
X261190935Y-23976833D01*
X261105220Y-23805405D01*
X260933792Y-23719690D01*
X260590935Y-23719690D01*
X260419506Y-23805405D01*
X260333792Y-23976833D01*
X260333792Y-24148262D01*
X261190935Y-24319690D01*
X291362363Y-26874833D02*
X291962363Y-26874833D01*
X291962363Y-27817690D02*
X291962363Y-26017690D01*
X291105220Y-26017690D01*
X289648077Y-27817690D02*
X289648077Y-26874833D01*
X289733792Y-26703405D01*
X289905220Y-26617690D01*
X290248077Y-26617690D01*
X290419506Y-26703405D01*
X289648077Y-27731976D02*
X289819506Y-27817690D01*
X290248077Y-27817690D01*
X290419506Y-27731976D01*
X290505220Y-27560547D01*
X290505220Y-27389119D01*
X290419506Y-27217690D01*
X290248077Y-27131976D01*
X289819506Y-27131976D01*
X289648077Y-27046262D01*
X288790935Y-27817690D02*
X288790935Y-26617690D01*
X288790935Y-26017690D02*
X288876649Y-26103405D01*
X288790935Y-26189119D01*
X288705220Y-26103405D01*
X288790935Y-26017690D01*
X288790935Y-26189119D01*
X287933792Y-27817690D02*
X287933792Y-26617690D01*
X287933792Y-26960547D02*
X287848077Y-26789119D01*
X287762363Y-26703405D01*
X287590935Y-26617690D01*
X287419506Y-26617690D01*
X286819506Y-26617690D02*
X286819506Y-27817690D01*
X286819506Y-26789119D02*
X286733792Y-26703405D01*
X286562363Y-26617690D01*
X286305220Y-26617690D01*
X286133792Y-26703405D01*
X286048077Y-26874833D01*
X286048077Y-27817690D01*
X284505220Y-27731976D02*
X284676649Y-27817690D01*
X285019506Y-27817690D01*
X285190935Y-27731976D01*
X285276649Y-27560547D01*
X285276649Y-26874833D01*
X285190935Y-26703405D01*
X285019506Y-26617690D01*
X284676649Y-26617690D01*
X284505220Y-26703405D01*
X284419506Y-26874833D01*
X284419506Y-27046262D01*
X285276649Y-27217690D01*
X283733792Y-27731976D02*
X283562363Y-27817690D01*
X283219506Y-27817690D01*
X283048077Y-27731976D01*
X282962363Y-27560547D01*
X282962363Y-27474833D01*
X283048077Y-27303405D01*
X283219506Y-27217690D01*
X283476649Y-27217690D01*
X283648077Y-27131976D01*
X283733792Y-26960547D01*
X283733792Y-26874833D01*
X283648077Y-26703405D01*
X283476649Y-26617690D01*
X283219506Y-26617690D01*
X283048077Y-26703405D01*
X282276649Y-27731976D02*
X282105220Y-27817690D01*
X281762363Y-27817690D01*
X281590935Y-27731976D01*
X281505220Y-27560547D01*
X281505220Y-27474833D01*
X281590935Y-27303405D01*
X281762363Y-27217690D01*
X282019506Y-27217690D01*
X282190935Y-27131976D01*
X282276649Y-26960547D01*
X282276649Y-26874833D01*
X282190935Y-26703405D01*
X282019506Y-26617690D01*
X281762363Y-26617690D01*
X281590935Y-26703405D01*
X280648077Y-27731976D02*
X280648077Y-27817690D01*
X280733792Y-27989119D01*
X280819506Y-28074833D01*
X277990935Y-26017690D02*
X277990935Y-27303405D01*
X278076649Y-27560547D01*
X278248077Y-27731976D01*
X278505220Y-27817690D01*
X278676649Y-27817690D01*
X276362363Y-26617690D02*
X276362363Y-27817690D01*
X277133792Y-26617690D02*
X277133792Y-27560547D01*
X277048077Y-27731976D01*
X276876649Y-27817690D01*
X276619506Y-27817690D01*
X276448077Y-27731976D01*
X276362363Y-27646262D01*
X275590935Y-27731976D02*
X275419506Y-27817690D01*
X275076649Y-27817690D01*
X274905220Y-27731976D01*
X274819506Y-27560547D01*
X274819506Y-27474833D01*
X274905220Y-27303405D01*
X275076649Y-27217690D01*
X275333792Y-27217690D01*
X275505220Y-27131976D01*
X275590935Y-26960547D01*
X275590935Y-26874833D01*
X275505220Y-26703405D01*
X275333792Y-26617690D01*
X275076649Y-26617690D01*
X274905220Y-26703405D01*
X274305220Y-26617690D02*
X273619506Y-26617690D01*
X274048077Y-26017690D02*
X274048077Y-27560547D01*
X273962363Y-27731976D01*
X273790935Y-27817690D01*
X273619506Y-27817690D01*
X273019506Y-27817690D02*
X273019506Y-26617690D01*
X273019506Y-26017690D02*
X273105220Y-26103405D01*
X273019506Y-26189119D01*
X272933792Y-26103405D01*
X273019506Y-26017690D01*
X273019506Y-26189119D01*
X271390935Y-27731976D02*
X271562363Y-27817690D01*
X271905220Y-27817690D01*
X272076649Y-27731976D01*
X272162363Y-27646262D01*
X272248077Y-27474833D01*
X272248077Y-26960547D01*
X272162363Y-26789119D01*
X272076649Y-26703405D01*
X271905220Y-26617690D01*
X271562363Y-26617690D01*
X271390935Y-26703405D01*
X269933792Y-27731976D02*
X270105220Y-27817690D01*
X270448077Y-27817690D01*
X270619506Y-27731976D01*
X270705220Y-27560547D01*
X270705220Y-26874833D01*
X270619506Y-26703405D01*
X270448077Y-26617690D01*
X270105220Y-26617690D01*
X269933792Y-26703405D01*
X269848077Y-26874833D01*
X269848077Y-27046262D01*
X270705220Y-27217690D01*
X268990935Y-27731976D02*
X268990935Y-27817690D01*
X269076649Y-27989119D01*
X269162363Y-28074833D01*
X265819506Y-27817690D02*
X266419506Y-26960547D01*
X266848077Y-27817690D02*
X266848077Y-26017690D01*
X266162363Y-26017690D01*
X265990935Y-26103405D01*
X265905220Y-26189119D01*
X265819506Y-26360547D01*
X265819506Y-26617690D01*
X265905220Y-26789119D01*
X265990935Y-26874833D01*
X266162363Y-26960547D01*
X266848077Y-26960547D01*
X265048077Y-27817690D02*
X265048077Y-26617690D01*
X265048077Y-26017690D02*
X265133792Y-26103405D01*
X265048077Y-26189119D01*
X264962363Y-26103405D01*
X265048077Y-26017690D01*
X265048077Y-26189119D01*
X263419506Y-26617690D02*
X263419506Y-28074833D01*
X263505220Y-28246262D01*
X263590935Y-28331976D01*
X263762363Y-28417690D01*
X264019506Y-28417690D01*
X264190935Y-28331976D01*
X263419506Y-27731976D02*
X263590935Y-27817690D01*
X263933792Y-27817690D01*
X264105220Y-27731976D01*
X264190935Y-27646262D01*
X264276649Y-27474833D01*
X264276649Y-26960547D01*
X264190935Y-26789119D01*
X264105220Y-26703405D01*
X263933792Y-26617690D01*
X263590935Y-26617690D01*
X263419506Y-26703405D01*
X262562363Y-27817690D02*
X262562363Y-26017690D01*
X261790935Y-27817690D02*
X261790935Y-26874833D01*
X261876649Y-26703405D01*
X262048077Y-26617690D01*
X262305220Y-26617690D01*
X262476649Y-26703405D01*
X262562363Y-26789119D01*
X261190935Y-26617690D02*
X260505220Y-26617690D01*
X260933792Y-26017690D02*
X260933792Y-27560547D01*
X260848077Y-27731976D01*
X260676649Y-27817690D01*
X260505220Y-27817690D01*
X259905220Y-26617690D02*
X259905220Y-27817690D01*
X259905220Y-26789119D02*
X259819506Y-26703405D01*
X259648077Y-26617690D01*
X259390935Y-26617690D01*
X259219506Y-26703405D01*
X259133792Y-26874833D01*
X259133792Y-27817690D01*
X257590935Y-27731976D02*
X257762363Y-27817690D01*
X258105220Y-27817690D01*
X258276649Y-27731976D01*
X258362363Y-27560547D01*
X258362363Y-26874833D01*
X258276649Y-26703405D01*
X258105220Y-26617690D01*
X257762363Y-26617690D01*
X257590935Y-26703405D01*
X257505220Y-26874833D01*
X257505220Y-27046262D01*
X258362363Y-27217690D01*
X256819506Y-27731976D02*
X256648077Y-27817690D01*
X256305220Y-27817690D01*
X256133792Y-27731976D01*
X256048077Y-27560547D01*
X256048077Y-27474833D01*
X256133792Y-27303405D01*
X256305220Y-27217690D01*
X256562363Y-27217690D01*
X256733792Y-27131976D01*
X256819506Y-26960547D01*
X256819506Y-26874833D01*
X256733792Y-26703405D01*
X256562363Y-26617690D01*
X256305220Y-26617690D01*
X256133792Y-26703405D01*
X255362363Y-27731976D02*
X255190935Y-27817690D01*
X254848077Y-27817690D01*
X254676649Y-27731976D01*
X254590935Y-27560547D01*
X254590935Y-27474833D01*
X254676649Y-27303405D01*
X254848077Y-27217690D01*
X255105220Y-27217690D01*
X255276649Y-27131976D01*
X255362363Y-26960547D01*
X255362363Y-26874833D01*
X255276649Y-26703405D01*
X255105220Y-26617690D01*
X254848077Y-26617690D01*
X254676649Y-26703405D01*
X291962363Y-30715690D02*
X291962363Y-28915690D01*
X291962363Y-29601405D02*
X291790935Y-29515690D01*
X291448077Y-29515690D01*
X291276649Y-29601405D01*
X291190935Y-29687119D01*
X291105220Y-29858547D01*
X291105220Y-30372833D01*
X291190935Y-30544262D01*
X291276649Y-30629976D01*
X291448077Y-30715690D01*
X291790935Y-30715690D01*
X291962363Y-30629976D01*
X290505220Y-29515690D02*
X290076649Y-30715690D01*
X289648077Y-29515690D02*
X290076649Y-30715690D01*
X290248077Y-31144262D01*
X290333792Y-31229976D01*
X290505220Y-31315690D01*
X286476649Y-29858547D02*
X286562363Y-29772833D01*
X286733792Y-29687119D01*
X286905220Y-29687119D01*
X287076649Y-29772833D01*
X287162363Y-29858547D01*
X287248077Y-30029976D01*
X287248077Y-30201405D01*
X287162363Y-30372833D01*
X287076649Y-30458547D01*
X286905220Y-30544262D01*
X286733792Y-30544262D01*
X286562363Y-30458547D01*
X286476649Y-30372833D01*
X286476649Y-29687119D02*
X286476649Y-30372833D01*
X286390935Y-30458547D01*
X286305220Y-30458547D01*
X286133792Y-30372833D01*
X286048077Y-30201405D01*
X286048077Y-29772833D01*
X286219506Y-29515690D01*
X286476649Y-29344262D01*
X286819506Y-29258547D01*
X287162363Y-29344262D01*
X287419506Y-29515690D01*
X287590935Y-29772833D01*
X287676649Y-30115690D01*
X287590935Y-30458547D01*
X287419506Y-30715690D01*
X287162363Y-30887119D01*
X286819506Y-30972833D01*
X286476649Y-30887119D01*
X286219506Y-30715690D01*
X285276649Y-29515690D02*
X285276649Y-31058547D01*
X285362363Y-31229976D01*
X285533792Y-31315690D01*
X285619506Y-31315690D01*
X285276649Y-28915690D02*
X285362363Y-29001405D01*
X285276649Y-29087119D01*
X285190935Y-29001405D01*
X285276649Y-28915690D01*
X285276649Y-29087119D01*
X284419506Y-29515690D02*
X284419506Y-31315690D01*
X284419506Y-29601405D02*
X284248077Y-29515690D01*
X283905220Y-29515690D01*
X283733792Y-29601405D01*
X283648077Y-29687119D01*
X283562363Y-29858547D01*
X283562363Y-30372833D01*
X283648077Y-30544262D01*
X283733792Y-30629976D01*
X283905220Y-30715690D01*
X284248077Y-30715690D01*
X284419506Y-30629976D01*
X282876649Y-30629976D02*
X282705220Y-30715690D01*
X282362363Y-30715690D01*
X282190935Y-30629976D01*
X282105220Y-30458547D01*
X282105220Y-30372833D01*
X282190935Y-30201405D01*
X282362363Y-30115690D01*
X282619506Y-30115690D01*
X282790935Y-30029976D01*
X282876649Y-29858547D01*
X282876649Y-29772833D01*
X282790935Y-29601405D01*
X282619506Y-29515690D01*
X282362363Y-29515690D01*
X282190935Y-29601405D01*
X281333792Y-30715690D02*
X281333792Y-28915690D01*
X281162363Y-30029976D02*
X280648077Y-30715690D01*
X280648077Y-29515690D02*
X281333792Y-30201405D01*
X279190935Y-30629976D02*
X279362363Y-30715690D01*
X279705220Y-30715690D01*
X279876649Y-30629976D01*
X279962363Y-30458547D01*
X279962363Y-29772833D01*
X279876649Y-29601405D01*
X279705220Y-29515690D01*
X279362363Y-29515690D01*
X279190935Y-29601405D01*
X279105220Y-29772833D01*
X279105220Y-29944262D01*
X279962363Y-30115690D01*
X278333792Y-29515690D02*
X278333792Y-30715690D01*
X278333792Y-29687119D02*
X278248077Y-29601405D01*
X278076649Y-29515690D01*
X277819506Y-29515690D01*
X277648077Y-29601405D01*
X277562363Y-29772833D01*
X277562363Y-30715690D01*
X276705220Y-29515690D02*
X276705220Y-30715690D01*
X276705220Y-29687119D02*
X276619506Y-29601405D01*
X276448077Y-29515690D01*
X276190935Y-29515690D01*
X276019506Y-29601405D01*
X275933792Y-29772833D01*
X275933792Y-30715690D01*
D13*
X172049625Y-74342690D02*
X171502006Y-74533166D01*
X171335339Y-74723643D01*
X171192482Y-75104595D01*
X171263911Y-75676024D01*
X171502006Y-76056976D01*
X171716292Y-76247452D01*
X172121054Y-76437928D01*
X173644863Y-76437928D01*
X173144863Y-72437928D01*
X171811530Y-72437928D01*
X171454387Y-72628405D01*
X171287720Y-72818881D01*
X171144863Y-73199833D01*
X171192482Y-73580785D01*
X171430577Y-73961738D01*
X171644863Y-74152214D01*
X172049625Y-74342690D01*
X173382958Y-74342690D01*
X167930577Y-76437928D02*
X167668673Y-74342690D01*
X167811530Y-73961738D01*
X168168673Y-73771262D01*
X168930577Y-73771262D01*
X169335339Y-73961738D01*
X167906768Y-76247452D02*
X168311530Y-76437928D01*
X169263911Y-76437928D01*
X169621054Y-76247452D01*
X169763911Y-75866500D01*
X169716292Y-75485547D01*
X169478196Y-75104595D01*
X169073435Y-74914119D01*
X168121054Y-74914119D01*
X167716292Y-74723643D01*
X164287720Y-76247452D02*
X164692482Y-76437928D01*
X165454387Y-76437928D01*
X165811530Y-76247452D01*
X165978196Y-76056976D01*
X166121054Y-75676024D01*
X165978196Y-74533166D01*
X165740101Y-74152214D01*
X165525815Y-73961738D01*
X165121054Y-73771262D01*
X164359149Y-73771262D01*
X164002006Y-73961738D01*
X162597244Y-76437928D02*
X162097244Y-72437928D01*
X162025815Y-74914119D02*
X161073435Y-76437928D01*
X160740101Y-73771262D02*
X162454387Y-75295071D01*
X156478196Y-76247452D02*
X155930577Y-76437928D01*
X154978196Y-76437928D01*
X154573435Y-76247452D01*
X154359149Y-76056976D01*
X154121054Y-75676024D01*
X154073435Y-75295071D01*
X154216292Y-74914119D01*
X154382958Y-74723643D01*
X154740101Y-74533166D01*
X155478196Y-74342690D01*
X155835339Y-74152214D01*
X156002006Y-73961738D01*
X156144863Y-73580785D01*
X156097244Y-73199833D01*
X155859149Y-72818881D01*
X155644863Y-72628405D01*
X155240101Y-72437928D01*
X154287720Y-72437928D01*
X153740101Y-72628405D01*
X152502006Y-76437928D02*
X152168673Y-73771262D01*
X152002006Y-72437928D02*
X152216292Y-72628405D01*
X152049625Y-72818881D01*
X151835339Y-72628405D01*
X152002006Y-72437928D01*
X152049625Y-72818881D01*
X148882958Y-76437928D02*
X148382958Y-72437928D01*
X148859149Y-76247452D02*
X149263911Y-76437928D01*
X150025815Y-76437928D01*
X150382958Y-76247452D01*
X150549625Y-76056976D01*
X150692482Y-75676024D01*
X150549625Y-74533166D01*
X150311530Y-74152214D01*
X150097244Y-73961738D01*
X149692482Y-73771262D01*
X148930577Y-73771262D01*
X148573435Y-73961738D01*
X145430577Y-76247452D02*
X145835339Y-76437928D01*
X146597244Y-76437928D01*
X146954387Y-76247452D01*
X147097244Y-75866500D01*
X146906768Y-74342690D01*
X146668673Y-73961738D01*
X146263911Y-73771262D01*
X145502006Y-73771262D01*
X145144863Y-73961738D01*
X145002006Y-74342690D01*
X145049625Y-74723643D01*
X147002006Y-75104595D01*
D14*
X270874506Y-110287726D02*
X270874506Y-111359155D01*
X270945935Y-111573440D01*
X271088792Y-111716297D01*
X271303077Y-111787726D01*
X271445935Y-111787726D01*
X269445935Y-111787726D02*
X270160220Y-111787726D01*
X270160220Y-110287726D01*
X268088792Y-111644869D02*
X268160220Y-111716297D01*
X268374506Y-111787726D01*
X268517363Y-111787726D01*
X268731649Y-111716297D01*
X268874506Y-111573440D01*
X268945935Y-111430583D01*
X269017363Y-111144869D01*
X269017363Y-110930583D01*
X268945935Y-110644869D01*
X268874506Y-110502012D01*
X268731649Y-110359155D01*
X268517363Y-110287726D01*
X268374506Y-110287726D01*
X268160220Y-110359155D01*
X268088792Y-110430583D01*
X267017363Y-110287726D02*
X267017363Y-111359155D01*
X267088792Y-111573440D01*
X267231649Y-111716297D01*
X267445935Y-111787726D01*
X267588792Y-111787726D01*
X265588792Y-111787726D02*
X266303077Y-111787726D01*
X266303077Y-110287726D01*
X264231649Y-111644869D02*
X264303077Y-111716297D01*
X264517363Y-111787726D01*
X264660220Y-111787726D01*
X264874506Y-111716297D01*
X265017363Y-111573440D01*
X265088792Y-111430583D01*
X265160220Y-111144869D01*
X265160220Y-110930583D01*
X265088792Y-110644869D01*
X265017363Y-110502012D01*
X264874506Y-110359155D01*
X264660220Y-110287726D01*
X264517363Y-110287726D01*
X264303077Y-110359155D01*
X264231649Y-110430583D01*
X263160220Y-110287726D02*
X263160220Y-111359155D01*
X263231649Y-111573440D01*
X263374506Y-111716297D01*
X263588792Y-111787726D01*
X263731649Y-111787726D01*
X261731649Y-111787726D02*
X262445935Y-111787726D01*
X262445935Y-110287726D01*
X260374506Y-111644869D02*
X260445935Y-111716297D01*
X260660220Y-111787726D01*
X260803077Y-111787726D01*
X261017363Y-111716297D01*
X261160220Y-111573440D01*
X261231649Y-111430583D01*
X261303077Y-111144869D01*
X261303077Y-110930583D01*
X261231649Y-110644869D01*
X261160220Y-110502012D01*
X261017363Y-110359155D01*
X260803077Y-110287726D01*
X260660220Y-110287726D01*
X260445935Y-110359155D01*
X260374506Y-110430583D01*
X259303077Y-110287726D02*
X259303077Y-111359155D01*
X259374506Y-111573440D01*
X259517363Y-111716297D01*
X259731649Y-111787726D01*
X259874506Y-111787726D01*
X257874506Y-111787726D02*
X258588792Y-111787726D01*
X258588792Y-110287726D01*
X256517363Y-111644869D02*
X256588792Y-111716297D01*
X256803077Y-111787726D01*
X256945935Y-111787726D01*
X257160220Y-111716297D01*
X257303077Y-111573440D01*
X257374506Y-111430583D01*
X257445935Y-111144869D01*
X257445935Y-110930583D01*
X257374506Y-110644869D01*
X257303077Y-110502012D01*
X257160220Y-110359155D01*
X256945935Y-110287726D01*
X256803077Y-110287726D01*
X256588792Y-110359155D01*
X256517363Y-110430583D01*
D12*
X26987641Y-88177660D02*
X27559070Y-88177660D01*
X27273355Y-88177660D02*
X27273355Y-87177660D01*
X27368594Y-87320518D01*
X27463832Y-87415756D01*
X27559070Y-87463375D01*
X26130498Y-87510994D02*
X26130498Y-88177660D01*
X26559070Y-87510994D02*
X26559070Y-88034803D01*
X26511451Y-88130041D01*
X26416213Y-88177660D01*
X26273355Y-88177660D01*
X26178117Y-88130041D01*
X26130498Y-88082422D01*
X24940022Y-87130041D02*
X25797165Y-88415756D01*
X24654308Y-87272899D02*
X24606689Y-87225280D01*
X24511451Y-87177660D01*
X24273355Y-87177660D01*
X24178117Y-87225280D01*
X24130498Y-87272899D01*
X24082879Y-87368137D01*
X24082879Y-87463375D01*
X24130498Y-87606232D01*
X24701927Y-88177660D01*
X24082879Y-88177660D01*
X46037641Y-88177660D02*
X46609070Y-88177660D01*
X46323355Y-88177660D02*
X46323355Y-87177660D01*
X46418594Y-87320518D01*
X46513832Y-87415756D01*
X46609070Y-87463375D01*
X45180498Y-87510994D02*
X45180498Y-88177660D01*
X45609070Y-87510994D02*
X45609070Y-88034803D01*
X45561451Y-88130041D01*
X45466213Y-88177660D01*
X45323355Y-88177660D01*
X45228117Y-88130041D01*
X45180498Y-88082422D01*
X43990022Y-87130041D02*
X44847165Y-88415756D01*
X43704308Y-87272899D02*
X43656689Y-87225280D01*
X43561451Y-87177660D01*
X43323355Y-87177660D01*
X43228117Y-87225280D01*
X43180498Y-87272899D01*
X43132879Y-87368137D01*
X43132879Y-87463375D01*
X43180498Y-87606232D01*
X43751927Y-88177660D01*
X43132879Y-88177660D01*
X121809470Y-106322899D02*
X121761851Y-106275280D01*
X121666613Y-106227660D01*
X121428517Y-106227660D01*
X121333279Y-106275280D01*
X121285660Y-106322899D01*
X121238041Y-106418137D01*
X121238041Y-106513375D01*
X121285660Y-106656232D01*
X121857089Y-107227660D01*
X121238041Y-107227660D01*
X120380898Y-106560994D02*
X120380898Y-107227660D01*
X120809470Y-106560994D02*
X120809470Y-107084803D01*
X120761851Y-107180041D01*
X120666613Y-107227660D01*
X120523755Y-107227660D01*
X120428517Y-107180041D01*
X120380898Y-107132422D01*
X198009070Y-106322899D02*
X197961451Y-106275280D01*
X197866213Y-106227660D01*
X197628117Y-106227660D01*
X197532879Y-106275280D01*
X197485260Y-106322899D01*
X197437641Y-106418137D01*
X197437641Y-106513375D01*
X197485260Y-106656232D01*
X198056689Y-107227660D01*
X197437641Y-107227660D01*
X196580498Y-106560994D02*
X196580498Y-107227660D01*
X197009070Y-106560994D02*
X197009070Y-107084803D01*
X196961451Y-107180041D01*
X196866213Y-107227660D01*
X196723355Y-107227660D01*
X196628117Y-107180041D01*
X196580498Y-107132422D01*
X289830012Y-69127660D02*
X290401440Y-69127660D01*
X290115726Y-69127660D02*
X290115726Y-68127660D01*
X290210964Y-68270518D01*
X290306202Y-68365756D01*
X290401440Y-68413375D01*
X289401440Y-69032422D02*
X289353821Y-69080041D01*
X289401440Y-69127660D01*
X289449060Y-69080041D01*
X289401440Y-69032422D01*
X289401440Y-69127660D01*
X288449060Y-68127660D02*
X288925250Y-68127660D01*
X288972869Y-68603851D01*
X288925250Y-68556232D01*
X288830012Y-68508613D01*
X288591917Y-68508613D01*
X288496679Y-68556232D01*
X288449060Y-68603851D01*
X288401440Y-68699089D01*
X288401440Y-68937184D01*
X288449060Y-69032422D01*
X288496679Y-69080041D01*
X288591917Y-69127660D01*
X288830012Y-69127660D01*
X288925250Y-69080041D01*
X288972869Y-69032422D01*
X287544298Y-68460994D02*
X287544298Y-69127660D01*
X287972869Y-68460994D02*
X287972869Y-68984803D01*
X287925250Y-69080041D01*
X287830012Y-69127660D01*
X287687155Y-69127660D01*
X287591917Y-69080041D01*
X287544298Y-69032422D01*
X150360260Y-110799535D02*
X150931689Y-110799535D01*
X150645975Y-110799535D02*
X150645975Y-109799535D01*
X150741213Y-109942393D01*
X150836451Y-110037631D01*
X150931689Y-110085250D01*
X149217403Y-109751916D02*
X150074546Y-111037631D01*
X148931689Y-109894774D02*
X148884070Y-109847155D01*
X148788832Y-109799535D01*
X148550736Y-109799535D01*
X148455498Y-109847155D01*
X148407879Y-109894774D01*
X148360260Y-109990012D01*
X148360260Y-110085250D01*
X148407879Y-110228107D01*
X148979308Y-110799535D01*
X148360260Y-110799535D01*
X169410260Y-110799535D02*
X169981689Y-110799535D01*
X169695975Y-110799535D02*
X169695975Y-109799535D01*
X169791213Y-109942393D01*
X169886451Y-110037631D01*
X169981689Y-110085250D01*
X168267403Y-109751916D02*
X169124546Y-111037631D01*
X167981689Y-109894774D02*
X167934070Y-109847155D01*
X167838832Y-109799535D01*
X167600736Y-109799535D01*
X167505498Y-109847155D01*
X167457879Y-109894774D01*
X167410260Y-109990012D01*
X167410260Y-110085250D01*
X167457879Y-110228107D01*
X168029308Y-110799535D01*
X167410260Y-110799535D01*
X35512452Y-69127660D02*
X36083881Y-69127660D01*
X35798167Y-69127660D02*
X35798167Y-68127660D01*
X35893405Y-68270518D01*
X35988643Y-68365756D01*
X36083881Y-68413375D01*
X35083881Y-69032422D02*
X35036262Y-69080041D01*
X35083881Y-69127660D01*
X35131500Y-69080041D01*
X35083881Y-69032422D01*
X35083881Y-69127660D01*
X34655310Y-68222899D02*
X34607690Y-68175280D01*
X34512452Y-68127660D01*
X34274357Y-68127660D01*
X34179119Y-68175280D01*
X34131500Y-68222899D01*
X34083881Y-68318137D01*
X34083881Y-68413375D01*
X34131500Y-68556232D01*
X34702929Y-69127660D01*
X34083881Y-69127660D01*
X33179119Y-68127660D02*
X33655310Y-68127660D01*
X33702929Y-68603851D01*
X33655310Y-68556232D01*
X33560071Y-68508613D01*
X33321976Y-68508613D01*
X33226738Y-68556232D01*
X33179119Y-68603851D01*
X33131500Y-68699089D01*
X33131500Y-68937184D01*
X33179119Y-69032422D01*
X33226738Y-69080041D01*
X33321976Y-69127660D01*
X33560071Y-69127660D01*
X33655310Y-69080041D01*
X33702929Y-69032422D01*
X32274357Y-68460994D02*
X32274357Y-69127660D01*
X32702929Y-68460994D02*
X32702929Y-68984803D01*
X32655310Y-69080041D01*
X32560071Y-69127660D01*
X32417214Y-69127660D01*
X32321976Y-69080041D01*
X32274357Y-69032422D01*
X30273762Y-69127660D02*
X30845190Y-69127660D01*
X30559476Y-69127660D02*
X30559476Y-68127660D01*
X30654714Y-68270518D01*
X30749952Y-68365756D01*
X30845190Y-68413375D01*
X29845190Y-69032422D02*
X29797571Y-69080041D01*
X29845190Y-69127660D01*
X29892810Y-69080041D01*
X29845190Y-69032422D01*
X29845190Y-69127660D01*
X28892810Y-68127660D02*
X29369000Y-68127660D01*
X29416619Y-68603851D01*
X29369000Y-68556232D01*
X29273762Y-68508613D01*
X29035667Y-68508613D01*
X28940429Y-68556232D01*
X28892810Y-68603851D01*
X28845190Y-68699089D01*
X28845190Y-68937184D01*
X28892810Y-69032422D01*
X28940429Y-69080041D01*
X29035667Y-69127660D01*
X29273762Y-69127660D01*
X29369000Y-69080041D01*
X29416619Y-69032422D01*
X27988048Y-68460994D02*
X27988048Y-69127660D01*
X28416619Y-68460994D02*
X28416619Y-68984803D01*
X28369000Y-69080041D01*
X28273762Y-69127660D01*
X28130905Y-69127660D01*
X28035667Y-69080041D01*
X27988048Y-69032422D01*
X36838792Y-87272899D02*
X36267363Y-87272899D01*
X36553077Y-87272899D02*
X36553077Y-88272899D01*
X36457839Y-88130041D01*
X36362601Y-88034803D01*
X36267363Y-87987184D01*
X37267363Y-87368137D02*
X37314982Y-87320518D01*
X37267363Y-87272899D01*
X37219744Y-87320518D01*
X37267363Y-87368137D01*
X37267363Y-87272899D01*
X37648315Y-88272899D02*
X38314982Y-88272899D01*
X37886411Y-87272899D01*
X39172125Y-88272899D02*
X38695935Y-88272899D01*
X38648315Y-87796708D01*
X38695935Y-87844327D01*
X38791173Y-87891946D01*
X39029268Y-87891946D01*
X39124506Y-87844327D01*
X39172125Y-87796708D01*
X39219744Y-87701470D01*
X39219744Y-87463375D01*
X39172125Y-87368137D01*
X39124506Y-87320518D01*
X39029268Y-87272899D01*
X38791173Y-87272899D01*
X38695935Y-87320518D01*
X38648315Y-87368137D01*
X40076887Y-87939565D02*
X40076887Y-87272899D01*
X39648315Y-87939565D02*
X39648315Y-87415756D01*
X39695935Y-87320518D01*
X39791173Y-87272899D01*
X39934030Y-87272899D01*
X40029268Y-87320518D01*
X40076887Y-87368137D01*
X140835660Y-110655785D02*
X141407089Y-110655785D01*
X141121375Y-110655785D02*
X141121375Y-109655785D01*
X141216613Y-109798643D01*
X141311851Y-109893881D01*
X141407089Y-109941500D01*
X139692803Y-109608166D02*
X140549946Y-110893881D01*
X139454708Y-109655785D02*
X138835660Y-109655785D01*
X139168994Y-110036738D01*
X139026136Y-110036738D01*
X138930898Y-110084357D01*
X138883279Y-110131976D01*
X138835660Y-110227214D01*
X138835660Y-110465309D01*
X138883279Y-110560547D01*
X138930898Y-110608166D01*
X139026136Y-110655785D01*
X139311851Y-110655785D01*
X139407089Y-110608166D01*
X139454708Y-110560547D01*
X202914387Y-107227660D02*
X203485815Y-107227660D01*
X203200101Y-107227660D02*
X203200101Y-106227660D01*
X203295339Y-106370518D01*
X203390577Y-106465756D01*
X203485815Y-106513375D01*
X202485815Y-107132422D02*
X202438196Y-107180041D01*
X202485815Y-107227660D01*
X202533435Y-107180041D01*
X202485815Y-107132422D01*
X202485815Y-107227660D01*
X201533435Y-106227660D02*
X202009625Y-106227660D01*
X202057244Y-106703851D01*
X202009625Y-106656232D01*
X201914387Y-106608613D01*
X201676292Y-106608613D01*
X201581054Y-106656232D01*
X201533435Y-106703851D01*
X201485815Y-106799089D01*
X201485815Y-107037184D01*
X201533435Y-107132422D01*
X201581054Y-107180041D01*
X201676292Y-107227660D01*
X201914387Y-107227660D01*
X202009625Y-107180041D01*
X202057244Y-107132422D01*
X200628673Y-106560994D02*
X200628673Y-107227660D01*
X201057244Y-106560994D02*
X201057244Y-107084803D01*
X201009625Y-107180041D01*
X200914387Y-107227660D01*
X200771530Y-107227660D01*
X200676292Y-107180041D01*
X200628673Y-107132422D01*
X178935260Y-110799535D02*
X179506689Y-110799535D01*
X179220975Y-110799535D02*
X179220975Y-109799535D01*
X179316213Y-109942393D01*
X179411451Y-110037631D01*
X179506689Y-110085250D01*
X177792403Y-109751916D02*
X178649546Y-111037631D01*
X177554308Y-109799535D02*
X176935260Y-109799535D01*
X177268594Y-110180488D01*
X177125736Y-110180488D01*
X177030498Y-110228107D01*
X176982879Y-110275726D01*
X176935260Y-110370964D01*
X176935260Y-110609059D01*
X176982879Y-110704297D01*
X177030498Y-110751916D01*
X177125736Y-110799535D01*
X177411451Y-110799535D01*
X177506689Y-110751916D01*
X177554308Y-110704297D01*
X285543702Y-69127660D02*
X286115131Y-69127660D01*
X285829417Y-69127660D02*
X285829417Y-68127660D01*
X285924655Y-68270518D01*
X286019893Y-68365756D01*
X286115131Y-68413375D01*
X285115131Y-69032422D02*
X285067512Y-69080041D01*
X285115131Y-69127660D01*
X285162750Y-69080041D01*
X285115131Y-69032422D01*
X285115131Y-69127660D01*
X284686560Y-68222899D02*
X284638940Y-68175280D01*
X284543702Y-68127660D01*
X284305607Y-68127660D01*
X284210369Y-68175280D01*
X284162750Y-68222899D01*
X284115131Y-68318137D01*
X284115131Y-68413375D01*
X284162750Y-68556232D01*
X284734179Y-69127660D01*
X284115131Y-69127660D01*
X283210369Y-68127660D02*
X283686560Y-68127660D01*
X283734179Y-68603851D01*
X283686560Y-68556232D01*
X283591321Y-68508613D01*
X283353226Y-68508613D01*
X283257988Y-68556232D01*
X283210369Y-68603851D01*
X283162750Y-68699089D01*
X283162750Y-68937184D01*
X283210369Y-69032422D01*
X283257988Y-69080041D01*
X283353226Y-69127660D01*
X283591321Y-69127660D01*
X283686560Y-69080041D01*
X283734179Y-69032422D01*
X282305607Y-68460994D02*
X282305607Y-69127660D01*
X282734179Y-68460994D02*
X282734179Y-68984803D01*
X282686560Y-69080041D01*
X282591321Y-69127660D01*
X282448464Y-69127660D01*
X282353226Y-69080041D01*
X282305607Y-69032422D01*
X117189387Y-107227660D02*
X117760815Y-107227660D01*
X117475101Y-107227660D02*
X117475101Y-106227660D01*
X117570339Y-106370518D01*
X117665577Y-106465756D01*
X117760815Y-106513375D01*
X116760815Y-107132422D02*
X116713196Y-107180041D01*
X116760815Y-107227660D01*
X116808435Y-107180041D01*
X116760815Y-107132422D01*
X116760815Y-107227660D01*
X115808435Y-106227660D02*
X116284625Y-106227660D01*
X116332244Y-106703851D01*
X116284625Y-106656232D01*
X116189387Y-106608613D01*
X115951292Y-106608613D01*
X115856054Y-106656232D01*
X115808435Y-106703851D01*
X115760815Y-106799089D01*
X115760815Y-107037184D01*
X115808435Y-107132422D01*
X115856054Y-107180041D01*
X115951292Y-107227660D01*
X116189387Y-107227660D01*
X116284625Y-107180041D01*
X116332244Y-107132422D01*
X114903673Y-106560994D02*
X114903673Y-107227660D01*
X115332244Y-106560994D02*
X115332244Y-107084803D01*
X115284625Y-107180041D01*
X115189387Y-107227660D01*
X115046530Y-107227660D01*
X114951292Y-107180041D01*
X114903673Y-107132422D01*
X33702780Y-87272899D02*
X33655161Y-87225280D01*
X33559923Y-87177660D01*
X33321827Y-87177660D01*
X33226589Y-87225280D01*
X33178970Y-87272899D01*
X33131351Y-87368137D01*
X33131351Y-87463375D01*
X33178970Y-87606232D01*
X33750399Y-88177660D01*
X33131351Y-88177660D01*
X32274208Y-87510994D02*
X32274208Y-88177660D01*
X32702780Y-87510994D02*
X32702780Y-88034803D01*
X32655161Y-88130041D01*
X32559923Y-88177660D01*
X32417065Y-88177660D01*
X32321827Y-88130041D01*
X32274208Y-88082422D01*
X159885260Y-110799535D02*
X160456689Y-110799535D01*
X160170975Y-110799535D02*
X160170975Y-109799535D01*
X160266213Y-109942393D01*
X160361451Y-110037631D01*
X160456689Y-110085250D01*
X158742403Y-109751916D02*
X159599546Y-111037631D01*
X158504308Y-109799535D02*
X157885260Y-109799535D01*
X158218594Y-110180488D01*
X158075736Y-110180488D01*
X157980498Y-110228107D01*
X157932879Y-110275726D01*
X157885260Y-110370964D01*
X157885260Y-110609059D01*
X157932879Y-110704297D01*
X157980498Y-110751916D01*
X158075736Y-110799535D01*
X158361451Y-110799535D01*
X158456689Y-110751916D01*
X158504308Y-110704297D01*
X26114641Y-28852785D02*
X26447975Y-28376595D01*
X26686070Y-28852785D02*
X26686070Y-27852785D01*
X26305117Y-27852785D01*
X26209879Y-27900405D01*
X26162260Y-27948024D01*
X26114641Y-28043262D01*
X26114641Y-28186119D01*
X26162260Y-28281357D01*
X26209879Y-28328976D01*
X26305117Y-28376595D01*
X26686070Y-28376595D01*
X25733689Y-27948024D02*
X25686070Y-27900405D01*
X25590832Y-27852785D01*
X25352736Y-27852785D01*
X25257498Y-27900405D01*
X25209879Y-27948024D01*
X25162260Y-28043262D01*
X25162260Y-28138500D01*
X25209879Y-28281357D01*
X25781308Y-28852785D01*
X25162260Y-28852785D01*
X293395339Y-47877660D02*
X293728673Y-47401470D01*
X293966768Y-47877660D02*
X293966768Y-46877660D01*
X293585815Y-46877660D01*
X293490577Y-46925280D01*
X293442958Y-46972899D01*
X293395339Y-47068137D01*
X293395339Y-47210994D01*
X293442958Y-47306232D01*
X293490577Y-47353851D01*
X293585815Y-47401470D01*
X293966768Y-47401470D01*
X292966768Y-47877660D02*
X292966768Y-47210994D01*
X292966768Y-46877660D02*
X293014387Y-46925280D01*
X292966768Y-46972899D01*
X292919149Y-46925280D01*
X292966768Y-46877660D01*
X292966768Y-46972899D01*
X292062006Y-47210994D02*
X292062006Y-48020518D01*
X292109625Y-48115756D01*
X292157244Y-48163375D01*
X292252482Y-48210994D01*
X292395339Y-48210994D01*
X292490577Y-48163375D01*
X292062006Y-47830041D02*
X292157244Y-47877660D01*
X292347720Y-47877660D01*
X292442958Y-47830041D01*
X292490577Y-47782422D01*
X292538196Y-47687184D01*
X292538196Y-47401470D01*
X292490577Y-47306232D01*
X292442958Y-47258613D01*
X292347720Y-47210994D01*
X292157244Y-47210994D01*
X292062006Y-47258613D01*
X291585815Y-47877660D02*
X291585815Y-46877660D01*
X291157244Y-47877660D02*
X291157244Y-47353851D01*
X291204863Y-47258613D01*
X291300101Y-47210994D01*
X291442958Y-47210994D01*
X291538196Y-47258613D01*
X291585815Y-47306232D01*
X290823911Y-47210994D02*
X290442958Y-47210994D01*
X290681054Y-46877660D02*
X290681054Y-47734803D01*
X290633435Y-47830041D01*
X290538196Y-47877660D01*
X290442958Y-47877660D01*
X288871530Y-47877660D02*
X289347720Y-47877660D01*
X289347720Y-46877660D01*
X288538196Y-47353851D02*
X288204863Y-47353851D01*
X288062006Y-47877660D02*
X288538196Y-47877660D01*
X288538196Y-46877660D01*
X288062006Y-46877660D01*
X287633435Y-47877660D02*
X287633435Y-46877660D01*
X287395339Y-46877660D01*
X287252482Y-46925280D01*
X287157244Y-47020518D01*
X287109625Y-47115756D01*
X287062006Y-47306232D01*
X287062006Y-47449089D01*
X287109625Y-47639565D01*
X287157244Y-47734803D01*
X287252482Y-47830041D01*
X287395339Y-47877660D01*
X287633435Y-47877660D01*
X286681054Y-47830041D02*
X286585815Y-47877660D01*
X286395339Y-47877660D01*
X286300101Y-47830041D01*
X286252482Y-47734803D01*
X286252482Y-47687184D01*
X286300101Y-47591946D01*
X286395339Y-47544327D01*
X286538196Y-47544327D01*
X286633435Y-47496708D01*
X286681054Y-47401470D01*
X286681054Y-47353851D01*
X286633435Y-47258613D01*
X286538196Y-47210994D01*
X286395339Y-47210994D01*
X286300101Y-47258613D01*
X294050101Y-49077660D02*
X293859625Y-49077660D01*
X293764387Y-49125280D01*
X293669149Y-49220518D01*
X293621530Y-49410994D01*
X293621530Y-49744327D01*
X293669149Y-49934803D01*
X293764387Y-50030041D01*
X293859625Y-50077660D01*
X294050101Y-50077660D01*
X294145339Y-50030041D01*
X294240577Y-49934803D01*
X294288196Y-49744327D01*
X294288196Y-49410994D01*
X294240577Y-49220518D01*
X294145339Y-49125280D01*
X294050101Y-49077660D01*
X293335815Y-49410994D02*
X292954863Y-49410994D01*
X293192958Y-50077660D02*
X293192958Y-49220518D01*
X293145339Y-49125280D01*
X293050101Y-49077660D01*
X292954863Y-49077660D01*
X292764387Y-49410994D02*
X292383435Y-49410994D01*
X292621530Y-50077660D02*
X292621530Y-49220518D01*
X292573911Y-49125280D01*
X292478673Y-49077660D01*
X292383435Y-49077660D01*
X287431054Y-49077660D02*
X287240577Y-49077660D01*
X287145339Y-49125280D01*
X287050101Y-49220518D01*
X287002482Y-49410994D01*
X287002482Y-49744327D01*
X287050101Y-49934803D01*
X287145339Y-50030041D01*
X287240577Y-50077660D01*
X287431054Y-50077660D01*
X287526292Y-50030041D01*
X287621530Y-49934803D01*
X287669149Y-49744327D01*
X287669149Y-49410994D01*
X287621530Y-49220518D01*
X287526292Y-49125280D01*
X287431054Y-49077660D01*
X286573911Y-49410994D02*
X286573911Y-50077660D01*
X286573911Y-49506232D02*
X286526292Y-49458613D01*
X286431054Y-49410994D01*
X286288196Y-49410994D01*
X286192958Y-49458613D01*
X286145339Y-49553851D01*
X286145339Y-50077660D01*
X37290601Y-33250160D02*
X37623935Y-32773970D01*
X37862030Y-33250160D02*
X37862030Y-32250160D01*
X37481077Y-32250160D01*
X37385839Y-32297780D01*
X37338220Y-32345399D01*
X37290601Y-32440637D01*
X37290601Y-32583494D01*
X37338220Y-32678732D01*
X37385839Y-32726351D01*
X37481077Y-32773970D01*
X37862030Y-32773970D01*
X36957268Y-32250160D02*
X36338220Y-32250160D01*
X36671554Y-32631113D01*
X36528696Y-32631113D01*
X36433458Y-32678732D01*
X36385839Y-32726351D01*
X36338220Y-32821589D01*
X36338220Y-33059684D01*
X36385839Y-33154922D01*
X36433458Y-33202541D01*
X36528696Y-33250160D01*
X36814411Y-33250160D01*
X36909649Y-33202541D01*
X36957268Y-33154922D01*
X59849247Y-40454794D02*
X59849247Y-40522137D01*
X59916591Y-40656824D01*
X59983934Y-40724168D01*
X60118622Y-40791511D01*
X60253309Y-40791511D01*
X60354324Y-40757840D01*
X60522683Y-40656824D01*
X60623698Y-40555809D01*
X60724713Y-40387450D01*
X60758385Y-40286435D01*
X60758385Y-40151748D01*
X60691041Y-40017061D01*
X60623698Y-39949717D01*
X60489011Y-39882374D01*
X60421667Y-39882374D01*
X59849247Y-39175267D02*
X60185965Y-39511985D01*
X59882919Y-39882374D01*
X59882919Y-39815030D01*
X59849247Y-39714015D01*
X59680889Y-39545656D01*
X59579873Y-39511985D01*
X59512530Y-39511985D01*
X59411515Y-39545656D01*
X59243156Y-39714015D01*
X59209484Y-39815030D01*
X59209484Y-39882374D01*
X59243156Y-39983389D01*
X59411515Y-40151748D01*
X59512530Y-40185420D01*
X59579873Y-40185420D01*
X87186371Y-24907806D02*
X87043514Y-24955425D01*
X86805418Y-24955425D01*
X86710180Y-24907806D01*
X86662561Y-24860187D01*
X86614942Y-24764949D01*
X86614942Y-24669711D01*
X86662561Y-24574473D01*
X86710180Y-24526854D01*
X86805418Y-24479235D01*
X86995895Y-24431616D01*
X87091133Y-24383997D01*
X87138752Y-24336378D01*
X87186371Y-24241140D01*
X87186371Y-24145902D01*
X87138752Y-24050664D01*
X87091133Y-24003045D01*
X86995895Y-23955425D01*
X86757799Y-23955425D01*
X86614942Y-24003045D01*
X85614942Y-24860187D02*
X85662561Y-24907806D01*
X85805418Y-24955425D01*
X85900656Y-24955425D01*
X86043514Y-24907806D01*
X86138752Y-24812568D01*
X86186371Y-24717330D01*
X86233990Y-24526854D01*
X86233990Y-24383997D01*
X86186371Y-24193521D01*
X86138752Y-24098283D01*
X86043514Y-24003045D01*
X85900656Y-23955425D01*
X85805418Y-23955425D01*
X85662561Y-24003045D01*
X85614942Y-24050664D01*
X84710180Y-24955425D02*
X85186371Y-24955425D01*
X85186371Y-23955425D01*
X87185180Y-27408166D02*
X87042323Y-27455785D01*
X86804228Y-27455785D01*
X86708990Y-27408166D01*
X86661371Y-27360547D01*
X86613752Y-27265309D01*
X86613752Y-27170071D01*
X86661371Y-27074833D01*
X86708990Y-27027214D01*
X86804228Y-26979595D01*
X86994704Y-26931976D01*
X87089942Y-26884357D01*
X87137561Y-26836738D01*
X87185180Y-26741500D01*
X87185180Y-26646262D01*
X87137561Y-26551024D01*
X87089942Y-26503405D01*
X86994704Y-26455785D01*
X86756609Y-26455785D01*
X86613752Y-26503405D01*
X86185180Y-27455785D02*
X86185180Y-26455785D01*
X85947085Y-26455785D01*
X85804228Y-26503405D01*
X85708990Y-26598643D01*
X85661371Y-26693881D01*
X85613752Y-26884357D01*
X85613752Y-27027214D01*
X85661371Y-27217690D01*
X85708990Y-27312928D01*
X85804228Y-27408166D01*
X85947085Y-27455785D01*
X86185180Y-27455785D01*
X85232799Y-27170071D02*
X84756609Y-27170071D01*
X85328037Y-27455785D02*
X84994704Y-26455785D01*
X84661371Y-27455785D01*
X104449506Y-98752726D02*
X104116173Y-98752726D01*
X103973315Y-99276535D02*
X104449506Y-99276535D01*
X104449506Y-98276535D01*
X103973315Y-98276535D01*
X103639982Y-98276535D02*
X102973315Y-99276535D01*
X102973315Y-98276535D02*
X103639982Y-99276535D01*
X102735220Y-98276535D02*
X102163792Y-98276535D01*
X102449506Y-99276535D02*
X102449506Y-98276535D01*
X102068554Y-99371774D02*
X101306649Y-99371774D01*
X100497125Y-99181297D02*
X100544744Y-99228916D01*
X100687601Y-99276535D01*
X100782839Y-99276535D01*
X100925696Y-99228916D01*
X101020935Y-99133678D01*
X101068554Y-99038440D01*
X101116173Y-98847964D01*
X101116173Y-98705107D01*
X101068554Y-98514631D01*
X101020935Y-98419393D01*
X100925696Y-98324155D01*
X100782839Y-98276535D01*
X100687601Y-98276535D01*
X100544744Y-98324155D01*
X100497125Y-98371774D01*
X100116173Y-98371774D02*
X100068554Y-98324155D01*
X99973315Y-98276535D01*
X99735220Y-98276535D01*
X99639982Y-98324155D01*
X99592363Y-98371774D01*
X99544744Y-98467012D01*
X99544744Y-98562250D01*
X99592363Y-98705107D01*
X100163792Y-99276535D01*
X99544744Y-99276535D01*
X195889506Y-93894976D02*
X195556173Y-93894976D01*
X195413315Y-94418785D02*
X195889506Y-94418785D01*
X195889506Y-93418785D01*
X195413315Y-93418785D01*
X195079982Y-93418785D02*
X194413315Y-94418785D01*
X194413315Y-93418785D02*
X195079982Y-94418785D01*
X194175220Y-93418785D02*
X193603792Y-93418785D01*
X193889506Y-94418785D02*
X193889506Y-93418785D01*
X193508554Y-94514024D02*
X192746649Y-94514024D01*
X191937125Y-94323547D02*
X191984744Y-94371166D01*
X192127601Y-94418785D01*
X192222839Y-94418785D01*
X192365696Y-94371166D01*
X192460935Y-94275928D01*
X192508554Y-94180690D01*
X192556173Y-93990214D01*
X192556173Y-93847357D01*
X192508554Y-93656881D01*
X192460935Y-93561643D01*
X192365696Y-93466405D01*
X192222839Y-93418785D01*
X192127601Y-93418785D01*
X191984744Y-93466405D01*
X191937125Y-93514024D01*
X191079982Y-93752119D02*
X191079982Y-94418785D01*
X191318077Y-93371166D02*
X191556173Y-94085452D01*
X190937125Y-94085452D01*
X266374506Y-98752726D02*
X266041173Y-98752726D01*
X265898315Y-99276535D02*
X266374506Y-99276535D01*
X266374506Y-98276535D01*
X265898315Y-98276535D01*
X265564982Y-98276535D02*
X264898315Y-99276535D01*
X264898315Y-98276535D02*
X265564982Y-99276535D01*
X264660220Y-98276535D02*
X264088792Y-98276535D01*
X264374506Y-99276535D02*
X264374506Y-98276535D01*
X263993554Y-99371774D02*
X263231649Y-99371774D01*
X262422125Y-99181297D02*
X262469744Y-99228916D01*
X262612601Y-99276535D01*
X262707839Y-99276535D01*
X262850696Y-99228916D01*
X262945935Y-99133678D01*
X262993554Y-99038440D01*
X263041173Y-98847964D01*
X263041173Y-98705107D01*
X262993554Y-98514631D01*
X262945935Y-98419393D01*
X262850696Y-98324155D01*
X262707839Y-98276535D01*
X262612601Y-98276535D01*
X262469744Y-98324155D01*
X262422125Y-98371774D01*
X261564982Y-98276535D02*
X261755458Y-98276535D01*
X261850696Y-98324155D01*
X261898315Y-98371774D01*
X261993554Y-98514631D01*
X262041173Y-98705107D01*
X262041173Y-99086059D01*
X261993554Y-99181297D01*
X261945935Y-99228916D01*
X261850696Y-99276535D01*
X261660220Y-99276535D01*
X261564982Y-99228916D01*
X261517363Y-99181297D01*
X261469744Y-99086059D01*
X261469744Y-98847964D01*
X261517363Y-98752726D01*
X261564982Y-98705107D01*
X261660220Y-98657488D01*
X261850696Y-98657488D01*
X261945935Y-98705107D01*
X261993554Y-98752726D01*
X262041173Y-98847964D01*
X37774506Y-102324601D02*
X37441173Y-102324601D01*
X37298315Y-102848410D02*
X37774506Y-102848410D01*
X37774506Y-101848410D01*
X37298315Y-101848410D01*
X36964982Y-101848410D02*
X36298315Y-102848410D01*
X36298315Y-101848410D02*
X36964982Y-102848410D01*
X36060220Y-101848410D02*
X35488792Y-101848410D01*
X35774506Y-102848410D02*
X35774506Y-101848410D01*
X35393554Y-102943649D02*
X34631649Y-102943649D01*
X33822125Y-102753172D02*
X33869744Y-102800791D01*
X34012601Y-102848410D01*
X34107839Y-102848410D01*
X34250696Y-102800791D01*
X34345935Y-102705553D01*
X34393554Y-102610315D01*
X34441173Y-102419839D01*
X34441173Y-102276982D01*
X34393554Y-102086506D01*
X34345935Y-101991268D01*
X34250696Y-101896030D01*
X34107839Y-101848410D01*
X34012601Y-101848410D01*
X33869744Y-101896030D01*
X33822125Y-101943649D01*
X33203077Y-101848410D02*
X33107839Y-101848410D01*
X33012601Y-101896030D01*
X32964982Y-101943649D01*
X32917363Y-102038887D01*
X32869744Y-102229363D01*
X32869744Y-102467458D01*
X32917363Y-102657934D01*
X32964982Y-102753172D01*
X33012601Y-102800791D01*
X33107839Y-102848410D01*
X33203077Y-102848410D01*
X33298315Y-102800791D01*
X33345935Y-102753172D01*
X33393554Y-102657934D01*
X33441173Y-102467458D01*
X33441173Y-102229363D01*
X33393554Y-102038887D01*
X33345935Y-101943649D01*
X33298315Y-101896030D01*
X33203077Y-101848410D01*
X43235506Y-73366351D02*
X42902173Y-73366351D01*
X42759315Y-73890160D02*
X43235506Y-73890160D01*
X43235506Y-72890160D01*
X42759315Y-72890160D01*
X42425982Y-72890160D02*
X41759315Y-73890160D01*
X41759315Y-72890160D02*
X42425982Y-73890160D01*
X41521220Y-72890160D02*
X40949792Y-72890160D01*
X41235506Y-73890160D02*
X41235506Y-72890160D01*
X40854554Y-73985399D02*
X40092649Y-73985399D01*
X39283125Y-73890160D02*
X39616458Y-73413970D01*
X39854554Y-73890160D02*
X39854554Y-72890160D01*
X39473601Y-72890160D01*
X39378363Y-72937780D01*
X39330744Y-72985399D01*
X39283125Y-73080637D01*
X39283125Y-73223494D01*
X39330744Y-73318732D01*
X39378363Y-73366351D01*
X39473601Y-73413970D01*
X39854554Y-73413970D01*
X38902173Y-72985399D02*
X38854554Y-72937780D01*
X38759315Y-72890160D01*
X38521220Y-72890160D01*
X38425982Y-72937780D01*
X38378363Y-72985399D01*
X38330744Y-73080637D01*
X38330744Y-73175875D01*
X38378363Y-73318732D01*
X38949792Y-73890160D01*
X38330744Y-73890160D01*
X285424506Y-86748976D02*
X285091173Y-86748976D01*
X284948315Y-87272785D02*
X285424506Y-87272785D01*
X285424506Y-86272785D01*
X284948315Y-86272785D01*
X284614982Y-86272785D02*
X283948315Y-87272785D01*
X283948315Y-86272785D02*
X284614982Y-87272785D01*
X283710220Y-86272785D02*
X283138792Y-86272785D01*
X283424506Y-87272785D02*
X283424506Y-86272785D01*
X283043554Y-87368024D02*
X282281649Y-87368024D01*
X281472125Y-87272785D02*
X281805458Y-86796595D01*
X282043554Y-87272785D02*
X282043554Y-86272785D01*
X281662601Y-86272785D01*
X281567363Y-86320405D01*
X281519744Y-86368024D01*
X281472125Y-86463262D01*
X281472125Y-86606119D01*
X281519744Y-86701357D01*
X281567363Y-86748976D01*
X281662601Y-86796595D01*
X282043554Y-86796595D01*
X281138792Y-86272785D02*
X280519744Y-86272785D01*
X280853077Y-86653738D01*
X280710220Y-86653738D01*
X280614982Y-86701357D01*
X280567363Y-86748976D01*
X280519744Y-86844214D01*
X280519744Y-87082309D01*
X280567363Y-87177547D01*
X280614982Y-87225166D01*
X280710220Y-87272785D01*
X280995935Y-87272785D01*
X281091173Y-87225166D01*
X281138792Y-87177547D01*
X285424506Y-94368976D02*
X285091173Y-94368976D01*
X284948315Y-94892785D02*
X285424506Y-94892785D01*
X285424506Y-93892785D01*
X284948315Y-93892785D01*
X284614982Y-93892785D02*
X283948315Y-94892785D01*
X283948315Y-93892785D02*
X284614982Y-94892785D01*
X283710220Y-93892785D02*
X283138792Y-93892785D01*
X283424506Y-94892785D02*
X283424506Y-93892785D01*
X283043554Y-94988024D02*
X282281649Y-94988024D01*
X281472125Y-94892785D02*
X281805458Y-94416595D01*
X282043554Y-94892785D02*
X282043554Y-93892785D01*
X281662601Y-93892785D01*
X281567363Y-93940405D01*
X281519744Y-93988024D01*
X281472125Y-94083262D01*
X281472125Y-94226119D01*
X281519744Y-94321357D01*
X281567363Y-94368976D01*
X281662601Y-94416595D01*
X282043554Y-94416595D01*
X280900696Y-94321357D02*
X280995935Y-94273738D01*
X281043554Y-94226119D01*
X281091173Y-94130881D01*
X281091173Y-94083262D01*
X281043554Y-93988024D01*
X280995935Y-93940405D01*
X280900696Y-93892785D01*
X280710220Y-93892785D01*
X280614982Y-93940405D01*
X280567363Y-93988024D01*
X280519744Y-94083262D01*
X280519744Y-94130881D01*
X280567363Y-94226119D01*
X280614982Y-94273738D01*
X280710220Y-94321357D01*
X280900696Y-94321357D01*
X280995935Y-94368976D01*
X281043554Y-94416595D01*
X281091173Y-94511833D01*
X281091173Y-94702309D01*
X281043554Y-94797547D01*
X280995935Y-94845166D01*
X280900696Y-94892785D01*
X280710220Y-94892785D01*
X280614982Y-94845166D01*
X280567363Y-94797547D01*
X280519744Y-94702309D01*
X280519744Y-94511833D01*
X280567363Y-94416595D01*
X280614982Y-94368976D01*
X280710220Y-94321357D01*
X41307247Y-35628794D02*
X41307247Y-35696137D01*
X41374591Y-35830824D01*
X41441934Y-35898168D01*
X41576622Y-35965511D01*
X41711309Y-35965511D01*
X41812324Y-35931840D01*
X41980683Y-35830824D01*
X42081698Y-35729809D01*
X42182713Y-35561450D01*
X42216385Y-35460435D01*
X42216385Y-35325748D01*
X42149041Y-35191061D01*
X42081698Y-35123717D01*
X41947011Y-35056374D01*
X41879667Y-35056374D01*
X40566469Y-35022702D02*
X40970530Y-35426763D01*
X40768499Y-35224733D02*
X41475606Y-34517626D01*
X41441935Y-34685985D01*
X41441934Y-34820672D01*
X41475606Y-34921687D01*
X53285325Y-27543154D02*
X53622043Y-27879872D01*
X53150638Y-26937063D02*
X53285325Y-27543154D01*
X52679234Y-27408467D01*
X52780249Y-28721665D02*
X53184310Y-28317604D01*
X52982279Y-28519635D02*
X52275173Y-27812528D01*
X52443531Y-27846200D01*
X52578218Y-27846200D01*
X52679234Y-27812528D01*
X46133247Y-34866794D02*
X46133247Y-34934137D01*
X46200591Y-35068824D01*
X46267934Y-35136168D01*
X46402622Y-35203511D01*
X46537309Y-35203511D01*
X46638324Y-35169840D01*
X46806683Y-35068824D01*
X46907698Y-34967809D01*
X47008713Y-34799450D01*
X47042385Y-34698435D01*
X47042385Y-34563748D01*
X46975041Y-34429061D01*
X46907698Y-34361717D01*
X46773011Y-34294374D01*
X46705667Y-34294374D01*
X46537309Y-33991328D02*
X46099576Y-33553595D01*
X46065904Y-34058672D01*
X45964889Y-33957656D01*
X45863873Y-33923985D01*
X45796530Y-33923985D01*
X45695515Y-33957656D01*
X45527156Y-34126015D01*
X45493484Y-34227030D01*
X45493484Y-34294374D01*
X45527156Y-34395389D01*
X45729186Y-34597420D01*
X45830202Y-34631092D01*
X45897545Y-34631092D01*
X62277622Y-25198799D02*
X62277622Y-25131456D01*
X62210278Y-24996769D01*
X62142935Y-24929425D01*
X62008247Y-24862082D01*
X61873560Y-24862082D01*
X61772545Y-24895753D01*
X61604186Y-24996769D01*
X61503171Y-25097784D01*
X61402156Y-25266143D01*
X61368484Y-25367158D01*
X61368484Y-25501845D01*
X61435828Y-25636532D01*
X61503171Y-25703876D01*
X61637858Y-25771219D01*
X61705202Y-25771219D01*
X61873560Y-26074265D02*
X62344965Y-26545669D01*
X62749026Y-25535517D01*
X62640324Y-32599092D02*
X62707667Y-32599092D01*
X62842354Y-32531748D01*
X62909698Y-32464405D01*
X62977041Y-32329717D01*
X62977041Y-32195030D01*
X62943370Y-32094015D01*
X62842354Y-31925656D01*
X62741339Y-31824641D01*
X62572980Y-31723626D01*
X62471965Y-31689954D01*
X62337278Y-31689954D01*
X62202591Y-31757298D01*
X62135247Y-31824641D01*
X62067904Y-31959328D01*
X62067904Y-32026672D01*
X61630171Y-32801122D02*
X62101576Y-33272527D01*
X61529156Y-32363389D02*
X62202591Y-32700107D01*
X61764858Y-33137840D01*
X51038315Y-54393245D02*
X50562125Y-54059912D01*
X51038315Y-53821817D02*
X50038315Y-53821817D01*
X50038315Y-54202769D01*
X50085935Y-54298007D01*
X50133554Y-54345626D01*
X50228792Y-54393245D01*
X50371649Y-54393245D01*
X50466887Y-54345626D01*
X50514506Y-54298007D01*
X50562125Y-54202769D01*
X50562125Y-53821817D01*
X50990696Y-54774198D02*
X51038315Y-54917055D01*
X51038315Y-55155150D01*
X50990696Y-55250388D01*
X50943077Y-55298007D01*
X50847839Y-55345626D01*
X50752601Y-55345626D01*
X50657363Y-55298007D01*
X50609744Y-55250388D01*
X50562125Y-55155150D01*
X50514506Y-54964674D01*
X50466887Y-54869436D01*
X50419268Y-54821817D01*
X50324030Y-54774198D01*
X50228792Y-54774198D01*
X50133554Y-54821817D01*
X50085935Y-54869436D01*
X50038315Y-54964674D01*
X50038315Y-55202769D01*
X50085935Y-55345626D01*
X50038315Y-55631341D02*
X50038315Y-56202769D01*
X51038315Y-55917055D02*
X50038315Y-55917055D01*
X56118315Y-53769436D02*
X55118315Y-53769436D01*
X55832601Y-54102769D01*
X55118315Y-54436103D01*
X56118315Y-54436103D01*
X56118315Y-54912293D02*
X55118315Y-54912293D01*
X56070696Y-55340865D02*
X56118315Y-55483722D01*
X56118315Y-55721817D01*
X56070696Y-55817055D01*
X56023077Y-55864674D01*
X55927839Y-55912293D01*
X55832601Y-55912293D01*
X55737363Y-55864674D01*
X55689744Y-55817055D01*
X55642125Y-55721817D01*
X55594506Y-55531341D01*
X55546887Y-55436103D01*
X55499268Y-55388484D01*
X55404030Y-55340865D01*
X55308792Y-55340865D01*
X55213554Y-55388484D01*
X55165935Y-55436103D01*
X55118315Y-55531341D01*
X55118315Y-55769436D01*
X55165935Y-55912293D01*
X55118315Y-56531341D02*
X55118315Y-56721817D01*
X55165935Y-56817055D01*
X55261173Y-56912293D01*
X55451649Y-56959912D01*
X55784982Y-56959912D01*
X55975458Y-56912293D01*
X56070696Y-56817055D01*
X56118315Y-56721817D01*
X56118315Y-56531341D01*
X56070696Y-56436103D01*
X55975458Y-56340865D01*
X55784982Y-56293245D01*
X55451649Y-56293245D01*
X55261173Y-56340865D01*
X55165935Y-56436103D01*
X55118315Y-56531341D01*
X50085935Y-45878960D02*
X50038315Y-45783722D01*
X50038315Y-45640865D01*
X50085935Y-45498007D01*
X50181173Y-45402769D01*
X50276411Y-45355150D01*
X50466887Y-45307531D01*
X50609744Y-45307531D01*
X50800220Y-45355150D01*
X50895458Y-45402769D01*
X50990696Y-45498007D01*
X51038315Y-45640865D01*
X51038315Y-45736103D01*
X50990696Y-45878960D01*
X50943077Y-45926579D01*
X50609744Y-45926579D01*
X50609744Y-45736103D01*
X51038315Y-46355150D02*
X50038315Y-46355150D01*
X51038315Y-46926579D01*
X50038315Y-46926579D01*
X51038315Y-47402769D02*
X50038315Y-47402769D01*
X50038315Y-47640865D01*
X50085935Y-47783722D01*
X50181173Y-47878960D01*
X50276411Y-47926579D01*
X50466887Y-47974198D01*
X50609744Y-47974198D01*
X50800220Y-47926579D01*
X50895458Y-47878960D01*
X50990696Y-47783722D01*
X51038315Y-47640865D01*
X51038315Y-47402769D01*
X53530696Y-53784690D02*
X53578315Y-53927547D01*
X53578315Y-54165643D01*
X53530696Y-54260881D01*
X53483077Y-54308500D01*
X53387839Y-54356119D01*
X53292601Y-54356119D01*
X53197363Y-54308500D01*
X53149744Y-54260881D01*
X53102125Y-54165643D01*
X53054506Y-53975166D01*
X53006887Y-53879928D01*
X52959268Y-53832309D01*
X52864030Y-53784690D01*
X52768792Y-53784690D01*
X52673554Y-53832309D01*
X52625935Y-53879928D01*
X52578315Y-53975166D01*
X52578315Y-54213262D01*
X52625935Y-54356119D01*
X53483077Y-55356119D02*
X53530696Y-55308500D01*
X53578315Y-55165643D01*
X53578315Y-55070405D01*
X53530696Y-54927547D01*
X53435458Y-54832309D01*
X53340220Y-54784690D01*
X53149744Y-54737071D01*
X53006887Y-54737071D01*
X52816411Y-54784690D01*
X52721173Y-54832309D01*
X52625935Y-54927547D01*
X52578315Y-55070405D01*
X52578315Y-55165643D01*
X52625935Y-55308500D01*
X52673554Y-55356119D01*
X53578315Y-55784690D02*
X52578315Y-55784690D01*
X53578315Y-56356119D02*
X53006887Y-55927547D01*
X52578315Y-56356119D02*
X53149744Y-55784690D01*
X55801738Y-45148690D02*
X55801738Y-45910595D01*
X56182690Y-45529643D02*
X55420786Y-45529643D01*
X55182690Y-46862976D02*
X55182690Y-46386785D01*
X55658881Y-46339166D01*
X55611262Y-46386785D01*
X55563643Y-46482024D01*
X55563643Y-46720119D01*
X55611262Y-46815357D01*
X55658881Y-46862976D01*
X55754119Y-46910595D01*
X55992214Y-46910595D01*
X56087452Y-46862976D01*
X56135071Y-46815357D01*
X56182690Y-46720119D01*
X56182690Y-46482024D01*
X56135071Y-46386785D01*
X56087452Y-46339166D01*
X55182690Y-47196309D02*
X56182690Y-47529643D01*
X55182690Y-47862976D01*
X53632690Y-44769436D02*
X52632690Y-44769436D01*
X53346976Y-45102769D01*
X52632690Y-45436103D01*
X53632690Y-45436103D01*
X52632690Y-46102769D02*
X52632690Y-46293245D01*
X52680310Y-46388484D01*
X52775548Y-46483722D01*
X52966024Y-46531341D01*
X53299357Y-46531341D01*
X53489833Y-46483722D01*
X53585071Y-46388484D01*
X53632690Y-46293245D01*
X53632690Y-46102769D01*
X53585071Y-46007531D01*
X53489833Y-45912293D01*
X53299357Y-45864674D01*
X52966024Y-45864674D01*
X52775548Y-45912293D01*
X52680310Y-46007531D01*
X52632690Y-46102769D01*
X53585071Y-46912293D02*
X53632690Y-47055150D01*
X53632690Y-47293245D01*
X53585071Y-47388484D01*
X53537452Y-47436103D01*
X53442214Y-47483722D01*
X53346976Y-47483722D01*
X53251738Y-47436103D01*
X53204119Y-47388484D01*
X53156500Y-47293245D01*
X53108881Y-47102769D01*
X53061262Y-47007531D01*
X53013643Y-46959912D01*
X52918405Y-46912293D01*
X52823167Y-46912293D01*
X52727929Y-46959912D01*
X52680310Y-47007531D01*
X52632690Y-47102769D01*
X52632690Y-47340865D01*
X52680310Y-47483722D01*
X53632690Y-47912293D02*
X52632690Y-47912293D01*
X31166768Y-48027700D02*
X31642958Y-48027700D01*
X31642958Y-47027700D01*
X30452482Y-47980081D02*
X30547720Y-48027700D01*
X30738196Y-48027700D01*
X30833435Y-47980081D01*
X30881054Y-47884843D01*
X30881054Y-47503891D01*
X30833435Y-47408653D01*
X30738196Y-47361034D01*
X30547720Y-47361034D01*
X30452482Y-47408653D01*
X30404863Y-47503891D01*
X30404863Y-47599129D01*
X30881054Y-47694367D01*
X30119149Y-47361034D02*
X29738196Y-47361034D01*
X29976292Y-48027700D02*
X29976292Y-47170558D01*
X29928673Y-47075320D01*
X29833435Y-47027700D01*
X29738196Y-47027700D01*
X29547720Y-47361034D02*
X29166768Y-47361034D01*
X29404863Y-47027700D02*
X29404863Y-47884843D01*
X29357244Y-47980081D01*
X29262006Y-48027700D01*
X29166768Y-48027700D01*
X27595339Y-48027700D02*
X28071530Y-48027700D01*
X28071530Y-47027700D01*
X27262006Y-47503891D02*
X26928673Y-47503891D01*
X26785815Y-48027700D02*
X27262006Y-48027700D01*
X27262006Y-47027700D01*
X26785815Y-47027700D01*
X26357244Y-48027700D02*
X26357244Y-47027700D01*
X26119149Y-47027700D01*
X25976292Y-47075320D01*
X25881054Y-47170558D01*
X25833435Y-47265796D01*
X25785815Y-47456272D01*
X25785815Y-47599129D01*
X25833435Y-47789605D01*
X25881054Y-47884843D01*
X25976292Y-47980081D01*
X26119149Y-48027700D01*
X26357244Y-48027700D01*
X25404863Y-47980081D02*
X25309625Y-48027700D01*
X25119149Y-48027700D01*
X25023911Y-47980081D01*
X24976292Y-47884843D01*
X24976292Y-47837224D01*
X25023911Y-47741986D01*
X25119149Y-47694367D01*
X25262006Y-47694367D01*
X25357244Y-47646748D01*
X25404863Y-47551510D01*
X25404863Y-47503891D01*
X25357244Y-47408653D01*
X25262006Y-47361034D01*
X25119149Y-47361034D01*
X25023911Y-47408653D01*
X32907363Y-49227620D02*
X32716887Y-49227620D01*
X32621649Y-49275240D01*
X32526411Y-49370478D01*
X32478792Y-49560954D01*
X32478792Y-49894287D01*
X32526411Y-50084763D01*
X32621649Y-50180001D01*
X32716887Y-50227620D01*
X32907363Y-50227620D01*
X33002601Y-50180001D01*
X33097839Y-50084763D01*
X33145458Y-49894287D01*
X33145458Y-49560954D01*
X33097839Y-49370478D01*
X33002601Y-49275240D01*
X32907363Y-49227620D01*
X32193077Y-49560954D02*
X31812125Y-49560954D01*
X32050220Y-50227620D02*
X32050220Y-49370478D01*
X32002601Y-49275240D01*
X31907363Y-49227620D01*
X31812125Y-49227620D01*
X31621649Y-49560954D02*
X31240696Y-49560954D01*
X31478792Y-50227620D02*
X31478792Y-49370478D01*
X31431173Y-49275240D01*
X31335935Y-49227620D01*
X31240696Y-49227620D01*
X25854744Y-49127620D02*
X25664268Y-49127620D01*
X25569030Y-49175240D01*
X25473792Y-49270478D01*
X25426173Y-49460954D01*
X25426173Y-49794287D01*
X25473792Y-49984763D01*
X25569030Y-50080001D01*
X25664268Y-50127620D01*
X25854744Y-50127620D01*
X25949982Y-50080001D01*
X26045220Y-49984763D01*
X26092839Y-49794287D01*
X26092839Y-49460954D01*
X26045220Y-49270478D01*
X25949982Y-49175240D01*
X25854744Y-49127620D01*
X24997601Y-49460954D02*
X24997601Y-50127620D01*
X24997601Y-49556192D02*
X24949982Y-49508573D01*
X24854744Y-49460954D01*
X24711887Y-49460954D01*
X24616649Y-49508573D01*
X24569030Y-49603811D01*
X24569030Y-50127620D01*
X50665268Y-19677976D02*
X50998601Y-19677976D01*
X50998601Y-20201785D02*
X50998601Y-19201785D01*
X50522411Y-19201785D01*
X49617649Y-20201785D02*
X50189077Y-20201785D01*
X49903363Y-20201785D02*
X49903363Y-19201785D01*
X49998601Y-19344643D01*
X50093839Y-19439881D01*
X50189077Y-19487500D01*
X43894601Y-25550785D02*
X44227935Y-25074595D01*
X44466030Y-25550785D02*
X44466030Y-24550785D01*
X44085077Y-24550785D01*
X43989839Y-24598405D01*
X43942220Y-24646024D01*
X43894601Y-24741262D01*
X43894601Y-24884119D01*
X43942220Y-24979357D01*
X43989839Y-25026976D01*
X44085077Y-25074595D01*
X44466030Y-25074595D01*
X42942220Y-25550785D02*
X43513649Y-25550785D01*
X43227935Y-25550785D02*
X43227935Y-24550785D01*
X43323173Y-24693643D01*
X43418411Y-24788881D01*
X43513649Y-24836500D01*
X218749506Y-98752726D02*
X218416173Y-98752726D01*
X218273315Y-99276535D02*
X218749506Y-99276535D01*
X218749506Y-98276535D01*
X218273315Y-98276535D01*
X217939982Y-98276535D02*
X217273315Y-99276535D01*
X217273315Y-98276535D02*
X217939982Y-99276535D01*
X217035220Y-98276535D02*
X216463792Y-98276535D01*
X216749506Y-99276535D02*
X216749506Y-98276535D01*
X216368554Y-99371774D02*
X215606649Y-99371774D01*
X214797125Y-99181297D02*
X214844744Y-99228916D01*
X214987601Y-99276535D01*
X215082839Y-99276535D01*
X215225696Y-99228916D01*
X215320935Y-99133678D01*
X215368554Y-99038440D01*
X215416173Y-98847964D01*
X215416173Y-98705107D01*
X215368554Y-98514631D01*
X215320935Y-98419393D01*
X215225696Y-98324155D01*
X215082839Y-98276535D01*
X214987601Y-98276535D01*
X214844744Y-98324155D01*
X214797125Y-98371774D01*
X213892363Y-98276535D02*
X214368554Y-98276535D01*
X214416173Y-98752726D01*
X214368554Y-98705107D01*
X214273315Y-98657488D01*
X214035220Y-98657488D01*
X213939982Y-98705107D01*
X213892363Y-98752726D01*
X213844744Y-98847964D01*
X213844744Y-99086059D01*
X213892363Y-99181297D01*
X213939982Y-99228916D01*
X214035220Y-99276535D01*
X214273315Y-99276535D01*
X214368554Y-99228916D01*
X214416173Y-99181297D01*
X157408506Y-32885101D02*
X157075173Y-32885101D01*
X156932315Y-33408910D02*
X157408506Y-33408910D01*
X157408506Y-32408910D01*
X156932315Y-32408910D01*
X156598982Y-32408910D02*
X155932315Y-33408910D01*
X155932315Y-32408910D02*
X156598982Y-33408910D01*
X155694220Y-32408910D02*
X155122792Y-32408910D01*
X155408506Y-33408910D02*
X155408506Y-32408910D01*
X155027554Y-33504149D02*
X154265649Y-33504149D01*
X153456125Y-33408910D02*
X153789458Y-32932720D01*
X154027554Y-33408910D02*
X154027554Y-32408910D01*
X153646601Y-32408910D01*
X153551363Y-32456530D01*
X153503744Y-32504149D01*
X153456125Y-32599387D01*
X153456125Y-32742244D01*
X153503744Y-32837482D01*
X153551363Y-32885101D01*
X153646601Y-32932720D01*
X154027554Y-32932720D01*
X152551363Y-32408910D02*
X153027554Y-32408910D01*
X153075173Y-32885101D01*
X153027554Y-32837482D01*
X152932315Y-32789863D01*
X152694220Y-32789863D01*
X152598982Y-32837482D01*
X152551363Y-32885101D01*
X152503744Y-32980339D01*
X152503744Y-33218434D01*
X152551363Y-33313672D01*
X152598982Y-33361291D01*
X152694220Y-33408910D01*
X152932315Y-33408910D01*
X153027554Y-33361291D01*
X153075173Y-33313672D01*
X28940315Y-20051869D02*
X27940315Y-20051869D01*
X27940315Y-20289964D01*
X27987935Y-20432821D01*
X28083173Y-20528059D01*
X28178411Y-20575678D01*
X28368887Y-20623297D01*
X28511744Y-20623297D01*
X28702220Y-20575678D01*
X28797458Y-20528059D01*
X28892696Y-20432821D01*
X28940315Y-20289964D01*
X28940315Y-20051869D01*
X28940315Y-21575678D02*
X28940315Y-21004250D01*
X28940315Y-21289964D02*
X27940315Y-21289964D01*
X28083173Y-21194726D01*
X28178411Y-21099488D01*
X28226030Y-21004250D01*
X27940315Y-22194726D02*
X27940315Y-22289964D01*
X27987935Y-22385202D01*
X28035554Y-22432821D01*
X28130792Y-22480440D01*
X28321268Y-22528059D01*
X28559363Y-22528059D01*
X28749839Y-22480440D01*
X28845077Y-22432821D01*
X28892696Y-22385202D01*
X28940315Y-22289964D01*
X28940315Y-22194726D01*
X28892696Y-22099488D01*
X28845077Y-22051869D01*
X28749839Y-22004250D01*
X28559363Y-21956631D01*
X28321268Y-21956631D01*
X28130792Y-22004250D01*
X28035554Y-22051869D01*
X27987935Y-22099488D01*
X27940315Y-22194726D01*
D15*
X23084839Y-21649008D02*
X23884839Y-21915675D01*
X23084839Y-22182341D01*
X23808649Y-22906151D02*
X23846744Y-22868055D01*
X23884839Y-22753770D01*
X23884839Y-22677579D01*
X23846744Y-22563294D01*
X23770554Y-22487103D01*
X23694363Y-22449008D01*
X23541982Y-22410913D01*
X23427696Y-22410913D01*
X23275315Y-22449008D01*
X23199125Y-22487103D01*
X23122935Y-22563294D01*
X23084839Y-22677579D01*
X23084839Y-22753770D01*
X23122935Y-22868055D01*
X23161030Y-22906151D01*
X23808649Y-23706151D02*
X23846744Y-23668055D01*
X23884839Y-23553770D01*
X23884839Y-23477579D01*
X23846744Y-23363294D01*
X23770554Y-23287103D01*
X23694363Y-23249008D01*
X23541982Y-23210913D01*
X23427696Y-23210913D01*
X23275315Y-23249008D01*
X23199125Y-23287103D01*
X23122935Y-23363294D01*
X23084839Y-23477579D01*
X23084839Y-23553770D01*
X23122935Y-23668055D01*
X23161030Y-23706151D01*
X23122935Y-19186631D02*
X23084839Y-19110440D01*
X23084839Y-18996155D01*
X23122935Y-18881869D01*
X23199125Y-18805678D01*
X23275315Y-18767583D01*
X23427696Y-18729488D01*
X23541982Y-18729488D01*
X23694363Y-18767583D01*
X23770554Y-18805678D01*
X23846744Y-18881869D01*
X23884839Y-18996155D01*
X23884839Y-19072345D01*
X23846744Y-19186631D01*
X23808649Y-19224726D01*
X23541982Y-19224726D01*
X23541982Y-19072345D01*
X23884839Y-19567583D02*
X23084839Y-19567583D01*
X23884839Y-20024726D01*
X23084839Y-20024726D01*
X23884839Y-20405678D02*
X23084839Y-20405678D01*
X23084839Y-20596155D01*
X23122935Y-20710440D01*
X23199125Y-20786631D01*
X23275315Y-20824726D01*
X23427696Y-20862821D01*
X23541982Y-20862821D01*
X23694363Y-20824726D01*
X23770554Y-20786631D01*
X23846744Y-20710440D01*
X23884839Y-20596155D01*
X23884839Y-20405678D01*
D12*
X46598315Y-64214690D02*
X46122125Y-63881357D01*
X46598315Y-63643262D02*
X45598315Y-63643262D01*
X45598315Y-64024214D01*
X45645935Y-64119452D01*
X45693554Y-64167071D01*
X45788792Y-64214690D01*
X45931649Y-64214690D01*
X46026887Y-64167071D01*
X46074506Y-64119452D01*
X46122125Y-64024214D01*
X46122125Y-63643262D01*
X46550696Y-65024214D02*
X46598315Y-64928976D01*
X46598315Y-64738500D01*
X46550696Y-64643262D01*
X46455458Y-64595643D01*
X46074506Y-64595643D01*
X45979268Y-64643262D01*
X45931649Y-64738500D01*
X45931649Y-64928976D01*
X45979268Y-65024214D01*
X46074506Y-65071833D01*
X46169744Y-65071833D01*
X46264982Y-64595643D01*
X46550696Y-65452785D02*
X46598315Y-65548024D01*
X46598315Y-65738500D01*
X46550696Y-65833738D01*
X46455458Y-65881357D01*
X46407839Y-65881357D01*
X46312601Y-65833738D01*
X46264982Y-65738500D01*
X46264982Y-65595643D01*
X46217363Y-65500405D01*
X46122125Y-65452785D01*
X46074506Y-65452785D01*
X45979268Y-65500405D01*
X45931649Y-65595643D01*
X45931649Y-65738500D01*
X45979268Y-65833738D01*
X46550696Y-66690881D02*
X46598315Y-66595643D01*
X46598315Y-66405166D01*
X46550696Y-66309928D01*
X46455458Y-66262309D01*
X46074506Y-66262309D01*
X45979268Y-66309928D01*
X45931649Y-66405166D01*
X45931649Y-66595643D01*
X45979268Y-66690881D01*
X46074506Y-66738500D01*
X46169744Y-66738500D01*
X46264982Y-66262309D01*
X45931649Y-67024214D02*
X45931649Y-67405166D01*
X45598315Y-67167071D02*
X46455458Y-67167071D01*
X46550696Y-67214690D01*
X46598315Y-67309928D01*
X46598315Y-67405166D01*
X46550696Y-67690881D02*
X46598315Y-67833738D01*
X46598315Y-68071833D01*
X46550696Y-68167071D01*
X46503077Y-68214690D01*
X46407839Y-68262309D01*
X46312601Y-68262309D01*
X46217363Y-68214690D01*
X46169744Y-68167071D01*
X46122125Y-68071833D01*
X46074506Y-67881357D01*
X46026887Y-67786119D01*
X45979268Y-67738500D01*
X45884030Y-67690881D01*
X45788792Y-67690881D01*
X45693554Y-67738500D01*
X45645935Y-67786119D01*
X45598315Y-67881357D01*
X45598315Y-68119452D01*
X45645935Y-68262309D01*
X45598315Y-68595643D02*
X46598315Y-68833738D01*
X45884030Y-69024214D01*
X46598315Y-69214690D01*
X45598315Y-69452785D01*
X44033904Y-38490137D02*
X44606324Y-38389122D01*
X44437965Y-38894198D02*
X45145072Y-38187092D01*
X44875698Y-37917717D01*
X44774683Y-37884046D01*
X44707339Y-37884046D01*
X44606324Y-37917717D01*
X44505309Y-38018733D01*
X44471637Y-38119748D01*
X44471637Y-38187092D01*
X44505309Y-38288107D01*
X44774683Y-38557481D01*
X44101247Y-37143267D02*
X44437965Y-37479985D01*
X44134919Y-37850374D01*
X44134919Y-37783030D01*
X44101247Y-37682015D01*
X43932889Y-37513656D01*
X43831873Y-37479985D01*
X43764530Y-37479985D01*
X43663515Y-37513656D01*
X43495156Y-37682015D01*
X43461484Y-37783030D01*
X43461484Y-37850374D01*
X43495156Y-37951389D01*
X43663515Y-38119748D01*
X43764530Y-38153420D01*
X43831873Y-38153420D01*
X68041668Y-38254435D02*
X67940653Y-37682015D01*
X68445729Y-37850374D02*
X67738623Y-37143267D01*
X67469248Y-37412641D01*
X67435577Y-37513656D01*
X67435577Y-37581000D01*
X67469248Y-37682015D01*
X67570264Y-37783030D01*
X67671279Y-37816702D01*
X67738623Y-37816702D01*
X67839638Y-37783030D01*
X68109012Y-37513656D01*
X66728470Y-38153420D02*
X66863157Y-38018733D01*
X66964172Y-37985061D01*
X67031516Y-37985061D01*
X67199874Y-38018733D01*
X67368233Y-38119748D01*
X67637607Y-38389122D01*
X67671279Y-38490137D01*
X67671279Y-38557481D01*
X67637607Y-38658496D01*
X67502920Y-38793183D01*
X67401905Y-38826855D01*
X67334561Y-38826855D01*
X67233546Y-38793183D01*
X67065187Y-38624824D01*
X67031516Y-38523809D01*
X67031516Y-38456466D01*
X67065187Y-38355450D01*
X67199874Y-38220763D01*
X67300890Y-38187092D01*
X67368233Y-38187092D01*
X67469248Y-38220763D01*
X55719319Y-25168537D02*
X55719319Y-25235880D01*
X55786663Y-25370567D01*
X55854007Y-25437911D01*
X55988694Y-25505254D01*
X56123381Y-25505254D01*
X56224396Y-25471583D01*
X56392755Y-25370567D01*
X56493770Y-25269552D01*
X56594785Y-25101193D01*
X56628457Y-25000178D01*
X56628457Y-24865491D01*
X56561113Y-24730804D01*
X56493770Y-24663460D01*
X56359083Y-24596117D01*
X56291739Y-24596117D01*
X56022365Y-24326743D02*
X56022365Y-24259399D01*
X55988694Y-24158384D01*
X55820335Y-23990025D01*
X55719319Y-23956354D01*
X55651976Y-23956354D01*
X55550961Y-23990025D01*
X55483617Y-24057369D01*
X55416274Y-24192056D01*
X55416274Y-25000178D01*
X54978541Y-24562445D01*
X285424506Y-98752726D02*
X285091173Y-98752726D01*
X284948315Y-99276535D02*
X285424506Y-99276535D01*
X285424506Y-98276535D01*
X284948315Y-98276535D01*
X284614982Y-98276535D02*
X283948315Y-99276535D01*
X283948315Y-98276535D02*
X284614982Y-99276535D01*
X283710220Y-98276535D02*
X283138792Y-98276535D01*
X283424506Y-99276535D02*
X283424506Y-98276535D01*
X283043554Y-99371774D02*
X282281649Y-99371774D01*
X281472125Y-99181297D02*
X281519744Y-99228916D01*
X281662601Y-99276535D01*
X281757839Y-99276535D01*
X281900696Y-99228916D01*
X281995935Y-99133678D01*
X282043554Y-99038440D01*
X282091173Y-98847964D01*
X282091173Y-98705107D01*
X282043554Y-98514631D01*
X281995935Y-98419393D01*
X281900696Y-98324155D01*
X281757839Y-98276535D01*
X281662601Y-98276535D01*
X281519744Y-98324155D01*
X281472125Y-98371774D01*
X281138792Y-98276535D02*
X280472125Y-98276535D01*
X280900696Y-99276535D01*
X80637006Y-102750976D02*
X80303673Y-102750976D01*
X80160815Y-103274785D02*
X80637006Y-103274785D01*
X80637006Y-102274785D01*
X80160815Y-102274785D01*
X79827482Y-102274785D02*
X79160815Y-103274785D01*
X79160815Y-102274785D02*
X79827482Y-103274785D01*
X78922720Y-102274785D02*
X78351292Y-102274785D01*
X78637006Y-103274785D02*
X78637006Y-102274785D01*
X78256054Y-103370024D02*
X77494149Y-103370024D01*
X76684625Y-103274785D02*
X77017958Y-102798595D01*
X77256054Y-103274785D02*
X77256054Y-102274785D01*
X76875101Y-102274785D01*
X76779863Y-102322405D01*
X76732244Y-102370024D01*
X76684625Y-102465262D01*
X76684625Y-102608119D01*
X76732244Y-102703357D01*
X76779863Y-102750976D01*
X76875101Y-102798595D01*
X77256054Y-102798595D01*
X76208435Y-103274785D02*
X76017958Y-103274785D01*
X75922720Y-103227166D01*
X75875101Y-103179547D01*
X75779863Y-103036690D01*
X75732244Y-102846214D01*
X75732244Y-102465262D01*
X75779863Y-102370024D01*
X75827482Y-102322405D01*
X75922720Y-102274785D01*
X76113196Y-102274785D01*
X76208435Y-102322405D01*
X76256054Y-102370024D01*
X76303673Y-102465262D01*
X76303673Y-102703357D01*
X76256054Y-102798595D01*
X76208435Y-102846214D01*
X76113196Y-102893833D01*
X75922720Y-102893833D01*
X75827482Y-102846214D01*
X75779863Y-102798595D01*
X75732244Y-102703357D01*
X80637006Y-95384976D02*
X80303673Y-95384976D01*
X80160815Y-95908785D02*
X80637006Y-95908785D01*
X80637006Y-94908785D01*
X80160815Y-94908785D01*
X79827482Y-94908785D02*
X79160815Y-95908785D01*
X79160815Y-94908785D02*
X79827482Y-95908785D01*
X78922720Y-94908785D02*
X78351292Y-94908785D01*
X78637006Y-95908785D02*
X78637006Y-94908785D01*
X78256054Y-96004024D02*
X77494149Y-96004024D01*
X76684625Y-95908785D02*
X77017958Y-95432595D01*
X77256054Y-95908785D02*
X77256054Y-94908785D01*
X76875101Y-94908785D01*
X76779863Y-94956405D01*
X76732244Y-95004024D01*
X76684625Y-95099262D01*
X76684625Y-95242119D01*
X76732244Y-95337357D01*
X76779863Y-95384976D01*
X76875101Y-95432595D01*
X77256054Y-95432595D01*
X75827482Y-95242119D02*
X75827482Y-95908785D01*
X76065577Y-94861166D02*
X76303673Y-95575452D01*
X75684625Y-95575452D01*
X147756506Y-32885101D02*
X147423173Y-32885101D01*
X147280315Y-33408910D02*
X147756506Y-33408910D01*
X147756506Y-32408910D01*
X147280315Y-32408910D01*
X146946982Y-32408910D02*
X146280315Y-33408910D01*
X146280315Y-32408910D02*
X146946982Y-33408910D01*
X146042220Y-32408910D02*
X145470792Y-32408910D01*
X145756506Y-33408910D02*
X145756506Y-32408910D01*
X145375554Y-33504149D02*
X144613649Y-33504149D01*
X143804125Y-33408910D02*
X144137458Y-32932720D01*
X144375554Y-33408910D02*
X144375554Y-32408910D01*
X143994601Y-32408910D01*
X143899363Y-32456530D01*
X143851744Y-32504149D01*
X143804125Y-32599387D01*
X143804125Y-32742244D01*
X143851744Y-32837482D01*
X143899363Y-32885101D01*
X143994601Y-32932720D01*
X144375554Y-32932720D01*
X142946982Y-32408910D02*
X143137458Y-32408910D01*
X143232696Y-32456530D01*
X143280315Y-32504149D01*
X143375554Y-32647006D01*
X143423173Y-32837482D01*
X143423173Y-33218434D01*
X143375554Y-33313672D01*
X143327935Y-33361291D01*
X143232696Y-33408910D01*
X143042220Y-33408910D01*
X142946982Y-33361291D01*
X142899363Y-33313672D01*
X142851744Y-33218434D01*
X142851744Y-32980339D01*
X142899363Y-32885101D01*
X142946982Y-32837482D01*
X143042220Y-32789863D01*
X143232696Y-32789863D01*
X143327935Y-32837482D01*
X143375554Y-32885101D01*
X143423173Y-32980339D01*
X147756506Y-29456976D02*
X147423173Y-29456976D01*
X147280315Y-29980785D02*
X147756506Y-29980785D01*
X147756506Y-28980785D01*
X147280315Y-28980785D01*
X146946982Y-28980785D02*
X146280315Y-29980785D01*
X146280315Y-28980785D02*
X146946982Y-29980785D01*
X146042220Y-28980785D02*
X145470792Y-28980785D01*
X145756506Y-29980785D02*
X145756506Y-28980785D01*
X145375554Y-30076024D02*
X144613649Y-30076024D01*
X143804125Y-29980785D02*
X144137458Y-29504595D01*
X144375554Y-29980785D02*
X144375554Y-28980785D01*
X143994601Y-28980785D01*
X143899363Y-29028405D01*
X143851744Y-29076024D01*
X143804125Y-29171262D01*
X143804125Y-29314119D01*
X143851744Y-29409357D01*
X143899363Y-29456976D01*
X143994601Y-29504595D01*
X144375554Y-29504595D01*
X142851744Y-29980785D02*
X143423173Y-29980785D01*
X143137458Y-29980785D02*
X143137458Y-28980785D01*
X143232696Y-29123643D01*
X143327935Y-29218881D01*
X143423173Y-29266500D01*
X52760506Y-73356976D02*
X52427173Y-73356976D01*
X52284315Y-73880785D02*
X52760506Y-73880785D01*
X52760506Y-72880785D01*
X52284315Y-72880785D01*
X51950982Y-72880785D02*
X51284315Y-73880785D01*
X51284315Y-72880785D02*
X51950982Y-73880785D01*
X51046220Y-72880785D02*
X50474792Y-72880785D01*
X50760506Y-73880785D02*
X50760506Y-72880785D01*
X50379554Y-73976024D02*
X49617649Y-73976024D01*
X48808125Y-73880785D02*
X49141458Y-73404595D01*
X49379554Y-73880785D02*
X49379554Y-72880785D01*
X48998601Y-72880785D01*
X48903363Y-72928405D01*
X48855744Y-72976024D01*
X48808125Y-73071262D01*
X48808125Y-73214119D01*
X48855744Y-73309357D01*
X48903363Y-73356976D01*
X48998601Y-73404595D01*
X49379554Y-73404595D01*
X48474792Y-72880785D02*
X47808125Y-72880785D01*
X48236696Y-73880785D01*
X93357839Y-27005785D02*
X93357839Y-27815309D01*
X93310220Y-27910547D01*
X93262601Y-27958166D01*
X93167363Y-28005785D01*
X92976887Y-28005785D01*
X92881649Y-27958166D01*
X92834030Y-27910547D01*
X92786411Y-27815309D01*
X92786411Y-27005785D01*
X92357839Y-27101024D02*
X92310220Y-27053405D01*
X92214982Y-27005785D01*
X91976887Y-27005785D01*
X91881649Y-27053405D01*
X91834030Y-27101024D01*
X91786411Y-27196262D01*
X91786411Y-27291500D01*
X91834030Y-27434357D01*
X92405458Y-28005785D01*
X91786411Y-28005785D01*
X93226220Y-22756785D02*
X93797649Y-22756785D01*
X93511935Y-22756785D02*
X93511935Y-21756785D01*
X93607173Y-21899643D01*
X93702411Y-21994881D01*
X93797649Y-22042500D01*
X95257839Y-20708976D02*
X94924506Y-20708976D01*
X94781649Y-21232785D02*
X95257839Y-21232785D01*
X95257839Y-20232785D01*
X94781649Y-20232785D01*
X94353077Y-20708976D02*
X94019744Y-20708976D01*
X93876887Y-21232785D02*
X94353077Y-21232785D01*
X94353077Y-20232785D01*
X93876887Y-20232785D01*
X93448315Y-21232785D02*
X93448315Y-20232785D01*
X93067363Y-20232785D01*
X92972125Y-20280405D01*
X92924506Y-20328024D01*
X92876887Y-20423262D01*
X92876887Y-20566119D01*
X92924506Y-20661357D01*
X92972125Y-20708976D01*
X93067363Y-20756595D01*
X93448315Y-20756595D01*
X91876887Y-21232785D02*
X92210220Y-20756595D01*
X92448315Y-21232785D02*
X92448315Y-20232785D01*
X92067363Y-20232785D01*
X91972125Y-20280405D01*
X91924506Y-20328024D01*
X91876887Y-20423262D01*
X91876887Y-20566119D01*
X91924506Y-20661357D01*
X91972125Y-20708976D01*
X92067363Y-20756595D01*
X92448315Y-20756595D01*
X91257839Y-20232785D02*
X91067363Y-20232785D01*
X90972125Y-20280405D01*
X90876887Y-20375643D01*
X90829268Y-20566119D01*
X90829268Y-20899452D01*
X90876887Y-21089928D01*
X90972125Y-21185166D01*
X91067363Y-21232785D01*
X91257839Y-21232785D01*
X91353077Y-21185166D01*
X91448315Y-21089928D01*
X91495935Y-20899452D01*
X91495935Y-20566119D01*
X91448315Y-20375643D01*
X91353077Y-20280405D01*
X91257839Y-20232785D01*
X90400696Y-21232785D02*
X90400696Y-20232785D01*
X90067363Y-20947071D01*
X89734030Y-20232785D01*
X89734030Y-21232785D01*
X77168601Y-29360785D02*
X77501935Y-28884595D01*
X77740030Y-29360785D02*
X77740030Y-28360785D01*
X77359077Y-28360785D01*
X77263839Y-28408405D01*
X77216220Y-28456024D01*
X77168601Y-28551262D01*
X77168601Y-28694119D01*
X77216220Y-28789357D01*
X77263839Y-28836976D01*
X77359077Y-28884595D01*
X77740030Y-28884595D01*
X76597173Y-28789357D02*
X76692411Y-28741738D01*
X76740030Y-28694119D01*
X76787649Y-28598881D01*
X76787649Y-28551262D01*
X76740030Y-28456024D01*
X76692411Y-28408405D01*
X76597173Y-28360785D01*
X76406696Y-28360785D01*
X76311458Y-28408405D01*
X76263839Y-28456024D01*
X76216220Y-28551262D01*
X76216220Y-28598881D01*
X76263839Y-28694119D01*
X76311458Y-28741738D01*
X76406696Y-28789357D01*
X76597173Y-28789357D01*
X76692411Y-28836976D01*
X76740030Y-28884595D01*
X76787649Y-28979833D01*
X76787649Y-29170309D01*
X76740030Y-29265547D01*
X76692411Y-29313166D01*
X76597173Y-29360785D01*
X76406696Y-29360785D01*
X76311458Y-29313166D01*
X76263839Y-29265547D01*
X76216220Y-29170309D01*
X76216220Y-28979833D01*
X76263839Y-28884595D01*
X76311458Y-28836976D01*
X76406696Y-28789357D01*
X77168601Y-23264785D02*
X77501935Y-22788595D01*
X77740030Y-23264785D02*
X77740030Y-22264785D01*
X77359077Y-22264785D01*
X77263839Y-22312405D01*
X77216220Y-22360024D01*
X77168601Y-22455262D01*
X77168601Y-22598119D01*
X77216220Y-22693357D01*
X77263839Y-22740976D01*
X77359077Y-22788595D01*
X77740030Y-22788595D01*
X76692411Y-23264785D02*
X76501935Y-23264785D01*
X76406696Y-23217166D01*
X76359077Y-23169547D01*
X76263839Y-23026690D01*
X76216220Y-22836214D01*
X76216220Y-22455262D01*
X76263839Y-22360024D01*
X76311458Y-22312405D01*
X76406696Y-22264785D01*
X76597173Y-22264785D01*
X76692411Y-22312405D01*
X76740030Y-22360024D01*
X76787649Y-22455262D01*
X76787649Y-22693357D01*
X76740030Y-22788595D01*
X76692411Y-22836214D01*
X76597173Y-22883833D01*
X76406696Y-22883833D01*
X76311458Y-22836214D01*
X76263839Y-22788595D01*
X76216220Y-22693357D01*
X35154268Y-24331265D02*
X35154268Y-25045551D01*
X35201887Y-25188408D01*
X35297125Y-25283646D01*
X35439982Y-25331265D01*
X35535220Y-25331265D01*
X34154268Y-25331265D02*
X34725696Y-25331265D01*
X34439982Y-25331265D02*
X34439982Y-24331265D01*
X34535220Y-24474123D01*
X34630458Y-24569361D01*
X34725696Y-24616980D01*
X48673247Y-42994794D02*
X48673247Y-43062137D01*
X48740591Y-43196824D01*
X48807934Y-43264168D01*
X48942622Y-43331511D01*
X49077309Y-43331511D01*
X49178324Y-43297840D01*
X49346683Y-43196824D01*
X49447698Y-43095809D01*
X49548713Y-42927450D01*
X49582385Y-42826435D01*
X49582385Y-42691748D01*
X49515041Y-42557061D01*
X49447698Y-42489717D01*
X49313011Y-42422374D01*
X49245667Y-42422374D01*
X48706919Y-41748939D02*
X48841606Y-41883626D01*
X48875278Y-41984641D01*
X48875278Y-42051985D01*
X48841606Y-42220343D01*
X48740591Y-42388702D01*
X48471217Y-42658076D01*
X48370202Y-42691748D01*
X48302858Y-42691748D01*
X48201843Y-42658076D01*
X48067156Y-42523389D01*
X48033484Y-42422374D01*
X48033484Y-42355030D01*
X48067156Y-42254015D01*
X48235515Y-42085656D01*
X48336530Y-42051985D01*
X48403873Y-42051985D01*
X48504889Y-42085656D01*
X48639576Y-42220343D01*
X48673247Y-42321359D01*
X48673247Y-42388702D01*
X48639576Y-42489717D01*
X37290601Y-26392160D02*
X37623935Y-25915970D01*
X37862030Y-26392160D02*
X37862030Y-25392160D01*
X37481077Y-25392160D01*
X37385839Y-25439780D01*
X37338220Y-25487399D01*
X37290601Y-25582637D01*
X37290601Y-25725494D01*
X37338220Y-25820732D01*
X37385839Y-25868351D01*
X37481077Y-25915970D01*
X37862030Y-25915970D01*
X36433458Y-25725494D02*
X36433458Y-26392160D01*
X36671554Y-25344541D02*
X36909649Y-26058827D01*
X36290601Y-26058827D01*
X131843256Y-98752726D02*
X131509923Y-98752726D01*
X131367065Y-99276535D02*
X131843256Y-99276535D01*
X131843256Y-98276535D01*
X131367065Y-98276535D01*
X131033732Y-98276535D02*
X130367065Y-99276535D01*
X130367065Y-98276535D02*
X131033732Y-99276535D01*
X130128970Y-98276535D02*
X129557542Y-98276535D01*
X129843256Y-99276535D02*
X129843256Y-98276535D01*
X129462304Y-99371774D02*
X128700399Y-99371774D01*
X127890875Y-99181297D02*
X127938494Y-99228916D01*
X128081351Y-99276535D01*
X128176589Y-99276535D01*
X128319446Y-99228916D01*
X128414685Y-99133678D01*
X128462304Y-99038440D01*
X128509923Y-98847964D01*
X128509923Y-98705107D01*
X128462304Y-98514631D01*
X128414685Y-98419393D01*
X128319446Y-98324155D01*
X128176589Y-98276535D01*
X128081351Y-98276535D01*
X127938494Y-98324155D01*
X127890875Y-98371774D01*
X127557542Y-98276535D02*
X126938494Y-98276535D01*
X127271827Y-98657488D01*
X127128970Y-98657488D01*
X127033732Y-98705107D01*
X126986113Y-98752726D01*
X126938494Y-98847964D01*
X126938494Y-99086059D01*
X126986113Y-99181297D01*
X127033732Y-99228916D01*
X127128970Y-99276535D01*
X127414685Y-99276535D01*
X127509923Y-99228916D01*
X127557542Y-99181297D01*
X157408506Y-29313226D02*
X157075173Y-29313226D01*
X156932315Y-29837035D02*
X157408506Y-29837035D01*
X157408506Y-28837035D01*
X156932315Y-28837035D01*
X156598982Y-28837035D02*
X155932315Y-29837035D01*
X155932315Y-28837035D02*
X156598982Y-29837035D01*
X155694220Y-28837035D02*
X155122792Y-28837035D01*
X155408506Y-29837035D02*
X155408506Y-28837035D01*
X155027554Y-29932274D02*
X154265649Y-29932274D01*
X153456125Y-29837035D02*
X153789458Y-29360845D01*
X154027554Y-29837035D02*
X154027554Y-28837035D01*
X153646601Y-28837035D01*
X153551363Y-28884655D01*
X153503744Y-28932274D01*
X153456125Y-29027512D01*
X153456125Y-29170369D01*
X153503744Y-29265607D01*
X153551363Y-29313226D01*
X153646601Y-29360845D01*
X154027554Y-29360845D01*
X152837077Y-28837035D02*
X152741839Y-28837035D01*
X152646601Y-28884655D01*
X152598982Y-28932274D01*
X152551363Y-29027512D01*
X152503744Y-29217988D01*
X152503744Y-29456083D01*
X152551363Y-29646559D01*
X152598982Y-29741797D01*
X152646601Y-29789416D01*
X152741839Y-29837035D01*
X152837077Y-29837035D01*
X152932315Y-29789416D01*
X152979935Y-29741797D01*
X153027554Y-29646559D01*
X153075173Y-29456083D01*
X153075173Y-29217988D01*
X153027554Y-29027512D01*
X152979935Y-28932274D01*
X152932315Y-28884655D01*
X152837077Y-28837035D01*
X287370339Y-54897155D02*
X287465577Y-54849535D01*
X287608435Y-54849535D01*
X287751292Y-54897155D01*
X287846530Y-54992393D01*
X287894149Y-55087631D01*
X287941768Y-55278107D01*
X287941768Y-55420964D01*
X287894149Y-55611440D01*
X287846530Y-55706678D01*
X287751292Y-55801916D01*
X287608435Y-55849535D01*
X287513196Y-55849535D01*
X287370339Y-55801916D01*
X287322720Y-55754297D01*
X287322720Y-55420964D01*
X287513196Y-55420964D01*
X286894149Y-55849535D02*
X286894149Y-54849535D01*
X286322720Y-55849535D01*
X286322720Y-54849535D01*
X285846530Y-55849535D02*
X285846530Y-54849535D01*
X285608435Y-54849535D01*
X285465577Y-54897155D01*
X285370339Y-54992393D01*
X285322720Y-55087631D01*
X285275101Y-55278107D01*
X285275101Y-55420964D01*
X285322720Y-55611440D01*
X285370339Y-55706678D01*
X285465577Y-55801916D01*
X285608435Y-55849535D01*
X285846530Y-55849535D01*
X290651292Y-55849535D02*
X291127482Y-55849535D01*
X291127482Y-54849535D01*
X290317958Y-55325726D02*
X289984625Y-55325726D01*
X289841768Y-55849535D02*
X290317958Y-55849535D01*
X290317958Y-54849535D01*
X289841768Y-54849535D01*
X289413196Y-55849535D02*
X289413196Y-54849535D01*
X289175101Y-54849535D01*
X289032244Y-54897155D01*
X288937006Y-54992393D01*
X288889387Y-55087631D01*
X288841768Y-55278107D01*
X288841768Y-55420964D01*
X288889387Y-55611440D01*
X288937006Y-55706678D01*
X289032244Y-55801916D01*
X289175101Y-55849535D01*
X289413196Y-55849535D01*
X294494149Y-55468583D02*
X293732244Y-55468583D01*
X294113196Y-55849535D02*
X294113196Y-55087631D01*
X292779863Y-54849535D02*
X293256054Y-54849535D01*
X293303673Y-55325726D01*
X293256054Y-55278107D01*
X293160815Y-55230488D01*
X292922720Y-55230488D01*
X292827482Y-55278107D01*
X292779863Y-55325726D01*
X292732244Y-55420964D01*
X292732244Y-55659059D01*
X292779863Y-55754297D01*
X292827482Y-55801916D01*
X292922720Y-55849535D01*
X293160815Y-55849535D01*
X293256054Y-55801916D01*
X293303673Y-55754297D01*
X292446530Y-54849535D02*
X292113196Y-55849535D01*
X291779863Y-54849535D01*
X80637006Y-104705851D02*
X80303673Y-104705851D01*
X80160815Y-105229660D02*
X80637006Y-105229660D01*
X80637006Y-104229660D01*
X80160815Y-104229660D01*
X79827482Y-104229660D02*
X79160815Y-105229660D01*
X79160815Y-104229660D02*
X79827482Y-105229660D01*
X78922720Y-104229660D02*
X78351292Y-104229660D01*
X78637006Y-105229660D02*
X78637006Y-104229660D01*
X78256054Y-105324899D02*
X77494149Y-105324899D01*
X76684625Y-105134422D02*
X76732244Y-105182041D01*
X76875101Y-105229660D01*
X76970339Y-105229660D01*
X77113196Y-105182041D01*
X77208435Y-105086803D01*
X77256054Y-104991565D01*
X77303673Y-104801089D01*
X77303673Y-104658232D01*
X77256054Y-104467756D01*
X77208435Y-104372518D01*
X77113196Y-104277280D01*
X76970339Y-104229660D01*
X76875101Y-104229660D01*
X76732244Y-104277280D01*
X76684625Y-104324899D01*
X75732244Y-105229660D02*
X76303673Y-105229660D01*
X76017958Y-105229660D02*
X76017958Y-104229660D01*
X76113196Y-104372518D01*
X76208435Y-104467756D01*
X76303673Y-104515375D01*
X59096839Y-36579938D02*
X59669259Y-37152358D01*
X59702931Y-37253373D01*
X59702931Y-37320717D01*
X59669259Y-37421732D01*
X59534572Y-37556419D01*
X59433557Y-37590091D01*
X59366213Y-37590091D01*
X59265198Y-37556419D01*
X58692778Y-36983999D01*
X58692778Y-38398213D02*
X59096839Y-37994152D01*
X58894809Y-38196182D02*
X58187702Y-37489076D01*
X58356061Y-37522747D01*
X58490748Y-37522747D01*
X58591763Y-37489076D01*
X79470190Y-67460994D02*
X78470190Y-67460994D01*
X78470190Y-67699089D01*
X78517810Y-67841946D01*
X78613048Y-67937184D01*
X78708286Y-67984803D01*
X78898762Y-68032422D01*
X79041619Y-68032422D01*
X79232095Y-67984803D01*
X79327333Y-67937184D01*
X79422571Y-67841946D01*
X79470190Y-67699089D01*
X79470190Y-67460994D01*
X78470190Y-68365756D02*
X78470190Y-68984803D01*
X78851143Y-68651470D01*
X78851143Y-68794327D01*
X78898762Y-68889565D01*
X78946381Y-68937184D01*
X79041619Y-68984803D01*
X79279714Y-68984803D01*
X79374952Y-68937184D01*
X79422571Y-68889565D01*
X79470190Y-68794327D01*
X79470190Y-68508613D01*
X79422571Y-68413375D01*
X79374952Y-68365756D01*
X78898762Y-69556232D02*
X78851143Y-69460994D01*
X78803524Y-69413375D01*
X78708286Y-69365756D01*
X78660667Y-69365756D01*
X78565429Y-69413375D01*
X78517810Y-69460994D01*
X78470190Y-69556232D01*
X78470190Y-69746708D01*
X78517810Y-69841946D01*
X78565429Y-69889565D01*
X78660667Y-69937184D01*
X78708286Y-69937184D01*
X78803524Y-69889565D01*
X78851143Y-69841946D01*
X78898762Y-69746708D01*
X78898762Y-69556232D01*
X78946381Y-69460994D01*
X78994000Y-69413375D01*
X79089238Y-69365756D01*
X79279714Y-69365756D01*
X79374952Y-69413375D01*
X79422571Y-69460994D01*
X79470190Y-69556232D01*
X79470190Y-69746708D01*
X79422571Y-69841946D01*
X79374952Y-69889565D01*
X79279714Y-69937184D01*
X79089238Y-69937184D01*
X78994000Y-69889565D01*
X78946381Y-69841946D01*
X78898762Y-69746708D01*
X298545190Y-105560994D02*
X297545190Y-105560994D01*
X297545190Y-105799089D01*
X297592810Y-105941946D01*
X297688048Y-106037184D01*
X297783286Y-106084803D01*
X297973762Y-106132422D01*
X298116619Y-106132422D01*
X298307095Y-106084803D01*
X298402333Y-106037184D01*
X298497571Y-105941946D01*
X298545190Y-105799089D01*
X298545190Y-105560994D01*
X297545190Y-107037184D02*
X297545190Y-106560994D01*
X298021381Y-106513375D01*
X297973762Y-106560994D01*
X297926143Y-106656232D01*
X297926143Y-106894327D01*
X297973762Y-106989565D01*
X298021381Y-107037184D01*
X298116619Y-107084803D01*
X298354714Y-107084803D01*
X298449952Y-107037184D01*
X298497571Y-106989565D01*
X298545190Y-106894327D01*
X298545190Y-106656232D01*
X298497571Y-106560994D01*
X298449952Y-106513375D01*
X298545190Y-108037184D02*
X298545190Y-107465756D01*
X298545190Y-107751470D02*
X297545190Y-107751470D01*
X297688048Y-107656232D01*
X297783286Y-107560994D01*
X297830905Y-107465756D01*
X98520190Y-68510994D02*
X97520190Y-68510994D01*
X97520190Y-68749089D01*
X97567810Y-68891946D01*
X97663048Y-68987184D01*
X97758286Y-69034803D01*
X97948762Y-69082422D01*
X98091619Y-69082422D01*
X98282095Y-69034803D01*
X98377333Y-68987184D01*
X98472571Y-68891946D01*
X98520190Y-68749089D01*
X98520190Y-68510994D01*
X97520190Y-69415756D02*
X97520190Y-70034803D01*
X97901143Y-69701470D01*
X97901143Y-69844327D01*
X97948762Y-69939565D01*
X97996381Y-69987184D01*
X98091619Y-70034803D01*
X98329714Y-70034803D01*
X98424952Y-69987184D01*
X98472571Y-69939565D01*
X98520190Y-69844327D01*
X98520190Y-69558613D01*
X98472571Y-69463375D01*
X98424952Y-69415756D01*
X97520190Y-70368137D02*
X97520190Y-71034803D01*
X98520190Y-70606232D01*
X96138940Y-106610994D02*
X95138940Y-106610994D01*
X95138940Y-106849089D01*
X95186560Y-106991946D01*
X95281798Y-107087184D01*
X95377036Y-107134803D01*
X95567512Y-107182422D01*
X95710369Y-107182422D01*
X95900845Y-107134803D01*
X95996083Y-107087184D01*
X96091321Y-106991946D01*
X96138940Y-106849089D01*
X96138940Y-106610994D01*
X95138940Y-108087184D02*
X95138940Y-107610994D01*
X95615131Y-107563375D01*
X95567512Y-107610994D01*
X95519893Y-107706232D01*
X95519893Y-107944327D01*
X95567512Y-108039565D01*
X95615131Y-108087184D01*
X95710369Y-108134803D01*
X95948464Y-108134803D01*
X96043702Y-108087184D01*
X96091321Y-108039565D01*
X96138940Y-107944327D01*
X96138940Y-107706232D01*
X96091321Y-107610994D01*
X96043702Y-107563375D01*
X95138940Y-108468137D02*
X95138940Y-109134803D01*
X96138940Y-108706232D01*
X134238940Y-104370369D02*
X133238940Y-104370369D01*
X133238940Y-104608464D01*
X133286560Y-104751321D01*
X133381798Y-104846559D01*
X133477036Y-104894178D01*
X133667512Y-104941797D01*
X133810369Y-104941797D01*
X134000845Y-104894178D01*
X134096083Y-104846559D01*
X134191321Y-104751321D01*
X134238940Y-104608464D01*
X134238940Y-104370369D01*
X133334179Y-105322750D02*
X133286560Y-105370369D01*
X133238940Y-105465607D01*
X133238940Y-105703702D01*
X133286560Y-105798940D01*
X133334179Y-105846559D01*
X133429417Y-105894178D01*
X133524655Y-105894178D01*
X133667512Y-105846559D01*
X134238940Y-105275131D01*
X134238940Y-105894178D01*
X133334179Y-106275131D02*
X133286560Y-106322750D01*
X133238940Y-106417988D01*
X133238940Y-106656083D01*
X133286560Y-106751321D01*
X133334179Y-106798940D01*
X133429417Y-106846559D01*
X133524655Y-106846559D01*
X133667512Y-106798940D01*
X134238940Y-106227512D01*
X134238940Y-106846559D01*
X88995190Y-87560994D02*
X87995190Y-87560994D01*
X87995190Y-87799089D01*
X88042810Y-87941946D01*
X88138048Y-88037184D01*
X88233286Y-88084803D01*
X88423762Y-88132422D01*
X88566619Y-88132422D01*
X88757095Y-88084803D01*
X88852333Y-88037184D01*
X88947571Y-87941946D01*
X88995190Y-87799089D01*
X88995190Y-87560994D01*
X88328524Y-88989565D02*
X88995190Y-88989565D01*
X87947571Y-88751470D02*
X88661857Y-88513375D01*
X88661857Y-89132422D01*
X87995190Y-89418137D02*
X87995190Y-90084803D01*
X88995190Y-89656232D01*
X203295190Y-87560994D02*
X202295190Y-87560994D01*
X202295190Y-87799089D01*
X202342810Y-87941946D01*
X202438048Y-88037184D01*
X202533286Y-88084803D01*
X202723762Y-88132422D01*
X202866619Y-88132422D01*
X203057095Y-88084803D01*
X203152333Y-88037184D01*
X203247571Y-87941946D01*
X203295190Y-87799089D01*
X203295190Y-87560994D01*
X202628524Y-88989565D02*
X203295190Y-88989565D01*
X202247571Y-88751470D02*
X202961857Y-88513375D01*
X202961857Y-89132422D01*
X202295190Y-89989565D02*
X202295190Y-89513375D01*
X202771381Y-89465756D01*
X202723762Y-89513375D01*
X202676143Y-89608613D01*
X202676143Y-89846708D01*
X202723762Y-89941946D01*
X202771381Y-89989565D01*
X202866619Y-90037184D01*
X203104714Y-90037184D01*
X203199952Y-89989565D01*
X203247571Y-89941946D01*
X203295190Y-89846708D01*
X203295190Y-89608613D01*
X203247571Y-89513375D01*
X203199952Y-89465756D01*
X127095190Y-106660994D02*
X126095190Y-106660994D01*
X126095190Y-106899089D01*
X126142810Y-107041946D01*
X126238048Y-107137184D01*
X126333286Y-107184803D01*
X126523762Y-107232422D01*
X126666619Y-107232422D01*
X126857095Y-107184803D01*
X126952333Y-107137184D01*
X127047571Y-107041946D01*
X127095190Y-106899089D01*
X127095190Y-106660994D01*
X126095190Y-108137184D02*
X126095190Y-107660994D01*
X126571381Y-107613375D01*
X126523762Y-107660994D01*
X126476143Y-107756232D01*
X126476143Y-107994327D01*
X126523762Y-108089565D01*
X126571381Y-108137184D01*
X126666619Y-108184803D01*
X126904714Y-108184803D01*
X126999952Y-108137184D01*
X127047571Y-108089565D01*
X127095190Y-107994327D01*
X127095190Y-107756232D01*
X127047571Y-107660994D01*
X126999952Y-107613375D01*
X126095190Y-109041946D02*
X126095190Y-108851470D01*
X126142810Y-108756232D01*
X126190429Y-108708613D01*
X126333286Y-108613375D01*
X126523762Y-108565756D01*
X126904714Y-108565756D01*
X126999952Y-108613375D01*
X127047571Y-108660994D01*
X127095190Y-108756232D01*
X127095190Y-108946708D01*
X127047571Y-109041946D01*
X126999952Y-109089565D01*
X126904714Y-109137184D01*
X126666619Y-109137184D01*
X126571381Y-109089565D01*
X126523762Y-109041946D01*
X126476143Y-108946708D01*
X126476143Y-108756232D01*
X126523762Y-108660994D01*
X126571381Y-108613375D01*
X126666619Y-108565756D01*
X260445190Y-86510994D02*
X259445190Y-86510994D01*
X259445190Y-86749089D01*
X259492810Y-86891946D01*
X259588048Y-86987184D01*
X259683286Y-87034803D01*
X259873762Y-87082422D01*
X260016619Y-87082422D01*
X260207095Y-87034803D01*
X260302333Y-86987184D01*
X260397571Y-86891946D01*
X260445190Y-86749089D01*
X260445190Y-86510994D01*
X260445190Y-87558613D02*
X260445190Y-87749089D01*
X260397571Y-87844327D01*
X260349952Y-87891946D01*
X260207095Y-87987184D01*
X260016619Y-88034803D01*
X259635667Y-88034803D01*
X259540429Y-87987184D01*
X259492810Y-87939565D01*
X259445190Y-87844327D01*
X259445190Y-87653851D01*
X259492810Y-87558613D01*
X259540429Y-87510994D01*
X259635667Y-87463375D01*
X259873762Y-87463375D01*
X259969000Y-87510994D01*
X260016619Y-87558613D01*
X260064238Y-87653851D01*
X260064238Y-87844327D01*
X260016619Y-87939565D01*
X259969000Y-87987184D01*
X259873762Y-88034803D01*
X259445190Y-88368137D02*
X259445190Y-88987184D01*
X259826143Y-88653851D01*
X259826143Y-88796708D01*
X259873762Y-88891946D01*
X259921381Y-88939565D01*
X260016619Y-88987184D01*
X260254714Y-88987184D01*
X260349952Y-88939565D01*
X260397571Y-88891946D01*
X260445190Y-88796708D01*
X260445190Y-88510994D01*
X260397571Y-88415756D01*
X260349952Y-88368137D01*
X31845190Y-105560994D02*
X30845190Y-105560994D01*
X30845190Y-105799089D01*
X30892810Y-105941946D01*
X30988048Y-106037184D01*
X31083286Y-106084803D01*
X31273762Y-106132422D01*
X31416619Y-106132422D01*
X31607095Y-106084803D01*
X31702333Y-106037184D01*
X31797571Y-105941946D01*
X31845190Y-105799089D01*
X31845190Y-105560994D01*
X30845190Y-107037184D02*
X30845190Y-106560994D01*
X31321381Y-106513375D01*
X31273762Y-106560994D01*
X31226143Y-106656232D01*
X31226143Y-106894327D01*
X31273762Y-106989565D01*
X31321381Y-107037184D01*
X31416619Y-107084803D01*
X31654714Y-107084803D01*
X31749952Y-107037184D01*
X31797571Y-106989565D01*
X31845190Y-106894327D01*
X31845190Y-106656232D01*
X31797571Y-106560994D01*
X31749952Y-106513375D01*
X31845190Y-107560994D02*
X31845190Y-107751470D01*
X31797571Y-107846708D01*
X31749952Y-107894327D01*
X31607095Y-107989565D01*
X31416619Y-108037184D01*
X31035667Y-108037184D01*
X30940429Y-107989565D01*
X30892810Y-107941946D01*
X30845190Y-107846708D01*
X30845190Y-107656232D01*
X30892810Y-107560994D01*
X30940429Y-107513375D01*
X31035667Y-107465756D01*
X31273762Y-107465756D01*
X31369000Y-107513375D01*
X31416619Y-107560994D01*
X31464238Y-107656232D01*
X31464238Y-107846708D01*
X31416619Y-107941946D01*
X31369000Y-107989565D01*
X31273762Y-108037184D01*
X231870190Y-67460994D02*
X230870190Y-67460994D01*
X230870190Y-67699089D01*
X230917810Y-67841946D01*
X231013048Y-67937184D01*
X231108286Y-67984803D01*
X231298762Y-68032422D01*
X231441619Y-68032422D01*
X231632095Y-67984803D01*
X231727333Y-67937184D01*
X231822571Y-67841946D01*
X231870190Y-67699089D01*
X231870190Y-67460994D01*
X230870190Y-68365756D02*
X230870190Y-68984803D01*
X231251143Y-68651470D01*
X231251143Y-68794327D01*
X231298762Y-68889565D01*
X231346381Y-68937184D01*
X231441619Y-68984803D01*
X231679714Y-68984803D01*
X231774952Y-68937184D01*
X231822571Y-68889565D01*
X231870190Y-68794327D01*
X231870190Y-68508613D01*
X231822571Y-68413375D01*
X231774952Y-68365756D01*
X231203524Y-69841946D02*
X231870190Y-69841946D01*
X230822571Y-69603851D02*
X231536857Y-69365756D01*
X231536857Y-69984803D01*
X241395190Y-87560994D02*
X240395190Y-87560994D01*
X240395190Y-87799089D01*
X240442810Y-87941946D01*
X240538048Y-88037184D01*
X240633286Y-88084803D01*
X240823762Y-88132422D01*
X240966619Y-88132422D01*
X241157095Y-88084803D01*
X241252333Y-88037184D01*
X241347571Y-87941946D01*
X241395190Y-87799089D01*
X241395190Y-87560994D01*
X241395190Y-88608613D02*
X241395190Y-88799089D01*
X241347571Y-88894327D01*
X241299952Y-88941946D01*
X241157095Y-89037184D01*
X240966619Y-89084803D01*
X240585667Y-89084803D01*
X240490429Y-89037184D01*
X240442810Y-88989565D01*
X240395190Y-88894327D01*
X240395190Y-88703851D01*
X240442810Y-88608613D01*
X240490429Y-88560994D01*
X240585667Y-88513375D01*
X240823762Y-88513375D01*
X240919000Y-88560994D01*
X240966619Y-88608613D01*
X241014238Y-88703851D01*
X241014238Y-88894327D01*
X240966619Y-88989565D01*
X240919000Y-89037184D01*
X240823762Y-89084803D01*
X240728524Y-89941946D02*
X241395190Y-89941946D01*
X240347571Y-89703851D02*
X241061857Y-89465756D01*
X241061857Y-90084803D01*
X218773315Y-106606994D02*
X217773315Y-106606994D01*
X217773315Y-106845089D01*
X217820935Y-106987946D01*
X217916173Y-107083184D01*
X218011411Y-107130803D01*
X218201887Y-107178422D01*
X218344744Y-107178422D01*
X218535220Y-107130803D01*
X218630458Y-107083184D01*
X218725696Y-106987946D01*
X218773315Y-106845089D01*
X218773315Y-106606994D01*
X218773315Y-107654613D02*
X218773315Y-107845089D01*
X218725696Y-107940327D01*
X218678077Y-107987946D01*
X218535220Y-108083184D01*
X218344744Y-108130803D01*
X217963792Y-108130803D01*
X217868554Y-108083184D01*
X217820935Y-108035565D01*
X217773315Y-107940327D01*
X217773315Y-107749851D01*
X217820935Y-107654613D01*
X217868554Y-107606994D01*
X217963792Y-107559375D01*
X218201887Y-107559375D01*
X218297125Y-107606994D01*
X218344744Y-107654613D01*
X218392363Y-107749851D01*
X218392363Y-107940327D01*
X218344744Y-108035565D01*
X218297125Y-108083184D01*
X218201887Y-108130803D01*
X217773315Y-108987946D02*
X217773315Y-108797470D01*
X217820935Y-108702232D01*
X217868554Y-108654613D01*
X218011411Y-108559375D01*
X218201887Y-108511756D01*
X218582839Y-108511756D01*
X218678077Y-108559375D01*
X218725696Y-108606994D01*
X218773315Y-108702232D01*
X218773315Y-108892708D01*
X218725696Y-108987946D01*
X218678077Y-109035565D01*
X218582839Y-109083184D01*
X218344744Y-109083184D01*
X218249506Y-109035565D01*
X218201887Y-108987946D01*
X218154268Y-108892708D01*
X218154268Y-108702232D01*
X218201887Y-108606994D01*
X218249506Y-108559375D01*
X218344744Y-108511756D01*
X222345190Y-86510994D02*
X221345190Y-86510994D01*
X221345190Y-86749089D01*
X221392810Y-86891946D01*
X221488048Y-86987184D01*
X221583286Y-87034803D01*
X221773762Y-87082422D01*
X221916619Y-87082422D01*
X222107095Y-87034803D01*
X222202333Y-86987184D01*
X222297571Y-86891946D01*
X222345190Y-86749089D01*
X222345190Y-86510994D01*
X221678524Y-87939565D02*
X222345190Y-87939565D01*
X221297571Y-87701470D02*
X222011857Y-87463375D01*
X222011857Y-88082422D01*
X221345190Y-88368137D02*
X221345190Y-88987184D01*
X221726143Y-88653851D01*
X221726143Y-88796708D01*
X221773762Y-88891946D01*
X221821381Y-88939565D01*
X221916619Y-88987184D01*
X222154714Y-88987184D01*
X222249952Y-88939565D01*
X222297571Y-88891946D01*
X222345190Y-88796708D01*
X222345190Y-88510994D01*
X222297571Y-88415756D01*
X222249952Y-88368137D01*
X279495190Y-106610994D02*
X278495190Y-106610994D01*
X278495190Y-106849089D01*
X278542810Y-106991946D01*
X278638048Y-107087184D01*
X278733286Y-107134803D01*
X278923762Y-107182422D01*
X279066619Y-107182422D01*
X279257095Y-107134803D01*
X279352333Y-107087184D01*
X279447571Y-106991946D01*
X279495190Y-106849089D01*
X279495190Y-106610994D01*
X278495190Y-108087184D02*
X278495190Y-107610994D01*
X278971381Y-107563375D01*
X278923762Y-107610994D01*
X278876143Y-107706232D01*
X278876143Y-107944327D01*
X278923762Y-108039565D01*
X278971381Y-108087184D01*
X279066619Y-108134803D01*
X279304714Y-108134803D01*
X279399952Y-108087184D01*
X279447571Y-108039565D01*
X279495190Y-107944327D01*
X279495190Y-107706232D01*
X279447571Y-107610994D01*
X279399952Y-107563375D01*
X278590429Y-108515756D02*
X278542810Y-108563375D01*
X278495190Y-108658613D01*
X278495190Y-108896708D01*
X278542810Y-108991946D01*
X278590429Y-109039565D01*
X278685667Y-109087184D01*
X278780905Y-109087184D01*
X278923762Y-109039565D01*
X279495190Y-108468137D01*
X279495190Y-109087184D01*
X212820190Y-68510994D02*
X211820190Y-68510994D01*
X211820190Y-68749089D01*
X211867810Y-68891946D01*
X211963048Y-68987184D01*
X212058286Y-69034803D01*
X212248762Y-69082422D01*
X212391619Y-69082422D01*
X212582095Y-69034803D01*
X212677333Y-68987184D01*
X212772571Y-68891946D01*
X212820190Y-68749089D01*
X212820190Y-68510994D01*
X211820190Y-69415756D02*
X211820190Y-70034803D01*
X212201143Y-69701470D01*
X212201143Y-69844327D01*
X212248762Y-69939565D01*
X212296381Y-69987184D01*
X212391619Y-70034803D01*
X212629714Y-70034803D01*
X212724952Y-69987184D01*
X212772571Y-69939565D01*
X212820190Y-69844327D01*
X212820190Y-69558613D01*
X212772571Y-69463375D01*
X212724952Y-69415756D01*
X211820190Y-70939565D02*
X211820190Y-70463375D01*
X212296381Y-70415756D01*
X212248762Y-70463375D01*
X212201143Y-70558613D01*
X212201143Y-70796708D01*
X212248762Y-70891946D01*
X212296381Y-70939565D01*
X212391619Y-70987184D01*
X212629714Y-70987184D01*
X212724952Y-70939565D01*
X212772571Y-70891946D01*
X212820190Y-70796708D01*
X212820190Y-70558613D01*
X212772571Y-70463375D01*
X212724952Y-70415756D01*
X250920190Y-68510994D02*
X249920190Y-68510994D01*
X249920190Y-68749089D01*
X249967810Y-68891946D01*
X250063048Y-68987184D01*
X250158286Y-69034803D01*
X250348762Y-69082422D01*
X250491619Y-69082422D01*
X250682095Y-69034803D01*
X250777333Y-68987184D01*
X250872571Y-68891946D01*
X250920190Y-68749089D01*
X250920190Y-68510994D01*
X250348762Y-69653851D02*
X250301143Y-69558613D01*
X250253524Y-69510994D01*
X250158286Y-69463375D01*
X250110667Y-69463375D01*
X250015429Y-69510994D01*
X249967810Y-69558613D01*
X249920190Y-69653851D01*
X249920190Y-69844327D01*
X249967810Y-69939565D01*
X250015429Y-69987184D01*
X250110667Y-70034803D01*
X250158286Y-70034803D01*
X250253524Y-69987184D01*
X250301143Y-69939565D01*
X250348762Y-69844327D01*
X250348762Y-69653851D01*
X250396381Y-69558613D01*
X250444000Y-69510994D01*
X250539238Y-69463375D01*
X250729714Y-69463375D01*
X250824952Y-69510994D01*
X250872571Y-69558613D01*
X250920190Y-69653851D01*
X250920190Y-69844327D01*
X250872571Y-69939565D01*
X250824952Y-69987184D01*
X250729714Y-70034803D01*
X250539238Y-70034803D01*
X250444000Y-69987184D01*
X250396381Y-69939565D01*
X250348762Y-69844327D01*
X250253524Y-70891946D02*
X250920190Y-70891946D01*
X249872571Y-70653851D02*
X250586857Y-70415756D01*
X250586857Y-71034803D01*
X189007690Y-104370369D02*
X188007690Y-104370369D01*
X188007690Y-104608464D01*
X188055310Y-104751321D01*
X188150548Y-104846559D01*
X188245786Y-104894178D01*
X188436262Y-104941797D01*
X188579119Y-104941797D01*
X188769595Y-104894178D01*
X188864833Y-104846559D01*
X188960071Y-104751321D01*
X189007690Y-104608464D01*
X189007690Y-104370369D01*
X188341024Y-105798940D02*
X189007690Y-105798940D01*
X187960071Y-105560845D02*
X188674357Y-105322750D01*
X188674357Y-105941797D01*
X188007690Y-106513226D02*
X188007690Y-106608464D01*
X188055310Y-106703702D01*
X188102929Y-106751321D01*
X188198167Y-106798940D01*
X188388643Y-106846559D01*
X188626738Y-106846559D01*
X188817214Y-106798940D01*
X188912452Y-106751321D01*
X188960071Y-106703702D01*
X189007690Y-106608464D01*
X189007690Y-106513226D01*
X188960071Y-106417988D01*
X188912452Y-106370369D01*
X188817214Y-106322750D01*
X188626738Y-106275131D01*
X188388643Y-106275131D01*
X188198167Y-106322750D01*
X188102929Y-106370369D01*
X188055310Y-106417988D01*
X188007690Y-106513226D01*
X279495190Y-87560994D02*
X278495190Y-87560994D01*
X278495190Y-87799089D01*
X278542810Y-87941946D01*
X278638048Y-88037184D01*
X278733286Y-88084803D01*
X278923762Y-88132422D01*
X279066619Y-88132422D01*
X279257095Y-88084803D01*
X279352333Y-88037184D01*
X279447571Y-87941946D01*
X279495190Y-87799089D01*
X279495190Y-87560994D01*
X278828524Y-88989565D02*
X279495190Y-88989565D01*
X278447571Y-88751470D02*
X279161857Y-88513375D01*
X279161857Y-89132422D01*
X279495190Y-90037184D02*
X279495190Y-89465756D01*
X279495190Y-89751470D02*
X278495190Y-89751470D01*
X278638048Y-89656232D01*
X278733286Y-89560994D01*
X278780905Y-89465756D01*
X53276440Y-67460994D02*
X52276440Y-67460994D01*
X52276440Y-67699089D01*
X52324060Y-67841946D01*
X52419298Y-67937184D01*
X52514536Y-67984803D01*
X52705012Y-68032422D01*
X52847869Y-68032422D01*
X53038345Y-67984803D01*
X53133583Y-67937184D01*
X53228821Y-67841946D01*
X53276440Y-67699089D01*
X53276440Y-67460994D01*
X52276440Y-68365756D02*
X52276440Y-68984803D01*
X52657393Y-68651470D01*
X52657393Y-68794327D01*
X52705012Y-68889565D01*
X52752631Y-68937184D01*
X52847869Y-68984803D01*
X53085964Y-68984803D01*
X53181202Y-68937184D01*
X53228821Y-68889565D01*
X53276440Y-68794327D01*
X53276440Y-68508613D01*
X53228821Y-68413375D01*
X53181202Y-68365756D01*
X53276440Y-69460994D02*
X53276440Y-69651470D01*
X53228821Y-69746708D01*
X53181202Y-69794327D01*
X53038345Y-69889565D01*
X52847869Y-69937184D01*
X52466917Y-69937184D01*
X52371679Y-69889565D01*
X52324060Y-69841946D01*
X52276440Y-69746708D01*
X52276440Y-69556232D01*
X52324060Y-69460994D01*
X52371679Y-69413375D01*
X52466917Y-69365756D01*
X52705012Y-69365756D01*
X52800250Y-69413375D01*
X52847869Y-69460994D01*
X52895488Y-69556232D01*
X52895488Y-69746708D01*
X52847869Y-69841946D01*
X52800250Y-69889565D01*
X52705012Y-69937184D01*
X231870190Y-48410994D02*
X230870190Y-48410994D01*
X230870190Y-48649089D01*
X230917810Y-48791946D01*
X231013048Y-48887184D01*
X231108286Y-48934803D01*
X231298762Y-48982422D01*
X231441619Y-48982422D01*
X231632095Y-48934803D01*
X231727333Y-48887184D01*
X231822571Y-48791946D01*
X231870190Y-48649089D01*
X231870190Y-48410994D01*
X230965429Y-49363375D02*
X230917810Y-49410994D01*
X230870190Y-49506232D01*
X230870190Y-49744327D01*
X230917810Y-49839565D01*
X230965429Y-49887184D01*
X231060667Y-49934803D01*
X231155905Y-49934803D01*
X231298762Y-49887184D01*
X231870190Y-49315756D01*
X231870190Y-49934803D01*
X231203524Y-50791946D02*
X231870190Y-50791946D01*
X230822571Y-50553851D02*
X231536857Y-50315756D01*
X231536857Y-50934803D01*
X278304565Y-68510994D02*
X277304565Y-68510994D01*
X277304565Y-68749089D01*
X277352185Y-68891946D01*
X277447423Y-68987184D01*
X277542661Y-69034803D01*
X277733137Y-69082422D01*
X277875994Y-69082422D01*
X278066470Y-69034803D01*
X278161708Y-68987184D01*
X278256946Y-68891946D01*
X278304565Y-68749089D01*
X278304565Y-68510994D01*
X277304565Y-69415756D02*
X277304565Y-70034803D01*
X277685518Y-69701470D01*
X277685518Y-69844327D01*
X277733137Y-69939565D01*
X277780756Y-69987184D01*
X277875994Y-70034803D01*
X278114089Y-70034803D01*
X278209327Y-69987184D01*
X278256946Y-69939565D01*
X278304565Y-69844327D01*
X278304565Y-69558613D01*
X278256946Y-69463375D01*
X278209327Y-69415756D01*
X277399804Y-70415756D02*
X277352185Y-70463375D01*
X277304565Y-70558613D01*
X277304565Y-70796708D01*
X277352185Y-70891946D01*
X277399804Y-70939565D01*
X277495042Y-70987184D01*
X277590280Y-70987184D01*
X277733137Y-70939565D01*
X278304565Y-70368137D01*
X278304565Y-70987184D01*
X98520190Y-49460994D02*
X97520190Y-49460994D01*
X97520190Y-49699089D01*
X97567810Y-49841946D01*
X97663048Y-49937184D01*
X97758286Y-49984803D01*
X97948762Y-50032422D01*
X98091619Y-50032422D01*
X98282095Y-49984803D01*
X98377333Y-49937184D01*
X98472571Y-49841946D01*
X98520190Y-49699089D01*
X98520190Y-49460994D01*
X97615429Y-50413375D02*
X97567810Y-50460994D01*
X97520190Y-50556232D01*
X97520190Y-50794327D01*
X97567810Y-50889565D01*
X97615429Y-50937184D01*
X97710667Y-50984803D01*
X97805905Y-50984803D01*
X97948762Y-50937184D01*
X98520190Y-50365756D01*
X98520190Y-50984803D01*
X97520190Y-51318137D02*
X97520190Y-51984803D01*
X98520190Y-51556232D01*
X58038940Y-86510994D02*
X57038940Y-86510994D01*
X57038940Y-86749089D01*
X57086560Y-86891946D01*
X57181798Y-86987184D01*
X57277036Y-87034803D01*
X57467512Y-87082422D01*
X57610369Y-87082422D01*
X57800845Y-87034803D01*
X57896083Y-86987184D01*
X57991321Y-86891946D01*
X58038940Y-86749089D01*
X58038940Y-86510994D01*
X57372274Y-87939565D02*
X58038940Y-87939565D01*
X56991321Y-87701470D02*
X57705607Y-87463375D01*
X57705607Y-88082422D01*
X58038940Y-88510994D02*
X58038940Y-88701470D01*
X57991321Y-88796708D01*
X57943702Y-88844327D01*
X57800845Y-88939565D01*
X57610369Y-88987184D01*
X57229417Y-88987184D01*
X57134179Y-88939565D01*
X57086560Y-88891946D01*
X57038940Y-88796708D01*
X57038940Y-88606232D01*
X57086560Y-88510994D01*
X57134179Y-88463375D01*
X57229417Y-88415756D01*
X57467512Y-88415756D01*
X57562750Y-88463375D01*
X57610369Y-88510994D01*
X57657988Y-88606232D01*
X57657988Y-88796708D01*
X57610369Y-88891946D01*
X57562750Y-88939565D01*
X57467512Y-88987184D01*
X298545190Y-86510994D02*
X297545190Y-86510994D01*
X297545190Y-86749089D01*
X297592810Y-86891946D01*
X297688048Y-86987184D01*
X297783286Y-87034803D01*
X297973762Y-87082422D01*
X298116619Y-87082422D01*
X298307095Y-87034803D01*
X298402333Y-86987184D01*
X298497571Y-86891946D01*
X298545190Y-86749089D01*
X298545190Y-86510994D01*
X298545190Y-87558613D02*
X298545190Y-87749089D01*
X298497571Y-87844327D01*
X298449952Y-87891946D01*
X298307095Y-87987184D01*
X298116619Y-88034803D01*
X297735667Y-88034803D01*
X297640429Y-87987184D01*
X297592810Y-87939565D01*
X297545190Y-87844327D01*
X297545190Y-87653851D01*
X297592810Y-87558613D01*
X297640429Y-87510994D01*
X297735667Y-87463375D01*
X297973762Y-87463375D01*
X298069000Y-87510994D01*
X298116619Y-87558613D01*
X298164238Y-87653851D01*
X298164238Y-87844327D01*
X298116619Y-87939565D01*
X298069000Y-87987184D01*
X297973762Y-88034803D01*
X298545190Y-88987184D02*
X298545190Y-88415756D01*
X298545190Y-88701470D02*
X297545190Y-88701470D01*
X297688048Y-88606232D01*
X297783286Y-88510994D01*
X297830905Y-88415756D01*
X50895190Y-106610994D02*
X49895190Y-106610994D01*
X49895190Y-106849089D01*
X49942810Y-106991946D01*
X50038048Y-107087184D01*
X50133286Y-107134803D01*
X50323762Y-107182422D01*
X50466619Y-107182422D01*
X50657095Y-107134803D01*
X50752333Y-107087184D01*
X50847571Y-106991946D01*
X50895190Y-106849089D01*
X50895190Y-106610994D01*
X50895190Y-108134803D02*
X50895190Y-107563375D01*
X50895190Y-107849089D02*
X49895190Y-107849089D01*
X50038048Y-107753851D01*
X50133286Y-107658613D01*
X50180905Y-107563375D01*
X50895190Y-109087184D02*
X50895190Y-108515756D01*
X50895190Y-108801470D02*
X49895190Y-108801470D01*
X50038048Y-108706232D01*
X50133286Y-108610994D01*
X50180905Y-108515756D01*
X69945190Y-86510994D02*
X68945190Y-86510994D01*
X68945190Y-86749089D01*
X68992810Y-86891946D01*
X69088048Y-86987184D01*
X69183286Y-87034803D01*
X69373762Y-87082422D01*
X69516619Y-87082422D01*
X69707095Y-87034803D01*
X69802333Y-86987184D01*
X69897571Y-86891946D01*
X69945190Y-86749089D01*
X69945190Y-86510994D01*
X69278524Y-87939565D02*
X69945190Y-87939565D01*
X68897571Y-87701470D02*
X69611857Y-87463375D01*
X69611857Y-88082422D01*
X69373762Y-88606232D02*
X69326143Y-88510994D01*
X69278524Y-88463375D01*
X69183286Y-88415756D01*
X69135667Y-88415756D01*
X69040429Y-88463375D01*
X68992810Y-88510994D01*
X68945190Y-88606232D01*
X68945190Y-88796708D01*
X68992810Y-88891946D01*
X69040429Y-88939565D01*
X69135667Y-88987184D01*
X69183286Y-88987184D01*
X69278524Y-88939565D01*
X69326143Y-88891946D01*
X69373762Y-88796708D01*
X69373762Y-88606232D01*
X69421381Y-88510994D01*
X69469000Y-88463375D01*
X69564238Y-88415756D01*
X69754714Y-88415756D01*
X69849952Y-88463375D01*
X69897571Y-88510994D01*
X69945190Y-88606232D01*
X69945190Y-88796708D01*
X69897571Y-88891946D01*
X69849952Y-88939565D01*
X69754714Y-88987184D01*
X69564238Y-88987184D01*
X69469000Y-88939565D01*
X69421381Y-88891946D01*
X69373762Y-88796708D01*
X108045190Y-86510994D02*
X107045190Y-86510994D01*
X107045190Y-86749089D01*
X107092810Y-86891946D01*
X107188048Y-86987184D01*
X107283286Y-87034803D01*
X107473762Y-87082422D01*
X107616619Y-87082422D01*
X107807095Y-87034803D01*
X107902333Y-86987184D01*
X107997571Y-86891946D01*
X108045190Y-86749089D01*
X108045190Y-86510994D01*
X108045190Y-87558613D02*
X108045190Y-87749089D01*
X107997571Y-87844327D01*
X107949952Y-87891946D01*
X107807095Y-87987184D01*
X107616619Y-88034803D01*
X107235667Y-88034803D01*
X107140429Y-87987184D01*
X107092810Y-87939565D01*
X107045190Y-87844327D01*
X107045190Y-87653851D01*
X107092810Y-87558613D01*
X107140429Y-87510994D01*
X107235667Y-87463375D01*
X107473762Y-87463375D01*
X107569000Y-87510994D01*
X107616619Y-87558613D01*
X107664238Y-87653851D01*
X107664238Y-87844327D01*
X107616619Y-87939565D01*
X107569000Y-87987184D01*
X107473762Y-88034803D01*
X107045190Y-88368137D02*
X107045190Y-89034803D01*
X108045190Y-88606232D01*
X127095190Y-87560994D02*
X126095190Y-87560994D01*
X126095190Y-87799089D01*
X126142810Y-87941946D01*
X126238048Y-88037184D01*
X126333286Y-88084803D01*
X126523762Y-88132422D01*
X126666619Y-88132422D01*
X126857095Y-88084803D01*
X126952333Y-88037184D01*
X127047571Y-87941946D01*
X127095190Y-87799089D01*
X127095190Y-87560994D01*
X126428524Y-88989565D02*
X127095190Y-88989565D01*
X126047571Y-88751470D02*
X126761857Y-88513375D01*
X126761857Y-89132422D01*
X126095190Y-89941946D02*
X126095190Y-89751470D01*
X126142810Y-89656232D01*
X126190429Y-89608613D01*
X126333286Y-89513375D01*
X126523762Y-89465756D01*
X126904714Y-89465756D01*
X126999952Y-89513375D01*
X127047571Y-89560994D01*
X127095190Y-89656232D01*
X127095190Y-89846708D01*
X127047571Y-89941946D01*
X126999952Y-89989565D01*
X126904714Y-90037184D01*
X126666619Y-90037184D01*
X126571381Y-89989565D01*
X126523762Y-89941946D01*
X126476143Y-89846708D01*
X126476143Y-89656232D01*
X126523762Y-89560994D01*
X126571381Y-89513375D01*
X126666619Y-89465756D01*
X258063940Y-105560994D02*
X257063940Y-105560994D01*
X257063940Y-105799089D01*
X257111560Y-105941946D01*
X257206798Y-106037184D01*
X257302036Y-106084803D01*
X257492512Y-106132422D01*
X257635369Y-106132422D01*
X257825845Y-106084803D01*
X257921083Y-106037184D01*
X258016321Y-105941946D01*
X258063940Y-105799089D01*
X258063940Y-105560994D01*
X258063940Y-106608613D02*
X258063940Y-106799089D01*
X258016321Y-106894327D01*
X257968702Y-106941946D01*
X257825845Y-107037184D01*
X257635369Y-107084803D01*
X257254417Y-107084803D01*
X257159179Y-107037184D01*
X257111560Y-106989565D01*
X257063940Y-106894327D01*
X257063940Y-106703851D01*
X257111560Y-106608613D01*
X257159179Y-106560994D01*
X257254417Y-106513375D01*
X257492512Y-106513375D01*
X257587750Y-106560994D01*
X257635369Y-106608613D01*
X257682988Y-106703851D01*
X257682988Y-106894327D01*
X257635369Y-106989565D01*
X257587750Y-107037184D01*
X257492512Y-107084803D01*
X257159179Y-107465756D02*
X257111560Y-107513375D01*
X257063940Y-107608613D01*
X257063940Y-107846708D01*
X257111560Y-107941946D01*
X257159179Y-107989565D01*
X257254417Y-108037184D01*
X257349655Y-108037184D01*
X257492512Y-107989565D01*
X258063940Y-107418137D01*
X258063940Y-108037184D01*
X117570190Y-67460994D02*
X116570190Y-67460994D01*
X116570190Y-67699089D01*
X116617810Y-67841946D01*
X116713048Y-67937184D01*
X116808286Y-67984803D01*
X116998762Y-68032422D01*
X117141619Y-68032422D01*
X117332095Y-67984803D01*
X117427333Y-67937184D01*
X117522571Y-67841946D01*
X117570190Y-67699089D01*
X117570190Y-67460994D01*
X116998762Y-68603851D02*
X116951143Y-68508613D01*
X116903524Y-68460994D01*
X116808286Y-68413375D01*
X116760667Y-68413375D01*
X116665429Y-68460994D01*
X116617810Y-68508613D01*
X116570190Y-68603851D01*
X116570190Y-68794327D01*
X116617810Y-68889565D01*
X116665429Y-68937184D01*
X116760667Y-68984803D01*
X116808286Y-68984803D01*
X116903524Y-68937184D01*
X116951143Y-68889565D01*
X116998762Y-68794327D01*
X116998762Y-68603851D01*
X117046381Y-68508613D01*
X117094000Y-68460994D01*
X117189238Y-68413375D01*
X117379714Y-68413375D01*
X117474952Y-68460994D01*
X117522571Y-68508613D01*
X117570190Y-68603851D01*
X117570190Y-68794327D01*
X117522571Y-68889565D01*
X117474952Y-68937184D01*
X117379714Y-68984803D01*
X117189238Y-68984803D01*
X117094000Y-68937184D01*
X117046381Y-68889565D01*
X116998762Y-68794327D01*
X116570190Y-69318137D02*
X116570190Y-69984803D01*
X117570190Y-69556232D01*
X184245190Y-106037184D02*
X183245190Y-106037184D01*
X183245190Y-106275280D01*
X183292810Y-106418137D01*
X183388048Y-106513375D01*
X183483286Y-106560994D01*
X183673762Y-106608613D01*
X183816619Y-106608613D01*
X184007095Y-106560994D01*
X184102333Y-106513375D01*
X184197571Y-106418137D01*
X184245190Y-106275280D01*
X184245190Y-106037184D01*
X184245190Y-107560994D02*
X184245190Y-106989565D01*
X184245190Y-107275280D02*
X183245190Y-107275280D01*
X183388048Y-107180041D01*
X183483286Y-107084803D01*
X183530905Y-106989565D01*
X72326440Y-105560994D02*
X71326440Y-105560994D01*
X71326440Y-105799089D01*
X71374060Y-105941946D01*
X71469298Y-106037184D01*
X71564536Y-106084803D01*
X71755012Y-106132422D01*
X71897869Y-106132422D01*
X72088345Y-106084803D01*
X72183583Y-106037184D01*
X72278821Y-105941946D01*
X72326440Y-105799089D01*
X72326440Y-105560994D01*
X72326440Y-106608613D02*
X72326440Y-106799089D01*
X72278821Y-106894327D01*
X72231202Y-106941946D01*
X72088345Y-107037184D01*
X71897869Y-107084803D01*
X71516917Y-107084803D01*
X71421679Y-107037184D01*
X71374060Y-106989565D01*
X71326440Y-106894327D01*
X71326440Y-106703851D01*
X71374060Y-106608613D01*
X71421679Y-106560994D01*
X71516917Y-106513375D01*
X71755012Y-106513375D01*
X71850250Y-106560994D01*
X71897869Y-106608613D01*
X71945488Y-106703851D01*
X71945488Y-106894327D01*
X71897869Y-106989565D01*
X71850250Y-107037184D01*
X71755012Y-107084803D01*
X71755012Y-107656232D02*
X71707393Y-107560994D01*
X71659774Y-107513375D01*
X71564536Y-107465756D01*
X71516917Y-107465756D01*
X71421679Y-107513375D01*
X71374060Y-107560994D01*
X71326440Y-107656232D01*
X71326440Y-107846708D01*
X71374060Y-107941946D01*
X71421679Y-107989565D01*
X71516917Y-108037184D01*
X71564536Y-108037184D01*
X71659774Y-107989565D01*
X71707393Y-107941946D01*
X71755012Y-107846708D01*
X71755012Y-107656232D01*
X71802631Y-107560994D01*
X71850250Y-107513375D01*
X71945488Y-107465756D01*
X72135964Y-107465756D01*
X72231202Y-107513375D01*
X72278821Y-107560994D01*
X72326440Y-107656232D01*
X72326440Y-107846708D01*
X72278821Y-107941946D01*
X72231202Y-107989565D01*
X72135964Y-108037184D01*
X71945488Y-108037184D01*
X71850250Y-107989565D01*
X71802631Y-107941946D01*
X71755012Y-107846708D01*
X269970190Y-67460994D02*
X268970190Y-67460994D01*
X268970190Y-67699089D01*
X269017810Y-67841946D01*
X269113048Y-67937184D01*
X269208286Y-67984803D01*
X269398762Y-68032422D01*
X269541619Y-68032422D01*
X269732095Y-67984803D01*
X269827333Y-67937184D01*
X269922571Y-67841946D01*
X269970190Y-67699089D01*
X269970190Y-67460994D01*
X269303524Y-68889565D02*
X269970190Y-68889565D01*
X268922571Y-68651470D02*
X269636857Y-68413375D01*
X269636857Y-69032422D01*
X269303524Y-69841946D02*
X269970190Y-69841946D01*
X268922571Y-69603851D02*
X269636857Y-69365756D01*
X269636857Y-69984803D01*
X62801440Y-87560994D02*
X61801440Y-87560994D01*
X61801440Y-87799089D01*
X61849060Y-87941946D01*
X61944298Y-88037184D01*
X62039536Y-88084803D01*
X62230012Y-88132422D01*
X62372869Y-88132422D01*
X62563345Y-88084803D01*
X62658583Y-88037184D01*
X62753821Y-87941946D01*
X62801440Y-87799089D01*
X62801440Y-87560994D01*
X62230012Y-88703851D02*
X62182393Y-88608613D01*
X62134774Y-88560994D01*
X62039536Y-88513375D01*
X61991917Y-88513375D01*
X61896679Y-88560994D01*
X61849060Y-88608613D01*
X61801440Y-88703851D01*
X61801440Y-88894327D01*
X61849060Y-88989565D01*
X61896679Y-89037184D01*
X61991917Y-89084803D01*
X62039536Y-89084803D01*
X62134774Y-89037184D01*
X62182393Y-88989565D01*
X62230012Y-88894327D01*
X62230012Y-88703851D01*
X62277631Y-88608613D01*
X62325250Y-88560994D01*
X62420488Y-88513375D01*
X62610964Y-88513375D01*
X62706202Y-88560994D01*
X62753821Y-88608613D01*
X62801440Y-88703851D01*
X62801440Y-88894327D01*
X62753821Y-88989565D01*
X62706202Y-89037184D01*
X62610964Y-89084803D01*
X62420488Y-89084803D01*
X62325250Y-89037184D01*
X62277631Y-88989565D01*
X62230012Y-88894327D01*
X62801440Y-89560994D02*
X62801440Y-89751470D01*
X62753821Y-89846708D01*
X62706202Y-89894327D01*
X62563345Y-89989565D01*
X62372869Y-90037184D01*
X61991917Y-90037184D01*
X61896679Y-89989565D01*
X61849060Y-89941946D01*
X61801440Y-89846708D01*
X61801440Y-89656232D01*
X61849060Y-89560994D01*
X61896679Y-89513375D01*
X61991917Y-89465756D01*
X62230012Y-89465756D01*
X62325250Y-89513375D01*
X62372869Y-89560994D01*
X62420488Y-89656232D01*
X62420488Y-89846708D01*
X62372869Y-89941946D01*
X62325250Y-89989565D01*
X62230012Y-90037184D01*
X79470190Y-48410994D02*
X78470190Y-48410994D01*
X78470190Y-48649089D01*
X78517810Y-48791946D01*
X78613048Y-48887184D01*
X78708286Y-48934803D01*
X78898762Y-48982422D01*
X79041619Y-48982422D01*
X79232095Y-48934803D01*
X79327333Y-48887184D01*
X79422571Y-48791946D01*
X79470190Y-48649089D01*
X79470190Y-48410994D01*
X78565429Y-49363375D02*
X78517810Y-49410994D01*
X78470190Y-49506232D01*
X78470190Y-49744327D01*
X78517810Y-49839565D01*
X78565429Y-49887184D01*
X78660667Y-49934803D01*
X78755905Y-49934803D01*
X78898762Y-49887184D01*
X79470190Y-49315756D01*
X79470190Y-49934803D01*
X78898762Y-50506232D02*
X78851143Y-50410994D01*
X78803524Y-50363375D01*
X78708286Y-50315756D01*
X78660667Y-50315756D01*
X78565429Y-50363375D01*
X78517810Y-50410994D01*
X78470190Y-50506232D01*
X78470190Y-50696708D01*
X78517810Y-50791946D01*
X78565429Y-50839565D01*
X78660667Y-50887184D01*
X78708286Y-50887184D01*
X78803524Y-50839565D01*
X78851143Y-50791946D01*
X78898762Y-50696708D01*
X78898762Y-50506232D01*
X78946381Y-50410994D01*
X78994000Y-50363375D01*
X79089238Y-50315756D01*
X79279714Y-50315756D01*
X79374952Y-50363375D01*
X79422571Y-50410994D01*
X79470190Y-50506232D01*
X79470190Y-50696708D01*
X79422571Y-50791946D01*
X79374952Y-50839565D01*
X79279714Y-50887184D01*
X79089238Y-50887184D01*
X78994000Y-50839565D01*
X78946381Y-50791946D01*
X78898762Y-50696708D01*
X250920190Y-49460994D02*
X249920190Y-49460994D01*
X249920190Y-49699089D01*
X249967810Y-49841946D01*
X250063048Y-49937184D01*
X250158286Y-49984803D01*
X250348762Y-50032422D01*
X250491619Y-50032422D01*
X250682095Y-49984803D01*
X250777333Y-49937184D01*
X250872571Y-49841946D01*
X250920190Y-49699089D01*
X250920190Y-49460994D01*
X249920190Y-50365756D02*
X249920190Y-51032422D01*
X250920190Y-50603851D01*
X250253524Y-51841946D02*
X250920190Y-51841946D01*
X249872571Y-51603851D02*
X250586857Y-51365756D01*
X250586857Y-51984803D01*
X234251440Y-106610994D02*
X233251440Y-106610994D01*
X233251440Y-106849089D01*
X233299060Y-106991946D01*
X233394298Y-107087184D01*
X233489536Y-107134803D01*
X233680012Y-107182422D01*
X233822869Y-107182422D01*
X234013345Y-107134803D01*
X234108583Y-107087184D01*
X234203821Y-106991946D01*
X234251440Y-106849089D01*
X234251440Y-106610994D01*
X233251440Y-108087184D02*
X233251440Y-107610994D01*
X233727631Y-107563375D01*
X233680012Y-107610994D01*
X233632393Y-107706232D01*
X233632393Y-107944327D01*
X233680012Y-108039565D01*
X233727631Y-108087184D01*
X233822869Y-108134803D01*
X234060964Y-108134803D01*
X234156202Y-108087184D01*
X234203821Y-108039565D01*
X234251440Y-107944327D01*
X234251440Y-107706232D01*
X234203821Y-107610994D01*
X234156202Y-107563375D01*
X233251440Y-108468137D02*
X233251440Y-109087184D01*
X233632393Y-108753851D01*
X233632393Y-108896708D01*
X233680012Y-108991946D01*
X233727631Y-109039565D01*
X233822869Y-109087184D01*
X234060964Y-109087184D01*
X234156202Y-109039565D01*
X234203821Y-108991946D01*
X234251440Y-108896708D01*
X234251440Y-108610994D01*
X234203821Y-108515756D01*
X234156202Y-108468137D01*
X60420190Y-68510994D02*
X59420190Y-68510994D01*
X59420190Y-68749089D01*
X59467810Y-68891946D01*
X59563048Y-68987184D01*
X59658286Y-69034803D01*
X59848762Y-69082422D01*
X59991619Y-69082422D01*
X60182095Y-69034803D01*
X60277333Y-68987184D01*
X60372571Y-68891946D01*
X60420190Y-68749089D01*
X60420190Y-68510994D01*
X59420190Y-69415756D02*
X59420190Y-70082422D01*
X60420190Y-69653851D01*
X60420190Y-70510994D02*
X60420190Y-70701470D01*
X60372571Y-70796708D01*
X60324952Y-70844327D01*
X60182095Y-70939565D01*
X59991619Y-70987184D01*
X59610667Y-70987184D01*
X59515429Y-70939565D01*
X59467810Y-70891946D01*
X59420190Y-70796708D01*
X59420190Y-70606232D01*
X59467810Y-70510994D01*
X59515429Y-70463375D01*
X59610667Y-70415756D01*
X59848762Y-70415756D01*
X59944000Y-70463375D01*
X59991619Y-70510994D01*
X60039238Y-70606232D01*
X60039238Y-70796708D01*
X59991619Y-70891946D01*
X59944000Y-70939565D01*
X59848762Y-70987184D01*
G36*
X175054685Y-46782155D02*
G01*
X174054685Y-46782155D01*
X174054685Y-45732155D01*
X175054685Y-46782155D01*
G37*
D15*
X175054685Y-46782155D02*
X174054685Y-46782155D01*
X174054685Y-45732155D01*
X175054685Y-46782155D01*
G36*
X152755935Y-54982155D02*
G01*
X151705935Y-54982155D01*
X152755935Y-53982155D01*
X152755935Y-54982155D01*
G37*
X152755935Y-54982155D02*
X151705935Y-54982155D01*
X152755935Y-53982155D01*
X152755935Y-54982155D01*
G36*
X175054685Y-36066530D02*
G01*
X174054685Y-36066530D01*
X174054685Y-35016530D01*
X175054685Y-36066530D01*
G37*
X175054685Y-36066530D02*
X174054685Y-36066530D01*
X174054685Y-35016530D01*
X175054685Y-36066530D01*
G36*
X162280935Y-56172780D02*
G01*
X161230935Y-56172780D01*
X162280935Y-55172780D01*
X162280935Y-56172780D01*
G37*
X162280935Y-56172780D02*
X161230935Y-56172780D01*
X162280935Y-55172780D01*
X162280935Y-56172780D01*
G36*
X144287185Y-41612155D02*
G01*
X143287185Y-40562155D01*
X144287185Y-40562155D01*
X144287185Y-41612155D01*
G37*
X144287185Y-41612155D02*
X143287185Y-40562155D01*
X144287185Y-40562155D01*
X144287185Y-41612155D01*
G36*
X171805935Y-54982155D02*
G01*
X170755935Y-54982155D01*
X171805935Y-53982155D01*
X171805935Y-54982155D01*
G37*
X171805935Y-54982155D02*
X170755935Y-54982155D01*
X171805935Y-53982155D01*
X171805935Y-54982155D01*
X25686683Y-27237155D02*
X26209187Y-27237155D01*
X25686683Y-25817155D02*
X26209187Y-25817155D01*
X287983435Y-50625280D02*
X292083435Y-50625280D01*
X292083435Y-48625280D02*
X287983435Y-48625280D01*
X292083435Y-50625280D02*
X292083435Y-48625280D01*
X287983435Y-48625280D02*
X287983435Y-50625280D01*
X37385187Y-30484405D02*
X36862683Y-30484405D01*
X37385187Y-31904405D02*
X36862683Y-31904405D01*
X58654589Y-42164217D02*
X58285123Y-41794751D01*
X57650497Y-43168309D02*
X57281031Y-42798843D01*
X81640935Y-28333405D02*
X82970935Y-28333405D01*
X84300935Y-25733405D02*
X84300935Y-23133405D01*
X81640935Y-23133405D02*
X84300935Y-23133405D01*
X81640935Y-27003405D02*
X81640935Y-28333405D01*
X81640935Y-25733405D02*
X81640935Y-23133405D01*
X81640935Y-25733405D02*
X84300935Y-25733405D01*
X103220935Y-100822155D02*
G75*
G03*
X103220935Y-100822155I-1200000J0D01*
G01*
X194660935Y-95964405D02*
G75*
G03*
X194660935Y-95964405I-1200000J0D01*
G01*
X265145935Y-100822155D02*
G75*
G03*
X265145935Y-100822155I-1200000J0D01*
G01*
X36545935Y-104394030D02*
G75*
G03*
X36545935Y-104394030I-1200000J0D01*
G01*
X46070935Y-73437780D02*
G75*
G03*
X46070935Y-73437780I-1200000J0D01*
G01*
X284195935Y-88915905D02*
G75*
G03*
X284195935Y-88915905I-1200000J0D01*
G01*
X284195935Y-92487780D02*
G75*
G03*
X284195935Y-92487780I-1200000J0D01*
G01*
X41697009Y-34136321D02*
X42066475Y-34505787D01*
X42701101Y-33132229D02*
X43070567Y-33501695D01*
X52435114Y-27224957D02*
X48616737Y-31043334D01*
X49253133Y-24042976D02*
X52435114Y-27224957D01*
X44676281Y-31432343D02*
X45045747Y-31801809D01*
X45680373Y-30428251D02*
X46049839Y-30797717D01*
X60059156Y-27193718D02*
X60428622Y-27563184D01*
X61063248Y-26189626D02*
X61432714Y-26559092D01*
X63699997Y-34554626D02*
X64069463Y-34185160D01*
X64704089Y-35558718D02*
X65073555Y-35189252D01*
X54460310Y-53420905D02*
X54460310Y-50820905D01*
X49320310Y-53420905D02*
X49320310Y-48220905D01*
X57060310Y-53420905D02*
X57060310Y-52090905D01*
X54460310Y-53420905D02*
X49320310Y-53420905D01*
X57060310Y-48220905D02*
X49320310Y-48220905D01*
X57060310Y-50820905D02*
X57060310Y-48220905D01*
X55730310Y-53420905D02*
X57060310Y-53420905D01*
X54460310Y-50820905D02*
X57060310Y-50820905D01*
X26533435Y-48625280D02*
X26533435Y-50625280D01*
X26533435Y-50625280D02*
X30633435Y-50625280D01*
X30633435Y-48625280D02*
X26533435Y-48625280D01*
X30633435Y-50625280D02*
X30633435Y-48625280D01*
D16*
X112816189Y-22028365D02*
G75*
G03*
X112816189Y-22028365I-1270254J0D01*
G01*
X208066189Y-22028365D02*
G75*
G03*
X208066189Y-22028365I-1270254J0D01*
G01*
D15*
X44282374Y-21341155D02*
X43078246Y-21341155D01*
X44282374Y-19521155D02*
X43078246Y-19521155D01*
D16*
X101766189Y-107628365D02*
G75*
G03*
X101766189Y-107628365I-1270254J0D01*
G01*
D15*
X43941562Y-22515155D02*
X43419058Y-22515155D01*
X43941562Y-23935155D02*
X43419058Y-23935155D01*
X217520935Y-100822155D02*
G75*
G03*
X217520935Y-100822155I-1200000J0D01*
G01*
X160370935Y-32956530D02*
G75*
G03*
X160370935Y-32956530I-1200000J0D01*
G01*
X24387935Y-21891155D02*
X24387935Y-19891155D01*
X27507935Y-20591155D02*
X27507935Y-21891155D01*
X41495975Y-63548765D02*
X43495975Y-63548765D01*
X44795975Y-67998765D02*
X45245975Y-67548765D01*
X40195975Y-67998765D02*
X39745975Y-67548765D01*
X39745975Y-65048765D02*
X39745975Y-67548765D01*
X41495975Y-69048765D02*
X43495975Y-69048765D01*
X44795975Y-64598765D02*
X45245975Y-65048765D01*
X45245975Y-65048765D02*
X45245975Y-67548765D01*
X40195975Y-64598765D02*
X39745975Y-65048765D01*
X44602372Y-37041684D02*
X44971838Y-37411150D01*
X45606464Y-36037592D02*
X45975930Y-36407058D01*
X65647156Y-36496842D02*
X66016622Y-36127376D01*
X66651248Y-37500934D02*
X67020714Y-37131468D01*
X53193589Y-23653967D02*
X52824123Y-23284501D01*
X52189497Y-24658059D02*
X51820031Y-24288593D01*
X284195935Y-100822155D02*
G75*
G03*
X284195935Y-100822155I-1200000J0D01*
G01*
X79408435Y-100822155D02*
G75*
G03*
X79408435Y-100822155I-1200000J0D01*
G01*
X79408435Y-97488405D02*
G75*
G03*
X79408435Y-97488405I-1200000J0D01*
G01*
D16*
X241666189Y-107628365D02*
G75*
G03*
X241666189Y-107628365I-1270254J0D01*
G01*
D15*
X150845935Y-32956530D02*
G75*
G03*
X150845935Y-32956530I-1200000J0D01*
G01*
X150845935Y-29384655D02*
G75*
G03*
X150845935Y-29384655I-1200000J0D01*
G01*
X55595935Y-73428405D02*
G75*
G03*
X55595935Y-73428405I-1200000J0D01*
G01*
X92495935Y-21593405D02*
X90545935Y-21593405D01*
X92495935Y-21593405D02*
X95945935Y-21593405D01*
X92495935Y-26713405D02*
X90545935Y-26713405D01*
X92495935Y-26713405D02*
X94445935Y-26713405D01*
X78552871Y-26268405D02*
X79006999Y-26268405D01*
X78552871Y-27738405D02*
X79006999Y-27738405D01*
X78552871Y-25325405D02*
X79006999Y-25325405D01*
X78552871Y-23855405D02*
X79006999Y-23855405D01*
X30225935Y-21018365D02*
X30225935Y-20118365D01*
X30345935Y-24098365D02*
X39295935Y-24098365D01*
X39415935Y-21018365D02*
X39415935Y-20118365D01*
X50178464Y-40577842D02*
X50547930Y-40947308D01*
X49174372Y-41581934D02*
X49543838Y-41951400D01*
X37385187Y-27944405D02*
X36862683Y-27944405D01*
X37385187Y-29364405D02*
X36862683Y-29364405D01*
X130614685Y-100822155D02*
G75*
G03*
X130614685Y-100822155I-1200000J0D01*
G01*
X160370935Y-29384655D02*
G75*
G03*
X160370935Y-29384655I-1200000J0D01*
G01*
X292558435Y-54527155D02*
X293888435Y-54527155D01*
X291288435Y-51867155D02*
X286148435Y-51867155D01*
X293888435Y-54527155D02*
X293888435Y-53197155D01*
X291288435Y-54527155D02*
X286148435Y-54527155D01*
X291288435Y-54527155D02*
X291288435Y-51867155D01*
X286148435Y-54527155D02*
X286148435Y-51867155D01*
X79408435Y-106775280D02*
G75*
G03*
X79408435Y-106775280I-1200000J0D01*
G01*
D12*
X50460036Y-34147155D02*
X51008044Y-33599147D01*
X60713084Y-34147155D02*
X60165076Y-34695163D01*
X60713084Y-34147155D02*
X60165076Y-33599147D01*
X55586560Y-39273679D02*
X56134568Y-38725671D01*
X55586560Y-29020631D02*
X56134568Y-29568639D01*
X55586560Y-29020631D02*
X55038552Y-29568639D01*
X50460036Y-34147155D02*
X51008044Y-34695163D01*
D15*
X78017810Y-70925280D02*
X78017810Y-67025280D01*
X76017810Y-70925280D02*
X76017810Y-67025280D01*
X78017810Y-70925280D02*
X76017810Y-70925280D01*
X76017810Y-70925280D02*
X76017810Y-71215280D01*
X76017810Y-71215280D02*
X78017810Y-71215280D01*
X78017810Y-71215280D02*
X78017810Y-70925280D01*
G36*
X78017810Y-70925280D02*
G01*
X76017810Y-70925280D01*
X76017810Y-71215280D01*
X78017810Y-71215280D01*
X78017810Y-70925280D01*
G37*
G36*
X77017810Y-69310280D02*
G01*
X76255810Y-68167280D01*
X77779810Y-68167280D01*
X77017810Y-69310280D01*
G37*
X77017810Y-69310280D02*
X76255810Y-68167280D01*
X77779810Y-68167280D01*
X77017810Y-69310280D01*
X295092810Y-109025280D02*
X295092810Y-105125280D01*
X297092810Y-109025280D02*
X297092810Y-105125280D01*
X297092810Y-109025280D02*
X295092810Y-109025280D01*
X295092810Y-109025280D02*
X295092810Y-109315280D01*
X295092810Y-109315280D02*
X297092810Y-109315280D01*
X297092810Y-109315280D02*
X297092810Y-109025280D01*
G36*
X297092810Y-109025280D02*
G01*
X295092810Y-109025280D01*
X295092810Y-109315280D01*
X297092810Y-109315280D01*
X297092810Y-109025280D01*
G37*
G36*
X296092810Y-107410280D02*
G01*
X295330810Y-106267280D01*
X296854810Y-106267280D01*
X296092810Y-107410280D01*
G37*
X296092810Y-107410280D02*
X295330810Y-106267280D01*
X296854810Y-106267280D01*
X296092810Y-107410280D01*
X97067810Y-71975280D02*
X97067810Y-68075280D01*
X95067810Y-71975280D02*
X95067810Y-68075280D01*
X97067810Y-71975280D02*
X95067810Y-71975280D01*
X95067810Y-71975280D02*
X95067810Y-72265280D01*
X95067810Y-72265280D02*
X97067810Y-72265280D01*
X97067810Y-72265280D02*
X97067810Y-71975280D01*
G36*
X97067810Y-71975280D02*
G01*
X95067810Y-71975280D01*
X95067810Y-72265280D01*
X97067810Y-72265280D01*
X97067810Y-71975280D01*
G37*
G36*
X96067810Y-70360280D02*
G01*
X95305810Y-69217280D01*
X96829810Y-69217280D01*
X96067810Y-70360280D01*
G37*
X96067810Y-70360280D02*
X95305810Y-69217280D01*
X96829810Y-69217280D01*
X96067810Y-70360280D01*
X94686560Y-110075280D02*
X94686560Y-106175280D01*
X92686560Y-110075280D02*
X92686560Y-106175280D01*
X94686560Y-110075280D02*
X92686560Y-110075280D01*
X92686560Y-110075280D02*
X92686560Y-110365280D01*
X92686560Y-110365280D02*
X94686560Y-110365280D01*
X94686560Y-110365280D02*
X94686560Y-110075280D01*
G36*
X94686560Y-110075280D02*
G01*
X92686560Y-110075280D01*
X92686560Y-110365280D01*
X94686560Y-110365280D01*
X94686560Y-110075280D01*
G37*
G36*
X93686560Y-108460280D02*
G01*
X92924560Y-107317280D01*
X94448560Y-107317280D01*
X93686560Y-108460280D01*
G37*
X93686560Y-108460280D02*
X92924560Y-107317280D01*
X94448560Y-107317280D01*
X93686560Y-108460280D01*
X130786560Y-107834655D02*
X130786560Y-103934655D01*
X132786560Y-107834655D02*
X132786560Y-103934655D01*
X132786560Y-107834655D02*
X130786560Y-107834655D01*
X130786560Y-107834655D02*
X130786560Y-108124655D01*
X130786560Y-108124655D02*
X132786560Y-108124655D01*
X132786560Y-108124655D02*
X132786560Y-107834655D01*
G36*
X132786560Y-107834655D02*
G01*
X130786560Y-107834655D01*
X130786560Y-108124655D01*
X132786560Y-108124655D01*
X132786560Y-107834655D01*
G37*
G36*
X131786560Y-106219655D02*
G01*
X131024560Y-105076655D01*
X132548560Y-105076655D01*
X131786560Y-106219655D01*
G37*
X131786560Y-106219655D02*
X131024560Y-105076655D01*
X132548560Y-105076655D01*
X131786560Y-106219655D01*
X87542810Y-91025280D02*
X87542810Y-87125280D01*
X85542810Y-91025280D02*
X85542810Y-87125280D01*
X87542810Y-91025280D02*
X85542810Y-91025280D01*
X85542810Y-91025280D02*
X85542810Y-91315280D01*
X85542810Y-91315280D02*
X87542810Y-91315280D01*
X87542810Y-91315280D02*
X87542810Y-91025280D01*
G36*
X87542810Y-91025280D02*
G01*
X85542810Y-91025280D01*
X85542810Y-91315280D01*
X87542810Y-91315280D01*
X87542810Y-91025280D01*
G37*
G36*
X86542810Y-89410280D02*
G01*
X85780810Y-88267280D01*
X87304810Y-88267280D01*
X86542810Y-89410280D01*
G37*
X86542810Y-89410280D02*
X85780810Y-88267280D01*
X87304810Y-88267280D01*
X86542810Y-89410280D01*
X199842810Y-91025280D02*
X199842810Y-87125280D01*
X201842810Y-91025280D02*
X201842810Y-87125280D01*
X201842810Y-91025280D02*
X199842810Y-91025280D01*
X199842810Y-91025280D02*
X199842810Y-91315280D01*
X199842810Y-91315280D02*
X201842810Y-91315280D01*
X201842810Y-91315280D02*
X201842810Y-91025280D01*
G36*
X201842810Y-91025280D02*
G01*
X199842810Y-91025280D01*
X199842810Y-91315280D01*
X201842810Y-91315280D01*
X201842810Y-91025280D01*
G37*
G36*
X200842810Y-89410280D02*
G01*
X200080810Y-88267280D01*
X201604810Y-88267280D01*
X200842810Y-89410280D01*
G37*
X200842810Y-89410280D02*
X200080810Y-88267280D01*
X201604810Y-88267280D01*
X200842810Y-89410280D01*
X125642810Y-110125280D02*
X125642810Y-106225280D01*
X123642810Y-110125280D02*
X123642810Y-106225280D01*
X125642810Y-110125280D02*
X123642810Y-110125280D01*
X123642810Y-110125280D02*
X123642810Y-110415280D01*
X123642810Y-110415280D02*
X125642810Y-110415280D01*
X125642810Y-110415280D02*
X125642810Y-110125280D01*
G36*
X125642810Y-110125280D02*
G01*
X123642810Y-110125280D01*
X123642810Y-110415280D01*
X125642810Y-110415280D01*
X125642810Y-110125280D01*
G37*
G36*
X124642810Y-108510280D02*
G01*
X123880810Y-107367280D01*
X125404810Y-107367280D01*
X124642810Y-108510280D01*
G37*
X124642810Y-108510280D02*
X123880810Y-107367280D01*
X125404810Y-107367280D01*
X124642810Y-108510280D01*
X258992810Y-89975280D02*
X258992810Y-86075280D01*
X256992810Y-89975280D02*
X256992810Y-86075280D01*
X258992810Y-89975280D02*
X256992810Y-89975280D01*
X256992810Y-89975280D02*
X256992810Y-90265280D01*
X256992810Y-90265280D02*
X258992810Y-90265280D01*
X258992810Y-90265280D02*
X258992810Y-89975280D01*
G36*
X258992810Y-89975280D02*
G01*
X256992810Y-89975280D01*
X256992810Y-90265280D01*
X258992810Y-90265280D01*
X258992810Y-89975280D01*
G37*
G36*
X257992810Y-88360280D02*
G01*
X257230810Y-87217280D01*
X258754810Y-87217280D01*
X257992810Y-88360280D01*
G37*
X257992810Y-88360280D02*
X257230810Y-87217280D01*
X258754810Y-87217280D01*
X257992810Y-88360280D01*
X28392810Y-109025280D02*
X28392810Y-105125280D01*
X30392810Y-109025280D02*
X30392810Y-105125280D01*
X30392810Y-109025280D02*
X28392810Y-109025280D01*
X28392810Y-109025280D02*
X28392810Y-109315280D01*
X28392810Y-109315280D02*
X30392810Y-109315280D01*
X30392810Y-109315280D02*
X30392810Y-109025280D01*
G36*
X30392810Y-109025280D02*
G01*
X28392810Y-109025280D01*
X28392810Y-109315280D01*
X30392810Y-109315280D01*
X30392810Y-109025280D01*
G37*
G36*
X29392810Y-107410280D02*
G01*
X28630810Y-106267280D01*
X30154810Y-106267280D01*
X29392810Y-107410280D01*
G37*
X29392810Y-107410280D02*
X28630810Y-106267280D01*
X30154810Y-106267280D01*
X29392810Y-107410280D01*
X228417810Y-70925280D02*
X228417810Y-67025280D01*
X230417810Y-70925280D02*
X230417810Y-67025280D01*
X230417810Y-70925280D02*
X228417810Y-70925280D01*
X228417810Y-70925280D02*
X228417810Y-71215280D01*
X228417810Y-71215280D02*
X230417810Y-71215280D01*
X230417810Y-71215280D02*
X230417810Y-70925280D01*
G36*
X230417810Y-70925280D02*
G01*
X228417810Y-70925280D01*
X228417810Y-71215280D01*
X230417810Y-71215280D01*
X230417810Y-70925280D01*
G37*
G36*
X229417810Y-69310280D02*
G01*
X228655810Y-68167280D01*
X230179810Y-68167280D01*
X229417810Y-69310280D01*
G37*
X229417810Y-69310280D02*
X228655810Y-68167280D01*
X230179810Y-68167280D01*
X229417810Y-69310280D01*
X237942810Y-91025280D02*
X237942810Y-87125280D01*
X239942810Y-91025280D02*
X239942810Y-87125280D01*
X239942810Y-91025280D02*
X237942810Y-91025280D01*
X237942810Y-91025280D02*
X237942810Y-91315280D01*
X237942810Y-91315280D02*
X239942810Y-91315280D01*
X239942810Y-91315280D02*
X239942810Y-91025280D01*
G36*
X239942810Y-91025280D02*
G01*
X237942810Y-91025280D01*
X237942810Y-91315280D01*
X239942810Y-91315280D01*
X239942810Y-91025280D01*
G37*
G36*
X238942810Y-89410280D02*
G01*
X238180810Y-88267280D01*
X239704810Y-88267280D01*
X238942810Y-89410280D01*
G37*
X238942810Y-89410280D02*
X238180810Y-88267280D01*
X239704810Y-88267280D01*
X238942810Y-89410280D01*
X215320935Y-110071280D02*
X215320935Y-106171280D01*
X217320935Y-110071280D02*
X217320935Y-106171280D01*
X217320935Y-110071280D02*
X215320935Y-110071280D01*
X215320935Y-110071280D02*
X215320935Y-110361280D01*
X215320935Y-110361280D02*
X217320935Y-110361280D01*
X217320935Y-110361280D02*
X217320935Y-110071280D01*
G36*
X217320935Y-110071280D02*
G01*
X215320935Y-110071280D01*
X215320935Y-110361280D01*
X217320935Y-110361280D01*
X217320935Y-110071280D01*
G37*
G36*
X216320935Y-108456280D02*
G01*
X215558935Y-107313280D01*
X217082935Y-107313280D01*
X216320935Y-108456280D01*
G37*
X216320935Y-108456280D02*
X215558935Y-107313280D01*
X217082935Y-107313280D01*
X216320935Y-108456280D01*
X218892810Y-89975280D02*
X218892810Y-86075280D01*
X220892810Y-89975280D02*
X220892810Y-86075280D01*
X220892810Y-89975280D02*
X218892810Y-89975280D01*
X218892810Y-89975280D02*
X218892810Y-90265280D01*
X218892810Y-90265280D02*
X220892810Y-90265280D01*
X220892810Y-90265280D02*
X220892810Y-89975280D01*
G36*
X220892810Y-89975280D02*
G01*
X218892810Y-89975280D01*
X218892810Y-90265280D01*
X220892810Y-90265280D01*
X220892810Y-89975280D01*
G37*
G36*
X219892810Y-88360280D02*
G01*
X219130810Y-87217280D01*
X220654810Y-87217280D01*
X219892810Y-88360280D01*
G37*
X219892810Y-88360280D02*
X219130810Y-87217280D01*
X220654810Y-87217280D01*
X219892810Y-88360280D01*
X278042810Y-110075280D02*
X278042810Y-106175280D01*
X276042810Y-110075280D02*
X276042810Y-106175280D01*
X278042810Y-110075280D02*
X276042810Y-110075280D01*
X276042810Y-110075280D02*
X276042810Y-110365280D01*
X276042810Y-110365280D02*
X278042810Y-110365280D01*
X278042810Y-110365280D02*
X278042810Y-110075280D01*
G36*
X278042810Y-110075280D02*
G01*
X276042810Y-110075280D01*
X276042810Y-110365280D01*
X278042810Y-110365280D01*
X278042810Y-110075280D01*
G37*
G36*
X277042810Y-108460280D02*
G01*
X276280810Y-107317280D01*
X277804810Y-107317280D01*
X277042810Y-108460280D01*
G37*
X277042810Y-108460280D02*
X276280810Y-107317280D01*
X277804810Y-107317280D01*
X277042810Y-108460280D01*
X211367810Y-71975280D02*
X211367810Y-68075280D01*
X209367810Y-71975280D02*
X209367810Y-68075280D01*
X211367810Y-71975280D02*
X209367810Y-71975280D01*
X209367810Y-71975280D02*
X209367810Y-72265280D01*
X209367810Y-72265280D02*
X211367810Y-72265280D01*
X211367810Y-72265280D02*
X211367810Y-71975280D01*
G36*
X211367810Y-71975280D02*
G01*
X209367810Y-71975280D01*
X209367810Y-72265280D01*
X211367810Y-72265280D01*
X211367810Y-71975280D01*
G37*
G36*
X210367810Y-70360280D02*
G01*
X209605810Y-69217280D01*
X211129810Y-69217280D01*
X210367810Y-70360280D01*
G37*
X210367810Y-70360280D02*
X209605810Y-69217280D01*
X211129810Y-69217280D01*
X210367810Y-70360280D01*
X247467810Y-71975280D02*
X247467810Y-68075280D01*
X249467810Y-71975280D02*
X249467810Y-68075280D01*
X249467810Y-71975280D02*
X247467810Y-71975280D01*
X247467810Y-71975280D02*
X247467810Y-72265280D01*
X247467810Y-72265280D02*
X249467810Y-72265280D01*
X249467810Y-72265280D02*
X249467810Y-71975280D01*
G36*
X249467810Y-71975280D02*
G01*
X247467810Y-71975280D01*
X247467810Y-72265280D01*
X249467810Y-72265280D01*
X249467810Y-71975280D01*
G37*
G36*
X248467810Y-70360280D02*
G01*
X247705810Y-69217280D01*
X249229810Y-69217280D01*
X248467810Y-70360280D01*
G37*
X248467810Y-70360280D02*
X247705810Y-69217280D01*
X249229810Y-69217280D01*
X248467810Y-70360280D01*
X187555310Y-107834655D02*
X187555310Y-103934655D01*
X185555310Y-107834655D02*
X185555310Y-103934655D01*
X187555310Y-107834655D02*
X185555310Y-107834655D01*
X185555310Y-107834655D02*
X185555310Y-108124655D01*
X185555310Y-108124655D02*
X187555310Y-108124655D01*
X187555310Y-108124655D02*
X187555310Y-107834655D01*
G36*
X187555310Y-107834655D02*
G01*
X185555310Y-107834655D01*
X185555310Y-108124655D01*
X187555310Y-108124655D01*
X187555310Y-107834655D01*
G37*
G36*
X186555310Y-106219655D02*
G01*
X185793310Y-105076655D01*
X187317310Y-105076655D01*
X186555310Y-106219655D01*
G37*
X186555310Y-106219655D02*
X185793310Y-105076655D01*
X187317310Y-105076655D01*
X186555310Y-106219655D01*
X276042810Y-91025280D02*
X276042810Y-87125280D01*
X278042810Y-91025280D02*
X278042810Y-87125280D01*
X278042810Y-91025280D02*
X276042810Y-91025280D01*
X276042810Y-91025280D02*
X276042810Y-91315280D01*
X276042810Y-91315280D02*
X278042810Y-91315280D01*
X278042810Y-91315280D02*
X278042810Y-91025280D01*
G36*
X278042810Y-91025280D02*
G01*
X276042810Y-91025280D01*
X276042810Y-91315280D01*
X278042810Y-91315280D01*
X278042810Y-91025280D01*
G37*
G36*
X277042810Y-89410280D02*
G01*
X276280810Y-88267280D01*
X277804810Y-88267280D01*
X277042810Y-89410280D01*
G37*
X277042810Y-89410280D02*
X276280810Y-88267280D01*
X277804810Y-88267280D01*
X277042810Y-89410280D01*
X49824060Y-70925280D02*
X49824060Y-67025280D01*
X51824060Y-70925280D02*
X51824060Y-67025280D01*
X51824060Y-70925280D02*
X49824060Y-70925280D01*
X49824060Y-70925280D02*
X49824060Y-71215280D01*
X49824060Y-71215280D02*
X51824060Y-71215280D01*
X51824060Y-71215280D02*
X51824060Y-70925280D01*
G36*
X51824060Y-70925280D02*
G01*
X49824060Y-70925280D01*
X49824060Y-71215280D01*
X51824060Y-71215280D01*
X51824060Y-70925280D01*
G37*
G36*
X50824060Y-69310280D02*
G01*
X50062060Y-68167280D01*
X51586060Y-68167280D01*
X50824060Y-69310280D01*
G37*
X50824060Y-69310280D02*
X50062060Y-68167280D01*
X51586060Y-68167280D01*
X50824060Y-69310280D01*
X228417810Y-51875280D02*
X228417810Y-47975280D01*
X230417810Y-51875280D02*
X230417810Y-47975280D01*
X230417810Y-51875280D02*
X228417810Y-51875280D01*
X228417810Y-51875280D02*
X228417810Y-52165280D01*
X228417810Y-52165280D02*
X230417810Y-52165280D01*
X230417810Y-52165280D02*
X230417810Y-51875280D01*
G36*
X230417810Y-51875280D02*
G01*
X228417810Y-51875280D01*
X228417810Y-52165280D01*
X230417810Y-52165280D01*
X230417810Y-51875280D01*
G37*
G36*
X229417810Y-50260280D02*
G01*
X228655810Y-49117280D01*
X230179810Y-49117280D01*
X229417810Y-50260280D01*
G37*
X229417810Y-50260280D02*
X228655810Y-49117280D01*
X230179810Y-49117280D01*
X229417810Y-50260280D01*
X274852185Y-71975280D02*
X274852185Y-68075280D01*
X276852185Y-71975280D02*
X276852185Y-68075280D01*
X276852185Y-71975280D02*
X274852185Y-71975280D01*
X274852185Y-71975280D02*
X274852185Y-72265280D01*
X274852185Y-72265280D02*
X276852185Y-72265280D01*
X276852185Y-72265280D02*
X276852185Y-71975280D01*
G36*
X276852185Y-71975280D02*
G01*
X274852185Y-71975280D01*
X274852185Y-72265280D01*
X276852185Y-72265280D01*
X276852185Y-71975280D01*
G37*
G36*
X275852185Y-70360280D02*
G01*
X275090185Y-69217280D01*
X276614185Y-69217280D01*
X275852185Y-70360280D01*
G37*
X275852185Y-70360280D02*
X275090185Y-69217280D01*
X276614185Y-69217280D01*
X275852185Y-70360280D01*
X97067810Y-52925280D02*
X97067810Y-49025280D01*
X95067810Y-52925280D02*
X95067810Y-49025280D01*
X97067810Y-52925280D02*
X95067810Y-52925280D01*
X95067810Y-52925280D02*
X95067810Y-53215280D01*
X95067810Y-53215280D02*
X97067810Y-53215280D01*
X97067810Y-53215280D02*
X97067810Y-52925280D01*
G36*
X97067810Y-52925280D02*
G01*
X95067810Y-52925280D01*
X95067810Y-53215280D01*
X97067810Y-53215280D01*
X97067810Y-52925280D01*
G37*
G36*
X96067810Y-51310280D02*
G01*
X95305810Y-50167280D01*
X96829810Y-50167280D01*
X96067810Y-51310280D01*
G37*
X96067810Y-51310280D02*
X95305810Y-50167280D01*
X96829810Y-50167280D01*
X96067810Y-51310280D01*
X54586560Y-89975280D02*
X54586560Y-86075280D01*
X56586560Y-89975280D02*
X56586560Y-86075280D01*
X56586560Y-89975280D02*
X54586560Y-89975280D01*
X54586560Y-89975280D02*
X54586560Y-90265280D01*
X54586560Y-90265280D02*
X56586560Y-90265280D01*
X56586560Y-90265280D02*
X56586560Y-89975280D01*
G36*
X56586560Y-89975280D02*
G01*
X54586560Y-89975280D01*
X54586560Y-90265280D01*
X56586560Y-90265280D01*
X56586560Y-89975280D01*
G37*
G36*
X55586560Y-88360280D02*
G01*
X54824560Y-87217280D01*
X56348560Y-87217280D01*
X55586560Y-88360280D01*
G37*
X55586560Y-88360280D02*
X54824560Y-87217280D01*
X56348560Y-87217280D01*
X55586560Y-88360280D01*
X295092810Y-89975280D02*
X295092810Y-86075280D01*
X297092810Y-89975280D02*
X297092810Y-86075280D01*
X297092810Y-89975280D02*
X295092810Y-89975280D01*
X295092810Y-89975280D02*
X295092810Y-90265280D01*
X295092810Y-90265280D02*
X297092810Y-90265280D01*
X297092810Y-90265280D02*
X297092810Y-89975280D01*
G36*
X297092810Y-89975280D02*
G01*
X295092810Y-89975280D01*
X295092810Y-90265280D01*
X297092810Y-90265280D01*
X297092810Y-89975280D01*
G37*
G36*
X296092810Y-88360280D02*
G01*
X295330810Y-87217280D01*
X296854810Y-87217280D01*
X296092810Y-88360280D01*
G37*
X296092810Y-88360280D02*
X295330810Y-87217280D01*
X296854810Y-87217280D01*
X296092810Y-88360280D01*
X49442810Y-110075280D02*
X49442810Y-106175280D01*
X47442810Y-110075280D02*
X47442810Y-106175280D01*
X49442810Y-110075280D02*
X47442810Y-110075280D01*
X47442810Y-110075280D02*
X47442810Y-110365280D01*
X47442810Y-110365280D02*
X49442810Y-110365280D01*
X49442810Y-110365280D02*
X49442810Y-110075280D01*
G36*
X49442810Y-110075280D02*
G01*
X47442810Y-110075280D01*
X47442810Y-110365280D01*
X49442810Y-110365280D01*
X49442810Y-110075280D01*
G37*
G36*
X48442810Y-108460280D02*
G01*
X47680810Y-107317280D01*
X49204810Y-107317280D01*
X48442810Y-108460280D01*
G37*
X48442810Y-108460280D02*
X47680810Y-107317280D01*
X49204810Y-107317280D01*
X48442810Y-108460280D01*
X68492810Y-89975280D02*
X68492810Y-86075280D01*
X66492810Y-89975280D02*
X66492810Y-86075280D01*
X68492810Y-89975280D02*
X66492810Y-89975280D01*
X66492810Y-89975280D02*
X66492810Y-90265280D01*
X66492810Y-90265280D02*
X68492810Y-90265280D01*
X68492810Y-90265280D02*
X68492810Y-89975280D01*
G36*
X68492810Y-89975280D02*
G01*
X66492810Y-89975280D01*
X66492810Y-90265280D01*
X68492810Y-90265280D01*
X68492810Y-89975280D01*
G37*
G36*
X67492810Y-88360280D02*
G01*
X66730810Y-87217280D01*
X68254810Y-87217280D01*
X67492810Y-88360280D01*
G37*
X67492810Y-88360280D02*
X66730810Y-87217280D01*
X68254810Y-87217280D01*
X67492810Y-88360280D01*
X104592810Y-89975280D02*
X104592810Y-86075280D01*
X106592810Y-89975280D02*
X106592810Y-86075280D01*
X106592810Y-89975280D02*
X104592810Y-89975280D01*
X104592810Y-89975280D02*
X104592810Y-90265280D01*
X104592810Y-90265280D02*
X106592810Y-90265280D01*
X106592810Y-90265280D02*
X106592810Y-89975280D01*
G36*
X106592810Y-89975280D02*
G01*
X104592810Y-89975280D01*
X104592810Y-90265280D01*
X106592810Y-90265280D01*
X106592810Y-89975280D01*
G37*
G36*
X105592810Y-88360280D02*
G01*
X104830810Y-87217280D01*
X106354810Y-87217280D01*
X105592810Y-88360280D01*
G37*
X105592810Y-88360280D02*
X104830810Y-87217280D01*
X106354810Y-87217280D01*
X105592810Y-88360280D01*
X125642810Y-91025280D02*
X125642810Y-87125280D01*
X123642810Y-91025280D02*
X123642810Y-87125280D01*
X125642810Y-91025280D02*
X123642810Y-91025280D01*
X123642810Y-91025280D02*
X123642810Y-91315280D01*
X123642810Y-91315280D02*
X125642810Y-91315280D01*
X125642810Y-91315280D02*
X125642810Y-91025280D01*
G36*
X125642810Y-91025280D02*
G01*
X123642810Y-91025280D01*
X123642810Y-91315280D01*
X125642810Y-91315280D01*
X125642810Y-91025280D01*
G37*
G36*
X124642810Y-89410280D02*
G01*
X123880810Y-88267280D01*
X125404810Y-88267280D01*
X124642810Y-89410280D01*
G37*
X124642810Y-89410280D02*
X123880810Y-88267280D01*
X125404810Y-88267280D01*
X124642810Y-89410280D01*
X256611560Y-109025280D02*
X256611560Y-105125280D01*
X254611560Y-109025280D02*
X254611560Y-105125280D01*
X256611560Y-109025280D02*
X254611560Y-109025280D01*
X254611560Y-109025280D02*
X254611560Y-109315280D01*
X254611560Y-109315280D02*
X256611560Y-109315280D01*
X256611560Y-109315280D02*
X256611560Y-109025280D01*
G36*
X256611560Y-109025280D02*
G01*
X254611560Y-109025280D01*
X254611560Y-109315280D01*
X256611560Y-109315280D01*
X256611560Y-109025280D01*
G37*
G36*
X255611560Y-107410280D02*
G01*
X254849560Y-106267280D01*
X256373560Y-106267280D01*
X255611560Y-107410280D01*
G37*
X255611560Y-107410280D02*
X254849560Y-106267280D01*
X256373560Y-106267280D01*
X255611560Y-107410280D01*
X116117810Y-70925280D02*
X116117810Y-67025280D01*
X114117810Y-70925280D02*
X114117810Y-67025280D01*
X116117810Y-70925280D02*
X114117810Y-70925280D01*
X114117810Y-70925280D02*
X114117810Y-71215280D01*
X114117810Y-71215280D02*
X116117810Y-71215280D01*
X116117810Y-71215280D02*
X116117810Y-70925280D01*
G36*
X116117810Y-70925280D02*
G01*
X114117810Y-70925280D01*
X114117810Y-71215280D01*
X116117810Y-71215280D01*
X116117810Y-70925280D01*
G37*
G36*
X115117810Y-69310280D02*
G01*
X114355810Y-68167280D01*
X115879810Y-68167280D01*
X115117810Y-69310280D01*
G37*
X115117810Y-69310280D02*
X114355810Y-68167280D01*
X115879810Y-68167280D01*
X115117810Y-69310280D01*
X180792810Y-109025280D02*
X180792810Y-105125280D01*
X182792810Y-109025280D02*
X182792810Y-105125280D01*
X182792810Y-109025280D02*
X180792810Y-109025280D01*
X180792810Y-109025280D02*
X180792810Y-109315280D01*
X180792810Y-109315280D02*
X182792810Y-109315280D01*
X182792810Y-109315280D02*
X182792810Y-109025280D01*
G36*
X182792810Y-109025280D02*
G01*
X180792810Y-109025280D01*
X180792810Y-109315280D01*
X182792810Y-109315280D01*
X182792810Y-109025280D01*
G37*
G36*
X181792810Y-107410280D02*
G01*
X181030810Y-106267280D01*
X182554810Y-106267280D01*
X181792810Y-107410280D01*
G37*
X181792810Y-107410280D02*
X181030810Y-106267280D01*
X182554810Y-106267280D01*
X181792810Y-107410280D01*
X68874060Y-109025280D02*
X68874060Y-105125280D01*
X70874060Y-109025280D02*
X70874060Y-105125280D01*
X70874060Y-109025280D02*
X68874060Y-109025280D01*
X68874060Y-109025280D02*
X68874060Y-109315280D01*
X68874060Y-109315280D02*
X70874060Y-109315280D01*
X70874060Y-109315280D02*
X70874060Y-109025280D01*
G36*
X70874060Y-109025280D02*
G01*
X68874060Y-109025280D01*
X68874060Y-109315280D01*
X70874060Y-109315280D01*
X70874060Y-109025280D01*
G37*
G36*
X69874060Y-107410280D02*
G01*
X69112060Y-106267280D01*
X70636060Y-106267280D01*
X69874060Y-107410280D01*
G37*
X69874060Y-107410280D02*
X69112060Y-106267280D01*
X70636060Y-106267280D01*
X69874060Y-107410280D01*
X266517810Y-70925280D02*
X266517810Y-67025280D01*
X268517810Y-70925280D02*
X268517810Y-67025280D01*
X268517810Y-70925280D02*
X266517810Y-70925280D01*
X266517810Y-70925280D02*
X266517810Y-71215280D01*
X266517810Y-71215280D02*
X268517810Y-71215280D01*
X268517810Y-71215280D02*
X268517810Y-70925280D01*
G36*
X268517810Y-70925280D02*
G01*
X266517810Y-70925280D01*
X266517810Y-71215280D01*
X268517810Y-71215280D01*
X268517810Y-70925280D01*
G37*
G36*
X267517810Y-69310280D02*
G01*
X266755810Y-68167280D01*
X268279810Y-68167280D01*
X267517810Y-69310280D01*
G37*
X267517810Y-69310280D02*
X266755810Y-68167280D01*
X268279810Y-68167280D01*
X267517810Y-69310280D01*
X61349060Y-91025280D02*
X61349060Y-87125280D01*
X59349060Y-91025280D02*
X59349060Y-87125280D01*
X61349060Y-91025280D02*
X59349060Y-91025280D01*
X59349060Y-91025280D02*
X59349060Y-91315280D01*
X59349060Y-91315280D02*
X61349060Y-91315280D01*
X61349060Y-91315280D02*
X61349060Y-91025280D01*
G36*
X61349060Y-91025280D02*
G01*
X59349060Y-91025280D01*
X59349060Y-91315280D01*
X61349060Y-91315280D01*
X61349060Y-91025280D01*
G37*
G36*
X60349060Y-89410280D02*
G01*
X59587060Y-88267280D01*
X61111060Y-88267280D01*
X60349060Y-89410280D01*
G37*
X60349060Y-89410280D02*
X59587060Y-88267280D01*
X61111060Y-88267280D01*
X60349060Y-89410280D01*
X76017810Y-51875280D02*
X76017810Y-47975280D01*
X78017810Y-51875280D02*
X78017810Y-47975280D01*
X78017810Y-51875280D02*
X76017810Y-51875280D01*
X76017810Y-51875280D02*
X76017810Y-52165280D01*
X76017810Y-52165280D02*
X78017810Y-52165280D01*
X78017810Y-52165280D02*
X78017810Y-51875280D01*
G36*
X78017810Y-51875280D02*
G01*
X76017810Y-51875280D01*
X76017810Y-52165280D01*
X78017810Y-52165280D01*
X78017810Y-51875280D01*
G37*
G36*
X77017810Y-50260280D02*
G01*
X76255810Y-49117280D01*
X77779810Y-49117280D01*
X77017810Y-50260280D01*
G37*
X77017810Y-50260280D02*
X76255810Y-49117280D01*
X77779810Y-49117280D01*
X77017810Y-50260280D01*
X249467810Y-52925280D02*
X249467810Y-49025280D01*
X247467810Y-52925280D02*
X247467810Y-49025280D01*
X249467810Y-52925280D02*
X247467810Y-52925280D01*
X247467810Y-52925280D02*
X247467810Y-53215280D01*
X247467810Y-53215280D02*
X249467810Y-53215280D01*
X249467810Y-53215280D02*
X249467810Y-52925280D01*
G36*
X249467810Y-52925280D02*
G01*
X247467810Y-52925280D01*
X247467810Y-53215280D01*
X249467810Y-53215280D01*
X249467810Y-52925280D01*
G37*
G36*
X248467810Y-51310280D02*
G01*
X247705810Y-50167280D01*
X249229810Y-50167280D01*
X248467810Y-51310280D01*
G37*
X248467810Y-51310280D02*
X247705810Y-50167280D01*
X249229810Y-50167280D01*
X248467810Y-51310280D01*
X230799060Y-110075280D02*
X230799060Y-106175280D01*
X232799060Y-110075280D02*
X232799060Y-106175280D01*
X232799060Y-110075280D02*
X230799060Y-110075280D01*
X230799060Y-110075280D02*
X230799060Y-110365280D01*
X230799060Y-110365280D02*
X232799060Y-110365280D01*
X232799060Y-110365280D02*
X232799060Y-110075280D01*
G36*
X232799060Y-110075280D02*
G01*
X230799060Y-110075280D01*
X230799060Y-110365280D01*
X232799060Y-110365280D01*
X232799060Y-110075280D01*
G37*
G36*
X231799060Y-108460280D02*
G01*
X231037060Y-107317280D01*
X232561060Y-107317280D01*
X231799060Y-108460280D01*
G37*
X231799060Y-108460280D02*
X231037060Y-107317280D01*
X232561060Y-107317280D01*
X231799060Y-108460280D01*
X58967810Y-71975280D02*
X58967810Y-68075280D01*
X56967810Y-71975280D02*
X56967810Y-68075280D01*
X58967810Y-71975280D02*
X56967810Y-71975280D01*
X56967810Y-71975280D02*
X56967810Y-72265280D01*
X56967810Y-72265280D02*
X58967810Y-72265280D01*
X58967810Y-72265280D02*
X58967810Y-71975280D01*
G36*
X58967810Y-71975280D02*
G01*
X56967810Y-71975280D01*
X56967810Y-72265280D01*
X58967810Y-72265280D01*
X58967810Y-71975280D01*
G37*
G36*
X57967810Y-70360280D02*
G01*
X57205810Y-69217280D01*
X58729810Y-69217280D01*
X57967810Y-70360280D01*
G37*
X57967810Y-70360280D02*
X57205810Y-69217280D01*
X58729810Y-69217280D01*
X57967810Y-70360280D01*
%LPC*%
D17*
X230291695Y-84153685D03*
X240451695Y-84153685D03*
D18*
X235371695Y-84153685D03*
D19*
X231561695Y-81613685D03*
X237911695Y-79073685D03*
D18*
X254421775Y-84153685D03*
D17*
X249341775Y-84153685D03*
X259501775Y-84153685D03*
D19*
X250611775Y-81613685D03*
X256961775Y-79073685D03*
D17*
X49315935Y-65103565D03*
X59475935Y-65103565D03*
D18*
X54395935Y-65103565D03*
D19*
X50585935Y-62563565D03*
X56935935Y-60023565D03*
D17*
X107100935Y-84153645D03*
X96940935Y-84153645D03*
D18*
X102020935Y-84153645D03*
D19*
X98210935Y-81613645D03*
X104560935Y-79073645D03*
D17*
X87415935Y-65103565D03*
X97575935Y-65103565D03*
D18*
X92495935Y-65103565D03*
D19*
X88685935Y-62563565D03*
X95035935Y-60023565D03*
D17*
X278552015Y-103203725D03*
D18*
X273472015Y-103203725D03*
D17*
X268392015Y-103203725D03*
D19*
X269662015Y-100663725D03*
X276012015Y-98123725D03*
D18*
X92495935Y-46053485D03*
D17*
X87415935Y-46053485D03*
X97575935Y-46053485D03*
D19*
X88685935Y-43513485D03*
X95035935Y-40973485D03*
D17*
X116625935Y-65103565D03*
D18*
X111545935Y-65103565D03*
D17*
X106465935Y-65103565D03*
D19*
X107735935Y-62563565D03*
X114085935Y-60023565D03*
D18*
X292522095Y-84153685D03*
D17*
X297602095Y-84153685D03*
X287442095Y-84153685D03*
D19*
X288712095Y-81613685D03*
X295062095Y-79073685D03*
D17*
X230926655Y-46053525D03*
X220766655Y-46053525D03*
D18*
X225846655Y-46053525D03*
D19*
X222036655Y-43513525D03*
X228386655Y-40973525D03*
D18*
X225846655Y-65103605D03*
D17*
X230926655Y-65103605D03*
X220766655Y-65103605D03*
D19*
X222036655Y-62563605D03*
X228386655Y-60023605D03*
D18*
X244896735Y-65103605D03*
D17*
X239816735Y-65103605D03*
X249976735Y-65103605D03*
D19*
X241086735Y-62563605D03*
X247436735Y-60023605D03*
D17*
X20740975Y-84153765D03*
D18*
X25820975Y-84153765D03*
D17*
X30900975Y-84153765D03*
D19*
X22010975Y-81613765D03*
X28360975Y-79073765D03*
D17*
X39790975Y-84153765D03*
D18*
X44870975Y-84153765D03*
D17*
X49950975Y-84153765D03*
D19*
X41060975Y-81613765D03*
X47410975Y-79073765D03*
D17*
X211241615Y-84153645D03*
D18*
X216321615Y-84153645D03*
D17*
X221401615Y-84153645D03*
D19*
X212511615Y-81613645D03*
X218861615Y-79073645D03*
D17*
X202351535Y-84153645D03*
D18*
X197271535Y-84153645D03*
D17*
X192191535Y-84153645D03*
D19*
X193461535Y-81613645D03*
X199811535Y-79073645D03*
D17*
X239816735Y-46053525D03*
D18*
X244896735Y-46053525D03*
D17*
X249976735Y-46053525D03*
D19*
X241086735Y-43513525D03*
X247436735Y-40973525D03*
D18*
X121070935Y-84153645D03*
D17*
X126150935Y-84153645D03*
X115990935Y-84153645D03*
D19*
X117260935Y-81613645D03*
X123610935Y-79073645D03*
D17*
X78525935Y-46053485D03*
X68365935Y-46053485D03*
D18*
X73445935Y-46053485D03*
D19*
X69635935Y-43513485D03*
X75985935Y-40973485D03*
D17*
X77890935Y-84153645D03*
D18*
X82970935Y-84153645D03*
D17*
X88050935Y-84153645D03*
D19*
X79160935Y-81613645D03*
X85510935Y-79073645D03*
D18*
X63920935Y-84153645D03*
D17*
X69000935Y-84153645D03*
X58840935Y-84153645D03*
D19*
X60110935Y-81613645D03*
X66460935Y-79073645D03*
D18*
X25820975Y-103203765D03*
D17*
X30900975Y-103203765D03*
X20740975Y-103203765D03*
D19*
X22010975Y-100663765D03*
X28360975Y-98123765D03*
D18*
X90114995Y-103203765D03*
D17*
X95194995Y-103203765D03*
X85034995Y-103203765D03*
D19*
X86304995Y-100663765D03*
X92654995Y-98123765D03*
D18*
X121071375Y-103203765D03*
D17*
X126151375Y-103203765D03*
D18*
X109165125Y-94948765D03*
D20*
X132977625Y-110188765D03*
X109165125Y-110188765D03*
D17*
X115991375Y-103203765D03*
D18*
X132977625Y-94948765D03*
D19*
X117261375Y-100663765D03*
X123611375Y-98123765D03*
D18*
X197270975Y-103203765D03*
D17*
X202350975Y-103203765D03*
D18*
X209177225Y-94948765D03*
X185364725Y-94948765D03*
D20*
X209177225Y-110188765D03*
X185364725Y-110188765D03*
D17*
X192190975Y-103203765D03*
D19*
X193460975Y-100663765D03*
X199810975Y-98123765D03*
D17*
X223147225Y-103203765D03*
X233307225Y-103203765D03*
D18*
X228227225Y-103203765D03*
D19*
X224417225Y-100663765D03*
X230767225Y-98123765D03*
D18*
X287759415Y-65103605D03*
D17*
X292839415Y-65103605D03*
X282679415Y-65103605D03*
D19*
X283949415Y-62563605D03*
X290299415Y-60023605D03*
D18*
X263945975Y-65103765D03*
D17*
X258865975Y-65103765D03*
X269025975Y-65103765D03*
D19*
X260135975Y-62563765D03*
X266485975Y-60023765D03*
D17*
X154725975Y-103203405D03*
D18*
X149645975Y-103203405D03*
D17*
X144565975Y-103203405D03*
D19*
X145835975Y-100663405D03*
X152185975Y-98123405D03*
D17*
X163615975Y-103203765D03*
D18*
X168695975Y-103203765D03*
D17*
X173775975Y-103203765D03*
D19*
X164885975Y-100663765D03*
X171235975Y-98123765D03*
D17*
X27884755Y-65103605D03*
X38044755Y-65103605D03*
D18*
X32964755Y-65103605D03*
D19*
X29154755Y-62563605D03*
X35504755Y-60023605D03*
D17*
X25503475Y-65103765D03*
D18*
X30583475Y-65103765D03*
D17*
X35663475Y-65103765D03*
D19*
X26773475Y-62563765D03*
X33123475Y-60023765D03*
D17*
X39790975Y-103203765D03*
X49950975Y-103203765D03*
D18*
X44870975Y-103203765D03*
D19*
X41060975Y-100663765D03*
X47410975Y-98123765D03*
D18*
X273472015Y-84153685D03*
D17*
X278552015Y-84153685D03*
X268392015Y-84153685D03*
D19*
X269662015Y-81613685D03*
X276012015Y-79073685D03*
D17*
X68365935Y-65103565D03*
X78525935Y-65103565D03*
D18*
X73445935Y-65103565D03*
D19*
X69635935Y-62563565D03*
X75985935Y-60023565D03*
D17*
X287442095Y-103203765D03*
D18*
X292522095Y-103203765D03*
D17*
X297602095Y-103203765D03*
D19*
X288712095Y-100663765D03*
X295062095Y-98123765D03*
D17*
X71382225Y-103203765D03*
X61222225Y-103203765D03*
D18*
X66302225Y-103203765D03*
D19*
X62492225Y-100663765D03*
X68842225Y-98123765D03*
D17*
X201716575Y-65103565D03*
D18*
X206796575Y-65103565D03*
D17*
X211876575Y-65103565D03*
D19*
X202986575Y-62563565D03*
X209336575Y-60023565D03*
D21*
X298122095Y-103203765D03*
D22*
X292522095Y-103203765D03*
D23*
X292522095Y-107703765D03*
D21*
X286922095Y-103203765D03*
D23*
X292522095Y-98703765D03*
D24*
X295022095Y-95703765D03*
X290022095Y-95703765D03*
X292522095Y-95703765D03*
X295022095Y-110203765D03*
X290022095Y-110203765D03*
D18*
X37727185Y-84153405D03*
D17*
X42807185Y-84153405D03*
X32647185Y-84153405D03*
D19*
X41537185Y-86693405D03*
X35187185Y-89233405D03*
D17*
X246959685Y-103203405D03*
D18*
X252039685Y-103203405D03*
D17*
X257119685Y-103203405D03*
D19*
X248229685Y-100663405D03*
X254579685Y-98123405D03*
D25*
X175639685Y-45672155D03*
X177539685Y-44672155D03*
X177539685Y-42672155D03*
X175639685Y-41672155D03*
D26*
X298474060Y-52006530D03*
D27*
X18677185Y-68675280D03*
D25*
X151645935Y-53397155D03*
X150645935Y-51497155D03*
X148645935Y-51497155D03*
X147645935Y-53397155D03*
D23*
X25820975Y-98703765D03*
D21*
X31420975Y-103203765D03*
X20220975Y-103203765D03*
D23*
X25820975Y-107703765D03*
D22*
X25820975Y-103203765D03*
D24*
X28320975Y-95703765D03*
X23320975Y-95703765D03*
X25820975Y-95703765D03*
X28320975Y-110203765D03*
X23320975Y-110203765D03*
D27*
X299664685Y-68675280D03*
D17*
X135041375Y-103203765D03*
X145201375Y-103203765D03*
D18*
X140121375Y-103203765D03*
D19*
X136311375Y-100663765D03*
X142661375Y-98123765D03*
D25*
X175639685Y-34956530D03*
X177539685Y-33956530D03*
X177539685Y-31956530D03*
X175639685Y-30956530D03*
D17*
X196953435Y-103203405D03*
D18*
X202033435Y-103203405D03*
D17*
X207113435Y-103203405D03*
D19*
X198223435Y-100663405D03*
X204573435Y-98123405D03*
D18*
X178220975Y-103203765D03*
D17*
X183300975Y-103203765D03*
X173140975Y-103203765D03*
D19*
X174410975Y-100663765D03*
X180760975Y-98123765D03*
D26*
X19872407Y-20561655D03*
D21*
X164770975Y-103203405D03*
D23*
X159170975Y-107703405D03*
X159170975Y-98703405D03*
D21*
X153570975Y-103203405D03*
D22*
X159170975Y-103203405D03*
D24*
X161670975Y-95703405D03*
X156670975Y-95703405D03*
X159170975Y-95703405D03*
X161670975Y-110203405D03*
X156670975Y-110203405D03*
D17*
X290457185Y-65103605D03*
X280297185Y-65103605D03*
D18*
X285377185Y-65103605D03*
D19*
X281567185Y-62563605D03*
X287917185Y-60023605D03*
D26*
X159170935Y-20561655D03*
X73445935Y-28194030D03*
X197270935Y-52053405D03*
D28*
X276695935Y-45678365D03*
D29*
X144795935Y-64978365D03*
X207147102Y-103033821D03*
D28*
X276695935Y-45678365D03*
D30*
X279345935Y-44428365D03*
X43095935Y-47028365D03*
X278095935Y-43928365D03*
X40495935Y-46978365D03*
X43745935Y-45678365D03*
X39945935Y-45678365D03*
X275295935Y-47428365D03*
X278095935Y-47428365D03*
X273545935Y-45678365D03*
X274045935Y-44428365D03*
X41845935Y-47578365D03*
D31*
X41845935Y-45678365D03*
D30*
X274045935Y-46928365D03*
X279345935Y-46928365D03*
D32*
X276695935Y-45678365D03*
D30*
X40495935Y-44328365D03*
X43095935Y-44328365D03*
X279845935Y-45678365D03*
X276695935Y-43928365D03*
X41845935Y-43778365D03*
X275295935Y-43928365D03*
X276695935Y-47428365D03*
D25*
X161170935Y-54587780D03*
X160170935Y-52687780D03*
X158170935Y-52687780D03*
X157170935Y-54587780D03*
D17*
X121388435Y-103203405D03*
X111228435Y-103203405D03*
D18*
X116308435Y-103203405D03*
D19*
X112498435Y-100663405D03*
X118848435Y-98123405D03*
D21*
X163095975Y-103203765D03*
D23*
X168695975Y-107703765D03*
D21*
X174295975Y-103203765D03*
D23*
X168695975Y-98703765D03*
D22*
X168695975Y-103203765D03*
D24*
X171195975Y-95703765D03*
X166195975Y-95703765D03*
X168695975Y-95703765D03*
X171195975Y-110203765D03*
X166195975Y-110203765D03*
D17*
X30265975Y-84153765D03*
D20*
X47252225Y-77168765D03*
D18*
X47252225Y-92408765D03*
X35345975Y-84153765D03*
X23439725Y-92408765D03*
D17*
X40425975Y-84153765D03*
D20*
X23439725Y-77168765D03*
D19*
X31535975Y-81613765D03*
X37885975Y-79073765D03*
D25*
X142702185Y-41672155D03*
X140802185Y-42672155D03*
X140802185Y-44672155D03*
X142702185Y-45672155D03*
X170695935Y-53397155D03*
X169695935Y-51497155D03*
X167695935Y-51497155D03*
X166695935Y-53397155D03*
D26*
X134167810Y-74628405D03*
X244895935Y-28194030D03*
X121070935Y-52006530D03*
X19867810Y-52006530D03*
D17*
X164250975Y-103203765D03*
X154090975Y-103203765D03*
D18*
X159170975Y-103203765D03*
D19*
X155360975Y-100663765D03*
X161710975Y-98123765D03*
D21*
X155245975Y-103203405D03*
D23*
X149645975Y-107703405D03*
X149645975Y-98703405D03*
D22*
X149645975Y-103203405D03*
D21*
X144045975Y-103203405D03*
D24*
X152145975Y-95703405D03*
X147145975Y-95703405D03*
X149645975Y-95703405D03*
X152145975Y-110203405D03*
X147145975Y-110203405D03*
D26*
X298474060Y-20561655D03*
X184174060Y-74628405D03*
D33*
X24922935Y-26527155D03*
X26972935Y-26527155D03*
D34*
X288733435Y-49625280D03*
X290033435Y-49625280D03*
X291333435Y-49625280D03*
D35*
X38148935Y-31194405D03*
X36098935Y-31194405D03*
D36*
X58692594Y-43206314D03*
X57243026Y-41756746D03*
D37*
X82970935Y-27003405D03*
D25*
X82970935Y-24463405D03*
D38*
X102020935Y-100822155D03*
X193460935Y-95964405D03*
X263945935Y-100822155D03*
X35345935Y-104394030D03*
X44870935Y-73437780D03*
X282995935Y-88915905D03*
X282995935Y-92487780D03*
D39*
X41659004Y-33094224D03*
X43108572Y-34543792D03*
D40*
X50773413Y-27331023D03*
X48722803Y-29381633D03*
X47096457Y-27755287D03*
X49147067Y-25704677D03*
D39*
X44638276Y-30390246D03*
X46087844Y-31839814D03*
X60021151Y-26151621D03*
X61470719Y-27601189D03*
D41*
X63661992Y-35596723D03*
X65111560Y-34147155D03*
D42*
X55730310Y-52090905D03*
D25*
X55730310Y-49550905D03*
X53190310Y-52090905D03*
X53190310Y-49550905D03*
X50650310Y-52090905D03*
X50650310Y-49550905D03*
D34*
X27283435Y-49625280D03*
X28583435Y-49625280D03*
X29883435Y-49625280D03*
D27*
X111545935Y-22028365D03*
X206795935Y-22028365D03*
D43*
X45167810Y-20431155D03*
X42192810Y-20431155D03*
D27*
X100495935Y-107628365D03*
D35*
X44705310Y-23225155D03*
X42655310Y-23225155D03*
D38*
X216320935Y-100822155D03*
X159170935Y-32956530D03*
D44*
X25197935Y-20241155D03*
D45*
X26897935Y-20241155D03*
X26897935Y-22241155D03*
X24997935Y-22241155D03*
D46*
X40595975Y-63148765D03*
X40595975Y-69448765D03*
X44395975Y-69448765D03*
X44395975Y-63148765D03*
D39*
X44564367Y-35999587D03*
X46013935Y-37449155D03*
D41*
X65609151Y-37538939D03*
X67058719Y-36089371D03*
D36*
X53231594Y-24696064D03*
X51782026Y-23246496D03*
D38*
X282995935Y-100822155D03*
X78208435Y-100822155D03*
X78208435Y-97488405D03*
D27*
X240395935Y-107628365D03*
D38*
X149645935Y-32956530D03*
X149645935Y-29384655D03*
X54395935Y-73428405D03*
D47*
X95070935Y-22248405D03*
X95070935Y-23518405D03*
X95070935Y-24788405D03*
X95070935Y-26058405D03*
X89920935Y-26058405D03*
X89920935Y-24788405D03*
X89920935Y-23518405D03*
X89920935Y-22248405D03*
D48*
X77779935Y-27003405D03*
X79779935Y-27003405D03*
X77779935Y-24590405D03*
X79779935Y-24590405D03*
D49*
X31845935Y-23418365D03*
X32695935Y-23418365D03*
X33545935Y-23418365D03*
X34395935Y-23418365D03*
X35245935Y-23418365D03*
X36095935Y-23418365D03*
X36945935Y-23418365D03*
X37795935Y-23418365D03*
X37795935Y-22068365D03*
X36945935Y-22068365D03*
X36095935Y-22068365D03*
X35245935Y-22068365D03*
X34395935Y-22068365D03*
X33545935Y-22068365D03*
X32695935Y-22068365D03*
X31845935Y-22068365D03*
D50*
X39145935Y-22438365D03*
D51*
X30495935Y-19058365D03*
D50*
X30495935Y-22438365D03*
D51*
X39145935Y-19058365D03*
D39*
X49136367Y-40539837D03*
X50585935Y-41989405D03*
D35*
X38148935Y-28654405D03*
X36098935Y-28654405D03*
D38*
X129414685Y-100822155D03*
X159170935Y-29384655D03*
D42*
X292558435Y-53197155D03*
D25*
X290018435Y-53197155D03*
X287478435Y-53197155D03*
D38*
X78208435Y-106775280D03*
D52*
X54950164Y-38319085D03*
X54596611Y-37965532D03*
X54243057Y-37611978D03*
X53889504Y-37258425D03*
X53535950Y-36904871D03*
X53182397Y-36551318D03*
X52828844Y-36197765D03*
X52475290Y-35844211D03*
X52121737Y-35490658D03*
X51768183Y-35137104D03*
X51414630Y-34783551D03*
D53*
X51414630Y-33510759D03*
X51768183Y-33157206D03*
X52121737Y-32803652D03*
X52475290Y-32450099D03*
X52828844Y-32096545D03*
X53182397Y-31742992D03*
X53535950Y-31389439D03*
X53889504Y-31035885D03*
X54243057Y-30682332D03*
X54596611Y-30328778D03*
X54950164Y-29975225D03*
D52*
X56222956Y-29975225D03*
X56576509Y-30328778D03*
X56930063Y-30682332D03*
X57283616Y-31035885D03*
X57637170Y-31389439D03*
X57990723Y-31742992D03*
X58344276Y-32096545D03*
X58697830Y-32450099D03*
X59051383Y-32803652D03*
X59404937Y-33157206D03*
X59758490Y-33510759D03*
D53*
X59758490Y-34783551D03*
X59404937Y-35137104D03*
X59051383Y-35490658D03*
X58697830Y-35844211D03*
X58344276Y-36197765D03*
X57990723Y-36551318D03*
X57637170Y-36904871D03*
X57283616Y-37258425D03*
X56930063Y-37611978D03*
X56576509Y-37965532D03*
X56222956Y-38319085D03*
D54*
X54676160Y-35967955D03*
X53765760Y-35057555D03*
X56496960Y-32326355D03*
X56496960Y-35967955D03*
X55586560Y-33236755D03*
X55586560Y-36878355D03*
X57407360Y-35057555D03*
X53765760Y-33236755D03*
X55586560Y-35057555D03*
X55586560Y-31415955D03*
X56496960Y-34147155D03*
X58317760Y-34147155D03*
X54676160Y-32326355D03*
X52855360Y-34147155D03*
X57407360Y-33236755D03*
X54676160Y-34147155D03*
D55*
X77017810Y-70325280D03*
X77017810Y-67025280D03*
X296092810Y-108425280D03*
X296092810Y-105125280D03*
X96067810Y-71375280D03*
X96067810Y-68075280D03*
X93686560Y-109475280D03*
X93686560Y-106175280D03*
X131786560Y-107234655D03*
X131786560Y-103934655D03*
X86542810Y-90425280D03*
X86542810Y-87125280D03*
X200842810Y-90425280D03*
X200842810Y-87125280D03*
X124642810Y-109525280D03*
X124642810Y-106225280D03*
X257992810Y-89375280D03*
X257992810Y-86075280D03*
X29392810Y-108425280D03*
X29392810Y-105125280D03*
X229417810Y-70325280D03*
X229417810Y-67025280D03*
X238942810Y-90425280D03*
X238942810Y-87125280D03*
X216320935Y-109471280D03*
X216320935Y-106171280D03*
X219892810Y-89375280D03*
X219892810Y-86075280D03*
X277042810Y-109475280D03*
X277042810Y-106175280D03*
X210367810Y-71375280D03*
X210367810Y-68075280D03*
X248467810Y-71375280D03*
X248467810Y-68075280D03*
X186555310Y-107234655D03*
X186555310Y-103934655D03*
X277042810Y-90425280D03*
X277042810Y-87125280D03*
X50824060Y-70325280D03*
X50824060Y-67025280D03*
X229417810Y-51275280D03*
X229417810Y-47975280D03*
X275852185Y-71375280D03*
X275852185Y-68075280D03*
X96067810Y-52325280D03*
X96067810Y-49025280D03*
X55586560Y-89375280D03*
X55586560Y-86075280D03*
X296092810Y-89375280D03*
X296092810Y-86075280D03*
X48442810Y-109475280D03*
X48442810Y-106175280D03*
X67492810Y-89375280D03*
X67492810Y-86075280D03*
X105592810Y-89375280D03*
X105592810Y-86075280D03*
X124642810Y-90425280D03*
X124642810Y-87125280D03*
X255611560Y-108425280D03*
X255611560Y-105125280D03*
X115117810Y-70325280D03*
X115117810Y-67025280D03*
X181792810Y-108425280D03*
X181792810Y-105125280D03*
X69874060Y-108425280D03*
X69874060Y-105125280D03*
X267517810Y-70325280D03*
X267517810Y-67025280D03*
X60349060Y-90425280D03*
X60349060Y-87125280D03*
X77017810Y-51275280D03*
X77017810Y-47975280D03*
X248467810Y-52325280D03*
X248467810Y-49025280D03*
X231799060Y-109475280D03*
X231799060Y-106175280D03*
X57967810Y-71375280D03*
X57967810Y-68075280D03*
M02*
