G04 #@! TF.GenerationSoftware,KiCad,Pcbnew,7.0.1-0*
G04 #@! TF.CreationDate,2023-04-15T21:11:59+09:00*
G04 #@! TF.ProjectId,Sandy_Base,53616e64-795f-4426-9173-652e6b696361,v.0*
G04 #@! TF.SameCoordinates,Original*
G04 #@! TF.FileFunction,AssemblyDrawing,Bot*
%FSLAX46Y46*%
G04 Gerber Fmt 4.6, Leading zero omitted, Abs format (unit mm)*
G04 Created by KiCad (PCBNEW 7.0.1-0) date 2023-04-15 21:11:59*
%MOMM*%
%LPD*%
G01*
G04 APERTURE LIST*
%ADD10C,0.080000*%
%ADD11C,0.150000*%
%ADD12C,0.105000*%
%ADD13C,0.120000*%
%ADD14C,0.075000*%
%ADD15C,0.100000*%
G04 APERTURE END LIST*
D10*
X30129268Y-27409674D02*
X30295934Y-27171579D01*
X30414982Y-27409674D02*
X30414982Y-26909674D01*
X30414982Y-26909674D02*
X30224506Y-26909674D01*
X30224506Y-26909674D02*
X30176887Y-26933484D01*
X30176887Y-26933484D02*
X30153077Y-26957293D01*
X30153077Y-26957293D02*
X30129268Y-27004912D01*
X30129268Y-27004912D02*
X30129268Y-27076341D01*
X30129268Y-27076341D02*
X30153077Y-27123960D01*
X30153077Y-27123960D02*
X30176887Y-27147769D01*
X30176887Y-27147769D02*
X30224506Y-27171579D01*
X30224506Y-27171579D02*
X30414982Y-27171579D01*
X29938791Y-26957293D02*
X29914982Y-26933484D01*
X29914982Y-26933484D02*
X29867363Y-26909674D01*
X29867363Y-26909674D02*
X29748315Y-26909674D01*
X29748315Y-26909674D02*
X29700696Y-26933484D01*
X29700696Y-26933484D02*
X29676887Y-26957293D01*
X29676887Y-26957293D02*
X29653077Y-27004912D01*
X29653077Y-27004912D02*
X29653077Y-27052531D01*
X29653077Y-27052531D02*
X29676887Y-27123960D01*
X29676887Y-27123960D02*
X29962601Y-27409674D01*
X29962601Y-27409674D02*
X29653077Y-27409674D01*
X39141299Y-27700850D02*
X39427509Y-27650343D01*
X39343330Y-27902881D02*
X39696883Y-27549328D01*
X39696883Y-27549328D02*
X39562196Y-27414641D01*
X39562196Y-27414641D02*
X39511689Y-27397805D01*
X39511689Y-27397805D02*
X39478017Y-27397805D01*
X39478017Y-27397805D02*
X39427509Y-27414641D01*
X39427509Y-27414641D02*
X39377002Y-27465148D01*
X39377002Y-27465148D02*
X39360166Y-27515656D01*
X39360166Y-27515656D02*
X39360166Y-27549328D01*
X39360166Y-27549328D02*
X39377002Y-27599835D01*
X39377002Y-27599835D02*
X39511689Y-27734522D01*
X39377002Y-27229446D02*
X39158135Y-27010580D01*
X39158135Y-27010580D02*
X39141299Y-27263118D01*
X39141299Y-27263118D02*
X39090792Y-27212610D01*
X39090792Y-27212610D02*
X39040284Y-27195774D01*
X39040284Y-27195774D02*
X39006612Y-27195774D01*
X39006612Y-27195774D02*
X38956105Y-27212610D01*
X38956105Y-27212610D02*
X38871925Y-27296789D01*
X38871925Y-27296789D02*
X38855089Y-27347297D01*
X38855089Y-27347297D02*
X38855089Y-27380969D01*
X38855089Y-27380969D02*
X38871925Y-27431476D01*
X38871925Y-27431476D02*
X38972941Y-27532492D01*
X38972941Y-27532492D02*
X39023448Y-27549328D01*
X39023448Y-27549328D02*
X39057120Y-27549328D01*
X57896846Y-42670344D02*
X57896846Y-42704015D01*
X57896846Y-42704015D02*
X57930518Y-42771359D01*
X57930518Y-42771359D02*
X57964190Y-42805031D01*
X57964190Y-42805031D02*
X58031533Y-42838702D01*
X58031533Y-42838702D02*
X58098877Y-42838702D01*
X58098877Y-42838702D02*
X58149384Y-42821867D01*
X58149384Y-42821867D02*
X58233564Y-42771359D01*
X58233564Y-42771359D02*
X58284071Y-42720851D01*
X58284071Y-42720851D02*
X58334579Y-42636672D01*
X58334579Y-42636672D02*
X58351415Y-42586164D01*
X58351415Y-42586164D02*
X58351415Y-42518821D01*
X58351415Y-42518821D02*
X58317743Y-42451477D01*
X58317743Y-42451477D02*
X58284071Y-42417806D01*
X58284071Y-42417806D02*
X58216728Y-42384134D01*
X58216728Y-42384134D02*
X58183056Y-42384134D01*
X57896846Y-42030580D02*
X58065205Y-42198939D01*
X58065205Y-42198939D02*
X57913682Y-42384134D01*
X57913682Y-42384134D02*
X57913682Y-42350462D01*
X57913682Y-42350462D02*
X57896846Y-42299954D01*
X57896846Y-42299954D02*
X57812667Y-42215775D01*
X57812667Y-42215775D02*
X57762159Y-42198939D01*
X57762159Y-42198939D02*
X57728487Y-42198939D01*
X57728487Y-42198939D02*
X57677980Y-42215775D01*
X57677980Y-42215775D02*
X57593800Y-42299954D01*
X57593800Y-42299954D02*
X57576964Y-42350462D01*
X57576964Y-42350462D02*
X57576964Y-42384134D01*
X57576964Y-42384134D02*
X57593800Y-42434641D01*
X57593800Y-42434641D02*
X57677980Y-42518821D01*
X57677980Y-42518821D02*
X57728487Y-42535657D01*
X57728487Y-42535657D02*
X57762159Y-42535657D01*
D11*
X83462619Y-25396666D02*
X84176904Y-25396666D01*
X84176904Y-25396666D02*
X84319761Y-25349047D01*
X84319761Y-25349047D02*
X84415000Y-25253809D01*
X84415000Y-25253809D02*
X84462619Y-25110952D01*
X84462619Y-25110952D02*
X84462619Y-25015714D01*
X84462619Y-25920476D02*
X84462619Y-26110952D01*
X84462619Y-26110952D02*
X84415000Y-26206190D01*
X84415000Y-26206190D02*
X84367380Y-26253809D01*
X84367380Y-26253809D02*
X84224523Y-26349047D01*
X84224523Y-26349047D02*
X84034047Y-26396666D01*
X84034047Y-26396666D02*
X83653095Y-26396666D01*
X83653095Y-26396666D02*
X83557857Y-26349047D01*
X83557857Y-26349047D02*
X83510238Y-26301428D01*
X83510238Y-26301428D02*
X83462619Y-26206190D01*
X83462619Y-26206190D02*
X83462619Y-26015714D01*
X83462619Y-26015714D02*
X83510238Y-25920476D01*
X83510238Y-25920476D02*
X83557857Y-25872857D01*
X83557857Y-25872857D02*
X83653095Y-25825238D01*
X83653095Y-25825238D02*
X83891190Y-25825238D01*
X83891190Y-25825238D02*
X83986428Y-25872857D01*
X83986428Y-25872857D02*
X84034047Y-25920476D01*
X84034047Y-25920476D02*
X84081666Y-26015714D01*
X84081666Y-26015714D02*
X84081666Y-26206190D01*
X84081666Y-26206190D02*
X84034047Y-26301428D01*
X84034047Y-26301428D02*
X83986428Y-26349047D01*
X83986428Y-26349047D02*
X83891190Y-26396666D01*
X106830756Y-98760964D02*
X106497423Y-98760964D01*
X106354566Y-99284774D02*
X106830756Y-99284774D01*
X106830756Y-99284774D02*
X106830756Y-98284774D01*
X106830756Y-98284774D02*
X106354566Y-98284774D01*
X106021232Y-98284774D02*
X105354566Y-99284774D01*
X105354566Y-98284774D02*
X106021232Y-99284774D01*
X105116470Y-98284774D02*
X104545042Y-98284774D01*
X104830756Y-99284774D02*
X104830756Y-98284774D01*
X104449804Y-99380012D02*
X103687899Y-99380012D01*
X102878375Y-99189535D02*
X102925994Y-99237155D01*
X102925994Y-99237155D02*
X103068851Y-99284774D01*
X103068851Y-99284774D02*
X103164089Y-99284774D01*
X103164089Y-99284774D02*
X103306946Y-99237155D01*
X103306946Y-99237155D02*
X103402184Y-99141916D01*
X103402184Y-99141916D02*
X103449803Y-99046678D01*
X103449803Y-99046678D02*
X103497422Y-98856202D01*
X103497422Y-98856202D02*
X103497422Y-98713345D01*
X103497422Y-98713345D02*
X103449803Y-98522869D01*
X103449803Y-98522869D02*
X103402184Y-98427631D01*
X103402184Y-98427631D02*
X103306946Y-98332393D01*
X103306946Y-98332393D02*
X103164089Y-98284774D01*
X103164089Y-98284774D02*
X103068851Y-98284774D01*
X103068851Y-98284774D02*
X102925994Y-98332393D01*
X102925994Y-98332393D02*
X102878375Y-98380012D01*
X102497422Y-98380012D02*
X102449803Y-98332393D01*
X102449803Y-98332393D02*
X102354565Y-98284774D01*
X102354565Y-98284774D02*
X102116470Y-98284774D01*
X102116470Y-98284774D02*
X102021232Y-98332393D01*
X102021232Y-98332393D02*
X101973613Y-98380012D01*
X101973613Y-98380012D02*
X101925994Y-98475250D01*
X101925994Y-98475250D02*
X101925994Y-98570488D01*
X101925994Y-98570488D02*
X101973613Y-98713345D01*
X101973613Y-98713345D02*
X102545041Y-99284774D01*
X102545041Y-99284774D02*
X101925994Y-99284774D01*
X202080756Y-73757839D02*
X201747423Y-73757839D01*
X201604566Y-74281649D02*
X202080756Y-74281649D01*
X202080756Y-74281649D02*
X202080756Y-73281649D01*
X202080756Y-73281649D02*
X201604566Y-73281649D01*
X201271232Y-73281649D02*
X200604566Y-74281649D01*
X200604566Y-73281649D02*
X201271232Y-74281649D01*
X200366470Y-73281649D02*
X199795042Y-73281649D01*
X200080756Y-74281649D02*
X200080756Y-73281649D01*
X199699804Y-74376887D02*
X198937899Y-74376887D01*
X198128375Y-74186410D02*
X198175994Y-74234030D01*
X198175994Y-74234030D02*
X198318851Y-74281649D01*
X198318851Y-74281649D02*
X198414089Y-74281649D01*
X198414089Y-74281649D02*
X198556946Y-74234030D01*
X198556946Y-74234030D02*
X198652184Y-74138791D01*
X198652184Y-74138791D02*
X198699803Y-74043553D01*
X198699803Y-74043553D02*
X198747422Y-73853077D01*
X198747422Y-73853077D02*
X198747422Y-73710220D01*
X198747422Y-73710220D02*
X198699803Y-73519744D01*
X198699803Y-73519744D02*
X198652184Y-73424506D01*
X198652184Y-73424506D02*
X198556946Y-73329268D01*
X198556946Y-73329268D02*
X198414089Y-73281649D01*
X198414089Y-73281649D02*
X198318851Y-73281649D01*
X198318851Y-73281649D02*
X198175994Y-73329268D01*
X198175994Y-73329268D02*
X198128375Y-73376887D01*
X197271232Y-73614982D02*
X197271232Y-74281649D01*
X197509327Y-73234030D02*
X197747422Y-73948315D01*
X197747422Y-73948315D02*
X197128375Y-73948315D01*
X263993256Y-101142214D02*
X263659923Y-101142214D01*
X263517066Y-101666024D02*
X263993256Y-101666024D01*
X263993256Y-101666024D02*
X263993256Y-100666024D01*
X263993256Y-100666024D02*
X263517066Y-100666024D01*
X263183732Y-100666024D02*
X262517066Y-101666024D01*
X262517066Y-100666024D02*
X263183732Y-101666024D01*
X262278970Y-100666024D02*
X261707542Y-100666024D01*
X261993256Y-101666024D02*
X261993256Y-100666024D01*
X261612304Y-101761262D02*
X260850399Y-101761262D01*
X260040875Y-101570785D02*
X260088494Y-101618405D01*
X260088494Y-101618405D02*
X260231351Y-101666024D01*
X260231351Y-101666024D02*
X260326589Y-101666024D01*
X260326589Y-101666024D02*
X260469446Y-101618405D01*
X260469446Y-101618405D02*
X260564684Y-101523166D01*
X260564684Y-101523166D02*
X260612303Y-101427928D01*
X260612303Y-101427928D02*
X260659922Y-101237452D01*
X260659922Y-101237452D02*
X260659922Y-101094595D01*
X260659922Y-101094595D02*
X260612303Y-100904119D01*
X260612303Y-100904119D02*
X260564684Y-100808881D01*
X260564684Y-100808881D02*
X260469446Y-100713643D01*
X260469446Y-100713643D02*
X260326589Y-100666024D01*
X260326589Y-100666024D02*
X260231351Y-100666024D01*
X260231351Y-100666024D02*
X260088494Y-100713643D01*
X260088494Y-100713643D02*
X260040875Y-100761262D01*
X259183732Y-100666024D02*
X259374208Y-100666024D01*
X259374208Y-100666024D02*
X259469446Y-100713643D01*
X259469446Y-100713643D02*
X259517065Y-100761262D01*
X259517065Y-100761262D02*
X259612303Y-100904119D01*
X259612303Y-100904119D02*
X259659922Y-101094595D01*
X259659922Y-101094595D02*
X259659922Y-101475547D01*
X259659922Y-101475547D02*
X259612303Y-101570785D01*
X259612303Y-101570785D02*
X259564684Y-101618405D01*
X259564684Y-101618405D02*
X259469446Y-101666024D01*
X259469446Y-101666024D02*
X259278970Y-101666024D01*
X259278970Y-101666024D02*
X259183732Y-101618405D01*
X259183732Y-101618405D02*
X259136113Y-101570785D01*
X259136113Y-101570785D02*
X259088494Y-101475547D01*
X259088494Y-101475547D02*
X259088494Y-101237452D01*
X259088494Y-101237452D02*
X259136113Y-101142214D01*
X259136113Y-101142214D02*
X259183732Y-101094595D01*
X259183732Y-101094595D02*
X259278970Y-101046976D01*
X259278970Y-101046976D02*
X259469446Y-101046976D01*
X259469446Y-101046976D02*
X259564684Y-101094595D01*
X259564684Y-101094595D02*
X259612303Y-101142214D01*
X259612303Y-101142214D02*
X259659922Y-101237452D01*
X40155755Y-107017214D02*
X39822422Y-107017214D01*
X39679565Y-107541024D02*
X40155755Y-107541024D01*
X40155755Y-107541024D02*
X40155755Y-106541024D01*
X40155755Y-106541024D02*
X39679565Y-106541024D01*
X39346231Y-106541024D02*
X38679565Y-107541024D01*
X38679565Y-106541024D02*
X39346231Y-107541024D01*
X38441469Y-106541024D02*
X37870041Y-106541024D01*
X38155755Y-107541024D02*
X38155755Y-106541024D01*
X37774803Y-107636262D02*
X37012898Y-107636262D01*
X36203374Y-107445785D02*
X36250993Y-107493405D01*
X36250993Y-107493405D02*
X36393850Y-107541024D01*
X36393850Y-107541024D02*
X36489088Y-107541024D01*
X36489088Y-107541024D02*
X36631945Y-107493405D01*
X36631945Y-107493405D02*
X36727183Y-107398166D01*
X36727183Y-107398166D02*
X36774802Y-107302928D01*
X36774802Y-107302928D02*
X36822421Y-107112452D01*
X36822421Y-107112452D02*
X36822421Y-106969595D01*
X36822421Y-106969595D02*
X36774802Y-106779119D01*
X36774802Y-106779119D02*
X36727183Y-106683881D01*
X36727183Y-106683881D02*
X36631945Y-106588643D01*
X36631945Y-106588643D02*
X36489088Y-106541024D01*
X36489088Y-106541024D02*
X36393850Y-106541024D01*
X36393850Y-106541024D02*
X36250993Y-106588643D01*
X36250993Y-106588643D02*
X36203374Y-106636262D01*
X35584326Y-106541024D02*
X35489088Y-106541024D01*
X35489088Y-106541024D02*
X35393850Y-106588643D01*
X35393850Y-106588643D02*
X35346231Y-106636262D01*
X35346231Y-106636262D02*
X35298612Y-106731500D01*
X35298612Y-106731500D02*
X35250993Y-106921976D01*
X35250993Y-106921976D02*
X35250993Y-107160071D01*
X35250993Y-107160071D02*
X35298612Y-107350547D01*
X35298612Y-107350547D02*
X35346231Y-107445785D01*
X35346231Y-107445785D02*
X35393850Y-107493405D01*
X35393850Y-107493405D02*
X35489088Y-107541024D01*
X35489088Y-107541024D02*
X35584326Y-107541024D01*
X35584326Y-107541024D02*
X35679564Y-107493405D01*
X35679564Y-107493405D02*
X35727183Y-107445785D01*
X35727183Y-107445785D02*
X35774802Y-107350547D01*
X35774802Y-107350547D02*
X35822421Y-107160071D01*
X35822421Y-107160071D02*
X35822421Y-106921976D01*
X35822421Y-106921976D02*
X35774802Y-106731500D01*
X35774802Y-106731500D02*
X35727183Y-106636262D01*
X35727183Y-106636262D02*
X35679564Y-106588643D01*
X35679564Y-106588643D02*
X35584326Y-106541024D01*
X51028571Y-71338809D02*
X50695238Y-71338809D01*
X50552381Y-71862619D02*
X51028571Y-71862619D01*
X51028571Y-71862619D02*
X51028571Y-70862619D01*
X51028571Y-70862619D02*
X50552381Y-70862619D01*
X50219047Y-70862619D02*
X49552381Y-71862619D01*
X49552381Y-70862619D02*
X50219047Y-71862619D01*
X49314285Y-70862619D02*
X48742857Y-70862619D01*
X49028571Y-71862619D02*
X49028571Y-70862619D01*
X48647619Y-71957857D02*
X47885714Y-71957857D01*
X47076190Y-71862619D02*
X47409523Y-71386428D01*
X47647618Y-71862619D02*
X47647618Y-70862619D01*
X47647618Y-70862619D02*
X47266666Y-70862619D01*
X47266666Y-70862619D02*
X47171428Y-70910238D01*
X47171428Y-70910238D02*
X47123809Y-70957857D01*
X47123809Y-70957857D02*
X47076190Y-71053095D01*
X47076190Y-71053095D02*
X47076190Y-71195952D01*
X47076190Y-71195952D02*
X47123809Y-71291190D01*
X47123809Y-71291190D02*
X47171428Y-71338809D01*
X47171428Y-71338809D02*
X47266666Y-71386428D01*
X47266666Y-71386428D02*
X47647618Y-71386428D01*
X46695237Y-70957857D02*
X46647618Y-70910238D01*
X46647618Y-70910238D02*
X46552380Y-70862619D01*
X46552380Y-70862619D02*
X46314285Y-70862619D01*
X46314285Y-70862619D02*
X46219047Y-70910238D01*
X46219047Y-70910238D02*
X46171428Y-70957857D01*
X46171428Y-70957857D02*
X46123809Y-71053095D01*
X46123809Y-71053095D02*
X46123809Y-71148333D01*
X46123809Y-71148333D02*
X46171428Y-71291190D01*
X46171428Y-71291190D02*
X46742856Y-71862619D01*
X46742856Y-71862619D02*
X46123809Y-71862619D01*
X294024505Y-91317214D02*
X293691172Y-91317214D01*
X293548315Y-91841024D02*
X294024505Y-91841024D01*
X294024505Y-91841024D02*
X294024505Y-90841024D01*
X294024505Y-90841024D02*
X293548315Y-90841024D01*
X293214981Y-90841024D02*
X292548315Y-91841024D01*
X292548315Y-90841024D02*
X293214981Y-91841024D01*
X292310219Y-90841024D02*
X291738791Y-90841024D01*
X292024505Y-91841024D02*
X292024505Y-90841024D01*
X291643553Y-91936262D02*
X290881648Y-91936262D01*
X290072124Y-91841024D02*
X290405457Y-91364833D01*
X290643552Y-91841024D02*
X290643552Y-90841024D01*
X290643552Y-90841024D02*
X290262600Y-90841024D01*
X290262600Y-90841024D02*
X290167362Y-90888643D01*
X290167362Y-90888643D02*
X290119743Y-90936262D01*
X290119743Y-90936262D02*
X290072124Y-91031500D01*
X290072124Y-91031500D02*
X290072124Y-91174357D01*
X290072124Y-91174357D02*
X290119743Y-91269595D01*
X290119743Y-91269595D02*
X290167362Y-91317214D01*
X290167362Y-91317214D02*
X290262600Y-91364833D01*
X290262600Y-91364833D02*
X290643552Y-91364833D01*
X289738790Y-90841024D02*
X289119743Y-90841024D01*
X289119743Y-90841024D02*
X289453076Y-91221976D01*
X289453076Y-91221976D02*
X289310219Y-91221976D01*
X289310219Y-91221976D02*
X289214981Y-91269595D01*
X289214981Y-91269595D02*
X289167362Y-91317214D01*
X289167362Y-91317214D02*
X289119743Y-91412452D01*
X289119743Y-91412452D02*
X289119743Y-91650547D01*
X289119743Y-91650547D02*
X289167362Y-91745785D01*
X289167362Y-91745785D02*
X289214981Y-91793405D01*
X289214981Y-91793405D02*
X289310219Y-91841024D01*
X289310219Y-91841024D02*
X289595933Y-91841024D01*
X289595933Y-91841024D02*
X289691171Y-91793405D01*
X289691171Y-91793405D02*
X289738790Y-91745785D01*
X290924505Y-89517214D02*
X290591172Y-89517214D01*
X290448315Y-90041024D02*
X290924505Y-90041024D01*
X290924505Y-90041024D02*
X290924505Y-89041024D01*
X290924505Y-89041024D02*
X290448315Y-89041024D01*
X290114981Y-89041024D02*
X289448315Y-90041024D01*
X289448315Y-89041024D02*
X290114981Y-90041024D01*
X289210219Y-89041024D02*
X288638791Y-89041024D01*
X288924505Y-90041024D02*
X288924505Y-89041024D01*
X288543553Y-90136262D02*
X287781648Y-90136262D01*
X286972124Y-90041024D02*
X287305457Y-89564833D01*
X287543552Y-90041024D02*
X287543552Y-89041024D01*
X287543552Y-89041024D02*
X287162600Y-89041024D01*
X287162600Y-89041024D02*
X287067362Y-89088643D01*
X287067362Y-89088643D02*
X287019743Y-89136262D01*
X287019743Y-89136262D02*
X286972124Y-89231500D01*
X286972124Y-89231500D02*
X286972124Y-89374357D01*
X286972124Y-89374357D02*
X287019743Y-89469595D01*
X287019743Y-89469595D02*
X287067362Y-89517214D01*
X287067362Y-89517214D02*
X287162600Y-89564833D01*
X287162600Y-89564833D02*
X287543552Y-89564833D01*
X286400695Y-89469595D02*
X286495933Y-89421976D01*
X286495933Y-89421976D02*
X286543552Y-89374357D01*
X286543552Y-89374357D02*
X286591171Y-89279119D01*
X286591171Y-89279119D02*
X286591171Y-89231500D01*
X286591171Y-89231500D02*
X286543552Y-89136262D01*
X286543552Y-89136262D02*
X286495933Y-89088643D01*
X286495933Y-89088643D02*
X286400695Y-89041024D01*
X286400695Y-89041024D02*
X286210219Y-89041024D01*
X286210219Y-89041024D02*
X286114981Y-89088643D01*
X286114981Y-89088643D02*
X286067362Y-89136262D01*
X286067362Y-89136262D02*
X286019743Y-89231500D01*
X286019743Y-89231500D02*
X286019743Y-89279119D01*
X286019743Y-89279119D02*
X286067362Y-89374357D01*
X286067362Y-89374357D02*
X286114981Y-89421976D01*
X286114981Y-89421976D02*
X286210219Y-89469595D01*
X286210219Y-89469595D02*
X286400695Y-89469595D01*
X286400695Y-89469595D02*
X286495933Y-89517214D01*
X286495933Y-89517214D02*
X286543552Y-89564833D01*
X286543552Y-89564833D02*
X286591171Y-89660071D01*
X286591171Y-89660071D02*
X286591171Y-89850547D01*
X286591171Y-89850547D02*
X286543552Y-89945785D01*
X286543552Y-89945785D02*
X286495933Y-89993405D01*
X286495933Y-89993405D02*
X286400695Y-90041024D01*
X286400695Y-90041024D02*
X286210219Y-90041024D01*
X286210219Y-90041024D02*
X286114981Y-89993405D01*
X286114981Y-89993405D02*
X286067362Y-89945785D01*
X286067362Y-89945785D02*
X286019743Y-89850547D01*
X286019743Y-89850547D02*
X286019743Y-89660071D01*
X286019743Y-89660071D02*
X286067362Y-89564833D01*
X286067362Y-89564833D02*
X286114981Y-89517214D01*
X286114981Y-89517214D02*
X286210219Y-89469595D01*
D10*
X42312824Y-34007822D02*
X42312824Y-34041493D01*
X42312824Y-34041493D02*
X42346496Y-34108837D01*
X42346496Y-34108837D02*
X42380168Y-34142509D01*
X42380168Y-34142509D02*
X42447511Y-34176180D01*
X42447511Y-34176180D02*
X42514855Y-34176180D01*
X42514855Y-34176180D02*
X42565362Y-34159345D01*
X42565362Y-34159345D02*
X42649542Y-34108837D01*
X42649542Y-34108837D02*
X42700049Y-34058329D01*
X42700049Y-34058329D02*
X42750557Y-33974150D01*
X42750557Y-33974150D02*
X42767393Y-33923642D01*
X42767393Y-33923642D02*
X42767393Y-33856299D01*
X42767393Y-33856299D02*
X42733721Y-33788955D01*
X42733721Y-33788955D02*
X42700049Y-33755284D01*
X42700049Y-33755284D02*
X42632706Y-33721612D01*
X42632706Y-33721612D02*
X42599034Y-33721612D01*
X41942435Y-33704776D02*
X42144465Y-33906806D01*
X42043450Y-33805791D02*
X42397003Y-33452238D01*
X42397003Y-33452238D02*
X42380168Y-33536417D01*
X42380168Y-33536417D02*
X42380168Y-33603761D01*
X42380168Y-33603761D02*
X42397003Y-33654268D01*
D12*
X49163919Y-27300735D02*
X49399621Y-27536437D01*
X49069638Y-26876471D02*
X49163919Y-27300735D01*
X49163919Y-27300735D02*
X48739655Y-27206454D01*
X48810366Y-28125693D02*
X49093208Y-27842850D01*
X48951787Y-27984272D02*
X48456812Y-27489297D01*
X48456812Y-27489297D02*
X48574663Y-27512867D01*
X48574663Y-27512867D02*
X48668944Y-27512867D01*
X48668944Y-27512867D02*
X48739655Y-27489297D01*
D10*
X45292096Y-31303844D02*
X45292096Y-31337515D01*
X45292096Y-31337515D02*
X45325768Y-31404859D01*
X45325768Y-31404859D02*
X45359440Y-31438531D01*
X45359440Y-31438531D02*
X45426783Y-31472202D01*
X45426783Y-31472202D02*
X45494127Y-31472202D01*
X45494127Y-31472202D02*
X45544634Y-31455367D01*
X45544634Y-31455367D02*
X45628814Y-31404859D01*
X45628814Y-31404859D02*
X45679321Y-31354351D01*
X45679321Y-31354351D02*
X45729829Y-31270172D01*
X45729829Y-31270172D02*
X45746665Y-31219664D01*
X45746665Y-31219664D02*
X45746665Y-31152321D01*
X45746665Y-31152321D02*
X45712993Y-31084977D01*
X45712993Y-31084977D02*
X45679321Y-31051306D01*
X45679321Y-31051306D02*
X45611978Y-31017634D01*
X45611978Y-31017634D02*
X45578306Y-31017634D01*
X45494127Y-30866111D02*
X45275260Y-30647245D01*
X45275260Y-30647245D02*
X45258424Y-30899783D01*
X45258424Y-30899783D02*
X45207917Y-30849275D01*
X45207917Y-30849275D02*
X45157409Y-30832439D01*
X45157409Y-30832439D02*
X45123737Y-30832439D01*
X45123737Y-30832439D02*
X45073230Y-30849275D01*
X45073230Y-30849275D02*
X44989050Y-30933454D01*
X44989050Y-30933454D02*
X44972214Y-30983962D01*
X44972214Y-30983962D02*
X44972214Y-31017634D01*
X44972214Y-31017634D02*
X44989050Y-31068141D01*
X44989050Y-31068141D02*
X45090066Y-31169157D01*
X45090066Y-31169157D02*
X45140573Y-31185993D01*
X45140573Y-31185993D02*
X45174245Y-31185993D01*
X61679268Y-27462095D02*
X61703077Y-27485905D01*
X61703077Y-27485905D02*
X61774506Y-27509714D01*
X61774506Y-27509714D02*
X61822125Y-27509714D01*
X61822125Y-27509714D02*
X61893553Y-27485905D01*
X61893553Y-27485905D02*
X61941172Y-27438285D01*
X61941172Y-27438285D02*
X61964982Y-27390666D01*
X61964982Y-27390666D02*
X61988791Y-27295428D01*
X61988791Y-27295428D02*
X61988791Y-27224000D01*
X61988791Y-27224000D02*
X61964982Y-27128762D01*
X61964982Y-27128762D02*
X61941172Y-27081143D01*
X61941172Y-27081143D02*
X61893553Y-27033524D01*
X61893553Y-27033524D02*
X61822125Y-27009714D01*
X61822125Y-27009714D02*
X61774506Y-27009714D01*
X61774506Y-27009714D02*
X61703077Y-27033524D01*
X61703077Y-27033524D02*
X61679268Y-27057333D01*
X61512601Y-27009714D02*
X61179268Y-27009714D01*
X61179268Y-27009714D02*
X61393553Y-27509714D01*
X64575590Y-34942902D02*
X64609261Y-34942902D01*
X64609261Y-34942902D02*
X64676605Y-34909230D01*
X64676605Y-34909230D02*
X64710277Y-34875558D01*
X64710277Y-34875558D02*
X64743948Y-34808215D01*
X64743948Y-34808215D02*
X64743948Y-34740871D01*
X64743948Y-34740871D02*
X64727113Y-34690364D01*
X64727113Y-34690364D02*
X64676605Y-34606184D01*
X64676605Y-34606184D02*
X64626097Y-34555677D01*
X64626097Y-34555677D02*
X64541918Y-34505169D01*
X64541918Y-34505169D02*
X64491410Y-34488333D01*
X64491410Y-34488333D02*
X64424067Y-34488333D01*
X64424067Y-34488333D02*
X64356723Y-34522005D01*
X64356723Y-34522005D02*
X64323052Y-34555677D01*
X64323052Y-34555677D02*
X64289380Y-34623020D01*
X64289380Y-34623020D02*
X64289380Y-34656692D01*
X64070513Y-35043917D02*
X64306216Y-35279619D01*
X64020006Y-34825051D02*
X64356723Y-34993410D01*
X64356723Y-34993410D02*
X64137857Y-35212276D01*
D11*
X53523643Y-50283524D02*
X53523643Y-50997809D01*
X53523643Y-50997809D02*
X53571262Y-51140666D01*
X53571262Y-51140666D02*
X53666500Y-51235905D01*
X53666500Y-51235905D02*
X53809357Y-51283524D01*
X53809357Y-51283524D02*
X53904595Y-51283524D01*
X52904595Y-50712095D02*
X52999833Y-50664476D01*
X52999833Y-50664476D02*
X53047452Y-50616857D01*
X53047452Y-50616857D02*
X53095071Y-50521619D01*
X53095071Y-50521619D02*
X53095071Y-50474000D01*
X53095071Y-50474000D02*
X53047452Y-50378762D01*
X53047452Y-50378762D02*
X52999833Y-50331143D01*
X52999833Y-50331143D02*
X52904595Y-50283524D01*
X52904595Y-50283524D02*
X52714119Y-50283524D01*
X52714119Y-50283524D02*
X52618881Y-50331143D01*
X52618881Y-50331143D02*
X52571262Y-50378762D01*
X52571262Y-50378762D02*
X52523643Y-50474000D01*
X52523643Y-50474000D02*
X52523643Y-50521619D01*
X52523643Y-50521619D02*
X52571262Y-50616857D01*
X52571262Y-50616857D02*
X52618881Y-50664476D01*
X52618881Y-50664476D02*
X52714119Y-50712095D01*
X52714119Y-50712095D02*
X52904595Y-50712095D01*
X52904595Y-50712095D02*
X52999833Y-50759714D01*
X52999833Y-50759714D02*
X53047452Y-50807333D01*
X53047452Y-50807333D02*
X53095071Y-50902571D01*
X53095071Y-50902571D02*
X53095071Y-51093047D01*
X53095071Y-51093047D02*
X53047452Y-51188285D01*
X53047452Y-51188285D02*
X52999833Y-51235905D01*
X52999833Y-51235905D02*
X52904595Y-51283524D01*
X52904595Y-51283524D02*
X52714119Y-51283524D01*
X52714119Y-51283524D02*
X52618881Y-51235905D01*
X52618881Y-51235905D02*
X52571262Y-51188285D01*
X52571262Y-51188285D02*
X52523643Y-51093047D01*
X52523643Y-51093047D02*
X52523643Y-50902571D01*
X52523643Y-50902571D02*
X52571262Y-50807333D01*
X52571262Y-50807333D02*
X52618881Y-50759714D01*
X52618881Y-50759714D02*
X52714119Y-50712095D01*
D13*
X43946976Y-20382202D02*
X44213642Y-20382202D01*
X44213642Y-20801250D02*
X44213642Y-20001250D01*
X44213642Y-20001250D02*
X43832690Y-20001250D01*
X43108881Y-20801250D02*
X43566024Y-20801250D01*
X43337452Y-20801250D02*
X43337452Y-20001250D01*
X43337452Y-20001250D02*
X43413643Y-20115535D01*
X43413643Y-20115535D02*
X43489833Y-20191726D01*
X43489833Y-20191726D02*
X43566024Y-20229821D01*
D10*
X43763643Y-23456464D02*
X43930309Y-23218369D01*
X44049357Y-23456464D02*
X44049357Y-22956464D01*
X44049357Y-22956464D02*
X43858881Y-22956464D01*
X43858881Y-22956464D02*
X43811262Y-22980274D01*
X43811262Y-22980274D02*
X43787452Y-23004083D01*
X43787452Y-23004083D02*
X43763643Y-23051702D01*
X43763643Y-23051702D02*
X43763643Y-23123131D01*
X43763643Y-23123131D02*
X43787452Y-23170750D01*
X43787452Y-23170750D02*
X43811262Y-23194559D01*
X43811262Y-23194559D02*
X43858881Y-23218369D01*
X43858881Y-23218369D02*
X44049357Y-23218369D01*
X43287452Y-23456464D02*
X43573166Y-23456464D01*
X43430309Y-23456464D02*
X43430309Y-22956464D01*
X43430309Y-22956464D02*
X43477928Y-23027893D01*
X43477928Y-23027893D02*
X43525547Y-23075512D01*
X43525547Y-23075512D02*
X43573166Y-23099321D01*
D11*
X218728571Y-98638809D02*
X218395238Y-98638809D01*
X218252381Y-99162619D02*
X218728571Y-99162619D01*
X218728571Y-99162619D02*
X218728571Y-98162619D01*
X218728571Y-98162619D02*
X218252381Y-98162619D01*
X217919047Y-98162619D02*
X217252381Y-99162619D01*
X217252381Y-98162619D02*
X217919047Y-99162619D01*
X217014285Y-98162619D02*
X216442857Y-98162619D01*
X216728571Y-99162619D02*
X216728571Y-98162619D01*
X216347619Y-99257857D02*
X215585714Y-99257857D01*
X214776190Y-99067380D02*
X214823809Y-99115000D01*
X214823809Y-99115000D02*
X214966666Y-99162619D01*
X214966666Y-99162619D02*
X215061904Y-99162619D01*
X215061904Y-99162619D02*
X215204761Y-99115000D01*
X215204761Y-99115000D02*
X215299999Y-99019761D01*
X215299999Y-99019761D02*
X215347618Y-98924523D01*
X215347618Y-98924523D02*
X215395237Y-98734047D01*
X215395237Y-98734047D02*
X215395237Y-98591190D01*
X215395237Y-98591190D02*
X215347618Y-98400714D01*
X215347618Y-98400714D02*
X215299999Y-98305476D01*
X215299999Y-98305476D02*
X215204761Y-98210238D01*
X215204761Y-98210238D02*
X215061904Y-98162619D01*
X215061904Y-98162619D02*
X214966666Y-98162619D01*
X214966666Y-98162619D02*
X214823809Y-98210238D01*
X214823809Y-98210238D02*
X214776190Y-98257857D01*
X213871428Y-98162619D02*
X214347618Y-98162619D01*
X214347618Y-98162619D02*
X214395237Y-98638809D01*
X214395237Y-98638809D02*
X214347618Y-98591190D01*
X214347618Y-98591190D02*
X214252380Y-98543571D01*
X214252380Y-98543571D02*
X214014285Y-98543571D01*
X214014285Y-98543571D02*
X213919047Y-98591190D01*
X213919047Y-98591190D02*
X213871428Y-98638809D01*
X213871428Y-98638809D02*
X213823809Y-98734047D01*
X213823809Y-98734047D02*
X213823809Y-98972142D01*
X213823809Y-98972142D02*
X213871428Y-99067380D01*
X213871428Y-99067380D02*
X213919047Y-99115000D01*
X213919047Y-99115000D02*
X214014285Y-99162619D01*
X214014285Y-99162619D02*
X214252380Y-99162619D01*
X214252380Y-99162619D02*
X214347618Y-99115000D01*
X214347618Y-99115000D02*
X214395237Y-99067380D01*
X154455756Y-30132839D02*
X154122423Y-30132839D01*
X153979566Y-30656649D02*
X154455756Y-30656649D01*
X154455756Y-30656649D02*
X154455756Y-29656649D01*
X154455756Y-29656649D02*
X153979566Y-29656649D01*
X153646232Y-29656649D02*
X152979566Y-30656649D01*
X152979566Y-29656649D02*
X153646232Y-30656649D01*
X152741470Y-29656649D02*
X152170042Y-29656649D01*
X152455756Y-30656649D02*
X152455756Y-29656649D01*
X152074804Y-30751887D02*
X151312899Y-30751887D01*
X150503375Y-30656649D02*
X150836708Y-30180458D01*
X151074803Y-30656649D02*
X151074803Y-29656649D01*
X151074803Y-29656649D02*
X150693851Y-29656649D01*
X150693851Y-29656649D02*
X150598613Y-29704268D01*
X150598613Y-29704268D02*
X150550994Y-29751887D01*
X150550994Y-29751887D02*
X150503375Y-29847125D01*
X150503375Y-29847125D02*
X150503375Y-29989982D01*
X150503375Y-29989982D02*
X150550994Y-30085220D01*
X150550994Y-30085220D02*
X150598613Y-30132839D01*
X150598613Y-30132839D02*
X150693851Y-30180458D01*
X150693851Y-30180458D02*
X151074803Y-30180458D01*
X149598613Y-29656649D02*
X150074803Y-29656649D01*
X150074803Y-29656649D02*
X150122422Y-30132839D01*
X150122422Y-30132839D02*
X150074803Y-30085220D01*
X150074803Y-30085220D02*
X149979565Y-30037601D01*
X149979565Y-30037601D02*
X149741470Y-30037601D01*
X149741470Y-30037601D02*
X149646232Y-30085220D01*
X149646232Y-30085220D02*
X149598613Y-30132839D01*
X149598613Y-30132839D02*
X149550994Y-30228077D01*
X149550994Y-30228077D02*
X149550994Y-30466172D01*
X149550994Y-30466172D02*
X149598613Y-30561410D01*
X149598613Y-30561410D02*
X149646232Y-30609030D01*
X149646232Y-30609030D02*
X149741470Y-30656649D01*
X149741470Y-30656649D02*
X149979565Y-30656649D01*
X149979565Y-30656649D02*
X150074803Y-30609030D01*
X150074803Y-30609030D02*
X150122422Y-30561410D01*
D14*
X26555077Y-21519714D02*
X26555077Y-21019714D01*
X26555077Y-21019714D02*
X26436029Y-21019714D01*
X26436029Y-21019714D02*
X26364601Y-21043524D01*
X26364601Y-21043524D02*
X26316982Y-21091143D01*
X26316982Y-21091143D02*
X26293172Y-21138762D01*
X26293172Y-21138762D02*
X26269363Y-21234000D01*
X26269363Y-21234000D02*
X26269363Y-21305428D01*
X26269363Y-21305428D02*
X26293172Y-21400666D01*
X26293172Y-21400666D02*
X26316982Y-21448285D01*
X26316982Y-21448285D02*
X26364601Y-21495905D01*
X26364601Y-21495905D02*
X26436029Y-21519714D01*
X26436029Y-21519714D02*
X26555077Y-21519714D01*
X25793172Y-21519714D02*
X26078886Y-21519714D01*
X25936029Y-21519714D02*
X25936029Y-21019714D01*
X25936029Y-21019714D02*
X25983648Y-21091143D01*
X25983648Y-21091143D02*
X26031267Y-21138762D01*
X26031267Y-21138762D02*
X26078886Y-21162571D01*
X25483649Y-21019714D02*
X25436030Y-21019714D01*
X25436030Y-21019714D02*
X25388411Y-21043524D01*
X25388411Y-21043524D02*
X25364601Y-21067333D01*
X25364601Y-21067333D02*
X25340792Y-21114952D01*
X25340792Y-21114952D02*
X25316982Y-21210190D01*
X25316982Y-21210190D02*
X25316982Y-21329238D01*
X25316982Y-21329238D02*
X25340792Y-21424476D01*
X25340792Y-21424476D02*
X25364601Y-21472095D01*
X25364601Y-21472095D02*
X25388411Y-21495905D01*
X25388411Y-21495905D02*
X25436030Y-21519714D01*
X25436030Y-21519714D02*
X25483649Y-21519714D01*
X25483649Y-21519714D02*
X25531268Y-21495905D01*
X25531268Y-21495905D02*
X25555077Y-21472095D01*
X25555077Y-21472095D02*
X25578887Y-21424476D01*
X25578887Y-21424476D02*
X25602696Y-21329238D01*
X25602696Y-21329238D02*
X25602696Y-21210190D01*
X25602696Y-21210190D02*
X25578887Y-21114952D01*
X25578887Y-21114952D02*
X25555077Y-21067333D01*
X25555077Y-21067333D02*
X25531268Y-21043524D01*
X25531268Y-21043524D02*
X25483649Y-21019714D01*
D11*
X46558554Y-64916499D02*
X46082363Y-64583166D01*
X46558554Y-64345071D02*
X45558554Y-64345071D01*
X45558554Y-64345071D02*
X45558554Y-64726023D01*
X45558554Y-64726023D02*
X45606173Y-64821261D01*
X45606173Y-64821261D02*
X45653792Y-64868880D01*
X45653792Y-64868880D02*
X45749030Y-64916499D01*
X45749030Y-64916499D02*
X45891887Y-64916499D01*
X45891887Y-64916499D02*
X45987125Y-64868880D01*
X45987125Y-64868880D02*
X46034744Y-64821261D01*
X46034744Y-64821261D02*
X46082363Y-64726023D01*
X46082363Y-64726023D02*
X46082363Y-64345071D01*
X46510935Y-65726023D02*
X46558554Y-65630785D01*
X46558554Y-65630785D02*
X46558554Y-65440309D01*
X46558554Y-65440309D02*
X46510935Y-65345071D01*
X46510935Y-65345071D02*
X46415696Y-65297452D01*
X46415696Y-65297452D02*
X46034744Y-65297452D01*
X46034744Y-65297452D02*
X45939506Y-65345071D01*
X45939506Y-65345071D02*
X45891887Y-65440309D01*
X45891887Y-65440309D02*
X45891887Y-65630785D01*
X45891887Y-65630785D02*
X45939506Y-65726023D01*
X45939506Y-65726023D02*
X46034744Y-65773642D01*
X46034744Y-65773642D02*
X46129982Y-65773642D01*
X46129982Y-65773642D02*
X46225220Y-65297452D01*
X46510935Y-66154595D02*
X46558554Y-66249833D01*
X46558554Y-66249833D02*
X46558554Y-66440309D01*
X46558554Y-66440309D02*
X46510935Y-66535547D01*
X46510935Y-66535547D02*
X46415696Y-66583166D01*
X46415696Y-66583166D02*
X46368077Y-66583166D01*
X46368077Y-66583166D02*
X46272839Y-66535547D01*
X46272839Y-66535547D02*
X46225220Y-66440309D01*
X46225220Y-66440309D02*
X46225220Y-66297452D01*
X46225220Y-66297452D02*
X46177601Y-66202214D01*
X46177601Y-66202214D02*
X46082363Y-66154595D01*
X46082363Y-66154595D02*
X46034744Y-66154595D01*
X46034744Y-66154595D02*
X45939506Y-66202214D01*
X45939506Y-66202214D02*
X45891887Y-66297452D01*
X45891887Y-66297452D02*
X45891887Y-66440309D01*
X45891887Y-66440309D02*
X45939506Y-66535547D01*
X46510935Y-67392690D02*
X46558554Y-67297452D01*
X46558554Y-67297452D02*
X46558554Y-67106976D01*
X46558554Y-67106976D02*
X46510935Y-67011738D01*
X46510935Y-67011738D02*
X46415696Y-66964119D01*
X46415696Y-66964119D02*
X46034744Y-66964119D01*
X46034744Y-66964119D02*
X45939506Y-67011738D01*
X45939506Y-67011738D02*
X45891887Y-67106976D01*
X45891887Y-67106976D02*
X45891887Y-67297452D01*
X45891887Y-67297452D02*
X45939506Y-67392690D01*
X45939506Y-67392690D02*
X46034744Y-67440309D01*
X46034744Y-67440309D02*
X46129982Y-67440309D01*
X46129982Y-67440309D02*
X46225220Y-66964119D01*
X45891887Y-67726024D02*
X45891887Y-68106976D01*
X45558554Y-67868881D02*
X46415696Y-67868881D01*
X46415696Y-67868881D02*
X46510935Y-67916500D01*
X46510935Y-67916500D02*
X46558554Y-68011738D01*
X46558554Y-68011738D02*
X46558554Y-68106976D01*
X46510935Y-68392691D02*
X46558554Y-68535548D01*
X46558554Y-68535548D02*
X46558554Y-68773643D01*
X46558554Y-68773643D02*
X46510935Y-68868881D01*
X46510935Y-68868881D02*
X46463315Y-68916500D01*
X46463315Y-68916500D02*
X46368077Y-68964119D01*
X46368077Y-68964119D02*
X46272839Y-68964119D01*
X46272839Y-68964119D02*
X46177601Y-68916500D01*
X46177601Y-68916500D02*
X46129982Y-68868881D01*
X46129982Y-68868881D02*
X46082363Y-68773643D01*
X46082363Y-68773643D02*
X46034744Y-68583167D01*
X46034744Y-68583167D02*
X45987125Y-68487929D01*
X45987125Y-68487929D02*
X45939506Y-68440310D01*
X45939506Y-68440310D02*
X45844268Y-68392691D01*
X45844268Y-68392691D02*
X45749030Y-68392691D01*
X45749030Y-68392691D02*
X45653792Y-68440310D01*
X45653792Y-68440310D02*
X45606173Y-68487929D01*
X45606173Y-68487929D02*
X45558554Y-68583167D01*
X45558554Y-68583167D02*
X45558554Y-68821262D01*
X45558554Y-68821262D02*
X45606173Y-68964119D01*
X45558554Y-69297453D02*
X46558554Y-69535548D01*
X46558554Y-69535548D02*
X45844268Y-69726024D01*
X45844268Y-69726024D02*
X46558554Y-69916500D01*
X46558554Y-69916500D02*
X45558554Y-70154596D01*
X46558554Y-71059357D02*
X46558554Y-70487929D01*
X46558554Y-70773643D02*
X45558554Y-70773643D01*
X45558554Y-70773643D02*
X45701411Y-70678405D01*
X45701411Y-70678405D02*
X45796649Y-70583167D01*
X45796649Y-70583167D02*
X45844268Y-70487929D01*
X39208594Y-63536859D02*
X38732403Y-63203526D01*
X39208594Y-62965431D02*
X38208594Y-62965431D01*
X38208594Y-62965431D02*
X38208594Y-63346383D01*
X38208594Y-63346383D02*
X38256213Y-63441621D01*
X38256213Y-63441621D02*
X38303832Y-63489240D01*
X38303832Y-63489240D02*
X38399070Y-63536859D01*
X38399070Y-63536859D02*
X38541927Y-63536859D01*
X38541927Y-63536859D02*
X38637165Y-63489240D01*
X38637165Y-63489240D02*
X38684784Y-63441621D01*
X38684784Y-63441621D02*
X38732403Y-63346383D01*
X38732403Y-63346383D02*
X38732403Y-62965431D01*
X39160975Y-64346383D02*
X39208594Y-64251145D01*
X39208594Y-64251145D02*
X39208594Y-64060669D01*
X39208594Y-64060669D02*
X39160975Y-63965431D01*
X39160975Y-63965431D02*
X39065736Y-63917812D01*
X39065736Y-63917812D02*
X38684784Y-63917812D01*
X38684784Y-63917812D02*
X38589546Y-63965431D01*
X38589546Y-63965431D02*
X38541927Y-64060669D01*
X38541927Y-64060669D02*
X38541927Y-64251145D01*
X38541927Y-64251145D02*
X38589546Y-64346383D01*
X38589546Y-64346383D02*
X38684784Y-64394002D01*
X38684784Y-64394002D02*
X38780022Y-64394002D01*
X38780022Y-64394002D02*
X38875260Y-63917812D01*
X39160975Y-64774955D02*
X39208594Y-64870193D01*
X39208594Y-64870193D02*
X39208594Y-65060669D01*
X39208594Y-65060669D02*
X39160975Y-65155907D01*
X39160975Y-65155907D02*
X39065736Y-65203526D01*
X39065736Y-65203526D02*
X39018117Y-65203526D01*
X39018117Y-65203526D02*
X38922879Y-65155907D01*
X38922879Y-65155907D02*
X38875260Y-65060669D01*
X38875260Y-65060669D02*
X38875260Y-64917812D01*
X38875260Y-64917812D02*
X38827641Y-64822574D01*
X38827641Y-64822574D02*
X38732403Y-64774955D01*
X38732403Y-64774955D02*
X38684784Y-64774955D01*
X38684784Y-64774955D02*
X38589546Y-64822574D01*
X38589546Y-64822574D02*
X38541927Y-64917812D01*
X38541927Y-64917812D02*
X38541927Y-65060669D01*
X38541927Y-65060669D02*
X38589546Y-65155907D01*
X39160975Y-66013050D02*
X39208594Y-65917812D01*
X39208594Y-65917812D02*
X39208594Y-65727336D01*
X39208594Y-65727336D02*
X39160975Y-65632098D01*
X39160975Y-65632098D02*
X39065736Y-65584479D01*
X39065736Y-65584479D02*
X38684784Y-65584479D01*
X38684784Y-65584479D02*
X38589546Y-65632098D01*
X38589546Y-65632098D02*
X38541927Y-65727336D01*
X38541927Y-65727336D02*
X38541927Y-65917812D01*
X38541927Y-65917812D02*
X38589546Y-66013050D01*
X38589546Y-66013050D02*
X38684784Y-66060669D01*
X38684784Y-66060669D02*
X38780022Y-66060669D01*
X38780022Y-66060669D02*
X38875260Y-65584479D01*
X38541927Y-66346384D02*
X38541927Y-66727336D01*
X38208594Y-66489241D02*
X39065736Y-66489241D01*
X39065736Y-66489241D02*
X39160975Y-66536860D01*
X39160975Y-66536860D02*
X39208594Y-66632098D01*
X39208594Y-66632098D02*
X39208594Y-66727336D01*
X39160975Y-67013051D02*
X39208594Y-67155908D01*
X39208594Y-67155908D02*
X39208594Y-67394003D01*
X39208594Y-67394003D02*
X39160975Y-67489241D01*
X39160975Y-67489241D02*
X39113355Y-67536860D01*
X39113355Y-67536860D02*
X39018117Y-67584479D01*
X39018117Y-67584479D02*
X38922879Y-67584479D01*
X38922879Y-67584479D02*
X38827641Y-67536860D01*
X38827641Y-67536860D02*
X38780022Y-67489241D01*
X38780022Y-67489241D02*
X38732403Y-67394003D01*
X38732403Y-67394003D02*
X38684784Y-67203527D01*
X38684784Y-67203527D02*
X38637165Y-67108289D01*
X38637165Y-67108289D02*
X38589546Y-67060670D01*
X38589546Y-67060670D02*
X38494308Y-67013051D01*
X38494308Y-67013051D02*
X38399070Y-67013051D01*
X38399070Y-67013051D02*
X38303832Y-67060670D01*
X38303832Y-67060670D02*
X38256213Y-67108289D01*
X38256213Y-67108289D02*
X38208594Y-67203527D01*
X38208594Y-67203527D02*
X38208594Y-67441622D01*
X38208594Y-67441622D02*
X38256213Y-67584479D01*
X38208594Y-67917813D02*
X39208594Y-68155908D01*
X39208594Y-68155908D02*
X38494308Y-68346384D01*
X38494308Y-68346384D02*
X39208594Y-68536860D01*
X39208594Y-68536860D02*
X38208594Y-68774956D01*
X39208594Y-69679717D02*
X39208594Y-69108289D01*
X39208594Y-69394003D02*
X38208594Y-69394003D01*
X38208594Y-69394003D02*
X38351451Y-69298765D01*
X38351451Y-69298765D02*
X38446689Y-69203527D01*
X38446689Y-69203527D02*
X38494308Y-69108289D01*
D10*
X45184515Y-36946856D02*
X45470725Y-36896349D01*
X45386546Y-37148887D02*
X45740099Y-36795334D01*
X45740099Y-36795334D02*
X45605412Y-36660647D01*
X45605412Y-36660647D02*
X45554905Y-36643811D01*
X45554905Y-36643811D02*
X45521233Y-36643811D01*
X45521233Y-36643811D02*
X45470725Y-36660647D01*
X45470725Y-36660647D02*
X45420218Y-36711154D01*
X45420218Y-36711154D02*
X45403382Y-36761662D01*
X45403382Y-36761662D02*
X45403382Y-36795334D01*
X45403382Y-36795334D02*
X45420218Y-36845841D01*
X45420218Y-36845841D02*
X45554905Y-36980528D01*
X45218187Y-36273421D02*
X45386546Y-36441780D01*
X45386546Y-36441780D02*
X45235023Y-36626975D01*
X45235023Y-36626975D02*
X45235023Y-36593303D01*
X45235023Y-36593303D02*
X45218187Y-36542795D01*
X45218187Y-36542795D02*
X45134008Y-36458616D01*
X45134008Y-36458616D02*
X45083500Y-36441780D01*
X45083500Y-36441780D02*
X45049828Y-36441780D01*
X45049828Y-36441780D02*
X44999321Y-36458616D01*
X44999321Y-36458616D02*
X44915141Y-36542795D01*
X44915141Y-36542795D02*
X44898305Y-36593303D01*
X44898305Y-36593303D02*
X44898305Y-36626975D01*
X44898305Y-36626975D02*
X44915141Y-36677482D01*
X44915141Y-36677482D02*
X44999321Y-36761662D01*
X44999321Y-36761662D02*
X45049828Y-36778498D01*
X45049828Y-36778498D02*
X45083500Y-36778498D01*
X66556420Y-36918790D02*
X66505913Y-36632580D01*
X66758451Y-36716759D02*
X66404898Y-36363206D01*
X66404898Y-36363206D02*
X66270211Y-36497893D01*
X66270211Y-36497893D02*
X66253375Y-36548400D01*
X66253375Y-36548400D02*
X66253375Y-36582072D01*
X66253375Y-36582072D02*
X66270211Y-36632580D01*
X66270211Y-36632580D02*
X66320718Y-36683087D01*
X66320718Y-36683087D02*
X66371226Y-36699923D01*
X66371226Y-36699923D02*
X66404898Y-36699923D01*
X66404898Y-36699923D02*
X66455405Y-36683087D01*
X66455405Y-36683087D02*
X66590092Y-36548400D01*
X65899821Y-36868282D02*
X65967165Y-36800939D01*
X65967165Y-36800939D02*
X66017672Y-36784103D01*
X66017672Y-36784103D02*
X66051344Y-36784103D01*
X66051344Y-36784103D02*
X66135524Y-36800939D01*
X66135524Y-36800939D02*
X66219703Y-36851446D01*
X66219703Y-36851446D02*
X66354390Y-36986133D01*
X66354390Y-36986133D02*
X66371226Y-37036641D01*
X66371226Y-37036641D02*
X66371226Y-37070313D01*
X66371226Y-37070313D02*
X66354390Y-37120820D01*
X66354390Y-37120820D02*
X66287046Y-37188164D01*
X66287046Y-37188164D02*
X66236539Y-37205000D01*
X66236539Y-37205000D02*
X66202867Y-37205000D01*
X66202867Y-37205000D02*
X66152359Y-37188164D01*
X66152359Y-37188164D02*
X66068180Y-37103984D01*
X66068180Y-37103984D02*
X66051344Y-37053477D01*
X66051344Y-37053477D02*
X66051344Y-37019805D01*
X66051344Y-37019805D02*
X66068180Y-36969297D01*
X66068180Y-36969297D02*
X66135524Y-36901954D01*
X66135524Y-36901954D02*
X66186031Y-36885118D01*
X66186031Y-36885118D02*
X66219703Y-36885118D01*
X66219703Y-36885118D02*
X66270211Y-36901954D01*
X52435846Y-24160094D02*
X52435846Y-24193765D01*
X52435846Y-24193765D02*
X52469518Y-24261109D01*
X52469518Y-24261109D02*
X52503190Y-24294781D01*
X52503190Y-24294781D02*
X52570533Y-24328452D01*
X52570533Y-24328452D02*
X52637877Y-24328452D01*
X52637877Y-24328452D02*
X52688384Y-24311617D01*
X52688384Y-24311617D02*
X52772564Y-24261109D01*
X52772564Y-24261109D02*
X52823071Y-24210601D01*
X52823071Y-24210601D02*
X52873579Y-24126422D01*
X52873579Y-24126422D02*
X52890415Y-24075914D01*
X52890415Y-24075914D02*
X52890415Y-24008571D01*
X52890415Y-24008571D02*
X52856743Y-23941227D01*
X52856743Y-23941227D02*
X52823071Y-23907556D01*
X52823071Y-23907556D02*
X52755728Y-23873884D01*
X52755728Y-23873884D02*
X52722056Y-23873884D01*
X52587369Y-23739197D02*
X52587369Y-23705525D01*
X52587369Y-23705525D02*
X52570533Y-23655017D01*
X52570533Y-23655017D02*
X52486354Y-23570838D01*
X52486354Y-23570838D02*
X52435846Y-23554002D01*
X52435846Y-23554002D02*
X52402174Y-23554002D01*
X52402174Y-23554002D02*
X52351667Y-23570838D01*
X52351667Y-23570838D02*
X52317995Y-23604510D01*
X52317995Y-23604510D02*
X52284323Y-23671853D01*
X52284323Y-23671853D02*
X52284323Y-24075914D01*
X52284323Y-24075914D02*
X52065457Y-23857048D01*
D11*
X284233881Y-98760964D02*
X283900548Y-98760964D01*
X283757691Y-99284774D02*
X284233881Y-99284774D01*
X284233881Y-99284774D02*
X284233881Y-98284774D01*
X284233881Y-98284774D02*
X283757691Y-98284774D01*
X283424357Y-98284774D02*
X282757691Y-99284774D01*
X282757691Y-98284774D02*
X283424357Y-99284774D01*
X282519595Y-98284774D02*
X281948167Y-98284774D01*
X282233881Y-99284774D02*
X282233881Y-98284774D01*
X281852929Y-99380012D02*
X281091024Y-99380012D01*
X280281500Y-99189535D02*
X280329119Y-99237155D01*
X280329119Y-99237155D02*
X280471976Y-99284774D01*
X280471976Y-99284774D02*
X280567214Y-99284774D01*
X280567214Y-99284774D02*
X280710071Y-99237155D01*
X280710071Y-99237155D02*
X280805309Y-99141916D01*
X280805309Y-99141916D02*
X280852928Y-99046678D01*
X280852928Y-99046678D02*
X280900547Y-98856202D01*
X280900547Y-98856202D02*
X280900547Y-98713345D01*
X280900547Y-98713345D02*
X280852928Y-98522869D01*
X280852928Y-98522869D02*
X280805309Y-98427631D01*
X280805309Y-98427631D02*
X280710071Y-98332393D01*
X280710071Y-98332393D02*
X280567214Y-98284774D01*
X280567214Y-98284774D02*
X280471976Y-98284774D01*
X280471976Y-98284774D02*
X280329119Y-98332393D01*
X280329119Y-98332393D02*
X280281500Y-98380012D01*
X279948166Y-98284774D02*
X279281500Y-98284774D01*
X279281500Y-98284774D02*
X279710071Y-99284774D01*
X47299505Y-107095339D02*
X46966172Y-107095339D01*
X46823315Y-107619149D02*
X47299505Y-107619149D01*
X47299505Y-107619149D02*
X47299505Y-106619149D01*
X47299505Y-106619149D02*
X46823315Y-106619149D01*
X46489981Y-106619149D02*
X45823315Y-107619149D01*
X45823315Y-106619149D02*
X46489981Y-107619149D01*
X45585219Y-106619149D02*
X45013791Y-106619149D01*
X45299505Y-107619149D02*
X45299505Y-106619149D01*
X44918553Y-107714387D02*
X44156648Y-107714387D01*
X43347124Y-107619149D02*
X43680457Y-107142958D01*
X43918552Y-107619149D02*
X43918552Y-106619149D01*
X43918552Y-106619149D02*
X43537600Y-106619149D01*
X43537600Y-106619149D02*
X43442362Y-106666768D01*
X43442362Y-106666768D02*
X43394743Y-106714387D01*
X43394743Y-106714387D02*
X43347124Y-106809625D01*
X43347124Y-106809625D02*
X43347124Y-106952482D01*
X43347124Y-106952482D02*
X43394743Y-107047720D01*
X43394743Y-107047720D02*
X43442362Y-107095339D01*
X43442362Y-107095339D02*
X43537600Y-107142958D01*
X43537600Y-107142958D02*
X43918552Y-107142958D01*
X42870933Y-107619149D02*
X42680457Y-107619149D01*
X42680457Y-107619149D02*
X42585219Y-107571530D01*
X42585219Y-107571530D02*
X42537600Y-107523910D01*
X42537600Y-107523910D02*
X42442362Y-107381053D01*
X42442362Y-107381053D02*
X42394743Y-107190577D01*
X42394743Y-107190577D02*
X42394743Y-106809625D01*
X42394743Y-106809625D02*
X42442362Y-106714387D01*
X42442362Y-106714387D02*
X42489981Y-106666768D01*
X42489981Y-106666768D02*
X42585219Y-106619149D01*
X42585219Y-106619149D02*
X42775695Y-106619149D01*
X42775695Y-106619149D02*
X42870933Y-106666768D01*
X42870933Y-106666768D02*
X42918552Y-106714387D01*
X42918552Y-106714387D02*
X42966171Y-106809625D01*
X42966171Y-106809625D02*
X42966171Y-107047720D01*
X42966171Y-107047720D02*
X42918552Y-107142958D01*
X42918552Y-107142958D02*
X42870933Y-107190577D01*
X42870933Y-107190577D02*
X42775695Y-107238196D01*
X42775695Y-107238196D02*
X42585219Y-107238196D01*
X42585219Y-107238196D02*
X42489981Y-107190577D01*
X42489981Y-107190577D02*
X42442362Y-107142958D01*
X42442362Y-107142958D02*
X42394743Y-107047720D01*
X82828571Y-108538809D02*
X82495238Y-108538809D01*
X82352381Y-109062619D02*
X82828571Y-109062619D01*
X82828571Y-109062619D02*
X82828571Y-108062619D01*
X82828571Y-108062619D02*
X82352381Y-108062619D01*
X82019047Y-108062619D02*
X81352381Y-109062619D01*
X81352381Y-108062619D02*
X82019047Y-109062619D01*
X81114285Y-108062619D02*
X80542857Y-108062619D01*
X80828571Y-109062619D02*
X80828571Y-108062619D01*
X80447619Y-109157857D02*
X79685714Y-109157857D01*
X78876190Y-109062619D02*
X79209523Y-108586428D01*
X79447618Y-109062619D02*
X79447618Y-108062619D01*
X79447618Y-108062619D02*
X79066666Y-108062619D01*
X79066666Y-108062619D02*
X78971428Y-108110238D01*
X78971428Y-108110238D02*
X78923809Y-108157857D01*
X78923809Y-108157857D02*
X78876190Y-108253095D01*
X78876190Y-108253095D02*
X78876190Y-108395952D01*
X78876190Y-108395952D02*
X78923809Y-108491190D01*
X78923809Y-108491190D02*
X78971428Y-108538809D01*
X78971428Y-108538809D02*
X79066666Y-108586428D01*
X79066666Y-108586428D02*
X79447618Y-108586428D01*
X78019047Y-108395952D02*
X78019047Y-109062619D01*
X78257142Y-108015000D02*
X78495237Y-108729285D01*
X78495237Y-108729285D02*
X77876190Y-108729285D01*
X150883881Y-30132839D02*
X150550548Y-30132839D01*
X150407691Y-30656649D02*
X150883881Y-30656649D01*
X150883881Y-30656649D02*
X150883881Y-29656649D01*
X150883881Y-29656649D02*
X150407691Y-29656649D01*
X150074357Y-29656649D02*
X149407691Y-30656649D01*
X149407691Y-29656649D02*
X150074357Y-30656649D01*
X149169595Y-29656649D02*
X148598167Y-29656649D01*
X148883881Y-30656649D02*
X148883881Y-29656649D01*
X148502929Y-30751887D02*
X147741024Y-30751887D01*
X146931500Y-30656649D02*
X147264833Y-30180458D01*
X147502928Y-30656649D02*
X147502928Y-29656649D01*
X147502928Y-29656649D02*
X147121976Y-29656649D01*
X147121976Y-29656649D02*
X147026738Y-29704268D01*
X147026738Y-29704268D02*
X146979119Y-29751887D01*
X146979119Y-29751887D02*
X146931500Y-29847125D01*
X146931500Y-29847125D02*
X146931500Y-29989982D01*
X146931500Y-29989982D02*
X146979119Y-30085220D01*
X146979119Y-30085220D02*
X147026738Y-30132839D01*
X147026738Y-30132839D02*
X147121976Y-30180458D01*
X147121976Y-30180458D02*
X147502928Y-30180458D01*
X146074357Y-29656649D02*
X146264833Y-29656649D01*
X146264833Y-29656649D02*
X146360071Y-29704268D01*
X146360071Y-29704268D02*
X146407690Y-29751887D01*
X146407690Y-29751887D02*
X146502928Y-29894744D01*
X146502928Y-29894744D02*
X146550547Y-30085220D01*
X146550547Y-30085220D02*
X146550547Y-30466172D01*
X146550547Y-30466172D02*
X146502928Y-30561410D01*
X146502928Y-30561410D02*
X146455309Y-30609030D01*
X146455309Y-30609030D02*
X146360071Y-30656649D01*
X146360071Y-30656649D02*
X146169595Y-30656649D01*
X146169595Y-30656649D02*
X146074357Y-30609030D01*
X146074357Y-30609030D02*
X146026738Y-30561410D01*
X146026738Y-30561410D02*
X145979119Y-30466172D01*
X145979119Y-30466172D02*
X145979119Y-30228077D01*
X145979119Y-30228077D02*
X146026738Y-30132839D01*
X146026738Y-30132839D02*
X146074357Y-30085220D01*
X146074357Y-30085220D02*
X146169595Y-30037601D01*
X146169595Y-30037601D02*
X146360071Y-30037601D01*
X146360071Y-30037601D02*
X146455309Y-30085220D01*
X146455309Y-30085220D02*
X146502928Y-30132839D01*
X146502928Y-30132839D02*
X146550547Y-30228077D01*
X147312006Y-26132839D02*
X146978673Y-26132839D01*
X146835816Y-26656649D02*
X147312006Y-26656649D01*
X147312006Y-26656649D02*
X147312006Y-25656649D01*
X147312006Y-25656649D02*
X146835816Y-25656649D01*
X146502482Y-25656649D02*
X145835816Y-26656649D01*
X145835816Y-25656649D02*
X146502482Y-26656649D01*
X145597720Y-25656649D02*
X145026292Y-25656649D01*
X145312006Y-26656649D02*
X145312006Y-25656649D01*
X144931054Y-26751887D02*
X144169149Y-26751887D01*
X143359625Y-26656649D02*
X143692958Y-26180458D01*
X143931053Y-26656649D02*
X143931053Y-25656649D01*
X143931053Y-25656649D02*
X143550101Y-25656649D01*
X143550101Y-25656649D02*
X143454863Y-25704268D01*
X143454863Y-25704268D02*
X143407244Y-25751887D01*
X143407244Y-25751887D02*
X143359625Y-25847125D01*
X143359625Y-25847125D02*
X143359625Y-25989982D01*
X143359625Y-25989982D02*
X143407244Y-26085220D01*
X143407244Y-26085220D02*
X143454863Y-26132839D01*
X143454863Y-26132839D02*
X143550101Y-26180458D01*
X143550101Y-26180458D02*
X143931053Y-26180458D01*
X142407244Y-26656649D02*
X142978672Y-26656649D01*
X142692958Y-26656649D02*
X142692958Y-25656649D01*
X142692958Y-25656649D02*
X142788196Y-25799506D01*
X142788196Y-25799506D02*
X142883434Y-25894744D01*
X142883434Y-25894744D02*
X142978672Y-25942363D01*
X58015131Y-75376589D02*
X57681798Y-75376589D01*
X57538941Y-75900399D02*
X58015131Y-75900399D01*
X58015131Y-75900399D02*
X58015131Y-74900399D01*
X58015131Y-74900399D02*
X57538941Y-74900399D01*
X57205607Y-74900399D02*
X56538941Y-75900399D01*
X56538941Y-74900399D02*
X57205607Y-75900399D01*
X56300845Y-74900399D02*
X55729417Y-74900399D01*
X56015131Y-75900399D02*
X56015131Y-74900399D01*
X55634179Y-75995637D02*
X54872274Y-75995637D01*
X54062750Y-75900399D02*
X54396083Y-75424208D01*
X54634178Y-75900399D02*
X54634178Y-74900399D01*
X54634178Y-74900399D02*
X54253226Y-74900399D01*
X54253226Y-74900399D02*
X54157988Y-74948018D01*
X54157988Y-74948018D02*
X54110369Y-74995637D01*
X54110369Y-74995637D02*
X54062750Y-75090875D01*
X54062750Y-75090875D02*
X54062750Y-75233732D01*
X54062750Y-75233732D02*
X54110369Y-75328970D01*
X54110369Y-75328970D02*
X54157988Y-75376589D01*
X54157988Y-75376589D02*
X54253226Y-75424208D01*
X54253226Y-75424208D02*
X54634178Y-75424208D01*
X53729416Y-74900399D02*
X53062750Y-74900399D01*
X53062750Y-74900399D02*
X53491321Y-75900399D01*
X93242601Y-23626771D02*
X93242601Y-24420105D01*
X93242601Y-24420105D02*
X93195935Y-24513438D01*
X93195935Y-24513438D02*
X93149268Y-24560105D01*
X93149268Y-24560105D02*
X93055935Y-24606771D01*
X93055935Y-24606771D02*
X92869268Y-24606771D01*
X92869268Y-24606771D02*
X92775935Y-24560105D01*
X92775935Y-24560105D02*
X92729268Y-24513438D01*
X92729268Y-24513438D02*
X92682601Y-24420105D01*
X92682601Y-24420105D02*
X92682601Y-23626771D01*
X92262601Y-23720105D02*
X92215934Y-23673438D01*
X92215934Y-23673438D02*
X92122601Y-23626771D01*
X92122601Y-23626771D02*
X91889268Y-23626771D01*
X91889268Y-23626771D02*
X91795934Y-23673438D01*
X91795934Y-23673438D02*
X91749268Y-23720105D01*
X91749268Y-23720105D02*
X91702601Y-23813438D01*
X91702601Y-23813438D02*
X91702601Y-23906771D01*
X91702601Y-23906771D02*
X91749268Y-24046771D01*
X91749268Y-24046771D02*
X92309268Y-24606771D01*
X92309268Y-24606771D02*
X91702601Y-24606771D01*
D10*
X79883333Y-27231309D02*
X80049999Y-26993214D01*
X80169047Y-27231309D02*
X80169047Y-26731309D01*
X80169047Y-26731309D02*
X79978571Y-26731309D01*
X79978571Y-26731309D02*
X79930952Y-26755119D01*
X79930952Y-26755119D02*
X79907142Y-26778928D01*
X79907142Y-26778928D02*
X79883333Y-26826547D01*
X79883333Y-26826547D02*
X79883333Y-26897976D01*
X79883333Y-26897976D02*
X79907142Y-26945595D01*
X79907142Y-26945595D02*
X79930952Y-26969404D01*
X79930952Y-26969404D02*
X79978571Y-26993214D01*
X79978571Y-26993214D02*
X80169047Y-26993214D01*
X79597618Y-26945595D02*
X79645237Y-26921785D01*
X79645237Y-26921785D02*
X79669047Y-26897976D01*
X79669047Y-26897976D02*
X79692856Y-26850357D01*
X79692856Y-26850357D02*
X79692856Y-26826547D01*
X79692856Y-26826547D02*
X79669047Y-26778928D01*
X79669047Y-26778928D02*
X79645237Y-26755119D01*
X79645237Y-26755119D02*
X79597618Y-26731309D01*
X79597618Y-26731309D02*
X79502380Y-26731309D01*
X79502380Y-26731309D02*
X79454761Y-26755119D01*
X79454761Y-26755119D02*
X79430952Y-26778928D01*
X79430952Y-26778928D02*
X79407142Y-26826547D01*
X79407142Y-26826547D02*
X79407142Y-26850357D01*
X79407142Y-26850357D02*
X79430952Y-26897976D01*
X79430952Y-26897976D02*
X79454761Y-26921785D01*
X79454761Y-26921785D02*
X79502380Y-26945595D01*
X79502380Y-26945595D02*
X79597618Y-26945595D01*
X79597618Y-26945595D02*
X79645237Y-26969404D01*
X79645237Y-26969404D02*
X79669047Y-26993214D01*
X79669047Y-26993214D02*
X79692856Y-27040833D01*
X79692856Y-27040833D02*
X79692856Y-27136071D01*
X79692856Y-27136071D02*
X79669047Y-27183690D01*
X79669047Y-27183690D02*
X79645237Y-27207500D01*
X79645237Y-27207500D02*
X79597618Y-27231309D01*
X79597618Y-27231309D02*
X79502380Y-27231309D01*
X79502380Y-27231309D02*
X79454761Y-27207500D01*
X79454761Y-27207500D02*
X79430952Y-27183690D01*
X79430952Y-27183690D02*
X79407142Y-27136071D01*
X79407142Y-27136071D02*
X79407142Y-27040833D01*
X79407142Y-27040833D02*
X79430952Y-26993214D01*
X79430952Y-26993214D02*
X79454761Y-26969404D01*
X79454761Y-26969404D02*
X79502380Y-26945595D01*
X79883333Y-24821714D02*
X80049999Y-24583619D01*
X80169047Y-24821714D02*
X80169047Y-24321714D01*
X80169047Y-24321714D02*
X79978571Y-24321714D01*
X79978571Y-24321714D02*
X79930952Y-24345524D01*
X79930952Y-24345524D02*
X79907142Y-24369333D01*
X79907142Y-24369333D02*
X79883333Y-24416952D01*
X79883333Y-24416952D02*
X79883333Y-24488381D01*
X79883333Y-24488381D02*
X79907142Y-24536000D01*
X79907142Y-24536000D02*
X79930952Y-24559809D01*
X79930952Y-24559809D02*
X79978571Y-24583619D01*
X79978571Y-24583619D02*
X80169047Y-24583619D01*
X79645237Y-24821714D02*
X79549999Y-24821714D01*
X79549999Y-24821714D02*
X79502380Y-24797905D01*
X79502380Y-24797905D02*
X79478571Y-24774095D01*
X79478571Y-24774095D02*
X79430952Y-24702666D01*
X79430952Y-24702666D02*
X79407142Y-24607428D01*
X79407142Y-24607428D02*
X79407142Y-24416952D01*
X79407142Y-24416952D02*
X79430952Y-24369333D01*
X79430952Y-24369333D02*
X79454761Y-24345524D01*
X79454761Y-24345524D02*
X79502380Y-24321714D01*
X79502380Y-24321714D02*
X79597618Y-24321714D01*
X79597618Y-24321714D02*
X79645237Y-24345524D01*
X79645237Y-24345524D02*
X79669047Y-24369333D01*
X79669047Y-24369333D02*
X79692856Y-24416952D01*
X79692856Y-24416952D02*
X79692856Y-24536000D01*
X79692856Y-24536000D02*
X79669047Y-24583619D01*
X79669047Y-24583619D02*
X79645237Y-24607428D01*
X79645237Y-24607428D02*
X79597618Y-24631238D01*
X79597618Y-24631238D02*
X79502380Y-24631238D01*
X79502380Y-24631238D02*
X79454761Y-24607428D01*
X79454761Y-24607428D02*
X79430952Y-24583619D01*
X79430952Y-24583619D02*
X79407142Y-24536000D01*
D11*
X35179268Y-18990984D02*
X35179268Y-19705269D01*
X35179268Y-19705269D02*
X35226887Y-19848126D01*
X35226887Y-19848126D02*
X35322125Y-19943365D01*
X35322125Y-19943365D02*
X35464982Y-19990984D01*
X35464982Y-19990984D02*
X35560220Y-19990984D01*
X34798315Y-18990984D02*
X34131649Y-18990984D01*
X34131649Y-18990984D02*
X34560220Y-19990984D01*
D10*
X49752971Y-41797219D02*
X49752971Y-41830890D01*
X49752971Y-41830890D02*
X49786643Y-41898234D01*
X49786643Y-41898234D02*
X49820315Y-41931906D01*
X49820315Y-41931906D02*
X49887658Y-41965577D01*
X49887658Y-41965577D02*
X49955002Y-41965577D01*
X49955002Y-41965577D02*
X50005509Y-41948742D01*
X50005509Y-41948742D02*
X50089689Y-41898234D01*
X50089689Y-41898234D02*
X50140196Y-41847726D01*
X50140196Y-41847726D02*
X50190704Y-41763547D01*
X50190704Y-41763547D02*
X50207540Y-41713039D01*
X50207540Y-41713039D02*
X50207540Y-41645696D01*
X50207540Y-41645696D02*
X50173868Y-41578352D01*
X50173868Y-41578352D02*
X50140196Y-41544681D01*
X50140196Y-41544681D02*
X50072853Y-41511009D01*
X50072853Y-41511009D02*
X50039181Y-41511009D01*
X49769807Y-41174291D02*
X49837150Y-41241635D01*
X49837150Y-41241635D02*
X49853986Y-41292142D01*
X49853986Y-41292142D02*
X49853986Y-41325814D01*
X49853986Y-41325814D02*
X49837150Y-41409994D01*
X49837150Y-41409994D02*
X49786643Y-41494173D01*
X49786643Y-41494173D02*
X49651956Y-41628860D01*
X49651956Y-41628860D02*
X49601448Y-41645696D01*
X49601448Y-41645696D02*
X49567776Y-41645696D01*
X49567776Y-41645696D02*
X49517269Y-41628860D01*
X49517269Y-41628860D02*
X49449925Y-41561516D01*
X49449925Y-41561516D02*
X49433089Y-41511009D01*
X49433089Y-41511009D02*
X49433089Y-41477337D01*
X49433089Y-41477337D02*
X49449925Y-41426829D01*
X49449925Y-41426829D02*
X49534105Y-41342650D01*
X49534105Y-41342650D02*
X49584612Y-41325814D01*
X49584612Y-41325814D02*
X49618284Y-41325814D01*
X49618284Y-41325814D02*
X49668792Y-41342650D01*
X49668792Y-41342650D02*
X49736135Y-41409994D01*
X49736135Y-41409994D02*
X49752971Y-41460501D01*
X49752971Y-41460501D02*
X49752971Y-41494173D01*
X49752971Y-41494173D02*
X49736135Y-41544681D01*
X38731299Y-30190850D02*
X39017509Y-30140343D01*
X38933330Y-30392881D02*
X39286883Y-30039328D01*
X39286883Y-30039328D02*
X39152196Y-29904641D01*
X39152196Y-29904641D02*
X39101689Y-29887805D01*
X39101689Y-29887805D02*
X39068017Y-29887805D01*
X39068017Y-29887805D02*
X39017509Y-29904641D01*
X39017509Y-29904641D02*
X38967002Y-29955148D01*
X38967002Y-29955148D02*
X38950166Y-30005656D01*
X38950166Y-30005656D02*
X38950166Y-30039328D01*
X38950166Y-30039328D02*
X38967002Y-30089835D01*
X38967002Y-30089835D02*
X39101689Y-30224522D01*
X38663956Y-29652102D02*
X38428254Y-29887805D01*
X38882822Y-29601595D02*
X38714463Y-29938312D01*
X38714463Y-29938312D02*
X38495597Y-29719446D01*
D11*
X131833881Y-98760964D02*
X131500548Y-98760964D01*
X131357691Y-99284774D02*
X131833881Y-99284774D01*
X131833881Y-99284774D02*
X131833881Y-98284774D01*
X131833881Y-98284774D02*
X131357691Y-98284774D01*
X131024357Y-98284774D02*
X130357691Y-99284774D01*
X130357691Y-98284774D02*
X131024357Y-99284774D01*
X130119595Y-98284774D02*
X129548167Y-98284774D01*
X129833881Y-99284774D02*
X129833881Y-98284774D01*
X129452929Y-99380012D02*
X128691024Y-99380012D01*
X127881500Y-99189535D02*
X127929119Y-99237155D01*
X127929119Y-99237155D02*
X128071976Y-99284774D01*
X128071976Y-99284774D02*
X128167214Y-99284774D01*
X128167214Y-99284774D02*
X128310071Y-99237155D01*
X128310071Y-99237155D02*
X128405309Y-99141916D01*
X128405309Y-99141916D02*
X128452928Y-99046678D01*
X128452928Y-99046678D02*
X128500547Y-98856202D01*
X128500547Y-98856202D02*
X128500547Y-98713345D01*
X128500547Y-98713345D02*
X128452928Y-98522869D01*
X128452928Y-98522869D02*
X128405309Y-98427631D01*
X128405309Y-98427631D02*
X128310071Y-98332393D01*
X128310071Y-98332393D02*
X128167214Y-98284774D01*
X128167214Y-98284774D02*
X128071976Y-98284774D01*
X128071976Y-98284774D02*
X127929119Y-98332393D01*
X127929119Y-98332393D02*
X127881500Y-98380012D01*
X127548166Y-98284774D02*
X126929119Y-98284774D01*
X126929119Y-98284774D02*
X127262452Y-98665726D01*
X127262452Y-98665726D02*
X127119595Y-98665726D01*
X127119595Y-98665726D02*
X127024357Y-98713345D01*
X127024357Y-98713345D02*
X126976738Y-98760964D01*
X126976738Y-98760964D02*
X126929119Y-98856202D01*
X126929119Y-98856202D02*
X126929119Y-99094297D01*
X126929119Y-99094297D02*
X126976738Y-99189535D01*
X126976738Y-99189535D02*
X127024357Y-99237155D01*
X127024357Y-99237155D02*
X127119595Y-99284774D01*
X127119595Y-99284774D02*
X127405309Y-99284774D01*
X127405309Y-99284774D02*
X127500547Y-99237155D01*
X127500547Y-99237155D02*
X127548166Y-99189535D01*
X158027631Y-26132839D02*
X157694298Y-26132839D01*
X157551441Y-26656649D02*
X158027631Y-26656649D01*
X158027631Y-26656649D02*
X158027631Y-25656649D01*
X158027631Y-25656649D02*
X157551441Y-25656649D01*
X157218107Y-25656649D02*
X156551441Y-26656649D01*
X156551441Y-25656649D02*
X157218107Y-26656649D01*
X156313345Y-25656649D02*
X155741917Y-25656649D01*
X156027631Y-26656649D02*
X156027631Y-25656649D01*
X155646679Y-26751887D02*
X154884774Y-26751887D01*
X154075250Y-26656649D02*
X154408583Y-26180458D01*
X154646678Y-26656649D02*
X154646678Y-25656649D01*
X154646678Y-25656649D02*
X154265726Y-25656649D01*
X154265726Y-25656649D02*
X154170488Y-25704268D01*
X154170488Y-25704268D02*
X154122869Y-25751887D01*
X154122869Y-25751887D02*
X154075250Y-25847125D01*
X154075250Y-25847125D02*
X154075250Y-25989982D01*
X154075250Y-25989982D02*
X154122869Y-26085220D01*
X154122869Y-26085220D02*
X154170488Y-26132839D01*
X154170488Y-26132839D02*
X154265726Y-26180458D01*
X154265726Y-26180458D02*
X154646678Y-26180458D01*
X153456202Y-25656649D02*
X153360964Y-25656649D01*
X153360964Y-25656649D02*
X153265726Y-25704268D01*
X153265726Y-25704268D02*
X153218107Y-25751887D01*
X153218107Y-25751887D02*
X153170488Y-25847125D01*
X153170488Y-25847125D02*
X153122869Y-26037601D01*
X153122869Y-26037601D02*
X153122869Y-26275696D01*
X153122869Y-26275696D02*
X153170488Y-26466172D01*
X153170488Y-26466172D02*
X153218107Y-26561410D01*
X153218107Y-26561410D02*
X153265726Y-26609030D01*
X153265726Y-26609030D02*
X153360964Y-26656649D01*
X153360964Y-26656649D02*
X153456202Y-26656649D01*
X153456202Y-26656649D02*
X153551440Y-26609030D01*
X153551440Y-26609030D02*
X153599059Y-26561410D01*
X153599059Y-26561410D02*
X153646678Y-26466172D01*
X153646678Y-26466172D02*
X153694297Y-26275696D01*
X153694297Y-26275696D02*
X153694297Y-26037601D01*
X153694297Y-26037601D02*
X153646678Y-25847125D01*
X153646678Y-25847125D02*
X153599059Y-25751887D01*
X153599059Y-25751887D02*
X153551440Y-25704268D01*
X153551440Y-25704268D02*
X153456202Y-25656649D01*
X290827958Y-52659774D02*
X290827958Y-53374059D01*
X290827958Y-53374059D02*
X290875577Y-53516916D01*
X290875577Y-53516916D02*
X290970815Y-53612155D01*
X290970815Y-53612155D02*
X291113672Y-53659774D01*
X291113672Y-53659774D02*
X291208910Y-53659774D01*
X289827958Y-53659774D02*
X290399386Y-53659774D01*
X290113672Y-53659774D02*
X290113672Y-52659774D01*
X290113672Y-52659774D02*
X290208910Y-52802631D01*
X290208910Y-52802631D02*
X290304148Y-52897869D01*
X290304148Y-52897869D02*
X290399386Y-52945488D01*
X289208910Y-52659774D02*
X289113672Y-52659774D01*
X289113672Y-52659774D02*
X289018434Y-52707393D01*
X289018434Y-52707393D02*
X288970815Y-52755012D01*
X288970815Y-52755012D02*
X288923196Y-52850250D01*
X288923196Y-52850250D02*
X288875577Y-53040726D01*
X288875577Y-53040726D02*
X288875577Y-53278821D01*
X288875577Y-53278821D02*
X288923196Y-53469297D01*
X288923196Y-53469297D02*
X288970815Y-53564535D01*
X288970815Y-53564535D02*
X289018434Y-53612155D01*
X289018434Y-53612155D02*
X289113672Y-53659774D01*
X289113672Y-53659774D02*
X289208910Y-53659774D01*
X289208910Y-53659774D02*
X289304148Y-53612155D01*
X289304148Y-53612155D02*
X289351767Y-53564535D01*
X289351767Y-53564535D02*
X289399386Y-53469297D01*
X289399386Y-53469297D02*
X289447005Y-53278821D01*
X289447005Y-53278821D02*
X289447005Y-53040726D01*
X289447005Y-53040726D02*
X289399386Y-52850250D01*
X289399386Y-52850250D02*
X289351767Y-52755012D01*
X289351767Y-52755012D02*
X289304148Y-52707393D01*
X289304148Y-52707393D02*
X289208910Y-52659774D01*
X82124505Y-95517214D02*
X81791172Y-95517214D01*
X81648315Y-96041024D02*
X82124505Y-96041024D01*
X82124505Y-96041024D02*
X82124505Y-95041024D01*
X82124505Y-95041024D02*
X81648315Y-95041024D01*
X81314981Y-95041024D02*
X80648315Y-96041024D01*
X80648315Y-95041024D02*
X81314981Y-96041024D01*
X80410219Y-95041024D02*
X79838791Y-95041024D01*
X80124505Y-96041024D02*
X80124505Y-95041024D01*
X79743553Y-96136262D02*
X78981648Y-96136262D01*
X78172124Y-95945785D02*
X78219743Y-95993405D01*
X78219743Y-95993405D02*
X78362600Y-96041024D01*
X78362600Y-96041024D02*
X78457838Y-96041024D01*
X78457838Y-96041024D02*
X78600695Y-95993405D01*
X78600695Y-95993405D02*
X78695933Y-95898166D01*
X78695933Y-95898166D02*
X78743552Y-95802928D01*
X78743552Y-95802928D02*
X78791171Y-95612452D01*
X78791171Y-95612452D02*
X78791171Y-95469595D01*
X78791171Y-95469595D02*
X78743552Y-95279119D01*
X78743552Y-95279119D02*
X78695933Y-95183881D01*
X78695933Y-95183881D02*
X78600695Y-95088643D01*
X78600695Y-95088643D02*
X78457838Y-95041024D01*
X78457838Y-95041024D02*
X78362600Y-95041024D01*
X78362600Y-95041024D02*
X78219743Y-95088643D01*
X78219743Y-95088643D02*
X78172124Y-95136262D01*
X77219743Y-96041024D02*
X77791171Y-96041024D01*
X77505457Y-96041024D02*
X77505457Y-95041024D01*
X77505457Y-95041024D02*
X77600695Y-95183881D01*
X77600695Y-95183881D02*
X77695933Y-95279119D01*
X77695933Y-95279119D02*
X77791171Y-95326738D01*
X55745322Y-33228421D02*
X56317742Y-33800841D01*
X56317742Y-33800841D02*
X56351413Y-33901856D01*
X56351413Y-33901856D02*
X56351413Y-33969199D01*
X56351413Y-33969199D02*
X56317742Y-34070215D01*
X56317742Y-34070215D02*
X56183055Y-34204902D01*
X56183055Y-34204902D02*
X56082039Y-34238573D01*
X56082039Y-34238573D02*
X56014696Y-34238573D01*
X56014696Y-34238573D02*
X55913681Y-34204902D01*
X55913681Y-34204902D02*
X55341261Y-33632482D01*
X55341261Y-35046695D02*
X55745322Y-34642634D01*
X55543291Y-34844665D02*
X54836185Y-34137558D01*
X54836185Y-34137558D02*
X55004543Y-34171230D01*
X55004543Y-34171230D02*
X55139230Y-34171230D01*
X55139230Y-34171230D02*
X55240246Y-34137558D01*
X79480429Y-67460994D02*
X78480429Y-67460994D01*
X78480429Y-67460994D02*
X78480429Y-67699089D01*
X78480429Y-67699089D02*
X78528048Y-67841946D01*
X78528048Y-67841946D02*
X78623286Y-67937184D01*
X78623286Y-67937184D02*
X78718524Y-67984803D01*
X78718524Y-67984803D02*
X78909000Y-68032422D01*
X78909000Y-68032422D02*
X79051857Y-68032422D01*
X79051857Y-68032422D02*
X79242333Y-67984803D01*
X79242333Y-67984803D02*
X79337571Y-67937184D01*
X79337571Y-67937184D02*
X79432810Y-67841946D01*
X79432810Y-67841946D02*
X79480429Y-67699089D01*
X79480429Y-67699089D02*
X79480429Y-67460994D01*
X78480429Y-68365756D02*
X78480429Y-68984803D01*
X78480429Y-68984803D02*
X78861381Y-68651470D01*
X78861381Y-68651470D02*
X78861381Y-68794327D01*
X78861381Y-68794327D02*
X78909000Y-68889565D01*
X78909000Y-68889565D02*
X78956619Y-68937184D01*
X78956619Y-68937184D02*
X79051857Y-68984803D01*
X79051857Y-68984803D02*
X79289952Y-68984803D01*
X79289952Y-68984803D02*
X79385190Y-68937184D01*
X79385190Y-68937184D02*
X79432810Y-68889565D01*
X79432810Y-68889565D02*
X79480429Y-68794327D01*
X79480429Y-68794327D02*
X79480429Y-68508613D01*
X79480429Y-68508613D02*
X79432810Y-68413375D01*
X79432810Y-68413375D02*
X79385190Y-68365756D01*
X78909000Y-69556232D02*
X78861381Y-69460994D01*
X78861381Y-69460994D02*
X78813762Y-69413375D01*
X78813762Y-69413375D02*
X78718524Y-69365756D01*
X78718524Y-69365756D02*
X78670905Y-69365756D01*
X78670905Y-69365756D02*
X78575667Y-69413375D01*
X78575667Y-69413375D02*
X78528048Y-69460994D01*
X78528048Y-69460994D02*
X78480429Y-69556232D01*
X78480429Y-69556232D02*
X78480429Y-69746708D01*
X78480429Y-69746708D02*
X78528048Y-69841946D01*
X78528048Y-69841946D02*
X78575667Y-69889565D01*
X78575667Y-69889565D02*
X78670905Y-69937184D01*
X78670905Y-69937184D02*
X78718524Y-69937184D01*
X78718524Y-69937184D02*
X78813762Y-69889565D01*
X78813762Y-69889565D02*
X78861381Y-69841946D01*
X78861381Y-69841946D02*
X78909000Y-69746708D01*
X78909000Y-69746708D02*
X78909000Y-69556232D01*
X78909000Y-69556232D02*
X78956619Y-69460994D01*
X78956619Y-69460994D02*
X79004238Y-69413375D01*
X79004238Y-69413375D02*
X79099476Y-69365756D01*
X79099476Y-69365756D02*
X79289952Y-69365756D01*
X79289952Y-69365756D02*
X79385190Y-69413375D01*
X79385190Y-69413375D02*
X79432810Y-69460994D01*
X79432810Y-69460994D02*
X79480429Y-69556232D01*
X79480429Y-69556232D02*
X79480429Y-69746708D01*
X79480429Y-69746708D02*
X79432810Y-69841946D01*
X79432810Y-69841946D02*
X79385190Y-69889565D01*
X79385190Y-69889565D02*
X79289952Y-69937184D01*
X79289952Y-69937184D02*
X79099476Y-69937184D01*
X79099476Y-69937184D02*
X79004238Y-69889565D01*
X79004238Y-69889565D02*
X78956619Y-69841946D01*
X78956619Y-69841946D02*
X78909000Y-69746708D01*
X284162619Y-105560994D02*
X283162619Y-105560994D01*
X283162619Y-105560994D02*
X283162619Y-105799089D01*
X283162619Y-105799089D02*
X283210238Y-105941946D01*
X283210238Y-105941946D02*
X283305476Y-106037184D01*
X283305476Y-106037184D02*
X283400714Y-106084803D01*
X283400714Y-106084803D02*
X283591190Y-106132422D01*
X283591190Y-106132422D02*
X283734047Y-106132422D01*
X283734047Y-106132422D02*
X283924523Y-106084803D01*
X283924523Y-106084803D02*
X284019761Y-106037184D01*
X284019761Y-106037184D02*
X284115000Y-105941946D01*
X284115000Y-105941946D02*
X284162619Y-105799089D01*
X284162619Y-105799089D02*
X284162619Y-105560994D01*
X283162619Y-107037184D02*
X283162619Y-106560994D01*
X283162619Y-106560994D02*
X283638809Y-106513375D01*
X283638809Y-106513375D02*
X283591190Y-106560994D01*
X283591190Y-106560994D02*
X283543571Y-106656232D01*
X283543571Y-106656232D02*
X283543571Y-106894327D01*
X283543571Y-106894327D02*
X283591190Y-106989565D01*
X283591190Y-106989565D02*
X283638809Y-107037184D01*
X283638809Y-107037184D02*
X283734047Y-107084803D01*
X283734047Y-107084803D02*
X283972142Y-107084803D01*
X283972142Y-107084803D02*
X284067380Y-107037184D01*
X284067380Y-107037184D02*
X284115000Y-106989565D01*
X284115000Y-106989565D02*
X284162619Y-106894327D01*
X284162619Y-106894327D02*
X284162619Y-106656232D01*
X284162619Y-106656232D02*
X284115000Y-106560994D01*
X284115000Y-106560994D02*
X284067380Y-106513375D01*
X284162619Y-108037184D02*
X284162619Y-107465756D01*
X284162619Y-107751470D02*
X283162619Y-107751470D01*
X283162619Y-107751470D02*
X283305476Y-107656232D01*
X283305476Y-107656232D02*
X283400714Y-107560994D01*
X283400714Y-107560994D02*
X283448333Y-107465756D01*
X98530429Y-68510994D02*
X97530429Y-68510994D01*
X97530429Y-68510994D02*
X97530429Y-68749089D01*
X97530429Y-68749089D02*
X97578048Y-68891946D01*
X97578048Y-68891946D02*
X97673286Y-68987184D01*
X97673286Y-68987184D02*
X97768524Y-69034803D01*
X97768524Y-69034803D02*
X97959000Y-69082422D01*
X97959000Y-69082422D02*
X98101857Y-69082422D01*
X98101857Y-69082422D02*
X98292333Y-69034803D01*
X98292333Y-69034803D02*
X98387571Y-68987184D01*
X98387571Y-68987184D02*
X98482810Y-68891946D01*
X98482810Y-68891946D02*
X98530429Y-68749089D01*
X98530429Y-68749089D02*
X98530429Y-68510994D01*
X97530429Y-69415756D02*
X97530429Y-70034803D01*
X97530429Y-70034803D02*
X97911381Y-69701470D01*
X97911381Y-69701470D02*
X97911381Y-69844327D01*
X97911381Y-69844327D02*
X97959000Y-69939565D01*
X97959000Y-69939565D02*
X98006619Y-69987184D01*
X98006619Y-69987184D02*
X98101857Y-70034803D01*
X98101857Y-70034803D02*
X98339952Y-70034803D01*
X98339952Y-70034803D02*
X98435190Y-69987184D01*
X98435190Y-69987184D02*
X98482810Y-69939565D01*
X98482810Y-69939565D02*
X98530429Y-69844327D01*
X98530429Y-69844327D02*
X98530429Y-69558613D01*
X98530429Y-69558613D02*
X98482810Y-69463375D01*
X98482810Y-69463375D02*
X98435190Y-69415756D01*
X97530429Y-70368137D02*
X97530429Y-71034803D01*
X97530429Y-71034803D02*
X98530429Y-70606232D01*
X96149178Y-105560994D02*
X95149178Y-105560994D01*
X95149178Y-105560994D02*
X95149178Y-105799089D01*
X95149178Y-105799089D02*
X95196797Y-105941946D01*
X95196797Y-105941946D02*
X95292035Y-106037184D01*
X95292035Y-106037184D02*
X95387273Y-106084803D01*
X95387273Y-106084803D02*
X95577749Y-106132422D01*
X95577749Y-106132422D02*
X95720606Y-106132422D01*
X95720606Y-106132422D02*
X95911082Y-106084803D01*
X95911082Y-106084803D02*
X96006320Y-106037184D01*
X96006320Y-106037184D02*
X96101559Y-105941946D01*
X96101559Y-105941946D02*
X96149178Y-105799089D01*
X96149178Y-105799089D02*
X96149178Y-105560994D01*
X95149178Y-107037184D02*
X95149178Y-106560994D01*
X95149178Y-106560994D02*
X95625368Y-106513375D01*
X95625368Y-106513375D02*
X95577749Y-106560994D01*
X95577749Y-106560994D02*
X95530130Y-106656232D01*
X95530130Y-106656232D02*
X95530130Y-106894327D01*
X95530130Y-106894327D02*
X95577749Y-106989565D01*
X95577749Y-106989565D02*
X95625368Y-107037184D01*
X95625368Y-107037184D02*
X95720606Y-107084803D01*
X95720606Y-107084803D02*
X95958701Y-107084803D01*
X95958701Y-107084803D02*
X96053939Y-107037184D01*
X96053939Y-107037184D02*
X96101559Y-106989565D01*
X96101559Y-106989565D02*
X96149178Y-106894327D01*
X96149178Y-106894327D02*
X96149178Y-106656232D01*
X96149178Y-106656232D02*
X96101559Y-106560994D01*
X96101559Y-106560994D02*
X96053939Y-106513375D01*
X95149178Y-107418137D02*
X95149178Y-108084803D01*
X95149178Y-108084803D02*
X96149178Y-107656232D01*
X150917928Y-104370369D02*
X149917928Y-104370369D01*
X149917928Y-104370369D02*
X149917928Y-104608464D01*
X149917928Y-104608464D02*
X149965547Y-104751321D01*
X149965547Y-104751321D02*
X150060785Y-104846559D01*
X150060785Y-104846559D02*
X150156023Y-104894178D01*
X150156023Y-104894178D02*
X150346499Y-104941797D01*
X150346499Y-104941797D02*
X150489356Y-104941797D01*
X150489356Y-104941797D02*
X150679832Y-104894178D01*
X150679832Y-104894178D02*
X150775070Y-104846559D01*
X150775070Y-104846559D02*
X150870309Y-104751321D01*
X150870309Y-104751321D02*
X150917928Y-104608464D01*
X150917928Y-104608464D02*
X150917928Y-104370369D01*
X150013166Y-105322750D02*
X149965547Y-105370369D01*
X149965547Y-105370369D02*
X149917928Y-105465607D01*
X149917928Y-105465607D02*
X149917928Y-105703702D01*
X149917928Y-105703702D02*
X149965547Y-105798940D01*
X149965547Y-105798940D02*
X150013166Y-105846559D01*
X150013166Y-105846559D02*
X150108404Y-105894178D01*
X150108404Y-105894178D02*
X150203642Y-105894178D01*
X150203642Y-105894178D02*
X150346499Y-105846559D01*
X150346499Y-105846559D02*
X150917928Y-105275131D01*
X150917928Y-105275131D02*
X150917928Y-105894178D01*
X150013166Y-106275131D02*
X149965547Y-106322750D01*
X149965547Y-106322750D02*
X149917928Y-106417988D01*
X149917928Y-106417988D02*
X149917928Y-106656083D01*
X149917928Y-106656083D02*
X149965547Y-106751321D01*
X149965547Y-106751321D02*
X150013166Y-106798940D01*
X150013166Y-106798940D02*
X150108404Y-106846559D01*
X150108404Y-106846559D02*
X150203642Y-106846559D01*
X150203642Y-106846559D02*
X150346499Y-106798940D01*
X150346499Y-106798940D02*
X150917928Y-106227512D01*
X150917928Y-106227512D02*
X150917928Y-106846559D01*
X299712154Y-52469149D02*
X299712154Y-51469149D01*
X299712154Y-51945339D02*
X299140726Y-51945339D01*
X299140726Y-52469149D02*
X299140726Y-51469149D01*
X298140726Y-52469149D02*
X298712154Y-52469149D01*
X298426440Y-52469149D02*
X298426440Y-51469149D01*
X298426440Y-51469149D02*
X298521678Y-51612006D01*
X298521678Y-51612006D02*
X298616916Y-51707244D01*
X298616916Y-51707244D02*
X298712154Y-51754863D01*
X297521678Y-51469149D02*
X297426440Y-51469149D01*
X297426440Y-51469149D02*
X297331202Y-51516768D01*
X297331202Y-51516768D02*
X297283583Y-51564387D01*
X297283583Y-51564387D02*
X297235964Y-51659625D01*
X297235964Y-51659625D02*
X297188345Y-51850101D01*
X297188345Y-51850101D02*
X297188345Y-52088196D01*
X297188345Y-52088196D02*
X297235964Y-52278672D01*
X297235964Y-52278672D02*
X297283583Y-52373910D01*
X297283583Y-52373910D02*
X297331202Y-52421530D01*
X297331202Y-52421530D02*
X297426440Y-52469149D01*
X297426440Y-52469149D02*
X297521678Y-52469149D01*
X297521678Y-52469149D02*
X297616916Y-52421530D01*
X297616916Y-52421530D02*
X297664535Y-52373910D01*
X297664535Y-52373910D02*
X297712154Y-52278672D01*
X297712154Y-52278672D02*
X297759773Y-52088196D01*
X297759773Y-52088196D02*
X297759773Y-51850101D01*
X297759773Y-51850101D02*
X297712154Y-51659625D01*
X297712154Y-51659625D02*
X297664535Y-51564387D01*
X297664535Y-51564387D02*
X297616916Y-51516768D01*
X297616916Y-51516768D02*
X297521678Y-51469149D01*
X89005429Y-87560994D02*
X88005429Y-87560994D01*
X88005429Y-87560994D02*
X88005429Y-87799089D01*
X88005429Y-87799089D02*
X88053048Y-87941946D01*
X88053048Y-87941946D02*
X88148286Y-88037184D01*
X88148286Y-88037184D02*
X88243524Y-88084803D01*
X88243524Y-88084803D02*
X88434000Y-88132422D01*
X88434000Y-88132422D02*
X88576857Y-88132422D01*
X88576857Y-88132422D02*
X88767333Y-88084803D01*
X88767333Y-88084803D02*
X88862571Y-88037184D01*
X88862571Y-88037184D02*
X88957810Y-87941946D01*
X88957810Y-87941946D02*
X89005429Y-87799089D01*
X89005429Y-87799089D02*
X89005429Y-87560994D01*
X88338762Y-88989565D02*
X89005429Y-88989565D01*
X87957810Y-88751470D02*
X88672095Y-88513375D01*
X88672095Y-88513375D02*
X88672095Y-89132422D01*
X88005429Y-89418137D02*
X88005429Y-90084803D01*
X88005429Y-90084803D02*
X89005429Y-89656232D01*
X203305429Y-87560994D02*
X202305429Y-87560994D01*
X202305429Y-87560994D02*
X202305429Y-87799089D01*
X202305429Y-87799089D02*
X202353048Y-87941946D01*
X202353048Y-87941946D02*
X202448286Y-88037184D01*
X202448286Y-88037184D02*
X202543524Y-88084803D01*
X202543524Y-88084803D02*
X202734000Y-88132422D01*
X202734000Y-88132422D02*
X202876857Y-88132422D01*
X202876857Y-88132422D02*
X203067333Y-88084803D01*
X203067333Y-88084803D02*
X203162571Y-88037184D01*
X203162571Y-88037184D02*
X203257810Y-87941946D01*
X203257810Y-87941946D02*
X203305429Y-87799089D01*
X203305429Y-87799089D02*
X203305429Y-87560994D01*
X202638762Y-88989565D02*
X203305429Y-88989565D01*
X202257810Y-88751470D02*
X202972095Y-88513375D01*
X202972095Y-88513375D02*
X202972095Y-89132422D01*
X202305429Y-89989565D02*
X202305429Y-89513375D01*
X202305429Y-89513375D02*
X202781619Y-89465756D01*
X202781619Y-89465756D02*
X202734000Y-89513375D01*
X202734000Y-89513375D02*
X202686381Y-89608613D01*
X202686381Y-89608613D02*
X202686381Y-89846708D01*
X202686381Y-89846708D02*
X202734000Y-89941946D01*
X202734000Y-89941946D02*
X202781619Y-89989565D01*
X202781619Y-89989565D02*
X202876857Y-90037184D01*
X202876857Y-90037184D02*
X203114952Y-90037184D01*
X203114952Y-90037184D02*
X203210190Y-89989565D01*
X203210190Y-89989565D02*
X203257810Y-89941946D01*
X203257810Y-89941946D02*
X203305429Y-89846708D01*
X203305429Y-89846708D02*
X203305429Y-89608613D01*
X203305429Y-89608613D02*
X203257810Y-89513375D01*
X203257810Y-89513375D02*
X203210190Y-89465756D01*
X122342928Y-105560994D02*
X121342928Y-105560994D01*
X121342928Y-105560994D02*
X121342928Y-105799089D01*
X121342928Y-105799089D02*
X121390547Y-105941946D01*
X121390547Y-105941946D02*
X121485785Y-106037184D01*
X121485785Y-106037184D02*
X121581023Y-106084803D01*
X121581023Y-106084803D02*
X121771499Y-106132422D01*
X121771499Y-106132422D02*
X121914356Y-106132422D01*
X121914356Y-106132422D02*
X122104832Y-106084803D01*
X122104832Y-106084803D02*
X122200070Y-106037184D01*
X122200070Y-106037184D02*
X122295309Y-105941946D01*
X122295309Y-105941946D02*
X122342928Y-105799089D01*
X122342928Y-105799089D02*
X122342928Y-105560994D01*
X121342928Y-107037184D02*
X121342928Y-106560994D01*
X121342928Y-106560994D02*
X121819118Y-106513375D01*
X121819118Y-106513375D02*
X121771499Y-106560994D01*
X121771499Y-106560994D02*
X121723880Y-106656232D01*
X121723880Y-106656232D02*
X121723880Y-106894327D01*
X121723880Y-106894327D02*
X121771499Y-106989565D01*
X121771499Y-106989565D02*
X121819118Y-107037184D01*
X121819118Y-107037184D02*
X121914356Y-107084803D01*
X121914356Y-107084803D02*
X122152451Y-107084803D01*
X122152451Y-107084803D02*
X122247689Y-107037184D01*
X122247689Y-107037184D02*
X122295309Y-106989565D01*
X122295309Y-106989565D02*
X122342928Y-106894327D01*
X122342928Y-106894327D02*
X122342928Y-106656232D01*
X122342928Y-106656232D02*
X122295309Y-106560994D01*
X122295309Y-106560994D02*
X122247689Y-106513375D01*
X121342928Y-107941946D02*
X121342928Y-107751470D01*
X121342928Y-107751470D02*
X121390547Y-107656232D01*
X121390547Y-107656232D02*
X121438166Y-107608613D01*
X121438166Y-107608613D02*
X121581023Y-107513375D01*
X121581023Y-107513375D02*
X121771499Y-107465756D01*
X121771499Y-107465756D02*
X122152451Y-107465756D01*
X122152451Y-107465756D02*
X122247689Y-107513375D01*
X122247689Y-107513375D02*
X122295309Y-107560994D01*
X122295309Y-107560994D02*
X122342928Y-107656232D01*
X122342928Y-107656232D02*
X122342928Y-107846708D01*
X122342928Y-107846708D02*
X122295309Y-107941946D01*
X122295309Y-107941946D02*
X122247689Y-107989565D01*
X122247689Y-107989565D02*
X122152451Y-108037184D01*
X122152451Y-108037184D02*
X121914356Y-108037184D01*
X121914356Y-108037184D02*
X121819118Y-107989565D01*
X121819118Y-107989565D02*
X121771499Y-107941946D01*
X121771499Y-107941946D02*
X121723880Y-107846708D01*
X121723880Y-107846708D02*
X121723880Y-107656232D01*
X121723880Y-107656232D02*
X121771499Y-107560994D01*
X121771499Y-107560994D02*
X121819118Y-107513375D01*
X121819118Y-107513375D02*
X121914356Y-107465756D01*
X20634311Y-21024274D02*
X20634311Y-20024274D01*
X20634311Y-20500464D02*
X20062883Y-20500464D01*
X20062883Y-21024274D02*
X20062883Y-20024274D01*
X19158121Y-20024274D02*
X19348597Y-20024274D01*
X19348597Y-20024274D02*
X19443835Y-20071893D01*
X19443835Y-20071893D02*
X19491454Y-20119512D01*
X19491454Y-20119512D02*
X19586692Y-20262369D01*
X19586692Y-20262369D02*
X19634311Y-20452845D01*
X19634311Y-20452845D02*
X19634311Y-20833797D01*
X19634311Y-20833797D02*
X19586692Y-20929035D01*
X19586692Y-20929035D02*
X19539073Y-20976655D01*
X19539073Y-20976655D02*
X19443835Y-21024274D01*
X19443835Y-21024274D02*
X19253359Y-21024274D01*
X19253359Y-21024274D02*
X19158121Y-20976655D01*
X19158121Y-20976655D02*
X19110502Y-20929035D01*
X19110502Y-20929035D02*
X19062883Y-20833797D01*
X19062883Y-20833797D02*
X19062883Y-20595702D01*
X19062883Y-20595702D02*
X19110502Y-20500464D01*
X19110502Y-20500464D02*
X19158121Y-20452845D01*
X19158121Y-20452845D02*
X19253359Y-20405226D01*
X19253359Y-20405226D02*
X19443835Y-20405226D01*
X19443835Y-20405226D02*
X19539073Y-20452845D01*
X19539073Y-20452845D02*
X19586692Y-20500464D01*
X19586692Y-20500464D02*
X19634311Y-20595702D01*
X260455429Y-86510994D02*
X259455429Y-86510994D01*
X259455429Y-86510994D02*
X259455429Y-86749089D01*
X259455429Y-86749089D02*
X259503048Y-86891946D01*
X259503048Y-86891946D02*
X259598286Y-86987184D01*
X259598286Y-86987184D02*
X259693524Y-87034803D01*
X259693524Y-87034803D02*
X259884000Y-87082422D01*
X259884000Y-87082422D02*
X260026857Y-87082422D01*
X260026857Y-87082422D02*
X260217333Y-87034803D01*
X260217333Y-87034803D02*
X260312571Y-86987184D01*
X260312571Y-86987184D02*
X260407810Y-86891946D01*
X260407810Y-86891946D02*
X260455429Y-86749089D01*
X260455429Y-86749089D02*
X260455429Y-86510994D01*
X260455429Y-87558613D02*
X260455429Y-87749089D01*
X260455429Y-87749089D02*
X260407810Y-87844327D01*
X260407810Y-87844327D02*
X260360190Y-87891946D01*
X260360190Y-87891946D02*
X260217333Y-87987184D01*
X260217333Y-87987184D02*
X260026857Y-88034803D01*
X260026857Y-88034803D02*
X259645905Y-88034803D01*
X259645905Y-88034803D02*
X259550667Y-87987184D01*
X259550667Y-87987184D02*
X259503048Y-87939565D01*
X259503048Y-87939565D02*
X259455429Y-87844327D01*
X259455429Y-87844327D02*
X259455429Y-87653851D01*
X259455429Y-87653851D02*
X259503048Y-87558613D01*
X259503048Y-87558613D02*
X259550667Y-87510994D01*
X259550667Y-87510994D02*
X259645905Y-87463375D01*
X259645905Y-87463375D02*
X259884000Y-87463375D01*
X259884000Y-87463375D02*
X259979238Y-87510994D01*
X259979238Y-87510994D02*
X260026857Y-87558613D01*
X260026857Y-87558613D02*
X260074476Y-87653851D01*
X260074476Y-87653851D02*
X260074476Y-87844327D01*
X260074476Y-87844327D02*
X260026857Y-87939565D01*
X260026857Y-87939565D02*
X259979238Y-87987184D01*
X259979238Y-87987184D02*
X259884000Y-88034803D01*
X259455429Y-88368137D02*
X259455429Y-88987184D01*
X259455429Y-88987184D02*
X259836381Y-88653851D01*
X259836381Y-88653851D02*
X259836381Y-88796708D01*
X259836381Y-88796708D02*
X259884000Y-88891946D01*
X259884000Y-88891946D02*
X259931619Y-88939565D01*
X259931619Y-88939565D02*
X260026857Y-88987184D01*
X260026857Y-88987184D02*
X260264952Y-88987184D01*
X260264952Y-88987184D02*
X260360190Y-88939565D01*
X260360190Y-88939565D02*
X260407810Y-88891946D01*
X260407810Y-88891946D02*
X260455429Y-88796708D01*
X260455429Y-88796708D02*
X260455429Y-88510994D01*
X260455429Y-88510994D02*
X260407810Y-88415756D01*
X260407810Y-88415756D02*
X260360190Y-88368137D01*
X36617928Y-104370369D02*
X35617928Y-104370369D01*
X35617928Y-104370369D02*
X35617928Y-104608464D01*
X35617928Y-104608464D02*
X35665547Y-104751321D01*
X35665547Y-104751321D02*
X35760785Y-104846559D01*
X35760785Y-104846559D02*
X35856023Y-104894178D01*
X35856023Y-104894178D02*
X36046499Y-104941797D01*
X36046499Y-104941797D02*
X36189356Y-104941797D01*
X36189356Y-104941797D02*
X36379832Y-104894178D01*
X36379832Y-104894178D02*
X36475070Y-104846559D01*
X36475070Y-104846559D02*
X36570309Y-104751321D01*
X36570309Y-104751321D02*
X36617928Y-104608464D01*
X36617928Y-104608464D02*
X36617928Y-104370369D01*
X35617928Y-105846559D02*
X35617928Y-105370369D01*
X35617928Y-105370369D02*
X36094118Y-105322750D01*
X36094118Y-105322750D02*
X36046499Y-105370369D01*
X36046499Y-105370369D02*
X35998880Y-105465607D01*
X35998880Y-105465607D02*
X35998880Y-105703702D01*
X35998880Y-105703702D02*
X36046499Y-105798940D01*
X36046499Y-105798940D02*
X36094118Y-105846559D01*
X36094118Y-105846559D02*
X36189356Y-105894178D01*
X36189356Y-105894178D02*
X36427451Y-105894178D01*
X36427451Y-105894178D02*
X36522689Y-105846559D01*
X36522689Y-105846559D02*
X36570309Y-105798940D01*
X36570309Y-105798940D02*
X36617928Y-105703702D01*
X36617928Y-105703702D02*
X36617928Y-105465607D01*
X36617928Y-105465607D02*
X36570309Y-105370369D01*
X36570309Y-105370369D02*
X36522689Y-105322750D01*
X36617928Y-106370369D02*
X36617928Y-106560845D01*
X36617928Y-106560845D02*
X36570309Y-106656083D01*
X36570309Y-106656083D02*
X36522689Y-106703702D01*
X36522689Y-106703702D02*
X36379832Y-106798940D01*
X36379832Y-106798940D02*
X36189356Y-106846559D01*
X36189356Y-106846559D02*
X35808404Y-106846559D01*
X35808404Y-106846559D02*
X35713166Y-106798940D01*
X35713166Y-106798940D02*
X35665547Y-106751321D01*
X35665547Y-106751321D02*
X35617928Y-106656083D01*
X35617928Y-106656083D02*
X35617928Y-106465607D01*
X35617928Y-106465607D02*
X35665547Y-106370369D01*
X35665547Y-106370369D02*
X35713166Y-106322750D01*
X35713166Y-106322750D02*
X35808404Y-106275131D01*
X35808404Y-106275131D02*
X36046499Y-106275131D01*
X36046499Y-106275131D02*
X36141737Y-106322750D01*
X36141737Y-106322750D02*
X36189356Y-106370369D01*
X36189356Y-106370369D02*
X36236975Y-106465607D01*
X36236975Y-106465607D02*
X36236975Y-106656083D01*
X36236975Y-106656083D02*
X36189356Y-106751321D01*
X36189356Y-106751321D02*
X36141737Y-106798940D01*
X36141737Y-106798940D02*
X36046499Y-106846559D01*
X231880429Y-67460994D02*
X230880429Y-67460994D01*
X230880429Y-67460994D02*
X230880429Y-67699089D01*
X230880429Y-67699089D02*
X230928048Y-67841946D01*
X230928048Y-67841946D02*
X231023286Y-67937184D01*
X231023286Y-67937184D02*
X231118524Y-67984803D01*
X231118524Y-67984803D02*
X231309000Y-68032422D01*
X231309000Y-68032422D02*
X231451857Y-68032422D01*
X231451857Y-68032422D02*
X231642333Y-67984803D01*
X231642333Y-67984803D02*
X231737571Y-67937184D01*
X231737571Y-67937184D02*
X231832810Y-67841946D01*
X231832810Y-67841946D02*
X231880429Y-67699089D01*
X231880429Y-67699089D02*
X231880429Y-67460994D01*
X230880429Y-68365756D02*
X230880429Y-68984803D01*
X230880429Y-68984803D02*
X231261381Y-68651470D01*
X231261381Y-68651470D02*
X231261381Y-68794327D01*
X231261381Y-68794327D02*
X231309000Y-68889565D01*
X231309000Y-68889565D02*
X231356619Y-68937184D01*
X231356619Y-68937184D02*
X231451857Y-68984803D01*
X231451857Y-68984803D02*
X231689952Y-68984803D01*
X231689952Y-68984803D02*
X231785190Y-68937184D01*
X231785190Y-68937184D02*
X231832810Y-68889565D01*
X231832810Y-68889565D02*
X231880429Y-68794327D01*
X231880429Y-68794327D02*
X231880429Y-68508613D01*
X231880429Y-68508613D02*
X231832810Y-68413375D01*
X231832810Y-68413375D02*
X231785190Y-68365756D01*
X231213762Y-69841946D02*
X231880429Y-69841946D01*
X230832810Y-69603851D02*
X231547095Y-69365756D01*
X231547095Y-69365756D02*
X231547095Y-69984803D01*
X241405429Y-87560994D02*
X240405429Y-87560994D01*
X240405429Y-87560994D02*
X240405429Y-87799089D01*
X240405429Y-87799089D02*
X240453048Y-87941946D01*
X240453048Y-87941946D02*
X240548286Y-88037184D01*
X240548286Y-88037184D02*
X240643524Y-88084803D01*
X240643524Y-88084803D02*
X240834000Y-88132422D01*
X240834000Y-88132422D02*
X240976857Y-88132422D01*
X240976857Y-88132422D02*
X241167333Y-88084803D01*
X241167333Y-88084803D02*
X241262571Y-88037184D01*
X241262571Y-88037184D02*
X241357810Y-87941946D01*
X241357810Y-87941946D02*
X241405429Y-87799089D01*
X241405429Y-87799089D02*
X241405429Y-87560994D01*
X241405429Y-88608613D02*
X241405429Y-88799089D01*
X241405429Y-88799089D02*
X241357810Y-88894327D01*
X241357810Y-88894327D02*
X241310190Y-88941946D01*
X241310190Y-88941946D02*
X241167333Y-89037184D01*
X241167333Y-89037184D02*
X240976857Y-89084803D01*
X240976857Y-89084803D02*
X240595905Y-89084803D01*
X240595905Y-89084803D02*
X240500667Y-89037184D01*
X240500667Y-89037184D02*
X240453048Y-88989565D01*
X240453048Y-88989565D02*
X240405429Y-88894327D01*
X240405429Y-88894327D02*
X240405429Y-88703851D01*
X240405429Y-88703851D02*
X240453048Y-88608613D01*
X240453048Y-88608613D02*
X240500667Y-88560994D01*
X240500667Y-88560994D02*
X240595905Y-88513375D01*
X240595905Y-88513375D02*
X240834000Y-88513375D01*
X240834000Y-88513375D02*
X240929238Y-88560994D01*
X240929238Y-88560994D02*
X240976857Y-88608613D01*
X240976857Y-88608613D02*
X241024476Y-88703851D01*
X241024476Y-88703851D02*
X241024476Y-88894327D01*
X241024476Y-88894327D02*
X240976857Y-88989565D01*
X240976857Y-88989565D02*
X240929238Y-89037184D01*
X240929238Y-89037184D02*
X240834000Y-89084803D01*
X240738762Y-89941946D02*
X241405429Y-89941946D01*
X240357810Y-89703851D02*
X241072095Y-89465756D01*
X241072095Y-89465756D02*
X241072095Y-90084803D01*
X215211678Y-105560994D02*
X214211678Y-105560994D01*
X214211678Y-105560994D02*
X214211678Y-105799089D01*
X214211678Y-105799089D02*
X214259297Y-105941946D01*
X214259297Y-105941946D02*
X214354535Y-106037184D01*
X214354535Y-106037184D02*
X214449773Y-106084803D01*
X214449773Y-106084803D02*
X214640249Y-106132422D01*
X214640249Y-106132422D02*
X214783106Y-106132422D01*
X214783106Y-106132422D02*
X214973582Y-106084803D01*
X214973582Y-106084803D02*
X215068820Y-106037184D01*
X215068820Y-106037184D02*
X215164059Y-105941946D01*
X215164059Y-105941946D02*
X215211678Y-105799089D01*
X215211678Y-105799089D02*
X215211678Y-105560994D01*
X215211678Y-106608613D02*
X215211678Y-106799089D01*
X215211678Y-106799089D02*
X215164059Y-106894327D01*
X215164059Y-106894327D02*
X215116439Y-106941946D01*
X215116439Y-106941946D02*
X214973582Y-107037184D01*
X214973582Y-107037184D02*
X214783106Y-107084803D01*
X214783106Y-107084803D02*
X214402154Y-107084803D01*
X214402154Y-107084803D02*
X214306916Y-107037184D01*
X214306916Y-107037184D02*
X214259297Y-106989565D01*
X214259297Y-106989565D02*
X214211678Y-106894327D01*
X214211678Y-106894327D02*
X214211678Y-106703851D01*
X214211678Y-106703851D02*
X214259297Y-106608613D01*
X214259297Y-106608613D02*
X214306916Y-106560994D01*
X214306916Y-106560994D02*
X214402154Y-106513375D01*
X214402154Y-106513375D02*
X214640249Y-106513375D01*
X214640249Y-106513375D02*
X214735487Y-106560994D01*
X214735487Y-106560994D02*
X214783106Y-106608613D01*
X214783106Y-106608613D02*
X214830725Y-106703851D01*
X214830725Y-106703851D02*
X214830725Y-106894327D01*
X214830725Y-106894327D02*
X214783106Y-106989565D01*
X214783106Y-106989565D02*
X214735487Y-107037184D01*
X214735487Y-107037184D02*
X214640249Y-107084803D01*
X214211678Y-107941946D02*
X214211678Y-107751470D01*
X214211678Y-107751470D02*
X214259297Y-107656232D01*
X214259297Y-107656232D02*
X214306916Y-107608613D01*
X214306916Y-107608613D02*
X214449773Y-107513375D01*
X214449773Y-107513375D02*
X214640249Y-107465756D01*
X214640249Y-107465756D02*
X215021201Y-107465756D01*
X215021201Y-107465756D02*
X215116439Y-107513375D01*
X215116439Y-107513375D02*
X215164059Y-107560994D01*
X215164059Y-107560994D02*
X215211678Y-107656232D01*
X215211678Y-107656232D02*
X215211678Y-107846708D01*
X215211678Y-107846708D02*
X215164059Y-107941946D01*
X215164059Y-107941946D02*
X215116439Y-107989565D01*
X215116439Y-107989565D02*
X215021201Y-108037184D01*
X215021201Y-108037184D02*
X214783106Y-108037184D01*
X214783106Y-108037184D02*
X214687868Y-107989565D01*
X214687868Y-107989565D02*
X214640249Y-107941946D01*
X214640249Y-107941946D02*
X214592630Y-107846708D01*
X214592630Y-107846708D02*
X214592630Y-107656232D01*
X214592630Y-107656232D02*
X214640249Y-107560994D01*
X214640249Y-107560994D02*
X214687868Y-107513375D01*
X214687868Y-107513375D02*
X214783106Y-107465756D01*
X159932839Y-21024274D02*
X159932839Y-20024274D01*
X159932839Y-20500464D02*
X159361411Y-20500464D01*
X159361411Y-21024274D02*
X159361411Y-20024274D01*
X158742363Y-20452845D02*
X158837601Y-20405226D01*
X158837601Y-20405226D02*
X158885220Y-20357607D01*
X158885220Y-20357607D02*
X158932839Y-20262369D01*
X158932839Y-20262369D02*
X158932839Y-20214750D01*
X158932839Y-20214750D02*
X158885220Y-20119512D01*
X158885220Y-20119512D02*
X158837601Y-20071893D01*
X158837601Y-20071893D02*
X158742363Y-20024274D01*
X158742363Y-20024274D02*
X158551887Y-20024274D01*
X158551887Y-20024274D02*
X158456649Y-20071893D01*
X158456649Y-20071893D02*
X158409030Y-20119512D01*
X158409030Y-20119512D02*
X158361411Y-20214750D01*
X158361411Y-20214750D02*
X158361411Y-20262369D01*
X158361411Y-20262369D02*
X158409030Y-20357607D01*
X158409030Y-20357607D02*
X158456649Y-20405226D01*
X158456649Y-20405226D02*
X158551887Y-20452845D01*
X158551887Y-20452845D02*
X158742363Y-20452845D01*
X158742363Y-20452845D02*
X158837601Y-20500464D01*
X158837601Y-20500464D02*
X158885220Y-20548083D01*
X158885220Y-20548083D02*
X158932839Y-20643321D01*
X158932839Y-20643321D02*
X158932839Y-20833797D01*
X158932839Y-20833797D02*
X158885220Y-20929035D01*
X158885220Y-20929035D02*
X158837601Y-20976655D01*
X158837601Y-20976655D02*
X158742363Y-21024274D01*
X158742363Y-21024274D02*
X158551887Y-21024274D01*
X158551887Y-21024274D02*
X158456649Y-20976655D01*
X158456649Y-20976655D02*
X158409030Y-20929035D01*
X158409030Y-20929035D02*
X158361411Y-20833797D01*
X158361411Y-20833797D02*
X158361411Y-20643321D01*
X158361411Y-20643321D02*
X158409030Y-20548083D01*
X158409030Y-20548083D02*
X158456649Y-20500464D01*
X158456649Y-20500464D02*
X158551887Y-20452845D01*
X222355429Y-86510994D02*
X221355429Y-86510994D01*
X221355429Y-86510994D02*
X221355429Y-86749089D01*
X221355429Y-86749089D02*
X221403048Y-86891946D01*
X221403048Y-86891946D02*
X221498286Y-86987184D01*
X221498286Y-86987184D02*
X221593524Y-87034803D01*
X221593524Y-87034803D02*
X221784000Y-87082422D01*
X221784000Y-87082422D02*
X221926857Y-87082422D01*
X221926857Y-87082422D02*
X222117333Y-87034803D01*
X222117333Y-87034803D02*
X222212571Y-86987184D01*
X222212571Y-86987184D02*
X222307810Y-86891946D01*
X222307810Y-86891946D02*
X222355429Y-86749089D01*
X222355429Y-86749089D02*
X222355429Y-86510994D01*
X221688762Y-87939565D02*
X222355429Y-87939565D01*
X221307810Y-87701470D02*
X222022095Y-87463375D01*
X222022095Y-87463375D02*
X222022095Y-88082422D01*
X221355429Y-88368137D02*
X221355429Y-88987184D01*
X221355429Y-88987184D02*
X221736381Y-88653851D01*
X221736381Y-88653851D02*
X221736381Y-88796708D01*
X221736381Y-88796708D02*
X221784000Y-88891946D01*
X221784000Y-88891946D02*
X221831619Y-88939565D01*
X221831619Y-88939565D02*
X221926857Y-88987184D01*
X221926857Y-88987184D02*
X222164952Y-88987184D01*
X222164952Y-88987184D02*
X222260190Y-88939565D01*
X222260190Y-88939565D02*
X222307810Y-88891946D01*
X222307810Y-88891946D02*
X222355429Y-88796708D01*
X222355429Y-88796708D02*
X222355429Y-88510994D01*
X222355429Y-88510994D02*
X222307810Y-88415756D01*
X222307810Y-88415756D02*
X222260190Y-88368137D01*
X74207839Y-28656649D02*
X74207839Y-27656649D01*
X74207839Y-28132839D02*
X73636411Y-28132839D01*
X73636411Y-28656649D02*
X73636411Y-27656649D01*
X73255458Y-27656649D02*
X72588792Y-27656649D01*
X72588792Y-27656649D02*
X73017363Y-28656649D01*
X198509029Y-52516024D02*
X198509029Y-51516024D01*
X198509029Y-51992214D02*
X197937601Y-51992214D01*
X197937601Y-52516024D02*
X197937601Y-51516024D01*
X196937601Y-52516024D02*
X197509029Y-52516024D01*
X197223315Y-52516024D02*
X197223315Y-51516024D01*
X197223315Y-51516024D02*
X197318553Y-51658881D01*
X197318553Y-51658881D02*
X197413791Y-51754119D01*
X197413791Y-51754119D02*
X197509029Y-51801738D01*
X196080458Y-51849357D02*
X196080458Y-52516024D01*
X196318553Y-51468405D02*
X196556648Y-52182690D01*
X196556648Y-52182690D02*
X195937601Y-52182690D01*
X279505429Y-106610994D02*
X278505429Y-106610994D01*
X278505429Y-106610994D02*
X278505429Y-106849089D01*
X278505429Y-106849089D02*
X278553048Y-106991946D01*
X278553048Y-106991946D02*
X278648286Y-107087184D01*
X278648286Y-107087184D02*
X278743524Y-107134803D01*
X278743524Y-107134803D02*
X278934000Y-107182422D01*
X278934000Y-107182422D02*
X279076857Y-107182422D01*
X279076857Y-107182422D02*
X279267333Y-107134803D01*
X279267333Y-107134803D02*
X279362571Y-107087184D01*
X279362571Y-107087184D02*
X279457810Y-106991946D01*
X279457810Y-106991946D02*
X279505429Y-106849089D01*
X279505429Y-106849089D02*
X279505429Y-106610994D01*
X278505429Y-108087184D02*
X278505429Y-107610994D01*
X278505429Y-107610994D02*
X278981619Y-107563375D01*
X278981619Y-107563375D02*
X278934000Y-107610994D01*
X278934000Y-107610994D02*
X278886381Y-107706232D01*
X278886381Y-107706232D02*
X278886381Y-107944327D01*
X278886381Y-107944327D02*
X278934000Y-108039565D01*
X278934000Y-108039565D02*
X278981619Y-108087184D01*
X278981619Y-108087184D02*
X279076857Y-108134803D01*
X279076857Y-108134803D02*
X279314952Y-108134803D01*
X279314952Y-108134803D02*
X279410190Y-108087184D01*
X279410190Y-108087184D02*
X279457810Y-108039565D01*
X279457810Y-108039565D02*
X279505429Y-107944327D01*
X279505429Y-107944327D02*
X279505429Y-107706232D01*
X279505429Y-107706232D02*
X279457810Y-107610994D01*
X279457810Y-107610994D02*
X279410190Y-107563375D01*
X278600667Y-108515756D02*
X278553048Y-108563375D01*
X278553048Y-108563375D02*
X278505429Y-108658613D01*
X278505429Y-108658613D02*
X278505429Y-108896708D01*
X278505429Y-108896708D02*
X278553048Y-108991946D01*
X278553048Y-108991946D02*
X278600667Y-109039565D01*
X278600667Y-109039565D02*
X278695905Y-109087184D01*
X278695905Y-109087184D02*
X278791143Y-109087184D01*
X278791143Y-109087184D02*
X278934000Y-109039565D01*
X278934000Y-109039565D02*
X279505429Y-108468137D01*
X279505429Y-108468137D02*
X279505429Y-109087184D01*
X212830429Y-68510994D02*
X211830429Y-68510994D01*
X211830429Y-68510994D02*
X211830429Y-68749089D01*
X211830429Y-68749089D02*
X211878048Y-68891946D01*
X211878048Y-68891946D02*
X211973286Y-68987184D01*
X211973286Y-68987184D02*
X212068524Y-69034803D01*
X212068524Y-69034803D02*
X212259000Y-69082422D01*
X212259000Y-69082422D02*
X212401857Y-69082422D01*
X212401857Y-69082422D02*
X212592333Y-69034803D01*
X212592333Y-69034803D02*
X212687571Y-68987184D01*
X212687571Y-68987184D02*
X212782810Y-68891946D01*
X212782810Y-68891946D02*
X212830429Y-68749089D01*
X212830429Y-68749089D02*
X212830429Y-68510994D01*
X211830429Y-69415756D02*
X211830429Y-70034803D01*
X211830429Y-70034803D02*
X212211381Y-69701470D01*
X212211381Y-69701470D02*
X212211381Y-69844327D01*
X212211381Y-69844327D02*
X212259000Y-69939565D01*
X212259000Y-69939565D02*
X212306619Y-69987184D01*
X212306619Y-69987184D02*
X212401857Y-70034803D01*
X212401857Y-70034803D02*
X212639952Y-70034803D01*
X212639952Y-70034803D02*
X212735190Y-69987184D01*
X212735190Y-69987184D02*
X212782810Y-69939565D01*
X212782810Y-69939565D02*
X212830429Y-69844327D01*
X212830429Y-69844327D02*
X212830429Y-69558613D01*
X212830429Y-69558613D02*
X212782810Y-69463375D01*
X212782810Y-69463375D02*
X212735190Y-69415756D01*
X211830429Y-70939565D02*
X211830429Y-70463375D01*
X211830429Y-70463375D02*
X212306619Y-70415756D01*
X212306619Y-70415756D02*
X212259000Y-70463375D01*
X212259000Y-70463375D02*
X212211381Y-70558613D01*
X212211381Y-70558613D02*
X212211381Y-70796708D01*
X212211381Y-70796708D02*
X212259000Y-70891946D01*
X212259000Y-70891946D02*
X212306619Y-70939565D01*
X212306619Y-70939565D02*
X212401857Y-70987184D01*
X212401857Y-70987184D02*
X212639952Y-70987184D01*
X212639952Y-70987184D02*
X212735190Y-70939565D01*
X212735190Y-70939565D02*
X212782810Y-70891946D01*
X212782810Y-70891946D02*
X212830429Y-70796708D01*
X212830429Y-70796708D02*
X212830429Y-70558613D01*
X212830429Y-70558613D02*
X212782810Y-70463375D01*
X212782810Y-70463375D02*
X212735190Y-70415756D01*
X250930429Y-68510994D02*
X249930429Y-68510994D01*
X249930429Y-68510994D02*
X249930429Y-68749089D01*
X249930429Y-68749089D02*
X249978048Y-68891946D01*
X249978048Y-68891946D02*
X250073286Y-68987184D01*
X250073286Y-68987184D02*
X250168524Y-69034803D01*
X250168524Y-69034803D02*
X250359000Y-69082422D01*
X250359000Y-69082422D02*
X250501857Y-69082422D01*
X250501857Y-69082422D02*
X250692333Y-69034803D01*
X250692333Y-69034803D02*
X250787571Y-68987184D01*
X250787571Y-68987184D02*
X250882810Y-68891946D01*
X250882810Y-68891946D02*
X250930429Y-68749089D01*
X250930429Y-68749089D02*
X250930429Y-68510994D01*
X250359000Y-69653851D02*
X250311381Y-69558613D01*
X250311381Y-69558613D02*
X250263762Y-69510994D01*
X250263762Y-69510994D02*
X250168524Y-69463375D01*
X250168524Y-69463375D02*
X250120905Y-69463375D01*
X250120905Y-69463375D02*
X250025667Y-69510994D01*
X250025667Y-69510994D02*
X249978048Y-69558613D01*
X249978048Y-69558613D02*
X249930429Y-69653851D01*
X249930429Y-69653851D02*
X249930429Y-69844327D01*
X249930429Y-69844327D02*
X249978048Y-69939565D01*
X249978048Y-69939565D02*
X250025667Y-69987184D01*
X250025667Y-69987184D02*
X250120905Y-70034803D01*
X250120905Y-70034803D02*
X250168524Y-70034803D01*
X250168524Y-70034803D02*
X250263762Y-69987184D01*
X250263762Y-69987184D02*
X250311381Y-69939565D01*
X250311381Y-69939565D02*
X250359000Y-69844327D01*
X250359000Y-69844327D02*
X250359000Y-69653851D01*
X250359000Y-69653851D02*
X250406619Y-69558613D01*
X250406619Y-69558613D02*
X250454238Y-69510994D01*
X250454238Y-69510994D02*
X250549476Y-69463375D01*
X250549476Y-69463375D02*
X250739952Y-69463375D01*
X250739952Y-69463375D02*
X250835190Y-69510994D01*
X250835190Y-69510994D02*
X250882810Y-69558613D01*
X250882810Y-69558613D02*
X250930429Y-69653851D01*
X250930429Y-69653851D02*
X250930429Y-69844327D01*
X250930429Y-69844327D02*
X250882810Y-69939565D01*
X250882810Y-69939565D02*
X250835190Y-69987184D01*
X250835190Y-69987184D02*
X250739952Y-70034803D01*
X250739952Y-70034803D02*
X250549476Y-70034803D01*
X250549476Y-70034803D02*
X250454238Y-69987184D01*
X250454238Y-69987184D02*
X250406619Y-69939565D01*
X250406619Y-69939565D02*
X250359000Y-69844327D01*
X250263762Y-70891946D02*
X250930429Y-70891946D01*
X249882810Y-70653851D02*
X250597095Y-70415756D01*
X250597095Y-70415756D02*
X250597095Y-71034803D01*
X189017929Y-104370369D02*
X188017929Y-104370369D01*
X188017929Y-104370369D02*
X188017929Y-104608464D01*
X188017929Y-104608464D02*
X188065548Y-104751321D01*
X188065548Y-104751321D02*
X188160786Y-104846559D01*
X188160786Y-104846559D02*
X188256024Y-104894178D01*
X188256024Y-104894178D02*
X188446500Y-104941797D01*
X188446500Y-104941797D02*
X188589357Y-104941797D01*
X188589357Y-104941797D02*
X188779833Y-104894178D01*
X188779833Y-104894178D02*
X188875071Y-104846559D01*
X188875071Y-104846559D02*
X188970310Y-104751321D01*
X188970310Y-104751321D02*
X189017929Y-104608464D01*
X189017929Y-104608464D02*
X189017929Y-104370369D01*
X188351262Y-105798940D02*
X189017929Y-105798940D01*
X187970310Y-105560845D02*
X188684595Y-105322750D01*
X188684595Y-105322750D02*
X188684595Y-105941797D01*
X188017929Y-106513226D02*
X188017929Y-106608464D01*
X188017929Y-106608464D02*
X188065548Y-106703702D01*
X188065548Y-106703702D02*
X188113167Y-106751321D01*
X188113167Y-106751321D02*
X188208405Y-106798940D01*
X188208405Y-106798940D02*
X188398881Y-106846559D01*
X188398881Y-106846559D02*
X188636976Y-106846559D01*
X188636976Y-106846559D02*
X188827452Y-106798940D01*
X188827452Y-106798940D02*
X188922690Y-106751321D01*
X188922690Y-106751321D02*
X188970310Y-106703702D01*
X188970310Y-106703702D02*
X189017929Y-106608464D01*
X189017929Y-106608464D02*
X189017929Y-106513226D01*
X189017929Y-106513226D02*
X188970310Y-106417988D01*
X188970310Y-106417988D02*
X188922690Y-106370369D01*
X188922690Y-106370369D02*
X188827452Y-106322750D01*
X188827452Y-106322750D02*
X188636976Y-106275131D01*
X188636976Y-106275131D02*
X188398881Y-106275131D01*
X188398881Y-106275131D02*
X188208405Y-106322750D01*
X188208405Y-106322750D02*
X188113167Y-106370369D01*
X188113167Y-106370369D02*
X188065548Y-106417988D01*
X188065548Y-106417988D02*
X188017929Y-106513226D01*
X279505429Y-87560994D02*
X278505429Y-87560994D01*
X278505429Y-87560994D02*
X278505429Y-87799089D01*
X278505429Y-87799089D02*
X278553048Y-87941946D01*
X278553048Y-87941946D02*
X278648286Y-88037184D01*
X278648286Y-88037184D02*
X278743524Y-88084803D01*
X278743524Y-88084803D02*
X278934000Y-88132422D01*
X278934000Y-88132422D02*
X279076857Y-88132422D01*
X279076857Y-88132422D02*
X279267333Y-88084803D01*
X279267333Y-88084803D02*
X279362571Y-88037184D01*
X279362571Y-88037184D02*
X279457810Y-87941946D01*
X279457810Y-87941946D02*
X279505429Y-87799089D01*
X279505429Y-87799089D02*
X279505429Y-87560994D01*
X278838762Y-88989565D02*
X279505429Y-88989565D01*
X278457810Y-88751470D02*
X279172095Y-88513375D01*
X279172095Y-88513375D02*
X279172095Y-89132422D01*
X279505429Y-90037184D02*
X279505429Y-89465756D01*
X279505429Y-89751470D02*
X278505429Y-89751470D01*
X278505429Y-89751470D02*
X278648286Y-89656232D01*
X278648286Y-89656232D02*
X278743524Y-89560994D01*
X278743524Y-89560994D02*
X278791143Y-89465756D01*
X135405904Y-75091024D02*
X135405904Y-74091024D01*
X135405904Y-74567214D02*
X134834476Y-74567214D01*
X134834476Y-75091024D02*
X134834476Y-74091024D01*
X133929714Y-74424357D02*
X133929714Y-75091024D01*
X134167809Y-74043405D02*
X134405904Y-74757690D01*
X134405904Y-74757690D02*
X133786857Y-74757690D01*
X133215428Y-74091024D02*
X133120190Y-74091024D01*
X133120190Y-74091024D02*
X133024952Y-74138643D01*
X133024952Y-74138643D02*
X132977333Y-74186262D01*
X132977333Y-74186262D02*
X132929714Y-74281500D01*
X132929714Y-74281500D02*
X132882095Y-74471976D01*
X132882095Y-74471976D02*
X132882095Y-74710071D01*
X132882095Y-74710071D02*
X132929714Y-74900547D01*
X132929714Y-74900547D02*
X132977333Y-74995785D01*
X132977333Y-74995785D02*
X133024952Y-75043405D01*
X133024952Y-75043405D02*
X133120190Y-75091024D01*
X133120190Y-75091024D02*
X133215428Y-75091024D01*
X133215428Y-75091024D02*
X133310666Y-75043405D01*
X133310666Y-75043405D02*
X133358285Y-74995785D01*
X133358285Y-74995785D02*
X133405904Y-74900547D01*
X133405904Y-74900547D02*
X133453523Y-74710071D01*
X133453523Y-74710071D02*
X133453523Y-74471976D01*
X133453523Y-74471976D02*
X133405904Y-74281500D01*
X133405904Y-74281500D02*
X133358285Y-74186262D01*
X133358285Y-74186262D02*
X133310666Y-74138643D01*
X133310666Y-74138643D02*
X133215428Y-74091024D01*
X245657839Y-28656649D02*
X245657839Y-27656649D01*
X245657839Y-28132839D02*
X245086411Y-28132839D01*
X245086411Y-28656649D02*
X245086411Y-27656649D01*
X244562601Y-28656649D02*
X244372125Y-28656649D01*
X244372125Y-28656649D02*
X244276887Y-28609030D01*
X244276887Y-28609030D02*
X244229268Y-28561410D01*
X244229268Y-28561410D02*
X244134030Y-28418553D01*
X244134030Y-28418553D02*
X244086411Y-28228077D01*
X244086411Y-28228077D02*
X244086411Y-27847125D01*
X244086411Y-27847125D02*
X244134030Y-27751887D01*
X244134030Y-27751887D02*
X244181649Y-27704268D01*
X244181649Y-27704268D02*
X244276887Y-27656649D01*
X244276887Y-27656649D02*
X244467363Y-27656649D01*
X244467363Y-27656649D02*
X244562601Y-27704268D01*
X244562601Y-27704268D02*
X244610220Y-27751887D01*
X244610220Y-27751887D02*
X244657839Y-27847125D01*
X244657839Y-27847125D02*
X244657839Y-28085220D01*
X244657839Y-28085220D02*
X244610220Y-28180458D01*
X244610220Y-28180458D02*
X244562601Y-28228077D01*
X244562601Y-28228077D02*
X244467363Y-28275696D01*
X244467363Y-28275696D02*
X244276887Y-28275696D01*
X244276887Y-28275696D02*
X244181649Y-28228077D01*
X244181649Y-28228077D02*
X244134030Y-28180458D01*
X244134030Y-28180458D02*
X244086411Y-28085220D01*
X122309029Y-52469149D02*
X122309029Y-51469149D01*
X122309029Y-51945339D02*
X121737601Y-51945339D01*
X121737601Y-52469149D02*
X121737601Y-51469149D01*
X120737601Y-52469149D02*
X121309029Y-52469149D01*
X121023315Y-52469149D02*
X121023315Y-51469149D01*
X121023315Y-51469149D02*
X121118553Y-51612006D01*
X121118553Y-51612006D02*
X121213791Y-51707244D01*
X121213791Y-51707244D02*
X121309029Y-51754863D01*
X120404267Y-51469149D02*
X119785220Y-51469149D01*
X119785220Y-51469149D02*
X120118553Y-51850101D01*
X120118553Y-51850101D02*
X119975696Y-51850101D01*
X119975696Y-51850101D02*
X119880458Y-51897720D01*
X119880458Y-51897720D02*
X119832839Y-51945339D01*
X119832839Y-51945339D02*
X119785220Y-52040577D01*
X119785220Y-52040577D02*
X119785220Y-52278672D01*
X119785220Y-52278672D02*
X119832839Y-52373910D01*
X119832839Y-52373910D02*
X119880458Y-52421530D01*
X119880458Y-52421530D02*
X119975696Y-52469149D01*
X119975696Y-52469149D02*
X120261410Y-52469149D01*
X120261410Y-52469149D02*
X120356648Y-52421530D01*
X120356648Y-52421530D02*
X120404267Y-52373910D01*
X53286679Y-67460994D02*
X52286679Y-67460994D01*
X52286679Y-67460994D02*
X52286679Y-67699089D01*
X52286679Y-67699089D02*
X52334298Y-67841946D01*
X52334298Y-67841946D02*
X52429536Y-67937184D01*
X52429536Y-67937184D02*
X52524774Y-67984803D01*
X52524774Y-67984803D02*
X52715250Y-68032422D01*
X52715250Y-68032422D02*
X52858107Y-68032422D01*
X52858107Y-68032422D02*
X53048583Y-67984803D01*
X53048583Y-67984803D02*
X53143821Y-67937184D01*
X53143821Y-67937184D02*
X53239060Y-67841946D01*
X53239060Y-67841946D02*
X53286679Y-67699089D01*
X53286679Y-67699089D02*
X53286679Y-67460994D01*
X52286679Y-68365756D02*
X52286679Y-68984803D01*
X52286679Y-68984803D02*
X52667631Y-68651470D01*
X52667631Y-68651470D02*
X52667631Y-68794327D01*
X52667631Y-68794327D02*
X52715250Y-68889565D01*
X52715250Y-68889565D02*
X52762869Y-68937184D01*
X52762869Y-68937184D02*
X52858107Y-68984803D01*
X52858107Y-68984803D02*
X53096202Y-68984803D01*
X53096202Y-68984803D02*
X53191440Y-68937184D01*
X53191440Y-68937184D02*
X53239060Y-68889565D01*
X53239060Y-68889565D02*
X53286679Y-68794327D01*
X53286679Y-68794327D02*
X53286679Y-68508613D01*
X53286679Y-68508613D02*
X53239060Y-68413375D01*
X53239060Y-68413375D02*
X53191440Y-68365756D01*
X53286679Y-69460994D02*
X53286679Y-69651470D01*
X53286679Y-69651470D02*
X53239060Y-69746708D01*
X53239060Y-69746708D02*
X53191440Y-69794327D01*
X53191440Y-69794327D02*
X53048583Y-69889565D01*
X53048583Y-69889565D02*
X52858107Y-69937184D01*
X52858107Y-69937184D02*
X52477155Y-69937184D01*
X52477155Y-69937184D02*
X52381917Y-69889565D01*
X52381917Y-69889565D02*
X52334298Y-69841946D01*
X52334298Y-69841946D02*
X52286679Y-69746708D01*
X52286679Y-69746708D02*
X52286679Y-69556232D01*
X52286679Y-69556232D02*
X52334298Y-69460994D01*
X52334298Y-69460994D02*
X52381917Y-69413375D01*
X52381917Y-69413375D02*
X52477155Y-69365756D01*
X52477155Y-69365756D02*
X52715250Y-69365756D01*
X52715250Y-69365756D02*
X52810488Y-69413375D01*
X52810488Y-69413375D02*
X52858107Y-69460994D01*
X52858107Y-69460994D02*
X52905726Y-69556232D01*
X52905726Y-69556232D02*
X52905726Y-69746708D01*
X52905726Y-69746708D02*
X52858107Y-69841946D01*
X52858107Y-69841946D02*
X52810488Y-69889565D01*
X52810488Y-69889565D02*
X52715250Y-69937184D01*
X231880429Y-48410994D02*
X230880429Y-48410994D01*
X230880429Y-48410994D02*
X230880429Y-48649089D01*
X230880429Y-48649089D02*
X230928048Y-48791946D01*
X230928048Y-48791946D02*
X231023286Y-48887184D01*
X231023286Y-48887184D02*
X231118524Y-48934803D01*
X231118524Y-48934803D02*
X231309000Y-48982422D01*
X231309000Y-48982422D02*
X231451857Y-48982422D01*
X231451857Y-48982422D02*
X231642333Y-48934803D01*
X231642333Y-48934803D02*
X231737571Y-48887184D01*
X231737571Y-48887184D02*
X231832810Y-48791946D01*
X231832810Y-48791946D02*
X231880429Y-48649089D01*
X231880429Y-48649089D02*
X231880429Y-48410994D01*
X230975667Y-49363375D02*
X230928048Y-49410994D01*
X230928048Y-49410994D02*
X230880429Y-49506232D01*
X230880429Y-49506232D02*
X230880429Y-49744327D01*
X230880429Y-49744327D02*
X230928048Y-49839565D01*
X230928048Y-49839565D02*
X230975667Y-49887184D01*
X230975667Y-49887184D02*
X231070905Y-49934803D01*
X231070905Y-49934803D02*
X231166143Y-49934803D01*
X231166143Y-49934803D02*
X231309000Y-49887184D01*
X231309000Y-49887184D02*
X231880429Y-49315756D01*
X231880429Y-49315756D02*
X231880429Y-49934803D01*
X231213762Y-50791946D02*
X231880429Y-50791946D01*
X230832810Y-50553851D02*
X231547095Y-50315756D01*
X231547095Y-50315756D02*
X231547095Y-50934803D01*
X21105904Y-52469149D02*
X21105904Y-51469149D01*
X21105904Y-51945339D02*
X20534476Y-51945339D01*
X20534476Y-52469149D02*
X20534476Y-51469149D01*
X19534476Y-52469149D02*
X20105904Y-52469149D01*
X19820190Y-52469149D02*
X19820190Y-51469149D01*
X19820190Y-51469149D02*
X19915428Y-51612006D01*
X19915428Y-51612006D02*
X20010666Y-51707244D01*
X20010666Y-51707244D02*
X20105904Y-51754863D01*
X18582095Y-52469149D02*
X19153523Y-52469149D01*
X18867809Y-52469149D02*
X18867809Y-51469149D01*
X18867809Y-51469149D02*
X18963047Y-51612006D01*
X18963047Y-51612006D02*
X19058285Y-51707244D01*
X19058285Y-51707244D02*
X19153523Y-51754863D01*
X278314804Y-68510994D02*
X277314804Y-68510994D01*
X277314804Y-68510994D02*
X277314804Y-68749089D01*
X277314804Y-68749089D02*
X277362423Y-68891946D01*
X277362423Y-68891946D02*
X277457661Y-68987184D01*
X277457661Y-68987184D02*
X277552899Y-69034803D01*
X277552899Y-69034803D02*
X277743375Y-69082422D01*
X277743375Y-69082422D02*
X277886232Y-69082422D01*
X277886232Y-69082422D02*
X278076708Y-69034803D01*
X278076708Y-69034803D02*
X278171946Y-68987184D01*
X278171946Y-68987184D02*
X278267185Y-68891946D01*
X278267185Y-68891946D02*
X278314804Y-68749089D01*
X278314804Y-68749089D02*
X278314804Y-68510994D01*
X277314804Y-69415756D02*
X277314804Y-70034803D01*
X277314804Y-70034803D02*
X277695756Y-69701470D01*
X277695756Y-69701470D02*
X277695756Y-69844327D01*
X277695756Y-69844327D02*
X277743375Y-69939565D01*
X277743375Y-69939565D02*
X277790994Y-69987184D01*
X277790994Y-69987184D02*
X277886232Y-70034803D01*
X277886232Y-70034803D02*
X278124327Y-70034803D01*
X278124327Y-70034803D02*
X278219565Y-69987184D01*
X278219565Y-69987184D02*
X278267185Y-69939565D01*
X278267185Y-69939565D02*
X278314804Y-69844327D01*
X278314804Y-69844327D02*
X278314804Y-69558613D01*
X278314804Y-69558613D02*
X278267185Y-69463375D01*
X278267185Y-69463375D02*
X278219565Y-69415756D01*
X277410042Y-70415756D02*
X277362423Y-70463375D01*
X277362423Y-70463375D02*
X277314804Y-70558613D01*
X277314804Y-70558613D02*
X277314804Y-70796708D01*
X277314804Y-70796708D02*
X277362423Y-70891946D01*
X277362423Y-70891946D02*
X277410042Y-70939565D01*
X277410042Y-70939565D02*
X277505280Y-70987184D01*
X277505280Y-70987184D02*
X277600518Y-70987184D01*
X277600518Y-70987184D02*
X277743375Y-70939565D01*
X277743375Y-70939565D02*
X278314804Y-70368137D01*
X278314804Y-70368137D02*
X278314804Y-70987184D01*
X98530429Y-49460994D02*
X97530429Y-49460994D01*
X97530429Y-49460994D02*
X97530429Y-49699089D01*
X97530429Y-49699089D02*
X97578048Y-49841946D01*
X97578048Y-49841946D02*
X97673286Y-49937184D01*
X97673286Y-49937184D02*
X97768524Y-49984803D01*
X97768524Y-49984803D02*
X97959000Y-50032422D01*
X97959000Y-50032422D02*
X98101857Y-50032422D01*
X98101857Y-50032422D02*
X98292333Y-49984803D01*
X98292333Y-49984803D02*
X98387571Y-49937184D01*
X98387571Y-49937184D02*
X98482810Y-49841946D01*
X98482810Y-49841946D02*
X98530429Y-49699089D01*
X98530429Y-49699089D02*
X98530429Y-49460994D01*
X97625667Y-50413375D02*
X97578048Y-50460994D01*
X97578048Y-50460994D02*
X97530429Y-50556232D01*
X97530429Y-50556232D02*
X97530429Y-50794327D01*
X97530429Y-50794327D02*
X97578048Y-50889565D01*
X97578048Y-50889565D02*
X97625667Y-50937184D01*
X97625667Y-50937184D02*
X97720905Y-50984803D01*
X97720905Y-50984803D02*
X97816143Y-50984803D01*
X97816143Y-50984803D02*
X97959000Y-50937184D01*
X97959000Y-50937184D02*
X98530429Y-50365756D01*
X98530429Y-50365756D02*
X98530429Y-50984803D01*
X97530429Y-51318137D02*
X97530429Y-51984803D01*
X97530429Y-51984803D02*
X98530429Y-51556232D01*
X31855428Y-86510994D02*
X30855428Y-86510994D01*
X30855428Y-86510994D02*
X30855428Y-86749089D01*
X30855428Y-86749089D02*
X30903047Y-86891946D01*
X30903047Y-86891946D02*
X30998285Y-86987184D01*
X30998285Y-86987184D02*
X31093523Y-87034803D01*
X31093523Y-87034803D02*
X31283999Y-87082422D01*
X31283999Y-87082422D02*
X31426856Y-87082422D01*
X31426856Y-87082422D02*
X31617332Y-87034803D01*
X31617332Y-87034803D02*
X31712570Y-86987184D01*
X31712570Y-86987184D02*
X31807809Y-86891946D01*
X31807809Y-86891946D02*
X31855428Y-86749089D01*
X31855428Y-86749089D02*
X31855428Y-86510994D01*
X31188761Y-87939565D02*
X31855428Y-87939565D01*
X30807809Y-87701470D02*
X31522094Y-87463375D01*
X31522094Y-87463375D02*
X31522094Y-88082422D01*
X31855428Y-88510994D02*
X31855428Y-88701470D01*
X31855428Y-88701470D02*
X31807809Y-88796708D01*
X31807809Y-88796708D02*
X31760189Y-88844327D01*
X31760189Y-88844327D02*
X31617332Y-88939565D01*
X31617332Y-88939565D02*
X31426856Y-88987184D01*
X31426856Y-88987184D02*
X31045904Y-88987184D01*
X31045904Y-88987184D02*
X30950666Y-88939565D01*
X30950666Y-88939565D02*
X30903047Y-88891946D01*
X30903047Y-88891946D02*
X30855428Y-88796708D01*
X30855428Y-88796708D02*
X30855428Y-88606232D01*
X30855428Y-88606232D02*
X30903047Y-88510994D01*
X30903047Y-88510994D02*
X30950666Y-88463375D01*
X30950666Y-88463375D02*
X31045904Y-88415756D01*
X31045904Y-88415756D02*
X31283999Y-88415756D01*
X31283999Y-88415756D02*
X31379237Y-88463375D01*
X31379237Y-88463375D02*
X31426856Y-88510994D01*
X31426856Y-88510994D02*
X31474475Y-88606232D01*
X31474475Y-88606232D02*
X31474475Y-88796708D01*
X31474475Y-88796708D02*
X31426856Y-88891946D01*
X31426856Y-88891946D02*
X31379237Y-88939565D01*
X31379237Y-88939565D02*
X31283999Y-88987184D01*
X298555429Y-86510994D02*
X297555429Y-86510994D01*
X297555429Y-86510994D02*
X297555429Y-86749089D01*
X297555429Y-86749089D02*
X297603048Y-86891946D01*
X297603048Y-86891946D02*
X297698286Y-86987184D01*
X297698286Y-86987184D02*
X297793524Y-87034803D01*
X297793524Y-87034803D02*
X297984000Y-87082422D01*
X297984000Y-87082422D02*
X298126857Y-87082422D01*
X298126857Y-87082422D02*
X298317333Y-87034803D01*
X298317333Y-87034803D02*
X298412571Y-86987184D01*
X298412571Y-86987184D02*
X298507810Y-86891946D01*
X298507810Y-86891946D02*
X298555429Y-86749089D01*
X298555429Y-86749089D02*
X298555429Y-86510994D01*
X298555429Y-87558613D02*
X298555429Y-87749089D01*
X298555429Y-87749089D02*
X298507810Y-87844327D01*
X298507810Y-87844327D02*
X298460190Y-87891946D01*
X298460190Y-87891946D02*
X298317333Y-87987184D01*
X298317333Y-87987184D02*
X298126857Y-88034803D01*
X298126857Y-88034803D02*
X297745905Y-88034803D01*
X297745905Y-88034803D02*
X297650667Y-87987184D01*
X297650667Y-87987184D02*
X297603048Y-87939565D01*
X297603048Y-87939565D02*
X297555429Y-87844327D01*
X297555429Y-87844327D02*
X297555429Y-87653851D01*
X297555429Y-87653851D02*
X297603048Y-87558613D01*
X297603048Y-87558613D02*
X297650667Y-87510994D01*
X297650667Y-87510994D02*
X297745905Y-87463375D01*
X297745905Y-87463375D02*
X297984000Y-87463375D01*
X297984000Y-87463375D02*
X298079238Y-87510994D01*
X298079238Y-87510994D02*
X298126857Y-87558613D01*
X298126857Y-87558613D02*
X298174476Y-87653851D01*
X298174476Y-87653851D02*
X298174476Y-87844327D01*
X298174476Y-87844327D02*
X298126857Y-87939565D01*
X298126857Y-87939565D02*
X298079238Y-87987184D01*
X298079238Y-87987184D02*
X297984000Y-88034803D01*
X298555429Y-88987184D02*
X298555429Y-88415756D01*
X298555429Y-88701470D02*
X297555429Y-88701470D01*
X297555429Y-88701470D02*
X297698286Y-88606232D01*
X297698286Y-88606232D02*
X297793524Y-88510994D01*
X297793524Y-88510994D02*
X297841143Y-88415756D01*
X50905428Y-105560994D02*
X49905428Y-105560994D01*
X49905428Y-105560994D02*
X49905428Y-105799089D01*
X49905428Y-105799089D02*
X49953047Y-105941946D01*
X49953047Y-105941946D02*
X50048285Y-106037184D01*
X50048285Y-106037184D02*
X50143523Y-106084803D01*
X50143523Y-106084803D02*
X50333999Y-106132422D01*
X50333999Y-106132422D02*
X50476856Y-106132422D01*
X50476856Y-106132422D02*
X50667332Y-106084803D01*
X50667332Y-106084803D02*
X50762570Y-106037184D01*
X50762570Y-106037184D02*
X50857809Y-105941946D01*
X50857809Y-105941946D02*
X50905428Y-105799089D01*
X50905428Y-105799089D02*
X50905428Y-105560994D01*
X50905428Y-107084803D02*
X50905428Y-106513375D01*
X50905428Y-106799089D02*
X49905428Y-106799089D01*
X49905428Y-106799089D02*
X50048285Y-106703851D01*
X50048285Y-106703851D02*
X50143523Y-106608613D01*
X50143523Y-106608613D02*
X50191142Y-106513375D01*
X50905428Y-108037184D02*
X50905428Y-107465756D01*
X50905428Y-107751470D02*
X49905428Y-107751470D01*
X49905428Y-107751470D02*
X50048285Y-107656232D01*
X50048285Y-107656232D02*
X50143523Y-107560994D01*
X50143523Y-107560994D02*
X50191142Y-107465756D01*
X69955429Y-86510994D02*
X68955429Y-86510994D01*
X68955429Y-86510994D02*
X68955429Y-86749089D01*
X68955429Y-86749089D02*
X69003048Y-86891946D01*
X69003048Y-86891946D02*
X69098286Y-86987184D01*
X69098286Y-86987184D02*
X69193524Y-87034803D01*
X69193524Y-87034803D02*
X69384000Y-87082422D01*
X69384000Y-87082422D02*
X69526857Y-87082422D01*
X69526857Y-87082422D02*
X69717333Y-87034803D01*
X69717333Y-87034803D02*
X69812571Y-86987184D01*
X69812571Y-86987184D02*
X69907810Y-86891946D01*
X69907810Y-86891946D02*
X69955429Y-86749089D01*
X69955429Y-86749089D02*
X69955429Y-86510994D01*
X69288762Y-87939565D02*
X69955429Y-87939565D01*
X68907810Y-87701470D02*
X69622095Y-87463375D01*
X69622095Y-87463375D02*
X69622095Y-88082422D01*
X69384000Y-88606232D02*
X69336381Y-88510994D01*
X69336381Y-88510994D02*
X69288762Y-88463375D01*
X69288762Y-88463375D02*
X69193524Y-88415756D01*
X69193524Y-88415756D02*
X69145905Y-88415756D01*
X69145905Y-88415756D02*
X69050667Y-88463375D01*
X69050667Y-88463375D02*
X69003048Y-88510994D01*
X69003048Y-88510994D02*
X68955429Y-88606232D01*
X68955429Y-88606232D02*
X68955429Y-88796708D01*
X68955429Y-88796708D02*
X69003048Y-88891946D01*
X69003048Y-88891946D02*
X69050667Y-88939565D01*
X69050667Y-88939565D02*
X69145905Y-88987184D01*
X69145905Y-88987184D02*
X69193524Y-88987184D01*
X69193524Y-88987184D02*
X69288762Y-88939565D01*
X69288762Y-88939565D02*
X69336381Y-88891946D01*
X69336381Y-88891946D02*
X69384000Y-88796708D01*
X69384000Y-88796708D02*
X69384000Y-88606232D01*
X69384000Y-88606232D02*
X69431619Y-88510994D01*
X69431619Y-88510994D02*
X69479238Y-88463375D01*
X69479238Y-88463375D02*
X69574476Y-88415756D01*
X69574476Y-88415756D02*
X69764952Y-88415756D01*
X69764952Y-88415756D02*
X69860190Y-88463375D01*
X69860190Y-88463375D02*
X69907810Y-88510994D01*
X69907810Y-88510994D02*
X69955429Y-88606232D01*
X69955429Y-88606232D02*
X69955429Y-88796708D01*
X69955429Y-88796708D02*
X69907810Y-88891946D01*
X69907810Y-88891946D02*
X69860190Y-88939565D01*
X69860190Y-88939565D02*
X69764952Y-88987184D01*
X69764952Y-88987184D02*
X69574476Y-88987184D01*
X69574476Y-88987184D02*
X69479238Y-88939565D01*
X69479238Y-88939565D02*
X69431619Y-88891946D01*
X69431619Y-88891946D02*
X69384000Y-88796708D01*
X108055429Y-86510994D02*
X107055429Y-86510994D01*
X107055429Y-86510994D02*
X107055429Y-86749089D01*
X107055429Y-86749089D02*
X107103048Y-86891946D01*
X107103048Y-86891946D02*
X107198286Y-86987184D01*
X107198286Y-86987184D02*
X107293524Y-87034803D01*
X107293524Y-87034803D02*
X107484000Y-87082422D01*
X107484000Y-87082422D02*
X107626857Y-87082422D01*
X107626857Y-87082422D02*
X107817333Y-87034803D01*
X107817333Y-87034803D02*
X107912571Y-86987184D01*
X107912571Y-86987184D02*
X108007810Y-86891946D01*
X108007810Y-86891946D02*
X108055429Y-86749089D01*
X108055429Y-86749089D02*
X108055429Y-86510994D01*
X108055429Y-87558613D02*
X108055429Y-87749089D01*
X108055429Y-87749089D02*
X108007810Y-87844327D01*
X108007810Y-87844327D02*
X107960190Y-87891946D01*
X107960190Y-87891946D02*
X107817333Y-87987184D01*
X107817333Y-87987184D02*
X107626857Y-88034803D01*
X107626857Y-88034803D02*
X107245905Y-88034803D01*
X107245905Y-88034803D02*
X107150667Y-87987184D01*
X107150667Y-87987184D02*
X107103048Y-87939565D01*
X107103048Y-87939565D02*
X107055429Y-87844327D01*
X107055429Y-87844327D02*
X107055429Y-87653851D01*
X107055429Y-87653851D02*
X107103048Y-87558613D01*
X107103048Y-87558613D02*
X107150667Y-87510994D01*
X107150667Y-87510994D02*
X107245905Y-87463375D01*
X107245905Y-87463375D02*
X107484000Y-87463375D01*
X107484000Y-87463375D02*
X107579238Y-87510994D01*
X107579238Y-87510994D02*
X107626857Y-87558613D01*
X107626857Y-87558613D02*
X107674476Y-87653851D01*
X107674476Y-87653851D02*
X107674476Y-87844327D01*
X107674476Y-87844327D02*
X107626857Y-87939565D01*
X107626857Y-87939565D02*
X107579238Y-87987184D01*
X107579238Y-87987184D02*
X107484000Y-88034803D01*
X107055429Y-88368137D02*
X107055429Y-89034803D01*
X107055429Y-89034803D02*
X108055429Y-88606232D01*
X127105429Y-87560994D02*
X126105429Y-87560994D01*
X126105429Y-87560994D02*
X126105429Y-87799089D01*
X126105429Y-87799089D02*
X126153048Y-87941946D01*
X126153048Y-87941946D02*
X126248286Y-88037184D01*
X126248286Y-88037184D02*
X126343524Y-88084803D01*
X126343524Y-88084803D02*
X126534000Y-88132422D01*
X126534000Y-88132422D02*
X126676857Y-88132422D01*
X126676857Y-88132422D02*
X126867333Y-88084803D01*
X126867333Y-88084803D02*
X126962571Y-88037184D01*
X126962571Y-88037184D02*
X127057810Y-87941946D01*
X127057810Y-87941946D02*
X127105429Y-87799089D01*
X127105429Y-87799089D02*
X127105429Y-87560994D01*
X126438762Y-88989565D02*
X127105429Y-88989565D01*
X126057810Y-88751470D02*
X126772095Y-88513375D01*
X126772095Y-88513375D02*
X126772095Y-89132422D01*
X126105429Y-89941946D02*
X126105429Y-89751470D01*
X126105429Y-89751470D02*
X126153048Y-89656232D01*
X126153048Y-89656232D02*
X126200667Y-89608613D01*
X126200667Y-89608613D02*
X126343524Y-89513375D01*
X126343524Y-89513375D02*
X126534000Y-89465756D01*
X126534000Y-89465756D02*
X126914952Y-89465756D01*
X126914952Y-89465756D02*
X127010190Y-89513375D01*
X127010190Y-89513375D02*
X127057810Y-89560994D01*
X127057810Y-89560994D02*
X127105429Y-89656232D01*
X127105429Y-89656232D02*
X127105429Y-89846708D01*
X127105429Y-89846708D02*
X127057810Y-89941946D01*
X127057810Y-89941946D02*
X127010190Y-89989565D01*
X127010190Y-89989565D02*
X126914952Y-90037184D01*
X126914952Y-90037184D02*
X126676857Y-90037184D01*
X126676857Y-90037184D02*
X126581619Y-89989565D01*
X126581619Y-89989565D02*
X126534000Y-89941946D01*
X126534000Y-89941946D02*
X126486381Y-89846708D01*
X126486381Y-89846708D02*
X126486381Y-89656232D01*
X126486381Y-89656232D02*
X126534000Y-89560994D01*
X126534000Y-89560994D02*
X126581619Y-89513375D01*
X126581619Y-89513375D02*
X126676857Y-89465756D01*
X258074179Y-105560994D02*
X257074179Y-105560994D01*
X257074179Y-105560994D02*
X257074179Y-105799089D01*
X257074179Y-105799089D02*
X257121798Y-105941946D01*
X257121798Y-105941946D02*
X257217036Y-106037184D01*
X257217036Y-106037184D02*
X257312274Y-106084803D01*
X257312274Y-106084803D02*
X257502750Y-106132422D01*
X257502750Y-106132422D02*
X257645607Y-106132422D01*
X257645607Y-106132422D02*
X257836083Y-106084803D01*
X257836083Y-106084803D02*
X257931321Y-106037184D01*
X257931321Y-106037184D02*
X258026560Y-105941946D01*
X258026560Y-105941946D02*
X258074179Y-105799089D01*
X258074179Y-105799089D02*
X258074179Y-105560994D01*
X258074179Y-106608613D02*
X258074179Y-106799089D01*
X258074179Y-106799089D02*
X258026560Y-106894327D01*
X258026560Y-106894327D02*
X257978940Y-106941946D01*
X257978940Y-106941946D02*
X257836083Y-107037184D01*
X257836083Y-107037184D02*
X257645607Y-107084803D01*
X257645607Y-107084803D02*
X257264655Y-107084803D01*
X257264655Y-107084803D02*
X257169417Y-107037184D01*
X257169417Y-107037184D02*
X257121798Y-106989565D01*
X257121798Y-106989565D02*
X257074179Y-106894327D01*
X257074179Y-106894327D02*
X257074179Y-106703851D01*
X257074179Y-106703851D02*
X257121798Y-106608613D01*
X257121798Y-106608613D02*
X257169417Y-106560994D01*
X257169417Y-106560994D02*
X257264655Y-106513375D01*
X257264655Y-106513375D02*
X257502750Y-106513375D01*
X257502750Y-106513375D02*
X257597988Y-106560994D01*
X257597988Y-106560994D02*
X257645607Y-106608613D01*
X257645607Y-106608613D02*
X257693226Y-106703851D01*
X257693226Y-106703851D02*
X257693226Y-106894327D01*
X257693226Y-106894327D02*
X257645607Y-106989565D01*
X257645607Y-106989565D02*
X257597988Y-107037184D01*
X257597988Y-107037184D02*
X257502750Y-107084803D01*
X257169417Y-107465756D02*
X257121798Y-107513375D01*
X257121798Y-107513375D02*
X257074179Y-107608613D01*
X257074179Y-107608613D02*
X257074179Y-107846708D01*
X257074179Y-107846708D02*
X257121798Y-107941946D01*
X257121798Y-107941946D02*
X257169417Y-107989565D01*
X257169417Y-107989565D02*
X257264655Y-108037184D01*
X257264655Y-108037184D02*
X257359893Y-108037184D01*
X257359893Y-108037184D02*
X257502750Y-107989565D01*
X257502750Y-107989565D02*
X258074179Y-107418137D01*
X258074179Y-107418137D02*
X258074179Y-108037184D01*
X117580429Y-67460994D02*
X116580429Y-67460994D01*
X116580429Y-67460994D02*
X116580429Y-67699089D01*
X116580429Y-67699089D02*
X116628048Y-67841946D01*
X116628048Y-67841946D02*
X116723286Y-67937184D01*
X116723286Y-67937184D02*
X116818524Y-67984803D01*
X116818524Y-67984803D02*
X117009000Y-68032422D01*
X117009000Y-68032422D02*
X117151857Y-68032422D01*
X117151857Y-68032422D02*
X117342333Y-67984803D01*
X117342333Y-67984803D02*
X117437571Y-67937184D01*
X117437571Y-67937184D02*
X117532810Y-67841946D01*
X117532810Y-67841946D02*
X117580429Y-67699089D01*
X117580429Y-67699089D02*
X117580429Y-67460994D01*
X117009000Y-68603851D02*
X116961381Y-68508613D01*
X116961381Y-68508613D02*
X116913762Y-68460994D01*
X116913762Y-68460994D02*
X116818524Y-68413375D01*
X116818524Y-68413375D02*
X116770905Y-68413375D01*
X116770905Y-68413375D02*
X116675667Y-68460994D01*
X116675667Y-68460994D02*
X116628048Y-68508613D01*
X116628048Y-68508613D02*
X116580429Y-68603851D01*
X116580429Y-68603851D02*
X116580429Y-68794327D01*
X116580429Y-68794327D02*
X116628048Y-68889565D01*
X116628048Y-68889565D02*
X116675667Y-68937184D01*
X116675667Y-68937184D02*
X116770905Y-68984803D01*
X116770905Y-68984803D02*
X116818524Y-68984803D01*
X116818524Y-68984803D02*
X116913762Y-68937184D01*
X116913762Y-68937184D02*
X116961381Y-68889565D01*
X116961381Y-68889565D02*
X117009000Y-68794327D01*
X117009000Y-68794327D02*
X117009000Y-68603851D01*
X117009000Y-68603851D02*
X117056619Y-68508613D01*
X117056619Y-68508613D02*
X117104238Y-68460994D01*
X117104238Y-68460994D02*
X117199476Y-68413375D01*
X117199476Y-68413375D02*
X117389952Y-68413375D01*
X117389952Y-68413375D02*
X117485190Y-68460994D01*
X117485190Y-68460994D02*
X117532810Y-68508613D01*
X117532810Y-68508613D02*
X117580429Y-68603851D01*
X117580429Y-68603851D02*
X117580429Y-68794327D01*
X117580429Y-68794327D02*
X117532810Y-68889565D01*
X117532810Y-68889565D02*
X117485190Y-68937184D01*
X117485190Y-68937184D02*
X117389952Y-68984803D01*
X117389952Y-68984803D02*
X117199476Y-68984803D01*
X117199476Y-68984803D02*
X117104238Y-68937184D01*
X117104238Y-68937184D02*
X117056619Y-68889565D01*
X117056619Y-68889565D02*
X117009000Y-68794327D01*
X116580429Y-69318137D02*
X116580429Y-69984803D01*
X116580429Y-69984803D02*
X117580429Y-69556232D01*
X169967928Y-106037185D02*
X168967928Y-106037185D01*
X168967928Y-106037185D02*
X168967928Y-106275280D01*
X168967928Y-106275280D02*
X169015547Y-106418137D01*
X169015547Y-106418137D02*
X169110785Y-106513375D01*
X169110785Y-106513375D02*
X169206023Y-106560994D01*
X169206023Y-106560994D02*
X169396499Y-106608613D01*
X169396499Y-106608613D02*
X169539356Y-106608613D01*
X169539356Y-106608613D02*
X169729832Y-106560994D01*
X169729832Y-106560994D02*
X169825070Y-106513375D01*
X169825070Y-106513375D02*
X169920309Y-106418137D01*
X169920309Y-106418137D02*
X169967928Y-106275280D01*
X169967928Y-106275280D02*
X169967928Y-106037185D01*
X169967928Y-107560994D02*
X169967928Y-106989566D01*
X169967928Y-107275280D02*
X168967928Y-107275280D01*
X168967928Y-107275280D02*
X169110785Y-107180042D01*
X169110785Y-107180042D02*
X169206023Y-107084804D01*
X169206023Y-107084804D02*
X169253642Y-106989566D01*
X78289803Y-104370369D02*
X77289803Y-104370369D01*
X77289803Y-104370369D02*
X77289803Y-104608464D01*
X77289803Y-104608464D02*
X77337422Y-104751321D01*
X77337422Y-104751321D02*
X77432660Y-104846559D01*
X77432660Y-104846559D02*
X77527898Y-104894178D01*
X77527898Y-104894178D02*
X77718374Y-104941797D01*
X77718374Y-104941797D02*
X77861231Y-104941797D01*
X77861231Y-104941797D02*
X78051707Y-104894178D01*
X78051707Y-104894178D02*
X78146945Y-104846559D01*
X78146945Y-104846559D02*
X78242184Y-104751321D01*
X78242184Y-104751321D02*
X78289803Y-104608464D01*
X78289803Y-104608464D02*
X78289803Y-104370369D01*
X78289803Y-105417988D02*
X78289803Y-105608464D01*
X78289803Y-105608464D02*
X78242184Y-105703702D01*
X78242184Y-105703702D02*
X78194564Y-105751321D01*
X78194564Y-105751321D02*
X78051707Y-105846559D01*
X78051707Y-105846559D02*
X77861231Y-105894178D01*
X77861231Y-105894178D02*
X77480279Y-105894178D01*
X77480279Y-105894178D02*
X77385041Y-105846559D01*
X77385041Y-105846559D02*
X77337422Y-105798940D01*
X77337422Y-105798940D02*
X77289803Y-105703702D01*
X77289803Y-105703702D02*
X77289803Y-105513226D01*
X77289803Y-105513226D02*
X77337422Y-105417988D01*
X77337422Y-105417988D02*
X77385041Y-105370369D01*
X77385041Y-105370369D02*
X77480279Y-105322750D01*
X77480279Y-105322750D02*
X77718374Y-105322750D01*
X77718374Y-105322750D02*
X77813612Y-105370369D01*
X77813612Y-105370369D02*
X77861231Y-105417988D01*
X77861231Y-105417988D02*
X77908850Y-105513226D01*
X77908850Y-105513226D02*
X77908850Y-105703702D01*
X77908850Y-105703702D02*
X77861231Y-105798940D01*
X77861231Y-105798940D02*
X77813612Y-105846559D01*
X77813612Y-105846559D02*
X77718374Y-105894178D01*
X77718374Y-106465607D02*
X77670755Y-106370369D01*
X77670755Y-106370369D02*
X77623136Y-106322750D01*
X77623136Y-106322750D02*
X77527898Y-106275131D01*
X77527898Y-106275131D02*
X77480279Y-106275131D01*
X77480279Y-106275131D02*
X77385041Y-106322750D01*
X77385041Y-106322750D02*
X77337422Y-106370369D01*
X77337422Y-106370369D02*
X77289803Y-106465607D01*
X77289803Y-106465607D02*
X77289803Y-106656083D01*
X77289803Y-106656083D02*
X77337422Y-106751321D01*
X77337422Y-106751321D02*
X77385041Y-106798940D01*
X77385041Y-106798940D02*
X77480279Y-106846559D01*
X77480279Y-106846559D02*
X77527898Y-106846559D01*
X77527898Y-106846559D02*
X77623136Y-106798940D01*
X77623136Y-106798940D02*
X77670755Y-106751321D01*
X77670755Y-106751321D02*
X77718374Y-106656083D01*
X77718374Y-106656083D02*
X77718374Y-106465607D01*
X77718374Y-106465607D02*
X77765993Y-106370369D01*
X77765993Y-106370369D02*
X77813612Y-106322750D01*
X77813612Y-106322750D02*
X77908850Y-106275131D01*
X77908850Y-106275131D02*
X78099326Y-106275131D01*
X78099326Y-106275131D02*
X78194564Y-106322750D01*
X78194564Y-106322750D02*
X78242184Y-106370369D01*
X78242184Y-106370369D02*
X78289803Y-106465607D01*
X78289803Y-106465607D02*
X78289803Y-106656083D01*
X78289803Y-106656083D02*
X78242184Y-106751321D01*
X78242184Y-106751321D02*
X78194564Y-106798940D01*
X78194564Y-106798940D02*
X78099326Y-106846559D01*
X78099326Y-106846559D02*
X77908850Y-106846559D01*
X77908850Y-106846559D02*
X77813612Y-106798940D01*
X77813612Y-106798940D02*
X77765993Y-106751321D01*
X77765993Y-106751321D02*
X77718374Y-106656083D01*
X269980429Y-67460994D02*
X268980429Y-67460994D01*
X268980429Y-67460994D02*
X268980429Y-67699089D01*
X268980429Y-67699089D02*
X269028048Y-67841946D01*
X269028048Y-67841946D02*
X269123286Y-67937184D01*
X269123286Y-67937184D02*
X269218524Y-67984803D01*
X269218524Y-67984803D02*
X269409000Y-68032422D01*
X269409000Y-68032422D02*
X269551857Y-68032422D01*
X269551857Y-68032422D02*
X269742333Y-67984803D01*
X269742333Y-67984803D02*
X269837571Y-67937184D01*
X269837571Y-67937184D02*
X269932810Y-67841946D01*
X269932810Y-67841946D02*
X269980429Y-67699089D01*
X269980429Y-67699089D02*
X269980429Y-67460994D01*
X269313762Y-68889565D02*
X269980429Y-68889565D01*
X268932810Y-68651470D02*
X269647095Y-68413375D01*
X269647095Y-68413375D02*
X269647095Y-69032422D01*
X269313762Y-69841946D02*
X269980429Y-69841946D01*
X268932810Y-69603851D02*
X269647095Y-69365756D01*
X269647095Y-69365756D02*
X269647095Y-69984803D01*
X50905428Y-87560994D02*
X49905428Y-87560994D01*
X49905428Y-87560994D02*
X49905428Y-87799089D01*
X49905428Y-87799089D02*
X49953047Y-87941946D01*
X49953047Y-87941946D02*
X50048285Y-88037184D01*
X50048285Y-88037184D02*
X50143523Y-88084803D01*
X50143523Y-88084803D02*
X50333999Y-88132422D01*
X50333999Y-88132422D02*
X50476856Y-88132422D01*
X50476856Y-88132422D02*
X50667332Y-88084803D01*
X50667332Y-88084803D02*
X50762570Y-88037184D01*
X50762570Y-88037184D02*
X50857809Y-87941946D01*
X50857809Y-87941946D02*
X50905428Y-87799089D01*
X50905428Y-87799089D02*
X50905428Y-87560994D01*
X50333999Y-88703851D02*
X50286380Y-88608613D01*
X50286380Y-88608613D02*
X50238761Y-88560994D01*
X50238761Y-88560994D02*
X50143523Y-88513375D01*
X50143523Y-88513375D02*
X50095904Y-88513375D01*
X50095904Y-88513375D02*
X50000666Y-88560994D01*
X50000666Y-88560994D02*
X49953047Y-88608613D01*
X49953047Y-88608613D02*
X49905428Y-88703851D01*
X49905428Y-88703851D02*
X49905428Y-88894327D01*
X49905428Y-88894327D02*
X49953047Y-88989565D01*
X49953047Y-88989565D02*
X50000666Y-89037184D01*
X50000666Y-89037184D02*
X50095904Y-89084803D01*
X50095904Y-89084803D02*
X50143523Y-89084803D01*
X50143523Y-89084803D02*
X50238761Y-89037184D01*
X50238761Y-89037184D02*
X50286380Y-88989565D01*
X50286380Y-88989565D02*
X50333999Y-88894327D01*
X50333999Y-88894327D02*
X50333999Y-88703851D01*
X50333999Y-88703851D02*
X50381618Y-88608613D01*
X50381618Y-88608613D02*
X50429237Y-88560994D01*
X50429237Y-88560994D02*
X50524475Y-88513375D01*
X50524475Y-88513375D02*
X50714951Y-88513375D01*
X50714951Y-88513375D02*
X50810189Y-88560994D01*
X50810189Y-88560994D02*
X50857809Y-88608613D01*
X50857809Y-88608613D02*
X50905428Y-88703851D01*
X50905428Y-88703851D02*
X50905428Y-88894327D01*
X50905428Y-88894327D02*
X50857809Y-88989565D01*
X50857809Y-88989565D02*
X50810189Y-89037184D01*
X50810189Y-89037184D02*
X50714951Y-89084803D01*
X50714951Y-89084803D02*
X50524475Y-89084803D01*
X50524475Y-89084803D02*
X50429237Y-89037184D01*
X50429237Y-89037184D02*
X50381618Y-88989565D01*
X50381618Y-88989565D02*
X50333999Y-88894327D01*
X50905428Y-89560994D02*
X50905428Y-89751470D01*
X50905428Y-89751470D02*
X50857809Y-89846708D01*
X50857809Y-89846708D02*
X50810189Y-89894327D01*
X50810189Y-89894327D02*
X50667332Y-89989565D01*
X50667332Y-89989565D02*
X50476856Y-90037184D01*
X50476856Y-90037184D02*
X50095904Y-90037184D01*
X50095904Y-90037184D02*
X50000666Y-89989565D01*
X50000666Y-89989565D02*
X49953047Y-89941946D01*
X49953047Y-89941946D02*
X49905428Y-89846708D01*
X49905428Y-89846708D02*
X49905428Y-89656232D01*
X49905428Y-89656232D02*
X49953047Y-89560994D01*
X49953047Y-89560994D02*
X50000666Y-89513375D01*
X50000666Y-89513375D02*
X50095904Y-89465756D01*
X50095904Y-89465756D02*
X50333999Y-89465756D01*
X50333999Y-89465756D02*
X50429237Y-89513375D01*
X50429237Y-89513375D02*
X50476856Y-89560994D01*
X50476856Y-89560994D02*
X50524475Y-89656232D01*
X50524475Y-89656232D02*
X50524475Y-89846708D01*
X50524475Y-89846708D02*
X50476856Y-89941946D01*
X50476856Y-89941946D02*
X50429237Y-89989565D01*
X50429237Y-89989565D02*
X50333999Y-90037184D01*
X79480429Y-48410994D02*
X78480429Y-48410994D01*
X78480429Y-48410994D02*
X78480429Y-48649089D01*
X78480429Y-48649089D02*
X78528048Y-48791946D01*
X78528048Y-48791946D02*
X78623286Y-48887184D01*
X78623286Y-48887184D02*
X78718524Y-48934803D01*
X78718524Y-48934803D02*
X78909000Y-48982422D01*
X78909000Y-48982422D02*
X79051857Y-48982422D01*
X79051857Y-48982422D02*
X79242333Y-48934803D01*
X79242333Y-48934803D02*
X79337571Y-48887184D01*
X79337571Y-48887184D02*
X79432810Y-48791946D01*
X79432810Y-48791946D02*
X79480429Y-48649089D01*
X79480429Y-48649089D02*
X79480429Y-48410994D01*
X78575667Y-49363375D02*
X78528048Y-49410994D01*
X78528048Y-49410994D02*
X78480429Y-49506232D01*
X78480429Y-49506232D02*
X78480429Y-49744327D01*
X78480429Y-49744327D02*
X78528048Y-49839565D01*
X78528048Y-49839565D02*
X78575667Y-49887184D01*
X78575667Y-49887184D02*
X78670905Y-49934803D01*
X78670905Y-49934803D02*
X78766143Y-49934803D01*
X78766143Y-49934803D02*
X78909000Y-49887184D01*
X78909000Y-49887184D02*
X79480429Y-49315756D01*
X79480429Y-49315756D02*
X79480429Y-49934803D01*
X78909000Y-50506232D02*
X78861381Y-50410994D01*
X78861381Y-50410994D02*
X78813762Y-50363375D01*
X78813762Y-50363375D02*
X78718524Y-50315756D01*
X78718524Y-50315756D02*
X78670905Y-50315756D01*
X78670905Y-50315756D02*
X78575667Y-50363375D01*
X78575667Y-50363375D02*
X78528048Y-50410994D01*
X78528048Y-50410994D02*
X78480429Y-50506232D01*
X78480429Y-50506232D02*
X78480429Y-50696708D01*
X78480429Y-50696708D02*
X78528048Y-50791946D01*
X78528048Y-50791946D02*
X78575667Y-50839565D01*
X78575667Y-50839565D02*
X78670905Y-50887184D01*
X78670905Y-50887184D02*
X78718524Y-50887184D01*
X78718524Y-50887184D02*
X78813762Y-50839565D01*
X78813762Y-50839565D02*
X78861381Y-50791946D01*
X78861381Y-50791946D02*
X78909000Y-50696708D01*
X78909000Y-50696708D02*
X78909000Y-50506232D01*
X78909000Y-50506232D02*
X78956619Y-50410994D01*
X78956619Y-50410994D02*
X79004238Y-50363375D01*
X79004238Y-50363375D02*
X79099476Y-50315756D01*
X79099476Y-50315756D02*
X79289952Y-50315756D01*
X79289952Y-50315756D02*
X79385190Y-50363375D01*
X79385190Y-50363375D02*
X79432810Y-50410994D01*
X79432810Y-50410994D02*
X79480429Y-50506232D01*
X79480429Y-50506232D02*
X79480429Y-50696708D01*
X79480429Y-50696708D02*
X79432810Y-50791946D01*
X79432810Y-50791946D02*
X79385190Y-50839565D01*
X79385190Y-50839565D02*
X79289952Y-50887184D01*
X79289952Y-50887184D02*
X79099476Y-50887184D01*
X79099476Y-50887184D02*
X79004238Y-50839565D01*
X79004238Y-50839565D02*
X78956619Y-50791946D01*
X78956619Y-50791946D02*
X78909000Y-50696708D01*
X250930429Y-49460994D02*
X249930429Y-49460994D01*
X249930429Y-49460994D02*
X249930429Y-49699089D01*
X249930429Y-49699089D02*
X249978048Y-49841946D01*
X249978048Y-49841946D02*
X250073286Y-49937184D01*
X250073286Y-49937184D02*
X250168524Y-49984803D01*
X250168524Y-49984803D02*
X250359000Y-50032422D01*
X250359000Y-50032422D02*
X250501857Y-50032422D01*
X250501857Y-50032422D02*
X250692333Y-49984803D01*
X250692333Y-49984803D02*
X250787571Y-49937184D01*
X250787571Y-49937184D02*
X250882810Y-49841946D01*
X250882810Y-49841946D02*
X250930429Y-49699089D01*
X250930429Y-49699089D02*
X250930429Y-49460994D01*
X249930429Y-50365756D02*
X249930429Y-51032422D01*
X249930429Y-51032422D02*
X250930429Y-50603851D01*
X250263762Y-51841946D02*
X250930429Y-51841946D01*
X249882810Y-51603851D02*
X250597095Y-51365756D01*
X250597095Y-51365756D02*
X250597095Y-51984803D01*
X234261678Y-105560994D02*
X233261678Y-105560994D01*
X233261678Y-105560994D02*
X233261678Y-105799089D01*
X233261678Y-105799089D02*
X233309297Y-105941946D01*
X233309297Y-105941946D02*
X233404535Y-106037184D01*
X233404535Y-106037184D02*
X233499773Y-106084803D01*
X233499773Y-106084803D02*
X233690249Y-106132422D01*
X233690249Y-106132422D02*
X233833106Y-106132422D01*
X233833106Y-106132422D02*
X234023582Y-106084803D01*
X234023582Y-106084803D02*
X234118820Y-106037184D01*
X234118820Y-106037184D02*
X234214059Y-105941946D01*
X234214059Y-105941946D02*
X234261678Y-105799089D01*
X234261678Y-105799089D02*
X234261678Y-105560994D01*
X233261678Y-107037184D02*
X233261678Y-106560994D01*
X233261678Y-106560994D02*
X233737868Y-106513375D01*
X233737868Y-106513375D02*
X233690249Y-106560994D01*
X233690249Y-106560994D02*
X233642630Y-106656232D01*
X233642630Y-106656232D02*
X233642630Y-106894327D01*
X233642630Y-106894327D02*
X233690249Y-106989565D01*
X233690249Y-106989565D02*
X233737868Y-107037184D01*
X233737868Y-107037184D02*
X233833106Y-107084803D01*
X233833106Y-107084803D02*
X234071201Y-107084803D01*
X234071201Y-107084803D02*
X234166439Y-107037184D01*
X234166439Y-107037184D02*
X234214059Y-106989565D01*
X234214059Y-106989565D02*
X234261678Y-106894327D01*
X234261678Y-106894327D02*
X234261678Y-106656232D01*
X234261678Y-106656232D02*
X234214059Y-106560994D01*
X234214059Y-106560994D02*
X234166439Y-106513375D01*
X233261678Y-107418137D02*
X233261678Y-108037184D01*
X233261678Y-108037184D02*
X233642630Y-107703851D01*
X233642630Y-107703851D02*
X233642630Y-107846708D01*
X233642630Y-107846708D02*
X233690249Y-107941946D01*
X233690249Y-107941946D02*
X233737868Y-107989565D01*
X233737868Y-107989565D02*
X233833106Y-108037184D01*
X233833106Y-108037184D02*
X234071201Y-108037184D01*
X234071201Y-108037184D02*
X234166439Y-107989565D01*
X234166439Y-107989565D02*
X234214059Y-107941946D01*
X234214059Y-107941946D02*
X234261678Y-107846708D01*
X234261678Y-107846708D02*
X234261678Y-107560994D01*
X234261678Y-107560994D02*
X234214059Y-107465756D01*
X234214059Y-107465756D02*
X234166439Y-107418137D01*
X299712154Y-21024274D02*
X299712154Y-20024274D01*
X299712154Y-20500464D02*
X299140726Y-20500464D01*
X299140726Y-21024274D02*
X299140726Y-20024274D01*
X298140726Y-21024274D02*
X298712154Y-21024274D01*
X298426440Y-21024274D02*
X298426440Y-20024274D01*
X298426440Y-20024274D02*
X298521678Y-20167131D01*
X298521678Y-20167131D02*
X298616916Y-20262369D01*
X298616916Y-20262369D02*
X298712154Y-20309988D01*
X297759773Y-20119512D02*
X297712154Y-20071893D01*
X297712154Y-20071893D02*
X297616916Y-20024274D01*
X297616916Y-20024274D02*
X297378821Y-20024274D01*
X297378821Y-20024274D02*
X297283583Y-20071893D01*
X297283583Y-20071893D02*
X297235964Y-20119512D01*
X297235964Y-20119512D02*
X297188345Y-20214750D01*
X297188345Y-20214750D02*
X297188345Y-20309988D01*
X297188345Y-20309988D02*
X297235964Y-20452845D01*
X297235964Y-20452845D02*
X297807392Y-21024274D01*
X297807392Y-21024274D02*
X297188345Y-21024274D01*
X185412154Y-75091024D02*
X185412154Y-74091024D01*
X185412154Y-74567214D02*
X184840726Y-74567214D01*
X184840726Y-75091024D02*
X184840726Y-74091024D01*
X183935964Y-74424357D02*
X183935964Y-75091024D01*
X184174059Y-74043405D02*
X184412154Y-74757690D01*
X184412154Y-74757690D02*
X183793107Y-74757690D01*
X182888345Y-75091024D02*
X183459773Y-75091024D01*
X183174059Y-75091024D02*
X183174059Y-74091024D01*
X183174059Y-74091024D02*
X183269297Y-74233881D01*
X183269297Y-74233881D02*
X183364535Y-74329119D01*
X183364535Y-74329119D02*
X183459773Y-74376738D01*
X60430429Y-68510994D02*
X59430429Y-68510994D01*
X59430429Y-68510994D02*
X59430429Y-68749089D01*
X59430429Y-68749089D02*
X59478048Y-68891946D01*
X59478048Y-68891946D02*
X59573286Y-68987184D01*
X59573286Y-68987184D02*
X59668524Y-69034803D01*
X59668524Y-69034803D02*
X59859000Y-69082422D01*
X59859000Y-69082422D02*
X60001857Y-69082422D01*
X60001857Y-69082422D02*
X60192333Y-69034803D01*
X60192333Y-69034803D02*
X60287571Y-68987184D01*
X60287571Y-68987184D02*
X60382810Y-68891946D01*
X60382810Y-68891946D02*
X60430429Y-68749089D01*
X60430429Y-68749089D02*
X60430429Y-68510994D01*
X59430429Y-69415756D02*
X59430429Y-70082422D01*
X59430429Y-70082422D02*
X60430429Y-69653851D01*
X60430429Y-70510994D02*
X60430429Y-70701470D01*
X60430429Y-70701470D02*
X60382810Y-70796708D01*
X60382810Y-70796708D02*
X60335190Y-70844327D01*
X60335190Y-70844327D02*
X60192333Y-70939565D01*
X60192333Y-70939565D02*
X60001857Y-70987184D01*
X60001857Y-70987184D02*
X59620905Y-70987184D01*
X59620905Y-70987184D02*
X59525667Y-70939565D01*
X59525667Y-70939565D02*
X59478048Y-70891946D01*
X59478048Y-70891946D02*
X59430429Y-70796708D01*
X59430429Y-70796708D02*
X59430429Y-70606232D01*
X59430429Y-70606232D02*
X59478048Y-70510994D01*
X59478048Y-70510994D02*
X59525667Y-70463375D01*
X59525667Y-70463375D02*
X59620905Y-70415756D01*
X59620905Y-70415756D02*
X59859000Y-70415756D01*
X59859000Y-70415756D02*
X59954238Y-70463375D01*
X59954238Y-70463375D02*
X60001857Y-70510994D01*
X60001857Y-70510994D02*
X60049476Y-70606232D01*
X60049476Y-70606232D02*
X60049476Y-70796708D01*
X60049476Y-70796708D02*
X60001857Y-70891946D01*
X60001857Y-70891946D02*
X59954238Y-70939565D01*
X59954238Y-70939565D02*
X59859000Y-70987184D01*
D15*
X29045935Y-26553365D02*
X29045935Y-27803365D01*
X29045935Y-27803365D02*
X31045935Y-27803365D01*
X31045935Y-26553365D02*
X29045935Y-26553365D01*
X31045935Y-27803365D02*
X31045935Y-26553365D01*
X39511100Y-28627414D02*
X40394984Y-27743530D01*
X40394984Y-27743530D02*
X38980770Y-26329316D01*
X38096886Y-27213200D02*
X39511100Y-28627414D01*
X38980770Y-26329316D02*
X38096886Y-27213200D01*
X58232975Y-43630579D02*
X59116859Y-42746695D01*
X59116859Y-42746695D02*
X57702645Y-41332481D01*
X56818761Y-42216365D02*
X58232975Y-43630579D01*
X57702645Y-41332481D02*
X56818761Y-42216365D01*
X82730000Y-23190000D02*
X82730000Y-27635000D01*
X82730000Y-27635000D02*
X83365000Y-28270000D01*
X83365000Y-28270000D02*
X85270000Y-28270000D01*
X85270000Y-23190000D02*
X82730000Y-23190000D01*
X85270000Y-28270000D02*
X85270000Y-23190000D01*
X42118623Y-32669959D02*
X41234739Y-33553843D01*
X41234739Y-33553843D02*
X42648953Y-34968057D01*
X43532837Y-34084173D02*
X42118623Y-32669959D01*
X42648953Y-34968057D02*
X43532837Y-34084173D01*
X50950189Y-27295668D02*
X48687448Y-29558409D01*
X50243083Y-26588561D02*
X50243083Y-28002774D01*
X49182422Y-25527901D02*
X50950189Y-27295668D01*
X48687448Y-29558409D02*
X46919681Y-27790642D01*
X46919681Y-27790642D02*
X49182422Y-25527901D01*
X45097895Y-29965981D02*
X44214011Y-30849865D01*
X44214011Y-30849865D02*
X45628225Y-32264079D01*
X46512109Y-31380195D02*
X45097895Y-29965981D01*
X45628225Y-32264079D02*
X46512109Y-31380195D01*
X60595935Y-26653405D02*
X60595935Y-27903405D01*
X60595935Y-27903405D02*
X62595935Y-27903405D01*
X62595935Y-26653405D02*
X60595935Y-26653405D01*
X62595935Y-27903405D02*
X62595935Y-26653405D01*
X63237727Y-35137104D02*
X64121611Y-36020988D01*
X64121611Y-36020988D02*
X65535825Y-34606774D01*
X64651941Y-33722890D02*
X63237727Y-35137104D01*
X65535825Y-34606774D02*
X64651941Y-33722890D01*
X49380310Y-53360905D02*
X55730310Y-53360905D01*
X55730310Y-53360905D02*
X57000310Y-52090905D01*
X57000310Y-52090905D02*
X57000310Y-48280905D01*
X49380310Y-48280905D02*
X49380310Y-53360905D01*
X57000310Y-48280905D02*
X49380310Y-48280905D01*
X45280310Y-21231155D02*
X45280310Y-19631155D01*
X45280310Y-19631155D02*
X42080310Y-19631155D01*
X42080310Y-21231155D02*
X45280310Y-21231155D01*
X42080310Y-19631155D02*
X42080310Y-21231155D01*
X44680310Y-23850155D02*
X44680310Y-22600155D01*
X44680310Y-22600155D02*
X42680310Y-22600155D01*
X42680310Y-23850155D02*
X44680310Y-23850155D01*
X42680310Y-22600155D02*
X42680310Y-23850155D01*
X27397935Y-20638405D02*
X24997935Y-20638405D01*
X24997935Y-20638405D02*
X24497935Y-21138405D01*
X24497935Y-21138405D02*
X24497935Y-21938405D01*
X27397935Y-21938405D02*
X27397935Y-20638405D01*
X24497935Y-21938405D02*
X27397935Y-21938405D01*
X44595975Y-63098765D02*
X44095975Y-63098765D01*
X44095975Y-63098765D02*
X44095975Y-64098765D01*
X40895975Y-63098765D02*
X40895975Y-64098765D01*
X40395975Y-63098765D02*
X40895975Y-63098765D01*
X44595975Y-63598765D02*
X44095975Y-63598765D01*
X40395975Y-63598765D02*
X40895975Y-63598765D01*
X43695975Y-63698765D02*
X45095975Y-65098765D01*
X41295975Y-63698765D02*
X43695975Y-63698765D01*
X43495975Y-64298765D02*
X41495975Y-64298765D01*
X41495975Y-64298765D02*
X40495975Y-65298765D01*
X44595975Y-64598765D02*
X44595975Y-63098765D01*
X40395975Y-64598765D02*
X40395975Y-63098765D01*
X45095975Y-65098765D02*
X45095975Y-67498765D01*
X39895975Y-65098765D02*
X41295975Y-63698765D01*
X44495975Y-65298765D02*
X43495975Y-64298765D01*
X40495975Y-65298765D02*
X40495975Y-67298765D01*
X44495975Y-67298765D02*
X44495975Y-65298765D01*
X40495975Y-67298765D02*
X41495975Y-68298765D01*
X45095975Y-67498765D02*
X43695975Y-68898765D01*
X39895975Y-67498765D02*
X39895975Y-65098765D01*
X44595975Y-67998765D02*
X44595975Y-69498765D01*
X40395975Y-67998765D02*
X40395975Y-69498765D01*
X43495975Y-68298765D02*
X44495975Y-67298765D01*
X41495975Y-68298765D02*
X43495975Y-68298765D01*
X43695975Y-68898765D02*
X41295975Y-68898765D01*
X41295975Y-68898765D02*
X39895975Y-67498765D01*
X44595975Y-68998765D02*
X44095975Y-68998765D01*
X40395975Y-68998765D02*
X40895975Y-68998765D01*
X44595975Y-69498765D02*
X44095975Y-69498765D01*
X44095975Y-69498765D02*
X44095975Y-68498765D01*
X40895975Y-69498765D02*
X40895975Y-68498765D01*
X40395975Y-69498765D02*
X40895975Y-69498765D01*
X43495975Y-66298765D02*
G75*
G03*
X43495975Y-66298765I-1000000J0D01*
G01*
X45023986Y-35575322D02*
X44140102Y-36459206D01*
X44140102Y-36459206D02*
X45554316Y-37873420D01*
X46438200Y-36989536D02*
X45023986Y-35575322D01*
X45554316Y-37873420D02*
X46438200Y-36989536D01*
X65184886Y-37079320D02*
X66068770Y-37963204D01*
X66068770Y-37963204D02*
X67482984Y-36548990D01*
X66599100Y-35665106D02*
X65184886Y-37079320D01*
X67482984Y-36548990D02*
X66599100Y-35665106D01*
X52771975Y-25120329D02*
X53655859Y-24236445D01*
X53655859Y-24236445D02*
X52241645Y-22822231D01*
X51357761Y-23706115D02*
X52771975Y-25120329D01*
X52241645Y-22822231D02*
X51357761Y-23706115D01*
X94445935Y-26603405D02*
X94445935Y-22678405D01*
X94445935Y-22678405D02*
X93470935Y-21703405D01*
X93470935Y-21703405D02*
X90545935Y-21703405D01*
X90545935Y-26603405D02*
X94445935Y-26603405D01*
X90545935Y-21703405D02*
X90545935Y-26603405D01*
X78800000Y-26375000D02*
X78800000Y-27625000D01*
X78800000Y-27625000D02*
X80800000Y-27625000D01*
X80800000Y-26375000D02*
X78800000Y-26375000D01*
X80800000Y-27625000D02*
X80800000Y-26375000D01*
X78800000Y-23965405D02*
X78800000Y-25215405D01*
X78800000Y-25215405D02*
X80800000Y-25215405D01*
X80800000Y-23965405D02*
X78800000Y-23965405D01*
X80800000Y-25215405D02*
X80800000Y-23965405D01*
X30375935Y-15878365D02*
X39315935Y-15878365D01*
X30375935Y-23178365D02*
X30375935Y-15878365D01*
X30375935Y-23178365D02*
X39315935Y-23178365D01*
X39315935Y-23178365D02*
X39315935Y-15878365D01*
X49558770Y-40459356D02*
X48674886Y-41343240D01*
X48674886Y-41343240D02*
X50089100Y-42757454D01*
X50972984Y-41873570D02*
X49558770Y-40459356D01*
X50089100Y-42757454D02*
X50972984Y-41873570D01*
X39101100Y-31117414D02*
X39984984Y-30233530D01*
X39984984Y-30233530D02*
X38570770Y-28819316D01*
X37686886Y-29703200D02*
X39101100Y-31117414D01*
X38570770Y-28819316D02*
X37686886Y-29703200D01*
X286208435Y-54467155D02*
X293193435Y-54467155D01*
X293193435Y-54467155D02*
X293828435Y-53832155D01*
X293828435Y-53832155D02*
X293828435Y-51927155D01*
X286208435Y-51927155D02*
X286208435Y-54467155D01*
X293828435Y-51927155D02*
X286208435Y-51927155D01*
X50636813Y-34147155D02*
X54879453Y-38389796D01*
X54879453Y-38389796D02*
X56293667Y-38389796D01*
X56293667Y-38389796D02*
X60536307Y-34147155D01*
X55586560Y-29197408D02*
X50636813Y-34147155D01*
X60536307Y-34147155D02*
X55586560Y-29197408D01*
X76117810Y-70075280D02*
X77917810Y-70075280D01*
X77917810Y-70075280D02*
X77917810Y-67275280D01*
X77017810Y-69425280D02*
X77017810Y-69025280D01*
X77017810Y-69025280D02*
X76467810Y-69025280D01*
X77017810Y-69025280D02*
X77567810Y-69025280D01*
X77017810Y-69025280D02*
X77417810Y-68425280D01*
X76617810Y-68425280D02*
X77017810Y-69025280D01*
X77017810Y-68425280D02*
X77017810Y-67925280D01*
X77417810Y-68425280D02*
X76617810Y-68425280D01*
X76117810Y-67275280D02*
X76117810Y-70075280D01*
X77917810Y-67275280D02*
X76117810Y-67275280D01*
X280800000Y-108175280D02*
X282600000Y-108175280D01*
X282600000Y-108175280D02*
X282600000Y-105375280D01*
X281700000Y-107525280D02*
X281700000Y-107125280D01*
X281700000Y-107125280D02*
X281150000Y-107125280D01*
X281700000Y-107125280D02*
X282250000Y-107125280D01*
X281700000Y-107125280D02*
X282100000Y-106525280D01*
X281300000Y-106525280D02*
X281700000Y-107125280D01*
X281700000Y-106525280D02*
X281700000Y-106025280D01*
X282100000Y-106525280D02*
X281300000Y-106525280D01*
X280800000Y-105375280D02*
X280800000Y-108175280D01*
X282600000Y-105375280D02*
X280800000Y-105375280D01*
X95167810Y-71125280D02*
X96967810Y-71125280D01*
X96967810Y-71125280D02*
X96967810Y-68325280D01*
X96067810Y-70475280D02*
X96067810Y-70075280D01*
X96067810Y-70075280D02*
X95517810Y-70075280D01*
X96067810Y-70075280D02*
X96617810Y-70075280D01*
X96067810Y-70075280D02*
X96467810Y-69475280D01*
X95667810Y-69475280D02*
X96067810Y-70075280D01*
X96067810Y-69475280D02*
X96067810Y-68975280D01*
X96467810Y-69475280D02*
X95667810Y-69475280D01*
X95167810Y-68325280D02*
X95167810Y-71125280D01*
X96967810Y-68325280D02*
X95167810Y-68325280D01*
X92786559Y-108175280D02*
X94586559Y-108175280D01*
X94586559Y-108175280D02*
X94586559Y-105375280D01*
X93686559Y-107525280D02*
X93686559Y-107125280D01*
X93686559Y-107125280D02*
X93136559Y-107125280D01*
X93686559Y-107125280D02*
X94236559Y-107125280D01*
X93686559Y-107125280D02*
X94086559Y-106525280D01*
X93286559Y-106525280D02*
X93686559Y-107125280D01*
X93686559Y-106525280D02*
X93686559Y-106025280D01*
X94086559Y-106525280D02*
X93286559Y-106525280D01*
X92786559Y-105375280D02*
X92786559Y-108175280D01*
X94586559Y-105375280D02*
X92786559Y-105375280D01*
X147555309Y-106984655D02*
X149355309Y-106984655D01*
X149355309Y-106984655D02*
X149355309Y-104184655D01*
X148455309Y-106334655D02*
X148455309Y-105934655D01*
X148455309Y-105934655D02*
X147905309Y-105934655D01*
X148455309Y-105934655D02*
X149005309Y-105934655D01*
X148455309Y-105934655D02*
X148855309Y-105334655D01*
X148055309Y-105334655D02*
X148455309Y-105934655D01*
X148455309Y-105334655D02*
X148455309Y-104834655D01*
X148855309Y-105334655D02*
X148055309Y-105334655D01*
X147555309Y-104184655D02*
X147555309Y-106984655D01*
X149355309Y-104184655D02*
X147555309Y-104184655D01*
X85642810Y-90175280D02*
X87442810Y-90175280D01*
X87442810Y-90175280D02*
X87442810Y-87375280D01*
X86542810Y-89525280D02*
X86542810Y-89125280D01*
X86542810Y-89125280D02*
X85992810Y-89125280D01*
X86542810Y-89125280D02*
X87092810Y-89125280D01*
X86542810Y-89125280D02*
X86942810Y-88525280D01*
X86142810Y-88525280D02*
X86542810Y-89125280D01*
X86542810Y-88525280D02*
X86542810Y-88025280D01*
X86942810Y-88525280D02*
X86142810Y-88525280D01*
X85642810Y-87375280D02*
X85642810Y-90175280D01*
X87442810Y-87375280D02*
X85642810Y-87375280D01*
X199942810Y-90175280D02*
X201742810Y-90175280D01*
X201742810Y-90175280D02*
X201742810Y-87375280D01*
X200842810Y-89525280D02*
X200842810Y-89125280D01*
X200842810Y-89125280D02*
X200292810Y-89125280D01*
X200842810Y-89125280D02*
X201392810Y-89125280D01*
X200842810Y-89125280D02*
X201242810Y-88525280D01*
X200442810Y-88525280D02*
X200842810Y-89125280D01*
X200842810Y-88525280D02*
X200842810Y-88025280D01*
X201242810Y-88525280D02*
X200442810Y-88525280D01*
X199942810Y-87375280D02*
X199942810Y-90175280D01*
X201742810Y-87375280D02*
X199942810Y-87375280D01*
X118980309Y-108175280D02*
X120780309Y-108175280D01*
X120780309Y-108175280D02*
X120780309Y-105375280D01*
X119880309Y-107525280D02*
X119880309Y-107125280D01*
X119880309Y-107125280D02*
X119330309Y-107125280D01*
X119880309Y-107125280D02*
X120430309Y-107125280D01*
X119880309Y-107125280D02*
X120280309Y-106525280D01*
X119480309Y-106525280D02*
X119880309Y-107125280D01*
X119880309Y-106525280D02*
X119880309Y-106025280D01*
X120280309Y-106525280D02*
X119480309Y-106525280D01*
X118980309Y-105375280D02*
X118980309Y-108175280D01*
X120780309Y-105375280D02*
X118980309Y-105375280D01*
X257092810Y-89125280D02*
X258892810Y-89125280D01*
X258892810Y-89125280D02*
X258892810Y-86325280D01*
X257992810Y-88475280D02*
X257992810Y-88075280D01*
X257992810Y-88075280D02*
X257442810Y-88075280D01*
X257992810Y-88075280D02*
X258542810Y-88075280D01*
X257992810Y-88075280D02*
X258392810Y-87475280D01*
X257592810Y-87475280D02*
X257992810Y-88075280D01*
X257992810Y-87475280D02*
X257992810Y-86975280D01*
X258392810Y-87475280D02*
X257592810Y-87475280D01*
X257092810Y-86325280D02*
X257092810Y-89125280D01*
X258892810Y-86325280D02*
X257092810Y-86325280D01*
X33255309Y-106984655D02*
X35055309Y-106984655D01*
X35055309Y-106984655D02*
X35055309Y-104184655D01*
X34155309Y-106334655D02*
X34155309Y-105934655D01*
X34155309Y-105934655D02*
X33605309Y-105934655D01*
X34155309Y-105934655D02*
X34705309Y-105934655D01*
X34155309Y-105934655D02*
X34555309Y-105334655D01*
X33755309Y-105334655D02*
X34155309Y-105934655D01*
X34155309Y-105334655D02*
X34155309Y-104834655D01*
X34555309Y-105334655D02*
X33755309Y-105334655D01*
X33255309Y-104184655D02*
X33255309Y-106984655D01*
X35055309Y-104184655D02*
X33255309Y-104184655D01*
X228517810Y-70075280D02*
X230317810Y-70075280D01*
X230317810Y-70075280D02*
X230317810Y-67275280D01*
X229417810Y-69425280D02*
X229417810Y-69025280D01*
X229417810Y-69025280D02*
X228867810Y-69025280D01*
X229417810Y-69025280D02*
X229967810Y-69025280D01*
X229417810Y-69025280D02*
X229817810Y-68425280D01*
X229017810Y-68425280D02*
X229417810Y-69025280D01*
X229417810Y-68425280D02*
X229417810Y-67925280D01*
X229817810Y-68425280D02*
X229017810Y-68425280D01*
X228517810Y-67275280D02*
X228517810Y-70075280D01*
X230317810Y-67275280D02*
X228517810Y-67275280D01*
X238042810Y-90175280D02*
X239842810Y-90175280D01*
X239842810Y-90175280D02*
X239842810Y-87375280D01*
X238942810Y-89525280D02*
X238942810Y-89125280D01*
X238942810Y-89125280D02*
X238392810Y-89125280D01*
X238942810Y-89125280D02*
X239492810Y-89125280D01*
X238942810Y-89125280D02*
X239342810Y-88525280D01*
X238542810Y-88525280D02*
X238942810Y-89125280D01*
X238942810Y-88525280D02*
X238942810Y-88025280D01*
X239342810Y-88525280D02*
X238542810Y-88525280D01*
X238042810Y-87375280D02*
X238042810Y-90175280D01*
X239842810Y-87375280D02*
X238042810Y-87375280D01*
X211849059Y-108175280D02*
X213649059Y-108175280D01*
X213649059Y-108175280D02*
X213649059Y-105375280D01*
X212749059Y-107525280D02*
X212749059Y-107125280D01*
X212749059Y-107125280D02*
X212199059Y-107125280D01*
X212749059Y-107125280D02*
X213299059Y-107125280D01*
X212749059Y-107125280D02*
X213149059Y-106525280D01*
X212349059Y-106525280D02*
X212749059Y-107125280D01*
X212749059Y-106525280D02*
X212749059Y-106025280D01*
X213149059Y-106525280D02*
X212349059Y-106525280D01*
X211849059Y-105375280D02*
X211849059Y-108175280D01*
X213649059Y-105375280D02*
X211849059Y-105375280D01*
X218992810Y-89125280D02*
X220792810Y-89125280D01*
X220792810Y-89125280D02*
X220792810Y-86325280D01*
X219892810Y-88475280D02*
X219892810Y-88075280D01*
X219892810Y-88075280D02*
X219342810Y-88075280D01*
X219892810Y-88075280D02*
X220442810Y-88075280D01*
X219892810Y-88075280D02*
X220292810Y-87475280D01*
X219492810Y-87475280D02*
X219892810Y-88075280D01*
X219892810Y-87475280D02*
X219892810Y-86975280D01*
X220292810Y-87475280D02*
X219492810Y-87475280D01*
X218992810Y-86325280D02*
X218992810Y-89125280D01*
X220792810Y-86325280D02*
X218992810Y-86325280D01*
X276142810Y-109225280D02*
X277942810Y-109225280D01*
X277942810Y-109225280D02*
X277942810Y-106425280D01*
X277042810Y-108575280D02*
X277042810Y-108175280D01*
X277042810Y-108175280D02*
X276492810Y-108175280D01*
X277042810Y-108175280D02*
X277592810Y-108175280D01*
X277042810Y-108175280D02*
X277442810Y-107575280D01*
X276642810Y-107575280D02*
X277042810Y-108175280D01*
X277042810Y-107575280D02*
X277042810Y-107075280D01*
X277442810Y-107575280D02*
X276642810Y-107575280D01*
X276142810Y-106425280D02*
X276142810Y-109225280D01*
X277942810Y-106425280D02*
X276142810Y-106425280D01*
X209467810Y-71125280D02*
X211267810Y-71125280D01*
X211267810Y-71125280D02*
X211267810Y-68325280D01*
X210367810Y-70475280D02*
X210367810Y-70075280D01*
X210367810Y-70075280D02*
X209817810Y-70075280D01*
X210367810Y-70075280D02*
X210917810Y-70075280D01*
X210367810Y-70075280D02*
X210767810Y-69475280D01*
X209967810Y-69475280D02*
X210367810Y-70075280D01*
X210367810Y-69475280D02*
X210367810Y-68975280D01*
X210767810Y-69475280D02*
X209967810Y-69475280D01*
X209467810Y-68325280D02*
X209467810Y-71125280D01*
X211267810Y-68325280D02*
X209467810Y-68325280D01*
X247567810Y-71125280D02*
X249367810Y-71125280D01*
X249367810Y-71125280D02*
X249367810Y-68325280D01*
X248467810Y-70475280D02*
X248467810Y-70075280D01*
X248467810Y-70075280D02*
X247917810Y-70075280D01*
X248467810Y-70075280D02*
X249017810Y-70075280D01*
X248467810Y-70075280D02*
X248867810Y-69475280D01*
X248067810Y-69475280D02*
X248467810Y-70075280D01*
X248467810Y-69475280D02*
X248467810Y-68975280D01*
X248867810Y-69475280D02*
X248067810Y-69475280D01*
X247567810Y-68325280D02*
X247567810Y-71125280D01*
X249367810Y-68325280D02*
X247567810Y-68325280D01*
X185655310Y-106984655D02*
X187455310Y-106984655D01*
X187455310Y-106984655D02*
X187455310Y-104184655D01*
X186555310Y-106334655D02*
X186555310Y-105934655D01*
X186555310Y-105934655D02*
X186005310Y-105934655D01*
X186555310Y-105934655D02*
X187105310Y-105934655D01*
X186555310Y-105934655D02*
X186955310Y-105334655D01*
X186155310Y-105334655D02*
X186555310Y-105934655D01*
X186555310Y-105334655D02*
X186555310Y-104834655D01*
X186955310Y-105334655D02*
X186155310Y-105334655D01*
X185655310Y-104184655D02*
X185655310Y-106984655D01*
X187455310Y-104184655D02*
X185655310Y-104184655D01*
X276142810Y-90175280D02*
X277942810Y-90175280D01*
X277942810Y-90175280D02*
X277942810Y-87375280D01*
X277042810Y-89525280D02*
X277042810Y-89125280D01*
X277042810Y-89125280D02*
X276492810Y-89125280D01*
X277042810Y-89125280D02*
X277592810Y-89125280D01*
X277042810Y-89125280D02*
X277442810Y-88525280D01*
X276642810Y-88525280D02*
X277042810Y-89125280D01*
X277042810Y-88525280D02*
X277042810Y-88025280D01*
X277442810Y-88525280D02*
X276642810Y-88525280D01*
X276142810Y-87375280D02*
X276142810Y-90175280D01*
X277942810Y-87375280D02*
X276142810Y-87375280D01*
X49924060Y-70075280D02*
X51724060Y-70075280D01*
X51724060Y-70075280D02*
X51724060Y-67275280D01*
X50824060Y-69425280D02*
X50824060Y-69025280D01*
X50824060Y-69025280D02*
X50274060Y-69025280D01*
X50824060Y-69025280D02*
X51374060Y-69025280D01*
X50824060Y-69025280D02*
X51224060Y-68425280D01*
X50424060Y-68425280D02*
X50824060Y-69025280D01*
X50824060Y-68425280D02*
X50824060Y-67925280D01*
X51224060Y-68425280D02*
X50424060Y-68425280D01*
X49924060Y-67275280D02*
X49924060Y-70075280D01*
X51724060Y-67275280D02*
X49924060Y-67275280D01*
X228517810Y-51025280D02*
X230317810Y-51025280D01*
X230317810Y-51025280D02*
X230317810Y-48225280D01*
X229417810Y-50375280D02*
X229417810Y-49975280D01*
X229417810Y-49975280D02*
X228867810Y-49975280D01*
X229417810Y-49975280D02*
X229967810Y-49975280D01*
X229417810Y-49975280D02*
X229817810Y-49375280D01*
X229017810Y-49375280D02*
X229417810Y-49975280D01*
X229417810Y-49375280D02*
X229417810Y-48875280D01*
X229817810Y-49375280D02*
X229017810Y-49375280D01*
X228517810Y-48225280D02*
X228517810Y-51025280D01*
X230317810Y-48225280D02*
X228517810Y-48225280D01*
X274952185Y-71125280D02*
X276752185Y-71125280D01*
X276752185Y-71125280D02*
X276752185Y-68325280D01*
X275852185Y-70475280D02*
X275852185Y-70075280D01*
X275852185Y-70075280D02*
X275302185Y-70075280D01*
X275852185Y-70075280D02*
X276402185Y-70075280D01*
X275852185Y-70075280D02*
X276252185Y-69475280D01*
X275452185Y-69475280D02*
X275852185Y-70075280D01*
X275852185Y-69475280D02*
X275852185Y-68975280D01*
X276252185Y-69475280D02*
X275452185Y-69475280D01*
X274952185Y-68325280D02*
X274952185Y-71125280D01*
X276752185Y-68325280D02*
X274952185Y-68325280D01*
X95167810Y-52075280D02*
X96967810Y-52075280D01*
X96967810Y-52075280D02*
X96967810Y-49275280D01*
X96067810Y-51425280D02*
X96067810Y-51025280D01*
X96067810Y-51025280D02*
X95517810Y-51025280D01*
X96067810Y-51025280D02*
X96617810Y-51025280D01*
X96067810Y-51025280D02*
X96467810Y-50425280D01*
X95667810Y-50425280D02*
X96067810Y-51025280D01*
X96067810Y-50425280D02*
X96067810Y-49925280D01*
X96467810Y-50425280D02*
X95667810Y-50425280D01*
X95167810Y-49275280D02*
X95167810Y-52075280D01*
X96967810Y-49275280D02*
X95167810Y-49275280D01*
X28492809Y-89125280D02*
X30292809Y-89125280D01*
X30292809Y-89125280D02*
X30292809Y-86325280D01*
X29392809Y-88475280D02*
X29392809Y-88075280D01*
X29392809Y-88075280D02*
X28842809Y-88075280D01*
X29392809Y-88075280D02*
X29942809Y-88075280D01*
X29392809Y-88075280D02*
X29792809Y-87475280D01*
X28992809Y-87475280D02*
X29392809Y-88075280D01*
X29392809Y-87475280D02*
X29392809Y-86975280D01*
X29792809Y-87475280D02*
X28992809Y-87475280D01*
X28492809Y-86325280D02*
X28492809Y-89125280D01*
X30292809Y-86325280D02*
X28492809Y-86325280D01*
X295192810Y-89125280D02*
X296992810Y-89125280D01*
X296992810Y-89125280D02*
X296992810Y-86325280D01*
X296092810Y-88475280D02*
X296092810Y-88075280D01*
X296092810Y-88075280D02*
X295542810Y-88075280D01*
X296092810Y-88075280D02*
X296642810Y-88075280D01*
X296092810Y-88075280D02*
X296492810Y-87475280D01*
X295692810Y-87475280D02*
X296092810Y-88075280D01*
X296092810Y-87475280D02*
X296092810Y-86975280D01*
X296492810Y-87475280D02*
X295692810Y-87475280D01*
X295192810Y-86325280D02*
X295192810Y-89125280D01*
X296992810Y-86325280D02*
X295192810Y-86325280D01*
X47542809Y-108175280D02*
X49342809Y-108175280D01*
X49342809Y-108175280D02*
X49342809Y-105375280D01*
X48442809Y-107525280D02*
X48442809Y-107125280D01*
X48442809Y-107125280D02*
X47892809Y-107125280D01*
X48442809Y-107125280D02*
X48992809Y-107125280D01*
X48442809Y-107125280D02*
X48842809Y-106525280D01*
X48042809Y-106525280D02*
X48442809Y-107125280D01*
X48442809Y-106525280D02*
X48442809Y-106025280D01*
X48842809Y-106525280D02*
X48042809Y-106525280D01*
X47542809Y-105375280D02*
X47542809Y-108175280D01*
X49342809Y-105375280D02*
X47542809Y-105375280D01*
X66592810Y-89125280D02*
X68392810Y-89125280D01*
X68392810Y-89125280D02*
X68392810Y-86325280D01*
X67492810Y-88475280D02*
X67492810Y-88075280D01*
X67492810Y-88075280D02*
X66942810Y-88075280D01*
X67492810Y-88075280D02*
X68042810Y-88075280D01*
X67492810Y-88075280D02*
X67892810Y-87475280D01*
X67092810Y-87475280D02*
X67492810Y-88075280D01*
X67492810Y-87475280D02*
X67492810Y-86975280D01*
X67892810Y-87475280D02*
X67092810Y-87475280D01*
X66592810Y-86325280D02*
X66592810Y-89125280D01*
X68392810Y-86325280D02*
X66592810Y-86325280D01*
X104692810Y-89125280D02*
X106492810Y-89125280D01*
X106492810Y-89125280D02*
X106492810Y-86325280D01*
X105592810Y-88475280D02*
X105592810Y-88075280D01*
X105592810Y-88075280D02*
X105042810Y-88075280D01*
X105592810Y-88075280D02*
X106142810Y-88075280D01*
X105592810Y-88075280D02*
X105992810Y-87475280D01*
X105192810Y-87475280D02*
X105592810Y-88075280D01*
X105592810Y-87475280D02*
X105592810Y-86975280D01*
X105992810Y-87475280D02*
X105192810Y-87475280D01*
X104692810Y-86325280D02*
X104692810Y-89125280D01*
X106492810Y-86325280D02*
X104692810Y-86325280D01*
X123742810Y-90175280D02*
X125542810Y-90175280D01*
X125542810Y-90175280D02*
X125542810Y-87375280D01*
X124642810Y-89525280D02*
X124642810Y-89125280D01*
X124642810Y-89125280D02*
X124092810Y-89125280D01*
X124642810Y-89125280D02*
X125192810Y-89125280D01*
X124642810Y-89125280D02*
X125042810Y-88525280D01*
X124242810Y-88525280D02*
X124642810Y-89125280D01*
X124642810Y-88525280D02*
X124642810Y-88025280D01*
X125042810Y-88525280D02*
X124242810Y-88525280D01*
X123742810Y-87375280D02*
X123742810Y-90175280D01*
X125542810Y-87375280D02*
X123742810Y-87375280D01*
X254711560Y-108175280D02*
X256511560Y-108175280D01*
X256511560Y-108175280D02*
X256511560Y-105375280D01*
X255611560Y-107525280D02*
X255611560Y-107125280D01*
X255611560Y-107125280D02*
X255061560Y-107125280D01*
X255611560Y-107125280D02*
X256161560Y-107125280D01*
X255611560Y-107125280D02*
X256011560Y-106525280D01*
X255211560Y-106525280D02*
X255611560Y-107125280D01*
X255611560Y-106525280D02*
X255611560Y-106025280D01*
X256011560Y-106525280D02*
X255211560Y-106525280D01*
X254711560Y-105375280D02*
X254711560Y-108175280D01*
X256511560Y-105375280D02*
X254711560Y-105375280D01*
X114217810Y-70075280D02*
X116017810Y-70075280D01*
X116017810Y-70075280D02*
X116017810Y-67275280D01*
X115117810Y-69425280D02*
X115117810Y-69025280D01*
X115117810Y-69025280D02*
X114567810Y-69025280D01*
X115117810Y-69025280D02*
X115667810Y-69025280D01*
X115117810Y-69025280D02*
X115517810Y-68425280D01*
X114717810Y-68425280D02*
X115117810Y-69025280D01*
X115117810Y-68425280D02*
X115117810Y-67925280D01*
X115517810Y-68425280D02*
X114717810Y-68425280D01*
X114217810Y-67275280D02*
X114217810Y-70075280D01*
X116017810Y-67275280D02*
X114217810Y-67275280D01*
X166605309Y-108175280D02*
X168405309Y-108175280D01*
X168405309Y-108175280D02*
X168405309Y-105375280D01*
X167505309Y-107525280D02*
X167505309Y-107125280D01*
X167505309Y-107125280D02*
X166955309Y-107125280D01*
X167505309Y-107125280D02*
X168055309Y-107125280D01*
X167505309Y-107125280D02*
X167905309Y-106525280D01*
X167105309Y-106525280D02*
X167505309Y-107125280D01*
X167505309Y-106525280D02*
X167505309Y-106025280D01*
X167905309Y-106525280D02*
X167105309Y-106525280D01*
X166605309Y-105375280D02*
X166605309Y-108175280D01*
X168405309Y-105375280D02*
X166605309Y-105375280D01*
X74927184Y-106984655D02*
X76727184Y-106984655D01*
X76727184Y-106984655D02*
X76727184Y-104184655D01*
X75827184Y-106334655D02*
X75827184Y-105934655D01*
X75827184Y-105934655D02*
X75277184Y-105934655D01*
X75827184Y-105934655D02*
X76377184Y-105934655D01*
X75827184Y-105934655D02*
X76227184Y-105334655D01*
X75427184Y-105334655D02*
X75827184Y-105934655D01*
X75827184Y-105334655D02*
X75827184Y-104834655D01*
X76227184Y-105334655D02*
X75427184Y-105334655D01*
X74927184Y-104184655D02*
X74927184Y-106984655D01*
X76727184Y-104184655D02*
X74927184Y-104184655D01*
X266617810Y-70075280D02*
X268417810Y-70075280D01*
X268417810Y-70075280D02*
X268417810Y-67275280D01*
X267517810Y-69425280D02*
X267517810Y-69025280D01*
X267517810Y-69025280D02*
X266967810Y-69025280D01*
X267517810Y-69025280D02*
X268067810Y-69025280D01*
X267517810Y-69025280D02*
X267917810Y-68425280D01*
X267117810Y-68425280D02*
X267517810Y-69025280D01*
X267517810Y-68425280D02*
X267517810Y-67925280D01*
X267917810Y-68425280D02*
X267117810Y-68425280D01*
X266617810Y-67275280D02*
X266617810Y-70075280D01*
X268417810Y-67275280D02*
X266617810Y-67275280D01*
X47542809Y-90175280D02*
X49342809Y-90175280D01*
X49342809Y-90175280D02*
X49342809Y-87375280D01*
X48442809Y-89525280D02*
X48442809Y-89125280D01*
X48442809Y-89125280D02*
X47892809Y-89125280D01*
X48442809Y-89125280D02*
X48992809Y-89125280D01*
X48442809Y-89125280D02*
X48842809Y-88525280D01*
X48042809Y-88525280D02*
X48442809Y-89125280D01*
X48442809Y-88525280D02*
X48442809Y-88025280D01*
X48842809Y-88525280D02*
X48042809Y-88525280D01*
X47542809Y-87375280D02*
X47542809Y-90175280D01*
X49342809Y-87375280D02*
X47542809Y-87375280D01*
X76117810Y-51025280D02*
X77917810Y-51025280D01*
X77917810Y-51025280D02*
X77917810Y-48225280D01*
X77017810Y-50375280D02*
X77017810Y-49975280D01*
X77017810Y-49975280D02*
X76467810Y-49975280D01*
X77017810Y-49975280D02*
X77567810Y-49975280D01*
X77017810Y-49975280D02*
X77417810Y-49375280D01*
X76617810Y-49375280D02*
X77017810Y-49975280D01*
X77017810Y-49375280D02*
X77017810Y-48875280D01*
X77417810Y-49375280D02*
X76617810Y-49375280D01*
X76117810Y-48225280D02*
X76117810Y-51025280D01*
X77917810Y-48225280D02*
X76117810Y-48225280D01*
X247567810Y-52075280D02*
X249367810Y-52075280D01*
X249367810Y-52075280D02*
X249367810Y-49275280D01*
X248467810Y-51425280D02*
X248467810Y-51025280D01*
X248467810Y-51025280D02*
X247917810Y-51025280D01*
X248467810Y-51025280D02*
X249017810Y-51025280D01*
X248467810Y-51025280D02*
X248867810Y-50425280D01*
X248067810Y-50425280D02*
X248467810Y-51025280D01*
X248467810Y-50425280D02*
X248467810Y-49925280D01*
X248867810Y-50425280D02*
X248067810Y-50425280D01*
X247567810Y-49275280D02*
X247567810Y-52075280D01*
X249367810Y-49275280D02*
X247567810Y-49275280D01*
X230899059Y-108175280D02*
X232699059Y-108175280D01*
X232699059Y-108175280D02*
X232699059Y-105375280D01*
X231799059Y-107525280D02*
X231799059Y-107125280D01*
X231799059Y-107125280D02*
X231249059Y-107125280D01*
X231799059Y-107125280D02*
X232349059Y-107125280D01*
X231799059Y-107125280D02*
X232199059Y-106525280D01*
X231399059Y-106525280D02*
X231799059Y-107125280D01*
X231799059Y-106525280D02*
X231799059Y-106025280D01*
X232199059Y-106525280D02*
X231399059Y-106525280D01*
X230899059Y-105375280D02*
X230899059Y-108175280D01*
X232699059Y-105375280D02*
X230899059Y-105375280D01*
X57067810Y-71125280D02*
X58867810Y-71125280D01*
X58867810Y-71125280D02*
X58867810Y-68325280D01*
X57967810Y-70475280D02*
X57967810Y-70075280D01*
X57967810Y-70075280D02*
X57417810Y-70075280D01*
X57967810Y-70075280D02*
X58517810Y-70075280D01*
X57967810Y-70075280D02*
X58367810Y-69475280D01*
X57567810Y-69475280D02*
X57967810Y-70075280D01*
X57967810Y-69475280D02*
X57967810Y-68975280D01*
X58367810Y-69475280D02*
X57567810Y-69475280D01*
X57067810Y-68325280D02*
X57067810Y-71125280D01*
X58867810Y-68325280D02*
X57067810Y-68325280D01*
M02*
